<svg width="259" height="140" viewBox="0 0 259 140" fill="none" xmlns="http://www.w3.org/2000/svg">
<path d="M70.8647 139.371C70.8647 139.371 71.5817 139.353 72.942 139.335C74.3023 139.316 76.2876 139.298 78.8244 139.261C83.8796 139.206 91.1223 139.132 99.7989 139.077C104.137 139.04 108.843 139.004 113.825 138.985C118.788 138.967 124.045 138.93 129.468 138.912C134.891 138.893 140.498 138.875 146.196 138.875C151.895 138.875 157.685 138.856 163.458 138.856C169.248 138.856 175.039 138.875 180.737 138.875C186.436 138.875 192.042 138.912 197.465 138.912C202.888 138.93 208.127 138.948 213.109 138.985C218.072 139.004 222.778 139.04 227.116 139.077C235.793 139.132 243.036 139.206 248.109 139.261C250.646 139.298 252.631 139.316 253.992 139.335C255.352 139.353 256.069 139.371 256.069 139.371C256.069 139.371 255.352 139.371 253.992 139.39C252.631 139.408 250.646 139.427 248.109 139.463C243.036 139.519 235.811 139.592 227.116 139.647C222.778 139.684 218.072 139.721 213.109 139.739C208.127 139.758 202.888 139.794 197.465 139.813C192.042 139.831 186.436 139.85 180.737 139.85C175.039 139.85 169.248 139.868 163.458 139.868C157.667 139.868 151.895 139.85 146.196 139.85C140.498 139.85 134.891 139.813 129.468 139.813C124.045 139.794 118.788 139.776 113.825 139.739C108.843 139.721 104.156 139.684 99.7989 139.647C91.1223 139.592 83.8796 139.519 78.8244 139.463C76.2876 139.427 74.3023 139.408 72.942 139.39C71.5817 139.39 70.8647 139.371 70.8647 139.371Z" fill="#989898"/>
<path d="M165.443 33.7368H163.145V139.39H165.443V33.7368Z" fill="url(#paint0_linear_175_11594)"/>
<path d="M165.755 39.0344C165.075 39.0344 162.869 39.0344 162.814 39.0344C162.759 39.0344 162.649 39.016 162.649 38.8321C162.649 38.0043 162.649 34.9878 162.649 34.9142C162.649 34.8406 162.667 34.7671 162.814 34.7671C162.943 34.7671 165.185 34.7671 165.774 34.7671C165.939 34.7671 165.939 34.8774 165.939 34.9694C165.939 35.043 165.939 38.0044 165.939 38.8505C165.939 38.9608 165.921 39.0344 165.755 39.0344Z" fill="url(#paint1_linear_175_11594)"/>
<path d="M164.303 34.2334C165.41 34.2334 166.307 33.3605 166.307 32.2837C166.307 31.2069 165.41 30.334 164.303 30.334C163.197 30.334 162.299 31.2069 162.299 32.2837C162.299 33.3605 163.197 34.2334 164.303 34.2334Z" fill="url(#paint2_radial_175_11594)"/>
<path opacity="0.3" d="M164.303 30.334C164.266 30.334 164.23 30.334 164.174 30.334C165.094 30.4076 165.811 31.1433 165.811 32.0446C165.811 32.9827 165.02 33.7552 164.064 33.7552C163.145 33.7552 162.391 33.0562 162.318 32.1549C162.318 32.1917 162.318 32.2285 162.318 32.2653C162.318 33.3505 163.219 34.215 164.322 34.215C165.425 34.215 166.325 33.3505 166.325 32.2653C166.288 31.1985 165.406 30.334 164.303 30.334Z" fill="url(#paint3_radial_175_11594)"/>
<path d="M165.516 32.0444C165.516 32.8722 164.836 33.5343 163.991 33.5343C163.145 33.5343 162.465 32.8722 162.465 32.0444C162.465 31.2167 163.145 30.5546 163.991 30.5546C164.836 30.5362 165.516 31.2167 165.516 32.0444Z" fill="url(#paint4_radial_175_11594)"/>
<path d="M165.443 39.0342H163.145V41.9403H165.443V39.0342Z" fill="url(#paint5_linear_175_11594)"/>
<path d="M165.443 110.033H163.145V114.117H165.443V110.033Z" fill="url(#paint6_linear_175_11594)"/>
<path d="M165.443 33.9209H163.145V34.7486H165.443V33.9209Z" fill="url(#paint7_linear_175_11594)"/>
<path opacity="0.8" d="M164.303 34.7671H163.053V39.0344H164.303V34.7671Z" fill="url(#paint8_linear_175_11594)"/>
<path d="M70.2213 105.306C70.2213 103.871 70.2213 50.4748 70.2213 48.1572C70.2213 45.527 71.0669 44.4785 74.4677 44.4785C77.464 44.4785 252.815 44.4785 254.672 44.4785C256.528 44.4785 258.293 44.828 258.293 48.2124C258.293 51.5968 258.293 102.253 258.293 105.876C258.293 109.5 255.205 109.776 253.661 109.776C252.116 109.776 77.4824 109.776 74.1 109.776C70.736 109.776 70.2213 106.741 70.2213 105.306Z" fill="#6ED685"/>
<path opacity="0.5" d="M258.311 105.876C258.311 102.253 258.311 51.5968 258.311 48.2124C258.311 44.828 256.547 44.4785 254.69 44.4785C252.833 44.4785 77.4825 44.4785 74.4861 44.4785C71.0853 44.4785 70.2397 45.527 70.2397 48.1572C70.2397 50.4748 70.2397 103.871 70.2397 105.306C70.2397 106.741 70.7545 109.776 74.1185 109.776C77.5008 109.776 252.135 109.776 253.679 109.776C255.223 109.776 258.311 109.5 258.311 105.876ZM74.3391 109.095C71.0302 109.095 70.5339 106.079 70.5339 104.662C70.5339 103.246 70.5339 50.6956 70.5339 48.3964C70.5339 45.7845 71.3795 44.736 74.7067 44.736C77.6479 44.736 252.521 44.736 254.341 44.736C256.161 44.736 257.889 45.0855 257.889 48.4331C257.889 51.7808 257.889 101.627 257.889 105.214C257.889 108.801 254.874 109.077 253.348 109.077C251.841 109.095 77.6663 109.095 74.3391 109.095Z" fill="#00A9A2"/>
<path opacity="0.5" d="M72.0596 103.338V50.0704C72.0596 47.1274 73.2544 46.1157 76.8023 46.1157H252.503C254.561 46.1157 256.418 46.4284 256.418 50.1072V103.761C256.418 105.141 256.069 106.152 255.352 106.833C254.359 107.789 252.944 107.79 252.025 107.771H251.859H76.4714C72.0596 107.808 72.0596 104.442 72.0596 103.338ZM254.488 50.6406C254.488 48.2494 253.844 48.2494 252.264 48.2494H77.0229C74.2839 48.2494 73.9897 48.7277 73.9897 50.5854V102.842C73.9897 104.644 74.4309 105.674 76.692 105.674H251.786C252.558 105.674 253.403 105.674 253.918 105.196C254.286 104.828 254.469 104.184 254.469 103.265V50.6406H254.488Z" fill="#BCBCBC"/>
<path d="M72.5007 103.173V50.2542C72.5007 47.4952 73.5669 46.6123 76.8942 46.6123H252.392C253.991 46.6123 255.958 46.6123 255.958 50.291V103.596C255.958 104.902 255.646 105.821 255.003 106.447C254.102 107.311 252.833 107.311 251.914 107.293H251.749H76.5633C72.9235 107.33 72.5007 104.957 72.5007 103.173ZM254.947 50.291C254.947 47.6056 253.991 47.6055 252.392 47.6055H76.8942C73.953 47.6055 73.5118 48.1941 73.5118 50.2542V103.173C73.5118 105.067 74.0265 106.318 76.5633 106.318H251.914C252.705 106.318 253.679 106.318 254.286 105.748C254.727 105.325 254.947 104.607 254.947 103.596V50.291Z" fill="#232020"/>
<path d="M104.523 85.6254L102.501 93.9577H92.5193L102.979 57.9614H115.792L126.527 93.9577H116.122L113.825 85.6254H104.523ZM112.483 78.4703L110.828 72.0142C110.295 69.9909 109.597 67.0479 109.064 64.9142H108.953C108.42 67.0479 107.887 70.046 107.354 72.0693L105.81 78.4887H112.483V78.4703Z" fill="#004A47"/>
<path d="M131.141 58.4397C133.751 58.0166 137.538 57.6855 143.053 57.6855C148.237 57.6855 151.913 58.5868 154.413 60.5182C156.877 62.3391 158.531 65.5396 158.531 69.2183C158.531 72.8419 157.299 76.0608 155.057 78.084C152.115 80.6959 147.906 81.8179 143.053 81.8179C142.152 81.8179 141.288 81.7628 140.7 81.7076V93.9393H131.141V58.4397ZM140.7 74.3501C141.233 74.4053 141.876 74.4605 142.887 74.4605C146.674 74.4605 149.027 72.5292 149.027 69.4391C149.027 66.772 147.207 64.951 143.586 64.951C142.152 64.951 141.178 65.0614 140.7 65.1718V74.3501Z" fill="#004A47"/>
<path d="M163.292 58.4397C166.013 58.0166 170.13 57.6855 174.928 57.6855C180.425 57.6855 184.377 58.4397 187.097 60.463C189.395 62.2288 190.664 64.7855 190.664 68.317C190.664 72.8051 187.3 76.0056 184.469 77.0172V77.238C186.877 78.2496 188.145 80.5488 189.064 83.639C190.186 87.3177 191.362 92.5598 192.061 93.9577H182.189C181.656 92.8909 180.755 90.1135 179.689 85.6806C178.733 81.3581 177.391 80.4384 174.395 80.4384H172.851V93.9577H163.292V58.4397ZM172.851 73.5408H175.351C178.972 73.5408 181.068 71.7199 181.068 69.0528C181.068 66.3305 179.303 64.8223 176.105 64.7855C174.285 64.7855 173.329 64.8959 172.851 65.0062V73.5408Z" fill="#004A47"/>
<path d="M205.903 57.9614V93.9577H196.234V57.9614H205.903Z" fill="#004A47"/>
<path d="M212.539 57.9614H222.208V85.9013H236.032V93.9577H212.539V57.9614Z" fill="#004A47"/>
<path d="M236.491 43.7245V39.0341C236.491 38.5743 236.124 38.188 235.646 38.188C235.186 38.188 234.8 38.5743 234.8 39.0341V43.4486C235.021 44.1475 235.848 44.074 236.491 43.7245Z" fill="#E08820"/>
<path d="M234.469 44.1475C234.432 43.9452 234.212 42.8967 233.293 42.584C232.668 42.3633 231.988 42.584 231.271 43.2278C230.738 43.7245 230.241 44.2578 229.818 44.8464C229.432 45.3982 229.028 46.134 229.34 46.8145C229.543 47.2376 230.057 47.2928 230.407 47.0169C230.811 46.7042 230.903 46.134 231.197 45.7293C231.528 45.2511 231.951 44.8281 232.374 44.4234C232.557 44.2579 232.668 44.1843 232.741 44.1475C232.778 44.2211 232.815 44.3314 232.833 44.405C232.907 44.8464 233.329 45.1408 233.771 45.0672C234.249 45.012 234.561 44.5889 234.469 44.1475Z" fill="#F3A436"/>
<path d="M235.94 44.0557C235.848 43.8534 235.407 42.8969 234.432 42.7866C233.771 42.713 233.164 43.0808 232.612 43.8718C231.381 45.6743 231.307 46.6676 231.307 46.8516C231.307 46.8516 231.252 47.5321 231.896 47.6057C232.465 47.6792 232.741 47.3298 232.943 46.8516C232.943 46.8516 232.943 46.87 232.943 46.8883C233.09 46.1342 233.532 45.4168 233.973 44.8099C234.101 44.6075 234.212 44.5156 234.267 44.4604C234.322 44.5156 234.377 44.6075 234.414 44.6995C234.598 45.1042 235.076 45.3065 235.48 45.1226C235.921 44.957 236.124 44.4788 235.94 44.0557Z" fill="#FDB73B"/>
<path d="M237.631 44.0555C237.521 43.8715 236.896 43.007 235.94 43.0806C235.278 43.1358 234.745 43.5956 234.341 44.4785C233.495 46.3363 233.532 47.3112 233.568 47.5871C233.568 47.5871 233.532 48.1205 234.102 48.286C234.671 48.4332 235.26 48.0837 235.205 47.2376C235.223 46.9617 235.333 46.2811 235.848 45.1591C235.94 44.9384 236.032 44.828 236.087 44.7544C236.142 44.8096 236.234 44.8832 236.271 44.9568C236.51 45.3247 237.024 45.435 237.41 45.1959C237.778 44.9567 237.87 44.4417 237.631 44.0555Z" fill="#F3A436"/>
<path d="M240.829 43.7245V39.0341C240.829 38.5743 241.197 38.188 241.675 38.188C242.135 38.188 242.521 38.5743 242.521 39.0341V43.4486C242.3 44.1475 241.473 44.074 240.829 43.7245Z" fill="#E08820"/>
<path d="M242.852 44.1475C242.888 43.9452 243.109 42.8967 244.028 42.584C244.653 42.3633 245.333 42.584 246.05 43.2278C246.583 43.7245 247.08 44.2578 247.502 44.8464C247.888 45.3982 248.293 46.134 247.98 46.8145C247.778 47.2376 247.263 47.2928 246.914 47.0169C246.51 46.7042 246.418 46.134 246.124 45.7293C245.793 45.2511 245.37 44.8281 244.947 44.4234C244.763 44.2579 244.653 44.1843 244.58 44.1475C244.543 44.2211 244.506 44.3314 244.488 44.405C244.414 44.8464 243.991 45.1408 243.532 45.0672C243.072 45.012 242.76 44.5889 242.852 44.1475Z" fill="#F3A436"/>
<path d="M241.381 44.0557C241.455 43.8534 241.914 42.8969 242.888 42.7866C243.55 42.713 244.157 43.0808 244.708 43.8718C245.94 45.6743 246.013 46.6676 246.013 46.8516C246.013 46.8516 246.069 47.5321 245.425 47.6057C244.855 47.6792 244.58 47.3298 244.377 46.8516C244.377 46.8516 244.377 46.87 244.377 46.8883C244.23 46.1342 243.771 45.4168 243.348 44.8099C243.219 44.6075 243.109 44.5156 243.054 44.4604C242.999 44.5156 242.944 44.6075 242.907 44.6995C242.723 45.1042 242.245 45.3065 241.841 45.1226C241.399 44.957 241.197 44.4788 241.381 44.0557Z" fill="#FDB73B"/>
<path d="M239.69 44.0555C239.8 43.8715 240.425 43.007 241.381 43.0806C242.043 43.1358 242.576 43.5956 242.98 44.4785C243.826 46.3363 243.789 47.3112 243.752 47.5871C243.752 47.5871 243.789 48.1205 243.219 48.286C242.649 48.4332 242.061 48.0837 242.116 47.2376C242.098 46.9617 241.988 46.2811 241.473 45.1591C241.381 44.9384 241.289 44.828 241.234 44.7544C241.179 44.8096 241.087 44.8832 241.05 44.9568C240.811 45.3247 240.296 45.435 239.91 45.1959C239.543 44.9567 239.451 44.4417 239.69 44.0555Z" fill="#F3A436"/>
<path d="M255.517 39.3836C255.517 39.3836 251.197 38.9053 248.697 34.73C248.164 35.944 247.374 37.0108 246.565 38.0593C245.922 38.9054 245.241 39.7882 244.451 40.5424C245.205 41.5172 246.363 42.6393 248.127 43.7245C248.127 43.7245 247.778 42.9335 247.594 42.3265C247.594 42.3265 249.561 44.3498 251.252 44.3314C251.252 44.3314 250.002 43.0255 249.598 42.1794C249.598 42.1794 251.951 43.7612 253.348 42.9519C253.348 42.9519 252.135 42.069 251.547 41.2965C252.374 41.3701 253.109 41.4804 253.642 41.2413C253.642 41.2413 252.502 40.7815 251.786 40.1745C251.767 40.1745 254.561 40.6895 255.517 39.3836Z" fill="#263E51"/>
<path d="M254.819 25.9196C254.819 36.4224 247.576 42.2715 238.66 42.2715C229.745 42.2715 222.502 36.4224 222.502 25.9196C222.502 15.4169 229.524 2.74365 238.458 2.74365C247.374 2.76205 254.819 15.4169 254.819 25.9196Z" fill="#3A536D"/>
<path d="M249.819 32.0817C249.819 38.6298 244.69 42.2717 238.348 42.2717C232.024 42.2717 226.877 38.6298 226.877 32.0817C226.877 25.5335 232.006 16.8701 238.348 16.8701C244.671 16.8701 249.819 25.5335 249.819 32.0817Z" fill="#E8F4FF"/>
<path d="M245.554 8.50079L246.62 8.96063C245.26 4.39902 240.407 4.93243 240.407 4.93243L238.642 5.07955L236.877 4.93243C236.877 4.93243 232.024 4.38062 230.664 8.96063L231.73 8.50079C231.73 8.50079 230.076 9.78835 230.37 12.4738L231.234 11.5357C231.234 11.5357 230.407 12.6578 231.087 14.2028C231.749 15.6927 236.657 12.8969 238.532 15.288H238.716C240.591 12.8969 245.499 15.6927 246.16 14.2028C246.841 12.6578 246.013 11.5357 246.013 11.5357L246.877 12.4738C247.208 9.78835 245.554 8.50079 245.554 8.50079Z" fill="#E8F4FF"/>
<path d="M243.421 4.1048C246.399 3.73693 247.227 -0.27289 244.91 1.16181C242.19 2.83563 239.285 2.67012 238.66 2.74369C238.035 2.65172 235.131 2.83563 232.41 1.16181C230.113 -0.254497 230.921 3.73693 233.899 4.1048C233.899 4.1048 230.48 4.04961 230.921 4.675C231.326 5.2452 233.55 5.52114 234.671 5.46596C233.954 5.63151 232.466 6.01773 233.109 6.404C233.918 6.90063 237.539 5.90738 238.624 9.40217H238.697C239.763 5.88899 243.403 6.88223 244.212 6.404C244.837 6.01773 243.366 5.63151 242.631 5.46596C243.752 5.52114 245.977 5.2268 246.381 4.675C246.841 4.04961 243.421 4.1048 243.421 4.1048Z" fill="#527691"/>
<path d="M236.455 8.55612C236.455 9.1999 235.921 9.73329 235.278 9.73329C234.635 9.73329 234.102 9.1999 234.102 8.55612C234.102 7.91235 234.635 7.37891 235.278 7.37891C235.921 7.37891 236.455 7.91235 236.455 8.55612Z" fill="#301D13"/>
<path d="M235.186 8.18815C235.186 8.39048 235.021 8.55605 234.818 8.55605C234.616 8.55605 234.451 8.39048 234.451 8.18815C234.451 7.98582 234.616 7.82031 234.818 7.82031C235.021 7.82031 235.186 7.98582 235.186 8.18815Z" fill="white"/>
<path d="M234.782 8.96095C234.782 9.05291 234.708 9.12648 234.616 9.12648C234.524 9.12648 234.451 9.05291 234.451 8.96095C234.451 8.86898 234.524 8.79541 234.616 8.79541C234.708 8.79541 234.782 8.86898 234.782 8.96095Z" fill="white"/>
<path d="M243.219 8.55612C243.219 9.1999 242.686 9.73329 242.043 9.73329C241.399 9.73329 240.866 9.1999 240.866 8.55612C240.866 7.91235 241.399 7.37891 242.043 7.37891C242.686 7.37891 243.219 7.91235 243.219 8.55612Z" fill="#301D13"/>
<path d="M241.969 8.18815C241.969 8.39048 241.804 8.55605 241.602 8.55605C241.399 8.55605 241.234 8.39048 241.234 8.18815C241.234 7.98582 241.399 7.82031 241.602 7.82031C241.804 7.82031 241.969 7.98582 241.969 8.18815Z" fill="white"/>
<path d="M241.546 8.96095C241.546 9.05291 241.473 9.12648 241.381 9.12648C241.289 9.12648 241.216 9.05291 241.216 8.96095C241.216 8.86898 241.289 8.79541 241.381 8.79541C241.473 8.79541 241.546 8.86898 241.546 8.96095Z" fill="white"/>
<path d="M228.918 18.8935C228.936 17.5875 228.826 15.9321 228.109 14.7917C226.326 11.959 223.642 14.7733 222.502 16.2632C220.278 19.1694 219.083 23.7677 219.965 27.6672C220.315 29.2122 222.3 33.6451 224.267 34.7303C224.322 34.7671 223.862 31.2907 223.862 31.1436C223.881 31.1436 225.315 35.65 225.131 31.6954C225.094 30.9412 225.021 29.6721 225.039 28.8076C225.186 29.0467 225.627 30.7205 225.958 30.8309C226.013 30.8493 226.105 26.6188 226.05 26.3061C226.16 26.4716 226.932 27.7776 226.969 27.7408C227.245 27.4649 227.337 21.4134 227.318 21.3214C227.465 22.0204 228.458 23.547 228.476 23.547C228.863 23.1608 228.899 19.8867 228.918 18.8935Z" fill="#527691"/>
<path d="M248.881 23.547C248.9 23.5654 249.892 22.0388 250.039 21.3214C250.039 21.4134 250.113 27.4649 250.389 27.7408C250.407 27.7592 251.197 26.4532 251.308 26.3061C251.252 26.6372 251.344 30.8493 251.4 30.8309C251.73 30.7205 252.172 29.0467 252.319 28.8076C252.337 29.6721 252.264 30.9412 252.227 31.6954C252.043 35.6316 253.477 31.1436 253.495 31.1436C253.495 31.2907 253.036 34.7487 253.091 34.7303C255.058 33.6451 257.043 29.2122 257.392 27.6672C258.275 23.7493 257.08 19.151 254.855 16.2632C253.716 14.7733 251.032 11.959 249.249 14.7917C248.532 15.9321 248.422 17.5875 248.44 18.8935C248.422 19.8867 248.458 23.1608 248.881 23.547Z" fill="#527691"/>
<path d="M240.664 11.0942C240.664 11.0942 240.039 9.25477 238.587 9.43871C237.153 9.62265 236.638 11.554 236.638 11.554C236.638 11.554 237.227 14.497 238.642 16.6858C238.66 16.6858 240.315 13.6693 240.664 11.0942Z" fill="#DA722F"/>
<path d="M240.664 11.0758C240.664 11.0758 240.094 8.9789 238.66 9.12605C237.227 9.2732 236.657 11.462 236.657 11.462C236.657 11.462 237.245 13.6508 238.66 15.4166C238.66 15.3982 240.315 13.1726 240.664 11.0758Z" fill="#F3A436"/>
<path d="M69.1919 111.8C70.111 111.082 70.975 110.31 71.7838 109.482C71.9493 109.684 72.1147 109.905 72.2802 110.107C72.2802 110.107 79.5413 117.391 76.2324 129.605C76.2324 129.623 76.1589 120.077 69.1919 111.8Z" fill="#81461E"/>
<path d="M72.8316 127.563C72.8133 127.563 72.7949 127.563 72.7765 127.563C72.6662 127.526 72.5927 127.415 72.6294 127.305C73.4199 124.123 75.6074 122.468 75.7177 122.394C75.8096 122.32 75.9383 122.339 76.0118 122.431C76.0854 122.523 76.067 122.652 75.9751 122.725C75.9567 122.744 73.8059 124.362 73.0522 127.397C73.0155 127.489 72.9419 127.563 72.8316 127.563Z" fill="#3F2517"/>
<path d="M74.2655 129.825C74.2471 129.825 74.2471 129.825 74.2655 129.825C74.1368 129.825 74.0449 129.733 74.0449 129.605C74.1001 126.239 75.9751 124.473 76.0486 124.399C76.1405 124.326 76.2692 124.326 76.3427 124.418C76.4163 124.51 76.4163 124.638 76.3244 124.712C76.306 124.73 74.5229 126.441 74.4493 129.623C74.4677 129.733 74.3758 129.825 74.2655 129.825Z" fill="#3F2517"/>
<path d="M78.0523 129.825C77.9236 129.825 77.8317 129.733 77.8317 129.605C77.9052 127.379 76.4163 126.404 76.3611 126.367C76.2692 126.312 76.2324 126.165 76.306 126.073C76.3611 125.981 76.5082 125.944 76.6001 126C76.6736 126.036 78.3464 127.14 78.2729 129.605C78.2545 129.733 78.1626 129.825 78.0523 129.825Z" fill="#3F2517"/>
<path d="M78.9163 126.993C78.8243 126.993 78.7324 126.919 78.7141 126.827C78.181 124.528 76.4346 123.774 76.4162 123.756C76.3059 123.7 76.2508 123.59 76.3059 123.48C76.3611 123.369 76.4714 123.332 76.5817 123.369C76.6552 123.406 78.5486 124.234 79.1368 126.735C79.1736 126.846 79.1001 126.974 78.9714 126.993C78.9346 126.993 78.9163 126.993 78.9163 126.993Z" fill="#3F2517"/>
<path d="M79.5413 124.123C79.4678 124.123 79.3759 124.068 79.3391 123.995C78.1258 121.309 76.2141 121.475 76.1957 121.475C76.0854 121.493 75.9751 121.401 75.9567 121.291C75.9383 121.162 76.0302 121.07 76.1405 121.052C76.2324 121.033 78.3832 120.849 79.7067 123.829C79.7619 123.94 79.7067 124.068 79.5964 124.105C79.6148 124.124 79.5781 124.123 79.5413 124.123Z" fill="#3F2517"/>
<path d="M85.295 63.7557C85.148 63.7741 84.9825 63.7006 84.8906 63.5718C80.6259 57.3732 70.0191 54.6141 69.9088 54.5957C69.6883 54.5405 69.5412 54.3014 69.5963 54.0807C69.6515 53.86 69.8905 53.7128 70.1111 53.768C70.2214 53.8048 72.8868 54.4854 76.1405 55.9752C79.1553 57.3548 83.2546 59.7091 85.5892 63.112C85.7178 63.3143 85.6811 63.5718 85.4789 63.7005C85.4421 63.7189 85.3686 63.7557 85.295 63.7557Z" fill="#3F2517"/>
<path d="M85.3502 67.2503C85.2031 67.2687 85.0377 67.1951 84.9458 67.0663C81.1406 61.6034 71.1405 57.3729 71.0486 57.3177C70.828 57.2257 70.7361 56.9682 70.828 56.7659C70.9199 56.5452 71.1773 56.4532 71.3795 56.5452C71.8023 56.7107 81.6921 60.9044 85.6443 66.5881C85.773 66.7904 85.7362 67.0479 85.534 67.1767C85.4972 67.2319 85.4237 67.2503 85.3502 67.2503Z" fill="#3F2517"/>
<path d="M85.0009 70.5243C84.8354 70.5427 84.67 70.4691 84.5781 70.3219C81.1957 64.5831 71.5448 59.6168 71.4529 59.5616C71.2507 59.4513 71.1588 59.1938 71.2691 58.9914C71.3794 58.7707 71.6368 58.6972 71.839 58.8075C72.2434 59.0099 81.8023 63.9394 85.3134 69.8989C85.442 70.1012 85.3685 70.3587 85.1663 70.4874C85.1112 70.5058 85.056 70.5243 85.0009 70.5243Z" fill="#3F2517"/>
<path d="M83.8795 58.0902C83.7692 58.0902 83.6589 58.0351 83.567 57.9431C79.0265 53.0504 68.5669 50.2546 68.4566 50.2178C68.236 50.1626 68.0889 49.9235 68.1441 49.7028C68.1992 49.482 68.4382 49.3349 68.6588 49.3901C69.1 49.5004 79.4861 52.2779 84.192 57.3545C84.3575 57.5201 84.3391 57.7959 84.1736 57.9615C84.1001 58.0534 83.9898 58.0902 83.8795 58.0902Z" fill="#3F2517"/>
<path d="M85.9016 103.651C85.6994 103.651 85.5156 103.504 85.4788 103.302C84.1369 95.9077 75.589 89.0101 75.5155 88.9549C75.3316 88.8078 75.2949 88.5319 75.4419 88.348C75.589 88.164 75.8647 88.1272 76.0486 88.2744C76.1405 88.348 78.2912 90.077 80.6442 92.7624C82.8317 95.264 85.5891 99.0898 86.3244 103.136C86.3612 103.376 86.2141 103.596 85.9751 103.633C85.9567 103.651 85.92 103.651 85.9016 103.651Z" fill="#3F2517"/>
<path d="M84.7435 106.944C84.5413 106.944 84.3575 106.796 84.3207 106.594C83.1259 100.028 75.7912 92.0448 75.7177 91.9528C75.5522 91.7873 75.5706 91.5113 75.7361 91.3458C75.9015 91.1803 76.1773 91.1987 76.3427 91.3642C76.6552 91.6953 83.9163 99.6229 85.1663 106.429C85.2031 106.668 85.056 106.888 84.817 106.925C84.7987 106.944 84.7803 106.944 84.7435 106.944Z" fill="#3F2517"/>
<path d="M83.034 110.218C82.8134 110.218 82.6296 110.052 82.6112 109.831C82.0965 103.173 75.6074 94.4727 75.5339 94.3991C75.3868 94.2152 75.4236 93.9393 75.6258 93.7921C75.8096 93.645 76.0854 93.6818 76.2324 93.8841C76.5082 94.252 82.9237 102.879 83.4752 109.776C83.4935 110.015 83.3097 110.218 83.0891 110.236C83.0524 110.218 83.0524 110.218 83.034 110.218Z" fill="#3F2517"/>
<path d="M86.159 96.5882C85.9935 96.5882 85.8465 96.4962 85.773 96.3307C82.9788 90.2792 73.8978 84.3564 73.8059 84.3012C73.6037 84.1725 73.5486 83.915 73.6773 83.7126C73.8059 83.5103 74.0633 83.4552 74.2655 83.5839C74.6515 83.823 83.659 89.6906 86.545 95.9812C86.6369 96.2019 86.545 96.441 86.3428 96.5514C86.2877 96.5698 86.2325 96.5882 86.159 96.5882Z" fill="#3F2517"/>
<path d="M31.3054 41.499C31.3054 41.499 34.9819 42.897 36.0849 38.6296C37.7393 32.2838 31.6731 24.7608 28.4378 20.3096C28.4194 20.328 16.82 31.0699 31.3054 41.499Z" fill="#700C0A"/>
<path d="M31.6731 40.2115C31.6731 40.2115 36.0666 36.496 27.776 24.8896C27.776 24.8896 21.7282 33.0564 31.6731 40.2115Z" fill="#F5C9AB"/>
<path d="M59.6697 41.499C59.6697 41.499 55.9932 42.897 54.8903 38.6296C53.2359 32.2838 59.3021 24.7608 62.5374 20.3096C62.5374 20.328 74.1368 31.0699 59.6697 41.499Z" fill="#700C0A"/>
<path d="M59.2837 40.2115C59.2837 40.2115 54.8903 36.496 63.1808 24.8896C63.1808 24.8896 69.2287 33.0564 59.2837 40.2115Z" fill="#F5C9AB"/>
<path d="M9.467 71.4808C9.467 71.4808 12.0957 67.6365 15.6068 67.2871C19.4487 66.9008 22.9046 71.1497 19.0443 76.9069C16.6362 80.5121 8.71332 87.5384 6.87507 95.0246L3.65812 92.8358L0 93.1301C0 93.1301 3.03312 78.6727 9.467 71.4808Z" fill="#700C0A"/>
<path d="M7.95964 91.9342L0.863979 89.7271C0.275738 91.8055 0 93.1298 0 93.1298L3.63974 92.8356L6.85668 95.0244C7.11404 93.9943 7.50007 92.9459 7.95964 91.9342Z" fill="#38271D"/>
<path d="M84.3023 71.4808C84.3023 71.4808 81.6736 67.6365 78.1626 67.2871C74.3206 66.9008 70.8647 71.1497 74.725 76.9069C77.1331 80.5121 85.056 87.5384 86.8943 95.0246L90.1112 92.8358L93.7509 93.1301C93.7509 93.1301 90.7362 78.6727 84.3023 71.4808Z" fill="#700C0A"/>
<path d="M85.8097 91.9342L92.9054 89.7271C93.4752 91.7871 93.7509 93.1298 93.7509 93.1298L90.1112 92.8356L86.8943 95.0244C86.6369 93.9943 86.2693 92.9459 85.8097 91.9342Z" fill="#38271D"/>
<path d="M41.379 134.81L44.8717 103.854H24.173L31.7098 134.81H41.379Z" fill="#700C0A"/>
<path d="M41.3791 134.81H31.7098L32.6841 138.452H36.0114L36.5444 137.422L37.1143 138.452H41.0114L41.3791 134.81Z" fill="#38271D"/>
<path d="M48.8975 103.854L52.3901 134.81H62.0594L69.5962 103.854H48.8975Z" fill="#700C0A"/>
<path d="M52.3901 134.81H62.0593L61.0667 138.452H57.7395L57.2247 137.422L56.6365 138.452H52.7394L52.3901 134.81Z" fill="#38271D"/>
<path d="M73.4566 49.8864C74.3022 48.9851 75.3133 47.7159 76.3427 45.9318C78.3831 42.4186 71.7654 42.768 68.622 43.0991C62.4639 35.6865 54.9638 30.7754 46.8755 30.7754C38.7688 30.7754 31.2687 35.6865 25.1106 43.0991C22.0039 42.7497 15.2024 42.3634 17.2612 45.9133C18.3274 47.7527 19.3752 49.0403 20.2392 49.9416C13.3274 61.18 9.06262 75.5455 9.06262 87.8876C9.06262 112.461 25.9929 126.146 46.8755 126.146C67.758 126.146 84.6884 112.443 84.6884 87.8876C84.6884 75.5455 80.4052 61.1433 73.4566 49.8864Z" fill="#81120F"/>
<path d="M74.2654 105.472C74.2654 118.789 62.0042 126.202 46.8938 126.202C31.7834 126.202 19.5222 118.789 19.5222 105.472C19.5222 92.1737 31.7834 74.5342 46.8938 74.5342C62.0042 74.5158 74.2654 92.1553 74.2654 105.472Z" fill="#9E301D"/>
<path d="M30.4783 46.7966C30.4783 48.3233 29.2466 49.5557 27.7209 49.5557C26.1951 49.5557 24.9635 48.3233 24.9635 46.7966C24.9635 45.27 26.1951 44.0376 27.7209 44.0376C29.2466 44.056 30.4783 45.2884 30.4783 46.7966Z" fill="#2B1C12"/>
<path d="M27.537 45.9324C27.537 46.4106 27.151 46.7969 26.6731 46.7969C26.1951 46.7969 25.8091 46.4106 25.8091 45.9324C25.8091 45.4541 26.1951 45.0679 26.6731 45.0679C27.151 45.0863 27.537 45.4725 27.537 45.9324Z" fill="white"/>
<path d="M26.5628 47.7531C26.5628 47.9554 26.3974 48.1209 26.1952 48.1209C25.993 48.1209 25.8275 47.9554 25.8275 47.7531C25.8275 47.5507 25.993 47.3852 26.1952 47.3852C26.3974 47.3668 26.5628 47.5324 26.5628 47.7531Z" fill="white"/>
<path d="M68.1257 46.7966C68.1257 48.3233 66.8941 49.5557 65.3683 49.5557C63.8426 49.5557 62.611 48.3233 62.611 46.7966C62.611 45.27 63.8426 44.0376 65.3683 44.0376C66.8941 44.0376 68.1257 45.2884 68.1257 46.7966Z" fill="#2B1C12"/>
<path d="M65.1845 45.9324C65.1845 46.4106 64.7985 46.7969 64.3205 46.7969C63.8426 46.7969 63.4565 46.4106 63.4565 45.9324C63.4565 45.4541 63.8426 45.0679 64.3205 45.0679C64.7985 45.0863 65.1845 45.4725 65.1845 45.9324Z" fill="white"/>
<path d="M63.8426 48.121C64.0457 48.121 64.2103 47.9563 64.2103 47.7531C64.2103 47.55 64.0457 47.3853 63.8426 47.3853C63.6396 47.3853 63.475 47.55 63.475 47.7531C63.475 47.9563 63.6396 48.121 63.8426 48.121Z" fill="white"/>
<path d="M33.015 67.8568C33.015 67.8568 12.8678 64.7483 15.7722 52.2039C15.7722 52.2039 16.195 48.2309 12.7759 53.9145C9.33834 59.5981 11.0295 77.771 35.4783 79.3528L33.015 67.8568Z" fill="#FAEAD2"/>
<path d="M60.0189 67.8568C60.0189 67.8568 80.1662 64.7483 77.2617 52.2039C77.2617 52.2039 76.8389 48.2309 80.2581 53.9145C83.6772 59.5981 82.0044 77.7526 57.5557 79.3344L60.0189 67.8568Z" fill="#FAEAD2"/>
<path d="M59.5594 65.9256C57.2616 65.5025 66.5448 62.394 62.6109 58.7337C59.4307 55.7907 59.5594 51.7073 57.28 49.2241C56.6182 48.6907 55.9197 48.2125 55.2028 47.7711C55.1844 47.7711 55.166 47.7527 55.1476 47.7343C54.6697 47.5319 54.302 47.3112 54.0079 47.0905C51.8204 45.9869 49.4123 45.3247 46.8939 45.3247C44.3387 45.3247 41.9122 46.0053 39.7247 47.1273C39.4489 47.3296 39.0813 47.5319 38.6401 47.7343C37.868 48.1941 37.1327 48.7091 36.4342 49.2793C34.1915 51.7809 34.2834 55.8275 31.14 58.7521C27.2062 62.394 36.4893 65.5209 34.1915 65.9439C29.5407 66.79 29.0812 69.2732 29.0812 69.3284C29.504 76.7042 37.3166 82.5718 46.8939 82.5718C56.4528 82.5718 64.2653 76.7226 64.7065 69.3836C64.6881 69.3468 64.6881 69.3468 64.6881 69.3468C64.6881 69.3468 64.247 66.7901 59.5594 65.9256Z" fill="#971A1A"/>
<path d="M39.6144 46.9436C39.2467 47.1275 38.8791 47.3298 38.5114 47.5505C38.4195 47.6057 38.3828 47.7345 38.4379 47.8265C38.4747 47.9 38.5482 47.9368 38.6217 47.9368C38.6585 47.9368 38.6769 47.9368 38.7136 47.9184C39.1548 47.7345 39.5409 47.5138 39.8534 47.293C39.9453 47.2195 39.9636 47.1091 39.9085 46.9987C39.835 46.9252 39.7063 46.8884 39.6144 46.9436Z" fill="#510808"/>
<path d="M55.3131 47.5874C54.9087 47.3482 54.5043 47.1275 54.0998 46.9068C54.0079 46.8516 53.8793 46.8884 53.8241 46.9803C53.769 47.0723 53.7873 47.2011 53.8793 47.2563C54.2101 47.5138 54.5962 47.7345 55.0925 47.9368L55.1293 47.9552C55.1477 47.9736 55.1844 47.9736 55.2212 47.9736C55.2947 47.9736 55.3682 47.9368 55.405 47.8632C55.4418 47.7713 55.405 47.6425 55.3131 47.5874Z" fill="#510808"/>
<path d="M58.1992 75.0303C58.2543 74.6073 58.2911 74.2026 58.2911 73.8164C58.2911 68.7029 53.1807 65.1162 46.8755 65.1162C40.5703 65.1162 35.46 68.7029 35.46 73.8164C35.46 74.221 35.4967 74.6257 35.5519 75.0303H58.1992Z" fill="#E8AF8A"/>
<path d="M37.5372 75.4902C38.3093 79.4633 42.2064 83.9329 46.8756 83.9329C51.5447 83.9329 55.4418 79.4633 56.2139 75.4902H37.5372Z" fill="#8C2E15"/>
<path d="M58.2911 74.7913C58.2911 71.7748 53.1807 69.3101 46.8755 69.3101C40.5703 69.3101 35.46 71.7564 35.46 74.7913C35.46 77.8079 40.5703 81.7993 46.8755 81.7993C53.1807 81.7993 58.2911 77.8263 58.2911 74.7913Z" fill="#F5C9AB"/>
<path d="M44.0998 74.92C44.0998 73.6324 43.4564 72.584 42.6475 72.584C41.8387 72.584 41.1953 73.6324 41.1953 74.92C41.1953 76.2075 41.8387 77.256 42.6475 77.256C43.4564 77.256 44.0998 76.2075 44.0998 74.92Z" fill="#3F2517"/>
<path d="M52.5374 74.92C52.5374 73.6324 51.894 72.584 51.0852 72.584C50.2947 72.584 49.6329 73.6324 49.6329 74.92C49.6329 76.2075 50.2763 77.256 51.0852 77.256C51.894 77.256 52.5374 76.2075 52.5374 74.92Z" fill="#3F2517"/>
<path d="M41.2136 34.0127C41.1953 34.0127 41.1953 34.0127 41.1769 34.0127C40.9379 33.9943 40.7725 33.792 40.7909 33.5529C40.8092 33.3506 41.1217 28.6418 36.2871 27.8693C36.0482 27.8325 35.9011 27.6117 35.9379 27.3726C35.9746 27.1335 36.1952 26.9864 36.4342 27.0232C42.0592 27.9429 41.6548 33.5713 41.6548 33.6265C41.6181 33.8472 41.4342 34.0127 41.2136 34.0127Z" fill="#3F2517"/>
<path d="M43.0887 32.4862C42.8681 32.4862 42.6659 32.3023 42.6659 32.0631C42.4637 26.2324 39.1549 24.8896 39.0078 24.8345C38.7872 24.7425 38.6769 24.5033 38.7688 24.2826C38.8607 24.0619 39.0997 23.9516 39.3203 24.0251C39.4858 24.0803 43.3093 25.5886 43.5299 32.0263C43.5299 32.2838 43.3461 32.4678 43.0887 32.4862Z" fill="#3F2517"/>
<path d="M38.6217 35.2637C38.4563 35.2637 38.2909 35.1717 38.2357 35.0062C38.2357 34.9878 37.4453 33.2036 35.5519 32.4679C34.0996 31.8977 32.3533 32.0632 30.3864 32.9461C30.1658 33.038 29.9268 32.9461 29.8165 32.7253C29.7246 32.5046 29.8165 32.2471 30.0371 32.1551C32.243 31.1619 34.1916 30.9964 35.8827 31.6585C38.1254 32.5414 39.0078 34.5647 39.0445 34.6567C39.1365 34.8774 39.0445 35.1349 38.824 35.2269C38.732 35.2637 38.6769 35.2637 38.6217 35.2637Z" fill="#3F2517"/>
<path d="M45.4416 34.0128C45.221 34.0128 45.0372 33.8472 45.0188 33.6265C44.4857 28.2924 45.6254 23.7675 45.6806 23.5836C45.7357 23.3629 45.9747 23.2157 46.1953 23.2709C46.4159 23.3261 46.5629 23.5652 46.5078 23.7859C46.4894 23.8227 45.3497 28.3475 45.8828 33.5345C45.9012 33.7736 45.7357 33.976 45.4968 34.0128C45.4784 34.0128 45.46 34.0128 45.4416 34.0128Z" fill="#3F2517"/>
<path d="M46.8755 32.9828C46.8572 32.9828 46.8204 32.9828 46.7836 32.9828C46.5447 32.9276 46.3976 32.7069 46.4527 32.4862C47.5925 26.8209 51.655 25.2023 51.8204 25.1287C52.041 25.0367 52.28 25.1471 52.3719 25.3678C52.4638 25.5886 52.3535 25.8277 52.1329 25.9197C51.9675 25.9933 48.3461 27.4648 47.2983 32.6518C47.2616 32.8541 47.0777 32.9828 46.8755 32.9828Z" fill="#3F2517"/>
<path d="M49.7616 32.4862C49.7248 32.4862 49.7064 32.4862 49.6696 32.4862C49.4491 32.431 49.302 32.2103 49.3388 31.9896C49.3571 31.8976 49.8719 29.58 55.0741 27.8694C55.2947 27.7958 55.5337 27.9246 55.6072 28.1453C55.6807 28.366 55.5521 28.6052 55.3315 28.6787C50.6807 30.2238 50.166 32.1551 50.166 32.1735C50.1292 32.3391 49.9454 32.4862 49.7616 32.4862Z" fill="#3F2517"/>
<path d="M51.9859 34.6196C51.9123 34.6196 51.8388 34.6012 51.7653 34.5644C51.5631 34.4356 51.5079 34.1782 51.6182 33.9758C51.7285 33.7919 54.4124 29.5245 61.2691 30.5914C61.508 30.6282 61.6551 30.8489 61.6183 31.088C61.5816 31.3272 61.361 31.4743 61.122 31.4559C54.8352 30.481 52.3719 34.3989 52.3351 34.4357C52.2616 34.5461 52.1329 34.6196 51.9859 34.6196Z" fill="#3F2517"/>
<defs>
<linearGradient id="paint0_linear_175_11594" x1="163.108" y1="86.5574" x2="165.436" y2="86.5574" gradientUnits="userSpaceOnUse">
<stop stop-color="#383537"/>
<stop offset="0.0449" stop-color="#545152"/>
<stop offset="0.1083" stop-color="#747273"/>
<stop offset="0.1691" stop-color="#8C8A8A"/>
<stop offset="0.2254" stop-color="#9A9898"/>
<stop offset="0.2732" stop-color="#9F9D9D"/>
<stop offset="0.2968" stop-color="#989696"/>
<stop offset="0.4334" stop-color="#767374"/>
<stop offset="0.5721" stop-color="#5B5859"/>
<stop offset="0.7119" stop-color="#474546"/>
<stop offset="0.8536" stop-color="#3C393B"/>
<stop offset="1" stop-color="#383537"/>
</linearGradient>
<linearGradient id="paint1_linear_175_11594" x1="162.596" y1="36.8914" x2="165.922" y2="36.8914" gradientUnits="userSpaceOnUse">
<stop stop-color="#383537"/>
<stop offset="0.0449" stop-color="#545152"/>
<stop offset="0.1083" stop-color="#747273"/>
<stop offset="0.1691" stop-color="#8C8A8A"/>
<stop offset="0.2254" stop-color="#9A9898"/>
<stop offset="0.2732" stop-color="#9F9D9D"/>
<stop offset="0.2968" stop-color="#989696"/>
<stop offset="0.4334" stop-color="#767374"/>
<stop offset="0.5721" stop-color="#5B5859"/>
<stop offset="0.7119" stop-color="#474546"/>
<stop offset="0.8536" stop-color="#3C393B"/>
<stop offset="1" stop-color="#383537"/>
</linearGradient>
<radialGradient id="paint2_radial_175_11594" cx="0" cy="0" r="1" gradientUnits="userSpaceOnUse" gradientTransform="translate(164.298 32.2803) scale(1.99808 1.9542)">
<stop stop-color="#9F9D9D"/>
<stop offset="0.1421" stop-color="#8C8A8B"/>
<stop offset="0.5298" stop-color="#5F5C5D"/>
<stop offset="0.8284" stop-color="#434041"/>
<stop offset="1" stop-color="#383537"/>
</radialGradient>
<radialGradient id="paint3_radial_175_11594" cx="0" cy="0" r="1" gradientUnits="userSpaceOnUse" gradientTransform="translate(164.298 32.2803) scale(1.99808 1.95419)">
<stop stop-color="#9F9D9D"/>
<stop offset="0.1421" stop-color="#8C8A8B"/>
<stop offset="0.5298" stop-color="#5F5C5D"/>
<stop offset="0.8284" stop-color="#434041"/>
<stop offset="1" stop-color="#383537"/>
</radialGradient>
<radialGradient id="paint4_radial_175_11594" cx="0" cy="0" r="1" gradientUnits="userSpaceOnUse" gradientTransform="translate(163.976 32.0301) scale(1.48707 1.45441)">
<stop stop-color="#878585"/>
<stop offset="0.0118" stop-color="#838282"/>
<stop offset="0.1821" stop-color="#555353"/>
<stop offset="0.3447" stop-color="#302F2F"/>
<stop offset="0.4954" stop-color="#161515"/>
<stop offset="0.6299" stop-color="#060606"/>
<stop offset="0.7346"/>
</radialGradient>
<linearGradient id="paint5_linear_175_11594" x1="164.299" y1="39.0535" x2="164.299" y2="41.9598" gradientUnits="userSpaceOnUse">
<stop stop-color="#505050"/>
<stop offset="0.0277" stop-color="#626262"/>
<stop offset="0.107" stop-color="#929292"/>
<stop offset="0.1861" stop-color="#B9B9B9"/>
<stop offset="0.2637" stop-color="#D8D8D8"/>
<stop offset="0.3394" stop-color="#EDEDED"/>
<stop offset="0.4121" stop-color="#FBFBFB"/>
<stop offset="0.4788" stop-color="white"/>
<stop offset="0.5497" stop-color="#FAFAFA"/>
<stop offset="0.6291" stop-color="#EDEDED"/>
<stop offset="0.7125" stop-color="#D6D6D6"/>
<stop offset="0.7989" stop-color="#B7B7B7"/>
<stop offset="0.8873" stop-color="#8F8F8F"/>
<stop offset="0.9764" stop-color="#5E5E5E"/>
<stop offset="1" stop-color="#505050"/>
</linearGradient>
<linearGradient id="paint6_linear_175_11594" x1="164.306" y1="110.072" x2="164.306" y2="113.395" gradientUnits="userSpaceOnUse">
<stop stop-color="#505050"/>
<stop offset="0.2588" stop-color="#8C8C8C"/>
<stop offset="0.5025" stop-color="#BEBEBE"/>
<stop offset="0.7151" stop-color="#E1E1E1"/>
<stop offset="0.8881" stop-color="#F7F7F7"/>
<stop offset="1" stop-color="white"/>
</linearGradient>
<linearGradient id="paint7_linear_175_11594" x1="164.299" y1="34.7453" x2="164.299" y2="33.9242" gradientUnits="userSpaceOnUse">
<stop stop-color="#505050"/>
<stop offset="0.2588" stop-color="#8C8C8C"/>
<stop offset="0.5025" stop-color="#BEBEBE"/>
<stop offset="0.7151" stop-color="#E1E1E1"/>
<stop offset="0.8881" stop-color="#F7F7F7"/>
<stop offset="1" stop-color="white"/>
</linearGradient>
<linearGradient id="paint8_linear_175_11594" x1="163.088" y1="36.8914" x2="164.269" y2="36.8914" gradientUnits="userSpaceOnUse">
<stop offset="0.1147"/>
<stop offset="0.208" stop-color="#242424"/>
<stop offset="0.3287" stop-color="#4C4C4C"/>
<stop offset="0.4244" stop-color="#656565"/>
<stop offset="0.4826" stop-color="#6E6E6E"/>
<stop offset="0.4886" stop-color="#6B6B6B"/>
<stop offset="0.6075" stop-color="#3D3D3D"/>
<stop offset="0.7131" stop-color="#1C1C1C"/>
<stop offset="0.8005" stop-color="#070707"/>
<stop offset="0.8588"/>
</linearGradient>
</defs>
</svg>
