<svg width="332" height="151" viewBox="0 0 332 151" fill="none" xmlns="http://www.w3.org/2000/svg">
<path d="M6.86707 149.437C6.86707 149.437 7.91485 149.418 9.8634 149.418C11.8303 149.4 14.698 149.381 18.3561 149.345C25.654 149.289 36.1137 149.216 48.6322 149.161C54.9006 149.124 61.6838 149.087 68.8713 149.069C76.0405 149.05 83.6141 149.014 91.4451 148.995C99.276 148.977 107.364 148.958 115.581 148.958C123.798 148.958 132.144 148.94 140.508 148.94C148.854 148.94 157.218 148.958 165.435 148.958C173.652 148.958 181.74 148.995 189.571 148.995C197.402 149.014 204.976 149.032 212.145 149.069C219.314 149.087 226.097 149.124 232.366 149.161C244.902 149.216 255.325 149.289 262.642 149.345C266.3 149.381 269.167 149.4 271.116 149.418C273.064 149.437 274.112 149.437 274.112 149.437C274.112 149.437 273.064 149.437 271.116 149.455C269.167 149.473 266.3 149.492 262.642 149.529C255.325 149.584 244.884 149.657 232.366 149.712C226.097 149.749 219.314 149.786 212.145 149.804C204.957 149.823 197.402 149.86 189.571 149.878C181.74 149.896 173.652 149.915 165.435 149.915C157.199 149.915 148.854 149.933 140.508 149.933C132.162 149.933 123.817 149.915 115.581 149.915C107.364 149.915 99.276 149.878 91.4451 149.878C83.6141 149.86 76.0405 149.841 68.8713 149.804C61.6838 149.786 54.9006 149.749 48.6322 149.712C36.1137 149.657 25.6724 149.584 18.3561 149.529C14.698 149.492 11.8303 149.473 9.8634 149.455C7.91485 149.437 6.86707 149.437 6.86707 149.437Z" fill="#989898"/>
<path d="M143.946 43.7837H141.648V149.437H143.946V43.7837Z" fill="url(#paint0_linear_175_10315)"/>
<path d="M144.258 49.0808C143.578 49.0808 141.372 49.0808 141.317 49.0808C141.262 49.0808 141.151 49.0808 141.151 48.8785C141.151 48.0508 141.151 45.0342 141.151 44.9607C141.151 44.8871 141.17 44.8135 141.317 44.8135C141.446 44.8135 143.688 44.8135 144.277 44.8135C144.442 44.8135 144.442 44.9239 144.442 45.0158C144.442 45.0894 144.442 48.0508 144.442 48.8785C144.442 49.0073 144.405 49.0808 144.258 49.0808Z" fill="url(#paint1_linear_175_10315)"/>
<path d="M144.791 42.3306C144.791 43.4158 143.89 44.2803 142.788 44.2803C141.685 44.2803 140.784 43.3974 140.784 42.3306C140.784 41.2454 141.685 40.3809 142.788 40.3809C143.89 40.3809 144.791 41.2637 144.791 42.3306Z" fill="url(#paint2_radial_175_10315)"/>
<path opacity="0.3" d="M142.788 40.3809C142.751 40.3809 142.714 40.3809 142.659 40.3809C143.578 40.436 144.295 41.1718 144.295 42.0915C144.295 43.0295 143.504 43.802 142.549 43.802C141.629 43.802 140.876 43.1031 140.802 42.2018C140.802 42.2386 140.802 42.2754 140.802 42.3306C140.802 43.4158 141.703 44.2803 142.806 44.2803C143.909 44.2803 144.81 43.3974 144.81 42.3306C144.791 41.2637 143.891 40.3809 142.788 40.3809Z" fill="url(#paint3_radial_175_10315)"/>
<path d="M144.001 42.0914C144.001 42.9192 143.321 43.5813 142.475 43.5813C141.629 43.5813 140.949 42.9192 140.949 42.0914C140.949 41.2637 141.629 40.6016 142.475 40.6016C143.321 40.6016 144.001 41.2637 144.001 42.0914Z" fill="url(#paint4_radial_175_10315)"/>
<path d="M143.946 49.0811H141.648V51.9873H143.946V49.0811Z" fill="url(#paint5_linear_175_10315)"/>
<path d="M143.946 120.099H141.648V124.182H143.946V120.099Z" fill="url(#paint6_linear_175_10315)"/>
<path d="M143.946 43.9858H141.648V44.8135H143.946V43.9858Z" fill="url(#paint7_linear_175_10315)"/>
<path opacity="0.8" d="M142.788 44.8135H141.537V49.0808H142.788V44.8135Z" fill="url(#paint8_linear_175_10315)"/>
<path d="M11.959 115.372C11.959 113.937 11.959 60.5403 11.959 58.2227C11.959 55.5924 12.8046 54.5439 16.2053 54.5439C19.2017 54.5439 268.083 54.5439 269.939 54.5439C271.796 54.5439 273.561 54.8934 273.561 58.2778C273.561 61.6623 273.561 112.318 273.561 115.942C273.561 119.565 270.473 119.841 268.928 119.841C267.384 119.841 19.2201 119.841 15.8377 119.841C12.4553 119.841 11.959 116.806 11.959 115.372Z" fill="#EE7A96"/>
<path opacity="0.5" d="M273.561 115.942C273.561 112.318 273.561 61.6623 273.561 58.2778C273.561 54.8934 271.796 54.5439 269.939 54.5439C268.083 54.5439 19.2017 54.5439 16.2053 54.5439C12.8046 54.5439 11.959 55.6108 11.959 58.2227C11.959 60.5403 11.959 113.937 11.959 115.372C11.959 116.806 12.4737 119.841 15.8377 119.841C19.2201 119.841 267.384 119.841 268.928 119.841C270.491 119.841 273.561 119.547 273.561 115.942ZM16.0767 119.161C12.7678 119.161 12.2715 116.144 12.2715 114.728C12.2715 113.312 12.2715 60.761 12.2715 58.4618C12.2715 55.8499 13.1171 54.8015 16.4443 54.8015C19.3855 54.8015 267.789 54.8015 269.609 54.8015C271.428 54.8015 273.156 55.1509 273.156 58.4986C273.156 61.8462 273.156 111.693 273.156 115.28C273.156 118.866 270.142 119.142 268.616 119.142C267.109 119.161 19.3855 119.161 16.0767 119.161Z" fill="#00A9A2"/>
<path opacity="0.5" d="M13.7789 113.404V60.1358C13.7789 57.1928 14.9738 56.1812 18.5216 56.1812H267.752C269.811 56.1812 271.668 56.4938 271.668 60.1725V113.827C271.668 115.206 271.318 116.218 270.601 116.898C269.609 117.855 268.193 117.855 267.274 117.836H267.109H18.1908C13.7789 117.855 13.7789 114.507 13.7789 113.404ZM269.737 60.6876C269.737 58.3148 269.094 58.3148 267.513 58.3148H18.7606C16.0216 58.3148 15.7275 58.793 15.7275 60.6508V112.907C15.7275 114.71 16.1687 115.74 18.4297 115.74H267.053C267.826 115.74 268.671 115.74 269.186 115.261C269.554 114.894 269.737 114.25 269.737 113.33V60.6876Z" fill="#BCBCBC"/>
<path d="M14.2201 113.238V60.3197C14.2201 57.5606 15.2863 56.6777 18.6135 56.6777H267.642C269.241 56.6777 271.208 56.6777 271.208 60.3565V113.661C271.208 114.967 270.895 115.887 270.252 116.512C269.351 117.377 268.083 117.377 267.164 117.358H266.998H18.2826C14.6429 117.377 14.2201 115.004 14.2201 113.238ZM270.197 60.3565C270.197 57.671 269.241 57.671 267.642 57.671H18.6319C15.6907 57.671 15.2495 58.2596 15.2495 60.3197V113.238C15.2495 115.133 15.7642 116.383 18.301 116.383H267.182C267.973 116.383 268.947 116.383 269.553 115.813C269.995 115.39 270.215 114.673 270.215 113.661V60.3565H270.197Z" fill="#232020"/>
<path d="M52.658 97.5848L50.6359 105.917H40.6542L51.1138 69.9209H63.9265L74.6619 105.917H64.2574L61.9596 97.5848H52.658ZM60.6176 90.4298L58.9632 83.9736C58.4301 81.9503 57.7315 79.0073 57.1985 76.8737H57.0882C56.5551 79.0073 56.022 82.0055 55.4889 84.0288L53.9448 90.4481H60.6176V90.4298Z" fill="#BD1F4F"/>
<path d="M86.8494 69.9209V90.3194C86.8494 95.7639 88.7245 98.8724 92.5113 98.8724C96.3532 98.8724 98.2282 96.0398 98.2282 90.3194V69.9209H107.897V89.786C107.897 100.896 102.346 106.506 92.2539 106.506C82.3825 106.506 77.1986 101.116 77.1986 89.5284V69.9209H86.8494Z" fill="#BD1F4F"/>
<path d="M145.637 104.207C142.971 105.108 137.953 106.285 133.247 106.285C126.151 106.285 121.335 104.519 118.081 101.429C114.717 98.2287 112.953 93.5751 112.953 88.3881C113.008 75.8989 122.291 69.5347 133.982 69.5347C138.835 69.5347 142.53 70.3808 144.387 71.3005L142.475 78.989C140.453 78.1429 138.045 77.4991 133.927 77.4991C128.008 77.4991 123.081 80.5893 123.081 87.9099C123.081 94.642 127.401 98.5414 133.339 98.5414C134.626 98.5414 135.894 98.3759 136.317 98.2287V92.0301H131.519V84.5439H145.618V104.207H145.637Z" fill="#BD1F4F"/>
<path d="M161.299 69.9209V90.3194C161.299 95.7639 163.174 98.8724 166.961 98.8724C170.803 98.8724 172.678 96.0398 172.678 90.3194V69.9209H182.328V89.786C182.328 100.896 176.777 106.506 166.685 106.506C156.813 106.506 151.63 101.116 151.63 89.5284V69.9209H161.299Z" fill="#BD1F4F"/>
<path d="M189.553 96.2974C191.74 97.4194 195.325 98.5414 198.891 98.5414C202.2 98.5414 203.799 97.4194 203.799 95.5984C203.799 93.8327 202.2 92.821 198.137 91.4415C192.053 89.3078 188.045 85.9418 188.045 80.5893C188.045 74.2251 193.376 69.314 202.457 69.314C206.777 69.314 209.829 70.1233 212.218 71.1901L210.196 78.8787C208.652 78.1797 205.987 77.1681 202.347 77.1681C199.406 77.1681 197.806 78.2349 197.806 79.8351C197.806 81.6561 199.718 82.3918 204.259 84.1024C210.711 86.4568 213.652 89.9332 213.652 94.9547C213.652 101.153 208.799 106.487 198.284 106.487C193.964 106.487 189.736 105.31 187.714 104.243L189.553 96.2974Z" fill="#BD1F4F"/>
<path d="M225.877 77.9771H216.704V69.9023H244.884V77.9771H235.546V105.917H225.877V77.9771Z" fill="#BD1F4F"/>
<path d="M24.0548 56.089V49.964C24.0548 49.357 23.5585 48.8604 22.9518 48.8604C22.3452 48.8604 21.8489 49.357 21.8489 49.964V55.7212C22.143 56.6409 23.2276 56.5121 24.0548 56.089Z" fill="#FDA81E"/>
<path d="M21.4261 56.6222C21.371 56.3463 21.0768 54.9852 19.882 54.5622C19.0548 54.2863 18.1724 54.5621 17.2533 55.4083C16.5363 56.052 15.893 56.751 15.3415 57.5235C14.8452 58.2409 14.3121 59.1973 14.7165 60.0986C14.9739 60.6504 15.654 60.724 16.1136 60.3561C16.6283 59.9515 16.7753 59.2157 17.143 58.6823C17.5842 58.0569 18.1172 57.5052 18.6871 56.9901C18.9261 56.7694 19.0732 56.6774 19.1651 56.6407C19.2202 56.7326 19.2753 56.8798 19.2937 56.9901C19.404 57.5787 19.9555 57.9466 20.5254 57.8546C21.132 57.7627 21.518 57.2108 21.4261 56.6222Z" fill="#F08015"/>
<path d="M23.3379 56.5122C23.2276 56.2547 22.6394 54.9856 21.371 54.8568C20.507 54.7649 19.7165 55.2431 18.9996 56.2915C17.382 58.6459 17.2901 59.9518 17.2901 60.1726C17.2901 60.1726 17.2165 61.0555 18.0621 61.1658C18.7974 61.2578 19.1651 60.8163 19.4408 60.191C19.4408 60.2094 19.4408 60.2093 19.4408 60.2277C19.6246 59.2529 20.2129 58.3148 20.7827 57.5055C20.9666 57.248 21.0953 57.1192 21.1688 57.0457C21.2423 57.1192 21.3158 57.248 21.371 57.3583C21.61 57.8917 22.235 58.1493 22.7681 57.9102C23.3195 57.6895 23.5769 57.064 23.3379 56.5122Z" fill="#FDA81E"/>
<path d="M25.5438 56.5121C25.3967 56.273 24.5879 55.1325 23.3195 55.2245C22.4555 55.2797 21.757 55.9051 21.2239 57.0455C20.1209 59.4735 20.1577 60.761 20.2129 61.1105C20.2129 61.1105 20.1577 61.8278 20.9114 62.0302C21.6651 62.2325 22.4188 61.7543 22.3452 60.6691C22.3636 60.3012 22.5107 59.4183 23.1908 57.9468C23.3195 57.6525 23.4298 57.5053 23.5033 57.4318C23.5769 57.5053 23.6872 57.6157 23.7607 57.7077C24.0916 58.2043 24.7533 58.3331 25.2313 58.0204C25.7276 57.6709 25.8563 57.0087 25.5438 56.5121Z" fill="#F08015"/>
<path d="M29.7167 56.089V49.964C29.7167 49.357 30.213 48.8604 30.8196 48.8604C31.4263 48.8604 31.9226 49.357 31.9226 49.964V55.7212C31.6285 56.6409 30.5439 56.5121 29.7167 56.089Z" fill="#FDA81E"/>
<path d="M32.3638 56.6222C32.4189 56.3463 32.713 54.9852 33.8895 54.5622C34.7167 54.2863 35.5991 54.5621 36.5182 55.4083C37.2167 56.052 37.8785 56.751 38.43 57.5235C38.9263 58.2409 39.4594 59.1973 39.055 60.0986C38.7976 60.6504 38.1175 60.724 37.6579 60.3561C37.1432 59.9515 36.9962 59.2157 36.6285 58.6823C36.1873 58.0569 35.6358 57.5052 35.0844 56.9901C34.8454 56.7694 34.6983 56.6774 34.6064 56.6407C34.5513 56.7326 34.4961 56.8798 34.4778 56.9901C34.3675 57.5787 33.816 57.9466 33.2461 57.8546C32.6395 57.7627 32.2535 57.2108 32.3638 56.6222Z" fill="#F08015"/>
<path d="M30.4335 56.5122C30.5438 56.2547 31.1505 54.9856 32.4005 54.8568C33.2645 54.7649 34.0549 55.2431 34.7718 56.2915C36.3895 58.6459 36.4814 59.9518 36.4814 60.1726C36.4814 60.1726 36.5549 61.0555 35.7093 61.1658C34.974 61.2578 34.6064 60.8163 34.3306 60.191C34.3306 60.2094 34.3306 60.2093 34.3306 60.2277C34.1468 59.2529 33.5586 58.3148 33.0071 57.5055C32.8233 57.248 32.6946 57.1192 32.6211 57.0457C32.5475 57.1192 32.474 57.248 32.4188 57.3583C32.1799 57.8917 31.5549 58.1493 31.0218 57.9102C30.4519 57.6895 30.1946 57.064 30.4335 56.5122Z" fill="#FDA81E"/>
<path d="M28.2277 56.5121C28.3747 56.273 29.1836 55.1325 30.452 55.2245C31.3159 55.2797 32.0145 55.9051 32.5476 57.0455C33.6505 59.4735 33.6138 60.761 33.5586 61.1105C33.5586 61.1105 33.6138 61.8278 32.8601 62.0302C32.1064 62.2325 31.3527 61.7543 31.4262 60.6691C31.4079 60.3012 31.2608 59.4183 30.5806 57.9468C30.452 57.6525 30.3417 57.5053 30.2681 57.4318C30.1762 57.5053 30.0843 57.6157 30.0108 57.7077C29.6799 58.2043 29.0181 58.3331 28.5402 58.0204C28.0438 57.6709 27.9152 57.0087 28.2277 56.5121Z" fill="#F08015"/>
<path d="M20.3599 50.332L21.4261 53.79L22.2165 52.6496L23.1724 54.0292L24.0364 52.8704L24.882 54.3051C24.882 54.3051 25.8746 51.3989 25.9114 51.2701C25.9849 51.1414 20.3599 50.332 20.3599 50.332Z" fill="#323232"/>
<path d="M33.6138 50.332L32.5476 53.79L31.7571 52.6496L30.8012 54.0292L29.9373 52.8704L29.0917 54.3051C29.0917 54.3051 28.099 51.3989 28.0622 51.2701C27.9887 51.1414 33.6138 50.332 33.6138 50.332Z" fill="#323232"/>
<path d="M31.6468 44.1702C31.6468 44.1702 55.25 55.8318 51.7205 59.8048C49.4043 62.4167 19.5511 41.2824 31.6468 44.1702Z" fill="#BA1B03"/>
<path d="M33.1357 43.0298C33.1357 43.0298 59.2205 46.635 57.1249 51.5093C55.7462 54.7281 20.7459 44.115 33.1357 43.0298Z" fill="#BA1B03"/>
<path d="M33.8711 43.7654C33.8711 43.7654 58.9081 51.8954 56.0037 56.3466C54.0551 59.2528 21.4629 42.6434 33.8711 43.7654Z" fill="#CE1F03"/>
<path d="M43.1358 50.5713C37.6395 47.1317 31.6468 44.1703 31.6468 44.1703C25.4335 42.6988 30.2681 47.5179 36.7571 52.2267C38.8527 51.5829 40.9851 51.0311 43.1358 50.5713Z" fill="#323232"/>
<path d="M43.7976 44.9613C38.2645 43.7473 33.1357 43.0483 33.1357 43.0483C25.6724 43.7105 35.4152 47.8123 44.6432 50.277C44.9006 50.2218 45.1763 50.1667 45.4336 50.1299C45.4704 50.1299 45.5256 50.1115 45.5623 50.1115C44.8638 48.4193 44.2572 46.7087 43.7976 44.9613Z" fill="#323232"/>
<path d="M44.6984 47.8125C39.2204 45.4949 33.8711 43.7659 33.8711 43.7659C27.4004 43.1773 33.1726 47.4262 40.452 51.1969C42.1065 50.7738 43.7793 50.4244 45.4521 50.1117C45.4888 50.1117 45.544 50.0933 45.5808 50.0933C45.2682 49.3392 44.9741 48.585 44.6984 47.8125Z" fill="#3C3C3C"/>
<path d="M48.0072 30.7427C48.0072 44.4643 38.5586 52.116 26.8857 52.116C15.2312 52.116 5.76416 44.4643 5.76416 30.7427C5.76416 17.021 14.9554 0.466797 26.6099 0.466797C38.2829 0.48519 48.0072 17.021 48.0072 30.7427Z" fill="#3F3F3F"/>
<path d="M40.305 26.1628C40.1947 23.882 39.0918 21.8219 37.6579 20.3872C37.3087 20.0377 36.941 19.725 36.5366 19.4675C37.7866 15.9543 37.2719 11.3192 37.2719 11.3192C36.3711 4.58711 29.588 4.14565 26.9777 4.23762C24.349 4.14565 17.5842 4.58711 16.6835 11.3192C16.6835 11.3192 16.1687 15.9727 17.4187 19.4675C17.0143 19.725 16.6467 20.0377 16.3158 20.3872C14.882 21.8219 13.779 23.882 13.6687 26.1628C13.5768 27.8734 13.6503 29.7312 14.018 31.3866C14.4408 33.2811 15.2128 35.0653 16.279 36.5552C21.9041 44.4645 32.0696 44.5012 37.7314 36.5552C38.7976 35.0653 39.5697 33.2811 39.9925 31.3866C40.3234 29.7128 40.3969 27.855 40.305 26.1628Z" fill="#FFFFE5"/>
<path d="M33.4851 5.85598C33.4851 7.05156 32.5109 8.02641 31.316 8.02641C30.1211 8.02641 29.1469 7.05156 29.1469 5.85598C29.1469 4.66039 30.1211 3.68555 31.316 3.68555C32.5109 3.68555 33.4851 4.66039 33.4851 5.85598Z" fill="white"/>
<path d="M24.6431 5.85598C24.6431 7.05156 23.6688 8.02641 22.4739 8.02641C21.2791 8.02641 20.3048 7.05156 20.3048 5.85598C20.3048 4.66039 21.2791 3.68555 22.4739 3.68555C23.6688 3.68555 24.6431 4.66039 24.6431 5.85598Z" fill="white"/>
<path d="M23.9997 5.85609C23.9997 6.7022 23.3195 7.38279 22.4739 7.38279C21.6283 7.38279 20.9298 6.7022 20.9298 5.85609C20.9298 5.00999 21.61 4.31104 22.4739 4.31104C23.3195 4.32943 23.9997 5.00999 23.9997 5.85609Z" fill="#2D1A11"/>
<path d="M22.3453 5.39632C22.3453 5.65383 22.1247 5.87457 21.8674 5.87457C21.61 5.87457 21.3894 5.65383 21.3894 5.39632C21.3894 5.13881 21.61 4.91806 21.8674 4.91806C22.1431 4.89967 22.3453 5.12041 22.3453 5.39632Z" fill="white" stroke="#1D1D1B" stroke-miterlimit="10" stroke-linecap="round" stroke-linejoin="round"/>
<path d="M21.8121 6.38937C21.8121 6.49973 21.7202 6.59167 21.6099 6.59167C21.4996 6.59167 21.4077 6.49973 21.4077 6.38937C21.4077 6.27901 21.4996 6.18701 21.6099 6.18701C21.7202 6.18701 21.8121 6.27901 21.8121 6.38937Z" fill="white" stroke="#1D1D1B" stroke-miterlimit="10" stroke-linecap="round" stroke-linejoin="round"/>
<path d="M32.8417 5.85609C32.8417 6.7022 32.1616 7.38279 31.316 7.38279C30.4704 7.38279 29.7719 6.7022 29.7719 5.85609C29.7719 5.00999 30.452 4.31104 31.316 4.31104C32.1616 4.32943 32.8417 5.00999 32.8417 5.85609Z" fill="#2D1A11"/>
<path d="M31.2056 5.39632C31.2056 5.65383 30.985 5.87457 30.7277 5.87457C30.4703 5.87457 30.2498 5.65383 30.2498 5.39632C30.2498 5.13881 30.4703 4.91806 30.7277 4.91806C30.985 4.89967 31.2056 5.12041 31.2056 5.39632Z" fill="white" stroke="#1D1D1B" stroke-miterlimit="10" stroke-linecap="round" stroke-linejoin="round"/>
<path d="M30.6542 6.38937C30.6542 6.49973 30.5623 6.59167 30.452 6.59167C30.3417 6.59167 30.2498 6.49973 30.2498 6.38937C30.2498 6.27901 30.3417 6.18701 30.452 6.18701C30.5623 6.18701 30.6542 6.27901 30.6542 6.38937Z" fill="white" stroke="#1D1D1B" stroke-miterlimit="10" stroke-linecap="round" stroke-linejoin="round"/>
<path d="M12.2164 32.2508C12.1429 30.1539 9.78992 24.8198 8.0252 23.9369C6.00312 22.9252 3.17222 26.8431 1.92221 29.271C0.231018 32.5451 0.782486 37.2722 1.88544 41.1165C2.32662 42.6432 3.0803 45.8069 5.15753 46.7817C5.21267 46.8001 6.97742 42.4408 6.95903 41.5947C7.10609 41.8154 7.32668 43.5445 7.67595 43.6364C7.7311 43.6548 9.0914 39.5714 9.01787 39.2587C9.14655 39.4059 9.12815 40.8958 9.14653 40.8774C11.2054 39.6818 12.3084 34.6971 12.2164 32.2508Z" fill="#323232"/>
<path d="M1.27883 38.1553C1.60972 39.682 2.10606 41.2823 3.13549 42.4962C3.61343 40.988 3.79724 39.4245 4.09136 37.8794C4.10974 37.7323 4.34871 40.1602 4.55092 41.2638C6.64653 39.5716 6.70169 36.5367 7.3267 34.1088C7.36347 33.98 7.5473 35.9849 7.62083 36.9413C10.176 34.7341 11.187 30.9082 10.6907 27.4502C9.90026 25.8316 8.90759 24.3785 8.06199 23.9554C6.03991 22.9438 3.20902 26.8616 1.959 29.2896C1.00311 31.1473 0.764144 33.465 0.929587 35.8193C0.984735 36.6103 1.09501 37.3828 1.27883 38.1553Z" fill="#494949"/>
<path d="M41.5733 32.2508C41.6468 30.1539 43.9998 24.8198 45.7646 23.9369C47.7866 22.9252 50.6175 26.8431 51.8675 29.271C53.5587 32.5451 53.0073 37.2722 51.9043 41.1165C51.4631 42.6432 50.7094 45.8069 48.6322 46.7817C48.5771 46.8001 46.8123 42.4408 46.8307 41.5947C46.6653 41.8154 46.4631 43.5445 46.1138 43.6364C46.0587 43.6548 44.6984 39.5714 44.7535 39.2587C44.6248 39.4059 44.6432 40.8958 44.6248 40.8774C42.5844 39.6818 41.4814 34.6971 41.5733 32.2508Z" fill="#323232"/>
<path d="M52.5293 38.1553C52.1984 39.682 51.7021 41.2823 50.6727 42.4962C50.1947 40.988 50.0109 39.4245 49.7168 37.8794C49.6984 37.7323 49.4594 40.1602 49.2572 41.2638C47.1616 39.5716 47.1064 36.5367 46.4814 34.1088C46.4447 33.98 46.2608 35.9849 46.1873 36.9413C43.6138 34.7341 42.6211 30.9082 43.1174 27.4502C43.9079 25.8316 44.9005 24.3785 45.7461 23.9554C47.7682 22.9438 50.5991 26.8616 51.8491 29.2896C52.805 31.1473 53.044 33.465 52.8786 35.8193C52.805 36.6103 52.6947 37.3828 52.5293 38.1553Z" fill="#494949"/>
<path d="M33.4299 13.5259L36.224 13.5994C36.224 13.5994 37.2535 19.3934 34.4777 20.8833C31.7019 22.3732 17.0143 28.719 16.3709 29.1788C15.7275 29.6386 15.7091 23.9735 18.2643 21.6375C20.8011 19.3015 33.4299 13.5259 33.4299 13.5259Z" fill="#F08015"/>
<path d="M33.0622 17.7012C32.4924 19.0623 32.1431 20.5522 32.1063 22.0421C33.1725 21.5455 33.9997 21.1408 34.4777 20.8833C37.1248 19.4486 36.3159 14.1145 36.2424 13.6362C35.0475 14.9054 33.7608 16.0642 33.0622 17.7012Z" fill="#360304"/>
<path d="M17.3452 26.6591C18.3011 25.1324 19.6246 24.0472 21.1687 23.1827C24.7533 21.1962 28.5953 19.6511 32.0696 17.4439C33.4666 16.5426 35.4152 15.1815 36.224 13.5812C36.1689 12.8271 35.9483 12.073 35.5255 11.3372C32.5659 6.33416 24.8636 5.26735 20.1026 8.19193C18.393 9.24037 16.665 10.7486 15.3782 12.2937C13.4848 14.5377 12.0143 17.3152 11.665 20.2581C11.1319 24.9301 13.301 29.3445 16.3158 32.8577C15.9849 30.7608 16.1871 28.5352 17.3452 26.6591Z" fill="#FDA81E"/>
<path d="M22.768 7.98977C24.7717 7.89781 26.9041 7.87943 28.8342 8.5232C30.3784 9.03822 32.0696 9.99468 32.6578 11.6133C32.8049 12.018 32.9152 12.4594 32.9519 12.9009C32.9887 13.3056 32.86 13.7102 32.8784 14.1148C32.9152 15.0161 34.1284 15.5864 34.9556 15.2553C35.4887 14.7402 35.9299 14.1884 36.224 13.5998C36.1689 12.8457 35.9483 12.0915 35.5255 11.3558C32.5659 6.35272 24.8636 5.2859 20.1025 8.21049C20.0474 8.24727 19.9738 8.28406 19.9187 8.32084C20.8562 8.10012 21.8121 8.02656 22.768 7.98977Z" fill="#450402"/>
<path d="M19.6614 16.3036C18.5584 15.8622 17.1798 16.8003 16.4628 17.5912C15.1577 19.0443 14.3488 21.0124 14.0363 22.9254C13.5032 26.273 14.5694 29.3815 16.2422 32.2142C15.9849 31.7727 16.1871 30.6507 16.2239 30.154C16.2974 29.4183 16.4444 28.6826 16.7018 27.9836C17.3268 26.3282 18.3379 24.8199 19.1835 23.2748C20.1026 21.5826 22.2717 17.9959 19.9187 16.4508C19.8452 16.3773 19.7533 16.3404 19.6614 16.3036Z" fill="#450402"/>
<path d="M302.311 146.659C295.877 146.659 290.73 145.022 286.999 141.785C281.796 137.279 281.355 131.319 281.337 131.062C281.263 129.94 282.109 128.983 283.23 128.91C284.352 128.836 285.307 129.682 285.381 130.804C285.381 130.896 285.785 135.421 289.701 138.769C293.23 141.785 298.506 143.036 305.4 142.466C315.822 141.62 320.841 136.065 323.194 131.54C326.558 125.102 326.135 118.021 325.197 116.42C324.628 115.446 324.977 114.213 325.933 113.643C326.907 113.091 328.139 113.422 328.709 114.397C329.664 116.052 330.087 119.032 329.867 122.38C329.683 125.084 329.003 129.186 326.778 133.434C323.947 138.842 317.973 145.519 305.712 146.512C304.572 146.623 303.433 146.659 302.311 146.659Z" fill="#FDBB48"/>
<path d="M325.896 121.129C327.201 121.681 328.598 121.589 329.977 121.147C330.014 119.694 329.903 118.352 329.683 117.174C328.47 117.892 327.054 118.296 325.731 118.168C325.859 118.977 325.914 119.989 325.896 121.129Z" fill="#562306"/>
<path d="M320.234 141.325C321.282 140.516 322.22 139.67 323.028 138.787C321.686 138.419 320.492 137.536 319.701 136.377C319.058 137.021 318.322 137.647 317.532 138.254C318.212 139.468 319.094 140.663 320.234 141.325Z" fill="#562306"/>
<path d="M309.223 145.409C309.26 145.611 309.315 145.832 309.352 146.034C310.675 145.776 311.907 145.464 313.065 145.078C312.311 144.084 311.889 142.686 311.594 141.27C310.767 141.546 309.885 141.767 308.947 141.969C308.911 143.128 309.021 144.287 309.223 145.409Z" fill="#562306"/>
<path d="M289.646 142.484C289.462 142.76 289.278 143.054 289.113 143.349C290.252 144.066 291.484 144.673 292.826 145.151C293.157 143.845 293.671 142.539 294.26 141.344C293.285 140.994 292.403 140.571 291.576 140.075C290.841 140.829 290.179 141.657 289.646 142.484Z" fill="#562306"/>
<path d="M303.433 142.576C302.238 142.613 301.116 142.594 300.032 142.502C299.866 143.864 299.701 145.225 299.719 146.567C300.565 146.623 301.429 146.659 302.311 146.659C302.716 146.659 303.138 146.641 303.561 146.641C303.377 145.298 303.322 143.919 303.433 142.576Z" fill="#562306"/>
<path d="M326.797 133.49C326.797 133.471 326.815 133.453 326.815 133.435C327.716 131.706 328.359 130.013 328.837 128.413C327.422 128.45 326.043 128.137 324.903 127.365C324.499 128.744 323.947 130.161 323.23 131.558C323.194 131.632 323.139 131.724 323.102 131.798C324.15 132.717 325.436 133.288 326.797 133.49Z" fill="#562306"/>
<path d="M284.646 119.326H265.362L268.046 144.323C266.796 145.684 266.024 147.156 266.024 147.91C266.024 149.492 269.48 150.779 273.726 150.779C277.973 150.779 281.429 149.492 281.429 147.91C281.429 147.891 281.429 147.855 281.429 147.836L284.646 119.326Z" fill="#EB9124"/>
<path d="M281.98 142.889L282.458 138.64C278.23 139.504 274.002 140.442 270.068 142.263C274.002 142.889 277.991 142.925 281.98 142.889Z" fill="#562306"/>
<path d="M267.017 134.795L267.403 138.419C268.91 138.309 270.399 137.904 271.906 137.72C270.326 136.69 268.616 135.807 267.017 134.795Z" fill="#562306"/>
<path d="M267.476 149.786C267.384 149.786 267.292 149.712 267.274 149.62C266.98 148.038 268.303 146.732 268.359 146.677C268.432 146.604 268.561 146.604 268.634 146.677C268.708 146.751 268.708 146.88 268.634 146.953C268.616 146.972 267.403 148.167 267.66 149.528C267.678 149.639 267.605 149.749 267.495 149.767C267.495 149.786 267.495 149.786 267.476 149.786Z" fill="#1D1D1B"/>
<path d="M269.756 150.375C269.664 150.375 269.572 150.301 269.554 150.209C269.259 148.627 270.583 147.321 270.638 147.266C270.712 147.193 270.84 147.193 270.914 147.266C270.987 147.34 270.987 147.468 270.914 147.542C270.895 147.56 269.682 148.756 269.94 150.117C269.958 150.227 269.884 150.338 269.774 150.356C269.792 150.375 269.774 150.375 269.756 150.375Z" fill="#1D1D1B"/>
<path d="M272.623 151C272.531 151 272.44 150.927 272.421 150.835C272.164 149.437 273.34 148.278 273.377 148.223C273.451 148.149 273.579 148.149 273.653 148.223C273.726 148.296 273.726 148.425 273.653 148.499C273.634 148.517 272.587 149.565 272.807 150.743C272.826 150.853 272.752 150.963 272.642 150.982C272.66 151 272.642 151 272.623 151Z" fill="#1D1D1B"/>
<path d="M288.965 119.326H308.249L305.565 144.323C306.815 145.684 307.587 147.156 307.587 147.91C307.587 149.492 304.131 150.779 299.885 150.779C295.638 150.779 292.182 149.492 292.182 147.91C292.182 147.891 292.182 147.855 292.182 147.836L288.965 119.326Z" fill="#EB9124"/>
<path d="M291.613 142.889L291.135 138.64C295.363 139.504 299.609 140.442 303.524 142.263C299.591 142.889 295.602 142.925 291.613 142.889Z" fill="#562306"/>
<path d="M306.576 134.795L306.19 138.419C304.683 138.309 303.194 137.904 301.686 137.72C303.285 136.69 304.977 135.807 306.576 134.795Z" fill="#562306"/>
<path d="M306.116 149.786C306.208 149.786 306.3 149.712 306.319 149.62C306.613 148.038 305.289 146.732 305.234 146.677C305.16 146.604 305.032 146.604 304.958 146.677C304.885 146.751 304.885 146.88 304.958 146.953C304.977 146.972 306.19 148.167 305.932 149.528C305.914 149.639 305.988 149.749 306.098 149.767C306.098 149.786 306.098 149.786 306.116 149.786Z" fill="#1D1D1B"/>
<path d="M303.837 150.375C303.929 150.375 304.021 150.301 304.039 150.209C304.333 148.627 303.01 147.321 302.955 147.266C302.881 147.193 302.752 147.193 302.679 147.266C302.605 147.34 302.605 147.468 302.679 147.542C302.697 147.56 303.91 148.756 303.653 150.117C303.635 150.227 303.708 150.338 303.819 150.356C303.819 150.375 303.819 150.375 303.837 150.375Z" fill="#1D1D1B"/>
<path d="M300.969 151C301.061 151 301.153 150.927 301.171 150.835C301.429 149.437 300.252 148.278 300.216 148.223C300.142 148.149 300.013 148.149 299.94 148.223C299.866 148.296 299.866 148.425 299.94 148.499C299.958 148.517 301.006 149.565 300.785 150.743C300.767 150.853 300.841 150.963 300.951 150.982C300.951 151 300.951 151 300.969 151Z" fill="#1D1D1B"/>
<path d="M325.749 111.711C326.117 112.208 326.723 112.374 327.109 112.098C327.495 111.803 327.495 111.178 327.128 110.681C326.76 110.185 326.153 110.019 325.767 110.295C325.381 110.571 325.381 111.215 325.749 111.711Z" fill="#FFD148"/>
<path d="M329.628 110.203C330.106 110.828 330.878 111.049 331.374 110.681C331.87 110.313 331.87 109.504 331.411 108.879C330.933 108.235 330.161 108.033 329.664 108.382C329.168 108.75 329.168 109.559 329.628 110.203Z" fill="#FFD148"/>
<path d="M327.734 111.546C328.212 112.19 329.003 112.411 329.499 112.043C329.995 111.675 330.014 110.847 329.536 110.203C329.058 109.56 328.267 109.339 327.771 109.707C327.256 110.075 327.256 110.902 327.734 111.546Z" fill="#FFD148"/>
<path d="M316.429 82.7965C322.183 83.4403 328.617 95.8743 330.179 100.785C330.675 102.349 333.249 107.959 330.492 110.111C329.352 110.994 327.955 111.619 326.558 111.38C324.315 110.975 319.83 105.329 318.819 104.059C316.833 101.558 314.958 98.946 313.138 96.3158C312.422 95.2857 311.723 94.2741 311.025 93.244C306.962 87.1558 312.385 82.3367 316.429 82.7965Z" fill="#FDBB48"/>
<path d="M325.326 103.029C325.859 100.197 326.76 97.456 327.514 94.6602C328.175 95.9293 328.745 97.1433 329.223 98.2285C328.175 100.049 326.981 101.797 325.326 103.029Z" fill="#562306"/>
<path d="M330.308 101.153C330.473 101.632 330.731 102.294 330.97 103.048C330.271 103.636 329.609 104.262 328.856 104.759C329.205 103.489 329.756 102.312 330.308 101.153Z" fill="#562306"/>
<path d="M323.561 104.354C323.433 105.751 323.083 107.113 322.605 108.437C322.072 107.885 321.558 107.315 321.08 106.781C321.852 105.899 322.624 105.016 323.561 104.354Z" fill="#562306"/>
<path d="M322.238 86.6958C323.561 88.2041 324.83 90.0251 325.951 91.8828C325.822 92.6002 325.675 93.3175 325.492 94.0164C325.014 95.8374 324.425 97.8791 323.083 99.277C322.697 96.2789 323.157 93.2439 322.808 90.2458C322.661 89.0318 322.458 87.8546 322.238 86.6958Z" fill="#562306"/>
<path d="M324.536 109.596C324.848 110.552 326.135 111.012 327.422 110.589C328.708 110.166 329.499 109.062 329.186 108.088C328.874 107.131 327.587 106.671 326.3 107.094C325.014 107.517 324.223 108.639 324.536 109.596Z" fill="#FFD148"/>
<path d="M247.862 111.711C247.494 112.208 246.888 112.374 246.502 112.098C246.116 111.803 246.116 111.178 246.483 110.681C246.851 110.185 247.458 110.019 247.844 110.295C248.211 110.571 248.23 111.215 247.862 111.711Z" fill="#FFD148"/>
<path d="M243.965 110.203C243.487 110.828 242.715 111.049 242.219 110.681C241.722 110.313 241.722 109.504 242.182 108.879C242.66 108.235 243.432 108.033 243.928 108.382C244.425 108.75 244.443 109.559 243.965 110.203Z" fill="#FFD148"/>
<path d="M245.858 111.546C245.38 112.19 244.59 112.411 244.094 112.043C243.597 111.675 243.579 110.847 244.057 110.203C244.535 109.56 245.325 109.339 245.822 109.707C246.336 110.075 246.355 110.902 245.858 111.546Z" fill="#FFD148"/>
<path d="M257.164 82.7965C251.41 83.4403 244.976 95.8743 243.414 100.785C242.917 102.349 240.344 107.959 243.101 110.111C244.241 110.994 245.638 111.619 247.035 111.38C249.278 110.975 253.781 105.329 254.774 104.059C256.759 101.558 258.634 98.946 260.454 96.3158C261.171 95.2857 261.87 94.2741 262.568 93.244C266.631 87.1558 261.208 82.3367 257.164 82.7965Z" fill="#FDBB48"/>
<path d="M248.267 103.029C247.733 100.197 246.833 97.456 246.079 94.6602C245.417 95.9293 244.847 97.1433 244.369 98.2285C245.436 100.049 246.612 101.797 248.267 103.029Z" fill="#562306"/>
<path d="M243.285 101.153C243.119 101.632 242.862 102.294 242.623 103.048C243.322 103.636 243.983 104.262 244.737 104.759C244.388 103.489 243.836 102.312 243.285 101.153Z" fill="#562306"/>
<path d="M250.031 104.354C250.16 105.751 250.491 107.113 250.987 108.437C251.52 107.885 252.035 107.315 252.513 106.781C251.759 105.899 250.987 105.016 250.031 104.354Z" fill="#562306"/>
<path d="M251.355 86.6958C250.031 88.2041 248.763 90.0251 247.66 91.8828C247.789 92.6002 247.936 93.3175 248.12 94.0164C248.597 95.8374 249.186 97.8791 250.528 99.277C250.914 96.2789 250.454 93.2439 250.803 90.2458C250.95 89.0318 251.134 87.8546 251.355 86.6958Z" fill="#562306"/>
<path d="M249.057 109.596C248.745 110.552 247.458 111.012 246.171 110.589C244.884 110.166 244.094 109.062 244.406 108.088C244.719 107.131 246.006 106.671 247.292 107.094C248.579 107.517 249.37 108.639 249.057 109.596Z" fill="#FFD148"/>
<path d="M279.186 52.5575C279.48 57.0824 269.976 61.4416 266.41 61.6623C262.844 61.883 266.576 44.8138 270.16 44.5931C273.726 44.3539 278.892 48.0327 279.186 52.5575Z" fill="#EB9124"/>
<path d="M273.892 55.8315C274.076 58.8113 270.215 59.032 267.862 59.1791C265.509 59.3263 267.973 48.0878 270.326 47.9406C272.697 47.7935 273.708 52.8517 273.892 55.8315Z" fill="#FFD148"/>
<path d="M294.094 52.5575C293.8 57.0824 303.304 61.4416 306.87 61.6623C310.436 61.883 306.705 44.8138 303.12 44.5931C299.554 44.3539 294.388 48.0327 294.094 52.5575Z" fill="#EB9124"/>
<path d="M299.388 55.8315C299.205 58.8113 303.065 59.032 305.418 59.1791C307.771 59.3263 305.308 48.0878 302.955 47.9406C300.583 47.7935 299.572 52.8517 299.388 55.8315Z" fill="#FFD148"/>
<path d="M322.054 102.018C322.054 124.918 306.282 137.683 286.815 137.683C267.348 137.683 251.575 124.918 251.575 102.018C251.575 79.118 267.348 48.7686 286.815 48.7686C306.263 48.7686 322.054 79.118 322.054 102.018Z" fill="#F3A436"/>
<path d="M312.311 118.37C312.311 130.767 300.896 137.683 286.796 137.683C272.697 137.683 261.281 130.767 261.281 118.37C261.281 105.973 272.697 89.5288 286.796 89.5288C300.896 89.5288 312.311 105.973 312.311 118.37Z" fill="#FFD148"/>
<path d="M281.98 60.1539C281.98 61.5702 280.84 62.7106 279.425 62.7106C278.009 62.7106 276.87 61.5702 276.87 60.1539C276.87 58.7376 278.009 57.5972 279.425 57.5972C280.84 57.5972 281.98 58.7376 281.98 60.1539Z" fill="#431828"/>
<path d="M279.241 59.363C279.241 59.8045 278.892 60.154 278.451 60.154C278.009 60.154 277.66 59.7861 277.66 59.363C277.66 58.9216 278.009 58.5537 278.451 58.5537C278.873 58.5721 279.241 58.9216 279.241 59.363Z" fill="white"/>
<path d="M278.34 61.037C278.34 61.2393 278.175 61.3865 277.991 61.3865C277.789 61.3865 277.642 61.2209 277.642 61.037C277.642 60.853 277.789 60.6875 277.991 60.6875C278.175 60.6875 278.34 60.853 278.34 61.037Z" fill="white"/>
<path d="M296.76 60.1539C296.76 61.5702 295.62 62.7106 294.204 62.7106C292.789 62.7106 291.649 61.5702 291.649 60.1539C291.649 58.7376 292.789 57.5972 294.204 57.5972C295.602 57.5972 296.76 58.7376 296.76 60.1539Z" fill="#431828"/>
<path d="M294.002 59.363C294.002 59.8045 293.635 60.154 293.212 60.154C292.771 60.154 292.421 59.7861 292.421 59.363C292.421 58.9216 292.771 58.5537 293.212 58.5537C293.653 58.5721 294.002 58.9216 294.002 59.363Z" fill="white"/>
<path d="M293.101 61.037C293.101 61.2393 292.954 61.3865 292.752 61.3865C292.55 61.3865 292.403 61.2209 292.403 61.037C292.403 60.853 292.55 60.6875 292.752 60.6875C292.954 60.6875 293.101 60.853 293.101 61.037Z" fill="white"/>
<path d="M296.263 75.6049C296.263 81.8219 292.035 82.7599 286.815 82.7599C281.594 82.7599 277.366 81.8219 277.366 75.6049C277.366 69.3878 281.594 61.2026 286.815 61.2026C292.017 61.2026 296.263 69.3878 296.263 75.6049Z" fill="#FFD148"/>
<path d="M283.506 80.5712C281.833 80.5712 280.381 78.9526 280.068 76.7454C280.05 76.6534 280.123 76.5614 280.215 76.5614C280.307 76.543 280.399 76.6166 280.399 76.7086C280.693 78.7687 281.998 80.2586 283.506 80.2586C285.013 80.2586 286.318 78.7687 286.613 76.7086C286.631 76.6166 286.704 76.5614 286.796 76.5614C286.888 76.5798 286.943 76.6534 286.943 76.7454C286.631 78.971 285.197 80.5712 283.506 80.5712Z" fill="#1D1D1B"/>
<path d="M290.105 80.5712C288.432 80.5712 286.98 78.9526 286.668 76.7454C286.649 76.6534 286.723 76.5614 286.815 76.5614C286.907 76.543 286.98 76.6166 286.999 76.7086C287.293 78.7687 288.598 80.2586 290.105 80.2586C291.613 80.2586 292.918 78.7687 293.212 76.7086C293.23 76.6166 293.304 76.5614 293.396 76.5614C293.488 76.5798 293.543 76.6534 293.543 76.7454C293.23 78.971 291.778 80.5712 290.105 80.5712Z" fill="#1D1D1B"/>
<path d="M291.649 75.1267C291.649 74.0967 289.48 73.9312 286.796 73.9312C284.112 73.9312 281.943 74.0783 281.943 75.1267C281.943 76.1568 284.112 77.5179 286.796 77.5179C289.48 77.5179 291.649 76.1568 291.649 75.1267Z" fill="#562306"/>
<path d="M285.013 50.4424C285.013 50.4424 274.186 53.1095 276.539 53.5693C278.892 54.0292 285.013 53.1279 285.013 53.1279V50.4424Z" fill="#562306"/>
<path d="M284.48 54.3052C284.48 54.3052 277.55 56.0158 279.057 56.3101C280.565 56.6044 284.48 56.0342 284.48 56.0342V54.3052Z" fill="#562306"/>
<path d="M269.645 59.3448C269.645 59.3448 272.973 62.8579 275.914 64.5134C278.837 66.1688 270.546 65.6537 268.285 63.097C266.024 60.5403 268.837 58.5171 269.645 59.3448Z" fill="#562306"/>
<path d="M273.34 55.7764C273.34 55.7764 274.168 58.1675 275.215 59.5655C276.263 60.9818 272.421 58.9585 271.888 57.2663C271.355 55.574 273.138 55.2062 273.34 55.7764Z" fill="#562306"/>
<path d="M264.701 65.2678C264.701 65.2678 268.506 67.3278 271.447 67.9164C274.388 68.505 267.201 70.3628 264.572 68.8361C261.943 67.2911 263.781 64.808 264.701 65.2678Z" fill="#562306"/>
<path d="M261.833 70.6935C261.833 70.6935 265.436 72.6616 268.23 73.2135C271.024 73.7653 264.204 75.5494 261.704 74.078C259.222 72.6249 260.95 70.2521 261.833 70.6935Z" fill="#562306"/>
<path d="M288.598 50.4424C288.598 50.4424 299.425 53.1095 297.072 53.5693C294.719 54.0292 288.598 53.1279 288.598 53.1279V50.4424Z" fill="#562306"/>
<path d="M289.131 54.3052C289.131 54.3052 296.061 56.0158 294.554 56.3101C293.046 56.6044 289.131 56.0342 289.131 56.0342V54.3052Z" fill="#562306"/>
<path d="M303.966 59.3448C303.966 59.3448 300.638 62.8579 297.697 64.5134C294.774 66.1688 303.065 65.6537 305.326 63.097C307.587 60.5403 304.774 58.5171 303.966 59.3448Z" fill="#562306"/>
<path d="M300.271 55.7764C300.271 55.7764 299.444 58.1675 298.396 59.5655C297.348 60.9818 301.19 58.9585 301.723 57.2663C302.256 55.574 300.473 55.2062 300.271 55.7764Z" fill="#562306"/>
<path d="M308.91 65.2678C308.91 65.2678 305.105 67.3278 302.164 67.9164C299.223 68.505 306.41 70.3628 309.039 68.8361C311.668 67.2911 309.83 64.808 308.91 65.2678Z" fill="#562306"/>
<path d="M311.778 70.6935C311.778 70.6935 308.175 72.6616 305.381 73.2135C302.587 73.7653 309.407 75.5494 311.907 74.078C314.388 72.6249 312.661 70.2521 311.778 70.6935Z" fill="#562306"/>
<path d="M270.381 77.3703C264.701 76.9657 259.333 78.1429 255.95 79.1545C255.252 81.0674 254.609 82.9988 254.075 84.9485C263.598 78.29 278.671 77.9589 270.381 77.3703Z" fill="#562306"/>
<path d="M267.844 85.059C272.679 83.0541 270.399 82.7598 270.399 82.7598C263.579 82.9989 256.833 86.6408 253.028 89.1056C252.495 91.5887 252.09 94.0719 251.833 96.5182C258.101 89.4551 263.928 86.696 267.844 85.059Z" fill="#562306"/>
<path d="M303.23 77.3703C294.958 77.9589 310.013 78.29 319.536 84.9485C318.984 82.9988 318.359 81.0674 317.661 79.1545C314.278 78.1429 308.91 76.9657 303.23 77.3703Z" fill="#562306"/>
<path d="M263.524 100.362C267.476 96.9594 265.234 97.3825 265.234 97.3825C259.627 99.461 254.884 104.004 251.888 107.481C252.145 109.669 252.568 111.73 253.12 113.698C256.594 106.69 260.638 102.845 263.524 100.362Z" fill="#562306"/>
<path d="M305.767 85.0588C309.701 86.6774 315.51 89.4548 321.778 96.4996C321.539 94.0716 321.135 91.5885 320.583 89.087C316.778 86.6406 310.032 82.9987 303.212 82.7412C303.194 82.7596 300.933 83.0723 305.767 85.0588Z" fill="#562306"/>
<path d="M267.182 89.5467C265.951 91.5516 249.259 105.273 254.094 99.5344C254.094 99.5344 258.671 93.4094 266.355 88.7558C266.373 88.7558 268.414 87.5602 267.182 89.5467ZM306.429 89.5467C305.197 87.5418 307.238 88.7558 307.238 88.7558C314.94 93.4094 319.499 99.5344 319.499 99.5344C324.352 105.273 307.661 91.5516 306.429 89.5467Z" fill="white" stroke="#1D1D1B" stroke-miterlimit="10" stroke-linecap="round" stroke-linejoin="round"/>
<path d="M261.52 105.071C257.825 108.547 255.601 113.606 254.37 117.34C255.197 119.344 256.171 121.221 257.311 122.95C257.623 115.721 259.645 111.067 261.171 108.014C263.175 103.986 261.52 105.071 261.52 105.071Z" fill="#562306"/>
<path d="M308.377 97.3825C308.377 97.3825 306.116 96.9594 310.087 100.362C312.973 102.845 316.999 106.69 320.492 113.679C321.043 111.711 321.466 109.651 321.723 107.462C318.727 104.004 314.003 99.461 308.377 97.3825Z" fill="#562306"/>
<path d="M312.091 105.071C312.091 105.071 310.455 103.986 312.44 108.014C313.966 111.067 315.988 115.721 316.3 122.95C317.44 121.221 318.414 119.344 319.242 117.34C318.01 113.624 315.786 108.547 312.091 105.071Z" fill="#562306"/>
<path d="M266.373 88.7561C258.671 93.4097 254.112 99.5348 254.112 99.5348C249.278 105.274 265.969 91.5519 267.201 89.547C268.414 87.5605 266.373 88.7561 266.373 88.7561Z" fill="#562306"/>
<path d="M319.517 99.5348C319.517 99.5348 314.958 93.4097 307.256 88.7561C307.256 88.7561 305.197 87.5605 306.447 89.547C307.66 91.5519 324.352 105.274 319.517 99.5348Z" fill="#562306"/>
<defs>
<linearGradient id="paint0_linear_175_10315" x1="141.601" y1="96.612" x2="143.929" y2="96.612" gradientUnits="userSpaceOnUse">
<stop stop-color="#383537"/>
<stop offset="0.0449" stop-color="#545152"/>
<stop offset="0.1083" stop-color="#747273"/>
<stop offset="0.1691" stop-color="#8C8A8A"/>
<stop offset="0.2254" stop-color="#9A9898"/>
<stop offset="0.2732" stop-color="#9F9D9D"/>
<stop offset="0.2968" stop-color="#989696"/>
<stop offset="0.4334" stop-color="#767374"/>
<stop offset="0.5721" stop-color="#5B5859"/>
<stop offset="0.7119" stop-color="#474546"/>
<stop offset="0.8536" stop-color="#3C393B"/>
<stop offset="1" stop-color="#383537"/>
</linearGradient>
<linearGradient id="paint1_linear_175_10315" x1="141.089" y1="46.9462" x2="144.415" y2="46.9462" gradientUnits="userSpaceOnUse">
<stop stop-color="#383537"/>
<stop offset="0.0449" stop-color="#545152"/>
<stop offset="0.1083" stop-color="#747273"/>
<stop offset="0.1691" stop-color="#8C8A8A"/>
<stop offset="0.2254" stop-color="#9A9898"/>
<stop offset="0.2732" stop-color="#9F9D9D"/>
<stop offset="0.2968" stop-color="#989696"/>
<stop offset="0.4334" stop-color="#767374"/>
<stop offset="0.5721" stop-color="#5B5859"/>
<stop offset="0.7119" stop-color="#474546"/>
<stop offset="0.8536" stop-color="#3C393B"/>
<stop offset="1" stop-color="#383537"/>
</linearGradient>
<radialGradient id="paint2_radial_175_10315" cx="0" cy="0" r="1" gradientUnits="userSpaceOnUse" gradientTransform="translate(142.792 42.3365) scale(1.99809 1.9542)">
<stop stop-color="#9F9D9D"/>
<stop offset="0.1421" stop-color="#8C8A8B"/>
<stop offset="0.5298" stop-color="#5F5C5D"/>
<stop offset="0.8284" stop-color="#434041"/>
<stop offset="1" stop-color="#383537"/>
</radialGradient>
<radialGradient id="paint3_radial_175_10315" cx="0" cy="0" r="1" gradientUnits="userSpaceOnUse" gradientTransform="translate(142.792 42.3365) scale(1.99807 1.9542)">
<stop stop-color="#9F9D9D"/>
<stop offset="0.1421" stop-color="#8C8A8B"/>
<stop offset="0.5298" stop-color="#5F5C5D"/>
<stop offset="0.8284" stop-color="#434041"/>
<stop offset="1" stop-color="#383537"/>
</radialGradient>
<radialGradient id="paint4_radial_175_10315" cx="0" cy="0" r="1" gradientUnits="userSpaceOnUse" gradientTransform="translate(142.469 42.0855) scale(1.4867 1.45406)">
<stop stop-color="#878585"/>
<stop offset="0.0118" stop-color="#838282"/>
<stop offset="0.1821" stop-color="#555353"/>
<stop offset="0.3447" stop-color="#302F2F"/>
<stop offset="0.4954" stop-color="#161515"/>
<stop offset="0.6299" stop-color="#060606"/>
<stop offset="0.7346"/>
</radialGradient>
<linearGradient id="paint5_linear_175_10315" x1="142.792" y1="49.1079" x2="142.792" y2="52.0143" gradientUnits="userSpaceOnUse">
<stop stop-color="#505050"/>
<stop offset="0.0277" stop-color="#626262"/>
<stop offset="0.107" stop-color="#929292"/>
<stop offset="0.1861" stop-color="#B9B9B9"/>
<stop offset="0.2637" stop-color="#D8D8D8"/>
<stop offset="0.3394" stop-color="#EDEDED"/>
<stop offset="0.4121" stop-color="#FBFBFB"/>
<stop offset="0.4788" stop-color="white"/>
<stop offset="0.5497" stop-color="#FAFAFA"/>
<stop offset="0.6291" stop-color="#EDEDED"/>
<stop offset="0.7125" stop-color="#D6D6D6"/>
<stop offset="0.7989" stop-color="#B7B7B7"/>
<stop offset="0.8873" stop-color="#8F8F8F"/>
<stop offset="0.9764" stop-color="#5E5E5E"/>
<stop offset="1" stop-color="#505050"/>
</linearGradient>
<linearGradient id="paint6_linear_175_10315" x1="142.799" y1="120.128" x2="142.799" y2="123.451" gradientUnits="userSpaceOnUse">
<stop stop-color="#505050"/>
<stop offset="0.2588" stop-color="#8C8C8C"/>
<stop offset="0.5025" stop-color="#BEBEBE"/>
<stop offset="0.7151" stop-color="#E1E1E1"/>
<stop offset="0.8881" stop-color="#F7F7F7"/>
<stop offset="1" stop-color="white"/>
</linearGradient>
<linearGradient id="paint7_linear_175_10315" x1="142.792" y1="44.8012" x2="142.792" y2="43.98" gradientUnits="userSpaceOnUse">
<stop stop-color="#505050"/>
<stop offset="0.2588" stop-color="#8C8C8C"/>
<stop offset="0.5025" stop-color="#BEBEBE"/>
<stop offset="0.7151" stop-color="#E1E1E1"/>
<stop offset="0.8881" stop-color="#F7F7F7"/>
<stop offset="1" stop-color="white"/>
</linearGradient>
<linearGradient id="paint8_linear_175_10315" x1="141.581" y1="46.946" x2="142.762" y2="46.946" gradientUnits="userSpaceOnUse">
<stop offset="0.1147"/>
<stop offset="0.208" stop-color="#242424"/>
<stop offset="0.3287" stop-color="#4C4C4C"/>
<stop offset="0.4244" stop-color="#656565"/>
<stop offset="0.4826" stop-color="#6E6E6E"/>
<stop offset="0.4886" stop-color="#6B6B6B"/>
<stop offset="0.6075" stop-color="#3D3D3D"/>
<stop offset="0.7131" stop-color="#1C1C1C"/>
<stop offset="0.8005" stop-color="#070707"/>
<stop offset="0.8588"/>
</linearGradient>
</defs>
</svg>
