<svg width="365" height="143" viewBox="0 0 365 143" fill="none" xmlns="http://www.w3.org/2000/svg">
<path d="M6.56262 141.686C6.56262 141.686 7.72072 141.686 9.90824 141.667C12.0958 141.649 15.2943 141.63 19.3569 141.594C27.4819 141.538 39.1181 141.465 53.052 141.41C60.019 141.373 67.5742 141.336 75.5706 141.318C83.5487 141.299 91.9863 141.263 100.7 141.244C109.413 141.226 118.42 141.207 127.575 141.207C136.729 141.207 146.013 141.189 155.314 141.189C164.616 141.189 173.899 141.207 183.072 141.207C192.226 141.207 201.234 141.244 209.929 141.244C218.642 141.263 227.061 141.281 235.058 141.318C243.036 141.336 250.591 141.373 257.576 141.41C271.51 141.465 283.146 141.538 291.271 141.594C295.352 141.63 298.532 141.649 300.72 141.667C302.889 141.686 304.066 141.686 304.066 141.686C304.066 141.686 302.907 141.704 300.72 141.722C298.551 141.741 295.352 141.759 291.271 141.796C283.146 141.851 271.51 141.925 257.576 141.98C250.591 142.017 243.054 142.053 235.058 142.072C227.061 142.09 218.642 142.127 209.929 142.145C201.215 142.164 192.208 142.182 183.072 142.182C173.917 142.182 164.616 142.201 155.314 142.201C146.013 142.201 136.729 142.182 127.575 142.182C118.42 142.182 109.413 142.145 100.7 142.145C91.9863 142.127 83.5671 142.109 75.5706 142.072C67.5742 142.053 60.019 142.017 53.052 141.98C39.1181 141.925 27.4819 141.851 19.3569 141.796C15.2943 141.759 12.0958 141.741 9.90824 141.722C7.72072 141.686 6.56262 141.686 6.56262 141.686Z" fill="#989898"/>
<path d="M159.248 36.0327H156.95V141.686H159.248V36.0327Z" fill="url(#paint0_linear_175_11424)"/>
<path d="M159.561 41.3298C158.88 41.3298 156.674 41.3298 156.619 41.3298C156.564 41.3298 156.454 41.3114 156.454 41.1275C156.454 40.2998 156.454 37.2832 156.454 37.2097C156.454 37.1361 156.472 37.0625 156.619 37.0625C156.748 37.0625 158.991 37.0625 159.579 37.0625C159.744 37.0625 159.744 37.1545 159.744 37.2464C159.744 37.32 159.744 40.2814 159.744 41.1275C159.763 41.2563 159.726 41.3298 159.561 41.3298Z" fill="url(#paint1_linear_175_11424)"/>
<path d="M160.112 34.5796C160.112 35.6648 159.211 36.5293 158.108 36.5293C157.005 36.5293 156.104 35.6464 156.104 34.5796C156.104 33.4944 157.005 32.6299 158.108 32.6299C159.211 32.6299 160.112 33.4944 160.112 34.5796Z" fill="url(#paint2_radial_175_11424)"/>
<path opacity="0.3" d="M158.108 32.6299C158.071 32.6299 158.035 32.6299 157.98 32.6299C158.88 32.7035 159.616 33.4392 159.616 34.3405C159.616 35.297 158.825 36.0511 157.869 36.0511C156.95 36.0511 156.196 35.3521 156.123 34.4508C156.123 34.4876 156.123 34.5244 156.123 34.5612C156.123 35.6464 157.024 36.5109 158.127 36.5109C159.23 36.5109 160.13 35.628 160.13 34.5612C160.112 33.4944 159.211 32.6299 158.108 32.6299Z" fill="url(#paint3_radial_175_11424)"/>
<path d="M159.321 34.3405C159.321 35.1682 158.641 35.8303 157.796 35.8303C156.95 35.8303 156.27 35.1682 156.27 34.3405C156.27 33.5128 156.95 32.8506 157.796 32.8506C158.641 32.8506 159.321 33.5128 159.321 34.3405Z" fill="url(#paint4_radial_175_11424)"/>
<path d="M159.248 41.3301H156.95V44.2363H159.248V41.3301Z" fill="url(#paint5_linear_175_11424)"/>
<path d="M159.266 112.348H156.969V116.431H159.266V112.348Z" fill="url(#paint6_linear_175_11424)"/>
<path d="M159.248 36.2168H156.95V37.0445H159.248V36.2168Z" fill="url(#paint7_linear_175_11424)"/>
<path opacity="0.8" d="M158.108 37.0625H156.858V41.3298H158.108V37.0625Z" fill="url(#paint8_linear_175_11424)"/>
<path d="M8.89722 107.602C8.89722 106.167 8.89722 52.7707 8.89722 50.4531C8.89722 47.8228 9.74281 46.7744 13.1436 46.7744C16.1399 46.7744 301.786 46.7744 303.643 46.7744C305.499 46.7744 307.264 47.1239 307.264 50.5083C307.264 53.8927 307.264 104.549 307.264 108.172C307.264 111.796 304.176 112.072 302.632 112.072C301.088 112.072 16.1583 112.072 12.7759 112.072C9.39354 112.072 8.89722 109.037 8.89722 107.602Z" fill="#FF9075"/>
<path opacity="0.5" d="M307.264 108.172C307.264 104.549 307.264 53.8927 307.264 50.5083C307.264 47.1239 305.499 46.7744 303.643 46.7744C301.786 46.7744 16.1399 46.7744 13.1436 46.7744C9.74281 46.7744 8.89722 47.8412 8.89722 50.4531C8.89722 52.7707 8.89722 106.167 8.89722 107.602C8.89722 109.037 9.39354 112.072 12.7759 112.072C16.1583 112.072 301.088 112.072 302.632 112.072C304.176 112.072 307.264 111.796 307.264 108.172ZM13.0149 111.41C9.70605 111.41 9.20972 108.393 9.20972 106.977C9.20972 105.56 9.20972 53.0098 9.20972 50.7106C9.20972 48.0988 10.0553 47.0503 13.3826 47.0503C16.3238 47.0503 301.492 47.0503 303.312 47.0503C305.132 47.0503 306.86 47.3998 306.86 50.7474C306.86 54.0951 306.86 103.942 306.86 107.528C306.86 111.115 303.845 111.391 302.319 111.391C300.793 111.41 16.3238 111.41 13.0149 111.41Z" fill="#91BD4A"/>
<path opacity="0.5" d="M10.717 105.653V52.3848C10.717 49.4418 11.9119 48.4302 15.4597 48.4302H301.455C303.514 48.4302 305.371 48.7429 305.371 52.4216V106.076C305.371 107.455 305.021 108.467 304.304 109.147C303.312 110.104 301.896 110.104 300.977 110.086H300.812H15.1288C10.717 110.104 10.717 106.756 10.717 105.653ZM303.441 52.9366C303.441 50.5638 302.797 50.5638 301.216 50.5638H15.6987C12.9597 50.5638 12.6656 51.0421 12.6656 52.8998V105.156C12.6656 106.959 13.1068 107.989 15.3678 107.989H300.757C301.51 107.989 302.374 107.989 302.889 107.51C303.257 107.143 303.441 106.499 303.441 105.579V52.9366Z" fill="#BCBCBC"/>
<path d="M11.1582 105.469V52.5501C11.1582 49.7911 12.2244 48.9082 15.5516 48.9082H301.345C302.944 48.9082 304.911 48.9082 304.911 52.5869V105.892C304.911 107.198 304.599 108.117 303.955 108.743C303.054 109.607 301.786 109.607 300.867 109.607H300.701H15.2207C11.581 109.625 11.1582 107.253 11.1582 105.469ZM303.9 52.6053C303.9 49.9199 302.944 49.9199 301.345 49.9199H15.57C12.6288 49.9199 12.1876 50.5084 12.1876 52.5685V105.487C12.1876 107.381 12.7023 108.632 15.2391 108.632H300.885C301.676 108.632 302.65 108.632 303.257 108.062C303.698 107.639 303.918 106.922 303.918 105.91V52.6053H303.9Z" fill="#232020"/>
<path d="M28.9342 61.4712H52.041V69.3253H38.6034V76.0021H51.2506V83.801H38.6034V97.4675H28.9342V61.4712Z" fill="#C3464B"/>
<path d="M80.6259 82.9551H67.703V89.5768H82.17V97.486H58.0521V61.4897H81.4347V69.3438H67.7213V75.1746H80.6443V82.9551H80.6259Z" fill="#C3464B"/>
<path d="M87.5377 61.9495C89.7252 61.5632 94.4863 61.1953 98.9165 61.1953C104.045 61.1953 107.078 61.508 109.909 62.9611C112.685 64.2486 114.762 66.8605 114.762 70.3369C114.762 73.3903 113.108 76.3149 108.898 77.9151V78.0255C113.328 79.2578 115.939 82.5135 115.939 86.7808C115.939 90.1468 114.339 92.8139 111.931 94.6349C109.211 96.6582 104.725 97.8906 97.0415 97.8906C92.6664 97.8906 89.523 97.5779 87.5377 97.2468V61.9495ZM97.0783 75.3032H99.0084C103.108 75.3032 105.093 73.8685 105.093 71.5693C105.093 69.4356 103.494 68.0929 100.24 68.0929C98.6408 68.0929 97.7216 68.2033 97.0966 68.3136V75.3032H97.0783ZM97.0783 90.6987C97.7768 90.809 98.6224 90.809 99.854 90.809C103.053 90.809 105.773 89.5215 105.773 86.3762C105.773 83.3412 102.997 82.164 99.3761 82.164H97.0783V90.6987Z" fill="#C3464B"/>
<path d="M121.233 61.9495C123.954 61.5264 128.071 61.1953 132.869 61.1953C138.365 61.1953 142.318 61.9495 145.038 63.9728C147.336 65.7385 148.604 68.2952 148.604 71.8268C148.604 76.3149 145.241 79.5153 142.41 80.527V80.7477C144.818 81.7594 146.086 84.0586 147.005 87.1487C148.127 90.8274 149.303 96.0696 150.002 97.4675H140.13C139.597 96.4007 138.696 93.6232 137.63 89.1904C136.674 84.8679 135.332 83.9482 132.336 83.9482H130.792V97.4675H121.233V61.9495ZM130.792 77.069H133.292C136.913 77.069 139.009 75.248 139.009 72.581C139.009 69.8587 137.244 68.3504 134.046 68.3136C132.226 68.3136 131.27 68.424 130.792 68.5344V77.069Z" fill="#C3464B"/>
<path d="M163.421 61.4712V81.8697C163.421 87.3142 165.296 90.4227 169.083 90.4227C172.925 90.4227 174.8 87.5901 174.8 81.8697V61.4712H184.469V81.3363C184.469 92.446 178.917 98.0561 168.825 98.0561C158.954 98.0561 153.77 92.6667 153.77 81.0788V61.4712H163.421Z" fill="#C3464B"/>
<path d="M198.991 89.1352L196.969 97.4675H186.987L197.447 61.4712H210.259L220.995 97.4675H210.59L208.293 89.1352H198.991ZM206.951 81.9801L205.296 75.5239C204.763 73.5006 204.065 70.5576 203.531 68.424H203.421C202.888 70.5576 202.355 73.5558 201.822 75.5791L200.278 81.9984H206.951V81.9801Z" fill="#C3464B"/>
<path d="M225.591 61.9495C228.311 61.5264 232.429 61.1953 237.227 61.1953C242.723 61.1953 246.675 61.9495 249.396 63.9728C251.694 65.7385 252.962 68.2952 252.962 71.8268C252.962 76.3149 249.598 79.5153 246.767 80.527V80.7477C249.175 81.7594 250.444 84.0586 251.363 87.1487C252.484 90.8274 253.661 96.0696 254.359 97.4675H244.488C243.955 96.4007 243.054 93.6232 241.988 89.1904C241.032 84.8679 239.69 83.9482 236.694 83.9482H235.149V97.4675H225.591V61.9495ZM235.149 77.069H237.65C241.271 77.069 243.366 75.248 243.366 72.581C243.366 69.8587 241.602 68.3504 238.403 68.3136C236.583 68.3136 235.627 68.424 235.149 68.5344V77.069Z" fill="#C3464B"/>
<path d="M265.812 97.4675V82.9365L254.433 61.4712H265.481L268.514 69.5828C269.525 72.1027 270.168 73.9053 270.977 76.2045H271.087C271.786 74.0156 272.521 72.0291 273.385 69.5828L276.381 61.4712H287.209L275.407 82.5687V97.4675H265.812Z" fill="#C3464B"/>
<path d="M316.933 50.582C316.933 50.582 317.209 40.116 311.014 34.3772C304.819 28.6384 301.547 26.1921 303.422 17.7678C303.422 17.7678 304.323 13.2062 302.154 17.1608C299.985 21.1154 297.852 29.411 304.194 35.5176C311.786 42.8567 310.279 52.219 310.279 52.219C310.279 52.219 316.327 55.5667 316.933 50.582Z" fill="#685346"/>
<path d="M302.687 17.0871C302.981 17.1239 303.22 17.2343 303.477 17.3446C303.643 16.3146 303.863 14.0706 302.191 17.0871C302.356 17.0503 302.521 17.0687 302.687 17.0871Z" fill="#3B2417"/>
<path d="M302.724 20.3612C302.816 20.3796 302.889 20.3795 302.981 20.3979C303.018 20.1036 303.036 19.8094 303.091 19.4967C302.852 19.4231 302.595 19.3311 302.338 19.2943C302.135 19.2759 301.547 19.1472 301.18 19.2208C301.051 19.5518 300.941 19.8829 300.83 20.2324C301.419 20.0669 302.099 20.1956 302.724 20.3612Z" fill="#3B2417"/>
<path d="M302.908 21.8326C302.908 21.5935 302.908 21.3728 302.926 21.1153C302.172 20.8578 301.345 20.7842 300.591 21.0601C300.518 21.336 300.444 21.6303 300.371 21.9246C301.088 21.6671 302.209 21.6303 302.908 21.8326Z" fill="#3B2417"/>
<path d="M303.533 25.5116C303.441 25.2725 303.367 25.015 303.294 24.7391C302.797 24.6655 302.338 24.5919 301.786 24.7023C301.161 24.831 300.573 25.015 300.003 25.2909C299.985 25.7323 300.003 26.1738 300.04 26.6336C300.904 25.9162 302.319 25.438 303.533 25.5116Z" fill="#3B2417"/>
<path d="M303.624 27.7003C303.919 27.6083 304.213 27.5531 304.507 27.5164C304.341 27.2405 304.176 26.9829 304.047 26.707C302.76 26.7806 301.069 27.1669 300.205 28.1785C300.279 28.5648 300.371 28.9511 300.481 29.3373C301.198 28.3992 302.411 27.9026 303.624 27.7003Z" fill="#3B2417"/>
<path d="M303.294 29.8706C304.066 29.4291 304.838 29.282 305.647 29.0797C305.426 28.8038 305.205 28.5279 305.003 28.252C303.624 28.4727 302.227 28.8405 301.216 29.7786C301.051 29.9442 300.904 30.1281 300.775 30.312C300.922 30.7535 301.106 31.1949 301.327 31.618C301.823 30.9006 302.522 30.2936 303.294 29.8706Z" fill="#3B2417"/>
<path d="M305.647 33.8804C306.621 33.1079 307.779 32.7216 308.974 32.5009C308.643 32.1882 308.33 31.8939 308.018 31.5996C307.154 31.6364 306.235 32.0962 305.555 32.4457C304.654 32.9239 303.845 33.5125 303.238 34.3035C303.238 34.3219 303.22 34.3219 303.22 34.3403C303.202 34.377 303.183 34.4138 303.146 34.4322C303.441 34.7817 303.753 35.1312 304.084 35.4623C304.507 34.8185 305.132 34.2851 305.647 33.8804Z" fill="#3B2417"/>
<path d="M310.886 34.267C310.5 33.9175 310.15 33.5865 309.783 33.2554C307.981 33.4761 305.665 34.4878 304.819 36.1984C305.058 36.4375 305.279 36.695 305.481 36.9525C306.639 35.3706 308.974 34.3222 310.886 34.267Z" fill="#3B2417"/>
<path d="M312.503 36.0326C312.264 35.7199 312.007 35.4256 311.75 35.1313C310.959 35.3521 310.114 35.3705 309.323 35.6464C308.036 36.1062 307.062 36.8419 306.29 37.9272C306.566 38.295 306.805 38.6445 307.044 38.994C308.128 37.265 310.408 36.1982 312.503 36.0326Z" fill="#3B2417"/>
<path d="M314.047 38.4054C313.79 37.9088 313.496 37.4305 313.183 36.9707C310.977 37.1546 308.845 38.0743 307.632 39.9873C307.852 40.3551 308.036 40.723 308.22 41.0909C309.911 39.601 311.805 38.3686 314.047 38.4054Z" fill="#3B2417"/>
<path d="M310.977 40.2083C310.187 40.6497 309.176 41.2751 308.661 42.0476C308.845 42.4707 309.011 42.9121 309.158 43.3352C310.003 41.9556 311.86 41.1647 313.386 40.9256C313.661 40.8888 314.415 40.7233 315.095 40.7233C314.93 40.3002 314.746 39.8772 314.562 39.4725C313.441 39.3805 312.136 39.6564 310.977 40.2083Z" fill="#3B2417"/>
<path d="M316.143 44.0889C316.014 43.5187 315.849 42.9301 315.665 42.3415C314.599 42.2128 313.275 42.5071 312.485 42.8198C311.455 43.206 310.187 43.905 309.635 44.9167C309.691 45.1374 309.746 45.3581 309.801 45.5788C311.529 44.3097 314.176 43.997 316.143 44.0889Z" fill="#3B2417"/>
<path d="M316.419 47.9884C315.536 48.0252 314.691 48.1356 313.827 48.3011C312.595 48.5218 311.419 48.8345 310.334 49.4415C310.408 51.1521 310.242 52.2373 310.242 52.2373C310.242 52.2373 316.327 55.5666 316.915 50.6003C316.915 50.6003 316.933 49.5703 316.768 47.9884C316.658 47.97 316.529 47.97 316.419 47.9884Z" fill="#3B2417"/>
<path d="M310.61 48.1907C312.393 47.1055 314.562 46.6088 316.639 46.7744C316.584 46.3697 316.511 45.9467 316.437 45.5052C316.419 45.5052 316.382 45.5052 316.364 45.4868C315.261 45.3949 314.029 45.4133 312.852 45.6524C311.841 45.9467 310.867 46.4433 310.095 47.0871C310.169 47.5285 310.224 47.97 310.261 48.3746C310.371 48.3194 310.5 48.2459 310.61 48.1907Z" fill="#3B2417"/>
<path d="M307.025 30.5882C306.805 30.3674 306.602 30.1467 306.4 29.926C304.654 29.9076 302.522 31.048 301.915 32.7034C302.117 33.0345 302.338 33.3472 302.558 33.6599C303.459 32.0413 305.187 30.8457 307.025 30.5882Z" fill="#3B2417"/>
<path d="M303.055 23.7642C303 23.4699 302.963 23.1757 302.944 22.863C302.007 22.6606 300.812 22.4951 300.15 23.1573C300.113 23.4332 300.077 23.7091 300.04 24.0034C300.077 23.985 300.132 23.9666 300.169 23.9482C301.069 23.5251 302.099 23.5803 303.055 23.7642Z" fill="#3B2417"/>
<path d="M302.43 18.5403C302.669 18.5771 302.963 18.6139 303.22 18.6875C303.275 18.43 303.312 18.1725 303.385 17.8966C303.202 17.823 303.018 17.7678 302.816 17.7494C302.485 17.731 302.154 17.7494 301.805 17.7862C301.694 18.0069 301.584 18.246 301.474 18.5035C301.805 18.4852 302.154 18.5035 302.43 18.5403Z" fill="#3B2417"/>
<path d="M312.834 58.5648C312.834 58.5648 306.566 37.6144 293.477 35.5176C293.477 35.536 294.047 61.9124 312.834 58.5648Z" fill="#B57131"/>
<path d="M294.378 37.0259C294.378 37.0259 295.996 52.0351 303.385 52.219C303.385 52.219 304.672 46.3146 300.573 41.8818C296.474 37.4489 294.378 37.0259 294.378 37.0259Z" fill="#E3BB7E"/>
<path d="M310.555 59.098C310.371 59.098 306.988 59.0612 304.856 56.8907C303.716 55.7136 303.165 54.1501 303.202 52.2372C303.202 52.1268 303.275 52.0532 303.404 52.0532C303.514 52.0532 303.588 52.1452 303.588 52.2556C303.533 54.0765 304.066 55.548 305.132 56.6332C307.154 58.7117 310.518 58.7301 310.555 58.7301C310.665 58.7301 310.738 58.8221 310.738 58.914C310.738 59.006 310.665 59.098 310.555 59.098Z" fill="#512C12"/>
<path d="M327.687 50.582C327.687 50.582 327.411 40.116 333.606 34.3772C339.801 28.6384 343.073 26.1921 341.198 17.7678C341.198 17.7678 340.298 13.2062 342.467 17.1608C344.636 21.1154 346.768 29.411 340.426 35.5176C332.834 42.8567 334.342 52.219 334.342 52.219C334.342 52.219 328.294 55.5667 327.687 50.582Z" fill="#685346"/>
<path d="M341.934 17.0871C341.639 17.1239 341.401 17.2343 341.143 17.3446C340.978 16.3146 340.757 14.0706 342.43 17.0871C342.264 17.0503 342.099 17.0687 341.934 17.0871Z" fill="#3B2417"/>
<path d="M341.897 20.3612C341.805 20.3796 341.731 20.3795 341.639 20.3979C341.603 20.1036 341.566 19.8094 341.529 19.4967C341.768 19.4231 342.026 19.3311 342.283 19.2943C342.485 19.2759 343.073 19.1472 343.441 19.2208C343.57 19.5518 343.68 19.8829 343.79 20.2324C343.202 20.0669 342.522 20.1956 341.897 20.3612Z" fill="#3B2417"/>
<path d="M341.713 21.8326C341.713 21.5935 341.713 21.3728 341.695 21.1153C342.448 20.8578 343.276 20.7842 344.029 21.0601C344.103 21.336 344.176 21.6303 344.25 21.9246C343.533 21.6671 342.412 21.6303 341.713 21.8326Z" fill="#3B2417"/>
<path d="M341.088 25.5116C341.18 25.2725 341.253 25.015 341.327 24.7391C341.823 24.6655 342.283 24.5919 342.834 24.7023C343.459 24.831 344.048 25.015 344.617 25.2909C344.617 25.7323 344.617 26.1738 344.581 26.6336C343.717 25.9162 342.301 25.438 341.088 25.5116Z" fill="#3B2417"/>
<path d="M340.996 27.7003C340.702 27.6083 340.408 27.5531 340.114 27.5164C340.279 27.2405 340.445 26.9829 340.573 26.707C341.86 26.7806 343.551 27.1669 344.415 28.1785C344.342 28.5648 344.25 28.9511 344.14 29.3373C343.423 28.3992 342.209 27.9026 340.996 27.7003Z" fill="#3B2417"/>
<path d="M341.327 29.8706C340.555 29.4291 339.783 29.282 338.974 29.0797C339.195 28.8038 339.415 28.5279 339.617 28.252C340.996 28.4727 342.393 28.8405 343.404 29.7786C343.57 29.9442 343.717 30.1281 343.845 30.312C343.698 30.7535 343.514 31.1949 343.294 31.618C342.798 30.9006 342.117 30.2936 341.327 29.8706Z" fill="#3B2417"/>
<path d="M338.974 33.8804C338 33.1079 336.842 32.7216 335.647 32.5009C335.978 32.1882 336.29 31.8939 336.603 31.5996C337.448 31.6364 338.386 32.0962 339.066 32.4457C339.967 32.9239 340.776 33.5125 341.382 34.3035C341.382 34.3219 341.401 34.3219 341.401 34.3403C341.419 34.377 341.437 34.4138 341.474 34.4322C341.18 34.7817 340.867 35.1312 340.537 35.4623C340.114 34.8185 339.489 34.2851 338.974 33.8804Z" fill="#3B2417"/>
<path d="M333.753 34.267C334.139 33.9175 334.489 33.5865 334.838 33.2554C336.639 33.4761 338.956 34.4878 339.82 36.1984C339.581 36.4375 339.36 36.695 339.158 36.9525C337.981 35.3706 335.647 34.3222 333.753 34.267Z" fill="#3B2417"/>
<path d="M332.136 36.0326C332.375 35.7199 332.632 35.4256 332.889 35.1313C333.68 35.3521 334.525 35.3705 335.316 35.6464C336.603 36.1062 337.577 36.8419 338.349 37.9272C338.073 38.295 337.834 38.6445 337.595 38.994C336.492 37.265 334.213 36.1982 332.136 36.0326Z" fill="#3B2417"/>
<path d="M330.573 38.4054C330.831 37.9088 331.125 37.4305 331.437 36.9707C333.643 37.1546 335.776 38.0743 336.989 39.9873C336.768 40.3551 336.584 40.723 336.401 41.0909C334.728 39.601 332.816 38.3686 330.573 38.4054Z" fill="#3B2417"/>
<path d="M333.643 40.2083C334.434 40.6497 335.445 41.2751 335.959 42.0476C335.775 42.4707 335.61 42.9121 335.463 43.3352C334.617 41.9556 332.761 41.1647 331.235 40.9256C330.959 40.8888 330.206 40.7233 329.525 40.7233C329.691 40.3002 329.875 39.8772 330.058 39.4725C331.18 39.3805 332.485 39.6564 333.643 40.2083Z" fill="#3B2417"/>
<path d="M328.478 44.0889C328.606 43.5187 328.772 42.9301 328.956 42.3415C330.022 42.2128 331.345 42.5071 332.136 42.8198C333.165 43.206 334.434 43.905 334.985 44.9167C334.93 45.1374 334.875 45.3581 334.82 45.5788C333.092 44.3097 330.445 43.997 328.478 44.0889Z" fill="#3B2417"/>
<path d="M328.202 47.9884C329.084 48.0252 329.93 48.1356 330.794 48.3011C332.025 48.5218 333.202 48.8345 334.287 49.4415C334.213 51.1521 334.378 52.2373 334.378 52.2373C334.378 52.2373 328.294 55.5666 327.706 50.6003C327.706 50.6003 327.687 49.5703 327.853 47.9884C327.963 47.97 328.092 47.97 328.202 47.9884Z" fill="#3B2417"/>
<path d="M334.011 48.1907C332.228 47.1055 330.059 46.6088 327.981 46.7744C328.036 46.3697 328.11 45.9467 328.184 45.5052C328.202 45.5052 328.239 45.5052 328.257 45.4868C329.36 45.3949 330.592 45.4133 331.768 45.6524C332.779 45.9467 333.753 46.4433 334.526 47.0871C334.452 47.5285 334.397 47.97 334.36 48.3746C334.25 48.3194 334.121 48.2459 334.011 48.1907Z" fill="#3B2417"/>
<path d="M337.595 30.5882C337.816 30.3674 338.018 30.1467 338.22 29.926C339.967 29.9076 342.099 31.048 342.706 32.7034C342.503 33.0345 342.283 33.3472 342.062 33.6599C341.162 32.0413 339.434 30.8457 337.595 30.5882Z" fill="#3B2417"/>
<path d="M341.566 23.7642C341.621 23.4699 341.658 23.1757 341.676 22.863C342.614 22.6606 343.809 22.4951 344.47 23.1573C344.507 23.4332 344.544 23.7091 344.581 24.0034C344.544 23.985 344.489 23.9666 344.452 23.9482C343.551 23.5251 342.54 23.5803 341.566 23.7642Z" fill="#3B2417"/>
<path d="M342.191 18.5403C341.97 18.5771 341.658 18.6139 341.401 18.6875C341.345 18.43 341.309 18.1725 341.235 17.8966C341.419 17.823 341.603 17.7678 341.805 17.7494C342.136 17.731 342.467 17.7494 342.816 17.7862C342.926 18.0069 343.037 18.246 343.147 18.5035C342.816 18.4852 342.467 18.5035 342.191 18.5403Z" fill="#3B2417"/>
<path d="M331.786 58.5648C331.786 58.5648 338.055 37.6144 351.143 35.5176C351.143 35.536 350.573 61.9124 331.786 58.5648Z" fill="#B57131"/>
<path d="M350.243 37.0259C350.243 37.0259 348.625 52.0351 341.235 52.219C341.235 52.219 339.948 46.3146 344.048 41.8818C348.147 37.4489 350.243 37.0259 350.243 37.0259Z" fill="#E3BB7E"/>
<path d="M334.066 59.098C333.956 59.098 333.864 59.006 333.864 58.914C333.864 58.8037 333.956 58.7301 334.047 58.7301C334.084 58.7301 337.448 58.7117 339.47 56.6332C340.537 55.548 341.051 54.0581 341.014 52.2556C341.014 52.1452 341.088 52.0532 341.198 52.0532C341.309 52.0532 341.382 52.1268 341.4 52.2372C341.456 54.1501 340.904 55.732 339.746 56.8907C337.632 59.0612 334.25 59.098 334.066 59.098Z" fill="#512C12"/>
<path d="M288.974 82.0168C288.974 82.0168 291.326 78.5956 294.452 78.2645C297.889 77.9151 300.959 81.7041 297.521 86.8544C295.371 90.0732 288.293 96.3454 286.657 103.022L283.771 101.073L280.518 101.33C280.536 101.349 283.238 88.4362 288.974 82.0168Z" fill="#B36F31"/>
<path d="M287.632 100.282L281.29 98.3135C280.775 100.153 280.536 101.348 280.536 101.348L283.79 101.091L286.676 103.041C286.878 102.103 287.209 101.183 287.632 100.282Z" fill="#3B2417"/>
<path d="M355.776 82.0168C355.776 82.0168 353.423 78.5956 350.298 78.2645C346.86 77.9151 343.79 81.7041 347.228 86.8544C349.378 90.0732 356.456 96.3454 358.092 103.022L360.978 101.073L364.232 101.33C364.213 101.349 361.511 88.4362 355.776 82.0168Z" fill="#B36F31"/>
<path d="M357.118 100.282L363.46 98.3135C363.974 100.153 364.213 101.348 364.213 101.348L360.959 101.091L358.073 103.041C357.871 102.103 357.522 101.183 357.118 100.282Z" fill="#3B2417"/>
<path d="M356.07 96.6946C356.07 118.62 340.959 130.852 322.319 130.852C303.68 130.852 288.569 118.62 288.569 96.6946C288.569 74.7694 303.68 45.7075 322.319 45.7075C340.959 45.7075 356.07 74.751 356.07 96.6946Z" fill="#C78036"/>
<path d="M319.139 71.8636C319.139 71.8636 320.61 61.6183 318.33 56.6521C316.033 51.6674 311.345 49.1475 311.345 49.1475C311.345 49.1475 308.073 51.0604 308.386 52.6239C308.698 54.1873 314.305 58.657 315.169 65.7385C316.033 72.82 315.886 71.4221 315.886 71.4221L319.139 71.8636Z" fill="#F2EABD"/>
<path d="M313.974 72.5257C313.974 72.5257 320.114 61.6551 313.974 55.5668C309.746 51.3731 308.367 52.6238 308.367 52.6238C308.367 52.6238 309.415 56.8727 309.029 61.3608C308.643 65.8304 313.955 64.874 313.955 64.874V72.5257H313.974Z" fill="#E3BB7E"/>
<path d="M325.5 71.8636C325.5 71.8636 324.029 61.6183 326.309 56.6521C328.606 51.6674 333.294 49.1475 333.294 49.1475C333.294 49.1475 336.566 51.0604 336.254 52.6239C335.941 54.1873 330.334 58.657 329.47 65.7385C328.606 72.82 328.753 71.4221 328.753 71.4221L325.5 71.8636Z" fill="#F2EABD"/>
<path d="M330.647 72.5257C330.647 72.5257 324.507 61.6551 330.647 55.5668C334.875 51.3731 336.253 52.6238 336.253 52.6238C336.253 52.6238 335.206 56.8727 335.592 61.3608C335.978 65.8304 330.665 64.874 330.665 64.874V72.5257H330.647Z" fill="#E3BB7E"/>
<path d="M315.15 60.846C315.15 62.2071 314.047 63.3107 312.687 63.3107C311.327 63.3107 310.242 62.2071 310.242 60.846C310.242 59.4849 311.345 58.3996 312.687 58.3996C314.047 58.3812 315.15 59.4849 315.15 60.846Z" fill="#1D120C"/>
<path d="M311.749 60.8458C312.176 60.8458 312.522 60.5 312.522 60.0733C312.522 59.6467 312.176 59.3008 311.749 59.3008C311.323 59.3008 310.977 59.6467 310.977 60.0733C310.977 60.5 311.323 60.8458 311.749 60.8458Z" fill="white"/>
<path d="M311.658 61.6919C311.658 61.8758 311.511 62.023 311.327 62.023C311.143 62.023 310.996 61.8758 310.996 61.6919C310.996 61.508 311.143 61.3608 311.327 61.3608C311.511 61.3608 311.658 61.508 311.658 61.6919Z" fill="white"/>
<path d="M334.378 60.846C334.378 62.2071 333.276 63.3107 331.934 63.3107C330.573 63.3107 329.47 62.2071 329.47 60.846C329.47 59.4849 330.573 58.3996 331.934 58.3996C333.276 58.3812 334.378 59.4849 334.378 60.846Z" fill="#1D120C"/>
<path d="M331.75 60.0733C331.75 60.4964 331.401 60.8458 330.978 60.8458C330.555 60.8458 330.206 60.4964 330.206 60.0733C330.206 59.6503 330.555 59.3008 330.978 59.3008C331.419 59.3192 331.75 59.6503 331.75 60.0733Z" fill="white"/>
<path d="M330.886 61.6919C330.886 61.8758 330.739 62.023 330.555 62.023C330.371 62.023 330.224 61.8758 330.224 61.6919C330.224 61.508 330.371 61.3608 330.555 61.3608C330.739 61.3608 330.886 61.508 330.886 61.6919Z" fill="white"/>
<path d="M330.647 73.666C330.647 79.1841 326.897 81.9983 322.264 81.9983C317.632 81.9983 313.882 79.1841 313.882 73.666C313.882 68.148 317.632 60.8457 322.264 60.8457C326.897 60.8457 330.647 68.1296 330.647 73.666Z" fill="#F2EABD"/>
<path d="M319.139 81.2259C317.54 81.2259 316.161 79.6992 315.867 77.584C315.849 77.492 315.922 77.4184 315.996 77.4C316.088 77.3816 316.161 77.4552 316.18 77.5288C316.455 79.4785 317.687 80.8948 319.139 80.8948C320.573 80.8948 321.823 79.4785 322.099 77.5288C322.117 77.4368 322.191 77.3816 322.283 77.4C322.375 77.4184 322.43 77.492 322.411 77.584C322.099 79.6992 320.72 81.2259 319.139 81.2259Z" fill="#3B2417"/>
<path d="M325.389 81.2259C323.79 81.2259 322.411 79.6992 322.117 77.584C322.099 77.492 322.172 77.4184 322.246 77.4C322.338 77.3816 322.411 77.4552 322.43 77.5288C322.705 79.4785 323.937 80.8948 325.389 80.8948C326.842 80.8948 328.073 79.4785 328.349 77.5288C328.367 77.4368 328.441 77.3816 328.533 77.4C328.625 77.4184 328.68 77.492 328.661 77.584C328.367 79.6992 326.989 81.2259 325.389 81.2259Z" fill="#3B2417"/>
<path d="M327.614 76.6641C327.614 77.8045 325.224 78.7425 322.264 78.7425C319.305 78.7425 316.915 77.8045 316.915 76.6641V75.7996C316.915 74.6592 319.305 73.1509 322.264 73.1509C325.224 73.1509 327.614 74.6408 327.614 75.7996V76.6641Z" fill="#3B2417"/>
<path d="M350.242 109.773C348.79 104.677 341.364 84.3894 321.345 84.7388C301.327 85.0883 294.378 110.913 294.378 110.913C290.738 107.197 288.716 100.668 288.716 100.668L288.569 97.9638C289.139 119.098 304.029 130.852 322.301 130.852C340.941 130.852 356.051 118.62 356.051 96.6947C356.051 95.7566 356.015 94.8001 355.959 93.8437C355.243 105.321 350.242 109.773 350.242 109.773Z" fill="#3B2417"/>
<path d="M317.448 138.54L320.573 110.913H302.099L308.827 138.54H317.448Z" fill="#B36F31"/>
<path d="M317.448 138.54H308.827L309.709 141.796H312.669L313.147 140.876L313.661 141.796H317.136L317.448 138.54Z" fill="#3B2417"/>
<path d="M324.176 110.913L327.283 138.54H335.922L342.65 110.913H324.176Z" fill="#B36F31"/>
<path d="M327.283 138.54H335.923L335.04 141.796H332.081L331.603 140.876L331.088 141.796H327.614L327.283 138.54Z" fill="#3B2417"/>
<path d="M346.75 112.348C346.75 124.23 335.812 130.852 322.319 130.852C308.827 130.852 297.889 124.23 297.889 112.348C297.889 100.465 308.827 84.7388 322.319 84.7388C335.812 84.7388 346.75 100.465 346.75 112.348Z" fill="#F5E7BD"/>
<path d="M20.8092 48.5221V43.004C20.8092 42.4522 20.368 42.0107 19.8165 42.0107C19.265 42.0107 18.8239 42.4522 18.8239 43.004V48.191C19.0812 49.0371 20.0555 48.9267 20.8092 48.5221Z" fill="#3A3D4C"/>
<path d="M18.4378 49.0187C18.401 48.7796 18.1253 47.5472 17.0591 47.1794C16.3238 46.9219 15.5333 47.1794 14.6877 47.9335C14.0444 48.5221 13.4745 49.1475 12.9782 49.8465C12.5186 50.4902 12.0407 51.3547 12.4267 52.1641C12.6657 52.6607 13.2723 52.7159 13.6767 52.4032C14.1363 52.0353 14.2649 51.3731 14.5958 50.8949C14.9819 50.3247 15.4782 49.8281 15.9929 49.3682C16.1951 49.1843 16.3422 49.0923 16.4341 49.0555C16.4708 49.1475 16.526 49.2762 16.5444 49.3682C16.6363 49.8832 17.1326 50.2327 17.6657 50.1407C18.1804 50.0304 18.5297 49.5338 18.4378 49.0187Z" fill="#4D4F5E"/>
<path d="M20.1658 48.9082C20.0739 48.6875 19.5224 47.5471 18.401 47.4183C17.629 47.3447 16.9121 47.7678 16.2687 48.7059C14.8165 50.8211 14.7245 51.9983 14.7245 52.2007C14.7245 52.2007 14.651 52.9916 15.4231 53.1019C16.0848 53.1939 16.4157 52.7893 16.6547 52.2191C16.6547 52.2191 16.6547 52.2374 16.6547 52.2558C16.8201 51.3729 17.3532 50.5268 17.8496 49.8095C18.015 49.5704 18.1253 49.46 18.1988 49.4048C18.2724 49.4784 18.3459 49.5888 18.3827 49.6807C18.5849 50.159 19.1547 50.3981 19.6511 50.1774C20.1474 49.975 20.368 49.4048 20.1658 48.9082Z" fill="#4D4F5E"/>
<path d="M22.151 48.9267C22.0223 48.7244 21.287 47.6759 20.1657 47.7679C19.3936 47.8231 18.7503 48.3749 18.2907 49.405C17.298 51.5938 17.3348 52.7526 17.3716 53.0653C17.3716 53.0653 17.3348 53.709 17.9966 53.8746C18.6767 54.0585 19.3569 53.6355 19.2833 52.6422C19.3017 52.3111 19.4304 51.5202 20.037 50.1959C20.1473 49.9384 20.2576 49.8096 20.3128 49.736C20.3863 49.7912 20.4782 49.8832 20.5334 49.9751C20.8275 50.4166 21.4157 50.5454 21.8569 50.2511C22.3165 49.9568 22.4451 49.3682 22.151 48.9267Z" fill="#4D4F5E"/>
<path d="M25.9011 48.5221V43.004C25.9011 42.4522 26.3423 42.0107 26.8938 42.0107C27.4453 42.0107 27.8864 42.4522 27.8864 43.004V48.191C27.6291 49.0371 26.6548 48.9267 25.9011 48.5221Z" fill="#3A3D4C"/>
<path d="M28.2725 49.0187C28.3093 48.7796 28.585 47.5472 29.6512 47.1794C30.3865 46.9219 31.1953 47.1794 32.0225 47.9335C32.6659 48.5221 33.2358 49.1475 33.7321 49.8465C34.1917 50.4902 34.6696 51.3547 34.2836 52.1641C34.0446 52.6607 33.438 52.7159 33.0336 52.4032C32.574 52.0353 32.4453 51.3731 32.1144 50.8949C31.7284 50.3247 31.2321 49.8281 30.7174 49.3682C30.5152 49.1843 30.3681 49.0923 30.2762 49.0555C30.2394 49.1475 30.1843 49.2762 30.1659 49.3682C30.074 49.8832 29.5777 50.2327 29.0446 50.1407C28.5299 50.0304 28.1806 49.5338 28.2725 49.0187Z" fill="#4D4F5E"/>
<path d="M26.5445 48.9082C26.6364 48.6875 27.1879 47.5471 28.3093 47.4183C29.0813 47.3447 29.7982 47.7678 30.4416 48.7059C31.8938 50.8211 31.9674 51.9983 31.9858 52.2007C31.9858 52.2007 32.0593 52.9916 31.2872 53.1019C30.6255 53.1939 30.2946 52.7893 30.0556 52.2191C30.0556 52.2191 30.0556 52.2374 30.0556 52.2558C29.8901 51.3729 29.3571 50.5268 28.8607 49.8095C28.6953 49.5704 28.585 49.46 28.5115 49.4048C28.4563 49.4784 28.3644 49.5888 28.3276 49.6807C28.1254 50.159 27.5556 50.3981 27.0592 50.1774C26.5629 49.975 26.3423 49.4048 26.5445 48.9082Z" fill="#4D4F5E"/>
<path d="M24.5776 48.9267C24.7063 48.7244 25.4416 47.6759 26.5813 47.7679C27.3534 47.8231 27.9967 48.3749 28.4563 49.405C29.449 51.5938 29.4122 52.7526 29.3754 53.0653C29.3754 53.0653 29.4122 53.709 28.7504 53.8746C28.0703 54.0585 27.3901 53.6355 27.4637 52.6422C27.4453 52.3111 27.3166 51.5202 26.71 50.1959C26.5997 49.9384 26.4894 49.8096 26.4342 49.736C26.3607 49.7912 26.2688 49.8832 26.2136 49.9751C25.9195 50.4166 25.3313 50.5454 24.8901 50.2511C24.4122 49.9568 24.2835 49.3682 24.5776 48.9267Z" fill="#4D4F5E"/>
<path d="M26.0481 32.7956C26.0481 32.7956 37.3533 53.6172 40.8092 50.3063C43.0703 48.1175 23.0333 22.017 26.0481 32.7956Z" fill="#992125"/>
<path d="M26.1217 35.6097C26.1217 35.6097 42.5373 52.6973 44.9821 48.5956C46.5998 45.8917 20.3495 26.0082 26.1217 35.6097Z" fill="#C62126"/>
<path d="M26.6364 37.486C26.6364 37.486 46.177 50.8949 47.7395 46.3701C48.7689 43.3903 19.0444 29.2457 26.6364 37.486Z" fill="#E62526"/>
<path d="M42.3534 27.5902C42.3534 39.9323 33.8423 46.8115 23.3642 46.8115C12.8678 46.8115 4.35669 39.9323 4.35669 27.5902C4.35669 15.2481 12.6288 0.367676 23.1069 0.367676C33.6033 0.367676 42.3534 15.2481 42.3534 27.5902Z" fill="#E62526"/>
<path d="M35.4232 35.8122C35.4232 42.8754 29.89 46.8116 23.0517 46.8116C16.2134 46.8116 10.6803 42.8754 10.6803 35.8122C10.6803 28.7491 16.2134 19.3867 23.0517 19.3867C29.89 19.4051 35.4232 28.7491 35.4232 35.8122Z" fill="#EDBDAB"/>
<path d="M9.70608 23.3779C9.44872 21.98 8.97078 20.2694 7.94136 19.221C5.34942 16.6275 2.97807 20.1958 2.02218 22.0168C0.165544 25.5852 -0.183725 30.6986 1.63615 34.6348C2.35307 36.1983 5.49648 40.4288 7.90459 41.1462C7.95974 41.1646 8.18033 35.0947 8.01489 34.175C8.21709 34.3957 8.60313 35.9592 8.98916 35.996C9.06269 35.996 9.11784 31.7654 8.98916 31.4343C9.13622 31.5815 9.37519 33.1817 9.39358 33.1633C9.77961 32.7587 10.2024 25.9898 9.70608 23.3779Z" fill="#316F9E"/>
<path d="M9.945 23.5622C9.66926 22.1091 9.19131 20.3249 8.10674 19.2397C5.42289 16.5358 2.94125 20.2513 1.96698 22.1458C0.0368125 25.8429 -0.330838 31.1771 1.56256 35.2605C1.74639 35.6651 2.07727 36.2169 2.51845 36.8607C2.73904 37.1366 2.97802 37.3941 3.25376 37.6149C2.83096 35.9962 2.51845 34.3408 2.75743 32.667C2.77581 32.575 4.59568 36.7504 6.02952 38.461C6.21334 37.0631 5.95599 35.6467 5.93761 34.2488C5.93761 34.1385 7.53689 36.9527 8.2538 38.3322C8.29057 36.7688 8.29057 35.1869 8.21704 34.7638C8.43763 34.9846 8.84205 36.8423 9.17293 37.339C9.2097 37.3941 9.37514 32.2807 9.22808 31.9312C9.35676 32.0968 9.59573 33.7522 9.61411 33.7154C10.0369 33.2924 10.4597 26.266 9.945 23.5622Z" fill="#125993"/>
<path d="M10.0002 23.4516C9.70605 21.8882 9.17296 19.9568 8.01486 18.7796C5.11042 15.8551 2.42657 19.8649 1.37877 21.9249C0.110372 24.3529 -0.183748 27.535 0.147137 30.2021C0.183902 30.5148 1.41553 26.3762 2.8126 24.3713C2.83099 24.3345 3.16187 30.7539 3.86041 32.5564C4.48541 30.4044 5.05527 26.8728 5.60675 25.7692C5.6619 25.6588 5.53322 31.4896 7.05897 34.1015C7.81265 31.0114 8.08839 30.8826 8.38251 28.6754C8.40089 28.5466 9.1362 32.3173 9.74282 34.3222C10.1289 33.2738 10.5333 26.2474 10.0002 23.4516Z" fill="#F9B321"/>
<path d="M37.1328 23.3779C37.4085 21.98 37.8681 20.2694 38.8975 19.221C41.4894 16.6275 43.8608 20.1958 44.8167 22.0168C46.6733 25.5852 47.0226 30.6986 45.2027 34.6348C44.4858 36.1983 41.3424 40.4288 38.9343 41.1462C38.8791 41.1646 38.6585 35.0947 38.824 34.175C38.6218 34.3957 38.2357 35.9592 37.8497 35.996C37.7762 35.996 37.721 31.7654 37.8497 31.4343C37.7026 31.5815 37.4637 33.1817 37.4453 33.1633C37.0409 32.7587 36.6365 25.9898 37.1328 23.3779Z" fill="#316F9E"/>
<path d="M36.8938 23.5622C37.1695 22.1091 37.6475 20.3249 38.7321 19.2397C41.4159 16.5358 43.8976 20.2513 44.8718 22.1458C46.802 25.8429 47.1696 31.1771 45.2762 35.2605C45.0924 35.6651 44.7615 36.2169 44.3204 36.8607C44.0998 37.1366 43.8608 37.3941 43.585 37.6149C44.0078 35.9962 44.3203 34.3408 44.0814 32.667C44.063 32.575 42.2431 36.7504 40.8093 38.461C40.6071 37.0631 40.8828 35.6467 40.9012 34.2488C40.9012 34.1385 39.3019 36.9527 38.585 38.3322C38.5482 36.7688 38.5482 35.1869 38.6218 34.7638C38.4012 34.9846 37.9968 36.8423 37.6659 37.339C37.6291 37.3941 37.482 32.2807 37.6107 31.9312C37.4453 32.0784 37.2063 33.7522 37.1879 33.7154C36.8019 33.2924 36.3607 26.266 36.8938 23.5622Z" fill="#125993"/>
<path d="M36.8387 23.4516C37.1328 21.8882 37.6659 19.9568 38.824 18.7796C41.7284 15.8551 44.4123 19.8649 45.4785 21.9249C46.7468 24.3529 47.041 27.535 46.7101 30.2021C46.6733 30.5148 45.4417 26.3762 44.0446 24.3713C44.0262 24.3345 43.6953 30.7539 42.9968 32.5564C42.3718 30.4044 41.8019 26.8728 41.2505 25.7692C41.1953 25.6588 41.324 31.4896 39.7982 34.1015C39.0446 31.0114 38.7688 30.8826 38.4747 28.6754C38.4563 28.5466 37.721 32.3173 37.1144 34.3222C36.6916 33.2738 36.3056 26.2474 36.8387 23.4516Z" fill="#F9B321"/>
<path d="M30.7172 17.7498L33.0886 18.2833C32.9783 17.1061 30.0003 14.1815 30.0003 14.1815C30.0003 14.1815 30.9378 13.6481 32.3349 8.55303C33.1621 5.51809 30.368 4.23054 27.9782 3.69712C27.6474 3.73391 27.3349 3.7891 27.004 3.91785C26.0113 4.26733 23.9709 5.26058 24.0444 5.15022C24.2834 4.78235 24.5223 4.43287 24.8165 4.12018C23.4745 4.3409 21.0297 5.84918 21.0297 5.75721C20.9745 5.2054 21.2502 4.58003 21.6547 4.13858C20.8642 4.41448 19.2833 5.35255 19.3201 5.2238C19.5407 4.46966 20.0186 3.89946 20.6069 3.40283C18.2355 3.66034 13.3274 4.69038 14.3936 8.57143C15.7906 13.6481 16.7281 14.1999 16.7281 14.1999C16.7281 14.1999 13.7502 17.1429 13.6399 18.3017L15.9928 17.7498C15.9928 17.7498 13.5112 19.9939 13.6215 20.9687L19.5223 18.2833L22.1694 18.927L22.0591 19.534L23.3642 19.2213L24.651 19.534L24.5407 18.927L27.1878 18.2833L33.0886 20.9687C33.1989 19.9939 30.7172 17.7498 30.7172 17.7498Z" fill="#FFFFF1"/>
<path d="M19.6511 7.17347C19.6511 7.946 19.0261 8.55299 18.2724 8.55299C17.5187 8.55299 16.8937 7.9276 16.8937 7.17347C16.8937 6.40093 17.5187 5.79395 18.2724 5.79395C19.0261 5.79395 19.6511 6.41933 19.6511 7.17347Z" fill="#4D292C"/>
<path d="M18.1804 6.75052C18.1804 6.98964 17.9966 7.17357 17.7576 7.17357C17.5187 7.17357 17.3348 6.98964 17.3348 6.75052C17.3348 6.51141 17.5187 6.30908 17.7576 6.30908C17.9782 6.32748 18.1804 6.51141 18.1804 6.75052Z" fill="white"/>
<path d="M17.6842 7.65171C17.6842 7.76207 17.5923 7.83564 17.5004 7.83564C17.3901 7.83564 17.3165 7.76207 17.3165 7.65171C17.3165 7.54135 17.4084 7.46777 17.5004 7.46777C17.6106 7.46777 17.6842 7.55974 17.6842 7.65171Z" fill="white"/>
<path d="M29.5225 7.17347C29.5225 7.946 28.8975 8.55299 28.1438 8.55299C27.3901 8.55299 26.7651 7.9276 26.7651 7.17347C26.7651 6.40093 27.3901 5.79395 28.1438 5.79395C28.8975 5.79395 29.5225 6.41933 29.5225 7.17347Z" fill="#4D292C"/>
<path d="M28.0336 6.75052C28.0336 6.98964 27.8498 7.17357 27.6108 7.17357C27.3718 7.17357 27.188 6.98964 27.188 6.75052C27.188 6.51141 27.3718 6.30908 27.6108 6.30908C27.8498 6.30908 28.0336 6.51141 28.0336 6.75052Z" fill="white"/>
<path d="M27.5556 7.65171C27.5556 7.76207 27.4637 7.83564 27.3718 7.83564C27.2615 7.83564 27.188 7.76207 27.188 7.65171C27.188 7.54135 27.2799 7.46777 27.3718 7.46777C27.4637 7.46777 27.5556 7.55974 27.5556 7.65171Z" fill="white"/>
<path d="M28.8055 14.5675L29.9452 14.2732C29.9452 14.2732 30.1475 20.6558 26.4709 20.527C22.7944 20.3799 18.2723 20.527 18.2723 20.527C18.2723 20.527 22.1143 12.1211 28.8055 14.5675Z" fill="#FBAB24"/>
<path d="M27.0408 8.0378C25.754 7.00776 24.1547 6.52952 22.5554 6.84221C22.5554 6.84221 15.184 8.16656 14.8348 12.9305C14.4855 17.6944 17.1326 22.8446 18.0517 24.1874C18.0517 24.1874 18.6399 19.7177 22.2613 18.0991C25.901 16.4805 29.9084 19.7177 29.8533 14.0341C29.8349 11.551 28.6768 9.34374 27.0408 8.0378Z" fill="#FDD428"/>
<defs>
<linearGradient id="paint0_linear_175_11424" x1="156.918" y1="88.8562" x2="159.244" y2="88.8562" gradientUnits="userSpaceOnUse">
<stop stop-color="#383537"/>
<stop offset="0.0449" stop-color="#545152"/>
<stop offset="0.1083" stop-color="#747273"/>
<stop offset="0.1691" stop-color="#8C8A8A"/>
<stop offset="0.2254" stop-color="#9A9898"/>
<stop offset="0.2732" stop-color="#9F9D9D"/>
<stop offset="0.2968" stop-color="#989696"/>
<stop offset="0.4334" stop-color="#767374"/>
<stop offset="0.5721" stop-color="#5B5859"/>
<stop offset="0.7119" stop-color="#474546"/>
<stop offset="0.8536" stop-color="#3C393B"/>
<stop offset="1" stop-color="#383537"/>
</linearGradient>
<linearGradient id="paint1_linear_175_11424" x1="156.406" y1="39.1916" x2="159.732" y2="39.1916" gradientUnits="userSpaceOnUse">
<stop stop-color="#383537"/>
<stop offset="0.0449" stop-color="#545152"/>
<stop offset="0.1083" stop-color="#747273"/>
<stop offset="0.1691" stop-color="#8C8A8A"/>
<stop offset="0.2254" stop-color="#9A9898"/>
<stop offset="0.2732" stop-color="#9F9D9D"/>
<stop offset="0.2968" stop-color="#989696"/>
<stop offset="0.4334" stop-color="#767374"/>
<stop offset="0.5721" stop-color="#5B5859"/>
<stop offset="0.7119" stop-color="#474546"/>
<stop offset="0.8536" stop-color="#3C393B"/>
<stop offset="1" stop-color="#383537"/>
</linearGradient>
<radialGradient id="paint2_radial_175_11424" cx="0" cy="0" r="1" gradientUnits="userSpaceOnUse" gradientTransform="translate(158.109 34.5808) scale(1.99898 1.95509)">
<stop stop-color="#9F9D9D"/>
<stop offset="0.1421" stop-color="#8C8A8B"/>
<stop offset="0.5298" stop-color="#5F5C5D"/>
<stop offset="0.8284" stop-color="#434041"/>
<stop offset="1" stop-color="#383537"/>
</radialGradient>
<radialGradient id="paint3_radial_175_11424" cx="0" cy="0" r="1" gradientUnits="userSpaceOnUse" gradientTransform="translate(158.109 34.5808) scale(1.99898 1.95509)">
<stop stop-color="#9F9D9D"/>
<stop offset="0.1421" stop-color="#8C8A8B"/>
<stop offset="0.5298" stop-color="#5F5C5D"/>
<stop offset="0.8284" stop-color="#434041"/>
<stop offset="1" stop-color="#383537"/>
</radialGradient>
<radialGradient id="paint4_radial_175_11424" cx="0" cy="0" r="1" gradientUnits="userSpaceOnUse" gradientTransform="translate(157.786 34.3308) scale(1.48635 1.45371)">
<stop stop-color="#878585"/>
<stop offset="0.0118" stop-color="#838282"/>
<stop offset="0.1821" stop-color="#555353"/>
<stop offset="0.3447" stop-color="#302F2F"/>
<stop offset="0.4954" stop-color="#161515"/>
<stop offset="0.6299" stop-color="#060606"/>
<stop offset="0.7346"/>
</radialGradient>
<linearGradient id="paint5_linear_175_11424" x1="158.109" y1="41.3523" x2="158.109" y2="44.2585" gradientUnits="userSpaceOnUse">
<stop stop-color="#505050"/>
<stop offset="0.0277" stop-color="#626262"/>
<stop offset="0.107" stop-color="#929292"/>
<stop offset="0.1861" stop-color="#B9B9B9"/>
<stop offset="0.2637" stop-color="#D8D8D8"/>
<stop offset="0.3394" stop-color="#EDEDED"/>
<stop offset="0.4121" stop-color="#FBFBFB"/>
<stop offset="0.4788" stop-color="white"/>
<stop offset="0.5497" stop-color="#FAFAFA"/>
<stop offset="0.6291" stop-color="#EDEDED"/>
<stop offset="0.7125" stop-color="#D6D6D6"/>
<stop offset="0.7989" stop-color="#B7B7B7"/>
<stop offset="0.8873" stop-color="#8F8F8F"/>
<stop offset="0.9764" stop-color="#5E5E5E"/>
<stop offset="1" stop-color="#505050"/>
</linearGradient>
<linearGradient id="paint6_linear_175_11424" x1="158.116" y1="112.375" x2="158.116" y2="115.698" gradientUnits="userSpaceOnUse">
<stop stop-color="#505050"/>
<stop offset="0.2588" stop-color="#8C8C8C"/>
<stop offset="0.5025" stop-color="#BEBEBE"/>
<stop offset="0.7151" stop-color="#E1E1E1"/>
<stop offset="0.8881" stop-color="#F7F7F7"/>
<stop offset="1" stop-color="white"/>
</linearGradient>
<linearGradient id="paint7_linear_175_11424" x1="158.109" y1="37.0478" x2="158.109" y2="36.2229" gradientUnits="userSpaceOnUse">
<stop stop-color="#505050"/>
<stop offset="0.2588" stop-color="#8C8C8C"/>
<stop offset="0.5025" stop-color="#BEBEBE"/>
<stop offset="0.7151" stop-color="#E1E1E1"/>
<stop offset="0.8881" stop-color="#F7F7F7"/>
<stop offset="1" stop-color="white"/>
</linearGradient>
<linearGradient id="paint8_linear_175_11424" x1="156.897" y1="39.1916" x2="158.079" y2="39.1916" gradientUnits="userSpaceOnUse">
<stop offset="0.1147"/>
<stop offset="0.208" stop-color="#242424"/>
<stop offset="0.3287" stop-color="#4C4C4C"/>
<stop offset="0.4244" stop-color="#656565"/>
<stop offset="0.4826" stop-color="#6E6E6E"/>
<stop offset="0.4886" stop-color="#6B6B6B"/>
<stop offset="0.6075" stop-color="#3D3D3D"/>
<stop offset="0.7131" stop-color="#1C1C1C"/>
<stop offset="0.8005" stop-color="#070707"/>
<stop offset="0.8588"/>
</linearGradient>
</defs>
</svg>
