<svg width="342" height="145" viewBox="0 0 342 145" fill="none" xmlns="http://www.w3.org/2000/svg">
<path d="M79.9457 144.224C79.9457 144.224 80.9567 144.224 82.8317 144.206C84.7068 144.187 87.4641 144.169 90.9752 144.132C97.9973 144.077 108.016 144.003 120.056 143.948C126.067 143.911 132.575 143.875 139.468 143.856C146.362 143.838 153.623 143.801 161.141 143.783C168.66 143.764 176.417 143.746 184.322 143.746C192.226 143.746 200.241 143.728 208.256 143.728C216.271 143.728 224.285 143.746 232.19 143.746C240.076 143.746 247.852 143.783 255.37 143.783C262.889 143.801 270.168 143.82 277.043 143.856C283.937 143.875 290.444 143.911 296.474 143.948C308.496 144.003 318.533 144.077 325.536 144.132C329.047 144.169 331.805 144.187 333.68 144.206C335.555 144.224 336.566 144.224 336.566 144.224C336.566 144.224 335.555 144.224 333.68 144.243C331.786 144.261 329.047 144.279 325.536 144.316C318.514 144.371 308.496 144.445 296.474 144.5C290.462 144.537 283.937 144.574 277.043 144.592C270.15 144.61 262.889 144.647 255.37 144.666C247.852 144.684 240.094 144.702 232.19 144.702C224.285 144.702 216.271 144.721 208.256 144.721C200.241 144.721 192.226 144.702 184.322 144.702C176.436 144.702 168.66 144.666 161.141 144.666C153.623 144.647 146.343 144.629 139.468 144.592C132.575 144.574 126.067 144.537 120.056 144.5C108.016 144.445 97.9973 144.371 90.9752 144.316C87.4641 144.279 84.7068 144.261 82.8317 144.243C80.9567 144.243 79.9457 144.224 79.9457 144.224Z" fill="#989898"/>
<path d="M210.223 38.5898H207.925V144.243H210.223V38.5898Z" fill="url(#paint0_linear_175_10931)"/>
<path d="M210.535 43.8869C209.855 43.8869 207.649 43.8869 207.594 43.8869C207.539 43.8869 207.429 43.8685 207.429 43.6846C207.429 42.8569 207.429 39.8404 207.429 39.7668C207.429 39.6932 207.447 39.6196 207.594 39.6196C207.723 39.6196 209.965 39.6196 210.554 39.6196C210.719 39.6196 210.719 39.7116 210.719 39.8036C210.719 39.8771 210.719 42.8385 210.719 43.6662C210.719 43.795 210.701 43.8869 210.535 43.8869Z" fill="url(#paint1_linear_175_10931)"/>
<path d="M211.087 37.1365C211.087 38.2218 210.186 39.0863 209.083 39.0863C207.98 39.0863 207.079 38.2034 207.079 37.1365C207.079 36.0513 207.98 35.1868 209.083 35.1868C210.186 35.1684 211.087 36.0513 211.087 37.1365Z" fill="url(#paint2_radial_175_10931)"/>
<path opacity="0.3" d="M209.083 35.1685C209.046 35.1685 208.991 35.1685 208.954 35.1685C209.874 35.2236 210.59 35.9778 210.59 36.8791C210.59 37.8171 209.8 38.5897 208.844 38.5897C207.925 38.5897 207.171 37.8907 207.098 36.9894C207.098 37.0262 207.098 37.063 207.098 37.1182C207.098 38.2034 207.999 39.0679 209.101 39.0679C210.204 39.0679 211.105 38.185 211.105 37.1182C211.087 36.0513 210.186 35.1685 209.083 35.1685Z" fill="url(#paint3_radial_175_10931)"/>
<path d="M210.296 36.879C210.296 37.7068 209.616 38.3689 208.771 38.3689C207.925 38.3689 207.245 37.7068 207.245 36.879C207.245 36.0513 207.925 35.3892 208.771 35.3892C209.616 35.3892 210.296 36.0697 210.296 36.879Z" fill="url(#paint4_radial_175_10931)"/>
<path d="M210.223 43.8872H207.925V46.7934H210.223V43.8872Z" fill="url(#paint5_linear_175_10931)"/>
<path d="M210.241 114.886H207.943V118.988H210.241V114.886Z" fill="url(#paint6_linear_175_10931)"/>
<path d="M210.223 38.7734H207.925V39.6012H210.223V38.7734Z" fill="url(#paint7_linear_175_10931)"/>
<path opacity="0.8" d="M209.083 39.6196H207.833V43.8869H209.083V39.6196Z" fill="url(#paint8_linear_175_10931)"/>
<path d="M78.2545 110.159C78.2545 108.724 78.2545 55.3279 78.2545 53.0103C78.2545 50.38 79.1001 49.3315 82.5009 49.3315C85.4972 49.3315 334.378 49.3315 336.235 49.3315C338.092 49.3315 339.856 49.681 339.856 53.0654C339.856 56.4499 339.856 107.106 339.856 110.729C339.856 114.353 336.768 114.629 335.224 114.629C333.68 114.629 85.5156 114.629 82.1332 114.629C78.7508 114.629 78.2545 111.594 78.2545 110.159Z" fill="#F7A5BB"/>
<path opacity="0.5" d="M339.856 110.729C339.856 107.106 339.856 56.4499 339.856 53.0654C339.856 49.681 338.092 49.3315 336.235 49.3315C334.378 49.3315 85.4972 49.3315 82.5009 49.3315C79.1001 49.3315 78.2545 50.3984 78.2545 53.0103C78.2545 55.3279 78.2545 108.724 78.2545 110.159C78.2545 111.594 78.7692 114.629 82.1332 114.629C85.5156 114.629 333.68 114.629 335.224 114.629C336.768 114.629 339.856 114.353 339.856 110.729ZM82.3722 113.948C79.0634 113.948 78.567 110.932 78.567 109.515C78.567 108.099 78.567 55.5486 78.567 53.2494C78.567 50.6375 79.4126 49.5891 82.7399 49.5891C85.6811 49.5891 334.084 49.5891 335.904 49.5891C337.724 49.5891 339.452 49.9385 339.452 53.2862C339.452 56.6338 339.452 106.48 339.452 110.067C339.452 113.654 336.437 113.93 334.911 113.93C333.386 113.948 85.6811 113.948 82.3722 113.948Z" fill="#AFDCFB"/>
<path opacity="0.5" d="M80.0743 108.191V54.9414C80.0743 51.9985 81.2692 50.9868 84.817 50.9868H334.047C336.106 50.9868 337.963 51.2995 337.963 54.9782V108.632C337.963 110.012 337.614 111.024 336.897 111.704C335.904 112.661 334.489 112.661 333.57 112.661H333.404H84.4861C80.0743 112.661 80.0743 109.295 80.0743 108.191ZM336.033 55.4933C336.033 53.1205 335.389 53.1205 333.808 53.1205H85.0376C82.2986 53.1205 82.0045 53.5987 82.0045 55.4565V107.713C82.0045 109.515 82.4457 110.545 84.7067 110.545H333.331C334.103 110.545 334.948 110.545 335.463 110.067C335.831 109.699 336.033 109.055 336.033 108.136V55.4933Z" fill="#BCBCBC"/>
<path d="M80.5156 108.026V55.1073C80.5156 52.3482 81.5818 51.4653 84.909 51.4653H333.937C335.537 51.4653 337.503 51.4653 337.503 55.1441V108.449C337.503 109.755 337.191 110.674 336.548 111.3C335.647 112.164 334.378 112.164 333.459 112.164H333.294H84.5782C80.9384 112.183 80.5156 109.81 80.5156 108.026ZM336.492 55.1441C336.492 52.4586 335.537 52.4586 333.937 52.4586H84.9274C81.9862 52.4586 81.545 53.0472 81.545 55.1073V108.026C81.545 109.92 82.0598 111.171 84.5965 111.171H333.478C334.268 111.171 335.242 111.171 335.849 110.601C336.29 110.178 336.511 109.46 336.511 108.449V55.1441H336.492Z" fill="#232020"/>
<path d="M102.685 64.0464H112.354V86.2659C112.354 96.7318 107.336 100.631 98.6959 100.631C96.729 100.631 94.1003 100.374 92.2988 99.7852L93.365 92.0415C94.5415 92.3541 96.0305 92.6301 97.5746 92.6301C100.663 92.6301 102.703 91.2321 102.703 86.2659V64.0464H102.685Z" fill="#D0617E"/>
<path d="M128.163 91.7104L126.141 100.043H116.159L126.619 64.0464H139.432L150.167 100.043H139.762L137.465 91.7104H128.163ZM136.123 84.5553L134.468 78.0991C133.935 76.0758 133.237 73.1328 132.704 70.9992H132.593C132.06 73.1328 131.527 76.131 130.994 78.1543L129.45 84.5553H136.123Z" fill="#D0617E"/>
<path d="M154.763 100.043V64.0462H166.141L171.858 75.1008C173.825 78.6875 175.921 83.4883 177.52 87.7004H177.686C177.153 82.9548 176.932 77.9334 176.932 72.5257V64.0278H185.737V100.024H175.59L169.505 88.0683C167.483 84.224 165.13 79.4233 163.421 75.0272H163.255C163.476 79.8831 163.586 85.3276 163.586 91.1584V100.024H154.763V100.043Z" fill="#D0617E"/>
<path d="M202.024 64.0464V84.4449C202.024 89.8894 203.899 92.9979 207.686 92.9979C211.528 92.9979 213.403 90.1653 213.403 84.4449V64.0464H223.072V83.9115C223.072 95.0212 217.521 100.631 207.429 100.631C197.557 100.631 192.373 95.2419 192.373 83.654V64.0464H202.024Z" fill="#D0617E"/>
<path d="M237.594 91.7104L235.572 100.043H225.591L236.05 64.0464H248.863L259.598 100.043H249.194L246.896 91.7104H237.594ZM245.554 84.5553L243.9 78.0991C243.366 76.0758 242.668 73.1328 242.135 70.9992H242.025C241.491 73.1328 240.958 76.131 240.425 78.1543L238.881 84.5553H245.554Z" fill="#D0617E"/>
<path d="M264.212 64.5247C266.933 64.1016 271.051 63.7705 275.848 63.7705C281.345 63.7705 285.297 64.5246 288.018 66.5479C290.315 68.3137 291.584 70.8704 291.584 74.402C291.584 78.8901 288.22 82.0905 285.389 83.1022V83.3229C287.797 84.3346 289.065 86.6338 289.985 89.7239C291.106 93.4026 292.282 98.6448 292.981 100.043H283.11C282.576 98.9759 281.676 96.1984 280.609 91.7656C279.654 87.4431 278.312 86.5234 275.315 86.5234H273.771V100.043H264.212V64.5247ZM273.753 79.6442H276.253C279.874 79.6442 281.97 77.8232 281.97 75.1562C281.97 72.4339 280.205 70.944 277.007 70.8888C275.187 70.8888 274.231 70.9992 273.753 71.1096V79.6442Z" fill="#D0617E"/>
<path d="M304.415 100.043V85.5117L293.036 64.0464H304.084L307.117 72.158C308.128 74.6779 308.772 76.4805 309.58 78.7797H309.691C310.389 76.5908 311.143 74.6227 311.989 72.158L314.985 64.0464H325.831L314.029 85.1439V100.043H304.415Z" fill="#D0617E"/>
<path d="M36.1769 49.3501C31.8754 48.2833 27.004 46.7566 23.015 45.1196C24.9636 44.623 26.9673 43.8504 27.7761 43.0779C28.3092 42.5813 28.732 41.9375 29.0445 41.1834C29.0629 41.1466 29.0813 41.1282 29.0813 41.0914C29.3386 40.466 29.5408 39.8038 29.7063 39.0865C33.7872 38.8658 35.2394 36.0699 35.4416 34.5617C35.5151 33.9179 35.074 33.3293 34.4122 33.2373C33.7688 33.1454 33.1622 33.6052 33.0519 34.249C33.0151 34.4697 32.6475 36.3091 30.0739 36.6585C30.2945 34.3226 30.1474 32.2441 30.1107 31.821C30.0739 31.2692 29.5776 30.8646 29.0261 30.9013C28.4746 30.9565 28.0702 31.4348 28.107 31.9866C28.2357 33.5868 28.2724 37.3207 27.4452 39.7855C25.993 39.7671 24.9268 39.3808 24.2467 38.6451C23.1437 37.4311 23.4011 35.5549 23.4011 35.5181C23.493 34.9663 23.1069 34.4697 22.5738 34.3777C22.0224 34.2858 21.5077 34.672 21.4341 35.2054C21.4157 35.3158 21.0113 38.0381 22.7577 39.9694C23.6033 40.9075 24.7981 41.4961 26.3055 41.6984C25.3312 42.4525 21.7282 43.5929 19.7613 43.6297C17.0958 42.2686 15.276 40.8707 15.037 39.6015C14.8348 38.4795 14.6877 37.2471 14.5774 35.9964C16.5628 35.8492 18.1069 35.1319 19.1915 33.8259C21.3606 31.214 20.6621 27.2778 20.6253 27.1123C20.4966 26.4685 19.8716 26.027 19.2282 26.1558C18.5848 26.2662 18.1437 26.8915 18.2723 27.5537C18.2723 27.5905 18.8054 30.5703 17.3348 32.3177C16.6914 33.0902 15.7355 33.5316 14.4304 33.6236C14.2466 29.154 14.4671 24.9786 14.4671 24.9234C14.5039 24.2613 14.0076 23.691 13.3458 23.6543C12.684 23.6175 12.1142 24.1141 12.0774 24.7763C12.059 25.1258 11.6179 32.8879 12.4818 38.8658C11.673 38.9577 10.4414 38.9761 9.09944 38.5899C7.95973 38.2588 7.11413 34.5617 7.07737 31.4348C7.07737 30.7726 6.52589 30.2576 5.8825 30.2576H5.90088C5.23911 30.2576 4.70602 30.8094 4.7244 31.4715C4.7244 32.0969 4.79793 33.8627 5.16558 35.7021C4.04425 35.5733 3.21703 35.2422 2.79424 34.7456C2.35306 34.249 2.4082 33.6972 2.4082 33.642C2.5185 32.9982 2.07732 32.3912 1.43393 32.2625C0.79054 32.1521 0.165534 32.5752 0.0368561 33.2189C9.10538e-05 33.3845 -0.220499 34.8928 0.9376 36.2539C1.93026 37.4311 3.60307 38.0381 5.90088 38.13C6.45236 39.4544 7.27957 40.5212 8.49282 40.8707C9.63254 41.2018 10.6803 41.2937 11.5811 41.2937C12.1693 41.2937 12.684 41.2569 13.1068 41.2018C13.9157 42.802 16.526 45.5059 25.9562 48.7983C28.9893 49.8468 32.0041 50.7113 34.21 51.2999C34.8718 50.6561 35.5335 50.0123 36.1769 49.3501Z" fill="#431828"/>
<path d="M31.71 50.9501C31.71 50.9501 18.8238 44.1445 10.2208 51.9802C10.2208 51.9802 23.0518 68.9023 31.71 50.9501Z" fill="#D16829"/>
<path d="M28.5665 52.4031C28.5665 52.4031 19.7062 47.7311 13.787 53.1204C13.787 53.1204 22.629 64.7636 28.5665 52.4031Z" fill="#A8471E"/>
<path d="M56.8756 49.3501C61.1771 48.2833 66.0485 46.7566 70.0375 45.1196C68.089 44.623 66.0853 43.8504 65.2764 43.0779C64.7433 42.5813 64.3205 41.9375 64.008 41.1834C63.9896 41.1466 63.9713 41.1282 63.9713 41.0914C63.7139 40.466 63.5117 39.8038 63.3463 39.0865C59.2653 38.8658 57.8131 36.0699 57.6109 34.5617C57.519 33.9179 57.9786 33.3293 58.6403 33.2373C59.2837 33.1454 59.8903 33.6052 60.0006 34.249C60.0374 34.4697 60.4051 36.3091 62.9786 36.6585C62.758 34.3226 62.9051 32.2441 62.9418 31.821C62.9786 31.2692 63.4749 30.8646 64.0264 30.9013C64.5779 30.9565 64.9823 31.4348 64.9455 31.9866C64.8169 33.5868 64.7801 37.3207 65.6073 39.7855C67.0595 39.7671 68.1257 39.3808 68.8059 38.6451C69.9088 37.4311 69.6515 35.5549 69.6515 35.5181C69.5779 34.9663 69.9456 34.4697 70.4787 34.3777C71.0302 34.2858 71.5449 34.672 71.6184 35.2054C71.6368 35.3158 72.0412 38.0381 70.2949 39.9694C69.4493 40.9075 68.2544 41.4961 66.747 41.6984C67.7213 42.4525 71.3427 43.5929 73.2912 43.6297C75.9567 42.2686 77.7765 40.8707 78.0155 39.6015C78.2177 38.4795 78.3648 37.2471 78.4751 35.9964C76.4898 35.8492 74.9456 35.1319 73.8611 33.8259C71.6919 31.214 72.3905 27.2778 72.4272 27.1123C72.5559 26.4685 73.1809 26.027 73.8243 26.1558C74.4677 26.2662 74.9089 26.8915 74.7802 27.5537C74.7802 27.5905 74.2471 30.5703 75.7177 32.3176C76.3611 33.0902 77.317 33.5316 78.6221 33.6236C78.806 29.154 78.5854 24.9786 78.5854 24.9234C78.5486 24.2613 79.0449 23.691 79.7067 23.6543C80.3685 23.6175 80.9383 24.1141 80.9751 24.7763C80.9935 25.1258 81.4347 32.8878 80.5707 38.8658C81.3795 38.9577 82.6112 38.9761 83.9531 38.5899C85.0928 38.2588 85.9384 34.5617 85.9752 31.4348C85.9752 30.7726 86.5266 30.2576 87.17 30.2576H87.1884C87.8502 30.2576 88.3833 30.8094 88.3649 31.4715C88.3649 32.0969 88.2914 33.8627 87.9237 35.7021C89.045 35.5733 89.8723 35.2422 90.2951 34.7456C90.7362 34.249 90.6811 33.6972 90.6811 33.642C90.5708 32.9982 91.012 32.3912 91.6554 32.2625C92.2988 32.1521 92.9238 32.5752 93.0524 33.2189C93.0892 33.3845 93.3282 34.9111 92.1701 36.2723C91.1774 37.4495 89.5046 38.0565 87.2068 38.1484C86.6553 39.4728 85.8281 40.5396 84.6148 40.8891C83.4751 41.2202 82.4273 41.3121 81.5266 41.3121C80.9383 41.3121 80.4236 41.2753 80.0008 41.2202C79.192 42.8204 76.5817 45.5243 67.1514 48.8167C64.1183 49.8652 61.1036 50.7296 58.8977 51.3182C58.1808 50.6561 57.519 50.0123 56.8756 49.3501Z" fill="#431828"/>
<path d="M61.361 50.9501C61.361 50.9501 74.2471 44.1445 82.8501 51.9802C82.8501 51.9802 70.0008 68.9023 61.361 50.9501Z" fill="#D16829"/>
<path d="M64.486 52.4031C64.486 52.4031 73.3463 47.7311 79.2655 53.1204C79.2655 53.1204 70.4419 64.7636 64.486 52.4031Z" fill="#A8471E"/>
<path d="M11.6547 80.1964C11.6547 80.1964 14.0995 76.6097 17.3716 76.2786C20.9562 75.9107 24.1732 79.8653 20.5702 85.2547C18.3275 88.6207 10.9378 95.1688 9.22818 102.14L6.21344 100.098L2.83105 100.374C2.83105 100.374 5.66197 86.8917 11.6547 80.1964Z" fill="#A8471E"/>
<path d="M10.2576 99.2705L3.63994 97.2104C3.10684 99.1234 2.84949 100.374 2.84949 100.374L6.23187 100.098L9.24661 102.14C9.4672 101.165 9.81647 100.209 10.2576 99.2705Z" fill="#562306"/>
<path d="M81.398 80.1964C81.398 80.1964 78.9531 76.6097 75.681 76.2786C72.0964 75.9107 68.8795 79.8653 72.4824 85.2547C74.7251 88.6207 82.1149 95.1688 83.8245 102.14L86.8392 100.098L90.2216 100.374C90.2216 100.374 87.3907 86.8917 81.398 80.1964Z" fill="#A8471E"/>
<path d="M82.8135 99.2705L89.4312 97.2104C89.9643 99.1234 90.2216 100.374 90.2216 100.374L86.8393 100.098L83.8245 102.14C83.5855 101.165 83.2363 100.209 82.8135 99.2705Z" fill="#562306"/>
<path d="M41.3976 139.221L44.6513 110.362H25.368L32.3902 139.221H41.3976Z" fill="#A8471E"/>
<path d="M41.3976 139.221H32.3901L33.3093 142.606H36.3975L36.8939 141.649L37.427 142.606H41.0667L41.3976 139.221Z" fill="#562306"/>
<path d="M48.4014 110.362L51.6735 139.221H60.6625L67.703 110.362H48.4014Z" fill="#A8471E"/>
<path d="M51.6735 139.221H60.6625L59.7434 142.606H56.6551L56.1588 141.649L55.6257 142.606H52.0043L51.6735 139.221Z" fill="#562306"/>
<path d="M81.7656 95.518C81.7656 118.418 65.9934 131.183 46.5263 131.183C27.0592 131.183 11.287 118.418 11.287 95.518C11.287 72.618 27.0592 42.2686 46.5263 42.2686C65.9934 42.2686 81.7656 72.618 81.7656 95.518Z" fill="#D16829"/>
<path d="M72.0413 111.87C72.0413 124.267 60.6257 131.183 46.5263 131.183C32.4269 131.183 21.0114 124.267 21.0114 111.87C21.0114 99.4727 32.4269 83.0288 46.5263 83.0288C60.6257 83.0288 72.0413 99.4543 72.0413 111.87Z" fill="#F5BF9B"/>
<path d="M41.7101 54.6293C41.7101 56.0456 40.5704 57.186 39.1549 57.186C37.7394 57.186 36.5997 56.0456 36.5997 54.6293C36.5997 53.213 37.7394 52.0542 39.1549 52.0542C40.5704 52.0542 41.7101 53.213 41.7101 54.6293Z" fill="#4D292C"/>
<path d="M38.971 53.8202C38.971 54.2617 38.6218 54.6295 38.1806 54.6295C37.7394 54.6295 37.3901 54.2617 37.3901 53.8202C37.3901 53.3788 37.7394 53.0293 38.1806 53.0293C38.6034 53.0293 38.971 53.3788 38.971 53.8202Z" fill="white"/>
<path d="M38.0704 55.5121C38.0704 55.7144 37.9049 55.8616 37.7211 55.8616C37.5189 55.8616 37.3718 55.696 37.3718 55.5121C37.3718 55.3281 37.5373 55.1626 37.7211 55.1626C37.9049 55.1626 38.0704 55.3097 38.0704 55.5121Z" fill="white"/>
<path d="M56.4713 54.6293C56.4713 56.0456 55.3316 57.186 53.9161 57.186C52.5007 57.186 51.361 56.0456 51.361 54.6293C51.361 53.213 52.5007 52.0542 53.9161 52.0542C55.3316 52.0542 56.4713 53.213 56.4713 54.6293Z" fill="#4D292C"/>
<path d="M53.7323 53.8202C53.7323 54.2617 53.383 54.6295 52.9418 54.6295C52.5006 54.6295 52.1514 54.2617 52.1514 53.8202C52.1514 53.3788 52.5006 53.0293 52.9418 53.0293C53.3646 53.0293 53.7323 53.3788 53.7323 53.8202Z" fill="white"/>
<path d="M52.8316 55.5121C52.8316 55.7144 52.6661 55.8616 52.4823 55.8616C52.2985 55.8616 52.1331 55.696 52.1331 55.5121C52.1331 55.3281 52.2801 55.1626 52.4823 55.1626C52.6661 55.1626 52.8316 55.3097 52.8316 55.5121Z" fill="white"/>
<path d="M56.8022 69.2704C56.8022 73.6849 52.2065 77.2533 46.5263 77.2533C40.8461 77.2533 36.2505 73.6849 36.2505 69.2704V65.978C36.2505 61.5635 40.8461 55.8247 46.5263 55.8247C52.2065 55.8247 56.8022 61.5635 56.8022 65.978V69.2704Z" fill="#F5BF9B"/>
<path d="M43.2541 75.8736C41.5813 75.8736 40.1475 74.2734 39.835 72.0662C39.8166 71.9742 39.8901 71.9006 39.982 71.8822C40.074 71.8638 40.1475 71.9374 40.1659 72.0294C40.4416 74.0711 41.7468 75.5426 43.2541 75.5426C44.7615 75.5426 46.0483 74.0711 46.3424 72.0294C46.3608 71.9374 46.4343 71.8822 46.5262 71.8822C46.6181 71.9006 46.6733 71.9742 46.6733 72.0662C46.3608 74.2734 44.927 75.8736 43.2541 75.8736Z" fill="#1D1D1B"/>
<path d="M49.7983 75.8736C48.1255 75.8736 46.6917 74.2734 46.3792 72.0662C46.3608 71.9742 46.4343 71.9006 46.5262 71.8822C46.6182 71.8638 46.6917 71.9374 46.7101 72.0294C47.0042 74.0711 48.291 75.5426 49.7983 75.5426C51.3057 75.5426 52.5925 74.0711 52.8866 72.0294C52.905 71.9374 52.9785 71.8822 53.0704 71.8822C53.1623 71.9006 53.2175 71.9742 53.2175 72.0662C52.905 74.2734 51.4711 75.8736 49.7983 75.8736Z" fill="#1D1D1B"/>
<path d="M52.1146 71.1095C52.1146 72.3051 49.6145 73.28 46.5263 73.28C43.438 73.28 40.938 72.3051 40.938 71.1095V70.2083C40.938 69.0127 43.438 67.4492 46.5263 67.4492C49.6145 67.4492 52.1146 69.0127 52.1146 70.2083V71.1095Z" fill="#8C2E15"/>
<path d="M80.2582 88.5656C80.2582 89.9267 79.3759 91.0303 78.2729 91.0303C77.1883 91.0303 76.2876 89.9267 76.2876 88.5656C76.2876 87.2044 77.17 86.1008 78.2729 86.1008C79.3759 86.0824 80.2582 87.2044 80.2582 88.5656Z" fill="#8C2E15"/>
<path d="M76.4162 96.2539C76.4162 97.4495 75.6442 98.4244 74.6883 98.4244C73.7324 98.4244 72.9603 97.4495 72.9603 96.2539C72.9603 95.0584 73.7324 94.0835 74.6883 94.0835C75.6442 94.1019 76.4162 95.0584 76.4162 96.2539Z" fill="#8C2E15"/>
<path d="M80.0377 99.1787C80.0377 99.988 79.523 100.632 78.8612 100.632C78.2178 100.632 77.6847 99.9696 77.6847 99.1787C77.6847 98.3878 78.1994 97.7256 78.8612 97.7256C79.523 97.7256 80.0377 98.3694 80.0377 99.1787Z" fill="#8C2E15"/>
<path d="M76.2509 83.2313C76.2509 84.151 75.6442 84.9051 74.9089 84.9051C74.1736 84.9051 73.567 84.151 73.567 83.2313C73.567 82.3116 74.1736 81.5575 74.9089 81.5575C75.6442 81.5391 76.2509 82.2932 76.2509 83.2313Z" fill="#8C2E15"/>
<path d="M75.6993 103.464C75.6993 104.016 75.35 104.458 74.9089 104.458C74.4677 104.458 74.1184 104.016 74.1184 103.464C74.1184 102.913 74.4677 102.471 74.9089 102.471C75.35 102.471 75.6993 102.913 75.6993 103.464Z" fill="#8C2E15"/>
<path d="M71.7104 91.3797C71.7104 92.465 71.0118 93.3479 70.1478 93.3479C69.2839 93.3479 68.5853 92.465 68.5853 91.3797C68.5853 90.2945 69.2839 89.4116 70.1478 89.4116C71.0118 89.4116 71.7104 90.2945 71.7104 91.3797Z" fill="#8C2E15"/>
<path d="M12.8127 88.5656C12.8127 89.9267 13.6951 91.0303 14.7981 91.0303C15.901 91.0303 16.7834 89.9267 16.7834 88.5656C16.7834 87.2044 15.901 86.1008 14.7981 86.1008C13.6951 86.0824 12.8127 87.2044 12.8127 88.5656Z" fill="#8C2E15"/>
<path d="M16.6364 96.2539C16.6364 97.4495 17.4084 98.4244 18.3643 98.4244C19.3202 98.4244 20.0923 97.4495 20.0923 96.2539C20.0923 95.0584 19.3202 94.0835 18.3643 94.0835C17.4084 94.1019 16.6364 95.0584 16.6364 96.2539Z" fill="#8C2E15"/>
<path d="M13.0149 99.1787C13.0149 99.988 13.548 100.632 14.1914 100.632C14.8348 100.632 15.3679 99.9696 15.3679 99.1787C15.3679 98.3878 14.8531 97.7256 14.1914 97.7256C13.548 97.7256 13.0149 98.3694 13.0149 99.1787Z" fill="#8C2E15"/>
<path d="M16.8018 83.2313C16.8018 84.151 17.4084 84.9051 18.1437 84.9051C18.879 84.9051 19.4856 84.151 19.4856 83.2313C19.4856 82.3116 18.879 81.5575 18.1437 81.5575C17.4084 81.5391 16.8018 82.2932 16.8018 83.2313Z" fill="#8C2E15"/>
<path d="M17.3533 103.464C17.3533 104.016 17.7025 104.458 18.1437 104.458C18.5849 104.458 18.9342 104.016 18.9342 103.464C18.9342 102.913 18.5849 102.471 18.1437 102.471C17.7025 102.471 17.3533 102.913 17.3533 103.464Z" fill="#8C2E15"/>
<path d="M21.3606 91.3797C21.3606 92.465 22.0591 93.3479 22.9231 93.3479C23.7871 93.3479 24.4856 92.465 24.4856 91.3797C24.4856 90.2945 23.7871 89.4116 22.9231 89.4116C22.0591 89.43 21.3606 90.2945 21.3606 91.3797Z" fill="#8C2E15"/>
<path d="M314.966 48.173V42.6549C314.966 42.1031 314.525 41.6616 313.974 41.6616C313.422 41.6616 312.981 42.1031 312.981 42.6549V47.8419C313.257 48.6696 314.231 48.5592 314.966 48.173Z" fill="#34271F"/>
<path d="M312.595 48.6511C312.558 48.4119 312.283 47.1796 311.216 46.8117C310.481 46.5542 309.672 46.8117 308.845 47.5658C308.202 48.1544 307.632 48.7798 307.135 49.4788C306.676 50.1225 306.198 50.987 306.584 51.7964C306.805 52.293 307.43 52.3482 307.834 52.0355C308.294 51.6676 308.422 51.0054 308.753 50.5272C309.139 49.957 309.635 49.4604 310.15 49.0005C310.352 48.8166 310.499 48.7246 310.591 48.6878C310.628 48.7798 310.683 48.9086 310.702 49.0005C310.794 49.5156 311.29 49.865 311.823 49.7731C312.338 49.6811 312.687 49.1661 312.595 48.6511Z" fill="#4F3E34"/>
<path d="M314.323 48.5591C314.231 48.3384 313.68 47.1796 312.558 47.0692C311.786 46.9956 311.069 47.4187 310.426 48.3568C308.974 50.472 308.882 51.6492 308.882 51.8515C308.882 51.8515 308.808 52.6425 309.58 52.7528C310.242 52.8448 310.573 52.4401 310.812 51.8699C310.812 51.8883 310.812 51.8883 310.812 51.9067C310.977 51.0238 311.51 50.1777 312.007 49.4604C312.172 49.2213 312.283 49.1109 312.356 49.0557C312.411 49.1293 312.503 49.2396 312.54 49.3316C312.742 49.8282 313.312 50.049 313.808 49.8282C314.305 49.6075 314.544 49.0373 314.323 48.5591Z" fill="#4F3E34"/>
<path d="M316.308 48.559C316.18 48.3567 315.444 47.3267 314.323 47.4002C313.551 47.4554 312.907 48.0072 312.448 49.0373C311.455 51.2077 311.492 52.3665 311.529 52.6976C311.529 52.6976 311.492 53.3414 312.154 53.5069C312.834 53.6909 313.514 53.2678 313.441 52.2745C313.459 51.9435 313.588 51.1525 314.194 49.8282C314.305 49.5707 314.415 49.4419 314.47 49.3684C314.544 49.4235 314.635 49.5339 314.691 49.6075C314.985 50.0489 315.573 50.1777 316.014 49.8834C316.474 49.6075 316.602 49.0005 316.308 48.559Z" fill="#4F3E34"/>
<path d="M320.077 48.173V42.6549C320.077 42.1031 320.518 41.6616 321.069 41.6616C321.621 41.6616 322.062 42.1031 322.062 42.6549V47.8419C321.786 48.6696 320.812 48.5592 320.077 48.173Z" fill="#34271F"/>
<path d="M322.448 48.6511C322.485 48.4119 322.761 47.1796 323.827 46.8117C324.562 46.5542 325.371 46.8117 326.198 47.5658C326.841 48.1544 327.411 48.7798 327.908 49.4788C328.367 50.1225 328.845 50.987 328.459 51.7964C328.239 52.293 327.614 52.3482 327.209 52.0355C326.75 51.6676 326.621 51.0054 326.29 50.5272C325.904 49.957 325.408 49.4604 324.893 49.0005C324.691 48.8166 324.544 48.7246 324.452 48.6878C324.397 48.7798 324.36 48.9086 324.341 49.0005C324.25 49.5156 323.753 49.865 323.22 49.7731C322.705 49.6811 322.356 49.1661 322.448 48.6511Z" fill="#4F3E34"/>
<path d="M320.72 48.5591C320.812 48.3384 321.364 47.1796 322.485 47.0692C323.257 46.9956 323.974 47.4187 324.617 48.3568C326.069 50.472 326.161 51.6492 326.161 51.8515C326.161 51.8515 326.235 52.6425 325.463 52.7528C324.801 52.8448 324.47 52.4401 324.231 51.8699C324.231 51.8883 324.231 51.8883 324.231 51.9067C324.066 51.0238 323.533 50.1777 323.036 49.4604C322.871 49.2213 322.761 49.1109 322.687 49.0557C322.632 49.1293 322.54 49.2396 322.503 49.3316C322.301 49.8282 321.731 50.049 321.235 49.8282C320.739 49.6075 320.5 49.0373 320.72 48.5591Z" fill="#4F3E34"/>
<path d="M318.735 48.559C318.864 48.3567 319.599 47.3267 320.72 47.4002C321.492 47.4554 322.136 48.0072 322.595 49.0373C323.588 51.2077 323.551 52.3665 323.514 52.6976C323.514 52.6976 323.551 53.3414 322.889 53.5069C322.209 53.6909 321.529 53.2678 321.602 52.2745C321.584 51.9435 321.455 51.1525 320.849 49.8282C320.739 49.5707 320.628 49.4419 320.573 49.3684C320.5 49.4235 320.408 49.5339 320.352 49.6075C320.058 50.0489 319.47 50.1777 319.029 49.8834C318.569 49.6075 318.441 49.0005 318.735 48.559Z" fill="#4F3E34"/>
<path d="M320.224 32.4281C320.224 32.4281 331.529 53.2496 334.985 49.9388C337.246 47.7684 317.191 21.6494 320.224 32.4281Z" fill="#2CACE6"/>
<path d="M320.279 35.2425C320.279 35.2425 336.695 52.3302 339.139 48.2284C340.757 45.5245 314.525 25.641 320.279 35.2425Z" fill="#E06F11"/>
<path d="M320.794 37.1183C320.794 37.1183 340.334 50.5273 341.897 46.0024C342.926 43.0227 313.202 28.878 320.794 37.1183Z" fill="#F19D1C"/>
<path d="M336.511 27.2409C336.511 39.583 328 46.4622 317.522 46.4622C307.025 46.4622 298.532 39.583 298.532 27.2409C298.532 14.8988 306.805 0 317.283 0C327.779 0 336.511 14.8804 336.511 27.2409Z" fill="#2CACE6"/>
<path d="M329.581 35.4631C329.581 42.5262 324.047 46.4625 317.209 46.4625C310.371 46.4625 304.838 42.5262 304.838 35.4631C304.838 28.3999 310.371 19.0376 317.209 19.0376C324.047 19.0376 329.581 28.3999 329.581 35.4631Z" fill="#ED931A"/>
<path d="M303.863 23.0288C303.606 21.6309 303.128 19.9019 302.099 18.8719C299.507 16.2784 297.135 19.8467 296.179 21.6677C294.323 25.236 293.974 30.3495 295.793 34.2857C296.51 35.8492 299.654 40.0797 302.062 40.797C302.117 40.8154 302.338 34.7455 302.172 33.8259C302.374 34.0466 302.76 35.61 303.146 35.6468C303.22 35.6468 303.275 31.4163 303.146 31.0852C303.293 31.2324 303.532 32.8326 303.551 32.8142C303.955 32.3912 304.36 25.6223 303.863 23.0288Z" fill="#054797"/>
<path d="M304.102 23.1945C303.827 21.7414 303.349 19.9572 302.264 18.872C299.58 16.1681 297.099 19.8836 296.124 21.7782C294.194 25.4753 293.827 30.8094 295.72 34.8928C295.904 35.2975 296.235 35.8493 296.676 36.4931C296.896 36.769 297.135 37.0265 297.411 37.2472C296.988 35.6286 296.676 33.9731 296.915 32.2993C296.933 32.2073 298.753 36.3827 300.187 38.0933C300.389 36.6954 300.113 35.2791 300.095 33.8996C300.095 33.7892 301.694 36.6034 302.411 37.9829C302.448 36.4195 302.448 34.8376 302.374 34.4146C302.595 34.6537 302.999 36.4931 303.33 36.9897C303.367 37.0449 303.514 31.9314 303.385 31.582C303.551 31.7291 303.79 33.4029 303.808 33.3661C304.194 32.9247 304.617 25.8983 304.102 23.1945Z" fill="#165EC0"/>
<path d="M304.157 23.0839C303.863 21.5205 303.33 19.5892 302.172 18.412C299.268 15.4874 296.584 19.4972 295.518 21.5573C294.249 23.9852 293.955 27.1673 294.286 29.8344C294.323 30.1471 295.554 26.0085 296.952 24.0036C296.97 23.9668 297.301 30.3862 297.999 32.1888C298.624 30.0367 299.194 26.5051 299.746 25.4015C299.801 25.2912 299.672 31.1219 301.198 33.7338C301.952 30.6437 302.227 30.515 302.521 28.3077C302.54 28.179 303.275 31.9497 303.882 33.9546C304.286 32.9061 304.691 25.8798 304.157 23.0839Z" fill="#97E1F8"/>
<path d="M331.29 23.0288C331.547 21.6309 332.025 19.9019 333.055 18.8719C335.647 16.2784 338.018 19.8467 338.974 21.6677C340.831 25.236 341.18 30.3495 339.36 34.2857C338.643 35.8492 335.5 40.0797 333.092 40.797C333.036 40.8154 332.816 34.7455 332.981 33.8259C332.779 34.0466 332.393 35.61 332.007 35.6468C331.934 35.6468 331.878 31.4163 332.007 31.0852C331.86 31.2324 331.621 32.8326 331.603 32.8142C331.198 32.3912 330.794 25.6223 331.29 23.0288Z" fill="#054797"/>
<path d="M331.051 23.1945C331.327 21.7414 331.805 19.9572 332.889 18.872C335.573 16.1681 338.055 19.8836 339.029 21.7782C340.959 25.4753 341.327 30.8094 339.434 34.8928C339.25 35.2975 338.919 35.8493 338.478 36.4931C338.257 36.769 338.018 37.0265 337.742 37.2472C338.165 35.6286 338.478 33.9731 338.239 32.2993C338.22 32.2073 336.4 36.3827 334.967 38.0933C334.764 36.6954 335.04 35.2791 335.059 33.8996C335.059 33.7892 333.459 36.6034 332.742 37.9829C332.706 36.4195 332.706 34.8376 332.779 34.4146C332.559 34.6537 332.154 36.4931 331.823 36.9897C331.786 37.0449 331.639 31.9314 331.768 31.582C331.603 31.7291 331.364 33.4029 331.345 33.3661C330.959 32.9247 330.536 25.8983 331.051 23.1945Z" fill="#165EC0"/>
<path d="M330.996 23.0839C331.29 21.5205 331.823 19.5892 332.981 18.412C335.886 15.4874 338.57 19.4972 339.636 21.5573C340.904 23.9852 341.198 27.1673 340.867 29.8344C340.831 30.1471 339.599 26.0085 338.202 24.0036C338.184 23.9668 337.853 30.3862 337.154 32.1888C336.529 30.0367 335.959 26.5051 335.408 25.4015C335.353 25.2912 335.481 31.1219 333.956 33.7338C333.202 30.6437 332.926 30.515 332.632 28.3077C332.614 28.179 331.878 31.9497 331.272 33.9546C330.867 32.9061 330.463 25.8798 330.996 23.0839Z" fill="#97E1F8"/>
<path d="M324.893 17.3822L327.264 17.9156C327.154 16.7384 324.176 13.8138 324.176 13.8138C324.176 13.8138 325.114 13.2804 326.511 8.18537C327.338 5.15042 324.544 3.86287 322.154 3.32945C321.823 3.36624 321.511 3.43982 321.18 3.55018C320.187 3.89966 318.147 4.89291 318.22 4.78255C318.459 4.41468 318.698 4.0652 318.992 3.75251C317.65 3.97323 315.205 5.48151 315.187 5.38954C315.132 4.81934 315.408 4.21235 315.812 3.7709C315.022 4.0468 313.441 4.98488 313.477 4.85612C313.698 4.10199 314.194 3.53178 314.764 3.03516C312.393 3.29267 307.485 4.32271 308.551 8.20376C309.948 13.2804 310.886 13.8322 310.886 13.8322C310.886 13.8322 307.908 16.7752 307.797 17.934L310.169 17.4006C310.169 17.4006 307.687 19.6446 307.797 20.6194L313.698 17.934L316.345 18.5778L316.235 19.1847L317.522 18.8721L318.808 19.1847L318.698 18.5778L321.345 17.934L327.246 20.6194C327.356 19.6446 324.893 17.3822 324.893 17.3822Z" fill="#FFFFF1"/>
<path d="M313.808 6.82386C313.808 7.57799 313.183 8.20338 312.43 8.20338C311.658 8.20338 311.051 7.57799 311.051 6.82386C311.051 6.06972 311.676 5.44434 312.43 5.44434C313.202 5.44434 313.808 6.05132 313.808 6.82386Z" fill="#4D292C"/>
<path d="M312.338 6.38253C312.338 6.62164 312.154 6.80558 311.915 6.80558C311.676 6.80558 311.492 6.62164 311.492 6.38253C311.492 6.14341 311.694 5.95947 311.915 5.95947C312.135 5.95947 312.338 6.14341 312.338 6.38253Z" fill="white"/>
<path d="M311.86 7.28355C311.86 7.39391 311.768 7.46748 311.676 7.46748C311.566 7.46748 311.492 7.37551 311.492 7.28355C311.492 7.17318 311.584 7.09961 311.676 7.09961C311.768 7.09961 311.86 7.19158 311.86 7.28355Z" fill="white"/>
<path d="M323.68 6.82386C323.68 7.57799 323.055 8.20338 322.301 8.20338C321.547 8.20338 320.922 7.57799 320.922 6.82386C320.922 6.06972 321.547 5.44434 322.301 5.44434C323.055 5.44434 323.68 6.05132 323.68 6.82386Z" fill="#4D292C"/>
<path d="M322.209 6.38253C322.209 6.62164 322.025 6.80558 321.786 6.80558C321.547 6.80558 321.364 6.62164 321.364 6.38253C321.364 6.14341 321.547 5.95947 321.786 5.95947C322.007 5.95947 322.209 6.14341 322.209 6.38253Z" fill="white"/>
<path d="M321.713 7.28355C321.713 7.39391 321.621 7.46748 321.529 7.46748C321.419 7.46748 321.345 7.37551 321.345 7.28355C321.345 7.17318 321.437 7.09961 321.529 7.09961C321.639 7.09961 321.713 7.19158 321.713 7.28355Z" fill="white"/>
<path d="M322.963 14.1999L324.103 13.9056C324.103 13.9056 324.305 20.2881 320.628 20.1594C316.952 20.0122 312.43 20.1594 312.43 20.1594C312.43 20.1594 316.29 11.7719 322.963 14.1999Z" fill="#FBAB24"/>
<path d="M321.198 7.67012C319.911 6.64008 318.312 6.16184 316.713 6.47453C316.713 6.47453 309.341 7.79887 308.992 12.5628C308.643 17.3268 311.29 22.477 312.209 23.8197C312.209 23.8197 312.797 19.3501 316.419 17.7314C320.058 16.1128 324.066 19.3501 324.011 13.6664C323.992 11.1833 322.853 8.99446 321.198 7.67012Z" fill="#FDD428"/>
<defs>
<linearGradient id="paint0_linear_175_10931" x1="207.889" y1="91.4097" x2="210.217" y2="91.4097" gradientUnits="userSpaceOnUse">
<stop stop-color="#383537"/>
<stop offset="0.0449" stop-color="#545152"/>
<stop offset="0.1083" stop-color="#747273"/>
<stop offset="0.1691" stop-color="#8C8A8A"/>
<stop offset="0.2254" stop-color="#9A9898"/>
<stop offset="0.2732" stop-color="#9F9D9D"/>
<stop offset="0.2968" stop-color="#989696"/>
<stop offset="0.4334" stop-color="#767374"/>
<stop offset="0.5721" stop-color="#5B5859"/>
<stop offset="0.7119" stop-color="#474546"/>
<stop offset="0.8536" stop-color="#3C393B"/>
<stop offset="1" stop-color="#383537"/>
</linearGradient>
<linearGradient id="paint1_linear_175_10931" x1="207.377" y1="41.7439" x2="210.703" y2="41.7439" gradientUnits="userSpaceOnUse">
<stop stop-color="#383537"/>
<stop offset="0.0449" stop-color="#545152"/>
<stop offset="0.1083" stop-color="#747273"/>
<stop offset="0.1691" stop-color="#8C8A8A"/>
<stop offset="0.2254" stop-color="#9A9898"/>
<stop offset="0.2732" stop-color="#9F9D9D"/>
<stop offset="0.2968" stop-color="#989696"/>
<stop offset="0.4334" stop-color="#767374"/>
<stop offset="0.5721" stop-color="#5B5859"/>
<stop offset="0.7119" stop-color="#474546"/>
<stop offset="0.8536" stop-color="#3C393B"/>
<stop offset="1" stop-color="#383537"/>
</linearGradient>
<radialGradient id="paint2_radial_175_10931" cx="0" cy="0" r="1" gradientUnits="userSpaceOnUse" gradientTransform="translate(209.081 37.1329) scale(1.99808 1.95421)">
<stop stop-color="#9F9D9D"/>
<stop offset="0.1421" stop-color="#8C8A8B"/>
<stop offset="0.5298" stop-color="#5F5C5D"/>
<stop offset="0.8284" stop-color="#434041"/>
<stop offset="1" stop-color="#383537"/>
</radialGradient>
<radialGradient id="paint3_radial_175_10931" cx="0" cy="0" r="1" gradientUnits="userSpaceOnUse" gradientTransform="translate(209.081 37.133) scale(1.99807 1.9542)">
<stop stop-color="#9F9D9D"/>
<stop offset="0.1421" stop-color="#8C8A8B"/>
<stop offset="0.5298" stop-color="#5F5C5D"/>
<stop offset="0.8284" stop-color="#434041"/>
<stop offset="1" stop-color="#383537"/>
</radialGradient>
<radialGradient id="paint4_radial_175_10931" cx="0" cy="0" r="1" gradientUnits="userSpaceOnUse" gradientTransform="translate(208.757 36.8822) scale(1.48726 1.4546)">
<stop stop-color="#878585"/>
<stop offset="0.0118" stop-color="#838282"/>
<stop offset="0.1821" stop-color="#555353"/>
<stop offset="0.3447" stop-color="#302F2F"/>
<stop offset="0.4954" stop-color="#161515"/>
<stop offset="0.6299" stop-color="#060606"/>
<stop offset="0.7346"/>
</radialGradient>
<linearGradient id="paint5_linear_175_10931" x1="209.081" y1="43.9056" x2="209.081" y2="46.8118" gradientUnits="userSpaceOnUse">
<stop stop-color="#505050"/>
<stop offset="0.0277" stop-color="#626262"/>
<stop offset="0.107" stop-color="#929292"/>
<stop offset="0.1861" stop-color="#B9B9B9"/>
<stop offset="0.2637" stop-color="#D8D8D8"/>
<stop offset="0.3394" stop-color="#EDEDED"/>
<stop offset="0.4121" stop-color="#FBFBFB"/>
<stop offset="0.4788" stop-color="white"/>
<stop offset="0.5497" stop-color="#FAFAFA"/>
<stop offset="0.6291" stop-color="#EDEDED"/>
<stop offset="0.7125" stop-color="#D6D6D6"/>
<stop offset="0.7989" stop-color="#B7B7B7"/>
<stop offset="0.8873" stop-color="#8F8F8F"/>
<stop offset="0.9764" stop-color="#5E5E5E"/>
<stop offset="1" stop-color="#505050"/>
</linearGradient>
<linearGradient id="paint6_linear_175_10931" x1="209.087" y1="114.924" x2="209.087" y2="118.248" gradientUnits="userSpaceOnUse">
<stop stop-color="#505050"/>
<stop offset="0.2588" stop-color="#8C8C8C"/>
<stop offset="0.5025" stop-color="#BEBEBE"/>
<stop offset="0.7151" stop-color="#E1E1E1"/>
<stop offset="0.8881" stop-color="#F7F7F7"/>
<stop offset="1" stop-color="white"/>
</linearGradient>
<linearGradient id="paint7_linear_175_10931" x1="209.081" y1="39.5988" x2="209.081" y2="38.7756" gradientUnits="userSpaceOnUse">
<stop stop-color="#505050"/>
<stop offset="0.2588" stop-color="#8C8C8C"/>
<stop offset="0.5025" stop-color="#BEBEBE"/>
<stop offset="0.7151" stop-color="#E1E1E1"/>
<stop offset="0.8881" stop-color="#F7F7F7"/>
<stop offset="1" stop-color="white"/>
</linearGradient>
<linearGradient id="paint8_linear_175_10931" x1="207.87" y1="41.7439" x2="209.052" y2="41.7439" gradientUnits="userSpaceOnUse">
<stop offset="0.1147"/>
<stop offset="0.208" stop-color="#242424"/>
<stop offset="0.3287" stop-color="#4C4C4C"/>
<stop offset="0.4244" stop-color="#656565"/>
<stop offset="0.4826" stop-color="#6E6E6E"/>
<stop offset="0.4886" stop-color="#6B6B6B"/>
<stop offset="0.6075" stop-color="#3D3D3D"/>
<stop offset="0.7131" stop-color="#1C1C1C"/>
<stop offset="0.8005" stop-color="#070707"/>
<stop offset="0.8588"/>
</linearGradient>
</defs>
</svg>
