<svg width="311" height="140" viewBox="0 0 311 140" fill="none" xmlns="http://www.w3.org/2000/svg">
<path d="M71.6552 139.282C71.6552 139.282 72.5375 139.263 74.1736 139.263C75.828 139.245 78.2361 139.227 81.306 139.19C87.4457 139.135 96.2142 139.061 106.729 139.006C111.986 138.969 117.685 138.932 123.714 138.914C129.744 138.896 136.104 138.859 142.685 138.84C149.266 138.822 156.049 138.804 162.961 138.804C169.873 138.804 176.877 138.785 183.899 138.785C190.921 138.785 197.925 138.804 204.837 138.804C211.73 138.804 218.532 138.84 225.113 138.84C231.693 138.859 238.054 138.877 244.083 138.914C250.113 138.932 255.811 138.969 261.069 139.006C271.584 139.061 280.352 139.135 286.492 139.19C289.562 139.227 291.97 139.245 293.606 139.263C295.242 139.282 296.124 139.282 296.124 139.282C296.124 139.282 295.242 139.3 293.606 139.319C291.97 139.337 289.562 139.355 286.492 139.392C280.352 139.447 271.584 139.521 261.069 139.576C255.811 139.613 250.113 139.65 244.083 139.668C238.054 139.686 231.693 139.723 225.113 139.742C218.55 139.76 211.748 139.778 204.837 139.778C197.925 139.778 190.921 139.797 183.899 139.797C176.877 139.797 169.873 139.778 162.961 139.778C156.068 139.778 149.266 139.742 142.685 139.742C136.104 139.723 129.744 139.705 123.714 139.668C117.685 139.65 111.986 139.613 106.729 139.576C96.2142 139.521 87.4457 139.447 81.306 139.392C78.2361 139.355 75.828 139.337 74.1736 139.319C72.5375 139.3 71.6552 139.282 71.6552 139.282Z" fill="#989898"/>
<path d="M186.583 33.6475H184.285V139.3H186.583V33.6475Z" fill="url(#paint0_linear_175_10510)"/>
<path d="M186.895 38.9451C186.215 38.9451 184.009 38.9451 183.954 38.9451C183.899 38.9451 183.789 38.9451 183.789 38.7427C183.789 37.915 183.789 34.8985 183.789 34.8249C183.789 34.7513 183.807 34.6777 183.954 34.6777C184.083 34.6777 186.325 34.6777 186.914 34.6777C187.079 34.6777 187.079 34.7697 187.079 34.8801C187.079 34.9536 187.079 37.915 187.079 38.7427C187.079 38.8715 187.061 38.9451 186.895 38.9451Z" fill="url(#paint1_linear_175_10510)"/>
<path d="M185.443 34.1441C186.55 34.1441 187.447 33.2711 187.447 32.1943C187.447 31.1175 186.55 30.2446 185.443 30.2446C184.336 30.2446 183.439 31.1175 183.439 32.1943C183.439 33.2711 184.336 34.1441 185.443 34.1441Z" fill="url(#paint2_radial_175_10510)"/>
<path opacity="0.3" d="M185.443 30.2446C185.406 30.2446 185.37 30.2446 185.314 30.2446C186.234 30.2998 186.95 31.0356 186.95 31.9552C186.95 32.8933 186.16 33.6658 185.204 33.6658C184.285 33.6658 183.531 32.9669 183.458 32.0656C183.458 32.1024 183.458 32.1392 183.458 32.1943C183.458 33.2796 184.359 34.1441 185.461 34.1441C186.564 34.1441 187.465 33.2612 187.465 32.1943C187.428 31.1091 186.546 30.2446 185.443 30.2446Z" fill="url(#paint3_radial_175_10510)"/>
<path d="M186.656 31.9367C186.656 32.7644 185.976 33.4266 185.13 33.4266C184.285 33.4266 183.605 32.7644 183.605 31.9367C183.605 31.1089 184.285 30.4468 185.13 30.4468C185.976 30.4468 186.656 31.1273 186.656 31.9367Z" fill="url(#paint4_radial_175_10510)"/>
<path d="M186.583 38.9448H184.285V41.851H186.583V38.9448Z" fill="url(#paint5_linear_175_10510)"/>
<path d="M186.583 109.944H184.285V114.028H186.583V109.944Z" fill="url(#paint6_linear_175_10510)"/>
<path d="M186.583 33.8315H184.285V34.6593H186.583V33.8315Z" fill="url(#paint7_linear_175_10510)"/>
<path opacity="0.8" d="M185.443 34.6777H184.193V38.9451H185.443V34.6777Z" fill="url(#paint8_linear_175_10510)"/>
<path d="M72.9788 105.217C72.9788 103.782 72.9788 50.404 72.9788 48.0864C72.9788 45.4562 73.8244 44.4077 77.2251 44.4077C80.2215 44.4077 292.338 44.4077 294.194 44.4077C296.051 44.4077 297.816 44.7756 297.816 48.1416C297.816 51.5261 297.816 102.182 297.816 105.806C297.816 109.429 294.727 109.705 293.183 109.705C291.639 109.705 80.2399 109.705 76.8575 109.705C73.4935 109.687 72.9788 106.652 72.9788 105.217Z" fill="#F6E875"/>
<path opacity="0.5" d="M297.834 105.787C297.834 102.163 297.834 51.5075 297.834 48.1231C297.834 44.7386 296.069 44.3892 294.213 44.3892C292.356 44.3892 80.2399 44.3892 77.2436 44.3892C73.8428 44.3892 72.9972 45.456 72.9972 48.0679C72.9972 50.3855 72.9972 103.782 72.9972 105.198C72.9972 106.633 73.5119 109.668 76.8759 109.668C80.2583 109.668 291.657 109.668 293.202 109.668C294.746 109.686 297.834 109.411 297.834 105.787ZM77.0965 109.006C73.7876 109.006 73.2913 105.989 73.2913 104.573C73.2913 103.157 73.2913 50.6062 73.2913 48.307C73.2913 45.6951 74.1369 44.6467 77.4641 44.6467C80.4054 44.6467 292.043 44.6467 293.863 44.6467C295.683 44.6467 297.411 44.9962 297.411 48.3438C297.411 51.6914 297.411 101.538 297.411 105.125C297.411 108.712 294.396 108.987 292.871 108.987C291.363 109.006 80.4237 109.006 77.0965 109.006Z" fill="#00A9A2"/>
<path opacity="0.5" d="M74.8169 103.249V49.981C74.8169 47.038 76.0118 46.0264 79.5596 46.0264H292.025C294.084 46.0264 295.94 46.3391 295.94 50.0178V103.672C295.94 105.051 295.591 106.063 294.874 106.744C293.882 107.7 292.466 107.7 291.547 107.7H291.382H79.2287C74.8169 107.719 74.8169 104.352 74.8169 103.249ZM294.01 50.5512C294.01 48.1784 293.367 48.1784 291.786 48.1784H79.7802C77.0412 48.1784 76.7471 48.6567 76.7471 50.5144V102.771C76.7471 104.573 77.1882 105.603 79.4493 105.603H291.308C292.062 105.603 292.926 105.603 293.44 105.125C293.808 104.757 293.992 104.113 293.992 103.194V50.5512H294.01Z" fill="#BCBCBC"/>
<path d="M75.2582 103.083V50.1649C75.2582 47.4058 76.3244 46.5229 79.6516 46.5229H291.915C293.514 46.5229 295.481 46.5229 295.481 50.2017V103.506C295.481 104.812 295.168 105.732 294.525 106.357C293.624 107.222 292.356 107.222 291.437 107.203H291.271H79.3207C75.681 107.24 75.2582 104.867 75.2582 103.083ZM294.47 50.2017C294.47 47.5162 293.514 47.5162 291.915 47.5162H79.6516C76.7104 47.5162 76.2692 48.1048 76.2692 50.1649V103.083C76.2692 104.978 76.7839 106.229 79.3207 106.229H291.437C292.227 106.229 293.201 106.229 293.808 105.658C294.249 105.235 294.47 104.518 294.47 103.506V50.2017Z" fill="#232020"/>
<path d="M127.262 82.5744C127.152 78.4542 127.042 73.6535 127.097 68.0434H126.931C125.81 72.789 124.321 78.1967 123.145 82.1513L119.578 94.6958H112.042L108.99 82.2065C108.089 78.307 106.968 72.9545 106.159 68.0434H106.067C105.847 73.1201 105.644 78.4542 105.479 82.5744L104.946 95.4499H96.0856L98.2731 59.4536H111.251L113.659 69.1286C114.615 73.1384 115.681 77.9392 116.435 82.3169H116.656C117.667 77.9392 118.843 72.8625 119.909 69.0735L122.575 59.4536H135.277L137.097 95.4499H127.704L127.262 82.5744Z" fill="#FF7F2A"/>
<path d="M152.483 87.1176L150.461 95.4499H140.479L150.939 59.4536H163.752L174.487 95.4499H164.083L161.766 87.1176H152.483ZM160.443 79.9625L158.788 73.5063C158.255 71.483 157.557 68.5401 157.024 66.4064H156.913C156.38 68.5401 155.847 71.5382 155.314 73.5615L153.77 79.9809H160.443V79.9625Z" fill="#FF7F2A"/>
<path d="M179.083 59.9319C181.803 59.5088 185.921 59.1777 190.719 59.1777C196.215 59.1777 200.167 59.9319 202.888 61.9552C205.186 63.7209 206.454 66.2777 206.454 69.8092C206.454 74.2973 203.09 77.4978 200.259 78.5094V78.7301C202.667 79.7418 203.936 82.041 204.855 85.1311C205.976 88.8098 207.153 94.052 207.851 95.4499H197.98C197.447 94.3831 196.546 91.6056 195.48 87.1728C194.524 82.8503 193.182 81.9306 190.186 81.9306H188.642V95.4499H179.083V59.9319ZM188.642 75.033H191.142C194.763 75.033 196.859 73.212 196.859 70.545C196.859 67.8227 195.094 66.3328 191.895 66.2777C190.075 66.2777 189.12 66.388 188.642 66.4984V75.033Z" fill="#FF7F2A"/>
<path d="M238.569 94.5303C237.172 95.174 233.826 96.0202 229.488 96.0202C216.032 96.0202 210.112 87.5775 210.112 78.0128C210.112 65.3028 219.396 58.8467 230.131 58.8467C234.304 58.8467 237.649 59.6376 239.157 60.4469L237.282 68.0251C235.683 67.3813 233.495 66.7376 230.609 66.7376C225.057 66.7376 220.26 69.9932 220.26 77.3691C220.26 83.9356 224.157 88.0006 230.774 88.0006C233.127 88.0006 235.738 87.5223 237.227 86.9337L238.569 94.5303Z" fill="#FF7F2A"/>
<path d="M253.422 59.4536V72.7522H265.113V59.4536H274.727V95.4499H265.113V81.1948H253.422V95.4499H243.752V59.4536H253.422Z" fill="#FF7F2A"/>
<path d="M310.113 33.206C310.371 31.9552 310.408 30.6677 310.224 29.3985C309.966 27.7431 309.194 25.352 308.055 24.0828C305.646 21.3973 301.547 21.8388 300.058 25.4255C299.047 27.8351 298.974 30.5205 298.018 32.9485C295.518 39.2575 287.062 40.8945 281.639 37.4549C279.525 36.1122 277.558 34.1073 275.995 32.1576C275.995 32.1576 273.367 38.301 278.238 42.5132C280.977 44.8859 284.488 46.3574 288.018 46.9277C292.301 47.6266 297.264 47.4795 301.29 45.6585C306.29 43.4145 309.121 38.1355 310.113 33.206Z" fill="#978F89"/>
<path d="M293.827 43.2675C302.264 41.4282 304.213 35.0824 304.654 29.1596C304.948 25.3154 306.235 23.8439 307.154 23.2553C306.511 22.7954 305.794 22.5011 305.077 22.4092C304.047 22.9426 303.018 24.0462 302.724 26.3822C302.099 31.3853 301.474 39.4601 293.404 41.1523C287.816 42.3295 284.452 40.3062 281.621 37.4368C279.507 36.094 277.558 34.1075 276.014 32.1578C276.014 32.1578 275.959 32.2865 275.885 32.4889C277.907 38.2829 285.849 44.9965 293.827 43.2675Z" fill="#3A3835"/>
<path d="M292.816 39.5336C298.22 38.0805 299.727 34.1995 300.297 28.9389C300.683 25.3889 301.621 23.6599 302.411 22.7954C301.437 23.2736 300.591 24.1566 300.058 25.4073C299.047 27.8169 298.974 30.5023 298.018 32.9303C296.051 37.8966 290.389 39.9567 285.426 38.945C287.356 39.8647 289.819 40.3429 292.816 39.5336Z" fill="#E0D8D3"/>
<path d="M310.205 29.3989C310.058 28.4424 309.727 27.2101 309.25 26.1064C308.477 26.7686 307.613 28.1849 306.823 30.9808C305.279 36.4437 302.687 45.4381 292.099 45.3646C282.834 45.291 277.595 39.7729 275.334 34.7147C275.242 35.3952 275.223 36.1677 275.297 36.9955C277.301 43.7091 287.025 48.234 296.051 46.1003C305.242 43.9115 306.749 37.7128 308.625 34.0709C309.213 32.9305 309.783 32.2683 310.261 31.9188C310.352 31.0911 310.334 30.245 310.205 29.3989Z" fill="#E0D8D3"/>
<path d="M277.025 4.67769C277.668 7.43674 273.826 9.75433 271.951 10.1958C270.076 10.6372 268.017 8.76108 267.374 6.00204C266.731 3.243 267.723 0.64948 269.617 0.208034C271.492 -0.233413 276.381 1.91865 277.025 4.67769Z" fill="#867C76"/>
<path d="M272.025 4.56746C272.484 6.70112 271.951 8.65082 270.848 8.94512C269.745 9.22102 268.477 7.73115 268.017 5.5975C267.558 3.46384 268.091 1.51411 269.194 1.21981C270.315 0.925511 271.565 2.4338 272.025 4.56746Z" fill="#E0D8D3"/>
<path d="M282.576 4.67769C281.933 7.43674 285.775 9.75433 287.65 10.1958C289.525 10.6372 291.584 8.76108 292.227 6.00204C292.871 3.243 291.878 0.64948 289.984 0.208034C288.109 -0.233413 283.22 1.91865 282.576 4.67769Z" fill="#867C76"/>
<path d="M287.576 4.56746C287.117 6.70112 287.65 8.65082 288.753 8.94512C289.856 9.22102 291.124 7.73115 291.584 5.5975C292.043 3.46384 291.51 1.51411 290.407 1.21981C289.286 0.925511 288.018 2.4338 287.576 4.56746Z" fill="#E0D8D3"/>
<path d="M278.238 31.9553L268.551 31.7529L272.172 43.6536C267.043 44.6285 267.227 46.4862 267.227 46.8357C267.227 47.5898 269.139 48.0313 271.143 48.0313C273.146 48.0313 276.694 47.5898 276.694 46.8357L278.238 31.9553Z" fill="#867C76"/>
<path d="M268.036 47.5896C267.999 47.5896 267.944 47.5528 267.944 47.516C267.797 46.7803 268.422 46.1549 268.459 46.1365C268.495 46.0997 268.551 46.0997 268.587 46.1365C268.624 46.1733 268.624 46.2285 268.587 46.2652C268.587 46.2652 268.018 46.8355 268.128 47.4792C268.146 47.5344 268.109 47.5712 268.036 47.5896C268.054 47.5896 268.054 47.5896 268.036 47.5896Z" fill="#5B514D"/>
<path d="M269.341 47.884C269.304 47.884 269.249 47.8472 269.249 47.8104C269.102 47.0747 269.727 46.4493 269.764 46.4309C269.801 46.3941 269.856 46.3941 269.892 46.4309C269.929 46.4677 269.929 46.5229 269.892 46.5597C269.892 46.5597 269.323 47.1299 269.433 47.7736C269.433 47.8288 269.414 47.8656 269.341 47.884Z" fill="#5B514D"/>
<path d="M270.628 48.1231C270.591 48.1231 270.536 48.0863 270.536 48.0495C270.407 47.3873 270.959 46.8355 270.995 46.8171C271.032 46.7804 271.087 46.7804 271.124 46.8171C271.161 46.8539 271.161 46.9091 271.124 46.9459C271.124 46.9459 270.628 47.4425 270.72 47.9943C270.72 48.0495 270.683 48.1047 270.628 48.1231Z" fill="#5B514D"/>
<path d="M282.08 31.9553L291.786 31.7529L288.165 43.6536C293.293 44.6285 293.11 46.4862 293.11 46.8357C293.11 47.5898 291.198 48.0313 289.194 48.0313C287.19 48.0313 283.624 47.5898 283.624 46.8357L282.08 31.9553Z" fill="#867C76"/>
<path d="M292.282 47.5896C292.319 47.5896 292.374 47.5528 292.374 47.516C292.521 46.7803 291.896 46.1549 291.86 46.1365C291.823 46.0997 291.768 46.0997 291.731 46.1365C291.694 46.1733 291.694 46.2285 291.731 46.2652C291.731 46.2652 292.301 46.8355 292.191 47.4792C292.172 47.5344 292.209 47.5712 292.282 47.5896C292.264 47.5896 292.264 47.5896 292.282 47.5896Z" fill="#5B514D"/>
<path d="M290.977 47.884C291.014 47.884 291.069 47.8472 291.069 47.8104C291.216 47.0747 290.591 46.4493 290.554 46.4309C290.518 46.3941 290.463 46.3941 290.426 46.4309C290.389 46.4677 290.389 46.5229 290.426 46.5597C290.426 46.5597 290.996 47.1299 290.885 47.7736C290.885 47.8288 290.922 47.8656 290.977 47.884Z" fill="#5B514D"/>
<path d="M289.709 48.1231C289.746 48.1231 289.801 48.0863 289.801 48.0495C289.929 47.3873 289.378 46.8355 289.341 46.8171C289.304 46.7804 289.249 46.7804 289.213 46.8171C289.176 46.8539 289.176 46.9091 289.213 46.9459C289.213 46.9459 289.709 47.4425 289.617 47.9943C289.599 48.0495 289.635 48.1047 289.709 48.1231C289.69 48.1231 289.69 48.1231 289.709 48.1231Z" fill="#5B514D"/>
<path d="M261.859 30.5027C261.694 30.7418 261.4 30.8154 261.216 30.6866C261.032 30.5579 261.032 30.2636 261.197 30.0245C261.363 29.7854 261.657 29.7118 261.841 29.8405C262.025 29.9877 262.025 30.282 261.859 30.5027Z" fill="#3A3835"/>
<path d="M260.021 29.8037C259.8 30.098 259.433 30.2084 259.194 30.0244C258.955 29.8589 258.955 29.4726 259.175 29.1783C259.396 28.884 259.764 28.7737 260.003 28.9576C260.242 29.1231 260.242 29.5094 260.021 29.8037Z" fill="#3A3835"/>
<path d="M260.922 30.429C260.701 30.7233 260.315 30.8337 260.095 30.6681C259.856 30.5026 259.856 30.1163 260.076 29.8036C260.297 29.5093 260.664 29.3989 260.903 29.5645C261.142 29.7484 261.142 30.1347 260.922 30.429Z" fill="#3A3835"/>
<path d="M266.234 16.928C263.532 17.2407 260.499 23.0714 259.764 25.389C259.525 26.1248 258.33 28.7551 259.617 29.7667C260.15 30.1898 260.811 30.484 261.473 30.3553C262.521 30.1713 264.635 27.5043 265.113 26.9157C266.05 25.7385 266.933 24.5061 267.778 23.2738C268.109 22.7955 268.44 22.3173 268.771 21.8206C270.683 18.9696 268.128 16.7072 266.234 16.928Z" fill="#867C76"/>
<path d="M262.429 29.5275C262.282 29.9873 261.675 30.1897 261.069 29.9873C260.462 29.785 260.095 29.27 260.242 28.8102C260.389 28.3503 260.995 28.148 261.602 28.3503C262.19 28.5343 262.576 29.0677 262.429 29.5275Z" fill="#3A3835"/>
<path d="M298.459 30.5027C298.624 30.7418 298.918 30.8154 299.102 30.6866C299.286 30.5579 299.286 30.2636 299.121 30.0245C298.955 29.7854 298.661 29.7118 298.477 29.8405C298.293 29.9877 298.275 30.282 298.459 30.5027Z" fill="#3A3835"/>
<path d="M300.279 29.8037C300.499 30.098 300.867 30.2084 301.088 30.0244C301.327 29.8589 301.327 29.4726 301.106 29.1783C300.885 28.884 300.518 28.7737 300.279 28.9576C300.077 29.1231 300.058 29.5094 300.279 29.8037Z" fill="#3A3835"/>
<path d="M299.396 30.429C299.617 30.7233 300.003 30.8337 300.224 30.6681C300.463 30.5026 300.463 30.1163 300.242 29.8036C300.021 29.5093 299.635 29.3989 299.415 29.5645C299.194 29.73 299.157 30.1347 299.396 30.429Z" fill="#3A3835"/>
<path d="M294.084 16.928C296.786 17.2407 299.819 23.0714 300.554 25.389C300.793 26.1248 301.988 28.7551 300.702 29.7667C300.168 30.1898 299.507 30.484 298.845 30.3553C297.797 30.1713 295.683 27.5043 295.205 26.9157C294.268 25.7385 293.385 24.5061 292.54 23.2738C292.209 22.7955 291.878 22.3173 291.547 21.8206C289.635 18.9696 292.172 16.7072 294.084 16.928Z" fill="#867C76"/>
<path d="M297.889 29.5275C298.036 29.9873 298.643 30.1897 299.249 29.9873C299.856 29.785 300.224 29.27 300.077 28.8102C299.93 28.3503 299.323 28.148 298.716 28.3503C298.11 28.5343 297.742 29.0677 297.889 29.5275Z" fill="#3A3835"/>
<path d="M296.731 26.4743C296.731 37.2345 289.323 43.2308 280.168 43.2308C271.014 43.2308 263.606 37.2345 263.606 26.4743C263.606 15.714 271.014 1.45898 280.168 1.45898C289.304 1.45898 296.731 15.714 296.731 26.4743Z" fill="#978F89"/>
<path d="M292.65 33.8133C292.65 39.8832 287.062 43.2676 280.15 43.2676C273.256 43.2676 267.65 39.8832 267.65 33.8133C267.65 27.7434 273.238 19.687 280.15 19.687C287.062 19.687 292.65 27.725 292.65 33.8133Z" fill="#E0D8D3"/>
<path d="M287.264 4.38374C286.676 3.88711 286.051 3.42728 285.426 3.04102C284.801 3.92391 284.194 5.17466 283.973 6.90366C283.973 6.90366 285.223 5.02752 287.264 4.38374Z" fill="#E0D8D3"/>
<path d="M286.032 8.68763C286.032 8.68763 288.109 7.06901 290.205 7.52885C289.635 6.79311 289.029 6.09413 288.404 5.46875C287.576 6.09413 286.657 7.08739 286.032 8.68763Z" fill="#E0D8D3"/>
<path d="M280.389 8.41176C281.271 8.41176 282.944 5.50558 283.716 2.17633C282.576 1.71649 281.381 1.45898 280.168 1.45898C278.973 1.45898 277.797 1.69811 276.676 2.15795C277.392 4.51233 278.845 8.41176 280.389 8.41176Z" fill="#3A3835"/>
<path d="M276.345 6.90366C276.142 5.19305 275.517 3.92391 274.892 3.04102C274.267 3.42728 273.642 3.86872 273.054 4.38374C275.113 5.02752 276.345 6.90366 276.345 6.90366Z" fill="#E0D8D3"/>
<path d="M274.286 8.68746C273.661 7.10561 272.76 6.09397 271.896 5.4502C271.271 6.07558 270.664 6.77453 270.095 7.51027C272.209 7.06882 274.286 8.68746 274.286 8.68746Z" fill="#E0D8D3"/>
<path d="M276.142 7.49177C276.142 8.0068 275.72 8.42984 275.205 8.42984C274.69 8.42984 274.267 8.0068 274.267 7.49177C274.267 6.97675 274.69 6.55371 275.205 6.55371C275.738 6.55371 276.142 6.97675 276.142 7.49177Z" fill="#422B29"/>
<path d="M275.15 7.19762C275.15 7.36317 275.021 7.49193 274.856 7.49193C274.69 7.49193 274.562 7.36317 274.562 7.19762C274.562 7.03208 274.69 6.90332 274.856 6.90332C275.021 6.90332 275.15 7.03208 275.15 7.19762Z" fill="white"/>
<path d="M274.819 7.80452C274.819 7.8781 274.764 7.93329 274.69 7.93329C274.617 7.93329 274.562 7.8781 274.562 7.80452C274.562 7.73095 274.617 7.67578 274.69 7.67578C274.764 7.67578 274.819 7.73095 274.819 7.80452Z" fill="white"/>
<path d="M286.032 7.49177C286.032 8.0068 285.609 8.42984 285.095 8.42984C284.58 8.42984 284.157 8.0068 284.157 7.49177C284.157 6.97675 284.58 6.55371 285.095 6.55371C285.609 6.55371 286.032 6.97675 286.032 7.49177Z" fill="#422B29"/>
<path d="M285.04 7.19762C285.04 7.36317 284.911 7.49193 284.745 7.49193C284.58 7.49193 284.451 7.36317 284.451 7.19762C284.451 7.03208 284.58 6.90332 284.745 6.90332C284.911 6.90332 285.04 7.03208 285.04 7.19762Z" fill="white"/>
<path d="M284.709 7.80452C284.709 7.8781 284.653 7.93329 284.58 7.93329C284.506 7.93329 284.451 7.8781 284.451 7.80452C284.451 7.73095 284.506 7.67578 284.58 7.67578C284.653 7.67578 284.709 7.73095 284.709 7.80452Z" fill="white"/>
<path d="M280.187 18.8593C280.187 19.5215 279.893 19.4847 279.525 19.4847C279.157 19.4847 278.863 19.5215 278.863 18.8593V14.9599C278.863 14.2977 279.157 13.7827 279.525 13.7827C279.893 13.7827 280.187 14.3161 280.187 14.9599V18.8593Z" fill="#FFF6EC"/>
<path d="M281.51 18.8593C281.51 19.5215 281.216 19.4847 280.848 19.4847C280.481 19.4847 280.187 19.5215 280.187 18.8593V14.9599C280.187 14.2977 280.481 13.7827 280.848 13.7827C281.216 13.7827 281.51 14.3161 281.51 14.9599V18.8593Z" fill="#FFF6EC"/>
<path d="M280.37 14.3345C280.37 17.2958 277.76 19.687 274.543 19.687C271.326 19.687 268.716 17.2958 268.716 14.3345C268.716 11.3731 271.326 8.98193 274.543 8.98193C277.76 8.98193 280.37 11.3731 280.37 14.3345Z" fill="#E0D8D3"/>
<path d="M279.948 14.3345C279.948 17.2958 282.558 19.687 285.775 19.687C288.992 19.687 291.602 17.2958 291.602 14.3345C291.602 11.3731 288.992 8.98193 285.775 8.98193C282.558 8.98193 279.948 11.3731 279.948 14.3345Z" fill="#E0D8D3"/>
<path d="M285.279 10.5453C285.279 8.09893 282.944 6.84814 280.076 6.84814C277.209 6.84814 274.874 8.09893 274.874 10.5453C274.874 12.9916 277.209 16.2289 280.076 16.2289C282.962 16.2289 285.279 12.9916 285.279 10.5453Z" fill="#FFF6EC"/>
<path d="M281.97 14.2424C281.97 13.4331 281.124 13.3228 280.076 13.3228C279.029 13.3228 278.183 13.4515 278.183 14.2424C278.183 15.0518 279.029 16.1002 280.076 16.1002C281.124 16.1002 281.97 15.0334 281.97 14.2424Z" fill="#3A3835"/>
<path d="M282.742 14.4448C282.705 14.4448 282.668 14.4264 282.668 14.3896C282.65 14.3528 282.668 14.2976 282.723 14.2792C282.742 14.2792 284.268 13.6722 285.701 13.5986C285.757 13.5986 285.793 13.6354 285.793 13.6906C285.793 13.7458 285.757 13.7826 285.701 13.7826C284.286 13.8378 282.779 14.4264 282.779 14.4448C282.779 14.4448 282.76 14.4448 282.742 14.4448Z" fill="#1D1D1B"/>
<path d="M286.143 14.9047H286.124C284.58 14.5552 282.779 14.7391 282.76 14.7391C282.705 14.7391 282.668 14.7023 282.668 14.6655C282.668 14.6103 282.705 14.5736 282.742 14.5736C282.76 14.5736 284.58 14.3712 286.161 14.7391C286.216 14.7575 286.235 14.7943 286.235 14.8495C286.216 14.8679 286.179 14.9047 286.143 14.9047Z" fill="#1D1D1B"/>
<path d="M285.481 15.769C285.462 15.769 285.462 15.769 285.444 15.769C284.231 15.2172 282.723 15.0884 282.705 15.0884C282.65 15.0884 282.613 15.0332 282.631 14.9964C282.631 14.9413 282.687 14.9229 282.723 14.9229C282.742 14.9229 284.286 15.07 285.518 15.6218C285.554 15.6402 285.591 15.6954 285.554 15.7322C285.554 15.7506 285.518 15.769 285.481 15.769Z" fill="#1D1D1B"/>
<path d="M277.429 14.4448C277.411 14.4448 277.411 14.4448 277.392 14.4448C277.374 14.4448 275.885 13.8378 274.47 13.7826C274.414 13.7826 274.378 13.7458 274.378 13.6906C274.378 13.6354 274.414 13.617 274.47 13.5986C275.903 13.6538 277.448 14.2608 277.448 14.2792C277.484 14.2976 277.521 14.3528 277.503 14.3896C277.503 14.4264 277.466 14.4448 277.429 14.4448Z" fill="#1D1D1B"/>
<path d="M274.028 14.9045C273.992 14.9045 273.955 14.8677 273.937 14.831C273.918 14.7758 273.955 14.739 274.01 14.7206C275.591 14.3527 277.411 14.555 277.429 14.555C277.484 14.555 277.503 14.6102 277.503 14.647C277.503 14.7022 277.448 14.7206 277.411 14.7206C277.392 14.7206 275.591 14.5183 274.047 14.8861C274.047 14.9045 274.047 14.9045 274.028 14.9045Z" fill="#1D1D1B"/>
<path d="M274.69 15.7693C274.653 15.7693 274.617 15.7509 274.617 15.7141C274.598 15.6773 274.617 15.6221 274.653 15.6038C275.903 15.0335 277.448 14.9048 277.448 14.9048C277.503 14.9048 277.54 14.9416 277.54 14.9783C277.54 15.0335 277.503 15.0703 277.466 15.0703C277.448 15.0703 275.94 15.1991 274.727 15.7509C274.709 15.7693 274.709 15.7693 274.69 15.7693Z" fill="#1D1D1B"/>
<path d="M42.7946 107.811H23.5114L26.1952 132.807C24.9452 134.169 24.1731 135.64 24.1731 136.394C24.1731 137.976 27.629 139.264 31.8754 139.264C36.1218 139.264 39.5777 137.976 39.5777 136.394C39.5777 136.376 39.5777 136.339 39.5777 136.321L42.7946 107.811Z" fill="#212019"/>
<path d="M25.6253 138.27C25.5334 138.27 25.4415 138.197 25.4231 138.105C25.129 136.523 26.4525 135.217 26.5077 135.162C26.5812 135.088 26.7099 135.088 26.7834 135.162C26.8569 135.235 26.8569 135.364 26.7834 135.438C26.765 135.456 25.5518 136.652 25.8091 138.013C25.8275 138.123 25.754 138.233 25.6437 138.252C25.6621 138.27 25.6437 138.27 25.6253 138.27Z" fill="#1D1D1B"/>
<path d="M27.9231 138.878C27.8312 138.878 27.7393 138.804 27.7209 138.712C27.4268 137.13 28.7504 135.824 28.8055 135.769C28.879 135.695 29.0077 135.695 29.0812 135.769C29.1548 135.843 29.1548 135.971 29.0812 136.045C29.0629 136.063 27.8496 137.259 28.107 138.62C28.1254 138.73 28.0518 138.841 27.9415 138.859C27.9415 138.878 27.9231 138.878 27.9231 138.878Z" fill="#1D1D1B"/>
<path d="M30.7909 139.484C30.6989 139.484 30.607 139.411 30.5887 139.319C30.3313 137.921 31.5078 136.762 31.5445 136.707C31.6181 136.633 31.7468 136.633 31.8203 136.707C31.8938 136.781 31.8938 136.909 31.8203 136.983C31.8019 136.983 30.7541 138.05 30.9747 139.227C30.9931 139.337 30.9195 139.448 30.8092 139.466C30.8092 139.484 30.7909 139.484 30.7909 139.484Z" fill="#1D1D1B"/>
<path d="M47.1145 107.811H66.3978L63.7139 132.807C64.9639 134.169 65.736 135.64 65.736 136.394C65.736 137.976 62.2801 139.264 58.0337 139.264C53.7874 139.264 50.3314 137.976 50.3314 136.394C50.3314 136.376 50.3314 136.339 50.3314 136.321L47.1145 107.811Z" fill="#212019"/>
<path d="M64.2838 138.27C64.2654 138.27 64.2654 138.27 64.247 138.27C64.1367 138.252 64.0632 138.142 64.0815 138.031C64.3389 136.67 63.1257 135.474 63.1073 135.456C63.0337 135.382 63.0337 135.254 63.1073 135.18C63.1808 135.107 63.3095 135.107 63.383 135.18C63.4382 135.235 64.7617 136.541 64.4676 138.123C64.4492 138.215 64.3757 138.27 64.2838 138.27Z" fill="#1D1D1B"/>
<path d="M61.986 138.877C61.9676 138.877 61.9676 138.877 61.9493 138.877C61.839 138.859 61.7654 138.748 61.7838 138.638C62.0412 137.277 60.8279 136.081 60.8095 136.063C60.736 135.989 60.7176 135.861 60.8095 135.787C60.8831 135.714 61.0117 135.714 61.0853 135.787C61.1404 135.842 62.464 137.148 62.1698 138.73C62.1698 138.804 62.0779 138.877 61.986 138.877Z" fill="#1D1D1B"/>
<path d="M59.1183 139.484C59.0999 139.484 59.0999 139.484 59.0816 139.484C58.9713 139.466 58.8977 139.355 58.9161 139.245C59.1367 138.049 58.0705 137.001 58.0705 137.001C57.997 136.927 57.997 136.799 58.0705 136.725C58.1441 136.652 58.2727 136.652 58.3463 136.725C58.4014 136.78 59.5779 137.939 59.3022 139.337C59.3022 139.429 59.2102 139.484 59.1183 139.484Z" fill="#1D1D1B"/>
<path d="M6.01118 100.195C5.64353 100.692 5.03691 100.857 4.65087 100.581C4.26484 100.287 4.26484 99.6618 4.63249 99.1652C5.00014 98.6685 5.60677 98.503 5.9928 98.7789C6.36045 99.0732 6.37883 99.6986 6.01118 100.195Z" fill="#675357"/>
<path d="M2.11404 98.6871C1.63609 99.3125 0.864026 99.5332 0.367697 99.1654C-0.128631 98.7975 -0.128631 97.9882 0.330932 97.3628C0.808878 96.7374 1.58094 96.5167 2.07727 96.8846C2.5736 97.234 2.59198 98.0434 2.11404 98.6871Z" fill="#675357"/>
<path d="M4.02583 100.03C3.54788 100.674 2.75743 100.894 2.2611 100.527C1.76477 100.159 1.74639 99.331 2.22434 98.6872C2.70228 98.0434 3.49273 97.8227 3.98906 98.1906C4.48539 98.5768 4.50377 99.4045 4.02583 100.03Z" fill="#675357"/>
<path d="M15.3127 71.2809C9.55898 71.9246 3.1251 84.3587 1.56258 89.2882C1.06626 90.8517 -1.5073 96.4617 1.25008 98.6138C2.3898 99.4967 3.78687 100.122 5.18394 99.8829C7.42661 99.4783 11.9303 93.8314 12.923 92.5623C14.9083 90.0608 16.7833 87.4488 18.6032 84.8186C19.3201 83.7885 20.0186 82.7769 20.7172 81.7468C24.7797 75.6402 19.3569 70.821 15.3127 71.2809Z" fill="#212019"/>
<path d="M7.22439 98.0988C6.91189 99.0553 5.62511 99.5151 4.33834 99.0921C3.05156 98.6874 2.26111 97.5654 2.57361 96.5905C2.88612 95.6341 4.17289 95.1742 5.45967 95.5973C6.74645 96.0019 7.5369 97.1239 7.22439 98.0988Z" fill="#675357"/>
<path d="M83.8979 100.195C84.2656 100.692 84.8722 100.857 85.2583 100.581C85.6443 100.287 85.6443 99.6618 85.2766 99.1652C84.909 98.6685 84.3024 98.503 83.9163 98.7789C83.5487 99.0732 83.5303 99.6986 83.8979 100.195Z" fill="#675357"/>
<path d="M87.795 98.6871C88.273 99.3125 89.045 99.5332 89.5414 99.1654C90.0377 98.7975 90.0377 97.9882 89.5781 97.3628C89.1002 96.7374 88.3281 96.5167 87.8318 96.8846C87.3355 97.234 87.3171 98.0434 87.795 98.6871Z" fill="#675357"/>
<path d="M85.8833 100.03C86.3612 100.674 87.1517 100.894 87.648 100.527C88.1443 100.159 88.1627 99.331 87.6848 98.6872C87.2068 98.0434 86.4164 97.8227 85.92 98.1906C85.4237 98.5768 85.4053 99.4045 85.8833 100.03Z" fill="#675357"/>
<path d="M74.578 71.2809C80.3317 71.9246 86.7656 84.3587 88.3281 89.2882C88.8245 90.8517 91.398 96.4617 88.6406 98.6138C87.5009 99.4967 86.1039 100.122 84.7068 99.8829C82.4641 99.4783 77.9604 93.8314 76.9677 92.5623C74.9824 90.0608 73.1074 87.4488 71.2875 84.8186C70.5706 83.7885 69.8721 82.7769 69.1735 81.7468C65.1294 75.6402 70.5522 70.821 74.578 71.2809Z" fill="#212019"/>
<path d="M82.6847 98.0988C82.9972 99.0553 84.284 99.5151 85.5708 99.0921C86.8575 98.6874 87.648 97.5654 87.3355 96.5905C87.023 95.6341 85.7362 95.1742 84.4494 95.5973C83.1626 96.0019 82.3722 97.1239 82.6847 98.0988Z" fill="#675357"/>
<path d="M38.0702 41.52C38.3827 46.2472 35.607 50.2754 31.8753 50.5145C28.1437 50.7536 24.8716 47.1117 24.5775 42.3845C24.265 37.6574 27.0407 33.6292 30.7724 33.39C34.504 33.1509 37.7761 36.7929 38.0702 41.52Z" fill="#212019"/>
<path d="M35.5151 41.6858C35.6989 44.6288 33.9709 47.1303 31.6547 47.2775C29.3385 47.4246 27.2981 45.1622 27.1142 42.2376C26.9304 39.2946 28.64 36.7931 30.9746 36.646C33.2908 36.4988 35.3312 38.7612 35.5151 41.6858Z" fill="#421804"/>
<path d="M51.8388 41.52C51.5263 46.2472 54.3021 50.2754 58.0337 50.5145C61.7654 50.7536 65.0375 47.1117 65.3316 42.3845C65.6441 37.6574 62.85 33.6292 59.1367 33.39C55.405 33.1509 52.1329 36.7929 51.8388 41.52Z" fill="#212019"/>
<path d="M54.3939 41.6858C54.2101 44.6288 55.9197 47.1303 58.2542 47.2775C60.5704 47.4246 62.6109 45.1622 62.7947 42.2376C62.9785 39.2946 61.2506 36.7931 58.9344 36.646C56.5998 36.4988 54.5777 38.7612 54.3939 41.6858Z" fill="#421804"/>
<path d="M80.203 90.5024C80.203 113.402 64.4308 126.168 44.9637 126.168C25.4966 126.168 9.72437 113.402 9.72437 90.5024C9.72437 67.6024 25.4966 37.2529 44.9637 37.2529C64.4124 37.2713 80.203 67.6024 80.203 90.5024Z" fill="#212019"/>
<path d="M70.4602 106.854C70.4602 119.252 59.0447 126.168 44.9453 126.168C30.8459 126.168 19.4303 119.252 19.4303 106.854C19.4303 94.4571 30.8459 78.0132 44.9453 78.0132C59.0447 78.0316 70.4602 94.4571 70.4602 106.854Z" fill="#675357"/>
<path d="M40.1291 51.2134C40.1291 52.6298 38.9894 53.7702 37.574 53.7702C36.1585 53.7702 35.0188 52.6298 35.0188 51.2134C35.0188 49.7971 36.1585 48.6567 37.574 48.6567C38.9894 48.6567 40.1291 49.7971 40.1291 51.2134Z" fill="black"/>
<path d="M37.3902 50.4226C37.3902 50.8641 37.0409 51.2135 36.5997 51.2135C36.1585 51.2135 35.7909 50.8457 35.7909 50.4226C35.7909 49.9812 36.1402 49.6133 36.5997 49.6133C37.0225 49.6133 37.3902 49.9812 37.3902 50.4226Z" fill="white"/>
<path d="M36.4894 52.0966C36.4894 52.2989 36.324 52.446 36.1402 52.446C35.9563 52.446 35.7909 52.2805 35.7909 52.0966C35.7909 51.9126 35.9563 51.7471 36.1402 51.7471C36.324 51.7471 36.4894 51.9126 36.4894 52.0966Z" fill="white"/>
<path d="M54.9087 51.2134C54.9087 52.6298 53.769 53.7702 52.3535 53.7702C50.9381 53.7702 49.7983 52.6298 49.7983 51.2134C49.7983 49.7971 50.9381 48.6567 52.3535 48.6567C53.7506 48.6567 54.9087 49.7971 54.9087 51.2134Z" fill="black"/>
<path d="M52.1513 50.4226C52.1513 50.8641 51.7837 51.2135 51.3609 51.2135C50.9197 51.2135 50.5704 50.8457 50.5704 50.4226C50.5704 49.9812 50.9197 49.6133 51.3609 49.6133C51.8021 49.6133 52.1513 49.9812 52.1513 50.4226Z" fill="white"/>
<path d="M51.2505 52.0966C51.2505 52.2989 51.1035 52.446 50.9013 52.446C50.6991 52.446 50.552 52.2805 50.552 52.0966C50.552 51.9126 50.7174 51.7471 50.9013 51.7471C51.1035 51.7471 51.2505 51.9126 51.2505 52.0966Z" fill="white"/>
<path d="M56.3057 66.9954C56.3057 74.4632 51.2321 75.5852 44.9637 75.5852C38.6952 75.5852 33.6033 74.4448 33.6033 66.9954C33.6033 59.5276 38.6952 49.687 44.9637 49.687C51.2321 49.687 56.3057 59.5276 56.3057 66.9954Z" fill="#675357"/>
<path d="M40.9931 72.9733C38.971 72.9733 37.243 71.042 36.8754 68.3749C36.857 68.2646 36.9305 68.1726 37.0408 68.1542C37.1511 68.1358 37.243 68.2094 37.2614 68.3197C37.6107 70.7845 39.1732 72.5687 40.9931 72.5687C42.8129 72.5687 44.3754 70.7845 44.7247 68.3197C44.7431 68.2094 44.835 68.1358 44.9453 68.1542C45.0556 68.1726 45.1291 68.2646 45.1108 68.3749C44.7431 71.0236 43.0151 72.9733 40.9931 72.9733Z" fill="#1D1D1B"/>
<path d="M48.9159 72.9733C46.8938 72.9733 45.1659 71.042 44.7982 68.3749C44.7798 68.2646 44.8534 68.1726 44.9637 68.1542C45.074 68.1358 45.1659 68.2094 45.1843 68.3197C45.5335 70.7845 47.096 72.5687 48.9159 72.5687C50.7358 72.5687 52.2983 70.7845 52.6476 68.3197C52.6659 68.2094 52.7579 68.1358 52.8682 68.1542C52.9785 68.1726 53.052 68.2646 53.0336 68.3749C52.6659 71.0236 50.938 72.9733 48.9159 72.9733Z" fill="#1D1D1B"/>
<path d="M50.7726 66.4434C50.7726 68.9266 48.1622 69.2944 44.9453 69.2944C41.7284 69.2944 39.118 68.9266 39.118 66.4434C39.118 63.9603 41.7284 60.7046 44.9453 60.7046C48.1806 60.7046 50.7726 63.9787 50.7726 66.4434Z" fill="#160803"/>
<path d="M43.3093 66.8483C43.3093 67.676 42.9049 68.3197 42.4086 68.3197C41.9122 68.3197 41.5078 67.6576 41.5078 66.8483C41.5078 66.0206 41.9122 65.3584 42.4086 65.3584C42.9049 65.3768 43.3093 66.039 43.3093 66.8483Z" fill="black"/>
<path d="M48.4012 66.8483C48.4012 67.676 47.9968 68.3197 47.5005 68.3197C47.0041 68.3197 46.5997 67.6576 46.5997 66.8483C46.5997 66.0206 47.0041 65.3584 47.5005 65.3584C47.9968 65.3768 48.4012 66.039 48.4012 66.8483Z" fill="black"/>
<defs>
<linearGradient id="paint0_linear_175_10510" x1="184.246" y1="86.4664" x2="186.575" y2="86.4664" gradientUnits="userSpaceOnUse">
<stop stop-color="#383537"/>
<stop offset="0.0449" stop-color="#545152"/>
<stop offset="0.1083" stop-color="#747273"/>
<stop offset="0.1691" stop-color="#8C8A8A"/>
<stop offset="0.2254" stop-color="#9A9898"/>
<stop offset="0.2732" stop-color="#9F9D9D"/>
<stop offset="0.2968" stop-color="#989696"/>
<stop offset="0.4334" stop-color="#767374"/>
<stop offset="0.5721" stop-color="#5B5859"/>
<stop offset="0.7119" stop-color="#474546"/>
<stop offset="0.8536" stop-color="#3C393B"/>
<stop offset="1" stop-color="#383537"/>
</linearGradient>
<linearGradient id="paint1_linear_175_10510" x1="183.735" y1="36.8022" x2="187.061" y2="36.8022" gradientUnits="userSpaceOnUse">
<stop stop-color="#383537"/>
<stop offset="0.0449" stop-color="#545152"/>
<stop offset="0.1083" stop-color="#747273"/>
<stop offset="0.1691" stop-color="#8C8A8A"/>
<stop offset="0.2254" stop-color="#9A9898"/>
<stop offset="0.2732" stop-color="#9F9D9D"/>
<stop offset="0.2968" stop-color="#989696"/>
<stop offset="0.4334" stop-color="#767374"/>
<stop offset="0.5721" stop-color="#5B5859"/>
<stop offset="0.7119" stop-color="#474546"/>
<stop offset="0.8536" stop-color="#3C393B"/>
<stop offset="1" stop-color="#383537"/>
</linearGradient>
<radialGradient id="paint2_radial_175_10510" cx="0" cy="0" r="1" gradientUnits="userSpaceOnUse" gradientTransform="translate(185.437 32.1928) scale(1.99808 1.95421)">
<stop stop-color="#9F9D9D"/>
<stop offset="0.1421" stop-color="#8C8A8B"/>
<stop offset="0.5298" stop-color="#5F5C5D"/>
<stop offset="0.8284" stop-color="#434041"/>
<stop offset="1" stop-color="#383537"/>
</radialGradient>
<radialGradient id="paint3_radial_175_10510" cx="0" cy="0" r="1" gradientUnits="userSpaceOnUse" gradientTransform="translate(185.437 32.1928) scale(1.99808 1.95421)">
<stop stop-color="#9F9D9D"/>
<stop offset="0.1421" stop-color="#8C8A8B"/>
<stop offset="0.5298" stop-color="#5F5C5D"/>
<stop offset="0.8284" stop-color="#434041"/>
<stop offset="1" stop-color="#383537"/>
</radialGradient>
<radialGradient id="paint4_radial_175_10510" cx="0" cy="0" r="1" gradientUnits="userSpaceOnUse" gradientTransform="translate(185.115 31.9408) scale(1.48635 1.45372)">
<stop stop-color="#878585"/>
<stop offset="0.0118" stop-color="#838282"/>
<stop offset="0.1821" stop-color="#555353"/>
<stop offset="0.3447" stop-color="#302F2F"/>
<stop offset="0.4954" stop-color="#161515"/>
<stop offset="0.6299" stop-color="#060606"/>
<stop offset="0.7346"/>
</radialGradient>
<linearGradient id="paint5_linear_175_10510" x1="185.438" y1="38.9625" x2="185.438" y2="41.8686" gradientUnits="userSpaceOnUse">
<stop stop-color="#505050"/>
<stop offset="0.0277" stop-color="#626262"/>
<stop offset="0.107" stop-color="#929292"/>
<stop offset="0.1861" stop-color="#B9B9B9"/>
<stop offset="0.2637" stop-color="#D8D8D8"/>
<stop offset="0.3394" stop-color="#EDEDED"/>
<stop offset="0.4121" stop-color="#FBFBFB"/>
<stop offset="0.4788" stop-color="white"/>
<stop offset="0.5497" stop-color="#FAFAFA"/>
<stop offset="0.6291" stop-color="#EDEDED"/>
<stop offset="0.7125" stop-color="#D6D6D6"/>
<stop offset="0.7989" stop-color="#B7B7B7"/>
<stop offset="0.8873" stop-color="#8F8F8F"/>
<stop offset="0.9764" stop-color="#5E5E5E"/>
<stop offset="1" stop-color="#505050"/>
</linearGradient>
<linearGradient id="paint6_linear_175_10510" x1="185.445" y1="109.985" x2="185.445" y2="113.308" gradientUnits="userSpaceOnUse">
<stop stop-color="#505050"/>
<stop offset="0.2588" stop-color="#8C8C8C"/>
<stop offset="0.5025" stop-color="#BEBEBE"/>
<stop offset="0.7151" stop-color="#E1E1E1"/>
<stop offset="0.8881" stop-color="#F7F7F7"/>
<stop offset="1" stop-color="white"/>
</linearGradient>
<linearGradient id="paint7_linear_175_10510" x1="185.438" y1="34.658" x2="185.438" y2="33.8367" gradientUnits="userSpaceOnUse">
<stop stop-color="#505050"/>
<stop offset="0.2588" stop-color="#8C8C8C"/>
<stop offset="0.5025" stop-color="#BEBEBE"/>
<stop offset="0.7151" stop-color="#E1E1E1"/>
<stop offset="0.8881" stop-color="#F7F7F7"/>
<stop offset="1" stop-color="white"/>
</linearGradient>
<linearGradient id="paint8_linear_175_10510" x1="184.227" y1="36.8022" x2="185.408" y2="36.8022" gradientUnits="userSpaceOnUse">
<stop offset="0.1147"/>
<stop offset="0.208" stop-color="#242424"/>
<stop offset="0.3287" stop-color="#4C4C4C"/>
<stop offset="0.4244" stop-color="#656565"/>
<stop offset="0.4826" stop-color="#6E6E6E"/>
<stop offset="0.4886" stop-color="#6B6B6B"/>
<stop offset="0.6075" stop-color="#3D3D3D"/>
<stop offset="0.7131" stop-color="#1C1C1C"/>
<stop offset="0.8005" stop-color="#070707"/>
<stop offset="0.8588"/>
</linearGradient>
</defs>
</svg>
