<svg width="238" height="123" viewBox="0 0 238 123" fill="none" xmlns="http://www.w3.org/2000/svg">
<path d="M7.00403 122.01C7.00403 122.01 7.61063 122.01 8.73196 121.992C9.8533 121.974 11.4893 121.955 13.585 121.918C17.7762 121.863 23.7689 121.79 30.9565 121.734C34.5411 121.698 38.4382 121.661 42.5558 121.642C46.6735 121.624 51.0118 121.587 55.4971 121.569C59.9825 121.55 64.6333 121.532 69.3392 121.532C74.0635 121.532 78.843 121.514 83.6408 121.514C88.4203 121.514 93.2181 121.532 97.924 121.532C102.63 121.532 107.281 121.569 111.766 121.569C116.251 121.587 120.608 121.606 124.707 121.642C128.825 121.661 132.722 121.698 136.307 121.734C143.494 121.79 149.469 121.863 153.66 121.918C155.755 121.955 157.392 121.974 158.531 121.992C159.653 122.01 160.259 122.01 160.259 122.01C160.259 122.01 159.653 122.01 158.531 122.029C157.41 122.047 155.755 122.065 153.66 122.102C149.469 122.157 143.476 122.231 136.307 122.286C132.704 122.323 128.825 122.36 124.707 122.378C120.59 122.397 116.251 122.433 111.766 122.452C107.281 122.47 102.63 122.489 97.924 122.489C93.1997 122.489 88.4203 122.507 83.6408 122.507C78.843 122.507 74.0635 122.489 69.3392 122.489C64.6333 122.489 59.9825 122.452 55.4971 122.452C51.0118 122.433 46.6551 122.415 42.5558 122.378C38.4382 122.36 34.5411 122.323 30.9565 122.286C23.7689 122.231 17.7762 122.157 13.585 122.102C11.4893 122.065 9.8533 122.047 8.73196 122.029C7.61063 122.01 7.00403 122.01 7.00403 122.01Z" fill="#989898"/>
<path d="M86.6555 16.3574H84.3577V122.01H86.6555V16.3574Z" fill="url(#paint0_linear_175_11218)"/>
<path d="M86.968 21.655C86.2879 21.655 84.082 21.655 84.0268 21.655C83.9717 21.655 83.8614 21.6366 83.8614 21.4527C83.8614 20.625 83.8614 17.6084 83.8614 17.5348C83.8614 17.4613 83.8798 17.3877 84.0268 17.3877C84.1555 17.3877 86.3981 17.3877 86.9864 17.3877C87.1518 17.3877 87.1519 17.4797 87.1519 17.5716C87.1519 17.6452 87.1519 20.6066 87.1519 21.4343C87.1519 21.5814 87.1335 21.655 86.968 21.655Z" fill="url(#paint1_linear_175_11218)"/>
<path d="M87.5011 14.9043C87.5011 15.9895 86.6004 16.854 85.4974 16.854C84.3945 16.854 83.4937 15.9711 83.4937 14.9043C83.4937 13.8191 84.3945 12.9546 85.4974 12.9546C86.6187 12.9546 87.5011 13.8375 87.5011 14.9043Z" fill="url(#paint2_radial_175_11218)"/>
<path opacity="0.3" d="M85.5158 12.9546C85.479 12.9546 85.4239 12.9546 85.3871 12.9546C86.3062 13.0098 87.0232 13.7639 87.0232 14.6652C87.0232 15.6033 86.2327 16.3758 85.2768 16.3758C84.3577 16.3758 83.604 15.6768 83.5305 14.7756C83.5305 14.8123 83.5305 14.8491 83.5305 14.9043C83.5305 15.9895 84.4313 16.854 85.5342 16.854C86.6372 16.854 87.5379 15.9711 87.5379 14.9043C87.5011 13.8375 86.6188 12.9546 85.5158 12.9546Z" fill="url(#paint3_radial_175_11218)"/>
<path d="M85.2033 16.1551C86.0459 16.1551 86.7291 15.488 86.7291 14.6652C86.7291 13.8423 86.0459 13.1753 85.2033 13.1753C84.3606 13.1753 83.6776 13.8423 83.6776 14.6652C83.6776 15.488 84.3606 16.1551 85.2033 16.1551Z" fill="url(#paint4_radial_175_11218)"/>
<path d="M86.6555 21.6548H84.3577V24.561H86.6555V21.6548Z" fill="url(#paint5_linear_175_11218)"/>
<path d="M86.6555 92.6724H84.3577V96.7741H86.6555V92.6724Z" fill="url(#paint6_linear_175_11218)"/>
<path d="M86.6555 16.5596H84.3577V17.3873H86.6555V16.5596Z" fill="url(#paint7_linear_175_11218)"/>
<path opacity="0.8" d="M85.5158 17.3877H84.2658V21.655H85.5158V17.3877Z" fill="url(#paint8_linear_175_11218)"/>
<path d="M9.81653 87.9453C9.81653 86.5106 9.81653 33.114 9.81653 30.7964C9.81653 28.1661 10.6621 27.1177 14.0629 27.1177C17.0592 27.1177 155.645 27.1177 157.502 27.1177C159.358 27.1177 161.123 27.4672 161.123 30.8516C161.123 34.236 161.123 84.892 161.123 88.5155C161.123 92.1391 158.035 92.415 156.491 92.415C154.947 92.415 17.0776 92.415 13.6952 92.415C10.3312 92.415 9.81653 89.3616 9.81653 87.9453Z" fill="#49BBE0"/>
<path opacity="0.5" d="M161.142 88.5155C161.142 84.892 161.142 34.236 161.142 30.8516C161.142 27.4855 159.377 27.1177 157.52 27.1177C155.664 27.1177 17.0777 27.1177 14.0813 27.1177C10.6806 27.1177 9.83496 28.1845 9.83496 30.7964C9.83496 33.114 9.83496 86.5106 9.83496 87.9453C9.83496 89.38 10.3497 92.415 13.7137 92.415C17.0961 92.415 154.965 92.415 156.509 92.415C158.053 92.415 161.142 92.1207 161.142 88.5155ZM13.9343 91.7344C10.6254 91.7344 10.1291 88.7179 10.1291 87.3016C10.1291 85.8853 10.1291 33.3347 10.1291 31.0355C10.1291 28.4236 10.9747 27.3752 14.3019 27.3752C17.2431 27.3752 155.351 27.3752 157.171 27.3752C158.991 27.3752 160.719 27.7247 160.719 31.0723C160.719 34.4199 160.719 84.2666 160.719 87.8534C160.719 91.4401 157.704 91.716 156.178 91.716C154.671 91.7344 17.2615 91.7344 13.9343 91.7344Z" fill="#AFDCFB"/>
<path opacity="0.5" d="M11.6364 85.9774V32.7095C11.6364 29.7665 12.8312 28.7549 16.379 28.7549H155.314C157.373 28.7549 159.23 29.0676 159.23 32.7463V86.4004C159.23 87.78 158.88 88.7916 158.164 89.4722C157.171 90.4286 155.755 90.4286 154.836 90.4286H154.671H16.0298C11.6364 90.4286 11.6364 87.081 11.6364 85.9774ZM157.318 33.2613C157.318 30.8885 156.675 30.8885 155.094 30.8885H16.618C13.879 30.8885 13.5849 31.3668 13.5849 33.2245V85.4808C13.5849 87.2833 14.0261 88.3134 16.2871 88.3134H154.616C155.388 88.3134 156.233 88.3134 156.748 87.8351C157.116 87.4673 157.318 86.8235 157.318 85.9038V33.2613Z" fill="#BCBCBC"/>
<path d="M12.0959 85.8116V32.8748C12.0959 30.1158 13.1621 29.2329 16.4894 29.2329H155.222C156.822 29.2329 158.789 29.2329 158.789 32.9116V86.2347C158.789 87.5406 158.476 88.4603 157.833 89.0857C156.932 89.9502 155.664 89.9502 154.744 89.9502H154.579H16.1585C12.5188 89.9502 12.0959 87.5774 12.0959 85.8116ZM157.778 32.93C157.778 30.2446 156.822 30.2446 155.222 30.2446H16.4894C13.5482 30.2446 13.107 30.8332 13.107 32.8932V85.8116C13.107 87.7062 13.6217 88.957 16.1585 88.957H154.744C155.535 88.957 156.509 88.957 157.116 88.3868C157.557 87.9637 157.778 87.2463 157.778 86.2347V32.93Z" fill="#232020"/>
<path d="M62.9604 64.3463C62.8501 60.2262 62.7398 55.4254 62.795 49.8154H62.6295C61.5082 54.5793 60.0192 59.9687 58.8428 63.9233L55.2765 76.4677H47.7397L44.6882 63.9785C43.7875 60.079 42.6661 54.7449 41.8573 49.8154H41.747C41.5264 54.892 41.3242 60.2262 41.1587 64.3463L40.6257 77.2219H31.7653L33.9528 41.2256H46.9308L49.339 50.9006C50.2949 54.9104 51.3611 59.7112 52.1147 64.0888H52.3353C53.3464 59.7112 54.5228 54.6345 55.589 50.8454L58.2545 41.2256H70.9568L72.7767 77.2219H63.3832L62.9604 64.3463Z" fill="#0075A3"/>
<path d="M88.1813 68.8896L86.1592 77.2219H76.1775L86.6372 41.2256H99.4497L110.185 77.2219H99.7807L97.4828 68.8896H88.1813ZM96.1409 61.7345L94.4865 55.2783C93.9534 53.255 93.2549 50.312 92.7218 48.1784H92.6115C92.0784 50.312 91.5452 53.3102 91.0122 55.3335L89.468 61.7528H96.1409V61.7345Z" fill="#0075A3"/>
<path d="M117.777 77.2219V62.6909L106.398 41.2256H117.446L120.479 49.3372C121.49 51.8571 122.134 53.6597 122.943 55.9589H123.053C123.751 53.77 124.505 51.8019 125.351 49.3372L128.347 41.2256H139.174L127.373 62.323V77.2219H117.777Z" fill="#0075A3"/>
<path d="M203.697 116.51C196.381 116.51 190.535 114.653 186.307 110.974C180.388 105.842 179.892 99.0733 179.873 98.7974C179.8 97.5283 180.756 96.4247 182.024 96.3511C183.292 96.2775 184.377 97.234 184.469 98.5031C184.469 98.6135 184.929 103.745 189.377 107.553C193.384 110.974 199.396 112.39 207.227 111.747C219.083 110.772 224.763 104.463 227.447 99.3308C231.271 92.0286 230.775 83.9722 229.727 82.1512C229.083 81.0476 229.469 79.6313 230.572 79.0059C231.675 78.3621 233.091 78.7484 233.716 79.852C234.8 81.7282 235.297 85.131 235.039 88.9385C234.837 92.0102 234.047 96.6822 231.528 101.501C228.311 107.645 221.528 115.223 207.594 116.363C206.252 116.455 204.947 116.51 203.697 116.51Z" fill="#ECECEC"/>
<path d="M230.48 87.4853C231.969 88.129 233.55 88.0187 235.113 87.5221C235.15 85.885 235.039 84.34 234.782 83.0156C233.403 83.8249 231.804 84.2848 230.297 84.156C230.444 85.0389 230.517 86.1977 230.48 87.4853Z" fill="#5D5D5D"/>
<path d="M224.047 110.441C225.241 109.521 226.289 108.564 227.227 107.571C225.701 107.167 224.359 106.155 223.44 104.831C222.705 105.566 221.877 106.284 220.958 106.964C221.767 108.325 222.76 109.668 224.047 110.441Z" fill="#5D5D5D"/>
<path d="M211.528 115.076C211.565 115.315 211.62 115.554 211.675 115.793C213.183 115.499 214.58 115.131 215.903 114.708C215.039 113.586 214.58 111.985 214.23 110.385C213.293 110.698 212.282 110.955 211.216 111.176C211.197 112.482 211.307 113.806 211.528 115.076Z" fill="#5D5D5D"/>
<path d="M189.285 111.747C189.083 112.059 188.881 112.39 188.679 112.74C189.984 113.549 191.381 114.248 192.907 114.8C193.293 113.31 193.862 111.839 194.524 110.459C193.421 110.073 192.41 109.576 191.473 109.024C190.646 109.871 189.91 110.809 189.285 111.747Z" fill="#5D5D5D"/>
<path d="M204.966 111.857C203.624 111.894 202.337 111.875 201.105 111.783C200.903 113.328 200.738 114.873 200.756 116.382C201.712 116.455 202.686 116.492 203.697 116.492C204.157 116.492 204.635 116.474 205.113 116.455C204.892 114.947 204.818 113.383 204.966 111.857Z" fill="#5D5D5D"/>
<path d="M231.51 101.538C231.51 101.52 231.528 101.501 231.547 101.483C232.576 99.5148 233.311 97.5834 233.844 95.7625C232.245 95.8177 230.664 95.4498 229.377 94.5669C228.918 96.1487 228.293 97.749 227.466 99.3124C227.411 99.4044 227.355 99.4964 227.319 99.6067C228.495 100.655 229.966 101.299 231.51 101.538Z" fill="#5D5D5D"/>
<path d="M183.605 85.4253H161.693L164.745 113.843C163.311 115.388 162.447 117.062 162.447 117.908C162.447 119.711 166.362 121.164 171.197 121.164C176.031 121.164 179.947 119.711 179.947 117.908C179.947 117.89 179.947 117.853 179.947 117.816L183.605 85.4253Z" fill="#DBDBDB"/>
<path d="M180.572 112.225L181.123 107.406C176.325 108.399 171.509 109.466 167.042 111.526C171.528 112.207 176.05 112.262 180.572 112.225Z" fill="#666565"/>
<path d="M163.586 103.01L164.028 107.13C165.737 107.001 167.428 106.541 169.156 106.339C167.336 105.162 165.406 104.169 163.586 103.01Z" fill="#666565"/>
<path d="M164.101 120.042C163.991 120.042 163.899 119.969 163.881 119.858C163.55 118.056 165.057 116.584 165.112 116.511C165.204 116.419 165.351 116.437 165.425 116.511C165.517 116.602 165.517 116.75 165.425 116.842C165.406 116.86 164.028 118.221 164.322 119.766C164.34 119.895 164.267 120.005 164.138 120.042C164.119 120.042 164.12 120.042 164.101 120.042Z" fill="#1D1D1B"/>
<path d="M166.693 120.723C166.583 120.723 166.491 120.649 166.472 120.539C166.142 118.736 167.649 117.265 167.704 117.21C167.796 117.118 167.943 117.118 168.017 117.21C168.109 117.302 168.109 117.449 168.017 117.541C167.998 117.559 166.62 118.92 166.914 120.465C166.932 120.594 166.858 120.704 166.73 120.723C166.73 120.723 166.711 120.723 166.693 120.723Z" fill="#1D1D1B"/>
<path d="M169.947 121.422C169.836 121.422 169.745 121.348 169.726 121.238C169.432 119.637 170.774 118.332 170.829 118.258C170.921 118.166 171.068 118.166 171.142 118.258C171.234 118.35 171.234 118.497 171.142 118.571C171.123 118.589 169.928 119.785 170.167 121.127C170.186 121.256 170.112 121.366 169.984 121.385C169.984 121.422 169.965 121.422 169.947 121.422Z" fill="#1D1D1B"/>
<path d="M188.513 85.4253H210.425L207.374 113.843C208.807 115.388 209.671 117.062 209.671 117.908C209.671 119.711 205.756 121.164 200.921 121.164C196.087 121.164 192.171 119.711 192.171 117.908C192.171 117.89 192.171 117.853 192.171 117.816L188.513 85.4253Z" fill="#DBDBDB"/>
<path d="M191.528 112.225L190.976 107.406C195.774 108.399 200.59 109.466 205.057 111.526C200.59 112.207 196.068 112.262 191.528 112.225Z" fill="#666565"/>
<path d="M208.532 103.01L208.09 107.13C206.381 107.001 204.671 106.541 202.962 106.339C204.782 105.162 206.712 104.169 208.532 103.01Z" fill="#666565"/>
<path d="M208.017 120.042C208.127 120.042 208.219 119.969 208.238 119.858C208.569 118.056 207.061 116.584 207.006 116.511C206.914 116.419 206.767 116.437 206.694 116.511C206.602 116.602 206.62 116.75 206.694 116.842C206.712 116.86 208.091 118.221 207.796 119.766C207.778 119.895 207.852 120.005 207.98 120.042C207.98 120.042 207.999 120.042 208.017 120.042Z" fill="#1D1D1B"/>
<path d="M205.425 120.723C205.535 120.723 205.627 120.649 205.646 120.539C205.977 118.736 204.469 117.265 204.414 117.21C204.322 117.118 204.175 117.118 204.102 117.21C204.01 117.302 204.01 117.449 204.102 117.541C204.12 117.559 205.499 118.92 205.204 120.465C205.186 120.594 205.26 120.704 205.388 120.723C205.388 120.723 205.407 120.723 205.425 120.723Z" fill="#1D1D1B"/>
<path d="M202.153 121.422C202.263 121.422 202.355 121.348 202.374 121.238C202.668 119.637 201.326 118.332 201.271 118.258C201.179 118.166 201.032 118.166 200.958 118.258C200.866 118.35 200.866 118.497 200.958 118.571C200.976 118.589 202.171 119.785 201.932 121.127C201.914 121.256 201.988 121.366 202.116 121.385C202.135 121.422 202.153 121.422 202.153 121.422Z" fill="#1D1D1B"/>
<path d="M230.315 76.7802C230.738 77.3504 231.418 77.5343 231.859 77.2032C232.3 76.8722 232.3 76.1548 231.896 75.603C231.473 75.0328 230.793 74.8489 230.352 75.1616C229.911 75.4926 229.892 76.21 230.315 76.7802Z" fill="#FDB3B7"/>
<path d="M234.745 75.0511C235.278 75.7685 236.161 76.026 236.731 75.6029C237.282 75.1799 237.3 74.2786 236.767 73.5429C236.234 72.8255 235.333 72.568 234.782 72.991C234.212 73.4141 234.194 74.3338 234.745 75.0511Z" fill="#FDB3B7"/>
<path d="M232.576 76.5962C233.128 77.3319 234.028 77.571 234.58 77.1664C235.15 76.7433 235.15 75.8053 234.617 75.0879C234.065 74.3522 233.164 74.113 232.613 74.5361C232.043 74.9408 232.025 75.8604 232.576 76.5962Z" fill="#FDB3B7"/>
<path d="M219.727 43.911C226.271 44.6467 233.587 58.773 235.352 64.3647C235.922 66.1305 238.826 72.513 235.719 74.9594C234.433 75.971 232.852 76.6884 231.253 76.3941C228.697 75.9343 223.587 69.5149 222.447 68.0618C220.205 65.2108 218.072 62.2494 215.995 59.2696C215.186 58.1109 214.377 56.9521 213.587 55.7749C208.973 48.8773 215.131 43.396 219.727 43.911Z" fill="#DBDBDB"/>
<path d="M229.837 66.9211C230.444 63.7022 231.473 60.5753 232.337 57.4116C233.091 58.8463 233.734 60.2258 234.267 61.4766C233.072 63.5183 231.712 65.5232 229.837 66.9211Z" fill="#666565"/>
<path d="M235.499 64.769C235.683 65.3025 235.977 66.0566 236.253 66.9211C235.462 67.5833 234.708 68.3006 233.844 68.8708C234.249 67.4545 234.874 66.1118 235.499 64.769Z" fill="#666565"/>
<path d="M227.833 68.4111C227.686 69.993 227.3 71.5564 226.749 73.0463C226.142 72.4209 225.554 71.7772 225.021 71.1518C225.885 70.1769 226.767 69.1837 227.833 68.4111Z" fill="#666565"/>
<path d="M226.326 48.3438C227.833 50.0544 229.267 52.1144 230.536 54.2297C230.389 55.039 230.223 55.8483 230.002 56.6577C229.469 58.7361 228.789 61.0353 227.264 62.6356C226.822 59.2328 227.337 55.7932 226.951 52.3719C226.804 51.0108 226.583 49.6681 226.326 48.3438Z" fill="#666565"/>
<path d="M228.936 74.3892C229.286 75.4928 230.756 75.9895 232.208 75.5296C233.661 75.0514 234.561 73.7822 234.212 72.697C233.863 71.6118 232.392 71.0968 230.94 71.5566C229.488 72.0164 228.587 73.2856 228.936 74.3892Z" fill="#FDB3B7"/>
<path d="M141.803 76.7802C141.38 77.3504 140.7 77.5343 140.259 77.2032C139.818 76.8722 139.818 76.1548 140.241 75.603C140.663 75.0328 141.344 74.8489 141.785 75.1616C142.208 75.4926 142.226 76.21 141.803 76.7802Z" fill="#FDB3B7"/>
<path d="M137.373 75.0511C136.84 75.7685 135.957 76.026 135.388 75.6029C134.836 75.1799 134.818 74.2786 135.351 73.5429C135.884 72.8255 136.766 72.568 137.336 72.991C137.906 73.4141 137.906 74.3338 137.373 75.0511Z" fill="#FDB3B7"/>
<path d="M139.542 76.5962C138.991 77.3319 138.09 77.571 137.538 77.1664C136.968 76.7433 136.969 75.8053 137.502 75.0879C138.053 74.3522 138.954 74.113 139.505 74.5361C140.075 74.9408 140.094 75.8604 139.542 76.5962Z" fill="#FDB3B7"/>
<path d="M152.391 43.911C145.847 44.6467 138.531 58.773 136.766 64.3647C136.196 66.1305 133.292 72.513 136.399 74.9594C137.704 75.971 139.285 76.6884 140.866 76.3941C143.421 75.9343 148.531 69.5149 149.671 68.0618C151.913 65.2108 154.046 62.2494 156.123 59.2696C156.932 58.1109 157.741 56.9521 158.531 55.7749C163.127 48.8773 156.969 43.396 152.391 43.911Z" fill="#DBDBDB"/>
<path d="M142.281 66.9211C141.674 63.7022 140.645 60.5753 139.781 57.4116C139.027 58.8463 138.384 60.2258 137.851 61.4766C139.046 63.5183 140.388 65.5232 142.281 66.9211Z" fill="#666565"/>
<path d="M136.619 64.769C136.435 65.3025 136.141 66.0566 135.866 66.9211C136.656 67.5833 137.41 68.3006 138.274 68.8708C137.869 67.4545 137.244 66.1118 136.619 64.769Z" fill="#666565"/>
<path d="M144.285 68.4111C144.432 69.993 144.818 71.5564 145.369 73.0463C145.976 72.4209 146.564 71.7772 147.097 71.1518C146.233 70.1769 145.351 69.1837 144.285 68.4111Z" fill="#666565"/>
<path d="M145.792 48.3438C144.285 50.0544 142.851 52.1144 141.583 54.2297C141.73 55.039 141.913 55.8483 142.116 56.6577C142.649 58.7361 143.329 61.0353 144.855 62.6356C145.296 59.2328 144.781 55.7932 145.167 52.3719C145.314 51.0108 145.535 49.6681 145.792 48.3438Z" fill="#666565"/>
<path d="M143.182 74.3892C142.832 75.4928 141.362 75.9895 139.91 75.5296C138.457 75.0514 137.557 73.7822 137.906 72.697C138.255 71.6118 139.726 71.0968 141.178 71.5566C142.63 72.0164 143.531 73.2856 143.182 74.3892Z" fill="#FDB3B7"/>
<path d="M177.41 9.55173C177.741 14.7019 166.95 19.6498 162.888 19.9073C158.825 20.1648 163.09 0.759586 167.153 0.502075C171.197 0.244565 177.079 4.40152 177.41 9.55173Z" fill="#DBDBDB"/>
<path d="M171.399 13.2857C171.62 16.6701 167.226 16.9277 164.561 17.0932C161.895 17.2587 164.689 4.49358 167.355 4.30965C170.02 4.1441 171.178 9.9013 171.399 13.2857Z" fill="#FDB3B7"/>
<path d="M194.34 9.55173C194.01 14.7019 204.8 19.6498 208.863 19.9073C212.925 20.1648 208.66 0.759586 204.616 0.502075C200.554 0.244565 194.69 4.40152 194.34 9.55173Z" fill="#DBDBDB"/>
<path d="M200.352 13.2857C200.131 16.6701 204.524 16.9277 207.19 17.0932C209.874 17.2587 207.061 4.49358 204.396 4.30965C201.73 4.1441 200.572 9.9013 200.352 13.2857Z" fill="#FDB3B7"/>
<path d="M226.124 65.7625C226.124 91.7895 208.201 106.302 186.068 106.302C163.936 106.302 146.013 91.7895 146.013 65.7625C146.013 39.7356 163.936 5.24756 186.068 5.24756C208.201 5.24756 226.124 39.7356 226.124 65.7625Z" fill="#ECECEC"/>
<path d="M215.058 84.3399C215.058 98.4294 202.079 106.302 186.068 106.302C170.057 106.302 157.079 98.4478 157.079 84.3399C157.079 70.2504 170.057 51.5625 186.068 51.5625C202.079 51.5809 215.058 70.2504 215.058 84.3399Z" fill="white"/>
<path d="M180.59 18.1966C180.59 19.8152 179.285 21.1027 177.686 21.1027C176.087 21.1027 174.781 19.7968 174.781 18.1966C174.781 16.5779 176.087 15.272 177.686 15.272C179.285 15.2904 180.59 16.5963 180.59 18.1966Z" fill="#431828"/>
<path d="M177.465 17.2954C177.465 17.792 177.061 18.1967 176.564 18.1967C176.068 18.1967 175.664 17.792 175.664 17.2954C175.664 16.7988 176.068 16.3941 176.564 16.3941C177.061 16.3757 177.465 16.7988 177.465 17.2954Z" fill="white"/>
<path d="M176.454 19.2084C176.454 19.4291 176.27 19.5946 176.05 19.5946C175.829 19.5946 175.645 19.4107 175.645 19.2084C175.645 18.9876 175.829 18.8037 176.05 18.8037C176.27 18.8037 176.454 18.9876 176.454 19.2084Z" fill="white"/>
<path d="M197.374 18.1966C197.374 19.8152 196.068 21.1027 194.469 21.1027C192.851 21.1027 191.565 19.7968 191.565 18.1966C191.565 16.5779 192.87 15.272 194.469 15.272C196.068 15.2904 197.374 16.5963 197.374 18.1966Z" fill="#431828"/>
<path d="M194.248 17.2954C194.248 17.792 193.844 18.1967 193.348 18.1967C192.851 18.1967 192.447 17.792 192.447 17.2954C192.447 16.7988 192.851 16.3941 193.348 16.3941C193.844 16.3757 194.248 16.7988 194.248 17.2954Z" fill="white"/>
<path d="M193.219 19.2084C193.219 19.4291 193.035 19.5946 192.833 19.5946C192.612 19.5946 192.429 19.4107 192.429 19.2084C192.429 18.9876 192.612 18.8037 192.833 18.8037C193.054 18.8037 193.219 18.9876 193.219 19.2084Z" fill="white"/>
<path d="M196.804 35.7443C196.804 42.8075 191.987 43.8743 186.068 43.8743C180.131 43.8743 175.333 42.8075 175.333 35.7443C175.333 28.6812 180.149 19.374 186.068 19.374C191.987 19.374 196.804 28.6996 196.804 35.7443Z" fill="white"/>
<path d="M182.318 41.3909C180.406 41.3909 178.77 39.5516 178.421 37.0316C178.403 36.9213 178.476 36.8293 178.587 36.8109C178.678 36.7925 178.789 36.8661 178.807 36.9765C179.138 39.3125 180.609 41.0047 182.337 41.0047C184.065 41.0047 185.535 39.3125 185.866 36.9765C185.884 36.8661 185.976 36.8109 186.087 36.8109C186.197 36.8293 186.252 36.9213 186.252 37.0316C185.866 39.57 184.23 41.3909 182.318 41.3909Z" fill="#282825"/>
<path d="M189.8 41.3909C187.888 41.3909 186.252 39.5516 185.903 37.0316C185.884 36.9213 185.958 36.8293 186.068 36.8109C186.16 36.7925 186.27 36.8661 186.289 36.9765C186.62 39.3125 188.09 41.0047 189.818 41.0047C191.546 41.0047 193.017 39.3125 193.348 36.9765C193.366 36.8661 193.458 36.8109 193.568 36.8109C193.679 36.8293 193.752 36.9213 193.734 37.0316C193.366 39.57 191.712 41.3909 189.8 41.3909Z" fill="#282825"/>
<path d="M191.583 35.2109C191.583 34.0337 189.12 33.8682 186.068 33.8682C183.017 33.8682 180.554 34.0521 180.554 35.2109C180.554 36.3881 183.017 37.9332 186.068 37.9332C189.101 37.9332 191.583 36.3881 191.583 35.2109Z" fill="#FDB3B7"/>
<path d="M184.028 7.14209C184.028 7.14209 171.73 10.177 174.395 10.7104C177.061 11.2439 184.028 10.2138 184.028 10.2138V7.14209Z" fill="#666565"/>
<path d="M183.421 11.5381C183.421 11.5381 175.553 13.4878 177.263 13.8189C178.973 14.15 183.421 13.5062 183.421 13.5062V11.5381Z" fill="#666565"/>
<path d="M166.564 17.2587C166.564 17.2587 170.351 21.2685 173.678 23.1263C177.006 25.0024 167.575 24.4322 165.002 21.526C162.447 18.6383 165.645 16.339 166.564 17.2587Z" fill="#666565"/>
<path d="M170.774 13.2121C170.774 13.2121 171.73 15.916 172.906 17.5162C174.101 19.1165 169.726 16.8357 169.12 14.9043C168.513 12.973 170.517 12.5684 170.774 13.2121Z" fill="#666565"/>
<path d="M160.939 24.0092C160.939 24.0092 165.259 26.3636 168.605 27.0257C171.951 27.6879 163.789 29.8215 160.792 28.0558C157.814 26.3084 159.892 23.4758 160.939 24.0092Z" fill="#666565"/>
<path d="M157.686 30.1706C157.686 30.1706 161.785 32.3963 164.965 33.04C168.145 33.6654 160.388 35.6887 157.557 34.0333C154.708 32.3595 156.693 29.674 157.686 30.1706Z" fill="#666565"/>
<path d="M188.09 7.14209C188.09 7.14209 200.388 10.177 197.723 10.7104C195.057 11.2439 188.09 10.2138 188.09 10.2138V7.14209Z" fill="#666565"/>
<path d="M188.697 11.5381C188.697 11.5381 196.565 13.4878 194.855 13.8189C193.146 14.15 188.697 13.5062 188.697 13.5062V11.5381Z" fill="#666565"/>
<path d="M205.554 17.2587C205.554 17.2587 201.767 21.2685 198.44 23.1263C195.112 25.0024 204.543 24.4322 207.116 21.526C209.69 18.6383 206.491 16.339 205.554 17.2587Z" fill="#666565"/>
<path d="M201.363 13.2121C201.363 13.2121 200.407 15.916 199.23 17.5162C198.054 19.1165 202.41 16.8357 203.017 14.9043C203.624 12.973 201.601 12.5684 201.363 13.2121Z" fill="#666565"/>
<path d="M211.197 24.009C211.197 24.009 206.877 26.3634 203.532 27.0256C200.186 27.6878 208.348 29.8214 211.344 28.0556C214.341 26.2898 212.227 23.4756 211.197 24.009Z" fill="#666565"/>
<path d="M214.451 30.1706C214.451 30.1706 210.352 32.3963 207.171 33.04C203.991 33.6654 211.749 35.6887 214.58 34.0333C217.429 32.3595 215.444 29.674 214.451 30.1706Z" fill="#666565"/>
<path d="M167.41 37.7489C160.958 37.2891 154.855 38.6318 151.013 39.7722C150.204 41.9427 149.487 44.1499 148.88 46.3571C159.689 38.7973 176.822 38.4111 167.41 37.7489Z" fill="#666565"/>
<path d="M164.524 46.5045C170.02 44.2421 167.428 43.8926 167.428 43.8926C159.671 44.1869 152.024 48.307 147.686 51.1029C147.079 53.9355 146.619 56.7497 146.325 59.5088C153.458 51.4891 160.057 48.3438 164.524 46.5045Z" fill="#666565"/>
<path d="M204.727 37.7489C195.315 38.4111 212.429 38.7973 223.256 46.3571C222.631 44.1499 221.914 41.9427 221.124 39.7722C217.282 38.6318 211.179 37.2891 204.727 37.7489Z" fill="#666565"/>
<path d="M159.597 63.8864C164.101 60.0053 161.528 60.4835 161.528 60.4835C155.149 62.8563 149.763 68.0065 146.362 71.9428C146.656 74.4259 147.134 76.7803 147.759 79.0059C151.748 71.0599 156.325 66.719 159.597 63.8864Z" fill="#666565"/>
<path d="M207.613 46.5042C212.08 48.3435 218.679 51.4888 225.793 59.5084C225.517 56.7494 225.058 53.9168 224.433 51.1026C220.113 48.3067 212.447 44.1866 204.69 43.8923C204.708 43.8739 202.116 44.2234 207.613 46.5042Z" fill="#666565"/>
<path d="M163.77 51.5992C162.373 53.88 143.402 69.4777 148.899 62.948C148.899 62.948 154.083 55.9768 162.833 50.6795C162.833 50.6979 165.167 49.3183 163.77 51.5992ZM208.366 51.5992C206.969 49.3367 209.285 50.6979 209.285 50.6979C218.035 55.9952 223.219 62.9664 223.219 62.9664C228.734 69.4777 209.763 53.88 208.366 51.5992Z" fill="#666565"/>
<path d="M157.336 69.2387C153.127 73.175 150.608 78.9506 149.193 83.1811C150.13 85.4619 151.252 87.5956 152.539 89.5637C152.888 81.3417 155.204 76.0628 156.932 72.5864C159.211 68.0064 157.336 69.2387 157.336 69.2387Z" fill="#666565"/>
<path d="M210.591 60.4835C210.591 60.4835 208.035 60.0053 212.521 63.8864C215.793 66.719 220.388 71.0599 224.359 79.0243C224.984 76.7987 225.462 74.4443 225.756 71.9612C222.355 68.0249 216.969 62.8563 210.591 60.4835Z" fill="#666565"/>
<path d="M214.8 69.2386C214.8 69.2386 212.925 68.0062 215.205 72.5678C216.933 76.0442 219.249 81.3232 219.598 89.5451C220.885 87.577 222.006 85.4617 222.944 83.1625C221.528 78.9504 218.991 73.1748 214.8 69.2386Z" fill="#5D5D5D"/>
<path d="M162.833 50.698C154.083 55.9954 148.899 62.9666 148.899 62.9666C143.402 69.4779 162.355 53.8801 163.77 51.6177C165.167 49.3185 162.833 50.698 162.833 50.698Z" fill="#666565"/>
<path d="M223.238 62.9479C223.238 62.9479 218.054 55.9768 209.304 50.6794C209.304 50.6794 206.969 49.3183 208.385 51.5807C209.763 53.8799 228.734 69.4777 223.238 62.9479Z" fill="#666565"/>
<path d="M23.0335 34.3279C23.0335 34.3279 39.5962 22.0961 38.5116 19.8337C37.4271 17.5713 31.4895 20.9374 28.1623 25.2047C24.8534 29.4904 21.4526 34.7509 23.0335 34.3279Z" fill="#FDCE5A"/>
<path d="M38.3094 19.5024C38.3094 19.5024 34.2468 23.8249 32.0961 21.5625" stroke="#D9A235" stroke-miterlimit="10"/>
<path d="M33.4565 22.2251C33.4565 22.2251 32.1697 22.8321 30.4601 24.4691C29.8167 25.0761 29.1182 25.8302 28.4197 26.7683C25.8093 30.1711 23.1255 33.7027 23.1255 33.7027" stroke="#D9A235" stroke-miterlimit="10"/>
<path d="M35.9748 23.6411C35.9748 23.6411 32.4821 26.1242 30.0005 24.9103" stroke="#D9A235" stroke-miterlimit="10"/>
<path d="M22.1879 32.7462C22.1879 32.7462 33.8057 18.0314 31.5078 16.4679C29.21 14.9044 23.8423 19.5396 22.6842 23.9173C21.4894 28.295 20.7908 33.5188 22.1879 32.7462Z" fill="#FDCE5A"/>
<path d="M25.5335 19.043C25.5335 19.043 27.8129 19.8707 26.1953 24.0092C24.5776 28.1294 22.0592 32.3967 22.0592 32.3967" stroke="#D9A235" stroke-miterlimit="10"/>
<path d="M31.4895 16.4678C31.4895 16.4678 29.3571 21.4708 26.6917 22.2802" stroke="#D9A235" stroke-miterlimit="10"/>
<path d="M26.5078 20.0548C26.5078 20.0548 27.8865 18.5649 28.0703 16.9463" stroke="#D9A235" stroke-miterlimit="10"/>
<path d="M21.8755 35.7813C21.8755 35.7813 13.6953 54.6899 11.2504 54.1565C8.8055 53.6231 10.754 47.0565 14.1548 42.8628C17.5556 38.6507 21.9306 34.1442 21.8755 35.7813Z" fill="#FDCE5A"/>
<path d="M10.8827 54.0279C10.8827 54.0279 14.1732 49.0801 11.4893 47.5166" stroke="#D9A235" stroke-miterlimit="10"/>
<path d="M12.4269 48.6752C12.4269 48.6752 12.721 47.2772 13.9342 45.2539C14.3938 44.4998 14.9637 43.6353 15.699 42.734C18.4196 39.4232 21.2689 36.002 21.2689 36.002" stroke="#D9A235" stroke-miterlimit="10"/>
<path d="M14.3937 50.8088C14.3937 50.8088 16.0298 46.8542 14.2834 44.7021" stroke="#D9A235" stroke-miterlimit="10"/>
<path d="M20.1475 35.3214C20.1475 35.3214 8.43782 49.9628 6.39736 48.0682C4.3569 46.1737 7.64737 39.9014 11.6548 37.7862C15.6438 35.6525 20.5703 33.7764 20.1475 35.3214Z" fill="#FDCE5A"/>
<path d="M7.55542 41.6856C7.55542 41.6856 8.87897 43.7089 12.5371 41.2074C16.1952 38.7059 19.7798 35.2847 19.7798 35.2847" stroke="#D9A235" stroke-miterlimit="10"/>
<path d="M6.39734 48.0681C6.39734 48.0681 10.7907 44.8492 10.9746 42.0718" stroke="#D9A235" stroke-miterlimit="10"/>
<path d="M8.75027 42.4028C8.75027 42.4028 7.61054 44.095 6.06641 44.6285" stroke="#D9A235" stroke-miterlimit="10"/>
<path d="M12.5555 30.4658C12.5188 30.521 12.482 30.5761 12.482 30.6497C12.4636 30.8336 12.6107 30.9808 12.7762 31.0176C12.9232 31.036 13.8423 31.3119 14.7431 31.5878L14.8534 33.1696C14.8717 33.2984 14.9453 33.4271 15.074 33.4639C16.9122 34.0893 18.4012 34.1445 18.4564 34.1445C18.6402 34.1445 18.8056 33.9973 18.8056 33.8134C18.8056 33.6295 18.6585 33.4639 18.4747 33.4639C18.4563 33.4639 17.1328 33.4088 15.4968 32.8937L15.3865 31.2935C15.3865 31.1463 15.2762 31.036 15.1475 30.9992C13.7504 30.5761 12.96 30.337 12.8313 30.337C12.7394 30.3186 12.6291 30.3738 12.5555 30.4658Z" fill="#603B15"/>
<path d="M12.5924 32.8383C12.5556 32.8751 12.5372 32.9303 12.5189 32.9855C12.4821 33.1694 12.6108 33.3534 12.7946 33.3717L14.0262 33.6109C14.0446 34.1259 14.1365 35.2295 14.6145 35.9101C15.2579 36.8114 18.2174 36.0204 19.4491 35.6526C19.6329 35.5974 19.7248 35.4134 19.6697 35.2295C19.6145 35.0456 19.4307 34.9536 19.2468 35.0088C17.2983 35.5974 15.3865 35.8365 15.1659 35.5238C14.7431 34.9536 14.688 33.758 14.7064 33.3534C14.7064 33.1878 14.5961 33.0407 14.4306 33.0039L12.9233 32.7096C12.7946 32.6912 12.6659 32.7464 12.5924 32.8383Z" fill="#603B15"/>
<path d="M19.3939 37.5659C19.3204 37.6579 19.2468 37.7682 19.2285 37.897C19.0079 38.7247 19.7248 40.3801 19.8719 40.6928C19.9454 40.8584 20.1476 40.9319 20.313 40.8584C20.4785 40.7848 20.552 40.5825 20.4785 40.4169C20.1843 39.7548 19.7432 38.5224 19.8719 38.0809C19.9638 37.7498 20.8645 37.5291 21.4895 37.4923C21.6733 37.4739 21.8204 37.3268 21.802 37.1429C21.802 36.9589 21.6366 36.8118 21.4527 36.8302C21.1586 36.8302 19.8902 36.9221 19.3939 37.5659Z" fill="#603B15"/>
<path d="M15.7358 26.4559C15.7726 26.4007 15.8277 26.3639 15.9012 26.3455C16.0667 26.2903 16.2689 26.3823 16.324 26.5662C16.3792 26.695 16.8571 27.5411 17.3167 28.3504L18.8976 28.1113C19.0262 28.0929 19.1733 28.1481 19.2285 28.2584C20.2395 29.9139 20.6439 31.3486 20.6439 31.4037C20.6991 31.5877 20.5888 31.7716 20.4049 31.8268C20.2211 31.882 20.0373 31.7716 20.0005 31.5877C20.0005 31.5693 19.6513 30.3001 18.7689 28.8102L17.188 29.0494C17.0409 29.0677 16.9123 29.0126 16.8387 28.8838C16.1034 27.6147 15.699 26.8973 15.6623 26.7685C15.6439 26.6582 15.6806 26.5478 15.7358 26.4559Z" fill="#603B15"/>
<path d="M18.0704 25.9408C18.1071 25.904 18.1439 25.8672 18.1991 25.8488C18.3645 25.7753 18.5667 25.8488 18.6402 26.0144L19.1549 27.1732C19.6697 27.0628 20.7542 26.9157 21.5263 27.2284C22.5373 27.6514 22.4454 30.7047 22.3719 31.9923C22.3535 32.1762 22.2065 32.3234 22.0042 32.305C21.8204 32.2866 21.6734 32.1394 21.6917 31.9371C21.8204 29.9138 21.6182 28.0009 21.269 27.8353C20.6256 27.5594 19.4491 27.7618 19.0631 27.8721C18.8976 27.9089 18.7322 27.8353 18.677 27.6882L18.052 26.2903C17.9601 26.1799 17.9785 26.0512 18.0704 25.9408Z" fill="#603B15"/>
<path d="M24.1917 31.5141C24.2652 31.4221 24.3571 31.3302 24.4858 31.275C25.2395 30.8703 27.0042 31.2014 27.3535 31.275C27.5373 31.3118 27.6476 31.4957 27.6108 31.6796C27.5741 31.8636 27.3903 31.9739 27.2064 31.9372C26.4895 31.79 25.2027 31.6429 24.7799 31.8636C24.4858 32.0291 24.4674 32.9672 24.5593 33.5742C24.5961 33.7581 24.4674 33.9421 24.2836 33.9604C24.0998 33.9972 23.9159 33.8685 23.8976 33.6845C23.8792 33.4086 23.6954 32.1395 24.1917 31.5141Z" fill="#603B15"/>
<path d="M4.89004 18.8408C2.7209 17.1118 2.04074 17.59 1.43411 18.3625C0.827491 19.1351 0.515002 19.8892 2.68414 21.6182C4.85328 23.3472 8.23568 25.021 8.8423 24.2485C9.46731 23.476 7.07756 20.5698 4.89004 18.8408Z" fill="#FDD840"/>
<path d="M8.64006 22.0962C6.72827 20.588 6.15842 21.011 5.62532 21.6732C5.09223 22.3354 4.81648 23.0159 6.72826 24.5242C8.64004 26.0325 11.5813 27.504 12.1144 26.8234C12.6291 26.1428 10.5335 23.6045 8.64006 22.0962Z" fill="#FD991B"/>
<path d="M12.3534 25.2968C10.6806 23.9725 10.1658 24.3403 9.70628 24.9289C9.24672 25.5175 9.00776 26.0877 10.6622 27.4305C12.335 28.7548 14.9085 30.024 15.3681 29.4538C15.8461 28.8468 14.0078 26.6211 12.3534 25.2968Z" fill="#FDD840"/>
<path d="M15.4232 27.9641C13.971 26.8053 13.5298 27.1363 13.1254 27.633C12.721 28.1296 12.5188 28.6446 13.9526 29.8034C15.4048 30.9622 17.6475 32.0658 18.0519 31.5692C18.4747 31.0542 16.8754 29.1229 15.4232 27.9641Z" fill="#FD991B"/>
<path d="M17.4821 29.73C16.1586 28.6631 15.7358 28.9574 15.3681 29.4357C15.0005 29.9139 14.7983 30.3737 16.1402 31.4222C17.4637 32.489 19.541 33.5007 19.9086 33.0408C20.2763 32.5626 18.8241 30.7784 17.4821 29.73Z" fill="#FDD840"/>
<path d="M19.5777 31.5137C18.3645 30.5389 17.9784 30.8148 17.6476 31.2378C17.3167 31.6609 17.1328 32.1023 18.3461 33.0588C19.5593 34.0337 21.4527 34.9717 21.802 34.5303C22.1329 34.1072 20.791 32.4702 19.5777 31.5137Z" fill="#FD991B"/>
<path d="M21.1402 31.0723C20.5152 30.5757 19.5225 31.1091 18.7321 32.1023C17.9416 33.0956 17.6475 34.1808 18.2725 34.6774C18.8975 35.1741 20.3681 35.0269 21.1586 34.0337C21.949 33.0404 21.7652 31.5689 21.1402 31.0723Z" fill="#FDD840"/>
<path d="M23.4565 31.7532C22.5925 31.0542 21.2138 31.79 20.1108 33.1879C19.0079 34.5674 18.6035 36.0757 19.4675 36.7746C20.3314 37.4736 22.3903 37.2529 23.4748 35.8733C24.5778 34.4938 24.3204 32.4521 23.4565 31.7532Z" fill="#FD991B"/>
<path d="M27.5557 33.9603C26.2137 32.8935 23.9894 33.4269 22.6108 35.1743C21.2321 36.9217 21.1953 39.2025 22.5372 40.2693C23.8792 41.3361 26.1035 40.8027 27.4821 39.0553C28.8792 37.3263 28.916 35.0271 27.5557 33.9603Z" fill="#ED8115"/>
<path d="M27.5373 39.6993C27.4638 38.7612 26.177 38.1175 24.6696 38.2646C23.1622 38.3934 22.0225 39.2579 22.1144 40.1959C22.188 41.1156 23.4748 41.7778 24.9821 41.6306C26.4711 41.5019 27.6292 40.6374 27.5373 39.6993Z" fill="#F2F0E9"/>
<path d="M28.1256 38.9635C27.2064 39.0923 26.2873 37.9886 26.0851 36.4988C25.8829 35.0089 26.4528 33.7029 27.3903 33.5742C28.3094 33.4454 29.2285 34.549 29.4307 36.0389C29.633 37.5288 29.0447 38.8347 28.1256 38.9635Z" fill="#F2F0E9"/>
<path d="M25.8461 39.4597C25.5336 39.2206 25.0924 39.2758 24.8534 39.5701C24.6144 39.8828 24.6696 40.3242 24.9637 40.5633C25.2762 40.8024 25.7174 40.7473 25.9564 40.453C26.1953 40.1403 26.1402 39.6988 25.8461 39.4597Z" fill="#3F240D"/>
<path d="M25.5335 40.1953C25.4416 40.1217 25.2946 40.1401 25.221 40.2321C25.1475 40.3241 25.1659 40.4712 25.2578 40.5448C25.3497 40.6184 25.4968 40.6 25.5703 40.508C25.6438 40.3976 25.6438 40.2689 25.5335 40.1953Z" fill="white"/>
<path d="M25.0188 40.085C24.9821 40.0482 24.9085 40.0666 24.8902 40.1034C24.8534 40.1402 24.8718 40.1954 24.9085 40.2321C24.9453 40.2689 25.0188 40.2505 25.0372 40.2137C25.074 40.177 25.074 40.1218 25.0188 40.085Z" fill="white"/>
<path d="M28.3828 36.2594C28.0703 36.0203 27.6292 36.0571 27.3902 36.3698C27.1512 36.6825 27.188 37.1239 27.5005 37.363C27.813 37.6022 28.2542 37.547 28.4931 37.2527C28.7321 36.94 28.677 36.4985 28.3828 36.2594Z" fill="#3F240D"/>
<path d="M28.0704 36.9951C27.9785 36.9215 27.8314 36.9399 27.7579 37.0319C27.6844 37.1239 27.7028 37.271 27.7947 37.3446C27.8866 37.4182 28.0336 37.3998 28.1072 37.3078C28.1807 37.1974 28.1807 37.0687 28.0704 36.9951Z" fill="white"/>
<path d="M27.5556 36.9034C27.5188 36.8666 27.4453 36.885 27.4269 36.9217C27.3901 36.9585 27.4085 37.0321 27.4453 37.0505C27.4821 37.0873 27.5556 37.0689 27.5924 37.0321C27.6107 36.9953 27.6107 36.9217 27.5556 36.9034Z" fill="white"/>
<path d="M25.2763 33.7578C24.7064 33.298 23.4564 33.905 22.5005 35.1006C21.5446 36.3145 21.2321 37.6573 21.8204 38.1171C22.3902 38.577 23.6402 37.97 24.5961 36.7744C25.552 35.5604 25.8645 34.2177 25.2763 33.7578Z" fill="#FDD840"/>
<path d="M25.6071 34.3098C25.074 33.8868 23.9343 34.4386 23.0703 35.5422C22.188 36.6458 21.9122 37.8782 22.4453 38.3012C22.9784 38.7243 24.1181 38.1725 24.9821 37.0689C25.8645 35.9653 26.1402 34.7329 25.6071 34.3098Z" fill="#FD991B"/>
<path d="M23.144 35.5973C22.6844 36.1675 22.5557 36.8665 22.7395 37.3999C22.7212 37.3815 22.7028 37.3631 22.6844 37.3631C22.1329 36.9216 22.1329 35.9836 22.7211 35.2478C23.291 34.5305 24.2101 34.3098 24.7616 34.7512C24.78 34.7696 24.7984 34.788 24.8168 34.8064C24.2469 34.7328 23.5851 35.0271 23.144 35.5973Z" fill="#901306"/>
<path d="M26.0852 34.843C25.5704 34.4384 24.4859 34.9718 23.6587 36.0202C22.8131 37.0687 22.5557 38.2642 23.052 38.6689C23.5668 39.0736 25.2212 39 26.0668 37.9515C26.9124 36.8847 26.5999 35.2293 26.0852 34.843Z" fill="#FDD840"/>
<defs>
<linearGradient id="paint0_linear_175_11218" x1="84.3182" y1="69.1862" x2="86.6465" y2="69.1862" gradientUnits="userSpaceOnUse">
<stop stop-color="#383537"/>
<stop offset="0.0449" stop-color="#545152"/>
<stop offset="0.1083" stop-color="#747273"/>
<stop offset="0.1691" stop-color="#8C8A8A"/>
<stop offset="0.2254" stop-color="#9A9898"/>
<stop offset="0.2732" stop-color="#9F9D9D"/>
<stop offset="0.2968" stop-color="#989696"/>
<stop offset="0.4334" stop-color="#767374"/>
<stop offset="0.5721" stop-color="#5B5859"/>
<stop offset="0.7119" stop-color="#474546"/>
<stop offset="0.8536" stop-color="#3C393B"/>
<stop offset="1" stop-color="#383537"/>
</linearGradient>
<linearGradient id="paint1_linear_175_11218" x1="83.8064" y1="19.521" x2="87.1328" y2="19.521" gradientUnits="userSpaceOnUse">
<stop stop-color="#383537"/>
<stop offset="0.0449" stop-color="#545152"/>
<stop offset="0.1083" stop-color="#747273"/>
<stop offset="0.1691" stop-color="#8C8A8A"/>
<stop offset="0.2254" stop-color="#9A9898"/>
<stop offset="0.2732" stop-color="#9F9D9D"/>
<stop offset="0.2968" stop-color="#989696"/>
<stop offset="0.4334" stop-color="#767374"/>
<stop offset="0.5721" stop-color="#5B5859"/>
<stop offset="0.7119" stop-color="#474546"/>
<stop offset="0.8536" stop-color="#3C393B"/>
<stop offset="1" stop-color="#383537"/>
</linearGradient>
<radialGradient id="paint2_radial_175_11218" cx="0" cy="0" r="1" gradientUnits="userSpaceOnUse" gradientTransform="translate(85.5101 14.9099) scale(1.99807 1.95421)">
<stop stop-color="#9F9D9D"/>
<stop offset="0.1421" stop-color="#8C8A8B"/>
<stop offset="0.5298" stop-color="#5F5C5D"/>
<stop offset="0.8284" stop-color="#434041"/>
<stop offset="1" stop-color="#383537"/>
</radialGradient>
<radialGradient id="paint3_radial_175_11218" cx="0" cy="0" r="1" gradientUnits="userSpaceOnUse" gradientTransform="translate(85.5101 14.9099) scale(1.99807 1.95421)">
<stop stop-color="#9F9D9D"/>
<stop offset="0.1421" stop-color="#8C8A8B"/>
<stop offset="0.5298" stop-color="#5F5C5D"/>
<stop offset="0.8284" stop-color="#434041"/>
<stop offset="1" stop-color="#383537"/>
</radialGradient>
<radialGradient id="paint4_radial_175_11218" cx="0" cy="0" r="1" gradientUnits="userSpaceOnUse" gradientTransform="translate(85.1867 14.6589) scale(1.48726 1.4546)">
<stop stop-color="#878585"/>
<stop offset="0.0118" stop-color="#838282"/>
<stop offset="0.1821" stop-color="#555353"/>
<stop offset="0.3447" stop-color="#302F2F"/>
<stop offset="0.4954" stop-color="#161515"/>
<stop offset="0.6299" stop-color="#060606"/>
<stop offset="0.7346"/>
</radialGradient>
<linearGradient id="paint5_linear_175_11218" x1="85.5101" y1="21.6822" x2="85.5101" y2="24.5886" gradientUnits="userSpaceOnUse">
<stop stop-color="#505050"/>
<stop offset="0.0277" stop-color="#626262"/>
<stop offset="0.107" stop-color="#929292"/>
<stop offset="0.1861" stop-color="#B9B9B9"/>
<stop offset="0.2637" stop-color="#D8D8D8"/>
<stop offset="0.3394" stop-color="#EDEDED"/>
<stop offset="0.4121" stop-color="#FBFBFB"/>
<stop offset="0.4788" stop-color="white"/>
<stop offset="0.5497" stop-color="#FAFAFA"/>
<stop offset="0.6291" stop-color="#EDEDED"/>
<stop offset="0.7125" stop-color="#D6D6D6"/>
<stop offset="0.7989" stop-color="#B7B7B7"/>
<stop offset="0.8873" stop-color="#8F8F8F"/>
<stop offset="0.9764" stop-color="#5E5E5E"/>
<stop offset="1" stop-color="#505050"/>
</linearGradient>
<linearGradient id="paint6_linear_175_11218" x1="85.5164" y1="92.7009" x2="85.5164" y2="96.0253" gradientUnits="userSpaceOnUse">
<stop stop-color="#505050"/>
<stop offset="0.2588" stop-color="#8C8C8C"/>
<stop offset="0.5025" stop-color="#BEBEBE"/>
<stop offset="0.7151" stop-color="#E1E1E1"/>
<stop offset="0.8881" stop-color="#F7F7F7"/>
<stop offset="1" stop-color="white"/>
</linearGradient>
<linearGradient id="paint7_linear_175_11218" x1="85.5099" y1="17.3755" x2="85.5099" y2="16.5526" gradientUnits="userSpaceOnUse">
<stop stop-color="#505050"/>
<stop offset="0.2588" stop-color="#8C8C8C"/>
<stop offset="0.5025" stop-color="#BEBEBE"/>
<stop offset="0.7151" stop-color="#E1E1E1"/>
<stop offset="0.8881" stop-color="#F7F7F7"/>
<stop offset="1" stop-color="white"/>
</linearGradient>
<linearGradient id="paint8_linear_175_11218" x1="84.2989" y1="19.521" x2="85.4814" y2="19.521" gradientUnits="userSpaceOnUse">
<stop offset="0.1147"/>
<stop offset="0.208" stop-color="#242424"/>
<stop offset="0.3287" stop-color="#4C4C4C"/>
<stop offset="0.4244" stop-color="#656565"/>
<stop offset="0.4826" stop-color="#6E6E6E"/>
<stop offset="0.4886" stop-color="#6B6B6B"/>
<stop offset="0.6075" stop-color="#3D3D3D"/>
<stop offset="0.7131" stop-color="#1C1C1C"/>
<stop offset="0.8005" stop-color="#070707"/>
<stop offset="0.8588"/>
</linearGradient>
</defs>
</svg>
