<svg width="478" height="144" viewBox="0 0 478 144" fill="none" xmlns="http://www.w3.org/2000/svg">
<path d="M44.9995 140.996C44.9995 140.996 46.3966 140.978 49.0253 140.96C51.6724 140.941 55.5143 140.923 60.4225 140.886C70.2388 140.831 84.2646 140.757 101.085 140.702C109.504 140.665 118.622 140.629 128.254 140.61C137.886 140.592 148.07 140.555 158.585 140.537C169.1 140.518 179.964 140.5 191.012 140.5C202.06 140.5 213.273 140.481 224.487 140.481C235.7 140.481 246.932 140.5 257.98 140.5C269.009 140.5 279.892 140.537 290.406 140.537C300.921 140.555 311.087 140.573 320.737 140.61C330.37 140.629 339.488 140.665 347.907 140.702C364.745 140.757 378.753 140.831 388.587 140.886C393.496 140.923 397.337 140.941 399.966 140.96C402.595 140.978 403.992 140.996 403.992 140.996C403.992 140.996 402.595 140.996 399.966 141.015C397.337 141.033 393.496 141.052 388.587 141.088C378.753 141.144 364.745 141.217 347.907 141.272C339.488 141.309 330.37 141.346 320.737 141.364C311.087 141.383 300.921 141.42 290.406 141.438C279.892 141.456 269.027 141.475 257.98 141.475C246.932 141.475 235.7 141.493 224.487 141.493C213.273 141.493 202.06 141.475 191.012 141.475C179.982 141.475 169.1 141.438 158.585 141.438C148.07 141.42 137.886 141.401 128.254 141.364C118.603 141.346 109.504 141.309 101.085 141.272C84.2646 141.217 70.2388 141.144 60.4225 141.088C55.5143 141.052 51.6724 141.033 49.0253 141.015C46.3966 140.996 44.9995 140.996 44.9995 140.996Z" fill="#989898"/>
<path d="M237.52 35.3623H235.222V141.015H237.52V35.3623Z" fill="url(#paint0_linear_175_9987)"/>
<path d="M237.832 40.6413C237.152 40.6413 234.946 40.6413 234.891 40.6413C234.836 40.6413 234.726 40.6229 234.726 40.439C234.726 39.6113 234.726 36.5948 234.726 36.5212C234.726 36.4476 234.744 36.374 234.891 36.374C235.02 36.374 237.262 36.374 237.851 36.374C238.016 36.374 238.016 36.4844 238.016 36.5764C238.016 36.6499 238.016 39.6113 238.016 40.4574C238.016 40.5678 237.979 40.6413 237.832 40.6413Z" fill="url(#paint1_linear_175_9987)"/>
<path d="M238.365 33.8906C238.365 34.9759 237.465 35.8404 236.362 35.8404C235.259 35.8404 234.358 34.9759 234.358 33.8906C234.358 32.8054 235.259 31.9409 236.362 31.9409C237.465 31.9409 238.365 32.8238 238.365 33.8906Z" fill="url(#paint2_radial_175_9987)"/>
<path opacity="0.3" d="M236.362 31.9409C236.325 31.9409 236.288 31.9409 236.233 31.9409C237.152 32.0145 237.869 32.7503 237.869 33.6515C237.869 34.5896 237.079 35.3621 236.123 35.3621C235.204 35.3621 234.45 34.6632 234.376 33.7619C234.376 33.7987 234.376 33.8355 234.376 33.8723C234.376 34.9575 235.277 35.822 236.38 35.822C237.483 35.822 238.384 34.9575 238.384 33.8723C238.365 32.8238 237.465 31.9409 236.362 31.9409Z" fill="url(#paint3_radial_175_9987)"/>
<path d="M237.575 33.6515C237.575 34.4792 236.895 35.1414 236.049 35.1414C235.204 35.1414 234.523 34.4792 234.523 33.6515C234.523 32.8238 235.204 32.1616 236.049 32.1616C236.895 32.1616 237.575 32.8238 237.575 33.6515Z" fill="url(#paint4_radial_175_9987)"/>
<path d="M237.52 40.6411H235.222V43.5473H237.52V40.6411Z" fill="url(#paint5_linear_175_9987)"/>
<path d="M237.52 111.659H235.222V115.742H237.52V111.659Z" fill="url(#paint6_linear_175_9987)"/>
<path d="M237.52 35.5459H235.222V36.3736H237.52V35.5459Z" fill="url(#paint7_linear_175_9987)"/>
<path opacity="0.8" d="M236.362 36.374H235.112V40.6413H236.362V36.374Z" fill="url(#paint8_linear_175_9987)"/>
<path d="M68.7681 106.932C68.7681 105.497 68.7681 52.1003 68.7681 49.7827C68.7681 47.1524 69.6137 46.104 73.0145 46.104C76.0108 46.104 398.422 46.104 400.279 46.104C402.135 46.104 403.9 46.4535 403.9 49.8379C403.9 53.2223 403.9 103.878 403.9 107.502C403.9 111.125 400.812 111.401 399.268 111.401C397.724 111.401 76.0293 111.401 72.6469 111.401C69.2645 111.401 68.7681 108.366 68.7681 106.932Z" fill="#BEA574"/>
<path opacity="0.5" d="M403.9 107.502C403.9 103.878 403.9 53.2223 403.9 49.8379C403.9 46.4535 402.135 46.104 400.279 46.104C398.422 46.104 76.0108 46.104 73.0145 46.104C69.6137 46.104 68.7681 47.1524 68.7681 49.7827C68.7681 52.1003 68.7681 105.497 68.7681 106.932C68.7681 108.366 69.2829 111.401 72.6469 111.401C76.0293 111.401 397.724 111.401 399.268 111.401C400.83 111.401 403.9 111.107 403.9 107.502ZM72.8859 110.721C69.577 110.721 69.0807 107.704 69.0807 106.288C69.0807 104.872 69.0807 52.3211 69.0807 50.0219C69.0807 47.41 69.9262 46.3615 73.2535 46.3615C76.1947 46.3615 398.128 46.3615 399.948 46.3615C401.768 46.3615 403.496 46.711 403.496 50.0586C403.496 53.4063 403.496 103.253 403.496 106.84C403.496 110.426 400.481 110.702 398.955 110.702C397.448 110.721 76.1947 110.721 72.8859 110.721Z" fill="#00A9A2"/>
<path opacity="0.5" d="M70.588 104.964V51.6959C70.588 48.7529 71.7829 47.7412 75.3307 47.7412H398.091C400.15 47.7412 402.007 48.0539 402.007 51.7326V105.387C402.007 106.766 401.657 107.778 400.94 108.459C399.948 109.415 398.532 109.415 397.613 109.397H397.448H74.9998C70.588 109.415 70.588 106.067 70.588 104.964ZM400.077 52.2476C400.077 49.8749 399.433 49.8749 397.852 49.8749H75.5697C72.8307 49.8749 72.5366 50.3531 72.5366 52.2109V104.467C72.5366 106.27 72.9777 107.3 75.2388 107.3H397.393C398.165 107.3 399.01 107.3 399.525 106.821C399.893 106.454 400.077 105.81 400.077 104.89V52.2476Z" fill="#BCBCBC"/>
<path d="M71.0292 104.798V51.8797C71.0292 49.1207 72.0954 48.2378 75.4226 48.2378H397.981C399.58 48.2378 401.547 48.2378 401.547 51.9165V105.221C401.547 106.527 401.235 107.447 400.591 108.072C399.69 108.937 398.422 108.937 397.503 108.918H397.337H75.1101C71.452 108.937 71.0292 106.582 71.0292 104.798ZM400.536 51.9165C400.536 49.231 399.58 49.231 397.981 49.231H75.441C72.4998 49.231 72.0586 49.8196 72.0586 51.8797V104.798C72.0586 106.693 72.5733 107.943 75.1101 107.943H397.521C398.312 107.943 399.286 107.943 399.893 107.373C400.334 106.95 400.554 106.233 400.554 105.221V51.9165H400.536Z" fill="#232020"/>
<path d="M96.5992 98.1026V62.1063H107.978L113.695 73.1608C115.662 76.7476 117.758 81.5483 119.357 85.7605H119.522C118.989 80.9965 118.769 75.9934 118.769 70.5857V62.0879H127.574V98.0842H117.427L111.342 86.1283C109.32 82.2841 106.967 77.4649 105.257 73.0873H105.092C105.313 77.9432 105.404 83.3877 105.404 89.2185V98.0842H96.5992V98.1026Z" fill="#7B644A"/>
<path d="M168.089 79.7272C168.089 91.3152 161.159 98.691 150.037 98.691C138.879 98.691 132.739 90.3036 132.739 80.3158C132.739 69.8499 139.633 61.5176 150.625 61.5176C162.225 61.5176 168.089 70.1074 168.089 79.7272ZM142.96 80.1503C142.96 86.8824 145.901 91.0393 150.534 91.0393C155.184 91.0393 157.905 86.4961 157.905 80.0399C157.905 73.8413 155.129 69.1509 150.478 69.1509C145.883 69.1509 142.96 73.5286 142.96 80.1503Z" fill="#7B644A"/>
<path d="M181.361 98.1023L169.946 62.106H180.516L184.302 76.2691C185.479 80.2789 186.435 84.2335 187.299 88.8687H187.409C188.31 84.4358 189.321 80.2605 190.405 76.4162L194.302 62.106H204.56L192.758 98.1023H181.361Z" fill="#7B644A"/>
<path d="M231.012 83.5713H218.089V90.193H232.556V98.1023H208.42V62.106H231.803V69.96H218.089V75.7724H231.012V83.5713Z" fill="#7B644A"/>
<path d="M268.347 85.2267C268.237 81.1066 268.127 76.3058 268.182 70.6958H268.016C266.895 75.4597 265.406 80.8491 264.23 84.8037L260.645 97.3481H253.127L250.075 84.8589C249.174 80.9594 248.053 75.6253 247.244 70.6958H247.134C246.913 75.7724 246.711 81.1066 246.546 85.2267L246.012 98.1023H237.152L239.34 62.106H252.318L254.726 71.781C255.682 75.7908 256.748 80.5915 257.502 84.9692H257.722C258.733 80.5915 259.91 75.5149 260.976 71.7258L263.641 62.106H276.344L278.164 98.1023H268.77L268.347 85.2267Z" fill="#7B644A"/>
<path d="M284.12 62.5842C286.307 62.2164 291.05 61.8301 295.498 61.8301C300.627 61.8301 303.66 62.1428 306.491 63.5959C309.267 64.8834 311.344 67.4953 311.344 70.9717C311.344 74.025 309.69 76.9496 305.48 78.5499V78.6602C309.91 79.8926 312.521 83.1483 312.521 87.4156C312.521 90.7816 310.921 93.4487 308.513 95.2697C305.792 97.293 301.307 98.5253 293.623 98.5253C289.248 98.5253 286.105 98.2126 284.12 97.8816V62.5842ZM293.678 75.938H295.609C299.708 75.938 301.693 74.4849 301.693 72.2041C301.693 70.0704 300.094 68.7277 296.84 68.7277C295.241 68.7277 294.322 68.838 293.697 68.9484V75.938H293.678ZM293.678 91.315C294.377 91.4254 295.222 91.4254 296.454 91.4254C299.653 91.4254 302.373 90.1378 302.373 86.9925C302.373 83.9392 299.598 82.7804 295.976 82.7804H293.678V91.315Z" fill="#7B644A"/>
<path d="M340.407 83.5713H327.484V90.193H341.951V98.1023H317.815V62.106H341.197V69.96H327.484V75.7724H340.407V83.5713Z" fill="#7B644A"/>
<path d="M347.3 62.5842C350.021 62.1612 354.139 61.8301 358.936 61.8301C364.433 61.8301 368.385 62.5842 371.106 64.6075C373.403 66.3733 374.672 68.93 374.672 72.4616C374.672 76.9496 371.308 80.1501 368.477 81.1617V81.3825C370.885 82.3941 372.153 84.6933 373.073 87.7835C374.194 91.4622 375.37 96.7044 376.051 98.1023H366.179C365.646 97.0354 364.745 94.258 363.679 89.8251C362.723 85.5027 361.381 84.583 358.385 84.583H356.841V98.1023H347.282V62.5842H347.3ZM356.859 77.6854H359.359C362.981 77.6854 365.076 75.8644 365.076 73.1973C365.076 70.4751 363.311 68.9852 360.113 68.93C358.293 68.93 357.337 69.0404 356.859 69.1507V77.6854Z" fill="#7B644A"/>
<path d="M406.18 35.7299C406.988 32.8053 403.459 29.053 400.996 28.3357C399.654 27.9494 398.183 28.3725 397.007 29.0346C395.04 30.1383 393.22 32.4743 394.617 34.6263C395.977 36.7232 398.293 37.9739 400.775 38.0475C402.356 38.1027 404.966 38.0475 405.885 36.4841C405.996 36.2265 406.106 35.9874 406.18 35.7299Z" fill="#837267"/>
<path d="M405.021 37.4591C406.161 36.3371 404.525 33.7068 402.999 32.732C402.172 32.1985 401.088 32.0146 400.15 32.0146C398.588 31.9962 396.878 32.5848 397.393 33.9275C397.889 35.2335 399.194 36.4107 400.867 37.0912C401.933 37.5327 403.716 38.1765 404.654 37.6982C404.801 37.6246 404.911 37.5511 405.021 37.4591Z" fill="#382F28"/>
<path d="M451.033 35.7299C450.224 32.8053 453.772 29.053 456.217 28.3357C457.559 27.9494 459.029 28.3725 460.206 29.0346C462.173 30.1383 463.993 32.4743 462.595 34.6263C461.235 36.7232 458.919 37.9739 456.437 38.0475C454.856 38.1027 452.246 38.0475 451.327 36.4841C451.198 36.2265 451.106 35.9874 451.033 35.7299Z" fill="#837267"/>
<path d="M452.191 37.4591C451.051 36.3371 452.687 33.7068 454.213 32.732C455.04 32.1985 456.125 32.0146 457.062 32.0146C458.625 31.9962 460.334 32.5848 459.82 33.9275C459.323 35.2335 458 36.4107 456.327 37.0912C455.261 37.5327 453.478 38.1765 452.54 37.6982C452.393 37.6246 452.283 37.5511 452.191 37.4591Z" fill="#382F28"/>
<path d="M443.441 102.756C442.945 94.8835 442.228 87.0294 441.878 79.157C441.511 70.9534 441.253 62.1613 443.018 54.0865C443.735 50.794 446.382 42.3882 451.327 45.2392C454.268 46.9314 455.665 50.9412 456.915 53.9026C458.441 57.5445 459.617 61.3152 460.095 65.2514C461.217 74.393 458.772 83.5714 459.434 92.7131C461.198 117.048 450.831 121.223 450.647 121.168C450.647 121.168 459.838 124.516 461.198 129.04C462.118 132.094 458.331 131.965 456.731 132.517C454.967 133.124 452.173 134.356 450.739 133.069C448.257 130.825 448.423 128.323 444.856 128.47C444.599 128.489 445.169 129.004 445.187 129.004C445.647 129.445 446.125 129.868 446.529 130.383C446.952 130.898 447.467 131.928 447.007 132.554C445.297 134.89 442.411 130.641 441.603 129.408C441.272 128.893 440.849 128.323 440.702 127.734C439.103 121.242 443.864 109.341 443.441 102.756Z" fill="#574841"/>
<path d="M452.871 133.786C452.926 133.786 453 133.731 453.018 133.675C453.386 133.05 453.459 132.369 453.239 131.671C452.485 129.224 448.441 127.238 448.276 127.164C448.165 127.109 448.037 127.164 447.981 127.256C447.926 127.366 447.981 127.495 448.073 127.532C448.11 127.55 452.117 129.518 452.816 131.781C453 132.369 452.945 132.921 452.632 133.455C452.577 133.565 452.614 133.694 452.706 133.749C452.779 133.786 452.816 133.804 452.871 133.786Z" fill="#2C303A"/>
<path d="M456.456 132.738C456.511 132.719 456.584 132.682 456.603 132.627C456.97 132.002 457.044 131.321 456.823 130.622C456.07 128.176 452.026 126.189 451.86 126.116C451.75 126.061 451.621 126.116 451.566 126.226C451.511 126.337 451.566 126.465 451.658 126.521C451.695 126.539 455.702 128.507 456.401 130.769C456.584 131.358 456.529 131.91 456.217 132.443C456.162 132.535 456.198 132.682 456.29 132.738C456.364 132.738 456.401 132.738 456.456 132.738Z" fill="#2C303A"/>
<path d="M459.673 131.781C459.783 131.781 459.875 131.708 459.893 131.597C460.573 127.992 456.106 125.362 455.904 125.252C455.794 125.196 455.665 125.233 455.592 125.325C455.537 125.435 455.573 125.564 455.684 125.638C455.72 125.656 460.077 128.231 459.452 131.524C459.434 131.652 459.507 131.763 459.636 131.781C459.654 131.763 459.673 131.781 459.673 131.781Z" fill="#2C303A"/>
<path d="M413.753 102.756C414.249 94.8835 414.966 87.0294 415.316 79.157C415.665 70.9534 415.922 62.1613 414.176 54.0865C413.459 50.794 410.812 42.3882 405.867 45.2392C402.926 46.9314 401.529 50.9412 400.279 53.9026C398.753 57.5445 397.576 61.3152 397.099 65.2514C395.977 74.393 398.422 83.5714 397.76 92.7131C395.996 117.048 406.363 121.223 406.547 121.168C406.547 121.168 397.356 124.516 395.996 129.04C395.076 132.094 398.863 131.965 400.463 132.517C402.227 133.124 405.021 134.356 406.455 133.069C408.937 130.825 408.772 128.323 412.338 128.47C412.595 128.489 412.025 129.004 412.007 129.004C411.547 129.445 411.069 129.868 410.665 130.383C410.242 130.898 409.727 131.928 410.187 132.554C411.897 134.89 414.783 130.641 415.591 129.408C415.922 128.893 416.345 128.323 416.492 127.734C418.11 121.242 413.349 109.341 413.753 102.756Z" fill="#574841"/>
<path d="M404.341 133.786C404.286 133.786 404.213 133.731 404.194 133.675C403.827 133.05 403.753 132.369 403.974 131.671C404.727 129.224 408.771 127.238 408.937 127.164C409.047 127.109 409.176 127.164 409.231 127.256C409.286 127.366 409.231 127.495 409.139 127.532C409.102 127.55 405.095 129.518 404.396 131.781C404.213 132.369 404.268 132.921 404.58 133.455C404.635 133.565 404.599 133.694 404.507 133.749C404.433 133.786 404.378 133.804 404.341 133.786Z" fill="#2C303A"/>
<path d="M400.738 132.738C400.683 132.719 400.61 132.682 400.591 132.627C400.224 132.002 400.15 131.321 400.371 130.622C401.124 128.176 405.168 126.189 405.334 126.116C405.444 126.061 405.573 126.116 405.628 126.226C405.683 126.337 405.628 126.465 405.536 126.521C405.499 126.539 401.492 128.507 400.793 130.769C400.61 131.358 400.665 131.91 400.977 132.443C401.032 132.535 400.996 132.682 400.904 132.738C400.849 132.738 400.793 132.738 400.738 132.738Z" fill="#2C303A"/>
<path d="M397.521 131.781C397.411 131.781 397.319 131.708 397.301 131.597C396.621 127.992 401.106 125.362 401.29 125.252C401.4 125.196 401.529 125.233 401.602 125.325C401.657 125.435 401.621 125.564 401.529 125.638C401.492 125.656 397.135 128.231 397.76 131.524C397.779 131.652 397.705 131.763 397.576 131.781C397.558 131.763 397.54 131.781 397.521 131.781Z" fill="#2C303A"/>
<path d="M468.276 76.9681C468.276 101.376 450.518 114.969 428.606 114.969C406.694 114.969 388.937 101.376 388.937 76.9681C388.937 52.5597 406.694 20.2422 428.606 20.2422C450.5 20.2422 468.276 52.5597 468.276 76.9681Z" fill="#675951"/>
<path d="M455.371 94.8464C455.298 94.0739 455.996 87.3971 445.242 80.2052C444.801 79.9109 448.441 80.7569 449.783 81.4007C448.753 80.0028 441.253 74.4847 438.588 73.5834C438.147 73.4363 440.187 72.9581 440.886 73.0684C437.356 70.8428 433.349 69.3345 429.103 68.9482C429.103 68.9115 429.103 68.8931 429.103 68.8931C428.974 68.8931 428.845 68.9115 428.716 68.9299C428.588 68.9115 428.459 68.9115 428.331 68.8931C428.331 68.8931 428.331 68.9115 428.331 68.9482C424.066 69.3161 420.077 70.8244 416.547 73.0684C417.264 72.9581 419.286 73.4363 418.845 73.5834C416.18 74.4847 408.68 80.0028 407.65 81.4007C408.992 80.7753 412.65 79.9109 412.191 80.2052C401.437 87.3971 402.135 94.0923 402.062 94.8464C402.668 94.313 404.893 93.6141 404.672 93.9268C401.731 98.2125 401.933 104.448 406.032 108.09C409.764 111.401 415.573 113.038 420.757 114.031C421.272 114.123 426.327 114.785 428.294 114.951C428.294 114.969 428.294 114.969 428.294 114.969C428.294 114.987 428.441 114.987 428.68 114.969C428.919 114.987 429.066 114.987 429.066 114.969V114.951C431.033 114.785 436.106 114.141 436.621 114.031C441.805 113.038 447.614 111.401 451.345 108.09C455.445 104.448 455.647 98.2125 452.706 93.9268C452.54 93.6141 454.765 94.313 455.371 94.8464Z" fill="#D8D3BE"/>
<path d="M396.86 133.069C395.83 126.502 396.694 119.439 397.099 112.854C397.595 104.982 398.312 97.1276 398.661 89.2551C399.01 81.0516 399.268 72.2594 397.521 64.1846C396.804 60.8922 394.157 52.4863 389.212 55.3373C386.271 57.0295 384.874 61.0393 383.624 64.0007C382.098 67.6426 380.922 71.4317 380.444 75.3496C379.323 84.4912 380.26 93.688 381.106 102.811C381.455 106.6 386.087 132.958 386.271 132.903C386.271 132.903 380.683 134.614 379.341 139.139C378.422 142.192 382.209 142.063 383.808 142.615C385.573 143.222 388.367 144.454 389.801 143.167C392.282 140.923 393.22 138.771 396.786 138.899C398.404 138.955 401.235 141.548 402.374 140.077C404.102 137.943 396.896 133.308 396.86 133.069Z" fill="#71635C"/>
<path d="M387.687 143.902C387.631 143.902 387.576 143.866 387.54 143.792C387.172 143.167 387.098 142.486 387.319 141.787C388.073 139.341 392.117 137.354 392.282 137.281C392.393 137.226 392.521 137.281 392.576 137.373C392.632 137.483 392.576 137.612 392.485 137.667C392.448 137.685 388.44 139.654 387.742 141.916C387.558 142.505 387.613 143.056 387.926 143.571C387.981 143.682 387.944 143.811 387.852 143.866C387.779 143.903 387.742 143.902 387.687 143.902Z" fill="#2C303A"/>
<path d="M384.102 142.836C384.047 142.836 383.973 142.799 383.955 142.725C383.587 142.1 383.514 141.419 383.734 140.72C384.488 138.274 388.532 136.287 388.698 136.214C388.808 136.159 388.937 136.214 388.992 136.306C389.047 136.416 388.992 136.545 388.9 136.6C388.863 136.619 384.856 138.587 384.157 140.849C383.973 141.438 384.029 141.989 384.341 142.523C384.396 142.633 384.359 142.762 384.268 142.817C384.194 142.836 384.157 142.854 384.102 142.836Z" fill="#2C303A"/>
<path d="M380.885 141.879C380.775 141.879 380.683 141.806 380.665 141.695C379.984 138.09 384.451 135.46 384.654 135.35C384.764 135.276 384.893 135.331 384.966 135.423C385.021 135.533 384.985 135.662 384.893 135.736C384.856 135.754 380.499 138.329 381.124 141.622C381.142 141.732 381.069 141.861 380.94 141.879C380.904 141.879 380.885 141.879 380.885 141.879Z" fill="#2C303A"/>
<path d="M460.334 133.069C461.364 126.502 460.5 119.439 460.095 112.854C459.599 104.982 458.882 97.1276 458.533 89.2551C458.184 81.0516 457.926 72.2594 459.673 64.1846C460.39 60.8922 463.037 52.4863 467.981 55.3373C470.923 57.0295 472.32 61.0393 473.57 64.0007C475.096 67.6426 476.272 71.4317 476.75 75.3496C477.871 84.4912 476.934 93.688 476.088 102.811C475.739 106.6 471.107 132.958 470.923 132.903C470.923 132.903 476.493 134.614 477.853 139.139C478.754 142.192 474.985 142.063 473.386 142.615C471.621 143.222 468.827 144.454 467.393 143.167C464.912 140.923 463.974 138.771 460.408 138.899C458.79 138.955 455.959 141.548 454.82 140.077C453.092 137.943 460.298 133.308 460.334 133.069Z" fill="#71635C"/>
<path d="M469.507 143.902C469.562 143.902 469.636 143.866 469.654 143.792C470.022 143.167 470.096 142.486 469.875 141.787C469.121 139.341 465.077 137.354 464.912 137.281C464.801 137.226 464.673 137.281 464.618 137.373C464.562 137.483 464.618 137.612 464.71 137.667C464.746 137.685 468.754 139.654 469.452 141.916C469.636 142.505 469.581 143.056 469.268 143.571C469.213 143.682 469.25 143.811 469.342 143.866C469.415 143.903 469.471 143.902 469.507 143.902Z" fill="#2C303A"/>
<path d="M473.092 142.836C473.147 142.836 473.221 142.799 473.239 142.725C473.607 142.1 473.68 141.419 473.46 140.72C472.706 138.274 468.662 136.287 468.496 136.214C468.386 136.159 468.257 136.214 468.202 136.306C468.147 136.416 468.202 136.545 468.294 136.6C468.331 136.619 472.338 138.587 473.037 140.849C473.221 141.438 473.165 141.989 472.853 142.523C472.798 142.633 472.835 142.762 472.926 142.817C473 142.836 473.055 142.854 473.092 142.836Z" fill="#2C303A"/>
<path d="M476.327 141.879C476.438 141.879 476.529 141.806 476.548 141.695C477.228 138.09 472.743 135.46 472.559 135.35C472.449 135.276 472.32 135.331 472.246 135.423C472.191 135.533 472.228 135.662 472.32 135.736C472.357 135.754 476.713 138.329 476.088 141.622C476.07 141.732 476.143 141.861 476.272 141.879C476.29 141.879 476.309 141.879 476.327 141.879Z" fill="#2C303A"/>
<path d="M453.257 27.2688L455.757 28.777C455.426 24.1235 448.404 15.9199 448.404 15.9199L451.254 17.281C448.57 11.5422 444.139 9.48214 444.139 9.48214H446.382C442.338 5.38037 436.051 6.48401 436.051 6.48401L437.228 4.90215C434.893 5.25163 433.717 6.48401 433.717 6.48401L433.092 3.33869L431.86 5.93219L428.257 0.027832L425.371 5.93219L424.139 3.33869L423.514 6.48401C423.514 6.48401 422.338 5.25163 420.003 4.90215L421.18 6.48401C421.18 6.48401 414.893 5.39876 410.849 9.48214H413.091C413.091 9.48214 408.643 11.5422 405.959 17.281L408.808 15.9199C408.808 15.9199 401.786 24.1235 401.455 28.777L403.955 27.2688C403.955 27.2688 396.088 37.2197 397.356 41.7445L399.452 40.2547C399.452 40.2547 396.952 43.1608 397.779 45.8095L400.132 43.6759C400.132 43.6759 398.735 49.6722 400.922 55.4846L403.11 53.682C403.11 53.682 401.437 56.5146 405.279 60.8923L406.106 59.2553C406.106 59.2553 407.117 66.2264 421.161 70.3282L428.349 71.0088H428.827L436.014 70.3282C450.059 66.2264 451.07 59.2553 451.07 59.2553L451.915 60.8923C455.757 56.5146 454.084 53.682 454.084 53.682L456.272 55.4846C458.478 49.6538 457.062 43.6759 457.062 43.6759L459.415 45.8095C460.261 43.1608 457.743 40.2547 457.743 40.2547L459.838 41.7445C461.107 37.2197 453.257 27.2688 453.257 27.2688Z" fill="#71635C"/>
<path d="M410.794 29.8442C410.794 29.8442 412.926 35.7486 418.459 32.732C418.459 32.732 416.86 35.1416 413.753 34.3507C410.591 33.5597 410.794 29.8442 410.794 29.8442Z" fill="#382F28"/>
<path d="M408.312 31.9043C408.312 31.9043 410.72 37.8087 416.97 34.7921C416.97 34.7921 415.169 37.2017 411.639 36.4108C408.055 35.6014 408.312 31.9043 408.312 31.9043Z" fill="#382F28"/>
<path d="M446.4 29.8442C446.4 29.8442 444.268 35.7486 438.735 32.732C438.735 32.732 440.334 35.1416 443.441 34.3507C446.621 33.5597 446.4 29.8442 446.4 29.8442Z" fill="#382F28"/>
<path d="M448.882 31.9043C448.882 31.9043 446.474 37.8087 440.224 34.7921C440.224 34.7921 442.025 37.2017 445.555 36.4108C449.14 35.6014 448.882 31.9043 448.882 31.9043Z" fill="#382F28"/>
<path d="M442.816 53.2778H444.709C442.981 49.1577 434.47 50.666 434.47 50.666H422.889C422.889 50.666 414.378 49.1761 412.65 53.2778H414.544C414.544 53.2778 412.724 54.455 412.65 56.3863L414.544 55.5402C414.544 55.5402 412.503 58.9247 414.213 62.2907L415.481 60.4881C415.481 60.4881 414.636 64.4428 416.382 67.1834L417.761 64.5899C417.761 64.5899 417.209 69.1331 420.352 71.8738L420.72 69.5194C420.72 69.5194 421.088 72.6831 423.496 74.7248V72.7935C423.496 72.7935 424.93 75.626 428.514 77.2815L428.569 77.3919C428.588 77.3735 428.625 77.3551 428.643 77.3551C428.68 77.3735 428.698 77.3735 428.716 77.3919L428.772 77.2815C432.356 75.626 433.79 72.7935 433.79 72.7935V74.7248C436.18 72.6831 436.566 69.5194 436.566 69.5194L436.934 71.8738C440.077 69.1147 439.525 64.5899 439.525 64.5899L440.904 67.1834C442.632 64.4244 441.805 60.4881 441.805 60.4881L443.055 62.2907C444.783 58.9247 442.724 55.5402 442.724 55.5402L444.617 56.3863C444.636 54.455 442.816 53.2778 442.816 53.2778Z" fill="#E8E4D4"/>
<path d="M428.698 58.9061C421.694 58.9061 415.996 56.7356 415.628 53.9766C415.61 54.0869 415.61 54.1789 415.61 54.2893C415.61 57.453 421.474 62.2905 428.698 62.2905C435.922 62.2905 441.786 57.453 441.786 54.2893C441.786 54.1789 441.787 54.0869 441.768 53.9766C441.4 56.7356 435.683 58.9061 428.698 58.9061Z" fill="#861109"/>
<path d="M418.643 30.2306C418.643 31.8308 417.356 33.1184 415.757 33.1184C414.158 33.1184 412.871 31.8308 412.871 30.2306C412.871 28.6303 414.158 27.3428 415.757 27.3428C417.356 27.3428 418.643 28.6303 418.643 30.2306Z" fill="#1E1E22"/>
<path d="M415.555 29.3295C415.555 29.8261 415.15 30.2308 414.654 30.2308C414.158 30.2308 413.753 29.8261 413.753 29.3295C413.753 28.8329 414.158 28.4282 414.654 28.4282C415.15 28.4282 415.555 28.8329 415.555 29.3295Z" fill="white"/>
<path d="M414.544 31.224C414.544 31.4447 414.36 31.6103 414.158 31.6103C413.937 31.6103 413.771 31.4263 413.771 31.224C413.771 31.0033 413.955 30.8193 414.158 30.8193C414.36 30.8193 414.544 31.0033 414.544 31.224Z" fill="white"/>
<path d="M444.507 30.2306C444.507 31.8308 443.22 33.1184 441.621 33.1184C440.022 33.1184 438.735 31.8308 438.735 30.2306C438.735 28.6303 440.022 27.3428 441.621 27.3428C443.22 27.3428 444.507 28.6303 444.507 30.2306Z" fill="#1E1E22"/>
<path d="M441.419 29.3295C441.419 29.8261 441.014 30.2308 440.518 30.2308C440.022 30.2308 439.617 29.8261 439.617 29.3295C439.617 28.8329 440.022 28.4282 440.518 28.4282C441.014 28.4282 441.419 28.8329 441.419 29.3295Z" fill="white"/>
<path d="M440.408 31.224C440.408 31.4447 440.224 31.6103 440.022 31.6103C439.801 31.6103 439.636 31.4263 439.636 31.224C439.636 31.0033 439.82 30.8193 440.022 30.8193C440.224 30.8193 440.408 31.0033 440.408 31.224Z" fill="white"/>
<path d="M423.275 38.9676C423.661 43.7867 424.691 49.783 427.687 53.9032C428.11 54.0687 428.459 54.1607 428.716 54.1607L425.665 33.5966C425.665 33.5966 425.022 30.1938 422.356 31.3158C422.099 31.4262 421.805 31.5549 421.492 31.7205C423.275 33.0448 423.128 37.165 423.275 38.9676Z" fill="#56A1D7"/>
<path d="M420.628 39.7403C421.364 43.9524 422.779 48.6612 425.647 52.0088C424.176 48.9923 423.496 45.5159 422.963 42.2602C422.669 40.4944 422.503 38.7654 422.356 36.9813C422.264 35.7305 422.136 32.6955 420.647 32.1621C419.948 32.5484 419.194 33.045 418.441 33.5968C420.169 34.5349 420.297 37.8274 420.628 39.7403Z" fill="#56A1D7"/>
<path d="M418.68 41.414C419.231 43.4557 419.764 45.3135 420.885 47.1529C421.86 48.7531 423.165 50.8684 424.783 52.3215C424.874 52.395 424.985 52.4502 425.077 52.5054C422.963 50.0039 421.621 46.8402 420.757 43.7132C420.224 41.7635 419.911 39.8506 419.599 37.8641C419.378 36.3742 419.029 34.4981 417.669 34.2222C417.117 34.6636 416.602 35.1418 416.124 35.6569C417.632 36.7789 418.349 40.2001 418.68 41.414Z" fill="#56A1D7"/>
<path d="M418.661 44.3385C418.312 43.2532 417.191 37.3305 415.628 36.2637C414.397 37.7352 414.176 39.3722 414.488 41.1012C414.966 43.7499 418.22 47.5389 422.08 50.4083C420.573 48.4954 419.397 46.6745 418.661 44.3385Z" fill="#56A1D7"/>
<path d="M434.103 38.9676C433.717 43.7867 432.687 49.783 429.709 53.9032C429.286 54.0687 428.937 54.1607 428.68 54.1607L431.713 33.5966C431.713 33.5966 432.356 30.1938 435.022 31.3158C435.279 31.4262 435.573 31.5549 435.886 31.7205C434.121 33.0448 434.25 37.165 434.103 38.9676Z" fill="#56A1D7"/>
<path d="M436.75 39.7403C436.014 43.9524 434.599 48.6612 431.731 52.0088C433.202 48.9923 433.882 45.5159 434.415 42.2602C434.709 40.4944 434.875 38.7654 435.022 36.9813C435.114 35.7305 435.242 32.6955 436.731 32.1621C437.43 32.5484 438.183 33.045 438.937 33.5968C437.228 34.5349 437.081 37.8274 436.75 39.7403Z" fill="#56A1D7"/>
<path d="M438.698 41.414C438.147 43.4557 437.614 45.3135 436.492 47.1529C435.518 48.7531 434.213 50.8684 432.595 52.3215C432.503 52.395 432.393 52.4502 432.301 52.5054C434.415 50.0039 435.757 46.8402 436.621 43.7132C437.154 41.7635 437.467 39.8506 437.761 37.8641C437.981 36.3742 438.331 34.4981 439.691 34.2222C440.242 34.6636 440.757 35.1418 441.235 35.6569C439.764 36.7789 439.029 40.2001 438.698 41.414Z" fill="#56A1D7"/>
<path d="M438.735 44.3385C439.084 43.2532 440.206 37.3305 441.768 36.2637C443 37.7352 443.22 39.3722 442.908 41.1012C442.43 43.7499 439.176 47.5389 435.316 50.4083C436.823 48.4954 437.981 46.6745 438.735 44.3385Z" fill="#56A1D7"/>
<path d="M431.768 25.3378C431.492 23.4617 429.636 23.1122 428.698 23.057C428.698 23.057 428.606 23.0386 428.441 23.057C428.257 23.057 428.128 23.057 428.128 23.057C427.319 23.1306 425.886 23.5168 425.61 25.3194C425.242 27.8761 424.323 36.5763 425.187 43.9889C426.051 51.4016 427.853 54.9331 428.68 54.786C429.507 54.9331 431.308 51.4016 432.172 43.9889C433.055 36.5947 432.136 27.8761 431.768 25.3378Z" fill="#EE4D4E"/>
<path d="M429.213 46.7661H428.165C428.165 46.7661 418.919 48.5503 422.448 53.1855C422.448 53.1855 425.187 56.6251 428.68 56.993C432.173 56.6251 434.599 53.535 434.599 53.535C438.128 48.8998 429.213 46.7661 429.213 46.7661Z" fill="#D6363F"/>
<path d="M428.772 54.7856C428.753 54.7856 428.716 54.7856 428.698 54.7856C428.68 54.7856 428.643 54.7856 428.625 54.7856H428.772Z" fill="white" stroke="#1D1D1B" stroke-miterlimit="10" stroke-linecap="round" stroke-linejoin="round"/>
<path d="M429.213 49.3779H428.165C428.165 49.3779 419.249 50.0769 422.761 53.5349C422.761 53.5349 425.169 56.717 428.68 56.9929C432.172 56.717 434.599 53.5349 434.599 53.5349C438.128 50.0953 429.213 49.3779 429.213 49.3779Z" fill="#EE4D4E"/>
<path d="M427.908 56.1838C427.908 56.1838 428.183 50.0955 426.051 50.4266C423.937 50.7393 423.073 51.5486 424.305 51.8613C425.536 52.174 426.4 52.1924 426.97 53.6455C427.54 55.0802 427.908 56.1838 427.908 56.1838Z" fill="#561918"/>
<path d="M429.47 56.1838C429.47 56.1838 429.194 50.0955 431.327 50.4266C433.441 50.7393 434.305 51.5486 433.073 51.8613C431.841 52.174 430.978 52.1924 430.408 53.6455C429.838 55.0802 429.47 56.1838 429.47 56.1838Z" fill="#561918"/>
<path d="M444.36 20.7761C442.099 20.0219 414.746 20.0219 412.485 20.7761C410.867 21.3279 407.191 23.204 408.643 25.0801C409.396 26.055 411.474 25.8343 412.65 25.7791C415.352 25.6319 421.897 27.3426 428.441 27.3426C434.985 27.3426 441.529 25.6319 444.231 25.7791C445.408 25.8343 447.485 26.055 448.239 25.0801C449.654 23.1856 445.996 21.3095 444.36 20.7761Z" fill="#382F28"/>
<path d="M38.5104 65.325L41.4149 63.9639H85.7168L88.6213 65.325C88.6213 65.325 93.7867 91.4255 79.0072 101.634C79.0072 101.634 74.0439 104.467 69.8527 103.988H57.2974C53.0878 104.467 48.1245 101.634 48.1245 101.634C33.3634 91.4255 38.5104 65.325 38.5104 65.325Z" fill="#5C941A"/>
<path d="M43.3818 65.0489L45.7348 63.9453H81.4521L83.805 65.0489C83.805 65.0489 87.9595 86.0912 76.0476 94.3132C76.0476 94.3132 72.0586 96.594 68.6578 96.2077H58.5291C55.1283 96.594 51.1393 94.3132 51.1393 94.3132C39.209 86.1096 43.3818 65.0489 43.3818 65.0489Z" fill="#437C13"/>
<path d="M1.56158 129.427C5.20132 130.733 8.63886 132.885 12.3705 130.475C16.047 128.103 17.2419 123.541 19.4845 120.046C21.8007 116.404 25.5692 113.664 30.0178 113.682C32.8119 113.7 36.3597 114.951 38.5472 116.717C41.6906 119.255 46.1025 121.628 49.3194 117.489C51.6172 114.546 52.4077 109.893 52.9408 106.288C53.6026 101.653 53.5658 96.9989 53.1246 92.3453C52.4628 85.5397 51.1393 78.5318 51.6356 71.6342C59.2092 71.4686 66.7644 71.2479 74.338 71.1743C77.4079 81.2724 79.1359 94.8469 79.1359 106.398C79.1359 115.485 78.566 124.479 74.338 132.719C73.327 134.687 71.8196 136.858 69.9814 138.145C61.5438 144.068 48.8966 138.182 41.0105 134.136C33.1612 130.126 28.1979 129.537 21.8927 133.749C15.5874 137.962 7.09473 144.657 0.477015 130.88C0.421868 130.862 -0.828151 128.562 1.56158 129.427Z" fill="#74B023"/>
<path d="M53.3452 134.43C55.8268 133.032 57.3525 130.438 58.2165 127.827C59.0805 125.196 59.6688 122.456 59.9629 119.715C61.1026 109.598 60.6246 99.8131 59.5952 89.7886C59.1908 85.8339 58.2901 79.856 63.1247 79.3226C66.985 78.8812 70.1836 76.582 71.5623 79.9848C74.0623 86.1466 75.0733 98.4887 75.2939 105.074C75.5145 111.806 75.3306 118.611 74.1174 125.251C71.7277 138.348 63.2901 140.5 63.0695 140.555C55.9371 141.217 47.7936 137.575 41.8928 134.595C44.3377 135.644 48.8414 136.95 53.3452 134.43Z" fill="#F2C324"/>
<path d="M64.8159 90.6161C63.1063 90.5977 61.3599 90.5241 59.632 90.3034C59.6136 90.1195 59.5952 89.954 59.5768 89.77C59.1724 85.8154 58.2717 79.8375 63.1063 79.304C66.9666 78.8626 70.1652 76.5634 71.5439 79.9662C72.5182 82.339 73.2534 85.6498 73.8233 89.1814C70.974 90.3954 68.0512 90.6713 64.8159 90.6161Z" fill="#FDE850"/>
<path d="M21.7272 131.56C26.9478 129.463 31.2861 130.861 31.2861 130.861C28.106 130.622 25.1648 131.523 21.8559 133.731C17.1684 136.858 11.286 141.364 5.84473 137.814C11.7455 139.911 16.4882 133.657 21.7272 131.56Z" fill="#F2C324"/>
<path d="M60.5879 104.89C60.5328 102.554 60.4408 100.199 60.2754 97.8632C64.9997 99.4082 70.4226 99.6657 74.7241 97.4585C74.9814 99.537 75.1285 101.597 75.2388 103.657C70.9741 106.287 65.5328 106.214 60.5879 104.89Z" fill="#FDE850"/>
<path d="M60.1099 118.28C60.3489 115.76 60.5143 113.259 60.5695 110.775C65.2938 112.412 70.8086 113.203 75.3675 111.713C75.3307 113.626 75.2571 115.539 75.1101 117.434C70.4042 119.2 65.0916 119.384 60.1099 118.28Z" fill="#FDE850"/>
<path d="M51.3047 135.312C55.3672 137.869 59.9077 139.635 64.5585 139.966C63.6945 140.389 63.1247 140.536 63.0695 140.536C55.9371 141.198 47.7936 137.556 41.8928 134.577C43.97 135.478 47.5363 136.563 51.3047 135.312Z" fill="#FDE850"/>
<path d="M56.746 131.008C57.3526 130.015 57.8489 128.912 58.1982 127.826C58.4371 127.091 58.6577 126.355 58.86 125.619C61.5254 126.594 64.3747 127.127 67.2056 127.219C69.2645 127.293 71.6174 127.201 73.805 126.704C73.2535 129.059 72.5182 131.008 71.6726 132.645C66.8564 133.749 61.5622 132.94 56.746 131.008Z" fill="#FDE850"/>
<path d="M21.6721 131.579C21.6904 131.579 21.7088 131.56 21.7272 131.56C26.9478 129.463 31.2861 130.861 31.2861 130.861C28.4736 130.659 25.8449 131.339 22.9773 133.013C22.4809 132.572 22.0397 132.094 21.6721 131.579Z" fill="#FDE850"/>
<path d="M11.433 137.593C12.8301 137.042 14.172 136.214 15.5139 135.331C15.9183 135.901 16.3779 136.453 16.8743 136.95C15.3485 137.814 13.7676 138.532 12.1683 138.881C11.911 138.458 11.6536 138.035 11.433 137.593Z" fill="#FDE850"/>
<path d="M62.3894 96.9805L65.5696 91.2785L63.3453 81.677C63.2718 81.3643 63.4739 81.07 63.768 80.9781C64.0805 80.9045 64.3931 81.1068 64.4482 81.4011L66.6725 90.9842L71.8196 94.1663C72.0953 94.3318 72.1689 94.6813 72.0034 94.9572C71.838 95.2331 71.4887 95.3067 71.213 95.1411L66.3784 92.143L63.4004 97.5139C63.3269 97.6611 63.1798 97.753 63.0328 97.7898C62.9041 97.8266 62.757 97.8082 62.6283 97.7346C62.3342 97.6059 62.2423 97.2564 62.3894 96.9805Z" fill="#A01606"/>
<path d="M39.1355 63.2098C41.3781 59.1448 52.4077 54.6016 63.5843 54.9511C74.7609 54.5832 85.8087 59.1448 88.033 63.2098C88.5294 64.1111 88.6764 64.7916 88.6213 65.325C88.6764 65.8585 88.5294 66.5574 88.033 67.4403C85.7904 71.4869 74.7609 85.3189 63.5843 84.9694C52.4077 85.3189 41.3598 71.4869 39.1355 67.4403C38.6392 66.539 38.4921 65.8585 38.5472 65.325C38.4737 64.7916 38.6392 64.0927 39.1355 63.2098Z" fill="#7EBE22"/>
<path d="M65.2019 77.7592C65.2019 78.403 65.3857 78.9364 65.6247 78.9364C65.8453 78.9364 66.0291 78.403 66.0291 77.7592C66.0291 77.1154 65.8453 76.582 65.6063 76.582C65.3673 76.582 65.2019 77.0971 65.2019 77.7592Z" fill="#28490A"/>
<path d="M61.1762 77.7778C61.1762 78.4216 61.36 78.955 61.599 78.955C61.8196 78.955 62.0034 78.4216 62.0034 77.7778C62.0034 77.134 61.8196 76.6006 61.5806 76.6006C61.3417 76.6006 61.1762 77.134 61.1762 77.7778Z" fill="#28490A"/>
<path d="M82.2977 66.8702C83.5261 66.8702 84.522 65.8737 84.522 64.6446C84.522 63.4154 83.5261 62.4189 82.2977 62.4189C81.0693 62.4189 80.0734 63.4154 80.0734 64.6446C80.0734 65.8737 81.0693 66.8702 82.2977 66.8702Z" fill="#1E3009"/>
<path d="M82.4631 63.9641C82.4631 64.3504 82.7756 64.663 83.1617 64.663C83.5477 64.663 83.8602 64.3504 83.8602 63.9641C83.8602 63.5778 83.5477 63.2651 83.1617 63.2651C82.7573 63.2651 82.4631 63.5778 82.4631 63.9641Z" fill="white"/>
<path d="M83.2352 65.417C83.2352 65.5825 83.3639 65.7113 83.5293 65.7113C83.6947 65.7113 83.8234 65.5825 83.8234 65.417C83.8234 65.2514 83.6947 65.1227 83.5293 65.1227C83.3639 65.1043 83.2352 65.2514 83.2352 65.417Z" fill="white"/>
<path d="M45.404 66.8702C46.6324 66.8702 47.6282 65.8737 47.6282 64.6446C47.6282 63.4154 46.6324 62.4189 45.404 62.4189C44.1755 62.4189 43.1797 63.4154 43.1797 64.6446C43.1797 65.8737 44.1755 66.8702 45.404 66.8702Z" fill="#1E3009"/>
<path d="M45.551 63.9641C45.551 64.3504 45.8635 64.663 46.2495 64.663C46.6355 64.663 46.9481 64.3504 46.9481 63.9641C46.9481 63.5778 46.6355 63.2651 46.2495 63.2651C45.8635 63.2651 45.551 63.5778 45.551 63.9641Z" fill="white"/>
<path d="M46.3415 65.417C46.3415 65.5825 46.4702 65.7113 46.6356 65.7113C46.8011 65.7113 46.9481 65.5825 46.9481 65.417C46.9481 65.2514 46.8194 65.1227 46.6356 65.1227C46.4702 65.1043 46.3415 65.2514 46.3415 65.417Z" fill="white"/>
<path d="M79.2094 83.1484C78.4374 86.0914 79.2645 88.8504 81.066 89.3287C82.8491 89.7885 84.9264 87.7836 85.6985 84.8406C86.4705 81.8976 85.6433 79.1386 83.8418 78.6604C82.0587 78.2005 79.9815 80.2054 79.2094 83.1484Z" fill="#28490A"/>
<path d="M47.3341 83.1484C48.1062 86.0914 47.279 88.8504 45.4775 89.3287C43.6944 89.7885 41.6171 87.7836 40.845 84.8406C40.073 81.8976 40.9002 79.1386 42.7017 78.6604C44.5032 78.2005 46.5621 80.2054 47.3341 83.1484Z" fill="#28490A"/>
<defs>
<linearGradient id="paint0_linear_175_9987" x1="235.175" y1="88.1759" x2="237.503" y2="88.1759" gradientUnits="userSpaceOnUse">
<stop stop-color="#383537"/>
<stop offset="0.0449" stop-color="#545152"/>
<stop offset="0.1083" stop-color="#747273"/>
<stop offset="0.1691" stop-color="#8C8A8A"/>
<stop offset="0.2254" stop-color="#9A9898"/>
<stop offset="0.2732" stop-color="#9F9D9D"/>
<stop offset="0.2968" stop-color="#989696"/>
<stop offset="0.4334" stop-color="#767374"/>
<stop offset="0.5721" stop-color="#5B5859"/>
<stop offset="0.7119" stop-color="#474546"/>
<stop offset="0.8536" stop-color="#3C393B"/>
<stop offset="1" stop-color="#383537"/>
</linearGradient>
<linearGradient id="paint1_linear_175_9987" x1="234.663" y1="38.5095" x2="237.989" y2="38.5095" gradientUnits="userSpaceOnUse">
<stop stop-color="#383537"/>
<stop offset="0.0449" stop-color="#545152"/>
<stop offset="0.1083" stop-color="#747273"/>
<stop offset="0.1691" stop-color="#8C8A8A"/>
<stop offset="0.2254" stop-color="#9A9898"/>
<stop offset="0.2732" stop-color="#9F9D9D"/>
<stop offset="0.2968" stop-color="#989696"/>
<stop offset="0.4334" stop-color="#767374"/>
<stop offset="0.5721" stop-color="#5B5859"/>
<stop offset="0.7119" stop-color="#474546"/>
<stop offset="0.8536" stop-color="#3C393B"/>
<stop offset="1" stop-color="#383537"/>
</linearGradient>
<radialGradient id="paint2_radial_175_9987" cx="0" cy="0" r="1" gradientUnits="userSpaceOnUse" gradientTransform="translate(236.366 33.8983) scale(1.99807 1.9542)">
<stop stop-color="#9F9D9D"/>
<stop offset="0.1421" stop-color="#8C8A8B"/>
<stop offset="0.5298" stop-color="#5F5C5D"/>
<stop offset="0.8284" stop-color="#434041"/>
<stop offset="1" stop-color="#383537"/>
</radialGradient>
<radialGradient id="paint3_radial_175_9987" cx="0" cy="0" r="1" gradientUnits="userSpaceOnUse" gradientTransform="translate(236.366 33.8983) scale(1.99807 1.95421)">
<stop stop-color="#9F9D9D"/>
<stop offset="0.1421" stop-color="#8C8A8B"/>
<stop offset="0.5298" stop-color="#5F5C5D"/>
<stop offset="0.8284" stop-color="#434041"/>
<stop offset="1" stop-color="#383537"/>
</radialGradient>
<radialGradient id="paint4_radial_175_9987" cx="0" cy="0" r="1" gradientUnits="userSpaceOnUse" gradientTransform="translate(236.043 33.6482) scale(1.48726 1.4546)">
<stop stop-color="#878585"/>
<stop offset="0.0118" stop-color="#838282"/>
<stop offset="0.1821" stop-color="#555353"/>
<stop offset="0.3447" stop-color="#302F2F"/>
<stop offset="0.4954" stop-color="#161515"/>
<stop offset="0.6299" stop-color="#060606"/>
<stop offset="0.7346"/>
</radialGradient>
<linearGradient id="paint5_linear_175_9987" x1="236.367" y1="40.6716" x2="236.367" y2="43.5778" gradientUnits="userSpaceOnUse">
<stop stop-color="#505050"/>
<stop offset="0.0277" stop-color="#626262"/>
<stop offset="0.107" stop-color="#929292"/>
<stop offset="0.1861" stop-color="#B9B9B9"/>
<stop offset="0.2637" stop-color="#D8D8D8"/>
<stop offset="0.3394" stop-color="#EDEDED"/>
<stop offset="0.4121" stop-color="#FBFBFB"/>
<stop offset="0.4788" stop-color="white"/>
<stop offset="0.5497" stop-color="#FAFAFA"/>
<stop offset="0.6291" stop-color="#EDEDED"/>
<stop offset="0.7125" stop-color="#D6D6D6"/>
<stop offset="0.7989" stop-color="#B7B7B7"/>
<stop offset="0.8873" stop-color="#8F8F8F"/>
<stop offset="0.9764" stop-color="#5E5E5E"/>
<stop offset="1" stop-color="#505050"/>
</linearGradient>
<linearGradient id="paint6_linear_175_9987" x1="236.373" y1="111.69" x2="236.373" y2="115.013" gradientUnits="userSpaceOnUse">
<stop stop-color="#505050"/>
<stop offset="0.2588" stop-color="#8C8C8C"/>
<stop offset="0.5025" stop-color="#BEBEBE"/>
<stop offset="0.7151" stop-color="#E1E1E1"/>
<stop offset="0.8881" stop-color="#F7F7F7"/>
<stop offset="1" stop-color="white"/>
</linearGradient>
<linearGradient id="paint7_linear_175_9987" x1="236.366" y1="36.3631" x2="236.366" y2="35.5419" gradientUnits="userSpaceOnUse">
<stop stop-color="#505050"/>
<stop offset="0.2588" stop-color="#8C8C8C"/>
<stop offset="0.5025" stop-color="#BEBEBE"/>
<stop offset="0.7151" stop-color="#E1E1E1"/>
<stop offset="0.8881" stop-color="#F7F7F7"/>
<stop offset="1" stop-color="white"/>
</linearGradient>
<linearGradient id="paint8_linear_175_9987" x1="235.155" y1="38.5095" x2="236.336" y2="38.5095" gradientUnits="userSpaceOnUse">
<stop offset="0.1147"/>
<stop offset="0.208" stop-color="#242424"/>
<stop offset="0.3287" stop-color="#4C4C4C"/>
<stop offset="0.4244" stop-color="#656565"/>
<stop offset="0.4826" stop-color="#6E6E6E"/>
<stop offset="0.4886" stop-color="#6B6B6B"/>
<stop offset="0.6075" stop-color="#3D3D3D"/>
<stop offset="0.7131" stop-color="#1C1C1C"/>
<stop offset="0.8005" stop-color="#070707"/>
<stop offset="0.8588"/>
</linearGradient>
</defs>
</svg>
