<svg width="433" height="133" viewBox="0 0 433 133" fill="none" xmlns="http://www.w3.org/2000/svg">
<path d="M17.8306 131.5C17.8306 131.5 19.1541 131.481 21.6358 131.463C24.099 131.445 27.7203 131.426 32.3344 131.39C41.5624 131.334 54.7427 131.261 70.5701 131.206C78.4745 131.169 87.0408 131.132 96.1034 131.114C105.166 131.095 114.725 131.058 124.615 131.04C134.505 131.022 144.707 131.003 155.093 131.003C165.479 131.003 176.031 130.985 186.564 130.985C197.097 130.985 207.649 131.003 218.035 131.003C228.402 131.003 238.623 131.04 248.513 131.04C258.403 131.058 267.962 131.077 277.024 131.114C286.087 131.132 294.653 131.169 302.576 131.206C318.385 131.261 331.565 131.334 340.793 131.39C345.407 131.426 349.029 131.445 351.51 131.463C353.974 131.481 355.297 131.5 355.297 131.5C355.297 131.5 353.974 131.5 351.51 131.518C349.029 131.537 345.407 131.555 340.793 131.592C331.565 131.647 318.385 131.721 302.576 131.776C294.653 131.813 286.105 131.849 277.024 131.868C267.962 131.886 258.403 131.923 248.513 131.941C238.642 131.96 228.421 131.978 218.035 131.978C207.649 131.978 197.097 131.997 186.564 131.997C176.012 131.997 165.479 131.978 155.093 131.978C144.725 131.978 134.505 131.941 124.615 131.941C114.725 131.923 105.166 131.905 96.1034 131.868C87.0408 131.849 78.4745 131.813 70.5701 131.776C54.7427 131.721 41.5624 131.647 32.3344 131.592C27.7203 131.555 24.099 131.537 21.6358 131.518C19.1541 131.5 17.8306 131.5 17.8306 131.5Z" fill="#989898"/>
<path d="M189.321 25.8472H187.023V131.5H189.321V25.8472Z" fill="url(#paint0_linear_175_11061)"/>
<path d="M189.634 31.1443C188.954 31.1443 186.748 31.1443 186.692 31.1443C186.637 31.1443 186.527 31.1259 186.527 30.9419C186.527 30.1142 186.527 27.0977 186.527 27.0241C186.527 26.9505 186.545 26.877 186.692 26.877C186.821 26.877 189.064 26.877 189.652 26.877C189.818 26.877 189.818 26.9689 189.818 27.0609C189.818 27.1345 189.818 30.0958 189.818 30.9235C189.836 31.0707 189.799 31.1443 189.634 31.1443Z" fill="url(#paint1_linear_175_11061)"/>
<path d="M190.185 24.3941C190.185 25.4793 189.284 26.3438 188.181 26.3438C187.079 26.3438 186.178 25.4609 186.178 24.3941C186.178 23.3088 187.079 22.4443 188.181 22.4443C189.284 22.4443 190.185 23.3272 190.185 24.3941Z" fill="url(#paint2_radial_175_11061)"/>
<path opacity="0.3" d="M188.181 22.4443C188.145 22.4443 188.09 22.4443 188.053 22.4443C188.972 22.4995 189.689 23.2537 189.689 24.1549C189.689 25.093 188.898 25.8655 187.942 25.8655C187.023 25.8655 186.27 25.1666 186.196 24.2653C186.196 24.3021 186.196 24.3389 186.196 24.3941C186.196 25.4793 187.097 26.3438 188.2 26.3438C189.303 26.3438 190.204 25.4609 190.204 24.3941C190.185 23.3272 189.284 22.4443 188.181 22.4443Z" fill="url(#paint3_radial_175_11061)"/>
<path d="M189.395 24.1549C189.395 24.9826 188.715 25.6448 187.869 25.6448C187.023 25.6448 186.343 24.9826 186.343 24.1549C186.343 23.3272 187.023 22.665 187.869 22.665C188.715 22.665 189.395 23.3272 189.395 24.1549Z" fill="url(#paint4_radial_175_11061)"/>
<path d="M189.321 31.1445H187.023V34.0507H189.321V31.1445Z" fill="url(#paint5_linear_175_11061)"/>
<path d="M189.34 102.162H187.042V106.245H189.34V102.162Z" fill="url(#paint6_linear_175_11061)"/>
<path d="M189.321 26.0312H187.023V26.859H189.321V26.0312Z" fill="url(#paint7_linear_175_11061)"/>
<path opacity="0.8" d="M188.181 26.877H186.931V31.1443H188.181V26.877Z" fill="url(#paint8_linear_175_11061)"/>
<path d="M20.588 97.4351C20.588 96.0004 20.588 42.6037 20.588 40.2861C20.588 37.6559 21.4335 36.6074 24.8343 36.6074C27.8307 36.6074 350.242 36.6074 352.098 36.6074C353.955 36.6074 355.72 36.9569 355.72 40.3413C355.72 43.7257 355.72 94.3817 355.72 98.0053C355.72 101.629 352.632 101.905 351.087 101.905C349.543 101.905 27.849 101.905 24.4666 101.905C21.0843 101.886 20.588 98.8514 20.588 97.4351Z" fill="#FF7F2A"/>
<path opacity="0.5" d="M355.72 98.0053C355.72 94.3817 355.72 43.7257 355.72 40.3413C355.72 36.9753 353.955 36.6074 352.098 36.6074C350.242 36.6074 27.8307 36.6074 24.8343 36.6074C21.4335 36.6074 20.588 37.6743 20.588 40.2861C20.588 42.6037 20.588 96.0004 20.588 97.4351C20.588 98.8698 21.1026 101.905 24.4666 101.905C27.849 101.905 349.543 101.905 351.087 101.905C352.65 101.886 355.72 101.61 355.72 98.0053ZM24.7056 101.224C21.3968 101.224 20.9004 98.2076 20.9004 96.7913C20.9004 95.375 20.9004 42.8245 20.9004 40.5253C20.9004 37.9134 21.7461 36.8649 25.0733 36.8649C28.0145 36.8649 349.948 36.8649 351.768 36.8649C353.587 36.8649 355.315 37.2144 355.315 40.562C355.315 43.9097 355.315 93.7564 355.315 97.3431C355.315 100.93 352.301 101.206 350.775 101.206C349.249 101.224 28.0145 101.224 24.7056 101.224Z" fill="#AFDCFB"/>
<path opacity="0.5" d="M22.4078 95.4671V42.1993C22.4078 39.2563 23.6027 38.2446 27.1505 38.2446H349.911C351.97 38.2446 353.826 38.5573 353.826 42.236V95.8902C353.826 97.2697 353.477 98.2814 352.76 98.9619C351.768 99.9184 350.352 99.9184 349.433 99.9184H349.268H26.8196C22.4078 99.9184 22.4078 96.5708 22.4078 95.4671ZM351.896 42.7511C351.896 40.3783 351.253 40.3783 349.672 40.3783H27.3894C24.6504 40.3783 24.3563 40.8565 24.3563 42.7143V94.9705C24.3563 96.7731 24.7975 97.8031 27.0586 97.8031H349.213C349.966 97.8031 350.83 97.8031 351.345 97.3249C351.712 96.957 351.915 96.3132 351.915 95.3936V42.7511H351.896Z" fill="#BCBCBC"/>
<path d="M22.8489 95.3014V42.3646C22.8489 39.6055 23.9152 38.7227 27.2424 38.7227H349.801C351.4 38.7227 353.367 38.7227 353.367 42.4014V95.706C353.367 97.012 353.054 97.9317 352.411 98.5571C351.51 99.4216 350.242 99.4216 349.323 99.4032H349.157H26.9115C23.2718 99.4399 22.8489 97.0672 22.8489 95.3014ZM352.356 42.4198C352.356 39.7343 351.4 39.7343 349.801 39.7343H27.2608C24.3196 39.7343 23.8784 40.3229 23.8784 42.383V95.3014C23.8784 97.1959 24.3931 98.4467 26.9299 98.4467H349.341C350.132 98.4467 351.106 98.4467 351.712 97.8765C352.154 97.4534 352.374 96.7361 352.374 95.7244V42.4198H352.356Z" fill="#232020"/>
<path d="M44.5404 77.9562C46.7279 79.0782 50.3125 80.2003 53.8787 80.2003C57.1876 80.2003 58.7869 79.0782 58.7869 77.2573C58.7869 75.4915 57.1876 74.4798 53.125 73.1003C47.0404 70.9667 43.033 67.6006 43.033 62.2665C43.033 55.9023 48.3639 50.9912 57.4449 50.9912C61.7648 50.9912 64.8163 51.7821 67.206 52.8674L65.184 60.5559C63.6398 59.8569 60.9744 58.8453 57.3346 58.8453C54.3934 58.8453 52.7941 59.9121 52.7941 61.5123C52.7941 63.3333 54.7243 64.0875 59.2464 65.7797C65.6987 68.1341 68.6399 71.6104 68.6399 76.6135C68.6399 82.8121 63.7869 88.1463 53.2721 88.1463C48.9522 88.1463 44.7242 86.9691 42.7021 85.9023L44.5404 77.9562Z" fill="#F8DE00"/>
<path d="M96.4343 73.0453H83.5114V79.667H97.9785V87.5762H73.8605V51.5615H97.2431V59.4156H83.5298V65.228H96.4527V73.0453H96.4343Z" fill="#F8DE00"/>
<path d="M103.346 52.0398C105.956 51.6167 109.743 51.2856 115.24 51.2856C120.423 51.2856 124.1 52.1869 126.618 54.1183C129.082 55.9392 130.736 59.1397 130.736 62.8184C130.736 66.442 129.504 69.6609 127.262 71.6842C124.321 74.296 120.111 75.4181 115.24 75.4181C114.339 75.4181 113.475 75.3629 112.887 75.3077V87.5394H103.328V52.0398H103.346ZM112.905 67.9686C113.438 68.0238 114.082 68.079 115.093 68.079C118.879 68.079 121.232 66.1661 121.232 63.0575C121.232 60.3905 119.412 58.5695 115.791 58.5695C114.357 58.5695 113.383 58.6799 112.905 58.7902V67.9686Z" fill="#F8DE00"/>
<path d="M142.483 59.6363H133.291V51.5615H161.472V59.6179H152.133V87.5578H142.464V59.6363H142.483Z" fill="#F8DE00"/>
<path d="M188.512 73.0453H175.59V79.667H190.057V87.5762H165.92V51.5615H189.303V59.4156H175.59V65.228H188.512V73.0453Z" fill="#F8DE00"/>
<path d="M225.847 74.7003C225.737 70.5802 225.627 65.7794 225.682 60.1694H225.516C224.395 64.9333 222.906 70.3227 221.73 74.2773L218.145 86.8217H210.627L207.593 74.3325C206.693 70.433 205.571 65.0989 204.763 60.1694H204.652C204.432 65.246 204.229 70.5802 204.064 74.7003L203.531 87.5759H194.671L196.858 51.5796H209.836L212.244 61.2546C213.2 65.2644 214.266 70.0652 215.02 74.4428H215.241C216.252 70.0652 217.428 64.9885 218.494 61.1994L221.16 51.5796H233.862L235.682 87.5759H226.289L225.847 74.7003Z" fill="#F8DE00"/>
<path d="M241.62 52.0398C243.807 51.6719 248.55 51.2856 252.998 51.2856C258.127 51.2856 261.16 51.5983 263.991 53.0514C266.767 54.339 268.844 56.9509 268.844 60.4273C268.844 63.4806 267.19 66.4052 262.98 68.0054V68.1158C267.41 69.3482 270.021 72.6038 270.021 76.8711C270.021 80.2372 268.421 82.9043 266.013 84.7252C263.293 86.7485 258.807 87.9809 251.123 87.9809C246.748 87.9809 243.605 87.6682 241.62 87.3371V52.0398ZM251.178 65.3935H253.09C257.208 65.3935 259.175 63.9404 259.175 61.6596C259.175 59.526 257.575 58.1832 254.322 58.1832C252.723 58.1832 251.803 58.2936 251.178 58.404V65.3935ZM251.178 80.789C251.877 80.8993 252.723 80.8993 253.954 80.8993C257.153 80.8993 259.873 79.6118 259.873 76.4665C259.873 73.4315 257.098 72.2544 253.476 72.2544H251.178V80.789Z" fill="#F8DE00"/>
<path d="M297.907 73.0453H284.984V79.667H299.451V87.5762H275.333V51.5615H298.716V59.4156H285.002V65.228H297.925V73.0453H297.907Z" fill="#F8DE00"/>
<path d="M304.8 52.0398C307.521 51.6167 311.639 51.2856 316.436 51.2856C321.933 51.2856 325.885 52.0398 328.606 54.0631C330.904 55.8289 332.19 58.3856 332.19 61.9171C332.19 66.4052 328.826 69.6057 325.995 70.6173V70.838C328.404 71.8497 329.672 74.1489 330.591 77.239C331.712 80.9177 332.889 86.1599 333.569 87.5578H323.698C323.164 86.491 322.264 83.7136 321.197 79.2807C320.242 74.9582 318.9 74.0385 315.903 74.0385H314.359V87.5578H304.8V52.0398ZM314.359 67.1593H316.878C320.499 67.1593 322.595 65.3384 322.595 62.6713C322.595 59.949 320.83 58.4591 317.631 58.404C315.811 58.404 314.856 58.5143 314.378 58.6247V67.1593H314.359Z" fill="#F8DE00"/>
<path d="M391.308 91.6412C391.308 91.6412 407.43 130.544 414.121 125.338C418.533 121.917 387.963 72.0336 391.308 91.6412Z" fill="#633111"/>
<path d="M392.209 93.1863C392.209 93.1863 413.827 129.33 419.691 123.186C423.551 119.158 386.051 74.2592 392.209 93.1863Z" fill="#4F260D"/>
<path d="M394.121 95.7428C394.121 95.7428 422.614 126.754 427.118 119.544C430.077 114.817 384.268 78.4712 394.121 95.7428Z" fill="#633111"/>
<path d="M383.992 88.1098C383.992 88.1098 400.298 127.454 407.081 122.193C411.529 118.698 380.61 68.2631 383.992 88.1098Z" fill="#945224"/>
<path d="M384.893 89.6548C384.893 89.6548 406.75 126.203 412.687 120.004C416.603 115.921 378.661 70.5255 384.893 89.6548Z" fill="#7F421A"/>
<path d="M386.841 92.2484C386.841 92.2484 415.647 123.609 420.206 116.326C423.202 111.543 376.86 74.7745 386.841 92.2484Z" fill="#945224"/>
<path d="M388.919 90.5928C388.919 90.5928 420.114 119.581 424.066 111.966C426.695 106.945 377.595 73.965 388.919 90.5928Z" fill="#7F421A"/>
<path d="M382.319 123.131V113.346C382.319 112.371 381.529 111.58 380.555 111.58C379.58 111.58 378.79 112.371 378.79 113.346V122.561C379.268 124.014 380.996 123.83 382.319 123.131Z" fill="#F3A436"/>
<path d="M378.11 123.977C378.036 123.554 377.558 121.347 375.665 120.703C374.36 120.262 372.944 120.703 371.455 122.064C370.334 123.094 369.286 124.198 368.404 125.449C367.595 126.589 366.749 128.134 367.411 129.569C367.816 130.452 368.919 130.562 369.635 129.992C370.463 129.348 370.683 128.152 371.272 127.306C371.97 126.295 372.834 125.412 373.735 124.602C374.102 124.253 374.36 124.106 374.507 124.032C374.58 124.179 374.672 124.419 374.709 124.584C374.875 125.504 375.757 126.129 376.694 125.964C377.65 125.798 378.275 124.915 378.11 123.977Z" fill="#F3A436"/>
<path d="M381.18 123.812C381.014 123.407 380.04 121.384 378.036 121.182C376.658 121.035 375.389 121.807 374.25 123.463C371.676 127.215 371.529 129.293 371.51 129.68C371.51 129.68 371.382 131.096 372.742 131.261C373.919 131.409 374.507 130.691 374.948 129.698C374.948 129.716 374.948 129.735 374.948 129.753C375.242 128.171 376.198 126.681 377.08 125.394C377.375 124.971 377.577 124.768 377.705 124.658C377.816 124.787 377.944 124.989 378.036 125.155C378.404 126.019 379.415 126.424 380.279 126.056C381.143 125.688 381.547 124.695 381.18 123.812Z" fill="#F9C237"/>
<path d="M384.709 123.812C384.47 123.444 383.165 121.604 381.161 121.752C379.783 121.843 378.661 122.837 377.816 124.658C376.051 128.539 376.124 130.58 376.18 131.151C376.18 131.151 376.106 132.291 377.301 132.604C378.496 132.935 379.709 132.181 379.58 130.415C379.617 129.826 379.856 128.41 380.922 126.074C381.125 125.614 381.308 125.375 381.419 125.246C381.547 125.357 381.713 125.522 381.823 125.688C382.338 126.479 383.404 126.699 384.194 126.184C384.985 125.669 385.224 124.621 384.709 123.812Z" fill="#F3A436"/>
<path d="M391.382 123.131V113.346C391.382 112.371 392.172 111.58 393.147 111.58C394.121 111.58 394.911 112.371 394.911 113.346V122.561C394.434 124.014 392.706 123.83 391.382 123.131Z" fill="#F3A436"/>
<path d="M395.592 123.977C395.665 123.554 396.143 121.347 398.036 120.703C399.342 120.262 400.757 120.703 402.246 122.064C403.386 123.094 404.415 124.198 405.297 125.449C406.106 126.589 406.952 128.134 406.29 129.569C405.886 130.452 404.783 130.562 404.066 129.992C403.239 129.348 403.018 128.152 402.43 127.306C401.731 126.295 400.867 125.412 399.948 124.602C399.581 124.253 399.323 124.106 399.176 124.032C399.103 124.179 399.011 124.419 398.974 124.584C398.808 125.504 397.926 126.129 396.989 125.964C396.051 125.798 395.426 124.915 395.592 123.977Z" fill="#F3A436"/>
<path d="M392.522 123.812C392.687 123.407 393.661 121.384 395.665 121.182C397.044 121.035 398.312 121.807 399.452 123.463C402.025 127.215 402.173 129.293 402.191 129.68C402.191 129.68 402.32 131.096 400.959 131.261C399.783 131.409 399.195 130.691 398.753 129.698C398.753 129.716 398.753 129.735 398.753 129.753C398.459 128.171 397.503 126.681 396.621 125.394C396.327 124.971 396.125 124.768 395.996 124.658C395.886 124.787 395.757 124.989 395.684 125.155C395.316 126.019 394.305 126.424 393.441 126.056C392.559 125.688 392.154 124.695 392.522 123.812Z" fill="#F9C237"/>
<path d="M389.011 123.812C389.25 123.444 390.555 121.604 392.558 121.752C393.937 121.843 395.058 122.837 395.904 124.658C397.669 128.539 397.595 130.58 397.54 131.151C397.54 131.151 397.614 132.291 396.419 132.604C395.224 132.935 394.011 132.181 394.139 130.415C394.103 129.826 393.864 128.41 392.797 126.074C392.595 125.614 392.411 125.375 392.301 125.246C392.172 125.357 392.007 125.522 391.897 125.688C391.382 126.479 390.316 126.699 389.525 126.184C388.717 125.669 388.496 124.621 389.011 123.812Z" fill="#F3A436"/>
<path d="M372.65 104.83L379.029 118.165L379.415 116.62L380.72 118.165L381.658 116.62L382.319 118.165L385.426 105.804L372.65 104.83Z" fill="#703913"/>
<path d="M401.272 104.83L394.893 118.165L394.525 116.62L393.22 118.165L392.283 116.62L391.621 118.165L388.514 105.804L401.272 104.83Z" fill="#703913"/>
<path d="M399.048 47.4784C397.136 46.4852 395.15 45.6758 393.11 45.124V31.6231C393.11 28.1467 390.297 25.3325 386.823 25.3325C383.349 25.3325 380.536 28.1467 380.536 31.6231V44.9217C378.404 45.4367 376.345 46.2277 374.378 47.2393L385.444 69.0541L399.048 47.4784Z" fill="#EDC4A6"/>
<path d="M399.048 47.4785L385.444 69.0726L374.378 47.2578C361.841 53.6956 353.11 69.275 353.11 82.7391C353.11 100.195 368.22 109.925 386.86 109.925C405.5 109.925 420.61 100.195 420.61 82.7391C420.61 69.4221 411.584 54.0451 399.048 47.4785Z" fill="#703913"/>
<path d="M408.827 96.6257C408.827 105.326 398.992 110.163 386.842 110.163C374.691 110.163 364.856 105.326 364.856 96.6257C364.856 87.9255 374.691 76.4111 386.842 76.4111C398.992 76.4111 408.827 87.9255 408.827 96.6257Z" fill="#945224"/>
<path d="M366.382 67.3434C366.694 64.1429 366.768 60.0595 365.169 57.135C361.18 49.8143 353.698 56.0865 350.463 59.4526C344.157 66.0375 340.095 77 341.547 86.7487C342.135 90.6297 346.29 101.887 351.087 104.958C351.216 105.032 355.573 91.9357 355.793 89.8204C356.106 90.4274 355.922 94.0877 356.749 94.4372C356.896 94.4924 359.746 85.2956 359.672 84.4862C359.911 84.8909 359.396 88.5512 359.47 88.4961C360.591 87.8523 365.812 73.3397 366.382 67.3434Z" fill="#633111"/>
<path d="M366.804 67.895C367.117 64.5658 367.209 60.3352 365.554 57.2819C361.418 49.6853 353.643 56.1967 350.279 59.6915C343.716 66.5339 339.506 77.9195 341.014 88.0544C341.161 89.0476 341.529 90.4823 342.08 92.1562C342.393 92.9103 342.76 93.6277 343.183 94.2898C343.312 90.5007 343.661 86.6749 345.242 83.1801C345.334 82.9778 346.639 93.2782 348.679 97.9134C349.985 95.0072 350.297 91.7331 351.161 88.6798C351.235 88.4407 352.926 95.6142 353.624 99.0722C354.709 95.6693 355.72 92.2481 355.812 91.2365C356.143 91.8803 355.849 96.166 356.253 97.4719C356.308 97.6375 359.911 86.5277 359.838 85.6816C360.095 86.1047 359.543 89.8937 359.617 89.857C360.793 89.1948 366.198 74.112 366.804 67.895Z" fill="#7F421A"/>
<path d="M366.97 67.6927C367.319 64.0876 367.411 59.526 365.61 56.2335C361.143 48.0116 352.724 55.0563 349.102 58.8454C344.801 63.3334 342.117 70.1207 341.106 76.1354C340.995 76.8343 346.308 68.5756 350.665 65.0992C350.738 65.0256 347.356 79.2623 347.742 83.6216C350.481 79.3359 353.992 71.96 355.867 69.9183C356.069 69.716 352.043 82.3524 353.698 89.0293C357.319 82.7755 357.999 82.6651 360.04 78.0483C360.15 77.7908 359.36 86.4726 359.396 91.2365C361.014 89.2316 366.363 74.1121 366.97 67.6927Z" fill="#945224"/>
<path d="M407.32 67.3434C407.007 64.1429 406.934 60.0595 408.533 57.135C412.522 49.8143 420.004 56.0865 423.239 59.4526C429.544 66.0375 433.607 77 432.155 86.7487C431.585 90.6297 427.412 101.887 422.632 104.958C422.504 105.032 418.147 91.9357 417.926 89.8204C417.614 90.4274 417.798 94.0877 416.971 94.4372C416.823 94.4924 413.993 85.2956 414.048 84.4862C413.809 84.8909 414.323 88.5512 414.25 88.4961C413.11 87.8523 407.89 73.3397 407.32 67.3434Z" fill="#633111"/>
<path d="M406.897 67.895C406.584 64.5658 406.492 60.3352 408.147 57.2819C412.283 49.6853 420.059 56.1967 423.423 59.6915C429.985 66.5339 434.195 77.9195 432.688 88.0544C432.54 89.0476 432.173 90.4823 431.621 92.1562C431.309 92.9103 430.941 93.6277 430.518 94.2898C430.39 90.5007 430.04 86.6749 428.46 83.1801C428.368 82.9778 427.081 93.2782 425.022 97.9134C423.717 95.0072 423.404 91.7331 422.54 88.6798C422.467 88.4407 420.776 95.6142 420.077 99.0722C418.993 95.6693 417.982 92.2481 417.89 91.2365C417.559 91.8803 417.853 96.166 417.448 97.4719C417.393 97.6375 413.79 86.5277 413.864 85.6816C413.607 86.1047 414.158 89.8937 414.084 89.857C412.908 89.1948 407.503 74.112 406.897 67.895Z" fill="#7F421A"/>
<path d="M406.731 67.6927C406.382 64.0876 406.29 59.526 408.092 56.2335C412.559 48.0116 420.978 55.0563 424.599 58.8454C428.901 63.3334 431.585 70.1207 432.596 76.1354C432.706 76.8343 427.393 68.5756 423.037 65.0992C422.963 65.0256 426.327 79.2623 425.96 83.6216C423.221 79.3359 419.71 71.96 417.834 69.9183C417.632 69.716 421.658 82.3524 420.004 89.0293C416.382 82.7755 415.702 82.6651 413.662 78.0483C413.551 77.7908 414.342 86.4726 414.305 91.2365C412.687 89.2316 407.338 74.1121 406.731 67.6927Z" fill="#945224"/>
<path d="M404.728 23.7504C404.728 32.7633 396.731 37.7848 386.86 37.7848C376.988 37.7848 368.992 32.7633 368.992 23.7504C368.992 14.7376 376.988 2.78174 386.86 2.78174C396.731 2.78174 404.728 14.7376 404.728 23.7504Z" fill="#F3D0B2"/>
<path d="M382.228 12.9901C382.228 14.3513 381.125 15.4365 379.764 15.4365C378.404 15.4365 377.319 14.3329 377.319 12.9901C377.319 11.629 378.422 10.5254 379.764 10.5254C381.106 10.5254 382.228 11.629 382.228 12.9901Z" fill="#2D190C"/>
<path d="M379.599 12.2178C379.599 12.6409 379.25 12.9904 378.827 12.9904C378.404 12.9904 378.055 12.6409 378.055 12.2178C378.055 11.7948 378.404 11.4453 378.827 11.4453C379.268 11.4637 379.599 11.8132 379.599 12.2178Z" fill="white"/>
<path d="M378.753 13.8365C378.753 14.0204 378.606 14.1675 378.422 14.1675C378.238 14.1675 378.091 14.0204 378.091 13.8365C378.091 13.6525 378.238 13.5054 378.422 13.5054C378.588 13.5054 378.753 13.6525 378.753 13.8365Z" fill="white"/>
<path d="M396.382 12.9901C396.382 14.3513 395.279 15.4365 393.937 15.4365C392.577 15.4365 391.474 14.3329 391.474 12.9901C391.474 11.629 392.577 10.5254 393.937 10.5254C395.279 10.5438 396.382 11.629 396.382 12.9901Z" fill="#2D190C"/>
<path d="M393.753 12.2178C393.753 12.6409 393.404 12.9904 392.981 12.9904C392.559 12.9904 392.209 12.6409 392.209 12.2178C392.209 11.7948 392.559 11.4453 392.981 11.4453C393.404 11.4453 393.753 11.8132 393.753 12.2178Z" fill="white"/>
<path d="M392.889 13.8365C392.889 14.0204 392.742 14.1675 392.558 14.1675C392.375 14.1675 392.228 14.0204 392.228 13.8365C392.228 13.6525 392.375 13.5054 392.558 13.5054C392.742 13.5054 392.889 13.6525 392.889 13.8365Z" fill="white"/>
<path d="M398.643 45.6758C398.441 45.639 399.912 44.8665 400.555 44.8849C398.386 42.5489 394.507 42.8616 394.507 42.8616C394.507 42.8616 391.492 42.8616 390.996 45.6942C391.603 45.7126 393.055 46.2092 392.871 46.2828C390.867 47.2393 389.397 49.5201 389.011 51.7089C389.599 51.3594 391.253 51.1939 391.125 51.3594C390.426 52.2239 390.316 53.162 390.371 54.2472C390.389 54.468 390.592 56.3257 390.573 56.3809C391.235 56.1602 392.908 56.3257 392.687 56.3993C390.5 57.0431 389.617 59.5262 389.378 61.6967L386.419 57.7972L383.386 62.0277C383.202 59.7837 382.338 57.0799 380.04 56.3993C379.819 56.3257 381.492 56.1602 382.154 56.3809C382.136 56.3257 382.356 54.468 382.356 54.2472C382.411 53.162 382.301 52.2423 381.603 51.3594C381.474 51.1939 383.128 51.3594 383.716 51.7089C383.33 49.5201 381.86 47.2393 379.856 46.2828C379.691 46.1908 381.125 45.6942 381.731 45.6942C381.235 42.8616 378.22 42.8616 378.22 42.8616C378.22 42.8616 374.341 42.5489 372.172 44.8849C372.797 44.8849 374.268 45.639 374.084 45.6758C371.952 46.1541 369.856 47.7727 368.974 49.8328C369.102 50.3662 373.422 49.9983 373.275 50.1455C372.301 51.1387 371.694 52.4079 371.51 53.7506C372.246 54.5599 375.977 54.0081 375.941 54.2105C375.647 55.5532 375.591 56.9143 375.849 58.2203C376.584 57.9076 377.172 57.2822 377.761 56.7488C377.908 56.62 377.705 58.4042 377.595 59.1399C377.558 59.3607 377.503 59.6734 377.448 60.0044C377.466 60.0412 377.503 60.0596 377.522 60.0964C378.091 59.7469 379.47 58.956 379.433 59.1215C378.955 60.8873 386.492 74.1675 386.492 74.1675C386.492 74.1675 393.717 60.9057 393.239 59.1215C393.202 58.956 394.581 59.7469 395.15 60.0964C395.169 60.0596 395.206 60.0412 395.224 60.0044C395.169 59.6734 395.114 59.3607 395.077 59.1399C394.967 58.4042 394.764 56.6016 394.911 56.7488C395.5 57.2822 396.088 57.8892 396.823 58.2203C397.081 56.9143 397.025 55.5532 396.731 54.2105C396.695 54.0265 400.426 54.5783 401.161 53.7506C400.978 52.4079 400.371 51.1387 399.397 50.1455C399.25 49.9983 403.57 50.3478 403.698 49.8328C402.871 47.7727 400.757 46.1541 398.643 45.6758Z" fill="#B56124"/>
<path d="M392.172 26.0133L394.213 25.2407C394.213 25.2407 397.062 34.7502 390.003 35.6515C382.944 36.5528 374.378 38.1346 374.378 38.1346C374.378 38.1346 378.477 24.3762 392.172 26.0133Z" fill="#F3A436"/>
<path d="M386.768 18.1589C383.937 17.1841 380.702 17.0369 377.742 17.9566C377.742 17.9566 364.029 21.9664 365.003 28.3858C365.977 34.8052 372.797 40.8199 375.022 42.3097C375.022 42.3097 374.617 36.2031 381.033 32.9474C387.448 29.6917 396.253 32.7635 394.231 25.2405C393.331 21.948 390.389 19.3913 386.768 18.1589Z" fill="#F9C237"/>
<path d="M384.489 4.43716C384.342 4.43716 384.195 4.36359 384.139 4.21644L382.65 0.905592C382.559 0.703263 382.65 0.48254 382.834 0.390572C383.036 0.298604 383.257 0.390572 383.349 0.574508L384.838 3.88536C384.93 4.08769 384.838 4.30841 384.654 4.40038C384.581 4.43716 384.525 4.43716 384.489 4.43716Z" fill="#4F260D"/>
<path d="M382.007 5.65101C381.933 5.65101 381.878 5.63262 381.823 5.59583L378.661 3.81165C378.477 3.70129 378.404 3.48057 378.514 3.27824C378.625 3.0943 378.845 3.03912 379.029 3.13109L382.191 4.91527C382.375 5.02563 382.43 5.24636 382.338 5.43029C382.264 5.59583 382.136 5.65101 382.007 5.65101Z" fill="#4F260D"/>
<path d="M388.68 4.36343C388.643 4.36343 388.625 4.36343 388.588 4.34504C388.386 4.28986 388.257 4.08753 388.312 3.8852L389.084 0.739891C389.139 0.537561 389.342 0.408807 389.544 0.463988C389.746 0.519169 389.875 0.721498 389.82 0.923828L389.047 4.06913C389.011 4.25307 388.845 4.36343 388.68 4.36343Z" fill="#4F260D"/>
<path d="M395.059 6.80989C394.93 6.80989 394.82 6.75471 394.746 6.64435C394.636 6.46041 394.672 6.23969 394.856 6.11094L397.485 4.32676C397.669 4.21639 397.889 4.25318 398.018 4.41872C398.128 4.60266 398.092 4.82338 397.926 4.95214L395.297 6.73632C395.206 6.7915 395.132 6.80989 395.059 6.80989Z" fill="#4F260D"/>
<path d="M397.467 9.84477C397.283 9.84477 397.117 9.69762 397.081 9.51369C397.044 9.31136 397.191 9.10903 397.412 9.09063L400.555 8.64919C400.757 8.6124 400.959 8.75955 400.996 8.98027C401.033 9.1826 400.886 9.38493 400.665 9.40333L397.522 9.84477C397.503 9.84477 397.485 9.84477 397.467 9.84477Z" fill="#4F260D"/>
<path d="M392.264 4.84206C392.209 4.84206 392.172 4.82366 392.117 4.80527C391.915 4.73169 391.842 4.49258 391.915 4.30864L393.331 0.997793C393.404 0.795463 393.643 0.721888 393.827 0.795463C394.029 0.869037 394.121 1.10815 394.029 1.29209L392.614 4.60294C392.559 4.75009 392.43 4.84206 392.264 4.84206Z" fill="#4F260D"/>
<path d="M32.2976 47.3865C32.2976 47.3865 7.95914 72.5674 4.39293 70.2498C0.826714 67.9138 7.84881 58.6434 15.7901 54.0082C23.7129 49.373 33.3822 44.8298 32.2976 47.3865Z" fill="#91CABC"/>
<path d="M3.87823 69.8269C3.87823 69.8269 12.0768 63.941 8.7496 59.8208" stroke="#629797" stroke-miterlimit="10"/>
<path d="M9.54004 62.2487C9.54004 62.2487 10.8452 60.2071 13.9886 57.7055C15.1651 56.7675 16.5989 55.7558 18.3085 54.7626C24.6321 51.1206 31.1947 47.3867 31.1947 47.3867" stroke="#629797" stroke-miterlimit="10"/>
<path d="M11.3967 66.8103C11.3967 66.8103 16.3599 61.4945 14.8709 57.0249" stroke="#629797" stroke-miterlimit="10"/>
<path d="M29.8343 45.6021C29.8343 45.6021 2.42596 61.8989 0.311973 57.6499C-1.80202 53.4194 7.20541 45.4182 14.8342 44.4249C22.4629 43.4501 31.4336 43.4133 29.8343 45.6021Z" fill="#91CABC"/>
<path d="M5.97375 48.1772C5.97375 48.1772 6.8561 52.2054 14.1723 50.4028C21.4886 48.6186 29.246 45.3262 29.246 45.3262" stroke="#629797" stroke-miterlimit="10"/>
<path d="M0.312012 57.65C0.312012 57.65 9.22751 55.1669 11.1944 50.8628" stroke="#629797" stroke-miterlimit="10"/>
<path d="M7.46279 50.0532C7.46279 50.0532 4.6319 52.0581 1.85614 52.0029" stroke="#629797" stroke-miterlimit="10"/>
<path d="M34.9998 45.768C34.9998 45.768 68.695 36.2401 68.3274 31.9912C67.9597 27.7422 56.4706 29.5448 48.6396 34.3456C40.8087 39.1463 32.2425 45.5105 34.9998 45.768Z" fill="#91CABC"/>
<path d="M68.1987 31.3472C68.1987 31.3472 59.1361 35.7985 57.0773 30.9058" stroke="#629797" stroke-miterlimit="10"/>
<path d="M58.8604 32.7451C58.8604 32.7451 56.4522 32.9291 52.739 34.5109C51.3603 35.0995 49.7978 35.8904 48.1066 36.9389C41.9117 40.7831 35.5145 44.8113 35.5145 44.8113" stroke="#629797" stroke-miterlimit="10"/>
<path d="M62.0038 36.5342C62.0038 36.5342 54.9632 38.3919 51.7463 34.9707" stroke="#629797" stroke-miterlimit="10"/>
<path d="M34.6138 42.7513C34.6138 42.7513 61.9302 26.3074 59.1912 22.4448C56.4706 18.5637 45.1653 22.7207 40.68 28.9929C36.1763 35.2467 31.9299 43.1376 34.6138 42.7513Z" fill="#91CABC"/>
<path d="M48.1617 22.9414C48.1617 22.9414 51.2867 25.6269 46.2499 31.2369C41.2131 36.847 34.6505 42.1075 34.6505 42.1075" stroke="#629797" stroke-miterlimit="10"/>
<path d="M59.1912 22.4263C59.1912 22.4263 52.7941 29.1031 48.0514 28.8088" stroke="#629797" stroke-miterlimit="10"/>
<path d="M49.0992 25.1304C49.0992 25.1304 52.2059 23.5853 53.4559 21.1206" stroke="#629797" stroke-miterlimit="10"/>
<path d="M28.1248 28.864C28.2167 28.8088 28.3454 28.772 28.4557 28.7904C28.7682 28.8088 29.0072 29.0663 28.9888 29.379C28.9888 29.6181 29.2461 31.2368 29.5035 32.8186L32.1505 33.3704C32.3711 33.4256 32.555 33.5912 32.5918 33.8303C33.2168 37.0859 32.9778 39.5875 32.9594 39.6978C32.9226 40.0105 32.6469 40.2496 32.3344 40.2129C32.0219 40.1761 31.7829 39.9002 31.8197 39.5875C31.8197 39.5691 32.0402 37.3251 31.5255 34.4189L28.8601 33.8671C28.6211 33.8119 28.4557 33.6279 28.4005 33.4072C27.9961 30.9425 27.7939 29.5814 27.7939 29.3422C27.8674 29.1215 27.9778 28.956 28.1248 28.864Z" fill="#605E2C"/>
<path d="M32.1322 29.4525C32.2057 29.4157 32.2976 29.3789 32.3895 29.3789C32.702 29.3605 32.9778 29.5996 32.9962 29.9123L33.1249 32.0644C34.0072 32.2115 35.8455 32.6162 36.8565 33.5727C38.2168 34.8602 36.2499 39.6609 35.3307 41.6658C35.2021 41.9601 34.8528 42.0889 34.5771 41.9418C34.2829 41.813 34.1543 41.4635 34.3013 41.1876C35.7352 38.0423 36.5624 34.8602 36.066 34.4004C35.2021 33.5727 33.2168 33.2048 32.5182 33.1312C32.2425 33.0944 32.0219 32.8737 32.0035 32.5978L31.8381 29.9859C31.8381 29.7468 31.9484 29.5445 32.1322 29.4525Z" fill="#605E2C"/>
<path d="M38.5661 41.9786C38.7499 41.8682 38.9521 41.7946 39.1727 41.7579C40.6066 41.5555 43.2353 43.1558 43.75 43.4868C44.0257 43.6524 44.0992 44.0019 43.9338 44.2778C43.7683 44.5537 43.4191 44.6273 43.1433 44.4617C42.0955 43.7995 40.1286 42.8063 39.3382 42.8983C38.7499 42.9718 38.1801 44.4433 37.9779 45.4918C37.9227 45.8044 37.6102 46.0068 37.2977 45.9516C36.9852 45.8964 36.783 45.5837 36.8382 45.271C36.9117 44.7928 37.3896 42.6775 38.5661 41.9786Z" fill="#605E2C"/>
<path d="M20.6798 33.3338C20.5879 33.389 20.496 33.4809 20.4592 33.5913C20.3306 33.8672 20.4593 34.1983 20.7166 34.3454C20.9372 34.4742 22.2423 35.449 23.4923 36.4239L22.7203 39.0174C22.6468 39.2381 22.7203 39.4772 22.9041 39.6244C25.4776 41.7213 27.7939 42.6961 27.8858 42.7329C28.1799 42.8617 28.5108 42.7145 28.6395 42.4202C28.7682 42.1259 28.6211 41.7948 28.327 41.6661C28.3086 41.6661 26.2314 40.7832 23.9152 38.9622L24.6872 36.3503C24.7607 36.1296 24.6688 35.8721 24.485 35.7249C22.4997 34.1983 21.3967 33.3706 21.1945 33.2786C21.0291 33.2234 20.8269 33.2418 20.6798 33.3338Z" fill="#605E2C"/>
<path d="M19.2827 37.1229C19.2092 37.1597 19.1357 37.2333 19.0805 37.3068C18.9151 37.5827 18.9886 37.9322 19.2644 38.0978L21.0842 39.2198C20.7901 40.0659 20.2754 41.8685 20.6431 43.2296C21.1394 45.0505 26.2865 45.5656 28.4924 45.7127C28.8049 45.7311 29.0807 45.492 29.099 45.1793C29.1174 44.8666 28.8784 44.5907 28.5659 44.5723C25.11 44.3516 21.9298 43.5791 21.7644 42.9169C21.4519 41.7581 22.0585 39.8452 22.3342 39.2014C22.4445 38.9439 22.3342 38.6496 22.1136 38.5024L19.8894 37.1229C19.7055 37.0125 19.4665 37.0309 19.2827 37.1229Z" fill="#605E2C"/>
<path d="M27.2792 48.7294C27.0953 48.8397 26.9299 48.9869 26.8012 49.1524C25.9556 50.3296 26.1027 53.4013 26.1578 53.9899C26.1762 54.3026 26.4519 54.5417 26.7644 54.5233C27.0769 54.5049 27.3159 54.229 27.2976 53.9164C27.224 52.684 27.2608 50.4767 27.7387 49.833C28.088 49.3547 29.6505 49.5387 30.6615 49.8514C30.9557 49.9433 31.2866 49.7778 31.3785 49.4651C31.4704 49.1708 31.3049 48.8397 31.0108 48.7477C30.5512 48.619 28.4556 48.0304 27.2792 48.7294Z" fill="#605E2C"/>
<path d="M10.2753 13.3214C7.84881 9.25646 8.80473 8.22642 10.2386 7.38031C11.6724 6.5342 13.0143 6.16633 15.4408 10.2313C17.8673 14.2963 19.9261 20.3662 18.4923 21.2123C17.0768 22.0584 12.7018 17.3864 10.2753 13.3214Z" fill="#CAC754"/>
<path d="M14.9077 20.348C12.7937 16.798 13.6209 15.8967 14.8709 15.161C16.1209 14.4068 17.2974 14.0941 19.4298 17.6441C21.5438 21.1941 23.3453 26.5098 22.0953 27.2456C20.8637 27.9997 17.0401 23.8979 14.9077 20.348Z" fill="#A5A626"/>
<path d="M19.4666 27.3376C17.6099 24.2291 18.3453 23.4566 19.4298 22.7944C20.5144 22.1506 21.5622 21.8563 23.4188 24.9648C25.2754 28.0734 26.8564 32.7085 25.7534 33.3707C24.6689 34.0329 21.3232 30.4461 19.4666 27.3376Z" fill="#CAC754"/>
<path d="M23.2717 33.1314C21.6541 30.4275 22.2974 29.747 23.2533 29.1768C24.2092 28.6066 25.11 28.3675 26.7277 31.0713C28.3453 33.7752 29.724 37.8218 28.7681 38.392C27.8122 38.9622 24.9078 35.8353 23.2717 33.1314Z" fill="#A5A626"/>
<path d="M25.7902 37.0124C24.3012 34.5292 24.8895 33.9039 25.7718 33.3704C26.6358 32.8554 27.4814 32.6347 28.952 35.1178C30.441 37.601 31.691 41.3165 30.827 41.8499C29.9447 42.3649 27.2792 39.4955 25.7902 37.0124Z" fill="#CAC754"/>
<path d="M28.3086 40.9304C26.9483 38.6496 27.4814 38.0794 28.2902 37.6012C29.0991 37.123 29.8528 36.9206 31.2131 39.2014C32.5734 41.4822 33.7315 44.8667 32.9226 45.3449C32.1138 45.8231 29.6689 43.2112 28.3086 40.9304Z" fill="#A5A626"/>
<path d="M27.224 43.4685C26.5255 42.2913 27.6469 40.7463 29.5035 39.6426C31.3601 38.5206 33.2535 38.2815 33.952 39.4403C34.6506 40.5991 34.0624 43.0639 32.2057 44.1675C30.3491 45.2895 27.9226 44.6457 27.224 43.4685Z" fill="#CAC754"/>
<path d="M27.8674 47.5334C26.8931 45.9148 28.4556 43.7627 31.0292 42.2177C33.6027 40.6726 36.2498 40.3231 37.2057 41.9418C38.18 43.5604 37.3712 46.9632 34.7792 48.5083C32.2241 50.0533 28.8417 49.1521 27.8674 47.5334Z" fill="#A5A626"/>
<path d="M30.6615 54.9463C29.1541 52.4264 30.588 48.8212 33.8233 46.8715C37.077 44.9218 40.9374 45.3816 42.4264 47.9016C43.9337 50.4215 42.5183 54.0266 39.2646 55.9764C36.0109 57.9261 32.1689 57.4662 30.6615 54.9463Z" fill="#90991C"/>
<path d="M40.3491 56.2153C38.805 55.8658 37.9962 53.5482 38.566 51.0651C39.1359 48.5635 40.8454 46.8345 42.3896 47.1656C43.9337 47.5151 44.7425 49.8143 44.1727 52.3158C43.6028 54.8173 41.8933 56.5647 40.3491 56.2153Z" fill="#E9F5F5"/>
<path d="M38.9704 57.0247C39.3932 55.498 37.7388 53.6954 35.2755 53.0149C32.8122 52.3343 30.4593 53.0149 30.0365 54.5415C29.6137 56.0682 31.2681 57.8708 33.7314 58.5513C36.1946 59.2503 38.5476 58.5697 38.9704 57.0247Z" fill="#E9F5F5"/>
<path d="M40.294 53.291C39.9447 52.7208 40.1469 51.985 40.7167 51.6355C41.2866 51.2861 42.0219 51.47 42.3712 52.0586C42.7205 52.6288 42.5182 53.3645 41.9484 53.714C41.3785 54.0451 40.6432 53.8612 40.294 53.291Z" fill="#223114"/>
<path d="M41.5991 52.9413C41.4888 52.7573 41.544 52.5366 41.7278 52.4263C41.9116 52.3159 42.1322 52.3711 42.2425 52.555C42.3528 52.7389 42.2977 52.9597 42.1138 53.07C41.93 53.1804 41.7094 53.1252 41.5991 52.9413Z" fill="white"/>
<path d="M41.5624 52.0588C41.5072 51.9852 41.544 51.8749 41.6175 51.8381C41.6911 51.7829 41.8013 51.8197 41.8381 51.8933C41.8933 51.9668 41.8565 52.0772 41.783 52.114C41.7094 52.1508 41.5991 52.1324 41.5624 52.0588Z" fill="white"/>
<path d="M34.338 56.8593C33.9887 56.2891 34.1909 55.5534 34.7608 55.2039C35.3306 54.8544 36.0659 55.0383 36.4152 55.6269C36.7645 56.1971 36.5623 56.9329 35.9924 57.2824C35.4226 57.6134 34.6872 57.4295 34.338 56.8593Z" fill="#223114"/>
<path d="M35.6432 56.5096C35.5329 56.3257 35.588 56.105 35.7718 55.9946C35.9557 55.8843 36.1763 55.9394 36.2866 56.1234C36.3969 56.3073 36.3417 56.528 36.1579 56.6384C35.9741 56.7488 35.7535 56.6936 35.6432 56.5096Z" fill="white"/>
<path d="M35.6064 55.6086C35.5512 55.535 35.588 55.4247 35.6615 55.3879C35.7351 55.3327 35.8454 55.3695 35.8822 55.4431C35.9373 55.5167 35.9005 55.627 35.827 55.6638C35.7534 55.719 35.6432 55.7006 35.6064 55.6086Z" fill="white"/>
<path d="M30.8086 51.0651C30.1653 49.9799 31.452 48.0302 33.7131 46.6874C35.9557 45.3447 38.3087 45.124 38.9521 46.2092C39.5955 47.2944 38.3087 49.2442 36.0477 50.5869C33.805 51.9296 31.452 52.132 30.8086 51.0651Z" fill="#CAC754"/>
<path d="M31.691 51.7457C31.1027 50.7525 32.2792 48.9683 34.3381 47.7359C36.3969 46.5035 38.5293 46.3196 39.1175 47.2945C39.7058 48.2877 38.5293 50.0719 36.4704 51.3043C34.43 52.5366 32.2792 52.739 31.691 51.7457Z" fill="#A5A626"/>
<path d="M34.4116 47.8645C35.4778 47.2207 36.691 47.1471 37.5366 47.5886C37.5182 47.5518 37.4999 47.515 37.4815 47.4782C36.8565 46.4482 35.2756 46.2459 33.9153 47.0552C32.5733 47.8645 31.9851 49.3544 32.6101 50.4028C32.6285 50.4396 32.6469 50.4764 32.6836 50.5132C32.7204 49.5383 33.3454 48.5083 34.4116 47.8645Z" fill="#901306"/>
<path d="M32.4631 52.6656C31.8932 51.7275 33.0329 49.9985 34.9999 48.8213C36.9668 47.6441 39.0256 47.4602 39.5771 48.3983C40.147 49.3363 39.6506 52.1506 37.6837 53.3278C35.7168 54.505 33.0329 53.6221 32.4631 52.6656Z" fill="#CAC754"/>
<defs>
<linearGradient id="paint0_linear_175_11061" x1="186.991" y1="78.6753" x2="189.319" y2="78.6753" gradientUnits="userSpaceOnUse">
<stop stop-color="#383537"/>
<stop offset="0.0449" stop-color="#545152"/>
<stop offset="0.1083" stop-color="#747273"/>
<stop offset="0.1691" stop-color="#8C8A8A"/>
<stop offset="0.2254" stop-color="#9A9898"/>
<stop offset="0.2732" stop-color="#9F9D9D"/>
<stop offset="0.2968" stop-color="#989696"/>
<stop offset="0.4334" stop-color="#767374"/>
<stop offset="0.5721" stop-color="#5B5859"/>
<stop offset="0.7119" stop-color="#474546"/>
<stop offset="0.8536" stop-color="#3C393B"/>
<stop offset="1" stop-color="#383537"/>
</linearGradient>
<linearGradient id="paint1_linear_175_11061" x1="186.479" y1="29.0095" x2="189.806" y2="29.0095" gradientUnits="userSpaceOnUse">
<stop stop-color="#383537"/>
<stop offset="0.0449" stop-color="#545152"/>
<stop offset="0.1083" stop-color="#747273"/>
<stop offset="0.1691" stop-color="#8C8A8A"/>
<stop offset="0.2254" stop-color="#9A9898"/>
<stop offset="0.2732" stop-color="#9F9D9D"/>
<stop offset="0.2968" stop-color="#989696"/>
<stop offset="0.4334" stop-color="#767374"/>
<stop offset="0.5721" stop-color="#5B5859"/>
<stop offset="0.7119" stop-color="#474546"/>
<stop offset="0.8536" stop-color="#3C393B"/>
<stop offset="1" stop-color="#383537"/>
</linearGradient>
<radialGradient id="paint2_radial_175_11061" cx="0" cy="0" r="1" gradientUnits="userSpaceOnUse" gradientTransform="translate(188.183 24.3989) scale(1.99807 1.9542)">
<stop stop-color="#9F9D9D"/>
<stop offset="0.1421" stop-color="#8C8A8B"/>
<stop offset="0.5298" stop-color="#5F5C5D"/>
<stop offset="0.8284" stop-color="#434041"/>
<stop offset="1" stop-color="#383537"/>
</radialGradient>
<radialGradient id="paint3_radial_175_11061" cx="0" cy="0" r="1" gradientUnits="userSpaceOnUse" gradientTransform="translate(188.183 24.3989) scale(1.99807 1.9542)">
<stop stop-color="#9F9D9D"/>
<stop offset="0.1421" stop-color="#8C8A8B"/>
<stop offset="0.5298" stop-color="#5F5C5D"/>
<stop offset="0.8284" stop-color="#434041"/>
<stop offset="1" stop-color="#383537"/>
</radialGradient>
<radialGradient id="paint4_radial_175_11061" cx="0" cy="0" r="1" gradientUnits="userSpaceOnUse" gradientTransform="translate(187.859 24.1479) scale(1.48707 1.45442)">
<stop stop-color="#878585"/>
<stop offset="0.0118" stop-color="#838282"/>
<stop offset="0.1821" stop-color="#555353"/>
<stop offset="0.3447" stop-color="#302F2F"/>
<stop offset="0.4954" stop-color="#161515"/>
<stop offset="0.6299" stop-color="#060606"/>
<stop offset="0.7346"/>
</radialGradient>
<linearGradient id="paint5_linear_175_11061" x1="188.183" y1="31.1712" x2="188.183" y2="34.0776" gradientUnits="userSpaceOnUse">
<stop stop-color="#505050"/>
<stop offset="0.0277" stop-color="#626262"/>
<stop offset="0.107" stop-color="#929292"/>
<stop offset="0.1861" stop-color="#B9B9B9"/>
<stop offset="0.2637" stop-color="#D8D8D8"/>
<stop offset="0.3394" stop-color="#EDEDED"/>
<stop offset="0.4121" stop-color="#FBFBFB"/>
<stop offset="0.4788" stop-color="white"/>
<stop offset="0.5497" stop-color="#FAFAFA"/>
<stop offset="0.6291" stop-color="#EDEDED"/>
<stop offset="0.7125" stop-color="#D6D6D6"/>
<stop offset="0.7989" stop-color="#B7B7B7"/>
<stop offset="0.8873" stop-color="#8F8F8F"/>
<stop offset="0.9764" stop-color="#5E5E5E"/>
<stop offset="1" stop-color="#505050"/>
</linearGradient>
<linearGradient id="paint6_linear_175_11061" x1="188.189" y1="102.19" x2="188.189" y2="105.513" gradientUnits="userSpaceOnUse">
<stop stop-color="#505050"/>
<stop offset="0.2588" stop-color="#8C8C8C"/>
<stop offset="0.5025" stop-color="#BEBEBE"/>
<stop offset="0.7151" stop-color="#E1E1E1"/>
<stop offset="0.8881" stop-color="#F7F7F7"/>
<stop offset="1" stop-color="white"/>
</linearGradient>
<linearGradient id="paint7_linear_175_11061" x1="188.183" y1="26.8648" x2="188.183" y2="26.0417" gradientUnits="userSpaceOnUse">
<stop stop-color="#505050"/>
<stop offset="0.2588" stop-color="#8C8C8C"/>
<stop offset="0.5025" stop-color="#BEBEBE"/>
<stop offset="0.7151" stop-color="#E1E1E1"/>
<stop offset="0.8881" stop-color="#F7F7F7"/>
<stop offset="1" stop-color="white"/>
</linearGradient>
<linearGradient id="paint8_linear_175_11061" x1="186.972" y1="29.0095" x2="188.154" y2="29.0095" gradientUnits="userSpaceOnUse">
<stop offset="0.1147"/>
<stop offset="0.208" stop-color="#242424"/>
<stop offset="0.3287" stop-color="#4C4C4C"/>
<stop offset="0.4244" stop-color="#656565"/>
<stop offset="0.4826" stop-color="#6E6E6E"/>
<stop offset="0.4886" stop-color="#6B6B6B"/>
<stop offset="0.6075" stop-color="#3D3D3D"/>
<stop offset="0.7131" stop-color="#1C1C1C"/>
<stop offset="0.8005" stop-color="#070707"/>
<stop offset="0.8588"/>
</linearGradient>
</defs>
</svg>
