<svg width="30" height="37" viewBox="0 0 30 37" fill="none" xmlns="http://www.w3.org/2000/svg">
<path d="M25.0551 19.5744C25.1069 25.1503 29.9464 27.0057 30 27.0293C29.9591 27.1601 29.2267 29.6735 27.4503 32.2696C25.9146 34.5142 24.3209 36.7504 21.8102 36.7967C19.3432 36.8422 18.5499 35.3338 15.7295 35.3338C12.9098 35.3338 12.0285 36.7505 9.69318 36.8422C7.26973 36.934 5.42424 34.4152 3.87591 32.1789C0.711948 27.6045 -1.70597 19.2528 1.54068 13.6152C3.15355 10.8156 6.03587 9.04276 9.16437 8.9973C11.5441 8.95191 13.7903 10.5984 15.2451 10.5984C16.699 10.5984 19.4286 8.61835 22.2982 8.90914C23.4995 8.95915 26.8716 9.39441 29.0368 12.5639C28.8623 12.6721 25.0132 14.9129 25.0551 19.5744ZM20.4186 5.88281C21.7053 4.32536 22.5712 2.15725 22.335 0C20.4804 0.07454 18.2378 1.23586 16.9076 2.79245C15.7154 4.17089 14.6714 6.37715 14.9531 8.49171C17.0202 8.65164 19.132 7.44124 20.4186 5.88281Z" fill="#3C3C3C"/>
</svg>
