<svg width="25" height="25" viewBox="0 0 25 25" fill="none" xmlns="http://www.w3.org/2000/svg">
<path d="M13.9062 14.0625H11.7188C11.25 14.0625 10.9375 13.75 10.9375 13.2812V11.0938C10.9375 10.8594 11.0156 10.7031 11.1719 10.5469L19.4531 2.26563C19.6094 2.10938 19.7656 2.03125 20 2.03125C20.2344 2.03125 20.3906 2.10938 20.5469 2.26563L22.7344 4.45312C23.0469 4.76562 23.0469 5.23438 22.7344 5.54688L14.4531 13.8281C14.2969 13.9844 14.1406 14.0625 13.9062 14.0625Z" fill="#0B1F51"/>
<path d="M15.5469 14.9219C15.0781 15.3906 14.5312 15.625 13.9062 15.625H11.7188C10.3906 15.625 9.375 14.6094 9.375 13.2812V11.0938C9.375 10.4688 9.60937 9.84375 10.0781 9.45313L14.7656 4.6875H7.03125C5.70312 4.6875 4.6875 5.70312 4.6875 7.03125V17.9688C4.6875 19.2969 5.70312 20.3125 7.03125 20.3125H17.9688C19.2969 20.3125 20.3125 19.2969 20.3125 17.9688V10.2344L15.5469 14.9219Z" fill="#0B1F51"/>
</svg>
