<svg width="311" height="295" viewBox="0 0 311 295" fill="none" xmlns="http://www.w3.org/2000/svg">
<path opacity="0.37" d="M176.04 294.563C164.988 295.342 153.568 295.065 141.795 293.844C116.138 291.182 88.9792 288.038 65.9365 275.524C-41.5924 217.126 11.76 67.5684 102.618 24.2877C116.607 17.6242 131.718 13.1885 147.207 12.0671C221.465 6.69112 300.711 65.0813 309.832 140.859C314.945 183.337 297.522 224.944 267.014 254.258C240.398 279.83 209.945 292.171 176.04 294.563Z" fill="#DDDEE6"/>
<path d="M299.2 261.172H18.1249V43.438C18.1249 41.731 19.5086 40.3473 21.2156 40.3473H296.108C297.815 40.3473 299.199 41.731 299.199 43.438V261.172H299.2Z" stroke="#8E95A3" stroke-miterlimit="10"/>
<path d="M114.547 284.778H215.441" stroke="#A8A8A8" stroke-miterlimit="10"/>
<path d="M175.986 51.8867H141.246V77.5097H175.986V51.8867Z" stroke="#C9CED6" stroke-miterlimit="10"/>
<path d="M213.826 51.8867H179.087V77.5097H213.826V51.8867Z" stroke="#8E95A3" stroke-miterlimit="10"/>
<path d="M251.668 51.8867H216.928V77.5097H251.668V51.8867Z" stroke="#8E95A3" stroke-miterlimit="10"/>
<path d="M289.508 51.8867H254.769V77.5097H289.508V51.8867Z" stroke="#8E95A3" stroke-miterlimit="10"/>
<path d="M62.463 81.0177H27.7235V106.641H62.463V81.0177Z" stroke="#8E95A3" stroke-miterlimit="10"/>
<path d="M100.304 81.0177H65.5643V106.641H100.304V81.0177Z" stroke="#8E95A3" stroke-miterlimit="10"/>
<path d="M138.145 81.0177H103.406V106.641H138.145V81.0177Z" stroke="#8E95A3" stroke-miterlimit="10"/>
<path d="M175.986 81.0177H141.246V106.641H175.986V81.0177Z" stroke="#8E95A3" stroke-miterlimit="10"/>
<path d="M213.826 81.0177H179.087V106.641H213.826V81.0177Z" stroke="#8E95A3" stroke-miterlimit="10"/>
<path d="M251.668 81.0177H216.928V106.641H251.668V81.0177Z" fill="#4C9C7E"/>
<path d="M289.508 81.0177H254.769V106.641H289.508V81.0177Z" stroke="#8E95A3" stroke-miterlimit="10"/>
<path d="M62.463 110.15H27.7235V135.773H62.463V110.15Z" stroke="#8E95A3" stroke-miterlimit="10"/>
<path d="M100.304 110.15H65.5643V135.773H100.304V110.15Z" stroke="#8E95A3" stroke-miterlimit="10"/>
<path d="M138.145 110.15H103.406V135.773H138.145V110.15Z" fill="#396BC5"/>
<path d="M175.986 110.15H141.246V135.773H175.986V110.15Z" stroke="#8E95A3" stroke-miterlimit="10"/>
<path d="M213.826 110.15H179.087V135.773H213.826V110.15Z" stroke="#8E95A3" stroke-miterlimit="10"/>
<path d="M251.668 110.15H216.928V135.773H251.668V110.15Z" fill="#C93C72"/>
<path d="M289.508 110.15H254.769V135.773H289.508V110.15Z" stroke="#8E95A3" stroke-miterlimit="10"/>
<path d="M62.463 139.281H27.7235V164.903H62.463V139.281Z" stroke="#8E95A3" stroke-miterlimit="10"/>
<path d="M100.304 139.281H65.5643V164.903H100.304V139.281Z" stroke="#8E95A3" stroke-miterlimit="10"/>
<path d="M138.145 139.281H103.406V164.903H138.145V139.281Z" stroke="#8E95A3" stroke-miterlimit="10"/>
<path d="M175.986 139.281H141.246V164.903H175.986V139.281Z" stroke="#8E95A3" stroke-miterlimit="10"/>
<path d="M213.826 139.281H179.087V164.903H213.826V139.281Z" stroke="#8E95A3" stroke-miterlimit="10"/>
<path d="M251.668 139.281H216.928V164.903H251.668V139.281Z" stroke="#8E95A3" stroke-miterlimit="10"/>
<path d="M289.508 139.281H254.769V164.903H289.508V139.281Z" stroke="#8E95A3" stroke-miterlimit="10"/>
<path d="M62.463 168.411H27.7235V194.034H62.463V168.411Z" stroke="#8E95A3" stroke-miterlimit="10"/>
<path d="M100.304 168.411H65.5643V194.034H100.304V168.411Z" stroke="#8E95A3" stroke-miterlimit="10"/>
<path d="M138.145 168.411H103.406V194.034H138.145V168.411Z" stroke="#8E95A3" stroke-miterlimit="10"/>
<path d="M175.986 168.411H141.246V194.034H175.986V168.411Z" stroke="#8E95A3" stroke-miterlimit="10"/>
<path d="M213.826 168.411H179.087V194.034H213.826V168.411Z" stroke="#8E95A3" stroke-miterlimit="10"/>
<path d="M251.668 168.411H216.928V194.034H251.668V168.411Z" stroke="#8E95A3" stroke-miterlimit="10"/>
<path d="M34.7873 93.8293C36.7334 93.8293 38.311 92.2517 38.311 90.3056C38.311 88.3596 36.7334 86.782 34.7873 86.782C32.8413 86.782 31.2637 88.3596 31.2637 90.3056C31.2637 92.2517 32.8413 93.8293 34.7873 93.8293Z" stroke="#8E95A3" stroke-miterlimit="10"/>
<path d="M72.7583 93.8293C74.7043 93.8293 76.2819 92.2517 76.2819 90.3056C76.2819 88.3596 74.7043 86.782 72.7583 86.782C70.8122 86.782 69.2346 88.3596 69.2346 90.3056C69.2346 92.2517 70.8122 93.8293 72.7583 93.8293Z" stroke="#8E95A3" stroke-miterlimit="10"/>
<path d="M114.253 90.3056C114.253 92.2519 112.676 93.8293 110.729 93.8293C108.783 93.8293 107.206 92.2519 107.206 90.3056C107.206 88.3594 108.783 86.782 110.729 86.782C112.676 86.7827 114.253 88.3601 114.253 90.3056Z" stroke="#8E95A3" stroke-miterlimit="10"/>
<path d="M152.224 90.3056C152.224 92.2519 150.647 93.8293 148.7 93.8293C146.754 93.8293 145.177 92.2519 145.177 90.3056C145.177 88.3594 146.754 86.782 148.7 86.782C150.647 86.7827 152.224 88.3601 152.224 90.3056Z" stroke="#8E95A3" stroke-miterlimit="10"/>
<path d="M186.672 93.8293C188.618 93.8293 190.196 92.2517 190.196 90.3056C190.196 88.3596 188.618 86.782 186.672 86.782C184.726 86.782 183.149 88.3596 183.149 90.3056C183.149 92.2517 184.726 93.8293 186.672 93.8293Z" stroke="#8E95A3" stroke-miterlimit="10"/>
<path d="M224.643 93.8293C226.589 93.8293 228.167 92.2517 228.167 90.3056C228.167 88.3596 226.589 86.782 224.643 86.782C222.697 86.782 221.12 88.3596 221.12 90.3056C221.12 92.2517 222.697 93.8293 224.643 93.8293Z" stroke="white" stroke-miterlimit="10"/>
<path d="M262.614 93.8293C264.56 93.8293 266.138 92.2517 266.138 90.3056C266.138 88.3596 264.56 86.782 262.614 86.782C260.668 86.782 259.09 88.3596 259.09 90.3056C259.09 92.2517 260.668 93.8293 262.614 93.8293Z" stroke="#8E95A3" stroke-miterlimit="10"/>
<path d="M34.7873 122.407C36.7334 122.407 38.311 120.829 38.311 118.883C38.311 116.937 36.7334 115.359 34.7873 115.359C32.8413 115.359 31.2637 116.937 31.2637 118.883C31.2637 120.829 32.8413 122.407 34.7873 122.407Z" stroke="#8E95A3" stroke-miterlimit="10"/>
<path d="M72.7583 122.407C74.7043 122.407 76.2819 120.829 76.2819 118.883C76.2819 116.937 74.7043 115.359 72.7583 115.359C70.8122 115.359 69.2346 116.937 69.2346 118.883C69.2346 120.829 70.8122 122.407 72.7583 122.407Z" stroke="#8E95A3" stroke-miterlimit="10"/>
<path d="M114.253 118.883C114.253 120.829 112.676 122.407 110.729 122.407C108.783 122.407 107.206 120.829 107.206 118.883C107.206 116.937 108.783 115.359 110.729 115.359C112.676 115.359 114.253 116.937 114.253 118.883Z" stroke="white" stroke-miterlimit="10"/>
<path d="M152.224 118.883C152.224 120.829 150.647 122.407 148.7 122.407C146.754 122.407 145.177 120.829 145.177 118.883C145.177 116.937 146.754 115.359 148.7 115.359C150.647 115.359 152.224 116.937 152.224 118.883Z" stroke="#8E95A3" stroke-miterlimit="10"/>
<path d="M186.672 122.407C188.618 122.407 190.196 120.829 190.196 118.883C190.196 116.937 188.618 115.359 186.672 115.359C184.726 115.359 183.149 116.937 183.149 118.883C183.149 120.829 184.726 122.407 186.672 122.407Z" stroke="#8E95A3" stroke-miterlimit="10"/>
<path d="M224.643 122.407C226.589 122.407 228.167 120.829 228.167 118.883C228.167 116.937 226.589 115.359 224.643 115.359C222.697 115.359 221.12 116.937 221.12 118.883C221.12 120.829 222.697 122.407 224.643 122.407Z" stroke="white" stroke-miterlimit="10"/>
<path d="M262.614 122.407C264.56 122.407 266.138 120.829 266.138 118.883C266.138 116.937 264.56 115.359 262.614 115.359C260.668 115.359 259.09 116.937 259.09 118.883C259.09 120.829 260.668 122.407 262.614 122.407Z" stroke="#8E95A3" stroke-miterlimit="10"/>
<path d="M34.7873 150.982C36.7334 150.982 38.311 149.405 38.311 147.459C38.311 145.513 36.7334 143.935 34.7873 143.935C32.8413 143.935 31.2637 145.513 31.2637 147.459C31.2637 149.405 32.8413 150.982 34.7873 150.982Z" stroke="#8E95A3" stroke-miterlimit="10"/>
<path d="M72.7583 150.982C74.7043 150.982 76.2819 149.405 76.2819 147.459C76.2819 145.513 74.7043 143.935 72.7583 143.935C70.8122 143.935 69.2346 145.513 69.2346 147.459C69.2346 149.405 70.8122 150.982 72.7583 150.982Z" stroke="#8E95A3" stroke-miterlimit="10"/>
<path d="M114.253 147.459C114.253 149.405 112.676 150.982 110.729 150.982C108.783 150.982 107.206 149.405 107.206 147.459C107.206 145.513 108.783 143.935 110.729 143.935C112.676 143.936 114.253 145.513 114.253 147.459Z" stroke="#8E95A3" stroke-miterlimit="10"/>
<path d="M152.224 147.459C152.224 149.405 150.647 150.982 148.7 150.982C146.754 150.982 145.177 149.405 145.177 147.459C145.177 145.513 146.754 143.935 148.7 143.935C150.647 143.936 152.224 145.513 152.224 147.459Z" stroke="#8E95A3" stroke-miterlimit="10"/>
<path d="M186.672 150.982C188.618 150.982 190.196 149.405 190.196 147.459C190.196 145.513 188.618 143.935 186.672 143.935C184.726 143.935 183.149 145.513 183.149 147.459C183.149 149.405 184.726 150.982 186.672 150.982Z" stroke="#8E95A3" stroke-miterlimit="10"/>
<path d="M224.643 150.982C226.589 150.982 228.167 149.405 228.167 147.459C228.167 145.513 226.589 143.935 224.643 143.935C222.697 143.935 221.12 145.513 221.12 147.459C221.12 149.405 222.697 150.982 224.643 150.982Z" stroke="#8E95A3" stroke-miterlimit="10"/>
<path d="M262.614 150.982C264.56 150.982 266.138 149.405 266.138 147.459C266.138 145.513 264.56 143.935 262.614 143.935C260.668 143.935 259.09 145.513 259.09 147.459C259.09 149.405 260.668 150.982 262.614 150.982Z" stroke="#8E95A3" stroke-miterlimit="10"/>
<path d="M34.7873 180.367C36.7334 180.367 38.311 178.789 38.311 176.843C38.311 174.897 36.7334 173.32 34.7873 173.32C32.8413 173.32 31.2637 174.897 31.2637 176.843C31.2637 178.789 32.8413 180.367 34.7873 180.367Z" stroke="#8E95A3" stroke-miterlimit="10"/>
<path d="M72.7583 180.367C74.7043 180.367 76.2819 178.789 76.2819 176.843C76.2819 174.897 74.7043 173.319 72.7583 173.319C70.8122 173.319 69.2346 174.897 69.2346 176.843C69.2346 178.789 70.8122 180.367 72.7583 180.367Z" stroke="#8E95A3" stroke-miterlimit="10"/>
<path d="M114.253 176.843C114.253 178.789 112.676 180.367 110.729 180.367C108.783 180.367 107.206 178.789 107.206 176.843C107.206 174.897 108.783 173.319 110.729 173.319C112.676 173.319 114.253 174.897 114.253 176.843Z" stroke="#8E95A3" stroke-miterlimit="10"/>
<path d="M152.224 176.843C152.224 178.789 150.647 180.367 148.7 180.367C146.754 180.367 145.177 178.789 145.177 176.843C145.177 174.897 146.754 173.319 148.7 173.319C150.647 173.319 152.224 174.897 152.224 176.843Z" stroke="#8E95A3" stroke-miterlimit="10"/>
<path d="M186.672 180.367C188.618 180.367 190.196 178.789 190.196 176.843C190.196 174.897 188.618 173.319 186.672 173.319C184.726 173.319 183.149 174.897 183.149 176.843C183.149 178.789 184.726 180.367 186.672 180.367Z" stroke="#8E95A3" stroke-miterlimit="10"/>
<path d="M224.643 180.367C226.589 180.367 228.167 178.789 228.167 176.843C228.167 174.897 226.589 173.319 224.643 173.319C222.697 173.319 221.12 174.897 221.12 176.843C221.12 178.789 222.697 180.367 224.643 180.367Z" stroke="#8E95A3" stroke-miterlimit="10"/>
<path d="M152.224 58.9326C152.224 60.8788 150.647 62.4562 148.7 62.4562C146.754 62.4562 145.177 60.8788 145.177 58.9326C145.177 56.9863 146.754 55.4089 148.7 55.4089C150.647 55.4089 152.224 56.9863 152.224 58.9326Z" stroke="#8E95A3" stroke-miterlimit="10"/>
<path d="M186.672 62.4562C188.618 62.4562 190.196 60.8786 190.196 58.9326C190.196 56.9865 188.618 55.4089 186.672 55.4089C184.726 55.4089 183.149 56.9865 183.149 58.9326C183.149 60.8786 184.726 62.4562 186.672 62.4562Z" stroke="#8E95A3" stroke-miterlimit="10"/>
<path d="M224.643 62.4562C226.589 62.4562 228.167 60.8786 228.167 58.9326C228.167 56.9865 226.589 55.4089 224.643 55.4089C222.697 55.4089 221.12 56.9865 221.12 58.9326C221.12 60.8786 222.697 62.4562 224.643 62.4562Z" stroke="#8E95A3" stroke-miterlimit="10"/>
<path d="M262.614 62.4562C264.56 62.4562 266.138 60.8786 266.138 58.9326C266.138 56.9865 264.56 55.4089 262.614 55.4089C260.668 55.4089 259.09 56.9865 259.09 58.9326C259.09 60.8786 260.668 62.4562 262.614 62.4562Z" stroke="#8E95A3" stroke-miterlimit="10"/>
<path d="M169.002 124.086C179.833 126.982 191.196 130.123 196.607 134.919C200.95 138.769 200.824 143.28 197.954 147.353C195.084 151.426 189.653 155.122 183.651 158.583" fill="#EB7CB8"/>
<path d="M177.231 262.978C177.338 264.781 178.143 278.296 178.143 278.296L188.991 277.248L188.037 261.254L177.231 262.978Z" fill="#EB7CB8"/>
<path d="M189.051 275.323C189.07 274.945 184.373 274.872 183.825 274.909C182.702 274.986 181.566 274.946 180.459 274.735C179.715 274.592 178.342 273.771 177.643 273.983C177.115 274.143 176.292 275.347 175.708 275.686C174.839 276.191 173.867 276.513 172.928 276.858C169.398 278.156 165.041 280.289 163.219 283.833C163.088 284.087 163.292 284.388 163.579 284.379C164.494 284.35 190.81 284.391 191.171 284.379C191.236 281.642 188.913 278.015 189.051 275.323Z" fill="#1B2258"/>
<path d="M161.953 199.58C161.401 193.74 160.89 187.87 160.965 182.011C161.033 176.593 160.264 170.886 160.858 165.508C161.31 161.421 162.822 157.362 165.653 154.971C168.017 152.974 171.074 152.32 174.041 152.394C177.231 152.475 180.732 153.574 182.602 156.656C184.142 159.194 184.232 162.477 184.228 165.536C184.214 174.594 183.394 183.606 184.197 192.58C185.071 202.363 184.646 212.487 185.268 222.337C186.045 234.637 188.43 246.937 190.023 259.237C190.81 265.314 186.191 270.57 180.082 270.616C180.006 270.617 179.931 270.618 179.856 270.619C174.529 270.672 169.902 266.735 169.139 261.444C166.216 241.15 163.836 219.537 161.953 199.58Z" fill="#263238"/>
<path d="M144.51 263.598C144.435 265.415 143.874 279.04 143.874 279.04L154.821 278.354L155.485 262.231L144.51 263.598Z" fill="#EB7CB8"/>
<path d="M166.499 112.108H157.017V124.041H166.499V112.108Z" fill="#EB7CB8"/>
<path d="M164.685 200.635C165.919 196.637 166.751 194.098 167.885 190.07C167.924 189.932 169.795 183.302 170.42 179.411C170.42 179.404 170.42 179.396 170.42 179.388C170.394 178.704 170.361 177.908 170.881 177.462C170.985 177.372 171.105 177.306 171.229 177.246C171.699 176.225 172.25 175.244 172.776 174.246C173.18 173.48 173.498 172.712 173.727 171.92C173.811 166.285 172.463 160.302 167.733 156.744C165.566 155.115 162.913 154.636 160.339 154.479C155.816 154.204 148.46 154.973 144.872 159.277C143.726 160.652 142.964 162.386 142.802 164.564C142.265 171.76 143.715 178.836 142.369 185.905C140.739 194.467 139.383 203.082 138.306 211.73C137.576 217.588 136.972 223.484 137.168 229.384C137.482 238.852 138.643 248.056 138.58 257.537C138.534 264.38 141.508 271.495 149.486 271.457C149.951 271.455 150.418 271.458 150.883 271.467C159.531 271.628 160.97 264.255 161.366 257.441C161.895 248.367 161 239.293 160.726 230.227C160.583 225.49 160.326 220.423 160.641 215.725C160.961 210.954 163.274 205.206 164.685 200.635Z" fill="#263238"/>
<path d="M185.787 161.438C185.706 155.683 185.162 149.667 184.004 144.019C182.337 135.893 178.631 128.325 172.093 123.033C170.603 121.827 169.027 120.68 167.23 120.013C162.612 118.3 152.666 119.234 148.965 122.014C147.517 123.101 146.436 124.43 145.593 125.912C145.63 129.603 145.755 133.292 145.827 136.983C145.969 144.239 145.895 151.542 144.219 158.638C143.484 161.747 142.595 164.839 141.831 167.954C142.056 168.017 142.295 168.049 142.528 168.073C150.054 168.855 157.633 168.648 165.179 168.327C168.282 168.195 171.383 168.04 174.486 167.928C177.345 167.824 181.021 168.422 183.777 167.768C183.992 167.717 184.185 167.643 184.358 167.55C186.189 166.567 185.815 163.391 185.787 161.438Z" fill="#6594FE"/>
<path d="M154.119 130.683C153.305 128.398 151.405 126.03 148.999 126.332C147.979 126.46 147.086 127.058 146.255 127.662C140.204 132.057 134.78 137.462 131.034 143.934C126.991 137.772 122.948 131.611 118.905 125.45C118.395 124.674 117.847 123.873 117.154 123.272C116.79 122.848 116.415 122.433 116.02 122.038C115.392 121.41 114.722 120.831 114.029 120.276C113.373 119.752 112.702 119.223 112.293 118.475C111.795 117.563 110.4 118.376 110.899 119.289C111.322 120.063 111.959 120.667 112.637 121.217C113.018 121.527 113.394 121.837 113.765 122.155C112.914 122.313 112.158 122.813 111.544 123.408C110.88 124.051 110.303 124.81 109.854 125.619C109.386 126.463 108.881 127.505 108.963 128.494C109.05 129.548 109.836 130.563 110.335 131.462C110.654 132.036 110.972 132.612 111.291 133.186C115.016 143.323 121.378 152.48 129.585 159.501C130.496 160.281 131.488 161.062 132.671 161.261C134.273 161.531 135.832 160.681 137.2 159.806C141.549 157.024 145.527 153.66 148.994 149.834C153.514 144.842 156.379 137.026 154.119 130.683Z" fill="#EB7CB8"/>
<mask id="mask0_11_689" style="mask-type:luminance" maskUnits="userSpaceOnUse" x="157" y="112" width="10" height="13">
<path d="M166.499 112.108H157.017V124.041H166.499V112.108Z" fill="white"/>
</mask>
<g mask="url(#mask0_11_689)">
<path d="M156.055 117.109C156.592 117.998 157.747 118.886 158.761 119.085C159.256 119.182 159.799 119.138 160.217 118.855C160.597 118.598 160.831 118.177 161.006 117.753C161.108 117.508 161.195 117.245 161.16 116.983C161.061 116.243 160.397 116.256 159.949 115.874C159.562 115.545 159.474 115.154 159 114.862C158.231 114.389 156.852 113.725 156.016 114.379C155.342 114.905 155.691 116.505 156.055 117.109Z" fill="#1B2258"/>
</g>
<path d="M134.061 136.377C137.801 132.64 141.54 128.903 145.281 125.166C146.427 124.021 147.585 122.865 148.964 122.015C153.528 119.198 159.741 118.928 162.5 124.04C165.515 129.622 162.059 136.644 158.75 141.399C155.69 145.794 151.704 149.449 147.755 153.064C148.205 153.125 148.682 152.878 148.893 152.475" fill="#6594FE"/>
<path d="M154.61 108.404C154.031 109.97 153.561 111.655 153.875 113.295C154.205 115.019 155.436 116.534 157.039 117.247C158.642 117.961 160.572 117.866 162.117 117.035C163.053 116.532 163.838 115.786 164.529 114.979C166.134 113.1 167.32 110.71 166.275 108.281C165.986 107.609 165.605 106.962 165.064 106.468C164.369 105.832 163.462 105.491 162.579 105.164C161.41 104.732 160.238 104.298 159.028 103.999C157.542 103.633 156.916 103.508 156.09 104.861C155.419 105.96 155.054 107.204 154.61 108.404Z" fill="#EB7CB8"/>
<path d="M166.923 105.426C166.543 104.986 165.995 104.654 165.441 104.46C164.464 104.12 163.402 104.065 162.437 103.692C160.65 103.002 159.232 101.253 157.317 101.239C156.118 101.231 154.951 102.016 154.506 103.13C154.163 103.99 154.216 105.378 154.918 106.075C155.645 106.796 156.592 106.415 157.534 106.687C158.148 106.864 158.659 107.128 159.326 107.179C159.392 108.152 159.46 109.135 159.758 110.064C160.055 110.994 160.608 111.876 161.445 112.375C161.659 112.502 161.897 112.611 162.047 112.809C162.296 113.137 162.23 113.592 162.241 114.003C162.276 115.293 164.22 117.674 165.638 116.601C166.287 116.11 166.523 115.295 166.96 114.644C167.42 113.959 168.265 113.387 168.588 112.631C169.264 111.053 167.747 109.665 167.368 108.207C167.232 107.686 167.454 107.14 167.426 106.603C167.403 106.158 167.213 105.761 166.923 105.426Z" fill="#1B2258"/>
<path d="M160.823 108.113C157.963 108.113 157.958 112.108 160.823 112.108C163.684 112.108 163.688 108.113 160.823 108.113Z" fill="#EB7CB8"/>
<path d="M155.32 108.144C154.572 108.942 153.498 109.425 152.405 109.453C152.585 110.141 153.281 110.584 153.977 110.733C154.221 110.785 154.516 110.845 154.599 111.08" fill="#EB7CB8"/>
<path d="M160.618 108.97C161.125 108.91 161.572 109.403 161.619 109.912C161.666 110.421 161.413 110.911 161.103 111.317" stroke="#1B2258" stroke-width="0.5" stroke-miterlimit="10"/>
<path d="M154.4 113.064C154.91 113.223 155.505 113.063 155.867 112.669" stroke="#1B2258" stroke-width="0.5" stroke-miterlimit="10"/>
<path d="M155.93 108.352C155.411 108.352 155.41 109.159 155.93 109.159C156.449 109.159 156.451 108.352 155.93 108.352Z" fill="#1B2258"/>
<path d="M148.217 151.874C152.776 148.357 156.697 144.018 159.747 139.134" stroke="#1B2258" stroke-width="0.5" stroke-miterlimit="10"/>
<path d="M156.184 284.362C156.313 281.735 154.687 278.987 155.076 276.419C155.134 276.039 150.448 275.806 149.898 275.825C149.053 275.854 148.203 275.82 147.367 275.691C146.469 275.551 145.358 274.862 144.505 274.851C143.164 274.834 142.263 276.912 140.857 277.455C138.609 278.323 136.22 278.813 134.027 279.814C132.127 280.681 129.873 282.248 129.217 284.362H156.184Z" fill="#1B2258"/>
<path d="M169.276 133.548C170.487 135.344 171.698 137.14 172.908 138.936C173.763 140.205 174.551 141.822 176.184 142.155C177.571 142.441 178.496 145.156 179.478 146.031C181.803 148.101 183.159 146.114 185.165 144.343C189.234 140.748 192.988 136.799 196.369 132.551C187.164 128.113 177.77 124.067 168.221 120.427C158.796 116.834 167.42 130.794 169.276 133.548Z" fill="#6594FE"/>
<path d="M184.542 147.899C184.245 142.73 182.645 137.641 179.929 133.232" stroke="#1B2258" stroke-width="0.5" stroke-miterlimit="10"/>
<path d="M173.574 168.239C173.72 169.927 173.808 171.645 173.449 173.301C173.092 174.957 172.238 176.567 170.836 177.518C168.8 187.726 165.921 197.765 162.236 207.5" stroke="#1B2258" stroke-width="0.5" stroke-miterlimit="10"/>
<path d="M117.258 121.959C116.896 121.741 116.356 121.867 116.154 122.249C115.947 122.641 116.057 123.121 116.444 123.354C116.515 123.397 116.585 123.441 116.654 123.488C116.677 123.504 116.701 123.521 116.724 123.538C116.84 123.637 116.955 123.735 117.062 123.845C117.114 123.899 117.165 123.954 117.214 124.011C117.238 124.038 117.261 124.067 117.285 124.095C117.373 124.22 117.46 124.345 117.537 124.477C117.612 124.608 117.668 124.747 117.739 124.878C117.627 124.67 117.744 124.897 117.768 124.964C117.792 125.035 117.815 125.106 117.836 125.178C117.879 125.327 117.911 125.478 117.938 125.631C117.941 125.661 117.945 125.692 117.947 125.723C117.954 125.806 117.957 125.889 117.958 125.973C117.966 126.394 118.324 126.8 118.765 126.78C119.196 126.76 119.58 126.425 119.572 125.973C119.542 124.344 118.654 122.799 117.258 121.959Z" fill="#EB7CB8"/>
<path d="M131.853 158.427C132.515 158.638 133.243 158.635 133.904 158.421" stroke="#1B2258" stroke-width="0.5" stroke-miterlimit="10"/>
<path d="M136.553 277.84C136.156 278.32 136.115 279.061 136.456 279.581C136.798 280.101 137.493 280.36 138.09 280.188" fill="#4C9C7E"/>
<path d="M138.384 277.098C138.199 277.643 138.351 278.288 138.762 278.693C139.172 279.097 139.82 279.24 140.362 279.047" fill="#4C9C7E"/>
<path d="M140.49 276.204C140.484 276.886 140.86 277.557 141.443 277.91C142.026 278.262 142.796 278.282 143.396 277.96" fill="#4C9C7E"/>
<path d="M169.461 277.22C169.244 277.874 169.192 278.636 169.567 279.213C169.942 279.789 170.852 280.028 171.339 279.542" fill="#4C9C7E"/>
<path d="M171.469 276.197C171.34 276.767 171.548 277.4 171.989 277.783C172.431 278.166 173.088 278.281 173.634 278.071" fill="#4C9C7E"/>
<path d="M174.132 274.958C173.779 275.546 174.016 276.364 174.548 276.796C175.08 277.227 175.828 277.316 176.5 277.185" fill="#4C9C7E"/>
<path d="M207.615 0H113.62V63.638H207.615V0Z" fill="#D5D9E0"/>
<path d="M130.52 28.3046C134.947 28.3046 138.536 24.7157 138.536 20.2886C138.536 15.8616 134.947 12.2727 130.52 12.2727C126.093 12.2727 122.504 15.8616 122.504 20.2886C122.504 24.7157 126.093 28.3046 130.52 28.3046Z" fill="white"/>
<path d="M122.504 15.1161L130.52 23.2915L142.248 8.25952" stroke="#1B2258" stroke-width="3" stroke-miterlimit="10"/>
<path d="M137.96 41.222C137.96 45.2568 130.654 56.996 130.654 56.996C130.654 56.996 123.348 45.2568 123.348 41.222C123.348 37.1872 126.619 33.9161 130.654 33.9161C134.689 33.9161 137.96 37.1864 137.96 41.222Z" fill="#C93C72"/>
<path d="M133.338 40.7756C133.338 42.2584 132.137 43.4602 130.654 43.4602C129.171 43.4602 127.969 42.2584 127.969 40.7756C127.969 39.2928 129.171 38.0909 130.654 38.0909C132.137 38.0909 133.338 39.2928 133.338 40.7756Z" fill="white"/>
<path d="M199.779 12.2727H145.452V56.9952H199.779V12.2727Z" stroke="#A8A8A8" stroke-miterlimit="10"/>
<path d="M185.584 17.9811H149.103V22.5971H185.584V17.9811Z" fill="#396BC5"/>
<path d="M185.584 25.9971H149.103V31.8186H185.584V25.9971Z" fill="#396BC5"/>
<path d="M185.584 46.671H149.103V52.4926H185.584V46.671Z" fill="#396BC5"/>
<path d="M86.2686 64.0223H0V146.699H86.2686V64.0223Z" fill="#D5D9E0"/>
<path d="M19.4065 76.939C19.4065 79.2243 17.5541 81.0774 15.2681 81.0774C12.9829 81.0774 11.1298 79.225 11.1298 76.939C11.1298 74.6538 12.9829 72.8007 15.2681 72.8007C17.5534 72.8007 19.4065 74.6538 19.4065 76.939Z" fill="#396BC5"/>
<path d="M23.4443 88.1642C23.2074 83.8477 19.6428 80.4187 15.2682 80.4187C10.8929 80.4187 7.32825 83.8485 7.09131 88.1642H23.4443Z" fill="#396BC5"/>
<path d="M19.4065 101.042C19.4065 103.327 17.5541 105.18 15.2681 105.18C12.9829 105.18 11.1298 103.328 11.1298 101.042C11.1298 98.7567 12.9829 96.9036 15.2681 96.9036C17.5534 96.9036 19.4065 98.7567 19.4065 101.042Z" fill="#4C9C7E"/>
<path d="M23.4443 112.267C23.2074 107.951 19.6428 104.521 15.2682 104.521C10.8929 104.521 7.32825 107.951 7.09131 112.267H23.4443Z" fill="#4C9C7E"/>
<path d="M19.4065 125.145C19.4065 127.43 17.5541 129.283 15.2681 129.283C12.9829 129.283 11.1298 127.43 11.1298 125.145C11.1298 122.86 12.9829 121.007 15.2681 121.007C17.5534 121.007 19.4065 122.86 19.4065 125.145Z" fill="#C93C72"/>
<path d="M23.4443 136.37C23.2074 132.054 19.6428 128.624 15.2682 128.624C10.8929 128.624 7.32825 132.054 7.09131 136.37H23.4443Z" fill="#C93C72"/>
<path d="M76.1559 76.939H32.9951V84.291H76.1559V76.939Z" fill="#396BC5"/>
<path d="M76.1559 102.061H32.9951V109.413H76.1559V102.061Z" fill="#4C9C7E"/>
<path d="M76.1559 127.183H32.9951V134.535H76.1559V127.183Z" fill="#C93C72"/>
<path d="M81.0767 235.04C77.2655 235.553 73.0742 238.323 69.8933 241.482C68.4291 242.935 67.1796 244.472 66.2787 245.908C63.2603 250.722 61.8222 256.345 60.7187 261.919C60.5473 262.785 59.8536 268.831 60.975 270.953C61.241 270.927 61.5078 270.908 61.7745 270.897C62.1225 270.883 62.4712 270.877 62.8192 270.862C62.9801 270.855 63.1411 270.845 63.302 270.833C67.1818 258.198 72.6256 253.6 78.9084 251.229C82.5677 249.848 87.0786 249.382 89.153 246.068C92.2333 241.146 86.3745 234.328 81.0767 235.04Z" fill="#C7C7C7"/>
<path d="M61.3399 270.901C61.3742 268.817 60.9316 266.718 60.755 264.647C60.3303 259.665 60.6641 254.768 60.9778 249.79C61.2818 244.97 61.7058 239.86 60.5821 235.114C59.2022 229.282 53.4268 224.767 48.98 231.299C45.2611 236.761 46.1016 244.853 49.4092 250.335C53.4328 257.004 57.4825 264.007 60.6514 271.108C60.8817 271.043 61.1127 270.98 61.3399 270.901Z" fill="#4358C6"/>
<path d="M46.3945 254.547C40.6087 252.104 33.2686 253.421 29.1272 258.143C27.6191 259.863 26.5216 262.237 27.213 264.417C27.9291 266.675 30.3775 268 32.7366 268.209C35.0956 268.418 37.4315 267.752 39.7444 267.243C43.9669 266.314 48.4861 265.914 52.5276 267.45C54.9201 268.36 56.9662 270.511 59.2686 271.189C58.5429 265.068 51.8927 256.868 46.3945 254.547Z" fill="#4358C6"/>
<path opacity="0.35" d="M77.6588 242.695C72.4951 245.749 68.5974 250.683 66.1483 256.16C63.6998 261.637 62.3623 265.29 62.0166 271.28" stroke="#3A3A3A" stroke-width="0.5" stroke-miterlimit="10"/>
<path opacity="0.35" d="M40.2473 261.171C48.4235 261.322 55.4067 263.156 58.285 270.811" stroke="#3A3A3A" stroke-width="0.5" stroke-miterlimit="10"/>
<path opacity="0.35" d="M55.1779 246.86C57.595 255.726 59.0144 262.066 60.6522 271.108" stroke="#3A3A3A" stroke-width="0.5" stroke-miterlimit="10"/>
<path d="M41.324 271.108H79.263" stroke="#A8A8A8" stroke-miterlimit="10"/>
<path d="M64.6639 275.282H86.4585" stroke="#A8A8A8" stroke-miterlimit="10"/>
<path d="M249.101 255.373C249.215 255.255 249.33 255.139 249.448 255.024C250.247 254.243 251.136 253.527 252.159 253.009C254.072 252.039 256.368 251.823 258.526 252.139C262.066 252.657 264.495 254.512 267.457 256.12C270.78 257.923 274.048 259.813 277.252 261.789C278.633 262.641 280.102 263.633 280.517 265.112C281.058 267.041 279.433 269.07 277.384 269.73C275.335 270.39 273.049 269.965 271.038 269.214C267.272 267.809 264.086 265.329 260.365 263.829C258.268 262.984 253.987 261.817 251.762 262.738C251.159 262.988 250.671 263.42 250.23 263.872C248.909 265.229 247.911 266.849 247.324 268.587C246.879 269.905 246.669 271.283 246.215 272.598C245.76 273.913 245.013 275.209 243.767 275.982C243.083 275.441 243.129 274.747 243.19 274.005C243.703 267.715 244.377 260.295 249.101 255.373Z" fill="#4358C6"/>
<path d="M242.104 253.701C241.772 256.291 242.076 258.929 242.259 261.52C242.599 266.331 242.983 270.762 242.095 275.559C242.023 275.949 241.882 276.408 241.471 276.529C240.899 276.697 240.438 276.062 240.329 275.521C240.127 274.519 240.336 273.49 240.352 272.472C240.424 267.842 236.693 264.457 234.035 260.901C231.139 257.026 229.86 251.895 231.749 247.528C232.32 246.208 233.159 244.989 233.635 243.637C234.133 242.225 234.215 240.72 234.232 239.236C234.262 236.527 234.086 233.816 233.704 231.129C233.317 228.41 232.951 225.123 235.308 223.437C237.862 221.613 241.682 223.181 243.873 225.366C247.654 229.138 249.175 234.706 247.78 239.669C246.351 244.748 242.757 248.595 242.104 253.701Z" fill="#C7C7C7"/>
<path d="M233.774 266.162C232.936 265.33 232.104 264.492 231.413 263.52C230.17 261.773 229.205 259.853 228.58 257.847C227.981 255.924 227.774 253.804 226.44 252.149C224.463 249.696 222.019 251.529 221.547 253.884C220.937 256.92 221.677 260.122 223.332 262.812C224.988 265.5 227.518 267.69 230.403 269.29C233.344 270.921 234.785 273.316 236.261 276.125C236.457 276.498 236.548 276.282 236.976 276.151C237.317 276.046 237.663 276.31 237.691 275.981C237.934 273.194 237.723 270.632 235.832 268.337C235.194 267.565 234.482 266.866 233.774 266.162Z" fill="#C7C7C7"/>
<path opacity="0.3" d="M240.435 235.221C242.047 238.101 241.116 241.603 239.821 244.614C238.526 247.625 236.863 250.675 237.101 253.904C237.305 256.698 238.912 259.218 239.867 261.877C241.075 265.24 242.371 272.712 241.456 276.151" stroke="#3A3A3A" stroke-width="0.5" stroke-miterlimit="10"/>
<path opacity="0.3" d="M243.767 275.891C244.475 272.911 245.848 266.463 247.155 263.659C247.774 262.33 248.475 261.005 249.55 259.949C251.58 257.952 254.916 257.169 257.743 258.025" stroke="#3A3A3A" stroke-width="0.5" stroke-miterlimit="10"/>
<path opacity="0.3" d="M226.54 261.402C227.851 266.545 235.329 268.894 236.415 274.081C236.653 275.218 236.699 275.022 236.975 276.151" stroke="#3A3A3A" stroke-width="0.5" stroke-miterlimit="10"/>
<path d="M214.965 276.383H260.578" stroke="#A8A8A8" stroke-miterlimit="10"/>
<path d="M36.6686 224.081C40.8574 224.081 44.2531 220.685 44.2531 216.497C44.2531 212.308 40.8574 208.912 36.6686 208.912C32.4798 208.912 29.0841 212.308 29.0841 216.497C29.0841 220.685 32.4798 224.081 36.6686 224.081Z" stroke="#8E95A3" stroke-miterlimit="10"/>
<path d="M60.1508 224.081C64.3396 224.081 67.7353 220.685 67.7353 216.497C67.7353 212.308 64.3396 208.912 60.1508 208.912C55.962 208.912 52.5663 212.308 52.5663 216.497C52.5663 220.685 55.962 224.081 60.1508 224.081Z" stroke="#8E95A3" stroke-miterlimit="10"/>
<path d="M282.236 224.081C286.425 224.081 289.821 220.685 289.821 216.497C289.821 212.308 286.425 208.912 282.236 208.912C278.047 208.912 274.651 212.308 274.651 216.497C274.651 220.685 278.047 224.081 282.236 224.081Z" stroke="#8E95A3" stroke-miterlimit="10"/>
<path d="M83.6338 224.081C87.8226 224.081 91.2184 220.685 91.2184 216.497C91.2184 212.308 87.8226 208.912 83.6338 208.912C79.445 208.912 76.0493 212.308 76.0493 216.497C76.0493 220.685 79.445 224.081 83.6338 224.081Z" stroke="#8E95A3" stroke-miterlimit="10"/>
</svg>
