<svg width="61" height="97" viewBox="0 0 61 97" fill="none" xmlns="http://www.w3.org/2000/svg">
<path d="M17.2361 95.2269C17.0622 95.2269 16.9187 95.0885 16.9135 94.914C16.8547 93.0789 18.1003 88.0486 18.1533 87.8353C18.1966 87.6621 18.3705 87.5568 18.545 87.6001C18.7183 87.6427 18.8236 87.8185 18.781 87.9918C18.768 88.0428 17.5037 93.1474 17.5593 94.894C17.5651 95.0717 17.4255 95.2217 17.2471 95.2275C17.2438 95.2269 17.24 95.2269 17.2361 95.2269Z" fill="#1C100A"/>
<path d="M15.4339 93.8147C14.4993 93.8147 13.8761 94.1605 13.7255 94.7636C13.6777 94.953 13.7204 95.1456 13.8451 95.3053C14.2834 95.8676 15.5994 95.8961 15.8593 95.8961C16.3492 95.8961 17.5108 95.8231 17.7086 95.1476C17.7661 94.9511 17.7235 94.7436 17.589 94.5639C17.2251 94.0771 16.207 93.8147 15.4339 93.8147Z" fill="#1E120D"/>
<path d="M36.1328 95.9682C36.1102 95.9682 36.0875 95.9656 36.0649 95.9611C35.8904 95.923 35.7792 95.7517 35.8167 95.5771C36.1735 93.9101 35.8451 88.7907 35.8419 88.739C35.8303 88.5612 35.9654 88.4067 36.1431 88.3957C36.3312 88.3802 36.4754 88.5192 36.487 88.6976C36.5006 88.9115 36.8238 93.9592 36.4482 95.7129C36.4159 95.8648 36.2821 95.9682 36.1328 95.9682Z" fill="#1C100A"/>
<path d="M37.3383 94.8428C37.0739 94.8428 36.1806 94.8757 35.7966 95.303C35.6674 95.4465 35.6092 95.6172 35.6286 95.7981C35.7204 96.652 37.3784 96.928 38.167 96.928C38.7507 96.928 39.1553 96.8117 39.3706 96.5822C39.4908 96.4542 39.5483 96.2946 39.5367 96.1213C39.4779 95.2377 38.39 94.8428 37.3383 94.8428Z" fill="#1E120D"/>
<path d="M59.0416 53.8148C58.4987 53.9693 57.9169 54.041 57.3222 54.041C53.7283 54.041 50.813 51.2228 50.813 47.7452C50.813 45.8131 51.7115 44.0801 53.1271 42.9231L53.1918 42.8713C55.3119 45.5086 57.6461 49.1931 59.0416 53.8148Z" fill="#FFE444"/>
<path d="M26.1531 79.0889C28.59 79.0889 30.568 81.0022 30.568 83.3615C30.568 85.7202 28.59 87.6335 26.1531 87.6335C23.7162 87.6335 21.7447 85.7202 21.7447 83.3615C21.7453 81.0022 23.7162 79.0889 26.1531 79.0889Z" fill="#FFE444"/>
<path d="M43.8132 69.6904C47.4007 69.6904 50.316 72.5152 50.316 75.9928C50.316 79.4704 47.4007 82.2951 43.8132 82.2951C40.2193 82.2951 37.304 79.4704 37.304 75.9928C37.3034 72.5152 40.2193 69.6904 43.8132 69.6904Z" fill="#FFE444"/>
<path d="M53.2112 59.4132C53.2112 63.0453 50.1731 65.987 46.4175 65.987C42.6685 65.987 39.6304 63.0453 39.6304 59.4132C39.6304 55.7734 42.6685 52.8323 46.4175 52.8323C50.1737 52.8323 53.2112 55.7734 53.2112 59.4132Z" fill="#FFE444"/>
<path d="M26.0697 56.9435C25.1648 58.0094 23.7944 58.6952 22.2624 58.6952C19.5541 58.6952 17.3499 56.5621 17.3499 53.9313C17.3499 51.3069 19.5541 49.1738 22.2624 49.1738C23.1415 49.1738 23.9689 49.3943 24.68 49.7879C24.3438 50.5765 24.1564 51.4427 24.1564 52.3476C24.1564 54.1317 24.8803 55.7541 26.0697 56.9435Z" fill="#FFE444"/>
<path d="M33.1665 69.5739C33.1665 72.3793 30.8201 74.6539 27.9178 74.6539C25.0219 74.6539 22.669 72.3786 22.669 69.5739C22.669 66.7615 25.0219 64.4868 27.9178 64.4868C30.8207 64.4868 33.1665 66.7621 33.1665 69.5739Z" fill="#FFE444"/>
<path d="M15.8367 75.1654C15.8367 78.8176 13.3545 81.908 9.93507 82.9416L9.81872 83.0773C5.78522 79.6256 2.77303 75.0232 1.20876 69.6L1.31218 69.5677C2.84413 67.9963 5.01602 67.0209 7.4206 67.0144C12.0682 67.0144 15.8367 70.6665 15.8367 75.1654Z" fill="#FFE444"/>
<path d="M12.2298 55.877C12.2298 59.9305 8.84267 63.2142 4.6605 63.2142C2.90231 63.2142 1.27986 62.6324 0.00646039 61.6564C0.00646039 61.3849 0 61.1134 0 60.8419C0 55.9423 1.38974 51.9023 3.33539 48.6568C3.76847 48.5863 4.20802 48.5469 4.6605 48.5469C8.84332 48.5469 12.2298 51.8306 12.2298 55.877Z" fill="#FFE444"/>
<path d="M59.0417 53.8147C60.0695 57.1824 60.5931 61.035 60.1858 65.3464C58.5505 82.5405 41.7636 91.1369 26.6121 89.9094C20.1417 89.3852 14.3371 86.9489 9.81883 83.077L9.93518 82.9413C13.3546 81.907 15.8368 78.8173 15.8368 75.1651C15.8368 70.6662 12.0683 67.0147 7.42071 67.0147C5.01612 67.0212 2.84424 67.9973 1.31229 69.568L1.20886 69.6003C0.491365 67.1111 0.0776722 64.455 0.00656891 61.6561C1.27997 62.6322 2.90242 63.2139 4.66061 63.2139C8.84278 63.2139 12.2299 59.9303 12.2299 55.8767C12.2299 51.8303 8.84278 48.5466 4.66061 48.5466C4.20813 48.5466 3.76858 48.5861 3.3355 48.6565C7.79562 41.1971 15.1516 37.9134 15.1516 37.9134C15.1516 37.9134 7.78269 21.5403 19.2433 11.9155C30.7103 2.29714 49.9534 8.03064 52.817 21.5403C55.1246 32.4191 48.5184 38.1203 48.5184 38.1203C48.5184 38.1203 50.7033 39.7686 53.1919 42.8713L53.1272 42.923C51.7116 44.08 50.8131 45.813 50.8131 47.7451C50.8131 51.2227 53.7284 54.041 57.3223 54.041C57.917 54.041 58.4988 53.9699 59.0417 53.8147ZM46.4177 65.9863C50.1732 65.9863 53.2113 63.0446 53.2113 59.4125C53.2113 55.7727 50.1732 52.8316 46.4177 52.8316C42.6686 52.8316 39.6305 55.7727 39.6305 59.4125C39.6305 63.0452 42.6692 65.9863 46.4177 65.9863ZM50.3154 75.9925C50.3154 72.5149 47.4002 69.6902 43.8127 69.6902C40.2187 69.6902 37.3035 72.5149 37.3035 75.9925C37.3035 79.4701 40.2187 82.2949 43.8127 82.2949C47.4008 82.2949 50.3154 79.4701 50.3154 75.9925ZM37.8723 52.3474C37.8723 48.6759 34.802 45.696 31.0141 45.696C28.1635 45.696 25.7201 47.3831 24.6794 49.7877C23.9684 49.394 23.141 49.1736 22.2619 49.1736C19.5535 49.1736 17.3493 51.3074 17.3493 53.9311C17.3493 56.5619 19.5535 58.695 22.2619 58.695C23.7939 58.695 25.1642 58.0092 26.0692 56.9433C27.3102 58.2102 29.0684 58.9988 31.0141 58.9988C34.802 58.9988 37.8723 56.0196 37.8723 52.3474ZM36.4768 28.8058C36.4768 26.1517 34.3954 24.0069 31.8357 24.0069C29.2759 24.0069 27.1945 26.151 27.1945 28.8058C27.1945 31.4534 29.2759 33.6046 31.8357 33.6046C34.3947 33.6046 36.4768 31.4534 36.4768 28.8058ZM27.9179 74.6545C30.8202 74.6545 33.1666 72.3792 33.1666 69.5745C33.1666 66.762 30.8202 64.4873 27.9179 64.4873C25.022 64.4873 22.6691 66.7626 22.6691 69.5745C22.6691 72.3792 25.022 74.6545 27.9179 74.6545ZM30.5681 83.3614C30.5681 81.0021 28.5901 79.0887 26.1532 79.0887C23.7163 79.0887 21.7448 81.0021 21.7448 83.3614C21.7448 85.7201 23.7163 87.6334 26.1532 87.6334C28.5901 87.6341 30.5681 85.7207 30.5681 83.3614Z" fill="#277EA5"/>
<path d="M28.4575 15.5523C28.4575 18.4067 26.1434 20.7215 23.2889 20.7215C20.4338 20.7215 18.1197 18.4067 18.1197 15.5523C18.1197 12.6971 20.4338 10.3831 23.2889 10.3831C26.1434 10.3831 28.4575 12.6971 28.4575 15.5523Z" fill="#221612"/>
<path d="M23.2889 21.3678C20.0822 21.3678 17.4733 18.7589 17.4733 15.5522C17.4733 12.3454 20.0822 9.73657 23.2889 9.73657C26.495 9.73657 29.1039 12.3454 29.1039 15.5522C29.1039 18.7589 26.495 21.3678 23.2889 21.3678ZM23.2889 11.0294C20.7951 11.0294 18.7661 13.0584 18.7661 15.5522C18.7661 18.046 20.7951 20.075 23.2889 20.075C25.7821 20.075 27.8111 18.046 27.8111 15.5522C27.8111 13.0584 25.7821 11.0294 23.2889 11.0294Z" fill="#D00054"/>
<path d="M46.6257 15.5523C46.6257 18.4067 44.3116 20.7215 41.4565 20.7215C38.6014 20.7215 36.2873 18.4067 36.2873 15.5523C36.2873 12.6971 38.6014 10.3831 41.4565 10.3831C44.3116 10.3831 46.6257 12.6971 46.6257 15.5523Z" fill="#221612"/>
<path d="M41.4571 21.3678C38.2504 21.3678 35.6415 18.7589 35.6415 15.5522C35.6415 12.3454 38.2504 9.73657 41.4571 9.73657C44.6639 9.73657 47.2727 12.3454 47.2727 15.5522C47.2721 18.7589 44.6639 21.3678 41.4571 21.3678ZM41.4571 11.0294C38.9633 11.0294 36.9343 13.0584 36.9343 15.5522C36.9343 18.046 38.9633 20.075 41.4571 20.075C43.9509 20.075 45.9799 18.046 45.9799 15.5522C45.9793 13.0584 43.9509 11.0294 41.4571 11.0294Z" fill="#D00054"/>
<path d="M36.2873 16.1987C36.1554 16.1987 36.0222 16.158 35.9072 16.0753C32.2305 13.3954 29.0011 15.9441 28.8654 16.054C28.5894 16.2783 28.1815 16.2362 27.9565 15.9602C27.7316 15.6836 27.7717 15.2783 28.0477 15.0527C28.0884 15.0191 32.171 11.7542 36.668 15.0301C36.9563 15.2402 37.0196 15.6448 36.8095 15.9337C36.6835 16.1063 36.487 16.1987 36.2873 16.1987Z" fill="#D00054"/>
<path d="M30.3307 16.9938C30.3307 17.0041 30.365 17.0759 30.4477 17.2485C30.5292 17.4114 30.6578 17.6395 30.844 17.86C30.9416 17.966 31.0463 18.0752 31.1685 18.1696C31.2919 18.2627 31.4251 18.3493 31.5783 18.4133C31.6507 18.4514 31.7308 18.4792 31.8162 18.4999C31.897 18.5277 31.9829 18.5497 32.0741 18.5639C32.2363 18.6078 32.4722 18.6091 32.6164 18.6137C32.7289 18.6091 32.8691 18.6137 32.9577 18.6014C33.0314 18.5839 33.1044 18.5736 33.1794 18.5626C33.2563 18.5322 33.3378 18.5154 33.416 18.4928L33.6267 18.3913C33.7528 18.3066 33.8807 18.2226 33.9816 18.1082C34.0831 17.9963 34.1794 17.8774 34.2511 17.7501C34.4011 17.4993 34.4974 17.2504 34.5569 17.0746C34.6105 16.9026 34.6409 16.805 34.6409 16.805L34.6861 16.6609C34.7398 16.4883 34.9234 16.3927 35.096 16.4463C35.2511 16.4948 35.3448 16.6493 35.3228 16.805C35.3216 16.8147 35.3481 16.9518 35.3493 17.1864C35.3481 17.4204 35.3267 17.7611 35.189 18.1644C35.0572 18.5626 34.7844 19.0442 34.3061 19.3964C34.1871 19.4805 34.0559 19.5509 33.9253 19.6266C33.7896 19.6841 33.65 19.7403 33.5065 19.7881C33.3526 19.8237 33.1923 19.8521 33.0333 19.878C32.8879 19.8961 32.789 19.8929 32.6642 19.9019L32.575 19.9064L32.553 19.9071L32.4962 19.9064L32.4832 19.9051L32.4302 19.9L32.2195 19.8787C32.0799 19.869 31.9396 19.8437 31.7994 19.8075C31.6597 19.7785 31.5214 19.7423 31.3895 19.6821C31.2551 19.6324 31.1271 19.5723 31.0069 19.4973C30.7587 19.3661 30.5479 19.1825 30.376 18.9963C30.1995 18.8121 30.0702 18.6098 29.9688 18.421C29.7664 18.041 29.7005 17.6977 29.6695 17.4624C29.6423 17.233 29.6533 17.0668 29.6527 17.0772C29.6301 16.8904 29.7626 16.7204 29.9494 16.6971C30.1375 16.6738 30.3075 16.8063 30.3307 16.9938Z" fill="#1E120D"/>
<path d="M29.6779 5.49946C29.6779 5.49946 29.5628 5.32492 29.4277 5.04891C29.2875 4.77484 29.1381 4.39606 28.9979 4.01404C28.9371 3.82013 28.8764 3.62555 28.8195 3.44391C28.7645 3.26163 28.7303 3.08451 28.6921 2.93649C28.6262 2.63656 28.6042 2.42909 28.6042 2.42909C28.5939 2.33342 28.663 2.2468 28.7594 2.23646C28.8279 2.2287 28.8912 2.26231 28.9261 2.31661C28.9261 2.31661 29.038 2.49243 29.1737 2.76844C29.2364 2.90806 29.3191 3.06707 29.3902 3.24418C29.4594 3.42194 29.5331 3.61133 29.6061 3.80137C29.7341 4.18727 29.8537 4.57576 29.9151 4.87762C29.981 5.17755 30.0004 5.38633 30.0004 5.38633C30.0095 5.48264 29.9384 5.56797 29.8421 5.57702C29.7742 5.58413 29.7128 5.55182 29.6779 5.49946Z" fill="#434040"/>
<path d="M32.1251 5.06C32.1251 5.06 32.0741 4.75297 32.0379 4.29209C31.9959 3.83121 31.9803 3.21713 31.9732 2.60306C31.9803 2.29602 31.9868 1.98964 31.9933 1.70135C32.0023 1.4137 32.0275 1.14479 32.0405 0.914026C32.0779 0.453147 32.1251 0.146117 32.1251 0.146117C32.1394 0.051744 32.2279 -0.0122438 32.3216 0.00197684C32.3979 0.0129655 32.4548 0.0737214 32.4658 0.146117C32.4658 0.146117 32.513 0.453147 32.5505 0.914026C32.5634 1.14479 32.5886 1.41305 32.5976 1.70135C32.6041 1.98899 32.6106 2.29602 32.6177 2.60306C32.6106 3.21713 32.5951 3.83121 32.553 4.29209C32.5168 4.75297 32.4658 5.06 32.4658 5.06C32.4503 5.15437 32.3611 5.21772 32.2673 5.20221C32.1924 5.18992 32.1368 5.13045 32.1251 5.06Z" fill="#434040"/>
<path d="M34.9712 5.40058C34.9712 5.40058 34.9796 5.16723 35.0307 4.82658C35.0766 4.48529 35.1768 4.03929 35.2853 3.59651C35.35 3.37738 35.414 3.15823 35.4741 2.95333C35.5362 2.74907 35.6111 2.56227 35.6674 2.40002C35.7895 2.07876 35.893 1.86997 35.893 1.86997C35.9356 1.78336 36.0403 1.74847 36.1257 1.79113C36.1897 1.8228 36.2259 1.88872 36.222 1.95594C36.222 1.95594 36.2103 2.18866 36.1599 2.52931C36.1295 2.69802 36.1037 2.89709 36.0578 3.10652C36.01 3.31466 35.9589 3.53703 35.9085 3.76004C35.7863 4.19959 35.6564 4.63655 35.5297 4.9578C35.4075 5.27971 35.3009 5.4872 35.3009 5.4872C35.2569 5.57317 35.1522 5.60679 35.0662 5.56283C35.0035 5.52987 34.9686 5.46651 34.9712 5.40058Z" fill="#434040"/>
<path d="M19.5747 46.4227C19.4603 46.4227 19.3446 46.4188 19.2257 46.4098C17.907 46.3128 16.8754 45.8235 16.1598 44.9574C14.8334 43.3517 15.0855 41.0415 15.0965 40.9445C15.1172 40.7674 15.2749 40.6368 15.4546 40.6614C15.6317 40.6814 15.7591 40.8418 15.7384 41.0195C15.7365 41.0402 15.5089 43.1591 16.6602 44.5488C17.2594 45.2721 18.1385 45.682 19.2729 45.7653C23.32 46.075 24.287 40.1314 24.296 40.0712C24.3238 39.8954 24.4867 39.7765 24.6651 39.8017C24.8409 39.8295 24.9618 39.9943 24.9346 40.1708C24.9249 40.2348 23.9121 46.4227 19.5747 46.4227Z" fill="#1C100A"/>
<path d="M23.8002 39.7784C24.2359 40.2264 25.1189 40.5793 25.667 40.1908C26.2158 39.8043 27.0936 38.2432 26.8939 37.9071C26.5881 37.3887 25.7401 38.7655 25.7401 38.7655C25.7401 38.7655 26.4899 37.2123 26.2087 37.028C25.7258 36.7126 24.9508 38.3156 24.9508 38.3156C24.9508 38.3156 24.8377 36.7636 24.521 36.7171C24.2042 36.6706 23.987 38.6692 23.987 38.6692C23.987 38.6692 23.5514 37.3086 23.2592 37.6964C22.9664 38.0855 23.3309 39.2956 23.8002 39.7784Z" fill="#1E120D"/>
<path d="M42.8501 46.5042C38.2045 46.5042 37.6201 39.9271 37.6143 39.8612C37.6001 39.6834 37.7326 39.5276 37.9104 39.5134C38.0875 39.4998 38.2445 39.6317 38.2588 39.8095C38.2633 39.8696 38.7998 45.8578 42.8501 45.8578C43.989 45.8578 44.8959 45.5139 45.5469 44.8345C46.7996 43.5275 46.7246 41.4048 46.7233 41.3841C46.7155 41.2057 46.8539 41.0544 47.0323 41.0467C47.2165 41.0551 47.3619 41.1772 47.369 41.3563C47.3729 41.4545 47.4544 43.7777 46.0135 45.2812C45.2366 46.0924 44.172 46.5042 42.8501 46.5042Z" fill="#1C100A"/>
<path d="M39.0461 39.7339C38.6169 40.1877 37.7391 40.5529 37.1851 40.1728C36.6311 39.7934 35.732 38.2453 35.9266 37.9059C36.2252 37.3836 37.092 38.7475 37.092 38.7475C37.092 38.7475 36.5465 37.03 36.8632 36.9176C37.5154 36.6881 37.8748 38.2866 37.8748 38.2866C37.8748 38.2866 37.9653 36.723 38.2827 36.6836C38.8593 36.6105 38.8437 38.6273 38.8437 38.6273C38.8437 38.6273 39.2607 37.2615 39.558 37.6448C39.856 38.03 39.5082 39.2452 39.0461 39.7339Z" fill="#1E120D"/>
<path d="M19.9613 30.7503C22.6748 30.7503 24.8745 28.6194 24.8745 25.9908C24.8745 23.3623 22.6748 21.2314 19.9613 21.2314C17.2478 21.2314 15.048 23.3623 15.048 25.9908C15.048 28.6194 17.2478 30.7503 19.9613 30.7503Z" fill="#FFE444"/>
<path d="M50.2371 26.5675C50.2371 29.1957 48.0374 31.3269 45.3239 31.3269C42.6103 31.3269 40.4106 29.1957 40.4106 26.5675C40.4106 23.9393 42.6103 21.8081 45.3239 21.8081C48.0374 21.8081 50.2371 23.9393 50.2371 26.5675Z" fill="#FFE444"/>
</svg>
