<svg width="53" height="77" viewBox="0 0 53 77" fill="none" xmlns="http://www.w3.org/2000/svg">
<path d="M39.9178 25.9395C39.7987 25.9395 39.6865 25.8651 39.6441 25.7465C39.59 25.5954 39.6691 25.4292 39.8202 25.3752C40.123 25.2671 47.2254 22.6245 46.3548 14.1675C46.3385 14.0076 46.4547 13.8653 46.614 13.8484C46.7715 13.831 46.9162 13.9478 46.933 14.1076C47.8513 23.0261 40.0939 25.8942 40.0155 25.9226C39.9829 25.9343 39.9504 25.9395 39.9178 25.9395Z" fill="#434040"/>
<path d="M46.8377 14.526C46.0032 15.1676 43.8796 14.3784 43.9924 13.362C44.0569 12.7796 45.1355 13.4916 45.1355 13.4916C45.1355 13.4916 44.4451 11.2279 45.0274 10.8397C45.6091 10.4521 45.8678 12.9092 45.8678 12.9092C45.8678 12.9092 46.1264 10.5811 46.7732 10.6456C47.42 10.7101 46.7087 12.9737 46.7087 12.9737C46.7087 12.9737 47.6142 11.8097 48.0669 12.1334C48.519 12.4565 47.6787 13.8792 46.8377 14.526Z" fill="#434040"/>
<path d="M39.8283 74.6027C39.679 74.6027 39.5523 74.4888 39.5389 74.3371C39.3285 71.9148 38.4794 68.8603 38.4713 68.8295C38.4283 68.6749 38.5184 68.5145 38.673 68.4715C38.827 68.429 38.988 68.5185 39.031 68.6731C39.0397 68.7045 39.9033 71.8102 40.1183 74.2872C40.1323 74.4464 40.0137 74.5882 39.8539 74.6016C39.8452 74.6022 39.8365 74.6027 39.8283 74.6027Z" fill="#434040"/>
<path d="M42.5697 73.2294C42.3482 72.861 42.0083 72.6663 41.5869 72.6663C40.9128 72.6663 40.1881 73.1696 39.7998 73.6374C39.5621 73.9239 39.4622 74.1802 39.5029 74.3981C39.5389 74.5899 39.6993 74.8189 40.2572 74.8189C40.9651 74.8189 42.25 74.4394 42.5737 73.8664C42.6923 73.6571 42.6905 73.4311 42.5697 73.2294Z" fill="#434040"/>
<path d="M39.572 16.6178C41.4457 15.5107 41.0383 5.66697 37.1579 5.40835C33.278 5.14974 12.151 4.89053 9.47826 9.4608C6.80549 14.0311 6.03022 28.6031 12.5834 29.9828C19.136 31.3625 28.2765 29.4656 32.7602 37.5693C37.1986 45.5917 30.3455 55.7184 21.2055 52.0542C14.8308 49.4988 16.2046 45.8462 12.5834 45.501C8.96161 45.1564 3.76195 49.9736 6.37485 57.3992C8.26537 62.7737 13.9898 69.388 25.1726 70.6787C34.1399 71.7138 43.4524 67.7468 47.9361 61.3668C58.1588 46.8208 49.2449 30.0584 42.3744 26.103C33.8383 21.1875 27.2037 23.1902 26.379 21.7053C25.9478 20.9295 25.9484 18.5147 27.6733 18.3421C29.7347 18.1364 37.6757 17.7383 39.572 16.6178Z" fill="#FFE444"/>
<path d="M13.3285 7.27895L18.9251 5.98877C18.7565 7.0523 15.3335 9.58617 14.5663 9.45831C14.1421 9.39438 13.5377 8.41803 13.3227 7.28476L13.3285 7.27895Z" fill="#FFE444"/>
<path d="M13.3221 7.28481C13.5371 8.41808 14.1415 9.39444 14.5658 9.45837C15.3329 9.58622 18.756 7.05235 18.9245 5.98882L18.9361 5.91909C18.9361 5.87259 18.9303 5.83191 18.9187 5.79704C18.6513 4.98341 16.0768 2.82148 14.1764 4.33251C13.2698 5.05315 13.1303 6.23291 13.3221 7.27901C13.3221 7.28482 13.3221 7.28481 13.3221 7.28481ZM9.30683 1.61267C15.9437 -3.38533 23.4465 4.76257 22.6736 5.49483C14.392 13.3405 8.18518 16.1882 8.18518 16.1882C8.18518 16.1882 7.83067 15.5722 7.40643 14.5726C6.16855 11.6261 4.35532 5.34955 9.30683 1.61267Z" fill="#EF3F58"/>
<path d="M13.3294 7.27905L13.3227 7.28577C13.3227 7.28577 13.3227 7.28578 13.3227 7.27905C13.3227 7.27905 13.322 7.27905 13.3294 7.27905Z" fill="#CE2E4D"/>
<path d="M18.9193 5.79719C18.6519 4.98356 16.0774 2.82164 14.177 4.33266C13.2704 5.0533 13.1309 6.23306 13.3227 7.27916C13.3227 7.27916 13.3227 7.27916 13.3285 7.27916L18.9251 5.98898C18.9367 5.96573 18.9367 5.94249 18.9367 5.91924C18.9361 5.87275 18.9309 5.83206 18.9193 5.79719Z" fill="#CE2E4D"/>
<path d="M22.6736 5.49487C22.6736 5.49487 24.0102 7.41271 7.90622 17.6296C3.16393 20.64 0.403411 21.7674 0.014032 20.8666C-0.369535 19.96 7.23788 14.6366 7.23788 14.6366L7.40642 14.5726C7.83067 15.5722 8.18518 16.1883 8.18518 16.1883C8.18518 16.1883 14.392 13.3406 22.6736 5.49487Z" fill="#CE2E4D"/>
<path d="M24.9331 12.1538C24.9331 12.1538 24.9732 12.2561 25.0581 12.4444C25.1383 12.6298 25.2783 12.8866 25.4661 13.1627C25.5619 13.2987 25.6706 13.4417 25.8002 13.5678C25.9246 13.7003 26.0739 13.8113 26.2303 13.9066C26.3878 14.0031 26.5662 14.0542 26.7475 14.1013L27.0346 14.1269C27.1346 14.1181 27.2339 14.1088 27.3345 14.1071L27.6623 14.0391C27.7698 14.0106 27.8308 13.9723 27.9191 13.9455C28.0011 13.9089 28.0836 13.8554 28.1673 13.8142C28.2411 13.7584 28.3138 13.702 28.3835 13.6439C28.5084 13.512 28.6287 13.376 28.713 13.2179C28.8002 13.0633 28.8734 12.9035 28.9216 12.7466C29.0245 12.4339 29.0762 12.148 29.0948 11.9487C29.1169 11.7482 29.1204 11.6401 29.1204 11.6401L29.121 11.6325C29.1256 11.5046 29.2326 11.4047 29.3604 11.4093C29.4656 11.4128 29.5522 11.4866 29.5772 11.5837C29.5772 11.5837 29.6121 11.7203 29.633 11.9498C29.6423 12.0649 29.6516 12.205 29.6464 12.3671C29.644 12.5292 29.6347 12.7146 29.5923 12.9151C29.5191 13.3138 29.3471 13.8014 28.967 14.2175C28.8682 14.3146 28.7607 14.4099 28.6491 14.5005C28.5265 14.5755 28.4114 14.6621 28.2731 14.7249C28.1342 14.7795 27.9738 14.8481 27.8453 14.8824L27.453 14.9684C27.3083 14.9812 27.1625 14.9864 27.0183 14.9928C26.8713 14.9817 26.7237 14.9626 26.579 14.9434C26.2901 14.8748 26.017 14.7621 25.7886 14.6046C25.326 14.2925 25.0418 13.8746 24.8616 13.5166C24.6768 13.1557 24.5984 12.8338 24.5432 12.6123C24.5153 12.5008 24.5054 12.4118 24.4955 12.3485C24.488 12.2863 24.4839 12.2532 24.4839 12.2532C24.4688 12.1265 24.5594 12.012 24.6855 11.9969C24.7925 11.9847 24.8901 12.0463 24.9279 12.1416L24.9331 12.1538Z" fill="#434040"/>
<path d="M21.5507 76.1009C21.542 76.1009 21.5339 76.1004 21.5252 76.0998C21.3654 76.0864 21.2474 75.9446 21.2607 75.7854C21.4764 73.3038 22.673 69.2909 22.7241 69.1212C22.77 68.9672 22.931 68.8782 23.0856 68.9265C23.2396 68.9724 23.3268 69.134 23.2809 69.288C23.2687 69.3286 22.05 73.4136 21.8402 75.8353C21.8268 75.987 21.7001 76.1009 21.5507 76.1009Z" fill="#434040"/>
<path d="M19.7927 74.1633C19.3714 74.1633 19.032 74.358 18.81 74.7265C18.6885 74.9287 18.6874 75.1542 18.8053 75.3634C19.1296 75.9359 20.4146 76.3159 21.1224 76.3159C21.6804 76.3159 21.8413 76.0876 21.8774 75.8946C21.9181 75.6773 21.8181 75.4215 21.5798 75.1344C21.1922 74.6666 20.4669 74.1633 19.7927 74.1633Z" fill="#434040"/>
<path d="M19.7399 39.6701C19.6254 39.6701 19.5173 39.6021 19.4714 39.49C16.5853 32.4527 20.0333 28.8907 20.1815 28.7425C20.2949 28.6292 20.4779 28.6292 20.5918 28.742C20.7057 28.8547 20.7057 29.0389 20.593 29.1528C20.5593 29.1865 17.2781 32.609 20.0089 39.2691C20.07 39.4179 19.9991 39.5876 19.8509 39.6481C19.8142 39.6632 19.7771 39.6701 19.7399 39.6701Z" fill="#434040"/>
<path d="M20.7749 39.2936C20.2548 39.2128 19.4818 39.4232 19.3092 39.9613C19.1366 40.5006 18.9675 42.0936 19.2714 42.2197C19.7404 42.4138 19.9828 40.9586 19.9828 40.9586C19.9828 40.9586 20.2658 42.3842 20.5488 42.365C21.0341 42.3325 20.7429 40.8615 20.7429 40.8615C20.7429 40.8615 21.6054 41.8478 21.8425 41.7188C22.0796 41.5892 21.2119 40.1339 21.2119 40.1339C21.2119 40.1339 22.2848 40.414 22.2848 40.0043C22.2842 39.5952 21.3352 39.3796 20.7749 39.2936Z" fill="#434040"/>
<path d="M20.944 13.8984C21.6662 13.8984 22.2516 13.313 22.2516 12.5908C22.2516 11.8686 21.6662 11.2832 20.944 11.2832C20.2219 11.2832 19.6364 11.8686 19.6364 12.5908C19.6364 13.313 20.2219 13.8984 20.944 13.8984Z" fill="#434040"/>
<path d="M32.4946 12.1548C33.2168 12.1548 33.8022 11.5693 33.8022 10.8472C33.8022 10.125 33.2168 9.53955 32.4946 9.53955C31.7725 9.53955 31.187 10.125 31.187 10.8472C31.187 11.5693 31.7725 12.1548 32.4946 12.1548Z" fill="#434040"/>
</svg>
