<svg width="51" height="72" viewBox="0 0 51 72" fill="none" xmlns="http://www.w3.org/2000/svg">
<path d="M21.8063 69.9758C21.6624 69.9758 21.5436 69.8618 21.5388 69.7169C21.495 68.3442 22.4242 64.5895 22.4637 64.43C22.4991 64.2867 22.6419 64.2006 22.7879 64.2348C22.9313 64.2706 23.0185 64.4156 22.9826 64.559C22.973 64.5975 22.0315 68.4004 22.0732 69.6992C22.0781 69.8469 21.962 69.9704 21.8143 69.9752C21.8122 69.9758 21.809 69.9758 21.8063 69.9758Z" fill="#434040"/>
<path d="M30.4558 71.0815C30.344 71.0815 30.2397 71.0109 30.2017 70.8991C29.7662 69.5965 29.5801 65.7326 29.5726 65.5689C29.5651 65.4212 29.679 65.2961 29.8267 65.2891C29.977 65.2822 30.1 65.3961 30.1059 65.5438C30.1081 65.5833 30.2964 69.497 30.7088 70.7295C30.7553 70.8696 30.6799 71.021 30.5398 71.0681C30.513 71.0772 30.4841 71.0815 30.4558 71.0815Z" fill="#434040"/>
<path d="M20.462 68.8701C19.7516 68.8701 19.2776 69.1354 19.161 69.5976C19.1241 69.7469 19.1573 69.8988 19.2557 70.024C19.5906 70.453 20.5823 70.4749 20.7787 70.4749C21.1504 70.4749 22.031 70.4188 22.184 69.8972C22.2294 69.7426 22.1957 69.5795 22.0903 69.4388C21.8138 69.0691 21.0451 68.8701 20.462 68.8701Z" fill="#434040"/>
<path d="M29.8069 70.2678C29.2473 70.2678 28.5155 70.4428 28.1416 70.8343C27.9672 71.0167 27.8806 71.235 27.8907 71.4666C27.8982 71.6271 27.9934 72 28.7252 72C29.3426 72 30.2691 71.7336 30.6628 71.3377C30.8024 71.1976 30.8725 71.0462 30.872 70.8873C30.8698 70.4995 30.4718 70.2678 29.8069 70.2678Z" fill="#434040"/>
<path d="M20.9889 1.80599C20.0806 0.378234 11.759 -1.00994 8.94256 1.02391C6.12717 3.05722 -3.41618 32.311 1.2774 36.2225C5.97044 40.134 23.9611 43.1062 23.9611 43.1062C23.9611 43.1062 18.6421 61.5664 20.0501 63.1306C21.4581 64.6948 31.6262 67.354 33.0337 65.4774C34.4422 63.6003 39.7611 45.14 39.7611 45.14C39.7611 45.14 45.2367 47.33 47.2701 45.4529C49.3039 43.5753 51.7336 34.4107 50.438 32.8984C49.0295 31.2556 42.929 29.6128 42.929 29.6128C42.929 29.6128 48.7957 9.19728 47.3872 7.43786C45.8418 5.50565 36.8285 2.39282 33.6601 4.38709C31.8685 5.51474 29.1238 23.5508 27.8725 23.8638C26.6208 24.1767 16.9212 22.1429 16.7645 20.1096C16.6077 18.0757 21.8101 3.09681 20.9889 1.80599Z" fill="#F48EB8"/>
<path d="M18.0184 27.6976C18.0189 27.6998 18.0392 27.7281 18.0697 27.7618C18.1072 27.8062 18.1618 27.8715 18.2313 27.9544C18.3736 28.1191 18.5822 28.3508 18.8481 28.5931C19.1161 28.8349 19.4419 29.0831 19.8131 29.2907C20.0003 29.3912 20.1951 29.4886 20.4021 29.5651C20.6016 29.6448 20.8391 29.7052 21.0338 29.7545C21.1633 29.7791 21.3136 29.816 21.4254 29.8304C21.5297 29.8417 21.6341 29.8486 21.7368 29.8679C21.9631 29.8855 22.1867 29.8941 22.4028 29.8807C22.6184 29.8695 22.828 29.8486 23.0254 29.8112C23.2212 29.771 23.4095 29.7309 23.5802 29.6769C23.7487 29.6197 23.907 29.5688 24.0434 29.5105C24.1772 29.4501 24.2981 29.4003 24.3922 29.3511C24.4858 29.3024 24.5586 29.2639 24.6089 29.2377C24.657 29.2094 24.6736 29.2024 24.6715 29.204L24.8287 29.1505C25.0422 29.0772 25.2743 29.1917 25.3476 29.4051C25.3936 29.5394 25.3637 29.6828 25.284 29.7876C25.284 29.7876 25.2561 29.8235 25.2048 29.8903C25.1566 29.9492 25.0882 30.0353 24.9929 30.1337C24.802 30.3301 24.5078 30.5874 24.098 30.8217C23.6909 31.0576 23.1661 31.2614 22.575 31.3625C22.2787 31.408 21.9711 31.4262 21.6565 31.4288C21.4901 31.4224 21.3233 31.4037 21.1553 31.3882C20.9964 31.3694 20.8787 31.3427 20.738 31.3202C20.3967 31.2571 20.1025 31.1672 19.8051 31.0367C19.5093 30.9174 19.2311 30.7644 18.9866 30.5863C18.487 30.2418 18.1088 29.8213 17.8472 29.434C17.5829 29.0467 17.4299 28.6899 17.3444 28.4332C17.2614 28.186 17.2299 27.9982 17.232 28.0089C17.1464 27.7918 17.2529 27.5462 17.4695 27.4601C17.6867 27.3734 17.9328 27.4799 18.0184 27.6976Z" fill="#434040"/>
<path d="M14.4134 25.7852C14.6301 24.8597 14.0539 23.9348 13.1285 23.7187C12.2036 23.5031 11.2781 24.0787 11.0625 25.0042C10.847 25.9296 11.422 26.8545 12.3475 27.0701C13.2724 27.2857 14.1978 26.7101 14.4134 25.7852Z" fill="#434040"/>
<path d="M11.575 25.2768C11.5365 25.2768 11.4964 25.2715 11.4573 25.2592C10.6148 25.0008 10.0178 24.2818 9.99265 24.2513C9.85196 24.0802 9.8771 23.8271 10.0483 23.6864C10.2195 23.5463 10.472 23.5709 10.6132 23.7421C10.6175 23.7469 11.0855 24.3054 11.6927 24.4915C11.9045 24.5568 12.0238 24.7809 11.9586 24.9928C11.9056 25.1661 11.7467 25.2768 11.575 25.2768Z" fill="#434040"/>
<path d="M12.4668 24.8436C12.3822 24.8436 12.2966 24.8168 12.2239 24.7612C11.6269 24.3054 11.2696 22.8135 11.2038 22.5193C11.1556 22.3031 11.292 22.0886 11.5081 22.0405C11.7211 21.9923 11.9388 22.1277 11.9874 22.3443C12.1463 23.0558 12.4678 23.9379 12.7112 24.123C12.8872 24.2578 12.9215 24.5092 12.7866 24.6852C12.7069 24.7895 12.5882 24.8436 12.4668 24.8436Z" fill="#434040"/>
<path d="M13.2537 24.8312C13.0761 24.8312 12.9134 24.7125 12.8658 24.5322C12.6888 23.8603 13.1681 22.6112 13.2665 22.3678C13.3483 22.1624 13.581 22.0629 13.7881 22.1453C13.994 22.2277 14.0935 22.4614 14.0111 22.6674C13.8148 23.1568 13.5613 24.0224 13.6426 24.3278C13.6993 24.5418 13.5709 24.7611 13.3569 24.8178C13.3221 24.8275 13.2874 24.8312 13.2537 24.8312Z" fill="#434040"/>
<path d="M27.9453 28.9398C28.1609 28.0144 29.0863 27.4388 30.0118 27.6544C30.9372 27.87 31.5123 28.7954 31.2972 29.7209C31.0811 30.6463 30.1557 31.2214 29.2297 31.0058C28.3053 30.7907 27.7297 29.8653 27.9453 28.9398Z" fill="#434040"/>
<path d="M31.232 29.8075C31.0998 29.8075 30.9645 29.7979 30.8286 29.776C30.6098 29.7407 30.4616 29.5342 30.4969 29.3154C30.5323 29.0966 30.742 28.9457 30.957 28.9837C31.5845 29.087 32.2505 28.7917 32.2574 28.7885C32.4597 28.6986 32.6966 28.7879 32.7876 28.9896C32.8785 29.1913 32.7897 29.4283 32.5886 29.5197C32.5586 29.5331 31.9456 29.8075 31.232 29.8075Z" fill="#434040"/>
<path d="M30.2841 28.9976C30.0963 28.9976 29.9283 28.8649 29.8909 28.6739C29.8486 28.4562 29.9904 28.2454 30.2076 28.2026C30.5087 28.1433 31.187 27.4944 31.6439 26.9268C31.7824 26.754 32.0355 26.7278 32.2077 26.8658C32.3805 27.0049 32.4078 27.2574 32.2687 27.4302C32.0799 27.665 31.0999 28.8451 30.3627 28.9901C30.3354 28.9954 30.3097 28.9976 30.2841 28.9976Z" fill="#434040"/>
<path d="M29.5844 28.6387C29.4907 28.6387 29.3971 28.6061 29.3212 28.5403C29.1537 28.3953 29.1361 28.1418 29.2816 27.9743C29.4891 27.7363 29.6453 26.8478 29.6855 26.3219C29.702 26.1004 29.8946 25.9319 30.1166 25.9528C30.337 25.9694 30.5028 26.1625 30.4857 26.3834C30.4659 26.645 30.3429 27.9765 29.8877 28.5013C29.808 28.5922 29.6962 28.6387 29.5844 28.6387Z" fill="#434040"/>
<path d="M46.4885 8.61099C46.4885 7.87652 45.8931 7.28113 45.1586 7.28113C44.4247 7.28113 43.8293 7.87652 43.8293 8.61099C43.8293 9.34547 44.4247 9.94086 45.1586 9.94086C45.8931 9.94086 46.4885 9.34547 46.4885 8.61099Z" fill="#FFEF00"/>
<path d="M43.1055 7.02693C43.1055 6.55351 36.7114 3.97616 36.0069 6.20526C35.3029 8.4349 43.1055 8.02406 43.1055 7.02693Z" fill="#F464A6"/>
<path d="M42.9878 8.96291C42.8873 8.72059 36.0069 9.72521 36.0069 12.1308C36.0069 14.5359 43.2815 9.6669 42.9878 8.96291Z" fill="#E84D9B"/>
<path d="M43.8673 10.0778C43.4105 10.0494 38.6784 14.7323 40.3479 15.5925C42.2839 16.5896 44.8067 10.1366 43.8673 10.0778Z" fill="#F464A6"/>
<path d="M45.3935 10.8401C45.0998 10.8401 42.5182 16.7656 44.3963 17.2348C45.723 17.5664 46.0381 10.8401 45.3935 10.8401Z" fill="#E84D9B"/>
<path d="M19.3461 1.96222C19.2375 1.75413 18.1708 5.99835 15.6315 7.51545C12.8155 9.1973 13.6367 11.7393 15.9048 10.8792C18.5014 9.89487 20.2844 3.76177 19.3461 1.96222Z" fill="#FFEBF4"/>
<path d="M7.4565 8.88545C7.09862 8.93039 8.82594 1.88467 12.3459 2.51055C15.1393 3.00698 11.6809 5.28744 10.312 6.57825C8.77245 8.02901 8.08238 8.80735 7.4565 8.88545Z" fill="#B75795"/>
<path d="M25.3182 64.6216C23.1083 64.0936 22.9067 62.0079 25.415 61.4505C27.1439 61.0658 28.538 62.4599 28.393 63.8529C28.2818 64.927 27.5344 65.1517 25.3182 64.6216Z" fill="#FFEF00"/>
<path d="M25.2315 60.6084C25.5252 60.8176 28.1261 48.4636 25.0363 49.1093C23.5711 49.4158 22.7676 58.8484 25.2315 60.6084Z" fill="#F464A6"/>
<path d="M26.6208 60.6666C26.395 61.4936 34.4224 48.4844 30.8249 47.1936C28.7161 46.4372 28.4 49.5404 27.9693 53.5685C27.5542 57.4575 26.7379 60.236 26.6208 60.6666Z" fill="#E84D9B"/>
<path d="M27.6035 61.0367C27.412 61.2197 30.0813 60.6403 32.1729 59.3105C34.0174 58.1384 34.6941 56.149 33.6569 55.1738C32.6496 54.2269 31.5262 55.8414 30.4012 57.7452C29.3163 59.5828 27.7918 60.857 27.6035 61.0367Z" fill="#F464A6"/>
<path d="M28.7958 62.3924C28.6322 62.44 30.3178 62.8942 31.8932 62.754C33.2829 62.631 34.2501 61.7018 33.9489 60.8443C33.6553 60.0114 32.5447 60.5971 31.3481 61.3466C30.1926 62.0709 28.9542 62.3453 28.7958 62.3924Z" fill="#E84D9B"/>
<path d="M23.9841 61.3626C24.06 61.514 22.5809 60.5896 21.6116 59.3384C20.7562 58.2359 20.7792 56.8942 21.6137 56.5321C22.4236 56.1806 22.75 57.3928 23.0137 58.7799C23.2694 60.1194 23.9113 61.215 23.9841 61.3626Z" fill="#E84D9B"/>
<path d="M12.5411 30.1997C12.5411 31.6253 11.3851 32.7808 9.96002 32.7808C8.53494 32.7808 7.3784 31.6248 7.3784 30.1997C7.3784 28.7741 8.53494 27.618 9.96002 27.618C11.3851 27.618 12.5411 28.7746 12.5411 30.1997Z" fill="#FFBDDB"/>
<path d="M33.7772 35.7143C33.7772 37.1394 32.6218 38.2954 31.1967 38.2954C29.771 38.2954 28.615 37.1394 28.615 35.7143C28.615 34.2892 29.771 33.1332 31.1967 33.1332C32.6218 33.1332 33.7772 34.2892 33.7772 35.7143Z" fill="#FFBDDB"/>
<path d="M4.62773 12.9018C5.62433 11.8843 7.73788 9.90984 8.85163 11.259C10.1756 12.8611 6.27053 14.3097 6.27053 14.3097C6.27053 14.3097 10.7293 13.5276 11.0422 15.1699C11.3552 16.8127 6.58347 17.1251 6.58347 17.1251C6.58347 17.1251 10.9636 19.0809 9.63424 20.254C8.30491 21.4271 5.33171 19.2376 5.33171 19.2376C5.33171 19.2376 7.35111 22.1589 5.44939 22.2295C3.86543 22.2884 3.21761 20.0871 3.16145 17.5953C3.13577 16.4634 3.63114 13.9192 4.62773 12.9018Z" fill="#FFEF00"/>
<path d="M37.1238 50.0754C36.5739 50.5178 34.5556 52.204 33.774 51.1004C32.8454 49.7898 35.9373 48.8964 35.9373 48.8964C35.9373 48.8964 32.4564 49.2441 32.3088 47.9603C32.1617 46.6759 35.8576 46.708 35.8576 46.708C35.8576 46.708 32.5934 44.9507 33.6852 44.1226C34.7776 43.2945 36.9435 45.1524 36.9435 45.1524C36.9435 45.1524 35.5559 42.751 37.0232 42.8398C37.4539 42.866 38.6131 44.3146 38.635 46.3656C38.6468 47.504 38.1889 49.2184 37.1238 50.0754Z" fill="#FFEBF4"/>
<path d="M50.6493 36.4916C50.6493 36.4916 48.0527 37.6305 47.1534 35.2061C46.2531 32.7812 48.5593 31.6493 48.5593 31.6493C48.5593 31.6493 50.3984 32.4854 50.7183 33.1905C51.0301 33.8773 50.9494 35.227 50.6493 36.4916Z" fill="#B75795"/>
<path d="M46.4099 32.472C46.7073 31.9258 41.7494 29.0141 41.092 31.0207C40.4335 33.0272 46.114 33.0149 46.4099 32.472Z" fill="#F464A6"/>
<path d="M46.2922 34.5411C46.3633 33.8601 40.0954 33.0101 40.2794 35.3259C40.464 37.6422 46.2237 35.2173 46.2922 34.5411Z" fill="#E84D9B"/>
<path d="M46.8009 36.4182C46.4848 35.8945 41.5547 38.6628 42.9333 40.2158C44.3113 41.7693 47.1155 36.9382 46.8009 36.4182Z" fill="#F464A6"/>
<path d="M48.8353 37.3566C48.3062 37.049 45.3063 41.8426 47.262 42.5439C49.2156 43.2468 49.3601 37.6631 48.8353 37.3566Z" fill="#E84D9B"/>
<path d="M1.16022 29.4571C0.780949 30.0257 6.90924 26.0928 4.44583 24.2548C3.55943 23.5936 2.84743 25.1096 2.37293 26.6406C1.86367 28.2834 1.31696 29.2222 1.16022 29.4571Z" fill="#FFEBF4"/>
<path d="M37.6588 14.8526C38.1204 14.3476 31.4668 17.3069 33.6248 19.4975C34.401 20.286 35.3339 18.8946 36.0347 17.453C36.7857 15.9059 37.4694 15.0612 37.6588 14.8526Z" fill="#B75795"/>
<path d="M11.6023 6.97412C10.7009 6.97412 10.7009 8.37085 11.6023 8.37085C12.5037 8.37085 12.5037 6.97412 11.6023 6.97412Z" fill="white"/>
<path d="M14.7702 5.56604C13.8688 5.56604 13.8688 6.96277 14.7702 6.96277C15.6716 6.96277 15.6711 5.56604 14.7702 5.56604Z" fill="white"/>
<path d="M16.7645 2.63245C15.8631 2.63245 15.8631 4.02918 16.7645 4.02918C17.6664 4.02971 17.6664 2.63245 16.7645 2.63245Z" fill="white"/>
<path d="M43.5158 18.3549C42.6144 18.3549 42.6144 19.7521 43.5158 19.7521C44.4172 19.7521 44.4172 18.3549 43.5158 18.3549Z" fill="white"/>
<path d="M42.8118 21.288C41.911 21.288 41.911 22.6852 42.8118 22.6852C43.7132 22.6852 43.7132 21.288 42.8118 21.288Z" fill="white"/>
<path d="M41.6885 24.2167C40.7866 24.2167 40.7866 25.6139 41.6885 25.6139C42.5888 25.6139 42.5888 24.2167 41.6885 24.2167Z" fill="white"/>
<path d="M2.10281 30.6361C1.2009 30.6361 1.2009 32.0334 2.10281 32.0334C3.00312 32.0334 3.00312 30.6361 2.10281 30.6361Z" fill="white"/>
<path d="M2.23655 33.4445C1.33463 33.4445 1.33463 34.8417 2.23655 34.8417C3.13685 34.8417 3.13685 33.4445 2.23655 33.4445Z" fill="white"/>
<path d="M4.24257 31.9735C3.34066 31.9735 3.34066 33.3708 4.24257 33.3708C5.14288 33.3708 5.14288 31.9735 4.24257 31.9735Z" fill="white"/>
</svg>
