<svg width="66" height="82" viewBox="0 0 66 82" fill="none" xmlns="http://www.w3.org/2000/svg">
<path d="M26.9042 80.3314C26.7523 80.3314 26.6171 80.2233 26.5881 80.0688C26.2412 78.206 26.7252 72.8802 26.7465 72.6543C26.7626 72.4779 26.9209 72.3492 27.0966 72.3634C27.2737 72.3795 27.4043 72.5365 27.3876 72.7135C27.3824 72.7682 26.8907 78.1758 27.2215 79.951C27.2537 80.1255 27.1391 80.2941 26.964 80.3263C26.9434 80.3295 26.9235 80.3314 26.9042 80.3314Z" fill="#434040"/>
<path d="M47.6016 77.068H47.6003C47.4226 77.0673 47.2791 76.9225 47.2798 76.7442C47.3036 71.7358 46.1713 67.3948 46.1598 67.3517C46.1141 67.1798 46.2164 67.0041 46.3883 66.9584C46.5588 66.9127 46.7365 67.015 46.7816 67.1869C46.7931 67.2313 47.9473 71.6547 47.9228 76.7474C47.9221 76.9244 47.7786 77.068 47.6016 77.068Z" fill="#434040"/>
<path d="M25.7282 79.1497C24.5889 79.0988 23.4 79.4715 23.3118 80.4184C23.2957 80.5928 23.3485 80.7563 23.4657 80.8908C23.6716 81.1277 24.0681 81.2603 24.6442 81.2861C25.5531 81.3266 27.2987 81.044 27.414 80.1828C27.4378 80.0006 27.385 79.8255 27.2595 79.6762C26.8997 79.2462 26.0687 79.1645 25.7282 79.1497Z" fill="#434040"/>
<path d="M50.8876 77.2959C50.3855 76.5879 49.1799 76.0736 48.3695 76.0375C47.6093 76.0041 47.4252 76.3954 47.3808 76.5654C47.319 76.8042 47.3892 77.0629 47.5887 77.3333C48.0972 78.0207 49.4554 78.7584 50.2799 78.7951C50.8779 78.8215 51.0472 78.4764 51.0923 78.3265C51.1952 77.986 51.1244 77.6294 50.8876 77.2959Z" fill="#434040"/>
<path d="M13.4996 35.5773C13.434 35.5773 13.367 35.5573 13.3097 35.5148C13.1662 35.4099 13.1353 35.2085 13.2402 35.0649C14.4632 33.3972 16.1046 33.654 17.6919 33.9024C18.5345 34.0337 19.406 34.1715 20.2286 34.0254C21.2701 33.8419 21.543 33.1184 21.973 31.7481C22.3341 30.5978 22.7827 29.1669 24.1171 27.9459C26.9821 25.3242 30.1715 28.4441 30.203 28.4756C30.3285 28.6011 30.3292 28.8045 30.2037 28.9307C30.0781 29.0568 29.8741 29.0562 29.7486 28.932C29.6359 28.82 26.9615 26.2169 24.5515 28.4209C23.3446 29.5248 22.9417 30.8083 22.587 31.9412C22.1905 33.2053 21.8159 34.4 20.3406 34.6594C19.4118 34.8235 18.4868 34.6781 17.5921 34.5384C16.0679 34.2989 14.7503 34.0936 13.759 35.4453C13.6959 35.5316 13.5987 35.5773 13.4996 35.5773Z" fill="#434040"/>
<path d="M13.7056 34.9187C13.4803 34.8286 11.1354 35.377 11.1566 35.9196C11.1779 36.4623 12.4523 35.9113 12.4523 35.9113C12.4523 35.9113 11.2699 36.916 11.6857 37.2842C12.1015 37.6531 12.8656 36.4307 12.8656 36.4307C12.8656 36.4307 12.5688 37.9228 13.0516 37.8706C13.5344 37.8185 13.8343 36.1765 13.8343 36.1765C13.8343 36.1765 14.0332 37.2231 14.5115 37.113C14.7129 37.066 14.9627 35.4227 13.7056 34.9187Z" fill="#434040"/>
<path d="M14.068 30.5598C11.8254 32.6112 2.78883 33.4757 0.723269 27.3595C-1.34293 21.2426 0.038403 4.31003 18.0922 0.706086C36.1461 -2.89722 47.8108 7.78138 46.6586 21.5773C45.5064 35.3732 37.082 46.868 38.6255 48.5557C40.1691 50.2428 51.6278 39.2424 56.1232 39.2623C59.3069 39.2758 67.0554 48.2004 64.8579 53.1387C62.1049 59.3257 36.7511 74.5487 27.6457 73.065C18.5402 71.5813 14.3956 63.6647 16.1187 57.2672C17.8419 50.8697 26.229 41.2738 28.9498 31.5813C31.9409 20.924 27.4384 15.8602 21.1285 17.3863C14.2192 19.0573 17.1615 27.7302 14.068 30.5598Z" fill="#EF6856"/>
<path d="M15.4249 8.28609C15.3148 7.3283 14.4478 6.64086 13.49 6.75157C12.5322 6.86164 11.8447 7.72867 11.9548 8.68646C12.0649 9.6449 12.9319 10.3323 13.8903 10.2216C14.8488 10.1109 15.5356 9.24388 15.4249 8.28609Z" fill="#434040"/>
<path d="M30.0505 6.32931C29.9398 5.37151 29.0727 4.68407 28.1149 4.79478C27.1571 4.90485 26.4697 5.77188 26.5798 6.73032C26.6905 7.68875 27.5569 8.37556 28.5153 8.26549C29.4731 8.15477 30.1612 7.28774 30.0505 6.32931Z" fill="#434040"/>
<path d="M19.3603 12.6289C19.3603 12.6289 21.9002 10.1385 24.6024 11.9659L24.6204 11.9994C23.8989 12.4307 22.9501 12.7628 21.7773 12.8973C20.851 13.0048 20.031 12.9038 19.3455 12.6733L19.3603 12.6289Z" fill="#F99DA6"/>
<path d="M25.9194 8.42892C26.8012 9.31913 26.3802 10.956 24.6204 11.9988L24.6024 11.9653C21.9002 10.1379 19.3603 12.6283 19.3603 12.6283L19.3455 12.6727C17.1795 11.9711 16.2346 10.0285 17.0173 9.24446C17.7929 8.4669 18.8679 9.50708 21.7767 9.15306C24.0958 8.86984 24.9822 7.48529 25.9194 8.42892Z" fill="#434040"/>
<path d="M29.9011 22.6857C29.9011 22.6857 30.0016 22.7327 30.212 22.8048C30.4206 22.8743 30.7334 22.9664 31.1389 23.0288C31.5432 23.0912 32.0459 23.1183 32.5988 23.0211C33.1427 22.9213 33.7658 22.7038 34.2524 22.257C34.7358 21.8084 35.0834 21.1081 35.1413 20.3479C35.1696 19.9797 35.1188 19.56 34.9321 19.3174C34.8394 19.1996 34.7454 19.1552 34.6122 19.159C34.5865 19.161 34.5234 19.1725 34.5234 19.1725L34.4423 19.1983C34.4191 19.2073 34.4294 19.2118 34.4197 19.2144C34.3959 19.233 34.3528 19.2627 34.3406 19.3129C34.2524 19.5336 34.4313 19.9746 34.6952 20.2758C34.9624 20.5951 35.319 20.859 35.7155 21.0456C36.5123 21.4286 37.4579 21.5014 38.3681 21.3643C39.2814 21.2175 40.1961 20.9105 40.9132 20.3923C41.6244 19.8793 42.1181 19.0766 42.0602 18.2823C42.0377 17.9006 41.8722 17.5176 41.616 17.3677C41.4905 17.2891 41.3579 17.2718 41.2092 17.3097C41.1565 17.3361 41.1404 17.3245 41.1565 17.4855C41.2221 17.7783 41.4783 18.097 41.7416 18.3267C42.0119 18.5636 42.3189 18.7451 42.6318 18.8649C43.2606 19.1075 43.903 19.0992 44.4302 18.9421C44.9625 18.7883 45.3822 18.5115 45.7028 18.2598C46.022 18.003 46.2467 17.7655 46.3941 17.6007C46.5395 17.4314 46.6168 17.3419 46.6168 17.3419L46.6226 17.3348C46.6837 17.264 46.7906 17.2557 46.8614 17.3168C46.9309 17.376 46.9399 17.4803 46.8839 17.5511C46.8839 17.5511 46.806 17.6483 46.6612 17.8311C46.5119 18.0107 46.2846 18.2701 45.9506 18.5598C45.6152 18.8436 45.1666 19.168 44.5622 19.3682C43.9661 19.571 43.1982 19.6167 42.4548 19.3412C42.084 19.2079 41.7216 19.0045 41.3953 18.7303C41.0766 18.4471 40.7567 18.1279 40.6126 17.6033C40.5836 17.4694 40.5688 17.3039 40.6415 17.1237C40.7188 16.937 40.8855 16.8109 41.0638 16.76C41.3283 16.6802 41.6598 16.7118 41.9102 16.8662C42.4245 17.1746 42.6183 17.7333 42.6595 18.2424C42.7393 19.3039 42.1027 20.2925 41.282 20.8931C40.4433 21.502 39.4623 21.8309 38.464 21.9996C37.4598 22.1579 36.3785 22.0665 35.4432 21.6114C34.9772 21.3868 34.5523 21.0727 34.2196 20.6691C34.0548 20.4663 33.9119 20.241 33.814 19.9842C33.7207 19.7306 33.6563 19.4249 33.7767 19.0927C33.8379 18.9247 33.964 18.7818 34.1314 18.6859C34.235 18.6286 34.2917 18.6151 34.3399 18.6003C34.4481 18.5701 34.4976 18.5694 34.5826 18.5604C34.9012 18.534 35.2443 18.7194 35.4065 18.9608C35.7361 19.4455 35.7354 19.9469 35.7052 20.3975C35.6131 21.3044 35.1934 22.1051 34.598 22.6387C33.9904 23.173 33.2804 23.3854 32.6664 23.471C32.0459 23.554 31.5026 23.5006 31.0713 23.4169C30.2069 23.2425 29.755 22.9934 29.755 22.9934L29.7467 22.9889C29.6643 22.9438 29.6347 22.8409 29.6797 22.7591C29.7241 22.6786 29.8213 22.6484 29.9011 22.6857Z" fill="#F7F4B7"/>
<path d="M29.3489 30.3674C29.3489 30.3674 29.4596 30.4253 29.6675 30.5348C29.8747 30.6268 30.1657 30.7311 30.5854 30.8276C31.0012 30.9068 31.5155 30.9885 32.1089 30.9776C32.6986 30.9699 33.3718 30.9177 34.0567 30.7079C34.7306 30.5 35.4503 30.1241 35.8384 29.4592C35.9279 29.2912 36.0341 29.129 36.0669 28.9314L36.1474 28.6469L36.1628 28.3417L36.1795 28.0566L36.1403 27.7148C36.1178 27.617 36.0849 27.5494 36.0643 27.4618C36.0199 27.393 35.9864 27.3035 35.9317 27.2501C35.7419 27.0158 35.3769 27.0377 35.151 27.3196C34.9102 27.5777 34.8954 28.0122 35.0293 28.4016C35.0557 28.5027 35.0982 28.6012 35.1567 28.6958L35.234 28.8412L35.2533 28.8779C35.2494 28.8734 35.2752 28.9133 35.2469 28.8728L35.261 28.8915L35.3177 28.9648C35.4007 29.0846 35.4522 29.1013 35.5198 29.1669C35.6035 29.2223 35.6852 29.2796 35.785 29.3201C36.166 29.5036 36.6443 29.5461 37.1103 29.5525C38.0559 29.5454 39.0227 29.3201 39.9013 28.9758C40.3403 28.8013 40.7612 28.5876 41.1127 28.3231C41.4661 28.0675 41.7306 27.7019 41.5922 27.5133C41.5697 27.4857 41.5639 27.4541 41.5343 27.4245C41.5163 27.4046 41.4513 27.346 41.4751 27.355L41.3322 27.2559C41.2936 27.2372 41.282 27.2456 41.2588 27.2301C41.1429 27.1941 40.9891 27.2218 40.8404 27.3138C40.5385 27.4979 40.2971 27.8448 40.1523 28.1982C39.8504 28.914 39.9277 29.7263 40.3879 30.1891C40.8378 30.6641 41.5066 30.8392 42.0776 30.9042C42.6588 30.9757 43.1828 30.9274 43.6089 30.8984C44.0363 30.8476 44.3716 30.8006 44.5988 30.7523C44.8267 30.7111 44.949 30.6886 44.949 30.6886L44.9574 30.6873C45.0494 30.6706 45.1376 30.7317 45.1543 30.8238C45.1704 30.9139 45.1125 31.0001 45.0237 31.0201C45.0237 31.0201 44.9001 31.0471 44.6684 31.098C44.4379 31.1553 44.0948 31.2164 43.6546 31.2846C43.2117 31.331 42.6704 31.4024 42.0351 31.3484C41.4178 31.2943 40.6338 31.1546 40.0197 30.538C39.7223 30.2335 39.5067 29.808 39.4565 29.3543C39.4012 28.9018 39.4617 28.4306 39.6361 27.9916C39.8125 27.5552 40.0725 27.1213 40.5372 26.8156C40.7657 26.6682 41.0908 26.562 41.4242 26.6566C41.5073 26.6856 41.6083 26.7255 41.6701 26.7622L41.8137 26.8607C41.9199 26.9533 41.934 26.9791 41.9977 27.0428C42.0492 27.0969 42.0891 27.1773 42.1316 27.2462C42.2108 27.3988 42.2404 27.5835 42.2237 27.7599C42.1953 27.9311 42.1336 28.0811 42.0557 28.2111C41.8967 28.4679 41.692 28.643 41.4854 28.8078C41.0663 29.1264 40.608 29.3581 40.1343 29.5512C39.1849 29.9284 38.1711 30.1762 37.1142 30.1936C36.587 30.191 36.0392 30.1434 35.5146 29.8962C35.3833 29.8396 35.2591 29.7572 35.1374 29.6716C35.0196 29.575 34.8722 29.436 34.8175 29.3478L34.7615 29.2738L34.748 29.2551C34.7113 29.2017 34.7306 29.2268 34.719 29.2094L34.6946 29.1637L34.598 28.9809C34.5285 28.8631 34.4738 28.7357 34.4365 28.5973C34.2601 28.0778 34.2575 27.3917 34.6862 26.9173C34.8806 26.6785 35.1786 26.5066 35.5101 26.4841C35.8358 26.4558 36.1969 26.6006 36.3875 26.8516C36.4943 26.9669 36.5516 27.102 36.6218 27.2314C36.6642 27.3679 36.7138 27.5185 36.737 27.6453L36.7737 27.9871C36.7795 28.1557 36.7621 28.2478 36.7556 28.3804L36.7254 28.7473L36.6211 29.1019C36.5696 29.344 36.437 29.5512 36.3179 29.7591C35.7991 30.5869 34.945 30.986 34.2035 31.1997C33.4446 31.4172 32.7275 31.4468 32.1025 31.4288C31.4743 31.416 30.9349 31.3091 30.4965 31.208C30.0659 31.0948 29.7119 30.9519 29.4969 30.8424C29.2935 30.7259 29.1847 30.6635 29.1847 30.6635C29.1036 30.6165 29.0753 30.5129 29.1223 30.4318C29.1667 30.3532 29.2684 30.3256 29.3489 30.3674Z" fill="#FCC5C5"/>
<path d="M26.5508 38.3393C26.5508 38.3393 26.554 38.3638 26.5604 38.4101C26.5695 38.4584 26.5836 38.5318 26.6145 38.6258C26.6776 38.8092 26.7896 39.0879 27.0535 39.3402C27.3116 39.5939 27.7146 39.8191 28.2379 39.897C28.7618 39.9775 29.3746 39.9788 29.9893 39.776C30.6027 39.5784 31.2381 39.2025 31.7079 38.6457C31.9384 38.3728 32.1295 38.0362 32.1553 37.7208C32.1643 37.5656 32.1405 37.4266 32.0594 37.3159C32.0195 37.2605 31.9706 37.2071 31.9049 37.1627L31.8817 37.1447L31.8759 37.1402C31.8688 37.1357 31.9165 37.1646 31.892 37.1498L31.8746 37.1402L31.8038 37.1015C31.7517 37.0771 31.7723 37.0977 31.7524 37.0874C31.7105 37.0771 31.6449 37.1131 31.5644 37.2663C31.4949 37.4118 31.4563 37.6036 31.4415 37.798C31.417 38.1913 31.4775 38.6103 31.6172 38.9997C31.8843 39.7895 32.4906 40.4442 33.2682 40.755C33.6679 40.9128 34.0586 40.9926 34.5157 41.0132C34.9212 41.0293 35.3511 40.9707 35.7264 40.8252C36.4866 40.5311 37.0537 39.8616 37.3092 39.115C37.4412 38.7448 37.4959 38.3477 37.456 38.0014C37.4354 37.8302 37.3762 37.6757 37.3066 37.5985C37.2693 37.5689 37.2429 37.5412 37.2011 37.5386C37.2107 37.538 37.1592 37.5328 37.2191 37.5354L37.1818 37.536C37.1612 37.5373 37.1213 37.5347 37.1168 37.5392C37.1219 37.5508 37.1277 37.536 37.1052 37.5528C36.9487 37.6326 36.84 38.0381 36.8593 38.3509C36.8625 38.6837 36.9487 39.0081 37.073 39.2945C37.3337 39.8694 37.7881 40.2659 38.2606 40.4693C38.7388 40.6675 39.2119 40.7113 39.5962 40.6984C39.983 40.6836 40.2881 40.6334 40.4941 40.5903C40.7001 40.5452 40.8102 40.5208 40.8102 40.5208L40.8205 40.5182C40.9119 40.4982 41.0026 40.5562 41.0226 40.6476C41.0419 40.7364 40.9872 40.8246 40.9003 40.8477C40.9003 40.8477 40.7857 40.878 40.5714 40.9346C40.3564 40.9881 40.0352 41.055 39.6149 41.0878C39.1971 41.1174 38.6661 41.0956 38.0919 40.8838C37.5242 40.6701 36.9359 40.2015 36.6115 39.5095C36.4531 39.1658 36.3411 38.7815 36.3263 38.3664C36.3173 38.1591 36.3302 37.9448 36.3894 37.7227C36.4525 37.5077 36.5387 37.2541 36.8174 37.0739C36.876 37.0301 36.9803 36.9953 37.0813 36.978C37.1251 36.9709 37.1361 36.9741 37.1657 36.9722L37.203 36.9709C37.288 36.9728 37.2609 36.9773 37.295 36.9812C37.4573 36.9992 37.6053 37.0938 37.7167 37.1987C37.9252 37.4234 37.9973 37.6796 38.0366 37.9171C38.1048 38.3979 38.0308 38.8659 37.8795 39.3113C37.5847 40.197 36.9037 41.028 35.9556 41.4032C35.4831 41.588 34.9881 41.6607 34.4757 41.644C34.0149 41.6285 33.4851 41.5352 33.0268 41.3498C32.078 40.9771 31.334 40.1442 31.0276 39.2064C30.8654 38.7391 30.7952 38.2473 30.8287 37.7517C30.8512 37.5032 30.8963 37.2528 31.0166 37.0005C31.0861 36.8756 31.1576 36.7456 31.3018 36.6362C31.4382 36.528 31.6481 36.4579 31.8328 36.4894C31.9165 36.5003 32.0452 36.5467 32.0883 36.5712L32.1591 36.6104L32.1772 36.6201L32.2106 36.64L32.2209 36.6478L32.2621 36.6786C32.3722 36.7572 32.4739 36.8608 32.555 36.9792C32.7243 37.2174 32.7719 37.5206 32.7443 37.7768C32.6799 38.2975 32.414 38.6876 32.136 39.012C31.5625 39.6569 30.8428 40.0534 30.1387 40.2646C29.4261 40.4834 28.7309 40.4538 28.1529 40.3379C27.5627 40.2266 27.0767 39.9376 26.7735 39.6125C26.4639 39.2888 26.3416 38.9482 26.2759 38.7255C26.2438 38.6116 26.2296 38.5215 26.2212 38.4597C26.2154 38.3953 26.2122 38.3625 26.2122 38.3625C26.2039 38.2692 26.2721 38.1868 26.3654 38.1784C26.4562 38.17 26.5366 38.2344 26.5489 38.3239L26.5508 38.3393Z" fill="#ADD1B1"/>
<path d="M21.6943 46.9253C21.6943 46.9253 21.6544 47.0508 21.6016 47.3038C21.5507 47.5548 21.4863 47.9301 21.478 48.4058C21.4735 48.8769 21.523 49.4678 21.8101 50.0317C22.094 50.5968 22.6881 51.0455 23.4689 51.2006C23.8583 51.2843 24.269 51.3094 24.6655 51.2212C25.0639 51.1311 25.4411 50.9245 25.7494 50.6161C26.3506 50.0072 26.7304 48.9761 26.5778 48.0897C26.5347 47.8715 26.4208 47.7331 26.3487 47.7325C26.3487 47.7325 26.2946 47.7312 26.3416 47.7267L26.2412 47.7389C26.2431 47.7499 26.2496 47.7421 26.2257 47.7582C26.1961 47.782 26.1588 47.8541 26.1395 47.9488C26.0616 48.3523 26.2109 48.893 26.4259 49.3436C26.8617 50.2686 27.7146 51.0429 28.7213 51.1452C29.7357 51.2714 30.7701 50.806 31.3707 49.9757C31.6815 49.5715 31.9017 49.0951 32.0278 48.6092C32.0896 48.3665 32.127 48.1187 32.1283 47.8824C32.1334 47.6494 32.0858 47.4113 32.0027 47.2928C31.9596 47.2343 31.9384 47.224 31.8965 47.2195C31.8644 47.2098 31.733 47.251 31.726 47.2684C31.6346 47.3205 31.5779 47.4995 31.5831 47.7054C31.6004 48.1232 31.7961 48.5648 32.0497 48.922C32.5627 49.6558 33.3641 50.087 34.1378 50.1611C34.3283 50.1804 34.5324 50.1823 34.7043 50.1688C34.9057 50.1482 35.1027 50.1276 35.2945 50.1076C35.4722 50.0729 35.6453 50.0394 35.814 50.0066C35.98 49.9628 36.139 49.9062 36.2954 49.8598C36.9095 49.6384 37.3465 49.2651 37.6021 48.8924C37.8608 48.5178 37.9522 48.1567 37.9857 47.9153C38.0192 47.6713 38.0037 47.5419 38.005 47.551C37.9947 47.4576 38.0623 47.3739 38.155 47.3636C38.2483 47.3533 38.332 47.4209 38.3423 47.5136C38.3423 47.5136 38.3449 47.5542 38.3494 47.6333C38.3513 47.708 38.3494 47.8174 38.3359 47.9584C38.3063 48.2378 38.2168 48.6574 37.9291 49.1093C37.6459 49.5586 37.1386 50.0124 36.4621 50.2821C36.2909 50.3407 36.1171 50.4089 35.9324 50.4636C35.7438 50.5067 35.5494 50.5511 35.3499 50.5962C35.1587 50.62 34.9624 50.6438 34.7615 50.6683C34.5311 50.6915 34.3187 50.6908 34.0883 50.6728C33.1775 50.6039 32.2106 50.107 31.5927 49.2522C31.2863 48.8274 31.034 48.3305 30.9922 47.726C30.9825 47.437 31.0282 47.0399 31.3771 46.7811C31.5824 46.6492 31.715 46.6183 31.9442 46.6202C32.1682 46.6286 32.3889 46.7805 32.4919 46.9401C32.7063 47.2652 32.7294 47.5831 32.7352 47.8812C32.7352 48.1818 32.6915 48.4733 32.6213 48.7579C32.4771 49.3249 32.2293 49.8708 31.8663 50.3503C31.1705 51.3345 29.8844 51.9395 28.6427 51.7825C28.0164 51.7155 27.4243 51.4317 26.9531 51.0403C26.4774 50.6477 26.1182 50.1475 25.8614 49.6094C25.622 49.063 25.4211 48.4927 25.5396 47.8142C25.5788 47.6462 25.6471 47.4531 25.8234 47.2961C25.9045 47.224 26.032 47.1583 26.1646 47.1326L26.265 47.121C26.3789 47.1158 26.3912 47.1274 26.4588 47.1332C26.684 47.1731 26.8701 47.3295 26.9711 47.4847C27.0799 47.643 27.1269 47.802 27.1636 47.9558C27.2827 48.5699 27.1752 49.1318 26.9949 49.65C26.8115 50.1675 26.518 50.6361 26.1382 51.0114C25.7539 51.3834 25.2699 51.6377 24.7743 51.7381C24.2754 51.8378 23.7862 51.7934 23.3537 51.6917C22.916 51.5887 22.5008 51.4137 22.1635 51.1543C21.8269 50.8942 21.5745 50.5653 21.411 50.2299C21.0924 49.5483 21.0686 48.8988 21.0873 48.3929C21.1124 47.8818 21.1928 47.4898 21.2553 47.2259C21.319 46.9626 21.3686 46.8204 21.3686 46.8204L21.3698 46.8165C21.4007 46.7283 21.4973 46.682 21.5861 46.7122C21.6749 46.7444 21.7219 46.8384 21.6943 46.9253Z" fill="#F7F4B7"/>
<path d="M47.8404 22.0009C47.169 22.0009 46.6451 21.9031 46.5968 21.8934C46.4224 21.8599 46.3085 21.6913 46.3419 21.5169C46.3754 21.3424 46.5447 21.2278 46.7185 21.2613C46.7423 21.2658 49.0402 21.6926 49.9574 20.7065C50.7286 19.8768 50.9024 18.8488 51.071 17.855C51.2371 16.8734 51.3935 15.9471 52.1035 15.2977C52.4189 15.0093 52.8772 14.7344 53.4082 14.4171C54.5256 13.7483 55.9166 12.9161 56.2024 11.7079C56.3608 11.0417 56.1805 10.3137 55.6527 9.48332C55.5574 9.33335 55.6012 9.13445 55.7518 9.03919C55.9018 8.94392 56.1007 8.98834 56.196 9.13831C56.8133 10.1096 57.0263 11.0243 56.8287 11.8566C56.4798 13.3293 54.9601 14.2388 53.7384 14.9694C53.2582 15.2565 52.8044 15.5281 52.5373 15.7727C51.9908 16.2728 51.8582 17.0562 51.7044 17.9631C51.5287 19.0001 51.3304 20.1748 50.428 21.1455C49.7804 21.8426 48.692 22.0009 47.8404 22.0009Z" fill="#434040"/>
<path d="M57.1274 6.4998C56.9027 6.31635 56.588 6.29897 56.317 6.32665C56.102 5.10495 55.7093 3.77447 54.9994 3.685C54.8281 3.6599 54.6698 3.72298 54.5494 3.84785C54.4516 3.9502 54.2025 4.21797 54.3035 5.62505C53.9412 5.08758 53.5176 4.58229 53.1707 4.51663C53.0085 4.48316 52.8527 4.52886 52.7343 4.63765C52.4826 4.86808 52.2895 5.40684 53.2962 7.30054C53.1095 7.43893 52.9917 7.61722 52.9692 7.82899C52.9209 8.23902 53.1346 8.69474 53.5556 9.0803C54.0261 9.51028 54.6453 9.76582 55.2356 9.79156C55.4139 9.79929 55.5896 9.78642 55.7576 9.75101C56.7244 9.55019 57.3218 7.85217 57.3578 7.03599C57.3687 6.81971 57.287 6.62918 57.1274 6.4998Z" fill="#434040"/>
<path d="M54.1407 8.11548C54.1407 8.11548 54.2147 8.13737 54.3454 8.17599C54.4748 8.21461 54.6666 8.2558 54.8867 8.28219C55.1062 8.30665 55.3708 8.27125 55.4216 8.09617C55.4602 7.99962 55.4596 7.87732 55.4062 7.75374C55.3778 7.68358 55.2652 7.57801 55.1545 7.5085C54.9202 7.35723 54.6125 7.28643 54.3319 7.26197C54.1903 7.25553 54.0525 7.24394 53.9212 7.25296C53.7912 7.26261 53.6663 7.27548 53.5588 7.30831C53.4475 7.33341 53.3528 7.37526 53.2717 7.41709C53.1919 7.4628 53.1301 7.51365 53.0922 7.56836C53.04 7.6147 53.0349 7.67135 53.0156 7.70289C53.0007 7.73765 52.9924 7.75631 52.9924 7.75631C52.9924 7.75824 52.9904 7.75889 52.9892 7.75889C52.9879 7.75889 52.9872 7.75696 52.9866 7.75567C52.9866 7.75567 52.9898 7.73571 52.9962 7.69902C53.0078 7.66427 52.9982 7.59797 53.0432 7.53875C53.0748 7.46988 53.1301 7.40036 53.2106 7.33213C53.2898 7.26905 53.3882 7.19824 53.5067 7.15769C53.7397 7.06436 54.0306 7.00192 54.3447 7.00578C54.5018 7.01093 54.664 7.02831 54.8281 7.05985C54.991 7.09847 55.1571 7.14932 55.3154 7.23558C55.4712 7.33406 55.6205 7.43705 55.7132 7.66234C55.7769 7.82519 55.7943 8.03502 55.719 8.21525C55.6527 8.41286 55.4474 8.53967 55.2852 8.56284C55.1191 8.59438 54.9775 8.57378 54.8494 8.55705C54.3486 8.45341 54.0718 8.2719 54.0718 8.2719C54.0313 8.24679 54.019 8.19401 54.0441 8.1541C54.0635 8.11935 54.1053 8.10583 54.1407 8.11548Z" fill="white"/>
</svg>
