<svg width="207" height="134" viewBox="0 0 207 134" fill="none" xmlns="http://www.w3.org/2000/svg">
<path opacity="0.2" d="M113.66 125.78C103.66 126.39 85.84 130.19 96.93 131.84C96.93 131.84 104.33 133.92 118.79 133.92C133.25 133.92 157.73 134.6 165.26 131.84C172.8 129.08 123.66 125.17 113.66 125.78Z" fill="black"/>
<path opacity="0.2" d="M145.62 129.89C137.81 129.34 118.15 131.12 112.64 130.33C107.12 129.54 97.35 128.64 99.35 130.33C99.35 130.33 109.89 133.8 127.76 131.85C145.63 129.89 151.52 134.36 152.02 132.45C152.52 130.53 153.43 130.44 145.62 129.89Z" fill="black"/>
<path opacity="0.2" d="M85.54 112.07C80.84 110.31 69.08 111.33 61.73 112.07C54.38 112.8 36.3 112.95 33.36 112.95C30.42 112.95 21.31 114.03 28.65 116.57C28.65 116.57 35.56 119.18 44.82 116.57C54.08 113.97 66.28 113.82 72.31 115.29C78.34 116.77 90.24 113.83 85.54 112.07Z" fill="black"/>
<path opacity="0.2" d="M81.47 109.1C65.14 109.88 50.4 109.02 43.69 109C36.99 108.99 25.74 109.85 25.74 109.85C25.74 109.85 18.28 106.82 17.69 112.88C17.1 118.93 27.78 120.66 57.24 122.39C86.71 124.12 99.83 120.7 107.11 116.57C114.39 112.45 97.8 108.32 81.47 109.1Z" fill="black"/>
<path d="M58.45 30.3299C58.45 30.3299 40.33 13.0299 15.61 26.2599C-9.11001 39.4999 -2.32001 86.3199 20.94 107.19C44.2 128.06 45.05 107.7 56.26 107.19C67.47 106.68 66.12 116.86 80.85 113.3C95.58 109.74 135.29 62.6799 113.17 33.3199C93.72 7.47985 62.71 20.1599 58.45 30.3299Z" fill="#B32C39"/>
<path opacity="0.3" d="M60.86 26.8599L62.12 31.8999C62.12 31.8999 67.89 36.9599 77.3 35.7699C77.3 35.7699 91.11 35.3199 96.81 26.0699C98.17 23.8499 99.36 22.6499 100.37 22.0899C84.89 13.8299 67.59 19.8399 60.86 26.8599Z" fill="#5E1313"/>
<path d="M67.5 102.68C61.25 98.1101 48.99 96.1901 40.82 107.2C33.47 117.1 23.27 109.2 21.29 107.5C44.21 127.85 45.11 107.7 56.26 107.2C67.47 106.69 66.12 116.87 80.85 113.31C84.02 112.54 88.34 109.76 92.96 105.58C77.32 112.55 73.74 107.24 67.5 102.68Z" fill="#9B1B2E"/>
<path opacity="0.3" d="M86.97 18.2002C86.97 18.2002 115.57 44.9902 91.29 68.7802C69.15 90.4802 3.52998 82.6502 19.34 105.68C19.86 106.19 20.39 106.7 20.94 107.19C44.2 128.06 45.05 107.7 56.26 107.19C67.47 106.68 66.12 116.86 80.85 113.3C95.58 109.74 135.29 62.6802 113.17 33.3202C105.46 23.0702 95.93 18.8902 86.97 18.2002Z" fill="#5E1313"/>
<path opacity="0.3" d="M26.69 27.3302C26.69 27.3302 2.45001 39.8102 5.42001 65.2802C8.39001 90.7602 20.43 77.7902 26.69 56.1002C32.95 34.4202 41.29 21.9102 26.69 27.3302Z" fill="white"/>
<path opacity="0.3" d="M16.4 41.8699C16.4 41.8699 9.03001 48.4599 12.33 54.2799C15.63 60.0999 21.05 51.5699 23.38 44.0099C25.71 36.4399 19.67 37.8499 16.4 41.8699Z" fill="white"/>
<path opacity="0.3" d="M58.45 30.3299C58.45 30.3299 53.88 25.9699 46.2 23.2999C46.2 23.2999 45.71 45.8399 59.87 40.0799C68.38 36.6199 68.84 28.1399 67.85 21.9199C63.11 24.2799 59.68 27.4099 58.45 30.3299Z" fill="#5E1313"/>
<path opacity="0.3" d="M57.9 29.5299C57.9 29.5299 57.83 29.4699 57.72 29.3999C54.28 33.4299 57.9 29.5299 57.9 29.5299Z" fill="#5E1313"/>
<path opacity="0.3" d="M57.9 29.1802C57.83 29.2602 57.78 29.3202 57.72 29.3902C57.83 29.4702 57.9 29.5202 57.9 29.5202C57.9 29.5202 54.28 33.4202 57.72 29.3902C56.61 28.5702 50.2 23.9902 48.93 26.7502C48.93 26.7502 46.84 35.0902 57.2 34.1902C57.2 34.1902 64.17 33.0702 65.73 26.2302C65.73 26.2402 61.68 24.7702 57.9 29.1802Z" fill="#5E1313"/>
<path d="M91.93 0.95L91.88 0C90.93 0.01 89.93 0.04 88.88 0.09L85.96 1.92L86.05 0.26C85.52 0.3 84.97 0.35 84.43 0.41L81.54 2.73L81.4 0.78C80.29 0.94 79.17 1.14 78.05 1.37L75.81 2.88L75.57 1.95C74.96 2.11 74.36 2.28 73.76 2.47L71.43 5.14L71 3.46C70.43 3.69 69.86 3.94 69.32 4.21L67.92 6.62L67.54 5.16C66.98 5.49 66.44 5.85 65.92 6.23L64.52 8.64L64.14 7.72C63.39 8.44 62.72 9.22 62.15 10.07L61.5 13.39L60.88 12.43C59.81 15.04 59.5 18.18 60.26 21.97C60.26 21.97 60.68 27.98 64.8 29.17C64.8 29.17 65.21 29.46 65.99 29.75L65.8 29.01L67.03 30.07C67.82 30.27 68.8 30.41 69.96 30.38L70.03 29.79L71.45 30.25C72.22 30.14 73.05 29.96 73.93 29.68L73.68 28.73L77.77 27.97C78.17 27.74 78.58 27.49 78.99 27.22L77.66 26.44L81.98 25C82.57 24.51 83.17 23.98 83.78 23.4L82.37 22.83L85.09 22.12C85.66 21.54 86.24 20.92 86.83 20.26L86.05 19.16L87.89 19.03C88.57 18.22 89.26 17.37 89.96 16.45L88.78 14.49L92.01 13.65C92.31 13.23 92.61 12.79 92.91 12.35L90.65 11.67L95.28 8.68C95.75 7.92 96.22 7.13 96.7 6.32L95.76 6.12L98.56 3.04C99.06 2.14 99.56 1.21 100.06 0.25C100.06 0.25 98.27 0.08 95.45 0L91.93 0.95Z" fill="#5C9600"/>
<path d="M60.25 21.98C60.25 21.98 60.38 23.82 61.2 25.67L100.06 0.27002L60.18 21.55C60.2 21.69 60.22 21.83 60.25 21.98Z" fill="#3A5604"/>
<path d="M65 13.8301C65.39 15.3101 62.64 20.8901 62.64 20.8901L64.26 21.3701L66.06 14.5701L64.51 8.64014C64.51 8.65014 64.61 12.3501 65 13.8301Z" fill="#3A5604"/>
<path d="M74.02 23.66C71.82 22.33 68.62 20.23 68.62 20.23L67.67 21.44C67.67 21.44 67.92 21.28 68.25 21.46C68.58 21.65 69.96 22.28 70.7 22.54C71.45 22.8 75.41 24.93 76.27 25.34C77.12 25.75 77.98 25.73 77.98 25.73C77.98 25.73 77.17 25.28 75.74 24.62C75.38 24.46 74.75 24.11 74.02 23.66Z" fill="#3A5604"/>
<path d="M74.92 7.83982C74.96 7.69982 75 7.56982 75.04 7.42982C75.29 6.56982 75.47 5.78982 75.47 5.78982L75.63 5.06982L74.9 7.89982C74.9 7.87982 74.91 7.85982 74.92 7.83982Z" fill="#3A5604"/>
<path d="M72.99 12.7599C72.24 14.2799 72.67 16.5799 72.52 16.6799C72.52 16.6799 73.26 16.6599 73.38 16.4499C73.5 16.2499 73.29 15.6699 73.3 15.4699C73.3 15.2699 73.23 14.5399 73.33 14.0499C73.43 13.5599 73.69 12.5699 73.69 12.5699L74.9 7.8999C74.69 8.5599 74.27 9.7699 73.79 10.9499C73.53 11.5999 73.25 12.2299 72.99 12.7599Z" fill="#3A5604"/>
<path d="M68.59 11.0998C68.41 10.3998 67.71 9.02979 67.71 9.02979L67.88 10.7698C67.88 10.7698 68.57 13.6298 68.69 13.8898C68.81 14.1398 69.64 17.5098 69.64 17.5098L69.97 16.3398L69.43 14.2598C69.41 14.2598 68.77 11.7998 68.59 11.0998Z" fill="#3A5604"/>
<path d="M77.5499 17.9001C77.1999 17.4301 75.0199 16.6401 75.0199 16.6401L73.2599 17.1001C73.2599 17.1001 74.3999 17.5101 75.0199 17.6901C75.6399 17.8701 76.3199 18.2701 78.1999 18.6301C80.0799 18.9901 79.8399 19.4201 80.7199 19.9301C81.5999 20.4501 82.4899 20.3301 82.4899 20.3301C82.4899 20.3301 81.3699 19.7601 80.4899 19.0201C79.5999 18.2801 77.8999 18.3801 77.5499 17.9001Z" fill="#3A5604"/>
<path d="M80.89 14.2399C80.35 14.3799 80.19 13.2599 80.05 13.3499C79.92 13.4399 79.51 13.5599 78.95 13.6299C78.4 13.6999 77.93 13.8999 77.93 13.8999L77.5 13.7899L77.15 14.4399C77.15 14.4399 80.2 14.2599 80.65 14.6399C81.09 15.0199 84.32 15.4999 84.32 15.4999H85.07C83.59 15.1999 82.67 14.6799 82.67 14.6799C82.67 14.6799 81.43 14.0999 80.89 14.2399Z" fill="#3A5604"/>
<path d="M85.08 15.49C85.42 15.56 85.77 15.62 86.16 15.65C88.28 15.84 86.8 15.48 86.8 15.48L85.08 15.49Z" fill="#3A5604"/>
<path d="M83.8699 3.95979C83.6899 4.56979 83.4099 5.47979 83.3399 5.75979C83.2399 6.11979 82.6999 8.17979 82.3799 8.96979C82.3199 9.11979 82.2699 9.21979 82.2299 9.25979C81.9899 9.48979 81.3799 11.1298 81.3799 11.1298L81.8999 11.4698L82.3999 10.7498L83.1899 7.56979C83.1899 7.56979 83.4099 6.93979 83.6099 5.90979C83.8099 4.87979 84.0299 3.38979 84.5499 2.27979L84.0299 3.38979C84.0399 3.38979 83.9699 3.62979 83.8699 3.95979Z" fill="#3A5604"/>
<path d="M78.46 7.09002C78.67 6.80002 78.84 4.35002 78.81 4.24002C78.78 4.13002 78.56 3.27002 78.56 3.27002L78.32 4.37002C78.32 4.37002 77.81 5.48002 77.8 6.09002C77.79 6.70002 77.91 7.70002 77.91 7.70002C77.91 7.70002 77.74 8.26002 77.79 8.71002C77.85 9.15002 77.75 9.83002 78.11 10.82C78.47 11.81 78.49 11.52 78.47 11.81C78.45 12.1 78.45 12.1 78.45 12.1L79.33 12.16C79.33 12.16 78.61 10.74 78.65 10.44C78.68 10.13 78.24 7.37002 78.46 7.09002Z" fill="#3A5604"/>
<path d="M88.31 7.95008C88.18 8.04008 87.67 7.67008 87.67 7.67008L87.83 8.27008C88.02 8.40008 90.21 8.37008 91.81 8.37008C92.69 8.37008 93.39 8.39008 93.47 8.45008C93.69 8.62008 94.91 8.48008 94.91 8.48008L95.02 7.58008C95.02 7.58008 94.11 8.29008 93.79 8.38008C93.46 8.46008 88.45 7.87008 88.31 7.95008Z" fill="#3A5604"/>
<path d="M85.4 12.7399C85.14 12.8099 82.03 14.2699 82.03 14.2699L81.87 14.8499L82.27 14.4899L83.41 13.9099L85.35 13.4099L86.89 12.9999L89.05 12.9699L89.71 12.7999L88.23 12.6499C88.24 12.6499 85.66 12.6799 85.4 12.7399Z" fill="#3A5604"/>
<path d="M69.38 27.9798C69.36 27.9598 69.23 27.8798 69.07 27.7798C68.7 27.5598 68.13 27.2298 68.02 27.0698C67.87 26.8398 65.91 25.5398 65.84 25.2898C65.77 25.0398 63.32 23.5098 63.32 23.5098L62.72 23.9998C62.72 23.9998 63.42 24.4798 63.58 24.5298C63.75 24.5798 64.24 25.2298 64.74 25.4998C65.23 25.7598 65.39 25.8998 66.02 26.1298C66.65 26.3598 66.97 27.1198 67.38 27.2498C67.79 27.3798 68.4 27.8598 68.86 28.1198C69.32 28.3798 69.8 29.0598 70.64 28.8398C71.49 28.6198 69.45 28.0598 69.38 27.9798Z" fill="#3A5604"/>
<path d="M82.19 22.7299C82.72 22.7099 83.1 22.6699 83.1 22.6699C83.1 22.6699 82.36 22.7099 81.41 22.7499C81.68 22.7499 81.95 22.7499 82.19 22.7299Z" fill="#3A5604"/>
<path d="M72.1899 23.0199L72.8199 23.5699C72.8199 23.5699 74.0199 23.6599 74.7899 22.9799C75.5599 22.2999 76.7899 22.9699 77.2199 22.9499C77.4899 22.9399 79.7599 22.8299 81.3999 22.7499C80.4799 22.7599 79.4199 22.6999 78.8399 22.4299C77.6599 21.8899 72.1899 23.0199 72.1899 23.0199Z" fill="#3A5604"/>
<path d="M71.13 10.0298C70.25 11.5298 69.69 12.7998 69.13 13.1498C68.57 13.4998 68.69 13.8898 68.69 13.8898L68.82 14.2998L71.59 10.6698L71.86 9.54984L72.87 8.20984C72.87 8.20984 72.94 6.91984 73.47 6.77984C73.99 6.63984 75.39 4.08984 75.39 4.08984L72.93 6.43984C72.1 7.56984 72.01 8.53984 71.13 10.0298Z" fill="#3A5604"/>
<path d="M84.71 2.7002L84.04 3.3902C84.04 3.3902 85.04 4.5302 85.22 4.8302C85.4 5.1202 85.8 7.0502 85.8 7.0502L84.86 9.0502L85.74 8.1802C85.74 8.1802 86.17 7.6902 86.44 6.97019C86.71 6.25019 86.74 5.2002 86.94 4.8902C87.14 4.5802 84.71 2.7002 84.71 2.7002Z" fill="#3A5604"/>
<path d="M86.94 17.0098C86.94 17.0098 85 18.0298 83.26 18.3198C81.52 18.6098 77.55 17.8998 77.55 17.8998L77.63 18.2098C77.63 18.2098 77.93 18.2698 78.08 18.1798C78.23 18.0998 79.05 18.4498 79.12 18.4198C79.19 18.3898 80.68 18.8798 80.68 18.8798L81.53 18.9298C81.53 18.9298 82.76 18.5898 82.96 18.5398C83.16 18.4898 87.01 17.5798 87.04 17.3598C87.07 17.1398 88.08 17.1298 88.4 16.9698C88.71 16.8098 88.42 16.5298 88.42 16.5298L86.94 17.0098Z" fill="#3A5604"/>
<path opacity="0.2" d="M81.04 5.24009C76.65 6.89009 67.36 12.7101 65.74 14.0401C64.12 15.3701 61.17 18.0601 61.17 18.0601C61.17 18.0601 59.57 27.8501 65.77 29.6801C65.77 29.6801 84.7 15.4601 87.69 10.3701C90.68 5.28009 93.21 2.96009 93.75 2.72009C94.28 2.48009 85.43 3.59009 81.04 5.24009Z" fill="black"/>
<path d="M52.22 4.73012C52.22 4.73012 58.78 29.9401 49.81 32.5701C49.81 32.5701 56.59 37.6501 63.59 30.6201C63.59 30.6201 59 26.8201 63.59 4.73012C63.59 4.73012 58.56 1.67012 52.22 4.73012Z" fill="#686E2B"/>
<path d="M52.22 4.73012C52.22 4.73012 54.19 9.54012 63.6 4.73012C63.59 4.73012 58.56 1.67012 52.22 4.73012Z" fill="#86AF61"/>
<path opacity="0.3" d="M60.11 6.2002L58.96 6.5302C58.96 6.5302 59.62 31.1202 53.55 34.1302C55.51 34.5302 58.08 34.4602 60.82 32.8102C60.54 29.6302 59.96 13.5502 60.11 6.2002Z" fill="black"/>
<path d="M126.88 63.1399C126.88 63.1399 105.75 42.9699 87.14 60.7799C72.58 74.7099 74.47 115.03 97.8 128.26C114.89 137.96 111.56 124.77 124.36 125.92C137.16 127.06 133.62 129.82 143.13 131C160.58 133.16 188.7 93.6099 173.16 68.2999C160.74 48.0699 141.35 46.4299 126.88 63.1399Z" fill="#D1B182"/>
<path d="M148.52 53.27C141.27 53.27 134.18 57.03 128.03 64.14L126.99 65.34L125.84 64.25C125.74 64.16 115.94 54.96 104.27 54.96C98.4 54.96 92.99 57.29 88.19 61.89C81.41 68.38 78.13 81.4 79.82 95.06C81.63 109.61 88.45 121.23 98.54 126.96C102.56 129.24 105.63 130.34 107.94 130.34C110.2 130.34 111.58 129.29 113.32 127.97C115.44 126.36 118.08 124.35 122.81 124.35C123.35 124.35 123.91 124.38 124.48 124.43C131.79 125.08 134.03 126.26 136.2 127.4C137.85 128.27 139.27 129.01 143.3 129.51C143.69 129.56 144.1 129.58 144.51 129.58C152.32 129.58 162.55 121.06 169.38 108.86C177.4 94.52 178.33 79.66 171.85 69.1C165.6 58.89 157.31 53.27 148.52 53.27Z" fill="#F4EAC3"/>
<path d="M148.52 57.8101C142.63 57.8101 136.73 61.0201 131.47 67.1101L127.32 71.8701L122.72 67.5401C122.63 67.4601 114.06 59.5001 104.28 59.5001C99.56 59.5001 95.32 61.3501 91.34 65.1601C85.65 70.6001 82.84 82.3901 84.34 94.4801C85.95 107.39 92.1 118.05 100.8 122.98C105.08 125.41 107.13 125.77 107.96 125.77C108.58 125.77 108.95 125.57 110.58 124.33C112.96 122.52 116.56 119.78 122.82 119.78C123.49 119.78 124.19 119.81 124.9 119.88C132.51 120.56 135.37 121.8 138.33 123.36C139.73 124.1 140.66 124.59 143.87 124.98C144.08 125.01 144.3 125.02 144.53 125.02C149.67 125.02 158.74 118.57 165.43 106.62C172.64 93.7401 173.6 80.6001 167.99 71.4701C162.58 62.6601 155.67 57.8101 148.52 57.8101Z" fill="#FFF6D2"/>
<path opacity="0.3" d="M125.83 82.79C125.83 82.79 114.54 83.77 114.16 93.33C113.78 102.9 134.16 108.3 137.23 100.38C140.31 92.47 136.62 83.55 125.83 82.79Z" fill="#F4EAC3"/>
<path opacity="0.3" d="M125.56 119.94L126.77 71.3599L124.9 119.88L125.56 119.94Z" fill="#5E1313"/>
<path d="M121.08 89.4497C119.82 89.4497 118.8 91.1897 118.8 93.3397C118.8 95.4897 119.82 97.2297 121.08 97.2297C122.34 97.2297 123.36 95.4897 123.36 93.3397C123.36 91.1897 122.34 89.4497 121.08 89.4497Z" fill="#5E1313"/>
<path d="M131.9 89.4497C130.64 89.4497 129.62 91.1897 129.62 93.3397C129.62 95.4897 130.64 97.2297 131.9 97.2297C133.16 97.2297 134.18 95.4897 134.18 93.3397C134.19 91.1897 133.17 89.4497 131.9 89.4497Z" fill="#5E1313"/>
<path d="M113.66 55.1597C113.66 55.1597 125.12 65.5097 126.49 68.4697C126.49 68.4697 132.21 56.4697 137.24 54.6597C137.24 54.6697 124.36 59.3997 113.66 55.1597Z" fill="#B32C39"/>
<path opacity="0.3" d="M119.8 60.9401C122.76 63.8401 125.82 67.0301 126.49 68.4701C126.49 68.4701 128.46 64.3401 131.1 60.5601C128.37 62.0401 124.52 62.9301 119.8 60.9401Z" fill="#5E1313"/>
<path d="M171.6 14.8498L154.61 40.2298C154.61 40.2298 170.87 38.4098 188.7 57.1298L187.17 50.0798L194.6 51.5298L194.77 51.2998L192.09 46.4498H197.96L196.92 41.1498H202.12L200.61 33.5798L206.39 34.3298C205.05 30.3098 198.16 14.7298 171.6 14.8498Z" fill="white"/>
<mask id="mask0_174_4785" style="mask-type:luminance" maskUnits="userSpaceOnUse" x="154" y="14" width="53" height="44">
<path d="M187.17 50.0799L194.6 51.5299L194.77 51.2999L192.09 46.4499H197.96L196.92 41.1499H202.12L200.61 33.5799L206.39 34.3299C205.05 30.2999 198.15 14.7199 171.59 14.8499L154.6 40.2299C154.6 40.2299 170.86 38.4099 188.69 57.1299L187.17 50.0799Z" fill="white"/>
</mask>
<g mask="url(#mask0_174_4785)">
<path opacity="0.01" d="M165.99 6.85986L159.65 21.6299L153.31 36.3999C153.38 36.4499 154.87 38.8199 159.71 39.4299C164.57 40.0399 169.52 34.9899 173.63 28.8699C175.71 25.7799 177.57 22.4099 179.1 19.3499C180.64 16.2999 181.84 13.5499 182.61 11.7099C179.29 11.0999 175.79 10.3599 172.8 9.53986C169.82 8.72986 167.32 7.81986 165.99 6.85986Z" fill="black"/>
<path opacity="0.01" d="M165.99 6.85986L159.65 21.6299L153.31 36.3999C153.46 36.4999 154.98 38.8299 159.78 39.3899C164.6 39.9599 169.49 34.9599 173.55 28.8899C175.62 25.7899 177.47 22.4099 178.99 19.3499C180.51 16.2799 181.71 13.5299 182.47 11.6899C179.17 11.0799 175.71 10.3499 172.74 9.52986C169.79 8.71986 167.31 7.80986 165.99 6.85986Z" fill="black"/>
<path opacity="0.0118" d="M165.99 6.85986L159.65 21.6299L153.31 36.3999C153.53 36.5499 155.09 38.8299 159.84 39.3599C164.61 39.8899 169.45 34.9299 173.47 28.9199C175.53 25.8199 177.37 22.4199 178.88 19.3499C180.39 16.2699 181.58 13.5099 182.33 11.6599C179.06 11.0499 175.63 10.3299 172.69 9.50986C169.75 8.69986 167.3 7.80986 165.99 6.85986Z" fill="black"/>
<path opacity="0.0157" d="M165.99 6.85986L159.65 21.6299L153.31 36.3999C153.61 36.5899 155.2 38.8299 159.9 39.3199C164.63 39.8099 169.42 34.9099 173.38 28.9399C175.44 25.8299 177.26 22.4299 178.76 19.3399C180.26 16.2499 181.43 13.4799 182.17 11.6299C178.92 11.0199 175.53 10.2999 172.62 9.49986C169.72 8.68986 167.29 7.79986 165.99 6.85986Z" fill="black"/>
<path opacity="0.0196" d="M165.99 6.85986L159.65 21.6299L153.31 36.3999C153.68 36.6399 155.3 38.8399 159.97 39.2899C164.66 39.7399 169.39 34.8799 173.3 28.9699C175.36 25.8599 177.16 22.4399 178.65 19.3399C180.14 16.2399 181.3 13.4599 182.03 11.5999C178.81 10.9999 175.44 10.2799 172.56 9.47986C169.69 8.67986 167.28 7.78986 165.99 6.85986Z" fill="black"/>
<path opacity="0.0235" d="M165.99 6.85986L159.65 21.6299L153.31 36.3999C153.75 36.6899 155.41 38.8399 160.03 39.2499C164.67 39.6599 169.36 34.8499 173.21 28.9899C175.26 25.8799 177.05 22.4399 178.53 19.3299C180 16.2199 181.15 13.4199 181.88 11.5599C178.69 10.9599 175.35 10.2499 172.5 9.44986C169.65 8.65986 167.27 7.77986 165.99 6.85986Z" fill="black"/>
<path opacity="0.0275" d="M165.99 6.85986L159.65 21.6299L153.31 36.3999C153.83 36.7399 155.52 38.8399 160.1 39.2199C164.7 39.5899 169.33 34.8299 173.14 29.0199C175.18 25.8999 176.96 22.4499 178.43 19.3299C179.89 16.2099 181.03 13.3999 181.74 11.5399C178.57 10.9399 175.27 10.2299 172.45 9.43986C169.62 8.64986 167.26 7.77986 165.99 6.85986Z" fill="black"/>
<path opacity="0.0314" d="M165.99 6.85986L159.65 21.6299L153.31 36.3999C153.9 36.7899 155.63 38.8499 160.16 39.1799C164.71 39.5099 169.29 34.7899 173.05 29.0399C175.09 25.9199 176.86 22.4599 178.31 19.3199C179.76 16.1899 180.88 13.3699 181.59 11.4999C178.45 10.8999 175.18 10.1999 172.38 9.40986C169.59 8.63986 167.25 7.76986 165.99 6.85986Z" fill="black"/>
<path opacity="0.0353" d="M165.99 6.85986L159.65 21.6299L153.31 36.3999C153.98 36.8399 155.74 38.8499 160.23 39.1399C164.74 39.4299 169.27 34.7599 172.97 29.0599C175 25.9299 176.76 22.4599 178.2 19.3099C179.64 16.1699 180.75 13.3399 181.45 11.4599C178.34 10.8699 175.1 10.1699 172.33 9.38986C169.55 8.61986 167.24 7.75986 165.99 6.85986Z" fill="black"/>
<path opacity="0.0392" d="M165.99 6.85986L159.65 21.6299L153.31 36.3999C154.05 36.8899 155.84 38.8599 160.29 39.1099C164.76 39.3699 169.23 34.7399 172.88 29.0899C174.91 25.9599 176.65 22.4699 178.08 19.3199C179.51 16.1599 180.6 13.3199 181.29 11.4499C178.2 10.8599 175 10.1599 172.25 9.38986C169.52 8.60986 167.24 7.75986 165.99 6.85986Z" fill="black"/>
<path opacity="0.0431" d="M165.99 6.85986L159.65 21.6299L153.31 36.3999C154.12 36.9399 155.95 38.8599 160.36 39.0699C164.78 39.2899 169.2 34.6999 172.8 29.1099C174.82 25.9699 176.55 22.4699 177.97 19.3099C179.39 16.1399 180.47 13.2899 181.15 11.4099C178.09 10.8199 174.92 10.1299 172.2 9.35986C169.49 8.59986 167.23 7.74986 165.99 6.85986Z" fill="black"/>
<path opacity="0.0471" d="M165.99 6.85986L159.65 21.6299L153.31 36.3999C154.2 36.9799 156.06 38.8599 160.42 39.0399C164.8 39.2199 169.16 34.6799 172.72 29.1399C174.74 25.9999 176.45 22.4899 177.85 19.3099C179.25 16.1299 180.33 13.2699 181 11.3899C177.96 10.7999 174.82 10.1199 172.14 9.34986C169.45 8.57986 167.22 7.73986 165.99 6.85986Z" fill="black"/>
<path opacity="0.051" d="M165.99 6.85986L159.65 21.6299L153.31 36.3999C154.27 37.0299 156.17 38.8699 160.48 38.9999C164.81 39.1399 169.13 34.6499 172.63 29.1599C174.64 26.0099 176.34 22.4899 177.73 19.2999C179.12 16.1099 180.18 13.2399 180.84 11.3499C177.83 10.7699 174.72 10.0799 172.06 9.31986C169.42 8.56986 167.21 7.72986 165.99 6.85986Z" fill="black"/>
<path opacity="0.0549" d="M165.99 6.85986L159.65 21.6299L153.31 36.3999C154.35 37.0799 156.28 38.8699 160.55 38.9699C164.84 39.0699 169.1 34.6199 172.55 29.1899C174.56 26.0399 176.24 22.4999 177.62 19.2999C179 16.0999 180.05 13.2199 180.7 11.3199C177.72 10.7399 174.64 10.0599 172.01 9.30986C169.38 8.54986 167.2 7.72986 165.99 6.85986Z" fill="black"/>
<path opacity="0.0588" d="M165.99 6.85986L159.65 21.6299L153.31 36.3999C154.42 37.1299 156.38 38.8699 160.61 38.9299C164.86 38.9899 169.06 34.5899 172.46 29.2099C174.46 26.0499 176.14 22.4999 177.5 19.2899C178.87 16.0799 179.9 13.1799 180.55 11.2899C177.59 10.7099 174.55 10.0399 171.95 9.28986C169.35 8.53986 167.19 7.71986 165.99 6.85986Z" fill="black"/>
<path opacity="0.0627" d="M165.99 6.85986L159.65 21.6299L153.31 36.3999C154.49 37.1799 156.49 38.8799 160.68 38.8899C164.88 38.9099 169.03 34.5599 172.39 29.2299C174.38 26.0699 176.05 22.5099 177.4 19.2799C178.75 16.0599 179.78 13.1499 180.41 11.2499C177.48 10.6699 174.47 9.99986 171.89 9.25986C169.32 8.52986 167.18 7.70986 165.99 6.85986Z" fill="black"/>
<path opacity="0.0667" d="M165.99 6.85986L159.65 21.6299L153.31 36.3999C154.57 37.2299 156.6 38.8799 160.74 38.8599C164.9 38.8399 168.99 34.5299 172.3 29.2599C174.29 26.0899 175.94 22.5199 177.28 19.2799C178.62 16.0499 179.63 13.1299 180.26 11.2199C177.35 10.6499 174.38 9.97986 171.83 9.23986C169.28 8.50986 167.17 7.70986 165.99 6.85986Z" fill="black"/>
<path opacity="0.0706" d="M165.99 6.85986L159.65 21.6299L153.31 36.3999C154.64 37.2799 156.71 38.8799 160.81 38.8199C164.92 38.7599 168.96 34.4999 172.22 29.2799C174.2 26.0999 175.84 22.5199 177.17 19.2699C178.5 16.0199 179.5 13.0999 180.12 11.1899C177.24 10.6199 174.29 9.95986 171.77 9.22986C169.25 8.49986 167.16 7.69986 165.99 6.85986Z" fill="black"/>
<path opacity="0.0745" d="M165.99 6.85986L159.65 21.6299L153.31 36.3999C154.72 37.3299 156.81 38.8899 160.87 38.7899C164.94 38.6899 168.93 34.4699 172.13 29.3099C174.11 26.1299 175.73 22.5299 177.05 19.2799C178.37 16.0199 179.35 13.0899 179.96 11.1699C177.11 10.5999 174.19 9.93986 171.7 9.21986C169.22 8.48986 167.15 7.68986 165.99 6.85986Z" fill="black"/>
<path opacity="0.0784" d="M165.99 6.85986L159.65 21.6299L153.31 36.3999C154.79 37.3699 156.92 38.8899 160.93 38.7499C164.96 38.6099 168.89 34.4399 172.04 29.3299C174.01 26.1399 175.62 22.5399 176.93 19.2699C178.24 15.9999 179.21 13.0499 179.81 11.1399C176.98 10.5699 174.1 9.91986 171.64 9.19986C169.18 8.46986 167.14 7.68986 165.99 6.85986Z" fill="black"/>
<path opacity="0.0824" d="M165.99 6.85986L159.65 21.6299L153.31 36.3999C154.87 37.4199 157.03 38.8899 161 38.7199C164.98 38.5399 168.86 34.4199 171.97 29.3599C173.93 26.1699 175.53 22.5499 176.83 19.2699C178.13 15.9899 179.09 13.0299 179.67 11.1099C176.87 10.5499 174.02 9.89986 171.58 9.17986C169.15 8.45986 167.13 7.67986 165.99 6.85986Z" fill="black"/>
<path opacity="0.0863" d="M165.99 6.85986L159.65 21.6299L153.31 36.3999C154.94 37.4699 157.14 38.8999 161.06 38.6799C165 38.4599 168.82 34.3799 171.88 29.3799C173.84 26.1799 175.42 22.5499 176.71 19.2599C177.99 15.9699 178.94 12.9999 179.52 11.0699C176.75 10.5099 173.93 9.85986 171.52 9.14986C169.12 8.44986 167.12 7.66986 165.99 6.85986Z" fill="black"/>
<path opacity="0.0902" d="M165.99 6.85986L159.65 21.6299L153.31 36.3999C155.01 37.5199 157.25 38.8999 161.13 38.6399C165.02 38.3899 168.79 34.3499 171.8 29.3999C173.75 26.1999 175.33 22.5499 176.6 19.2499C177.87 15.9499 178.81 12.9699 179.38 11.0399C176.63 10.4799 173.85 9.83986 171.47 9.13986C169.08 8.42986 167.11 7.65986 165.99 6.85986Z" fill="black"/>
<path opacity="0.0941" d="M165.99 6.85986L159.65 21.6299L153.31 36.3999C155.09 37.5699 157.35 38.8999 161.19 38.6099C165.04 38.3199 168.75 34.3199 171.71 29.4299C173.65 26.2199 175.22 22.5599 176.48 19.2499C177.74 15.9399 178.66 12.9499 179.22 11.0099C176.5 10.4499 173.74 9.81986 171.39 9.11986C169.05 8.41986 167.1 7.65986 165.99 6.85986Z" fill="black"/>
<path opacity="0.098" d="M165.99 6.85986L159.65 21.6299L153.31 36.3999C155.16 37.6199 157.46 38.9099 161.26 38.5699C165.07 38.2399 168.72 34.2899 171.64 29.4499C173.58 26.2399 175.13 22.5699 176.38 19.2399C177.63 15.9199 178.54 12.9099 179.09 10.9799C176.39 10.4299 173.67 9.78986 171.35 9.09986C169.02 8.40986 167.09 7.64986 165.99 6.85986Z" fill="black"/>
<path opacity="0.102" d="M165.99 6.85986L159.65 21.6299L153.31 36.3999C155.24 37.6699 157.57 38.9099 161.32 38.5399C165.08 38.1699 168.68 34.2599 171.55 29.4799C173.48 26.2599 175.02 22.5799 176.26 19.2399C177.5 15.8999 178.39 12.8899 178.94 10.9499C176.27 10.3999 173.58 9.76986 171.29 9.07986C168.98 8.38986 167.08 7.63986 165.99 6.85986Z" fill="black"/>
<path opacity="0.1059" d="M165.99 6.85986L159.65 21.6299L153.31 36.3999C155.31 37.7099 157.68 38.9099 161.39 38.4999C165.11 38.0899 168.65 34.2299 171.47 29.4999C173.39 26.2699 174.92 22.5799 176.15 19.2299C177.37 15.8799 178.26 12.8599 178.79 10.9099C176.15 10.3599 173.49 9.73986 171.22 9.04986C168.95 8.37986 167.07 7.63986 165.99 6.85986Z" fill="black"/>
<path opacity="0.1098" d="M165.99 6.85986L159.65 21.6299L153.31 36.3999C155.38 37.7599 157.79 38.9199 161.45 38.4699C165.12 38.0199 168.61 34.1999 171.38 29.5299C173.3 26.2999 174.81 22.5899 176.02 19.2399C177.23 15.8799 178.1 12.8499 178.63 10.8999C176.01 10.3599 173.39 9.72986 171.15 9.05986C168.92 8.36986 167.06 7.62986 165.99 6.85986Z" fill="black"/>
<path opacity="0.1137" d="M165.99 6.85986L159.65 21.6299L153.31 36.3999C155.46 37.8099 157.89 38.9199 161.51 38.4299C165.14 37.9399 168.57 34.1699 171.29 29.5499C173.2 26.3099 174.7 22.5999 175.9 19.2299C177.1 15.8599 177.96 12.8199 178.48 10.8599C175.89 10.3199 173.29 9.69986 171.08 9.02986C168.88 8.34986 167.05 7.61986 165.99 6.85986Z" fill="black"/>
<path opacity="0.1176" d="M165.99 6.85986L159.65 21.6299L153.31 36.3999C155.53 37.8599 158 38.9299 161.58 38.3899C165.17 37.8599 168.54 34.1299 171.22 29.5699C173.12 26.3299 174.62 22.5999 175.8 19.2199C176.99 15.8399 177.84 12.7799 178.34 10.8199C175.78 10.2799 173.21 9.66986 171.03 8.99986C168.85 8.33986 167.04 7.61986 165.99 6.85986Z" fill="black"/>
<path opacity="0.1216" d="M165.99 6.85986L159.65 21.6299L153.31 36.3999C155.61 37.9099 158.11 38.9299 161.64 38.3599C165.18 37.7899 168.5 34.1099 171.13 29.5999C173.03 26.3499 174.51 22.6099 175.68 19.2199C176.86 15.8299 177.69 12.7599 178.19 10.7999C175.65 10.2599 173.12 9.64986 170.97 8.98986C168.82 8.32986 167.03 7.60986 165.99 6.85986Z" fill="black"/>
<path opacity="0.1255" d="M165.99 6.85986L159.65 21.6299L153.31 36.3999C155.68 37.9599 158.22 38.9299 161.71 38.3199C165.21 37.7099 168.47 34.0699 171.05 29.6199C172.94 26.3599 174.41 22.6099 175.57 19.2099C176.73 15.8099 177.56 12.7299 178.05 10.7599C175.54 10.2299 173.04 9.61986 170.91 8.96986C168.78 8.30986 167.02 7.59986 165.99 6.85986Z" fill="black"/>
<path opacity="0.1294" d="M165.99 6.85986L159.65 21.6299L153.31 36.3999C155.75 38.0099 158.32 38.9399 161.77 38.2899C165.23 37.6399 168.43 34.0499 170.96 29.6499C172.84 26.3899 174.3 22.6299 175.45 19.2099C176.6 15.7899 177.41 12.7099 177.89 10.7399C175.4 10.2099 172.94 9.60986 170.84 8.95986C168.75 8.29986 167.01 7.58986 165.99 6.85986Z" fill="black"/>
<path opacity="0.1333" d="M165.99 6.85986L159.65 21.6299L153.31 36.3999C155.83 38.0599 158.43 38.9399 161.84 38.2499C165.25 37.5599 168.4 34.0099 170.89 29.6699C172.76 26.3999 174.21 22.6299 175.35 19.1999C176.49 15.7699 177.29 12.6799 177.76 10.6999C175.3 10.1699 172.87 9.56986 170.8 8.92986C168.72 8.28986 167 7.58986 165.99 6.85986Z" fill="black"/>
<path opacity="0.1373" d="M165.99 6.85986L159.65 21.6299L153.31 36.3999C155.9 38.0999 158.54 38.9399 161.9 38.2199C165.27 37.4899 168.36 33.9899 170.8 29.6999C172.67 26.4299 174.1 22.6399 175.23 19.1999C176.36 15.7599 177.14 12.6499 177.61 10.6699C175.18 10.1399 172.78 9.54986 170.73 8.90986C168.68 8.26986 166.99 7.57986 165.99 6.85986Z" fill="black"/>
<path opacity="0.1412" d="M165.99 6.85986L159.65 21.6299L153.31 36.3999C155.98 38.1499 158.65 38.9499 161.97 38.1799C165.29 37.4099 168.32 33.9499 170.72 29.7199C172.58 26.4399 174 22.6399 175.12 19.1899C176.24 15.7399 177.01 12.6199 177.46 10.6399C175.05 10.1199 172.68 9.52986 170.67 8.88986C168.65 8.25986 166.98 7.56986 165.99 6.85986Z" fill="black"/>
<path opacity="0.1451" d="M165.99 6.85986L159.65 21.6299L153.31 36.3999C156.05 38.1999 158.76 38.9499 162.03 38.1499C165.31 37.3499 168.28 33.9199 170.63 29.7499C172.48 26.4599 173.89 22.6599 175 19.1999C176.1 15.7399 176.86 12.6099 177.31 10.6199C174.93 10.0999 172.59 9.50986 170.61 8.88986C168.62 8.24986 166.97 7.56986 165.99 6.85986Z" fill="black"/>
<path opacity="0.149" d="M165.99 6.85986L159.65 21.6299L153.31 36.3999C156.12 38.2499 158.86 38.9499 162.09 38.1099C165.33 37.2699 168.24 33.8899 170.54 29.7699C172.38 26.4799 173.79 22.6599 174.88 19.1899C175.97 15.7199 176.72 12.5799 177.16 10.5799C174.81 10.0599 172.5 9.47986 170.54 8.85986C168.58 8.22986 166.96 7.55986 165.99 6.85986Z" fill="black"/>
<path opacity="0.1529" d="M165.99 6.85986L159.65 21.6299L153.31 36.3999C156.2 38.2999 158.97 38.9599 162.16 38.0699C165.35 37.1899 168.21 33.8499 170.47 29.7899C172.3 26.4899 173.7 22.6599 174.78 19.1799C175.86 15.6999 176.6 12.5399 177.02 10.5499C174.69 10.0299 172.42 9.45986 170.49 8.83986C168.55 8.21986 166.95 7.54986 165.99 6.85986Z" fill="black"/>
<path opacity="0.1569" d="M165.99 6.85986L159.65 21.6299L153.31 36.3999C156.27 38.3499 159.08 38.9599 162.22 38.0399C165.37 37.1199 168.17 33.8299 170.38 29.8199C172.21 26.5099 173.59 22.6699 174.66 19.1799C175.73 15.6899 176.45 12.5199 176.87 10.5199C174.57 10.0099 172.33 9.43986 170.42 8.81986C168.52 8.19986 166.94 7.53986 165.99 6.85986Z" fill="black"/>
<path opacity="0.1608" d="M165.99 6.85986L159.65 21.6299L153.31 36.3999C156.35 38.3999 159.19 38.9599 162.29 37.9999C165.39 37.0399 168.13 33.7899 170.3 29.8399C172.12 26.5299 173.49 22.6799 174.55 19.1699C175.61 15.6699 176.32 12.4899 176.73 10.4899C174.45 9.97986 172.25 9.40986 170.37 8.79986C168.48 8.18986 166.93 7.53986 165.99 6.85986Z" fill="black"/>
<path opacity="0.1647" d="M165.99 6.85986L159.65 21.6299L153.31 36.3999C156.42 38.4499 159.3 38.9699 162.35 37.9699C165.41 36.9699 168.09 33.7599 170.21 29.8699C172.02 26.5499 173.38 22.6899 174.43 19.1699C175.47 15.6499 176.17 12.4699 176.57 10.4599C174.32 9.94986 172.14 9.38986 170.3 8.78986C168.45 8.17986 166.92 7.52986 165.99 6.85986Z" fill="black"/>
<path opacity="0.1686" d="M165.99 6.85986L159.65 21.6299L153.31 36.3999C156.49 38.4899 159.4 38.9699 162.42 37.9299C165.44 36.8899 168.06 33.7299 170.14 29.8899C171.94 26.5599 173.29 22.6899 174.33 19.1599C175.36 15.6299 176.05 12.4399 176.44 10.4199C174.22 9.90986 172.07 9.35986 170.25 8.75986C168.41 8.15986 166.91 7.51986 165.99 6.85986Z" fill="black"/>
<path opacity="0.1725" d="M165.99 6.85986L159.65 21.6299L153.31 36.3999C156.57 38.5399 159.51 38.9699 162.48 37.8999C165.45 36.8199 168.02 33.6999 170.05 29.9199C171.84 26.5899 173.18 22.6999 174.2 19.1599C175.22 15.6199 175.89 12.4099 176.28 10.3999C174.08 9.89986 171.97 9.33986 170.18 8.74986C168.38 8.14986 166.9 7.51986 165.99 6.85986Z" fill="black"/>
<path opacity="0.1765" d="M165.99 6.85986L159.65 21.6299L153.31 36.3999C156.64 38.5899 159.62 38.9799 162.54 37.8599C165.47 36.7399 167.97 33.6699 169.96 29.9399C171.74 26.5999 173.08 22.7099 174.08 19.1499C175.09 15.5999 175.75 12.3799 176.12 10.3599C173.95 9.85986 171.87 9.30986 170.11 8.71986C168.35 8.13986 166.89 7.50986 165.99 6.85986Z" fill="black"/>
<path opacity="0.1804" d="M165.99 6.85986L159.65 21.6299L153.31 36.3999C156.72 38.6399 159.73 38.9799 162.61 37.8199C165.49 36.6599 167.94 33.6299 169.88 29.9599C171.65 26.6099 172.98 22.7099 173.97 19.1499C174.97 15.5899 175.61 12.3599 175.98 10.3399C173.83 9.83986 171.79 9.29986 170.05 8.71986C168.31 8.11986 166.89 7.49986 165.99 6.85986Z" fill="black"/>
<path opacity="0.1843" d="M165.99 6.85986L159.65 21.6299L153.31 36.3999C156.79 38.6899 159.83 38.9799 162.67 37.7899C165.51 36.5899 167.9 33.5999 169.79 29.9899C171.55 26.6299 172.87 22.7199 173.85 19.1499C174.83 15.5799 175.47 12.3399 175.83 10.3099C173.71 9.80986 171.7 9.26986 169.99 8.69986C168.28 8.10986 166.88 7.49986 165.99 6.85986Z" fill="black"/>
<path opacity="0.1882" d="M165.99 6.85986L159.65 21.6299L153.31 36.3999C156.86 38.7399 159.94 38.9899 162.74 37.7499C165.54 36.5099 167.87 33.5699 169.72 30.0099C171.47 26.6499 172.78 22.7199 173.75 19.1399C174.72 15.5599 175.35 12.3099 175.69 10.2699C173.6 9.77986 171.61 9.23986 169.94 8.66986C168.25 8.09986 166.87 7.48986 165.99 6.85986Z" fill="black"/>
<path opacity="0.1922" d="M165.99 6.85986L159.65 21.6299L153.31 36.3999C156.94 38.7899 160.05 38.9899 162.8 37.7199C165.55 36.4499 167.82 33.5399 169.63 30.0399C171.37 26.6699 172.67 22.7299 173.63 19.1399C174.59 15.5399 175.2 12.2799 175.54 10.2499C173.47 9.75986 171.52 9.22986 169.87 8.65986C168.21 8.07986 166.86 7.47986 165.99 6.85986Z" fill="black"/>
<path opacity="0.1961" d="M165.99 6.85986L159.65 21.6299L153.31 36.3999C157.01 38.8399 160.16 38.9999 162.87 37.6799C165.58 36.3699 167.78 33.4999 169.55 30.0599C171.28 26.6799 172.57 22.7399 173.52 19.1299C174.47 15.5199 175.07 12.2499 175.39 10.2099C173.35 9.71986 171.43 9.18986 169.81 8.62986C168.18 8.06986 166.85 7.46986 165.99 6.85986Z" fill="black"/>
<path opacity="0.2" d="M153.32 36.3999C157.1 38.8799 160.28 38.9999 162.94 37.6499C165.6 36.2999 167.75 33.4799 169.47 30.0899C171.19 26.6999 172.47 22.7499 173.41 19.1299C174.35 15.5099 174.93 12.2299 175.25 10.1799C171.2 9.19986 167.67 8.06986 165.99 6.85986L159.65 21.6299L153.32 36.3999Z" fill="black"/>
</g>
<path d="M187.17 49.1699L187.38 50.1199L194.6 51.5299L194.77 51.2999L194.37 50.5699L187.17 49.1699Z" fill="#D0D2D3"/>
<path d="M155.24 39.29L154.61 40.24C154.61 40.24 170.87 38.42 188.7 57.14L188.45 55.97C172.77 39.67 158.37 39.18 155.24 39.29Z" fill="#D0D2D3"/>
<path d="M196.92 40.2397L197.1 41.1497H202.12L201.94 40.2397H196.92Z" fill="#D0D2D3"/>
<path d="M200.61 32.6699L200.8 33.5999L206.4 34.3299C206.31 34.0599 206.19 33.7399 206.05 33.3699L200.61 32.6699Z" fill="#D0D2D3"/>
<path d="M192.09 45.54L192.59 46.45H197.96L197.78 45.54H192.09Z" fill="#D0D2D3"/>
<path d="M151.17 31.89L154.61 40.23C160.93 39.2 166.21 35.62 166.21 35.62C161.4 31.19 151.17 31.89 151.17 31.89Z" fill="#929497"/>
<path opacity="0.2" d="M112.5 32.46L109.94 32.23L97.03 46.09C97.03 46.09 111.7 41.71 118.83 45.47C117.85 41.21 116.03 37.11 113.17 33.31C112.95 33.02 112.73 32.74 112.5 32.46Z" fill="black"/>
<path d="M96.57 28.7399L97.03 46.0899C97.03 46.0899 134.61 22.3699 166.2 35.6299L173.98 7.82988C173.98 7.81988 142.82 -19.0601 96.57 28.7399Z" fill="white"/>
<path d="M96.57 28.7399L97.03 46.0899C97.03 46.0899 134.61 22.3699 166.2 35.6299L173.98 7.82988C173.98 7.81988 142.82 -19.0601 96.57 28.7399Z" fill="white"/>
<path d="M97 44.8699L97.03 46.0899C97.03 46.0899 134.61 22.3699 166.2 35.6299L166.64 34.0499C137.39 22.9399 103.23 41.2799 97 44.8699Z" fill="#D0D2D3"/>
<path d="M104.24 26.9799C104.02 27.1899 103.82 27.3999 103.62 27.6099C103.4 27.8499 103.18 28.0799 102.98 28.3199C102.78 28.5499 102.59 28.7699 102.42 28.9799C102.25 32.4899 102.05 35.9999 101.75 39.5099C101.9 39.3899 102.07 39.2599 102.26 39.1199C102.44 38.9699 102.63 38.8199 102.82 38.6699C103 38.5299 103.17 38.3799 103.34 38.2399C103.51 38.0899 103.68 37.9499 103.85 37.7999C103.88 36.9499 103.9 36.5199 103.92 35.6099C106.16 33.7099 107.33 32.8299 109.74 31.2099C110.57 31.6899 110.99 31.9499 111.82 32.5099C112.01 32.4299 112.2 32.3299 112.41 32.2299C112.62 32.1299 112.82 32.0299 113.01 31.9199C113.22 31.8099 113.44 31.6899 113.66 31.5699C113.88 31.4399 114.08 31.3299 114.25 31.2199C111.42 29.0999 108.27 27.3999 104.88 26.3799C104.67 26.5699 104.45 26.7699 104.24 26.9799ZM103.98 34.3499C104.04 32.2599 104.06 31.1299 104.13 28.7299C105.91 29.2799 106.82 29.6499 108.64 30.6099C106.71 32.0099 105.78 32.7499 103.98 34.3499Z" fill="#A80524"/>
<path d="M125.26 19.1099C124.85 18.5899 124.37 18.2299 123.8 18.0499C123.23 17.8599 122.59 17.8399 121.88 17.9899C121.17 18.1299 120.43 18.4099 119.67 18.8199C119.16 19.0899 118.72 19.3899 118.33 19.6999C117.94 20.0099 117.61 20.3199 117.33 20.6399C117.05 20.9599 116.82 21.2599 116.65 21.5599C116.47 21.8499 116.25 22.3899 116.23 22.3899C116.23 22.3899 116.18 22.2899 116.12 22.1899C116.06 22.0899 115.99 21.9899 115.92 21.8799C115.85 21.7699 115.79 21.6699 115.72 21.5799C115.66 21.4899 115.61 21.4299 115.59 21.4299C115.48 21.4299 115.24 21.5999 115.06 21.7099C114.88 21.8099 114.71 21.9199 114.55 22.0199C114.37 22.1399 114.2 22.2499 114.04 22.3799C113.88 22.4999 113.72 22.6299 113.57 22.7499C114.97 26.3599 116.37 29.9799 117.77 33.5899C117.94 33.5499 118.13 33.4999 118.34 33.4399C118.55 33.3799 118.74 33.3299 118.9 33.2699C119.07 33.2199 119.25 33.1499 119.45 33.0799C119.65 33.0099 119.84 32.9299 120.01 32.8599C119.5 31.3999 119.25 30.6699 118.74 29.1999C119.02 29.1399 119.35 29.0599 119.72 28.9599C120.09 28.8499 120.45 28.7399 120.79 28.6199C122.85 27.8799 124.34 26.9899 125.27 25.7099C126.2 24.4299 126.51 22.9099 126.14 21.1899C125.96 20.3299 125.66 19.6299 125.26 19.1099ZM123.64 23.9199C123.55 24.4399 123.37 24.8999 123.1 25.3099C122.83 25.7199 122.47 26.0799 122.03 26.3799C121.59 26.6899 121.08 26.9499 120.51 27.1699C120 27.3699 119.59 27.5199 119.26 27.6199C118.93 27.7199 118.61 27.7999 118.29 27.8599C117.84 26.5699 117.61 25.9199 117.16 24.6199C117.02 24.2299 116.99 23.8399 117.07 23.4499C117.15 23.0699 117.3 22.6899 117.53 22.3399C117.76 21.9899 118.05 21.6499 118.4 21.3499C118.75 21.0499 119.13 20.7799 119.55 20.5699C120.67 19.9899 121.56 19.8699 122.21 20.2099C122.86 20.5499 123.3 21.2299 123.55 22.2099C123.7 22.8399 123.73 23.4099 123.64 23.9199Z" fill="#A80524"/>
<path d="M139.82 13.1796C139.28 12.7496 138.63 12.4896 137.89 12.4096C137.15 12.3296 136.35 12.3996 135.51 12.6096C134.95 12.7496 134.44 12.9496 134 13.1796C133.56 13.4096 133.17 13.6796 132.83 13.9596C132.49 14.2396 132.21 14.5396 131.99 14.8296C131.76 15.1296 131.45 15.7096 131.43 15.7096C131.43 15.7096 131.4 15.5696 131.35 15.4196C131.3 15.2696 131.25 15.1096 131.2 14.9396C131.15 14.7696 131.1 14.6196 131.05 14.4796C131 14.3396 130.96 14.2396 130.94 14.2296C130.85 14.1996 130.56 14.2996 130.36 14.3596C130.16 14.4096 129.96 14.4696 129.78 14.5396C129.58 14.6096 129.39 14.6896 129.2 14.7696C129.01 14.8496 128.83 14.9396 128.66 15.0296C129.56 20.2396 130.46 25.4496 131.36 30.6496C131.54 30.6596 131.73 30.6696 131.94 30.6596C132.15 30.6596 132.34 30.6496 132.51 30.6396C132.68 30.6296 132.87 30.6096 133.08 30.5796C133.29 30.5496 133.48 30.5196 133.66 30.4796C133.37 28.4196 133.23 27.3896 132.94 25.3396C133.23 25.3696 133.56 25.3896 133.95 25.3796C134.33 25.3796 134.7 25.3596 135.06 25.3196C137.21 25.0896 138.82 24.4496 139.96 23.1596C141.1 21.8696 141.68 20.0796 141.62 17.8496C141.59 16.7296 141.42 15.7696 141.11 14.9996C140.79 14.2196 140.36 13.6096 139.82 13.1796ZM138.63 20.4196C138.45 21.0396 138.19 21.5496 137.85 21.9696C137.51 22.3896 137.1 22.7196 136.61 22.9496C136.12 23.1896 135.58 23.3396 134.97 23.4196C134.43 23.4896 134 23.5296 133.66 23.5396C133.32 23.5496 132.99 23.5296 132.65 23.4796C132.39 21.6596 132.27 20.7496 132.01 18.9296C131.93 18.3796 131.96 17.8696 132.1 17.4196C132.24 16.9696 132.45 16.5596 132.74 16.1996C133.03 15.8496 133.38 15.5396 133.78 15.2996C134.18 15.0496 134.61 14.8796 135.07 14.7596C136.3 14.4596 137.22 14.6496 137.82 15.2996C138.41 15.9596 138.74 16.9496 138.82 18.2596C138.88 19.0796 138.81 19.7996 138.63 20.4196Z" fill="#A80524"/>
<path d="M149.68 23.1398C149.48 23.1398 149.31 23.1298 149.16 23.1098C148.94 23.0898 148.73 23.0498 148.54 22.9798C148.35 22.9198 148.18 22.7998 148.05 22.6298C147.91 22.4598 147.81 22.2298 147.74 21.9298C147.67 21.6298 147.64 21.2198 147.66 20.7098C147.88 15.4098 148.11 10.0998 148.33 4.79982C148.1 4.78982 147.85 4.79982 147.57 4.81982C147.29 4.83982 147.04 4.86982 146.81 4.89982C146.58 4.92982 146.33 4.97982 146.05 5.04982C145.77 5.10982 145.52 5.17982 145.29 5.24982C145.22 10.5798 145.16 15.9098 145.09 21.2398C145.08 21.9498 145.17 22.5498 145.35 23.0398C145.53 23.5298 145.77 23.9298 146.08 24.2298C146.39 24.5398 146.75 24.7798 147.15 24.9398C147.56 25.1098 148 25.2198 148.47 25.2798C148.75 25.3098 149.05 25.3398 149.38 25.3498C149.71 25.3698 150.16 25.3598 150.23 25.2798C150.42 25.0498 150.33 23.1998 150.17 23.0898C150.15 23.0898 149.87 23.1398 149.68 23.1398Z" fill="#A80524"/>
<path d="M164.64 13.4498C164.26 12.6798 163.71 12.0498 163 11.5598C162.28 11.0698 161.39 10.7698 160.33 10.6698C159.09 10.5498 157.99 10.6998 157.03 11.0798C156.07 11.4598 155.27 11.9998 154.61 12.6998C153.95 13.3898 153.44 14.2098 153.08 15.1598C152.71 16.1098 152.49 17.1298 152.38 18.2298C152.27 19.3498 152.31 20.3898 152.48 21.3598C152.65 22.3298 152.97 23.2098 153.43 23.9998C153.89 24.7898 154.51 25.4698 155.27 26.0598C156.03 26.6398 156.96 27.0898 158.08 27.4198C158.85 27.6498 159.56 27.7998 160.21 27.8598C160.87 27.9198 161.9 27.9798 162.09 27.7898C162.22 27.6498 162.23 26.8598 162.25 26.3698C162.27 25.8798 162.28 25.1598 162.19 25.0898C161.96 24.9298 159.85 25.2198 158.67 24.9098C157.33 24.5598 156.37 23.9298 155.78 23.0098C155.19 22.0898 154.96 20.8098 155.14 19.1298C158.88 19.6198 160.75 19.9998 164.44 21.0398C164.51 20.8098 164.6 20.5298 164.7 20.1998C164.8 19.8698 164.88 19.5498 164.95 19.2498C165.21 18.1498 165.33 17.0898 165.28 16.0998C165.23 15.1098 165.02 14.2198 164.64 13.4498ZM162.4 18.0398C159.63 17.4498 158.23 17.2298 155.44 16.9298C155.73 15.6298 156.24 14.6398 156.96 13.9498C157.68 13.2598 158.65 12.9598 159.83 13.0998C160.43 13.1698 160.93 13.3598 161.32 13.6598C161.71 13.9598 162 14.3398 162.2 14.7798C162.4 15.2298 162.51 15.7298 162.54 16.2998C162.57 16.8698 162.52 17.4498 162.4 18.0398Z" fill="#A80524"/>
<path d="M104.04 26.2597C103.82 26.4697 103.62 26.6897 103.42 26.8897C103.2 27.1297 102.98 27.3597 102.78 27.5997C102.58 27.8297 102.39 28.0497 102.22 28.2597C102.05 31.7697 101.85 35.2797 101.55 38.7897C101.7 38.6697 101.87 38.5397 102.06 38.3997C102.24 38.2497 102.43 38.0997 102.62 37.9497C102.8 37.8097 102.97 37.6597 103.14 37.5197C103.31 37.3697 103.48 37.2297 103.65 37.0797C103.68 36.2297 103.7 35.7997 103.72 34.8897C105.96 32.9897 107.13 32.1097 109.54 30.4897C110.37 30.9697 110.79 31.2297 111.62 31.7897C111.81 31.7097 112 31.6097 112.21 31.5097C112.41 31.4097 112.61 31.3097 112.81 31.1997C113.02 31.0897 113.24 30.9697 113.46 30.8497C113.68 30.7297 113.88 30.6097 114.05 30.4997C111.23 28.3797 108.07 26.6797 104.68 25.6597C104.47 25.8397 104.26 26.0497 104.04 26.2597ZM103.78 33.6197C103.84 31.5297 103.86 30.3997 103.93 27.9997C105.71 28.5497 106.61 28.9197 108.44 29.8797C106.51 31.2797 105.58 32.0297 103.78 33.6197Z" fill="#E8344E"/>
<path d="M125.06 18.3897C124.65 17.8697 124.17 17.5097 123.6 17.3297C123.03 17.1397 122.39 17.1197 121.68 17.2697C120.97 17.4097 120.23 17.6897 119.47 18.1097C118.96 18.3797 118.52 18.6797 118.13 18.9897C117.74 19.2997 117.41 19.6097 117.13 19.9297C116.85 20.2497 116.62 20.5497 116.45 20.8497C116.27 21.1397 116.05 21.6797 116.03 21.6797C116.03 21.6797 115.98 21.5797 115.92 21.4797C115.86 21.3797 115.79 21.2797 115.72 21.1697C115.65 21.0597 115.59 20.9597 115.52 20.8697C115.46 20.7797 115.41 20.7197 115.39 20.7197C115.28 20.7197 115.04 20.8897 114.86 20.9997C114.68 21.0997 114.51 21.2097 114.35 21.3097C114.17 21.4297 114 21.5397 113.84 21.6697C113.67 21.7897 113.52 21.9197 113.37 22.0397C114.77 25.6497 116.17 29.2697 117.57 32.8797C117.74 32.8397 117.93 32.7897 118.14 32.7297C118.35 32.6697 118.53 32.6197 118.7 32.5597C118.87 32.5097 119.05 32.4397 119.25 32.3697C119.45 32.2997 119.64 32.2197 119.81 32.1497C119.3 30.6897 119.05 29.9597 118.54 28.4897C118.82 28.4297 119.15 28.3497 119.52 28.2497C119.89 28.1497 120.25 28.0297 120.59 27.9097C122.65 27.1697 124.14 26.2797 125.07 24.9997C126 23.7197 126.31 22.1997 125.94 20.4797C125.76 19.6097 125.47 18.9097 125.06 18.3897ZM123.44 23.1997C123.35 23.7197 123.17 24.1797 122.9 24.5897C122.63 24.9997 122.27 25.3597 121.83 25.6597C121.39 25.9697 120.88 26.2297 120.31 26.4497C119.8 26.6497 119.39 26.7997 119.06 26.8997C118.73 26.9997 118.41 27.0797 118.09 27.1397C117.64 25.8497 117.41 25.1997 116.96 23.8997C116.82 23.5097 116.79 23.1197 116.87 22.7297C116.95 22.3397 117.1 21.9697 117.33 21.6197C117.56 21.2597 117.85 20.9297 118.2 20.6297C118.55 20.3297 118.93 20.0597 119.35 19.8497C120.47 19.2697 121.37 19.1497 122.01 19.4897C122.66 19.8297 123.1 20.5097 123.35 21.4897C123.5 22.1197 123.53 22.6797 123.44 23.1997Z" fill="#E8344E"/>
<path d="M139.62 12.4599C139.08 12.0299 138.43 11.7699 137.69 11.6899C136.95 11.6099 136.15 11.6799 135.31 11.8899C134.75 12.0399 134.24 12.2299 133.8 12.4599C133.36 12.6899 132.97 12.9599 132.63 13.2399C132.29 13.5199 132.01 13.8199 131.79 14.1099C131.56 14.4099 131.25 14.9899 131.23 14.9899C131.23 14.9899 131.2 14.8499 131.15 14.6999C131.1 14.5499 131.05 14.3899 131 14.2199C130.95 14.0499 130.9 13.8999 130.85 13.7599C130.8 13.6199 130.76 13.5199 130.74 13.5099C130.65 13.4799 130.36 13.5799 130.16 13.6399C129.96 13.6899 129.77 13.7499 129.58 13.8199C129.38 13.8899 129.19 13.9699 129 14.0499C128.81 14.1299 128.63 14.2199 128.46 14.3099C129.36 19.5199 130.26 24.7299 131.16 29.9399C131.34 29.9499 131.53 29.9599 131.74 29.9499C131.95 29.9499 132.14 29.9399 132.31 29.9299C132.48 29.9199 132.67 29.8999 132.88 29.8699C133.09 29.8399 133.28 29.8099 133.46 29.7699C133.17 27.7099 133.03 26.6799 132.74 24.6299C133.03 24.6599 133.36 24.6799 133.75 24.6699C134.13 24.6699 134.5 24.6499 134.86 24.6099C137.01 24.3799 138.62 23.7399 139.76 22.4499C140.9 21.1599 141.48 19.3699 141.42 17.1399C141.39 16.0199 141.22 15.0599 140.91 14.2899C140.59 13.4999 140.16 12.8899 139.62 12.4599ZM138.44 19.6999C138.26 20.3199 138 20.8299 137.66 21.2499C137.32 21.6699 136.91 21.9999 136.42 22.2299C135.93 22.4599 135.39 22.6199 134.78 22.6999C134.24 22.7699 133.81 22.8099 133.47 22.8199C133.13 22.8299 132.8 22.8099 132.46 22.7599C132.2 20.9399 132.08 20.0299 131.82 18.2099C131.74 17.6599 131.77 17.1499 131.91 16.6999C132.05 16.2399 132.26 15.8399 132.55 15.4799C132.84 15.1199 133.19 14.8199 133.59 14.5799C133.99 14.3399 134.42 14.1599 134.88 14.0399C136.11 13.7399 137.03 13.9299 137.63 14.5799C138.22 15.2399 138.55 16.2299 138.63 17.5399C138.68 18.3599 138.62 19.0799 138.44 19.6999Z" fill="#E8344E"/>
<path d="M149.48 22.4199C149.29 22.4199 149.11 22.4099 148.96 22.3999C148.74 22.3799 148.53 22.3399 148.34 22.2699C148.15 22.2099 147.98 22.0899 147.85 21.9199C147.71 21.7499 147.61 21.5199 147.54 21.2199C147.47 20.9199 147.44 20.5199 147.46 19.9999C147.68 14.6999 147.91 9.38986 148.13 4.08986C147.9 4.07986 147.65 4.08986 147.37 4.10986C147.09 4.12986 146.84 4.15986 146.61 4.18986C146.38 4.21986 146.13 4.26986 145.85 4.33986C145.57 4.39986 145.32 4.46986 145.09 4.53986C145.02 9.86986 144.96 15.1999 144.89 20.5299C144.88 21.2399 144.97 21.8399 145.15 22.3299C145.33 22.8199 145.57 23.2199 145.88 23.5199C146.19 23.8299 146.55 24.0699 146.95 24.2299C147.36 24.3999 147.8 24.5099 148.27 24.5699C148.55 24.5999 148.85 24.6299 149.18 24.6399C149.51 24.6599 149.96 24.6499 150.03 24.5699C150.23 24.3399 150.13 22.4899 149.97 22.3799C149.95 22.3699 149.67 22.4199 149.48 22.4199Z" fill="#E8344E"/>
<path d="M164.45 12.7296C164.07 11.9596 163.52 11.3296 162.81 10.8396C162.09 10.3496 161.2 10.0496 160.14 9.94963C158.9 9.82963 157.8 9.97963 156.84 10.3596C155.88 10.7396 155.08 11.2796 154.42 11.9796C153.76 12.6696 153.25 13.4896 152.89 14.4396C152.52 15.3896 152.3 16.4096 152.19 17.5096C152.08 18.6296 152.12 19.6696 152.29 20.6396C152.46 21.6096 152.78 22.4896 153.24 23.2796C153.7 24.0696 154.32 24.7496 155.08 25.3396C155.84 25.9196 156.77 26.3696 157.89 26.6996C158.66 26.9296 159.37 27.0796 160.03 27.1396C160.69 27.1996 161.72 27.2596 161.91 27.0696C162.05 26.9296 162.05 26.1396 162.07 25.6496C162.09 25.1596 162.1 24.4396 162.01 24.3696C161.78 24.2096 159.67 24.4996 158.49 24.1796C157.15 23.8296 156.19 23.1996 155.6 22.2796C155.01 21.3596 154.78 20.0796 154.96 18.3996C158.7 18.8896 160.57 19.2696 164.26 20.3096C164.33 20.0796 164.42 19.7996 164.52 19.4696C164.62 19.1396 164.7 18.8196 164.77 18.5196C165.03 17.4196 165.15 16.3596 165.1 15.3696C165.03 14.3896 164.82 13.4996 164.45 12.7296ZM162.2 17.3196C159.43 16.7296 158.03 16.5096 155.24 16.2096C155.54 14.9096 156.04 13.9196 156.76 13.2296C157.48 12.5396 158.45 12.2396 159.63 12.3796C160.23 12.4496 160.73 12.6396 161.12 12.9396C161.51 13.2396 161.8 13.6196 162 14.0596C162.2 14.5096 162.31 15.0096 162.34 15.5796C162.37 16.1496 162.33 16.7296 162.2 17.3196Z" fill="#E8344E"/>
</svg>
