<svg width="195" height="155" viewBox="0 0 195 155" fill="none" xmlns="http://www.w3.org/2000/svg">
<path d="M148.04 18.33L158.44 32.72C162.1 23.71 186.01 15.88 186.01 15.88L187.81 3.46L172.71 0C158.91 3.05 148.04 18.33 148.04 18.33Z" fill="white"/>
<mask id="mask0_174_5222" style="mask-type:luminance" maskUnits="userSpaceOnUse" x="148" y="0" width="40" height="33">
<path d="M148.04 18.33C148.04 18.33 158.91 3.05 172.71 0L187.81 3.47L186.01 15.89C186.01 15.89 162.1 23.71 158.44 32.73L148.04 18.33Z" fill="white"/>
</mask>
<g mask="url(#mask0_174_5222)">
<path opacity="0.01" d="M152.01 14.0699C148.44 16.0399 148.19 18.6999 148.19 18.6999L153.43 24.7699L158.13 30.2099L162.84 35.6599C162.86 35.6299 168.03 41.5199 168.09 41.4799C169.51 38.9599 174.65 35.2599 179.4 32.1899C176.95 29.3299 171.96 23.7899 166.67 19.4699C164.32 17.5399 161.9 15.8599 159.63 14.7599C156.74 13.3599 154.07 12.8999 152.01 14.0699Z" fill="black"/>
<path opacity="0.01" d="M151.93 14.1601C148.43 16.0901 148.27 18.8001 148.27 18.8001L153.52 24.8801L158.23 30.3301L162.95 35.7901C162.99 35.7301 168.1 41.4601 168.22 41.3801C169.59 38.8701 174.6 35.1901 179.21 32.1201C176.78 29.2501 171.83 23.7701 166.6 19.4801C164.24 17.5401 161.83 15.8501 159.54 14.7601C156.66 13.3801 153.99 12.9401 151.93 14.1601Z" fill="black"/>
<path opacity="0.0118" d="M151.86 14.2501C148.43 16.1401 148.37 18.9001 148.37 18.9001L153.63 24.9801L158.34 30.4301L163.06 35.9001C163.11 35.8101 168.18 41.3801 168.35 41.2601C169.68 38.7701 174.55 35.1001 179.03 32.0401C176.6 29.1701 171.72 23.7301 166.54 19.4801C164.18 17.5301 161.76 15.8301 159.47 14.7601C156.58 13.3901 153.91 12.9901 151.86 14.2501Z" fill="black"/>
<path opacity="0.0157" d="M151.78 14.3401C148.42 16.1901 148.45 18.9901 148.45 18.9901L153.71 25.0801L158.43 30.5401L163.16 36.0101C163.23 35.8901 168.24 41.3001 168.46 41.1401C169.74 38.6601 174.47 35.0101 178.82 31.9501C176.4 29.0801 171.56 23.7001 166.45 19.4701C164.08 17.5101 161.66 15.8101 159.37 14.7401C156.5 13.4201 153.84 13.0401 151.78 14.3401Z" fill="black"/>
<path opacity="0.0196" d="M151.7 14.4297C148.41 16.2397 148.54 19.0897 148.54 19.0897L153.81 25.1897L158.53 30.6597L163.26 36.1397C163.35 35.9797 168.3 41.2397 168.58 41.0397C169.81 38.5797 174.41 34.9497 178.62 31.8797C176.22 29.0097 171.42 23.6797 166.37 19.4897C164 17.5197 161.57 15.8097 159.28 14.7597C156.41 13.4397 153.76 13.0897 151.7 14.4297Z" fill="black"/>
<path opacity="0.0235" d="M151.62 14.5199C148.41 16.2899 148.62 19.1899 148.62 19.1899L153.9 25.2999L158.63 30.7699L163.37 36.2499C163.48 36.0599 168.37 41.1599 168.71 40.9199C169.89 38.4699 174.36 34.8599 178.43 31.7899C176.04 28.9199 171.29 23.6399 166.3 19.4799C163.93 17.4999 161.49 15.7899 159.19 14.7499C156.33 13.4499 153.69 13.1299 151.62 14.5199Z" fill="black"/>
<path opacity="0.0275" d="M151.54 14.6098C148.4 16.3398 148.7 19.2898 148.7 19.2898L153.98 25.3998L158.72 30.8798L163.46 36.3698C163.59 36.1498 168.43 41.0898 168.82 40.8098C169.96 38.3798 174.29 34.7798 178.23 31.7098C175.85 28.8298 171.15 23.6098 166.22 19.4798C163.84 17.4898 161.41 15.7698 159.1 14.7398C156.25 13.4698 153.61 13.1798 151.54 14.6098Z" fill="black"/>
<path opacity="0.0314" d="M151.46 14.7098C148.39 16.3998 148.79 19.3998 148.79 19.3998L154.08 25.5198L158.82 30.9998L163.57 36.4898C163.71 36.2398 168.5 41.0198 168.95 40.6998C170.04 38.2798 174.24 34.6998 178.04 31.6398C175.67 28.7598 171.03 23.5898 166.15 19.4898C163.77 17.4898 161.33 15.7598 159.02 14.7498C156.17 13.4898 153.53 13.2298 151.46 14.7098Z" fill="black"/>
<path opacity="0.0353" d="M151.39 14.7998C148.39 16.4498 148.88 19.4998 148.88 19.4998L154.17 25.6298L158.92 31.1198L163.67 36.6198C163.83 36.3398 168.56 40.9598 169.07 40.5998C170.11 38.1998 174.17 34.6298 177.85 31.5698C175.49 28.6898 170.9 23.5698 166.08 19.4998C163.69 17.4798 161.25 15.7598 158.93 14.7498C156.09 13.5098 153.46 13.2698 151.39 14.7998Z" fill="black"/>
<path opacity="0.0392" d="M151.31 14.8899C148.38 16.4999 148.97 19.5999 148.97 19.5999L154.27 25.7299L159.02 31.2299L163.78 36.7399C163.96 36.4299 168.64 40.8899 169.2 40.4799C170.19 38.0899 174.12 34.5399 177.66 31.4799C175.31 28.5999 170.77 23.5299 166.02 19.4999C163.63 17.4699 161.18 15.7399 158.86 14.7499C156.01 13.5299 153.38 13.3199 151.31 14.8899Z" fill="black"/>
<path opacity="0.0431" d="M151.23 14.98C148.37 16.56 149.05 19.69 149.05 19.69L154.36 25.83L159.12 31.33L163.88 36.84C164.08 36.5 168.7 40.8 169.32 40.35C170.27 37.98 174.06 34.45 177.46 31.38C175.12 28.5 170.63 23.48 165.94 19.48C163.55 17.44 161.1 15.71 158.77 14.73C155.93 13.55 153.3 13.37 151.23 14.98Z" fill="black"/>
<path opacity="0.0471" d="M151.15 15.0697C148.36 16.6097 149.13 19.7897 149.13 19.7897L154.44 25.9397L159.2 31.4497L163.97 36.9697C164.19 36.5997 168.75 40.7397 169.43 40.2497C170.33 37.8897 173.99 34.3797 177.26 31.3097C174.93 28.4297 170.5 23.4497 165.86 19.4897C163.46 17.4397 161.01 15.6997 158.68 14.7297C155.85 13.5597 153.23 13.4197 151.15 15.0697Z" fill="black"/>
<path opacity="0.051" d="M151.07 15.16C148.36 16.66 149.22 19.89 149.22 19.89L154.54 26.05L159.31 31.57L164.08 37.09C164.31 36.69 168.83 40.67 169.56 40.14C170.41 37.8 173.94 34.3 177.07 31.24C174.75 28.35 170.37 23.43 165.79 19.5C163.39 17.44 160.93 15.69 158.59 14.74C155.77 13.58 153.15 13.46 151.07 15.16Z" fill="black"/>
<path opacity="0.0549" d="M151 15.25C148.36 16.71 149.31 19.99 149.31 19.99L154.64 26.15L159.41 31.67L164.19 37.2C164.44 36.76 168.9 40.59 169.69 40.02C170.49 37.69 173.88 34.21 176.88 31.15C174.57 28.26 170.24 23.39 165.72 19.5C163.31 17.43 160.85 15.68 158.51 14.73C155.69 13.6 153.08 13.51 151 15.25Z" fill="black"/>
<path opacity="0.0588" d="M150.92 15.3399C148.35 16.7599 149.4 20.0899 149.4 20.0899L154.73 26.2599L159.51 31.7899L164.29 37.3299C164.56 36.8599 168.96 40.5299 169.81 39.9199C170.57 37.6099 173.82 34.1399 176.69 31.0799C174.39 28.1899 170.11 23.3699 165.65 19.5099C163.24 17.4299 160.78 15.6699 158.43 14.7399C155.61 13.6199 153 13.5599 150.92 15.3399Z" fill="black"/>
<path opacity="0.0627" d="M150.84 15.4296C148.34 16.8096 149.48 20.1896 149.48 20.1896L154.82 26.3696L159.6 31.8996L164.39 37.4396C164.68 36.9396 169.02 40.4496 169.93 39.7996C170.64 37.4996 173.76 34.0496 176.49 30.9896C174.2 28.0996 169.98 23.3196 165.57 19.4996C163.16 17.3996 160.69 15.6396 158.33 14.7196C155.53 13.6396 152.92 13.5996 150.84 15.4296Z" fill="black"/>
<path opacity="0.0667" d="M150.76 15.5197C148.33 16.8597 149.56 20.2897 149.56 20.2897L154.91 26.4797L159.7 32.0197L164.49 37.5697C164.8 37.0397 169.09 40.3897 170.04 39.6997C170.7 37.4197 173.69 33.9897 176.28 30.9297C174 28.0397 169.83 23.3097 165.48 19.5197C163.06 17.4097 160.59 15.6497 158.23 14.7397C155.45 13.6597 152.85 13.6497 150.76 15.5197Z" fill="black"/>
<path opacity="0.0706" d="M150.68 15.61C148.32 16.91 149.65 20.39 149.65 20.39L155 26.58L159.79 32.13L164.59 37.68C164.91 37.12 169.15 40.31 170.16 39.58C170.77 37.31 173.63 33.9 176.08 30.84C173.81 27.94 169.69 23.27 165.4 19.51C162.98 17.39 160.5 15.62 158.14 14.73C155.37 13.67 152.77 13.7 150.68 15.61Z" fill="black"/>
<path opacity="0.0745" d="M150.61 15.6997C148.32 16.9597 149.74 20.4797 149.74 20.4797L155.1 26.6797L159.9 32.2297L164.7 37.7897C165.04 37.1997 169.22 40.2297 170.29 39.4597C170.86 37.2097 173.57 33.8097 175.9 30.7497C173.64 27.8497 169.58 23.2297 165.35 19.5097C162.93 17.3797 160.45 15.5997 158.08 14.7197C155.29 13.6897 152.7 13.7497 150.61 15.6997Z" fill="black"/>
<path opacity="0.0784" d="M150.53 15.7897C148.32 17.0097 149.82 20.5797 149.82 20.5797L155.19 26.7897L159.99 32.3497L164.8 37.9097C165.16 37.2897 169.28 40.1597 170.41 39.3497C170.93 37.1097 173.51 33.7297 175.7 30.6697C173.45 27.7697 169.44 23.1897 165.27 19.5097C162.84 17.3697 160.36 15.5897 157.98 14.7197C155.21 13.7097 152.62 13.7897 150.53 15.7897Z" fill="black"/>
<path opacity="0.0824" d="M150.45 15.8798C148.31 17.0598 149.91 20.6798 149.91 20.6798L155.28 26.8898L160.09 32.4598L164.9 38.0298C165.28 37.3798 169.35 40.0898 170.53 39.2398C171 37.0198 173.45 33.6498 175.5 30.5898C173.26 27.6898 169.3 23.1598 165.19 19.5098C162.76 17.3598 160.27 15.5698 157.89 14.7098C155.13 13.7298 152.54 13.8398 150.45 15.8798Z" fill="black"/>
<path opacity="0.0863" d="M150.37 15.97C148.3 17.11 149.99 20.78 149.99 20.78L155.37 27L160.19 32.57L165.01 38.15C165.41 37.47 169.42 40.02 170.66 39.13C171.09 36.92 173.4 33.58 175.32 30.52C173.09 27.62 169.19 23.14 165.13 19.52C162.7 17.35 160.21 15.56 157.82 14.72C155.05 13.74 152.47 13.89 150.37 15.97Z" fill="black"/>
<path opacity="0.0902" d="M150.29 16.0597C148.29 17.1597 150.08 20.8797 150.08 20.8797L155.46 27.1097L160.28 32.6897L165.11 38.2697C165.52 37.5497 169.48 39.9497 170.78 39.0197C171.16 36.8197 173.34 33.4997 175.12 30.4397C172.9 27.5397 169.05 23.0997 165.05 19.5297C162.61 17.3497 160.12 15.5497 157.72 14.7197C154.97 13.7597 152.39 13.9297 150.29 16.0597Z" fill="black"/>
<path opacity="0.0941" d="M150.21 16.1498C148.28 17.2098 150.16 20.9798 150.16 20.9798L155.55 27.2198L160.38 32.7998L165.21 38.3898C165.64 37.6398 169.55 39.8798 170.9 38.9098C171.23 36.7298 173.27 33.4198 174.92 30.3598C172.71 27.4498 168.91 23.0698 164.97 19.5298C162.53 17.3398 160.03 15.5398 157.63 14.7198C154.89 13.7798 152.32 13.9798 150.21 16.1498Z" fill="black"/>
<path opacity="0.098" d="M150.14 16.2401C148.28 17.2601 150.26 21.0801 150.26 21.0801L155.66 27.3201L160.49 32.9101L165.32 38.5001C165.77 37.7201 169.62 39.8001 171.03 38.7901C171.31 36.6201 173.22 33.3301 174.74 30.2701C172.54 27.3601 168.8 23.0201 164.91 19.5201C162.47 17.3201 159.96 15.5101 157.56 14.7101C154.81 13.8001 152.24 14.0301 150.14 16.2401Z" fill="black"/>
<path opacity="0.102" d="M150.06 16.3397C148.27 17.3197 150.34 21.1897 150.34 21.1897L155.74 27.4397L160.58 33.0397L165.42 38.6397C165.89 37.8297 169.68 39.7497 171.15 38.6997C171.39 36.5497 173.16 33.2697 174.54 30.2097C172.35 27.2997 168.66 23.0097 164.83 19.5397C162.38 17.3297 159.88 15.5097 157.47 14.7197C154.73 13.8097 152.16 14.0797 150.06 16.3397Z" fill="black"/>
<path opacity="0.1059" d="M149.98 16.43C148.27 17.38 150.42 21.28 150.42 21.28L155.83 27.54L160.67 33.14L165.51 38.75C166 37.91 169.73 39.67 171.26 38.58C171.45 36.44 173.09 33.18 174.33 30.13C172.15 27.22 168.52 22.98 164.74 19.54C162.29 17.31 159.78 15.5 157.36 14.72C154.65 13.83 152.09 14.12 149.98 16.43Z" fill="black"/>
<path opacity="0.1098" d="M149.9 16.5197C148.26 17.4297 150.51 21.3797 150.51 21.3797L155.92 27.6497L160.77 33.2597L165.62 38.8697C166.13 37.9997 169.81 39.5997 171.39 38.4697C171.53 36.3497 173.04 33.1097 174.15 30.0497C171.98 27.1397 168.4 22.9397 164.69 19.5497C162.24 17.3097 159.72 15.4897 157.3 14.7197C154.57 13.8497 152.01 14.1697 149.9 16.5197Z" fill="black"/>
<path opacity="0.1137" d="M149.83 16.6099C148.26 17.4799 150.6 21.4799 150.6 21.4799L156.02 27.7499L160.87 33.3599L165.72 38.9799C166.24 38.0799 169.87 39.5199 171.51 38.3499C171.6 36.2399 172.97 33.0199 173.95 29.9599C171.79 27.0399 168.27 22.8999 164.61 19.5399C162.15 17.2899 159.64 15.4599 157.21 14.7099C154.49 13.8699 151.94 14.2199 149.83 16.6099Z" fill="black"/>
<path opacity="0.1176" d="M149.75 16.6996C148.25 17.5296 150.68 21.5796 150.68 21.5796L156.11 27.8596L160.97 33.4796L165.83 39.0996C166.37 38.1696 169.94 39.4496 171.63 38.2396C171.68 36.1496 172.91 32.9396 173.75 29.8796C171.6 26.9596 168.13 22.8596 164.53 19.5396C162.07 17.2696 159.55 15.4396 157.11 14.6996C154.41 13.8796 151.86 14.2596 149.75 16.6996Z" fill="black"/>
<path opacity="0.1216" d="M149.67 16.7897C148.24 17.5797 150.77 21.6797 150.77 21.6797L156.2 27.9697L161.06 33.5997L165.92 39.2297C166.48 38.2597 170 39.3897 171.74 38.1297C171.74 36.0497 172.84 32.8597 173.55 29.7997C171.42 26.8797 168 22.8297 164.45 19.5397C161.99 17.2597 159.46 15.4297 157.02 14.6997C154.33 13.8997 151.78 14.3097 149.67 16.7897Z" fill="black"/>
<path opacity="0.1255" d="M149.59 16.8798C148.23 17.6298 150.85 21.7798 150.85 21.7798L156.29 28.0698L161.16 33.6998L166.03 39.3398C166.61 38.3398 170.07 39.3098 171.87 38.0098C171.82 35.9498 172.79 32.7698 173.36 29.7198C171.23 26.7998 167.87 22.7898 164.38 19.5498C161.92 17.2598 159.38 15.4198 156.94 14.7098C154.25 13.9198 151.71 14.3598 149.59 16.8798Z" fill="black"/>
<path opacity="0.1294" d="M149.51 16.9698C148.22 17.6798 150.93 21.8798 150.93 21.8798L156.38 28.1798L161.26 33.8198L166.13 39.4598C166.73 38.4298 170.13 39.2398 171.99 37.8998C171.89 35.8498 172.73 32.6898 173.16 29.6398C171.04 26.7198 167.74 22.7598 164.3 19.5498C161.83 17.2498 159.3 15.3998 156.85 14.6998C154.17 13.9298 151.63 14.4098 149.51 16.9698Z" fill="black"/>
<path opacity="0.1333" d="M149.43 17.0601C148.22 17.7301 151.02 21.9701 151.02 21.9701L156.47 28.2801L161.35 33.9301L166.23 39.5801C166.84 38.5201 170.19 39.1701 172.11 37.7901C171.97 35.7601 172.66 32.6201 172.97 29.5601C170.87 26.6401 167.61 22.7201 164.23 19.5501C161.76 17.2301 159.22 15.3801 156.76 14.7001C154.09 13.9501 151.55 14.4501 149.43 17.0601Z" fill="black"/>
<path opacity="0.1373" d="M149.36 17.1499C148.22 17.7799 151.11 22.0699 151.11 22.0699L156.57 28.3899L161.45 34.0399L166.33 39.6899C166.96 38.5999 170.26 39.0899 172.23 37.6699C172.04 35.6499 172.6 32.5299 172.77 29.4699C170.68 26.5399 167.48 22.6799 164.15 19.5399C161.68 17.2099 159.13 15.3599 156.67 14.6799C154.01 13.9699 151.48 14.4999 149.36 17.1499Z" fill="black"/>
<path opacity="0.1412" d="M149.28 17.2397C148.21 17.8297 151.2 22.1697 151.2 22.1697L156.67 28.4897L161.56 34.1497L166.45 39.8097C167.1 38.6897 170.34 39.0197 172.37 37.5597C172.13 35.5597 172.56 32.4497 172.59 29.3997C170.51 26.4697 167.36 22.6497 164.09 19.5497C161.62 17.2097 159.07 15.3497 156.6 14.6897C153.93 13.9797 151.4 14.5497 149.28 17.2397Z" fill="black"/>
<path opacity="0.1451" d="M149.2 17.33C148.2 17.88 151.28 22.2701 151.28 22.2701L156.75 28.6001L161.65 34.26L166.54 39.92C167.21 38.77 170.39 38.94 172.48 37.44C172.19 35.45 172.49 32.3601 172.39 29.3101C170.32 26.38 167.23 22.61 164.01 19.55C161.54 17.19 158.98 15.3301 156.51 14.6801C153.85 14.0001 151.33 14.59 149.2 17.33Z" fill="black"/>
<path opacity="0.149" d="M149.12 17.4198C148.19 17.9298 151.37 22.3698 151.37 22.3698L156.85 28.7098L161.75 34.3798L166.65 40.0498C167.34 38.8698 170.47 38.8798 172.61 37.3398C172.28 35.3698 172.44 32.2898 172.2 29.2398C170.14 26.3098 167.1 22.5798 163.95 19.5598C161.47 17.1898 158.91 15.3198 156.43 14.6898C153.77 14.0198 151.25 14.6398 149.12 17.4198Z" fill="black"/>
<path opacity="0.1529" d="M149.04 17.5097C148.18 17.9797 151.45 22.4697 151.45 22.4697L156.93 28.8197L161.84 34.4997L166.75 40.1797C167.45 38.9697 170.53 38.8197 172.73 37.2397C172.35 35.2797 172.37 32.2197 172 29.1697C169.95 26.2397 166.97 22.5497 163.87 19.5697C161.39 17.1897 158.83 15.3097 156.34 14.6997C153.69 14.0297 151.17 14.6897 149.04 17.5097Z" fill="black"/>
<path opacity="0.1569" d="M148.97 17.6C148.18 18.03 151.54 22.57 151.54 22.57L157.03 28.92L161.94 34.6L166.85 40.28C167.57 39.03 170.59 38.73 172.85 37.11C172.42 35.17 172.31 32.13 171.81 29.07C169.77 26.13 166.85 22.5 163.8 19.55C161.32 17.15 158.75 15.28 156.26 14.67C153.61 14.05 151.1 14.73 148.97 17.6Z" fill="black"/>
<path opacity="0.1608" d="M148.89 17.69C148.18 18.08 151.63 22.67 151.63 22.67L157.13 29.03L162.05 34.72L166.97 40.41C167.71 39.13 170.67 38.67 172.98 37.01C172.5 35.08 172.26 32.06 171.62 29.01C169.59 26.07 166.72 22.48 163.73 19.58C161.25 17.17 158.67 15.29 156.17 14.7C153.53 14.06 151.02 14.78 148.89 17.69Z" fill="black"/>
<path opacity="0.1647" d="M148.81 17.7799C148.17 18.1299 151.71 22.7599 151.71 22.7599L157.21 29.1299L162.13 34.8199L167.05 40.5099C167.81 39.1999 170.72 38.5799 173.08 36.8799C172.56 34.9599 172.18 31.9599 171.4 28.9099C169.38 25.9699 166.57 22.4299 163.63 19.5599C161.15 17.1299 158.56 15.2499 156.06 14.6699C153.45 14.0799 150.95 14.8299 148.81 17.7799Z" fill="black"/>
<path opacity="0.1686" d="M148.73 17.8797C148.16 18.1897 151.79 22.8697 151.79 22.8697L157.3 29.2497L162.23 34.9497L167.15 40.6497C167.93 39.3097 170.78 38.5297 173.2 36.7897C172.63 34.8897 172.11 31.8997 171.2 28.8497C169.19 25.9097 166.43 22.4097 163.55 19.5797C161.07 17.1397 158.48 15.2497 155.97 14.6897C153.37 14.0997 150.87 14.8797 148.73 17.8797Z" fill="black"/>
<path opacity="0.1725" d="M148.65 17.9699C148.15 18.2499 151.88 22.9699 151.88 22.9699L157.4 29.3499L162.33 35.0599L167.26 40.7699C168.05 39.3999 170.85 38.4599 173.33 36.6799C172.71 34.7999 172.06 31.8199 171.02 28.7699C169.02 25.8299 166.32 22.3699 163.49 19.5799C161 17.1299 158.41 15.2299 155.9 14.6799C153.29 14.1099 150.79 14.9199 148.65 17.9699Z" fill="black"/>
<path opacity="0.1765" d="M148.58 18.0601C148.15 18.3001 151.97 23.0701 151.97 23.0701L157.49 29.4601L162.43 35.1701L167.37 40.8801C168.18 39.4801 170.93 38.3801 173.46 36.5601C172.8 34.6901 172.01 31.7301 170.83 28.6801C168.84 25.7401 166.2 22.3301 163.42 19.5701C160.93 17.1001 158.33 15.2001 155.81 14.6701C153.21 14.1301 150.72 14.9701 148.58 18.0601Z" fill="black"/>
<path opacity="0.1804" d="M148.5 18.1498C148.14 18.3498 152.06 23.1698 152.06 23.1698L157.59 29.5698L162.53 35.2898L167.47 41.0098C168.3 39.5798 170.99 38.3198 173.58 36.4598C172.87 34.5998 171.95 31.6698 170.63 28.6198C168.65 25.6698 166.06 22.3098 163.34 19.5998C160.85 17.1198 158.25 15.2098 155.72 14.6998C153.13 14.1398 150.64 15.0198 148.5 18.1498Z" fill="black"/>
<path opacity="0.1843" d="M148.42 18.2399C148.13 18.3999 152.14 23.2699 152.14 23.2699L157.68 29.6699L162.63 35.3999L167.58 41.1199C168.43 39.6599 171.06 38.2399 173.71 36.3399C172.95 34.4999 171.9 31.5799 170.45 28.5299C168.48 25.5799 165.95 22.2599 163.29 19.5899C160.8 17.0899 158.19 15.1899 155.66 14.6799C153.05 14.1599 150.57 15.0599 148.42 18.2399Z" fill="black"/>
<path opacity="0.1882" d="M148.34 18.3296C148.13 18.4496 152.22 23.3696 152.22 23.3696L157.76 29.7796L162.72 35.5096L167.67 41.2396C168.54 39.7496 171.11 38.1696 173.82 36.2296C173.01 34.3996 171.82 31.4996 170.24 28.4496C168.28 25.4996 165.81 22.2296 163.2 19.5896C160.71 17.0796 158.09 15.1596 155.56 14.6796C152.98 14.1696 150.49 15.1096 148.34 18.3296Z" fill="black"/>
<path opacity="0.1922" d="M148.26 18.4198C148.12 18.4998 152.31 23.4698 152.31 23.4698L157.86 29.8898L162.82 35.6298L167.78 41.3598C168.66 39.8398 171.19 38.0998 173.95 36.1198C173.1 34.3098 171.77 31.4198 170.05 28.3698C168.1 25.4198 165.68 22.1898 163.13 19.5898C160.64 17.0598 158.02 15.1398 155.47 14.6698C152.9 14.1898 150.41 15.1598 148.26 18.4198Z" fill="black"/>
<path opacity="0.1961" d="M148.18 18.5101C148.11 18.5501 152.39 23.5601 152.39 23.5601L157.94 29.9901L162.9 35.7301L167.86 41.4701C168.76 39.9101 171.23 38.0201 174.05 36.0001C173.15 34.2001 171.69 31.3301 169.84 28.2801C167.9 25.3301 165.55 22.1401 163.04 19.5901C160.56 17.0401 157.92 15.1301 155.37 14.6701C152.82 14.2101 150.34 15.2101 148.18 18.5101Z" fill="black"/>
<path opacity="0.2" d="M148.11 18.5997L158.05 30.0997L167.99 41.5997C168.91 40.0097 171.32 37.9597 174.2 35.8997C172.33 32.3897 167.97 24.7197 162.99 19.5997C160.5 17.0397 157.86 15.1197 155.31 14.6697C152.74 14.2197 150.26 15.2497 148.11 18.5997Z" fill="black"/>
</g>
<path d="M148.04 18.3298L158.44 32.7198C158.57 32.3998 158.73 32.0898 158.91 31.7698L148.63 17.5498C148.25 18.0398 148.04 18.3298 148.04 18.3298Z" fill="#D0D2D3"/>
<path d="M159.01 31.5998C164.06 23.0698 186.01 15.8898 186.01 15.8898L186.13 15.0898C183.18 16.0798 162.65 23.3098 159.01 31.5998Z" fill="#D0D2D3"/>
<path d="M147.79 18.4001L150.92 29.8701C150.92 29.8701 159.51 23.5801 159.9 15.7301C159.9 15.7301 153.48 12.8701 147.79 18.4001Z" fill="#929497"/>
<path d="M63.63 29.7002C63.63 29.7002 61.28 29.2802 65.22 41.2302L67.4 65.2502C67.4 65.2502 69.11 55.2602 78.89 58.6502C88.66 62.0302 138.98 74.4202 174.02 32.6602L159.91 14.9702C159.91 14.9702 120.6 56.1202 63.63 29.7002Z" fill="white"/>
<path d="M78.24 57.8802C71.08 55.4302 68.21 60.0602 67.18 62.7602L67.41 65.2502C67.41 65.2502 69.12 55.2602 78.9 58.6502C88.67 62.0302 138.99 74.4202 174.03 32.6602L173.65 32.1802C138.32 73.4602 88.03 61.2402 78.24 57.8802Z" fill="#D0D2D3"/>
<path d="M92.99 50.4602C92.58 50.1302 92.13 49.8502 91.62 49.6302C91.11 49.4002 90.11 49.1002 90.11 49.1002C90.11 49.1002 90.91 49.0502 91.29 48.9502C91.68 48.8502 92.02 48.7002 92.32 48.4902C92.62 48.2902 92.86 48.0302 93.04 47.7302C93.22 47.4302 93.32 47.0902 93.34 46.7202C93.37 46.1002 93.23 45.5602 92.93 45.0902C92.64 44.6202 92.21 44.2202 91.66 43.8802C91.11 43.5402 90.45 43.2602 89.67 43.0202C88.89 42.7902 88.03 42.5902 87.07 42.4102C86.3 42.2702 85.54 42.1302 84.78 42.0002C84.02 41.8702 83.43 41.7702 83 41.7202C82.29 45.6202 81.59 49.5202 80.89 53.4202C81.64 53.7402 82.45 54.0502 83.3 54.3602C84.16 54.6702 84.95 54.9202 85.69 55.1302C86.87 55.4602 87.98 55.6802 89.03 55.8002C90.08 55.9202 90.99 55.8902 91.77 55.7402C92.55 55.5902 93.17 55.3002 93.62 54.8802C94.08 54.4602 94.31 53.8902 94.33 53.1702C94.35 52.5802 94.22 52.0602 93.97 51.6102C93.73 51.1802 93.39 50.7902 92.99 50.4602ZM85.36 43.5302C85.58 43.5602 85.86 43.6002 86.17 43.6502C86.49 43.7002 86.81 43.7702 87.16 43.8302C88.28 44.0502 89.15 44.3602 89.78 44.7902C90.41 45.2202 90.71 45.7802 90.66 46.4502C90.61 47.1502 90.25 47.6202 89.58 47.8502C88.91 48.0802 87.96 48.0702 86.75 47.8002C85.97 47.6202 85.58 47.5302 84.8 47.3302C85.03 45.8202 85.14 45.0502 85.36 43.5302ZM90.87 53.6602C90.58 53.9002 90.21 54.0602 89.74 54.1302C89.27 54.2002 88.73 54.2002 88.12 54.1302C87.51 54.0602 86.87 53.9302 86.18 53.7502C85.78 53.6402 85.38 53.5302 84.97 53.4002C84.56 53.2702 84.23 53.1602 83.97 53.0602C84.22 51.3402 84.35 50.4802 84.59 48.7602C85.5 49.0002 85.96 49.1202 86.87 49.3302C87.52 49.4802 88.13 49.6502 88.68 49.8402C89.24 50.0302 89.71 50.2602 90.11 50.5202C90.51 50.7802 90.82 51.0902 91.04 51.4302C91.26 51.7802 91.36 52.1702 91.33 52.6202C91.31 53.0702 91.16 53.4202 90.87 53.6602Z" fill="#BF8E06"/>
<path d="M106.15 48.4403C105.17 47.8703 103.83 47.6204 102.08 47.6104C101.42 47.6104 100.73 47.6304 100.02 47.6804C99.3 47.7304 98.19 47.7504 98.06 47.9104C97.95 48.0504 98.33 49.3403 98.59 49.4403C98.82 49.5303 99.63 49.3004 100.17 49.2504C100.71 49.2004 101.29 49.1904 101.92 49.2004C102.93 49.2204 103.72 49.3703 104.28 49.6703C104.84 49.9703 105.16 50.5104 105.24 51.2904C105.25 51.4404 105.26 51.5203 105.27 51.6703C105.01 51.6503 104.7 51.6203 104.32 51.6003C103.94 51.5803 103.46 51.5604 102.88 51.5504C102.09 51.5304 101.35 51.5703 100.64 51.6703C99.93 51.7703 99.3 51.9304 98.76 52.1504C98.21 52.3804 97.78 52.6804 97.45 53.0504C97.13 53.4204 96.96 53.8804 96.96 54.4104C96.96 54.9604 97.1 55.4503 97.4 55.8703C97.69 56.2903 98.11 56.6704 98.65 56.9804C99.19 57.2904 99.85 57.5504 100.63 57.7404C101.41 57.9304 102.28 58.0603 103.24 58.1203C104.26 58.1804 105.26 58.1704 106.23 58.0804C107.2 57.9904 108.02 57.8904 108.69 57.7704C108.37 55.1804 108.21 53.8904 107.89 51.3004C107.72 49.9604 107.13 49.0103 106.15 48.4403ZM104.47 56.5704C104 56.5804 103.54 56.5804 103.1 56.5604C102.75 56.5404 102.38 56.5004 102 56.4504C101.61 56.4004 101.26 56.3004 100.93 56.1604C100.6 56.0204 100.33 55.8303 100.12 55.6003C99.9 55.3603 99.79 55.0503 99.77 54.6703C99.75 54.0703 100.04 53.6504 100.64 53.3904C101.23 53.1304 102.1 53.0304 103.26 53.0704C103.56 53.0804 103.92 53.1004 104.35 53.1304C104.78 53.1604 105.14 53.1904 105.42 53.2204C105.54 54.5104 105.6 55.1603 105.73 56.4604C105.36 56.5104 104.94 56.5504 104.47 56.5704Z" fill="#BF8E06"/>
<path d="M121.43 46.3602C120.51 45.8202 119.33 45.7302 117.84 46.0402C117.32 46.1502 116.85 46.3102 116.43 46.5102C116.01 46.7102 115.66 46.9302 115.35 47.1802C115.05 47.4302 114.78 47.6902 114.56 47.9602C114.34 48.2402 114.05 48.7702 114.03 48.7702C114.03 48.7702 113.9 48.2402 113.78 47.9002C113.66 47.5502 113.55 47.1402 113.46 47.0802C113.39 47.0302 113.08 47.0802 112.92 47.0902C112.76 47.1002 112.58 47.1102 112.39 47.1402C112.2 47.1602 112.02 47.2002 111.84 47.2302C111.66 47.2702 111.48 47.3102 111.3 47.3602C111.89 50.8802 112.48 54.3902 113.08 57.9102C113.3 57.9302 113.55 57.9302 113.82 57.9302C114.1 57.9302 114.34 57.9202 114.56 57.9002C114.77 57.8802 115.01 57.8602 115.27 57.8202C115.53 57.7802 115.76 57.7402 115.97 57.7002C115.54 55.5402 115.33 54.4502 114.9 52.2902C114.77 51.6402 114.77 51.0702 114.88 50.5702C114.99 50.0802 115.19 49.6602 115.46 49.3202C115.73 48.9802 116.07 48.7002 116.48 48.4802C116.89 48.2702 117.33 48.1102 117.81 48.0202C118.64 47.8602 119.31 47.9702 119.81 48.3602C120.32 48.7502 120.71 49.4502 120.98 50.4602C121.66 53.0002 122 54.2702 122.68 56.8002C122.9 56.7902 123.14 56.7702 123.41 56.7402C123.67 56.7102 123.91 56.6702 124.12 56.6302C124.33 56.5902 124.57 56.5402 124.83 56.4702C125.09 56.4002 125.33 56.3302 125.53 56.2602C124.7 53.4702 124.28 52.0802 123.45 49.2902C123.04 47.8702 122.35 46.9002 121.43 46.3602Z" fill="#BF8E06"/>
<path d="M133.93 41.9299C132.8 41.6399 131.46 41.8399 129.86 42.4599C129.25 42.6999 128.63 42.9799 127.99 43.3099C127.35 43.6399 126.36 44.0799 126.28 44.3099C126.2 44.5499 127.1 45.8599 127.36 45.8699C127.57 45.8799 128.26 45.3099 128.74 45.0499C129.22 44.7899 129.74 44.5599 130.32 44.3399C131.26 43.9899 132.04 43.8699 132.67 43.9999C133.3 44.1299 133.81 44.6299 134.18 45.4899C134.25 45.6599 134.29 45.7399 134.36 45.9099C134.11 45.9799 133.81 46.0699 133.45 46.1799C133.09 46.2899 132.64 46.4499 132.1 46.6599C131.37 46.9299 130.7 47.2599 130.08 47.6399C129.47 48.0199 128.95 48.4399 128.54 48.9099C128.13 49.3799 127.84 49.8899 127.69 50.4499C127.54 51.0099 127.56 51.5899 127.77 52.2099C127.98 52.8399 128.3 53.3499 128.73 53.7199C129.16 54.0899 129.69 54.3599 130.3 54.4999C130.92 54.6499 131.62 54.6799 132.41 54.5899C133.2 54.4999 134.06 54.3099 134.97 54.0099C135.94 53.6899 136.86 53.2999 137.73 52.8299C138.6 52.3699 139.32 51.9399 139.9 51.5699C138.59 48.7599 137.94 47.3499 136.63 44.5499C135.98 43.0899 135.06 42.2199 133.93 41.9299ZM135.54 51.7699C135.11 51.9699 134.68 52.1299 134.26 52.2799C133.93 52.3899 133.58 52.4899 133.2 52.5799C132.82 52.6699 132.46 52.6899 132.11 52.6599C131.76 52.6199 131.43 52.5099 131.14 52.3299C130.85 52.1499 130.62 51.8299 130.47 51.3999C130.22 50.7199 130.33 50.1199 130.77 49.5999C131.22 49.0799 131.98 48.6399 133.06 48.2399C133.34 48.1399 133.68 48.0299 134.09 47.9099C134.5 47.7899 134.84 47.6899 135.11 47.6199C135.73 49.0499 136.04 49.7599 136.65 51.1799C136.34 51.3799 135.97 51.5799 135.54 51.7699Z" fill="#BF8E06"/>
<path d="M147.4 34.3303C146.32 34.0403 145.17 34.3403 143.89 35.1803C143.44 35.4803 143.06 35.8103 142.75 36.1703C142.44 36.5403 142.19 36.9103 142.01 37.2803C141.82 37.6603 141.68 38.0403 141.58 38.4203C141.48 38.8003 141.42 39.5003 141.4 39.5003C141.4 39.5003 141.07 38.9603 140.82 38.6103C140.57 38.2603 140.3 37.8303 140.2 37.8003C140.12 37.7803 139.85 37.9303 139.7 38.0003C139.55 38.0703 139.39 38.1503 139.22 38.2403C139.05 38.3303 138.89 38.4303 138.74 38.5303C138.59 38.6303 138.44 38.7403 138.28 38.8603C140.22 42.6003 142.15 46.3403 144.08 50.0903C144.29 50.0303 144.53 49.9403 144.78 49.8403C145.04 49.7403 145.26 49.6403 145.46 49.5403C145.66 49.4403 145.87 49.3303 146.1 49.2003C146.33 49.0703 146.53 48.9403 146.71 48.8103C145.46 46.5403 144.83 45.4003 143.57 43.1303C143.19 42.4503 142.96 41.8103 142.87 41.2203C142.78 40.6303 142.8 40.1003 142.92 39.6203C143.04 39.1403 143.25 38.7203 143.54 38.3403C143.83 37.9603 144.19 37.6403 144.61 37.3703C145.33 36.9103 146 36.8103 146.63 37.0703C147.26 37.3303 147.91 37.9803 148.57 39.0003C150.22 41.5803 151.04 42.8703 152.69 45.4503C152.9 45.3603 153.12 45.2603 153.36 45.1303C153.6 45.0003 153.81 44.8803 153.99 44.7603C154.18 44.6403 154.38 44.5003 154.61 44.3303C154.83 44.1603 155.03 44.0103 155.19 43.8503C153.61 41.5203 152.03 39.1903 150.45 36.8603C149.52 35.4603 148.48 34.6203 147.4 34.3303Z" fill="#BF8E06"/>
<path d="M157.54 25.3401C156.34 25.3901 155.13 26.0501 153.85 27.2601C153.36 27.7201 152.88 28.2301 152.41 28.8001C151.94 29.3701 151.17 30.1801 151.18 30.4601C151.19 30.7901 152.59 31.8801 152.83 31.8101C153 31.7601 153.47 30.9001 153.82 30.4601C154.17 30.0201 154.58 29.5901 155.05 29.1601C155.81 28.4601 156.51 28.0801 157.17 28.0101C157.83 27.9501 158.52 28.3201 159.22 29.1301C159.36 29.2901 159.43 29.3601 159.56 29.5201C159.35 29.6801 159.09 29.8801 158.8 30.1201C158.5 30.3601 158.13 30.6901 157.69 31.0901C157.1 31.6301 156.59 32.2101 156.15 32.8301C155.71 33.4501 155.39 34.0901 155.18 34.7401C154.97 35.4001 154.9 36.0601 154.98 36.7201C155.06 37.3801 155.31 38.0201 155.76 38.6301C156.21 39.2601 156.72 39.7001 157.28 39.9701C157.84 40.2301 158.45 40.3501 159.1 40.3001C159.75 40.2501 160.44 40.0501 161.16 39.6801C161.88 39.3101 162.63 38.8101 163.39 38.1701C164.2 37.4901 164.93 36.7501 165.58 35.9501C166.23 35.1501 166.76 34.4401 167.18 33.8401C165.19 31.6601 163.2 29.4801 161.22 27.2901C159.97 25.9301 158.74 25.2901 157.54 25.3401ZM163.02 35.5301C162.68 35.8901 162.34 36.2201 161.99 36.5201C161.72 36.7501 161.42 36.9801 161.09 37.2101C160.76 37.4401 160.42 37.5901 160.07 37.6701C159.72 37.7501 159.36 37.7401 159.01 37.6301C158.66 37.5301 158.32 37.2601 157.99 36.8401C157.48 36.1801 157.35 35.4901 157.57 34.7701C157.79 34.0501 158.34 33.3101 159.22 32.5201C159.45 32.3201 159.73 32.0801 160.08 31.8101C160.43 31.5401 160.71 31.3201 160.95 31.1501C162.11 32.5001 162.69 33.1701 163.86 34.5201C163.63 34.8301 163.36 35.1801 163.02 35.5301Z" fill="#BF8E06"/>
<path d="M93.06 49.8203C92.65 49.4903 92.2 49.2103 91.69 48.9803C91.18 48.7503 90.18 48.4503 90.18 48.4503C90.18 48.4503 90.98 48.4003 91.36 48.3103C91.75 48.2103 92.09 48.0603 92.39 47.8503C92.69 47.6403 92.93 47.3903 93.11 47.0903C93.29 46.7903 93.39 46.4503 93.41 46.0803C93.43 45.4603 93.3 44.9203 93 44.4503C92.7 43.9803 92.28 43.5803 91.73 43.2403C91.18 42.9003 90.52 42.6203 89.74 42.3903C88.96 42.1503 88.1 41.9503 87.15 41.7803C86.38 41.6403 85.62 41.5003 84.86 41.3703C84.1 41.2403 83.51 41.1403 83.08 41.0903C82.38 44.9903 81.67 48.8903 80.97 52.7903C81.72 53.1103 82.52 53.4303 83.38 53.7403C84.24 54.0503 85.04 54.3003 85.77 54.5103C86.94 54.8403 88.06 55.0603 89.11 55.1803C90.16 55.3003 91.07 55.2703 91.85 55.1203C92.63 54.9703 93.25 54.6803 93.7 54.2603C94.16 53.8403 94.39 53.2703 94.41 52.5503C94.43 51.9603 94.3 51.4403 94.05 50.9903C93.8 50.5303 93.46 50.1503 93.06 49.8203ZM85.44 42.8803C85.66 42.9103 85.93 42.9503 86.25 43.0003C86.57 43.0503 86.89 43.1103 87.23 43.1803C88.35 43.4003 89.22 43.7103 89.85 44.1403C90.48 44.5703 90.78 45.1303 90.73 45.8003C90.68 46.5003 90.32 46.9703 89.65 47.2003C88.98 47.4303 88.03 47.4203 86.82 47.1403C86.04 46.9603 85.65 46.8703 84.87 46.6703C85.1 45.1703 85.21 44.4103 85.44 42.8803ZM90.95 53.0103C90.67 53.2503 90.29 53.4103 89.82 53.4803C89.35 53.5503 88.81 53.5503 88.21 53.4803C87.6 53.4103 86.96 53.2803 86.27 53.0903C85.87 52.9803 85.47 52.8703 85.06 52.7403C84.65 52.6103 84.32 52.5003 84.06 52.4003C84.31 50.6803 84.44 49.8203 84.69 48.1003C85.6 48.3403 86.06 48.4603 86.97 48.6703C87.62 48.8203 88.23 48.9903 88.78 49.1903C89.34 49.3803 89.81 49.6103 90.21 49.8703C90.61 50.1303 90.92 50.4303 91.14 50.7803C91.36 51.1303 91.46 51.5203 91.43 51.9703C91.38 52.4203 91.23 52.7703 90.95 53.0103Z" fill="#FFC40C"/>
<path d="M106.23 47.79C105.25 47.22 103.91 46.97 102.16 46.96C101.5 46.96 100.81 46.98 100.09 47.03C99.38 47.08 98.26 47.09 98.13 47.26C98.01 47.4 98.4 48.69 98.66 48.79C98.89 48.88 99.71 48.65 100.25 48.6C100.79 48.55 101.37 48.54 102 48.55C103.01 48.57 103.8 48.72 104.36 49.02C104.92 49.32 105.24 49.86 105.32 50.64C105.33 50.79 105.34 50.87 105.35 51.02C105.09 51 104.78 50.97 104.4 50.95C104.02 50.93 103.54 50.91 102.96 50.9C102.17 50.88 101.43 50.92 100.72 51.02C100.01 51.12 99.38 51.28 98.84 51.5C98.29 51.73 97.86 52.02 97.53 52.4C97.21 52.77 97.04 53.23 97.04 53.77C97.04 54.32 97.19 54.81 97.48 55.23C97.77 55.66 98.19 56.03 98.73 56.34C99.27 56.65 99.93 56.91 100.71 57.1C101.49 57.29 102.36 57.42 103.32 57.48C104.34 57.54 105.34 57.53 106.31 57.44C107.28 57.35 108.1 57.25 108.77 57.13C108.45 54.54 108.29 53.25 107.97 50.66C107.79 49.32 107.21 48.36 106.23 47.79ZM104.55 55.92C104.08 55.93 103.62 55.93 103.18 55.91C102.83 55.89 102.46 55.86 102.08 55.8C101.69 55.75 101.33 55.65 101.01 55.51C100.69 55.37 100.42 55.18 100.2 54.95C99.98 54.71 99.87 54.41 99.86 54.02C99.84 53.42 100.13 53 100.73 52.74C101.32 52.48 102.19 52.38 103.35 52.42C103.65 52.43 104.01 52.45 104.44 52.48C104.87 52.51 105.23 52.54 105.51 52.57C105.63 53.86 105.7 54.51 105.82 55.81C105.43 55.87 105.02 55.9 104.55 55.92Z" fill="#FFC40C"/>
<path d="M121.51 45.7103C120.59 45.1703 119.41 45.0803 117.92 45.3903C117.4 45.5003 116.93 45.6503 116.51 45.8603C116.09 46.0603 115.74 46.2803 115.43 46.5303C115.13 46.7803 114.86 47.0403 114.64 47.3103C114.42 47.5903 114.13 48.1203 114.11 48.1203C114.11 48.1203 113.98 47.5903 113.86 47.2503C113.74 46.9003 113.63 46.4903 113.54 46.4303C113.47 46.3803 113.16 46.4303 113 46.4403C112.83 46.4503 112.66 46.4603 112.47 46.4903C112.28 46.5103 112.1 46.5403 111.92 46.5803C111.74 46.6203 111.56 46.6603 111.37 46.7103C111.96 50.2303 112.55 53.7403 113.15 57.2603C113.37 57.2703 113.62 57.2803 113.89 57.2803C114.17 57.2803 114.41 57.2703 114.63 57.2503C114.85 57.2303 115.08 57.2103 115.34 57.1703C115.6 57.1303 115.83 57.0903 116.04 57.0503C115.61 54.8903 115.4 53.8003 114.96 51.6403C114.83 50.9903 114.83 50.4203 114.94 49.9203C115.05 49.4303 115.25 49.0103 115.52 48.6703C115.79 48.3303 116.13 48.0503 116.54 47.8303C116.94 47.6203 117.39 47.4603 117.87 47.3703C118.7 47.2103 119.37 47.3203 119.87 47.7103C120.38 48.1003 120.77 48.8003 121.04 49.8103C121.72 52.3503 122.06 53.6203 122.74 56.1503C122.96 56.1403 123.2 56.1203 123.47 56.0903C123.73 56.0603 123.97 56.0203 124.18 55.9803C124.39 55.9403 124.63 55.8903 124.89 55.8203C125.15 55.7503 125.39 55.6803 125.59 55.6103C124.76 52.8203 124.34 51.4303 123.51 48.6403C123.11 47.2303 122.42 46.2503 121.51 45.7103Z" fill="#FFC40C"/>
<path d="M134.01 41.2802C132.88 40.9902 131.55 41.1902 129.94 41.8202C129.33 42.0602 128.71 42.3402 128.07 42.6702C127.44 43.0002 126.44 43.4502 126.36 43.6702C126.28 43.9102 127.18 45.2202 127.44 45.2302C127.65 45.2402 128.34 44.6702 128.82 44.4102C129.3 44.1502 129.82 43.9202 130.4 43.7002C131.34 43.3502 132.12 43.2302 132.75 43.3602C133.38 43.4902 133.89 43.9902 134.27 44.8502C134.34 45.0202 134.38 45.1002 134.45 45.2602C134.2 45.3302 133.9 45.4202 133.54 45.5302C133.18 45.6402 132.74 45.8002 132.19 46.0102C131.46 46.2802 130.79 46.6102 130.17 46.9802C129.55 47.3602 129.04 47.7802 128.63 48.2602C128.21 48.7302 127.93 49.2402 127.78 49.8002C127.63 50.3602 127.65 50.9402 127.86 51.5602C128.07 52.1902 128.39 52.7002 128.82 53.0702C129.25 53.4402 129.78 53.7102 130.39 53.8502C131.01 54.0002 131.72 54.0302 132.51 53.9402C133.3 53.8502 134.16 53.6602 135.07 53.3602C136.04 53.0402 136.96 52.6502 137.83 52.1802C138.7 51.7202 139.42 51.2902 140 50.9202C138.69 48.1102 138.04 46.7102 136.73 43.8902C136.05 42.4402 135.13 41.5702 134.01 41.2802ZM135.62 51.1202C135.19 51.3202 134.76 51.4802 134.34 51.6302C134.01 51.7402 133.66 51.8402 133.28 51.9302C132.9 52.0202 132.53 52.0502 132.18 52.0102C131.83 51.9702 131.51 51.8602 131.21 51.6802C130.92 51.5002 130.69 51.1802 130.54 50.7502C130.29 50.0702 130.4 49.4702 130.84 48.9502C131.29 48.4302 132.05 47.9902 133.13 47.5902C133.41 47.4902 133.75 47.3802 134.16 47.2602C134.57 47.1402 134.91 47.0402 135.18 46.9702C135.8 48.4002 136.11 49.1102 136.72 50.5302C136.42 50.7302 136.04 50.9302 135.62 51.1202Z" fill="#FFC40C"/>
<path d="M147.47 33.6799C146.38 33.3899 145.24 33.6899 143.96 34.5299C143.51 34.8299 143.13 35.1599 142.82 35.5199C142.51 35.8899 142.26 36.2599 142.08 36.6299C141.89 37.0099 141.75 37.3899 141.65 37.7699C141.55 38.1499 141.49 38.8499 141.48 38.8499C141.48 38.8499 141.15 38.3099 140.9 37.9599C140.65 37.6099 140.38 37.1799 140.28 37.1499C140.2 37.1299 139.93 37.2799 139.78 37.3499C139.63 37.4199 139.47 37.4999 139.3 37.5899C139.13 37.6799 138.97 37.7799 138.82 37.8799C138.67 37.9799 138.52 38.0899 138.36 38.2099C140.3 41.9499 142.23 45.6899 144.16 49.4399C144.37 49.3799 144.61 49.2899 144.87 49.1899C145.13 49.0899 145.35 48.9899 145.55 48.8899C145.75 48.7899 145.96 48.6799 146.19 48.5499C146.42 48.4199 146.63 48.2899 146.8 48.1599C145.55 45.8899 144.92 44.7499 143.66 42.4799C143.28 41.7999 143.05 41.1599 142.96 40.5699C142.87 39.9799 142.89 39.4499 143.01 38.9699C143.13 38.4899 143.34 38.0699 143.63 37.6899C143.93 37.3099 144.28 36.9899 144.7 36.7199C145.42 36.2599 146.09 36.1599 146.72 36.4199C147.36 36.6899 148 37.3299 148.66 38.3499C150.31 40.9299 151.13 42.2199 152.78 44.7999C152.99 44.7099 153.21 44.6099 153.44 44.4799C153.68 44.3499 153.89 44.2299 154.07 44.1099C154.26 43.9899 154.46 43.8499 154.69 43.6799C154.91 43.5099 155.11 43.3599 155.27 43.2099C153.69 40.8799 152.11 38.5499 150.53 36.2199C149.59 34.8199 148.55 33.9699 147.47 33.6799Z" fill="#FFC40C"/>
<path d="M157.62 24.7001C156.42 24.7501 155.21 25.4101 153.93 26.6201C153.44 27.0801 152.96 27.5901 152.49 28.1601C152.02 28.7301 151.25 29.5401 151.26 29.8201C151.27 30.1501 152.67 31.2401 152.91 31.1701C153.08 31.1201 153.55 30.2601 153.9 29.8201C154.25 29.3801 154.66 28.9501 155.13 28.5201C155.89 27.8201 156.59 27.4401 157.25 27.3701C157.91 27.3101 158.6 27.6801 159.3 28.4901C159.44 28.6501 159.5 28.7301 159.64 28.8801C159.43 29.0301 159.17 29.2301 158.88 29.4801C158.58 29.7201 158.21 30.0501 157.77 30.4501C157.18 30.9901 156.66 31.5701 156.23 32.1901C155.79 32.8101 155.47 33.4501 155.26 34.1001C155.05 34.7601 154.99 35.4201 155.06 36.0801C155.14 36.7401 155.39 37.3801 155.84 37.9901C156.3 38.6201 156.8 39.0601 157.36 39.3301C157.92 39.5901 158.52 39.7101 159.17 39.6601C159.82 39.6101 160.51 39.4101 161.24 39.0401C161.96 38.6701 162.71 38.1701 163.47 37.5301C164.28 36.8501 165.01 36.1101 165.66 35.3101C166.31 34.5101 166.84 33.8001 167.26 33.2001C165.27 31.0201 163.28 28.8301 161.3 26.6501C160.04 25.2801 158.81 24.6401 157.62 24.7001ZM163.09 34.8901C162.75 35.2501 162.41 35.5801 162.06 35.8801C161.79 36.1101 161.49 36.3401 161.16 36.5701C160.83 36.8001 160.49 36.9501 160.14 37.0301C159.79 37.1101 159.43 37.1001 159.08 36.9901C158.73 36.8901 158.39 36.6201 158.06 36.2001C157.55 35.5401 157.42 34.8501 157.64 34.1301C157.86 33.4101 158.41 32.6701 159.29 31.8801C159.52 31.6801 159.8 31.4401 160.15 31.1701C160.5 30.9001 160.78 30.6801 161.02 30.5101C162.18 31.8601 162.76 32.5301 163.93 33.8801C163.71 34.1901 163.43 34.5301 163.09 34.8901Z" fill="#FFC40C"/>
<path opacity="0.2" d="M97.82 145C79.04 148.65 44.11 141.69 13 145.37C13 145.37 -4.12 147.99 6.8 150.08C6.8 150.08 83.25 154.57 96.03 154.57C108.82 154.57 186.3 156.42 192.77 152.26C199.24 148.1 116.6 141.34 97.82 145Z" fill="black"/>
<path opacity="0.2" d="M123.33 145.38C117.45 145.25 71.79 146.92 68.19 146.02C64.59 145.12 57.79 148.05 63.4 148.78C63.4 148.78 78.72 150.81 89.14 151.9C99.56 152.99 165.16 152.84 168.87 150.08C172.57 147.32 129.21 145.51 123.33 145.38Z" fill="black"/>
<path d="M168.48 116.98C166.04 114.62 158.74 111.36 158.74 111.36C133.39 113.16 113.53 107.47 99.73 94.4199C99.56 94.2599 99.39 94.0999 99.22 93.9299C75 70.4899 68.77 24.3099 68.78 23.9099C68.78 23.9099 67.9 15.6299 56.75 11.1699L47.96 11.7099C47.96 11.7099 38.58 19.1799 39.01 29.4999C38.96 31.7799 38.22 85.3999 73.98 120.02C74.17 120.2 74.36 120.39 74.55 120.57C96.07 141.05 125.26 150.14 161.32 147.57C169.42 144.89 167.53 144.42 175.25 139.29C182.97 134.16 194.34 131.77 194.34 131.77L186.61 124.29C171.95 133.33 170.92 119.34 168.48 116.98Z" fill="#EBB40B"/>
<path d="M170.66 134C161.35 138.42 115.66 142.06 78.11 105.47C40.55 68.8802 51.06 22.0202 54.98 13.6402C55.53 12.4602 55.84 11.3902 55.97 10.4102L47.97 11.7102C47.97 11.7102 38.59 19.1802 39.02 29.5002C38.97 31.7802 38.23 85.4002 73.99 120.02C74.18 120.2 74.37 120.39 74.56 120.57C96.08 141.05 125.27 150.14 161.33 147.57C169.43 144.89 167.54 144.42 175.26 139.29C182.98 134.16 194.35 131.77 194.35 131.77C194.35 131.77 179.97 129.58 170.66 134Z" fill="#CC9909"/>
<path opacity="0.1" d="M184.77 125.34L188.11 130.12C188.11 130.12 178.78 137.47 177.42 134.83C176.06 132.2 175.4 126.71 175.4 126.71C174.41 126.27 173.6 125.6 172.91 124.82C172.91 124.82 174.25 131.41 173.14 134.01C172.03 136.61 164.97 140.82 163.12 141.65C161.26 142.48 114.65 154.91 74.57 113.44C74.57 113.44 42.07 86.0299 39.65 24.1499C39.19 25.8099 38.94 27.5999 39.02 29.4799C38.97 31.7599 38.23 85.3799 73.99 120C74.18 120.18 74.37 120.37 74.56 120.55C96.08 141.03 125.27 150.12 161.33 147.55C169.43 144.87 167.54 144.4 175.26 139.27C182.98 134.14 194.35 131.75 194.35 131.75L186.62 124.27C185.97 124.68 185.36 125.03 184.77 125.34Z" fill="#5B3013"/>
<path opacity="0.3" d="M184.77 125.34L188.11 130.12C188.11 130.12 178.78 137.47 177.42 134.83C176.06 132.2 175.4 126.71 175.4 126.71C175.05 126.55 174.72 126.37 174.41 126.15C174.41 126.15 175.52 136.78 175.26 139.27C182.98 134.14 194.35 131.75 194.35 131.75L186.62 124.27C185.97 124.68 185.36 125.03 184.77 125.34Z" fill="#5B3013"/>
<path d="M53.11 9.3501C53.11 9.3501 36.98 10.1201 39 29.5001C38.96 31.2401 38.52 63.1101 54.38 93.4901C67.63 90.0201 79.82 82.5901 86.87 77.9001C72.77 54.0301 68.76 24.2401 68.76 23.9101C68.78 23.9101 66.99 11.9701 53.11 9.3501Z" fill="#FFF799"/>
<path d="M51.56 9.3601C51.57 9.9401 53.12 67.7901 70.52 87.7901L70.84 87.5101C53.53 67.6301 51.99 9.9301 51.98 9.3501L51.56 9.3601Z" fill="#E0D680"/>
<path d="M65.01 35.7002C58.94 11.0202 56.01 10.2102 55.69 10.2002L55.65 10.6202C55.77 10.6502 58.64 11.6002 64.59 35.8002C69.51 55.7902 75.63 69.3302 78.25 75.1102C78.89 76.5102 79.31 77.4402 79.36 77.7002L79.78 77.6202C79.72 77.3102 79.34 76.4602 78.65 74.9302C76.04 69.1702 69.92 55.6502 65.01 35.7002Z" fill="#E0D680"/>
<path d="M43.96 26.3001C44.74 15.6201 48.08 11.8901 48.11 11.8501L47.8 11.5601C47.66 11.7101 44.34 15.3901 43.54 26.1801C42.8 36.0901 44.18 54.1601 54.9 83.9201L55.3 83.7801C44.62 54.1501 43.24 36.1701 43.96 26.3001Z" fill="#E0D680"/>
<path d="M68.2599 83.0999C67.1699 83.6799 66.4699 84.4899 66.6899 84.9099C66.9099 85.3299 67.9799 85.1999 69.0599 84.6199C70.1499 84.0399 70.8499 83.2299 70.6299 82.8099C70.4099 82.3899 69.3499 82.5199 68.2599 83.0999Z" fill="#E0D680"/>
<path d="M64.96 76.91C63.87 77.49 63.17 78.3 63.39 78.72C63.61 79.14 64.68 79.01 65.76 78.43C66.85 77.85 67.55 77.04 67.33 76.62C67.11 76.2 66.05 76.33 64.96 76.91Z" fill="#E0D680"/>
<path d="M62.2799 70.4501C61.1099 70.8501 60.2999 71.5401 60.4499 71.9901C60.6099 72.4401 61.6699 72.4701 62.8399 72.0701C64.0099 71.6701 64.8199 70.9801 64.6699 70.5301C64.5199 70.0801 63.4499 70.0401 62.2799 70.4501Z" fill="#E0D680"/>
<path d="M59.99 63.8098C58.82 64.2098 58.01 64.8998 58.16 65.3498C58.31 65.7998 59.38 65.8298 60.55 65.4298C61.72 65.0298 62.54 64.3398 62.38 63.8898C62.23 63.4498 61.16 63.4098 59.99 63.8098Z" fill="#E0D680"/>
<path d="M57.98 57.0999C56.78 57.3699 55.89 57.9699 55.99 58.4299C56.09 58.8899 57.15 59.0399 58.36 58.7699C59.56 58.4999 60.45 57.8999 60.35 57.4399C60.25 56.9799 59.19 56.8299 57.98 57.0999Z" fill="#E0D680"/>
<path d="M56.43 50.2601C55.23 50.5301 54.34 51.1301 54.44 51.5901C54.54 52.0501 55.61 52.2001 56.81 51.9301C58.01 51.6601 58.9 51.0601 58.8 50.6001C58.69 50.1401 57.63 49.9901 56.43 50.2601Z" fill="#E0D680"/>
<path d="M54.9799 43.4001C53.7599 43.5801 52.8299 44.1001 52.8999 44.5701C52.9699 45.0401 54.0099 45.2701 55.2299 45.0901C56.4499 44.9101 57.3799 44.3901 57.3099 43.9201C57.2499 43.4501 56.1999 43.2201 54.9799 43.4001Z" fill="#E0D680"/>
<path d="M53.96 36.4496C52.74 36.6296 51.81 37.1496 51.88 37.6196C51.95 38.0896 52.99 38.3196 54.21 38.1396C55.43 37.9596 56.36 37.4396 56.29 36.9696C56.23 36.5096 55.18 36.2696 53.96 36.4496Z" fill="#E0D680"/>
<path d="M53.0399 29.4998C51.8099 29.6098 50.8499 30.0798 50.8899 30.5498C50.9299 31.0198 51.9599 31.3198 53.1899 31.2098C54.4199 31.0998 55.3799 30.6298 55.3399 30.1598C55.2899 29.6898 54.2599 29.3898 53.0399 29.4998Z" fill="#E0D680"/>
<path d="M52.4199 22.5101C51.1899 22.6201 50.2299 23.0901 50.2699 23.5601C50.3099 24.0301 51.3399 24.3301 52.5699 24.2201C53.7999 24.1101 54.7599 23.6401 54.7199 23.1701C54.6799 22.7001 53.6499 22.4001 52.4199 22.5101Z" fill="#E0D680"/>
<path d="M51.99 15.5098C50.76 15.5598 49.78 15.9898 49.8 16.4598C49.82 16.9298 50.84 17.2698 52.07 17.2198C53.3 17.1698 54.28 16.7398 54.26 16.2698C54.24 15.7898 53.22 15.4498 51.99 15.5098Z" fill="#E0D680"/>
<path d="M51.8 10.5799C50.57 10.5999 49.57 10.9899 49.58 11.4599C49.59 11.9299 50.59 12.2999 51.82 12.2899C53.05 12.2699 54.05 11.8799 54.04 11.4099C54.04 10.9299 53.03 10.5599 51.8 10.5799Z" fill="#E0D680"/>
<path d="M81.1 80.8701C80.04 81.5001 79.38 82.3401 79.62 82.7501C79.86 83.1601 80.92 82.9701 81.98 82.3401C83.04 81.7101 83.7 80.8701 83.46 80.4601C83.22 80.0601 82.16 80.2401 81.1 80.8701Z" fill="#E0D680"/>
<path d="M77.51 74.8398C76.45 75.4698 75.79 76.3098 76.03 76.7198C76.27 77.1298 77.33 76.9398 78.39 76.3098C79.45 75.6798 80.11 74.8398 79.87 74.4298C79.62 74.0298 78.57 74.2098 77.51 74.8398Z" fill="#E0D680"/>
<path d="M74.55 68.5099C73.4 68.9699 72.62 69.6899 72.79 70.1299C72.96 70.5699 74.04 70.5599 75.18 70.0999C76.33 69.6399 77.11 68.9199 76.94 68.4799C76.76 68.0399 75.69 68.0499 74.55 68.5099Z" fill="#E0D680"/>
<path d="M71.95 61.9899C70.8 62.4499 70.02 63.1699 70.19 63.6099C70.36 64.0499 71.44 64.0399 72.58 63.5799C73.73 63.1199 74.51 62.3999 74.34 61.9599C74.17 61.5199 73.1 61.5299 71.95 61.9899Z" fill="#E0D680"/>
<path d="M69.84 55.2997C68.66 55.6497 67.81 56.2997 67.94 56.7597C68.07 57.2097 69.14 57.2997 70.32 56.9497C71.5 56.5997 72.35 55.9497 72.22 55.4897C72.09 55.0297 71.03 54.9497 69.84 55.2997Z" fill="#E0D680"/>
<path d="M67.85 48.5697C66.67 48.9197 65.82 49.5697 65.95 50.0297C66.08 50.4797 67.15 50.5697 68.33 50.2197C69.51 49.8697 70.36 49.2197 70.23 48.7597C70.1 48.2997 69.03 48.2197 67.85 48.5697Z" fill="#E0D680"/>
<path d="M66.21 41.7499C65.01 42.0299 64.12 42.6299 64.23 43.0899C64.34 43.5499 65.4 43.6899 66.6 43.4099C67.8 43.1299 68.69 42.5299 68.58 42.0699C68.47 41.6099 67.41 41.4699 66.21 41.7499Z" fill="#E0D680"/>
<path d="M64.61 34.9199C63.41 35.1999 62.52 35.7999 62.63 36.2599C62.74 36.7199 63.8 36.8699 65 36.5799C66.2 36.2999 67.09 35.6999 66.98 35.2399C66.87 34.7799 65.81 34.6299 64.61 34.9199Z" fill="#E0D680"/>
<path d="M63.31 28.02C62.1 28.25 61.19 28.82 61.28 29.28C61.37 29.74 62.42 29.93 63.63 29.7C64.84 29.47 65.75 28.9 65.66 28.44C65.58 27.97 64.52 27.79 63.31 28.02Z" fill="#E0D680"/>
<path d="M62.09 21.1097C60.87 21.3097 59.95 21.8497 60.03 22.3197C60.11 22.7897 61.15 22.9997 62.37 22.7997C63.59 22.5997 64.51 22.0597 64.44 21.5897C64.36 21.1297 63.31 20.9097 62.09 21.1097Z" fill="#E0D680"/>
<path d="M58.92 14.5999C57.7 14.7699 56.76 15.2899 56.83 15.7599C56.9 16.2299 57.94 16.4699 59.16 16.2899C60.38 16.1199 61.32 15.5899 61.25 15.1299C61.19 14.6599 60.14 14.4199 58.92 14.5999Z" fill="#E0D680"/>
<path d="M44.75 17.5701C43.53 17.7401 42.59 18.2601 42.66 18.7301C42.73 19.2001 43.77 19.4401 44.99 19.2601C46.21 19.0901 47.15 18.5601 47.08 18.1001C47.01 17.6301 45.97 17.3901 44.75 17.5701Z" fill="#E0D680"/>
<path d="M60 90.7999C58.92 91.3999 58.24 92.2198 58.47 92.6398C58.7 93.0498 59.76 92.8999 60.84 92.2999C61.92 91.6999 62.6 90.8798 62.37 90.4598C62.13 90.0498 61.07 90.1999 60 90.7999Z" fill="#E0D680"/>
<path d="M56.57 84.6797C55.49 85.2797 54.81 86.0997 55.04 86.5197C55.27 86.9297 56.33 86.7797 57.41 86.1797C58.49 85.5797 59.17 84.7597 58.94 84.3397C58.71 83.9197 57.65 84.0797 56.57 84.6797Z" fill="#E0D680"/>
<path d="M53.68 78.3099C52.52 78.7299 51.71 79.4199 51.87 79.8699C52.03 80.3099 53.1 80.3399 54.26 79.9199C55.42 79.4999 56.23 78.7999 56.07 78.3599C55.91 77.9199 54.84 77.8999 53.68 78.3099Z" fill="#E0D680"/>
<path d="M51.31 71.71C50.15 72.13 49.34 72.82 49.5 73.27C49.66 73.72 50.73 73.74 51.89 73.32C53.05 72.9 53.86 72.21 53.7 71.76C53.54 71.31 52.47 71.29 51.31 71.71Z" fill="#E0D680"/>
<path d="M49.38 64.9701C48.18 65.2601 47.3 65.8701 47.42 66.3301C47.53 66.7901 48.59 66.9201 49.79 66.6301C50.99 66.3401 51.87 65.73 51.76 65.27C51.64 64.81 50.58 64.6701 49.38 64.9701Z" fill="#E0D680"/>
<path d="M47.71 58.1497C46.51 58.4397 45.63 59.0497 45.75 59.5097C45.86 59.9697 46.93 60.0997 48.12 59.8097C49.32 59.5197 50.2 58.9097 50.08 58.4497C49.97 57.9897 48.91 57.8597 47.71 58.1497Z" fill="#E0D680"/>
<path d="M46.4 51.2599C45.18 51.4699 44.27 52.0199 44.35 52.4799C44.43 52.9499 45.48 53.1499 46.7 52.9399C47.91 52.7299 48.83 52.1799 48.75 51.7199C48.66 51.2599 47.61 51.0499 46.4 51.2599Z" fill="#E0D680"/>
<path d="M45.2 44.3497C43.99 44.5597 43.07 45.1097 43.15 45.5697C43.23 46.0397 44.28 46.2397 45.5 46.0297C46.71 45.8197 47.63 45.2697 47.55 44.8097C47.47 44.3497 46.42 44.1397 45.2 44.3497Z" fill="#E0D680"/>
<path d="M44.34 37.3799C43.12 37.5299 42.17 38.0299 42.23 38.4999C42.29 38.9699 43.33 39.2299 44.55 39.0799C45.77 38.9299 46.72 38.4299 46.66 37.9599C46.61 37.4899 45.57 37.2299 44.34 37.3799Z" fill="#E0D680"/>
<path d="M43.62 30.41C42.39 30.52 41.43 30.98 41.47 31.45C41.51 31.92 42.54 32.22 43.77 32.11C45 32 45.96 31.54 45.92 31.07C45.88 30.6 44.85 30.3 43.62 30.41Z" fill="#E0D680"/>
<path d="M43.11 23.4099C41.88 23.4799 40.9 23.9299 40.93 24.3999C40.96 24.8699 41.98 25.1899 43.21 25.1199C44.44 25.0499 45.42 24.5999 45.39 24.1299C45.36 23.6599 44.34 23.3299 43.11 23.4099Z" fill="#E0D680"/>
<path d="M73.39 76.3699C73.22 77.1399 70.68 76.9399 70.68 76.9399L71.28 87.6399L80.35 82.9599C80.35 82.9699 73.56 75.5999 73.39 76.3699Z" fill="#EBB40B"/>
<path d="M123.08 83.8601C116.84 79.7701 102.27 83.7101 97.28 71.4101C92.54 59.7301 70.97 70.0201 68.82 77.7601C68.71 78.1701 68.65 78.5701 68.65 78.9701C68.66 86.7601 70.74 89.2901 70.74 89.2901C70.74 89.2901 73 90.6901 71.85 86.7601C71.85 86.7601 68.08 70.9401 77.03 80.2601C95.93 99.9501 99.91 97.6101 119.75 98.2801C119.75 98.2801 127.21 97.3301 130.28 92.9001C130.26 92.8801 129.32 87.9501 123.08 83.8601Z" fill="#F9C83E"/>
<path d="M58.42 84.0999C57.69 84.7599 60.36 93.0299 60.93 93.8899C61.49 94.7499 66.25 100.09 66.25 100.09L69.1 101.6L72.51 99.5499C72.51 99.5499 66.76 90.8199 66.66 89.1599C66.66 89.1599 59.15 83.4399 58.42 84.0999Z" fill="#CC9909"/>
<path d="M66.99 90.2301C68.88 87.3401 61.47 83.6301 59.04 83.2501C56.61 82.8701 40.52 84.0801 49.59 96.8801C58.66 109.68 61.95 130.53 70.68 127.1C79.41 123.67 60.63 88.3201 59.05 85.1601C57.46 81.9901 66.99 90.2301 66.99 90.2301Z" fill="#F9C83E"/>
<path opacity="0.2" d="M66.99 90.2301C68.88 87.3401 61.47 83.63 59.04 83.25C58.73 83.2 58.18 83.18 57.5 83.2C57.54 83.43 58.69 90.38 60.93 93.49C63.21 96.65 71.86 114.91 71.67 119.47C71.48 124.03 67.95 126.03 67.38 126.51C67.26 126.61 67.15 126.83 67.06 127.1C68.17 127.58 69.36 127.61 70.68 127.1C79.41 123.67 60.63 88.3201 59.05 85.1601C57.46 81.9901 66.99 90.2301 66.99 90.2301Z" fill="#5B3013"/>
<path opacity="0.3" d="M69.91 75.53C71.75 76.61 73.62 77.16 74.87 76.94C74.87 76.94 83.8 69.56 92.95 71.26C94.83 71.61 96.3 71.72 97.38 71.64C97.35 71.57 97.31 71.49 97.28 71.41C92.98 60.83 74.87 68.28 69.91 75.53Z" fill="white"/>
<path opacity="0.2" d="M102.23 96.2503C92.49 95.5903 77.09 77.6903 73.71 76.0803C70.33 74.4603 68.81 77.7603 68.81 77.7603C68.7 78.1703 68.64 78.5703 68.64 78.9703C68.65 86.7603 70.73 89.2903 70.73 89.2903C70.73 89.2903 72.99 90.6903 71.84 86.7603C71.84 86.7603 68.07 70.9403 77.02 80.2603C95.92 99.9503 99.9 97.6103 119.74 98.2803C119.74 98.2803 127.2 97.3303 130.27 92.9003C121.18 99.7803 111.97 96.9103 102.23 96.2503Z" fill="#5B3013"/>
<path opacity="0.2" d="M100.3 113.38C85.6 107.21 71.57 89.5201 71.57 89.5201L70.09 88.1001C78.74 105.37 99.91 115.97 101.09 115.03C102.27 114.08 100.3 113.38 100.3 113.38Z" fill="#5B3013"/>
<path opacity="0.2" d="M49.59 98.27L52.49 101.55C52.49 101.55 61.91 111.81 81.54 118.36C101.16 124.91 127.42 109.1 127.42 109.1L118.68 106.35C88.4 120.91 49.59 98.27 49.59 98.27Z" fill="#5B3013"/>
<path d="M161.41 82.1698C158.02 82.1698 150.5 84.9098 150.5 84.9098C133.54 103.84 115.31 113.55 96.32 113.78C96.08 113.78 95.85 113.78 95.62 113.78C61.91 113.78 25.32 84.9298 25.04 84.6398C25.04 84.6398 18.65 79.2998 7.53 83.8498H1.8L0 87.1398L1.6 90.3498C1.6 90.3498 0.0599999 102.24 7.54 109.36C9.09 111.03 45.85 150.08 95.63 150.08C95.89 150.08 96.16 150.08 96.42 150.08C126.13 149.83 153.42 136.06 177.54 109.14C181.5 101.58 179.81 102.55 181.79 93.4998C183.77 84.4398 190.28 74.8198 190.28 74.8198H179.53C175.28 91.5098 164.81 82.1698 161.41 82.1698Z" fill="#FFC40C"/>
<path d="M174.81 92.8898C171.19 102.54 140.9 136.93 88.47 136.76C36.04 136.59 11.01 95.6098 7.99 86.8598C7.57 85.6298 7.04 84.6498 6.45 83.8498H1.8L0 87.1398L1.6 90.3498C1.6 90.3498 0.0599999 102.24 7.54 109.36C9.09 111.03 45.85 150.08 95.63 150.08C95.89 150.08 96.16 150.08 96.42 150.08C126.13 149.83 153.42 136.06 177.54 109.14C181.5 101.58 179.81 102.55 181.79 93.4998C183.77 84.4398 190.28 74.8198 190.28 74.8198C190.28 74.8198 178.43 83.2298 174.81 92.8898Z" fill="#E0A80A"/>
<path opacity="0.3" d="M152.79 90.47C149.47 91.68 146.76 96.2 143.14 99.22C139.52 102.24 112.85 122.45 76.1 118.83C39.36 115.21 18.85 87.46 18.85 87.46V90.48C18.85 90.48 37.74 119.74 76.41 122.46C76.41 122.46 116.29 126.68 146.45 100.74C146.45 100.74 155.8 91.69 159.42 90.48C159.43 90.47 156.11 89.27 152.79 90.47Z" fill="white"/>
<path opacity="0.1" d="M178.93 76.8598L184.66 77.9698C184.66 77.9698 183.06 89.7398 180.25 88.7898C177.44 87.8398 173.15 84.3598 173.15 84.3598C172.13 84.7298 171.08 84.8198 170.04 84.7398C170.04 84.7398 175.59 88.5398 176.59 91.1798C177.6 93.8198 175.46 101.75 174.7 103.64C173.94 105.53 149.09 146.88 91.46 144.96C91.46 144.96 49.05 147.87 4.27002 105.09C5.10002 106.6 6.16002 108.06 7.52002 109.36C9.07002 111.03 45.83 150.08 95.61 150.08C95.87 150.08 96.14 150.08 96.4 150.08C126.11 149.83 153.4 136.06 177.52 109.14C181.48 101.58 179.79 102.55 181.77 93.4998C183.75 84.4398 190.26 74.8198 190.26 74.8198H179.51C179.34 75.5398 179.14 76.2198 178.93 76.8598Z" fill="#5B3013"/>
<path opacity="0.3" d="M1.8 83.8398L0 87.1398L1.6 90.3498C2.02 88.9498 5.69 85.4099 6.6 84.5499C6.72 84.4399 6.79 84.3698 6.8 84.3598C6.69 84.1798 6.57 84.0098 6.45 83.8398H1.8Z" fill="#5B3013"/>
<path opacity="0.3" d="M0 87.1398L1.6 90.3498L4.76 86.3598L1.8 83.8398L0 87.1398Z" fill="#5B3013"/>
<path opacity="0.3" d="M178.93 76.8598L184.66 77.9698C184.66 77.9698 183.06 89.7398 180.25 88.7898C177.44 87.8398 173.15 84.3598 173.15 84.3598C172.79 84.4898 172.42 84.5898 172.05 84.6498C172.05 84.6498 180.25 91.5198 181.79 93.4798C183.77 84.4198 190.28 74.7998 190.28 74.7998H179.53C179.34 75.5398 179.14 76.2198 178.93 76.8598Z" fill="#5B3013"/>
</svg>
