<svg width="256" height="191" viewBox="0 0 256 191" fill="none" xmlns="http://www.w3.org/2000/svg">
<path opacity="0.2" d="M119.65 173.74C101.96 171.21 44.3801 171.99 30.9901 171.64C19.0901 171.33 0.590053 172.48 0.0100528 177.67C-0.569947 182.86 15.1301 183.53 38.6001 184.55C62.0701 185.57 127.37 182.72 126.78 178.79C126.21 174.85 119.65 173.74 119.65 173.74Z" fill="black"/>
<path opacity="0.2" d="M115.22 175.83C110.86 175.18 81.4701 175.18 74.0601 174.94C66.6601 174.7 52.2801 179.75 69.7001 180.4C87.1201 181.05 122.18 177.39 122.18 177.39C123.06 176.11 119.57 176.48 115.22 175.83Z" fill="black"/>
<path d="M96.2501 76.05C72.8901 46.92 72.3901 23.4 63.8701 18.1C55.4201 12.84 40.2101 11.65 27.0801 19.38C27.0301 19.41 26.9801 19.44 26.9301 19.47C26.8801 19.5 26.8301 19.53 26.7801 19.56C13.7901 27.53 7.70007 41.52 8.38007 51.45C9.07007 61.46 29.6001 72.93 44.3601 107.23C59.1201 141.53 49.0901 135.82 60.9801 156.28C72.8601 176.74 113.56 177.38 113.56 177.38C118.3 177.34 120.35 176.12 120.86 175.75C121.43 175.47 123.47 174.24 125.73 170.07C125.73 170.07 144.26 133.83 131.77 113.73C119.28 93.65 119.61 105.17 96.2501 76.05Z" fill="#8F9100"/>
<path d="M72.2101 65.71C57.3701 46.44 51.7601 24.5 49.8101 13.95C42.6401 13.48 34.5301 15 27.0801 19.38C27.0301 19.41 26.9801 19.44 26.9301 19.47C26.8801 19.5 26.8301 19.53 26.7801 19.56C13.7901 27.53 7.70007 41.52 8.38007 51.45C9.07007 61.46 29.6001 72.93 44.3601 107.23C59.1201 141.53 49.0901 135.82 60.9801 156.28C66.4001 165.6 77.8001 170.81 88.6001 173.72C88.6301 173.72 88.6601 173.73 88.6901 173.74C125.58 180.32 121.25 158.74 119.57 135.17C117.88 111.59 92.6301 92.23 72.2101 65.71Z" fill="#757503"/>
<g opacity="0.3">
<path d="M27.0801 19.3797C27.0301 19.4097 26.9801 19.4397 26.9301 19.4697C26.8801 19.4997 26.8301 19.5297 26.7801 19.5597C21.9301 22.5297 18.0501 26.3397 15.1201 30.4697C15.3801 30.1697 20.9601 23.9897 26.6401 28.6897C32.4601 33.5097 40.6901 25.8797 41.0901 21.4697C41.4001 18.0997 42.9801 14.8297 45.0301 13.9497C39.1501 14.2797 32.9101 15.9497 27.0801 19.3797Z" fill="#474702"/>
<path d="M47.3201 13.8696C47.2301 13.8696 47.1301 13.8696 47.0401 13.8696C47.2601 13.9496 47.3401 13.9396 47.3201 13.8696Z" fill="#474702"/>
</g>
<path d="M96.2501 76.0501C72.8901 46.9201 72.3901 23.4001 63.8701 18.1001C63.2901 17.7401 62.6701 17.4001 62.0301 17.0801C62.0301 17.0801 73.2601 72.0301 112.41 101.5C151.56 130.96 121.27 177.03 109.05 177.15C111.86 177.37 113.56 177.4 113.56 177.4C118.3 177.36 120.35 176.14 120.86 175.77C121.43 175.49 123.47 174.26 125.73 170.09C125.73 170.09 144.26 133.85 131.77 113.75C119.28 93.6501 119.61 105.17 96.2501 76.0501Z" fill="#CEB319"/>
<path opacity="0.5" d="M14.69 31.1099C10.07 37.8799 7.97002 45.4099 8.39002 51.4499C9.08002 61.4599 29.61 72.9299 44.37 107.23C50.26 120.91 52.2 128.23 53.16 133.38C55.55 117.43 49.61 92.4699 32.44 74.9699C17.01 59.2599 14.67 40.9299 14.69 31.1099Z" fill="#CEB319"/>
<path opacity="0.3" d="M70.3001 142.67C59.7001 147.59 76.2701 169.49 99.0601 168.41C99.0601 168.41 80.9001 137.75 70.3001 142.67Z" fill="white"/>
<path opacity="0.3" d="M23.8701 23.4001C23.8701 23.4001 29.4701 29.3001 34.9601 25.1301C40.4501 20.9601 38.1101 16.0801 38.1101 16.0801C38.1101 16.0801 25.1201 19.8501 23.8701 23.4001Z" fill="#474702"/>
<path opacity="0.3" d="M45.64 13.8701C37.04 13.6401 28.42 18.8801 28.52 23.6101C28.52 23.6101 42.71 24.9101 51.09 21.3601C59.47 17.8101 54.25 14.1001 45.64 13.8701Z" fill="#474702"/>
<path d="M27.94 5.60004C27.33 2.85004 29.16 1.84004 24.89 0.21004C20.62 -1.41996 12.17 7.03004 18.38 8.04004C24.59 9.06004 28.85 23.6 28.85 23.6C33.43 24.52 35.97 21.16 34.86 19.84C33.74 18.52 28.55 8.35004 27.94 5.60004Z" fill="#594731"/>
<path d="M25.6501 4.67988C26.3101 4.16988 26.3101 2.12988 26.3101 2.12988C26.3101 2.12988 24.8901 4.67988 21.9401 5.17988C21.9401 5.17988 29.4601 19.3899 30.0701 21.3399C30.6801 23.2899 34.0401 22.2699 33.1301 20.8499C32.2101 19.4299 24.9801 5.18988 25.6501 4.67988Z" fill="#42311F"/>
<path d="M16.23 5.64987C17.66 6.54987 20.59 7.11987 25.64 3.02987C26.31 2.49987 26.84 1.99987 27.27 1.52987C26.85 1.09987 26.13 0.679871 24.89 0.209871C21.88 -0.940129 16.79 2.91987 16.23 5.64987Z" fill="#967D2D"/>
<path opacity="0.2" d="M236.13 179.99C218.89 180.67 141.85 184.05 136.09 182.45C136.09 182.45 126.4 181.71 124.01 184.69C121.62 187.67 139.54 190.4 156.43 190.4C173.32 190.4 228.61 187.33 243.96 187.33C259.33 187.33 253.37 179.31 236.13 179.99Z" fill="black"/>
<path opacity="0.2" d="M143.31 184.15C139.11 184.67 134.27 185.82 138.17 186.15C138.17 186.15 159 188.18 162.53 186.15C166.06 184.13 147.52 183.63 143.31 184.15Z" fill="black"/>
<path opacity="0.2" d="M227.68 183.26C231.76 185.48 244.77 183.26 244.77 183.26C248.95 181.42 223.6 181.05 227.68 183.26Z" fill="black"/>
<path d="M242.15 131.14C235.24 127.27 218.79 135.88 189.75 130.81C160.71 125.75 168.81 121.59 150.16 120.6C131.51 119.62 113.5 146.23 113.5 146.23C111.48 149.38 111.4 151.26 111.43 151.76C111.37 152.26 111.3 154.13 113.08 157.43C113.08 157.43 129.02 185.33 147.69 185.76C166.36 186.19 158.6 181.43 187.94 178.58C217.28 175.73 233.03 185.56 240.21 182.22C247.34 178.91 254.7 169.37 255.26 157.35H255.27C255.27 157.3 255.27 157.26 255.27 157.21C255.27 157.16 255.28 157.12 255.28 157.07C255.62 145.05 249 134.98 242.15 131.14Z" fill="#F2ED51"/>
<path d="M241.17 132.88C240.32 132.4 239.14 132.15 237.55 132.11C235.14 132.04 231.95 132.45 228.25 132.93C222.24 133.71 214.76 134.67 205.43 134.41C200.13 134.26 194.74 133.71 189.4 132.78C174.32 130.15 168.92 127.68 164.97 125.88C161.25 124.18 158.79 123.06 150.04 122.6C149.9 122.59 149.76 122.59 149.62 122.58C132.44 122.09 115.31 147.1 115.14 147.35C113.36 150.13 113.41 151.6 113.41 151.66L113.42 151.84L113.4 152.02C113.39 152.08 113.23 153.54 114.82 156.49C114.95 156.72 130.35 183.28 147.63 183.77H147.72C156.48 183.97 159.01 183.04 162.85 181.62C166.92 180.12 172.49 178.07 187.73 176.59C192.43 176.13 197.15 175.97 201.76 176.1C212.06 176.39 220.06 178.05 226.48 179.38C230.43 180.2 233.55 180.85 236.01 180.92C237.44 180.96 238.54 180.8 239.36 180.41C245.87 177.39 252.73 168.47 253.25 157.26L253.26 157.02C253.6 145.8 247.43 136.39 241.17 132.88Z" fill="#C1BC1F"/>
<path opacity="0.2" d="M254.47 149.14C254.26 149.29 253 149.09 218.97 142.92C167.29 133.55 125.08 145.45 121.11 149.59C117.15 153.74 137.46 177.96 154.53 176.69C171.59 175.43 215.13 168.51 227.25 174.45C232.32 176.93 239.48 179.36 245.45 178.64C250.57 174 254.83 166.37 255.25 157.33H255.26C255.26 157.28 255.26 157.24 255.26 157.19C255.26 157.14 255.27 157.1 255.27 157.05C255.35 154.3 255.05 151.65 254.47 149.14Z" fill="#474702"/>
<path d="M186.87 142.01C137.54 140.61 122.52 150.59 122.52 150.59C122.52 150.59 137.8 164.53 187.84 165.6C226.99 166.44 245.73 154.08 245.73 154.08C245.73 154.08 236.19 143.41 186.87 142.01Z" fill="#F27911"/>
<path d="M244.17 152.859C244.17 152.859 229.97 162.069 187.72 162.009C152.35 161.949 130.1 152.859 123.78 149.899C122.91 150.329 122.51 150.599 122.51 150.599C122.51 150.599 137.79 164.539 187.83 165.609C226.98 166.449 245.72 154.089 245.72 154.089C245.72 154.089 245.29 153.619 244.17 152.859Z" fill="#FFF100"/>
<path d="M122.51 150.59C187.74 136.19 233.95 149.58 244.74 153.25C241.32 150.71 227.79 143.17 186.87 142.01C137.53 140.61 122.51 150.59 122.51 150.59Z" fill="#B25E1F"/>
<path opacity="0.2" d="M165.39 152.85C163.75 152.8 162.39 154.09 162.34 155.73C162.29 157.37 163.58 158.73 165.22 158.78C166.86 158.83 168.22 157.54 168.27 155.9C168.32 154.26 167.03 152.89 165.39 152.85Z" fill="#474702"/>
<path d="M165.4 152.31C163.76 152.26 162.4 153.56 162.35 155.19C162.3 156.83 163.59 158.19 165.23 158.24C166.87 158.29 168.23 157 168.28 155.36C168.33 153.72 167.04 152.35 165.4 152.31Z" fill="#3B2314"/>
<path opacity="0.3" d="M164.66 153.299C163.97 153.279 163.4 153.829 163.38 154.509C163.36 155.199 163.9 155.769 164.59 155.789C165.28 155.809 165.85 155.269 165.87 154.579C165.9 153.889 165.35 153.319 164.66 153.299Z" fill="white"/>
<path opacity="0.2" d="M167.47 146.19C165.83 146.14 164.47 147.43 164.42 149.07C164.37 150.71 165.66 152.07 167.3 152.12C168.94 152.17 170.3 150.88 170.35 149.24C170.4 147.6 169.11 146.24 167.47 146.19Z" fill="#474702"/>
<path d="M167.48 145.65C165.84 145.6 164.48 146.89 164.43 148.53C164.38 150.17 165.67 151.53 167.31 151.58C168.95 151.63 170.31 150.34 170.36 148.7C170.41 147.07 169.12 145.7 167.48 145.65Z" fill="#3B2314"/>
<path opacity="0.3" d="M166.74 146.64C166.05 146.62 165.48 147.17 165.46 147.85C165.44 148.54 165.98 149.11 166.67 149.13C167.36 149.15 167.93 148.61 167.95 147.92C167.98 147.24 167.43 146.66 166.74 146.64Z" fill="white"/>
<path opacity="0.2" d="M175.49 146.12C173.85 146.07 172.49 147.37 172.44 149C172.39 150.64 173.68 152 175.32 152.05C176.96 152.1 178.32 150.81 178.37 149.17C178.41 147.53 177.12 146.16 175.49 146.12Z" fill="#474702"/>
<path d="M175.5 145.58C173.86 145.53 172.5 146.82 172.45 148.46C172.4 150.1 173.69 151.46 175.33 151.51C176.97 151.56 178.33 150.27 178.38 148.63C178.43 146.99 177.14 145.62 175.5 145.58Z" fill="#3B2314"/>
<path opacity="0.3" d="M174.76 146.569C174.07 146.549 173.5 147.089 173.48 147.779C173.46 148.469 174 149.039 174.69 149.059C175.38 149.079 175.95 148.539 175.97 147.849C176 147.159 175.45 146.589 174.76 146.569Z" fill="white"/>
<path opacity="0.2" d="M182.13 151.53C180.49 151.48 179.13 152.78 179.08 154.41C179.03 156.05 180.32 157.41 181.96 157.46C183.6 157.51 184.96 156.22 185.01 154.58C185.06 152.95 183.77 151.58 182.13 151.53Z" fill="#474702"/>
<path d="M182.15 150.99C180.51 150.94 179.15 152.23 179.1 153.87C179.05 155.51 180.34 156.88 181.98 156.92C183.62 156.97 184.98 155.68 185.03 154.04C185.08 152.41 183.78 151.04 182.15 150.99Z" fill="#3B2314"/>
<path opacity="0.3" d="M181.41 151.98C180.72 151.96 180.15 152.5 180.13 153.19C180.11 153.88 180.65 154.45 181.34 154.47C182.03 154.49 182.6 153.95 182.62 153.26C182.64 152.58 182.1 152 181.41 151.98Z" fill="white"/>
<path opacity="0.2" d="M173.62 154.31C171.98 154.26 170.62 155.55 170.57 157.19C170.52 158.83 171.81 160.19 173.45 160.24C175.09 160.29 176.45 159 176.5 157.36C176.55 155.72 175.26 154.36 173.62 154.31Z" fill="#474702"/>
<path d="M173.64 153.769C172 153.719 170.64 155.019 170.59 156.649C170.54 158.289 171.83 159.649 173.47 159.699C175.11 159.749 176.47 158.459 176.52 156.819C176.57 155.179 175.28 153.819 173.64 153.769Z" fill="#3B2314"/>
<path opacity="0.3" d="M172.9 154.759C172.21 154.739 171.64 155.279 171.62 155.969C171.6 156.659 172.14 157.229 172.83 157.249C173.52 157.269 174.09 156.729 174.11 156.039C174.13 155.359 173.59 154.779 172.9 154.759Z" fill="white"/>
<path opacity="0.2" d="M156 150.05C154.36 150 153 151.29 152.95 152.93C152.9 154.57 154.19 155.93 155.83 155.98C157.47 156.03 158.83 154.74 158.88 153.1C158.93 151.47 157.64 150.1 156 150.05Z" fill="#474702"/>
<path d="M156.02 149.51C154.38 149.46 153.02 150.75 152.97 152.39C152.92 154.03 154.21 155.4 155.85 155.44C157.49 155.49 158.85 154.2 158.9 152.56C158.94 150.93 157.65 149.56 156.02 149.51Z" fill="#3B2314"/>
<path opacity="0.3" d="M155.28 150.5C154.59 150.48 154.02 151.02 154 151.71C153.98 152.4 154.52 152.97 155.21 152.99C155.9 153.01 156.47 152.47 156.49 151.78C156.51 151.1 155.97 150.52 155.28 150.5Z" fill="white"/>
<path opacity="0.2" d="M186.7 145.05C185.06 145 183.7 146.3 183.65 147.93C183.6 149.57 184.89 150.93 186.53 150.98C188.17 151.03 189.53 149.74 189.58 148.1C189.63 146.46 188.34 145.1 186.7 145.05Z" fill="#474702"/>
<path d="M186.72 144.51C185.08 144.46 183.72 145.75 183.67 147.39C183.62 149.03 184.91 150.39 186.55 150.44C188.19 150.49 189.55 149.2 189.6 147.56C189.65 145.92 188.36 144.56 186.72 144.51Z" fill="#3B2314"/>
<path opacity="0.3" d="M185.98 145.5C185.29 145.48 184.72 146.02 184.7 146.71C184.68 147.4 185.22 147.97 185.91 147.99C186.6 148.01 187.17 147.47 187.19 146.78C187.21 146.1 186.67 145.52 185.98 145.5Z" fill="white"/>
<path opacity="0.2" d="M193.33 152.83C191.69 152.78 190.33 154.07 190.28 155.71C190.23 157.35 191.52 158.71 193.16 158.76C194.8 158.81 196.16 157.51 196.21 155.88C196.26 154.24 194.97 152.88 193.33 152.83Z" fill="#474702"/>
<path d="M193.35 152.289C191.71 152.239 190.35 153.539 190.3 155.169C190.25 156.809 191.54 158.169 193.18 158.219C194.82 158.269 196.18 156.979 196.23 155.339C196.28 153.699 194.99 152.339 193.35 152.289Z" fill="#3B2314"/>
<path opacity="0.3" d="M192.61 153.279C191.92 153.259 191.35 153.799 191.33 154.489C191.31 155.179 191.85 155.749 192.54 155.769C193.23 155.789 193.8 155.249 193.82 154.559C193.84 153.879 193.3 153.299 192.61 153.279Z" fill="white"/>
<path opacity="0.2" d="M203.86 154.11C202.22 154.06 200.86 155.35 200.81 156.99C200.76 158.63 202.05 159.99 203.69 160.04C205.33 160.09 206.69 158.8 206.74 157.16C206.79 155.52 205.5 154.16 203.86 154.11Z" fill="#474702"/>
<path d="M203.87 153.57C202.23 153.52 200.87 154.81 200.82 156.45C200.77 158.09 202.06 159.45 203.7 159.5C205.34 159.55 206.7 158.26 206.75 156.62C206.8 154.98 205.51 153.62 203.87 153.57Z" fill="#3B2314"/>
<path opacity="0.3" d="M203.14 154.56C202.45 154.54 201.88 155.08 201.86 155.77C201.84 156.46 202.38 157.03 203.07 157.05C203.76 157.07 204.33 156.53 204.35 155.84C204.37 155.15 203.83 154.58 203.14 154.56Z" fill="white"/>
<path opacity="0.2" d="M215.84 151.75C214.2 151.7 212.84 152.99 212.79 154.63C212.74 156.27 214.03 157.63 215.67 157.68C217.31 157.73 218.67 156.44 218.72 154.8C218.77 153.16 217.48 151.79 215.84 151.75Z" fill="#474702"/>
<path d="M215.85 151.21C214.21 151.16 212.85 152.46 212.8 154.09C212.75 155.73 214.04 157.09 215.68 157.14C217.32 157.19 218.68 155.9 218.73 154.26C218.78 152.62 217.49 151.25 215.85 151.21Z" fill="#3B2314"/>
<path opacity="0.3" d="M215.11 152.2C214.42 152.18 213.85 152.72 213.83 153.41C213.81 154.1 214.35 154.67 215.04 154.69C215.73 154.71 216.3 154.17 216.32 153.48C216.35 152.79 215.8 152.22 215.11 152.2Z" fill="white"/>
<path opacity="0.2" d="M209.07 147.37C207.43 147.32 206.07 148.61 206.02 150.25C205.97 151.89 207.26 153.25 208.9 153.3C210.54 153.35 211.9 152.06 211.95 150.42C212 148.78 210.71 147.42 209.07 147.37Z" fill="#474702"/>
<path d="M209.09 146.83C207.45 146.78 206.09 148.08 206.04 149.71C205.99 151.35 207.28 152.71 208.92 152.76C210.56 152.81 211.92 151.52 211.97 149.88C212.02 148.24 210.73 146.88 209.09 146.83Z" fill="#3B2314"/>
<path opacity="0.3" d="M208.35 147.819C207.66 147.799 207.09 148.339 207.07 149.029C207.05 149.719 207.59 150.289 208.28 150.309C208.97 150.329 209.54 149.789 209.56 149.099C209.58 148.419 209.04 147.839 208.35 147.819Z" fill="white"/>
<path opacity="0.2" d="M145.39 149.21C143.75 149.16 142.39 150.46 142.34 152.09C142.29 153.73 143.58 155.09 145.22 155.14C146.86 155.19 148.22 153.9 148.27 152.26C148.32 150.63 147.03 149.26 145.39 149.21Z" fill="#474702"/>
<path d="M145.41 148.67C143.77 148.62 142.41 149.92 142.36 151.55C142.31 153.19 143.6 154.55 145.24 154.6C146.88 154.65 148.24 153.36 148.29 151.72C148.34 150.09 147.05 148.72 145.41 148.67Z" fill="#3B2314"/>
<path opacity="0.3" d="M144.67 149.66C143.98 149.64 143.41 150.18 143.39 150.87C143.37 151.56 143.91 152.13 144.6 152.15C145.29 152.17 145.86 151.63 145.88 150.94C145.9 150.26 145.36 149.68 144.67 149.66Z" fill="white"/>
<path opacity="0.2" d="M228.18 150.14C226.54 150.09 225.18 151.38 225.13 153.02C225.08 154.66 226.37 156.02 228.01 156.07C229.65 156.12 231.01 154.83 231.06 153.19C231.11 151.55 229.82 150.19 228.18 150.14Z" fill="#474702"/>
<path d="M228.19 149.6C226.55 149.55 225.19 150.85 225.14 152.48C225.09 154.12 226.38 155.48 228.02 155.53C229.66 155.58 231.02 154.28 231.07 152.65C231.12 151.02 229.83 149.65 228.19 149.6Z" fill="#3B2314"/>
<path opacity="0.3" d="M227.46 150.589C226.77 150.569 226.2 151.119 226.18 151.799C226.16 152.489 226.7 153.059 227.39 153.079C228.08 153.099 228.65 152.559 228.67 151.869C228.69 151.189 228.14 150.609 227.46 150.589Z" fill="white"/>
<path opacity="0.2" d="M222.04 153.48C220.69 153.44 219.56 154.51 219.52 155.86C219.48 157.21 220.55 158.34 221.9 158.38C223.25 158.42 224.38 157.35 224.42 156C224.46 154.65 223.39 153.52 222.04 153.48Z" fill="#474702"/>
<path d="M222.05 153.03C220.7 152.99 219.57 154.06 219.53 155.41C219.49 156.76 220.56 157.89 221.91 157.93C223.26 157.97 224.39 156.9 224.43 155.55C224.47 154.2 223.41 153.07 222.05 153.03Z" fill="#3B2314"/>
<path opacity="0.3" d="M221.44 153.85C220.87 153.83 220.4 154.28 220.38 154.85C220.36 155.42 220.81 155.89 221.38 155.91C221.95 155.93 222.42 155.48 222.44 154.91C222.46 154.34 222.01 153.87 221.44 153.85Z" fill="white"/>
<path opacity="0.2" d="M160.67 145.82C159.52 145.79 158.56 146.69 158.53 147.84C158.5 148.99 159.4 149.95 160.55 149.98C161.7 150.01 162.66 149.11 162.69 147.96C162.73 146.82 161.82 145.86 160.67 145.82Z" fill="#474702"/>
<path d="M160.68 145.449C159.53 145.419 158.57 146.319 158.54 147.469C158.51 148.619 159.41 149.579 160.56 149.609C161.71 149.639 162.67 148.739 162.7 147.589C162.74 146.439 161.83 145.479 160.68 145.449Z" fill="#3B2314"/>
<path opacity="0.3" d="M160.17 146.139C159.69 146.129 159.28 146.509 159.27 146.989C159.26 147.469 159.64 147.879 160.12 147.889C160.6 147.899 161.01 147.519 161.02 147.039C161.03 146.559 160.65 146.149 160.17 146.139Z" fill="white"/>
<path opacity="0.2" d="M136.21 149.15C135.06 149.12 134.1 150.02 134.07 151.17C134.04 152.32 134.94 153.28 136.09 153.31C137.24 153.34 138.2 152.44 138.23 151.29C138.26 150.14 137.36 149.18 136.21 149.15Z" fill="#474702"/>
<path d="M136.22 148.77C135.07 148.74 134.11 149.64 134.08 150.79C134.05 151.94 134.95 152.9 136.1 152.93C137.25 152.96 138.21 152.06 138.24 150.91C138.28 149.77 137.37 148.81 136.22 148.77Z" fill="#3B2314"/>
<path opacity="0.3" d="M135.7 149.47C135.22 149.46 134.81 149.84 134.8 150.32C134.79 150.8 135.17 151.21 135.65 151.22C136.13 151.23 136.54 150.85 136.55 150.37C136.57 149.89 136.19 149.48 135.7 149.47Z" fill="white"/>
<path opacity="0.2" d="M234.16 151.119C233.01 151.089 232.05 151.989 232.02 153.139C231.99 154.289 232.89 155.249 234.04 155.279C235.19 155.309 236.15 154.409 236.18 153.259C236.21 152.109 235.3 151.149 234.16 151.119Z" fill="#474702"/>
<path d="M234.17 150.739C233.02 150.709 232.06 151.609 232.03 152.759C232 153.909 232.9 154.869 234.05 154.899C235.2 154.929 236.16 154.029 236.19 152.879C236.22 151.729 235.31 150.769 234.17 150.739Z" fill="#3B2314"/>
<path opacity="0.3" d="M233.65 151.429C233.17 151.419 232.76 151.799 232.75 152.279C232.74 152.759 233.12 153.169 233.6 153.179C234.08 153.189 234.49 152.809 234.5 152.329C234.51 151.849 234.13 151.439 233.65 151.429Z" fill="white"/>
<path opacity="0.2" d="M187.38 156.739C186.23 156.709 185.27 157.609 185.24 158.759C185.21 159.909 186.11 160.869 187.26 160.899C188.41 160.929 189.37 160.029 189.4 158.879C189.44 157.729 188.53 156.769 187.38 156.739Z" fill="#474702"/>
<path d="M187.39 156.36C186.24 156.33 185.28 157.23 185.25 158.38C185.22 159.53 186.12 160.49 187.27 160.52C188.42 160.55 189.38 159.65 189.41 158.5C189.45 157.35 188.54 156.39 187.39 156.36Z" fill="#3B2314"/>
<path opacity="0.3" d="M186.88 157.05C186.4 157.04 185.99 157.42 185.98 157.9C185.97 158.38 186.35 158.79 186.83 158.8C187.31 158.81 187.72 158.43 187.73 157.95C187.74 157.47 187.36 157.07 186.88 157.05Z" fill="white"/>
<path opacity="0.2" d="M198.91 146.539C197.27 146.489 195.91 147.789 195.86 149.419C195.81 151.059 197.1 152.419 198.74 152.469C200.38 152.519 201.74 151.229 201.79 149.589C201.84 147.949 200.55 146.589 198.91 146.539Z" fill="#474702"/>
<path d="M198.93 145.999C197.29 145.949 195.93 147.239 195.88 148.879C195.83 150.519 197.12 151.879 198.76 151.929C200.4 151.979 201.76 150.689 201.81 149.049C201.86 147.419 200.57 146.049 198.93 145.999Z" fill="#3B2314"/>
<path opacity="0.3" d="M198.19 146.989C197.5 146.969 196.93 147.509 196.91 148.199C196.89 148.889 197.43 149.459 198.12 149.479C198.81 149.499 199.38 148.959 199.4 148.269C199.42 147.589 198.88 147.009 198.19 146.989Z" fill="white"/>
<path opacity="0.3" d="M123.39 102.92C121.66 101.98 101.96 106.92 100.24 119.15C100.24 119.15 108.15 104.43 130.18 111.08C130.18 111.09 125.13 103.87 123.39 102.92Z" fill="#474702"/>
<path d="M189.11 102L192.19 119.37C192.19 119.37 204.41 118.41 211.74 113.41L207.74 97.8901C207.74 97.8901 196.34 102.18 189.11 102Z" fill="white"/>
<mask id="mask0_174_6839" style="mask-type:luminance" maskUnits="userSpaceOnUse" x="189" y="97" width="23" height="23">
<path d="M192.2 119.37C192.2 119.37 204.42 118.41 211.75 113.41L207.75 97.8901C207.75 97.8901 196.34 102.19 189.12 102L192.2 119.37Z" fill="white"/>
</mask>
<g mask="url(#mask0_174_6839)">
<path opacity="0.01" d="M189.41 97.2998L189.93 108.23L190.45 119.16C190.51 119.17 192.11 120.2 195.22 119.17C198.34 118.14 200.86 113.5 202.56 108.44C203.39 105.94 204.02 103.35 204.43 101.02C204.44 100.96 204.45 100.91 204.46 100.85C204.86 98.4898 205.05 96.4298 204.97 95.0698C203.88 95.3598 202.49 95.6698 201 95.9698C199.51 96.2598 197.9 96.5398 196.37 96.7698C196.25 96.7898 196.14 96.7998 196.02 96.8198C193.08 97.2498 190.46 97.4998 189.41 97.2998Z" fill="black"/>
<path opacity="0.01" d="M189.41 97.2999L189.93 108.23L190.45 119.16C190.57 119.18 192.18 120.17 195.24 119.13C198.32 118.09 200.81 113.5 202.46 108.48C203.28 105.98 203.89 103.38 204.27 101.06C204.28 101 204.29 100.95 204.3 100.89C204.69 98.5299 204.85 96.4699 204.77 95.1099C203.69 95.3999 202.32 95.6999 200.85 95.9899C199.37 96.2799 197.79 96.5499 196.27 96.7799C196.16 96.7999 196.04 96.8099 195.93 96.8299C193.04 97.2699 190.45 97.4999 189.41 97.2999Z" fill="black"/>
<path opacity="0.0118" d="M189.41 97.2999L189.93 108.23L190.45 119.16C190.63 119.19 192.24 120.14 195.27 119.09C198.31 118.03 200.77 113.49 202.38 108.53C203.19 106.04 203.77 103.42 204.14 101.1C204.15 101.04 204.16 100.99 204.17 100.93C204.53 98.5599 204.69 96.4999 204.6 95.1499C203.53 95.4299 202.18 95.7399 200.72 96.0199C199.26 96.3099 197.69 96.5799 196.2 96.7999C196.09 96.8199 195.97 96.8299 195.86 96.8499C193 97.2699 190.44 97.4999 189.41 97.2999Z" fill="black"/>
<path opacity="0.0157" d="M189.41 97.3002L189.93 108.23L190.45 119.16C190.69 119.19 192.31 120.11 195.3 119.05C198.31 117.98 200.73 113.49 202.3 108.57C203.1 106.07 203.66 103.46 204.01 101.13C204.02 101.07 204.03 101.02 204.03 100.96C204.37 98.5902 204.52 96.5302 204.42 95.1802C203.36 95.4602 202.02 95.7602 200.59 96.0402C199.14 96.3202 197.6 96.5902 196.12 96.8102C196.01 96.8302 195.9 96.8402 195.79 96.8602C192.96 97.2802 190.44 97.5002 189.41 97.3002Z" fill="black"/>
<path opacity="0.0196" d="M189.41 97.3002L189.93 108.23L190.45 119.16C190.75 119.2 192.37 120.08 195.33 119.01C198.3 117.93 200.69 113.49 202.22 108.62C203.01 106.12 203.55 103.5 203.87 101.17C203.88 101.11 203.89 101.06 203.89 101C204.21 98.6302 204.34 96.5702 204.24 95.2202C203.19 95.5002 201.87 95.7902 200.46 96.0702C199.03 96.3502 197.5 96.6202 196.04 96.8302C195.93 96.8502 195.82 96.8602 195.71 96.8802C192.92 97.2802 190.43 97.4902 189.41 97.3002Z" fill="black"/>
<path opacity="0.0235" d="M189.41 97.3L189.93 108.23L190.45 119.16C190.81 119.21 192.44 120.05 195.36 118.97C198.29 117.88 200.64 113.48 202.14 108.66C202.91 106.16 203.43 103.54 203.74 101.2C203.75 101.14 203.75 101.09 203.76 101.03C204.06 98.66 204.18 96.6 204.07 95.25C203.03 95.52 201.73 95.81 200.33 96.09C198.92 96.37 197.41 96.63 195.97 96.84C195.86 96.86 195.75 96.87 195.64 96.89C192.88 97.28 190.42 97.49 189.41 97.3Z" fill="black"/>
<path opacity="0.0275" d="M189.41 97.3003L189.93 108.23L190.45 119.16C190.86 119.22 192.51 120.03 195.39 118.93C198.28 117.83 200.6 113.48 202.05 108.7C202.81 106.2 203.3 103.57 203.59 101.23C203.6 101.17 203.6 101.12 203.61 101.06C203.89 98.6903 204 96.6303 203.88 95.2803C202.85 95.5503 201.56 95.8403 200.19 96.1103C198.79 96.3803 197.3 96.6403 195.88 96.8503C195.77 96.8703 195.66 96.8803 195.56 96.9003C192.84 97.2803 190.41 97.4903 189.41 97.3003Z" fill="black"/>
<path opacity="0.0314" d="M189.41 97.2998L189.93 108.23L190.45 119.16C190.92 119.23 192.57 120 195.41 118.89C198.26 117.78 200.55 113.47 201.96 108.75C202.71 106.25 203.18 103.62 203.45 101.27C203.46 101.21 203.46 101.15 203.47 101.1C203.73 98.7298 203.82 96.6598 203.7 95.3198C202.68 95.5898 201.41 95.8698 200.05 96.1398C198.67 96.4098 197.2 96.6598 195.79 96.8698C195.68 96.8898 195.58 96.8998 195.47 96.9198C192.8 97.2898 190.41 97.4898 189.41 97.2998Z" fill="black"/>
<path opacity="0.0353" d="M189.41 97.2999L189.93 108.23L190.45 119.16C190.98 119.24 192.64 119.97 195.44 118.85C198.26 117.73 200.5 113.47 201.88 108.79C202.62 106.29 203.05 103.65 203.31 101.3C203.32 101.24 203.32 101.18 203.33 101.13C203.58 98.7598 203.65 96.6898 203.52 95.3398C202.51 95.5998 201.26 95.8798 199.92 96.1398C198.55 96.4098 197.1 96.6598 195.71 96.8598C195.61 96.8698 195.5 96.8898 195.4 96.8998C192.76 97.2898 190.4 97.4899 189.41 97.2999Z" fill="black"/>
<path opacity="0.0392" d="M189.41 97.3001L189.93 108.23L190.45 119.16C191.04 119.25 192.71 119.94 195.47 118.81C198.25 117.67 200.46 113.46 201.8 108.83C202.52 106.33 202.95 103.68 203.18 101.33C203.19 101.27 203.19 101.21 203.2 101.16C203.43 98.7901 203.49 96.7201 203.35 95.3701C202.35 95.6301 201.11 95.9001 199.79 96.1601C198.44 96.4201 197.01 96.6701 195.64 96.8701C195.54 96.8801 195.43 96.9001 195.33 96.9101C192.72 97.2801 190.39 97.4901 189.41 97.3001Z" fill="black"/>
<path opacity="0.0431" d="M189.41 97.3002L189.93 108.23L190.45 119.16C191.1 119.25 192.77 119.91 195.5 118.77C198.24 117.62 200.41 113.46 201.71 108.88C202.42 106.38 202.82 103.73 203.04 101.37C203.05 101.31 203.05 101.25 203.05 101.2C203.26 98.8301 203.3 96.7602 203.16 95.4102C202.17 95.6702 200.95 95.9402 199.65 96.1902C198.32 96.4502 196.9 96.6902 195.55 96.8902C195.45 96.9002 195.35 96.9202 195.24 96.9302C192.68 97.3002 190.39 97.4902 189.41 97.3002Z" fill="black"/>
<path opacity="0.0471" d="M189.41 97.3002L189.93 108.23L190.45 119.16C191.16 119.26 192.84 119.88 195.53 118.73C198.23 117.57 200.37 113.45 201.63 108.92C202.33 106.42 202.7 103.76 202.9 101.4C202.9 101.34 202.91 101.28 202.91 101.22C203.1 98.8402 203.13 96.7802 202.98 95.4302C202 95.6802 200.8 95.9502 199.52 96.2002C198.2 96.4602 196.81 96.7002 195.47 96.8902C195.37 96.9002 195.27 96.9202 195.17 96.9302C192.64 97.2902 190.38 97.4902 189.41 97.3002Z" fill="black"/>
<path opacity="0.051" d="M189.41 97.3L189.93 108.23L190.45 119.16C191.22 119.27 192.91 119.85 195.56 118.69C198.22 117.52 200.32 113.45 201.55 108.96C202.23 106.46 202.6 103.79 202.77 101.43C202.77 101.37 202.78 101.31 202.78 101.25C202.96 98.88 202.97 96.8 202.81 95.46C201.84 95.71 200.65 95.97 199.39 96.22C198.09 96.47 196.71 96.71 195.4 96.9C195.3 96.91 195.2 96.93 195.1 96.94C192.6 97.3 190.37 97.48 189.41 97.3Z" fill="black"/>
<path opacity="0.0549" d="M189.41 97.3L189.93 108.23L190.45 119.16C191.28 119.28 192.97 119.82 195.59 118.65C198.21 117.47 200.28 113.44 201.47 109.01C202.14 106.5 202.48 103.84 202.63 101.47C202.63 101.41 202.64 101.35 202.64 101.29C202.8 98.91 202.79 96.84 202.63 95.5C201.67 95.75 200.5 96 199.26 96.25C197.97 96.5 196.61 96.73 195.32 96.92C195.22 96.93 195.12 96.95 195.03 96.96C192.56 97.31 190.36 97.48 189.41 97.3Z" fill="black"/>
<path opacity="0.0588" d="M189.41 97.3003L189.93 108.23L190.45 119.16C191.34 119.29 193.04 119.79 195.61 118.61C198.2 117.42 200.22 113.44 201.38 109.05C202.04 106.54 202.35 103.87 202.49 101.5C202.49 101.44 202.5 101.38 202.5 101.32C202.63 98.9403 202.62 96.8703 202.45 95.5303C201.5 95.7703 200.35 96.0303 199.12 96.2703C197.85 96.5203 196.51 96.7403 195.23 96.9303C195.13 96.9403 195.04 96.9603 194.94 96.9703C192.51 97.3003 190.36 97.4803 189.41 97.3003Z" fill="black"/>
<path opacity="0.0627" d="M189.41 97.2998L189.93 108.23L190.45 119.16C191.4 119.3 193.1 119.76 195.64 118.57C198.19 117.37 200.18 113.43 201.29 109.1C201.93 106.59 202.22 103.92 202.34 101.54C202.34 101.48 202.34 101.42 202.35 101.36C202.47 98.9798 202.44 96.9098 202.26 95.5698C201.32 95.8098 200.18 96.0598 198.98 96.2898C197.73 96.5298 196.4 96.7598 195.15 96.9398C195.05 96.9498 194.96 96.9698 194.86 96.9798C192.47 97.2998 190.35 97.4798 189.41 97.2998Z" fill="black"/>
<path opacity="0.0667" d="M189.41 97.2999L189.93 108.23L190.45 119.16C191.46 119.31 193.17 119.74 195.67 118.52C198.18 117.3 200.13 113.42 201.21 109.13C201.84 106.62 202.11 103.94 202.21 101.56C202.21 101.5 202.21 101.44 202.22 101.38C202.32 98.9998 202.27 96.9298 202.09 95.5898C201.16 95.8298 200.04 96.0699 198.85 96.2999C197.61 96.5399 196.31 96.7598 195.07 96.9398C194.98 96.9498 194.88 96.9699 194.79 96.9799C192.43 97.3199 190.34 97.4799 189.41 97.2999Z" fill="black"/>
<path opacity="0.0706" d="M189.41 97.3001L189.93 108.23L190.45 119.16C191.52 119.31 193.24 119.71 195.7 118.48C198.17 117.25 200.09 113.41 201.13 109.17C201.75 106.66 202 103.98 202.08 101.59C202.08 101.53 202.08 101.47 202.08 101.41C202.15 99.0301 202.1 96.9501 201.91 95.6201C200.99 95.8501 199.89 96.0901 198.72 96.3201C197.5 96.5601 196.21 96.7701 194.99 96.9501C194.9 96.9601 194.8 96.9801 194.71 96.9901C192.39 97.3201 190.34 97.4801 189.41 97.3001Z" fill="black"/>
<path opacity="0.0745" d="M189.41 97.2999L189.93 108.23L190.45 119.16C191.57 119.32 193.3 119.68 195.73 118.44C198.16 117.2 200.04 113.41 201.05 109.22C201.65 106.71 201.87 104.02 201.94 101.63C201.94 101.57 201.94 101.51 201.94 101.45C202 99.0699 201.93 96.9899 201.73 95.6499C200.82 95.8799 199.73 96.1199 198.58 96.3399C197.37 96.5699 196.11 96.7799 194.91 96.9599C194.82 96.9699 194.73 96.9899 194.64 96.9999C192.35 97.3099 190.33 97.4799 189.41 97.2999Z" fill="black"/>
<path opacity="0.0784" d="M189.41 97.3002L189.93 108.23L190.45 119.16C191.63 119.33 193.37 119.65 195.76 118.4C198.16 117.15 199.99 113.4 200.96 109.26C201.55 106.74 201.75 104.05 201.8 101.66C201.8 101.6 201.8 101.54 201.8 101.48C201.84 99.1002 201.75 97.0202 201.55 95.6802C200.65 95.9102 199.58 96.1402 198.45 96.3602C197.26 96.5902 196.01 96.8002 194.83 96.9702C194.74 96.9802 194.65 97.0002 194.56 97.0102C192.31 97.3202 190.32 97.4702 189.41 97.3002Z" fill="black"/>
<path opacity="0.0824" d="M189.41 97.3002L189.93 108.23L190.45 119.16C191.69 119.34 193.44 119.62 195.78 118.36C198.14 117.1 199.93 113.4 200.87 109.3C201.45 106.78 201.63 104.09 201.65 101.7C201.65 101.64 201.65 101.58 201.65 101.52C201.66 99.1402 201.57 97.0602 201.37 95.7202C200.48 95.9402 199.43 96.1702 198.32 96.3902C197.15 96.6202 195.92 96.8202 194.75 96.9902C194.66 97.0002 194.57 97.0202 194.48 97.0302C192.27 97.3202 190.31 97.4702 189.41 97.3002Z" fill="black"/>
<path opacity="0.0863" d="M189.41 97.3003L189.93 108.23L190.45 119.16C191.75 119.35 193.5 119.59 195.81 118.32C198.13 117.05 199.89 113.39 200.79 109.35C201.35 106.83 201.52 104.13 201.52 101.74C201.52 101.68 201.52 101.62 201.52 101.56C201.53 99.1802 201.41 97.1003 201.19 95.7603C200.31 95.9803 199.27 96.2002 198.18 96.4202C197.02 96.6402 195.81 96.8403 194.67 97.0103C194.58 97.0203 194.49 97.0303 194.41 97.0503C192.23 97.3203 190.31 97.4703 189.41 97.3003Z" fill="black"/>
<path opacity="0.0902" d="M189.41 97.3003L189.93 108.23L190.45 119.16C191.81 119.36 193.57 119.56 195.84 118.28C198.12 116.99 199.84 113.38 200.71 109.39C201.26 106.87 201.39 104.17 201.39 101.77C201.39 101.71 201.39 101.65 201.39 101.58C201.38 99.2003 201.24 97.1203 201.03 95.7803C200.16 96.0003 199.14 96.2203 198.07 96.4203C196.93 96.6403 195.74 96.8303 194.61 97.0003C194.52 97.0103 194.44 97.0203 194.35 97.0403C192.19 97.3303 190.3 97.4703 189.41 97.3003Z" fill="black"/>
<path opacity="0.0941" d="M189.41 97.3001L189.93 108.23L190.45 119.16C191.87 119.37 193.63 119.53 195.87 118.24C198.11 116.94 199.79 113.38 200.63 109.43C201.16 106.91 201.28 104.2 201.25 101.8C201.25 101.74 201.25 101.68 201.25 101.61C201.21 99.2301 201.07 97.1401 200.85 95.8101C199.99 96.0201 198.99 96.2401 197.93 96.4401C196.8 96.6501 195.63 96.8501 194.52 97.0101C194.44 97.0201 194.35 97.0301 194.27 97.0501C192.15 97.3301 190.29 97.4701 189.41 97.3001Z" fill="black"/>
<path opacity="0.098" d="M189.41 97.3001L189.93 108.23L190.45 119.16C191.93 119.37 193.7 119.5 195.9 118.2C198.11 116.89 199.74 113.37 200.54 109.48C201.06 106.96 201.16 104.24 201.11 101.84C201.11 101.78 201.11 101.72 201.1 101.65C201.05 99.2601 200.89 97.1801 200.66 95.8501C199.81 96.0601 198.82 96.2701 197.79 96.4701C196.68 96.6801 195.53 96.8701 194.44 97.0201C194.36 97.0301 194.27 97.0401 194.19 97.0501C192.11 97.3301 190.28 97.4701 189.41 97.3001Z" fill="black"/>
<path opacity="0.102" d="M189.41 97.2999L189.93 108.23L190.45 119.16C191.99 119.38 193.77 119.47 195.93 118.16C198.1 116.84 199.69 113.36 200.46 109.52C200.96 106.99 201.03 104.28 200.97 101.87C200.97 101.81 200.97 101.74 200.96 101.68C200.89 99.2899 200.71 97.2099 200.48 95.8799C199.64 96.0899 198.67 96.2999 197.65 96.4899C196.56 96.6999 195.42 96.8899 194.35 97.0399C194.27 97.0499 194.19 97.0599 194.1 97.0699C192.07 97.3399 190.28 97.4699 189.41 97.2999Z" fill="black"/>
<path opacity="0.1059" d="M189.41 97.3002L189.93 108.23L190.45 119.16C192.05 119.39 193.83 119.44 195.95 118.12C198.08 116.79 199.63 113.36 200.37 109.57C200.86 107.04 200.91 104.32 200.83 101.91C200.83 101.85 200.82 101.78 200.82 101.72C200.74 99.3302 200.54 97.2502 200.3 95.9102C199.47 96.1102 198.52 96.3202 197.52 96.5102C196.44 96.7102 195.33 96.9002 194.27 97.0502C194.19 97.0602 194.11 97.0702 194.03 97.0802C192.03 97.3402 190.27 97.4602 189.41 97.3002Z" fill="black"/>
<path opacity="0.1098" d="M189.41 97.2999L189.93 108.23L190.45 119.16C192.11 119.4 193.9 119.42 195.98 118.08C198.07 116.74 199.58 113.35 200.29 109.61C200.76 107.08 200.8 104.36 200.69 101.94C200.69 101.88 200.68 101.81 200.68 101.75C200.58 99.3599 200.37 97.2799 200.12 95.9399C199.31 96.1399 198.36 96.3399 197.38 96.5299C196.32 96.7299 195.22 96.9099 194.19 97.0599C194.11 97.0699 194.03 97.0799 193.95 97.0899C191.99 97.3399 190.26 97.4599 189.41 97.2999Z" fill="black"/>
<path opacity="0.1137" d="M189.41 97.3002L189.93 108.23L190.45 119.16C192.17 119.41 193.97 119.39 196.01 118.04C198.06 116.69 199.54 113.34 200.2 109.65C200.66 107.12 200.66 104.39 200.55 101.97C200.55 101.91 200.54 101.84 200.54 101.78C200.42 99.3902 200.19 97.3002 199.94 95.9702C199.14 96.1702 198.21 96.3602 197.25 96.5502C196.2 96.7502 195.13 96.9302 194.11 97.0602C194.03 97.0702 193.95 97.0802 193.88 97.0902C191.95 97.3602 190.26 97.4602 189.41 97.3002Z" fill="black"/>
<path opacity="0.1176" d="M189.41 97.3003L189.93 108.23L190.45 119.16C192.22 119.42 194.03 119.36 196.04 118C198.05 116.64 199.48 113.34 200.12 109.7C200.56 107.17 200.55 104.43 200.42 102.01C200.42 101.95 200.41 101.88 200.41 101.82C200.28 99.4303 200.03 97.3403 199.77 96.0103C198.98 96.2003 198.07 96.3903 197.13 96.5703C196.1 96.7603 195.04 96.9403 194.04 97.0703C193.96 97.0803 193.89 97.0903 193.81 97.1003C191.91 97.3503 190.25 97.4603 189.41 97.3003Z" fill="black"/>
<path opacity="0.1216" d="M189.41 97.3L189.93 108.23L190.45 119.16C192.28 119.43 194.1 119.33 196.07 117.96C198.05 116.58 199.43 113.33 200.04 109.74C200.47 107.2 200.44 104.47 200.28 102.04C200.28 101.98 200.27 101.91 200.27 101.85C200.11 99.46 199.86 97.37 199.59 96.04C198.81 96.23 197.92 96.42 196.99 96.59C195.98 96.78 194.94 96.95 193.96 97.08C193.88 97.09 193.81 97.1 193.73 97.11C191.87 97.34 190.24 97.46 189.41 97.3Z" fill="black"/>
<path opacity="0.1255" d="M189.41 97.3001L189.93 108.23L190.45 119.16C192.34 119.43 194.16 119.3 196.1 117.91C198.04 116.52 199.38 113.31 199.96 109.77C200.37 107.23 200.33 104.49 200.15 102.06C200.15 102 200.14 101.93 200.13 101.87C199.96 99.4801 199.68 97.3901 199.41 96.0601C198.64 96.2501 197.76 96.4301 196.86 96.6001C195.86 96.7901 194.84 96.9501 193.88 97.0801C193.81 97.0901 193.73 97.1001 193.66 97.1101C191.83 97.3601 190.23 97.4601 189.41 97.3001Z" fill="black"/>
<path opacity="0.1294" d="M189.41 97.3001L189.93 108.23L190.45 119.16C192.4 119.44 194.23 119.27 196.13 117.87C198.03 116.47 199.33 113.31 199.88 109.82C200.28 107.28 200.2 104.54 200.01 102.1C200.01 102.04 200 101.97 199.99 101.91C199.81 99.5201 199.51 97.4301 199.23 96.1001C198.47 96.2801 197.61 96.4601 196.72 96.6301C195.74 96.8101 194.74 96.9801 193.79 97.1001C193.72 97.1101 193.64 97.1201 193.57 97.1301C191.79 97.3601 190.23 97.4601 189.41 97.3001Z" fill="black"/>
<path opacity="0.1333" d="M189.41 97.3001L189.93 108.23L190.45 119.16C192.46 119.45 194.3 119.24 196.15 117.83C198.01 116.42 199.27 113.3 199.78 109.86C200.16 107.32 200.06 104.57 199.86 102.13C199.85 102.06 199.85 102 199.84 101.93C199.63 99.5401 199.33 97.4401 199.04 96.1201C198.29 96.3001 197.45 96.4801 196.58 96.6401C195.61 96.8201 194.63 96.9801 193.7 97.1001C193.63 97.1101 193.56 97.1201 193.49 97.1301C191.75 97.3601 190.22 97.4501 189.41 97.3001Z" fill="black"/>
<path opacity="0.1373" d="M189.41 97.2999L189.93 108.23L190.45 119.16C192.52 119.46 194.36 119.21 196.18 117.79C198 116.37 199.22 113.29 199.7 109.9C200.06 107.35 199.96 104.6 199.72 102.16C199.71 102.09 199.71 102.03 199.7 101.96C199.47 99.5699 199.15 97.4699 198.86 96.1499C198.12 96.3199 197.29 96.4999 196.44 96.6599C195.49 96.8399 194.53 96.9899 193.62 97.1099C193.55 97.1199 193.48 97.1299 193.41 97.1399C191.71 97.3699 190.21 97.4499 189.41 97.2999Z" fill="black"/>
<path opacity="0.1412" d="M189.41 97.3002L189.93 108.23L190.45 119.16C192.58 119.47 194.43 119.18 196.21 117.75C198 116.32 199.17 113.29 199.62 109.95C199.97 107.4 199.83 104.65 199.59 102.2C199.58 102.13 199.58 102.07 199.57 102C199.33 99.6002 198.99 97.5102 198.69 96.1802C197.96 96.3502 197.15 96.5202 196.32 96.6802C195.39 96.8502 194.44 97.0002 193.55 97.1202C193.48 97.1302 193.41 97.1402 193.34 97.1502C191.67 97.3702 190.21 97.4502 189.41 97.3002Z" fill="black"/>
<path opacity="0.1451" d="M189.41 97.3L189.93 108.23L190.45 119.16C192.64 119.48 194.5 119.15 196.24 117.71C197.99 116.27 199.11 113.28 199.54 109.99C199.87 107.44 199.71 104.68 199.46 102.23C199.45 102.16 199.44 102.1 199.44 102.03C199.18 99.63 198.83 97.54 198.52 96.21C197.8 96.38 197 96.54 196.2 96.7C195.28 96.87 194.36 97.02 193.48 97.13C193.41 97.14 193.35 97.15 193.28 97.16C191.62 97.37 190.2 97.45 189.41 97.3Z" fill="black"/>
<path opacity="0.149" d="M189.41 97.3L189.93 108.23L190.45 119.16C192.7 119.49 194.56 119.12 196.27 117.67C197.98 116.21 199.06 113.27 199.45 110.04C199.76 107.49 199.59 104.73 199.31 102.27C199.3 102.2 199.29 102.14 199.29 102.07C199.01 99.67 198.64 97.58 198.33 96.25C197.62 96.41 196.84 96.58 196.05 96.72C195.15 96.89 194.24 97.03 193.39 97.14C193.32 97.15 193.26 97.16 193.19 97.17C191.58 97.37 190.19 97.45 189.41 97.3Z" fill="black"/>
<path opacity="0.1529" d="M189.41 97.3003L189.93 108.23L190.45 119.16C192.76 119.49 194.63 119.1 196.3 117.63C197.97 116.16 199.01 113.27 199.37 110.08C199.66 107.52 199.48 104.76 199.18 102.3C199.17 102.23 199.16 102.17 199.15 102.1C198.86 99.7003 198.47 97.6003 198.15 96.2803C197.45 96.4403 196.69 96.6003 195.92 96.7403C195.03 96.9003 194.15 97.0403 193.31 97.1503C193.24 97.1603 193.18 97.1703 193.12 97.1703C191.54 97.3803 190.18 97.4503 189.41 97.3003Z" fill="black"/>
<path opacity="0.1569" d="M189.41 97.2998L189.93 108.23L190.45 119.16C192.82 119.5 194.7 119.07 196.33 117.59C197.96 116.11 198.95 113.26 199.29 110.12C199.56 107.56 199.35 104.79 199.04 102.34C199.03 102.27 199.02 102.21 199.01 102.14C198.7 99.7398 198.3 97.6398 197.97 96.3198C197.28 96.4798 196.54 96.6298 195.78 96.7698C194.91 96.9298 194.04 97.0598 193.22 97.1698C193.16 97.1798 193.09 97.1898 193.03 97.1898C191.5 97.3698 190.18 97.4498 189.41 97.2998Z" fill="black"/>
<path opacity="0.1608" d="M189.41 97.2999L189.93 108.23L190.45 119.16C192.88 119.51 194.76 119.04 196.35 117.55C197.95 116.06 198.89 113.25 199.2 110.17C199.45 107.61 199.23 104.84 198.9 102.38C198.89 102.31 198.88 102.25 198.87 102.18C198.54 99.7799 198.12 97.6799 197.79 96.3599C197.11 96.5199 196.38 96.6599 195.65 96.7999C194.8 96.9599 193.94 97.0799 193.15 97.1899C193.09 97.1999 193.03 97.2099 192.96 97.2099C191.46 97.3899 190.17 97.4499 189.41 97.2999Z" fill="black"/>
<path opacity="0.1647" d="M189.41 97.3001L189.93 108.23L190.45 119.16C192.93 119.52 194.83 119.01 196.38 117.51C197.94 116.01 198.84 113.24 199.11 110.21C199.35 107.65 199.11 104.87 198.75 102.41C198.74 102.34 198.73 102.28 198.72 102.21C198.38 99.8101 197.94 97.7101 197.6 96.3901C196.93 96.5401 196.22 96.6901 195.5 96.8201C194.66 96.9701 193.83 97.1001 193.05 97.2001C192.99 97.2101 192.93 97.2201 192.87 97.2201C191.42 97.3801 190.16 97.4401 189.41 97.3001Z" fill="black"/>
<path opacity="0.1686" d="M189.41 97.2999L189.93 108.23L190.45 119.16C192.99 119.53 194.89 118.98 196.41 117.47C197.93 115.96 198.78 113.24 199.03 110.25C199.25 107.68 198.98 104.91 198.62 102.44C198.61 102.37 198.6 102.3 198.59 102.24C198.23 99.8399 197.78 97.7399 197.43 96.4199C196.77 96.5699 196.08 96.7099 195.38 96.8399C194.56 96.9899 193.75 97.1199 192.98 97.2099C192.92 97.2199 192.86 97.2199 192.8 97.2299C191.38 97.3899 190.15 97.4399 189.41 97.2999Z" fill="black"/>
<path opacity="0.1725" d="M189.41 97.3002L189.93 108.23L190.45 119.16C193.05 119.54 194.96 118.95 196.44 117.43C197.92 115.91 198.73 113.23 198.95 110.3C199.15 107.73 198.87 104.95 198.49 102.48C198.48 102.41 198.47 102.34 198.46 102.28C198.09 99.8802 197.61 97.7702 197.26 96.4502C196.61 96.5902 195.93 96.7302 195.25 96.8602C194.44 97.0102 193.65 97.1302 192.91 97.2202C192.85 97.2302 192.79 97.2302 192.74 97.2402C191.34 97.4002 190.15 97.4402 189.41 97.3002Z" fill="black"/>
<path opacity="0.1765" d="M189.41 97.3L189.93 108.23L190.45 119.16C193.11 119.54 195.03 118.92 196.47 117.39C197.91 115.85 198.67 113.22 198.87 110.34C199.05 107.77 198.75 104.98 198.35 102.51C198.34 102.44 198.33 102.37 198.32 102.31C197.93 99.9 197.44 97.8 197.08 96.48C196.44 96.62 195.78 96.75 195.12 96.87C194.33 97.01 193.55 97.13 192.83 97.22C192.77 97.23 192.72 97.23 192.66 97.24C191.3 97.39 190.14 97.44 189.41 97.3Z" fill="black"/>
<path opacity="0.1804" d="M189.41 97.3L189.93 108.23L190.45 119.16C193.17 119.55 195.09 118.89 196.5 117.35C197.9 115.8 198.62 113.22 198.79 110.38C198.94 107.81 198.63 105.02 198.22 102.54C198.21 102.47 198.2 102.4 198.18 102.33C197.77 99.92 197.27 97.82 196.9 96.5C196.27 96.64 195.63 96.77 194.99 96.88C194.22 97.02 193.46 97.13 192.75 97.22C192.69 97.23 192.64 97.23 192.58 97.24C191.26 97.4 190.13 97.44 189.41 97.3Z" fill="black"/>
<path opacity="0.1843" d="M189.41 97.3L189.93 108.23L190.45 119.16C193.23 119.56 195.16 118.86 196.52 117.31C197.89 115.75 198.55 113.21 198.69 110.43C198.82 107.85 198.5 105.06 198.06 102.58C198.05 102.51 198.04 102.44 198.02 102.37C197.6 99.96 197.07 97.86 196.7 96.54C196.08 96.67 195.45 96.8 194.83 96.91C194.07 97.04 193.33 97.16 192.65 97.24C192.6 97.25 192.54 97.25 192.49 97.26C191.22 97.4 190.13 97.44 189.41 97.3Z" fill="black"/>
<path opacity="0.1882" d="M189.41 97.3001L189.93 108.23L190.45 119.16C193.29 119.57 195.23 118.83 196.55 117.26C197.88 115.69 198.49 113.19 198.61 110.46C198.72 107.88 198.38 105.09 197.93 102.6C197.92 102.53 197.9 102.46 197.89 102.39C197.45 99.9801 196.91 97.8801 196.53 96.5601C195.92 96.6901 195.31 96.8101 194.71 96.9201C193.97 97.0501 193.25 97.1601 192.58 97.2401C192.53 97.2501 192.47 97.2501 192.42 97.2601C191.18 97.4101 190.12 97.4401 189.41 97.3001Z" fill="black"/>
<path opacity="0.1922" d="M189.41 97.3001L189.93 108.23L190.45 119.16C193.35 119.58 195.29 118.81 196.58 117.22C197.87 115.64 198.44 113.19 198.53 110.51C198.62 107.93 198.26 105.13 197.79 102.64C197.78 102.57 197.76 102.5 197.75 102.43C197.29 100.02 196.74 97.9101 196.35 96.6001C195.75 96.7301 195.16 96.8501 194.57 96.9501C193.84 97.0801 193.14 97.1801 192.49 97.2601C192.44 97.2701 192.39 97.2701 192.34 97.2801C191.14 97.4001 190.11 97.4301 189.41 97.3001Z" fill="black"/>
<path opacity="0.1961" d="M189.41 97.2999L189.93 108.23L190.45 119.16C193.41 119.59 195.36 118.78 196.61 117.18C197.86 115.59 198.38 113.18 198.45 110.55C198.51 107.97 198.14 105.17 197.66 102.67C197.65 102.6 197.63 102.53 197.62 102.46C197.15 100.05 196.57 97.9399 196.18 96.6299C195.59 96.7499 195.01 96.8699 194.45 96.9699C193.74 97.0899 193.06 97.1999 192.43 97.2699C192.38 97.2799 192.33 97.2799 192.28 97.2899C191.1 97.4199 190.1 97.4299 189.41 97.2999Z" fill="black"/>
<path opacity="0.2" d="M189.41 97.3002L189.93 108.23L190.45 119.16C193.47 119.6 195.42 118.75 196.64 117.14C197.85 115.54 198.32 113.18 198.37 110.59C198.41 108.01 198.03 105.2 197.53 102.7C197.03 100.2 196.42 98.0102 196.01 96.6602C194.64 96.9502 193.34 97.1702 192.21 97.2902C191.06 97.4202 190.1 97.4302 189.41 97.3002Z" fill="black"/>
</g>
<path d="M192.2 118.59L189.25 102C189.2 102 189.16 102 189.11 102L192.19 119.37C192.19 119.37 204.41 118.41 211.74 113.41L211.57 112.74C204.22 117.64 192.2 118.59 192.2 118.59Z" fill="#D0D2D3"/>
<path d="M191.5 119.76C192.54 119.28 198.24 115.42 198.24 115.42L190.54 114.71L191.5 119.76Z" fill="#929497"/>
<path d="M167.85 88.9502L161.33 110.58C161.33 110.58 178.74 120.84 198.08 115.65L195.91 95.0502C195.91 95.0602 178.96 96.0402 167.85 88.9502Z" fill="white"/>
<mask id="mask1_174_6839" style="mask-type:luminance" maskUnits="userSpaceOnUse" x="161" y="88" width="38" height="30">
<path d="M161.33 110.58C161.33 110.58 178.74 120.84 198.08 115.65L195.91 95.0499C195.91 95.0499 178.96 96.0299 167.85 88.9399L161.33 110.58Z" fill="white"/>
</mask>
<g mask="url(#mask1_174_6839)">
<path opacity="0.01" d="M199.87 88.5398C196.9 87.4498 191.95 86.2298 187.37 84.9998C187.17 84.9498 186.98 84.8998 186.78 84.8498C182.07 83.5998 177.75 82.4698 176.66 81.3398L171.36 89.7098L168.31 94.5298L159.95 107.72C159.96 107.73 160.94 110.26 165.39 111.64C169.9 113.05 177.42 108.99 184.36 103.8C186.28 102.36 188.16 100.82 189.92 99.2698C194.58 95.1398 198.37 90.9698 199.87 88.5398Z" fill="black"/>
<path opacity="0.01" d="M199.58 88.49C196.6 87.39 191.68 86.16 187.16 84.92C186.97 84.87 186.77 84.83 186.58 84.78C181.96 83.55 177.65 82.58 176.58 81.48L171.31 89.8L168.27 94.59L159.96 107.71C159.99 107.73 160.96 110.21 165.33 111.58C169.8 112.98 177.2 109 184.06 103.92C185.99 102.49 187.89 100.94 189.65 99.35C194.3 95.2 198.08 90.95 199.58 88.49Z" fill="black"/>
<path opacity="0.0118" d="M199.28 88.4401C196.28 87.3301 191.4 86.0901 186.95 84.8501C186.76 84.8001 186.56 84.7701 186.38 84.7201C181.86 83.5201 177.54 82.7001 176.5 81.6201L171.25 89.9001L168.23 94.6701L159.96 107.72C160 107.76 160.97 110.19 165.26 111.54C169.69 112.94 176.97 109.03 183.75 104.06C185.7 102.63 187.61 101.07 189.38 99.4601C194.02 95.2501 197.78 90.9201 199.28 88.4401Z" fill="black"/>
<path opacity="0.0157" d="M198.98 88.3798C195.97 87.2598 191.12 86.0098 186.73 84.7698C186.55 84.7198 186.35 84.6998 186.16 84.6498C181.73 83.4698 177.42 82.8198 176.39 81.7598L171.17 89.9898L168.16 94.7298L159.94 107.71C159.99 107.76 160.96 110.14 165.17 111.49C169.56 112.89 176.72 109.06 183.42 104.2C185.38 102.78 187.31 101.2 189.09 99.5598C193.73 95.3098 197.49 90.8998 198.98 88.3798Z" fill="black"/>
<path opacity="0.0196" d="M198.68 88.3299C195.66 87.1999 190.84 85.9399 186.52 84.6999C186.34 84.6499 186.14 84.6399 185.96 84.5899C181.63 83.4399 177.31 82.9399 176.31 81.8999L171.12 90.0899L168.13 94.8099L159.95 107.72C160.01 107.78 160.98 110.12 165.11 111.45C169.46 112.85 176.51 109.09 183.12 104.34C185.09 102.92 187.03 101.33 188.83 99.6699C193.45 95.3699 197.2 90.8699 198.68 88.3299Z" fill="black"/>
<path opacity="0.0235" d="M198.39 88.28C195.35 87.14 190.57 85.87 186.31 84.62C186.13 84.57 185.93 84.57 185.76 84.52C181.52 83.39 177.21 83.05 176.23 82.04L171.07 90.19L168.1 94.88L159.96 107.72C160.04 107.79 160.99 110.09 165.05 111.4C169.37 112.8 176.29 109.11 182.82 104.47C184.81 103.06 186.76 101.46 188.56 99.76C193.17 95.42 196.91 90.85 198.39 88.28Z" fill="black"/>
<path opacity="0.0275" d="M198.09 88.2199C195.04 87.0699 190.3 85.7999 186.1 84.5399C185.93 84.4899 185.73 84.4999 185.56 84.4499C181.41 83.3499 177.1 83.1599 176.14 82.1699L171.01 90.2699L168.05 94.9399L159.96 107.71C160.05 107.79 161 110.04 164.98 111.34C169.26 112.74 176.06 109.13 182.51 104.59C184.51 103.18 186.48 101.57 188.29 99.8499C192.89 95.4799 196.61 90.8199 198.09 88.2199Z" fill="black"/>
<path opacity="0.0314" d="M197.79 88.1698C194.72 87.0098 190.02 85.7298 185.88 84.4698C185.71 84.4298 185.51 84.4398 185.34 84.3898C181.29 83.3098 176.98 83.2898 176.04 82.3198L170.93 90.3798L168 95.0098L159.95 107.71C160.05 107.81 161 110.01 164.9 111.3C169.14 112.7 175.83 109.16 182.2 104.73C184.21 103.33 186.2 101.7 188.02 99.9498C192.61 95.5398 196.32 90.7998 197.79 88.1698Z" fill="black"/>
<path opacity="0.0353" d="M197.49 88.1202C194.41 86.9502 189.74 85.6602 185.67 84.3902C185.51 84.3502 185.3 84.3702 185.14 84.3202C181.18 83.2702 176.87 83.4002 175.96 82.4502L170.88 90.4602L167.96 95.0802L159.96 107.71C160.07 107.82 161.02 109.98 164.84 111.25C169.04 112.65 175.62 109.19 181.9 104.86C183.92 103.46 185.92 101.83 187.75 100.05C192.33 95.6002 196.03 90.7702 197.49 88.1202Z" fill="black"/>
<path opacity="0.0392" d="M197.2 88.0598C194.1 86.8798 189.47 85.5798 185.46 84.3098C185.3 84.2698 185.1 84.2898 184.94 84.2498C181.08 83.2198 176.77 83.5098 175.87 82.5898L170.82 90.5598L167.91 95.1498L159.95 107.71C160.08 107.83 161.01 109.94 164.76 111.2C168.92 112.6 175.38 109.21 181.58 104.99C183.62 103.6 185.63 101.95 187.47 100.14C192.05 95.6598 195.74 90.7498 197.2 88.0598Z" fill="black"/>
<path opacity="0.0431" d="M196.9 88.01C193.79 86.82 189.19 85.51 185.25 84.24C185.09 84.2 184.89 84.23 184.73 84.19C180.96 83.19 176.65 83.64 175.78 82.73L170.76 90.65L167.87 95.22L159.95 107.71C160.09 107.84 161.02 109.91 164.69 111.15C168.81 112.55 175.16 109.24 181.27 105.12C183.32 103.74 185.35 102.07 187.2 100.24C191.77 95.72 195.44 90.72 196.9 88.01Z" fill="black"/>
<path opacity="0.0471" d="M196.6 87.9599C193.48 86.7599 188.91 85.4399 185.03 84.1699C184.88 84.1299 184.67 84.1699 184.52 84.1299C180.85 83.1399 176.54 83.7599 175.69 82.8799L170.7 90.7599L167.82 95.2999L159.95 107.72C160.1 107.86 161.03 109.89 164.62 111.12C168.7 112.52 174.94 109.29 180.96 105.27C183.02 103.89 185.07 102.22 186.93 100.35C191.49 95.7799 195.15 90.6999 196.6 87.9599Z" fill="black"/>
<path opacity="0.051" d="M196.3 87.9C193.16 86.69 188.63 85.36 184.82 84.08C184.67 84.04 184.47 84.09 184.32 84.05C180.74 83.1 176.43 83.86 175.6 83L170.63 90.84L167.77 95.35L159.94 107.71C160.1 107.87 161.03 109.85 164.54 111.06C168.58 112.45 174.71 109.31 180.64 105.39C182.72 104.02 184.78 102.33 186.64 100.44C191.21 95.84 194.86 90.67 196.3 87.9Z" fill="black"/>
<path opacity="0.0549" d="M196.01 87.8499C192.86 86.6299 188.37 85.2999 184.61 84.0099C184.47 83.9699 184.26 84.0299 184.12 83.9899C180.63 83.0599 176.33 83.9799 175.52 83.1499L170.58 90.9399L167.74 95.4299L159.95 107.72C160.13 107.89 161.04 109.83 164.48 111.02C168.49 112.41 174.5 109.35 180.34 105.53C182.43 104.16 184.5 102.46 186.38 100.55C190.93 95.8999 194.56 90.6499 196.01 87.8499Z" fill="black"/>
<path opacity="0.0588" d="M195.71 87.8C192.54 86.57 188.09 85.23 184.4 83.94C184.26 83.9 184.05 83.97 183.91 83.93C180.52 83.03 176.21 84.11 175.43 83.29L170.52 91.04L167.69 95.5L159.95 107.72C160.14 107.9 161.05 109.79 164.41 110.97C168.38 112.36 174.28 109.38 180.03 105.66C182.13 104.3 184.22 102.59 186.11 100.64C190.65 95.96 194.27 90.62 195.71 87.8Z" fill="black"/>
<path opacity="0.0627" d="M195.41 87.7402C192.23 86.5002 187.81 85.1502 184.19 83.8602C184.05 83.8202 183.85 83.9002 183.71 83.8602C180.41 82.9802 176.11 84.2202 175.34 83.4302L170.46 91.1302L167.65 95.5702L159.95 107.72C160.15 107.91 161.06 109.76 164.34 110.93C168.27 112.32 174.06 109.43 179.72 105.8C181.84 104.44 183.94 102.72 185.84 100.75C190.37 96.0202 193.98 90.6002 195.41 87.7402Z" fill="black"/>
<path opacity="0.0667" d="M195.11 87.6902C191.91 86.4402 187.53 85.0802 183.97 83.7802C183.84 83.7402 183.63 83.8302 183.5 83.7902C180.3 82.9402 175.99 84.3302 175.25 83.5602L170.4 91.2202L167.61 95.6302L159.96 107.71C160.18 107.91 161.07 109.72 164.28 110.87C168.17 112.26 173.85 109.45 179.42 105.92C181.55 104.57 183.67 102.84 185.57 100.83C190.09 96.0802 193.69 90.5702 195.11 87.6902Z" fill="black"/>
<path opacity="0.0706" d="M194.82 87.64C191.61 86.38 187.26 85.01 183.77 83.71C183.64 83.68 183.43 83.77 183.31 83.73C180.2 82.9 175.9 84.45 175.18 83.71L170.35 91.33L167.57 95.71L159.96 107.72C160.19 107.93 161.08 109.7 164.21 110.83C168.06 112.22 173.64 109.49 179.11 106.06C181.26 104.72 183.39 102.97 185.3 100.94C189.81 96.14 193.39 90.55 194.82 87.64Z" fill="black"/>
<path opacity="0.0745" d="M194.52 87.5799C191.29 86.3099 186.98 84.9299 183.55 83.6299C183.43 83.5999 183.22 83.6899 183.09 83.6599C180.07 82.8699 175.77 84.5699 175.07 83.8399L170.27 91.4099L167.51 95.7699L159.94 107.71C160.18 107.94 161.07 109.66 164.11 110.77C167.92 112.16 173.39 109.52 178.77 106.18C180.93 104.84 183.08 103.08 185 101.02C189.53 96.1999 193.1 90.5199 194.52 87.5799Z" fill="black"/>
<path opacity="0.0784" d="M194.22 87.5301C190.98 86.2501 186.7 84.8601 183.34 83.5501C183.22 83.5201 183.01 83.6201 182.89 83.5901C179.97 82.8101 175.67 84.6801 174.99 83.9801L170.22 91.5101L167.47 95.8401L159.95 107.71C160.2 107.95 161.08 109.63 164.05 110.72C167.82 112.12 173.18 109.55 178.47 106.31C180.65 104.98 182.8 103.21 184.74 101.12C189.25 96.2601 192.81 90.5001 194.22 87.5301Z" fill="black"/>
<path opacity="0.0824" d="M193.92 87.48C190.67 86.19 186.43 84.8 183.12 83.48C183 83.45 182.79 83.56 182.68 83.53C179.85 82.78 175.55 84.8 174.9 84.13L170.16 91.61L167.43 95.92L159.95 107.72C160.22 107.97 161.09 109.61 163.98 110.69C167.72 112.09 172.97 109.61 178.17 106.46C180.36 105.13 182.53 103.35 184.47 101.23C188.97 96.32 192.52 90.47 193.92 87.48Z" fill="black"/>
<path opacity="0.0863" d="M193.63 87.42C190.36 86.12 186.16 84.7201 182.92 83.4001C182.81 83.3701 182.6 83.4901 182.49 83.4601C179.76 82.7301 175.46 84.9201 174.83 84.2601L170.12 91.7L167.41 95.9801L159.98 107.71C160.26 107.97 161.13 109.57 163.94 110.63C167.64 112.03 172.78 109.64 177.89 106.58C180.09 105.26 182.28 103.47 184.23 101.32C188.69 96.3801 192.22 90.45 193.63 87.42Z" fill="black"/>
<path opacity="0.0902" d="M193.33 87.3702C190.05 86.0602 185.88 84.6502 182.7 83.3302C182.59 83.3002 182.38 83.4302 182.27 83.4002C179.63 82.7002 175.33 85.0402 174.72 84.4102L170.04 91.8002L167.34 96.0602L159.95 107.72C160.24 107.99 161.1 109.55 163.84 110.59C167.5 111.99 172.54 109.69 177.55 106.73C179.77 105.42 181.97 103.61 183.93 101.43C188.41 96.4402 191.93 90.4202 193.33 87.3702Z" fill="black"/>
<path opacity="0.0941" d="M193.03 87.3199C189.73 85.9999 185.6 84.5799 182.49 83.2499C182.38 83.2199 182.17 83.3599 182.07 83.3299C179.52 82.6599 175.23 85.1499 174.64 84.5399L169.98 91.8899L167.3 96.1199L159.95 107.71C160.25 108 161.11 109.51 163.77 110.54C167.39 111.94 172.33 109.72 177.24 106.86C179.48 105.55 181.69 103.73 183.65 101.53C188.13 96.4999 191.64 90.3999 193.03 87.3199Z" fill="black"/>
<path opacity="0.098" d="M192.73 87.2598C189.42 85.9298 185.32 84.4998 182.27 83.1698C182.17 83.1398 181.96 83.2898 181.86 83.2598C179.41 82.5998 175.11 85.2598 174.55 84.6798L169.92 91.9798L167.26 96.1898L159.96 107.71C160.28 108.01 161.13 109.48 163.71 110.49C167.29 111.89 172.12 109.76 176.94 106.99C179.19 105.69 181.42 103.86 183.39 101.63C187.86 96.5698 191.34 90.3698 192.73 87.2598Z" fill="black"/>
<path opacity="0.102" d="M192.44 87.21C189.11 85.87 185.05 84.43 182.07 83.1C181.97 83.07 181.76 83.23 181.66 83.2C179.3 82.57 175.01 85.39 174.46 84.82L169.86 92.08L167.21 96.26L159.95 107.71C160.28 108.02 161.12 109.45 163.63 110.44C167.17 111.84 171.9 109.8 176.62 107.12C178.89 105.83 181.13 103.98 183.11 101.72C187.58 96.63 191.05 90.35 192.44 87.21Z" fill="black"/>
<path opacity="0.1059" d="M192.14 87.1601C188.8 85.8101 184.77 84.3701 181.85 83.0301C181.76 83.0101 181.54 83.1701 181.45 83.1401C179.19 82.5301 174.89 85.5101 174.37 84.9701L169.8 92.1901L167.17 96.3501L159.96 107.73C160.3 108.05 161.14 109.44 163.57 110.41C167.07 111.81 171.7 109.87 176.32 107.27C178.6 105.99 180.85 104.13 182.85 101.84C187.3 96.6901 190.76 90.3301 192.14 87.1601Z" fill="black"/>
<path opacity="0.1098" d="M191.84 87.11C188.49 85.75 184.5 84.3 181.64 82.95C181.55 82.93 181.34 83.09 181.25 83.07C179.08 82.49 174.79 85.62 174.29 85.1L169.75 92.27L167.13 96.4L159.96 107.71C160.32 108.04 161.15 109.39 163.5 110.34C166.97 111.74 171.49 109.89 176.01 107.38C178.31 106.1 180.57 104.23 182.57 101.91C187.02 96.75 190.47 90.3 191.84 87.11Z" fill="black"/>
<path opacity="0.1137" d="M191.54 87.0498C188.17 85.6798 184.22 84.2198 181.42 82.8698C181.33 82.8498 181.12 83.0198 181.04 82.9998C178.97 82.4498 174.67 85.7298 174.19 85.2398L169.67 92.3698L167.07 96.4698L159.94 107.72C160.31 108.07 161.13 109.37 163.41 110.31C166.84 111.72 171.25 109.95 175.68 107.53C177.99 106.26 180.27 104.38 182.28 102.03C186.74 96.8098 190.17 90.2798 191.54 87.0498Z" fill="black"/>
<path opacity="0.1176" d="M191.25 86.9999C187.87 85.6199 183.95 84.1499 181.22 82.7999C181.14 82.7799 180.93 82.9599 180.84 82.9399C178.86 82.4099 174.57 85.8599 174.11 85.3799L169.62 92.4599L167.04 96.5399L159.96 107.72C160.34 108.08 161.16 109.34 163.36 110.26C166.75 111.67 171.06 110 175.39 107.66C177.72 106.4 180.01 104.5 182.03 102.12C186.46 96.8699 189.88 90.2499 191.25 86.9999Z" fill="black"/>
<path opacity="0.1216" d="M190.95 86.9497C187.55 85.5597 183.67 84.0797 181 82.7197C180.92 82.6997 180.71 82.8897 180.63 82.8697C178.75 82.3697 174.45 85.9697 174.02 85.5197L169.56 92.5597L166.99 96.6097L159.95 107.72C160.34 108.09 161.15 109.32 163.28 110.21C166.63 111.62 170.84 110.04 175.07 107.79C177.42 106.54 179.72 104.62 181.74 102.22C186.19 96.9397 189.59 90.2297 190.95 86.9497Z" fill="black"/>
<path opacity="0.1255" d="M190.65 86.8901C187.24 85.4901 183.39 84.0001 180.79 82.6401C180.72 82.6201 180.5 82.8201 180.43 82.8001C178.64 82.3101 174.35 86.0801 173.93 85.6501L169.5 92.6501L166.95 96.6801L159.96 107.72C160.37 108.1 161.17 109.29 163.22 110.16C166.53 111.57 170.64 110.08 174.77 107.92C177.13 106.68 179.45 104.75 181.48 102.31C185.91 97.0001 189.3 90.2001 190.65 86.8901Z" fill="black"/>
<path opacity="0.1294" d="M190.35 86.8402C186.92 85.4302 183.11 83.9302 180.57 82.5702C180.5 82.5502 180.29 82.7602 180.22 82.7402C178.52 82.2902 174.23 86.2002 173.84 85.8002L169.44 92.7502L166.91 96.7502L159.96 107.72C160.38 108.11 161.18 109.26 163.15 110.12C166.42 111.54 170.44 110.14 174.47 108.06C176.85 106.83 179.18 104.89 181.22 102.42C185.63 97.0602 189 90.1802 190.35 86.8402Z" fill="black"/>
<path opacity="0.1333" d="M190.06 86.7898C186.62 85.3698 182.84 83.8698 180.37 82.4998C180.3 82.4798 180.09 82.6998 180.02 82.6798C178.42 82.2498 174.13 86.3298 173.76 85.9398L169.38 92.8498L166.86 96.8298L159.95 107.73C160.38 108.14 161.17 109.25 163.07 110.08C166.3 111.5 170.22 110.2 174.15 108.2C176.55 106.98 178.89 105.02 180.94 102.52C185.35 97.1198 188.71 90.1498 190.06 86.7898Z" fill="black"/>
<path opacity="0.1373" d="M189.76 86.7299C186.3 85.2999 182.56 83.7899 180.15 82.4099C180.09 82.3899 179.87 82.6199 179.81 82.5999C178.3 82.1999 174.01 86.4299 173.66 86.0699L169.31 92.9299L166.81 96.8799L159.95 107.71C160.39 108.13 161.18 109.2 162.99 110.01C166.18 111.44 170 110.23 173.83 108.31C176.25 107.1 178.6 105.12 180.65 102.6C185.08 97.1899 188.42 90.1299 189.76 86.7299Z" fill="black"/>
<path opacity="0.1412" d="M189.46 86.6802C185.99 85.2402 182.29 83.7202 179.94 82.3402C179.88 82.3302 179.67 82.5602 179.61 82.5402C178.2 82.1602 173.91 86.5502 173.58 86.2102L169.26 93.0302L166.77 96.9502L159.95 107.71C160.41 108.14 161.18 109.17 162.92 109.96C166.07 111.39 169.79 110.28 173.52 108.44C175.95 107.24 178.32 105.25 180.38 102.69C184.8 97.2502 188.12 90.1002 189.46 86.6802Z" fill="black"/>
<path opacity="0.1451" d="M189.16 86.6298C185.68 85.1798 182.01 83.6498 179.72 82.2698C179.67 82.2598 179.45 82.4998 179.4 82.4798C178.08 82.1298 173.79 86.6798 173.49 86.3598L169.2 93.1298L166.73 97.0298L159.96 107.72C160.43 108.16 161.2 109.16 162.86 109.93C165.97 111.37 169.59 110.35 173.22 108.59C175.67 107.41 178.05 105.39 180.12 102.81C184.52 97.3098 187.83 90.0798 189.16 86.6298Z" fill="black"/>
<path opacity="0.149" d="M188.87 86.5698C185.37 85.1098 181.74 83.5698 179.52 82.1898C179.47 82.1798 179.25 82.4198 179.2 82.4098C177.98 82.0798 173.69 86.7898 173.4 86.4898L169.14 93.2198L166.69 97.0898L159.96 107.71C160.44 108.16 161.2 109.12 162.79 109.87C165.86 111.31 169.39 110.39 172.91 108.71C175.38 107.54 177.76 105.51 179.85 102.9C184.25 97.3698 187.54 90.0498 188.87 86.5698Z" fill="black"/>
<path opacity="0.1529" d="M188.57 86.5202C185.06 85.0502 181.46 83.5002 179.3 82.1102C179.25 82.1002 179.04 82.3502 178.99 82.3402C177.86 82.0502 173.57 86.9002 173.31 86.6302L169.07 93.3202L166.63 97.1702L159.94 107.72C160.43 108.19 161.19 109.11 162.7 109.83C165.73 111.28 169.16 110.45 172.58 108.85C175.07 107.69 177.46 105.64 179.55 103C183.97 97.4302 187.25 90.0302 188.57 86.5202Z" fill="black"/>
<path opacity="0.1569" d="M188.27 86.4698C184.74 84.9898 181.18 83.4298 179.09 82.0398C179.05 82.0298 178.83 82.2898 178.79 82.2798C177.75 81.9998 173.47 87.0198 173.23 86.7798L169.02 93.4198L166.6 97.2398L159.96 107.72C160.47 108.2 161.21 109.08 162.65 109.78C165.64 111.23 168.97 110.5 172.29 108.98C174.8 107.84 177.2 105.77 179.3 103.1C183.69 97.4998 186.95 89.9998 188.27 86.4698Z" fill="black"/>
<path opacity="0.1608" d="M187.98 86.4097C184.44 84.9197 180.91 83.3597 178.88 81.9597C178.84 81.9497 178.62 82.2197 178.58 82.2097C177.64 81.9497 173.35 87.1397 173.13 86.9097L168.95 93.5097L166.55 97.3097L159.95 107.72C160.47 108.21 161.21 109.06 162.57 109.74C165.52 111.2 168.75 110.56 171.97 109.12C174.5 107.99 176.91 105.9 179.02 103.2C183.42 97.5597 186.66 89.9797 187.98 86.4097Z" fill="black"/>
<path opacity="0.1647" d="M187.68 86.3601C184.12 84.8601 180.64 83.2901 178.67 81.8801C178.63 81.8701 178.42 82.1501 178.38 82.1401C177.53 81.9201 173.25 87.2502 173.05 87.0502L168.9 93.6001L166.51 97.3701L159.96 107.71C160.49 108.21 161.22 109.03 162.51 109.68C165.42 111.15 168.56 110.6 171.67 109.25C174.22 108.14 176.64 106.03 178.75 103.3C183.14 97.6201 186.37 89.9501 187.68 86.3601Z" fill="black"/>
<path opacity="0.1686" d="M187.38 86.3098C183.81 84.7998 180.36 83.2198 178.45 81.8098C178.42 81.7998 178.2 82.0898 178.17 82.0798C177.42 81.8698 173.13 87.3698 172.96 87.1898L168.84 93.6998L166.47 97.4498L159.96 107.72C160.5 108.23 161.23 109.01 162.44 109.64C165.31 111.12 168.35 110.67 171.36 109.39C173.93 108.3 176.36 106.16 178.48 103.4C182.86 97.6898 186.08 89.9298 187.38 86.3098Z" fill="black"/>
<path opacity="0.1725" d="M187.08 86.2497C183.5 84.7297 180.08 83.1397 178.24 81.7297C178.21 81.7197 177.99 82.0197 177.97 82.0097C177.31 81.8397 173.03 87.4797 172.87 87.3297L168.77 93.7897L166.41 97.5097L159.94 107.71C160.5 108.24 161.21 108.98 162.35 109.58C165.17 111.07 168.13 110.71 171.03 109.51C173.62 108.43 176.06 106.28 178.19 103.49C182.59 97.7497 185.78 89.8997 187.08 86.2497Z" fill="black"/>
<path opacity="0.1765" d="M186.79 86.1999C183.19 84.6699 179.81 83.0699 178.03 81.6599C178.01 81.6499 177.79 81.9599 177.76 81.9499C177.2 81.7899 172.91 87.6099 172.78 87.4699L168.71 93.8899L166.37 97.5799L159.95 107.71C160.52 108.25 161.22 108.96 162.29 109.54C165.07 111.05 167.93 110.78 170.74 109.65C173.35 108.6 175.8 106.41 177.94 103.59C182.31 97.8099 185.49 89.8799 186.79 86.1999Z" fill="black"/>
<path opacity="0.1804" d="M186.49 86.1501C182.88 84.6101 179.53 83.0001 177.82 81.5801C177.8 81.5801 177.58 81.8901 177.56 81.8801C177.09 81.7601 172.81 87.7201 172.7 87.6101L168.66 93.9901L166.34 97.6601L159.96 107.72C160.54 108.27 161.24 108.94 162.23 109.5C164.96 111.02 167.73 110.85 170.44 109.79C173.07 108.76 175.53 106.55 177.67 103.7C182.03 97.8701 185.2 89.8501 186.49 86.1501Z" fill="black"/>
<path opacity="0.1843" d="M186.19 86.09C182.56 84.55 179.25 82.92 177.6 81.5C177.58 81.5 177.36 81.81 177.35 81.81C176.97 81.71 172.69 87.83 172.6 87.74L168.59 94.07L166.28 97.71L159.95 107.71C160.55 108.27 161.23 108.91 162.15 109.44C164.84 110.98 167.52 110.89 170.12 109.91C172.77 108.9 175.25 106.67 177.39 103.79C181.77 97.94 184.9 89.83 186.19 86.09Z" fill="black"/>
<path opacity="0.1882" d="M185.89 86.0402C182.25 84.4802 178.97 82.8602 177.39 81.4302C177.38 81.4302 177.16 81.7502 177.15 81.7502C176.87 81.6802 172.59 87.9502 172.52 87.8902L168.54 94.1802L166.25 97.8002L159.96 107.73C160.57 108.3 161.24 108.91 162.09 109.41C164.73 110.97 167.32 110.97 169.82 110.06C172.5 109.08 174.98 106.81 177.13 103.9C181.49 98.0002 184.61 89.8002 185.89 86.0402Z" fill="black"/>
<path opacity="0.1922" d="M185.6 85.9899C181.94 84.4199 178.71 82.7899 177.18 81.3599C177.17 81.3599 176.95 81.6899 176.94 81.6899C176.75 81.6399 172.47 88.0799 172.43 88.0299L168.47 94.2699L166.2 97.8599L159.95 107.72C160.57 108.31 161.23 108.88 162.01 109.35C164.6 110.94 167.11 111.02 169.5 110.18C172.2 109.23 174.69 106.93 176.85 103.99C181.21 98.0699 184.32 89.7799 185.6 85.9899Z" fill="black"/>
<path opacity="0.1961" d="M185.3 85.93C181.63 84.35 178.43 82.71 176.97 81.27L176.74 81.61C176.65 81.59 172.37 88.18 172.34 88.16L168.41 94.36L166.15 97.93L159.95 107.72C160.58 108.32 161.23 108.86 161.94 109.31C164.47 110.92 166.9 111.09 169.19 110.32C171.91 109.4 174.4 107.06 176.57 104.09C180.93 98.13 184.03 89.75 185.3 85.93Z" fill="black"/>
<path opacity="0.2" d="M159.95 107.72C163.13 110.72 166.13 111.33 168.88 110.45C171.63 109.57 174.12 107.18 176.3 104.19C180.65 98.19 183.74 89.74 185 85.89C181.31 84.31 178.15 82.65 176.75 81.21L168.35 94.47L159.95 107.72Z" fill="black"/>
</g>
<path d="M161.6 109.69L161.33 110.58C161.33 110.58 178.74 120.84 198.08 115.65L197.97 114.63C180.05 119.39 163.83 110.93 161.6 109.69Z" fill="#D0D2D3"/>
<path d="M161.33 110.58C162.83 110.5 171.63 108.87 171.63 108.87L162.46 105.51L161.33 110.58Z" fill="#929497"/>
<path d="M87.84 97.19L100.41 119.17C100.41 119.17 104.44 91.25 171.63 108.88L184.57 84.5C184.57 84.5 136.75 56.15 87.84 97.19Z" fill="white"/>
<path d="M99.77 118.04L100.41 119.17C100.41 119.17 104.44 91.2501 171.63 108.88L172.2 107.81C106.03 90.7901 100.08 116.4 99.77 118.04Z" fill="#D0D2D3"/>
<path d="M104.23 94.4297C103.67 94.2897 103.04 94.3297 102.36 94.5597C101.67 94.7897 100.94 95.1697 100.19 95.7197C99.43 96.2697 98.68 96.9297 97.93 97.6797C97.65 97.9697 97.36 98.2697 97.07 98.5997C96.78 98.9197 96.49 99.2597 96.21 99.5897C95.93 99.9197 95.66 100.25 95.41 100.56C95.16 100.87 94.95 101.15 94.77 101.39C97.5 104.39 98.87 105.89 101.6 108.88C101.75 108.76 101.9 108.62 102.06 108.47C102.22 108.32 102.37 108.18 102.5 108.05C102.81 107.75 103.1 107.46 103.36 107.18C102.4 106.02 101.93 105.45 100.97 104.29C101.19 104.1 101.39 103.92 101.57 103.75C101.75 103.58 101.96 103.39 102.2 103.17C102.84 102.58 103.44 101.97 104.01 101.34C104.58 100.71 105.04 100.07 105.4 99.4197C105.76 98.7697 105.98 98.1197 106.05 97.4697C106.12 96.8097 105.98 96.1697 105.6 95.5497C105.24 94.9497 104.79 94.5697 104.23 94.4297ZM103.36 99.7897C103.14 100.2 102.85 100.61 102.49 101.02C102.13 101.43 101.76 101.81 101.36 102.19C101.07 102.47 100.84 102.67 100.69 102.81C100.53 102.95 100.35 103.11 100.14 103.3C99.07 102.01 98.53 101.36 97.46 100.06C97.8 99.6497 98.22 99.1997 98.71 98.7097C99.19 98.2297 99.66 97.8197 100.13 97.4697C100.59 97.1297 101.03 96.8897 101.43 96.7597C101.83 96.6297 102.2 96.6097 102.53 96.6897C102.86 96.7797 103.14 96.9897 103.37 97.3397C103.63 97.7397 103.75 98.1397 103.72 98.5497C103.7 98.9597 103.58 99.3797 103.36 99.7897Z" fill="#8C8611"/>
<path d="M115.16 89.9097C114.16 89.8397 112.86 90.2397 111.33 91.1597C110.75 91.5097 110.16 91.9097 109.57 92.3697C108.98 92.8197 108.06 93.4697 108.03 93.7297C108 93.9097 108.82 94.6096 109.04 94.5596C109.28 94.4996 109.82 93.8397 110.24 93.4997C110.66 93.1597 111.14 92.8296 111.66 92.5196C112.52 92.0096 113.23 91.7597 113.79 91.7497C114.35 91.7397 114.75 92.0497 115 92.6597C115.05 92.7797 115.07 92.8396 115.12 92.9496C114.9 93.0396 114.64 93.1497 114.33 93.2997C114.02 93.4497 113.62 93.6497 113.15 93.9097C112.52 94.2697 111.94 94.6697 111.43 95.1097C110.92 95.5497 110.5 96.0196 110.19 96.4896C109.87 96.9696 109.68 97.4397 109.6 97.8997C109.52 98.3597 109.6 98.7896 109.82 99.1797C110.05 99.5897 110.34 99.8596 110.7 100.02C111.06 100.18 111.47 100.24 111.94 100.2C112.41 100.16 112.93 100.04 113.5 99.8196C114.07 99.6096 114.69 99.3297 115.36 98.9797C116.07 98.6097 116.75 98.2297 117.41 97.8197C118.07 97.4097 118.64 97.0696 119.1 96.7696C118.35 94.7096 117.98 93.6797 117.23 91.6197C116.84 90.5697 116.15 89.9797 115.16 89.9097ZM115.77 97.2497C115.44 97.4497 115.11 97.6297 114.79 97.7997C114.54 97.9297 114.27 98.0597 113.99 98.1897C113.7 98.3197 113.43 98.4096 113.16 98.4496C112.89 98.4896 112.64 98.4797 112.41 98.3997C112.18 98.3297 111.99 98.1497 111.84 97.8597C111.61 97.4097 111.67 96.9297 112.02 96.4397C112.37 95.9397 112.99 95.4297 113.89 94.9397C114.12 94.8097 114.41 94.6696 114.76 94.5196C115.1 94.3596 115.39 94.2397 115.62 94.1497C116.03 95.1597 116.24 95.6697 116.65 96.6797C116.4 96.8697 116.1 97.0597 115.77 97.2497Z" fill="#8C8611"/>
<path d="M131.25 86.2301C130.92 85.6801 130.49 85.2501 129.97 84.9601C129.45 84.6701 128.84 84.5101 128.15 84.5001C127.46 84.4801 126.73 84.5801 125.97 84.8001C125.46 84.9501 125.01 85.1301 124.61 85.3401C124.21 85.5501 123.87 85.7801 123.58 86.0301C123.29 86.2801 123.05 86.5301 122.86 86.7801C122.67 87.0301 122.42 87.5201 122.41 87.5201C122.41 87.5201 122.37 87.4101 122.31 87.2901C122.25 87.1701 122.19 87.0501 122.13 86.9201C122.07 86.7901 122.01 86.6701 121.95 86.5601C121.89 86.4501 121.85 86.3701 121.83 86.3701C121.73 86.3501 121.48 86.4501 121.29 86.5101C121.11 86.5701 120.93 86.6301 120.77 86.6901C120.59 86.7601 120.41 86.8401 120.24 86.9201C120.07 87.0001 119.91 87.0801 119.75 87.1701C121.25 92.2001 122 94.7101 123.5 99.7401C123.65 99.7101 123.83 99.6801 124.01 99.6401C124.2 99.6001 124.37 99.5501 124.51 99.5101C124.66 99.4701 124.82 99.4101 125 99.3501C125.18 99.2901 125.35 99.2201 125.51 99.1501C125.09 97.5301 124.88 96.7201 124.47 95.1001C124.73 95.0801 125.04 95.0401 125.38 94.9801C125.72 94.9201 126.06 94.8501 126.38 94.7701C128.3 94.2701 129.71 93.5401 130.67 92.4301C131.63 91.3201 132.05 89.9401 131.86 88.3001C131.79 87.4801 131.58 86.7801 131.25 86.2301ZM129.33 90.5101C129.21 91.0001 129 91.4201 128.72 91.7801C128.44 92.1401 128.09 92.4401 127.66 92.6901C127.23 92.9401 126.75 93.1301 126.21 93.2701C125.73 93.4001 125.34 93.4901 125.03 93.5401C124.72 93.5901 124.42 93.6201 124.11 93.6301C123.74 92.1901 123.56 91.4801 123.19 90.0401C123.08 89.6001 123.07 89.2001 123.16 88.8201C123.26 88.4401 123.42 88.1001 123.67 87.8001C123.91 87.5001 124.21 87.2301 124.56 87.0101C124.91 86.7901 125.3 86.6201 125.72 86.4901C126.83 86.1701 127.69 86.2401 128.27 86.7001C128.85 87.1501 129.22 87.8801 129.37 88.8601C129.48 89.4801 129.46 90.0301 129.33 90.5101Z" fill="#8C8611"/>
<path d="M143.13 83.2499C142.25 82.6399 140.9 82.3599 139.13 82.4799C138.46 82.5299 137.76 82.6199 137.04 82.7699C136.32 82.9199 135.22 83.1099 135.09 83.3299C134.97 83.5099 135.45 84.7399 135.67 84.7899C135.88 84.8399 136.66 84.4699 137.19 84.3499C137.71 84.2299 138.28 84.1499 138.88 84.1099C139.86 84.0499 140.62 84.1699 141.13 84.4599C141.64 84.7499 141.88 85.2999 141.85 86.0899C141.84 86.2399 141.84 86.3199 141.84 86.4699C141.61 86.4399 141.32 86.4199 140.97 86.4099C140.63 86.3999 140.19 86.3999 139.65 86.4199C138.93 86.4499 138.25 86.5599 137.6 86.7399C136.96 86.9199 136.39 87.1799 135.92 87.5099C135.44 87.8399 135.08 88.2299 134.83 88.6699C134.58 89.1199 134.48 89.6199 134.52 90.1599C134.56 90.7199 134.72 91.1799 134.98 91.5599C135.24 91.9299 135.59 92.2299 136.02 92.4499C136.45 92.6799 136.97 92.8299 137.57 92.9199C138.17 93.0099 138.84 93.0499 139.58 93.0499C140.36 93.0499 141.14 92.9999 141.9 92.9199C142.66 92.8399 143.31 92.7599 143.85 92.6899C144.03 90.0999 144.12 88.7999 144.3 86.1999C144.39 84.8599 144.01 83.8599 143.13 83.2499ZM141.68 91.2899C141.38 91.3499 141.04 91.3899 140.66 91.4199C140.28 91.4499 139.91 91.4699 139.56 91.4799C139.28 91.4799 138.99 91.4799 138.68 91.4599C138.37 91.4399 138.09 91.3799 137.83 91.2799C137.57 91.1699 137.35 91.0199 137.17 90.8099C136.99 90.5999 136.89 90.2999 136.87 89.9099C136.85 89.2999 137.09 88.8199 137.6 88.4899C138.12 88.1599 138.89 87.9599 139.9 87.9299C140.16 87.9199 140.48 87.9299 140.86 87.9499C141.24 87.9699 141.55 87.9999 141.79 88.0299C141.74 89.3299 141.72 89.9899 141.68 91.2899Z" fill="#8C8611"/>
<path d="M158.59 84.3999C158.1 84.2799 157.66 84.1999 157.28 84.1599C154.74 87.7899 153.59 89.6299 151.49 93.3099C150.96 89.0699 150.59 86.9799 149.62 82.9099C149.43 82.8599 149.19 82.8199 148.91 82.7899C148.63 82.7599 148.37 82.7299 148.14 82.7199C147.93 82.6999 147.69 82.6899 147.45 82.6799C147.2 82.6699 146.96 82.6699 146.73 82.6899C148.12 86.9699 148.69 89.1799 149.53 93.6999C149.63 93.7299 149.76 93.7699 149.93 93.8099C150.09 93.8499 150.25 93.8799 150.4 93.9099C150.52 93.9299 150.64 93.9599 150.77 93.9799C150.9 93.9999 151.02 94.0199 151.14 94.0499C150.71 94.7999 150.5 95.1699 150.09 95.9199C149.92 96.2199 149.75 96.4599 149.6 96.6299C149.45 96.7999 149.29 96.9199 149.13 96.9899C148.97 97.0599 148.81 97.0999 148.64 97.0999C148.47 97.0999 148.3 97.0899 148.11 97.0499C147.86 96.9999 147.62 96.9399 147.41 96.8499C147.2 96.7599 146.95 96.6199 146.9 96.6299C146.83 96.6499 146.64 97.0899 146.55 97.3299C146.46 97.5699 146.3 98.0399 146.37 98.1499C146.42 98.2399 146.86 98.3599 147.17 98.4699C147.47 98.5699 147.78 98.6599 148.1 98.7199C148.52 98.8099 148.91 98.8399 149.25 98.8199C149.59 98.7999 149.91 98.6999 150.22 98.5299C150.53 98.3599 150.82 98.1099 151.11 97.7699C151.4 97.4399 151.7 97.0099 152.02 96.4899C154.82 91.7899 156.4 89.4499 159.98 84.8499C159.74 84.7499 159.5 84.6699 159.26 84.5999C159 84.5099 158.79 84.4499 158.59 84.3999Z" fill="#8C8611"/>
<path d="M166.81 86.8598C166.16 86.5998 165.46 86.3798 164.72 86.2098C163.98 86.0398 162.86 85.7598 162.66 85.8998C162.46 86.0298 162.39 87.5598 162.59 87.7198C162.76 87.8598 163.65 87.8398 164.19 87.9498C164.73 88.0598 165.29 88.2398 165.88 88.4698C166.83 88.8598 167.49 89.3298 167.84 89.8798C168.2 90.4198 168.19 91.1098 167.83 91.9298C167.76 92.0898 167.73 92.1698 167.66 92.3298C167.45 92.1998 167.19 92.0398 166.87 91.8698C166.55 91.6998 166.14 91.4998 165.63 91.2798C164.94 90.9798 164.25 90.7898 163.57 90.6898C162.89 90.5898 162.26 90.6098 161.68 90.7298C161.1 90.8598 160.59 91.1098 160.17 91.4598C159.75 91.8198 159.45 92.2998 159.26 92.8998C159.07 93.5098 159.02 94.0798 159.1 94.5898C159.19 95.0998 159.38 95.5798 159.69 96.0198C160 96.4598 160.41 96.8498 160.93 97.2198C161.45 97.5898 162.05 97.9298 162.74 98.2698C163.47 98.6198 164.21 98.9198 164.95 99.1798C165.7 99.4298 166.34 99.6498 166.87 99.8198C168.15 97.1598 168.79 95.8298 170.07 93.1798C170.73 91.7998 170.8 90.5698 170.23 89.5198C169.68 88.4598 168.52 87.5398 166.81 86.8598ZM165.46 97.3298C165.16 97.2598 164.82 97.1498 164.45 97.0098C164.08 96.8698 163.73 96.7198 163.4 96.5698C163.14 96.4498 162.87 96.3098 162.59 96.1498C162.31 95.9898 162.07 95.7898 161.87 95.5698C161.67 95.3398 161.53 95.0798 161.45 94.7698C161.37 94.4698 161.4 94.0998 161.55 93.6898C161.78 93.0298 162.2 92.6398 162.83 92.5198C163.45 92.3998 164.26 92.5498 165.22 92.9798C165.47 93.0898 165.76 93.2498 166.11 93.4398C166.45 93.6298 166.73 93.7998 166.95 93.9398C166.36 95.2998 166.06 95.9798 165.46 97.3298Z" fill="#8C8611"/>
<path d="M104.23 93.5098C103.67 93.3698 103.04 93.4098 102.36 93.6398C101.67 93.8698 100.94 94.2498 100.19 94.8098C99.43 95.3598 98.68 96.0198 97.93 96.7698C97.65 97.0598 97.36 97.3598 97.07 97.6898C96.78 98.0098 96.49 98.3398 96.21 98.6798C95.93 99.0098 95.66 99.3398 95.41 99.6498C95.16 99.9598 94.95 100.24 94.77 100.47C97.5 103.47 98.87 104.97 101.6 107.96C101.75 107.84 101.9 107.7 102.06 107.55C102.22 107.4 102.37 107.26 102.5 107.13C102.81 106.83 103.1 106.54 103.36 106.26C102.4 105.1 101.93 104.53 100.97 103.37C101.19 103.18 101.39 103 101.57 102.83C101.75 102.66 101.96 102.47 102.2 102.25C102.84 101.66 103.44 101.05 104.01 100.42C104.58 99.7898 105.04 99.1498 105.4 98.4998C105.76 97.8498 105.98 97.1998 106.05 96.5498C106.12 95.8898 105.98 95.2498 105.6 94.6298C105.24 94.0298 104.79 93.6498 104.23 93.5098ZM103.36 98.8698C103.14 99.2798 102.85 99.6898 102.49 100.1C102.13 100.51 101.76 100.89 101.36 101.27C101.07 101.55 100.84 101.76 100.69 101.89C100.53 102.03 100.35 102.19 100.14 102.38C99.07 101.09 98.53 100.44 97.46 99.1398C97.8 98.7298 98.22 98.2798 98.71 97.7898C99.19 97.3098 99.66 96.8998 100.13 96.5498C100.59 96.2098 101.03 95.9698 101.43 95.8398C101.83 95.7098 102.2 95.6898 102.53 95.7698C102.86 95.8498 103.14 96.0698 103.37 96.4198C103.63 96.8198 103.75 97.2198 103.72 97.6298C103.7 98.0398 103.58 98.4598 103.36 98.8698Z" fill="#C1BC1F"/>
<path d="M115.16 88.9897C114.16 88.9197 112.86 89.3197 111.33 90.2397C110.75 90.5897 110.16 90.9897 109.57 91.4497C108.98 91.8997 108.06 92.5497 108.03 92.8097C108 92.9897 108.82 93.6897 109.04 93.6397C109.28 93.5797 109.82 92.9197 110.24 92.5797C110.66 92.2397 111.14 91.9097 111.66 91.5997C112.52 91.0897 113.23 90.8397 113.79 90.8297C114.35 90.8197 114.75 91.1297 115 91.7397C115.05 91.8597 115.07 91.9197 115.12 92.0397C114.9 92.1297 114.64 92.2397 114.33 92.3897C114.02 92.5397 113.62 92.7397 113.15 93.0097C112.52 93.3597 111.94 93.7697 111.43 94.2097C110.92 94.6497 110.5 95.1197 110.19 95.5897C109.87 96.0697 109.68 96.5397 109.6 96.9997C109.52 97.4597 109.6 97.8897 109.82 98.2797C110.05 98.6797 110.34 98.9597 110.7 99.1197C111.06 99.2797 111.47 99.3397 111.94 99.2997C112.41 99.2697 112.93 99.1397 113.5 98.9197C114.07 98.7097 114.69 98.4297 115.36 98.0797C116.07 97.7197 116.75 97.3297 117.41 96.9197C118.07 96.5097 118.64 96.1697 119.1 95.8697C118.35 93.8097 117.98 92.7797 117.23 90.7197C116.84 89.6497 116.15 89.0597 115.16 88.9897ZM115.77 96.3297C115.44 96.5297 115.11 96.7097 114.79 96.8797C114.54 97.0097 114.27 97.1397 113.99 97.2697C113.7 97.3997 113.43 97.4897 113.16 97.5297C112.89 97.5697 112.64 97.5597 112.41 97.4797C112.18 97.4097 111.99 97.2297 111.84 96.9397C111.61 96.4897 111.67 96.0097 112.02 95.5197C112.37 95.0197 112.99 94.5097 113.89 94.0197C114.12 93.8897 114.41 93.7497 114.76 93.5997C115.1 93.4397 115.39 93.3197 115.62 93.2297C116.03 94.2397 116.24 94.7497 116.65 95.7597C116.4 95.9497 116.1 96.1397 115.77 96.3297Z" fill="#C1BC1F"/>
<path d="M131.25 85.3101C130.92 84.7601 130.49 84.3301 129.97 84.0401C129.45 83.7501 128.84 83.5901 128.15 83.5801C127.46 83.5601 126.73 83.6601 125.97 83.8801C125.46 84.0301 125.01 84.2101 124.61 84.4201C124.21 84.6301 123.87 84.8601 123.58 85.1101C123.29 85.3601 123.05 85.6101 122.86 85.8601C122.67 86.1101 122.42 86.6001 122.41 86.6001C122.41 86.6001 122.37 86.4901 122.31 86.3701C122.25 86.2501 122.19 86.1301 122.13 86.0001C122.07 85.8701 122.01 85.7501 121.95 85.6401C121.89 85.5301 121.85 85.4501 121.83 85.4501C121.73 85.4301 121.48 85.5301 121.29 85.5901C121.11 85.6501 120.93 85.7101 120.77 85.7701C120.59 85.8401 120.41 85.9201 120.24 86.0001C120.07 86.0801 119.91 86.1601 119.75 86.2501C121.25 91.2801 122 93.7901 123.5 98.8201C123.65 98.7901 123.83 98.7601 124.01 98.7201C124.2 98.6801 124.37 98.6301 124.51 98.5901C124.66 98.5501 124.82 98.4901 125 98.4301C125.18 98.3701 125.35 98.3001 125.51 98.2401C125.09 96.6201 124.88 95.8101 124.47 94.1901C124.73 94.1701 125.04 94.1301 125.38 94.0701C125.72 94.0101 126.06 93.9401 126.38 93.8601C128.3 93.3601 129.71 92.6301 130.67 91.5201C131.63 90.4101 132.05 89.0301 131.86 87.3801C131.79 86.5601 131.58 85.8601 131.25 85.3101ZM129.33 89.5901C129.21 90.0801 129 90.5001 128.72 90.8601C128.44 91.2201 128.09 91.5201 127.66 91.7701C127.23 92.0201 126.75 92.2101 126.21 92.3501C125.73 92.4801 125.34 92.5701 125.03 92.6201C124.72 92.6701 124.42 92.7001 124.11 92.7101C123.74 91.2701 123.56 90.5601 123.19 89.1201C123.08 88.6801 123.07 88.2801 123.16 87.9001C123.26 87.5201 123.42 87.1801 123.67 86.8801C123.91 86.5801 124.21 86.3101 124.56 86.0901C124.91 85.8701 125.3 85.7001 125.72 85.5801C126.83 85.2601 127.69 85.3301 128.27 85.7901C128.85 86.2401 129.22 86.9701 129.37 87.9501C129.48 88.5601 129.46 89.1001 129.33 89.5901Z" fill="#C1BC1F"/>
<path d="M143.13 82.33C142.25 81.72 140.9 81.44 139.13 81.56C138.46 81.6 137.76 81.7 137.04 81.85C136.32 82 135.22 82.2 135.09 82.41C134.97 82.59 135.45 83.82 135.67 83.87C135.88 83.92 136.66 83.55 137.19 83.43C137.71 83.31 138.28 83.23 138.88 83.19C139.86 83.13 140.62 83.25 141.13 83.54C141.64 83.83 141.88 84.38 141.85 85.16C141.84 85.31 141.84 85.39 141.84 85.54C141.61 85.51 141.32 85.49 140.97 85.48C140.63 85.47 140.19 85.47 139.65 85.49C138.93 85.52 138.25 85.63 137.6 85.81C136.96 85.99 136.39 86.25 135.92 86.58C135.44 86.91 135.08 87.3 134.83 87.74C134.58 88.19 134.48 88.69 134.52 89.23C134.56 89.79 134.72 90.25 134.98 90.63C135.24 91 135.59 91.3 136.02 91.52C136.45 91.75 136.97 91.9 137.57 91.99C138.17 92.08 138.84 92.12 139.58 92.12C140.36 92.12 141.14 92.07 141.9 91.99C142.66 91.91 143.31 91.83 143.85 91.76C144.03 89.17 144.12 87.87 144.3 85.27C144.39 83.94 144.01 82.94 143.13 82.33ZM141.68 90.37C141.38 90.43 141.04 90.47 140.66 90.5C140.28 90.53 139.91 90.55 139.56 90.56C139.28 90.56 138.99 90.56 138.68 90.54C138.37 90.53 138.09 90.46 137.83 90.36C137.57 90.25 137.35 90.1 137.17 89.89C136.99 89.68 136.89 89.38 136.87 89C136.85 88.39 137.09 87.91 137.6 87.58C138.12 87.25 138.89 87.05 139.9 87.02C140.16 87.01 140.48 87.02 140.86 87.04C141.24 87.06 141.55 87.09 141.79 87.12C141.74 88.41 141.72 89.06 141.68 90.37Z" fill="#C1BC1F"/>
<path d="M158.59 83.4797C158.1 83.3597 157.66 83.2797 157.28 83.2297C154.74 86.8597 153.59 88.6997 151.49 92.3797C150.96 88.1397 150.59 86.0497 149.62 81.9797C149.43 81.9297 149.19 81.8897 148.91 81.8597C148.63 81.8297 148.37 81.7997 148.14 81.7897C147.93 81.7697 147.69 81.7597 147.45 81.7497C147.2 81.7397 146.96 81.7397 146.73 81.7597C148.12 86.0397 148.69 88.2497 149.53 92.7697C149.63 92.7997 149.76 92.8397 149.93 92.8797C150.09 92.9197 150.25 92.9497 150.4 92.9797C150.52 92.9997 150.64 93.0297 150.77 93.0397C150.9 93.0597 151.02 93.0797 151.14 93.1097C150.71 93.8597 150.5 94.2297 150.09 94.9797C149.92 95.2897 149.75 95.5197 149.6 95.6897C149.45 95.8597 149.29 95.9797 149.13 96.0497C148.97 96.1197 148.81 96.1597 148.64 96.1597C148.47 96.1597 148.3 96.1497 148.11 96.1097C147.86 96.0597 147.62 95.9997 147.41 95.9097C147.2 95.8197 146.95 95.6797 146.9 95.6897C146.83 95.7097 146.64 96.1497 146.55 96.3897C146.46 96.6297 146.3 97.0997 146.37 97.2097C146.42 97.2897 146.86 97.4197 147.17 97.5297C147.47 97.6297 147.78 97.7197 148.1 97.7797C148.52 97.8697 148.91 97.8997 149.25 97.8797C149.59 97.8597 149.91 97.7597 150.22 97.5897C150.53 97.4197 150.82 97.1697 151.11 96.8297C151.4 96.4997 151.7 96.0697 152.02 95.5497C154.82 90.8497 156.4 88.5097 159.98 83.9097C159.74 83.8097 159.5 83.7297 159.26 83.6597C159 83.5897 158.79 83.5297 158.59 83.4797Z" fill="#C1BC1F"/>
<path d="M166.81 85.9398C166.16 85.6798 165.46 85.4598 164.72 85.2898C163.98 85.1198 162.86 84.8398 162.66 84.9798C162.46 85.1198 162.39 86.6398 162.59 86.7998C162.76 86.9398 163.65 86.9198 164.19 87.0298C164.73 87.1398 165.29 87.3198 165.88 87.5498C166.83 87.9298 167.49 88.4098 167.84 88.9598C168.2 89.4998 168.19 90.1898 167.83 91.0098C167.76 91.1698 167.73 91.2498 167.66 91.4098C167.45 91.2798 167.19 91.1198 166.87 90.9498C166.55 90.7798 166.14 90.5798 165.63 90.3598C164.94 90.0598 164.25 89.8698 163.57 89.7698C162.89 89.6698 162.26 89.6898 161.68 89.8098C161.1 89.9398 160.59 90.1898 160.17 90.5398C159.75 90.8998 159.45 91.3798 159.26 91.9798C159.07 92.5998 159.02 93.1598 159.1 93.6698C159.19 94.1798 159.38 94.6598 159.69 95.0998C160 95.5398 160.41 95.9298 160.93 96.2998C161.45 96.6698 162.05 97.0098 162.74 97.3498C163.47 97.6998 164.21 97.9998 164.95 98.2598C165.7 98.5098 166.34 98.7298 166.87 98.8998C168.15 96.2398 168.79 94.9098 170.07 92.2598C170.73 90.8798 170.8 89.6498 170.23 88.5998C169.68 87.5398 168.52 86.6198 166.81 85.9398ZM165.46 96.4098C165.16 96.3398 164.82 96.2298 164.45 96.0898C164.08 95.9498 163.73 95.7998 163.4 95.6498C163.14 95.5298 162.87 95.3898 162.59 95.2298C162.31 95.0698 162.07 94.8698 161.87 94.6498C161.67 94.4198 161.53 94.1598 161.45 93.8498C161.37 93.5498 161.4 93.1898 161.55 92.7698C161.78 92.1098 162.2 91.7198 162.83 91.5998C163.45 91.4798 164.26 91.6298 165.22 92.0598C165.47 92.1698 165.76 92.3198 166.11 92.5198C166.45 92.7098 166.73 92.8798 166.95 93.0198C166.36 94.3798 166.06 95.0598 165.46 96.4098Z" fill="#C1BC1F"/>
</svg>
