<svg width="38" height="74" viewBox="0 0 38 74" fill="none" xmlns="http://www.w3.org/2000/svg">
<path d="M8.15512 72.5851C8.01655 72.5851 7.9022 72.4749 7.89808 72.3358C7.85017 70.8244 8.87628 66.6798 8.92007 66.5036C8.95458 66.3656 9.09366 66.2826 9.23223 66.3161C9.37028 66.3501 9.45425 66.4902 9.42025 66.6283C9.40943 66.6705 8.36735 70.879 8.41268 72.3198C8.41731 72.4615 8.30554 72.581 8.16336 72.5856C8.16079 72.5851 8.15821 72.5851 8.15512 72.5851Z" fill="#1E120D"/>
<path d="M5.51979 72.2775C5.34826 72.9621 8.09383 73.1192 8.28957 72.4537C8.48428 71.7877 5.78096 71.2334 5.51979 72.2775Z" fill="#1E120D"/>
<path d="M17.8063 72.8878C17.6986 72.8878 17.5982 72.8198 17.5621 72.7117C17.0826 71.2771 16.8775 67.0124 16.8688 66.8311C16.8621 66.6894 16.9718 66.5684 17.114 66.5617C17.2608 66.5493 17.3767 66.6647 17.3834 66.8069C17.3855 66.8507 17.5936 71.1807 18.0505 72.5484C18.0953 72.6833 18.0226 72.8291 17.8877 72.8744C17.8609 72.8842 17.8331 72.8878 17.8063 72.8878Z" fill="#1E120D"/>
<path d="M15.2668 73.3381C15.2988 74.0433 17.9743 73.4061 17.9707 72.7123C17.9666 72.0189 15.2184 72.2636 15.2668 73.3381Z" fill="#1E120D"/>
<path d="M36.2964 19.8063C40.1037 35.4035 31.7825 48.0378 25.6011 58.3401C19.6788 68.2107 12.1375 70.5983 8.43076 67.1831C4.02858 63.1275 15.3003 43.1874 15.7799 40.3234C16.259 37.4593 7.03325 38.7312 1.9439 30.6238C-3.14544 22.5107 1.87694 8.23117 15.6202 6.60392C27.7095 5.17189 34.7047 13.285 36.2964 19.8063ZM20.9872 23.9788C20.9872 21.805 18.9319 20.0433 16.3975 20.0433C13.858 20.0433 11.8027 21.805 11.8027 23.9788C11.8027 26.1525 13.858 27.9194 16.3975 27.9194C18.9319 27.9194 20.9872 26.1525 20.9872 23.9788Z" fill="#943C99"/>
<path d="M20.7132 5.12345C20.5633 4.74793 22.5244 0.414253 22.7835 0.155665C23.0415 -0.103438 24.5714 3.13715 24.5714 3.13715C24.5714 3.13715 27.4406 -0.050894 28.1654 0.000617575C28.8902 0.0521291 29.2518 4.76132 29.2518 4.76132C29.2518 4.76132 32.2018 2.48398 32.6675 3.15672C33.1332 3.82946 31.27 8.38309 30.8553 8.53865C30.4417 8.69421 29.1997 7.60681 25.8881 6.41689C23.2373 5.46496 20.8157 5.38203 20.7132 5.12345Z" fill="#FAC600"/>
<path d="M8.523 11.4965C8.523 11.4965 8.52455 11.5228 8.52661 11.5717C8.53073 11.6207 8.53742 11.6917 8.54515 11.7829C8.56318 11.9658 8.59614 12.2275 8.67135 12.5123C8.71204 12.6524 8.75943 12.8023 8.82898 12.9347C8.89182 13.0754 8.98609 13.1866 9.07933 13.2876C9.12826 13.337 9.18801 13.369 9.24107 13.4117C9.31061 13.4318 9.36006 13.4802 9.43527 13.4962C9.51305 13.5075 9.5728 13.5503 9.66295 13.5467L9.78915 13.5575L9.852 13.5642L9.85972 13.5652L9.86333 13.5663C9.9066 13.5652 9.80666 13.5678 9.818 13.5673H9.82057L9.84169 13.5663L9.88393 13.5637C9.98438 13.5534 10.1363 13.5585 10.194 13.5369C10.2476 13.507 10.3001 13.522 10.3609 13.4802C10.4851 13.4261 10.5989 13.3561 10.688 13.2402C10.7818 13.1336 10.8596 12.994 10.924 12.8518C10.9811 12.7034 11.0311 12.553 11.0672 12.4067C11.1362 12.1126 11.1661 11.8473 11.1841 11.6629C11.1985 11.4811 11.2073 11.377 11.2073 11.377L11.2088 11.3569C11.2212 11.2055 11.3536 11.0932 11.5045 11.1055C11.6194 11.1148 11.7121 11.1947 11.7445 11.2987C11.7445 11.2987 11.7826 11.4218 11.8208 11.6299C11.8568 11.8391 11.8986 12.1404 11.8769 12.5175C11.864 12.706 11.8388 12.9146 11.779 13.1356C11.7105 13.3561 11.6276 13.5987 11.4586 13.8249C11.3778 13.9402 11.2861 14.0505 11.1666 14.1458C11.0589 14.2529 10.925 14.3276 10.7874 14.3977C10.6582 14.4754 10.4779 14.5053 10.3202 14.5486C10.1611 14.5831 10.0828 14.5738 9.96017 14.5888L9.91793 14.5924L9.89681 14.5939L9.84324 14.5955L9.83655 14.5949L9.82366 14.5939L9.71806 14.5831L9.50841 14.5589C9.37088 14.5527 9.2251 14.4878 9.08705 14.4502C8.94797 14.4069 8.81662 14.3194 8.6899 14.2478C8.57503 14.1545 8.45655 14.0608 8.36537 13.9536C8.18096 13.7373 8.05013 13.4998 7.98265 13.2747C7.90074 13.0506 7.87086 12.8379 7.8549 12.6463C7.82244 12.2625 7.86622 11.957 7.90434 11.7464C7.92186 11.6402 7.94658 11.5614 7.96101 11.5012C7.97749 11.4455 7.98625 11.4157 7.98625 11.4157C8.02848 11.2704 8.18045 11.1874 8.32571 11.2297C8.44058 11.2632 8.5163 11.3652 8.52248 11.478L8.523 11.4965Z" fill="#1E120D"/>
<path d="M7.95637 15.0533C7.90847 15.0533 7.85954 15.04 7.81627 15.0116C7.69728 14.9344 7.66328 14.7747 7.74054 14.6557L8.51579 13.4632C8.59357 13.3442 8.75274 13.3097 8.87225 13.3875C8.99124 13.4647 9.02524 13.6244 8.94797 13.7434L8.17272 14.9359C8.12275 15.0121 8.04034 15.0533 7.95637 15.0533Z" fill="#1E120D"/>
<path d="M9.98485 15.7689C9.84268 15.7689 9.72729 15.6535 9.72729 15.5113V14.0499C9.72729 13.9077 9.84268 13.7924 9.98485 13.7924C10.127 13.7924 10.2424 13.9077 10.2424 14.0499V15.5113C10.2424 15.654 10.127 15.7689 9.98485 15.7689Z" fill="#1E120D"/>
<path d="M12.0722 14.7256C11.9985 14.7256 11.9253 14.6942 11.8743 14.6334L10.9502 13.529C10.8591 13.4198 10.8735 13.2575 10.9827 13.1658C11.0919 13.0747 11.2547 13.0896 11.3453 13.1983L12.2694 14.3027C12.3606 14.4119 12.3462 14.5742 12.237 14.6659C12.1891 14.7061 12.1304 14.7256 12.0722 14.7256Z" fill="#1E120D"/>
<path d="M21.5554 11.5264C21.5554 11.5264 21.5565 11.5526 21.559 11.6016C21.5637 11.6505 21.5693 11.7216 21.5776 11.8128C21.5956 11.9951 21.6286 12.2573 21.7038 12.5422C21.7445 12.6823 21.7919 12.8322 21.8614 12.9646C21.9237 13.1047 22.0185 13.2165 22.1117 13.3174C22.1612 13.3663 22.2204 13.3988 22.2735 13.441C22.343 13.4611 22.3925 13.5096 22.4677 13.526C22.5455 13.5374 22.6057 13.5796 22.6954 13.5765L22.821 13.5868L22.8839 13.5935L22.8921 13.5945L22.8963 13.5956C22.9395 13.594 22.8391 13.5971 22.8504 13.5966H22.853L22.8741 13.5956L22.9163 13.593C23.0168 13.5827 23.1683 13.5878 23.227 13.5662C23.28 13.5358 23.3326 13.5513 23.3934 13.5096C23.5175 13.455 23.6313 13.3849 23.7204 13.269C23.8142 13.1629 23.892 13.0233 23.9564 12.8811C24.013 12.7328 24.0635 12.5823 24.0991 12.4355C24.1681 12.1414 24.1974 11.8761 24.2155 11.6917C24.2299 11.5099 24.2387 11.4058 24.2387 11.4058L24.2402 11.3857C24.2526 11.2348 24.3849 11.122 24.5359 11.1343C24.6513 11.1441 24.7435 11.2235 24.7759 11.3275C24.7759 11.3275 24.8135 11.4506 24.8522 11.6593C24.8882 11.8684 24.9294 12.1697 24.9078 12.5468C24.8949 12.7353 24.8702 12.9434 24.8104 13.1649C24.7419 13.3854 24.659 13.628 24.4905 13.8542C24.4097 13.9695 24.318 14.0803 24.1985 14.1756C24.0908 14.2822 23.9574 14.3569 23.8199 14.427C23.6906 14.5048 23.5098 14.5351 23.3521 14.5784C23.193 14.6129 23.1152 14.6037 22.9921 14.6186L22.9503 14.6222L22.9292 14.6238L22.8757 14.6253L22.869 14.6248L22.8561 14.6238L22.751 14.6129L22.5413 14.5887C22.4038 14.5825 22.258 14.5176 22.1205 14.48C21.9814 14.4368 21.8501 14.3492 21.7233 14.2776C21.6085 14.1844 21.4905 14.0906 21.3983 13.9835C21.2144 13.7676 21.0831 13.5296 21.0161 13.3045C20.9342 13.0805 20.9038 12.8677 20.8878 12.6761C20.8554 12.2923 20.8986 11.9869 20.9378 11.7762C20.9548 11.6701 20.9795 11.5913 20.9945 11.531C21.0104 11.4754 21.0192 11.4455 21.0192 11.4455C21.0614 11.3002 21.2139 11.2173 21.3586 11.2595C21.4735 11.293 21.5492 11.395 21.5554 11.5078V11.5264Z" fill="#1E120D"/>
<path d="M20.9888 15.0828C20.9404 15.0828 20.8919 15.0694 20.8487 15.0411C20.7297 14.9638 20.6957 14.8041 20.7735 14.6852L21.5487 13.4927C21.6265 13.3731 21.7867 13.3407 21.9047 13.4175C22.0236 13.4947 22.0576 13.6544 21.9799 13.7734L21.2046 14.9664C21.1552 15.0416 21.0727 15.0828 20.9888 15.0828Z" fill="#1E120D"/>
<path d="M23.0168 15.7988C22.8746 15.7988 22.7592 15.6834 22.7592 15.5412V14.0798C22.7592 13.9377 22.8746 13.8223 23.0168 13.8223C23.159 13.8223 23.2744 13.9377 23.2744 14.0798V15.5412C23.2744 15.6839 23.1595 15.7988 23.0168 15.7988Z" fill="#1E120D"/>
<path d="M25.104 14.7552C25.0309 14.7552 24.9578 14.7243 24.9068 14.663L23.9821 13.5596C23.8904 13.4504 23.9049 13.2882 24.0141 13.197C24.1228 13.1048 24.285 13.1197 24.3767 13.2284L25.3013 14.3318C25.393 14.441 25.3786 14.6032 25.2694 14.6944C25.2215 14.7356 25.1623 14.7552 25.104 14.7552Z" fill="#1E120D"/>
<path d="M14.2325 12.2614C14.2346 12.2692 14.2753 12.3186 14.3716 12.4366C14.4648 12.5484 14.606 12.7024 14.7868 12.8559C14.879 12.9316 14.9815 13.0037 15.0902 13.0758C15.2025 13.1418 15.3235 13.2 15.4497 13.2535C15.579 13.302 15.7166 13.3329 15.8567 13.3653C16.0004 13.3875 16.1488 13.3967 16.3017 13.3957C16.3095 13.3967 16.3651 13.3973 16.3332 13.3988L16.4027 13.3937L16.5413 13.3833C16.6458 13.3803 16.6979 13.3622 16.7633 13.3509C16.8869 13.3313 17.0414 13.2932 17.162 13.2407C17.418 13.1428 17.6349 12.9955 17.8085 12.8404C18.1536 12.5252 18.3158 12.2043 18.3097 12.23C18.3488 12.0853 18.4977 11.9992 18.6424 12.0384C18.7872 12.077 18.8732 12.2259 18.8346 12.3706C18.8304 12.3809 18.8222 12.4912 18.7712 12.6709C18.7187 12.8502 18.6218 13.1021 18.4307 13.3705C18.3339 13.5029 18.22 13.6445 18.0737 13.7702C17.9295 13.8964 17.7647 14.0242 17.5736 14.1159C17.3814 14.2148 17.1898 14.2925 16.9554 14.3435C16.8411 14.3677 16.7133 14.3945 16.6319 14.3981L16.4934 14.412L16.4243 14.4193C16.3455 14.426 16.3553 14.4213 16.3162 14.4224C16.0962 14.428 15.8747 14.4002 15.6573 14.359C15.44 14.3111 15.2339 14.2333 15.0433 14.1395C14.8543 14.0427 14.6863 13.9273 14.5416 13.8027C14.3984 13.677 14.2768 13.5461 14.1795 13.4163C13.9817 13.1593 13.8725 12.9167 13.8091 12.7436C13.7483 12.5762 13.7256 12.4505 13.7272 12.4577C13.6731 12.3181 13.7421 12.1605 13.8817 12.1059C14.0208 12.0528 14.1779 12.1218 14.2325 12.2614Z" fill="#1E120D"/>
<path d="M9.42857 18.4675C9.42857 16.985 8.22732 15.7832 6.74533 15.7832C5.26283 15.7832 4.06107 16.985 4.06107 18.4675C4.06107 19.9495 5.26283 21.1512 6.74533 21.1512C8.22732 21.1512 9.42857 19.9495 9.42857 18.4675Z" fill="#F991A7"/>
<path d="M29.1204 18.5738C29.1204 17.0913 27.9191 15.8895 26.4361 15.8895C24.9541 15.8895 23.7524 17.0913 23.7524 18.5738C23.7524 20.0558 24.9541 21.2575 26.4361 21.2575C27.9191 21.2575 29.1204 20.0558 29.1204 18.5738Z" fill="#F991A7"/>
</svg>
