<svg width="45" height="80" viewBox="0 0 45 80" fill="none" xmlns="http://www.w3.org/2000/svg">
<path d="M29.6372 78.0897C29.5003 78.0897 29.3749 78.0002 29.3345 77.8627C28.8925 76.3444 28.8566 71.8942 28.8553 71.7057C28.854 71.5317 28.994 71.3898 29.168 71.3885H29.1706C29.3433 71.3885 29.4846 71.5285 29.4858 71.7019C29.4858 71.7473 29.5224 76.2524 29.9398 77.6875C29.9883 77.8545 29.8925 78.0298 29.7254 78.0784C29.6958 78.0859 29.6662 78.0897 29.6372 78.0897Z" fill="#434040"/>
<path d="M29.9404 77.4567C29.6561 77.1623 29.0943 77.1188 28.7847 77.1188C28.216 77.1188 27.3975 77.2745 26.9619 77.7121C26.7651 77.9095 26.6624 78.1497 26.6636 78.4069C26.6649 78.6018 26.7683 79.0557 27.7015 79.0557C28.5268 79.0557 30.0817 78.6509 30.1075 77.8773C30.1126 77.7209 30.0546 77.5753 29.9404 77.4567Z" fill="#434040"/>
<path d="M39.3384 77.6855C39.2015 77.6855 39.0754 77.596 39.0357 77.4586C38.5937 75.9403 38.5571 71.4907 38.5559 71.3015C38.5546 71.1275 38.6946 70.9856 38.8692 70.9844H38.8711C39.0439 70.9844 39.1851 71.1243 39.1864 71.2977C39.1864 71.3431 39.223 75.8482 39.641 77.2826C39.6895 77.4497 39.5937 77.625 39.4266 77.6736C39.3976 77.6811 39.3674 77.6855 39.3384 77.6855Z" fill="#434040"/>
<path d="M39.6416 77.0524C39.3573 76.7586 38.7955 76.7145 38.4852 76.7145C37.9172 76.7145 37.0987 76.8702 36.6624 77.3078C36.4663 77.5058 36.3629 77.7454 36.3642 78.0026C36.3654 78.1975 36.4682 78.6514 37.402 78.6514H37.4026C38.2286 78.6514 39.7822 78.2466 39.8081 77.473C39.8138 77.316 39.7564 77.171 39.6416 77.0524Z" fill="#434040"/>
<path d="M42.3138 42.4728C42.6656 45.3348 42.9809 48.1179 43.2476 50.7371C43.2476 50.7371 41.8346 48.8455 38.9304 49.9975C36.5477 50.9376 35.6258 56.3399 32.0483 56.6072C28.4707 56.8796 27.4644 53.8424 26.3849 52.017C25.4631 50.459 23.9959 50.7257 23.5898 50.8411C23.4379 48.4823 23.2809 46.063 23.1169 43.6677C23.8685 43.2004 25.6756 42.6733 26.8521 44.5958C28.1371 46.6872 29.8231 49.4584 32.4543 48.5794C35.0855 47.7005 35.559 43.1166 37.5842 42.0371C39.4336 41.0478 41.9014 42.254 42.3138 42.4728Z" fill="#F19800"/>
<path d="M43.2476 50.7371C44.2482 60.3235 44.6789 67.7208 44.1265 68.5941C41.6101 72.5531 29.9562 73.002 26.1365 70.9346C24.9782 70.3097 24.2809 61.1722 23.5898 50.8405C23.9959 50.7251 25.4637 50.4584 26.3849 52.0164C27.4644 53.8418 28.4707 56.879 32.0483 56.6066C35.6258 56.3393 36.547 50.937 38.9304 49.9969C41.8346 48.8455 43.2476 50.7371 43.2476 50.7371Z" fill="#75D2DB"/>
<path d="M41.368 35.136C41.7072 37.5975 42.0225 40.0654 42.3138 42.4727C41.9014 42.2539 39.4336 41.0477 37.5842 42.0358C35.559 43.1152 35.0861 47.6991 32.4543 48.578C29.8231 49.4576 28.1371 46.6865 26.8521 44.5944C25.6756 42.6726 23.8685 43.1997 23.1169 43.6663C22.9776 41.5988 22.8319 39.549 22.68 37.5723C22.8017 37.5238 24.6264 36.7539 26.518 38.3907C27.1548 38.9424 30.902 42.0345 32.7273 39.67C34.9644 36.7659 33.6006 34.9468 35.692 34.2066C37.7841 33.4607 39.3365 36.6322 41.2949 35.1467L41.368 35.136Z" fill="#FFE444"/>
<path d="M41.368 35.136L41.2949 35.1479C39.3365 36.6334 37.7841 33.4625 35.692 34.2078C33.6006 34.9474 34.9644 36.7671 32.7273 39.6713C30.902 42.0364 27.1554 38.9437 26.518 38.392C24.6264 36.7545 22.8017 37.5244 22.68 37.5735C22.4858 35.0212 22.2802 32.5956 22.0558 30.4127C22.5955 30.4001 24.1295 30.4852 25.1661 31.9108C26.4518 33.6694 29.0167 34.8144 30.4297 32.9228C31.8484 31.0369 31.6422 28.8061 33.8736 28.1996C36.0987 27.593 38.0578 31.3043 40.5496 29.3459C40.8346 31.2551 41.107 33.1952 41.368 35.136Z" fill="#E16278"/>
<path d="M21.1888 23.4758C22.2683 23.4096 23.7531 27.1196 26.5854 26.7867C29.593 26.4291 28.5438 22.803 31.5085 21.5905C34.4556 20.3837 36.7293 25.2835 39.6637 23.658C39.9607 25.5073 40.2576 27.4109 40.549 29.3459C38.0571 31.3043 36.0981 27.5937 33.873 28.1997C31.6422 28.8062 31.8478 31.037 30.4291 32.9229C29.0161 34.8144 26.4511 33.6688 25.1655 31.9109C24.1289 30.4859 22.5949 30.4008 22.0551 30.4128C21.7645 27.6234 21.4429 25.2343 21.0728 23.5004L21.1888 23.4758Z" fill="#7A62A0"/>
<path d="M39.6637 23.658C36.7293 25.2829 34.4556 20.3837 31.5085 21.5906C28.5438 22.803 29.593 26.4292 26.5854 26.7867C23.7531 27.1202 22.2682 23.4096 21.1888 23.4758L21.0734 23.5004C20.7159 21.7967 20.3035 20.7236 19.837 20.5111C16.8723 19.1586 11.3602 28.648 7.15214 29.4178C4.18112 29.9576 -0.136055 23.8825 0.00329027 20.5111C0.142635 17.0004 10.4018 6.21341 15.6528 2.15727C18.6238 -0.134676 30.4959 -1.08046 34.0067 1.75058C35.7532 3.15727 37.8264 12.4348 39.6637 23.658Z" fill="#75D2DB"/>
<path d="M16.6957 8.53312C16.6957 7.56717 15.912 6.78406 14.946 6.78406C13.9801 6.78406 13.1969 7.56717 13.1969 8.53312C13.1969 9.49908 13.9801 10.2822 14.946 10.2822C15.912 10.2822 16.6957 9.49908 16.6957 8.53312Z" fill="#434040"/>
<path d="M31.1006 8.53312C31.1006 7.56717 30.3175 6.78406 29.3515 6.78406C28.3856 6.78406 27.6025 7.56717 27.6025 8.53312C27.6025 9.49908 28.3856 10.2822 29.3515 10.2822C30.3175 10.2822 31.1006 9.49908 31.1006 8.53312Z" fill="#434040"/>
<path d="M19.6932 8.84963C19.6938 8.85783 19.7342 8.9543 19.8281 9.15544C19.9202 9.35027 20.0646 9.62455 20.2676 9.90891C20.3704 10.0508 20.4914 10.1908 20.6245 10.3244C20.7594 10.4562 20.9158 10.5678 21.0772 10.6737C21.1636 10.7153 21.2512 10.7582 21.3401 10.8017C21.4366 10.8263 21.5268 10.8679 21.6245 10.8957L21.9297 10.9531C22.0375 10.9581 22.1453 10.9606 22.2525 10.9726L22.6119 10.9562C22.7418 10.9474 22.8061 10.9184 22.907 10.9064C23.0993 10.8648 23.3042 10.7986 23.482 10.7122C23.6592 10.6201 23.8282 10.5186 23.9789 10.3995C24.1232 10.2746 24.2626 10.1504 24.3786 10.0186C24.8433 9.48709 25.052 9.00033 25.047 9.02744C25.0905 8.84901 25.2702 8.73929 25.4486 8.7828C25.627 8.82631 25.7361 9.00601 25.6932 9.18444C25.6895 9.19453 25.6787 9.34775 25.6144 9.60059C25.5482 9.85216 25.4291 10.2097 25.1901 10.6037C25.0703 10.8005 24.9202 11.006 24.7336 11.204C24.5419 11.3976 24.3206 11.5918 24.057 11.7475C23.7897 11.9007 23.5079 12.0294 23.185 12.1132C23.0249 12.1454 22.8294 12.1908 22.692 12.2021L22.4915 12.2172L22.3906 12.2248L22.3401 12.2286L22.3149 12.2305L22.2607 12.2324L22.2456 12.2318C22.0848 12.2254 21.9234 12.2097 21.7638 12.1964C21.6037 12.1693 21.4429 12.1283 21.2853 12.0918C21.1295 12.0432 20.9769 11.9795 20.8294 11.9165C20.6882 11.8389 20.5507 11.7563 20.4196 11.6725C20.1674 11.4884 19.9517 11.2803 19.7846 11.0609C19.6144 10.8446 19.4839 10.6239 19.3887 10.414C19.1907 9.99655 19.1125 9.62896 19.0721 9.37297C19.0349 9.12139 19.0368 8.94989 19.0368 8.95871C19.0072 8.77776 19.1295 8.60625 19.3105 8.57662C19.4921 8.54635 19.6636 8.66868 19.6932 8.84963Z" fill="#434040"/>
<path d="M16.8521 13.1321C16.8521 11.9322 15.591 10.9594 14.0355 10.9594C12.48 10.9594 11.2184 11.9322 11.2184 13.1321C11.2184 14.332 12.4794 15.3049 14.0355 15.3049C15.591 15.3049 16.8521 14.332 16.8521 13.1321Z" fill="#F9B4C1"/>
<path d="M32.844 13.2835C32.844 12.0836 31.5829 11.1107 30.0274 11.1107C28.4713 11.1107 27.2103 12.0836 27.2103 13.2835C27.2103 14.4834 28.4713 15.4563 30.0274 15.4563C31.5829 15.4563 32.844 14.4834 32.844 13.2835Z" fill="#F9B4C1"/>
</svg>
