<svg width="55" height="77" viewBox="0 0 55 77" fill="none" xmlns="http://www.w3.org/2000/svg">
<path d="M27.3896 75.5484C27.2621 75.5484 27.143 75.4678 27.0997 75.3397C26.5968 73.8329 26.3814 69.3607 26.3729 69.1715C26.3643 69.0037 26.4943 68.8603 26.6634 68.8529C26.8263 68.8346 26.9752 68.975 26.9819 69.1434C26.9844 69.1886 27.2023 73.72 27.6795 75.1474C27.7326 75.3073 27.6459 75.48 27.4866 75.5337C27.4537 75.5435 27.4213 75.5484 27.3896 75.5484Z" fill="#434040"/>
<path d="M26.639 74.6157C25.9914 74.6157 25.1456 74.8184 24.7135 75.2706C24.5127 75.4811 24.4126 75.7326 24.4248 75.998C24.4328 76.1823 24.5432 76.6114 25.386 76.6114C26.1001 76.6114 27.1711 76.3038 27.6264 75.8455C27.7869 75.6837 27.8681 75.5098 27.8662 75.3267C27.8644 74.8812 27.4055 74.6157 26.639 74.6157Z" fill="#434040"/>
<path d="M18.0889 75.1832C17.9241 75.1832 17.7892 75.0526 17.7837 74.8878C17.7331 73.2998 18.809 68.954 18.8548 68.7697C18.895 68.6067 19.0592 68.5072 19.2252 68.5475C19.3888 68.5878 19.4882 68.7538 19.4473 68.9174C19.4364 68.9613 18.3458 73.3645 18.394 74.8689C18.3995 75.0367 18.267 75.1783 18.0986 75.1838C18.0956 75.1832 18.0919 75.1832 18.0889 75.1832Z" fill="#434040"/>
<path d="M16.5332 73.9126C15.7124 73.9126 15.1656 74.2183 15.0319 74.7511C14.9892 74.9226 15.027 75.0965 15.1406 75.2418C15.5263 75.7367 16.673 75.7618 16.8988 75.7618C17.3284 75.7618 18.3452 75.6971 18.5215 75.0959C18.574 74.9183 18.5362 74.7304 18.4141 74.5686C18.0943 74.1427 17.2064 73.9126 16.5332 73.9126Z" fill="#434040"/>
<path d="M23.9336 33.6944C21.5101 33.6944 18.1029 32.6551 15.3017 27.8497C15.2162 27.7038 15.2657 27.5171 15.4115 27.4322C15.5556 27.348 15.7435 27.3962 15.829 27.5421C20.4482 35.466 26.5316 32.6648 26.7885 32.5415C26.9392 32.4689 27.1229 32.5324 27.1955 32.6844C27.2682 32.8363 27.2053 33.0182 27.054 33.0914C27.0241 33.1055 25.7577 33.6944 23.9336 33.6944Z" fill="#434040"/>
<path d="M16.5204 26.1571C16.933 26.3121 16.5338 27.681 15.8473 28.0697C15.1607 28.4603 13.389 27.5376 13.5672 27.1525C13.7467 26.7674 14.775 27.504 14.775 27.504C14.775 27.504 13.9987 26.2126 14.2312 26.0234C14.465 25.8342 15.2888 26.9126 15.2888 26.9126C15.2888 26.9126 15.0087 25.6957 15.3334 25.5669C15.6581 25.4394 15.8436 27.0658 15.8436 27.0658C15.8436 27.0658 16.1591 26.0216 16.5204 26.1571Z" fill="#434040"/>
<path d="M48.0478 10.1372C48.0722 11.0526 48.0478 12.0291 47.9746 13.0544C47.3271 13.2497 43.4884 14.1773 40.6511 10.0396C37.6607 5.69433 40.919 1.07446 40.919 1.07446L40.9258 1.03784C42.0243 1.29416 42.9946 1.5871 43.8118 1.91666C43.672 2.234 42.2617 5.70654 43.8179 7.86695C45.6494 10.4118 47.7915 10.1738 48.0478 10.1372Z" fill="#F48EB8"/>
<path d="M48.0478 10.1373C47.7915 10.1739 45.6488 10.4119 43.8179 7.86704C42.2617 5.70663 43.672 2.2341 43.8118 1.91675C44.5258 2.20969 45.1239 2.53314 45.5816 2.8871C47.2239 4.15039 47.9624 6.72581 48.0478 10.1373Z" fill="#277EA5"/>
<path d="M47.9746 13.0543C47.913 14.0247 47.8159 15.0377 47.6817 16.0935C44.3922 18.7788 36.8863 15.5748 35.2135 9.40481C33.8648 4.41877 36.6904 0.848585 37.081 0.396973C38.4785 0.56175 39.7723 0.775352 40.9264 1.03778L40.9197 1.07439C40.9197 1.07439 37.6608 5.69426 40.6518 10.0395C43.489 14.1772 47.3277 13.2496 47.9746 13.0543Z" fill="#FFE444"/>
<path d="M47.6816 16.0936C47.5907 16.8382 47.4803 17.601 47.3521 18.3822L47.2612 18.37C47.2612 18.37 36.6178 16.9663 32.8157 24.7536C30.3434 29.8128 31.1795 34.1825 33.0171 37.5757L31.3937 38.1494C29.6971 34.274 25.9866 32.3944 25.419 32.1197C26.8043 27.921 27.5855 24.7719 26.9752 23.8015C25.5838 21.5923 10.6745 24.7536 4.83403 22.581C-1.0058 20.4083 -1.27495 10.9001 2.52775 7.23225C9.10603 0.89137 26.2069 -0.902879 37.0816 0.397031C36.691 0.848643 33.8654 4.41883 35.2141 9.40487C36.8857 15.5749 44.3922 18.7789 47.6816 16.0936Z" fill="#75D2DB"/>
<path d="M47.2605 18.3698L47.3515 18.382C47.1928 19.3951 47.0042 20.4326 46.7967 21.4945C46.5038 21.4395 36.9034 19.8101 35.1213 28.5555C33.6328 35.885 41.3707 40.9138 41.3707 40.9138L41.5415 40.9687C41.0777 42.3968 40.6133 43.8065 40.1501 45.1797C39.3689 44.667 35.3654 41.9268 33.0164 37.5755C31.1789 34.1823 30.3428 29.8127 32.8151 24.7534C36.6171 16.9661 47.2605 18.3698 47.2605 18.3698Z" fill="#A8C742"/>
<path d="M46.7967 21.4947C46.5526 22.7031 46.2835 23.942 45.9967 25.1992L45.8502 25.1626C45.8502 25.1626 40.1013 23.3927 39.0156 29.7763C38.3498 33.6944 42.5912 36.8373 42.5912 36.8373L42.811 36.9045C42.3954 38.2715 41.9687 39.6325 41.5415 40.969L41.3707 40.914C41.3707 40.914 33.6322 35.8853 35.1213 28.5557C36.904 19.8103 46.5038 21.4398 46.7967 21.4947Z" fill="#FFE444"/>
<path d="M45.8508 25.1627L45.9973 25.1993C45.1062 29.0075 44.0016 32.9927 42.8116 36.9046L42.5918 36.8375C42.5918 36.8375 38.3504 33.6945 39.0162 29.7765C40.1019 23.3929 45.8508 25.1627 45.8508 25.1627Z" fill="#F48EB8"/>
<path d="M40.1507 45.1799C38.7904 49.2139 37.4471 52.9415 36.3059 56.0234L36.2083 55.9868C32.9493 54.0888 28.1281 54.375 25.754 55.3094C18.8822 58.0069 17.2222 65.7941 16.9659 67.2832C16.8561 67.1856 16.7523 67.0879 16.6486 66.9903C14.9947 65.3791 15.904 60.3388 17.741 54.2231C17.741 54.2231 28.3295 54.4916 31.1856 47.2976C32.6985 43.4833 32.3995 40.4623 31.3931 38.1494L33.0165 37.5757C35.3661 41.927 39.3695 44.6672 40.1507 45.1799Z" fill="#75D2DB"/>
<path d="M36.2083 55.9867L36.3059 56.0233C35.9702 56.9326 35.6468 57.7876 35.3539 58.5749L34.9871 58.4345C23.056 55.0047 20.1388 67.479 19.8031 69.1207C18.7778 68.6629 17.8136 68.0466 16.9653 67.2837C17.2216 65.7946 18.8822 58.0073 25.7534 55.3099C28.128 54.3755 32.9493 54.0887 36.2083 55.9867Z" fill="#277EA5"/>
<path d="M34.9877 58.434L35.3545 58.5743C34.7442 60.1855 34.2248 61.5342 33.8465 62.5412L33.7671 62.5101C24.8997 60.7585 24.0697 68.7655 23.9903 70.0721C22.5616 70.041 21.1281 69.7182 19.8038 69.1195C20.1394 67.4784 23.0566 55.0042 34.9877 58.434Z" fill="#FFE444"/>
<path d="M33.7671 62.5108L33.8464 62.5419C33.7122 62.8891 33.5901 63.1943 33.4925 63.4573C31.7287 68.1199 27.8656 70.1637 23.9909 70.0728C24.0696 68.7662 24.8996 60.7592 33.7671 62.5108Z" fill="#A8C742"/>
<path d="M31.3931 38.1495C32.3995 40.4625 32.6991 43.4834 31.1856 47.2977C28.3288 54.4918 17.741 54.2232 17.741 54.2232C18.1194 52.9782 18.5344 51.6912 18.9677 50.3796L19.0958 50.4224C19.0958 50.4224 27.0668 50.874 28.6041 44.4416C30.1426 38.0152 24.6189 34.4817 24.6189 34.4817C24.8997 33.6639 25.1682 32.8705 25.419 32.1199C25.986 32.3945 29.6965 34.2742 31.3931 38.1495Z" fill="#F48EB8"/>
<path d="M24.6189 34.4814C24.6189 34.4814 30.1426 38.015 28.6041 44.4413C27.0662 50.8737 19.0958 50.4221 19.0958 50.4221L18.9677 50.3794C19.4254 49.0191 19.9075 47.6276 20.4024 46.2356L20.4574 46.2539C20.4574 46.2539 25.1627 46.62 25.9805 43.2696C26.8898 39.5346 23.5332 37.6549 23.5332 37.6549L23.496 37.6427C23.8866 36.5503 24.265 35.4945 24.6189 34.4814Z" fill="#277EA5"/>
<path d="M23.5326 37.655C23.5326 37.655 26.8892 39.5347 25.9798 43.2697C25.1621 46.6201 20.4568 46.254 20.4568 46.254L20.4018 46.2357C21.4271 43.3185 22.5067 40.383 23.4954 37.6428L23.5326 37.655Z" fill="#FFE444"/>
<path d="M11.812 10.5364C11.812 9.63322 11.0809 8.9021 10.1777 8.9021C9.2763 8.9021 8.54336 9.63322 8.54336 10.5364C8.54336 11.4391 9.27569 12.1708 10.1777 12.1708C11.0809 12.1708 11.812 11.4391 11.812 10.5364Z" fill="#434040"/>
<path d="M28.9001 8.5528C28.9001 7.64958 28.1689 6.91846 27.2657 6.91846C26.3643 6.91846 25.6314 7.64958 25.6314 8.5528C25.6314 9.45541 26.3637 10.1872 27.2657 10.1872C28.1689 10.1872 28.9001 9.45541 28.9001 8.5528Z" fill="#434040"/>
<path d="M12.8483 10.6271C11.8554 12.5306 14.4796 14.3846 19.4589 13.9318C24.4389 13.479 24.8917 10.7583 24.2576 9.7672C23.3745 8.38612 21.8805 9.94784 18.4849 10.2878C15.55 10.5807 13.6637 9.06476 12.8483 10.6271Z" fill="white"/>
<path d="M11.8304 16.3993C11.8304 14.6362 10.4017 13.2075 8.63855 13.2075C6.87543 13.2075 5.44676 14.6362 5.44676 16.3993C5.44676 18.1624 6.87604 19.5911 8.63855 19.5911C10.4017 19.5911 11.8304 18.1624 11.8304 16.3993Z" fill="#F48EB8"/>
<path d="M32.5667 14.9279C32.5667 13.1648 31.1368 11.7361 29.3749 11.7361C27.613 11.7361 26.1831 13.1648 26.1831 14.9279C26.1831 16.691 27.613 18.1197 29.3749 18.1197C31.1368 18.1197 32.5667 16.691 32.5667 14.9279Z" fill="#F48EB8"/>
<path d="M12.8959 11.0593C12.8959 11.0593 13.5843 11.3157 14.6706 11.5164C15.2119 11.6232 15.8509 11.7026 16.5369 11.7569C16.8805 11.785 17.2357 11.7984 17.5963 11.8015C17.9552 11.8069 18.3299 11.7892 18.6851 11.7746C19.0574 11.749 19.4296 11.7215 19.7781 11.669C20.1309 11.619 20.4824 11.5579 20.8144 11.4768C21.1482 11.3999 21.4686 11.3163 21.7676 11.2186C22.0673 11.1259 22.3462 11.0221 22.5983 10.9147C23.1036 10.7035 23.5119 10.4948 23.7847 10.3294C24.0587 10.1653 24.1972 10.0554 24.1972 10.0554C24.2491 10.0133 24.3247 10.0212 24.3669 10.0725C24.4071 10.1219 24.4004 10.1952 24.3547 10.2379C24.3547 10.2379 23.7785 10.7597 22.7441 11.2449C22.4866 11.3663 22.2016 11.4853 21.8946 11.5933C21.5888 11.705 21.2605 11.8118 20.9139 11.8918C20.569 11.9809 20.2102 12.0486 19.8379 12.106C19.462 12.1664 19.0909 12.1981 18.7217 12.2287C17.9552 12.2683 17.2076 12.2476 16.4997 12.1847C15.7942 12.1243 15.1436 11.9986 14.5931 11.8722C13.4909 11.6092 12.8001 11.2815 12.8001 11.2815C12.7397 11.2528 12.714 11.1814 12.7427 11.1204C12.7714 11.0636 12.8373 11.038 12.8959 11.0593Z" fill="#434040"/>
<path d="M41.7918 32.3657C41.2022 32.3657 40.8409 32.3089 40.8238 32.3059C40.6579 32.2778 40.5462 32.1203 40.5749 31.9543C40.6029 31.7883 40.7567 31.6767 40.9264 31.7041C41.2651 31.7627 49.2488 32.979 51.9451 22.2648C51.986 22.1019 52.1514 22.0012 52.3156 22.0433C52.4791 22.0842 52.5786 22.2502 52.5371 22.4137C50.2631 31.4484 44.1694 32.3657 41.7918 32.3657Z" fill="#434040"/>
<path d="M50.6312 20.8862C50.2076 21.2023 51.1218 22.6445 52.0403 22.8654C52.9606 23.0857 54.6932 21.4355 54.3594 21.0516C54.0268 20.6683 53.0882 21.856 53.0882 21.856C53.0882 21.856 53.5526 20.113 53.2206 19.9732C52.8898 19.8335 52.2985 21.3476 52.2985 21.3476C52.2985 21.3476 52.2161 19.8542 51.8005 19.8145C51.3836 19.7755 51.7114 21.7083 51.7114 21.7083C51.7114 21.7083 51.0016 20.611 50.6312 20.8862Z" fill="#434040"/>
<path d="M12.8483 10.6272C12.8483 10.6272 12.874 11.0874 13.0522 11.2656L12.6707 11.8502C12.6707 11.8502 12.5175 11.0568 12.8483 10.6272Z" fill="#434040"/>
<path d="M24.1331 9.57886C24.1331 9.57886 24.1728 10.0378 24.0214 10.2398L24.4822 10.7646C24.4822 10.7646 24.5207 9.95724 24.1331 9.57886Z" fill="#434040"/>
</svg>
