<svg width="65" height="87" viewBox="0 0 65 87" fill="none" xmlns="http://www.w3.org/2000/svg">
<path d="M40.7401 5.5111C42.3835 7.73021 42.8892 9.77852 42.8892 9.77852L42.8965 9.82152C41.9725 9.93272 41.4239 10.2583 41.4239 10.2583C37.3525 2.01165 28.5436 1.6762 28.0638 1.66146C35.4178 0.785982 39.5187 4.26147 40.7346 5.50496C40.7401 5.50557 40.7401 5.50558 40.7401 5.5111Z" fill="#A3818F"/>
<path d="M46.2129 10.2552C49.3585 11.8956 50.0755 18.8491 48.9493 21.1007C47.669 23.6608 44.188 24.2752 42.8056 22.7392C39.7522 19.3473 40.53 10.6054 41.5191 9.93577C41.5191 9.93577 42.0782 9.62859 43.0059 9.54872C43.8292 9.48114 44.9412 9.59173 46.2129 10.2552Z" fill="#E16278"/>
<path d="M41.0645 10.1956C41.0645 10.1956 43.702 8.94107 46.364 11.8593C49.0261 14.7776 49.3192 22.4062 45.2883 23.4685C42.421 24.2241 42.3958 21.1259 42.3958 21.1259C42.3958 21.1259 39.1704 12.4995 41.0645 10.1956Z" fill="#C6546D"/>
<path d="M45.2907 38.1678C45.1433 38.1678 45.013 38.0609 44.9885 37.9104C44.9608 37.7427 45.0745 37.5848 45.2416 37.5578C45.2692 37.5535 47.9915 37.0927 49.6331 35.6944C53.4735 32.4229 53.0256 29.4229 53.0207 29.3928C52.9931 29.2263 53.1055 29.0678 53.272 29.0389C53.4348 29.0113 53.597 29.1212 53.6259 29.2884C53.6499 29.4235 54.1592 32.6465 50.0312 36.1625C48.2569 37.6727 45.4597 38.1445 45.3411 38.1642C45.3245 38.1666 45.3079 38.1678 45.2907 38.1678Z" fill="#434040"/>
<path d="M51.8356 26.9323C50.656 27.7807 51.3263 30.1117 53.3513 29.7565C55.3768 29.4008 54.0037 25.3736 51.8356 26.9323Z" fill="#434040"/>
<path d="M53.3255 43.8749C58.9512 53.7165 57.8122 74.003 37.2364 80.5331C16.6617 87.0694 -2.41877 67.6504 3.31821 37.7232C9.0552 7.80097 34.3482 8.27895 40.2216 9.80135C47.8619 11.7741 48.988 19.4384 45.585 22.6153C42.1347 25.8296 35.1407 24.0627 28.669 26.8329C19.5984 30.7176 21.3334 36.3882 22.4816 37.9905C23.6305 39.5928 26.4646 36.5215 33.3314 35.2504C40.5828 33.9111 48.8688 36.0835 53.3255 43.8749ZM42.5445 54.0876C42.405 49.9609 38.54 46.7477 33.9102 46.9044C29.2809 47.061 25.642 50.5285 25.7814 54.6547C25.9209 58.7808 29.7859 61.9995 34.4158 61.8428C39.0451 61.6861 42.684 58.2137 42.5445 54.0876Z" fill="#34BFAB"/>
<path d="M25.3323 0.315975C33.8788 -1.07373 38.4282 2.38702 40.7346 5.50556C39.5187 4.26146 35.4178 0.785974 28.0638 1.66207C28.0515 1.66268 28.046 1.66267 28.046 1.66267C27.5195 1.7235 26.9757 1.80951 26.4136 1.92071C15.8735 3.99851 13.1543 15.9302 12.8293 17.5822C12.7476 17.5233 12.6597 17.471 12.5725 17.4311C12.3353 17.3346 12.0373 17.2523 11.6859 17.2093C11.4144 17.1749 11.1066 17.1614 10.7871 17.1718L10.784 17.0858C10.784 17.0858 10.7447 2.68437 25.3323 0.315975Z" fill="#C9ADB6"/>
<path d="M17.4917 17.3789C17.4917 17.3789 17.5298 17.4717 17.6066 17.6376C17.681 17.8022 17.8075 18.0302 17.9734 18.2802C18.0588 18.4037 18.1571 18.5315 18.2738 18.6476C18.3918 18.76 18.5202 18.8737 18.6652 18.9505C18.8059 19.0402 18.9681 19.0777 19.1327 19.0992C19.2157 19.1065 19.3023 19.0918 19.3877 19.0924C19.4749 19.074 19.5609 19.0469 19.6494 19.0328C19.6813 19.0199 19.8405 18.9591 19.9062 18.9222C19.9572 18.8694 20.0193 18.8583 20.0733 18.7871C20.1931 18.6771 20.2791 18.5278 20.3442 18.3693C20.4763 18.0511 20.5261 17.6947 20.5335 17.39C20.5415 17.0834 20.5322 16.8217 20.5138 16.6398C20.4954 16.4598 20.4856 16.3572 20.4856 16.3572L20.4849 16.3523C20.4757 16.2626 20.5415 16.1828 20.6312 16.1742C20.7055 16.1668 20.7737 16.2104 20.7995 16.2768C20.7995 16.2768 20.9641 16.7001 21.0182 17.3814C21.0336 17.7199 21.0385 18.134 20.88 18.5745C20.7989 18.7908 20.6809 19.0181 20.4942 19.2036C20.418 19.3044 20.2754 19.3842 20.1618 19.4666C20.0389 19.5298 19.9959 19.5501 19.8288 19.6165C19.7065 19.6478 19.583 19.673 19.4589 19.6939C19.3293 19.6951 19.2009 19.7068 19.0737 19.692C18.8194 19.6564 18.5693 19.5784 18.3703 19.4463C18.1596 19.3283 18.0035 19.1637 17.8714 19.0058C17.7399 18.8467 17.6386 18.6845 17.5538 18.5327C17.2319 17.919 17.1778 17.4619 17.1778 17.4619L17.1772 17.457C17.1667 17.3679 17.2306 17.2868 17.3203 17.2763C17.3965 17.2702 17.4647 17.3126 17.4917 17.3789Z" fill="#434040"/>
<path d="M32.886 13.4377C32.886 13.4377 32.9241 13.5305 33.0015 13.6964C33.0752 13.8611 33.2024 14.089 33.3683 14.339C33.4543 14.4625 33.5526 14.5903 33.6687 14.7064C33.7873 14.8189 33.9151 14.9325 34.0607 15.0093C34.2014 15.0984 34.3635 15.1365 34.5282 15.158C34.6118 15.1654 34.6978 15.1506 34.7832 15.1512C34.8704 15.1328 34.9558 15.1058 35.0449 15.0916C35.0774 15.0793 35.2366 15.0179 35.3023 14.9817C35.3533 14.9282 35.4154 14.9178 35.4694 14.8465C35.5886 14.7365 35.6752 14.5872 35.7397 14.4287C35.8718 14.1105 35.9222 13.7541 35.9296 13.4494C35.9382 13.1435 35.9283 12.8811 35.9105 12.6999C35.8927 12.5199 35.8817 12.4173 35.8817 12.4173V12.413C35.8724 12.3233 35.9382 12.2434 36.0273 12.2342C36.1016 12.2268 36.1698 12.2711 36.1956 12.3374C36.1956 12.3374 36.3603 12.7601 36.4131 13.4414C36.4285 13.7806 36.4334 14.194 36.2749 14.6345C36.1938 14.8514 36.0758 15.0781 35.889 15.2637C35.8128 15.3638 35.6709 15.4437 35.5567 15.5266C35.4338 15.5899 35.3902 15.6102 35.2237 15.6765C35.102 15.7078 34.9779 15.733 34.8538 15.7539C34.7248 15.7545 34.5958 15.7668 34.4686 15.7521C34.2143 15.7164 33.9648 15.6384 33.7651 15.5069C33.5544 15.389 33.3984 15.2243 33.2657 15.0664C33.1342 14.9073 33.0328 14.7451 32.948 14.5934C32.6261 13.9802 32.5727 13.5225 32.5727 13.5225L32.5721 13.5176C32.561 13.4279 32.6255 13.3474 32.7146 13.337C32.7908 13.329 32.8596 13.372 32.886 13.4377Z" fill="#434040"/>
<path d="M22.3588 23.6056C22.4165 25.3037 21.0864 26.7272 19.3883 26.7843C17.6902 26.8421 16.2673 25.512 16.2095 23.8138C16.1524 22.1157 17.4819 20.6928 19.18 20.6351C20.8781 20.5779 22.3016 21.9074 22.3588 23.6056Z" fill="#F48EB8"/>
<path d="M41.3323 18.3121C41.3901 20.0103 40.0606 21.4331 38.3619 21.4909C36.6644 21.548 35.2409 20.2179 35.1831 18.5204C35.1254 16.8223 36.4567 15.3988 38.1536 15.3417C39.8523 15.2839 41.2752 16.614 41.3323 18.3121Z" fill="#F48EB8"/>
<path d="M31.7605 19.5242L31.7985 19.5593C31.057 20.3837 29.9745 21.0657 28.5338 21.3667C27.0384 21.6819 25.7292 21.5043 24.7001 21.0602C25.1861 20.5398 28.3261 17.4083 31.7605 19.5242Z" fill="#E88587"/>
<path d="M31.9159 14.871C33.3492 15.6156 33.3093 17.879 31.7992 19.5586L31.7611 19.5236C28.3267 17.4084 25.1867 20.5392 24.7007 21.0596C22.693 20.2173 21.721 18.3877 22.4214 17.2879C23.069 16.2638 25.2991 16.939 27.404 16.2957C29.7515 15.5775 30.8272 14.2996 31.9159 14.871Z" fill="#434040"/>
<path d="M13.1709 50.8984C11.2719 50.8984 9.0853 50.3031 8.1146 47.8579C6.13264 42.8631 11.2731 38.6202 11.3253 38.5778C11.4574 38.4716 11.6497 38.4912 11.7572 38.6233C11.8641 38.7548 11.8438 38.9483 11.7123 39.0552C11.6638 39.0945 6.87173 43.0584 8.68597 47.6312C10.3528 51.8304 16.2532 49.8048 16.3121 49.7827C16.4725 49.7274 16.6476 49.8104 16.7041 49.9701C16.7606 50.1305 16.6765 50.3055 16.5167 50.3621C16.4848 50.3737 14.9544 50.8984 13.1709 50.8984Z" fill="#434040"/>
<path d="M18.6111 48.2872C17.6177 47.2268 15.3924 48.192 16.0068 50.1549C16.6199 52.1178 20.4358 50.2366 18.6111 48.2872Z" fill="#434040"/>
<path d="M9.6241 81.6149C8.65647 81.6149 7.65689 81.3556 6.6358 80.8383C6.48467 80.7615 6.42385 80.5766 6.50064 80.4255C6.57744 80.2749 6.76114 80.2141 6.91351 80.2897C8.39844 81.0429 9.82254 81.1977 11.144 80.748C13.6525 79.8971 14.9918 77.1588 15.0054 77.1312C15.0785 76.9788 15.2616 76.9137 15.4152 76.9874C15.5681 77.0612 15.6326 77.2449 15.5589 77.3978C15.5005 77.5195 14.0918 80.3972 11.3413 81.3298C10.7828 81.5196 10.209 81.6149 9.6241 81.6149Z" fill="#434040"/>
<path d="M42.5371 85.453C42.5359 85.453 42.5353 85.453 42.5341 85.453C42.3645 85.4511 42.2281 85.3123 42.2299 85.1427C42.2447 83.5656 40.9938 78.9788 40.9815 78.9327C40.9373 78.7693 41.0331 78.6003 41.1972 78.5554C41.3618 78.5118 41.5302 78.6077 41.5744 78.7711C41.6266 78.9628 42.8603 83.4864 42.8443 85.1495C42.8425 85.3172 42.7055 85.453 42.5371 85.453Z" fill="#434040"/>
<path d="M5.75604 79.2158C5.35301 79.2293 5.00343 79.3798 4.74663 79.6489C4.56231 79.8418 4.51685 80.0876 4.62191 80.3223C4.85782 80.8482 5.88505 81.2291 6.61124 81.2045C6.95713 81.1922 7.22377 81.0957 7.40316 80.917C7.60836 80.713 7.65751 80.4377 7.53833 80.1619C7.31039 79.6335 6.47731 79.1918 5.75604 79.2158Z" fill="#434040"/>
<path d="M45.7245 84.9413C45.5709 84.3841 44.9817 84.0812 44.1081 84.11C43.3973 84.134 42.5126 84.392 42.198 84.8399C42.0788 85.0082 42.0456 85.2005 42.1028 85.3793C42.3037 86.0109 43.3966 86.0435 43.8568 86.0281C44.5216 86.0054 45.335 85.8401 45.6268 85.4438C45.7374 85.2933 45.7724 85.1152 45.7245 84.9413Z" fill="#434040"/>
<path d="M12.3734 32.4279C12.3734 32.4279 12.3869 32.4457 12.4127 32.4807C12.4367 32.5035 12.46 32.5213 12.5252 32.5674C12.648 32.6478 12.8649 32.7418 13.1487 32.8469C13.7232 33.0496 14.5808 33.2708 15.6179 33.5166C16.1358 33.6413 16.6992 33.7789 17.3043 33.8729C17.6072 33.9202 17.9169 33.9749 18.2394 33.989C18.562 34.0025 18.8937 33.9921 19.2285 33.9976C19.897 34.0025 20.5709 34.1727 21.2689 34.2243C21.9656 34.2864 22.6746 34.3036 23.3823 34.3417C24.0882 34.3779 24.8107 34.4123 25.4791 34.1899C26.139 33.9976 26.8203 33.9441 27.3524 33.6456C27.6128 33.5018 27.826 33.3126 27.9041 33.076C28.0036 32.845 27.8998 32.6626 27.6866 32.4948C27.2467 32.1717 26.6378 32.1416 26.1439 32.0316C25.1259 31.8092 24.2387 31.7121 23.6231 31.631C23.0045 31.5536 22.6512 31.5094 22.6512 31.5094C22.5787 31.5002 22.5271 31.4344 22.5357 31.3613C22.5437 31.2993 22.5928 31.2532 22.6518 31.2458C22.6518 31.2458 23.0131 31.2041 23.6471 31.1918C24.2799 31.1875 25.1861 31.201 26.2748 31.4019C26.8166 31.5284 27.3837 31.7521 27.9526 32.1496C28.0914 32.2559 28.2321 32.3953 28.3169 32.5919C28.4035 32.7904 28.4072 33.0244 28.3421 33.2137C28.2321 33.6056 27.9305 33.8981 27.6208 34.0953C26.9837 34.4682 26.2778 34.7041 25.5492 34.7103C24.8199 34.6759 24.1103 34.7797 23.3848 34.8264C22.6616 34.8731 21.9385 34.8362 21.2295 34.8067C20.5218 34.7649 19.814 34.803 19.1505 34.6501C18.8188 34.5757 18.4962 34.4811 18.1798 34.4025C17.8628 34.3263 17.5489 34.2851 17.2441 34.2311C16.6341 34.1285 16.0572 34.0308 15.5251 33.9411C14.4635 33.7334 13.5948 33.4631 13.0068 33.1958C12.7113 33.0644 12.4889 32.9292 12.3445 32.8057C12.277 32.7486 12.21 32.6736 12.1811 32.6282C12.1602 32.5901 12.1492 32.5704 12.1492 32.5704C12.1135 32.5065 12.1369 32.4267 12.2002 32.391C12.261 32.3566 12.3347 32.3757 12.3734 32.4279Z" fill="#EACCCC"/>
<path d="M3.95347 34.5542C3.95347 34.5542 3.74151 34.5744 3.34586 34.658C2.9545 34.7477 2.36962 34.8884 1.70918 35.2201C1.38602 35.3915 1.04197 35.6189 0.776559 35.9488C0.644469 36.1134 0.535732 36.3033 0.467536 36.5152C0.432517 36.6393 0.40794 36.7014 0.430057 36.7868C0.444802 36.8746 0.491497 36.9754 0.55232 37.0737C1.11201 37.8681 2.16873 38.542 3.28381 39.1822C4.42101 39.8187 5.70872 40.4263 7.12055 40.9381C7.82338 41.2023 8.55817 41.4388 9.32122 41.6403C10.0855 41.8357 10.8774 41.988 11.6749 42.1607C13.2747 42.4814 14.9169 42.8893 16.6242 43.0847C18.3279 43.2954 20.0715 43.374 21.8157 43.379C23.558 43.3765 25.3157 43.2346 26.9721 42.7732C28.6388 42.3874 30.2749 41.9819 31.7936 41.3835C33.3093 40.7906 34.7451 40.0952 35.9247 39.2055C37.1006 38.3067 37.9318 37.1253 38.2826 35.9623C38.4534 35.3799 38.4829 34.7864 38.3336 34.2752C38.1929 33.7616 37.8649 33.3512 37.4643 33.1356C37.0619 32.9181 36.6029 32.8886 36.1962 32.9844C35.787 33.076 35.4307 33.2713 35.1352 33.4815C34.5393 33.906 34.1553 34.3698 33.9083 34.6856C33.6632 35.0063 33.5471 35.1906 33.5471 35.1906C33.5084 35.2521 33.4272 35.2705 33.3658 35.2318C33.3068 35.1949 33.2878 35.1194 33.3191 35.0592L33.3228 35.0536C33.3228 35.0536 33.4266 34.857 33.6564 34.505C33.8917 34.1603 34.2444 33.6406 34.8741 33.1313C35.1917 32.8837 35.5837 32.6385 36.0758 32.5022C36.5593 32.3652 37.1688 32.3541 37.7241 32.6379C38.2752 32.915 38.7194 33.46 38.9117 34.1007C39.1114 34.7409 39.0985 35.4616 38.8995 36.1398C38.5075 37.5277 37.4035 38.6354 36.1925 39.5539C34.965 40.4939 33.5108 41.2029 31.9866 41.8596C30.4512 42.4918 28.8078 43.0447 27.0814 43.3224C25.3452 43.524 23.5979 43.7482 21.8298 43.8391C20.0629 43.938 18.2904 43.8422 16.5603 43.6591C14.8327 43.4607 13.1211 43.2598 11.5207 42.8082C10.7183 42.5944 9.94726 42.321 9.19589 42.0556C8.44267 41.7957 7.70788 41.5377 6.99583 41.2772C5.57847 40.7396 4.25205 40.1855 3.07922 39.5557C2.49065 39.2443 1.94632 38.907 1.44869 38.5482C0.954732 38.1845 0.4958 37.8091 0.180629 37.2961C0.105061 37.1658 0.0374799 37.0239 0.011062 36.855C0.00307515 36.8138 0.00184311 36.7696 0 36.726C0.00061437 36.6793 0.00675567 36.6129 0.0128994 36.5914C0.0307161 36.5023 0.0534472 36.4507 0.0737214 36.3801C0.164648 36.1177 0.305952 35.8867 0.468146 35.6938C0.796219 35.308 1.18757 35.0684 1.54329 34.8896C2.26518 34.54 2.88017 34.4331 3.2918 34.3637C3.70588 34.2998 3.93319 34.2906 3.93319 34.2906H3.93689C4.00938 34.2875 4.07081 34.344 4.07388 34.4171C4.07511 34.4884 4.02228 34.5474 3.95347 34.5542Z" fill="#EACCCC"/>
<path d="M34.8686 47.0486C34.8686 47.0486 34.8133 47.3109 34.7469 47.8147C34.6843 48.3166 34.6013 49.06 34.6247 49.9969C34.6437 50.4626 34.6867 50.9842 34.852 51.5046C35.008 52.0194 35.3263 52.5552 35.886 52.7284C36.442 52.9115 37.1282 52.7432 37.7887 52.4735C38.4393 52.1878 39.1003 51.7614 39.7632 51.2982C41.0872 50.3551 42.4708 49.2437 43.9164 48.0475C44.6407 47.4504 45.3835 46.836 46.1337 46.1946C46.8838 45.552 47.6395 44.8799 48.4462 44.2403C50.0515 42.9514 51.8713 41.8086 53.8409 40.8662C54.8288 40.4048 55.8751 40.0079 56.9902 39.8328C57.5468 39.7468 58.12 39.7167 58.6901 39.7806C59.2566 39.8476 59.828 40.0257 60.3256 40.277C61.3319 40.7439 62.2836 41.3927 63.0178 42.2454C63.7415 43.0982 64.2453 44.1795 64.2951 45.3277C64.3448 46.4766 63.9148 47.5923 63.2703 48.4819C62.6166 49.374 61.7516 50.0811 60.7907 50.5394C60.3145 50.7704 59.7997 50.9375 59.3144 51.0616C58.8093 51.187 58.3099 51.2939 57.7747 51.2908C57.5099 51.2828 57.2249 51.2619 56.9429 51.077C56.8046 50.9842 56.6812 50.8147 56.6572 50.6297C56.6277 50.4448 56.6793 50.2863 56.7389 50.1524C57.0043 49.6246 57.4571 49.3439 57.9074 49.1264C58.3707 48.9199 58.8487 48.8032 59.369 48.8296C60.0018 48.9562 60.301 49.3838 60.5812 49.7592C61.1083 50.5499 61.3571 51.4278 61.4665 52.2738C61.6723 53.9768 61.2736 55.5607 60.6408 56.779C59.9994 58.0065 59.1405 58.874 58.3903 59.4902C57.6285 60.1033 56.9558 60.4713 56.4993 60.7128C56.0385 60.9505 55.7854 61.0587 55.7854 61.0587L55.7811 61.0611C55.7141 61.0894 55.6367 61.0581 55.6085 60.9917C55.5808 60.9278 55.6091 60.8529 55.6705 60.8228C55.6705 60.8228 55.9132 60.7011 56.3482 60.4425C56.7807 60.1832 57.4073 59.7777 58.1071 59.1578C58.8063 58.5422 59.5748 57.6833 60.1394 56.5277C60.7102 55.3837 61.0309 53.9142 60.8319 52.3543C60.7329 51.5826 60.5302 50.7692 60.1179 50.0578C59.922 49.7186 59.6086 49.3648 59.3236 49.3033C58.9334 49.2708 58.4806 49.358 58.0868 49.5257C57.7022 49.7051 57.3097 49.9896 57.1481 50.3385C57.0694 50.5216 57.0879 50.6267 57.2052 50.7065C57.333 50.7938 57.5585 50.8325 57.7815 50.8306C58.2337 50.8294 58.719 50.7287 59.1841 50.5984C59.6688 50.462 60.1204 50.3023 60.5609 50.0774C62.3143 49.2044 63.6801 47.3631 63.7483 45.332C63.8072 44.322 63.4398 43.2727 62.7315 42.4924C62.0458 41.6876 61.112 41.1267 60.1327 40.7058C59.1755 40.2561 58.1133 40.2045 57.078 40.3765C56.0422 40.5504 55.042 40.9374 54.0916 41.3927C52.1852 42.3228 50.5104 43.6081 48.8381 44.7656C48.0063 45.3529 47.1818 45.9286 46.3972 46.5233C45.6139 47.1186 44.8705 47.7311 44.1462 48.3283C42.6938 49.5165 41.3465 50.677 40.0059 51.641C39.332 52.1208 38.6752 52.5626 37.9607 52.8863C37.2622 53.1874 36.4788 53.3815 35.7477 53.137C35.3889 53.016 35.0897 52.7708 34.8882 52.4937C34.6812 52.216 34.5651 51.9126 34.476 51.6232C34.3027 51.0408 34.2708 50.4946 34.2591 50.008C34.2456 49.0324 34.3703 48.281 34.4545 47.7717C34.5436 47.2636 34.6124 46.9933 34.6124 46.9933C34.6284 46.9226 34.6996 46.8784 34.7703 46.895C34.8385 46.9091 34.8815 46.9798 34.8686 47.0486Z" fill="#EACCCC"/>
<path d="M10.7011 30.1542C10.7011 30.1542 11.2854 32.2855 11.5993 32.4802C11.9133 32.6744 12.7205 32.2892 12.7642 32.0827C12.8084 31.8763 12.4797 29.7358 12.4797 29.7358C12.4797 29.7358 11.1619 30.1389 10.7011 30.1542Z" fill="#C9ADB6"/>
<path d="M13.9868 16.5833C14.442 17.7623 13.7164 22.4131 15.1442 28.4173C15.307 29.1005 14.2835 29.9207 13.1186 30.3434L13.0793 30.1855C11.4218 21.5469 12.3236 16.928 12.868 16.1011C13.2163 16.1699 13.5094 16.2792 13.7404 16.4003C13.8233 16.45 13.9081 16.5133 13.9868 16.5833Z" fill="#C6546D"/>
<path d="M13.0787 30.186L13.118 30.3439C12.3679 30.6191 11.3824 30.7125 10.1709 30.4803C7.08737 29.8849 6.21558 23.1459 7.40254 19.3565C8.23133 16.7178 10.3196 15.975 11.9722 16.0063C12.2917 16.0137 12.5983 16.0475 12.8667 16.1015C12.707 16.6631 11.4205 21.5473 13.0787 30.186Z" fill="#E16278"/>
</svg>
