<svg width="90" height="71" viewBox="0 0 90 71" fill="none" xmlns="http://www.w3.org/2000/svg">
<path d="M62.2382 62.8149C62.121 62.8149 62.0172 62.7301 61.9971 62.6105C61.7589 61.2013 62.1906 57.1905 62.2093 57.0205C62.224 56.8857 62.3528 56.7892 62.4793 56.8034C62.6135 56.8181 62.7115 56.9386 62.6963 57.0734C62.6919 57.1145 62.2533 61.187 62.4807 62.5297C62.5033 62.663 62.4131 62.7894 62.2798 62.8119C62.2651 62.8139 62.2519 62.8149 62.2382 62.8149Z" fill="#1E120D"/>
<path d="M59.7651 62.8591C59.6916 63.522 62.2818 63.3182 62.3798 62.6704C62.4773 62.0226 59.8758 61.8491 59.7651 62.8591Z" fill="#1E120D"/>
<path d="M71.6052 62.9939C71.5866 62.9939 71.567 62.9915 71.5479 62.9871C71.4161 62.9552 71.3353 62.8229 71.3671 62.6916C71.6866 61.3676 71.5313 57.275 71.5293 57.2338C71.5239 57.0986 71.6293 56.9844 71.7645 56.979C71.9203 56.9775 72.0139 57.0795 72.0193 57.2142C72.0262 57.3852 72.1786 61.4161 71.8439 62.8058C71.816 62.919 71.7155 62.9939 71.6052 62.9939Z" fill="#1E120D"/>
<path d="M74.0529 63.2091C74.0803 63.876 71.5097 63.4929 71.4573 62.8392C71.4048 62.1875 74.0112 62.1938 74.0529 63.2091Z" fill="#1E120D"/>
<path d="M89.4648 23.8301C89.6167 28.3726 89.4451 32.3662 88.9943 35.8649L88.916 35.8551C67.6788 46.6353 43.9965 35.365 43.9965 35.365L43.9034 35.3748C43.8255 34.6006 43.7711 33.8019 43.7319 32.9787C42.6293 9.47767 54.3798 1.06415 63.6607 0.147825C81.0561 -1.56722 89.0728 11.9669 89.4648 23.8301ZM71.5009 32.1604C71.8243 29.2203 71.8831 25.1091 69.9475 23.0951C67.9042 20.9734 63.9057 21.3801 62.1073 23.8301C60.3335 26.2508 58.4322 36.4921 64.3124 37.7171C69.8642 38.8735 71.1726 35.1004 71.5009 32.1604Z" fill="#84D3AF"/>
<path d="M88.9159 35.855L88.9943 35.8648C86.995 51.3105 79.4586 57.0922 69.4771 57.4989C57.9373 57.9693 45.7164 54.5931 43.9033 35.3748L43.9964 35.365C43.9964 35.365 67.6787 46.6353 88.9159 35.855Z" fill="#0077A2"/>
<path d="M67.5764 13.0176C67.5764 13.0176 66.9634 10.5641 64.1194 10.8429C61.4507 11.1046 60.4952 14.69 58.3205 14.9129C56.1459 15.1364 55.012 13.8677 54.8635 14.077C54.715 14.2862 58.2088 18.8717 63.3941 17.534C66.813 16.652 67.5764 13.9094 67.5764 13.0176Z" fill="#371E00"/>
<path d="M66.9697 12.9563C66.9697 12.9563 67.5832 10.5028 70.4268 10.7816C73.0954 11.0433 74.0514 14.6287 76.2256 14.8517C78.4003 15.0751 79.444 13.8064 79.6826 14.0157C79.9208 14.2249 76.6161 19.0334 71.152 17.4727C67.7562 16.5025 66.9697 13.8481 66.9697 12.9563Z" fill="#371E00"/>
<path d="M59.4539 11.7043C60.0628 11.7043 60.5564 11.2107 60.5564 10.6018C60.5564 9.99289 60.0628 9.49927 59.4539 9.49927C58.845 9.49927 58.3514 9.99289 58.3514 10.6018C58.3514 11.2107 58.845 11.7043 59.4539 11.7043Z" fill="#14120F"/>
<path d="M75.0716 11.8871C75.6805 11.8871 76.1741 11.3934 76.1741 10.7845C76.1741 10.1756 75.6805 9.68201 75.0716 9.68201C74.4627 9.68201 73.9691 10.1756 73.9691 10.7845C73.9691 11.3934 74.4627 11.8871 75.0716 11.8871Z" fill="#14120F"/>
<path d="M52.6246 31.7492C52.5285 31.7492 52.4364 31.6919 52.3977 31.5968C49.9643 25.6628 52.872 22.66 52.997 22.535C53.093 22.439 53.2479 22.44 53.3429 22.535C53.4385 22.6301 53.439 22.7854 53.3439 22.881C53.3155 22.9099 50.5489 25.7951 52.8515 31.4111C52.9024 31.5361 52.8426 31.6792 52.7177 31.7306C52.6873 31.7434 52.6559 31.7492 52.6246 31.7492Z" fill="#1E120D"/>
<path d="M53.4977 31.4306C53.0592 31.363 52.4074 31.5409 52.2624 31.9942C52.1164 32.4489 51.9738 33.792 52.2301 33.8984C52.6255 34.062 52.8303 32.835 52.8303 32.835C52.8303 32.835 53.0685 34.037 53.3081 34.0209C53.7168 33.9934 53.4713 32.7532 53.4713 32.7532C53.4713 32.7532 54.198 33.5847 54.3984 33.476C54.5983 33.3667 53.8667 32.1397 53.8667 32.1397C53.8667 32.1397 54.7713 32.3759 54.7713 32.0304C54.7698 31.685 53.9696 31.5041 53.4977 31.4306Z" fill="#1E120D"/>
<path d="M79.8683 32.0762C79.837 32.0762 79.8056 32.0703 79.7757 32.058C79.6503 32.0066 79.5905 31.8635 79.6419 31.7385C81.9528 26.1029 79.1784 23.2368 79.15 23.2089C79.0544 23.1133 79.0544 22.958 79.15 22.8624C79.2455 22.7669 79.4009 22.7669 79.4964 22.8624C79.6214 22.9874 82.5291 25.9902 80.0957 31.9242C80.0565 32.0188 79.9644 32.0762 79.8683 32.0762Z" fill="#1E120D"/>
<path d="M79.0995 31.5127C79.5381 31.445 80.1898 31.6229 80.3353 32.0762C80.4814 32.5309 80.624 33.874 80.3677 33.9804C79.9722 34.144 79.7674 32.917 79.7674 32.917C79.7674 32.917 79.5293 34.1191 79.2897 34.1029C78.881 34.0754 79.1265 32.8352 79.1265 32.8352C79.1265 32.8352 78.3998 33.6668 78.1994 33.558C77.9994 33.4487 78.731 32.2217 78.731 32.2217C78.731 32.2217 77.8265 32.4579 77.8265 32.1124C77.827 31.767 78.6272 31.5862 79.0995 31.5127Z" fill="#1E120D"/>
<path d="M25.879 69.934C25.7595 69.934 25.65 69.8558 25.6147 69.7357C25.2288 68.41 25.1974 64.5241 25.1963 64.3595C25.1952 64.2075 25.3174 64.0836 25.4694 64.0825H25.4716C25.6224 64.0825 25.7458 64.2048 25.7469 64.3562C25.7469 64.3958 25.7788 68.3296 26.1433 69.5827C26.1857 69.7286 26.102 69.8816 25.9561 69.924C25.9302 69.9306 25.9043 69.934 25.879 69.934Z" fill="#434040"/>
<path d="M26.1438 69.3812C25.8955 69.1241 25.4049 69.0861 25.1346 69.0861C24.638 69.0861 23.9233 69.2221 23.5429 69.6041C23.3711 69.7765 23.2814 69.9862 23.2825 70.2109C23.2836 70.381 23.3739 70.7774 24.1887 70.7774C24.9094 70.7774 26.2671 70.4239 26.2897 69.7484C26.2941 69.6119 26.2434 69.4847 26.1438 69.3812Z" fill="#434040"/>
<path d="M34.3501 69.581C34.2306 69.581 34.1205 69.5029 34.0858 69.3828C33.6999 68.0571 33.6679 64.1717 33.6668 64.0065C33.6657 63.8546 33.7879 63.7307 33.9404 63.7296H33.9421C34.093 63.7296 34.2163 63.8518 34.2174 64.0032C34.2174 64.0429 34.2493 67.9767 34.6143 69.2292C34.6567 69.3751 34.5731 69.5282 34.4272 69.5706C34.4018 69.5772 34.3754 69.581 34.3501 69.581Z" fill="#434040"/>
<path d="M34.6148 69.0283C34.3665 68.7717 33.876 68.7332 33.6051 68.7332C33.109 68.7332 32.3944 68.8691 32.0134 69.2512C31.8422 69.4241 31.7519 69.6333 31.753 69.858C31.7541 70.0281 31.8438 70.4245 32.6592 70.4245H32.6598C33.381 70.4245 34.7376 70.071 34.7602 69.3955C34.7652 69.2584 34.7151 69.1318 34.6148 69.0283Z" fill="#434040"/>
<path d="M36.9482 38.8334C37.2554 41.3324 37.5307 43.7626 37.7636 46.0497C37.7636 46.0497 36.5297 44.398 33.9938 45.4039C31.9132 46.2248 31.1083 50.942 27.9844 51.1755C24.8605 51.4133 23.9818 48.7612 23.0392 47.1673C22.2343 45.8069 20.9531 46.0398 20.5985 46.1405C20.4658 44.0809 20.3288 41.9683 20.1856 39.8767C20.8419 39.4688 22.4198 39.0085 23.4472 40.6872C24.5692 42.5134 26.0414 44.9331 28.339 44.1657C30.6365 43.3982 31.05 39.3955 32.8184 38.453C34.4332 37.5891 36.5881 38.6424 36.9482 38.8334Z" fill="#F19800"/>
<path d="M37.7635 46.0497C38.6373 54.4205 39.0133 60.8798 38.531 61.6423C36.3337 65.0993 26.1576 65.4913 22.8223 63.686C21.8109 63.1404 21.2019 55.1616 20.5985 46.14C20.9531 46.0393 22.2348 45.8064 23.0392 47.1668C23.9817 48.7607 24.8605 51.4128 27.9844 51.1749C31.1083 50.9415 31.9127 46.2242 33.9938 45.4033C36.5297 44.398 37.7635 46.0497 37.7635 46.0497Z" fill="#75D2DB"/>
<path d="M36.1223 32.4269C36.4185 34.5764 36.6938 36.7313 36.9481 38.8333C36.5881 38.6423 34.4331 37.5891 32.8183 38.4518C31.0499 39.3944 30.637 43.397 28.3389 44.1645C26.0414 44.9325 24.5692 42.5128 23.4471 40.686C22.4198 39.0079 20.8418 39.4682 20.1856 39.8756C20.0639 38.0703 19.9367 36.2804 19.804 34.5543C19.9103 34.5119 21.5036 33.8397 23.1553 35.269C23.7114 35.7507 26.9834 38.4507 28.5773 36.3861C30.5307 33.8502 29.3398 32.2618 31.1661 31.6154C32.9929 30.9641 34.3484 33.7334 36.0584 32.4363L36.1223 32.4269Z" fill="#FFE444"/>
<path d="M36.1223 32.4268L36.0584 32.4373C34.3484 33.7344 32.9929 30.9656 31.1661 31.6164C29.3399 32.2622 30.5307 33.8512 28.5773 36.3871C26.9834 38.4523 23.712 35.7517 23.1553 35.27C21.5036 33.8402 19.9103 34.5124 19.804 34.5553C19.6345 32.3266 19.455 30.2086 19.259 28.3025C19.7303 28.2915 21.0698 28.3659 21.9749 29.6107C23.0975 31.1462 25.3372 32.1461 26.5711 30.4944C27.8098 28.8476 27.6298 26.8997 29.5783 26.3701C31.5212 25.8404 33.2318 29.0811 35.4077 27.371C35.6565 29.0381 35.8944 30.7322 36.1223 32.4268Z" fill="#E16278"/>
<path d="M18.5019 22.2453C19.4445 22.1875 20.7411 25.427 23.2142 25.1363C25.8404 24.8241 24.9243 21.6578 27.5131 20.5991C30.0864 19.5453 32.0718 23.8238 34.6341 22.4044C34.8934 24.0192 35.1527 25.6814 35.4071 27.3711C33.2313 29.0811 31.5207 25.841 29.5777 26.3701C27.6298 26.8998 27.8093 28.8477 26.5705 30.4944C25.3367 32.1461 23.097 31.1457 21.9744 29.6108C21.0692 28.3665 19.7297 28.2922 19.2584 28.3026C19.0046 25.8669 18.7238 23.7808 18.4006 22.2667L18.5019 22.2453Z" fill="#7A62A0"/>
<path d="M34.6341 22.4045C32.0718 23.8233 30.0864 19.5454 27.5131 20.5992C24.9243 21.6579 25.8404 24.8243 23.2142 25.1364C20.7411 25.4277 19.4445 22.1876 18.5019 22.2454L18.4012 22.2669C18.089 20.7792 17.7289 19.8422 17.3215 19.6566C14.7328 18.4757 9.91969 26.7617 6.2452 27.434C3.65093 27.9052 -0.118802 22.6005 0.00287304 19.6566C0.124548 16.5911 9.08283 7.17197 13.668 3.63017C16.2622 1.62886 26.6289 0.80301 29.6944 3.27506C31.2195 4.50337 33.0298 12.6044 34.6341 22.4045Z" fill="#75D2DB"/>
<path d="M14.5786 9.19756C14.5786 8.35409 13.8942 7.67029 13.0508 7.67029C12.2073 7.67029 11.5235 8.35409 11.5235 9.19756C11.5235 10.041 12.2073 10.7248 13.0508 10.7248C13.8942 10.7248 14.5786 10.041 14.5786 9.19756Z" fill="#434040"/>
<path d="M27.1568 9.19756C27.1568 8.35409 26.473 7.67029 25.6296 7.67029C24.7861 7.67029 24.1023 8.35409 24.1023 9.19756C24.1023 10.041 24.7861 10.7248 25.6296 10.7248C26.473 10.7248 27.1568 10.041 27.1568 9.19756Z" fill="#434040"/>
<path d="M17.196 9.47386C17.1965 9.48101 17.2318 9.56525 17.3138 9.74088C17.3942 9.91101 17.5203 10.1505 17.6976 10.3988C17.7873 10.5227 17.893 10.6449 18.0092 10.7616C18.127 10.8767 18.2635 10.9742 18.4045 11.0666C18.4799 11.103 18.5564 11.1404 18.6341 11.1784C18.7183 11.1999 18.797 11.2362 18.8824 11.2604L19.1489 11.3105C19.243 11.315 19.3371 11.3172 19.4307 11.3276L19.7446 11.3133C19.858 11.3056 19.9141 11.2803 20.0022 11.2698C20.1702 11.2335 20.3491 11.1757 20.5044 11.1002C20.6591 11.0198 20.8066 10.9312 20.9382 10.8271C21.0643 10.7181 21.186 10.6097 21.2873 10.4946C21.693 10.0305 21.8753 9.60544 21.8709 9.62912C21.9089 9.47331 22.0658 9.37751 22.2216 9.4155C22.3774 9.45349 22.4726 9.6104 22.4352 9.76621C22.4319 9.77502 22.4225 9.9088 22.3664 10.1296C22.3086 10.3493 22.2045 10.6614 21.9958 11.0055C21.8912 11.1773 21.7602 11.3568 21.5972 11.5297C21.4299 11.6987 21.2366 11.8683 21.0065 12.0043C20.773 12.1381 20.5269 12.2504 20.245 12.3236C20.1052 12.3517 19.9345 12.3913 19.8145 12.4012L19.6394 12.4144L19.5513 12.421L19.5073 12.4243L19.4853 12.426L19.4379 12.4276L19.4247 12.4271C19.2843 12.4216 19.1434 12.4078 19.0041 12.3963C18.8642 12.3726 18.7238 12.3368 18.5862 12.3049C18.4502 12.2625 18.3169 12.2069 18.1881 12.1518C18.0648 12.0841 17.9448 12.012 17.8302 11.9387C17.61 11.778 17.4217 11.5963 17.2758 11.4047C17.1272 11.2159 17.0132 11.0232 16.9301 10.8398C16.7572 10.4753 16.6889 10.1544 16.6537 9.93083C16.6212 9.71115 16.6229 9.5614 16.6229 9.5691C16.597 9.41109 16.7038 9.26134 16.8618 9.23546C17.0204 9.20903 17.1701 9.31584 17.196 9.47386Z" fill="#434040"/>
<path d="M14.7152 13.2134C14.7152 12.1657 13.614 11.3162 12.2558 11.3162C10.8975 11.3162 9.79584 12.1657 9.79584 13.2134C9.79584 14.2611 10.897 15.1107 12.2558 15.1107C13.614 15.1107 14.7152 14.2611 14.7152 13.2134Z" fill="#F9B4C1"/>
<path d="M28.6791 13.3455C28.6791 12.2978 27.578 11.4482 26.2198 11.4482C24.861 11.4482 23.7598 12.2978 23.7598 13.3455C23.7598 14.3932 24.861 15.2428 26.2198 15.2428C27.578 15.2428 28.6791 14.3932 28.6791 13.3455Z" fill="#F9B4C1"/>
</svg>
