<svg width="58" height="88" viewBox="0 0 58 88" fill="none" xmlns="http://www.w3.org/2000/svg">
<path d="M17.7313 86.6914C17.5453 86.6914 17.3931 86.5447 17.3869 86.358C17.338 84.7876 18.3987 80.5014 18.4435 80.3196C18.4889 80.1357 18.6721 80.0241 18.8609 80.0682C19.0454 80.1144 19.1577 80.301 19.1116 80.4856C19.1005 80.529 18.0288 84.8606 18.075 86.336C18.0812 86.5261 17.9317 86.6852 17.7416 86.6907C17.7389 86.6914 17.7347 86.6914 17.7313 86.6914Z" fill="#434040"/>
<path d="M39.7298 87.2927C39.7249 87.2927 39.7201 87.2927 39.7153 87.292C39.5259 87.2838 39.3778 87.1233 39.3854 86.9332C39.4487 85.4572 38.4218 81.1152 38.4115 81.0718C38.3674 80.8872 38.4824 80.7005 38.667 80.6572C38.8488 80.6131 39.0369 80.7274 39.0816 80.9127C39.125 81.0952 40.141 85.3924 40.0741 86.9635C40.0666 87.1481 39.9137 87.2927 39.7298 87.2927Z" fill="#434040"/>
<path d="M16.1994 85.3525C15.3695 85.3525 14.815 85.6659 14.678 86.2114C14.6325 86.3939 14.6731 86.5785 14.793 86.7314C15.1856 87.2349 16.3331 87.2604 16.559 87.2604C17.0962 87.2604 18.024 87.1716 18.1989 86.5737C18.2547 86.385 18.2148 86.1866 18.0867 86.0151C17.7609 85.5805 16.8903 85.3525 16.1994 85.3525Z" fill="#434040"/>
<path d="M42.7851 86.8451C42.6522 86.2879 42.0881 85.969 41.2389 85.969C40.557 85.969 39.6981 86.1915 39.3764 86.6164C39.2483 86.7852 39.2077 86.9822 39.2607 87.1688C39.4391 87.8052 40.4964 87.8741 40.942 87.8741C41.2519 87.8741 42.2913 87.8369 42.6674 87.361C42.7865 87.2095 42.8285 87.0263 42.7851 86.8451Z" fill="#434040"/>
<path d="M50.7032 73.9278C46.2262 78.8801 39.4212 82.2206 29.9782 82.4066C9.50741 82.8129 -5.21841 62.2877 1.75259 54.5873C9.03284 46.5356 12.0152 54.2429 22.7806 55.7513L22.7531 55.9235C22.7531 55.9235 19.9911 59.264 22.222 62.2119C24.5432 65.2769 29.3508 61.8538 29.3508 61.8538C29.3508 61.8538 27.1873 67.5292 29.9775 69.8779C34.1301 73.3837 38.7868 67.6601 39.0617 67.3226C38.8695 67.7841 36.2171 74.2929 40.5914 76.2077C46.074 78.6183 50.6681 73.8934 50.6681 73.8934L50.7032 73.9278Z" fill="#83087D"/>
<path d="M30.0678 55.0756C30.0678 55.0756 29.069 59.5388 33.0088 61.1368C36.1978 62.4316 39.5521 58.3955 39.7794 58.12C39.7105 58.4092 38.3674 64.1398 42.7342 65.062C46.9219 65.9505 48.6162 60.4266 48.6162 60.4266C48.6162 60.4266 49.3188 69.1877 55.497 66.1227C54.3812 68.9673 52.797 71.6191 50.7032 73.9264L50.6688 73.892C50.6688 73.892 46.0747 78.6169 40.5921 76.2063C36.2178 74.2915 38.8702 67.7827 39.0623 67.3212C38.7868 67.6587 34.1308 73.3823 29.9782 69.8765C27.188 67.5278 29.3514 61.8524 29.3514 61.8524C29.3514 61.8524 24.5438 65.2755 22.2227 62.2105C19.9918 59.2626 22.7537 55.9221 22.7537 55.9221L22.7813 55.7499C23.291 55.8257 23.8145 55.8815 24.3586 55.9221C26.6177 56.0943 28.4912 55.7155 30.0133 54.9647L30.0678 55.0756Z" fill="#A02294"/>
<path d="M56.8745 48.5323C57.1431 49.779 57.3429 51.0946 57.4462 52.4859C57.7906 57.1075 57.1769 61.8324 55.497 66.1234C49.3188 69.1884 48.6162 60.4273 48.6162 60.4273C48.6162 60.4273 46.9219 65.9512 42.7342 65.0627C38.3674 64.1398 39.7105 58.4093 39.7794 58.1207C39.5521 58.3962 36.1978 62.4323 33.0088 61.1375C29.069 59.5395 30.0678 55.0763 30.0678 55.0763L30.0126 54.9661C31.9205 54.0294 33.2705 52.5141 34.1246 50.7578C34.3037 51.3914 35.1509 53.9605 37.0243 54.2705C39.1664 54.6286 40.5026 49.5455 40.5026 49.5455C40.5026 49.5455 41.8388 54.5391 44.9596 54.4495C47.9343 54.3669 48.5274 49.3664 48.5274 49.3664C48.5274 49.3664 50.2217 54.36 53.2592 54.1809C56.3862 54.0018 56.7375 48.5675 56.7375 48.5675L56.8745 48.5323Z" fill="#C12786"/>
<path d="M53.7957 40.5709C55.083 42.7887 56.2064 45.4336 56.8745 48.533L56.7368 48.5675C56.7368 48.5675 56.3855 54.0018 53.2585 54.1809C50.2211 54.36 48.5267 49.3665 48.5267 49.3665C48.5267 49.3665 47.9344 54.3669 44.9589 54.4495C41.8388 54.5391 40.5019 49.5455 40.5019 49.5455C40.5019 49.5455 39.1657 54.6286 37.0236 54.2705C35.1502 53.9605 34.303 51.3914 34.1239 50.7578C35.4395 48.0853 35.6048 44.8688 34.8333 42.3273C35.1082 42.6648 36.8239 44.6208 38.718 44.2834C41.2182 43.8357 41.3904 39.9166 41.3904 39.9166C41.3904 39.9166 43.3541 44.1043 46.0327 43.3948C48.7051 42.6785 48.1747 38.7526 48.1747 38.7526C48.1747 38.7526 51.7357 42.7681 53.6986 40.626L53.7957 40.5709Z" fill="#D05E9A"/>
<path d="M53.7958 40.571L53.6986 40.6261C51.7357 42.7681 48.1747 38.7526 48.1747 38.7526C48.1747 38.7526 48.7051 42.6786 46.0327 43.3949C43.3534 44.1043 41.3904 39.9166 41.3904 39.9166C41.3904 39.9166 41.2182 43.8357 38.718 44.2834C36.8239 44.6209 35.1089 42.6648 34.8334 42.3273C34.6267 41.6248 34.3443 40.9773 33.9931 40.4057C29.5781 33.1805 19.8107 36.3902 19.5427 31.7066C19.4394 29.8469 20.6379 28.7517 22.1876 27.9183L22.3123 28.1456C22.3123 28.1456 22.4218 32.0716 25.2533 32.781C28.0841 33.4836 29.9782 29.1237 29.9782 29.1237C29.9782 29.1237 30.7696 33.5869 33.6356 33.7591C36.5008 33.9313 37.9128 29.6609 37.9128 29.6609C37.9128 29.6609 39.2352 34.379 41.8319 34.5374C44.4285 34.6889 45.627 31.7066 45.627 31.7066C45.627 31.7066 50.3106 34.5443 53.7958 40.571Z" fill="#DB7FB3"/>
<path d="M51.4402 16.8086C52.7902 25.7006 45.627 31.7066 45.627 31.7066C45.627 31.7066 44.4285 34.689 41.8319 34.5374C39.2345 34.379 37.9128 29.661 37.9128 29.661C37.9128 29.661 36.5008 33.9313 33.6356 33.7591C30.7703 33.5869 29.9782 29.1237 29.9782 29.1237C29.9782 29.1237 28.0841 33.4836 25.2533 32.7811C22.4225 32.0717 22.3123 28.1457 22.3123 28.1457L22.1876 27.9184C25.0735 26.3618 29.1786 25.6937 28.4009 22.5805C28.9313 23.6412 30.0402 25.1702 31.9412 24.7501C34.7927 24.1302 34.9718 20.5624 34.9718 20.5624C34.9718 20.5624 36.2184 24.2197 38.8971 23.6825C41.5702 23.1452 42.2865 18.9575 42.2865 18.9575C42.2865 18.9575 44.2081 22.8146 47.1003 22.6149C50.9367 22.3463 51.3851 16.8155 51.3851 16.8155L51.4402 16.8086Z" fill="#E5A1CF"/>
<path d="M51.4402 16.8085L51.3851 16.8154C51.3851 16.8154 50.9374 22.3462 47.1003 22.6148C44.2081 22.8145 42.2865 18.9574 42.2865 18.9574C42.2865 18.9574 41.5702 23.1451 38.8971 23.6824C36.2178 24.2196 34.9718 20.5623 34.9718 20.5623C34.9718 20.5623 34.792 24.1301 31.9412 24.75C30.0402 25.1701 28.9313 23.641 28.4009 22.5803C28.3934 22.5459 28.3803 22.5115 28.3734 22.477C25.9627 13.9157 8.4405 22.0775 7.50378 13.5162C6.47752 4.09387 18.2072 0.14035 26.2313 0.00259662C34.2623 -0.128269 48.0377 4.68621 50.9787 14.7215C51.1922 15.431 51.3438 16.1266 51.4402 16.8085Z" fill="#B997C1"/>
<path d="M19.0578 6.49082C19.0578 6.49082 19.0744 6.58449 19.1047 6.74773C19.1329 6.91235 19.1956 7.14515 19.2775 7.40963C19.3209 7.54119 19.3747 7.68101 19.4442 7.81601C19.5158 7.94894 19.5937 8.08669 19.6908 8.19827C19.7831 8.32018 19.9023 8.40215 20.0242 8.47102C20.1516 8.52337 20.3031 8.55781 20.4409 8.55574C20.6737 8.56125 20.7646 8.54128 20.8996 8.491C21.0366 8.44623 21.1489 8.356 21.2481 8.25131C21.4479 8.04192 21.5835 7.74988 21.6586 7.48746C21.7357 7.22367 21.7846 6.9888 21.8046 6.82487C21.826 6.66232 21.8384 6.56934 21.8384 6.56934L21.8397 6.55832C21.8521 6.45845 21.9437 6.38751 22.0443 6.40059C22.1249 6.41092 22.1869 6.47291 22.2007 6.54937C22.2007 6.54937 22.2206 6.65888 22.2303 6.84209C22.2344 7.0253 22.2454 7.29048 22.1883 7.61075C22.1263 7.92552 22.0305 8.31949 21.733 8.67559C21.5849 8.84778 21.39 9.01308 21.1565 9.104C20.9333 9.21076 20.6186 9.24588 20.454 9.24175C19.9401 9.25828 19.4401 8.969 19.1832 8.60051C19.0392 8.42556 18.9566 8.2334 18.8884 8.05501C18.8209 7.87524 18.7789 7.70443 18.7458 7.5467C18.6301 6.91579 18.6942 6.49426 18.6942 6.49426C18.71 6.3937 18.803 6.32483 18.9042 6.33998C18.9834 6.35376 19.0434 6.41643 19.0578 6.49082Z" fill="#434040"/>
<path d="M29.8267 6.75872C29.8267 6.75872 29.8439 6.85514 29.8742 7.02251C29.9032 7.19126 29.9672 7.42958 30.0533 7.70095C30.0981 7.83526 30.1532 7.97921 30.2269 8.1149C30.2971 8.25541 30.3894 8.38214 30.4859 8.49992C30.5871 8.61288 30.7028 8.70586 30.8392 8.75614C30.906 8.78438 30.9749 8.8078 31.052 8.81193C31.0775 8.81468 31.1533 8.82984 31.1367 8.82502L31.2903 8.82157C31.4102 8.82915 31.4687 8.80573 31.5204 8.79126C31.5796 8.78989 31.6416 8.74374 31.705 8.71826C31.8255 8.64938 31.9261 8.544 32.0067 8.41313C32.1692 8.15278 32.2663 7.83044 32.3132 7.55011C32.3614 7.26771 32.391 7.02114 32.3965 6.84963C32.4041 6.67951 32.4089 6.58239 32.4089 6.58239L32.4096 6.57413C32.4144 6.47357 32.4998 6.39505 32.6004 6.39987C32.683 6.404 32.7505 6.46186 32.7691 6.539C32.7691 6.539 32.796 6.64782 32.8208 6.83241C32.8421 7.01769 32.8738 7.28562 32.8525 7.61279C32.8249 7.9372 32.7815 8.3353 32.559 8.74305C32.4468 8.94348 32.278 9.14254 32.0542 9.28373C31.9371 9.34572 31.8289 9.42011 31.6822 9.44766C31.5369 9.4883 31.3971 9.5124 31.3103 9.50827L31.1567 9.51171C31.0376 9.51171 31.0141 9.49312 30.9384 9.48348C30.8103 9.46694 30.689 9.42424 30.5706 9.36914C30.3322 9.26583 30.138 9.0957 29.992 8.918C29.6986 8.55571 29.598 8.15967 29.5236 7.84215C29.399 7.19539 29.4644 6.76354 29.4644 6.76354C29.4796 6.66298 29.5732 6.5941 29.6745 6.60925C29.7523 6.62096 29.8122 6.68364 29.8267 6.75872Z" fill="#434040"/>
<path d="M28.4402 11.7102C28.4402 11.7102 28.5745 15.3889 27.8382 16.5929C27.1033 17.7969 24.7615 17.6626 23.6918 16.5929C22.5244 15.4241 22.9562 11.5759 22.9562 11.5759C22.9562 11.5759 27.1653 12.1593 28.4402 11.7102Z" fill="#E9A8C1"/>
<path d="M25.9462 11.6489C25.9462 11.6489 25.9917 11.8596 26.0185 12.1744C26.0509 12.4899 26.0502 12.9079 26.0405 13.326C26.0254 13.5347 26.0096 13.7434 25.9951 13.9397C25.9786 14.1353 25.9441 14.3172 25.9235 14.4735C25.8711 14.7855 25.8126 14.9928 25.8126 14.9928C25.7864 15.0927 25.6845 15.1519 25.5846 15.1258C25.5143 15.1072 25.464 15.0479 25.4496 14.9825C25.4496 14.9825 25.4076 14.7718 25.38 14.457C25.3724 14.2993 25.3532 14.116 25.3518 13.9197C25.3532 13.7234 25.3538 13.5141 25.3552 13.3047C25.3793 12.8873 25.4124 12.4692 25.4696 12.1572C25.5205 11.8445 25.5832 11.6379 25.5832 11.6379C25.6114 11.538 25.7141 11.4801 25.814 11.5084C25.8815 11.5277 25.9303 11.5848 25.9462 11.6489Z" fill="#E279A4"/>
<path d="M16.4839 12.1283C16.3903 12.1283 16.2966 12.0904 16.2291 12.0154C16.1017 11.8742 16.1113 11.6565 16.2525 11.5284C17.8573 10.0696 16.6437 8.46063 16.5914 8.39313C16.4757 8.24298 16.5018 8.02671 16.652 7.91031C16.8021 7.79391 17.017 7.81939 17.1341 7.96886C17.7189 8.71341 18.3829 10.5228 16.7153 12.0381C16.6492 12.0987 16.5666 12.1283 16.4839 12.1283Z" fill="#434040"/>
<path d="M27.5531 12.096C22.4335 12.096 17.566 10.3307 17.2856 10.2274C17.1072 10.1612 17.0156 9.96357 17.0818 9.78518C17.1479 9.60679 17.3476 9.51519 17.5239 9.58131C17.6176 9.61506 26.9063 12.9824 33.1266 10.4554C33.3029 10.3837 33.504 10.4684 33.575 10.6448C33.6466 10.8204 33.5619 11.0215 33.3862 11.0931C31.5741 11.8294 29.5436 12.096 27.5531 12.096Z" fill="#434040"/>
<path d="M34.3078 12.8943C34.2086 12.8943 34.1108 12.8516 34.0426 12.7696C32.9819 11.4912 33.0157 10.4237 33.2306 9.75349C33.4661 9.02202 33.9641 8.60256 33.9855 8.58534C34.1322 8.46412 34.3491 8.48409 34.4704 8.6308C34.5916 8.77682 34.5716 8.99309 34.4256 9.115C34.3615 9.16942 32.9661 10.3934 34.5723 12.3302C34.6942 12.4769 34.6735 12.6938 34.5275 12.8151C34.4635 12.8688 34.3856 12.8943 34.3078 12.8943Z" fill="#434040"/>
</svg>
