<svg width="81" height="72" viewBox="0 0 81 72" fill="none" xmlns="http://www.w3.org/2000/svg">
<path d="M16.3518 24.8928L13.0401 25.3864L16.9171 51.4027L20.2289 50.9092L16.3518 24.8928Z" fill="#9078B7"/>
<path d="M17.6272 51.296C17.2488 49.158 16.9696 47.041 16.6495 44.8933C16.2711 42.3513 16.0876 39.7235 15.8525 37.1627C15.7318 35.8482 15.6533 34.5304 15.5391 33.2154C15.4372 32.042 15.3335 30.9147 15.3933 29.736C15.4367 28.9078 15.333 27.951 15.6685 27.168C15.8552 26.7305 16.1661 26.4144 16.5366 26.1589L16.3481 24.8929L13.0362 25.3865L16.9167 51.4019L17.6272 51.296Z" fill="#D1BED4"/>
<path d="M16.348 24.8929L14.2816 22.3865L13.0401 25.3863L16.348 24.8929Z" fill="#FDE1D3"/>
<path d="M13.8177 25.2701C13.7593 24.3325 14.0014 23.3201 14.7199 22.9185L14.2816 22.3865L13.0399 25.3863L13.8177 25.2701Z" fill="#FCCFC6"/>
<path d="M14.9112 23.1496L14.2817 22.3865L13.9045 23.2997L14.9112 23.1496Z" fill="#9078B7"/>
<path d="M14.158 23.2621C14.1508 23.1494 14.1566 23.0374 14.1795 22.9315C14.2184 22.752 14.2989 22.6446 14.4166 22.5501L14.2817 22.3865L13.9043 23.2997L14.158 23.2621Z" fill="#D1BED4"/>
<path d="M20.2323 50.9091L16.9208 51.4029L17.0532 52.2909L20.3647 51.797L20.2323 50.9091Z" fill="#155AA9"/>
<path d="M17.8479 52.171C17.8411 52.1281 17.8384 52.084 17.8399 52.0384C17.8504 51.6527 18.1974 51.5171 18.5367 51.4655C19.1155 51.3782 19.6986 51.3236 20.279 51.2449L20.2284 50.9083L16.917 51.4019L17.0494 52.2902L17.8479 52.171Z" fill="#6B9DC1"/>
<path d="M11.8798 26.2121L8.75172 27.4053L18.1261 51.9803L21.2542 50.7871L11.8798 26.2121Z" fill="#EF5695"/>
<path d="M18.7982 51.727C17.9693 49.7192 17.2428 47.7121 16.469 45.6834C15.5531 43.2814 14.8102 40.7546 14.0307 38.3037C13.63 37.0458 13.2711 35.7754 12.8769 34.5157C12.5257 33.3919 12.1824 32.3132 11.9889 31.1485C11.8526 30.3301 11.5452 29.4181 11.7055 28.5818C11.7945 28.1141 12.0298 27.7384 12.3372 27.4093L11.8807 26.2137L8.75235 27.4071L18.1268 51.9828L18.7982 51.727Z" fill="#F8C1D9"/>
<path d="M11.8806 26.2137L9.32461 24.2096L8.75572 27.4056L11.8806 26.2137Z" fill="#FDE1D3"/>
<path d="M9.48964 27.1261C9.23187 26.2219 9.25057 25.1816 9.86657 24.6347L9.32461 24.2096L8.75597 27.4056L9.48964 27.1261Z" fill="#FCCFC6"/>
<path d="M10.1023 24.8199L9.32474 24.2096L9.15147 25.1824L10.1023 24.8199Z" fill="#EF5695"/>
<path d="M9.39179 25.0909C9.36013 24.9822 9.34168 24.872 9.34118 24.7636C9.34068 24.5801 9.39603 24.4579 9.49126 24.34L9.32473 24.2096L9.15172 25.1824L9.39179 25.0909Z" fill="#F8C1D9"/>
<path d="M21.2548 50.7864L18.127 51.9795L18.4469 52.818L21.5747 51.6249L21.2548 50.7864Z" fill="#155AA9"/>
<path d="M19.2013 52.534C19.1858 52.4933 19.1731 52.4512 19.1644 52.4058C19.0921 52.0271 19.4017 51.82 19.7226 51.6971C20.2688 51.4874 20.8269 51.3089 21.3766 51.1073L21.2555 50.7899L18.1273 51.983L18.4474 52.8216L19.2013 52.534Z" fill="#6B9DC1"/>
<path d="M7.67445 27.9646L4.82172 29.7174L18.5914 52.1276L21.4441 50.3748L7.67445 27.9646Z" fill="#5BB1E3"/>
<path d="M19.2068 51.7514C18.0196 49.9328 16.9332 48.0955 15.7959 46.2455C14.4497 44.0557 13.2516 41.7106 12.0303 39.447C11.4038 38.2853 10.8155 37.1039 10.1938 35.9387C9.64009 34.8994 9.10261 33.9032 8.69601 32.7951C8.41056 32.0165 7.9399 31.1772 7.94189 30.3253C7.94239 29.8494 8.10343 29.4366 8.345 29.0562L7.67415 27.9662L4.82147 29.719L18.5945 52.1281L19.2068 51.7514Z" fill="#D0E1EB"/>
<path d="M7.6739 27.966L4.79106 26.4707L4.82546 29.7173L7.6739 27.966Z" fill="#FDE1D3"/>
<path d="M5.49407 29.3055C5.07251 28.4653 4.89851 27.4395 5.40233 26.7876L4.79106 26.4707L4.82546 29.7173L5.49407 29.3055Z" fill="#FCCFC6"/>
<path d="M5.66808 26.9259L4.79106 26.4707L4.80078 27.4584L5.66808 26.9259Z" fill="#5BB1E3"/>
<path d="M5.01966 27.3243C4.96931 27.2233 4.92992 27.1184 4.90898 27.0122C4.87482 26.832 4.90698 26.7016 4.97803 26.5684L4.79106 26.4707L4.80078 27.4584L5.01966 27.3243Z" fill="#B3D7E9"/>
<path d="M21.443 50.3726L18.5904 52.1259L19.0606 52.8909L21.9132 51.1376L21.443 50.3726Z" fill="#155AA9"/>
<path d="M19.7532 52.4696C19.7303 52.4325 19.7098 52.3931 19.6929 52.3507C19.5515 51.992 19.818 51.7307 20.11 51.551C20.6088 51.2431 21.1231 50.9642 21.6252 50.664L21.4472 50.3743L18.5945 52.1279L19.0654 52.8924L19.7532 52.4696Z" fill="#6B9DC1"/>
<path d="M3.64407 31.0735L0.648727 33.4844L19.5868 57.0135L22.5821 54.6026L3.64407 31.0735Z" fill="#FFD145"/>
<path d="M20.2316 56.4982C18.6157 54.5989 17.1234 52.6252 15.5606 50.683C13.7103 48.3832 11.9902 45.9244 10.2716 43.5232C9.3883 42.2907 8.54618 41.0303 7.67041 39.7935C6.88813 38.6894 6.13152 37.6331 5.50753 36.4293C5.06877 35.5837 4.41089 34.6964 4.28898 33.7257C4.22142 33.1835 4.34507 32.6896 4.5642 32.2212L3.64231 31.0769L0.64679 33.4876L19.5879 57.015L20.2316 56.4982Z" fill="#FDDAC6"/>
<path d="M3.64269 31.0772L0.140854 29.7926L0.65116 33.4851L3.64269 31.0772Z" fill="#FDE1D3"/>
<path d="M1.35379 32.9195C0.751244 32.0238 0.403478 30.8802 0.88337 30.0648L0.140472 29.7926L0.650778 33.4849L1.35379 32.9195Z" fill="#FCCFC6"/>
<path d="M1.20634 30.1837L0.140854 29.7926L0.296165 30.9166L1.20634 30.1837Z" fill="#155AA9"/>
<path d="M0.525017 30.7316C0.453469 30.6244 0.393639 30.5102 0.3545 30.392C0.289434 30.1921 0.306635 30.0385 0.368959 29.8765L0.140854 29.793L0.296165 30.917L0.525017 30.7316Z" fill="#6B9DC1"/>
<path d="M22.5802 54.6079L19.5853 57.0185L20.2317 57.8217L23.2267 55.4112L22.5802 54.6079Z" fill="#155AA9"/>
<path d="M20.9573 57.2369C20.9256 57.1983 20.8965 57.1561 20.8715 57.1108C20.6579 56.7224 20.9241 56.3863 21.23 56.1388C21.7536 55.7165 22.2993 55.3236 22.8283 54.909L22.5835 54.6044L19.5882 57.0153L20.2353 57.8185L20.9573 57.2369Z" fill="#6B9DC1"/>
<path d="M20.2351 57.8183C20.9032 58.6342 22.1053 58.7606 22.9282 58.0982C23.7511 57.4356 23.884 56.2342 23.2294 55.4076L20.2351 57.8183Z" fill="#EF5695"/>
<path d="M21.6042 58.5173C21.2542 58.3343 21.0388 58.075 21.2123 57.7163C21.3754 57.378 21.678 57.1329 21.9704 56.9061C22.4638 56.5219 22.9532 56.132 23.4418 55.7404C23.3834 55.625 23.3136 55.5128 23.2291 55.4076L20.2348 57.8183C20.5878 58.2488 21.0887 58.4851 21.6042 58.5173Z" fill="#DFB1C6"/>
<path d="M35.8437 8.02867C35.8437 3.66203 37.8308 2.13984 40.6279 2.13984C43.4262 2.13984 45.6016 3.62912 45.6016 8.02867H47.5114C47.5114 1.95362 44.1733 0.153961 40.6279 0.153961C37.0834 0.153961 33.7446 1.75643 33.7446 8.02867H35.8437Z" fill="#1455A1"/>
<path d="M40.6281 0.153961C37.0837 0.153961 33.7449 1.75643 33.7449 8.02867H34.6331C34.6331 2.56563 37.5414 1.16984 40.6284 1.16984C43.7164 1.16984 46.6239 2.7374 46.6239 8.02867H47.5122C47.5117 1.95362 44.1739 0.153961 40.6281 0.153961Z" fill="#89C3DD"/>
<path d="M23.1142 64.7359C23.1142 65.7623 22.2821 66.5944 21.2557 66.5944H15.9103C14.884 66.5944 14.0519 65.7623 14.0519 64.7359V47.5962C14.0519 46.5696 14.884 45.7375 15.9103 45.7375H21.2555C22.2818 45.7375 23.114 46.5696 23.114 47.5962L23.1142 64.7359Z" fill="#5BB1E3"/>
<path d="M21.2557 45.7375H18.6581C18.58 49.1964 18.5247 52.6556 18.5182 56.1153C18.5152 57.6208 18.6678 59.1672 18.4958 60.666C18.3801 61.6701 18.138 62.7259 17.3478 63.4281C16.4254 64.2473 15.2497 64.4667 14.0519 64.5163V64.7359C14.0519 65.7623 14.884 66.5944 15.9103 66.5944H21.2555C22.2818 66.5944 23.114 65.7623 23.114 64.7359V47.5962C23.1142 46.5696 22.2821 45.7375 21.2557 45.7375Z" fill="#D5E8F2"/>
<path d="M23.7335 52.3565V47.4267C23.7335 46.2597 22.7879 45.3139 21.6207 45.3139H15.5449C14.3779 45.3139 13.4324 46.2595 13.4324 47.4267V52.3562H23.7335V52.3565Z" fill="#1A4F9A"/>
<path d="M21.621 45.3142H18.6416C18.6259 46.4076 18.4898 47.4805 18.1169 48.4615C17.3361 50.5182 15.2986 50.4 13.4329 50.3045V52.3562H23.7337V47.4267C23.7335 46.2597 22.7879 45.3142 21.621 45.3142Z" fill="#67B0CE"/>
<path d="M15.1241 52.5145C15.1308 51.8928 15.6396 51.3947 16.2596 51.4034C16.8808 51.4091 17.3789 51.918 17.3717 52.5389C17.368 52.9049 17.1872 53.2248 16.913 53.4269L16.9038 54.2965C16.8985 54.7175 16.5927 55.0566 16.2207 55.0516C15.8468 55.0476 15.5489 54.7028 15.5531 54.282L15.5628 53.4122C15.2943 53.2041 15.1191 52.8797 15.1241 52.5145Z" fill="#2D96CB"/>
<path d="M16.3937 51.4134C16.4084 52.2101 16.4271 53.0104 16.371 53.8006C16.3326 54.3491 16.0043 54.4997 15.5992 54.567C15.6962 54.8482 15.9358 55.0489 16.2205 55.0518C16.5924 55.0568 16.8985 54.718 16.9035 54.2967L16.9128 53.4272C17.187 53.225 17.3677 52.9052 17.3715 52.5392C17.3779 51.9633 16.9506 51.4852 16.3937 51.4134Z" fill="#D5E8F2"/>
<path d="M58.5232 64.7359C58.5232 65.7623 59.3549 66.5944 60.3817 66.5944H65.7264C66.753 66.5944 67.5846 65.7623 67.5846 64.7359V47.5962C67.5846 46.5696 66.753 45.7375 65.7264 45.7375H60.3817C59.3549 45.7375 58.5232 46.5696 58.5232 47.5962V64.7359Z" fill="#5BB1E3"/>
<path d="M60.3817 45.7375H62.9794C63.0574 49.1964 63.1123 52.6556 63.1192 56.1153C63.1222 57.6208 62.9694 59.1672 63.1417 60.666C63.2566 61.6701 63.4987 62.7259 64.2892 63.4281C65.2116 64.2473 66.387 64.4667 67.5848 64.5163V64.7359C67.5848 65.7623 66.7532 66.5944 65.7266 66.5944H60.382C59.3551 66.5944 58.5235 65.7623 58.5235 64.7359V47.5962C58.5232 46.5696 59.3549 45.7375 60.3817 45.7375Z" fill="#D5E8F2"/>
<path d="M57.9035 52.3565V47.4267C57.9035 46.2597 58.8495 45.3139 60.0162 45.3139H66.0918C67.259 45.3139 68.2048 46.2595 68.2048 47.4267V52.3562H57.9035V52.3565Z" fill="#1A4F9A"/>
<path d="M60.016 45.3143H62.9951C63.0108 46.4077 63.1472 47.4807 63.5198 48.4616C64.3011 50.5183 66.3384 50.4002 68.2043 50.3047V52.3564H57.9032V47.4268C57.9035 46.2599 58.8496 45.3143 60.016 45.3143Z" fill="#67B0CE"/>
<path d="M66.5126 52.5145C66.5066 51.8928 65.9973 51.3947 65.3771 51.4034C64.7559 51.4091 64.2585 51.918 64.2652 52.5389C64.2687 52.9049 64.4502 53.2248 64.7239 53.4269L64.7329 54.2965C64.7381 54.7175 65.044 55.0566 65.4162 55.0516C65.7907 55.0476 66.0886 54.7028 66.0843 54.282L66.0744 53.4122C66.3429 53.2041 66.5176 52.8797 66.5126 52.5145Z" fill="#2D96CB"/>
<path d="M65.243 51.4134C65.2283 52.2101 65.2103 53.0104 65.2664 53.8006C65.3048 54.3491 65.6326 54.4997 66.0377 54.567C65.9408 54.8482 65.7014 55.0489 65.4165 55.0518C65.0443 55.0568 64.7382 54.718 64.7332 54.2967L64.7242 53.4272C64.4505 53.225 64.269 52.9052 64.2655 52.5392C64.2588 51.9633 64.6865 51.4852 65.243 51.4134Z" fill="#D5E8F2"/>
<path d="M47.3288 7.09382C47.3288 7.09382 49.1302 5.37992 51.5511 5.72868C51.5511 5.72868 56.7693 7.26833 57.9615 9.00342C57.9615 9.00342 56.2473 11.606 56.1311 13.4212C56.1311 13.4212 53.2373 8.85658 47.3288 7.09382Z" fill="#5BB1E3"/>
<path d="M54.8441 9.67734C53.9769 9.29841 53.0295 9.02394 52.252 8.47125C51.1661 7.69869 51.084 6.68929 51.4445 5.71605C49.0772 5.4316 47.3284 7.0939 47.3284 7.0939C53.2369 8.85666 56.1307 13.4212 56.1307 13.4212C56.1801 12.6509 56.5172 11.7393 56.8889 10.9443C56.4506 10.3235 55.423 9.93037 54.8441 9.67734Z" fill="#D5E8F2"/>
<path d="M57.9611 9.00341C57.9611 9.00341 58.5741 13.2651 57.4705 16.0542C57.4705 16.0542 56.3988 13.911 56.0315 13.2556C56.0315 13.2556 56.6274 9.89265 57.9611 9.00341Z" fill="#2D96CB"/>
<path d="M33.084 7.12224C33.084 7.12224 31.2559 5.25826 28.8642 5.77131C28.8642 5.77131 23.7636 7.66495 22.6929 9.47658C22.6929 9.47658 24.3913 11.8957 24.6312 13.6991C24.6312 13.6991 27.3108 9.28262 33.084 7.12224Z" fill="#5BB1E3"/>
<path d="M29.1082 5.72719C29.2005 6.43219 29.1412 7.12548 28.8086 7.76467C28.2409 8.85633 27.1413 9.38882 26.2127 10.1245C25.4486 10.7295 24.7506 11.3991 24.1864 12.1792C24.3986 12.6912 24.5671 13.217 24.6314 13.6989C24.6314 13.6989 27.3108 9.28262 33.084 7.12199C33.084 7.12199 31.3788 5.38441 29.1082 5.72719Z" fill="#D5E8F2"/>
<path d="M22.6939 9.48231C22.6939 9.48231 22.1684 13.6181 23.4612 16.3239C23.4612 16.3239 24.407 14.2294 24.7276 13.5495C24.7276 13.5495 24.087 10.2763 22.6939 9.48231Z" fill="#2D96CB"/>
<path d="M40.6281 7.10329C28.9071 7.10329 19.3997 16.5127 19.3289 28.1455H19.3252V64.1119C19.3252 66.3416 19.5533 66.5944 21.6494 66.5944H59.6022C61.3704 66.5944 61.9259 66.5944 61.9259 64.1119V28.4397C61.9259 28.3861 61.9301 28.3327 61.9301 28.2776C61.9306 16.5832 52.3926 7.10329 40.6281 7.10329Z" fill="#5BB1E3"/>
<path d="M40.5815 5.68231C32.2606 5.68231 24.2256 10.7472 20.816 20.3398C20.816 20.3398 23.4183 32.3296 31.6705 32.3296C31.6705 32.3296 44.8799 32.5004 50.0275 32.294C53.9509 32.1367 59.8191 30.0875 60.2411 19.9798C56.7976 10.5171 48.8349 5.68231 40.5815 5.68231Z" fill="#155AA9"/>
<path d="M51.7724 8.98846C51.9553 9.5212 52.1321 10.0562 52.2926 10.5964C52.6137 11.6736 52.8879 12.773 53.0016 13.8936C53.128 15.1333 53.0886 16.3962 53.0787 17.641C53.0507 21.062 52.8366 26.468 48.798 27.615C47.648 27.9416 46.4609 28.0301 45.28 28.1786C43.6172 28.3876 41.9496 28.506 40.2744 28.5476C38.5936 28.5895 36.9049 28.6127 35.2239 28.5723C33.7312 28.5361 32.1918 28.4287 30.7753 27.9179C26.6644 26.4351 24.1864 21.3525 22.0781 17.3974C21.6085 18.3263 21.1842 19.3048 20.816 20.3396C20.816 20.3396 23.4183 32.3294 31.6705 32.3294C31.6705 32.3294 44.8799 32.5002 50.0275 32.2937C53.9509 32.1364 59.8191 30.0872 60.2411 19.9796C58.4467 15.0483 55.423 11.3769 51.7724 8.98846Z" fill="#6ABDDF"/>
<path d="M43.5681 34.2724C43.5681 34.487 43.3938 34.6613 43.1784 34.6613H38.1641C37.9497 34.6613 37.7752 34.487 37.7752 34.2724V29.6041C37.7752 29.3892 37.9495 29.215 38.1641 29.215H43.1784C43.3936 29.215 43.5681 29.3892 43.5681 29.6041V34.2724Z" fill="#173E80"/>
<path d="M43.1784 29.215H42.4841C42.4076 29.8756 42.3174 30.535 42.2685 31.2001C42.2206 31.8495 42.2057 32.7126 41.6769 33.1852C40.9622 33.8247 40.0204 33.6457 39.1423 33.6307C38.7151 33.6232 38.2344 33.7085 37.7755 33.7028V34.2726C37.7755 34.4873 37.9497 34.6615 38.1644 34.6615H43.1787C43.3938 34.6615 43.5683 34.4873 43.5683 34.2726V29.6044C43.5681 29.3892 43.3938 29.215 43.1784 29.215Z" fill="#67B0CE"/>
<path d="M55.9073 59.6264C55.9073 60.2 55.4421 60.6652 54.8687 60.6652H26.4748C25.9012 60.6652 25.436 60.2 25.436 59.6264V39.6422C25.436 39.0686 25.9012 38.6034 26.4748 38.6034H54.8687C55.4421 38.6034 55.9073 39.0686 55.9073 39.6422V59.6264Z" fill="#155AA9"/>
<path d="M54.8686 38.6034H51.4769C51.4867 41.2339 51.4944 43.8648 51.4617 46.4941C51.4346 48.7417 51.2805 51.1454 49.8986 53.0231C49.1839 53.9938 48.2174 54.9277 47.1103 55.4355C45.9715 55.9583 44.7412 56.0854 43.4995 56.0737C37.4793 56.0156 31.4576 55.8606 25.4356 55.8222V59.6264C25.4356 60.2 25.9008 60.6652 26.4744 60.6652H54.8683C55.4417 60.6652 55.9069 60.2 55.9069 59.6264V39.6422C55.9071 39.0686 55.442 38.6034 54.8686 38.6034Z" fill="#67B0CE"/>
<path d="M56.7021 45.3685V39.0731C56.7021 38.4583 56.2128 37.96 55.6095 37.96H25.7338C25.1305 37.96 24.6406 38.4583 24.6406 39.0731V45.3685H56.7021Z" fill="#1A4F9A"/>
<path d="M55.6097 37.96H52.4128C52.433 38.5441 52.4354 39.1284 52.3828 39.71C52.3038 40.5753 52.143 41.5663 51.533 42.2334C50.8305 43.0019 49.6957 43.2071 48.701 43.2712C47.3945 43.3549 46.0974 43.2071 44.7918 43.2001C38.0751 43.1635 31.3576 43.1956 24.6409 43.1986V45.3685H56.7024V39.0731C56.7021 38.4583 56.213 37.96 55.6097 37.96Z" fill="#67B0CE"/>
<path d="M27.7381 45.2678C27.7451 44.646 28.2537 44.1479 28.8739 44.1567C29.4949 44.1624 29.9925 44.6712 29.9855 45.2922C29.982 45.6582 29.8015 45.978 29.5266 46.1804L29.5178 47.05C29.5126 47.4708 29.207 47.8098 28.8345 47.8048C28.4606 47.8009 28.1627 47.4561 28.1669 47.035L28.1771 46.1652C27.9081 45.9573 27.7331 45.633 27.7381 45.2678Z" fill="#2D96CB"/>
<path d="M29.0073 44.1666C29.0222 44.9634 29.0407 45.7636 28.9853 46.5536C28.9464 47.1021 28.6181 47.2527 28.213 47.32C28.31 47.6009 28.5496 47.8019 28.8343 47.8049C29.2067 47.8098 29.5126 47.4708 29.5176 47.05L29.5263 46.1804C29.8013 45.9783 29.9818 45.6584 29.9853 45.2922C29.992 44.7166 29.5644 44.2384 29.0073 44.1666Z" fill="#D5E8F2"/>
<path d="M53.9771 10.6535C54.5121 15.4729 54.6023 21.5479 54.4655 26.3892C54.3648 29.9643 54.1875 33.5362 54.0783 37.1109C53.9828 40.251 54.0225 43.3724 54.0778 46.5113C54.1097 48.3371 54.1092 50.1941 53.7804 51.9967C53.5097 53.479 53.0624 55.0187 51.905 56.0595C49.7079 58.0341 46.4644 58.1566 43.6635 58.1498C35.572 58.1296 27.4001 58.695 19.3254 57.9589V64.1119C19.3254 66.3416 19.5535 66.5944 21.6496 66.5944H59.6024C61.3707 66.5944 61.9261 66.5944 61.9261 64.1119V28.4397C61.9261 28.3861 61.9303 28.3327 61.9303 28.2776C61.9306 21.6469 58.9034 15.0827 53.9771 10.6535Z" fill="#D5E8F2"/>
<path d="M35.2728 51.783H14.1625V57.0748H35.2728V51.783Z" fill="#EF5695"/>
<path d="M32.7711 51.7828C32.9436 52.4614 33.086 53.154 33.1336 53.8527C33.1725 54.4281 33.1964 55.1416 32.8741 55.6519C32.4752 56.2821 31.7051 56.2188 31.038 56.2527C29.976 56.307 20.3378 56.2422 14.1625 56.1654V57.0744H35.2728V51.7826H32.7711V51.7828Z" fill="#F8C1D9"/>
<path d="M14.2597 51.783H2.5807V57.0748H14.2597V51.783Z" fill="#EF5695"/>
<path d="M13.5592 52.341H2.58057V56.5164H13.5592V52.341Z" fill="#FEE7DC"/>
<path d="M12.9993 51.783C13.0382 52.7669 13.0691 53.7527 12.9442 54.7281C12.9014 55.0687 12.8635 55.6665 12.5037 55.847C12.0944 56.0524 5.43175 55.8754 2.58032 55.8722V57.075H14.2593V51.7832H12.9993V51.783Z" fill="#F8C1D9"/>
<path d="M31.2133 53.6471H18.1031V55.0656H31.2133V53.6471Z" fill="#FFD145"/>
<path d="M30.2177 53.6471C30.2295 53.8191 30.2262 53.9908 30.1851 54.1614C30.0956 54.5326 29.7324 54.6946 29.4464 54.7245C28.904 54.7816 28.3438 54.6971 27.7993 54.6961C27.1429 54.6951 26.4861 54.6924 25.8299 54.6884C23.2542 54.6727 20.679 54.642 18.1035 54.6395V55.0658H31.2137V53.6473H30.2177V53.6471Z" fill="#FFE5C7"/>
<path d="M16.5196 52.8536H15.5701V56.0036H16.5196V52.8536Z" fill="#FFD145"/>
<path d="M16.377 52.8536C16.374 53.3235 16.4005 54.9329 16.3331 55.2348C16.2441 55.6339 15.9133 55.6611 15.5701 55.6252V56.0036H16.5196V52.8536H16.377Z" fill="#FFE5C7"/>
<path d="M33.4252 52.8536H32.4756V56.0036H33.4252V52.8536Z" fill="#FFD145"/>
<path d="M33.2822 52.8536C33.2794 53.3235 33.3061 54.9329 33.2383 55.2348C33.1493 55.6339 32.8185 55.6611 32.4752 55.6252V56.0036H33.4248V52.8536H33.2822Z" fill="#FFE5C7"/>
<path d="M47.7096 62.3962H26.5998V67.6882H47.7096V62.3962Z" fill="#9078B7"/>
<path d="M45.2089 62.3961C45.3807 63.0749 45.5235 63.7674 45.5709 64.4659C45.61 65.0413 45.6339 65.7548 45.3111 66.2651C44.9125 66.8953 44.1417 66.832 43.4751 66.8659C42.4131 66.9202 32.7751 66.8552 26.6001 66.7786V67.6878H47.7098V62.3958H45.2089V62.3961Z" fill="#E8E1F0"/>
<path d="M44.3848 64.1972H28.4371V65.8804H44.3848V64.1972Z" fill="#FFD145"/>
<path d="M43.1728 64.1972C43.1878 64.4014 43.1835 64.6051 43.1337 64.8075C43.0247 65.248 42.5832 65.4402 42.2352 65.4758C41.5756 65.5436 40.8943 65.4432 40.2316 65.4419C39.4332 65.4404 38.6344 65.4374 37.8362 65.4327C34.703 65.414 31.5704 65.3779 28.4375 65.3746V65.8804H44.3851V64.1972H43.1728Z" fill="#FFE5C7"/>
<path d="M26.697 62.3962H15.018V67.6882H26.697V62.3962Z" fill="#9078B7"/>
<path d="M25.9966 62.9542H15.0179V67.1297H25.9966V62.9542Z" fill="#FEE7DC"/>
<path d="M25.4361 62.3961C25.475 63.3803 25.5059 64.366 25.3815 65.3412C25.3382 65.682 25.3008 66.2796 24.9405 66.4598C24.5317 66.6652 17.8686 66.4882 15.0176 66.4852V67.6878H26.6966V62.3958H25.4361V62.3961Z" fill="#E8E1F0"/>
<path d="M38.8993 57.0746H20.2401V62.3664H38.8993V57.0746Z" fill="#5BB1E3"/>
<path d="M36.3979 57.0746C36.5696 57.7532 36.713 58.446 36.7601 59.1445C36.799 59.7199 36.8229 60.4334 36.5006 60.9437C36.1022 61.5741 35.3316 61.5106 34.6643 61.5447C33.7354 61.5921 26.2361 61.5482 20.2401 61.4851V62.3664H38.8993V57.0746H36.3979Z" fill="#C4D5EE"/>
<path d="M23.7808 57.976H22.729V61.4651H23.7808V57.976Z" fill="#FFD145"/>
<path d="M23.623 57.9758C23.6195 58.4963 23.6492 60.279 23.5744 60.6133C23.4757 61.0551 23.1097 61.0853 22.729 61.0456V61.4647H23.7808V57.9756H23.623V57.9758Z" fill="#FFE5C7"/>
<path d="M25.3808 57.9758H24.3288V61.4649H25.3808V57.9758Z" fill="#FFD145"/>
<path d="M25.2225 57.9758C25.2192 58.4963 25.2484 60.279 25.1741 60.6133C25.0754 61.0553 24.7094 61.0853 24.3288 61.0456V61.4649H25.3808V57.9758H25.2225Z" fill="#FFE5C7"/>
<path d="M26.98 57.9761H25.9285V61.4652H26.98V57.9761Z" fill="#FFD145"/>
<path d="M26.822 57.9761C26.819 58.4963 26.8481 60.2793 26.7736 60.6136C26.6751 61.0556 26.3087 61.0855 25.9285 61.0459V61.4652H26.98V57.9761H26.822Z" fill="#FFE5C7"/>
<path d="M20.536 57.0746H6.81259V62.3664H20.536V57.0746Z" fill="#5BB1E3"/>
<path d="M19.8357 57.6325H6.81259V61.808H19.8357V57.6325Z" fill="#FEE7DC"/>
<path d="M19.2758 57.0746C19.3145 58.0588 19.3454 59.0443 19.2207 60.0198C19.1773 60.3603 19.1011 60.8856 18.4148 61.1895C17.9964 61.3749 9.66377 61.1668 6.81259 61.1635V62.3664H20.536V57.0746H19.2758Z" fill="#C4D5EE"/>
<path d="M74.0239 57.462C74.0239 64.8389 66.9663 69.5239 58.1687 69.5239C49.3701 69.5239 42.2378 63.5431 42.2378 56.1659C42.2378 48.7888 49.3701 42.8085 58.1687 42.8085C62.5673 42.8085 56.9158 51.4677 63.359 52.6088C69.7913 53.7475 74.0239 53.7735 74.0239 57.462Z" fill="#FFD145"/>
<path d="M70.8359 58.2892C71.3975 59.6613 70.5036 61.3261 68.84 62.0074C67.1755 62.6885 65.3721 62.1276 64.8104 60.7554C64.2483 59.3831 65.1417 57.718 66.8055 57.0375C68.4698 56.3564 70.2747 56.9168 70.8359 58.2892Z" fill="#FEE7DC"/>
<path d="M70.8359 58.2892C70.7957 58.1915 70.7489 58.0985 70.697 58.0092C70.4255 59.2265 69.826 60.2948 68.5057 60.8866C67.5058 61.3353 66.3037 61.4617 65.2801 60.994C65.0946 60.9093 64.9333 60.812 64.791 60.7036C64.7975 60.7208 64.8032 60.7382 64.8104 60.7552C65.3721 62.1276 67.1755 62.6882 68.84 62.0072C70.5036 61.3261 71.3975 59.6613 70.8359 58.2892Z" fill="#EBDAC6"/>
<path d="M53.7932 47.6717C54.3608 48.8329 53.6783 50.3322 52.2702 51.0197C50.862 51.7076 49.2603 51.3234 48.6934 50.1614C48.1265 49 48.8083 47.5012 50.2165 46.8132C51.6243 46.1261 53.2263 46.5098 53.7932 47.6717Z" fill="#5BB1E3"/>
<path d="M52.9186 50.2061C52.1897 50.6721 51.0751 51.0101 50.2285 50.6776C49.1398 50.251 49.0181 48.9662 49.609 48.0435C49.9286 47.5439 50.3623 47.1695 50.8415 46.827C50.9958 46.717 51.1648 46.5951 51.3436 46.4887C50.9691 46.5268 50.5862 46.6328 50.2165 46.813C48.8082 47.5011 48.1262 48.9998 48.6933 50.1613C49.26 51.3232 50.8617 51.7074 52.2702 51.0196C53.1427 50.5938 53.7363 49.8561 53.9267 49.0808C53.6772 49.5325 53.3534 49.9284 52.9186 50.2061Z" fill="#B6E4FA"/>
<path d="M47.1594 52.8047C48.4455 52.6805 49.6105 53.8438 49.762 55.4028C49.9129 56.9632 48.993 58.3288 47.7058 58.4532C46.4192 58.5779 45.254 57.4142 45.103 55.8548C44.9519 54.2947 45.8728 52.9296 47.1594 52.8047Z" fill="#EF5695"/>
<path d="M47.6789 57.7306C45.8484 56.8889 46.0249 54.2529 47.0711 52.816C45.8307 52.993 44.9556 54.3304 45.103 55.8549C45.2538 57.4142 46.419 58.5777 47.7058 58.4533C48.1471 58.4109 48.5447 58.2222 48.8713 57.93C48.4615 57.9599 48.0574 57.9043 47.6789 57.7306Z" fill="#F9C5DC"/>
<path d="M48.8556 60.6979C49.5541 59.6099 51.1895 59.4152 52.508 60.2621C53.8265 61.1089 54.3286 62.677 53.6303 63.7649C52.9321 64.8521 51.2962 65.0475 49.9777 64.1999C48.6592 63.3528 48.1573 61.7848 48.8556 60.6979Z" fill="#9078B7"/>
<path d="M52.0548 64.4076C50.929 64.2543 50.0081 63.6291 49.5541 62.573C49.2308 61.8212 49.1418 60.8913 49.4352 60.118C49.2066 60.2686 49.0077 60.4608 48.8556 60.6981C48.1573 61.785 48.6592 63.3531 49.9777 64.2002C50.9457 64.8222 52.0827 64.8803 52.8967 64.4388C52.609 64.4537 52.327 64.4443 52.0548 64.4076Z" fill="#D2ACD1"/>
<path d="M56.2148 64.4021C56.0517 63.1198 57.1793 61.9204 58.7339 61.7222C60.2885 61.5245 61.681 62.4028 61.8443 63.6854C62.0069 64.9673 60.8793 66.1676 59.3252 66.3648C57.7706 66.5633 56.3781 65.6842 56.2148 64.4021Z" fill="#155AA9"/>
<path d="M61.7334 63.2424C61.6848 63.3469 61.6347 63.4501 61.5833 63.5513C61.1954 64.3136 60.718 65.0383 59.8605 65.3125C58.9894 65.5915 57.9723 65.5608 57.1239 65.2141C56.7961 65.08 56.4284 64.8165 56.23 64.4971C56.4481 65.7274 57.8095 66.5583 59.3252 66.3648C60.8793 66.1674 62.0071 64.9673 61.8443 63.6854C61.8251 63.5313 61.7875 63.3835 61.7334 63.2424Z" fill="#249FDA"/>
<path d="M72.5126 54.6644C71.7959 56.0276 70.9396 57.3139 69.9454 58.4849C68.419 60.2823 66.5271 61.8416 64.3537 62.7894C61.7581 63.921 58.6648 64.7078 55.8336 64.1825C53.2202 63.6974 50.7171 62.0847 49.2422 59.8595C47.8981 57.829 47.4852 55.3879 47.8145 52.9976C47.9963 51.6791 48.3478 50.3342 49.05 49.1904C49.7431 48.0619 50.6725 47.1213 51.7113 46.3073C52.9029 45.3727 54.1224 44.4474 55.3505 43.5611C55.7005 43.3081 56.058 43.072 56.4232 42.8484C48.4455 43.5776 42.2378 49.2435 42.2378 56.126C42.2378 63.5032 49.3701 69.484 58.1687 69.484C66.9661 69.484 74.0239 64.799 74.0239 57.4224C74.0239 56.1118 73.4896 55.2642 72.5126 54.6644Z" fill="#DEDFE0"/>
<path d="M45.8686 70.5719C46.8009 70.6011 47.8046 69.9051 47.8327 69.0081C47.8609 68.1121 46.9026 67.3545 45.9703 67.3254C45.7848 67.3191 45.6065 67.3431 45.4375 67.3914V67.3907C45.4375 67.3907 45.4293 67.3947 45.4131 67.3994C45.3727 67.4109 45.3321 67.4243 45.2924 67.4393C44.8158 67.5931 43.2796 68.0431 42.5457 67.7088C42.5457 67.7088 43.6037 70.0015 45.3413 70.4734V70.4729C45.5066 70.5308 45.6833 70.5662 45.8686 70.5719Z" fill="#FFD145"/>
<path d="M45.8686 70.5719C46.6144 70.5951 47.4052 70.1538 47.7059 69.5171C47.206 69.6136 46.6813 69.6321 46.2049 69.6243C45.441 69.6114 44.6124 69.5356 44.0083 69.0126C43.6299 68.6845 43.3858 68.2829 43.2679 67.8287C42.9939 67.8302 42.7417 67.7978 42.546 67.7088C42.546 67.7088 43.604 70.0015 45.3415 70.4734V70.4729C45.5066 70.5308 45.6833 70.5662 45.8686 70.5719Z" fill="#FDDAC6"/>
<path d="M50.7547 70.3872L50.8283 68.0378C50.8283 68.0378 61.4697 67.8279 68.6314 68.8092C70.546 69.0714 70.8581 69.839 70.8581 69.839C70.8581 69.839 70.5859 70.6322 68.6197 70.8451C61.3151 71.6367 50.7547 70.3872 50.7547 70.3872Z" fill="#155AA9"/>
<path d="M68.6197 70.8451C70.5858 70.632 70.8581 69.839 70.8581 69.839C70.8581 69.839 70.8469 69.8108 70.8152 69.7635C69.1202 70.1197 67.4076 70.3969 65.6797 70.5151C63.5974 70.6572 61.5031 70.5649 59.4192 70.4989C58.326 70.4647 57.2329 70.4238 56.1405 70.375C55.3083 70.3373 54.4131 70.3882 53.6096 70.1294C53.0445 69.9474 52.3933 69.6333 52.1961 69.0223C52.0899 68.6932 52.0807 68.3584 52.1057 68.0236C51.2989 68.0291 50.8285 68.0383 50.8285 68.0383L50.755 70.3877C50.7547 70.3872 61.3151 71.6366 68.6197 70.8451Z" fill="#67B0CE"/>
<path d="M47.6189 69.6867L47.659 68.3998L50.829 68.0251L50.7552 70.3822L47.6189 69.6867Z" fill="#FDE1D3"/>
<path d="M50.7717 69.8519C49.5823 69.7881 48.2583 69.4855 48.1484 68.342L47.659 68.3998L47.6189 69.6867L50.7552 70.3822L50.7717 69.8519Z" fill="#FEEDE3"/>
<path d="M73.196 51.6697H70.5113V57.3962H73.196V51.6697Z" fill="#5BB1E3"/>
<path d="M80.4729 44.041C80.4729 48.7527 76.6532 52.5721 71.9418 52.5721C67.2306 52.5721 63.4111 48.7527 63.4111 44.041C63.4111 39.3296 67.2303 35.5101 71.9418 35.5101C76.6532 35.5101 80.4729 39.3293 80.4729 44.041Z" fill="#155AA9"/>
<path d="M78.5899 44.041C78.5899 47.7129 75.6136 50.6892 71.9418 50.6892C68.2704 50.6892 65.2936 47.7129 65.2936 44.041C65.2936 40.3689 68.2704 37.3926 71.9418 37.3926C75.6136 37.3926 78.5899 40.3689 78.5899 44.041Z" fill="#5BB1E3"/>
<path d="M73.4178 53.665H70.3139V68.7573H73.4178V53.665Z" fill="#EF5695"/>
</svg>
