<svg width="183" height="109" viewBox="0 0 183 109" fill="none" xmlns="http://www.w3.org/2000/svg">
<g clip-path="url(#clip0_174_5405)">
<path opacity="0.2" d="M116.5 100.28C111.11 101.01 90.17 99.76 91.83 101.63C91.83 101.63 100.54 103.39 111.11 103.5C121.68 103.6 131.98 101.22 131.55 100.29C131.12 99.34 121.9 99.55 116.5 100.28Z" fill="black"/>
<path opacity="0.2" d="M98.05 100.56C98.07 100.56 104.28 102.47 109.31 102.96C114.24 103.44 122.16 101.24 122.77 99.75C120.57 99.85 118.32 100.04 116.5 100.28C113.24 100.72 104.25 100.43 98.05 100.56Z" fill="black"/>
<path opacity="0.2" d="M54.08 86.9401C48.69 87.6701 27.75 86.4201 29.41 88.2901C29.41 88.2901 38.12 90.0501 48.69 90.1601C59.26 90.2601 69.56 87.8801 69.13 86.9501C68.7 86.0101 59.47 86.2201 54.08 86.9401Z" fill="black"/>
<path opacity="0.2" d="M35.63 87.2299C35.65 87.2299 41.86 89.1399 46.89 89.6299C51.82 90.1099 59.74 87.9099 60.35 86.4199C58.15 86.5199 55.9 86.7099 54.08 86.9499C50.81 87.3799 41.83 87.0999 35.63 87.2299Z" fill="black"/>
<path opacity="0.2" d="M115.17 77.7205C111.33 78.2405 96.39 77.3505 97.57 78.6805C97.57 78.6805 103.78 79.9405 111.32 80.0105C118.86 80.0805 126.2 78.3805 125.9 77.7205C125.59 77.0505 119.01 77.2005 115.17 77.7205Z" fill="black"/>
<path opacity="0.2" d="M102.01 77.9203C102.02 77.9203 106.46 79.2803 110.04 79.6303C113.56 79.9703 119.2 78.4003 119.64 77.3403C118.07 77.4103 116.46 77.5403 115.17 77.7203C112.83 78.0303 106.43 77.8303 102.01 77.9203Z" fill="black"/>
<path opacity="0.2" d="M27.02 70.2003C23.84 70.6303 11.49 69.9003 12.47 71.0003C12.47 71.0003 17.61 72.0403 23.84 72.1003C30.08 72.1603 36.15 70.7503 35.9 70.2003C35.65 69.6503 30.2 69.7803 27.02 70.2003Z" fill="black"/>
<path opacity="0.2" d="M16.14 70.3701C16.15 70.3701 19.82 71.5001 22.78 71.7901C25.69 72.0701 30.36 70.7801 30.72 69.8901C29.42 69.9501 28.09 70.0601 27.02 70.2001C25.1 70.4601 19.8 70.3001 16.14 70.3701Z" fill="black"/>
<path d="M23.65 44.1401C15.5 44.1401 8.90002 45.0501 8.90002 57.4201C8.90002 65.5701 15.5 71.2501 23.65 71.2501C31.8 71.2501 38.4 65.5701 38.4 57.4201C38.4 46.5901 31.8 44.1401 23.65 44.1401Z" fill="#CC2929"/>
<path opacity="0.3" d="M30.27 65.6304C13.88 72.3704 10.72 57.3304 9.30002 52.7404C9.04002 54.0804 8.90002 55.6304 8.90002 57.4204C8.90002 65.5704 15.5 71.2504 23.65 71.2504C31.8 71.2504 38.4 65.5704 38.4 57.4204C38.4 52.9704 37.28 49.9304 35.4 47.9004C36.39 51.1104 41.55 60.9904 30.27 65.6304Z" fill="#5E1313"/>
<path opacity="0.3" d="M22.1701 46.8404C22.1701 46.8404 14.4301 45.7404 14.4301 51.3004C14.4301 56.8504 26.3401 60.3104 27.2301 55.7504C28.1201 51.2004 23.6601 46.9304 22.1701 46.8404Z" fill="white"/>
<path opacity="0.3" d="M24.26 45.3501C26.12 45.1401 26.74 44.1401 26.74 44.1401C26.74 44.1401 21.45 44.1601 20.89 44.1901C20.88 44.1901 22.4 45.5501 24.26 45.3501Z" fill="#5E1313"/>
<path d="M67.69 4.83028C52.2 11.0103 30.72 17.1603 23.19 44.1403C23.1 44.4703 23.47 44.7503 23.81 44.7503C24.15 44.7503 24.42 44.4703 24.42 44.1303C24.42 43.9103 28.33 18.5803 68.28 5.90028C68.6 5.80028 68.69 5.36028 68.52 5.06028C68.36 4.77028 68.01 4.70028 67.69 4.83028Z" fill="#1B7048"/>
<path d="M67.73 4.8202C67.67 5.0302 67.55 5.7102 68.32 5.8802C68.58 5.7102 68.68 5.3602 68.52 5.0802C68.37 4.7902 68.02 4.6802 67.73 4.8202Z" fill="#54BA84"/>
<path opacity="0.3" d="M23.65 71.2503C31.8 71.2503 38.4 65.5703 38.4 57.4203C38.4 52.4903 37.02 49.3203 34.77 47.3003C30 49.3903 18.93 56.0503 23.65 71.2503Z" fill="#5E1313"/>
<path d="M111.77 45.7603C101.9 45.7603 93.9 46.8703 93.9 61.8403C93.9 71.7103 101.9 78.5903 111.77 78.5903C121.64 78.5903 129.64 71.7103 129.64 61.8403C129.64 48.7303 121.64 45.7603 111.77 45.7603Z" fill="#CC2929"/>
<path opacity="0.3" d="M119.78 71.7898C99.93 79.9498 96.11 61.7498 94.39 56.1798C94.07 57.8098 93.9 59.6798 93.9 61.8498C93.9 71.7198 101.9 78.5998 111.77 78.5998C121.64 78.5998 129.64 71.7198 129.64 61.8498C129.64 56.4598 128.29 52.7798 126.01 50.3198C127.2 54.2098 133.45 66.1698 119.78 71.7898Z" fill="#5E1313"/>
<path opacity="0.3" d="M109.97 49.0398C109.97 49.0398 100.59 47.7098 100.59 54.4398C100.59 61.1698 115.01 65.3498 116.1 59.8298C117.19 54.3098 111.78 49.1398 109.97 49.0398Z" fill="white"/>
<path opacity="0.3" d="M112.51 47.2203C114.76 46.9703 115.51 45.7603 115.51 45.7603C115.51 45.7603 109.11 45.7903 108.43 45.8303C108.42 45.8303 110.26 47.4703 112.51 47.2203Z" fill="#5E1313"/>
<path d="M70.05 4.70986C69.64 4.70986 69.24 4.63986 69.04 5.00986C68.84 5.36986 68.92 6.02986 69.34 6.01986C104.54 5.29986 110.84 45.4899 110.84 45.7599C110.84 46.1699 111.17 46.5099 111.58 46.5099C111.58 46.5099 111.58 46.5099 111.59 46.5099C112 46.5099 112.33 46.1799 112.34 45.7699C112.33 44.6399 106.33 4.76986 70.05 4.70986Z" fill="#1B7048"/>
<path d="M69.04 5.00006C68.85 5.34006 68.97 5.76006 69.29 5.97006C70.22 5.76006 70.07 4.94006 70.01 4.69006C69.65 4.53006 69.23 4.66006 69.04 5.00006Z" fill="#54BA84"/>
<path opacity="0.3" d="M93.98 59.4004C93.93 60.1704 93.9 60.9804 93.9 61.8404C93.9 69.6204 98.89 75.5304 105.83 77.6904C105.86 77.5504 105.9 77.4104 105.93 77.2704C108.65 65.4204 93.99 59.4004 93.98 59.4004Z" fill="#5E1313"/>
<path d="M47.99 48.9604C35.93 48.9604 26.16 50.3104 26.16 68.6004C26.16 80.6604 35.93 89.0604 47.99 89.0604C60.05 89.0604 69.82 80.6504 69.82 68.6004C69.82 52.5804 60.04 48.9604 47.99 48.9604Z" fill="#CC2929"/>
<path opacity="0.3" d="M52.93 81.2403C36.32 88.8403 28.5 68.4703 26.41 61.6703C26.02 63.6603 25.81 65.9403 25.81 68.5903C25.81 80.6503 35.58 89.0503 47.64 89.0503C59.7 89.0503 69.47 80.6403 69.47 68.5903C69.47 62.0003 67.82 57.5103 65.03 54.5103C66.49 59.2703 69.35 73.7303 52.93 81.2403Z" fill="#5E1313"/>
<path opacity="0.3" d="M68.95 62.3804C68.95 62.3804 50.52 62.8004 57.89 86.9704C64.97 83.7604 69.81 77.0804 69.81 68.6004C69.81 66.3104 69.6 64.2704 69.22 62.4604L68.95 62.3804Z" fill="#5E1313"/>
<path opacity="0.3" d="M45.44 52.9503C45.44 52.9503 33.99 51.3303 33.99 59.5503C33.99 67.7703 51.61 72.8803 52.93 66.1403C54.25 59.4003 47.65 53.0803 45.44 52.9503Z" fill="white"/>
<path opacity="0.3" d="M48.54 50.7405C51.29 50.4305 52.2 48.9604 52.2 48.9604C52.2 48.9604 44.38 49.0005 43.55 49.0405C43.54 49.0405 45.79 51.0505 48.54 50.7405Z" fill="#5E1313"/>
<path d="M67.48 4.63039C46.94 15.9004 46.95 48.4904 46.96 49.8704C46.96 50.3704 47.37 50.7704 47.87 50.7704C47.87 50.7704 47.87 50.7704 47.88 50.7704C48.38 50.7704 48.79 50.3604 48.78 49.8504C48.78 49.5204 48.76 16.9704 68.35 6.22039C68.79 5.98039 68.95 5.42039 68.71 4.98039C68.47 4.55039 67.92 4.38039 67.48 4.63039Z" fill="#1B7048"/>
<path d="M67.54 4.61051C67.46 4.92051 67.28 5.92051 68.41 6.18051C68.8 5.92051 68.94 5.41051 68.71 4.99051C68.48 4.57051 67.96 4.41051 67.54 4.61051Z" fill="#54BA84"/>
<path d="M82.73 62.1499C70.67 62.1499 60.9 63.4999 60.9 81.7899C60.9 93.8399 70.67 102.25 82.73 102.25C94.78 102.25 104.56 93.8399 104.56 81.7899C104.55 65.7699 94.78 62.1499 82.73 62.1499Z" fill="#CC2929"/>
<path opacity="0.3" d="M88.85 95.27C72.24 102.87 60.7 85.21 61.5 74.87C61.11 76.86 60.9 79.14 60.9 81.79C60.9 93.84 70.67 102.25 82.73 102.25C94.78 102.25 104.56 93.84 104.56 81.79C104.56 75.2 102.9 70.71 100.12 67.71C101.58 72.46 105.27 87.76 88.85 95.27Z" fill="#5E1313"/>
<path opacity="0.3" d="M80.53 66.15C80.53 66.15 69.08 64.53 69.08 72.75C69.08 80.97 86.7 86.08 88.02 79.34C89.34 72.59 82.74 66.28 80.53 66.15Z" fill="white"/>
<path opacity="0.3" d="M83.63 63.9299C86.38 63.6199 87.29 62.1499 87.29 62.1499C87.29 62.1499 79.47 62.1899 78.64 62.2299C78.63 62.2299 80.88 64.2399 83.63 63.9299Z" fill="#5E1313"/>
<path d="M69.5 4.61002C69.06 4.37002 68.51 4.53002 68.26 4.97002C68.02 5.41002 68.18 5.96002 68.62 6.21002C88.21 16.96 81.58 61.82 81.58 62.15C81.58 62.65 81.98 63.06 82.48 63.07C82.48 63.07 82.48 63.07 82.49 63.07C82.99 63.07 83.4 62.67 83.4 62.17C83.41 60.77 90.03 15.88 69.5 4.61002Z" fill="#1B7048"/>
<path d="M68.26 4.97001C68.03 5.39001 68.17 5.90001 68.56 6.16001C69.7 5.91001 69.52 4.90001 69.43 4.59001C69.01 4.39001 68.49 4.55001 68.26 4.97001Z" fill="#54BA84"/>
<path opacity="0.3" d="M75.37 67.75C73.22 67.75 71.48 69.58 71.48 71.84C71.48 74.1 73.22 75.93 75.37 75.93C77.52 75.93 79.26 74.1 79.26 71.84C79.26 69.58 77.52 67.75 75.37 67.75Z" fill="white"/>
<path opacity="0.3" d="M95.77 69.25C93.62 69.25 91.88 71.08 91.88 73.34C91.88 75.6 93.62 77.42 95.77 77.42C97.92 77.42 99.66 75.59 99.66 73.34C99.67 71.08 97.92 69.25 95.77 69.25Z" fill="white"/>
<path d="M59.65 6.90023L59.91 7.75023C59.91 7.75023 65.64 6.90023 66.64 6.70023C67.63 6.50023 67.7 5.01023 67.36 4.45023C67.37 4.44023 61.92 6.72023 59.65 6.90023Z" fill="#1B7048"/>
<path d="M44.68 0.0402416C15.66 0.970242 0 32.7202 0 32.7202C10.67 28.2002 16.46 29.7402 16.46 29.7402C48.75 32.9602 58.6 16.1202 58.6 16.1202C60.38 13.6602 73.7 -0.889758 44.68 0.0402416Z" fill="#1B7048"/>
<path d="M44.68 0.0404745C15.66 0.970475 0 32.7205 0 32.7205C10.67 28.2005 16.46 29.7405 16.46 29.7405C17.79 29.8705 19.07 29.9605 20.33 30.0305C19.21 29.9305 18.07 29.8205 16.9 29.6705C16.9 29.6705 11.15 27.9805 0.37 32.2105C0.37 32.2105 16.88 0.900474 45.92 0.760475C54.96 0.710474 59.85 2.05047 62.25 4.00047C60.39 1.49047 55.46 -0.299525 44.68 0.0404745Z" fill="#14A55D"/>
<path d="M62.08 5.94043C62.08 5.94043 15.15 12.1904 0 32.7204C10.67 28.2004 16.46 29.7404 16.46 29.7404C48.75 32.9604 58.6 16.1204 58.6 16.1204C59.56 14.8004 63.85 9.98043 63.1 5.96043L62.08 5.94043Z" fill="#0A542F"/>
<path d="M46.02 21.4803C35.4 26.9703 20.32 26.4203 20.17 26.4103L20.15 26.8203C20.3 26.8303 35.48 27.3803 46.2 21.8403C56.96 16.2803 59.58 6.23027 59.6 6.13027L59.21 6.03027C59.18 6.13027 56.6 16.0103 46.02 21.4803Z" fill="#114702"/>
<path d="M35.31 19.2501L35.38 19.6501C50.26 17.1101 52.52 7.57014 52.54 7.48014L52.14 7.39014C52.13 7.48014 49.91 16.7601 35.31 19.2501Z" fill="#114702"/>
<path d="M27.03 7.4901L27.16 7.8801C38.4 4.0801 43.5 9.5601 43.55 9.6201L43.85 9.3501C43.8 9.2901 38.53 3.6001 27.03 7.4901Z" fill="#114702"/>
<path d="M16.03 17.5105L16.27 17.8405C30.36 7.30048 37.5 12.1605 37.56 12.2105L37.8 11.8805C37.5 11.6705 30.35 6.79048 16.03 17.5105Z" fill="#114702"/>
<path d="M12.23 26.5103L12.42 26.8703C22.25 21.8303 28.07 14.6603 28.13 14.5903L27.81 14.3403C27.75 14.4103 21.98 21.5203 12.23 26.5103Z" fill="#114702"/>
<path d="M40.55 4.09044L40.65 4.48044C48.61 2.37044 55.01 6.96044 55.07 7.01044L55.31 6.68044C55.25 6.64044 48.7 1.93044 40.55 4.09044Z" fill="#114702"/>
<path d="M62.62 5.71045C13.99 12.8704 0.169983 32.3805 0.169983 32.3805C24.88 10.0005 63.16 6.49045 63.16 6.49045C63.15 6.40045 63.05 5.71045 63.05 5.71045H62.62Z" fill="#114702"/>
<path opacity="0.3" d="M45.89 58.9702C43.74 58.9702 42 60.8002 42 63.0502C42 65.3102 43.74 67.1402 45.89 67.1402C48.04 67.1402 49.78 65.3102 49.78 63.0502C49.79 60.8002 48.04 58.9702 45.89 58.9702Z" fill="white"/>
<path opacity="0.3" d="M45.89 71.8301C43.74 71.8301 42 73.6601 42 75.9201C42 78.1801 43.74 80.0101 45.89 80.0101C48.04 80.0101 49.78 78.1801 49.78 75.9201C49.79 73.6601 48.04 71.8301 45.89 71.8301Z" fill="white"/>
<path opacity="0.3" d="M21.77 51.1802C20.4 51.1802 19.29 52.3502 19.29 53.7902C19.29 55.2302 20.4 56.4002 21.77 56.4002C23.14 56.4002 24.25 55.2302 24.25 53.7902C24.25 52.3502 23.14 51.1802 21.77 51.1802Z" fill="white"/>
<path opacity="0.3" d="M20.18 59.77C18.81 59.77 17.7 60.94 17.7 62.38C17.7 63.82 18.81 64.99 20.18 64.99C21.55 64.99 22.66 63.82 22.66 62.38C22.67 60.94 21.55 59.77 20.18 59.77Z" fill="white"/>
<path opacity="0.3" d="M105.94 51.9102C104.57 51.9102 103.46 53.0802 103.46 54.5202C103.46 55.9602 104.57 57.1302 105.94 57.1302C107.31 57.1302 108.42 55.9602 108.42 54.5202C108.42 53.0802 107.31 51.9102 105.94 51.9102Z" fill="white"/>
<path opacity="0.3" d="M122.12 53.79C120.75 53.79 119.64 54.96 119.64 56.4C119.64 57.84 120.75 59.01 122.12 59.01C123.49 59.01 124.6 57.84 124.6 56.4C124.61 54.95 123.49 53.79 122.12 53.79Z" fill="white"/>
<path d="M143.68 43.5901L159.9 50.7801L182.53 37.6401C182.53 37.6401 170.08 26.2401 164.24 25.2901C158.4 24.3301 143.68 43.5901 143.68 43.5901Z" fill="white"/>
<path d="M151.66 34.1903C155.51 30.5703 160.01 26.8303 163.56 25.2603C160.54 25.4803 155.77 29.8003 151.66 34.1903Z" fill="#D0D2D3"/>
<path d="M143.68 43.5905L159.9 50.7805L161.73 49.7105L144.14 43.0005C143.85 43.3705 143.68 43.5905 143.68 43.5905Z" fill="#D0D2D3"/>
<mask id="mask0_174_5405" style="mask-type:luminance" maskUnits="userSpaceOnUse" x="143" y="25" width="40" height="26">
<path d="M143.68 43.5901L159.9 50.7801L182.53 37.6401C182.53 37.6401 170.08 26.2401 164.24 25.2901C158.4 24.3301 143.68 43.5901 143.68 43.5901Z" fill="white"/>
</mask>
<g mask="url(#mask0_174_5405)">
<path opacity="0.01" d="M141.65 40.0699C141.68 40.0999 142.29 42.6299 146.37 44.5599C147.87 45.2699 149.6 45.3199 151.44 44.8999C154.69 44.1499 158.32 41.9199 161.76 39.1999C167.14 34.9699 172.09 29.5499 174.5 26.7499C169.08 23.7499 163.17 20.1299 161.41 17.6599C161.35 17.6199 156.75 22.7899 156.73 22.7599L151.52 28.7399L149.2 31.3999L141.65 40.0699Z" fill="black"/>
<path opacity="0.01" d="M141.65 40.0702C141.7 40.1302 142.33 42.6302 146.36 44.5402C147.86 45.2502 149.58 45.3002 151.41 44.8802C154.65 44.1402 158.26 41.9102 161.69 39.2002C167.01 35.0002 171.9 29.6402 174.3 26.8402C169.02 23.8402 163.27 20.2302 161.56 17.7802C161.43 17.7002 156.87 22.7202 156.83 22.6602L151.58 28.6802L149.25 31.3602L141.65 40.0702Z" fill="black"/>
<path opacity="0.0118" d="M141.65 40.0699C141.73 40.1699 142.37 42.6399 146.34 44.5199C147.84 45.2299 149.55 45.2799 151.37 44.8599C154.6 44.1199 158.19 41.9099 161.6 39.1999C166.86 35.0399 171.7 29.7299 174.08 26.9299C168.95 23.9199 163.35 20.3299 161.69 17.8899C161.5 17.7699 156.98 22.6499 156.91 22.5599L151.63 28.6099L149.28 31.2999L141.65 40.0699Z" fill="black"/>
<path opacity="0.0157" d="M141.65 40.0703C141.75 40.2003 142.41 42.6403 146.33 44.4903C147.82 45.1903 149.53 45.2503 151.34 44.8403C154.56 44.1103 158.13 41.9003 161.52 39.1903C166.72 35.0703 171.5 29.8103 173.87 27.0103C168.89 24.0003 163.44 20.4203 161.84 17.9903C161.58 17.8303 157.1 22.5703 157.01 22.4503L151.7 28.5403L149.34 31.2503L141.65 40.0703Z" fill="black"/>
<path opacity="0.0196" d="M141.65 40.0701C141.78 40.2301 142.45 42.6401 146.32 44.4701C147.81 45.1701 149.51 45.2301 151.31 44.8201C154.52 44.1001 158.07 41.8901 161.44 39.1901C166.57 35.1101 171.3 29.8901 173.66 27.1001C168.83 24.0901 163.53 20.5201 161.98 18.1001C161.66 17.9001 157.21 22.5001 157.1 22.3401L151.76 28.4701L149.39 31.2001L141.65 40.0701Z" fill="black"/>
<path opacity="0.0235" d="M141.65 40.0701C141.81 40.2701 142.5 42.6501 146.31 44.4501C147.8 45.1501 149.49 45.2101 151.28 44.8001C154.48 44.0801 158.01 41.8801 161.36 39.1901C166.42 35.1301 171.1 29.9801 173.45 27.1801C168.77 24.1601 163.62 20.6101 162.12 18.2101C161.73 17.9701 157.32 22.4201 157.19 22.2401L151.82 28.4001L149.43 31.1401L141.65 40.0701Z" fill="black"/>
<path opacity="0.0275" d="M141.65 40.0702C141.83 40.3002 142.54 42.6502 146.29 44.4202C147.77 45.1202 149.46 45.1802 151.24 44.7802C154.43 44.0702 157.94 41.8702 161.28 39.1902C166.28 35.1702 170.9 30.0702 173.24 27.2702C168.71 24.2502 163.7 20.7102 162.26 18.3202C161.81 18.0402 157.43 22.3502 157.27 22.1402L151.87 28.3402L149.47 31.1002L141.65 40.0702Z" fill="black"/>
<path opacity="0.0314" d="M141.65 40.0699C141.86 40.3299 142.58 42.6499 146.28 44.3999C147.76 45.0899 149.43 45.1599 151.21 44.7599C154.39 44.0499 157.88 41.8599 161.2 39.1799C166.14 35.1999 170.71 30.1499 173.03 27.3499C168.65 24.3299 163.79 20.7999 162.41 18.4199C161.89 18.0999 157.55 22.2699 157.37 22.0199L151.93 28.2599L149.51 31.0299L141.65 40.0699Z" fill="black"/>
<path opacity="0.0353" d="M141.65 40.0699C141.89 40.3599 142.62 42.6599 146.27 44.3799C147.75 45.0699 149.41 45.1399 151.18 44.7399C154.35 44.0399 157.82 41.8599 161.12 39.1799C166 35.2299 170.51 30.2399 172.82 27.4399C168.59 24.4199 163.88 20.8999 162.55 18.5399C161.97 18.1799 157.66 22.1999 157.46 21.9299L151.99 28.1999L149.56 30.9899L141.65 40.0699Z" fill="black"/>
<path opacity="0.0392" d="M141.65 40.0701C141.91 40.4001 142.66 42.6601 146.26 44.3501C147.73 45.0401 149.39 45.1101 151.15 44.7201C154.31 44.0301 157.76 41.8501 161.04 39.1801C165.86 35.2701 170.31 30.3201 172.61 27.5301C168.53 24.5001 163.97 21.0001 162.69 18.6501C162.04 18.2501 157.77 22.1301 157.55 21.8301L152.05 28.1401L149.61 30.9501L141.65 40.0701Z" fill="black"/>
<path opacity="0.0431" d="M141.65 40.0702C141.94 40.4302 142.7 42.6602 146.24 44.3302C147.71 45.0202 149.36 45.0802 151.11 44.7002C154.26 44.0102 157.69 41.8402 160.96 39.1802C165.71 35.3002 170.12 30.4102 172.4 27.6202C168.47 24.5902 164.06 21.1002 162.83 18.7602C162.12 18.3202 157.88 22.0602 157.64 21.7202L152.11 28.0602L149.65 30.8802L141.65 40.0702Z" fill="black"/>
<path opacity="0.0471" d="M141.65 40.0702C141.96 40.4602 142.74 42.6702 146.23 44.3102C147.7 45.0002 149.34 45.0602 151.08 44.6802C154.22 44.0002 157.63 41.8302 160.88 39.1702C165.57 35.3302 169.92 30.4902 172.19 27.7002C168.41 24.6702 164.15 21.1902 162.98 18.8602C162.2 18.3802 158 21.9702 157.74 21.6102L152.17 28.0002L149.7 30.8402L141.65 40.0702Z" fill="black"/>
<path opacity="0.051" d="M141.65 40.0702C141.99 40.4902 142.78 42.6802 146.22 44.2902C147.68 44.9702 149.32 45.0402 151.05 44.6702C154.18 44.0002 157.57 41.8302 160.8 39.1802C165.43 35.3802 169.72 30.5902 171.98 27.8002C168.34 24.7602 164.24 21.3002 163.12 18.9902C162.28 18.4802 158.12 21.9202 157.83 21.5302L152.24 27.9502L149.75 30.8002L141.65 40.0702Z" fill="black"/>
<path opacity="0.0549" d="M141.65 40.0701C142.02 40.5301 142.82 42.6801 146.21 44.2601C147.67 44.9401 149.3 45.0101 151.02 44.6401C154.14 43.9701 157.51 41.8201 160.72 39.1701C165.29 35.4001 169.52 30.6701 171.77 27.8701C168.28 24.8301 164.33 21.3801 163.26 19.0801C162.35 18.5301 158.23 21.8301 157.92 21.4001L152.3 27.8501L149.8 30.7201L141.65 40.0701Z" fill="black"/>
<path opacity="0.0588" d="M141.65 40.0701C142.04 40.5601 142.86 42.6901 146.19 44.2401C147.65 44.9201 149.27 44.9901 150.98 44.6201C154.09 43.9601 157.44 41.8101 160.63 39.1701C165.13 35.4401 169.32 30.7501 171.55 27.9601C168.21 24.9201 164.4 21.4801 163.39 19.1901C162.42 18.6001 158.33 21.7501 157.99 21.3001L152.33 27.7901L149.82 30.6801L141.65 40.0701Z" fill="black"/>
<path opacity="0.0627" d="M141.65 40.0703C142.07 40.5903 142.91 42.6903 146.18 44.2203C147.63 44.9003 149.25 44.9703 150.95 44.6103C154.05 43.9503 157.38 41.8103 160.56 39.1703C165 35.4803 169.13 30.8403 171.35 28.0503C168.16 25.0103 164.5 21.5803 163.55 19.3103C162.51 18.6803 158.46 21.6903 158.1 21.2103L152.41 27.7303L149.88 30.6303L141.65 40.0703Z" fill="black"/>
<path opacity="0.0667" d="M141.65 40.0701C142.1 40.6201 142.95 42.7001 146.17 44.1901C147.62 44.8601 149.23 44.9401 150.92 44.5801C154.01 43.9301 157.32 41.7901 160.48 39.1601C164.86 35.5001 168.93 30.9201 171.14 28.1301C168.1 25.0801 164.59 21.6701 163.69 19.4101C162.59 18.7401 158.57 21.6101 158.19 21.0901L152.47 27.6501L149.93 30.5701L141.65 40.0701Z" fill="black"/>
<path opacity="0.0706" d="M141.65 40.0701C142.12 40.6601 142.99 42.7001 146.16 44.1701C147.61 44.8401 149.21 44.9201 150.89 44.5601C153.97 43.9201 157.26 41.7901 160.4 39.1601C164.72 35.5401 168.74 31.0101 170.93 28.2201C168.04 25.1701 164.68 21.7701 163.83 19.5201C162.66 18.8101 158.68 21.5401 158.28 20.9901L152.53 27.5901L149.97 30.5301L141.65 40.0701Z" fill="black"/>
<path opacity="0.0745" d="M141.65 40.0699C142.15 40.6899 143.03 42.6999 146.14 44.1499C147.58 44.8199 149.18 44.8999 150.85 44.5499C153.92 43.9099 157.19 41.7899 160.31 39.1699C164.57 35.5899 168.53 31.1099 170.71 28.3199C167.97 25.2699 164.76 21.8799 163.96 19.6399C162.73 18.8899 158.78 21.4699 158.36 20.8899L152.58 27.5199L150.01 30.4699L141.65 40.0699Z" fill="black"/>
<path opacity="0.0784" d="M141.65 40.0702C142.17 40.7202 143.07 42.7102 146.13 44.1202C147.57 44.7902 149.16 44.8702 150.82 44.5202C153.88 43.8902 157.14 41.7702 160.23 39.1502C164.43 35.6102 168.33 31.1802 170.5 28.3902C167.91 25.3402 164.85 21.9602 164.11 19.7402C162.82 18.9502 158.9 21.3902 158.46 20.7802L152.65 27.4502L150.07 30.4202L141.65 40.0702Z" fill="black"/>
<path opacity="0.0824" d="M141.65 40.07C142.2 40.75 143.11 42.71 146.12 44.1C147.56 44.76 149.14 44.85 150.78 44.5C153.83 43.88 157.07 41.76 160.15 39.15C164.28 35.64 168.13 31.26 170.29 28.48C167.85 25.42 164.94 22.06 164.25 19.85C162.89 19.02 159.01 21.32 158.55 20.68L152.71 27.39L150.11 30.37L141.65 40.07Z" fill="black"/>
<path opacity="0.0863" d="M141.65 40.0701C142.23 40.7901 143.15 42.7101 146.11 44.0801C147.54 44.7401 149.12 44.8201 150.76 44.4901C153.8 43.8701 157.02 41.7701 160.08 39.1601C164.15 35.6901 167.94 31.3601 170.09 28.5701C167.8 25.5101 165.04 22.1601 164.4 19.9601C162.98 19.0901 159.13 21.2401 158.64 20.5701L152.76 27.3101L150.15 30.3101L141.65 40.0701Z" fill="black"/>
<path opacity="0.0902" d="M141.65 40.0702C142.25 40.8202 143.19 42.7202 146.09 44.0502C147.52 44.7102 149.09 44.7902 150.71 44.4602C153.74 43.8502 156.94 41.7502 159.98 39.1502C163.99 35.7202 167.73 31.4402 169.86 28.6502C167.72 25.5902 165.11 22.2502 164.52 20.0702C163.03 19.1602 159.23 21.1702 158.71 20.4702L152.8 27.2502L150.17 30.2702L141.65 40.0702Z" fill="black"/>
<path opacity="0.0941" d="M141.65 40.0701C142.28 40.8501 143.24 42.7201 146.08 44.0301C147.51 44.6901 149.07 44.7701 150.68 44.4401C153.7 43.8301 156.88 41.7401 159.9 39.1401C163.85 35.7501 167.53 31.5201 169.65 28.7301C167.65 25.6601 165.19 22.3401 164.67 20.1701C163.12 19.2201 159.35 21.0901 158.81 20.3601L152.87 27.1701L150.23 30.2002L141.65 40.0701Z" fill="black"/>
<path opacity="0.098" d="M141.65 40.07C142.31 40.88 143.28 42.73 146.07 44.01C147.49 44.66 149.05 44.75 150.65 44.43C153.66 43.83 156.82 41.74 159.82 39.15C163.71 35.79 167.33 31.62 169.44 28.83C167.59 25.76 165.28 22.45 164.81 20.29C163.19 19.3 159.46 21.02 158.9 20.26L152.93 27.11L150.27 30.16L141.65 40.07Z" fill="black"/>
<path opacity="0.102" d="M141.65 40.0702C142.33 40.9202 143.32 42.7302 146.06 43.9902C147.48 44.6402 149.03 44.7302 150.62 44.4102C153.62 43.8202 156.76 41.7402 159.75 39.1502C163.58 35.8302 167.14 31.7002 169.24 28.9202C167.54 25.8502 165.38 22.5502 164.96 20.4002C163.28 19.3702 159.58 20.9502 159 20.1602L153 27.0502L150.33 30.1102L141.65 40.0702Z" fill="black"/>
<path opacity="0.1059" d="M141.65 40.0701C142.36 40.9501 143.36 42.7301 146.04 43.9601C147.46 44.6101 149 44.7001 150.58 44.3801C153.57 43.7901 156.69 41.7201 159.66 39.1401C163.43 35.8601 166.94 31.7801 169.02 29.0001C167.47 25.9301 165.46 22.6401 165.09 20.5101C163.34 19.4401 159.68 20.8801 159.08 20.0601L153.05 26.9801L150.37 30.0601L141.65 40.0701Z" fill="black"/>
<path opacity="0.1098" d="M141.65 40.0702C142.38 40.9802 143.4 42.7402 146.03 43.9402C147.45 44.5902 148.98 44.6802 150.55 44.3702C153.53 43.7902 156.63 41.7202 159.58 39.1402C163.29 35.9002 166.74 31.8702 168.81 29.0902C167.41 26.0102 165.55 22.7402 165.24 20.6202C163.43 19.5102 159.8 20.8102 159.18 19.9502L153.11 26.9102L150.41 30.0102L141.65 40.0702Z" fill="black"/>
<path opacity="0.1137" d="M141.65 40.0701C142.41 41.0101 143.44 42.7401 146.02 43.9201C147.43 44.5701 148.96 44.6601 150.52 44.3501C153.49 43.7801 156.57 41.7201 159.5 39.1401C163.15 35.9301 166.54 31.9601 168.6 29.1801C167.35 26.1001 165.64 22.8401 165.38 20.7301C163.5 19.5801 159.91 20.7301 159.27 19.8501L153.17 26.8401L150.46 29.9501L141.65 40.0701Z" fill="black"/>
<path opacity="0.1176" d="M141.65 40.0702C142.44 41.0502 143.48 42.7402 146.01 43.8902C147.42 44.5302 148.93 44.6302 150.49 44.3202C153.45 43.7502 156.52 41.7002 159.42 39.1302C163 35.9602 166.35 32.0402 168.4 29.2502C167.3 26.1702 165.74 22.9202 165.53 20.8302C163.59 19.6402 160.03 20.6502 159.36 19.7402L153.23 26.7702L150.5 29.9002L141.65 40.0702Z" fill="black"/>
<path opacity="0.1216" d="M141.65 40.0701C142.46 41.0801 143.53 42.7501 146 43.8701C147.41 44.5101 148.91 44.6101 150.46 44.3101C153.41 43.7501 156.46 41.7001 159.35 39.1401C162.87 36.0101 166.16 32.1301 168.19 29.3501C167.24 26.2701 165.83 23.0301 165.67 20.9501C163.66 19.7201 160.14 20.5901 159.45 19.6401L153.29 26.7101L150.55 29.8501L141.65 40.0701Z" fill="black"/>
<path opacity="0.1255" d="M141.65 40.0703C142.49 41.1103 143.57 42.7503 145.98 43.8503C147.38 44.4903 148.88 44.5803 150.42 44.2903C153.36 43.7303 156.39 41.7003 159.26 39.1303C162.72 36.0403 165.95 32.2103 167.97 29.4303C167.17 26.3403 165.91 23.1203 165.81 21.0503C163.74 19.7803 160.26 20.5003 159.54 19.5303L153.35 26.6303L150.6 29.7903L141.65 40.0703Z" fill="black"/>
<path opacity="0.1294" d="M141.65 40.0702C142.51 41.1402 143.61 42.7502 145.97 43.8202C147.37 44.4502 148.86 44.5502 150.39 44.2602C153.31 43.7102 156.33 41.6802 159.18 39.1202C162.58 36.0702 165.75 32.2902 167.77 29.5102C167.12 26.4202 166 23.2102 165.96 21.1602C163.82 19.8502 160.38 20.4302 159.64 19.4302L153.42 26.5702L150.65 29.7502L141.65 40.0702Z" fill="black"/>
<path opacity="0.1333" d="M141.65 40.0701C142.54 41.1801 143.65 42.7601 145.96 43.8001C147.36 44.4301 148.84 44.5301 150.36 44.2501C153.27 43.7101 156.27 41.6801 159.1 39.1301C162.44 36.1101 165.56 32.3901 167.56 29.6101C167.06 26.5201 166.09 23.3201 166.1 21.2801C163.9 19.9301 160.49 20.3701 159.73 19.3301L153.48 26.5101L150.7 29.7001L141.65 40.0701Z" fill="black"/>
<path opacity="0.1373" d="M141.65 40.07C142.57 41.21 143.69 42.76 145.95 43.78C147.34 44.41 148.82 44.51 150.33 44.23C153.23 43.69 156.21 41.68 159.03 39.13C162.31 36.15 165.37 32.48 167.36 29.7C167 26.6 166.19 23.42 166.25 21.39C163.98 20 160.61 20.29 159.83 19.23L153.54 26.44L150.74 29.65L141.65 40.07Z" fill="black"/>
<path opacity="0.1412" d="M141.65 40.0699C142.59 41.2399 143.73 42.7599 145.93 43.7499C147.32 44.3799 148.79 44.4799 150.29 44.1999C153.18 43.6699 156.15 41.6599 158.94 39.1099C162.16 36.1699 165.16 32.5499 167.14 29.7699C166.93 26.6699 166.27 23.4999 166.39 21.4799C164.06 20.0599 160.72 20.1999 159.92 19.1099L153.6 26.3599L150.79 29.5899L141.65 40.0699Z" fill="black"/>
<path opacity="0.1451" d="M141.65 40.07C142.62 41.27 143.78 42.77 145.92 43.73C147.31 44.35 148.77 44.46 150.26 44.19C153.14 43.67 156.09 41.66 158.86 39.12C162.02 36.22 164.96 32.64 166.93 29.87C166.87 26.77 166.36 23.61 166.53 21.61C164.13 20.15 160.83 20.15 160.01 19.02L153.66 26.3L150.83 29.54L141.65 40.07Z" fill="black"/>
<path opacity="0.149" d="M141.65 40.0699C142.65 41.3099 143.82 42.7699 145.91 43.7099C147.29 44.3299 148.75 44.4399 150.23 44.1699C153.1 43.6499 156.03 41.6599 158.78 39.1199C161.88 36.2599 164.77 32.7299 166.72 29.9599C166.81 26.8599 166.45 23.7099 166.67 21.7199C164.21 20.2199 160.94 20.0799 160.09 18.9199L153.71 26.2399L150.87 29.4999L141.65 40.0699Z" fill="black"/>
<path opacity="0.1529" d="M141.65 40.0701C142.67 41.3401 143.86 42.7701 145.9 43.6901C147.28 44.3101 148.73 44.4201 150.2 44.1501C153.06 43.6401 155.97 41.6501 158.7 39.1201C161.74 36.3001 164.57 32.8201 166.51 30.0401C166.75 26.9301 166.54 23.8001 166.81 21.8201C164.28 20.2801 161.05 19.9901 160.18 18.8101L153.77 26.1701L150.92 29.4401L141.65 40.0701Z" fill="black"/>
<path opacity="0.1569" d="M141.65 40.0702C142.7 41.3702 143.9 42.7802 145.88 43.6602C147.26 44.2802 148.7 44.3902 150.16 44.1302C153.01 43.6202 155.9 41.6502 158.62 39.1102C161.6 36.3302 164.37 32.9002 166.3 30.1202C166.69 27.0102 166.63 23.8902 166.96 21.9302C164.37 20.3502 161.17 19.9202 160.28 18.7002L153.84 26.0902L150.97 29.3802L141.65 40.0702Z" fill="black"/>
<path opacity="0.1608" d="M141.65 40.0701C142.72 41.4101 143.94 42.7801 145.87 43.6401C147.25 44.2501 148.68 44.3701 150.13 44.1101C152.97 43.6101 155.85 41.6401 158.54 39.1101C161.46 36.3701 164.17 32.9901 166.09 30.2101C166.63 27.1001 166.71 23.9901 167.1 22.0401C164.44 20.4201 161.29 19.8501 160.37 18.6001L153.89 26.0301L151.01 29.3401L141.65 40.0701Z" fill="black"/>
<path opacity="0.1647" d="M141.65 40.07C142.75 41.44 143.98 42.78 145.86 43.62C147.23 44.23 148.66 44.35 150.1 44.09C152.93 43.6 155.79 41.63 158.46 39.11C161.32 36.41 163.98 33.07 165.88 30.3C166.57 27.18 166.8 24.09 167.24 22.15C164.52 20.49 161.4 19.77 160.46 18.5L153.95 25.96L151.06 29.28L141.65 40.07Z" fill="black"/>
<path opacity="0.1686" d="M141.65 40.0701C142.78 41.4701 144.03 42.7901 145.85 43.5901C147.22 44.2001 148.64 44.3101 150.07 44.0701C152.89 43.5801 155.73 41.6301 158.38 39.1101C161.18 36.4401 163.78 33.1601 165.67 30.3901C166.51 27.2701 166.89 24.1901 167.38 22.2601C164.59 20.5601 161.51 19.7001 160.55 18.3901L154.01 25.8901L151.1 29.2301L141.65 40.0701Z" fill="black"/>
<path opacity="0.1725" d="M141.65 40.07C142.8 41.5 144.07 42.79 145.83 43.57C147.2 44.17 148.61 44.29 150.03 44.05C152.84 43.57 155.66 41.62 158.29 39.1C161.03 36.47 163.57 33.24 165.45 30.47C166.43 27.35 166.97 24.28 167.52 22.37C164.67 20.63 161.62 19.63 160.64 18.29L154.07 25.83L151.15 29.18L141.65 40.07Z" fill="black"/>
<path opacity="0.1765" d="M141.65 40.0699C142.83 41.5399 144.11 42.7899 145.82 43.5499C147.18 44.1499 148.59 44.2699 150 44.0299C152.8 43.5599 155.61 41.6199 158.22 39.0999C160.9 36.5099 163.38 33.3299 165.25 30.5599C166.38 27.4399 167.07 24.3799 167.67 22.4799C164.76 20.6999 161.74 19.5499 160.74 18.1899L154.14 25.7599L151.2 29.1299L141.65 40.0699Z" fill="black"/>
<path opacity="0.1804" d="M141.65 40.0701C142.86 41.5701 144.15 42.7901 145.81 43.5201C147.17 44.1201 148.57 44.2401 149.97 44.0101C152.76 43.5401 155.55 41.6101 158.14 39.1001C160.76 36.5501 163.19 33.4201 165.04 30.6501C166.32 27.5201 167.16 24.4801 167.81 22.5901C164.83 20.7701 161.85 19.4801 160.82 18.0801L154.19 25.6901L151.24 29.0801L141.65 40.0701Z" fill="black"/>
<path opacity="0.1843" d="M141.65 40.0702C142.88 41.6002 144.19 42.7902 145.8 43.5002C147.16 44.0902 148.55 44.2202 149.94 43.9902C152.72 43.5302 155.49 41.6102 158.06 39.0902C160.62 36.5802 162.99 33.4902 164.83 30.7202C166.26 27.5902 167.25 24.5602 167.95 22.6902C164.91 20.8302 161.96 19.4002 160.91 17.9702L154.25 25.6202L151.29 29.0202L141.65 40.0702Z" fill="black"/>
<path opacity="0.1882" d="M141.65 40.0701C142.91 41.6301 144.24 42.8001 145.78 43.4801C147.14 44.0701 148.52 44.2001 149.9 43.9701C152.67 43.5101 155.42 41.6001 157.97 39.0901C160.47 36.6201 162.78 33.5801 164.61 30.8101C166.19 27.6801 167.33 24.6601 168.09 22.8001C164.98 20.9001 162.07 19.3301 161 17.8701L154.3 25.5501L151.32 28.9701L141.65 40.0701Z" fill="black"/>
<path opacity="0.1922" d="M141.65 40.07C142.93 41.67 144.28 42.8 145.77 43.46C147.12 44.05 148.5 44.18 149.87 43.96C152.63 43.51 155.37 41.61 157.9 39.1C160.35 36.68 162.6 33.68 164.41 30.91C166.14 27.77 167.43 24.77 168.24 22.92C165.07 20.98 162.19 19.26 161.1 17.77L154.37 25.49L151.38 28.92L141.65 40.07Z" fill="black"/>
<path opacity="0.1961" d="M141.65 40.0702C142.96 41.7002 144.32 42.8002 145.76 43.4302C147.11 44.0202 148.47 44.1502 149.84 43.9302C152.59 43.4902 155.31 41.6002 157.82 39.0902C160.21 36.7002 162.4 33.7602 164.2 30.9902C166.08 27.8502 167.51 24.8602 168.38 23.0202C165.14 21.0402 162.3 19.1802 161.19 17.6602L154.43 25.4102L151.42 28.8602L141.65 40.0702Z" fill="black"/>
<path opacity="0.2" d="M161.27 17.5601L151.46 28.8201L141.65 40.0801C144.28 43.3501 147.06 44.3601 149.8 43.9201C152.54 43.4801 155.25 41.6001 157.73 39.0901C162.7 34.0801 166.78 26.5701 168.51 23.1401C165.21 21.1101 162.41 19.1101 161.27 17.5601Z" fill="black"/>
</g>
<path d="M143.68 43.5902C153.24 43.8002 155.51 39.0802 155.51 39.0802L145.24 34.7402L143.68 43.5902Z" fill="#929497"/>
<path d="M79.4 18.4501C79.4 18.4501 82.56 25.9601 82.48 34.9801C82.48 34.9801 118.35 20.9101 154.01 40.4601L176.18 20.0301C176.19 20.0301 132.95 -14.2499 79.4 18.4501Z" fill="white"/>
<path d="M82.58 34.1899C82.65 26.0999 79.82 19.2799 79.44 18.4199C79.43 18.4299 79.41 18.4399 79.4 18.4399C79.4 18.4399 82.56 25.9499 82.48 34.9699C82.48 34.9699 118.35 20.8999 154.01 40.4499L155.51 39.0699C119.03 20.8799 82.58 34.1899 82.58 34.1899Z" fill="#D0D2D3"/>
<path d="M102.08 23.2602C101.9 23.2502 101.24 23.7702 100.77 23.9902C100.29 24.2102 99.75 24.4202 99.13 24.6102C98.33 24.8602 97.58 25.0002 96.86 25.0502C96.14 25.0902 95.46 25.0302 94.83 24.8702C94.2 24.7002 93.62 24.4102 93.09 24.0002C92.56 23.5902 92.11 23.0402 91.74 22.3502C91.01 20.9902 90.92 19.7302 91.53 18.5402C92.14 17.3602 93.38 16.3502 95.21 15.6202C95.63 15.4502 96.01 15.3202 96.35 15.2102C96.69 15.1002 97 15.0202 97.28 14.9502C97.56 14.8802 97.83 14.8302 98.09 14.7902C98.34 14.7502 98.8 14.7602 98.88 14.6802C98.97 14.6002 99 14.1002 99.04 13.8402C99.08 13.5802 99.09 13.1002 99.02 13.0502C98.89 12.9502 97.75 13.2402 97.01 13.4202C96.27 13.6002 95.4 13.8802 94.42 14.2902C93.1 14.8302 91.98 15.4902 91.07 16.2302C90.16 16.9702 89.48 17.7602 89.04 18.5802C88.6 19.4002 88.39 20.2202 88.42 21.0602C88.44 21.9002 88.71 22.7102 89.19 23.5202C89.67 24.3202 90.28 24.9502 90.99 25.4502C91.71 25.9402 92.51 26.2902 93.38 26.5102C94.26 26.7202 95.21 26.8002 96.23 26.7502C97.25 26.7002 98.32 26.5002 99.45 26.1702C100.19 25.9502 100.85 25.7102 101.46 25.4502C102.07 25.1902 103.14 24.7302 103.19 24.5202C103.21 24.3702 102.34 23.2702 102.08 23.2602Z" fill="#CC2929"/>
<path d="M113.38 13.7901C112.58 13.2601 111.41 13.1301 109.91 13.4401C109.38 13.5501 108.91 13.7101 108.5 13.9101C108.09 14.1101 107.73 14.3301 107.44 14.5701C107.15 14.8101 106.91 15.0601 106.73 15.3001C106.55 15.5501 106.41 15.7701 106.3 15.9801C105.79 13.8301 105.53 12.7501 105.02 10.6001C104.82 10.6301 104.59 10.6801 104.34 10.7301C104.09 10.7901 103.86 10.8501 103.67 10.9101C103.47 10.9701 103.26 11.0401 103.02 11.1201C102.78 11.2001 102.57 11.2901 102.39 11.3701C103.83 16.5201 104.55 19.1001 106 24.2501C106.17 24.2401 106.35 24.2201 106.56 24.1901C106.77 24.1601 106.95 24.1301 107.09 24.1101C107.25 24.0801 107.43 24.0401 107.64 23.9901C107.84 23.9401 108.02 23.8901 108.18 23.8401C107.73 21.9401 107.5 20.9901 107.05 19.0901C106.92 18.5201 106.89 18.0201 106.97 17.5901C107.05 17.1501 107.22 16.7701 107.48 16.4501C107.74 16.1301 108.06 15.8701 108.45 15.6601C108.84 15.4501 109.26 15.3001 109.71 15.2101C110.51 15.0501 111.14 15.1501 111.6 15.5001C112.06 15.8601 112.35 16.4901 112.48 17.4001C112.81 19.6801 112.98 20.8201 113.32 23.0901C113.49 23.1001 113.67 23.1001 113.87 23.0901C114.07 23.0801 114.25 23.0701 114.42 23.0501C114.59 23.0301 114.76 23.0101 114.96 22.9801C115.16 22.9501 115.34 22.9101 115.5 22.8701C115.22 20.3301 115.08 19.0601 114.8 16.5301C114.65 15.2601 114.19 14.3301 113.38 13.7901Z" fill="#CC2929"/>
<path d="M127.8 13.01C127.37 12.56 126.81 12.21 126.14 11.97C125.46 11.73 124.65 11.63 123.73 11.68C122.65 11.73 121.72 11.95 120.94 12.31C120.16 12.67 119.53 13.12 119.05 13.66C118.56 14.2 118.22 14.81 118.02 15.5C117.82 16.18 117.75 16.91 117.81 17.67C117.86 18.44 118.03 19.14 118.3 19.77C118.57 20.4 118.97 20.95 119.48 21.4C119.99 21.86 120.62 22.22 121.37 22.48C122.12 22.74 123 22.88 124.04 22.91C124.75 22.93 125.4 22.91 125.99 22.84C126.58 22.77 127.5 22.67 127.63 22.49C127.7 22.39 127.62 21.88 127.57 21.57C127.52 21.26 127.41 20.81 127.33 20.77C127.04 20.64 125.3 21.21 124.22 21.19C122.99 21.17 122.06 20.91 121.42 20.39C120.77 19.87 120.41 19.05 120.34 17.91C123.68 17.73 125.35 17.73 128.69 17.88C128.72 17.72 128.75 17.53 128.79 17.31C128.83 17.09 128.85 16.88 128.87 16.68C128.94 15.95 128.89 15.26 128.71 14.63C128.53 14 128.23 13.46 127.8 13.01ZM120.32 16.39C120.41 15.49 120.72 14.76 121.25 14.22C121.79 13.68 122.58 13.37 123.62 13.33C124.15 13.31 124.6 13.37 124.98 13.52C125.36 13.67 125.66 13.88 125.89 14.15C126.12 14.42 126.29 14.73 126.39 15.09C126.49 15.45 126.53 15.83 126.51 16.23C124.03 16.21 122.79 16.24 120.32 16.39Z" fill="#CC2929"/>
<path d="M139.31 12.4401C139.16 12.4201 139.02 12.3901 138.89 12.3801C137.95 12.2701 137.15 12.3801 136.48 12.7001C135.82 13.0201 134.85 13.9001 134.83 13.8801C134.83 13.8801 134.9 13.3201 134.91 12.9501C134.92 12.5801 134.96 12.1401 134.9 12.0601C134.86 12.0101 134.58 11.9801 134.39 11.9601C134.2 11.9301 134.01 11.9101 133.82 11.9001C133.63 11.8901 133.45 11.8901 133.27 11.8901C133.09 11.8901 132.91 11.9101 132.71 11.9301C132.1 16.4301 131.8 18.6701 131.19 23.1701C131.36 23.2201 131.55 23.2701 131.74 23.3101C131.94 23.3501 132.12 23.3801 132.28 23.4001C132.44 23.4201 132.62 23.4401 132.82 23.4501C133.02 23.4601 133.2 23.4701 133.37 23.4601C133.75 21.2001 133.94 20.0701 134.32 17.8101C134.45 17.0401 134.65 16.4201 134.92 15.9501C135.19 15.4801 135.52 15.1201 135.89 14.8701C136.27 14.6201 136.68 14.4601 137.11 14.4001C137.54 14.3401 137.99 14.3301 138.44 14.3901C138.52 14.4001 138.64 14.4201 138.78 14.4301C138.92 14.4501 139.15 14.5501 139.19 14.5301C139.23 14.5101 139.33 14.1701 139.4 13.9801C139.47 13.7901 139.53 13.6001 139.57 13.4201C139.61 13.2601 139.63 13.0901 139.65 12.9401C139.67 12.7901 139.7 12.5501 139.67 12.5001C139.66 12.4901 139.45 12.4601 139.31 12.4401Z" fill="#CC2929"/>
<path d="M148.93 14.1299C148.79 14.0899 148.65 14.0499 148.51 14.0199C147.59 13.8099 146.76 13.8499 146.06 14.1099C145.35 14.3699 144.27 15.1999 144.24 15.1799C144.24 15.1799 144.38 14.5999 144.44 14.2199C144.5 13.8399 144.6 13.3699 144.55 13.2899C144.52 13.2399 144.24 13.1799 144.05 13.1299C143.87 13.0799 143.67 13.0399 143.48 13.0099C143.29 12.9799 143.1 12.9499 142.93 12.9399C142.75 12.9299 142.57 12.9199 142.37 12.9199C141.16 17.5899 140.55 19.9199 139.34 24.5899C139.51 24.6599 139.68 24.7199 139.87 24.7899C140.06 24.8499 140.24 24.8999 140.4 24.9399C140.56 24.9799 140.74 25.0199 140.94 25.0499C141.14 25.0799 141.32 25.1099 141.49 25.1199C142.17 22.7799 142.51 21.6099 143.2 19.2799C143.43 18.4899 143.71 17.8599 144.05 17.3899C144.39 16.9199 144.76 16.5799 145.17 16.3599C145.58 16.1399 146.01 16.0099 146.45 15.9899C146.9 15.9699 147.34 16.0099 147.79 16.1099C147.87 16.1299 147.99 16.1599 148.13 16.1899C148.27 16.2199 148.49 16.3499 148.52 16.3399C148.57 16.3299 148.71 15.9799 148.81 15.7799C148.91 15.5899 148.99 15.3999 149.05 15.2099C149.11 15.0399 149.16 14.8799 149.2 14.7199C149.24 14.5599 149.31 14.3099 149.28 14.2599C149.27 14.2199 149.07 14.1799 148.93 14.1299Z" fill="#CC2929"/>
<path d="M161.56 18.02C161.1 17.84 160.67 17.71 160.3 17.62C156.58 21.54 154.84 23.52 151.59 27.49C152.4 22.55 152.68 20.09 153.02 15.24C152.85 15.16 152.62 15.07 152.35 14.99C152.08 14.91 151.84 14.84 151.61 14.78C151.41 14.73 151.18 14.67 150.94 14.62C150.7 14.57 150.46 14.53 150.23 14.5C150.25 19.69 150.11 22.33 149.51 27.66C149.6 27.71 149.72 27.77 149.87 27.84C150.02 27.91 150.16 27.97 150.3 28.02C150.41 28.06 150.53 28.1 150.65 28.14C150.77 28.18 150.89 28.22 151 28.27C150.34 29.07 150.01 29.47 149.36 30.28C149.09 30.61 148.85 30.86 148.65 31.03C148.44 31.2 148.25 31.32 148.07 31.38C147.89 31.44 147.72 31.46 147.55 31.44C147.38 31.42 147.21 31.37 147.04 31.3C146.81 31.21 146.6 31.09 146.41 30.96C146.23 30.83 146.03 30.62 145.99 30.62C145.92 30.62 145.59 31.11 145.43 31.37C145.27 31.63 144.95 32.14 144.99 32.29C145.01 32.39 145.41 32.62 145.67 32.79C145.94 32.96 146.21 33.11 146.5 33.23C146.89 33.39 147.26 33.49 147.6 33.51C147.94 33.53 148.3 33.46 148.65 33.31C149.01 33.15 149.38 32.9 149.78 32.55C150.17 32.2 150.61 31.75 151.09 31.19C155.38 26.11 157.72 23.58 162.82 18.6C162.61 18.47 162.39 18.36 162.16 18.26C161.94 18.18 161.74 18.09 161.56 18.02Z" fill="#CC2929"/>
<path d="M102.26 22.5799C102.08 22.5699 101.42 23.0899 100.95 23.3099C100.47 23.5299 99.93 23.7399 99.31 23.9299C98.51 24.1799 97.76 24.3199 97.04 24.3699C96.32 24.4099 95.64 24.3499 95.01 24.1899C94.38 24.0199 93.8 23.7299 93.27 23.3199C92.74 22.9099 92.29 22.3599 91.92 21.6699C91.19 20.3099 91.1 19.0499 91.71 17.8599C92.32 16.6799 93.56 15.6699 95.4 14.9399C95.82 14.7699 96.2 14.6399 96.54 14.5299C96.87 14.4199 97.18 14.3299 97.47 14.2699C97.75 14.1999 98.02 14.1499 98.28 14.1099C98.53 14.0699 98.99 14.0799 99.07 13.9999C99.16 13.9199 99.19 13.4199 99.23 13.1599C99.27 12.8999 99.28 12.4199 99.21 12.3699C99.08 12.2799 97.94 12.5599 97.2 12.7399C96.46 12.9199 95.59 13.1999 94.61 13.6099C93.29 14.1499 92.17 14.8099 91.26 15.5499C90.35 16.2899 89.67 17.0799 89.23 17.8999C88.79 18.7199 88.58 19.5399 88.61 20.3799C88.63 21.2199 88.9 22.0299 89.38 22.8399C89.86 23.6399 90.46 24.2699 91.18 24.7699C91.9 25.2699 92.7 25.6099 93.57 25.8299C94.45 26.0499 95.4 26.1199 96.42 26.0699C97.45 26.0199 98.51 25.8199 99.63 25.4899C100.37 25.2699 101.03 25.0299 101.64 24.7699C102.25 24.5099 103.32 24.0499 103.37 23.8399C103.39 23.6899 102.52 22.5899 102.26 22.5799Z" fill="#F95353"/>
<path d="M113.56 13.1099C112.76 12.5699 111.59 12.4499 110.09 12.7599C109.56 12.8699 109.09 13.0299 108.68 13.2299C108.27 13.4299 107.91 13.6499 107.62 13.8899C107.33 14.1299 107.09 14.3799 106.91 14.6199C106.73 14.8699 106.59 15.0899 106.48 15.2999C105.97 13.1499 105.71 12.0699 105.2 9.91992C105 9.94992 104.77 9.98992 104.52 10.0499C104.27 10.1099 104.04 10.1699 103.85 10.2299C103.65 10.2899 103.44 10.3599 103.2 10.4399C102.96 10.5199 102.75 10.6099 102.57 10.6899C104.01 15.8399 104.73 18.4199 106.18 23.5699C106.35 23.5599 106.53 23.5399 106.74 23.5099C106.95 23.4799 107.12 23.4499 107.27 23.4199C107.43 23.3899 107.61 23.3499 107.82 23.2999C108.02 23.2499 108.2 23.1999 108.36 23.1399C107.91 21.2399 107.68 20.2899 107.23 18.3899C107.1 17.8199 107.07 17.3199 107.15 16.8899C107.23 16.4499 107.41 16.0699 107.66 15.7499C107.92 15.4299 108.24 15.1699 108.63 14.9599C109.02 14.7499 109.44 14.5999 109.89 14.5099C110.69 14.3499 111.32 14.4499 111.78 14.7999C112.24 15.1599 112.53 15.7899 112.66 16.6999C113 18.9799 113.16 20.1199 113.5 22.3899C113.67 22.3999 113.85 22.3999 114.05 22.3899C114.25 22.3799 114.43 22.3699 114.6 22.3499C114.76 22.3299 114.94 22.3099 115.14 22.2799C115.34 22.2499 115.52 22.2099 115.68 22.1699C115.4 19.6299 115.26 18.3599 114.98 15.8299C114.82 14.5699 114.36 13.6499 113.56 13.1099Z" fill="#F95353"/>
<path d="M127.97 12.3201C127.54 11.8701 126.98 11.5201 126.3 11.2801C125.62 11.0401 124.81 10.9401 123.89 10.9901C122.81 11.0401 121.88 11.2601 121.1 11.6201C120.32 11.9801 119.69 12.4301 119.21 12.9701C118.72 13.5101 118.38 14.1201 118.18 14.8101C117.98 15.4901 117.91 16.2201 117.97 16.9701C118.02 17.7401 118.19 18.4401 118.46 19.0801C118.73 19.7101 119.13 20.2601 119.64 20.7101C120.15 21.1701 120.78 21.5301 121.53 21.7901C122.28 22.0501 123.16 22.1901 124.2 22.2201C124.91 22.2401 125.56 22.2201 126.15 22.1501C126.74 22.0801 127.66 21.9801 127.79 21.8001C127.86 21.7001 127.78 21.1901 127.73 20.8801C127.68 20.5701 127.57 20.1201 127.49 20.0801C127.2 19.9501 125.46 20.5201 124.38 20.5001C123.15 20.4801 122.22 20.2201 121.58 19.7001C120.93 19.1801 120.57 18.3601 120.5 17.2201C123.84 17.0401 125.51 17.0401 128.86 17.1901C128.89 17.0301 128.92 16.8401 128.96 16.6201C129 16.4001 129.02 16.1901 129.04 15.9901C129.11 15.2601 129.06 14.5701 128.88 13.9401C128.71 13.3201 128.4 12.7701 127.97 12.3201ZM120.49 15.7101C120.58 14.8101 120.89 14.0801 121.42 13.5401C121.96 13.0001 122.75 12.6901 123.79 12.6501C124.32 12.6301 124.77 12.6901 125.15 12.8401C125.53 12.9901 125.83 13.2001 126.06 13.4701C126.29 13.7401 126.46 14.0501 126.56 14.4101C126.66 14.7701 126.7 15.1501 126.68 15.5501C124.21 15.5201 122.97 15.5601 120.49 15.7101Z" fill="#F95353"/>
<path d="M139.48 11.76C139.34 11.73 139.19 11.71 139.06 11.7C138.12 11.59 137.32 11.7 136.65 12.02C135.99 12.33 135.02 13.21 135 13.2C135 13.2 135.07 12.64 135.08 12.27C135.09 11.9 135.13 11.46 135.07 11.38C135.03 11.33 134.74 11.3 134.56 11.28C134.37 11.25 134.18 11.23 133.99 11.22C133.8 11.21 133.61 11.21 133.44 11.21C133.27 11.21 133.08 11.23 132.88 11.25C132.27 15.75 131.97 17.99 131.36 22.49C131.53 22.54 131.71 22.59 131.91 22.63C132.11 22.67 132.29 22.7 132.45 22.72C132.61 22.74 132.79 22.76 132.99 22.77C133.19 22.78 133.37 22.79 133.54 22.78C133.92 20.52 134.11 19.39 134.49 17.13C134.62 16.36 134.82 15.74 135.09 15.27C135.36 14.8 135.69 14.44 136.06 14.19C136.44 13.94 136.85 13.78 137.28 13.72C137.71 13.66 138.16 13.65 138.61 13.71C138.69 13.72 138.81 13.74 138.95 13.75C139.09 13.77 139.32 13.87 139.36 13.85C139.4 13.83 139.5 13.49 139.57 13.3C139.64 13.11 139.69 12.92 139.74 12.74C139.78 12.57 139.8 12.41 139.82 12.26C139.84 12.11 139.87 11.87 139.84 11.82C139.83 11.81 139.63 11.78 139.48 11.76Z" fill="#F95353"/>
<path d="M149.1 13.4497C148.96 13.4097 148.82 13.3697 148.68 13.3397C147.76 13.1297 146.93 13.1697 146.23 13.4297C145.52 13.6897 144.43 14.5197 144.41 14.4997C144.41 14.4997 144.55 13.9197 144.61 13.5397C144.67 13.1597 144.77 12.6897 144.72 12.6097C144.69 12.5597 144.41 12.4997 144.22 12.4497C144.04 12.3997 143.84 12.3597 143.65 12.3297C143.46 12.2997 143.27 12.2697 143.1 12.2597C142.92 12.2497 142.74 12.2397 142.54 12.2397C141.33 16.9097 140.72 19.2397 139.51 23.9097C139.68 23.9797 139.85 24.0497 140.04 24.1097C140.23 24.1697 140.41 24.2197 140.57 24.2597C140.73 24.2997 140.91 24.3397 141.11 24.3697C141.31 24.3997 141.49 24.4297 141.66 24.4397C142.34 22.0997 142.68 20.9297 143.37 18.5997C143.6 17.7997 143.88 17.1797 144.22 16.7097C144.56 16.2497 144.93 15.8997 145.34 15.6797C145.75 15.4597 146.18 15.3297 146.63 15.3097C147.07 15.2897 147.52 15.3297 147.97 15.4297C148.05 15.4497 148.17 15.4797 148.31 15.5097C148.45 15.5397 148.66 15.6697 148.7 15.6597C148.75 15.6497 148.89 15.2997 148.99 15.0997C149.09 14.9097 149.17 14.7197 149.23 14.5297C149.29 14.3597 149.34 14.1997 149.38 14.0397C149.42 13.8797 149.49 13.6297 149.46 13.5797C149.44 13.5397 149.24 13.4897 149.1 13.4497Z" fill="#F95353"/>
<path d="M161.73 17.3398C161.27 17.1598 160.84 17.0298 160.47 16.9398C156.75 20.8598 155.01 22.8398 151.76 26.8098C152.57 21.8698 152.85 19.4098 153.19 14.5598C153.02 14.4798 152.79 14.3898 152.52 14.3098C152.25 14.2298 152.01 14.1598 151.78 14.0998C151.58 14.0498 151.35 13.9898 151.11 13.9398C150.87 13.8898 150.63 13.8498 150.4 13.8198C150.41 19.0098 150.27 21.6498 149.68 26.9798C149.77 27.0298 149.89 27.0898 150.04 27.1598C150.19 27.2298 150.33 27.2898 150.47 27.3398C150.58 27.3798 150.7 27.4198 150.82 27.4598C150.94 27.4998 151.06 27.5398 151.17 27.5898C150.51 28.3898 150.18 28.7898 149.53 29.5998C149.26 29.9298 149.02 30.1798 148.82 30.3498C148.61 30.5198 148.42 30.6398 148.24 30.6998C148.06 30.7598 147.89 30.7798 147.72 30.7598C147.55 30.7398 147.39 30.6898 147.21 30.6198C146.98 30.5298 146.77 30.4098 146.58 30.2798C146.4 30.1498 146.2 29.9398 146.16 29.9398C146.08 29.9398 145.76 30.4298 145.6 30.6898C145.44 30.9498 145.12 31.4598 145.16 31.6098C145.18 31.7098 145.58 31.9398 145.84 32.1098C146.11 32.2798 146.38 32.4298 146.67 32.5498C147.06 32.7098 147.43 32.8098 147.77 32.8298C148.11 32.8498 148.47 32.7798 148.82 32.6298C149.18 32.4698 149.55 32.2198 149.95 31.8698C150.34 31.5198 150.78 31.0698 151.26 30.5098C155.55 25.4298 157.89 22.8998 162.99 17.9198C162.78 17.7898 162.56 17.6798 162.33 17.5798C162.12 17.4998 161.91 17.4098 161.73 17.3398Z" fill="#F95353"/>
<path opacity="0.2" d="M140.25 105.69C138.77 105.3 125.9 103.97 121.28 104.29C116.66 104.6 108.43 104.77 108.43 104.77C108.12 104.78 107.26 105.14 108.43 105.07C109.6 104.99 119.04 108.19 123.27 108.19C127.5 108.19 141.73 106.08 140.25 105.69Z" fill="black"/>
<path opacity="0.2" d="M134.22 105.221C132.38 104.761 127.82 105.221 124.09 105.221C120.36 105.221 112.44 104.461 112.4 105.221C112.4 105.221 121.11 107.721 124.09 107.481C127.07 107.251 136.06 105.681 134.22 105.221Z" fill="black"/>
<path d="M127.82 71.0704C113.67 67.3104 107.17 77.8504 107.17 88.1404C107.17 98.4304 112.87 106.59 123.06 106.59C133.25 106.59 144.65 98.4304 144.65 88.1404C144.65 77.8504 137.67 73.6904 127.82 71.0704Z" fill="#890B0B"/>
<path d="M127.35 72.8304C125.56 72.3504 123.85 72.1104 122.26 72.1104C113.09 72.1104 108.99 80.1603 108.99 88.1303C108.99 98.2303 114.51 104.76 123.06 104.76C132.2 104.76 142.83 97.4903 142.83 88.1303C142.83 80.0903 138.49 75.7904 127.35 72.8304Z" fill="#AF0E0E"/>
<path opacity="0.3" d="M128.12 76.1502C121.36 74.9202 114.99 79.2002 113.9 85.7002C112.8 92.2002 117.39 98.4702 124.15 99.6902C130.91 100.92 137.28 96.6402 138.38 90.1402C139.48 83.6402 134.88 77.3802 128.12 76.1502Z" fill="#5E1313"/>
<path opacity="0.3" d="M130.37 78.5203C130.37 78.5203 125.55 74.9603 122 78.0403C118.45 81.1203 113.29 89.6703 119.11 94.4703C124.93 99.2703 131.58 97.5103 133.04 94.1903C134.48 90.8703 136.42 80.9403 130.37 78.5203Z" fill="#5E1313"/>
<path d="M129.96 79.3605C129.96 79.3605 125.6 76.1405 122.39 78.9305C119.18 81.7105 114.51 89.4405 119.78 93.7805C125.04 98.1205 131.06 96.5305 132.37 93.5305C133.68 90.5305 135.43 81.5505 129.96 79.3605Z" fill="#E04C4C"/>
<path opacity="0.3" d="M107.17 88.1402C107.17 92.0402 107.99 95.6302 109.56 98.5902C110.2 97.0502 109.04 87.1902 112.57 79.5102C116.06 71.9202 128.22 71.2902 128.52 71.2702C128.29 71.2002 128.06 71.1402 127.82 71.0702C113.67 67.3202 107.17 77.8502 107.17 88.1402Z" fill="white"/>
<path opacity="0.3" d="M124.57 88.8502C123.58 89.6402 121.26 95.0802 121.26 95.0802L122.33 95.5902C122.33 95.5902 125.11 90.1902 125.41 89.5402C125.72 88.8802 125.57 88.0602 124.57 88.8502Z" fill="#5E1313"/>
</g>
<defs>
<clipPath id="clip0_174_5405">
<rect width="182.53" height="108.19" fill="white"/>
</clipPath>
</defs>
</svg>
