<svg width="155" height="194" viewBox="0 0 155 194" fill="none" xmlns="http://www.w3.org/2000/svg">
<path opacity="0.2" d="M130.64 179.24C125.79 176.22 52.83 179.24 52.83 179.24C43.22 184.53 60.18 189.53 95.94 189.12C131.71 188.71 135.49 182.26 130.64 179.24Z" fill="black"/>
<path opacity="0.2" d="M109.89 183.03C108.36 183.03 97.3501 182.8 89.1201 182.92C79.0101 183.06 69.48 183.88 72.13 185.06C74.78 186.23 87.61 186.75 91.39 186.79C99.57 186.86 111.83 185.06 111.83 185.06C113.65 184.18 111.42 183.03 109.89 183.03Z" fill="black"/>
<path d="M77.86 44.2202L81.98 43.9102C90.49 7.73021 115.76 16.6502 115.76 16.6502C117.06 12.2202 114.72 7.50021 114.72 7.50021C81.4 5.92021 77.86 44.2202 77.86 44.2202Z" fill="#605E1F"/>
<path d="M82.42 36.4001V37.6101H83.36L83.35 36.4901C88.39 11.5801 113.3 11.8301 113.56 11.8601L113.58 10.9201C113.35 10.9201 87.64 10.6101 82.42 36.4001Z" fill="#3F3C0C"/>
<path d="M115.75 16.65C117.05 12.22 114.71 7.5 114.71 7.5C114.71 7.5 111.57 10.25 115.75 16.65Z" fill="#DBB75C"/>
<path d="M111.36 36.5698C104.9 36.5698 99.66 41.8098 99.66 48.2698C99.66 54.7298 104.9 59.9698 111.36 59.9698C117.82 59.9698 123.06 54.7298 123.06 48.2698C123.06 41.8098 117.83 36.5698 111.36 36.5698Z" fill="#7C3A7C"/>
<path opacity="0.4" d="M111.36 38.0601C105.73 38.0601 101.15 42.6401 101.15 48.2701C101.15 53.9001 105.73 58.4801 111.36 58.4801C116.99 58.4801 121.57 53.9001 121.57 48.2701C121.57 42.6401 116.99 38.0601 111.36 38.0601Z" fill="#2B0B2D"/>
<path opacity="0.4" d="M118.39 38.9297C118.43 39.2997 119.77 53.9097 102.78 56.2097C104.92 58.5197 107.97 59.9797 111.36 59.9797C117.82 59.9797 123.06 54.7397 123.06 48.2797C123.07 44.4497 121.22 41.0597 118.39 38.9297Z" fill="#2B0B2D"/>
<path opacity="0.3" d="M107.08 41.5C105 41.5 103.32 43.28 103.32 45.48C103.32 47.67 105 49.46 107.08 49.46C109.16 49.46 110.84 47.68 110.84 45.48C110.84 43.28 109.16 41.5 107.08 41.5Z" fill="white"/>
<path opacity="0.3" d="M106.65 47.4001C107.65 47.4001 108.46 46.5404 108.46 45.4801C108.46 44.4197 107.65 43.5601 106.65 43.5601C105.65 43.5601 104.84 44.4197 104.84 45.4801C104.84 46.5404 105.65 47.4001 106.65 47.4001Z" fill="white"/>
<path d="M127.32 102.8C120.86 102.8 115.62 108.04 115.62 114.5C115.62 120.96 120.86 126.2 127.32 126.2C133.78 126.2 139.02 120.96 139.02 114.5C139.02 108.04 133.78 102.8 127.32 102.8Z" fill="#7C3A7C"/>
<path opacity="0.4" d="M127.32 104.3C121.69 104.3 117.11 108.88 117.11 114.51C117.11 120.14 121.69 124.72 127.32 124.72C132.95 124.72 137.53 120.14 137.53 114.51C137.53 108.88 132.95 104.3 127.32 104.3Z" fill="#2B0B2D"/>
<path opacity="0.4" d="M134.35 105.16C134.39 105.53 135.73 120.14 118.74 122.44C120.88 124.75 123.93 126.21 127.32 126.21C133.78 126.21 139.02 120.97 139.02 114.51C139.02 110.68 137.18 107.3 134.35 105.16Z" fill="#2B0B2D"/>
<path opacity="0.3" d="M123.04 107.74C120.96 107.74 119.28 109.52 119.28 111.72C119.28 113.91 120.96 115.7 123.04 115.7C125.12 115.7 126.8 113.92 126.8 111.72C126.8 109.52 125.12 107.74 123.04 107.74Z" fill="white"/>
<path opacity="0.3" d="M122.61 109.8C121.61 109.8 120.79 110.66 120.79 111.72C120.79 112.78 121.6 113.64 122.61 113.64C123.61 113.64 124.42 112.78 124.42 111.72C124.42 110.65 123.61 109.8 122.61 109.8Z" fill="white"/>
<path d="M130.8 70.6899C123.04 70.6899 116.76 76.9799 116.76 84.7299C116.76 92.4899 123.05 98.7699 130.8 98.7699C138.56 98.7699 144.84 92.4799 144.84 84.7299C144.85 76.9799 138.56 70.6899 130.8 70.6899Z" fill="#7C3A7C"/>
<path opacity="0.4" d="M131.181 96.9847C137.943 96.7729 143.253 91.1195 143.042 84.3574C142.83 77.5953 137.177 72.2852 130.414 72.4969C123.652 72.7087 118.342 78.3621 118.554 85.1242C118.766 91.8864 124.419 97.1965 131.181 96.9847Z" fill="#2B0B2D"/>
<path opacity="0.4" d="M139.23 73.52C139.27 73.96 140.88 91.49 120.5 94.26C123.06 97.03 126.72 98.78 130.8 98.78C138.56 98.78 144.84 92.49 144.84 84.74C144.85 80.15 142.63 76.09 139.23 73.52Z" fill="#2B0B2D"/>
<path opacity="0.3" d="M125.67 76.6099C123.18 76.6099 121.15 78.7499 121.15 81.3799C121.15 84.0099 123.17 86.1499 125.67 86.1499C128.16 86.1499 130.18 84.0099 130.18 81.3799C130.18 78.7499 128.16 76.6099 125.67 76.6099Z" fill="white"/>
<path opacity="0.3" d="M125.15 79.0801C123.95 79.0801 122.97 80.1101 122.97 81.3801C122.97 82.6501 123.95 83.6801 125.15 83.6801C126.35 83.6801 127.33 82.6501 127.33 81.3801C127.32 80.1101 126.35 79.0801 125.15 79.0801Z" fill="white"/>
<path d="M62.92 133.15C55.36 133.15 49.23 139.28 49.23 146.84C49.23 154.4 55.36 160.53 62.92 160.53C70.48 160.53 76.61 154.4 76.61 146.84C76.61 139.29 70.48 133.15 62.92 133.15Z" fill="#7C3A7C"/>
<path opacity="0.4" d="M62.92 134.9C56.33 134.9 50.98 140.26 50.98 146.84C50.98 153.43 56.34 158.78 62.92 158.78C69.5 158.78 74.86 153.42 74.86 146.84C74.86 140.26 69.5 134.9 62.92 134.9Z" fill="#2B0B2D"/>
<path opacity="0.4" d="M71.13 135.92C71.17 136.35 72.74 153.44 52.87 156.14C55.37 158.84 58.94 160.55 62.91 160.55C70.47 160.55 76.6 154.42 76.6 146.86C76.61 142.37 74.45 138.41 71.13 135.92Z" fill="#2B0B2D"/>
<path opacity="0.3" d="M57.91 138.92C55.48 138.92 53.51 141 53.51 143.57C53.51 146.14 55.48 148.22 57.91 148.22C60.34 148.22 62.31 146.14 62.31 143.57C62.31 141.01 60.34 138.92 57.91 138.92Z" fill="white"/>
<path opacity="0.3" d="M57.4 141.33C56.23 141.33 55.28 142.33 55.28 143.57C55.28 144.81 56.23 145.81 57.4 145.81C58.57 145.81 59.52 144.81 59.52 143.57C59.52 142.34 58.57 141.33 57.4 141.33Z" fill="white"/>
<path d="M62.7899 34.5898C52.8599 34.5898 44.8099 42.6398 44.8099 52.5698C44.8099 62.4998 52.8599 70.5498 62.7899 70.5498C72.7199 70.5498 80.7699 62.4998 80.7699 52.5698C80.7699 42.6398 72.7199 34.5898 62.7899 34.5898Z" fill="#7C3A7C"/>
<path opacity="0.4" d="M62.7899 36.8799C54.1399 36.8799 47.0999 43.9199 47.0999 52.5699C47.0999 61.2199 54.1399 68.2599 62.7899 68.2599C71.4399 68.2599 78.4799 61.2199 78.4799 52.5699C78.4799 43.9199 71.4399 36.8799 62.7899 36.8799Z" fill="#2B0B2D"/>
<path opacity="0.4" d="M73.5799 38.21C73.6399 38.78 75.6899 61.22 49.5999 64.76C52.8899 68.31 57.5699 70.55 62.7899 70.55C72.7199 70.55 80.7699 62.5 80.7699 52.57C80.7699 46.69 77.9399 41.49 73.5799 38.21Z" fill="#2B0B2D"/>
<path opacity="0.3" d="M56.2199 42.1597C53.0299 42.1597 50.4399 44.8997 50.4399 48.2697C50.4399 51.6397 53.0299 54.3797 56.2199 54.3797C59.4099 54.3797 61.9999 51.6397 61.9999 48.2697C61.9999 44.8997 59.4099 42.1597 56.2199 42.1597Z" fill="white"/>
<path opacity="0.3" d="M55.5499 45.3301C54.0099 45.3301 52.7599 46.6501 52.7599 48.2701C52.7599 49.9001 54.0099 51.2101 55.5499 51.2101C57.0899 51.2101 58.34 49.8901 58.34 48.2701C58.34 46.6501 57.0899 45.3301 55.5499 45.3301Z" fill="white"/>
<path d="M87.45 36.3999C77.52 36.3999 69.47 44.4499 69.47 54.3799C69.47 64.3099 77.52 72.3599 87.45 72.3599C97.38 72.3599 105.43 64.3099 105.43 54.3799C105.43 44.4499 97.38 36.3999 87.45 36.3999Z" fill="#7C3A7C"/>
<path opacity="0.4" d="M87.45 38.6899C78.8 38.6899 71.77 45.7299 71.77 54.3799C71.77 63.0299 78.81 70.0699 87.45 70.0699C96.1 70.0699 103.14 63.0299 103.14 54.3799C103.14 45.7299 96.1 38.6899 87.45 38.6899Z" fill="#2B0B2D"/>
<path opacity="0.4" d="M98.2399 40.02C98.2999 40.59 100.35 63.03 74.2599 66.57C77.5399 70.12 82.2299 72.36 87.4499 72.36C97.3799 72.36 105.43 64.31 105.43 54.38C105.43 48.51 102.6 43.3 98.2399 40.02Z" fill="#2B0B2D"/>
<path opacity="0.3" d="M80.88 43.9697C77.69 43.9697 75.1 46.7097 75.1 50.0797C75.1 53.4497 77.69 56.1897 80.88 56.1897C84.07 56.1897 86.66 53.4597 86.66 50.0797C86.66 46.6997 84.07 43.9697 80.88 43.9697Z" fill="white"/>
<path opacity="0.3" d="M80.21 47.1401C78.67 47.1401 77.42 48.4601 77.42 50.0801C77.42 51.7001 78.67 53.0201 80.21 53.0201C81.75 53.0201 83 51.7001 83 50.0801C83 48.4601 81.75 47.1401 80.21 47.1401Z" fill="white"/>
<path d="M65.19 110.88C55.26 110.88 47.21 118.93 47.21 128.86C47.21 138.79 55.26 146.84 65.19 146.84C75.12 146.84 83.17 138.79 83.17 128.86C83.17 118.93 75.12 110.88 65.19 110.88Z" fill="#7C3A7C"/>
<path opacity="0.4" d="M65.1899 113.18C56.5399 113.18 49.4999 120.22 49.4999 128.87C49.4999 137.52 56.5399 144.56 65.1899 144.56C73.8399 144.56 80.8799 137.52 80.8799 128.87C80.8799 120.21 73.8399 113.18 65.1899 113.18Z" fill="#2B0B2D"/>
<path opacity="0.4" d="M75.9799 114.51C76.0399 115.08 78.0899 137.52 51.9999 141.06C55.2799 144.61 59.9699 146.85 65.1899 146.85C75.1199 146.85 83.1699 138.8 83.1699 128.87C83.1699 122.99 80.3399 117.79 75.9799 114.51Z" fill="#2B0B2D"/>
<path opacity="0.3" d="M58.61 118.46C55.42 118.46 52.83 121.2 52.83 124.57C52.83 127.94 55.42 130.68 58.61 130.68C61.8 130.68 64.39 127.95 64.39 124.57C64.4 121.19 61.81 118.46 58.61 118.46Z" fill="white"/>
<path opacity="0.3" d="M57.95 121.62C56.41 121.62 55.16 122.94 55.16 124.56C55.16 126.19 56.41 127.5 57.95 127.5C59.49 127.5 60.74 126.18 60.74 124.56C60.73 122.94 59.49 121.62 57.95 121.62Z" fill="white"/>
<path d="M39.57 56.8599C29.64 56.8599 21.59 64.9099 21.59 74.8399C21.59 84.7699 29.64 92.8199 39.57 92.8199C49.5 92.8199 57.55 84.7699 57.55 74.8399C57.56 64.9199 49.51 56.8599 39.57 56.8599Z" fill="#7C3A7C"/>
<path opacity="0.4" d="M39.57 59.1597C30.92 59.1597 23.89 66.1997 23.89 74.8497C23.89 83.4997 30.93 90.5397 39.57 90.5397C48.22 90.5397 55.26 83.4997 55.26 74.8497C55.26 66.1997 48.22 59.1597 39.57 59.1597Z" fill="#2B0B2D"/>
<path opacity="0.4" d="M50.37 60.4897C50.43 61.0597 52.48 83.4997 26.39 87.0397C29.67 90.5897 34.36 92.8297 39.58 92.8297C49.51 92.8297 57.56 84.7797 57.56 74.8497C57.56 68.9697 54.73 63.7697 50.37 60.4897Z" fill="#2B0B2D"/>
<path opacity="0.3" d="M33 64.4399C29.81 64.4399 27.22 67.1699 27.22 70.5499C27.22 73.9199 29.81 76.6599 33 76.6599C36.19 76.6599 38.78 73.9199 38.78 70.5499C38.78 67.1799 36.19 64.4399 33 64.4399Z" fill="white"/>
<path opacity="0.3" d="M32.33 67.6099C30.79 67.6099 29.54 68.9299 29.54 70.5499C29.54 72.1799 30.79 73.4899 32.33 73.4899C33.87 73.4899 35.12 72.1699 35.12 70.5499C35.12 68.9199 33.87 67.6099 32.33 67.6099Z" fill="white"/>
<path d="M69.37 63.9199C59.44 63.9199 51.39 71.9699 51.39 81.8999C51.39 91.8299 59.44 99.8799 69.37 99.8799C79.3 99.8799 87.35 91.8299 87.35 81.8999C87.35 71.9699 79.3 63.9199 69.37 63.9199Z" fill="#7C3A7C"/>
<path opacity="0.4" d="M69.3699 66.2197C60.7199 66.2197 53.6799 73.2597 53.6799 81.9097C53.6799 90.5597 60.7199 97.5897 69.3699 97.5897C78.0199 97.5897 85.0599 90.5497 85.0599 81.9097C85.0499 73.2497 78.0199 66.2197 69.3699 66.2197Z" fill="#2B0B2D"/>
<path opacity="0.4" d="M80.1599 67.5498C80.2199 68.1198 82.2699 90.5598 56.1799 94.0998C59.4599 97.6498 64.1499 99.8898 69.3699 99.8898C79.2999 99.8898 87.3499 91.8398 87.3499 81.9098C87.3499 76.0298 84.5199 70.8298 80.1599 67.5498Z" fill="#2B0B2D"/>
<path opacity="0.3" d="M62.79 71.5C59.6 71.5 57.0099 74.24 57.0099 77.61C57.0099 80.98 59.6 83.72 62.79 83.72C65.98 83.72 68.57 80.98 68.57 77.61C68.57 74.23 65.99 71.5 62.79 71.5Z" fill="white"/>
<path opacity="0.3" d="M62.13 74.6602C60.59 74.6602 59.34 75.9802 59.34 77.6002C59.34 79.2302 60.59 80.5402 62.13 80.5402C63.67 80.5402 64.92 79.2202 64.92 77.6002C64.91 75.9802 63.66 74.6602 62.13 74.6602Z" fill="white"/>
<path d="M69.3599 106.168C69.636 96.2414 61.8131 87.9709 51.887 87.6949C41.9609 87.4188 33.6904 95.2417 33.4143 105.168C33.1383 115.094 40.9612 123.364 50.8873 123.64C60.8134 123.917 69.0839 116.094 69.3599 106.168Z" fill="#7C3A7C"/>
<path opacity="0.4" d="M51.3899 89.9795C42.74 89.9795 35.7 97.0195 35.7 105.669C35.7 114.319 42.74 121.359 51.3899 121.359C60.0399 121.359 67.08 114.319 67.08 105.669C67.07 97.0195 60.0399 89.9795 51.3899 89.9795Z" fill="#2B0B2D"/>
<path opacity="0.4" d="M62.18 91.3096C62.24 91.8796 64.29 114.32 38.2 117.86C41.49 121.41 46.17 123.65 51.3899 123.65C61.32 123.65 69.37 115.6 69.37 105.67C69.37 99.7896 66.54 94.5896 62.18 91.3096Z" fill="#2B0B2D"/>
<path opacity="0.3" d="M44.81 95.2598C41.62 95.2598 39.03 97.9898 39.03 101.37C39.03 104.74 41.62 107.48 44.81 107.48C48 107.48 50.59 104.75 50.59 101.37C50.59 97.9998 48 95.2598 44.81 95.2598Z" fill="white"/>
<path opacity="0.3" d="M44.15 98.4297C42.61 98.4297 41.36 99.7497 41.36 101.37C41.36 103 42.61 104.31 44.15 104.31C45.69 104.31 46.94 102.99 46.94 101.37C46.93 99.7497 45.68 98.4297 44.15 98.4297Z" fill="white"/>
<path d="M85.0499 89.5C75.1199 89.5 67.0699 97.55 67.0699 107.48C67.0699 117.41 75.1199 125.46 85.0499 125.46C94.9799 125.46 103.03 117.41 103.03 107.48C103.04 97.55 94.9899 89.5 85.0499 89.5Z" fill="#7C3A7C"/>
<path opacity="0.4" d="M85.0499 91.79C76.3999 91.79 69.3599 98.83 69.3599 107.48C69.3599 116.13 76.3999 123.17 85.0499 123.17C93.6999 123.17 100.74 116.13 100.74 107.48C100.74 98.83 93.6999 91.79 85.0499 91.79Z" fill="#2B0B2D"/>
<path opacity="0.4" d="M95.8499 93.1201C95.9099 93.6901 97.9599 116.13 71.8699 119.67C75.1499 123.22 79.8399 125.46 85.0599 125.46C94.9899 125.46 103.04 117.41 103.04 107.48C103.04 101.61 100.21 96.4101 95.8499 93.1201Z" fill="#2B0B2D"/>
<path opacity="0.3" d="M78.48 97.0801C75.29 97.0801 72.7 99.8201 72.7 103.19C72.7 106.56 75.29 109.3 78.48 109.3C81.67 109.3 84.26 106.56 84.26 103.19C84.26 99.8101 81.67 97.0801 78.48 97.0801Z" fill="white"/>
<path opacity="0.3" d="M77.81 100.24C76.27 100.24 75.02 101.56 75.02 103.18C75.02 104.81 76.27 106.12 77.81 106.12C79.35 106.12 80.6 104.8 80.6 103.18C80.6 101.56 79.35 100.24 77.81 100.24Z" fill="white"/>
<path d="M105.43 107.93C97.87 107.93 91.74 114.06 91.74 121.62C91.74 129.18 97.87 135.31 105.43 135.31C112.99 135.31 119.12 129.18 119.12 121.62C119.12 114.06 112.99 107.93 105.43 107.93Z" fill="#7C3A7C"/>
<path opacity="0.4" d="M105.43 109.68C98.85 109.68 93.49 115.04 93.49 121.62C93.49 128.21 98.85 133.56 105.43 133.56C112.02 133.56 117.37 128.2 117.37 121.62C117.38 115.04 112.02 109.68 105.43 109.68Z" fill="#2B0B2D"/>
<path opacity="0.4" d="M113.65 110.689C113.69 111.119 115.26 128.209 95.39 130.909C97.89 133.609 101.46 135.319 105.43 135.319C112.99 135.319 119.12 129.189 119.12 121.629C119.12 117.149 116.97 113.189 113.65 110.689Z" fill="#2B0B2D"/>
<path opacity="0.3" d="M100.43 113.7C98 113.7 96.03 115.78 96.03 118.35C96.03 120.92 98 123 100.43 123C102.86 123 104.83 120.92 104.83 118.35C104.83 115.78 102.86 113.7 100.43 113.7Z" fill="white"/>
<path opacity="0.3" d="M99.92 116.11C98.75 116.11 97.8 117.11 97.8 118.35C97.8 119.59 98.75 120.59 99.92 120.59C101.09 120.59 102.04 119.59 102.04 118.35C102.04 117.11 101.09 116.11 99.92 116.11Z" fill="white"/>
<path d="M98.58 58.6797C88.65 58.6797 80.6 66.7297 80.6 76.6597C80.6 86.5897 88.65 94.6397 98.58 94.6397C108.51 94.6397 116.56 86.5897 116.56 76.6597C116.56 66.7297 108.51 58.6797 98.58 58.6797Z" fill="#7C3A7C"/>
<path opacity="0.4" d="M98.58 60.9697C89.93 60.9697 82.9 68.0097 82.9 76.6597C82.9 85.3097 89.94 92.3497 98.58 92.3497C107.23 92.3497 114.27 85.3097 114.27 76.6597C114.27 68.0097 107.23 60.9697 98.58 60.9697Z" fill="#2B0B2D"/>
<path opacity="0.4" d="M109.38 62.2998C109.44 62.8698 111.49 85.3098 85.4 88.8498C88.68 92.3998 93.37 94.6398 98.59 94.6398C108.52 94.6398 116.57 86.5898 116.57 76.6598C116.56 70.7798 113.73 65.5798 109.38 62.2998Z" fill="#2B0B2D"/>
<path opacity="0.3" d="M92.01 66.2495C88.82 66.2495 86.23 68.9895 86.23 72.3595C86.23 75.7295 88.82 78.4695 92.01 78.4695C95.2 78.4695 97.79 75.7295 97.79 72.3595C97.79 68.9895 95.2 66.2495 92.01 66.2495Z" fill="white"/>
<path opacity="0.3" d="M91.34 69.4199C89.8 69.4199 88.55 70.7399 88.55 72.3599C88.55 73.9899 89.8 75.2999 91.34 75.2999C92.88 75.2999 94.13 73.9799 94.13 72.3599C94.12 70.7399 92.88 69.4199 91.34 69.4199Z" fill="white"/>
<path d="M114.84 83.3896C104.91 83.3896 96.86 91.4397 96.86 101.37C96.86 111.3 104.91 119.35 114.84 119.35C124.77 119.35 132.82 111.3 132.82 101.37C132.83 91.4397 124.77 83.3896 114.84 83.3896Z" fill="#7C3A7C"/>
<path opacity="0.4" d="M114.84 85.6895C106.19 85.6895 99.15 92.7294 99.15 101.379C99.15 110.029 106.19 117.069 114.84 117.069C123.49 117.069 130.53 110.029 130.53 101.379C130.53 92.7294 123.49 85.6895 114.84 85.6895Z" fill="#2B0B2D"/>
<path opacity="0.4" d="M125.64 87.0098C125.7 87.5798 127.75 110.02 101.66 113.56C104.94 117.11 109.63 119.35 114.85 119.35C124.78 119.35 132.83 111.3 132.83 101.37C132.83 95.4998 129.99 90.2998 125.64 87.0098Z" fill="#2B0B2D"/>
<path opacity="0.3" d="M108.27 90.9697C105.08 90.9697 102.49 93.6997 102.49 97.0797C102.49 100.45 105.08 103.19 108.27 103.19C111.46 103.19 114.05 100.46 114.05 97.0797C114.05 93.6997 111.46 90.9697 108.27 90.9697Z" fill="white"/>
<path opacity="0.3" d="M107.6 94.1299C106.06 94.1299 104.81 95.4499 104.81 97.0699C104.81 98.6999 106.06 100.01 107.6 100.01C109.14 100.01 110.39 98.6899 110.39 97.0699C110.39 95.4499 109.14 94.1299 107.6 94.1299Z" fill="white"/>
<path d="M119.12 50.27C109.19 50.27 101.14 58.32 101.14 68.25C101.14 78.18 109.19 86.23 119.12 86.23C129.05 86.23 137.1 78.18 137.1 68.25C137.11 58.32 129.05 50.27 119.12 50.27Z" fill="#7C3A7C"/>
<path opacity="0.4" d="M119.12 52.5698C110.47 52.5698 103.43 59.6098 103.43 68.2598C103.43 76.9098 110.47 83.9498 119.12 83.9498C127.77 83.9498 134.81 76.9098 134.81 68.2598C134.81 59.6098 127.77 52.5698 119.12 52.5698Z" fill="#2B0B2D"/>
<path opacity="0.4" d="M129.92 53.8999C129.98 54.4699 132.03 76.9099 105.94 80.4499C109.22 83.9999 113.91 86.2399 119.13 86.2399C129.06 86.2399 137.11 78.1899 137.11 68.2599C137.11 62.3799 134.28 57.1799 129.92 53.8999Z" fill="#2B0B2D"/>
<path opacity="0.3" d="M112.55 70.0701C115.742 70.0701 118.33 67.3346 118.33 63.9601C118.33 60.5856 115.742 57.8501 112.55 57.8501C109.358 57.8501 106.77 60.5856 106.77 63.9601C106.77 67.3346 109.358 70.0701 112.55 70.0701Z" fill="white"/>
<path opacity="0.3" d="M111.88 61.0103C110.34 61.0103 109.09 62.3303 109.09 63.9503C109.09 65.5803 110.34 66.8903 111.88 66.8903C113.42 66.8903 114.67 65.5703 114.67 63.9503C114.67 62.3303 113.42 61.0103 111.88 61.0103Z" fill="white"/>
<path d="M104.21 132.84C94.28 132.84 86.23 140.89 86.23 150.82C86.23 160.75 94.28 168.8 104.21 168.8C114.14 168.8 122.19 160.75 122.19 150.82C122.19 140.89 114.14 132.84 104.21 132.84Z" fill="#7C3A7C"/>
<path opacity="0.4" d="M104.21 135.14C95.56 135.14 88.52 142.18 88.52 150.83C88.52 159.48 95.56 166.52 104.21 166.52C112.86 166.52 119.9 159.48 119.9 150.83C119.89 142.17 112.86 135.14 104.21 135.14Z" fill="#2B0B2D"/>
<path opacity="0.4" d="M115 136.47C115.06 137.04 117.11 159.48 91.02 163.02C94.3 166.57 98.99 168.81 104.21 168.81C114.14 168.81 122.19 160.76 122.19 150.83C122.19 144.95 119.36 139.75 115 136.47Z" fill="#2B0B2D"/>
<path opacity="0.3" d="M97.63 140.42C94.44 140.42 91.85 143.15 91.85 146.53C91.85 149.9 94.44 152.64 97.63 152.64C100.82 152.64 103.41 149.91 103.41 146.53C103.41 143.15 100.82 140.42 97.63 140.42Z" fill="white"/>
<path opacity="0.3" d="M96.97 143.58C95.43 143.58 94.18 144.9 94.18 146.52C94.18 148.15 95.43 149.46 96.97 149.46C98.51 149.46 99.76 148.14 99.76 146.52C99.75 144.9 98.5 143.58 96.97 143.58Z" fill="white"/>
<path d="M88.55 122.42C80.99 122.42 74.86 128.55 74.86 136.11C74.86 143.67 80.99 149.8 88.55 149.8C96.11 149.8 102.24 143.67 102.24 136.11C102.24 128.55 96.11 122.42 88.55 122.42Z" fill="#7C3A7C"/>
<path opacity="0.4" d="M88.55 124.17C81.96 124.17 76.61 129.53 76.61 136.11C76.61 142.7 81.97 148.05 88.55 148.05C95.14 148.05 100.49 142.69 100.49 136.11C100.5 129.53 95.14 124.17 88.55 124.17Z" fill="#2B0B2D"/>
<path opacity="0.4" d="M96.77 125.18C96.81 125.61 98.38 142.7 78.51 145.4C81.01 148.1 84.58 149.81 88.55 149.81C96.11 149.81 102.24 143.68 102.24 136.12C102.24 131.64 100.09 127.68 96.77 125.18Z" fill="#2B0B2D"/>
<path opacity="0.3" d="M83.55 128.19C81.12 128.19 79.15 130.27 79.15 132.84C79.15 135.41 81.12 137.49 83.55 137.49C85.98 137.49 87.95 135.41 87.95 132.84C87.95 130.27 85.98 128.19 83.55 128.19Z" fill="white"/>
<path opacity="0.3" d="M83.04 130.6C81.87 130.6 80.92 131.6 80.92 132.84C80.92 134.08 81.87 135.08 83.04 135.08C84.21 135.08 85.16 134.08 85.16 132.84C85.16 131.6 84.21 130.6 83.04 130.6Z" fill="white"/>
<path d="M76.61 143.58C69.05 143.58 62.92 149.71 62.92 157.27C62.92 164.83 69.05 170.96 76.61 170.96C84.17 170.96 90.3 164.83 90.3 157.27C90.3 149.71 84.17 143.58 76.61 143.58Z" fill="#7C3A7C"/>
<path opacity="0.4" d="M76.61 145.33C70.02 145.33 64.67 150.69 64.67 157.27C64.67 163.86 70.03 169.21 76.61 169.21C83.2 169.21 88.55 163.85 88.55 157.27C88.55 150.69 83.19 145.33 76.61 145.33Z" fill="#2B0B2D"/>
<path opacity="0.4" d="M84.83 146.34C84.87 146.77 86.44 163.86 66.57 166.56C69.07 169.26 72.64 170.97 76.61 170.97C84.17 170.97 90.3 164.84 90.3 157.28C90.3 152.8 88.15 148.84 84.83 146.34Z" fill="#2B0B2D"/>
<path opacity="0.3" d="M71.6 149.35C69.17 149.35 67.2 151.43 67.2 154C67.2 156.57 69.17 158.65 71.6 158.65C74.03 158.65 76 156.57 76 154C76 151.43 74.03 149.35 71.6 149.35Z" fill="white"/>
<path opacity="0.3" d="M71.09 151.76C69.92 151.76 68.97 152.76 68.97 154C68.97 155.24 69.92 156.24 71.09 156.24C72.26 156.24 73.21 155.24 73.21 154C73.22 152.76 72.27 151.76 71.09 151.76Z" fill="white"/>
<path d="M92.0099 158.79C84.4499 158.79 78.3199 164.92 78.3199 172.48C78.3199 180.04 84.4499 186.17 92.0099 186.17C99.5699 186.17 105.7 180.04 105.7 172.48C105.7 164.92 99.5699 158.79 92.0099 158.79Z" fill="#7C3A7C"/>
<path opacity="0.4" d="M92.0099 160.54C85.4199 160.54 80.0699 165.9 80.0699 172.48C80.0699 179.07 85.4299 184.42 92.0099 184.42C98.5999 184.42 103.95 179.06 103.95 172.48C103.95 165.9 98.5899 160.54 92.0099 160.54Z" fill="#2B0B2D"/>
<path opacity="0.4" d="M100.22 161.55C100.26 161.98 101.83 179.07 81.96 181.77C84.46 184.47 88.03 186.18 92 186.18C99.56 186.18 105.69 180.05 105.69 172.49C105.7 168.01 103.54 164.05 100.22 161.55Z" fill="#2B0B2D"/>
<path opacity="0.3" d="M87 164.56C84.57 164.56 82.6 166.64 82.6 169.21C82.6 171.78 84.57 173.86 87 173.86C89.43 173.86 91.4 171.78 91.4 169.21C91.4 166.64 89.43 164.56 87 164.56Z" fill="white"/>
<path opacity="0.3" d="M86.4899 166.97C85.3199 166.97 84.3699 167.97 84.3699 169.21C84.3699 170.45 85.3199 171.45 86.4899 171.45C87.6599 171.45 88.6099 170.45 88.6099 169.21C88.6099 167.97 87.6599 166.97 86.4899 166.97Z" fill="white"/>
<path d="M120.2 119.15C113.74 119.15 108.5 124.39 108.5 130.85C108.5 137.31 113.74 142.55 120.2 142.55C126.66 142.55 131.9 137.31 131.9 130.85C131.9 124.39 126.66 119.15 120.2 119.15Z" fill="#7C3A7C"/>
<path opacity="0.4" d="M120.2 120.64C114.57 120.64 109.99 125.22 109.99 130.85C109.99 136.48 114.57 141.06 120.2 141.06C125.83 141.06 130.41 136.48 130.41 130.85C130.41 125.22 125.83 120.64 120.2 120.64Z" fill="#2B0B2D"/>
<path opacity="0.4" d="M127.22 121.51C127.26 121.88 128.6 136.48 111.61 138.79C113.75 141.1 116.8 142.56 120.19 142.56C126.65 142.56 131.89 137.32 131.89 130.86C131.9 127.03 130.06 123.64 127.22 121.51Z" fill="#2B0B2D"/>
<path opacity="0.3" d="M115.92 124.08C113.84 124.08 112.16 125.86 112.16 128.06C112.16 130.25 113.85 132.04 115.92 132.04C118 132.04 119.68 130.26 119.68 128.06C119.68 125.86 118 124.08 115.92 124.08Z" fill="white"/>
<path opacity="0.3" d="M115.49 126.14C114.49 126.14 113.68 127 113.68 128.06C113.68 129.12 114.49 129.98 115.49 129.98C116.49 129.98 117.3 129.12 117.3 128.06C117.3 127 116.49 126.14 115.49 126.14Z" fill="white"/>
<path d="M111.88 150.63C105.42 150.63 100.18 155.87 100.18 162.33C100.18 168.79 105.42 174.03 111.88 174.03C118.34 174.03 123.58 168.79 123.58 162.33C123.58 155.87 118.34 150.63 111.88 150.63Z" fill="#7C3A7C"/>
<path opacity="0.4" d="M111.88 152.12C106.25 152.12 101.67 156.7 101.67 162.33C101.67 167.96 106.25 172.54 111.88 172.54C117.51 172.54 122.09 167.96 122.09 162.33C122.09 156.7 117.51 152.12 111.88 152.12Z" fill="#2B0B2D"/>
<path opacity="0.4" d="M118.91 152.99C118.95 153.36 120.29 167.97 103.3 170.27C105.44 172.58 108.49 174.04 111.88 174.04C118.34 174.04 123.58 168.8 123.58 162.34C123.58 158.51 121.74 155.12 118.91 152.99Z" fill="#2B0B2D"/>
<path opacity="0.3" d="M107.6 155.56C105.52 155.56 103.84 157.34 103.84 159.54C103.84 161.73 105.52 163.52 107.6 163.52C109.68 163.52 111.36 161.74 111.36 159.54C111.36 157.34 109.68 155.56 107.6 155.56Z" fill="white"/>
<path opacity="0.3" d="M107.17 157.62C106.17 157.62 105.35 158.48 105.35 159.54C105.35 160.6 106.16 161.46 107.17 161.46C108.17 161.46 108.98 160.6 108.98 159.54C108.98 158.47 108.17 157.62 107.17 157.62Z" fill="white"/>
<path opacity="0.3" d="M75.44 39.8198C75.51 39.8898 75.58 39.9498 75.65 40.0298C75.65 40.0198 75.57 39.9398 75.44 39.8198Z" fill="#310249"/>
<path opacity="0.3" d="M64.91 37.6099C54.89 33.7499 52.76 40.0199 52.76 40.0199C58.7 35.7499 65.75 38.9199 65.75 38.9199C70.96 36.0799 74.56 38.9899 75.43 39.8099C70.74 34.8099 64.91 37.6099 64.91 37.6099Z" fill="#310249"/>
<path d="M58.98 25.5902C57.49 26.5002 56.47 27.5102 55.93 28.6202C55.18 28.4102 54.44 28.2702 53.72 28.2302C51 28.0602 49.06 29.2902 48.08 31.7702C48.02 31.9302 47.96 32.0802 47.91 32.2302C45.73 31.5502 43.52 31.3702 41.99 31.9502C40.52 32.5002 39.73 33.6702 39.75 35.2602C39.76 35.6502 40.09 35.9902 40.47 35.9602C40.86 35.9502 41.17 35.6302 41.17 35.2402C41.16 34.2502 41.57 33.6202 42.49 33.2802C43.74 32.8102 45.64 33.0002 47.53 33.6002C46.78 37.1102 48.55 38.6402 49.45 39.1802C50.18 39.6202 51.02 39.8302 51.81 39.8302C52.78 39.8302 53.68 39.5102 54.2 38.8902C54.46 38.5802 55.21 37.4602 53.87 35.8802C52.78 34.5902 51.09 33.4902 49.25 32.7302C49.3 32.5902 49.35 32.4502 49.41 32.3102C50.31 30.0102 52.24 29.2002 55.12 29.9002C55.25 29.9302 55.39 29.9702 55.52 30.0002C55.49 30.2502 55.47 30.5002 55.48 30.7502C55.57 33.6402 58.41 36.1502 61.04 37.5402C61.89 37.9902 64.8 39.3902 66.28 38.4502C66.52 38.3002 67.04 37.8502 66.8 36.9002C66.29 34.9202 61.84 30.8702 57.3 29.1002C57.75 28.2902 58.55 27.5302 59.73 26.8202C68.19 21.6602 79.77 37.6602 79.89 37.8202C80.12 38.1402 80.56 38.2102 80.88 37.9802C81.2 37.7502 81.27 37.3102 81.05 36.9902C80.52 36.2602 68.56 19.7402 58.98 25.5902ZM52.78 36.7702C53.08 37.1302 53.39 37.6302 53.11 37.9502C52.72 38.4102 51.34 38.6502 50.16 37.9402C48.97 37.2302 48.53 35.8802 48.86 34.0802C50.44 34.7702 51.88 35.7102 52.78 36.7702ZM65.43 37.2702C64.96 37.4402 63.56 37.2502 61.69 36.2702C59.52 35.1202 56.95 32.9702 56.88 30.6902C56.88 30.6102 56.88 30.5302 56.88 30.4502C61.39 32.2202 65.31 36.2202 65.43 37.2702Z" fill="#8C8510"/>
<path opacity="0.3" d="M92.55 42.6899C89.65 38.8599 82.87 37.3399 80.86 37.9599C80.86 37.9599 90.54 39.9999 92 43.9799C92 43.9799 99.36 47.2199 104.23 44.6799C104.24 44.6699 95.45 46.5199 92.55 42.6899Z" fill="#310249"/>
<path d="M118.22 33.2401C116.68 33.4801 115.34 34.0601 114.21 34.8201C113.07 33.9601 111.34 33.4701 108.97 33.8801C108.3 34.0001 107.65 34.1701 107.03 34.3801C106.22 33.7101 105.13 33.0901 103.67 32.5601C102.25 32.0501 100.82 31.8701 99.44 32.0101C99.27 31.3501 99.01 30.7301 98.65 30.2001C97.96 29.1801 96.61 28.0101 94.04 28.2801C85.47 29.1601 82.04 37.0101 81.9 37.3401C81.75 37.7001 81.92 38.1201 82.28 38.2701C82.63 38.4201 83.05 38.2601 83.21 37.8901C83.24 37.8201 86.44 30.4801 94.19 29.6801C95.68 29.5201 96.79 29.9701 97.48 30.9901C97.73 31.3601 97.92 31.8001 98.05 32.2701C96.32 32.7301 94.7 33.7201 93.31 35.2101C91.05 37.6201 89.96 40.8501 90.78 42.7201C91.21 43.7101 92.15 44.2401 93.32 44.2601C95.12 44.2601 96.88 42.8901 98.14 40.5201C99.2 38.5201 99.88 35.8101 99.68 33.4201C100.74 33.3201 101.91 33.4301 103.19 33.9001C104.1 34.2301 104.87 34.6101 105.52 35.0401C102.43 36.6301 100.45 39.3701 100.37 41.6601C100.32 43.1801 101.15 44.3001 102.6 44.6601C102.86 44.7301 103.14 44.7601 103.42 44.7601C105.65 44.7601 108.17 42.7501 108.95 40.1801C109.18 39.4101 109.56 37.4401 108.13 35.5201C108.48 35.4201 108.84 35.3401 109.21 35.2801C110.92 34.9801 112.18 35.2301 113.04 35.7401C111.72 36.9501 110.83 38.4101 110.44 39.7401C110.06 41.0301 110.21 42.0901 110.85 42.6601C111.24 43.0101 111.96 43.3201 113.19 42.8101C115.38 41.8901 116.52 39.4701 115.85 37.1801C115.72 36.7301 115.51 36.2801 115.21 35.8601C116.11 35.2801 117.19 34.8301 118.43 34.6401C118.82 34.5801 119.08 34.2201 119.02 33.8301C118.97 33.4501 118.6 33.1801 118.22 33.2401ZM96.89 39.8601C95.88 41.7601 94.58 42.8501 93.31 42.8501C92.48 42.8501 92.21 42.4601 92.08 42.1601C91.57 40.9901 92.29 38.3701 94.34 36.1801C95.01 35.4601 96.37 34.2501 98.28 33.6901C98.42 35.7201 97.83 38.0901 96.89 39.8601ZM107.6 39.7701C106.95 41.9201 104.61 43.6901 102.95 43.2901C102.14 43.0901 101.76 42.5701 101.79 41.7101C101.85 40.0101 103.6 37.4101 106.71 36.0301C107.69 37.1201 108.01 38.4001 107.6 39.7701ZM112.65 41.5101C112.17 41.7101 111.89 41.6901 111.8 41.6101C111.67 41.4901 111.56 41.0001 111.81 40.1401C112.1 39.1401 112.87 37.8201 114.1 36.7201C114.28 36.9901 114.42 37.2801 114.5 37.5801C114.9 38.9401 114.38 40.7801 112.65 41.5101Z" fill="#8C8510"/>
<path opacity="0.3" d="M85.39 22.5401C83.82 22.7901 78.95 38.1901 78.95 38.1901L76.22 39.7001L76.07 40.4601C74.84 39.1101 73.41 37.9501 71.83 37.0301C70.78 36.5101 69.45 35.9301 67.76 35.3101C66.18 34.8501 64.52 34.5901 62.8 34.5901C61.79 34.5901 60.81 34.6901 59.84 34.8501C57.68 35.2901 55.69 36.0701 54.1 36.8301C53.19 37.3301 52.33 37.9101 51.53 38.5601C63.69 34.8101 72.61 44.2201 72.61 44.2201C70.83 46.4201 69.55 48.3401 69.47 54.3801C69.38 60.4201 78.52 62.2701 78.42 51.2201C78.32 40.1701 81.06 38.6601 80.86 37.9601C80.67 37.2601 88.36 24.2501 88.36 24.2501C88.36 24.2501 86.96 22.2901 85.39 22.5401Z" fill="#310249"/>
<path d="M77.62 16.6401C77.62 16.6401 83.91 16.5101 81.1 10.4901C78.59 5.09006 73.99 -0.0199415 65.59 5.85154e-05C65.59 5.85154e-05 60.18 0.190058 59.44 0.410058C58.7 0.640059 60.51 3.81006 59.09 3.50006C57.68 3.19006 55.04 3.59006 55.48 4.50006C55.92 5.42006 60.4 5.41006 56.25 6.18006C52.1 6.95006 46.34 6.34006 40.04 7.37006C33.74 8.39006 32.55 10.7201 32.55 10.7201C32.55 10.7201 40.3 13.7201 40.53 15.8001C40.76 17.8801 38.52 17.2101 38.52 17.2101C38.52 17.2101 45.9 20.5501 48.62 20.2401C51.34 19.9401 47.82 22.9101 47.82 22.9101C47.82 22.9101 56.92 22.9501 57.46 24.9101C58 26.8701 56.67 27.5201 55.71 30.7401C54.75 33.9601 58.39 31.5501 58.39 31.5501L57.82 38.6901C57.82 38.6901 63.03 37.3401 65.34 34.6701C67.66 32.0001 67.92 37.8401 67.92 37.8401C67.92 37.8401 72.25 36.6701 77.37 32.5001C79.02 31.1601 80.28 29.7601 81.23 28.4901C83.24 25.8001 80.97 21.3601 80.97 21.3601L77.62 16.6401Z" fill="#465E17"/>
<path d="M75.17 15.8999L74.87 16.8999C74.87 16.8999 84 18.4399 86 24.9999C86 24.9999 88.02 25.3399 88.35 24.2399C88.36 24.2499 83.34 15.6999 75.17 15.8999Z" fill="#465E17"/>
<path d="M75.17 15.8999L74.87 16.8999C74.87 16.8999 84 18.4399 86 24.9999C86 24.9999 88.02 25.3399 88.35 24.2399C88.36 24.2499 83.34 15.6999 75.17 15.8999Z" fill="#465E17"/>
<path d="M74.87 16.91C74.87 16.91 78.33 17.5 81.45 19.48C82.27 19.36 83.08 19.26 83.86 19.17C81.66 17.38 78.71 15.82 75.17 15.91L74.87 16.91Z" fill="#38490E"/>
<path d="M76.97 16.9903C76.97 16.9903 81.55 12.7703 75.66 7.81028C69.78 2.85028 63.17 4.06028 63.17 4.06028C63.17 4.06028 71.83 6.97028 68.35 8.43028C64.87 9.89028 61.76 6.09028 61.3 7.18028C60.84 8.28028 65.26 9.47028 62.35 10.3303C59.44 11.1803 65.96 12.9203 65.56 14.7103C65.16 16.4903 60.28 15.0303 51.25 13.6503C44.67 12.6403 39.65 11.8603 37.28 11.4503C40.79 12.1703 49.34 14.0103 51.24 14.5803C53.68 15.3103 66.61 17.8603 63.68 18.3103C60.75 18.7603 58.97 19.6903 62.16 20.6503C65.35 21.6103 67.14 22.0103 65.05 24.4403C62.97 26.8703 62.54 32.8103 62.54 32.8103C62.54 32.8103 66.49 30.9903 68.15 26.8303C69.81 22.6803 74.07 20.4303 73.8 23.1103C73.53 25.7903 73.61 27.3303 73.63 30.5603C73.63 30.5603 76.92 28.0003 77.57 25.2703C77.57 25.2703 77.9 29.2203 75.86 31.0003C75.86 31.0003 80.73 29.6703 80.11 23.7703C79.5 17.8703 76.97 16.9903 76.97 16.9903Z" fill="#38490E"/>
<path d="M35.78 11.1601C35.88 11.2001 36.4 11.3001 37.28 11.4501C36.3 11.2401 35.71 11.1301 35.78 11.1601Z" fill="#38490E"/>
<path d="M50.79 20.9501C50.79 20.9501 53.63 17.1401 62.3 17.5501C62.3 17.5501 54.65 15.3301 50.79 20.9501Z" fill="#38490E"/>
<path d="M64.24 13.7203C64.24 13.7203 57.91 13.2003 52.52 8.55029C52.52 8.55029 57.36 14.8703 64.24 13.7203Z" fill="#38490E"/>
<path d="M70.86 21.1299C70.86 21.1299 71.9 27.2899 69.71 30.3599C67.52 33.4299 68.44 34.5799 68.44 34.5799C68.44 34.5799 68.12 32.0699 70.17 30.7299C72.23 29.3899 72.34 21.5699 70.86 21.1299Z" fill="#38490E"/>
<path d="M61.33 16.4102C62.89 16.7302 64.59 17.1202 66.24 17.5702C71.45 18.9702 78.47 18.5702 78.47 18.5702C78.47 18.5702 73.32 18.5502 69.52 17.8002C67.74 17.4502 64.37 16.9002 61.33 16.4102Z" fill="#283306"/>
<path d="M54.95 15.3502C54.76 15.3702 57.83 15.8602 61.32 16.4202C57.95 15.7102 55.2 15.3202 54.95 15.3502Z" fill="#283306"/>
<path d="M65.59 5.85154e-05C65.59 5.85154e-05 60.18 0.190058 59.44 0.410058C58.7 0.640059 60.51 3.81006 59.09 3.50006C57.68 3.19006 55.04 3.59006 55.48 4.50006C55.92 5.42006 60.4 5.41006 56.25 6.18006C52.1 6.95006 46.34 6.34006 40.04 7.37006C33.74 8.39006 32.55 10.7201 32.55 10.7201C32.55 10.7201 33.69 11.1601 35.11 11.8301L35.62 11.6501C35.62 11.6501 42.75 6.88006 49.28 9.23006C55.82 11.5801 60.49 6.07006 60.49 6.07006C60.49 6.07006 56.93 4.91006 59 4.89006C61.08 4.88006 61.58 2.00006 61.12 2.02006C60.66 2.04006 60.68 1.41006 64.98 1.43006C69.27 1.44006 72.42 2.23006 75.8 4.68006C77.45 5.87006 79.6 8.79006 81.11 10.5001C81.11 10.5001 81.11 10.4901 81.1 10.4901C78.59 5.09006 73.99 -0.0199415 65.59 5.85154e-05Z" fill="#7B9931"/>
<path d="M138.14 154.6C128.6 152.9 119.5 159.19 117.53 170.28C115.56 181.38 122.08 189.6 131.62 191.29C141.16 192.99 150.12 187.51 152.09 176.41C154.06 165.32 147.68 156.3 138.14 154.6Z" fill="#7A1E7C"/>
<path opacity="0.4" d="M137.98 155.5C128.95 153.9 120.3 159.86 118.42 170.45C116.54 181.04 122.74 188.8 131.78 190.41C140.81 192.01 149.31 186.86 151.19 176.27C153.07 165.68 147.01 157.1 137.98 155.5Z" fill="#2B0B2D"/>
<path d="M137.66 157.29C129.61 155.86 121.92 161.16 120.22 170.76C118.51 180.36 124.06 187.18 132.1 188.61C140.15 190.04 147.7 185.54 149.4 175.94C151.1 166.35 145.7 158.72 137.66 157.29Z" fill="#A268A5"/>
<path d="M136.94 161.33C131.95 160.44 126.75 165.2 125.59 171.72C124.43 178.24 127.67 184.5 132.67 185.39C137.66 186.28 142.86 181.52 144.02 175C145.18 168.47 141.94 162.21 136.94 161.33Z" fill="#C9A3CC"/>
<path opacity="0.4" d="M131.2 169.75C129.94 169.53 128.66 170.8 128.34 172.6C128.02 174.4 128.78 176.04 130.04 176.26C131.3 176.48 132.58 175.21 132.9 173.41C133.22 171.62 132.46 169.98 131.2 169.75Z" fill="#2B0B2D"/>
<path opacity="0.4" d="M138.25 171.01C136.99 170.79 135.71 172.06 135.39 173.86C135.07 175.66 135.83 177.3 137.09 177.53C138.35 177.75 139.63 176.48 139.95 174.67C140.27 172.87 139.51 171.23 138.25 171.01Z" fill="#2B0B2D"/>
<path opacity="0.4" d="M137.72 156.91L137.73 156.9C137.73 156.9 137.73 156.88 137.72 156.91Z" fill="#2B0B2D"/>
<path opacity="0.4" d="M132.66 180.39C131.27 186.88 131.23 188.46 131.23 188.46L131.61 188.53C131.61 188.53 137.48 158.54 137.6 157.66C137.67 157.11 137.71 156.96 137.72 156.92L137.17 157.22C137.17 157.2 134.05 173.9 132.66 180.39Z" fill="#2B0B2D"/>
<path d="M131.27 169.36C130.01 169.14 128.73 170.41 128.41 172.21C128.09 174.01 128.85 175.65 130.11 175.88C131.37 176.1 132.65 174.83 132.97 173.02C133.29 171.23 132.53 169.59 131.27 169.36Z" fill="#544556"/>
<path d="M130.52 169.86C129.42 170.25 128.92 172.31 128.92 172.31L131.6 170.33C131.6 170.33 131.62 169.47 130.52 169.86Z" fill="white"/>
<path d="M138.32 170.62C137.06 170.4 135.78 171.67 135.46 173.47C135.14 175.27 135.9 176.91 137.16 177.13C138.42 177.35 139.7 176.08 140.02 174.28C140.34 172.48 139.58 170.84 138.32 170.62Z" fill="#544556"/>
<path d="M137.57 171.11C136.47 171.5 135.97 173.56 135.97 173.56L138.65 171.58C138.65 171.58 138.66 170.72 137.57 171.11Z" fill="white"/>
<path opacity="0.2" d="M154.04 188.81C151.5 187.23 113.23 188.81 113.23 188.81C108.19 191.58 117.08 194.21 135.84 193.99C154.6 193.78 156.58 190.4 154.04 188.81Z" fill="black"/>
<path opacity="0.2" d="M135.42 191.06C131.13 190.58 125.33 190.4 124.53 190.4C123.73 190.4 122.56 191 123.51 191.46C123.51 191.46 132.26 192.19 134.23 192.37C136.2 192.55 142.94 192.08 144.33 191.46C145.72 190.85 139.7 191.54 135.42 191.06Z" fill="black"/>
<path opacity="0.4" d="M78.31 143.19C78.31 143.19 76.37 147.06 66.48 148.06C66.48 148.06 57.5 158.59 49.27 148.06C49.27 148.06 50.22 156.36 57.57 159.45C57.57 159.45 75.44 161.94 82.59 155.24C89.74 148.54 92.66 138.62 92.66 138.62C92.66 138.62 88.92 143.81 78.31 143.19Z" fill="#2B0B2D"/>
<path d="M13.5 138.21H9.54V142.4L5.35 142.73L6.19 146.53H2.18L3.52 151.14H0C0 151.14 8.34 161.35 17.41 163.01L26.27 150.72L28.51 145.3C28.51 145.3 20.48 141.76 13.51 135.07V138.21H13.5Z" fill="white"/>
<path d="M13.5 138.21H9.54V142.4L5.35 142.73L6.19 146.53H2.18L3.52 151.14H0C0 151.14 8.34 161.35 17.41 163.01L26.27 150.72L28.51 145.3C28.51 145.3 20.48 141.76 13.51 135.07V138.21H13.5Z" fill="white"/>
<path d="M13.28 138.21H9.54004V138.88H13.28V138.21Z" fill="#D0D2D3"/>
<path d="M13.5 135.95C20.13 142.23 27.62 145.68 28.23 145.95L28.5 145.3C28.5 145.3 20.47 141.76 13.5 135.07V135.95Z" fill="#D0D2D3"/>
<path d="M5.49999 143.36L9.31998 143.07V142.41L5.35999 142.72L5.49999 143.36Z" fill="#D0D2D3"/>
<path d="M2.18005 146.52L2.37005 147.2H5.97005L5.82005 146.52H2.18005Z" fill="#D0D2D3"/>
<path d="M0 151.14C0 151.14 0.2 151.39 0.58 151.81H3.29L3.1 151.14H0Z" fill="#D0D2D3"/>
<mask id="mask0_174_5567" style="mask-type:luminance" maskUnits="userSpaceOnUse" x="0" y="135" width="29" height="29">
<path d="M28.5 145.3C28.5 145.3 20.47 141.76 13.5 135.07V138.21H9.54V142.4L5.35 142.73L6.19 146.53H2.18L3.52 151.14H0C0 151.14 8.34 161.35 17.41 163.01L26.27 150.72L28.5 145.3Z" fill="white"/>
</mask>
<g mask="url(#mask0_174_5567)">
<path opacity="0.01" d="M16.68 138.76C15.51 142.23 13.41 149.19 12.52 155.9C11.62 162.64 11.95 169.12 15.69 171.58C19.37 174 21.81 173.21 21.85 173.21L26.45 159.16L31.05 145.11C29.54 144.99 27.29 144.13 24.7 142.9C22.16 141.73 19.33 140.23 16.68 138.76Z" fill="black"/>
<path opacity="0.01" d="M16.75 138.97C15.57 142.43 13.47 149.32 12.58 155.96C11.66 162.66 11.98 169.11 15.71 171.57C19.34 173.96 21.76 173.19 21.85 173.2L26.45 159.15L31.05 145.1C29.53 144.98 27.3 144.12 24.7 142.88C22.2 141.77 19.38 140.36 16.75 138.97Z" fill="black"/>
<path opacity="0.0118" d="M16.82 139.19C15.63 142.65 13.54 149.46 12.64 156.03C11.71 162.7 12.01 169.11 15.74 171.57C19.32 173.93 21.73 173.19 21.85 173.21L26.45 159.16L31.05 145.11C29.52 144.99 27.32 144.13 24.7 142.88C22.23 141.82 19.43 140.48 16.82 139.19Z" fill="black"/>
<path opacity="0.0157" d="M16.9 139.41C15.7 142.86 13.61 149.61 12.71 156.11C11.76 162.74 12.05 169.11 15.77 171.58C19.3 173.91 21.69 173.2 21.85 173.22L26.45 159.17L31.05 145.12C29.52 145 27.34 144.14 24.71 142.88C22.26 141.86 19.49 140.61 16.9 139.41Z" fill="black"/>
<path opacity="0.0196" d="M16.97 139.63C15.76 143.07 13.69 149.75 12.77 156.18C11.82 162.78 12.09 169.11 15.8 171.57C19.28 173.86 21.65 173.18 21.85 173.21L26.45 159.16L31.05 145.11C29.51 144.99 27.35 144.13 24.71 142.86C22.29 141.91 19.54 140.74 16.97 139.63Z" fill="black"/>
<path opacity="0.0235" d="M17.04 139.85C15.82 143.28 13.76 149.89 12.83 156.25C11.87 162.81 12.12 169.11 15.82 171.57C19.25 173.83 21.6 173.18 21.85 173.21L26.45 159.16L31.05 145.11C29.5 144.99 27.37 144.13 24.71 142.85C22.32 141.96 19.6 140.87 17.04 139.85Z" fill="black"/>
<path opacity="0.0275" d="M17.11 140.06C15.87 143.48 13.83 150.02 12.89 156.32C11.92 162.85 12.15 169.11 15.85 171.57C19.22 173.8 21.56 173.17 21.85 173.21L26.45 159.16L31.05 145.11C29.49 144.99 27.39 144.13 24.71 142.84C22.35 142 19.65 141 17.11 140.06Z" fill="black"/>
<path opacity="0.0314" d="M17.1901 140.28C15.9401 143.69 13.9101 150.16 12.9601 156.39C11.9701 162.88 12.1901 169.11 15.8801 171.57C19.2001 173.78 21.5301 173.17 21.8501 173.21L26.4501 159.16L31.0501 145.11C29.4901 144.99 27.4101 144.13 24.7101 142.83C22.3901 142.05 19.7101 141.12 17.1901 140.28Z" fill="black"/>
<path opacity="0.0353" d="M17.26 140.5C16 143.9 13.98 150.3 13.02 156.46C12.02 162.92 12.22 169.11 15.91 171.56C19.18 173.74 21.49 173.16 21.85 173.2L26.45 159.15L31.05 145.1C29.48 144.98 27.42 144.12 24.71 142.81C22.42 142.09 19.76 141.25 17.26 140.5Z" fill="black"/>
<path opacity="0.0392" d="M17.33 140.72C16.06 144.11 14.04 150.45 13.08 156.54C12.07 162.96 12.25 169.12 15.93 171.57C19.15 173.72 21.44 173.16 21.84 173.21L26.44 159.16L31.04 145.11C29.46 144.98 27.43 144.13 24.71 142.81C22.45 142.14 19.82 141.38 17.33 140.72Z" fill="black"/>
<path opacity="0.0431" d="M17.4001 140.94C16.1201 144.32 14.1101 150.59 13.1401 156.61C12.1101 163 12.2801 169.12 15.9601 171.57C19.1301 173.68 21.4001 173.16 21.8501 173.21L26.4501 159.16L31.0501 145.11C29.4601 144.98 27.4601 144.13 24.7201 142.8C22.4801 142.19 19.8701 141.51 17.4001 140.94Z" fill="black"/>
<path opacity="0.0471" d="M17.48 141.15C16.19 144.53 14.19 150.72 13.21 156.67C12.17 163.02 12.32 169.11 15.99 171.56C19.11 173.64 21.36 173.14 21.85 173.2L26.45 159.15L31.05 145.1C29.46 144.97 27.47 144.12 24.72 142.79C22.51 142.23 19.92 141.64 17.48 141.15Z" fill="black"/>
<path opacity="0.051" d="M17.5501 141.37C16.2401 144.74 14.2501 150.86 13.2701 156.75C12.2201 163.07 12.3501 169.11 16.0201 171.57C19.0801 173.62 21.3201 173.15 21.8501 173.22L26.4501 159.17L31.0501 145.12C29.4501 144.99 27.4901 144.15 24.7201 142.8C22.5501 142.28 19.9801 141.76 17.5501 141.37Z" fill="black"/>
<path opacity="0.0549" d="M17.62 141.59C16.3 144.95 14.32 151 13.33 156.82C12.26 163.1 12.39 169.11 16.04 171.56C19.05 173.58 21.28 173.13 21.84 173.21L26.44 159.16L31.04 145.11C29.43 144.98 27.5 144.14 24.71 142.78C22.58 142.32 20.03 141.89 17.62 141.59Z" fill="black"/>
<path opacity="0.0588" d="M17.69 141.81C16.36 145.16 14.39 151.14 13.39 156.89C12.31 163.14 12.42 169.11 16.07 171.56C19.03 173.55 21.24 173.13 21.85 173.21L26.45 159.16L31.05 145.11C29.43 144.98 27.53 144.14 24.72 142.77C22.61 142.37 20.09 142.02 17.69 141.81Z" fill="black"/>
<path opacity="0.0627" d="M17.77 142.03C16.43 145.37 14.47 151.28 13.46 156.97C12.36 163.18 12.46 169.12 16.1 171.57C19.01 173.53 21.2 173.14 21.85 173.22L26.45 159.17L31.05 145.12C29.43 144.99 27.54 144.15 24.72 142.77C22.64 142.42 20.14 142.15 17.77 142.03Z" fill="black"/>
<path opacity="0.0667" d="M17.8401 142.24C16.4901 145.57 14.5301 151.42 13.5201 157.03C12.4101 163.21 12.4901 169.11 16.1301 171.56C18.9901 173.49 21.1601 173.12 21.8501 173.21L26.4501 159.16L31.0501 145.11C29.4201 144.98 27.5601 144.14 24.7301 142.75C22.6701 142.46 20.2001 142.28 17.8401 142.24Z" fill="black"/>
<path opacity="0.0706" d="M17.9101 142.46C16.5501 145.78 14.6001 151.56 13.5801 157.1C12.4601 163.24 12.5201 169.11 16.1501 171.55C18.9601 173.45 21.1101 173.11 21.8401 173.2L26.4401 159.15L31.0401 145.1C29.4001 144.97 27.5701 144.13 24.7201 142.73C22.7101 142.51 20.2501 142.4 17.9101 142.46Z" fill="black"/>
<path opacity="0.0745" d="M17.98 142.68C16.61 145.99 14.67 151.7 13.64 157.18C12.5 163.28 12.56 169.12 16.18 171.56C18.94 173.42 21.07 173.11 21.85 173.21L26.45 159.16L31.05 145.11C29.4 144.98 27.59 144.14 24.73 142.73C22.74 142.55 20.31 142.53 17.98 142.68Z" fill="black"/>
<path opacity="0.0784" d="M18.06 142.9C16.67 146.2 14.74 151.84 13.71 157.25C12.56 163.32 12.6 169.11 16.21 171.56C18.92 173.39 21.04 173.11 21.85 173.21L26.45 159.16L31.05 145.11C29.4 144.98 27.61 144.14 24.73 142.72C22.77 142.6 20.36 142.66 18.06 142.9Z" fill="black"/>
<path opacity="0.0824" d="M18.13 143.12C16.73 146.42 14.81 151.98 13.77 157.32C12.6 163.35 12.63 169.11 16.24 171.56C18.9 173.36 21 173.11 21.85 173.21L26.45 159.16L31.05 145.11C29.39 144.98 27.63 144.14 24.73 142.71C22.8 142.65 20.41 142.79 18.13 143.12Z" fill="black"/>
<path opacity="0.0863" d="M18.2001 143.33C16.7901 146.62 14.8701 152.11 13.8301 157.39C12.6501 163.39 12.6601 169.11 16.2601 171.56C18.8601 173.33 20.9501 173.1 21.8401 173.21L26.4401 159.16L31.0401 145.11C29.3701 144.98 27.6401 144.14 24.7201 142.7C22.8301 142.69 20.4701 142.92 18.2001 143.33Z" fill="black"/>
<path opacity="0.0902" d="M18.2701 143.55C16.8501 146.83 14.9401 152.25 13.9001 157.46C12.7001 163.42 12.7001 169.11 16.3001 171.55C18.8501 173.29 20.9201 173.09 21.8501 173.2L26.4501 159.15L31.0501 145.1C29.3801 144.97 27.6601 144.13 24.7401 142.68C22.8701 142.74 20.5201 143.04 18.2701 143.55Z" fill="black"/>
<path opacity="0.0941" d="M18.3501 143.77C16.9201 147.04 15.0101 152.39 13.9601 157.53C12.7501 163.46 12.7301 169.11 16.3201 171.55C18.8201 173.26 20.8701 173.08 21.8501 173.21L26.4501 159.16L31.0501 145.11C29.3701 144.98 27.6801 144.14 24.7401 142.68C22.9001 142.78 20.5801 143.17 18.3501 143.77Z" fill="black"/>
<path opacity="0.098" d="M18.42 143.99C16.98 147.25 15.08 152.54 14.02 157.61C12.79 163.5 12.77 169.11 16.35 171.56C18.8 173.24 20.83 173.09 21.85 173.22L26.45 159.17L31.05 145.12C29.36 144.99 27.7 144.15 24.74 142.68C22.93 142.83 20.63 143.3 18.42 143.99Z" fill="black"/>
<path opacity="0.102" d="M18.49 144.21C17.03 147.46 15.15 152.68 14.09 157.68C12.85 163.54 12.81 169.11 16.38 171.56C18.78 173.2 20.8 173.08 21.85 173.22L26.45 159.17L31.05 145.12C29.35 144.99 27.71 144.15 24.74 142.67C22.96 142.88 20.69 143.43 18.49 144.21Z" fill="black"/>
<path opacity="0.1059" d="M18.5601 144.43C17.0901 147.67 15.2101 152.82 14.1501 157.75C12.8901 163.57 12.8401 169.11 16.4001 171.55C18.7501 173.16 20.7501 173.07 21.8401 173.21L26.4401 159.16L31.0401 145.11C29.3401 144.97 27.7201 144.14 24.7301 142.65C23.0001 142.92 20.7401 143.56 18.5601 144.43Z" fill="black"/>
<path opacity="0.1098" d="M18.6401 144.64C17.1601 147.87 15.2801 152.95 14.2201 157.82C12.9501 163.61 12.8801 169.11 16.4401 171.55C18.7401 173.13 20.7201 173.07 21.8601 173.21L26.4601 159.16L31.0601 145.11C29.3501 144.97 27.7601 144.14 24.7501 142.64C23.0301 142.97 20.8001 143.69 18.6401 144.64Z" fill="black"/>
<path opacity="0.1137" d="M18.71 144.86C17.22 148.08 15.35 153.09 14.28 157.89C12.99 163.64 12.91 169.11 16.46 171.55C18.71 173.1 20.67 173.06 21.85 173.21L26.45 159.16L31.05 145.11C29.33 144.97 27.77 144.14 24.75 142.63C23.06 143.01 20.85 143.81 18.71 144.86Z" fill="black"/>
<path opacity="0.1176" d="M18.78 145.08C17.28 148.3 15.41 153.23 14.34 157.96C13.04 163.68 12.95 169.1 16.49 171.55C18.69 173.07 20.63 173.06 21.85 173.21L26.45 159.16L31.05 145.11C29.32 144.97 27.78 144.14 24.75 142.62C23.09 143.06 20.91 143.94 18.78 145.08Z" fill="black"/>
<path opacity="0.1216" d="M18.86 145.3C17.35 148.51 15.49 153.37 14.41 158.04C13.09 163.72 12.99 169.11 16.53 171.55C18.68 173.03 20.6 173.05 21.86 173.21L26.46 159.16L31.06 145.11C29.33 144.97 27.81 144.14 24.76 142.61C23.12 143.11 20.96 144.07 18.86 145.3Z" fill="black"/>
<path opacity="0.1255" d="M18.93 145.52C17.41 148.72 15.55 153.52 14.47 158.11C13.13 163.76 13.02 169.11 16.55 171.55C18.65 173 20.56 173.05 21.85 173.21L26.45 159.16L31.05 145.11C29.31 144.97 27.82 144.14 24.75 142.6C23.16 143.15 21.01 144.2 18.93 145.52Z" fill="black"/>
<path opacity="0.1294" d="M19 145.73C17.46 148.92 15.62 153.65 14.53 158.17C13.18 163.78 13.05 169.1 16.57 171.54C18.62 172.96 20.51 173.04 21.85 173.2L26.45 159.15L31.05 145.1C29.3 144.96 27.83 144.13 24.75 142.58C23.19 143.2 21.07 144.33 19 145.73Z" fill="black"/>
<path opacity="0.1333" d="M19.07 145.95C17.52 149.13 15.68 153.79 14.59 158.24C13.22 163.81 13.08 169.09 16.6 171.54C18.6 172.93 20.47 173.03 21.85 173.21L26.45 159.16L31.05 145.11C29.29 144.97 27.85 144.14 24.75 142.58C23.22 143.24 21.12 144.45 19.07 145.95Z" fill="black"/>
<path opacity="0.1373" d="M19.1501 146.17C17.5901 149.34 15.7601 153.93 14.6601 158.32C13.2701 163.86 13.1301 169.1 16.6301 171.55C18.5801 172.91 20.4301 173.04 21.8501 173.22L26.4501 159.17L31.0501 145.12C29.2901 144.98 27.8701 144.15 24.7601 142.58C23.2501 143.29 21.1801 144.58 19.1501 146.17Z" fill="black"/>
<path opacity="0.1412" d="M19.22 146.39C17.65 149.55 15.82 154.07 14.72 158.39C13.32 163.89 13.16 169.1 16.66 171.54C18.56 172.86 20.39 173.02 21.85 173.21L26.45 159.16L31.05 145.11C29.28 144.97 27.89 144.14 24.76 142.57C23.28 143.34 21.23 144.71 19.22 146.39Z" fill="black"/>
<path opacity="0.1451" d="M19.29 146.61C17.71 149.76 15.88 154.21 14.78 158.47C13.36 163.94 13.19 169.11 16.68 171.55C18.53 172.84 20.34 173.03 21.85 173.22L26.45 159.17L31.05 145.12C29.27 144.98 27.9 144.15 24.76 142.57C23.32 143.38 21.29 144.84 19.29 146.61Z" fill="black"/>
<path opacity="0.149" d="M19.36 146.82C17.77 149.96 15.95 154.34 14.84 158.53C13.4 163.96 13.22 169.09 16.71 171.54C18.51 172.8 20.31 173.02 21.85 173.21L26.45 159.16L31.05 145.11C29.26 144.97 27.92 144.14 24.76 142.55C23.35 143.43 21.34 144.97 19.36 146.82Z" fill="black"/>
<path opacity="0.1529" d="M19.44 147.04C17.83 150.18 16.02 154.48 14.91 158.6C13.45 164 13.27 169.09 16.75 171.54C18.5 172.77 20.28 173.01 21.86 173.21L26.46 159.16L31.06 145.11C29.27 144.97 27.95 144.14 24.77 142.54C23.38 143.47 21.4 145.09 19.44 147.04Z" fill="black"/>
<path opacity="0.1569" d="M19.51 147.26C17.89 150.39 16.08 154.62 14.97 158.68C13.5 164.04 13.3 169.1 16.77 171.54C18.47 172.73 20.23 173.01 21.85 173.21L26.45 159.16L31.05 145.11C29.25 144.97 27.96 144.15 24.76 142.53C23.41 143.52 21.45 145.22 19.51 147.26Z" fill="black"/>
<path opacity="0.1608" d="M19.58 147.48C17.95 150.6 16.15 154.76 15.03 158.75C13.54 164.07 13.33 169.1 16.79 171.54C18.43 172.7 20.18 173 21.85 173.21L26.45 159.16L31.05 145.11C29.24 144.97 27.97 144.15 24.77 142.52C23.44 143.57 21.5 145.35 19.58 147.48Z" fill="black"/>
<path opacity="0.1647" d="M19.65 147.7C18.01 150.81 16.21 154.9 15.09 158.82C13.58 164.11 13.37 169.09 16.82 171.54C18.41 172.67 20.14 173 21.85 173.21L26.45 159.16L31.05 145.11C29.23 144.97 27.99 144.15 24.77 142.51C23.48 143.61 21.56 145.48 19.65 147.7Z" fill="black"/>
<path opacity="0.1686" d="M19.73 147.91C18.08 151.01 16.28 155.03 15.16 158.88C13.63 164.13 13.41 169.08 16.85 171.53C18.39 172.63 20.1 172.98 21.85 173.2L26.45 159.15L31.05 145.1C29.23 144.96 28.01 144.14 24.77 142.49C23.51 143.66 21.61 145.61 19.73 147.91Z" fill="black"/>
<path opacity="0.1725" d="M19.8 148.13C18.14 151.22 16.34 155.17 15.22 158.96C13.67 164.17 13.44 169.09 16.88 171.54C18.38 172.61 20.07 172.99 21.85 173.21L26.45 159.16L31.05 145.11C29.22 144.96 28.02 144.15 24.77 142.49C23.54 143.7 21.67 145.73 19.8 148.13Z" fill="black"/>
<path opacity="0.1765" d="M19.87 148.35C18.2 151.43 16.41 155.31 15.28 159.03C13.71 164.21 13.47 169.08 16.9 171.53C18.34 172.56 20.02 172.98 21.84 173.21L26.44 159.16L31.04 145.11C29.2 144.96 28.03 144.15 24.76 142.48C23.57 143.75 21.72 145.86 19.87 148.35Z" fill="black"/>
<path opacity="0.1804" d="M19.94 148.57C18.25 151.64 16.47 155.45 15.34 159.1C13.75 164.24 13.51 169.08 16.93 171.53C18.32 172.53 19.98 172.97 21.85 173.21L26.45 159.16L31.05 145.11C29.2 144.96 28.06 144.15 24.77 142.47C23.6 143.8 21.78 145.99 19.94 148.57Z" fill="black"/>
<path opacity="0.1843" d="M20.02 148.79C18.32 151.85 16.54 155.59 15.41 159.18C13.8 164.28 13.55 169.08 16.96 171.54C18.3 172.51 19.94 172.98 21.85 173.22L26.45 159.17L31.05 145.12C29.2 144.97 28.08 144.16 24.77 142.47C23.64 143.84 21.83 146.12 20.02 148.79Z" fill="black"/>
<path opacity="0.1882" d="M20.09 149C18.38 152.06 16.6 155.72 15.47 159.24C13.84 164.31 13.59 169.07 16.99 171.53C18.28 172.46 19.9 172.96 21.85 173.21L26.45 159.16L31.05 145.11C29.19 144.96 28.09 144.15 24.78 142.45C23.67 143.89 21.89 146.25 20.09 149Z" fill="black"/>
<path opacity="0.1922" d="M20.16 149.22C18.44 152.27 16.66 155.86 15.53 159.31C13.88 164.34 13.62 169.06 17.01 171.52C18.26 172.42 19.86 172.95 21.84 173.2L26.44 159.15L31.04 145.1C29.17 144.95 28.1 144.14 24.77 142.43C23.7 143.94 21.94 146.37 20.16 149.22Z" fill="black"/>
<path opacity="0.1961" d="M20.23 149.44C18.5 152.48 16.72 156 15.59 159.39C13.91 164.38 13.65 169.07 17.04 171.53C18.24 172.4 19.82 172.95 21.85 173.21L26.45 159.16L31.05 145.11C29.17 144.96 28.13 144.15 24.78 142.43C23.73 143.98 21.99 146.5 20.23 149.44Z" fill="black"/>
<path opacity="0.2" d="M21.85 173.21L26.45 159.16L31.05 145.11C29.17 144.96 28.14 144.15 24.78 142.42C23.76 144.03 22.05 146.64 20.3 149.67C18.56 152.7 16.79 156.15 15.65 159.47C13.39 166.09 13.68 172.18 21.85 173.21Z" fill="black"/>
</g>
<path d="M21.0601 147.27L24.6001 154.77L28.5101 145.3C23.2001 143.81 21.0601 147.27 21.0601 147.27Z" fill="#929497"/>
<path d="M21.06 147.27L13.5 165.59C67.32 205.35 98.45 164.18 98.45 164.18L92.67 138.61C62.53 179.86 21.06 147.27 21.06 147.27Z" fill="white"/>
<path d="M21.06 147.27L20.42 148.83C26.79 153.18 64.54 176.58 93.2 140.95L92.67 138.62C62.53 179.86 21.06 147.27 21.06 147.27Z" fill="#D0D2D3"/>
<path d="M33.26 158.12C32.74 157.84 32.11 157.55 31.37 157.23C30.4 156.81 29.49 156.52 28.61 156.35C27.73 156.18 26.92 156.12 26.17 156.19C25.42 156.26 24.75 156.45 24.17 156.8C23.59 157.14 23.13 157.63 22.79 158.29C22.45 158.95 22.29 159.64 22.34 160.38C22.39 161.12 22.62 161.89 23.04 162.68C23.47 163.47 24.09 164.26 24.91 165.04C25.73 165.82 26.73 166.55 27.91 167.19C28.26 167.38 28.64 167.58 29.05 167.77C29.46 167.96 29.87 168.14 30.28 168.3C30.69 168.47 31.1 168.61 31.49 168.72C31.89 168.83 32.25 168.92 32.59 168.97C33.16 166.96 33.44 165.96 34.01 163.95C33.86 163.87 33.7 163.79 33.52 163.71C33.34 163.63 33.16 163.55 32.98 163.47C32.8 163.39 32.61 163.32 32.43 163.25C32.25 163.18 32.07 163.12 31.89 163.07C31.39 164.62 31.14 165.4 30.63 166.95C30.37 166.88 30.05 166.77 29.69 166.62C29.33 166.48 28.92 166.28 28.45 166.04C27.68 165.63 27.01 165.17 26.45 164.67C25.89 164.17 25.45 163.63 25.13 163.08C24.81 162.52 24.63 161.95 24.58 161.39C24.53 160.82 24.65 160.26 24.91 159.69C25.17 159.13 25.51 158.71 25.93 158.41C26.35 158.11 26.83 157.92 27.35 157.83C27.88 157.74 28.46 157.76 29.09 157.88C29.72 158 30.38 158.21 31.08 158.51C31.72 158.79 32.25 159.05 32.66 159.29C33.07 159.53 33.63 160 33.8 159.99C33.89 159.98 34.14 159.67 34.29 159.52C34.43 159.37 34.66 159.06 34.64 158.98C34.62 158.8 33.78 158.4 33.26 158.12Z" fill="#7C3A7C"/>
<path d="M43.2101 164.28C43.0901 164.25 42.9701 164.23 42.8601 164.2C42.1001 164.05 41.4501 164.04 40.9201 164.18C40.3901 164.32 39.5901 164.81 39.5701 164.79C39.5701 164.79 39.6201 164.39 39.6301 164.13C39.6401 163.86 39.6701 163.55 39.6201 163.49C39.5801 163.44 39.3601 163.38 39.2101 163.33C39.0601 163.28 38.9101 163.23 38.7501 163.19C38.6001 163.15 38.4501 163.11 38.3101 163.08C38.1701 163.05 38.0201 163.02 37.8601 163C37.1601 166.08 36.8201 167.62 36.1201 170.71C36.3001 170.8 36.5001 170.89 36.7001 170.97C36.9101 171.05 37.1001 171.13 37.2701 171.19C37.4401 171.25 37.6401 171.31 37.8501 171.37C38.0601 171.43 38.2601 171.48 38.4401 171.51C38.7401 169.93 38.8901 169.14 39.1901 167.57C39.2901 167.03 39.4601 166.62 39.6901 166.33C39.9201 166.04 40.1901 165.83 40.5101 165.7C40.8301 165.58 41.1701 165.51 41.5301 165.52C41.9001 165.52 42.2801 165.57 42.6601 165.65C42.7301 165.67 42.8301 165.69 42.9501 165.71C43.0701 165.74 43.2701 165.83 43.3101 165.82C43.3401 165.81 43.4001 165.57 43.4401 165.43C43.4801 165.3 43.5101 165.16 43.5301 165.03C43.5401 164.91 43.5501 164.8 43.5501 164.69C43.5501 164.58 43.5601 164.41 43.5201 164.37C43.4901 164.34 43.3301 164.31 43.2101 164.28Z" fill="#7C3A7C"/>
<path d="M52.31 165.89C51.56 165.34 50.48 165.04 49.05 164.92C48.51 164.88 47.94 164.86 47.35 164.86C46.76 164.86 45.85 164.8 45.72 164.93C45.6 165.05 45.81 166.2 46.01 166.3C46.18 166.39 46.88 166.24 47.33 166.24C47.78 166.23 48.26 166.25 48.77 166.3C49.6 166.38 50.23 166.56 50.67 166.85C51.1 167.15 51.32 167.63 51.32 168.32C51.32 168.45 51.32 168.52 51.32 168.65C51.11 168.61 50.85 168.58 50.54 168.53C50.23 168.49 49.84 168.45 49.36 168.4C48.71 168.34 48.09 168.32 47.5 168.36C46.91 168.4 46.38 168.5 45.91 168.66C45.44 168.82 45.05 169.06 44.74 169.36C44.43 169.67 44.26 170.05 44.2 170.52C44.15 171 44.22 171.44 44.42 171.83C44.62 172.22 44.93 172.57 45.35 172.88C45.77 173.19 46.29 173.45 46.93 173.67C47.56 173.88 48.28 174.05 49.07 174.16C49.91 174.28 50.75 174.33 51.57 174.31C52.38 174.29 53.07 174.24 53.64 174.19C53.59 171.91 53.57 170.77 53.52 168.5C53.46 167.31 53.06 166.45 52.31 165.89ZM51.26 172.86C50.96 172.89 50.61 172.9 50.22 172.88C49.83 172.86 49.45 172.83 49.08 172.78C48.79 172.74 48.49 172.69 48.17 172.62C47.85 172.55 47.56 172.44 47.31 172.3C47.06 172.16 46.85 171.97 46.69 171.75C46.53 171.53 46.46 171.25 46.49 170.92C46.53 170.39 46.81 170.05 47.33 169.86C47.85 169.68 48.57 169.64 49.52 169.74C49.77 169.77 50.06 169.81 50.42 169.86C50.77 169.91 51.06 169.96 51.29 170C51.28 171.15 51.27 171.72 51.26 172.86Z" fill="#7C3A7C"/>
<path d="M66.53 166.34C66.17 165.77 65.76 165.33 65.29 165.02C64.82 164.7 64.3 164.51 63.72 164.42C63.14 164.33 62.54 164.34 61.91 164.44C61.49 164.51 61.11 164.61 60.77 164.74C60.43 164.87 60.13 165.03 59.87 165.21C59.61 165.39 59.39 165.58 59.21 165.78C59.03 165.98 58.76 166.4 58.75 166.4C58.75 166.4 58.73 166.28 58.69 166.15C58.65 166.02 58.62 165.88 58.58 165.73C58.54 165.59 58.51 165.45 58.47 165.32C58.43 165.19 58.41 165.1 58.39 165.1C58.32 165.06 58.09 165.08 57.93 165.08C57.77 165.08 57.62 165.09 57.48 165.1C57.32 165.11 57.17 165.13 57.02 165.15C56.87 165.17 56.73 165.2 56.58 165.23C56.95 170.66 57.14 173.38 57.52 178.82C57.71 178.85 57.92 178.87 58.16 178.89C58.39 178.91 58.61 178.92 58.8 178.92C58.99 178.92 59.2 178.92 59.44 178.9C59.67 178.89 59.89 178.87 60.1 178.84C59.93 177.11 59.84 176.25 59.67 174.52C59.95 174.57 60.29 174.61 60.67 174.63C61.05 174.65 61.42 174.64 61.78 174.62C63.93 174.48 65.51 173.8 66.47 172.68C67.43 171.56 67.69 170.13 67.33 168.46C67.16 167.61 66.88 166.91 66.53 166.34ZM65.01 170.64C64.9 171.13 64.7 171.55 64.41 171.89C64.12 172.24 63.74 172.51 63.29 172.7C62.83 172.89 62.31 173.02 61.73 173.06C61.22 173.1 60.8 173.11 60.48 173.09C60.16 173.07 59.83 173.03 59.52 172.95C59.37 171.42 59.29 170.66 59.14 169.13C59.09 168.66 59.14 168.26 59.26 167.91C59.39 167.56 59.58 167.26 59.81 167.01C60.05 166.76 60.33 166.56 60.65 166.41C60.97 166.26 61.31 166.16 61.67 166.11C62.64 165.98 63.38 166.15 63.92 166.67C64.46 167.19 64.82 167.95 65.01 168.96C65.12 169.6 65.12 170.16 65.01 170.64Z" fill="#7C3A7C"/>
<path d="M79.86 168.27C79.48 168.29 78.04 169.54 76.94 169.92C75.69 170.35 74.65 170.39 73.86 170.07C73.07 169.76 72.51 169.06 72.17 167.98C75.3 167.07 76.84 166.5 79.85 165.14C79.81 164.99 79.75 164.81 79.68 164.61C79.61 164.4 79.54 164.21 79.47 164.02C79.2 163.36 78.85 162.79 78.43 162.32C78.01 161.84 77.54 161.49 77.02 161.25C76.5 161.01 75.93 160.89 75.31 160.89C74.69 160.89 74.03 161.03 73.33 161.31C72.5 161.64 71.82 162.04 71.28 162.53C70.74 163.02 70.32 163.56 70.03 164.15C69.74 164.75 69.56 165.39 69.51 166.08C69.46 166.77 69.53 167.48 69.71 168.21C69.9 168.95 70.18 169.61 70.57 170.17C70.96 170.73 71.47 171.18 72.11 171.51C72.75 171.84 73.5 172.02 74.37 172.04C75.24 172.07 76.24 171.91 77.35 171.54C78.11 171.29 78.79 171 79.37 170.67C79.95 170.35 80.85 169.83 80.9 169.6C80.92 169.49 80.62 169.08 80.43 168.83C80.25 168.61 79.96 168.27 79.86 168.27ZM71.79 166.56C71.65 165.68 71.74 164.93 72.05 164.3C72.36 163.67 72.93 163.21 73.77 162.89C74.2 162.73 74.59 162.66 74.95 162.68C75.31 162.7 75.63 162.79 75.92 162.96C76.21 163.12 76.47 163.35 76.7 163.63C76.93 163.92 77.11 164.24 77.25 164.6C75.1 165.5 74 165.89 71.79 166.56Z" fill="#7C3A7C"/>
<path d="M89.5 160.25C89.2 160.04 88.88 159.9 88.55 159.83C88.22 159.76 87.88 159.75 87.52 159.8C87.16 159.85 86.79 159.92 86.42 160.03C86.01 160.14 85.8 160.19 85.39 160.3C85.11 160.37 84.85 160.43 84.6 160.48C84.36 160.53 84.12 160.54 83.91 160.53C83.7 160.52 83.5 160.46 83.33 160.36C83.16 160.26 83.02 160.1 82.92 159.88C82.71 159.45 82.75 159.05 83.03 158.66C83.31 158.27 83.68 157.93 84.15 157.62C84.59 157.33 85.03 157.1 85.46 156.94C85.89 156.77 86.53 156.65 86.6 156.55C86.65 156.47 86.52 155.96 86.44 155.66C86.36 155.36 86.22 154.84 86.13 154.79C86.01 154.74 85.26 155.09 84.76 155.32C84.25 155.55 83.76 155.82 83.29 156.14C82.14 156.91 81.38 157.7 81 158.57C80.62 159.45 80.62 160.31 81.02 161.19C81.32 161.85 81.75 162.27 82.33 162.45C82.91 162.63 83.72 162.63 84.75 162.43C85.09 162.36 85.26 162.33 85.6 162.26C85.9 162.18 86.19 162.12 86.46 162.06C86.73 162.01 86.98 161.98 87.22 161.99C87.45 162 87.67 162.05 87.86 162.15C88.06 162.25 88.22 162.43 88.36 162.69C88.49 162.92 88.54 163.17 88.51 163.44C88.48 163.71 88.38 163.98 88.23 164.24C88.08 164.5 87.87 164.75 87.6 164.99C87.33 165.23 87.03 165.44 86.69 165.63C86.22 165.89 85.73 166.1 85.21 166.26C84.69 166.43 83.84 166.47 83.73 166.59C83.67 166.66 83.74 167.22 83.76 167.53C83.78 167.84 83.84 168.35 83.92 168.41C84.06 168.5 85.01 168.2 85.6 168.01C86.18 167.82 86.84 167.53 87.56 167.14C88.26 166.76 88.86 166.31 89.35 165.82C89.84 165.33 90.2 164.81 90.44 164.29C90.68 163.77 90.79 163.23 90.77 162.71C90.75 162.18 90.6 161.68 90.32 161.21C90.08 160.77 89.8 160.46 89.5 160.25Z" fill="#7C3A7C"/>
</svg>
