<svg width="203" height="159" viewBox="0 0 203 159" fill="none" xmlns="http://www.w3.org/2000/svg">
<path opacity="0.2" d="M79.94 124.09C64.28 124.56 1.1 119.9 15.48 128.16C15.48 128.16 24.39 133.27 52.68 135.63C80.97 137.99 111.62 130.52 107.3 123.84C102.98 117.15 95.6 123.61 79.94 124.09Z" fill="black"/>
<path opacity="0.2" d="M86.05 125.49C79.16 124.1 67.98 128.12 56.97 126.9C45.97 125.68 26.89 123.48 30.76 128.44C30.76 128.44 38.2 132.91 66.37 131.8C94.55 130.69 92.94 126.89 86.05 125.49Z" fill="black"/>
<path d="M56.97 14.0703C49.3 14.0703 43.08 18.4703 43.08 23.9003C43.08 29.3303 49.3 33.7303 56.97 33.7303C64.64 33.7303 70.86 29.3303 70.86 23.9003C70.86 18.4703 64.64 14.0703 56.97 14.0703Z" fill="#9E9E04"/>
<path d="M56.39 24.5601C25.25 24.5601 0.710006 44.5501 0.0100062 77.3101C-0.609994 106.44 25.25 130.07 56.39 130.07C91.42 130.07 112.33 106.45 112.77 77.3101C113.31 40.8701 87.52 24.5601 56.39 24.5601Z" fill="#3F2E6B"/>
<path d="M0.559998 85.5598C0.719998 86.5898 0.919998 87.6098 1.14 88.6298C0.909998 87.6398 0.769998 86.7398 0.709998 85.9498C0.639998 85.1598 0.589998 85.0698 0.559998 85.5598Z" fill="#2F2554"/>
<path d="M62.38 101.69C15.6 115.93 3.55998 98.5799 1.16998 88.7499C6.47998 112.38 29.45 130.07 56.39 130.07C91.42 130.07 112.33 106.45 112.77 77.3099C113.02 60.7099 107.79 48.2999 99.1 39.6899C99.51 41.0299 113.33 86.1799 62.38 101.69Z" fill="#2F2554"/>
<path d="M20.83 59.6504C20.83 59.6504 16.57 63.6404 20.83 64.7004C25.09 65.7604 25.66 60.9804 20.83 59.6504Z" fill="#352960"/>
<path d="M68.27 85.0801C68.27 85.0801 64.01 89.0701 68.27 90.1301C72.53 91.2001 73.09 86.4101 68.27 85.0801Z" fill="#352960"/>
<path d="M51.69 95.2202C51.69 95.2202 47.43 99.2102 51.69 100.27C55.94 101.33 56.51 96.5502 51.69 95.2202Z" fill="#352960"/>
<path d="M71.58 66.2305C71.58 66.2305 67.32 70.2205 71.58 71.2805C75.84 72.3405 76.4 67.5605 71.58 66.2305Z" fill="#352960"/>
<path d="M57.23 46.7305C57.23 46.7305 52.97 50.7205 57.23 51.7805C61.49 52.8405 62.06 48.0605 57.23 46.7305Z" fill="#352960"/>
<path d="M87.94 46.7305C87.94 46.7305 83.68 50.7205 87.94 51.7805C92.2 52.8405 92.77 48.0605 87.94 46.7305Z" fill="#352960"/>
<path d="M85.29 73.7002C85.29 73.7002 81.03 77.6902 85.29 78.7502C89.55 79.8102 90.12 75.0302 85.29 73.7002Z" fill="#352960"/>
<path d="M72.81 53.4302C72.81 53.4302 68.55 57.4202 72.81 58.4802C77.07 59.5402 77.64 54.7602 72.81 53.4302Z" fill="#352960"/>
<path d="M27.54 68.7701C27.54 68.7701 29.44 74.1201 32.36 71.0301C35.29 67.9501 30.97 65.3301 27.54 68.7701Z" fill="#352960"/>
<path d="M36.45 84.46C36.45 84.46 38.35 89.81 41.27 86.72C44.2 83.64 39.88 81.02 36.45 84.46Z" fill="#352960"/>
<path d="M36.45 59.0302C36.45 59.0302 38.35 64.3802 41.27 61.2902C44.2 58.2002 39.88 55.5802 36.45 59.0302Z" fill="#352960"/>
<path d="M55.1 64.0503C55.1 64.0503 57 69.4003 59.92 66.3103C62.84 63.2303 58.53 60.6103 55.1 64.0503Z" fill="#352960"/>
<path d="M87.51 64.0503C87.51 64.0503 89.41 69.4003 92.33 66.3103C95.25 63.2303 90.94 60.6103 87.51 64.0503Z" fill="#352960"/>
<path d="M57.75 113.7C57.75 113.7 59.65 119.05 62.57 115.96C65.49 112.87 61.18 110.26 57.75 113.7Z" fill="#352960"/>
<path d="M26.83 102.05C26.83 102.05 28.73 107.4 31.65 104.31C34.58 101.22 30.27 98.6102 26.83 102.05Z" fill="#352960"/>
<path d="M10.11 79.6104C10.11 79.6104 12.01 84.9604 14.93 81.8704C17.86 78.7904 13.54 76.1704 10.11 79.6104Z" fill="#352960"/>
<path d="M28.75 45.9302C28.75 45.9302 30.65 51.2802 33.57 48.1902C36.5 45.1102 32.19 42.4902 28.75 45.9302Z" fill="#352960"/>
<path d="M47.94 73.5903C47.94 73.5903 42.22 75.3403 45.5 78.0903C48.79 80.8503 51.61 76.8203 47.94 73.5903Z" fill="#352960"/>
<path d="M85.78 93.9902C85.78 93.9902 80.0599 95.7402 83.3399 98.4902C86.6299 101.24 89.45 97.2202 85.78 93.9902Z" fill="#352960"/>
<path d="M25.11 84.2305C25.11 84.2305 19.39 85.9905 22.67 88.7305C25.96 91.4905 28.77 87.4605 25.11 84.2305Z" fill="#352960"/>
<path opacity="0.3" d="M37.21 126.96C43.22 128.97 49.68 130.07 56.39 130.07C91.42 130.07 112.33 106.45 112.77 77.3101C112.76 77.3101 95.43 135.32 37.21 126.96Z" fill="#321756"/>
<path opacity="0.3" d="M38.38 45.7102C33.78 41.3102 28.88 38.8202 24.24 43.2802C24.24 43.2802 6.62998 58.3202 7.92998 70.1502C9.22998 81.9802 18.3 74.6202 20.11 76.9602C21.92 79.3002 22.71 80.1502 27.54 73.8702C32.36 67.5902 39.31 66.3802 36.45 62.7802C33.59 59.1802 39.29 63.0802 38.25 55.1902C37.22 47.3002 42.98 50.1102 38.38 45.7102Z" fill="white"/>
<path opacity="0.3" d="M28.75 46.7299C25.45 45.4399 23.67 46.2199 17.83 53.4399C17.83 53.4399 11.72 61.7899 13 67.2799C14.28 72.7699 18.85 59.2099 20.37 62.4299C21.89 65.6399 21.25 65.1899 24.24 61.0199C27.23 56.8499 31.51 53.1899 26.83 51.9299C22.15 50.6699 32.05 48.0099 28.75 46.7299Z" fill="white"/>
<path opacity="0.3" d="M23.59 31.7102C23.59 31.7102 24.49 40.8302 43.73 38.1102C43.73 38.1102 50.49 37.2202 49.38 32.1302C48.39 27.6202 23.59 31.7102 23.59 31.7102Z" fill="#321756"/>
<path d="M36.64 16.9902C28.64 16.9902 22.15 21.5802 22.15 27.2402C22.15 32.9002 28.64 37.5002 36.64 37.5002C44.64 37.5002 51.13 32.9102 51.13 27.2402C51.13 21.5802 44.64 16.9902 36.64 16.9902Z" fill="#B5BB00"/>
<path d="M42.31 17.8101C44.34 19.9301 48.84 25.8101 42.27 30.9401C34.09 37.3401 22.09 33.3001 23.21 23.3701C22.52 24.5701 22.13 25.8701 22.13 27.2401C22.13 32.9001 28.62 37.5001 36.62 37.5001C44.62 37.5001 51.11 32.9101 51.11 27.2401C51.13 23.0001 47.5 19.3701 42.31 17.8101Z" fill="#AAAA04"/>
<path opacity="0.3" d="M63.75 32.8101C63.75 32.8101 64.62 41.5501 83.05 38.9401C83.05 38.9401 89.53 38.0801 88.46 33.2101C87.51 28.9001 63.75 32.8101 63.75 32.8101Z" fill="#321756"/>
<path d="M76.25 18.71C68.58 18.71 62.36 23.11 62.36 28.54C62.36 33.97 68.58 38.37 76.25 38.37C83.92 38.37 90.14 33.97 90.14 28.54C90.14 23.11 83.92 18.71 76.25 18.71Z" fill="#B5BB00"/>
<path d="M81.69 19.5C83.63 21.53 87.95 27.16 81.65 32.08C73.81 38.21 62.32 34.34 63.39 24.83C62.73 25.98 62.36 27.23 62.36 28.54C62.36 33.97 68.58 38.37 76.25 38.37C83.92 38.37 90.14 33.97 90.14 28.54C90.14 24.48 86.65 20.99 81.69 19.5Z" fill="#AAAA04"/>
<path d="M47.28 2.61012C53.57 8.56012 51.91 21.4701 51.91 21.4701H62.59C60.12 11.4301 55.56 1.62012 55.56 1.62012C51.88 4.59012 47.28 2.61012 47.28 2.61012Z" fill="#438C0A"/>
<path d="M51.26 0.86007C50.54 1.77007 50.45 -0.23993 48.92 0.24007C47.39 0.72007 47.28 2.61007 47.28 2.61007C47.22 3.04007 49.42 4.86007 50.43 4.00007C51.43 3.14007 51.08 3.78007 52.79 4.44007C54.51 5.11007 55.55 1.61007 55.55 1.61007C54.83 -0.77993 51.98 -0.04993 51.26 0.86007Z" fill="#73AD40"/>
<path d="M54.51 8.17018C53.27 6.69018 52.26 4.20018 52.26 5.69018C52.26 5.69018 56.55 15.6502 54.03 21.4802H60C60 21.4802 56.97 7.00018 55.37 5.69018C53.77 4.39018 55.75 9.65018 54.51 8.17018Z" fill="#3A7A03"/>
<path opacity="0.3" d="M41.98 36.6799C41.98 36.6799 43.11 48.0299 67.06 44.6499C67.06 44.6499 75.48 43.5399 74.1 37.2099C72.87 31.5899 41.98 36.6799 41.98 36.6799Z" fill="#321756"/>
<path d="M58.23 18.3599C48.26 18.3599 40.18 24.0799 40.18 31.1299C40.18 38.1799 48.26 43.8999 58.23 43.8999C68.19 43.8999 76.27 38.1799 76.27 31.1299C76.27 24.0799 68.2 18.3599 58.23 18.3599Z" fill="#B5BB00"/>
<path d="M65.3 19.3696C67.83 22.0096 73.43 29.3296 65.26 35.7196C55.08 43.6796 40.14 38.6596 41.54 26.2896C40.68 27.7796 40.2 29.4096 40.2 31.1096C40.2 38.1596 48.28 43.8796 58.25 43.8796C68.21 43.8796 76.29 38.1596 76.29 31.1096C76.28 25.8496 71.75 21.3196 65.3 19.3696Z" fill="#AAAA04"/>
<path opacity="0.3" d="M53.29 21.73C50.68 21.73 45.8 22.6 43.97 26.17C43.97 26.17 43.8 30.65 49.51 28.19C55.21 25.73 55.91 21.73 53.29 21.73Z" fill="white"/>
<path opacity="0.3" d="M24.97 23.1899L26.28 23.8999C27.59 20.7699 34.55 19.3799 34.55 19.3799L34.04 18.3599C27.99 19.4299 24.97 23.1899 24.97 23.1899Z" fill="white"/>
<path opacity="0.3" d="M72.64 21.1302C72.64 21.1302 74.98 21.8202 76.16 23.9002C77.34 25.9802 79.43 21.4502 78.21 20.5802C77 19.7002 73.6 19.6702 72.64 21.1302Z" fill="white"/>
<path opacity="0.3" d="M24.97 66.2301C24.97 66.2301 18.97 75.54 24.24 73.6C29.52 71.65 30.37 63.3101 24.97 66.2301Z" fill="white"/>
<path opacity="0.2" d="M128.05 152.95C119.6 152.43 83.55 149.87 85.64 153.58C85.64 153.58 107.35 158.88 124.02 158.88C140.69 158.88 168.02 155.4 165.23 153.58C162.44 151.76 136.49 153.47 128.05 152.95Z" fill="black"/>
<path opacity="0.2" d="M121.03 154.46C115.92 153.48 97.39 154.08 101.15 155.25C101.15 155.25 125.03 158.44 140.54 155.89C156.05 153.34 126.13 155.43 121.03 154.46Z" fill="black"/>
<path d="M122.02 66.1899C95.55 66.1899 74.69 83.1899 74.09 111.04C73.56 135.81 95.55 155.89 122.02 155.89C151.8 155.89 169.58 135.81 169.95 111.04C170.41 80.0499 148.49 66.1899 122.02 66.1899Z" fill="#574B82"/>
<path d="M122.02 68.5C95.27 68.5 76.94 85.62 76.4 111.09C76.18 121.61 80.3 131.73 88 139.6C96.7 148.49 109.1 153.58 122.02 153.58C148.93 153.58 167.26 136.47 167.64 111C167.83 98.43 164.25 88.34 157.02 80.99C149.08 72.93 136.65 68.5 122.02 68.5Z" fill="#BF6B6B"/>
<path d="M122.02 69.6499C95.95 69.6499 78.08 86.3099 77.55 111.11C77.33 121.31 81.34 131.14 88.82 138.79C97.3 147.46 109.4 152.43 122.02 152.43C148.25 152.43 166.12 135.78 166.49 110.99C166.67 98.7399 163.21 88.9199 156.2 81.8099C148.48 73.9599 136.34 69.6499 122.02 69.6499Z" fill="#AA5757"/>
<path d="M134.12 73.6301C116.31 68.6201 108.08 75.0101 108.08 75.0101C105.7 80.2201 122.46 107.66 122.46 107.66C124.79 111.65 135.32 76.6101 135.32 75.1001C135.32 73.5901 134.12 73.6301 134.12 73.6301Z" fill="white"/>
<path d="M124.92 95.3603C115.11 100.28 108.09 75.0103 108.09 75.0103C105.71 80.2203 122.47 107.66 122.47 107.66C124.8 111.65 135.33 76.6103 135.33 75.1003C131.32 90.4602 124.92 95.3603 124.92 95.3603Z" fill="#FCE3E3"/>
<path d="M159.53 92.1199C150.79 77.0099 140.05 76.1899 140.05 76.1899C134.35 78.3299 125.47 108.28 125.47 108.28C124.05 112.61 158.08 95.0199 159.24 93.9499C160.4 92.8799 159.53 92.1199 159.53 92.1199Z" fill="white"/>
<path d="M136.28 101.51C125.56 98.6199 140.05 76.1899 140.05 76.1899C134.35 78.3299 125.47 108.28 125.47 108.28C124.05 112.61 158.08 95.0199 159.24 93.9499C144.59 102.21 136.28 101.51 136.28 101.51Z" fill="#FCE3E3"/>
<path d="M126.79 111.37C122.45 113.51 159.99 122.81 161.64 122.81C163.29 122.81 163.25 121.71 163.25 121.71C168.71 105.35 161.74 97.7897 161.74 97.7897C156.07 95.5997 126.79 111.37 126.79 111.37Z" fill="white"/>
<path d="M161.74 97.78C156.07 95.59 126.79 111.36 126.79 111.36C122.45 113.5 159.99 122.8 161.64 122.8C144.92 119.12 139.58 113.24 139.58 113.24C134.23 104.24 161.74 97.78 161.74 97.78Z" fill="#FCE3E3"/>
<path d="M126.24 113.96C121.52 112.65 139.96 143.69 141.13 144.76C142.3 145.83 143.12 145.03 143.12 145.03C159.57 137.01 160.47 127.14 160.47 127.14C158.13 121.91 126.24 113.96 126.24 113.96Z" fill="white"/>
<path d="M160.46 127.14C158.13 121.91 126.24 113.96 126.24 113.96C121.52 112.65 139.96 143.69 141.13 144.76C132.14 131.3 132.89 123.68 132.89 123.68C136.04 113.84 160.46 127.14 160.46 127.14Z" fill="#FCE3E3"/>
<path d="M109.71 146.97C109.71 148.48 110.91 148.45 110.91 148.45C128.72 153.46 136.95 147.07 136.95 147.07C139.33 141.86 123.45 114.58 123.45 114.58C121.11 110.6 109.71 145.46 109.71 146.97Z" fill="white"/>
<path d="M109.71 146.97C113.71 131.62 120.12 126.71 120.12 126.71C129.93 121.79 136.95 147.06 136.95 147.06C139.33 141.85 123.45 114.57 123.45 114.57C121.11 110.6 109.71 145.46 109.71 146.97Z" fill="#FCE3E3"/>
<path d="M85.8 128.13C84.63 129.2 85.51 129.96 85.51 129.96C94.25 145.07 104.99 145.89 104.99 145.89C110.69 143.75 120.14 114.01 120.14 114.01C121.56 109.68 86.96 127.06 85.8 128.13Z" fill="white"/>
<path d="M85.8 128.13C100.45 119.87 108.76 120.56 108.76 120.56C119.48 123.45 104.99 145.88 104.99 145.88C110.69 143.74 120.14 114 120.14 114C121.56 109.68 86.96 127.06 85.8 128.13Z" fill="#FCE3E3"/>
<path d="M83.39 99.27C81.74 99.27 81.78 100.38 81.78 100.38C76.32 116.74 83.29 124.3 83.29 124.3C88.96 126.49 118.21 111.05 118.21 111.05C122.55 108.9 85.04 99.27 83.39 99.27Z" fill="white"/>
<path d="M83.39 99.27C100.11 102.95 105.45 108.83 105.45 108.83C110.8 117.84 83.29 124.29 83.29 124.29C88.96 126.48 118.21 111.04 118.21 111.04C122.55 108.9 85.04 99.27 83.39 99.27Z" fill="#FCE3E3"/>
<path d="M101.92 77.0501C85.47 85.0701 84.57 94.9401 84.57 94.9401C86.9 100.17 119.37 108.59 119.37 108.59C124.09 109.9 105.06 78.3801 103.9 77.3101C102.74 76.2401 101.92 77.0501 101.92 77.0501Z" fill="white"/>
<path d="M112.15 98.4001C109 108.24 84.58 94.9401 84.58 94.9401C86.91 100.17 119.38 108.59 119.38 108.59C124.1 109.9 105.07 78.3801 103.91 77.3101C112.9 90.7701 112.15 98.4001 112.15 98.4001Z" fill="#FCE3E3"/>
<path opacity="0.3" d="M89.84 66.24C89.84 66.24 103.56 61.8 111.82 64.85C111.82 64.85 110.94 58.4 108.99 54.98L89.84 66.24Z" fill="#031E10"/>
<path d="M190.51 57.0103L173.85 69.4103C173.85 69.4103 181.82 95.8203 179.42 120.03L189.03 104.88L196.95 116.67C196.95 116.67 197.28 86.1303 193.15 60.3903L190.51 57.0103Z" fill="white"/>
<mask id="mask0_174_8866" style="mask-type:luminance" maskUnits="userSpaceOnUse" x="173" y="57" width="24" height="64">
<path d="M173.85 69.4103C173.85 69.4103 181.82 95.8203 179.42 120.03L189.03 104.88L196.95 116.67C196.95 116.67 197.28 86.1303 193.15 60.3903L190.5 57.0103L173.85 69.4103Z" fill="white"/>
</mask>
<g mask="url(#mask0_174_8866)">
<path opacity="0.01" d="M176.45 72.4701C178.52 73.6301 181.16 73.3301 183.99 72.1901C186.2 71.3001 188.53 69.8901 190.79 68.2601C195.9 64.5901 200.69 59.8201 203.03 57.3401C198.26 54.3401 193.09 50.7501 191.62 48.4001C191.56 48.3601 186.22 53.8601 186.2 53.8301L182.08 58.1401L177.24 63.2001L172.55 68.1001C172.56 68.1001 172.87 70.5201 176.45 72.4701Z" fill="black"/>
<path opacity="0.01" d="M176.37 72.3804C178.44 73.5804 181.08 73.3104 183.91 72.1804C186.13 71.3004 188.46 69.8904 190.72 68.2504C195.78 64.6104 200.51 59.8804 202.84 57.4004C198.21 54.4104 193.17 50.8404 191.75 48.5004C191.64 48.4204 186.35 53.7704 186.31 53.7104L182.19 58.0204L177.34 63.0904L172.65 68.0004C172.65 68.0104 172.86 70.4804 176.37 72.3804Z" fill="black"/>
<path opacity="0.0118" d="M176.29 72.3002C178.36 73.5402 181 73.2902 183.82 72.1802C186.04 71.3102 188.38 69.8902 190.65 68.2502C195.64 64.6302 200.33 59.9602 202.65 57.4802C198.15 54.4902 193.25 50.9402 191.88 48.6202C191.71 48.5002 186.48 53.7002 186.43 53.6102L182.3 57.9302L177.44 63.0002L172.74 67.9102C172.74 67.9102 172.86 70.4302 176.29 72.3002Z" fill="black"/>
<path opacity="0.0157" d="M176.21 72.2105C178.29 73.4905 180.92 73.2605 183.73 72.1805C185.96 71.3205 188.3 69.9005 190.57 68.2405C195.5 64.6505 200.14 60.0205 202.45 57.5405C198.09 54.5505 193.32 51.0205 192 48.7205C191.77 48.5605 186.6 53.6105 186.53 53.5005L182.39 57.8205L177.53 62.9005L172.82 67.8205C172.83 67.8205 172.85 70.3805 176.21 72.2105Z" fill="black"/>
<path opacity="0.0196" d="M176.13 72.1302C178.21 73.4502 180.84 73.2502 183.65 72.1802C185.88 71.3302 188.23 69.9102 190.5 68.2402C195.37 64.6802 199.96 60.1002 202.25 57.6202C198.02 54.6402 193.39 51.1202 192.11 48.8302C191.83 48.6302 186.71 53.5302 186.62 53.3902L182.48 57.7202L177.62 62.8002L172.91 67.7302C172.91 67.7302 172.84 70.3402 176.13 72.1302Z" fill="black"/>
<path opacity="0.0235" d="M176.05 72.0404C178.13 73.4004 180.75 73.2204 183.56 72.1704C185.8 71.3304 188.15 69.9004 190.43 68.2304C195.24 64.7004 199.78 60.1604 202.06 57.6904C197.97 54.7104 193.47 51.2204 192.24 48.9404C191.9 48.7004 186.85 53.4504 186.73 53.2804L182.58 57.6104L177.71 62.7004L173 67.6404C173 67.6404 172.83 70.2904 176.05 72.0404Z" fill="black"/>
<path opacity="0.0275" d="M175.97 71.9605C178.06 73.3605 180.67 73.2105 183.47 72.1805C185.71 71.3505 188.06 69.9205 190.35 68.2305C195.1 64.7305 199.59 60.2405 201.86 57.7605C197.9 54.7905 193.54 51.3105 192.36 49.0505C191.96 48.7805 186.97 53.3805 186.84 53.1705L182.69 57.5105L177.82 62.6005L173.09 67.5405C173.09 67.5505 172.82 70.2405 175.97 71.9605Z" fill="black"/>
<path opacity="0.0314" d="M175.89 71.8703C177.98 73.3103 180.59 73.1802 183.39 72.1702C185.64 71.3602 187.99 69.9202 190.28 68.2202C194.97 64.7502 199.41 60.3003 201.67 57.8303C197.85 54.8603 193.62 51.4003 192.49 49.1503C192.04 48.8403 187.1 53.2902 186.95 53.0603L182.79 57.4102L177.91 62.5102L173.18 67.4602C173.18 67.4502 172.82 70.2003 175.89 71.8703Z" fill="black"/>
<path opacity="0.0353" d="M175.81 71.7805C177.9 73.2605 180.51 73.1605 183.3 72.1705C185.56 71.3705 187.91 69.9205 190.21 68.2205C194.84 64.7805 199.23 60.3805 201.48 57.9005C197.79 54.9405 193.7 51.5005 192.62 49.2605C192.11 48.9105 187.23 53.2105 187.06 52.9505L182.9 57.3005L178.01 62.4105L173.27 67.3705C173.27 67.3605 172.81 70.1505 175.81 71.7805Z" fill="black"/>
<path opacity="0.0392" d="M175.73 71.7001C177.82 73.2201 180.43 73.1401 183.21 72.1701C185.47 71.3801 187.83 69.9301 190.13 68.2101C194.71 64.7901 199.03 60.4501 201.27 57.9701C197.72 55.0101 193.76 51.5901 192.73 49.3701C192.16 48.9801 187.34 53.1301 187.16 52.8401L182.99 57.2001L178.1 62.3101L173.35 67.2701C173.35 67.2701 172.8 70.1001 175.73 71.7001Z" fill="black"/>
<path opacity="0.0431" d="M175.66 71.6104C177.76 73.1704 180.36 73.1204 183.14 72.1604C185.41 71.3804 187.77 69.9204 190.07 68.2004C194.59 64.8104 198.86 60.5104 201.09 58.0304C197.67 55.0704 193.85 51.6704 192.86 49.4704C192.24 49.0404 187.47 53.0404 187.27 52.7204L183.09 57.0804L178.19 62.2004L173.43 67.1704C173.44 67.1804 172.79 70.0604 175.66 71.6104Z" fill="black"/>
<path opacity="0.0471" d="M175.58 71.5301C177.68 73.1301 180.28 73.1001 183.05 72.1701C185.32 71.4001 187.69 69.9401 190 68.2101C194.46 64.8501 198.68 60.6001 200.9 58.1201C197.62 55.1701 193.93 51.7801 192.99 49.5901C192.31 49.1201 187.6 52.9701 187.38 52.6301L183.2 57.0001L178.3 62.1201L173.54 67.1001C173.53 67.0901 172.78 70.0101 175.58 71.5301Z" fill="black"/>
<path opacity="0.051" d="M175.5 71.4401C177.6 73.0701 180.2 73.0801 182.96 72.1601C185.24 71.4001 187.61 69.9401 189.92 68.1901C194.32 64.8601 198.49 60.6501 200.7 58.1701C197.55 55.2201 194 51.8601 193.11 49.6801C192.37 49.1701 187.73 52.8801 187.48 52.5001L183.29 56.8801L178.38 62.0101L173.61 67.0001C173.62 66.9901 172.78 69.9601 175.5 71.4401Z" fill="black"/>
<path opacity="0.0549" d="M175.42 71.3601C177.53 73.0301 180.12 73.0701 182.88 72.1601C185.17 71.4101 187.54 69.9401 189.85 68.1901C194.19 64.8901 198.31 60.7301 200.51 58.2501C197.5 55.3101 194.08 51.9601 193.24 49.8001C192.45 49.2501 187.86 52.8101 187.6 52.4001L183.41 56.7801L178.5 61.9101L173.72 66.9001C173.71 66.9001 172.77 69.9201 175.42 71.3601Z" fill="black"/>
<path opacity="0.0588" d="M175.34 71.2701C177.45 72.9801 180.04 73.0401 182.79 72.1601C185.08 71.4201 187.46 69.9501 189.78 68.1801C194.06 64.9101 198.13 60.7901 200.31 58.3101C197.43 55.3701 194.15 52.0401 193.36 49.8901C192.51 49.3001 187.98 52.7101 187.7 52.2701L183.5 56.6601L178.58 61.8001L173.8 66.8001C173.79 66.8101 172.76 69.8701 175.34 71.2701Z" fill="black"/>
<path opacity="0.0627" d="M175.26 71.1903C177.37 72.9403 179.96 73.0203 182.7 72.1603C185 71.4403 187.38 69.9603 189.7 68.1803C193.92 64.9403 197.94 60.8703 200.11 58.3903C197.37 55.4603 194.23 52.1503 193.48 50.0103C192.57 49.3803 188.1 52.6403 187.8 52.1803L183.6 56.5703L178.68 61.7203L173.89 66.7303C173.88 66.7203 172.75 69.8203 175.26 71.1903Z" fill="black"/>
<path opacity="0.0667" d="M175.18 71.1002C177.3 72.8902 179.88 73.0002 182.61 72.1502C184.91 71.4402 187.3 69.9602 189.62 68.1702C193.79 64.9602 197.75 60.9302 199.91 58.4502C197.31 55.5202 194.3 52.2302 193.59 50.1102C192.63 49.4402 188.21 52.5502 187.89 52.0602L183.68 56.4602L178.75 61.6102L173.95 66.6202C173.97 66.6302 172.74 69.7802 175.18 71.1002Z" fill="black"/>
<path opacity="0.0706" d="M175.1 71.0203C177.22 72.8503 179.8 72.9903 182.53 72.1603C184.84 71.4603 187.23 69.9703 189.56 68.1703C193.67 65.0003 197.58 61.0103 199.73 58.5303C197.26 55.6003 194.39 52.3303 193.73 50.2303C192.71 49.5203 188.35 52.4803 188.02 51.9603L183.81 56.3703L178.87 61.5303L174.07 66.5503C174.06 66.5303 172.74 69.7303 175.1 71.0203Z" fill="black"/>
<path opacity="0.0745" d="M175.02 70.9303C177.14 72.8003 179.72 72.9603 182.44 72.1503C184.76 71.4603 187.15 69.9703 189.48 68.1603C193.53 65.0203 197.39 61.0703 199.53 58.5903C197.2 55.6703 194.46 52.4203 193.85 50.3303C192.77 49.5803 188.47 52.3903 188.12 51.8403L183.9 56.2503L178.96 61.4103L174.15 66.4403C174.15 66.4403 172.73 69.6803 175.02 70.9303Z" fill="black"/>
<path opacity="0.0784" d="M174.94 70.8401C177.06 72.7501 179.63 72.9401 182.35 72.1401C184.67 71.4601 187.07 69.9701 189.4 68.1501C193.39 65.0401 197.2 61.1401 199.32 58.6601C197.12 55.7401 194.52 52.5101 193.96 50.4301C192.83 49.6401 188.58 52.3101 188.21 51.7301L184 56.1501L179.05 61.3201L174.23 66.3601C174.23 66.3501 172.72 69.6401 174.94 70.8401Z" fill="black"/>
<path opacity="0.0824" d="M174.86 70.7604C176.99 72.7104 179.55 72.9204 182.27 72.1504C184.6 71.4804 187 69.9804 189.34 68.1504C193.27 65.0704 197.03 61.2104 199.14 58.7304C197.08 55.8204 194.61 52.6004 194.1 50.5404C192.91 49.7204 188.73 52.2304 188.34 51.6204L184.11 56.0404L179.16 61.2204L174.34 66.2604C174.32 66.2604 172.71 69.5904 174.86 70.7604Z" fill="black"/>
<path opacity="0.0863" d="M174.78 70.6705C176.91 72.6605 179.47 72.9005 182.18 72.1405C184.51 71.4805 186.92 69.9805 189.26 68.1405C193.14 65.0905 196.83 61.2805 198.94 58.8005C197.01 55.8905 194.68 52.6905 194.22 50.6505C192.97 49.7905 188.85 52.1505 188.44 51.5105L184.2 55.9405L179.24 61.1205L174.41 66.1705C174.41 66.1705 172.7 69.5405 174.78 70.6705Z" fill="black"/>
<path opacity="0.0902" d="M174.7 70.5901C176.83 72.6201 179.39 72.8901 182.09 72.1401C184.43 71.5001 186.84 69.9901 189.18 68.1401C193 65.1201 196.64 61.3601 198.74 58.8701C196.95 55.9701 194.75 52.7901 194.33 50.7501C193.02 49.8501 188.96 52.0601 188.53 51.3901L184.29 55.8201L179.33 61.0101L174.49 66.0701C174.5 66.0701 172.7 69.5001 174.7 70.5901Z" fill="black"/>
<path opacity="0.0941" d="M174.62 70.5003C176.76 72.5703 179.31 72.8603 182.01 72.1403C184.36 71.5103 186.77 70.0003 189.12 68.1303C192.88 65.1403 196.47 61.4203 198.56 58.9403C196.9 56.0403 194.84 52.8803 194.47 50.8603C193.11 49.9203 189.1 51.9803 188.65 51.2803L184.4 55.7203L179.43 60.9103L174.59 65.9703C174.59 65.9803 172.69 69.4503 174.62 70.5003Z" fill="black"/>
<path opacity="0.098" d="M174.54 70.4203C176.68 72.5303 179.23 72.8503 181.92 72.1403C184.27 71.5203 186.69 70.0003 189.04 68.1303C192.74 65.1803 196.28 61.5003 198.35 59.0103C196.83 56.1103 194.9 52.9703 194.58 50.9703C193.16 49.9903 189.21 51.9003 188.75 51.1803L184.5 55.6303L179.53 60.8303L174.68 65.9003C174.67 65.8903 172.68 69.4003 174.54 70.4203Z" fill="black"/>
<path opacity="0.102" d="M174.46 70.3301C176.6 72.4701 179.15 72.8301 181.83 72.1301C184.19 71.5201 186.61 70.0001 188.96 68.1201C192.61 65.2001 196.09 61.5601 198.15 59.0801C196.76 56.1901 194.97 53.0701 194.7 51.0801C193.22 50.0601 189.33 51.8201 188.85 51.0701L184.59 55.5201L179.61 60.7301L174.75 65.8101C174.76 65.8001 172.67 69.3601 174.46 70.3301Z" fill="black"/>
<path opacity="0.1059" d="M174.38 70.2402C176.53 72.4202 179.07 72.8002 181.75 72.1302C184.11 71.5302 186.54 70.0102 188.9 68.1102C192.49 65.2202 195.92 61.6302 197.97 59.1402C196.72 56.2502 195.06 53.1502 194.84 51.1702C193.31 50.1102 189.47 51.7302 188.97 50.9402L184.71 55.4002L179.72 60.6102L174.86 65.7002C174.85 65.7102 172.66 69.3102 174.38 70.2402Z" fill="black"/>
<path opacity="0.1098" d="M174.3 70.1603C176.45 72.3803 178.99 72.7903 181.66 72.1303C184.03 71.5503 186.46 70.0103 188.82 68.1103C192.35 65.2503 195.73 61.7003 197.77 59.2203C196.65 56.3403 195.13 53.2503 194.96 51.2903C193.37 50.1903 189.6 51.6603 189.08 50.8403L184.81 55.3003L179.82 60.5203L174.95 65.6103C174.94 65.6203 172.66 69.2603 174.3 70.1603Z" fill="black"/>
<path opacity="0.1137" d="M174.22 70.0702C176.37 72.3302 178.91 72.7602 181.57 72.1202C183.95 71.5502 186.38 70.0102 188.74 68.1002C192.22 65.2802 195.54 61.7702 197.57 59.2902C196.59 56.4102 195.2 53.3502 195.07 51.4002C193.42 50.2602 189.71 51.5802 189.17 50.7402L184.89 55.2102L179.89 60.4302L175.01 65.5302C175.03 65.5202 172.65 69.2202 174.22 70.0702Z" fill="black"/>
<path opacity="0.1176" d="M174.14 69.9904C176.29 72.2904 178.83 72.7504 181.49 72.1304C183.87 71.5704 186.31 70.0304 188.67 68.1004C192.09 65.3104 195.36 61.8404 197.37 59.3604C196.52 56.4804 195.27 53.4404 195.19 51.5104C193.49 50.3304 189.83 51.5004 189.27 50.6304L185 55.1004L180 60.3304L175.12 65.4404C175.11 65.4304 172.64 69.1704 174.14 69.9904Z" fill="black"/>
<path opacity="0.1216" d="M174.06 69.9005C176.22 72.2405 178.75 72.7305 181.4 72.1205C183.79 71.5705 186.23 70.0305 188.6 68.0905C191.96 65.3305 195.18 61.9105 197.18 59.4205C196.47 56.5505 195.35 53.5205 195.32 51.6005C193.56 50.3805 189.96 51.4005 189.38 50.5005L185.09 54.9805L180.08 60.2105L175.19 65.3205C175.2 65.3405 172.63 69.1205 174.06 69.9005Z" fill="black"/>
<path opacity="0.1255" d="M173.98 69.8201C176.14 72.2001 178.67 72.7101 181.31 72.1201C183.7 71.5901 186.15 70.0401 188.52 68.0801C191.83 65.3501 194.99 61.9701 196.98 59.4901C196.4 56.6201 195.42 53.6101 195.44 51.7101C193.62 50.4501 190.08 51.3201 189.49 50.3901L185.2 54.8801L180.19 60.1201L175.29 65.2401C175.29 65.2501 172.62 69.0801 173.98 69.8201Z" fill="black"/>
<path opacity="0.1294" d="M173.91 69.7303C176.07 72.1503 178.6 72.6903 181.24 72.1203C183.64 71.6003 186.09 70.0403 188.46 68.0803C191.71 65.3903 194.82 62.0503 196.8 59.5703C196.36 56.7103 195.51 53.7203 195.58 51.8303C193.71 50.5403 190.22 51.2503 189.61 50.3003L185.31 54.7903L180.29 60.0403L175.38 65.1703C175.38 65.1603 172.62 69.0303 173.91 69.7303Z" fill="black"/>
<path opacity="0.1333" d="M173.83 69.6502C176 72.1102 178.52 72.6802 181.15 72.1202C183.56 71.6102 186.01 70.0502 188.39 68.0802C191.58 65.4202 194.64 62.1302 196.61 59.6402C196.3 56.7802 195.59 53.8102 195.71 51.9302C193.78 50.6002 190.35 51.1702 189.72 50.1802L185.42 54.6802L180.4 59.9302L175.49 65.0602C175.47 65.0602 172.61 68.9802 173.83 69.6502Z" fill="black"/>
<path opacity="0.1373" d="M173.75 69.5603C175.92 72.0603 178.44 72.6603 181.06 72.1203C183.47 71.6203 185.94 70.0603 188.31 68.0703C191.45 65.4403 194.44 62.1903 196.4 59.7103C196.23 56.8603 195.65 53.9003 195.81 52.0403C193.82 50.6703 190.46 51.0903 189.8 50.0703L185.49 54.5703L180.46 59.8303L175.54 64.9703C175.55 64.9703 172.6 68.9403 173.75 69.5603Z" fill="black"/>
<path opacity="0.1412" d="M173.67 69.4702C175.84 72.0102 178.36 72.6302 180.98 72.1102C183.4 71.6302 185.87 70.0602 188.24 68.0602C191.32 65.4702 194.26 62.2602 196.21 59.7702C196.18 56.9202 195.73 53.9902 195.94 52.1402C193.9 50.7302 190.59 51.0002 189.92 49.9502L185.61 54.4602L180.57 59.7202L175.64 64.8702C175.64 64.8802 172.59 68.8902 173.67 69.4702Z" fill="black"/>
<path opacity="0.1451" d="M173.59 69.3904C175.77 71.9704 178.28 72.6204 180.89 72.1104C183.32 71.6404 185.79 70.0703 188.17 68.0603C191.19 65.5003 194.08 62.3303 196.02 59.8503C196.12 57.0003 195.81 54.0903 196.07 52.2603C193.97 50.8103 190.72 50.9304 190.03 49.8604L185.71 54.3804L180.67 59.6504L175.74 64.8103C175.73 64.7903 172.59 68.8404 173.59 69.3904Z" fill="black"/>
<path opacity="0.149" d="M173.51 69.3005C175.69 71.9205 178.2 72.6005 180.8 72.1105C183.23 71.6505 185.71 70.0805 188.09 68.0505C191.06 65.5205 193.89 62.4005 195.82 59.9105C196.06 57.0705 195.88 54.1705 196.19 52.3505C194.03 50.8605 190.84 50.8305 190.13 49.7305L185.8 54.2505L180.75 59.5205L175.81 64.6805C175.82 64.7005 172.58 68.8005 173.51 69.3005Z" fill="black"/>
<path opacity="0.1529" d="M173.43 69.2204C175.61 71.8804 178.12 72.5804 180.71 72.1104C183.15 71.6604 185.63 70.0904 188.01 68.0504C190.92 65.5604 193.7 62.4704 195.62 59.9904C195.99 57.1504 195.95 54.2804 196.31 52.4704C194.1 50.9404 190.96 50.7604 190.24 49.6304L185.91 54.1604L180.86 59.4404L175.91 64.6104C175.91 64.6004 172.57 68.7504 173.43 69.2204Z" fill="black"/>
<path opacity="0.1569" d="M173.35 69.1303C175.53 71.8303 178.04 72.5603 180.63 72.1003C183.08 71.6703 185.56 70.0903 187.95 68.0403C190.81 65.5803 193.53 62.5403 195.43 60.0503C195.94 57.2203 196.04 54.3603 196.44 52.5703C194.17 51.0003 191.09 50.6703 190.35 49.5103L186 54.0503L180.94 59.3403L175.99 64.5203C175.99 64.5103 172.56 68.7003 173.35 69.1303Z" fill="black"/>
<path opacity="0.1608" d="M173.27 69.0504C175.46 71.7904 177.96 72.5504 180.54 72.1104C182.99 71.6904 185.48 70.1104 187.87 68.0404C190.67 65.6204 193.34 62.6104 195.23 60.1304C195.87 57.3004 196.11 54.4604 196.55 52.6904C194.22 51.0804 191.2 50.6004 190.44 49.4204L186.1 53.9604L181.04 59.2504L176.08 64.4304C176.08 64.4204 172.55 68.6604 173.27 69.0504Z" fill="black"/>
<path opacity="0.1647" d="M173.19 68.9605C175.38 71.7305 177.88 72.5205 180.45 72.1005C182.91 71.6905 185.41 70.1105 187.79 68.0305C190.54 65.6405 193.15 62.6805 195.03 60.1905C195.81 57.3605 196.18 54.5405 196.67 52.7805C194.29 51.1305 191.33 50.5105 190.54 49.2905L186.19 53.8305L181.12 59.1305L176.15 64.3205C176.17 64.3305 172.55 68.6105 173.19 68.9605Z" fill="black"/>
<path opacity="0.1686" d="M173.11 68.8804C175.3 71.6904 177.8 72.5104 180.37 72.1004C182.83 71.7104 185.34 70.1104 187.73 68.0304C190.42 65.6804 192.98 62.7504 194.85 60.2704C195.76 57.4504 196.27 54.6504 196.81 52.9004C194.37 51.2104 191.47 50.4404 190.67 49.1904L186.32 53.7404L181.25 59.0404L176.28 64.2404C176.26 64.2404 172.54 68.5604 173.11 68.8804Z" fill="black"/>
<path opacity="0.1725" d="M173.03 68.7903C175.23 71.6403 177.72 72.4903 180.28 72.1003C182.75 71.7203 185.26 70.1203 187.65 68.0203C190.29 65.7003 192.79 62.8203 194.64 60.3303C195.69 57.5103 196.33 54.7303 196.92 53.0003C194.42 51.2703 191.58 50.3503 190.76 49.0703L186.4 53.6303L181.32 58.9403L176.34 64.1503C176.35 64.1403 172.53 68.5203 173.03 68.7903Z" fill="black"/>
<path opacity="0.1765" d="M172.95 68.7004C175.15 71.5904 177.64 72.4704 180.19 72.0904C182.67 71.7204 185.18 70.1205 187.57 68.0105C190.15 65.7205 192.6 62.8905 194.44 60.4005C195.62 57.5905 196.4 54.8204 197.04 53.1004C194.49 51.3304 191.7 50.2604 190.86 48.9604L186.5 53.5205L181.41 58.8405L176.42 64.0505C176.43 64.0505 172.52 68.4704 172.95 68.7004Z" fill="black"/>
<path opacity="0.1804" d="M172.87 68.6201C175.07 71.5501 177.56 72.4601 180.11 72.0901C182.59 71.7401 185.12 70.1301 187.51 68.0101C190.04 65.7601 192.43 62.9601 194.26 60.4701C195.58 57.6601 196.49 54.9201 197.18 53.2101C194.57 51.4001 191.84 50.1801 190.99 48.8501L186.62 53.4201L181.53 58.7401L176.54 63.9601C176.52 63.9601 172.51 68.4201 172.87 68.6201Z" fill="black"/>
<path opacity="0.1843" d="M172.79 68.5302C174.99 71.5002 177.48 72.4302 180.02 72.0902C182.51 71.7502 185.04 70.1402 187.43 68.0002C189.9 65.7802 192.23 63.0302 194.06 60.5402C195.51 57.7402 196.56 55.0102 197.29 53.3202C194.62 51.4802 191.95 50.1102 191.08 48.7402L186.7 53.3102L181.6 58.6402L176.6 63.8702C176.61 63.8702 172.5 68.3802 172.79 68.5302Z" fill="black"/>
<path opacity="0.1882" d="M172.71 68.4504C174.92 71.4604 177.4 72.4204 179.93 72.0904C182.43 71.7604 184.96 70.1604 187.35 68.0004C189.77 65.8204 192.04 63.1004 193.86 60.6104C195.45 57.8104 196.63 55.1004 197.41 53.4304C194.69 51.5504 192.07 50.0304 191.18 48.6304L186.8 53.2104L181.7 58.5404L176.69 63.7804C176.7 63.7804 172.5 68.3304 172.71 68.4504Z" fill="black"/>
<path opacity="0.1922" d="M172.63 68.3605C174.84 71.4105 177.32 72.4005 179.85 72.0805C182.35 71.7705 184.9 70.1605 187.29 67.9905C189.65 65.8405 191.87 63.1705 193.67 60.6805C195.39 57.8805 196.71 55.1905 197.54 53.5305C194.76 51.6105 192.21 49.9405 191.29 48.5205L186.9 53.1005L181.79 58.4405L176.78 63.6805C176.79 63.6805 172.49 68.2805 172.63 68.3605Z" fill="black"/>
<path opacity="0.1961" d="M172.55 68.2802C174.76 71.3702 177.24 72.3902 179.76 72.0902C182.27 71.7902 184.82 70.1802 187.21 67.9902C189.52 65.8802 191.68 63.2402 193.47 60.7502C195.33 57.9602 196.78 55.2902 197.66 53.6402C194.82 51.6802 192.33 49.8602 191.4 48.4102L187.01 53.0002L181.9 58.3402L176.88 63.5902C176.87 63.5902 172.48 68.2402 172.55 68.2802Z" fill="black"/>
<path opacity="0.2" d="M191.51 48.3003L181.99 58.2503L172.47 68.2003C174.69 71.3303 177.16 72.3803 179.67 72.0903C182.18 71.8103 184.74 70.1903 187.13 67.9903C191.91 63.5903 196.02 56.8503 197.78 53.7603C194.89 51.7503 192.45 49.7803 191.51 48.3003Z" fill="black"/>
</g>
<path d="M173.85 69.4103C173.85 69.4103 181.82 95.8203 179.42 120.03L180.22 118.77C182.23 94.9103 174.54 69.4103 174.54 69.4103L190.76 57.3403L190.51 57.0103L173.85 69.4103Z" fill="#D0D2D3"/>
<path d="M189.02 104.96L196.95 116.67C196.95 116.67 196.96 116.23 196.97 115.44L189.39 104.38L189.02 104.96Z" fill="#D0D2D3"/>
<path d="M177.32 64.8403L173.85 69.4103C177.42 71.2403 182.18 69.9803 182.18 69.9803C181.82 68.0803 177.32 64.8403 177.32 64.8403Z" fill="#929497"/>
<path d="M78.31 53.4501L89.84 66.2401C89.84 66.2401 145.14 26.5101 182.18 69.9801L202.51 52.2101C202.51 52.2101 144.6 -16.0699 78.31 53.4501Z" fill="white"/>
<path d="M88.45 64.7L89.84 66.24C89.84 66.24 145.14 26.51 182.18 69.98L191.34 61.97L183.52 68.6C146.69 26.71 92.36 62.07 88.45 64.7Z" fill="#D0D2D3"/>
<path d="M96.5 43.88C96.3 44.02 96.12 44.16 95.96 44.28C95.79 44.41 95.61 44.56 95.44 44.71C95.26 44.86 95.12 44.99 95.01 45.1C95.12 47.87 95.24 49.19 95.59 51.7C92.82 51.2 91.4 51.06 88.51 51C88.38 51.12 88.21 51.26 88.03 51.44C87.84 51.62 87.67 51.8 87.52 51.96C87.37 52.12 87.21 52.29 87.04 52.48C86.88 52.67 86.74 52.83 86.62 52.98C89.12 55.12 90.39 56.17 92.93 58.21C93.05 58.12 93.17 58.02 93.29 57.92C93.41 57.82 93.54 57.71 93.67 57.59C93.78 57.49 93.89 57.39 94 57.27C94.11 57.16 94.22 57.05 94.31 56.94C92.36 55.24 91.39 54.38 89.46 52.63C92.09 52.71 93.38 52.84 95.91 53.29C96.13 53.14 96.34 52.99 96.54 52.83C96.76 52.65 96.97 52.47 97.17 52.28C96.88 50 96.79 48.8 96.71 46.29C98.68 48.27 99.66 49.27 101.6 51.31C101.73 51.24 101.86 51.17 102 51.09C102.14 51.01 102.28 50.92 102.42 50.83C102.56 50.74 102.7 50.65 102.83 50.56C102.96 50.47 103.09 50.37 103.21 50.28C100.77 47.53 99.54 46.18 97.04 43.54C96.88 43.62 96.7 43.73 96.5 43.88Z" fill="#2E2266"/>
<path d="M108.24 40.1801C107.4 40.1501 106.32 40.4801 105.06 41.2101C104.58 41.4901 104.1 41.8001 103.62 42.1601C103.14 42.5101 102.37 43.0301 102.35 43.2101C102.34 43.3301 103.06 43.9001 103.26 43.8501C103.47 43.8001 103.9 43.2901 104.25 43.0301C104.6 42.7701 104.99 42.5101 105.43 42.2601C106.14 41.8601 106.73 41.6501 107.2 41.6401C107.67 41.6201 108.03 41.8601 108.27 42.3301C108.32 42.4201 108.34 42.4701 108.39 42.5601C108.21 42.6301 107.99 42.7201 107.73 42.8401C107.47 42.9601 107.15 43.1201 106.76 43.3301C106.24 43.6101 105.77 43.9301 105.35 44.2801C104.93 44.6301 104.59 44.9901 104.34 45.3501C104.09 45.7201 103.94 46.0801 103.89 46.4301C103.84 46.7901 103.93 47.1201 104.14 47.4201C104.35 47.7301 104.62 47.9501 104.94 48.0701C105.26 48.1901 105.62 48.2401 106.02 48.2101C106.42 48.1801 106.86 48.0901 107.35 47.9201C107.83 47.7501 108.35 47.5301 108.9 47.2601C109.49 46.9701 110.05 46.6601 110.58 46.3301C111.12 46.0001 111.57 45.7201 111.95 45.4701C111.21 43.8701 110.84 43.0701 110.1 41.4701C109.69 40.6601 109.08 40.2101 108.24 40.1801ZM109.14 45.9201C108.87 46.0801 108.6 46.2201 108.34 46.3601C108.13 46.4601 107.91 46.5701 107.67 46.6701C107.43 46.7701 107.2 46.8401 106.97 46.8701C106.74 46.9001 106.52 46.8901 106.32 46.8401C106.12 46.7801 105.94 46.6401 105.81 46.4201C105.59 46.0701 105.62 45.7101 105.9 45.3201C106.18 44.9301 106.69 44.5301 107.43 44.1401C107.62 44.0401 107.86 43.9301 108.14 43.8001C108.43 43.6701 108.66 43.5801 108.85 43.5001C109.25 44.2801 109.45 44.6801 109.85 45.4601C109.65 45.6101 109.41 45.7601 109.14 45.9201Z" fill="#2E2266"/>
<path d="M119.86 35.5102C119.18 35.2002 118.23 35.2402 117.04 35.6702C116.62 35.8202 116.25 36.0002 115.92 36.2102C115.6 36.4202 115.32 36.6402 115.09 36.8702C114.86 37.1002 114.68 37.3302 114.52 37.5602C114.37 37.8002 114.19 38.2202 114.18 38.2202C114.18 38.2202 114.04 37.8802 113.92 37.6702C113.8 37.4602 113.67 37.2002 113.61 37.1802C113.55 37.1602 113.32 37.2702 113.19 37.3102C113.06 37.3502 112.92 37.4102 112.78 37.4702C112.63 37.5302 112.5 37.6002 112.36 37.6702C112.22 37.7402 112.09 37.8102 111.95 37.9002C113.01 40.5902 113.53 41.9302 114.59 44.6202C114.73 44.5902 114.88 44.5502 115.04 44.5002C115.21 44.4502 115.35 44.4002 115.48 44.3502C115.61 44.3002 115.75 44.2502 115.91 44.1802C116.07 44.1102 116.2 44.0502 116.33 43.9902C115.84 42.5902 115.59 41.8902 115.1 40.4802C114.95 40.0602 114.9 39.6702 114.94 39.3102C114.98 38.9502 115.1 38.6302 115.28 38.3402C115.46 38.0502 115.7 37.8002 116 37.5902C116.3 37.3802 116.64 37.2002 117.01 37.0702C117.64 36.8502 118.15 36.8502 118.53 37.0702C118.9 37.2902 119.18 37.7502 119.35 38.4302C119.79 40.1402 120 41.0002 120.44 42.7102C120.58 42.6902 120.73 42.6702 120.89 42.6302C121.05 42.6002 121.2 42.5602 121.33 42.5302C121.46 42.5002 121.61 42.4502 121.78 42.4002C121.95 42.3502 122.09 42.3002 122.22 42.2402C121.8 40.3302 121.6 39.3702 121.18 37.4502C120.98 36.4802 120.54 35.8302 119.86 35.5102Z" fill="#2E2266"/>
<path d="M131.71 32.3703C131.24 32.5503 130.76 32.9503 130.59 32.9703C130.4 33.0003 129.77 32.7003 129.25 32.6503C128.73 32.6003 128.15 32.6403 127.52 32.7603C126.82 32.9003 126.21 33.1103 125.68 33.3803C125.16 33.6503 124.73 33.9503 124.41 34.2903C124.08 34.6303 123.86 34.9903 123.72 35.3703C123.59 35.7503 123.55 36.1303 123.62 36.5203C123.7 36.9803 123.9 37.3703 124.22 37.6803C124.54 37.9903 125.37 38.3003 125.38 38.3703C125.38 38.3703 124.81 38.9703 124.64 39.2903C124.48 39.6103 124.43 39.9603 124.49 40.3303C124.54 40.6203 124.66 40.8503 124.86 41.0203C125.06 41.1803 125.54 41.3703 125.55 41.4003C125.55 41.4003 124.85 42.0103 124.64 42.3903C124.43 42.7703 124.37 43.1703 124.44 43.5803C124.56 44.2703 124.96 44.7203 125.63 44.9403C126.3 45.1603 127.2 45.1903 128.37 45.0603C129.04 44.9803 129.65 44.8503 130.22 44.6703C130.78 44.4903 131.28 44.2603 131.69 43.9703C132.11 43.6903 132.44 43.3603 132.68 42.9903C132.92 42.6203 133.04 42.2003 133.04 41.7503C133.04 41.0603 132.79 40.5203 132.29 40.1703C131.79 39.8203 130.97 39.6903 129.87 39.8103C128.88 39.9203 128.38 39.9903 127.39 40.1403C126.83 40.2203 126.46 40.2103 126.28 40.1003C126.1 39.9903 126 39.8403 125.97 39.6603C125.94 39.4703 126 39.2703 126.15 39.0603C126.3 38.8603 126.49 38.6203 126.62 38.5803C126.9 38.5003 127.53 38.5603 128.05 38.4703C128.62 38.3803 129.15 38.2303 129.63 38.0303C130.11 37.8303 130.52 37.5803 130.87 37.2803C131.22 36.9803 131.48 36.6403 131.67 36.2603C131.86 35.8803 131.95 35.4603 131.94 35.0103C131.93 34.7303 131.89 34.4803 131.8 34.2703C131.71 34.0603 131.59 33.8703 131.43 33.7103C132.17 33.6103 132.55 33.5603 133.29 33.4803C133.32 33.3403 133.34 33.2103 133.35 33.0703C133.36 32.9403 133.37 32.8103 133.37 32.6903C133.37 32.4403 133.35 32.0403 133.28 32.0003C133.14 31.8903 132.18 32.1803 131.71 32.3703ZM126.32 41.9703C126.56 41.6703 126.95 41.4703 127.5 41.4003C128.33 41.2803 128.75 41.2303 129.58 41.1403C130.2 41.0703 130.63 41.1203 130.87 41.2703C131.11 41.4203 131.23 41.6603 131.25 41.9803C131.27 42.4103 131.02 42.7903 130.5 43.1303C129.99 43.4603 129.28 43.6803 128.35 43.8003C128.04 43.8403 127.75 43.8603 127.48 43.8603C127.22 43.8603 126.98 43.8303 126.78 43.7703C126.58 43.7103 126.41 43.6203 126.29 43.4903C126.16 43.3603 126.09 43.1903 126.05 42.9603C125.99 42.6003 126.08 42.2703 126.32 41.9703ZM129.48 36.5903C129.16 36.9603 128.65 37.2003 127.95 37.3203C127.25 37.4403 126.72 37.3803 126.34 37.1403C125.97 36.8903 125.75 36.5303 125.68 36.0503C125.61 35.5503 125.73 35.1103 126.04 34.7203C126.35 34.3303 126.88 34.0503 127.62 33.9103C128.36 33.7703 128.93 33.8303 129.31 34.1003C129.69 34.3703 129.89 34.7603 129.92 35.2803C129.96 35.7703 129.8 36.2103 129.48 36.5903Z" fill="#2E2266"/>
<path d="M143.17 32.6703C142.81 32.2403 142.33 31.9003 141.72 31.6603C141.11 31.4203 140.37 31.3103 139.52 31.3403C138.66 31.3703 137.91 31.5303 137.25 31.8103C136.6 32.0903 136.06 32.4603 135.63 32.8903C135.2 33.3303 134.88 33.8303 134.67 34.3903C134.46 34.9503 134.36 35.5503 134.35 36.1903C134.34 36.8203 134.43 37.4103 134.6 37.9403C134.78 38.4803 135.05 38.9303 135.41 39.3203C135.77 39.7103 136.22 40.0203 136.76 40.2403C137.3 40.4603 137.93 40.5803 138.66 40.6003C139.39 40.6103 140.04 40.5203 140.63 40.3103C141.21 40.1003 141.72 39.7903 142.16 39.3903C142.6 38.9903 142.96 38.5103 143.24 37.9403C143.52 37.3703 143.72 36.7503 143.84 36.0803C143.95 35.4103 143.96 34.7803 143.86 34.1903C143.76 33.6203 143.53 33.1103 143.17 32.6703ZM141.77 36.0103C141.63 37.0503 141.3 37.8503 140.81 38.4203C140.32 38.9903 139.65 39.2603 138.79 39.2503C137.93 39.2403 137.32 38.9603 136.94 38.4103C136.56 37.8503 136.39 37.0803 136.44 36.0703C136.49 35.0603 136.75 34.2703 137.23 33.6803C137.71 33.0903 138.44 32.7703 139.4 32.7503C140.36 32.7203 141.05 33.0003 141.43 33.5803C141.8 34.1503 141.91 34.9703 141.77 36.0103Z" fill="#2E2266"/>
<path d="M151.11 31.8001C149.77 31.6401 148.69 31.8001 147.9 32.2301C147.11 32.6501 146.64 33.2801 146.47 34.0901C146.35 34.7001 146.44 35.2001 146.75 35.5901C147.06 35.9801 147.6 36.3701 148.37 36.7601C148.62 36.8901 148.75 36.9601 149 37.0901C149.23 37.2001 149.44 37.3001 149.63 37.4101C149.82 37.5201 149.99 37.6401 150.12 37.7801C150.25 37.9101 150.34 38.0701 150.39 38.2401C150.44 38.4101 150.43 38.6201 150.36 38.8601C150.3 39.0801 150.18 39.2701 150.01 39.4201C149.84 39.5801 149.64 39.7001 149.42 39.7901C149.19 39.8801 148.94 39.9301 148.67 39.9501C148.39 39.9701 148.11 39.9601 147.83 39.9101C147.43 39.8501 147.04 39.7601 146.66 39.6301C146.27 39.5001 145.73 39.1601 145.61 39.1801C145.54 39.2001 145.32 39.6401 145.19 39.8701C145.06 40.1101 144.85 40.5001 144.89 40.5801C144.94 40.6901 145.63 40.9101 146.05 41.0401C146.47 41.1801 146.97 41.2901 147.54 41.3801C148.11 41.4701 148.64 41.4901 149.15 41.4301C149.66 41.3701 150.12 41.2401 150.53 41.0501C150.94 40.8501 151.3 40.5901 151.6 40.2601C151.9 39.9301 152.13 39.5301 152.27 39.0801C152.4 38.6801 152.45 38.3201 152.42 38.0101C152.39 37.7001 152.3 37.4201 152.16 37.1901C152.02 36.9501 151.83 36.7401 151.58 36.5601C151.34 36.3801 151.07 36.2201 150.78 36.0701C150.46 35.9101 150.3 35.8301 149.97 35.6701C149.75 35.5701 149.54 35.4601 149.35 35.3601C149.16 35.2601 149 35.1501 148.86 35.0301C148.72 34.9101 148.62 34.7701 148.56 34.6201C148.5 34.4601 148.49 34.2901 148.54 34.0801C148.63 33.6801 148.9 33.4301 149.33 33.3101C149.76 33.1901 150.24 33.1701 150.75 33.2301C151.24 33.2901 151.68 33.4001 152.08 33.5501C152.48 33.7001 152.97 34.0201 153.08 34.0001C153.17 33.9901 153.42 33.6001 153.57 33.3701C153.72 33.1401 153.98 32.7401 153.96 32.6601C153.92 32.5601 153.17 32.3001 152.67 32.1301C152.2 31.9801 151.66 31.8701 151.11 31.8001Z" fill="#2E2266"/>
<path d="M160.45 31.1601C160.38 31.1401 160.35 31.1401 160.28 31.1201C158.22 32.2101 157.23 32.7701 155.32 33.9101C155.32 34.0201 155.32 34.0701 155.32 34.1801C155.96 34.3001 156.29 34.3701 156.93 34.5101C156.15 36.6601 155.75 37.7301 154.97 39.8801C154.61 40.8801 154.59 41.6501 154.92 42.2101C155.24 42.7701 155.82 43.1801 156.66 43.4401C156.95 43.5301 157.23 43.6001 157.5 43.6601C157.77 43.7101 158.2 43.8201 158.3 43.7601C158.37 43.7201 158.48 43.3301 158.58 43.0701C158.68 42.8001 158.82 42.3201 158.77 42.2601C158.75 42.2301 158.43 42.2301 158.24 42.2101C158.05 42.1801 157.85 42.1401 157.64 42.0801C157.37 42.0001 157.17 41.9101 157.01 41.8001C156.86 41.6901 156.76 41.5401 156.73 41.3401C156.69 41.1401 156.71 40.8901 156.79 40.5701C156.87 40.2501 157.01 39.8301 157.22 39.3101C157.91 37.5801 158.25 36.7101 158.94 34.9801C160 35.2401 160.54 35.3801 161.59 35.6801C161.67 35.5601 161.75 35.4501 161.82 35.3301C161.89 35.2101 161.95 35.0801 162.01 34.9501C162.13 34.6901 162.2 34.4501 162.24 34.2201C161.16 33.9201 160.61 33.7801 159.52 33.5301C159.89 32.5701 160.07 32.1001 160.45 31.1601Z" fill="#2E2266"/>
<path d="M170.7 37.2201C170.29 36.7801 169.72 36.42 169 36.14C168.15 35.82 167.34 35.6901 166.58 35.7501C165.82 35.8001 165.13 35.9901 164.5 36.3101C163.87 36.6301 163.32 37.07 162.84 37.62C162.36 38.17 161.96 38.8001 161.62 39.5001C161.28 40.2201 161.07 40.9101 160.97 41.5701C160.87 42.2301 160.9 42.86 161.07 43.44C161.24 44.02 161.55 44.5501 161.99 45.0201C162.44 45.5001 163.05 45.9 163.84 46.26C164.38 46.5 164.89 46.6901 165.39 46.8201C165.88 46.9501 166.64 47.15 166.84 47.03C166.96 46.96 167.12 46.4901 167.23 46.2001C167.34 45.9101 167.47 45.47 167.42 45.42C167.29 45.27 165.63 45.16 164.8 44.8C163.86 44.38 163.27 43.85 163.03 43.17C162.79 42.49 162.91 41.6301 163.41 40.5901C166.03 41.5401 167.32 42.0901 169.85 43.3201C169.95 43.1901 170.06 43.03 170.2 42.85C170.33 42.67 170.46 42.4901 170.57 42.3101C170.97 41.6801 171.25 41.0601 171.41 40.4501C171.57 39.8301 171.59 39.25 171.48 38.71C171.37 38.16 171.1 37.6601 170.7 37.2201ZM169.4 40.0801C169.31 40.4401 169.16 40.7901 168.95 41.1301C167.05 40.2901 166.08 39.91 164.14 39.21C164.64 38.43 165.23 37.8801 165.9 37.5701C166.57 37.2701 167.32 37.2601 168.13 37.5701C168.54 37.7301 168.86 37.9401 169.07 38.2001C169.29 38.4601 169.42 38.7501 169.47 39.0601C169.52 39.3901 169.49 39.7301 169.4 40.0801Z" fill="#2E2266"/>
<path d="M180.08 41.3802C179.28 40.9202 178.48 40.6702 177.7 40.6102C176.92 40.5502 176.18 40.6502 175.48 40.9002C174.78 41.1502 174.14 41.5302 173.55 42.0402C172.96 42.5502 172.43 43.1502 171.96 43.8502C171.48 44.5602 171.13 45.2502 170.9 45.9402C170.67 46.6302 170.59 47.2802 170.64 47.9202C170.7 48.5602 170.91 49.1602 171.27 49.7202C171.63 50.2802 172.17 50.8002 172.9 51.2902C173.4 51.6202 173.89 51.9002 174.36 52.1002C174.84 52.3002 175.57 52.6202 175.79 52.5302C175.93 52.4802 176.18 52.0002 176.34 51.7102C176.51 51.4202 176.72 50.9702 176.69 50.9102C176.59 50.7502 174.92 50.3802 174.15 49.8702C173.28 49.3002 172.79 48.6502 172.67 47.9002C172.56 47.1502 172.84 46.2602 173.55 45.2302C176.02 46.6202 177.23 47.3802 179.57 49.0402C179.69 48.9202 179.84 48.7702 180.01 48.6002C180.18 48.4302 180.34 48.2502 180.48 48.0902C181.01 47.4902 181.41 46.8802 181.69 46.2502C181.97 45.6202 182.1 45.0202 182.09 44.4302C182.08 43.8402 181.9 43.2802 181.57 42.7502C181.27 42.2402 180.76 41.7702 180.08 41.3802ZM179.74 45.5902C179.58 45.9502 179.36 46.3002 179.08 46.6302C177.3 45.4702 176.4 44.9202 174.56 43.9102C175.22 43.1602 175.92 42.6702 176.65 42.4402C177.39 42.2202 178.15 42.3202 178.91 42.7702C179.3 43.0002 179.58 43.2702 179.75 43.5702C179.92 43.8802 180 44.2002 179.99 44.5402C179.98 44.8802 179.9 45.2302 179.74 45.5902Z" fill="#2E2266"/>
<path d="M190.07 48.51C189.66 48.35 189.26 48.26 188.87 48.22C188.48 48.18 188.09 48.2 187.72 48.25C187.34 48.3 186.7 48.49 186.69 48.48C186.69 48.48 187.11 48.03 187.36 47.71C187.61 47.39 187.95 47.02 187.94 46.93C187.94 46.87 187.72 46.69 187.62 46.6C187.52 46.5 187.4 46.4 187.26 46.3C187.13 46.2 186.99 46.11 186.85 46.03C186.71 45.95 186.56 45.87 186.41 45.79C183.05 49.36 181.37 51.14 178.01 54.71C178.1 54.82 178.2 54.94 178.33 55.07C178.46 55.2 178.57 55.3 178.68 55.39C178.79 55.48 178.91 55.58 179.06 55.68C179.2 55.78 179.34 55.87 179.47 55.94C181.24 54.15 182.13 53.26 183.9 51.48C184.43 50.94 184.95 50.53 185.46 50.25C185.97 49.97 186.46 49.8 186.92 49.74C187.38 49.68 187.81 49.71 188.22 49.83C188.62 49.95 188.99 50.15 189.31 50.42C189.86 50.88 190.05 51.42 189.88 52.01C189.71 52.6 189.18 53.28 188.3 54.07C186.08 56.04 184.97 57.03 182.76 59C182.84 59.12 182.93 59.25 183.04 59.39C183.15 59.53 183.26 59.65 183.36 59.75C183.46 59.85 183.58 59.97 183.72 60.09C183.86 60.21 183.99 60.31 184.11 60.4C186.61 58.29 187.87 57.23 190.37 55.12C191.64 54.05 192.38 53.02 192.54 52.03C192.71 51.04 192.27 50.09 191.24 49.22C190.87 48.9 190.48 48.67 190.07 48.51Z" fill="#2E2266"/>
<path d="M96.56 43.1303C96.36 43.2703 96.18 43.4103 96.02 43.5303C95.85 43.6603 95.67 43.8103 95.5 43.9603C95.32 44.1103 95.18 44.2403 95.07 44.3503C95.18 47.1203 95.3 48.4503 95.65 50.9503C92.88 50.4503 91.46 50.3103 88.57 50.2503C88.44 50.3603 88.27 50.5103 88.09 50.6903C87.9 50.8703 87.73 51.0503 87.58 51.2103C87.43 51.3703 87.27 51.5503 87.1 51.7303C86.94 51.9203 86.8 52.0803 86.68 52.2303C89.18 54.3703 90.45 55.4203 92.99 57.4603C93.11 57.3703 93.23 57.2703 93.35 57.1703C93.47 57.0703 93.6 56.9603 93.73 56.8403C93.84 56.7403 93.95 56.6303 94.06 56.5203C94.17 56.4103 94.28 56.3003 94.37 56.1903C92.42 54.4903 91.45 53.6303 89.52 51.8803C92.15 51.9603 93.44 52.0903 95.97 52.5403C96.19 52.3903 96.4 52.2403 96.6 52.0803C96.82 51.9003 97.03 51.7203 97.23 51.5303C96.94 49.2503 96.85 48.0503 96.77 45.5403C98.74 47.5203 99.72 48.5203 101.66 50.5603C101.79 50.4903 101.92 50.4203 102.06 50.3403C102.2 50.2603 102.34 50.1703 102.48 50.0803C102.62 49.9903 102.76 49.9003 102.89 49.8003C103.02 49.7103 103.15 49.6103 103.27 49.5203C100.83 46.7703 99.6 45.4203 97.1 42.7803C96.94 42.8703 96.76 42.9803 96.56 43.1303Z" fill="#473684"/>
<path d="M108.3 39.4301C107.46 39.4001 106.38 39.7301 105.12 40.4601C104.64 40.7401 104.16 41.0501 103.68 41.4101C103.2 41.7601 102.43 42.2801 102.41 42.4601C102.4 42.5801 103.12 43.1501 103.32 43.1001C103.53 43.0501 103.96 42.5401 104.31 42.2801C104.66 42.0201 105.05 41.7601 105.49 41.5101C106.2 41.1101 106.79 40.9001 107.26 40.8901C107.73 40.8701 108.09 41.1101 108.33 41.5801C108.38 41.6701 108.4 41.7201 108.45 41.8101C108.27 41.8801 108.05 41.9701 107.79 42.0901C107.53 42.2101 107.21 42.3701 106.82 42.5801C106.3 42.8601 105.83 43.1801 105.41 43.5301C104.99 43.8801 104.65 44.2401 104.4 44.6101C104.15 44.9801 104 45.3401 103.95 45.6901C103.9 46.0501 103.99 46.3801 104.2 46.6801C104.41 46.9901 104.68 47.2101 105 47.3301C105.32 47.4501 105.68 47.5001 106.08 47.4701C106.48 47.4401 106.92 47.3501 107.41 47.1801C107.89 47.0201 108.41 46.7901 108.96 46.5201C109.55 46.2301 110.11 45.9201 110.64 45.5901C111.18 45.2601 111.63 44.9801 112.01 44.7301C111.27 43.1301 110.9 42.3301 110.16 40.7301C109.75 39.9101 109.14 39.4601 108.3 39.4301ZM109.2 45.1701C108.93 45.3301 108.66 45.4801 108.4 45.6101C108.19 45.7101 107.97 45.8201 107.73 45.9201C107.49 46.0201 107.26 46.0901 107.03 46.1201C106.8 46.1501 106.58 46.1401 106.38 46.0901C106.18 46.0301 106 45.8901 105.87 45.6701C105.65 45.3201 105.68 44.9601 105.96 44.5701C106.24 44.1801 106.75 43.7801 107.49 43.3901C107.68 43.2901 107.92 43.1801 108.2 43.0501C108.49 42.9201 108.72 42.8201 108.91 42.7501C109.31 43.5301 109.51 43.9301 109.91 44.7101C109.71 44.8601 109.47 45.0101 109.2 45.1701Z" fill="#473684"/>
<path d="M119.92 34.76C119.24 34.44 118.29 34.49 117.1 34.92C116.68 35.07 116.31 35.25 115.98 35.46C115.66 35.67 115.38 35.89 115.15 36.12C114.92 36.35 114.74 36.58 114.58 36.81C114.43 37.05 114.25 37.47 114.24 37.47C114.24 37.47 114.1 37.13 113.98 36.92C113.86 36.71 113.73 36.45 113.67 36.43C113.61 36.41 113.38 36.52 113.25 36.56C113.12 36.6 112.98 36.66 112.84 36.72C112.69 36.78 112.56 36.85 112.42 36.92C112.28 36.99 112.15 37.06 112.01 37.15C113.07 39.84 113.59 41.18 114.65 43.87C114.79 43.84 114.94 43.8 115.1 43.75C115.27 43.7 115.42 43.65 115.54 43.6C115.67 43.55 115.81 43.5 115.97 43.43C116.13 43.36 116.26 43.3 116.39 43.24C115.9 41.84 115.65 41.14 115.16 39.73C115.01 39.31 114.96 38.92 115 38.56C115.04 38.2 115.16 37.88 115.34 37.59C115.52 37.3 115.76 37.05 116.06 36.84C116.36 36.63 116.7 36.45 117.07 36.32C117.7 36.09 118.21 36.1 118.59 36.32C118.96 36.54 119.23 37 119.41 37.68C119.85 39.39 120.06 40.25 120.5 41.96C120.64 41.94 120.79 41.92 120.95 41.89C121.11 41.86 121.26 41.82 121.39 41.79C121.52 41.76 121.67 41.71 121.84 41.66C122.01 41.61 122.15 41.56 122.28 41.5C121.86 39.59 121.66 38.63 121.24 36.71C121.04 35.73 120.6 35.08 119.92 34.76Z" fill="#473684"/>
<path d="M131.77 31.6201C131.3 31.8001 130.82 32.2001 130.65 32.2201C130.46 32.2501 129.83 31.9501 129.31 31.9001C128.79 31.8501 128.21 31.8901 127.58 32.0101C126.88 32.1501 126.27 32.3601 125.74 32.6301C125.22 32.9001 124.79 33.2001 124.47 33.5401C124.14 33.8801 123.92 34.2401 123.78 34.6201C123.65 35.0001 123.61 35.3801 123.68 35.7701C123.76 36.2301 123.96 36.6201 124.28 36.9301C124.6 37.2401 125.43 37.5501 125.44 37.6101C125.44 37.6101 124.87 38.2101 124.7 38.5301C124.54 38.8501 124.49 39.2001 124.55 39.5701C124.6 39.8601 124.72 40.0901 124.92 40.2601C125.12 40.4201 125.6 40.6101 125.61 40.6401C125.61 40.6401 124.91 41.2501 124.7 41.6301C124.49 42.0101 124.43 42.4101 124.5 42.8201C124.62 43.5101 125.02 43.9601 125.69 44.1801C126.36 44.4001 127.26 44.4301 128.43 44.3001C129.1 44.2201 129.71 44.1001 130.28 43.9101C130.84 43.7301 131.34 43.5001 131.75 43.2101C132.17 42.9301 132.5 42.6001 132.74 42.2301C132.98 41.8601 133.1 41.4501 133.1 40.9901C133.1 40.3001 132.85 39.7601 132.35 39.4101C131.85 39.0601 131.03 38.9301 129.93 39.0501C128.94 39.1601 128.44 39.2301 127.45 39.3801C126.89 39.4601 126.52 39.4501 126.34 39.3401C126.16 39.2301 126.06 39.0801 126.03 38.9001C126 38.7101 126.06 38.5101 126.21 38.3001C126.36 38.1001 126.55 37.8601 126.68 37.8201C126.96 37.7401 127.59 37.8001 128.11 37.7101C128.68 37.6201 129.21 37.4701 129.69 37.2701C130.17 37.0701 130.58 36.8201 130.93 36.5201C131.28 36.2201 131.54 35.8801 131.73 35.5001C131.92 35.1201 132.01 34.7001 132 34.2501C131.99 33.9701 131.95 33.7201 131.86 33.5101C131.77 33.3001 131.65 33.1201 131.49 32.9501C132.23 32.8501 132.61 32.8001 133.35 32.7201C133.38 32.5801 133.4 32.4501 133.41 32.3101C133.42 32.1801 133.43 32.0501 133.43 31.9301C133.43 31.6801 133.41 31.2901 133.34 31.2401C133.2 31.1401 132.24 31.4301 131.77 31.6201ZM126.38 41.2201C126.62 40.9201 127.01 40.7201 127.56 40.6501C128.39 40.5301 128.81 40.4801 129.64 40.3901C130.26 40.3301 130.69 40.3701 130.93 40.5201C131.17 40.6701 131.29 40.9101 131.31 41.2401C131.33 41.6701 131.08 42.0501 130.56 42.3901C130.05 42.7201 129.34 42.9401 128.41 43.0601C128.1 43.1001 127.81 43.1201 127.54 43.1201C127.28 43.1201 127.04 43.0901 126.84 43.0301C126.64 42.9701 126.47 42.8801 126.35 42.7501C126.22 42.6201 126.15 42.4501 126.11 42.2201C126.05 41.8501 126.14 41.5201 126.38 41.2201ZM129.54 35.8401C129.22 36.2101 128.71 36.4501 128.01 36.5701C127.31 36.6901 126.78 36.6301 126.41 36.3901C126.04 36.1401 125.82 35.7801 125.75 35.3001C125.68 34.8001 125.8 34.3601 126.11 33.9701C126.42 33.5801 126.95 33.3001 127.69 33.1601C128.43 33.0201 129 33.0801 129.38 33.3501C129.76 33.6201 129.96 34.0101 129.99 34.5301C130.01 35.0201 129.86 35.4601 129.54 35.8401Z" fill="#473684"/>
<path d="M143.23 31.93C142.87 31.5 142.39 31.16 141.78 30.92C141.17 30.68 140.43 30.57 139.58 30.6C138.72 30.63 137.97 30.79 137.31 31.07C136.66 31.35 136.12 31.71 135.69 32.15C135.26 32.59 134.94 33.09 134.73 33.65C134.52 34.21 134.42 34.81 134.41 35.45C134.4 36.08 134.49 36.67 134.66 37.2C134.84 37.73 135.11 38.1901 135.47 38.58C135.83 38.97 136.28 39.28 136.82 39.5C137.36 39.73 137.99 39.84 138.72 39.86C139.45 39.87 140.1 39.78 140.69 39.57C141.27 39.36 141.78 39.05 142.22 38.6501C142.66 38.2501 143.02 37.77 143.3 37.2C143.58 36.63 143.78 36.01 143.9 35.34C144.01 34.67 144.02 34.04 143.92 33.45C143.81 32.87 143.59 32.36 143.23 31.93ZM141.83 35.26C141.69 36.3 141.36 37.1 140.87 37.67C140.38 38.24 139.71 38.51 138.85 38.5C137.99 38.49 137.38 38.21 137 37.66C136.62 37.1 136.45 36.33 136.5 35.32C136.55 34.31 136.81 33.52 137.29 32.93C137.77 32.34 138.5 32.02 139.46 31.99C140.42 31.96 141.11 32.24 141.49 32.82C141.86 33.4 141.97 34.22 141.83 35.26Z" fill="#473684"/>
<path d="M151.17 31.0501C149.83 30.8901 148.75 31.0501 147.96 31.4801C147.17 31.9101 146.7 32.5301 146.53 33.3401C146.41 33.9501 146.5 34.4501 146.81 34.8401C147.12 35.2401 147.66 35.6201 148.43 36.0101C148.68 36.1401 148.81 36.2001 149.06 36.3401C149.29 36.4501 149.5 36.5501 149.69 36.6601C149.88 36.7701 150.05 36.8901 150.18 37.0301C150.31 37.1601 150.4 37.3201 150.45 37.4901C150.5 37.6601 150.49 37.8701 150.42 38.1101C150.36 38.3301 150.24 38.5201 150.07 38.6701C149.9 38.8301 149.7 38.9501 149.48 39.0401C149.25 39.1301 149 39.1801 148.73 39.2001C148.45 39.2201 148.17 39.2101 147.89 39.1601C147.49 39.1001 147.1 39.0101 146.72 38.8801C146.33 38.7501 145.79 38.4101 145.67 38.4301C145.6 38.4501 145.38 38.8901 145.25 39.1201C145.12 39.3601 144.91 39.7501 144.95 39.8301C145 39.9401 145.69 40.1601 146.11 40.2901C146.53 40.4301 147.03 40.5401 147.6 40.6301C148.17 40.7201 148.7 40.7401 149.21 40.6801C149.72 40.6201 150.18 40.4901 150.59 40.3001C151 40.1001 151.36 39.8401 151.66 39.5101C151.96 39.1801 152.19 38.7801 152.33 38.3301C152.46 37.9301 152.51 37.5701 152.48 37.2601C152.45 36.9501 152.36 36.6701 152.22 36.4401C152.08 36.2001 151.89 35.9901 151.64 35.8101C151.4 35.6301 151.13 35.4701 150.84 35.3201C150.52 35.1601 150.36 35.0801 150.03 34.9201C149.81 34.8201 149.6 34.7101 149.41 34.6101C149.22 34.5101 149.06 34.4001 148.92 34.2801C148.78 34.1601 148.68 34.0201 148.62 33.8701C148.56 33.7101 148.55 33.5401 148.6 33.3301C148.69 32.9301 148.96 32.6801 149.39 32.5601C149.82 32.4501 150.3 32.4201 150.81 32.4801C151.3 32.5401 151.74 32.6501 152.14 32.8001C152.54 32.9501 153.03 33.2701 153.14 33.2501C153.23 33.2401 153.48 32.8501 153.63 32.6201C153.78 32.3901 154.04 31.9901 154.02 31.9101C153.98 31.8101 153.23 31.5501 152.73 31.3801C152.26 31.2301 151.72 31.1201 151.17 31.0501Z" fill="#473684"/>
<path d="M160.51 30.4101C160.44 30.3901 160.41 30.3901 160.34 30.3701C158.28 31.4601 157.29 32.0201 155.38 33.1601C155.38 33.2701 155.38 33.3201 155.38 33.4301C156.02 33.5501 156.35 33.6201 156.99 33.7601C156.21 35.9101 155.81 36.9801 155.03 39.1301C154.67 40.1301 154.65 40.9001 154.98 41.4601C155.3 42.0201 155.88 42.4301 156.72 42.6901C157.01 42.7801 157.29 42.8501 157.56 42.9101C157.83 42.9601 158.26 43.0701 158.36 43.0101C158.43 42.9701 158.54 42.5801 158.64 42.3201C158.74 42.0501 158.88 41.5701 158.83 41.5101C158.81 41.4801 158.49 41.4801 158.3 41.4601C158.11 41.4301 157.91 41.3901 157.7 41.3301C157.43 41.2501 157.23 41.1601 157.07 41.0501C156.92 40.9401 156.82 40.7901 156.79 40.5901C156.75 40.3901 156.77 40.1401 156.85 39.8201C156.93 39.5001 157.07 39.0801 157.28 38.5601C157.97 36.8301 158.31 35.9601 159 34.2301C160.06 34.4901 160.6 34.6301 161.65 34.9301C161.73 34.8101 161.81 34.7001 161.88 34.5801C161.95 34.4601 162.01 34.3301 162.07 34.2001C162.19 33.9401 162.26 33.7001 162.3 33.4701C161.22 33.1701 160.67 33.0301 159.58 32.7801C159.95 31.8201 160.13 31.3501 160.51 30.4101Z" fill="#473684"/>
<path d="M170.76 36.4702C170.35 36.0302 169.78 35.6702 169.06 35.3902C168.21 35.0702 167.4 34.9502 166.64 35.0002C165.88 35.0502 165.19 35.2402 164.56 35.5602C163.93 35.8802 163.38 36.3202 162.9 36.8702C162.42 37.4202 162.02 38.0502 161.68 38.7502C161.34 39.4702 161.13 40.1602 161.03 40.8202C160.93 41.4802 160.96 42.1102 161.13 42.6902C161.3 43.2702 161.61 43.8002 162.05 44.2702C162.5 44.7402 163.11 45.1502 163.9 45.5102C164.44 45.7502 164.95 45.9402 165.45 46.0702C165.94 46.2002 166.7 46.4002 166.9 46.2802C167.02 46.2102 167.18 45.7402 167.29 45.4502C167.4 45.1602 167.53 44.7202 167.48 44.6702C167.35 44.5202 165.69 44.4102 164.86 44.0402C163.92 43.6302 163.33 43.0902 163.09 42.4102C162.85 41.7302 162.97 40.8702 163.47 39.8302C166.09 40.7802 167.38 41.3302 169.91 42.5602C170.01 42.4302 170.12 42.2702 170.26 42.0902C170.39 41.9102 170.52 41.7302 170.63 41.5502C171.03 40.9202 171.31 40.3102 171.47 39.6902C171.63 39.0702 171.65 38.4902 171.54 37.9502C171.43 37.4102 171.16 36.9102 170.76 36.4702ZM169.46 39.3302C169.37 39.6902 169.22 40.0402 169.01 40.3802C167.11 39.5402 166.14 39.1602 164.2 38.4602C164.7 37.6802 165.29 37.1302 165.96 36.8202C166.63 36.5202 167.38 36.5102 168.19 36.8202C168.6 36.9802 168.92 37.1902 169.13 37.4502C169.35 37.7102 169.48 38.0002 169.53 38.3102C169.57 38.6402 169.55 38.9802 169.46 39.3302Z" fill="#473684"/>
<path d="M180.14 40.6302C179.34 40.1702 178.54 39.9202 177.76 39.8602C176.98 39.8002 176.24 39.9002 175.54 40.1502C174.84 40.4002 174.2 40.7802 173.61 41.2902C173.02 41.8002 172.49 42.4002 172.02 43.1002C171.54 43.8102 171.19 44.5002 170.96 45.1902C170.73 45.8802 170.65 46.5302 170.7 47.1702C170.76 47.8102 170.97 48.4102 171.33 48.9702C171.69 49.5302 172.23 50.0502 172.96 50.5402C173.46 50.8802 173.95 51.1502 174.42 51.3502C174.9 51.5602 175.63 51.8702 175.85 51.7802C175.99 51.7302 176.24 51.2502 176.41 50.9602C176.57 50.6702 176.79 50.2202 176.76 50.1602C176.66 50.0002 174.99 49.6202 174.22 49.1202C173.35 48.5502 172.86 47.9002 172.74 47.1502C172.63 46.4002 172.91 45.5102 173.62 44.4802C176.09 45.8702 177.3 46.6302 179.64 48.2902C179.76 48.1702 179.91 48.0202 180.08 47.8502C180.25 47.6802 180.41 47.5002 180.55 47.3402C181.08 46.7402 181.48 46.1302 181.76 45.5002C182.04 44.8802 182.17 44.2702 182.16 43.6802C182.15 43.0902 181.97 42.5302 181.64 42.0002C181.33 41.4902 180.82 41.0202 180.14 40.6302ZM179.8 44.8402C179.64 45.2002 179.42 45.5502 179.14 45.8802C177.36 44.7202 176.46 44.1702 174.62 43.1602C175.28 42.4102 175.98 41.9102 176.71 41.6902C177.45 41.4702 178.21 41.5702 178.97 42.0202C179.36 42.2502 179.64 42.5202 179.81 42.8202C179.98 43.1302 180.06 43.4502 180.05 43.7902C180.04 44.1302 179.96 44.4802 179.8 44.8402Z" fill="#473684"/>
<path d="M190.13 47.76C189.72 47.6 189.32 47.51 188.93 47.47C188.54 47.43 188.15 47.45 187.78 47.5C187.4 47.55 186.76 47.74 186.75 47.73C186.75 47.73 187.17 47.28 187.42 46.96C187.67 46.64 188.01 46.27 188 46.18C188 46.12 187.78 45.94 187.68 45.85C187.58 45.75 187.46 45.65 187.32 45.55C187.19 45.45 187.05 45.36 186.91 45.28C186.77 45.2 186.62 45.12 186.47 45.04C183.11 48.61 181.43 50.39 178.07 53.96C178.16 54.07 178.26 54.19 178.39 54.32C178.52 54.45 178.63 54.55 178.74 54.64C178.85 54.73 178.97 54.83 179.12 54.93C179.26 55.03 179.4 55.12 179.53 55.19C181.3 53.4 182.19 52.51 183.96 50.73C184.49 50.19 185.01 49.78 185.52 49.5C186.03 49.22 186.52 49.05 186.98 48.98C187.44 48.92 187.87 48.95 188.28 49.07C188.68 49.19 189.05 49.39 189.37 49.66C189.92 50.12 190.11 50.66 189.94 51.25C189.77 51.84 189.24 52.52 188.36 53.31C186.14 55.28 185.03 56.27 182.82 58.24C182.9 58.36 182.99 58.49 183.1 58.63C183.21 58.77 183.32 58.89 183.42 58.99C183.52 59.09 183.64 59.21 183.78 59.33C183.92 59.45 184.05 59.55 184.18 59.64C186.68 57.53 187.94 56.47 190.44 54.36C191.71 53.29 192.45 52.26 192.61 51.27C192.78 50.28 192.34 49.33 191.31 48.46C190.92 48.15 190.53 47.92 190.13 47.76Z" fill="#473684"/>
</svg>
