<svg width="190" height="177" viewBox="0 0 190 177" fill="none" xmlns="http://www.w3.org/2000/svg">
<g clip-path="url(#clip0_174_5815)">
<path opacity="0.2" d="M88.66 146.18C61.55 144.87 6.35001 149 6.35001 149C-0.239988 149.46 5.02001 153.03 16.13 154.74C27.24 156.45 76.9 154.67 91.6 154.67C106.3 154.67 140.93 155.32 144.2 152.76C147.47 150.19 115.78 147.48 88.66 146.18Z" fill="black"/>
<path opacity="0.2" d="M63.97 147.91C50.71 149.18 16.91 149.54 14.19 149.54C11.46 149.54 4.6 150.19 12.01 151.54C12.01 151.54 27.45 155.35 47.98 153.9C68.51 152.45 95.77 153.36 94.86 151.54C93.95 149.73 77.23 146.64 63.97 147.91Z" fill="black"/>
<path d="M122.92 41.9698C122.92 41.9698 88.29 13.0198 58.45 30.5798C28.6 48.1398 53.25 98.6498 17.65 109.61C17.65 109.61 -7.08002 118.71 1.99998 138.41C13.44 163.25 83.31 156.27 119.57 114.02C155.84 71.7598 132.73 49.5698 122.92 41.9698Z" fill="#C9BA0A"/>
<path d="M122.92 41.9698C122.92 41.9698 113.8 34.3498 100.89 29.2998C100.89 29.2998 115.93 81.7998 62.8 108.85C9.65996 135.89 -3.74004 135.9 4.14996 119.05C0.349959 123.7 -1.82004 130.12 1.99996 138.42C13.44 163.26 83.31 156.28 119.57 114.03C155.84 71.7598 132.73 49.5698 122.92 41.9698Z" fill="#AD9D04"/>
<path opacity="0.3" d="M122.92 41.9697C122.92 41.9697 140.16 87.4897 96.97 112.64C53.8 137.78 31.22 161.66 4.56 142.39C21.41 162.32 85.41 153.84 119.57 114.02C155.84 71.7597 132.73 49.5697 122.92 41.9697Z" fill="#736805"/>
<path opacity="0.3" d="M58.45 30.5797C55.8 32.1397 53.58 33.9597 51.71 35.9897C62.82 27.0297 78.14 32.9197 88.96 35.3197C99.79 37.7197 112.06 37.7297 112.06 37.7297L114.43 36.0597C102.3 28.6597 79.22 18.3597 58.45 30.5797Z" fill="#474702"/>
<path opacity="0.3" d="M122.92 41.97C122.92 41.97 110.81 31.85 94.75 27.21C94.75 27.21 100.71 41.7 115.48 45.26C130.25 48.82 135.73 56.97 135.73 56.97C132.15 49.72 126.6 44.82 122.92 41.97Z" fill="#474702"/>
<path opacity="0.3" d="M111.06 35.0798C106.64 31.8098 104.55 30.8398 104.55 30.8398C104.55 30.8398 105.28 37.7298 111.06 39.3298C116.84 40.9198 115.48 38.3498 111.06 35.0798Z" fill="#474702"/>
<path d="M116.24 22.9898C112.45 33.1498 105.08 33.0998 105.08 33.0998C106.87 38.6198 112.05 37.7398 112.05 37.7398C112.05 27.1798 126.79 21.4098 125.8 18.0198C124.81 14.6198 120.02 12.8298 116.24 22.9898Z" fill="#2B4922"/>
<path d="M123.62 15.4996C123.62 15.4996 120.76 15.4296 120.56 16.7896C120.35 18.1496 124.69 21.3396 124.99 19.0996C125.28 16.8796 124.85 15.9796 123.62 15.4996Z" fill="#C1DC83"/>
<path d="M110.21 32.9998C109.21 33.4098 107.2 33.9198 105.58 34.2898C106.88 36.8798 109.04 37.5798 110.51 37.7398C111.48 35.7698 111.7 32.3898 110.21 32.9998Z" fill="#1F3517"/>
<path opacity="0.2" d="M110.5 31.06C110.5 31.06 110.77 30.86 113.85 29.3C116.93 27.74 116.87 23.31 116.87 23.31L116.12 23.27C114.58 27.28 112.47 29.66 110.5 31.06Z" fill="black"/>
<path d="M90.68 0.649859C64.03 -3.62014 51.21 14.5499 51.21 14.5499C63.42 11.8999 77.25 22.7199 77.25 22.7199C102.48 41.7399 116.88 23.8499 116.88 23.8499C116.88 23.8499 117.34 4.91986 90.68 0.649859Z" fill="#3B7027"/>
<path d="M52.35 14.2798C55.38 12.9298 89.1 -1.23018 116.88 23.8598C116.88 23.8498 92.04 -4.22018 52.35 14.2798Z" fill="#224514"/>
<path d="M52.3499 14.2798C52.1999 14.3398 52.1299 14.3798 52.1299 14.3798C52.1999 14.3398 52.2699 14.3098 52.3499 14.2798Z" fill="#224514"/>
<path d="M91.45 28C106.07 28.38 111.48 19.5 111.48 19.5C104.02 27.4 91.45 28 91.45 28Z" fill="#224514"/>
<path d="M103.84 14.9097C103.84 14.9097 98.3299 20.5497 84.4999 20.8897C84.4999 20.8997 98.8399 21.6597 103.84 14.9097Z" fill="#224514"/>
<path d="M91.98 11.7998C90.38 13.0998 86.25 15.3398 76.36 15.9098C76.37 15.9098 86.9 16.4098 91.98 11.7998Z" fill="#224514"/>
<path d="M92.89 10.8501C92.61 11.1901 92.31 11.5001 91.98 11.8001C92.67 11.2401 92.89 10.8501 92.89 10.8501Z" fill="#224514"/>
<path d="M69.34 13.71C69.06 13.72 68.78 13.74 68.47 13.73C68.47 13.74 68.81 13.76 69.34 13.71Z" fill="#224514"/>
<path d="M76.37 9.11C74.06 12.83 70.87 13.58 69.35 13.71C75.84 13.44 76.66 8.64 76.37 9.11Z" fill="#224514"/>
<path d="M70.94 3.92969C70.32 4.02969 69.98 4.18969 69.98 4.18969C70.31 4.06969 70.62 3.99969 70.94 3.92969Z" fill="#224514"/>
<path d="M70.9399 3.93007C72.5399 3.67007 76.1299 3.80007 81.3699 8.03007C81.3699 8.02007 77.6399 2.32007 70.9399 3.93007Z" fill="#224514"/>
<path d="M96.79 11.4101C96.79 11.4101 96.78 11.1801 96.72 10.8101C96.74 11.0101 96.77 11.2001 96.79 11.4101Z" fill="#224514"/>
<path d="M87.5099 3.14006C94.4699 3.94006 96.2099 8.40006 96.6499 10.4101C95.3199 2.26006 87.5099 3.14006 87.5099 3.14006Z" fill="#224514"/>
<path d="M96.64 10.4097C96.66 10.5497 96.7 10.6697 96.72 10.8097C96.7 10.6897 96.67 10.5597 96.64 10.4097Z" fill="#224514"/>
<path d="M103.84 7.25977C103.84 7.25977 107.63 9.76976 107.78 16.4798C107.78 16.4798 109.16 9.40977 103.84 7.25977Z" fill="#224514"/>
<path opacity="0.2" d="M102.51 8.01968C87.45 -0.910322 63.72 10.6997 63.72 10.6997C67.49 9.75968 76.37 13.6997 88.74 22.1697C101.11 30.6397 114.37 21.6897 114.37 21.6897C114.37 21.6897 117.56 16.9497 102.51 8.01968Z" fill="black"/>
<path d="M51.21 14.5499C51.34 14.5199 51.48 14.4999 51.61 14.4799C54.47 11.4899 72.4 -5.60014 100.74 3.61986C101.42 3.83986 102.08 4.04986 102.72 4.24986C99.49 2.69986 95.55 1.42986 90.68 0.649859C64.03 -3.62014 51.21 14.5499 51.21 14.5499Z" fill="#2C6614"/>
<path opacity="0.3" d="M65.24 37.7796C65.24 37.7796 54.4 34.4296 51.71 50.9396C49.02 67.4396 48.68 77.2096 53.74 76.1996C58.79 75.1896 80.78 40.4596 65.24 37.7796Z" fill="white"/>
<path opacity="0.3" d="M57.98 44.2799C55.77 48.3599 55.77 54.4899 58.83 54.9999C61.89 55.5099 68.89 46.5599 65.23 42.0799C65.24 42.0899 60.19 40.1999 57.98 44.2799Z" fill="white"/>
<path opacity="0.2" d="M149.91 145.92C139.92 143.34 87 150.4 73.95 155.55C60.9 160.7 32.87 165.45 32.87 165.45L31.02 166.08C31.02 166.08 75.9799 180.16 102.84 174.66C129.7 169.15 130.6 166.49 137.24 163.44C143.88 160.4 147.5 157.13 155.95 154.24C164.39 151.35 159.89 148.5 149.91 145.92Z" fill="black"/>
<path opacity="0.2" d="M147.49 147.61C119.13 144.18 32.8699 165.45 32.8699 165.45C32.8699 165.45 61.6599 173.32 86.5399 175.94C111.42 178.56 119.43 167.34 122.75 166.09C126.07 164.84 116.11 165.53 121.05 164.13C125.99 162.73 136.33 157.69 139.24 155.49C142.16 153.29 146.28 155.58 152.92 153.6C159.56 151.61 147.49 147.61 147.49 147.61Z" fill="black"/>
<path d="M109.76 132.26C83.6699 134.86 66.7799 142.76 66.7799 142.76L65.6899 145.15C65.6899 145.15 102.79 154.71 118.64 154.35C134.49 153.99 150.76 152.91 153.87 143.17C153.87 143.17 135.84 129.66 109.76 132.26Z" fill="#DDB300"/>
<path d="M109.76 132.26C85.9499 134.63 69.7999 141.42 67.1699 142.59C73.2099 140.89 97.9499 134.13 108.99 134.14C121.07 134.15 143.15 137.4 152.59 145.78C153.13 144.99 153.57 144.12 153.87 143.17C153.87 143.17 135.84 129.66 109.76 132.26Z" fill="#C6A206"/>
<path opacity="0.3" d="M137.86 143.86C116.92 147.85 69.47 143.14 69.47 143.14L68.15 144.33C68.15 144.33 81.09 148.14 86.21 148.82C91.16 149.48 119.21 155.19 134.49 150.58C143.52 147.85 144.88 142.53 137.86 143.86Z" fill="white"/>
<path d="M95.08 141.57C68.99 144.17 52.0999 152.07 52.0999 152.07L51.0099 154.46C51.0099 154.46 88.1099 164.02 103.96 163.66C119.81 163.3 136.08 162.22 139.19 152.48C139.19 152.48 121.17 138.97 95.08 141.57Z" fill="#DDB300"/>
<path d="M95.0799 141.57C71.2699 143.94 55.1199 150.73 52.4899 151.9C58.5299 150.2 83.2699 143.44 94.3099 143.45C106.39 143.46 128.47 146.71 137.91 155.09C138.45 154.3 138.89 153.43 139.19 152.48C139.19 152.48 121.17 138.97 95.0799 141.57Z" fill="#C6A206"/>
<path opacity="0.3" d="M123.19 153.18C102.25 157.17 54.8 152.46 54.8 152.46L53.48 153.65C53.48 153.65 66.42 157.46 71.54 158.14C76.49 158.8 104.54 164.51 119.82 159.9C128.84 157.16 130.2 151.84 123.19 153.18Z" fill="white"/>
<path d="M76.9399 152.56C50.8499 155.16 33.9599 163.06 33.9599 163.06L32.8699 165.45C32.8699 165.45 69.9699 175.01 85.8199 174.65C101.67 174.29 117.94 173.21 121.05 163.47C121.05 163.47 103.03 149.96 76.9399 152.56Z" fill="#DDB300"/>
<path d="M76.9399 152.56C53.1299 154.93 36.9799 161.72 34.3499 162.89C40.3899 161.19 65.1299 154.43 76.1699 154.44C88.2499 154.45 110.33 157.7 119.77 166.08C120.31 165.29 120.75 164.42 121.05 163.47C121.05 163.47 103.03 149.96 76.9399 152.56Z" fill="#C6A206"/>
<path opacity="0.3" d="M105.05 164.16C84.11 168.15 36.66 163.44 36.66 163.44L35.34 164.63C35.34 164.63 48.28 168.44 53.4 169.12C58.35 169.78 86.4 175.49 101.68 170.88C110.7 168.15 112.06 162.83 105.05 164.16Z" fill="white"/>
<path d="M177.02 113C156.62 107.42 152.1 128.39 152.1 128.39C152.1 128.39 159.51 137.89 174.55 138.57C189.6 139.24 197.42 118.58 177.02 113Z" fill="white"/>
<mask id="mask0_174_5815" style="mask-type:luminance" maskUnits="userSpaceOnUse" x="152" y="112" width="38" height="27">
<path d="M152.1 128.39C152.1 128.39 159.51 137.89 174.55 138.57C189.59 139.24 197.42 118.59 177.02 113.01C156.62 107.42 152.1 128.39 152.1 128.39Z" fill="white"/>
</mask>
<g mask="url(#mask0_174_5815)">
<path opacity="0.01" d="M150.55 128.63C150.58 128.66 151.29 131.37 155.83 133.49C157.52 134.28 159.44 134.35 161.49 133.91C165.07 133.14 169.03 130.82 172.79 127.97C178.68 123.52 184.09 117.81 186.71 114.85C180.66 111.56 174.07 107.61 172.08 104.95C172.01 104.91 167.74 109.6 167.71 109.56L161.3 116.68L159.14 119.07L150.55 128.63Z" fill="black"/>
<path opacity="0.01" d="M150.55 128.63C150.61 128.7 151.34 131.37 155.82 133.47C157.5 134.25 159.42 134.33 161.46 133.89C165.02 133.13 168.96 130.81 172.69 127.96C178.51 123.55 183.85 117.88 186.46 114.92C180.57 111.63 174.14 107.69 172.21 105.04C172.07 104.95 167.86 109.53 167.81 109.46L161.37 116.61L159.2 119.01L150.55 128.63Z" fill="black"/>
<path opacity="0.0118" d="M150.55 128.63C150.64 128.73 151.38 131.38 155.8 133.44C157.48 134.22 159.38 134.3 161.41 133.87C164.96 133.11 168.87 130.79 172.58 127.95C178.33 123.58 183.6 117.96 186.19 115C180.46 111.71 174.2 107.78 172.33 105.15C172.11 105.02 167.96 109.48 167.89 109.38L161.41 116.57L159.23 118.99L150.55 128.63Z" fill="black"/>
<path opacity="0.0157" d="M150.55 128.63C150.67 128.77 151.42 131.38 155.78 133.41C157.45 134.19 159.35 134.27 161.37 133.84C164.9 133.09 168.79 130.77 172.48 127.93C178.15 123.58 183.36 118.03 185.94 115.07C180.37 111.77 174.27 107.86 172.47 105.24C172.18 105.07 168.09 109.41 167.99 109.28L161.48 116.5L159.29 118.93L150.55 128.63Z" fill="black"/>
<path opacity="0.0196" d="M150.55 128.63C150.69 128.8 151.47 131.38 155.76 133.39C157.43 134.17 159.32 134.24 161.32 133.82C164.84 133.07 168.7 130.75 172.36 127.92C177.95 123.6 183.1 118.11 185.66 115.15C180.26 111.85 174.32 107.95 172.57 105.34C172.21 105.12 168.17 109.35 168.05 109.19L161.51 116.45L159.31 118.89L150.55 128.63Z" fill="black"/>
<path opacity="0.0235" d="M150.55 128.63C150.72 128.84 151.51 131.39 155.75 133.36C157.41 134.13 159.29 134.21 161.28 133.79C164.78 133.05 168.62 130.73 172.26 127.9C177.78 123.62 182.87 118.18 185.41 115.22C180.17 111.91 174.4 108.03 172.71 105.44C172.28 105.18 168.3 109.29 168.15 109.1L161.58 116.39L159.37 118.84L150.55 128.63Z" fill="black"/>
<path opacity="0.0275" d="M150.55 128.63C150.75 128.87 151.56 131.39 155.73 133.34C157.39 134.11 159.26 134.19 161.24 133.77C164.73 133.03 168.53 130.72 172.15 127.89C177.59 123.64 182.62 118.26 185.14 115.3C180.06 111.99 174.45 108.12 172.83 105.54C172.32 105.24 168.41 109.23 168.23 109L161.63 116.33L159.41 118.8L150.55 128.63Z" fill="black"/>
<path opacity="0.0314" d="M150.55 128.63C150.78 128.91 151.6 131.39 155.71 133.31C157.37 134.08 159.23 134.16 161.19 133.74C164.67 133.01 168.44 130.69 172.04 127.87C177.41 123.66 182.37 118.33 184.87 115.37C179.95 112.06 174.51 108.2 172.94 105.63C172.36 105.28 168.5 109.16 168.3 108.9L161.66 116.27L159.43 118.75L150.55 128.63Z" fill="black"/>
<path opacity="0.0353" d="M150.55 128.63C150.81 128.94 151.64 131.4 155.7 133.28C157.35 134.04 159.2 134.13 161.16 133.72C164.62 132.99 168.37 130.68 171.95 127.86C177.25 123.68 182.14 118.41 184.63 115.44C179.87 112.12 174.59 108.28 173.09 105.73C172.44 105.34 168.64 109.11 168.41 108.81L161.74 116.21L159.5 118.7L150.55 128.63Z" fill="black"/>
<path opacity="0.0392" d="M150.55 128.63C150.84 128.97 151.69 131.4 155.68 133.26C157.33 134.02 159.17 134.11 161.11 133.7C164.56 132.98 168.28 130.67 171.83 127.85C177.05 123.71 181.88 118.49 184.35 115.52C179.76 112.2 174.64 108.37 173.19 105.83C172.47 105.4 168.73 109.05 168.48 108.72L161.78 116.16L159.53 118.66L150.55 128.63Z" fill="black"/>
<path opacity="0.0431" d="M150.55 128.63C150.87 129.01 151.73 131.4 155.66 133.23C157.3 133.99 159.14 134.07 161.07 133.67C164.5 132.95 168.2 130.65 171.73 127.83C176.88 123.72 181.65 118.56 184.1 115.59C179.67 112.26 174.72 108.44 173.33 105.92C172.54 105.44 168.85 108.98 168.58 108.62L161.85 116.09L159.58 118.6L150.55 128.63Z" fill="black"/>
<path opacity="0.0471" d="M150.55 128.63C150.9 129.04 151.78 131.41 155.64 133.2C157.28 133.96 159.1 134.04 161.02 133.64C164.44 132.93 168.11 130.62 171.61 127.82C176.69 123.75 181.39 118.64 183.82 115.67C179.55 112.34 174.76 108.53 173.44 106.03C172.57 105.51 168.95 108.93 168.65 108.54L161.89 116.05L159.61 118.58L150.55 128.63Z" fill="black"/>
<path opacity="0.051" d="M150.55 128.63C150.93 129.08 151.82 131.41 155.63 133.18C157.27 133.93 159.08 134.02 160.99 133.62C164.39 132.91 168.04 130.61 171.52 127.81C176.52 123.78 181.16 118.72 183.58 115.75C179.47 112.42 174.85 108.62 173.58 106.13C172.64 105.57 169.07 108.87 168.75 108.44L161.96 115.98L159.67 118.52L150.55 128.63Z" fill="black"/>
<path opacity="0.0549" d="M150.55 128.63C150.95 129.11 151.87 131.41 155.61 133.15C157.24 133.9 159.05 133.99 160.94 133.59C164.33 132.88 167.95 130.59 171.41 127.79C176.34 123.79 180.91 118.78 183.31 115.82C179.36 112.48 174.91 108.7 173.7 106.22C172.69 105.62 169.18 108.8 168.83 108.34L162 115.92L159.7 118.47L150.55 128.63Z" fill="black"/>
<path opacity="0.0588" d="M150.55 128.63C150.98 129.15 151.91 131.42 155.59 133.12C157.22 133.87 159.01 133.96 160.89 133.57C164.27 132.87 167.86 130.57 171.29 127.78C176.14 123.82 180.65 118.86 183.04 115.89C179.26 112.55 174.96 108.78 173.81 106.32C172.73 105.67 169.28 108.74 168.9 108.25L162.04 115.86L159.73 118.42L150.55 128.63Z" fill="black"/>
<path opacity="0.0627" d="M150.55 128.63C151.01 129.18 151.95 131.43 155.57 133.1C157.19 133.85 158.98 133.94 160.85 133.55C164.21 132.85 167.78 130.56 171.19 127.77C175.97 123.84 180.41 118.94 182.78 115.97C179.16 112.62 175.03 108.87 173.94 106.42C172.78 105.73 169.39 108.69 168.99 108.16L162.1 115.81L159.78 118.39L150.55 128.63Z" fill="black"/>
<path opacity="0.0667" d="M150.55 128.63C151.04 129.22 151.99 131.43 155.56 133.07C157.18 133.82 158.96 133.9 160.81 133.52C164.16 132.83 167.7 130.54 171.09 127.75C175.8 123.86 180.18 119.01 182.53 116.04C179.07 112.69 175.1 108.95 174.08 106.51C172.85 105.78 169.52 108.62 169.09 108.06L162.17 115.74L159.84 118.33L150.55 128.63Z" fill="black"/>
<path opacity="0.0706" d="M150.55 128.63C151.07 129.25 152.04 131.43 155.54 133.04C157.15 133.78 158.92 133.87 160.77 133.49C164.1 132.8 167.62 130.52 170.98 127.73C175.61 123.88 179.93 119.08 182.26 116.11C178.96 112.76 175.16 109.03 174.19 106.61C172.89 105.83 169.61 108.56 169.16 107.97L162.21 115.69L159.87 118.29L150.55 128.63Z" fill="black"/>
<path opacity="0.0745" d="M150.55 128.63C151.1 129.29 152.08 131.44 155.52 133.02C157.13 133.76 158.89 133.85 160.72 133.47C164.04 132.79 167.54 130.51 170.87 127.72C175.43 123.9 179.68 119.16 182 116.19C178.87 112.83 175.23 109.12 174.32 106.71C172.95 105.89 169.73 108.5 169.25 107.88L162.27 115.63L159.92 118.24L150.55 128.63Z" fill="black"/>
<path opacity="0.0784" d="M150.55 128.63C151.13 129.32 152.13 131.44 155.51 132.99C157.12 133.73 158.87 133.82 160.69 133.44C163.99 132.76 167.46 130.48 170.77 127.7C175.26 123.92 179.44 119.23 181.74 116.26C178.77 112.9 175.29 109.2 174.44 106.8C172.99 105.94 169.84 108.43 169.33 107.77L162.31 115.56L159.95 118.18L150.55 128.63Z" fill="black"/>
<path opacity="0.0824" d="M150.55 128.63C151.16 129.35 152.17 131.44 155.49 132.96C157.09 133.69 158.83 133.79 160.64 133.42C163.93 132.75 167.38 130.47 170.66 127.69C175.08 123.95 179.19 119.31 181.47 116.33C178.66 112.96 175.35 109.28 174.56 106.9C173.04 105.99 169.94 108.37 169.42 107.68L162.37 115.5L159.99 118.14L150.55 128.63Z" fill="black"/>
<path opacity="0.0863" d="M150.55 128.63C151.19 129.39 152.21 131.45 155.47 132.94C157.07 133.67 158.8 133.77 160.6 133.4C163.88 132.73 167.3 130.46 170.56 127.68C174.9 123.97 178.96 119.39 181.22 116.41C178.57 113.04 175.43 109.37 174.7 107C173.11 106.05 170.07 108.31 169.52 107.59L162.44 115.45L160.05 118.1L150.55 128.63Z" fill="black"/>
<path opacity="0.0902" d="M150.55 128.63C151.21 129.42 152.26 131.45 155.45 132.91C157.04 133.64 158.77 133.73 160.55 133.37C163.81 132.71 167.21 130.44 170.44 127.66C174.71 123.99 178.7 119.46 180.94 116.48C178.45 113.11 175.47 109.44 174.8 107.09C173.14 106.1 170.16 108.24 169.58 107.49L162.47 115.39L160.07 118.05L150.55 128.63Z" fill="black"/>
<path opacity="0.0941" d="M150.55 128.63C151.24 129.46 152.3 131.45 155.44 132.88C157.03 133.61 158.74 133.7 160.52 133.34C163.77 132.68 167.14 130.42 170.35 127.64C174.55 124.01 178.47 119.53 180.7 116.55C178.38 113.17 175.56 109.52 174.95 107.19C173.21 106.15 170.29 108.19 169.69 107.4L162.55 115.33L160.14 118L150.55 128.63Z" fill="black"/>
<path opacity="0.098" d="M150.55 128.63C151.27 129.49 152.35 131.46 155.42 132.86C157 133.58 158.71 133.68 160.47 133.32C163.7 132.67 167.05 130.41 170.23 127.63C174.36 124.03 178.21 119.61 180.42 116.63C178.26 113.25 175.6 109.61 175.05 107.29C173.24 106.21 170.38 108.13 169.75 107.31L162.57 115.28L160.15 117.96L150.55 128.63Z" fill="black"/>
<path opacity="0.102" d="M150.55 128.63C151.3 129.53 152.39 131.46 155.4 132.83C156.98 133.55 158.68 133.65 160.42 133.3C163.64 132.65 166.96 130.39 170.12 127.62C174.17 124.06 177.96 119.68 180.16 116.71C178.16 113.32 175.67 109.7 175.18 107.39C173.3 106.27 170.49 108.07 169.84 107.22L162.63 115.22L160.2 117.92L150.55 128.63Z" fill="black"/>
<path opacity="0.1059" d="M150.55 128.63C151.33 129.56 152.44 131.46 155.38 132.8C156.96 133.52 158.65 133.62 160.38 133.27C163.59 132.63 166.88 130.37 170.02 127.6C174 124.08 177.73 119.75 179.9 116.78C178.06 113.39 175.74 109.78 175.31 107.49C173.36 106.32 170.61 108.01 169.93 107.12L162.69 115.16L160.25 117.87L150.55 128.63Z" fill="black"/>
<path opacity="0.1098" d="M150.55 128.63C151.36 129.6 152.48 131.47 155.37 132.78C156.94 133.49 158.62 133.59 160.34 133.25C163.53 132.61 166.8 130.36 169.91 127.59C173.82 124.11 177.48 119.83 179.64 116.85C177.96 113.46 175.8 109.86 175.43 107.58C173.41 106.37 170.72 107.94 170.01 107.02L162.74 115.09L160.29 117.81L150.55 128.63Z" fill="black"/>
<path opacity="0.1137" d="M150.55 128.63C151.39 129.63 152.53 131.47 155.35 132.75C156.92 133.46 158.59 133.56 160.3 133.22C163.48 132.59 166.72 130.34 169.81 127.57C173.65 124.13 177.24 119.9 179.38 116.92C177.87 113.52 175.87 109.94 175.56 107.67C173.46 106.42 170.83 107.87 170.1 106.92L162.8 115.03L160.34 117.76L150.55 128.63Z" fill="black"/>
<path opacity="0.1176" d="M150.55 128.63C151.42 129.66 152.57 131.47 155.33 132.73C156.89 133.44 158.56 133.54 160.25 133.2C163.41 132.57 166.63 130.33 169.69 127.56C173.46 124.15 176.98 119.98 179.11 117C177.76 113.6 175.92 110.03 175.67 107.77C173.5 106.47 170.93 107.81 170.18 106.83L162.85 114.97L160.38 117.72L150.55 128.63Z" fill="black"/>
<path opacity="0.1216" d="M150.55 128.63C151.45 129.7 152.61 131.47 155.31 132.7C156.87 133.41 158.52 133.51 160.21 133.17C163.36 132.54 166.55 130.31 169.59 127.54C173.29 124.17 176.74 120.05 178.85 117.07C177.66 113.66 175.99 110.11 175.8 107.87C173.56 106.53 171.05 107.75 170.27 106.74L162.9 114.92L160.41 117.68L150.55 128.63Z" fill="black"/>
<path opacity="0.1255" d="M150.55 128.63C151.47 129.73 152.66 131.48 155.3 132.67C156.86 133.37 158.5 133.48 160.17 133.15C163.3 132.53 166.47 130.3 169.49 127.53C173.11 124.2 176.5 120.13 178.59 117.15C177.56 113.74 176.06 110.2 175.93 107.97C173.62 106.59 171.16 107.7 170.36 106.65L162.96 114.86L160.46 117.63L150.55 128.63Z" fill="black"/>
<path opacity="0.1294" d="M150.55 128.63C151.5 129.77 152.7 131.48 155.28 132.65C156.83 133.35 158.47 133.46 160.13 133.13C163.25 132.51 166.4 130.29 169.38 127.52C172.93 124.23 176.26 120.21 178.33 117.23C177.46 113.82 176.12 110.29 176.05 108.07C173.66 106.64 171.27 107.64 170.44 106.55L163.01 114.8L160.5 117.58L150.55 128.63Z" fill="black"/>
<path opacity="0.1333" d="M150.55 128.63C151.53 129.8 152.75 131.48 155.26 132.62C156.81 133.32 158.43 133.42 160.08 133.1C163.18 132.49 166.31 130.27 169.27 127.5C172.75 124.25 176.01 120.28 178.06 117.29C177.36 113.87 176.18 110.36 176.17 108.16C173.71 106.69 171.37 107.57 170.52 106.45L163.06 114.73L160.54 117.52L150.55 128.63Z" fill="black"/>
<path opacity="0.1373" d="M150.55 128.63C151.56 129.84 152.79 131.49 155.25 132.59C156.79 133.28 158.41 133.39 160.04 133.07C163.13 132.46 166.23 130.25 169.16 127.48C172.57 124.27 175.76 120.35 177.8 117.36C177.26 113.94 176.25 110.44 176.29 108.25C173.76 106.74 171.48 107.5 170.6 106.35L163.11 114.67L160.58 117.48L150.55 128.63Z" fill="black"/>
<path opacity="0.1412" d="M150.55 128.63C151.59 129.87 152.84 131.49 155.23 132.57C156.77 133.26 158.38 133.37 160 133.05C163.08 132.45 166.15 130.24 169.06 127.47C172.4 124.3 175.52 120.43 177.54 117.44C177.16 114.01 176.31 110.53 176.42 108.35C173.82 106.8 171.59 107.44 170.69 106.26L163.16 114.62L160.62 117.44L150.55 128.63Z" fill="black"/>
<path opacity="0.1451" d="M150.55 128.63C151.62 129.91 152.88 131.49 155.21 132.54C156.75 133.23 158.34 133.34 159.95 133.02C163.01 132.42 166.06 130.22 168.95 127.46C172.22 124.33 175.27 120.5 177.28 117.52C177.06 114.09 176.38 110.61 176.55 108.46C173.88 106.86 171.71 107.39 170.78 106.18L163.22 114.57L160.67 117.4L150.55 128.63Z" fill="black"/>
<path opacity="0.149" d="M150.55 128.63C151.65 129.94 152.92 131.5 155.19 132.51C156.72 133.2 158.31 133.31 159.91 133C162.96 132.41 165.99 130.21 168.84 127.45C172.04 124.35 175.03 120.58 177.01 117.6C176.96 114.17 176.43 110.7 176.66 108.56C173.91 106.92 171.81 107.33 170.85 106.09L163.26 114.52L160.7 117.36L150.55 128.63Z" fill="black"/>
<path opacity="0.1529" d="M150.55 128.63C151.68 129.97 152.97 131.5 155.18 132.49C156.71 133.17 158.29 133.29 159.87 132.98C162.9 132.39 165.91 130.2 168.74 127.44C171.87 124.38 174.79 120.66 176.76 117.68C176.87 114.24 176.51 110.79 176.8 108.66C173.98 106.98 171.93 107.28 170.96 105.99L163.34 114.45L160.77 117.31L150.55 128.63Z" fill="black"/>
<path opacity="0.1569" d="M150.55 128.63C151.71 130.01 153.01 131.5 155.16 132.46C156.68 133.14 158.25 133.25 159.83 132.95C162.85 132.37 165.83 130.18 168.63 127.42C171.69 124.4 174.54 120.73 176.49 117.75C176.76 114.31 176.57 110.87 176.91 108.76C174.02 107.03 172.03 107.22 171.03 105.9L163.38 114.4L160.8 117.27L150.55 128.63Z" fill="black"/>
<path opacity="0.1608" d="M150.55 128.63C151.73 130.04 153.06 131.5 155.14 132.43C156.66 133.11 158.22 133.22 159.78 132.92C162.78 132.34 165.74 130.16 168.52 127.4C171.51 124.42 174.29 120.8 176.23 117.81C176.66 114.36 176.63 110.94 177.04 108.84C174.08 107.07 172.15 107.14 171.12 105.79L163.44 114.32L160.85 117.2L150.55 128.63Z" fill="black"/>
<path opacity="0.1647" d="M150.55 128.63C151.76 130.08 153.1 131.51 155.12 132.41C156.63 133.08 158.19 133.2 159.73 132.9C162.72 132.33 165.66 130.15 168.41 127.39C171.33 124.45 174.04 120.88 175.96 117.89C176.55 114.44 176.69 111.03 177.16 108.94C174.12 107.13 172.25 107.08 171.2 105.7L163.48 114.27L160.87 117.16L150.55 128.63Z" fill="black"/>
<path opacity="0.1686" d="M150.55 128.63C151.79 130.11 153.15 131.51 155.11 132.38C156.62 133.05 158.16 133.17 159.7 132.87C162.68 132.3 165.59 130.13 168.31 127.37C171.16 124.47 173.81 120.95 175.71 117.96C176.47 114.51 176.77 111.11 177.29 109.04C174.18 107.18 172.37 107.02 171.29 105.61L163.54 114.21L160.92 117.11L150.55 128.63Z" fill="black"/>
<path opacity="0.1725" d="M150.55 128.63C151.82 130.15 153.19 131.51 155.09 132.35C156.6 133.02 158.13 133.14 159.65 132.85C162.61 132.29 165.51 130.12 168.2 127.36C170.98 124.5 173.56 121.03 175.44 118.04C176.36 114.58 176.82 111.2 177.41 109.14C174.23 107.24 172.47 106.96 171.37 105.52L163.59 114.16L160.96 117.08L150.55 128.63Z" fill="black"/>
<path opacity="0.1765" d="M150.55 128.63C151.85 130.18 153.23 131.52 155.07 132.33C156.57 132.99 158.1 133.12 159.61 132.83C162.56 132.27 165.43 130.11 168.09 127.35C170.8 124.54 173.31 121.11 175.18 118.12C176.26 114.66 176.89 111.29 177.54 109.24C174.29 107.3 172.59 106.9 171.46 105.43L163.65 114.1L161.01 117.03L150.55 128.63Z" fill="black"/>
<path opacity="0.1804" d="M150.55 128.63C151.88 130.22 153.28 131.51 155.05 132.3C156.55 132.96 158.06 133.08 159.56 132.8C162.49 132.24 165.34 130.1 167.98 127.33C170.62 124.56 173.06 121.18 174.91 118.19C176.15 114.72 176.94 111.37 177.65 109.34C174.32 107.35 172.69 106.84 171.53 105.33L163.69 114.04L161.04 116.98L150.55 128.63Z" fill="black"/>
<path opacity="0.1843" d="M150.55 128.63C151.91 130.25 153.33 131.52 155.04 132.27C156.54 132.93 158.04 133.05 159.53 132.77C162.45 132.22 165.28 130.08 167.89 127.31C170.46 124.58 172.83 121.25 174.66 118.25C176.06 114.78 177.02 111.44 177.79 109.42C174.39 107.39 172.81 106.77 171.63 105.22L163.75 113.96L161.09 116.91L150.55 128.63Z" fill="black"/>
<path opacity="0.1882" d="M150.55 128.63C151.94 130.28 153.37 131.52 155.02 132.25C156.51 132.9 158.01 133.03 159.48 132.75C162.39 132.2 165.19 130.07 167.77 127.3C170.28 124.61 172.57 121.33 174.39 118.33C175.96 114.86 177.08 111.53 177.9 109.52C174.43 107.45 172.91 106.71 171.7 105.13L163.79 113.91L161.12 116.88L150.55 128.63Z" fill="black"/>
<path opacity="0.1922" d="M150.55 128.63C151.97 130.32 153.41 131.52 155 132.22C156.49 132.87 157.97 133 159.44 132.72C162.33 132.18 165.12 130.05 167.67 127.28C170.11 124.63 172.34 121.39 174.13 118.4C175.86 114.92 177.14 111.61 178.03 109.62C174.49 107.5 173.03 106.65 171.79 105.04L163.85 113.85L161.17 116.83L150.55 128.63Z" fill="black"/>
<path opacity="0.1961" d="M150.55 128.63C151.99 130.35 153.46 131.53 154.99 132.19C156.47 132.84 157.95 132.97 159.4 132.7C162.28 132.16 165.05 130.05 167.56 127.27C169.94 124.66 172.09 121.47 173.87 118.48C175.76 115 177.21 111.69 178.15 109.72C174.54 107.56 173.13 106.59 171.88 104.95L163.91 113.8L161.22 116.79L150.55 128.63Z" fill="black"/>
<path opacity="0.2" d="M171.96 104.86L161.25 116.75L150.54 128.64C153.5 132.17 156.48 133.22 159.34 132.69C162.2 132.16 164.95 130.05 167.44 127.27C172.42 121.71 176.4 113.48 178.26 109.83C174.59 107.62 173.24 106.53 171.96 104.86Z" fill="black"/>
</g>
<path d="M174.55 137.66C160.77 137.04 153.42 129.04 152.28 127.69C152.16 128.12 152.1 128.38 152.1 128.38C152.1 128.38 159.51 137.88 174.55 138.56C183.29 138.95 189.58 132.14 189.33 125.27C189.03 131.83 182.91 138.04 174.55 137.66Z" fill="#D0D2D3"/>
<path d="M162.74 122.8C160.6 123.04 159.79 118.87 157.23 120.03C155.47 120.82 150.96 126.45 152.37 128.44C155.83 133.32 162.39 129.63 162.39 129.63C162.39 129.63 166.35 122.4 162.74 122.8Z" fill="#929497"/>
<path opacity="0.3" d="M118.7 97.4897L77.7 120.42C77.7 120.42 91.23 118.32 108.07 125.39C112.17 121.93 116.03 118.15 119.57 114.02C122.56 110.54 125.13 107.2 127.35 103.99C124.17 99.5497 118.7 97.4897 118.7 97.4897Z" fill="#474702"/>
<path d="M86.94 93.7798L77.7 120.42C77.7 120.42 131.86 104.48 162.39 129.63L179.01 106.73C179.01 106.72 137.47 76.1198 86.94 93.7798Z" fill="white"/>
<path d="M78.16 119.09L77.7 120.42C77.7 120.42 131.86 104.48 162.39 129.63L163.57 128C133.98 104.77 83.45 117.66 78.16 119.09Z" fill="#D0D2D3"/>
<path d="M105.83 93.66C105.53 93.72 105.26 93.78 105.02 93.84C104.76 93.9 104.49 93.98 104.22 94.06C103.94 94.14 103.72 94.22 103.54 94.3C102.23 97.9 101.71 99.65 100.94 103.04C98.14 100.71 96.62 99.67 93.38 97.87C93.18 97.94 92.92 98.03 92.63 98.15C92.33 98.27 92.06 98.39 91.81 98.5C91.56 98.61 91.31 98.74 91.04 98.88C90.77 99.02 90.54 99.15 90.34 99.27C91.93 102.75 93.55 106.21 95.22 109.66C95.39 109.62 95.56 109.57 95.74 109.51C95.92 109.45 96.1 109.39 96.28 109.32C96.44 109.26 96.6 109.2 96.77 109.12C96.94 109.05 97.1 108.97 97.24 108.9C95.79 105.58 95.09 103.9 93.71 100.51C96.63 102.18 98.01 103.13 100.56 105.25C100.86 105.19 101.16 105.13 101.45 105.04C101.77 104.95 102.08 104.85 102.38 104.73C103.12 101.67 103.6 100.08 104.8 96.84C105.76 99.96 106.69 103.09 107.59 106.23C107.76 106.23 107.94 106.22 108.12 106.2C108.31 106.18 108.5 106.16 108.69 106.13C108.88 106.1 109.07 106.07 109.25 106.03C109.43 105.99 109.61 105.95 109.79 105.91C108.8 101.76 107.74 97.64 106.6 93.52C106.38 93.56 106.13 93.6 105.83 93.66Z" fill="#967A04"/>
<path d="M120.69 96.3199C119.8 95.7399 118.44 95.4899 116.66 95.6099C115.98 95.6599 115.28 95.7499 114.56 95.8999C113.84 96.0499 112.72 96.2299 112.59 96.4399C112.48 96.6099 112.98 97.7699 113.22 97.8199C113.44 97.8699 114.22 97.5099 114.74 97.3999C115.26 97.2799 115.83 97.2099 116.44 97.1699C117.43 97.1099 118.19 97.2199 118.7 97.4999C119.21 97.7799 119.46 98.2999 119.44 99.0499C119.44 99.1999 119.44 99.2699 119.43 99.4099C119.2 99.3899 118.91 99.3699 118.57 99.3599C118.23 99.3499 117.79 99.3499 117.26 99.3699C116.54 99.3999 115.86 99.4999 115.22 99.6799C114.58 99.8599 114.02 100.1 113.55 100.41C113.08 100.72 112.72 101.09 112.49 101.51C112.25 101.93 112.17 102.4 112.23 102.92C112.29 103.45 112.46 103.89 112.73 104.24C113 104.6 113.35 104.88 113.79 105.1C114.22 105.32 114.73 105.47 115.33 105.57C115.92 105.66 116.58 105.71 117.3 105.71C118.07 105.71 118.82 105.68 119.56 105.6C120.3 105.52 120.94 105.45 121.46 105.39C121.63 102.9 121.72 101.65 121.88 99.1599C121.96 97.8499 121.58 96.8899 120.69 96.3199ZM119.32 104.01C119.03 104.07 118.7 104.11 118.32 104.14C117.95 104.17 117.59 104.18 117.24 104.19C116.97 104.19 116.68 104.19 116.37 104.17C116.07 104.15 115.78 104.09 115.53 103.99C115.27 103.89 115.05 103.74 114.87 103.54C114.69 103.34 114.58 103.06 114.55 102.69C114.51 102.11 114.74 101.66 115.25 101.35C115.76 101.03 116.52 100.85 117.53 100.82C117.79 100.81 118.11 100.82 118.48 100.84C118.85 100.86 119.16 100.89 119.4 100.91C119.36 102.14 119.35 102.77 119.32 104.01Z" fill="#967A04"/>
<path d="M132.95 96.3298C132.41 96.2398 131.89 96.2298 131.4 96.2798C130.92 96.3298 130.48 96.4198 130.09 96.5598C129.7 96.6998 129.35 96.8598 129.04 97.0598C128.73 97.2598 128.27 97.6698 128.26 97.6698C128.26 97.6698 128.32 97.1598 128.33 96.8198C128.34 96.4798 128.37 96.0598 128.31 95.9998C128.26 95.9398 127.94 95.9198 127.77 95.8898C127.61 95.8598 127.42 95.8398 127.23 95.8198C127.03 95.7998 126.84 95.7998 126.66 95.7998C126.47 95.7998 126.28 95.8098 126.08 95.8198C125.62 99.1998 125.17 102.58 124.71 105.96C124.87 106.01 125.05 106.05 125.25 106.09C125.45 106.13 125.63 106.16 125.79 106.19C125.95 106.21 126.13 106.23 126.33 106.25C126.53 106.27 126.71 106.28 126.87 106.28C127.24 104.2 127.43 103.17 127.8 101.09C127.91 100.46 128.1 99.9398 128.37 99.5198C128.64 99.0998 128.97 98.7598 129.35 98.5298C129.73 98.2898 130.14 98.1298 130.6 98.0598C131.06 97.9898 131.53 97.9898 132 98.0598C132.82 98.1898 133.36 98.5298 133.61 99.0598C133.86 99.5798 133.84 100.33 133.57 101.29C132.89 103.71 132.55 104.92 131.86 107.34C132.01 107.41 132.18 107.47 132.37 107.54C132.56 107.6 132.73 107.66 132.89 107.7C133.05 107.74 133.22 107.79 133.43 107.83C133.63 107.87 133.81 107.91 133.98 107.92C134.85 105.27 135.28 103.95 136.15 101.3C136.59 99.9598 136.57 98.8498 136.06 98.0098C135.55 97.1498 134.5 96.5798 132.95 96.3298Z" fill="#967A04"/>
<path d="M149.25 102.11C149.05 102.02 148.58 101.22 148.06 100.8C147.54 100.38 146.9 100.03 146.14 99.7498C145.29 99.4398 144.49 99.2798 143.74 99.2498C142.99 99.2198 142.32 99.3098 141.74 99.5098C141.16 99.7098 140.66 99.9998 140.25 100.38C139.84 100.76 139.54 101.21 139.34 101.73C139.1 102.36 139.04 102.97 139.16 103.56C139.27 104.16 139.92 105.09 139.89 105.18C139.88 105.21 138.88 105.53 138.49 105.82C138.1 106.11 137.81 106.5 137.61 107.01C137.46 107.41 137.43 107.77 137.51 108.1C137.6 108.43 137.96 108.98 137.95 109.02C137.95 109.02 136.82 109.31 136.35 109.64C135.88 109.98 135.54 110.42 135.33 110.98C134.98 111.92 135.07 112.73 135.57 113.44C136.07 114.15 136.93 114.77 138.16 115.37C138.87 115.71 139.56 115.96 140.24 116.11C140.93 116.26 141.58 116.3 142.2 116.23C142.82 116.16 143.39 115.99 143.91 115.7C144.43 115.41 144.86 114.99 145.2 114.44C145.72 113.59 145.88 112.78 145.64 112.01C145.4 111.24 144.67 110.53 143.46 109.93C142.37 109.4 141.82 109.15 140.7 108.67C140.07 108.4 139.71 108.14 139.6 107.89C139.49 107.63 139.49 107.39 139.6 107.14C139.71 106.88 139.91 106.67 140.21 106.52C140.51 106.37 140.88 106.21 141.04 106.25C141.37 106.33 141.99 106.83 142.59 107.08C143.25 107.35 143.89 107.53 144.53 107.6C145.17 107.68 145.78 107.65 146.36 107.52C146.94 107.39 147.47 107.16 147.95 106.82C148.43 106.48 148.84 106.04 149.16 105.49C149.37 105.14 149.5 104.81 149.57 104.49C149.63 104.18 149.65 103.86 149.6 103.56C150.46 103.95 150.89 104.15 151.74 104.58C151.87 104.43 152 104.28 152.11 104.13C152.23 103.98 152.33 103.83 152.42 103.68C152.61 103.37 152.89 102.88 152.85 102.79C152.76 102.59 151.52 102.25 150.88 102.14C150.24 102.05 149.43 102.19 149.25 102.11ZM139.89 110.32C140.81 110.73 141.27 110.94 142.17 111.39C142.84 111.73 143.24 112.07 143.37 112.42C143.5 112.76 143.45 113.14 143.22 113.54C142.92 114.08 142.38 114.38 141.63 114.44C140.88 114.51 140.02 114.3 139.03 113.83C138.69 113.67 138.4 113.51 138.13 113.33C137.87 113.16 137.66 112.97 137.5 112.76C137.34 112.55 137.24 112.33 137.21 112.1C137.17 111.86 137.22 111.59 137.34 111.29C137.54 110.81 137.86 110.46 138.31 110.24C138.75 110.03 139.29 110.05 139.89 110.32ZM146.84 104.46C146.5 105.1 146.02 105.53 145.41 105.77C144.8 106.01 144.1 105.95 143.29 105.63C142.47 105.3 141.97 104.87 141.75 104.32C141.54 103.77 141.56 103.18 141.84 102.53C142.13 101.88 142.56 101.41 143.17 101.14C143.77 100.87 144.53 100.89 145.42 101.22C146.31 101.55 146.86 102.02 147.06 102.61C147.27 103.19 147.19 103.81 146.84 104.46Z" fill="#967A04"/>
<path d="M159.97 106.52C159.03 105.93 158.1 105.58 157.19 105.44C156.28 105.31 155.42 105.36 154.63 105.58C153.84 105.8 153.11 106.19 152.46 106.72C151.81 107.26 151.24 107.91 150.74 108.67C150.24 109.43 149.89 110.2 149.65 110.96C149.42 111.73 149.34 112.47 149.4 113.19C149.46 113.91 149.68 114.59 150.05 115.23C150.42 115.88 150.96 116.46 151.68 116.99C152.4 117.52 153.14 117.87 153.89 118.03C154.65 118.19 155.41 118.2 156.18 118.04C156.95 117.88 157.72 117.58 158.48 117.11C159.23 116.65 159.96 116.06 160.63 115.35C161.3 114.64 161.84 113.9 162.21 113.13C162.59 112.36 162.77 111.58 162.74 110.8C162.72 110.02 162.48 109.26 162.03 108.52C161.61 107.78 160.91 107.1 159.97 106.52ZM158.58 113.73C157.59 114.86 156.59 115.58 155.63 115.9C154.67 116.22 153.77 116.06 152.91 115.44C152.04 114.82 151.64 114.06 151.69 113.13C151.74 112.2 152.17 111.14 153 109.96C153.84 108.78 154.72 108.01 155.69 107.65C156.65 107.29 157.68 107.43 158.72 108.1C159.76 108.77 160.25 109.61 160.19 110.58C160.13 111.54 159.58 112.59 158.58 113.73Z" fill="#967A04"/>
<path d="M105.75 92.6498C105.45 92.7098 105.18 92.7698 104.94 92.8298C104.68 92.8898 104.41 92.9698 104.14 93.0498C103.86 93.1298 103.64 93.2098 103.46 93.2898C102.15 96.8898 101.63 98.6398 100.86 102.03C98.0599 99.6998 96.5399 98.6598 93.2999 96.8598C93.0999 96.9298 92.8399 97.0198 92.5499 97.1398C92.2499 97.2598 91.9799 97.3798 91.7299 97.4898C91.4799 97.5998 91.2299 97.7298 90.9599 97.8698C90.6899 98.0098 90.4599 98.1398 90.2599 98.2598C91.8499 101.74 93.4699 105.2 95.1399 108.65C95.3099 108.61 95.48 108.56 95.66 108.5C95.84 108.44 96.0199 108.38 96.1999 108.31C96.3599 108.25 96.5199 108.19 96.6899 108.11C96.8599 108.04 97.02 107.96 97.16 107.89C95.71 104.57 95.0099 102.89 93.6299 99.4998C96.5499 101.17 97.9299 102.12 100.48 104.24C100.78 104.18 101.08 104.12 101.37 104.03C101.69 103.94 102 103.84 102.3 103.72C103.04 100.66 103.52 99.0698 104.72 95.8298C105.68 98.9498 106.61 102.08 107.51 105.22C107.68 105.22 107.86 105.21 108.04 105.19C108.23 105.17 108.42 105.15 108.61 105.12C108.8 105.09 108.99 105.06 109.17 105.02C109.35 104.98 109.53 104.94 109.71 104.9C108.72 100.75 107.66 96.6298 106.52 92.5098C106.3 92.5498 106.05 92.5898 105.75 92.6498Z" fill="#DDB300"/>
<path d="M120.61 95.2999C119.72 94.7199 118.36 94.4699 116.58 94.5899C115.9 94.6399 115.2 94.7299 114.48 94.8799C113.76 95.0299 112.64 95.2099 112.51 95.4199C112.4 95.5899 112.9 96.7499 113.14 96.7999C113.36 96.8499 114.14 96.4899 114.66 96.3799C115.18 96.2599 115.75 96.1899 116.36 96.1499C117.35 96.0899 118.11 96.1999 118.62 96.4799C119.13 96.7599 119.38 97.2799 119.36 98.0299C119.36 98.1799 119.36 98.2499 119.35 98.3899C119.12 98.3699 118.83 98.3499 118.49 98.3399C118.15 98.3299 117.71 98.3299 117.18 98.3499C116.46 98.3799 115.78 98.4799 115.14 98.6599C114.5 98.8399 113.94 99.0799 113.47 99.3899C113 99.6999 112.64 100.07 112.41 100.49C112.17 100.91 112.09 101.38 112.15 101.9C112.21 102.43 112.38 102.87 112.65 103.22C112.92 103.58 113.27 103.86 113.71 104.08C114.14 104.3 114.65 104.45 115.25 104.55C115.84 104.64 116.5 104.69 117.22 104.69C117.99 104.69 118.74 104.66 119.48 104.58C120.22 104.5 120.86 104.43 121.38 104.37C121.55 101.88 121.64 100.63 121.8 98.1399C121.88 96.8299 121.5 95.8799 120.61 95.2999ZM119.24 103C118.95 103.06 118.62 103.1 118.24 103.13C117.87 103.16 117.51 103.17 117.16 103.18C116.89 103.18 116.6 103.18 116.29 103.16C115.99 103.14 115.7 103.08 115.45 102.98C115.19 102.88 114.97 102.73 114.79 102.53C114.61 102.33 114.5 102.05 114.47 101.68C114.43 101.1 114.66 100.65 115.17 100.34C115.68 100.02 116.44 99.8399 117.45 99.8099C117.71 99.7999 118.03 99.8099 118.4 99.8299C118.77 99.8499 119.08 99.8799 119.32 99.8999C119.28 101.13 119.27 101.75 119.24 103Z" fill="#DDB300"/>
<path d="M132.87 95.3195C132.33 95.2295 131.81 95.2195 131.32 95.2695C130.84 95.3195 130.4 95.4096 130.01 95.5496C129.62 95.6896 129.27 95.8496 128.96 96.0496C128.65 96.2496 128.19 96.6596 128.18 96.6596C128.18 96.6596 128.24 96.1495 128.25 95.8095C128.26 95.4695 128.29 95.0495 128.23 94.9895C128.18 94.9295 127.86 94.9095 127.69 94.8795C127.52 94.8495 127.34 94.8295 127.15 94.8095C126.95 94.7895 126.76 94.7896 126.58 94.7896C126.39 94.7896 126.2 94.7995 126 94.8095C125.54 98.1895 125.09 101.57 124.63 104.95C124.79 105 124.97 105.04 125.17 105.08C125.37 105.12 125.55 105.15 125.71 105.18C125.87 105.2 126.05 105.22 126.25 105.24C126.45 105.26 126.63 105.27 126.79 105.27C127.16 103.19 127.35 102.16 127.72 100.08C127.83 99.4496 128.02 98.9296 128.29 98.5096C128.56 98.0896 128.89 97.7495 129.27 97.5195C129.65 97.2795 130.06 97.1196 130.52 97.0496C130.98 96.9796 131.45 96.9796 131.92 97.0496C132.74 97.1796 133.28 97.5196 133.53 98.0496C133.78 98.5696 133.76 99.3195 133.49 100.28C132.81 102.7 132.47 103.91 131.78 106.33C131.93 106.4 132.1 106.46 132.29 106.53C132.48 106.59 132.65 106.65 132.81 106.69C132.97 106.73 133.14 106.78 133.35 106.82C133.55 106.86 133.73 106.9 133.9 106.91C134.77 104.26 135.2 102.94 136.07 100.29C136.51 98.9496 136.49 97.8395 135.98 96.9995C135.47 96.1395 134.42 95.5595 132.87 95.3195Z" fill="#DDB300"/>
<path d="M149.17 101.09C148.97 101 148.5 100.2 147.98 99.7798C147.46 99.3598 146.82 99.0098 146.06 98.7298C145.21 98.4198 144.41 98.2598 143.66 98.2298C142.91 98.1998 142.24 98.2898 141.66 98.4898C141.08 98.6898 140.58 98.9798 140.17 99.3598C139.76 99.7398 139.46 100.19 139.26 100.71C139.02 101.34 138.96 101.95 139.08 102.54C139.19 103.14 139.84 104.07 139.81 104.16C139.8 104.19 138.8 104.51 138.41 104.8C138.02 105.09 137.73 105.48 137.53 105.99C137.38 106.39 137.35 106.75 137.43 107.08C137.52 107.41 137.88 107.96 137.87 108C137.87 108 136.74 108.29 136.27 108.62C135.8 108.96 135.46 109.4 135.25 109.96C134.9 110.9 134.99 111.71 135.49 112.42C135.99 113.13 136.85 113.75 138.08 114.35C138.79 114.69 139.48 114.94 140.16 115.09C140.85 115.24 141.5 115.28 142.12 115.21C142.74 115.14 143.31 114.97 143.83 114.68C144.35 114.39 144.78 113.97 145.12 113.42C145.64 112.57 145.8 111.76 145.56 110.99C145.32 110.22 144.59 109.51 143.38 108.91C142.29 108.38 141.74 108.13 140.62 107.65C139.99 107.38 139.63 107.12 139.52 106.87C139.41 106.61 139.41 106.37 139.52 106.12C139.63 105.86 139.83 105.65 140.13 105.5C140.43 105.35 140.8 105.19 140.96 105.23C141.29 105.31 141.91 105.81 142.51 106.06C143.17 106.33 143.81 106.51 144.45 106.58C145.09 106.66 145.7 106.63 146.28 106.5C146.86 106.37 147.39 106.14 147.87 105.8C148.35 105.46 148.76 105.02 149.08 104.47C149.29 104.12 149.42 103.79 149.49 103.47C149.55 103.16 149.57 102.84 149.52 102.54C150.38 102.93 150.81 103.13 151.66 103.56C151.79 103.41 151.92 103.26 152.03 103.11C152.15 102.96 152.25 102.81 152.34 102.66C152.53 102.35 152.81 101.86 152.77 101.77C152.68 101.57 151.44 101.23 150.8 101.12C150.16 101.03 149.35 101.17 149.17 101.09ZM139.81 109.3C140.73 109.71 141.19 109.92 142.09 110.37C142.76 110.71 143.16 111.05 143.29 111.4C143.42 111.74 143.37 112.12 143.14 112.52C142.84 113.06 142.3 113.36 141.55 113.42C140.8 113.49 139.94 113.28 138.95 112.81C138.61 112.65 138.32 112.49 138.05 112.31C137.79 112.14 137.58 111.95 137.42 111.74C137.26 111.53 137.16 111.31 137.13 111.08C137.09 110.84 137.14 110.57 137.26 110.27C137.46 109.79 137.78 109.44 138.23 109.22C138.67 109.01 139.21 109.03 139.81 109.3ZM146.76 103.44C146.42 104.08 145.94 104.51 145.33 104.75C144.72 104.99 144.02 104.93 143.21 104.61C142.39 104.28 141.89 103.85 141.67 103.3C141.46 102.75 141.48 102.16 141.76 101.51C142.05 100.86 142.48 100.39 143.09 100.12C143.69 99.8498 144.45 99.8698 145.34 100.2C146.23 100.53 146.78 101 146.98 101.59C147.19 102.17 147.11 102.79 146.76 103.44Z" fill="#DDB300"/>
<path d="M159.89 105.5C158.95 104.91 158.02 104.56 157.11 104.42C156.2 104.29 155.34 104.34 154.55 104.56C153.76 104.78 153.03 105.17 152.38 105.7C151.73 106.24 151.16 106.89 150.66 107.65C150.16 108.41 149.81 109.18 149.57 109.94C149.34 110.71 149.26 111.45 149.32 112.17C149.38 112.89 149.6 113.57 149.97 114.21C150.34 114.86 150.88 115.44 151.6 115.97C152.32 116.5 153.06 116.85 153.81 117.01C154.57 117.17 155.33 117.18 156.1 117.02C156.87 116.86 157.64 116.56 158.4 116.09C159.15 115.63 159.88 115.04 160.55 114.33C161.22 113.62 161.76 112.88 162.13 112.11C162.51 111.34 162.69 110.56 162.66 109.78C162.64 109 162.4 108.24 161.95 107.5C161.53 106.76 160.83 106.09 159.89 105.5ZM158.5 112.71C157.51 113.84 156.51 114.56 155.55 114.88C154.59 115.2 153.69 115.04 152.83 114.42C151.96 113.8 151.56 113.04 151.61 112.11C151.66 111.18 152.09 110.12 152.92 108.94C153.76 107.76 154.64 106.99 155.61 106.63C156.57 106.27 157.6 106.41 158.64 107.08C159.68 107.75 160.17 108.59 160.11 109.56C160.05 110.53 159.5 111.58 158.5 112.71Z" fill="#DDB300"/>
</g>
<defs>
<clipPath id="clip0_174_5815">
<rect width="189.35" height="176.33" fill="white"/>
</clipPath>
</defs>
</svg>
