<svg width="196" height="137" viewBox="0 0 196 137" fill="none" xmlns="http://www.w3.org/2000/svg">
<path opacity="0.2" d="M113.81 116.39C103.82 110.63 82.72 119.27 67.39 114.81C52.06 110.36 13.82 115.45 28.64 120.92C28.64 120.92 54.51 123.7 75.32 123.31C96.12 122.93 123.8 122.16 113.81 116.39Z" fill="black"/>
<path opacity="0.2" d="M41.44 120.46C41.44 120.46 85.18 125.04 96.25 119.78C107.31 114.51 47.02 119.31 41.44 120.46Z" fill="black"/>
<path d="M69.91 32.7199C69.91 32.7199 37.36 13.3499 24.2 40.6199C8.25 73.6699 21.97 134.47 84.82 118.2C143.02 103.15 110.51 0.639931 69.91 32.7199Z" fill="#FD5C4A"/>
<path d="M85.78 108.75C63.12 124.15 75.85 81.2501 67.26 51.9401C58.67 22.6301 28.92 33.5201 28.92 33.5201C27.18 35.4301 25.58 37.7701 24.21 40.6201C8.26001 73.6701 21.98 134.47 84.83 118.2C97.79 114.85 106.24 107.15 111.12 97.5701C97.19 115.29 85.78 108.75 85.78 108.75Z" fill="#EF483C"/>
<path d="M24.2 40.63C10.85 68.28 18.29 115.34 57.88 120.46C19.68 105.05 18.94 78.68 26.72 48.9C34.59 18.82 68.67 32.05 68.67 32.05C62.59 28.85 35.83 16.53 24.2 40.63Z" fill="#FFAF10"/>
<g opacity="0.3">
<path d="M24.42 40.1899C24.35 40.3399 24.27 40.4799 24.2 40.6199C24.2 40.6299 24.32 40.4499 24.42 40.1899Z" fill="#4F1708"/>
<path d="M24.2 40.6299C8.25 73.6799 21.97 134.48 84.82 118.21C92.74 116.16 98.97 112.48 103.74 107.75C33.16 144.88 24.2 40.6299 24.2 40.6299Z" fill="#4F1708"/>
</g>
<path opacity="0.5" d="M37.25 56.2603C36.92 56.2603 36.66 57.1403 36.66 58.2203C36.66 59.3003 36.93 60.1803 37.25 60.1803C37.58 60.1803 37.84 59.3003 37.84 58.2203C37.84 57.1403 37.58 56.2603 37.25 56.2603Z" fill="#FF9312"/>
<path opacity="0.5" d="M31.06 71.2998C30.73 71.2998 30.47 72.1798 30.47 73.2598C30.47 74.3398 30.74 75.2198 31.06 75.2198C31.39 75.2198 31.65 74.3398 31.65 73.2598C31.65 72.1698 31.39 71.2998 31.06 71.2998Z" fill="#FF9312"/>
<path opacity="0.5" d="M48.15 73.25C47.82 73.25 47.56 74.13 47.56 75.21C47.56 76.29 47.83 77.17 48.15 77.17C48.48 77.17 48.74 76.29 48.74 75.21C48.74 74.13 48.47 73.25 48.15 73.25Z" fill="#FF9312"/>
<path opacity="0.5" d="M39.73 82.0498C39.4 82.0498 39.14 82.9298 39.14 84.0098C39.14 85.0898 39.41 85.9698 39.73 85.9698C40.06 85.9698 40.32 85.0898 40.32 84.0098C40.32 82.9298 40.06 82.0498 39.73 82.0498Z" fill="#FF9312"/>
<path opacity="0.5" d="M53.87 50.8198C53.54 50.8198 53.28 51.6998 53.28 52.7798C53.28 53.8598 53.55 54.7398 53.87 54.7398C54.2 54.7398 54.46 53.8598 54.46 52.7798C54.46 51.6998 54.2 50.8198 53.87 50.8198Z" fill="#FF9312"/>
<path opacity="0.5" d="M62.75 63.1401C62.42 63.1401 62.16 64.0201 62.16 65.1001C62.16 66.1801 62.43 67.0601 62.75 67.0601C63.08 67.0601 63.34 66.1801 63.34 65.1001C63.34 64.0201 63.08 63.1401 62.75 63.1401Z" fill="#FF9312"/>
<path opacity="0.5" d="M73.43 71.8701C73.1 71.8701 72.84 72.7501 72.84 73.8301C72.84 74.9101 73.11 75.7901 73.43 75.7901C73.76 75.7901 74.02 74.9101 74.02 73.8301C74.02 72.7501 73.75 71.8701 73.43 71.8701Z" fill="#FF9312"/>
<path opacity="0.5" d="M67.24 86.9102C66.91 86.9102 66.65 87.7902 66.65 88.8702C66.65 89.9502 66.92 90.8302 67.24 90.8302C67.57 90.8302 67.83 89.9502 67.83 88.8702C67.83 87.7902 67.56 86.9102 67.24 86.9102Z" fill="#FF9312"/>
<path opacity="0.5" d="M84.32 88.8701C83.99 88.8701 83.73 89.7501 83.73 90.8301C83.73 91.9101 84 92.7901 84.32 92.7901C84.65 92.7901 84.91 91.9101 84.91 90.8301C84.91 89.7501 84.65 88.8701 84.32 88.8701Z" fill="#FF9312"/>
<path opacity="0.5" d="M75.91 97.6602C75.58 97.6602 75.32 98.5402 75.32 99.6202C75.32 100.7 75.59 101.58 75.91 101.58C76.24 101.58 76.5 100.7 76.5 99.6202C76.5 98.5402 76.24 97.6602 75.91 97.6602Z" fill="#FF9312"/>
<path opacity="0.5" d="M90.05 66.4302C89.72 66.4302 89.46 67.3102 89.46 68.3902C89.46 69.4702 89.73 70.3502 90.05 70.3502C90.38 70.3502 90.64 69.4702 90.64 68.3902C90.64 67.3102 90.38 66.4302 90.05 66.4302Z" fill="#FF9312"/>
<path opacity="0.5" d="M98.93 78.7603C98.6 78.7603 98.34 79.6403 98.34 80.7203C98.34 81.8003 98.61 82.6803 98.93 82.6803C99.26 82.6803 99.52 81.8003 99.52 80.7203C99.52 79.6303 99.25 78.7603 98.93 78.7603Z" fill="#FF9312"/>
<path opacity="0.5" d="M50.17 82.6099C49.84 82.6099 49.58 83.4899 49.58 84.5699C49.58 85.6499 49.85 86.5299 50.17 86.5299C50.5 86.5299 50.76 85.6499 50.76 84.5699C50.76 83.4899 50.5 82.6099 50.17 82.6099Z" fill="#FF9312"/>
<path opacity="0.5" d="M43.98 97.6499C43.65 97.6499 43.39 98.5299 43.39 99.6099C43.39 100.69 43.66 101.57 43.98 101.57C44.31 101.57 44.57 100.69 44.57 99.6099C44.57 98.5299 44.31 97.6499 43.98 97.6499Z" fill="#FF9312"/>
<path opacity="0.5" d="M61.07 99.6099C60.74 99.6099 60.48 100.49 60.48 101.57C60.48 102.65 60.75 103.53 61.07 103.53C61.4 103.53 61.66 102.65 61.66 101.57C61.66 100.49 61.39 99.6099 61.07 99.6099Z" fill="#FF9312"/>
<path opacity="0.5" d="M52.65 108.4C52.32 108.4 52.06 109.28 52.06 110.36C52.06 111.44 52.33 112.32 52.65 112.32C52.98 112.32 53.24 111.44 53.24 110.36C53.24 109.28 52.98 108.4 52.65 108.4Z" fill="#FF9312"/>
<path opacity="0.5" d="M66.79 77.1699C66.46 77.1699 66.2 78.0499 66.2 79.1299C66.2 80.2099 66.47 81.0899 66.79 81.0899C67.12 81.0899 67.38 80.2099 67.38 79.1299C67.39 78.0499 67.12 77.1699 66.79 77.1699Z" fill="#FF9312"/>
<path opacity="0.5" d="M75.67 89.4902C75.34 89.4902 75.08 90.3702 75.08 91.4502C75.08 92.5302 75.35 93.4102 75.67 93.4102C76 93.4102 76.26 92.5302 76.26 91.4502C76.26 90.3702 76 89.4902 75.67 89.4902Z" fill="#FF9312"/>
<path opacity="0.5" d="M75.26 35.71C74.93 35.71 74.67 36.59 74.67 37.67C74.67 38.75 74.94 39.63 75.26 39.63C75.59 39.63 75.85 38.75 75.85 37.67C75.85 36.59 75.59 35.71 75.26 35.71Z" fill="#FF9312"/>
<path opacity="0.5" d="M69.07 50.75C68.74 50.75 68.48 51.63 68.48 52.71C68.48 53.79 68.75 54.67 69.07 54.67C69.4 54.67 69.66 53.79 69.66 52.71C69.66 51.62 69.4 50.75 69.07 50.75Z" fill="#FF9312"/>
<path opacity="0.5" d="M86.16 52.71C85.83 52.71 85.57 53.59 85.57 54.67C85.57 55.75 85.84 56.63 86.16 56.63C86.49 56.63 86.75 55.75 86.75 54.67C86.75 53.58 86.48 52.71 86.16 52.71Z" fill="#FF9312"/>
<path opacity="0.5" d="M77.74 61.5C77.41 61.5 77.15 62.38 77.15 63.46C77.15 64.54 77.42 65.42 77.74 65.42C78.07 65.42 78.33 64.54 78.33 63.46C78.34 62.38 78.07 61.5 77.74 61.5Z" fill="#FF9312"/>
<path opacity="0.5" d="M91.88 30.27C91.55 30.27 91.29 31.15 91.29 32.23C91.29 33.31 91.56 34.19 91.88 34.19C92.21 34.19 92.47 33.31 92.47 32.23C92.48 31.15 92.21 30.27 91.88 30.27Z" fill="#FF9312"/>
<path opacity="0.5" d="M100.76 42.5898C100.43 42.5898 100.17 43.4698 100.17 44.5498C100.17 45.6298 100.44 46.5098 100.76 46.5098C101.09 46.5098 101.35 45.6298 101.35 44.5498C101.35 43.4698 101.09 42.5898 100.76 42.5898Z" fill="#FF9312"/>
<path opacity="0.5" d="M98.93 59.54C98.6 59.54 98.34 60.42 98.34 61.5C98.34 62.58 98.61 63.46 98.93 63.46C99.26 63.46 99.52 62.58 99.52 61.5C99.52 60.42 99.25 59.54 98.93 59.54Z" fill="#FF9312"/>
<path opacity="0.5" d="M103.74 92.79C103.41 92.79 103.15 93.67 103.15 94.75C103.15 95.83 103.42 96.71 103.74 96.71C104.07 96.71 104.33 95.83 104.33 94.75C104.33 93.66 104.07 92.79 103.74 92.79Z" fill="#FF9312"/>
<path opacity="0.5" d="M98.93 97.6602C98.6 97.6602 98.34 98.5402 98.34 99.6202C98.34 100.7 98.61 101.58 98.93 101.58C99.26 101.58 99.52 100.7 99.52 99.6202C99.52 98.5402 99.25 97.6602 98.93 97.6602Z" fill="#FF9312"/>
<path opacity="0.5" d="M78.93 108.04C78.6 108.04 78.34 108.92 78.34 110C78.34 111.08 78.61 111.96 78.93 111.96C79.26 111.96 79.52 111.08 79.52 110C79.52 108.92 79.25 108.04 78.93 108.04Z" fill="#FF9312"/>
<path opacity="0.5" d="M31.65 94.75C31.32 94.75 31.06 95.63 31.06 96.71C31.06 97.79 31.33 98.67 31.65 98.67C31.98 98.67 32.24 97.79 32.24 96.71C32.25 95.62 31.98 94.75 31.65 94.75Z" fill="#FF9312"/>
<path opacity="0.5" d="M31.06 48.8599C30.73 48.8599 30.47 49.7399 30.47 50.8199C30.47 51.8999 30.74 52.7799 31.06 52.7799C31.39 52.7799 31.65 51.8999 31.65 50.8199C31.65 49.7399 31.39 48.8599 31.06 48.8599Z" fill="#FF9312"/>
<path opacity="0.5" d="M50.17 37.6699C49.84 37.6699 49.58 38.5499 49.58 39.6299C49.58 40.7099 49.85 41.5899 50.17 41.5899C50.5 41.5899 50.76 40.7099 50.76 39.6299C50.76 38.5499 50.5 37.6699 50.17 37.6699Z" fill="#FF9312"/>
<path opacity="0.5" d="M37.25 38.4502C36.92 38.4502 36.66 39.3302 36.66 40.4102C36.66 41.4902 36.93 42.3702 37.25 42.3702C37.58 42.3702 37.84 41.4902 37.84 40.4102C37.84 39.3302 37.58 38.4502 37.25 38.4502Z" fill="#FF9312"/>
<path d="M75.67 29.02L73.43 30.27C104.23 64.93 85.42 110 85.42 110C109.16 56.26 75.67 29.02 75.67 29.02Z" fill="#FC7A70"/>
<path d="M73.43 30.27C72.27 30.98 71.09 31.79 69.91 32.72C69.91 32.72 102.09 53.78 85.42 109.99C85.42 110 109.34 63.34 73.43 30.27Z" fill="#DD2F22"/>
<path d="M76.08 28.84C102.91 25.89 126.69 79.73 103.62 107.86C132.27 79.68 108.26 13.49 76.08 28.84Z" fill="#FFAF10"/>
<path opacity="0.3" d="M69.91 32.7199C69.91 32.7199 37.36 13.3499 24.2 40.6199C28.29 35.9599 63.49 38.4799 67.38 37.6699C71.28 36.8599 72.43 34.7299 72.43 34.7299C72.23 33.8599 71.77 32.8699 71.13 31.8099C70.73 32.1099 70.32 32.3999 69.91 32.7199Z" fill="#031E10"/>
<path d="M75.26 15.6699C75.26 15.6699 75.21 10.8899 69.66 12.3999C69.66 12.3999 66.35 17.7299 67.69 31.5399C67.69 31.5399 68.93 35.5699 72.44 34.7299C72.44 34.7299 75.03 35.0799 74.67 32.2299C74.31 29.3799 68.29 20.3199 75.26 15.6699Z" fill="#006838"/>
<path d="M69.66 12.3999C69.66 12.3999 69.72 16.5599 75.26 15.6699C75.26 15.6699 75.21 10.8899 69.66 12.3999Z" fill="#3CA06E"/>
<path d="M70.39 18.4097C70.39 18.4097 65.68 30.5097 72.43 34.7397C72.43 34.7397 74.2 34.9397 73.43 32.9197C72.65 30.8997 69.43 31.3897 70.39 18.4097Z" fill="#014C26"/>
<path d="M23.4 18.4099C0 15.7799 0 30.2699 0 30.2699C0 30.2699 2.79 16.8499 22.35 29.0199C41.91 41.1899 70.89 33.2599 70.89 33.2599C58.75 19.2099 46.79 21.0399 23.4 18.4099Z" fill="#4B8227"/>
<path d="M0.15 29.6401C0.04 30.0301 0 30.2701 0 30.2701C0.04 30.0501 0.09 29.8501 0.15 29.6401Z" fill="#2C5E0B"/>
<path d="M0.300015 29.1299C0.240015 29.3199 0.180015 29.4999 0.140015 29.6399C0.190015 29.4599 0.250015 29.2999 0.300015 29.1299Z" fill="#2C5E0B"/>
<path d="M66.15 30.4098C65.2 30.1198 49.18 27.5798 44.05 28.1298C38.92 28.6798 13.68 22.8098 12.45 21.8598C11.27 20.9498 2.71 20.7798 0.309998 29.1398C1.12 26.7298 3.89 21.4398 12.55 22.6298C23.67 24.1498 34.31 29.1798 44.06 29.0398C53.81 28.8998 65.97 30.6898 67.4 31.5598C68.82 32.4198 70.34 32.6498 70.34 32.6498L69.15 31.5598C69.14 31.5398 67.1 30.6898 66.15 30.4098Z" fill="#2C5E0B"/>
<path d="M53.48 21.9302L53.4 22.1902C58.52 23.8202 62.03 29.1802 62.62 30.1302C61.45 30.5102 54.43 32.8002 51.41 33.4102C49.42 33.8102 47.26 34.1202 45.83 34.3202C44.7 34.4802 44.15 34.5602 44.01 34.6202L44.11 34.8802C44.23 34.8302 44.98 34.7202 45.86 34.6002C47.29 34.4002 49.45 34.0902 51.45 33.6902C54.75 33.0302 62.78 30.3802 62.86 30.3502L63.02 30.3002L62.94 30.1502C62.9 30.0802 59.18 23.7502 53.48 21.9302Z" fill="#2C5E0B"/>
<path d="M52.55 23.37C50.76 21.95 49.42 21.05 49.41 21.04L49.26 21.27C49.27 21.28 50.6 22.17 52.38 23.59C53.97 24.85 56.49 28.26 57.02 28.97C55.8 29.54 47.53 33.31 42.58 33.31C37.23 33.31 31.15 32.92 31.09 32.91L31.07 33.19C31.13 33.19 37.22 33.58 42.58 33.58C47.97 33.58 57.2 29.19 57.29 29.14L57.44 29.07L57.34 28.94C57.22 28.77 54.35 24.8 52.55 23.37Z" fill="#2C5E0B"/>
<path d="M49.87 29.3799C47.56 30.0899 43.32 31.4099 39.95 31.4099C39.88 31.4099 39.8 31.4099 39.73 31.4099C34.85 31.3199 24.98 30.3299 24.88 30.3199L24.85 30.5899C24.95 30.5999 34.83 31.5899 39.73 31.6799C39.81 31.6799 39.88 31.6799 39.96 31.6799C43.37 31.6799 47.64 30.3599 49.96 29.6399C50.81 29.3799 51.62 29.1199 51.75 29.1499L51.8 29.0299L51.89 28.9199C51.75 28.8099 51.46 28.8899 49.87 29.3799Z" fill="#2C5E0B"/>
<path d="M34.6 28.8702C32.84 28.8502 31.15 28.8602 29.65 28.8702C28.33 28.8802 27.19 28.8802 26.43 28.8702C24.84 28.8402 21.26 28.1902 21.22 28.1802L21.17 28.4502C21.32 28.4802 24.81 29.1102 26.42 29.1402C27.19 29.1502 28.33 29.1502 29.65 29.1402C31.15 29.1302 32.85 29.1202 34.6 29.1402C36.23 29.1502 37.91 29.1602 39.2 29.1602C40.52 29.1602 41.42 29.1602 41.44 29.1602V28.8802C41.4 28.8802 37.88 28.9002 34.6 28.8702Z" fill="#2C5E0B"/>
<path d="M22.25 26.4199C20.5 26.2699 19.12 26.2399 18.29 26.2299C17.91 26.2199 17.58 26.2199 17.53 26.1999L17.41 26.4499C17.48 26.4899 17.62 26.4899 18.29 26.4999C19.12 26.5099 20.5 26.5399 22.24 26.6899C22.62 26.7199 23.03 26.7399 23.46 26.7399C26.08 26.7399 29.21 26.1899 29.24 26.1899L29.19 25.9199C29.13 25.9299 24.96 26.6599 22.25 26.4199Z" fill="#2C5E0B"/>
<path d="M17.41 24.3901C16.91 24.6101 14.23 24.5701 13.25 24.5401L13.24 24.8201C13.4 24.8201 14.06 24.8501 14.83 24.8501C15.89 24.8501 17.14 24.8101 17.52 24.6501C18.02 24.4301 20.73 24.5901 21.73 24.6601L21.75 24.3801C21.37 24.3501 18.07 24.1101 17.41 24.3901Z" fill="#2C5E0B"/>
<path d="M40.68 19.9102L40.52 20.1302C40.55 20.1502 42.99 21.8802 44.78 23.0102C46.55 24.1302 51.27 28.7202 51.32 28.7702L51.51 28.5702C51.32 28.3802 46.72 23.9102 44.92 22.7802C43.15 21.6502 40.71 19.9202 40.68 19.9102Z" fill="#2C5E0B"/>
<path d="M35.26 19.4302L35.07 19.6402C35.1 19.6702 37.95 22.2702 40.11 24.4502C42.28 26.6502 45.05 28.4302 45.08 28.4402L45.23 28.2102C45.2 28.1902 42.46 26.4302 40.31 24.2502C38.14 22.0602 35.29 19.4602 35.26 19.4302Z" fill="#2C5E0B"/>
<path d="M28.81 18.8501L28.64 19.0701C28.66 19.0801 30.47 20.4801 34.32 23.5801C38.17 26.6901 40.5 28.4101 40.52 28.4301L40.68 28.2101C40.66 28.1901 38.33 26.4801 34.48 23.3701C30.64 20.2601 28.83 18.8601 28.81 18.8501Z" fill="#2C5E0B"/>
<path d="M29.27 21.2998C25.86 19.3698 23.48 18.2898 23.46 18.2798L23.35 18.5298C23.37 18.5398 25.74 19.6098 29.14 21.5398C32.51 23.4498 34.53 26.9698 34.55 27.0098L34.79 26.8698C34.76 26.8398 32.71 23.2498 29.27 21.2998Z" fill="#2C5E0B"/>
<path d="M22.67 18.8301L22.56 19.0801C24.34 19.8401 30.41 26.3501 30.47 26.4201L30.67 26.2301C30.42 25.9701 24.51 19.6101 22.67 18.8301Z" fill="#2C5E0B"/>
<path d="M16.72 17.98L16.55 18.2C16.58 18.22 19.23 20.36 20.55 21.27C21.86 22.18 26.47 25.59 26.52 25.63L26.68 25.41C26.63 25.38 22.02 21.96 20.7 21.05C19.39 20.13 16.74 18 16.72 17.98Z" fill="#2C5E0B"/>
<path opacity="0.3" d="M60.07 32.6301C50.81 33.2201 44.2 24.9901 23.31 21.9301C2.42999 18.8701 0.109985 29.7801 0.109985 29.7801L0.119985 29.8401C0.809985 27.6401 4.92999 18.1801 22.35 29.0301C41.91 41.2001 70.89 33.2701 70.89 33.2701C70.63 32.9601 70.36 32.6701 70.1 32.3801C68.91 32.0801 66.13 32.2401 60.07 32.6301Z" fill="#031E10"/>
<path opacity="0.2" d="M193.71 130.8C187.45 127.46 152.42 129.62 144.57 129.69C136.72 129.77 99.89 126.06 106.97 130.8C106.97 130.8 114.43 136.75 144.29 136.75C164.39 136.75 199.96 134.14 193.71 130.8Z" fill="black"/>
<path opacity="0.2" d="M142.37 129.64C142.37 129.64 118.38 129.43 122.87 130.8C122.87 130.8 130.72 134.18 147.16 134.28C163.62 134.38 177.63 132.59 142.37 129.64Z" fill="black"/>
<path d="M130.97 44.3098L132.55 45.4198L144.93 52.6798L163.52 42.3398C150.72 45.7198 130.97 44.3098 130.97 44.3098Z" fill="#DD312C"/>
<path d="M145.41 51.52C102.08 15.7 72.04 117.28 130.5 131.28C182.18 143.66 207.07 86.75 191.12 53.7C177.97 26.43 145.41 51.52 145.41 51.52Z" fill="#FD5C4A"/>
<path d="M172.28 43.2002C160 43.2002 146.89 53.1702 146.76 53.2702L145.36 54.3502L144 53.2302C138.3 48.5202 132.67 46.1302 127.25 46.1302C112.59 46.1302 102.6 63.7902 100.64 80.4102C98.44 99.0002 105.09 122.91 131.02 129.13C135.65 130.24 140.21 130.8 144.56 130.8C161.1 130.8 175.28 122.73 184.48 108.07C194.77 91.6802 196.64 70.2202 189.13 54.6602C185.41 46.9502 179.9 43.2002 172.28 43.2002Z" fill="#EDC10A"/>
<path d="M172.28 44.3101C160.49 44.3101 147.56 54.0601 147.43 54.1601L145.33 55.7701L143.29 54.0801C137.8 49.5401 132.4 47.2401 127.24 47.2401C113.22 47.2401 103.63 64.4001 101.73 80.5501C99.59 98.6901 106.04 122.02 131.27 128.06C135.81 129.15 140.28 129.7 144.55 129.7C160.7 129.7 174.54 121.81 183.54 107.48C193.63 91.4001 195.48 70.3701 188.13 55.1401C184.62 47.8501 179.43 44.3101 172.28 44.3101Z" fill="#FFD112"/>
<path d="M172.28 55.3701C166.44 55.3701 158.03 60.0401 154.18 62.9201L145.09 69.9101L136.25 62.6001C132.84 59.7801 129.73 58.2901 127.25 58.2901C120.99 58.2901 114.2 69.2901 112.72 81.8301C112.14 86.7701 110.42 111.68 133.86 117.29C137.56 118.18 141.16 118.63 144.56 118.63C156.94 118.63 167.18 112.74 174.18 101.59C182.2 88.8101 183.84 71.6901 178.18 59.9401C175.97 55.3701 174.01 55.3701 172.28 55.3701Z" fill="#FFE471"/>
<path d="M145.24 69.2002C145.24 69.2002 134.27 77.7002 131.63 90.3102C128.98 102.92 145.24 113.54 145.24 113.54C145.24 113.54 161.5 102.92 158.85 90.3102C156.21 77.7102 145.24 69.2002 145.24 69.2002Z" fill="#D16C28"/>
<path d="M145.24 69.9302C145.24 69.9302 135.29 77.6402 132.89 89.0802C130.49 100.52 145.24 110.16 145.24 110.16C145.24 110.16 159.99 100.52 157.59 89.0802C155.19 77.6502 145.24 69.9302 145.24 69.9302Z" fill="#6C1915"/>
<path d="M142.76 75.8398C142.23 75.8398 141.8 76.5098 141.8 77.3298C141.8 78.1498 142.23 78.8198 142.76 78.8198C143.29 78.8198 143.72 78.1498 143.72 77.3298C143.72 76.4998 143.29 75.8398 142.76 75.8398Z" fill="#4C0707"/>
<path d="M146.2 79.1699C145.67 79.1699 145.24 79.8399 145.24 80.6599C145.24 81.4799 145.67 82.1499 146.2 82.1499C146.73 82.1499 147.16 81.4799 147.16 80.6599C147.17 79.8399 146.74 79.1699 146.2 79.1699Z" fill="#4C0707"/>
<path d="M145.24 83.6396C144.71 83.6396 144.28 84.3096 144.28 85.1296C144.28 85.9496 144.71 86.6197 145.24 86.6197C145.77 86.6197 146.2 85.9496 146.2 85.1296C146.2 84.3096 145.77 83.6396 145.24 83.6396Z" fill="#4C0707"/>
<path d="M151.35 85.5098C150.82 85.5098 150.39 86.1798 150.39 86.9998C150.39 87.8198 150.82 88.4898 151.35 88.4898C151.88 88.4898 152.31 87.8198 152.31 86.9998C152.32 86.1798 151.89 85.5098 151.35 85.5098Z" fill="#4C0707"/>
<path d="M147.93 89.3696C147.4 89.3696 146.97 90.0396 146.97 90.8596C146.97 91.6796 147.4 92.3496 147.93 92.3496C148.46 92.3496 148.89 91.6796 148.89 90.8596C148.89 90.0396 148.46 89.3696 147.93 89.3696Z" fill="#4C0707"/>
<path d="M141.79 88.9897C141.26 88.9897 140.83 89.6598 140.83 90.4798C140.83 91.2998 141.26 91.9697 141.79 91.9697C142.32 91.9697 142.75 91.2998 142.75 90.4798C142.76 89.6498 142.33 88.9897 141.79 88.9897Z" fill="#4C0707"/>
<path d="M137.34 87.8799C136.81 87.8799 136.38 88.5499 136.38 89.3699C136.38 90.1899 136.81 90.8599 137.34 90.8599C137.87 90.8599 138.3 90.1899 138.3 89.3699C138.3 88.5399 137.87 87.8799 137.34 87.8799Z" fill="#4C0707"/>
<path d="M139.87 95.3496C139.34 95.3496 138.91 96.0196 138.91 96.8396C138.91 97.6596 139.34 98.3296 139.87 98.3296C140.4 98.3296 140.83 97.6596 140.83 96.8396C140.83 96.0196 140.4 95.3496 139.87 95.3496Z" fill="#4C0707"/>
<path d="M142.76 97.6797C142.23 97.6797 141.8 98.3497 141.8 99.1697C141.8 99.9897 142.23 100.66 142.76 100.66C143.29 100.66 143.72 99.9897 143.72 99.1697C143.72 98.3397 143.29 97.6797 142.76 97.6797Z" fill="#4C0707"/>
<path d="M146.2 97.6797C145.67 97.6797 145.24 98.3497 145.24 99.1697C145.24 99.9897 145.67 100.66 146.2 100.66C146.73 100.66 147.16 99.9897 147.16 99.1697C147.17 98.3397 146.74 97.6797 146.2 97.6797Z" fill="#4C0707"/>
<path d="M144.69 92.3496C144.16 92.3496 143.73 93.0196 143.73 93.8396C143.73 94.6596 144.16 95.3296 144.69 95.3296C145.22 95.3296 145.65 94.6596 145.65 93.8396C145.65 93.0196 145.22 92.3496 144.69 92.3496Z" fill="#4C0707"/>
<path d="M149.86 93.8599C149.33 93.8599 148.9 94.5299 148.9 95.3499C148.9 96.1699 149.33 96.8399 149.86 96.8399C150.39 96.8399 150.82 96.1699 150.82 95.3499C150.82 94.5299 150.39 93.8599 149.86 93.8599Z" fill="#4C0707"/>
<path d="M149.86 81.3198C149.33 81.3198 148.9 81.9898 148.9 82.8098C148.9 83.6298 149.33 84.2998 149.86 84.2998C150.39 84.2998 150.82 83.6298 150.82 82.8098C150.82 81.9898 150.39 81.3198 149.86 81.3198Z" fill="#4C0707"/>
<path d="M153.55 92.3696C153.02 92.3696 152.59 93.0396 152.59 93.8596C152.59 94.6796 153.02 95.3496 153.55 95.3496C154.08 95.3496 154.51 94.6796 154.51 93.8596C154.51 93.0396 154.08 92.3696 153.55 92.3696Z" fill="#4C0707"/>
<path d="M150.82 99.1699C150.29 99.1699 149.86 99.8399 149.86 100.66C149.86 101.48 150.29 102.15 150.82 102.15C151.35 102.15 151.78 101.48 151.78 100.66C151.79 99.8299 151.35 99.1699 150.82 99.1699Z" fill="#4C0707"/>
<path d="M141.41 101.63C140.88 101.63 140.45 102.3 140.45 103.12C140.45 103.94 140.88 104.61 141.41 104.61C141.94 104.61 142.37 103.94 142.37 103.12C142.37 102.3 141.94 101.63 141.41 101.63Z" fill="#4C0707"/>
<path d="M136.89 92.8799C136.36 92.8799 135.93 93.5499 135.93 94.3699C135.93 95.1899 136.36 95.8599 136.89 95.8599C137.42 95.8599 137.85 95.1899 137.85 94.3699C137.86 93.5399 137.42 92.8799 136.89 92.8799Z" fill="#4C0707"/>
<path d="M147.17 103.77C146.64 103.77 146.21 104.44 146.21 105.26C146.21 106.08 146.64 106.75 147.17 106.75C147.7 106.75 148.13 106.08 148.13 105.26C148.13 104.44 147.7 103.77 147.17 103.77Z" fill="#4C0707"/>
<path d="M140.83 82.1499C140.3 82.1499 139.87 82.8199 139.87 83.6399C139.87 84.4599 140.3 85.1299 140.83 85.1299C141.36 85.1299 141.79 84.4599 141.79 83.6399C141.79 82.8199 141.36 82.1499 140.83 82.1499Z" fill="#4C0707"/>
<path opacity="0.3" d="M98.92 31.4302C93.48 33.0402 93.22 35.7202 93.22 35.7202C93.22 35.7202 95.16 50.1602 95.24 51.8502C95.24 51.8502 98.21 47.4802 110.38 46.5202C107.43 40.2702 103.52 34.9902 98.92 31.4302Z" fill="#031E10"/>
<path d="M182.56 14.8401C182.56 14.8401 190.25 9.37012 183.25 2.87012C183.25 2.87012 167.22 10.4001 150.38 7.21012L147.13 29.3201C147.13 29.3201 166.24 36.0201 186.02 25.8401C186.02 25.8501 191.74 16.2601 182.56 14.8401Z" fill="white"/>
<mask id="mask0_174_8435" style="mask-type:luminance" maskUnits="userSpaceOnUse" x="147" y="2" width="41" height="30">
<path d="M147.13 29.3199C147.13 29.3199 166.24 36.0199 186.02 25.8399C186.02 25.8399 191.74 16.2499 182.56 14.8299C182.56 14.8299 190.25 9.35986 183.25 2.85986C183.25 2.85986 167.22 10.3899 150.38 7.19986L147.13 29.3199Z" fill="white"/>
</mask>
<g mask="url(#mask0_174_8435)">
<path opacity="0.01" d="M148.13 0.709785L148.04 15.9798L147.95 31.2498C147.99 31.2598 150.12 32.8298 154.52 31.6698C156.74 31.0798 158.47 29.2298 159.8 26.6798C161.15 24.1098 162.1 20.8098 162.77 17.3398C163.44 13.8798 163.81 10.2398 164.03 7.00979C164.24 3.76978 164.29 0.929785 164.28 -0.970215C162.73 -0.640215 161.14 -0.330215 159.57 -0.0502148C158 0.229785 156.45 0.469785 155.01 0.639785C152.12 0.979785 149.63 1.07979 148.13 0.709785Z" fill="black"/>
<path opacity="0.01" d="M148.13 0.709805L148.04 15.9798L147.95 31.2498C148.03 31.2698 150.16 32.8098 154.49 31.6598C156.7 31.0698 158.41 29.2498 159.74 26.7198C161.1 24.1498 162.05 20.8598 162.71 17.3898C163.37 13.9198 163.73 10.2898 163.93 7.0398C164.13 3.7998 164.16 0.949805 164.14 -0.950195C162.6 -0.630195 161.02 -0.320195 159.47 -0.0401953C157.91 0.229805 156.38 0.469805 154.95 0.639805C152.09 0.979805 149.62 1.0798 148.13 0.709805Z" fill="black"/>
<path opacity="0.0118" d="M148.13 0.709844L148.04 15.9798L147.95 31.2498C148.07 31.2698 150.19 32.7898 154.47 31.6498C156.66 31.0698 158.35 29.2598 159.68 26.7698C161.04 24.2098 162 20.9198 162.65 17.4498C163.3 13.9798 163.65 10.3398 163.83 7.08984C164.01 3.83984 164.03 0.989844 164 -0.910156C162.48 -0.590156 160.91 -0.290156 159.37 -0.0201563C157.83 0.249844 156.31 0.479844 154.89 0.649844C152.05 0.979844 149.61 1.06984 148.13 0.709844Z" fill="black"/>
<path opacity="0.0157" d="M148.13 0.709609L148.04 15.9796L147.95 31.2496C148.11 31.2796 150.22 32.7596 154.44 31.6396C156.62 31.0596 158.3 29.2696 159.61 26.8096C160.98 24.2596 161.93 20.9696 162.57 17.4896C163.21 14.0196 163.55 10.3696 163.72 7.10961C163.89 3.85961 163.89 0.989609 163.86 -0.900391C162.35 -0.590391 160.79 -0.280391 159.26 -0.0203906C157.73 0.249609 156.22 0.479609 154.82 0.639609C152.02 0.989609 149.6 1.06961 148.13 0.709609Z" fill="black"/>
<path opacity="0.0196" d="M148.13 0.709648L148.04 15.9796L147.95 31.2496C148.15 31.2896 150.26 32.7397 154.42 31.6297C156.58 31.0497 158.25 29.2796 159.56 26.8596C160.94 24.3097 161.89 21.0196 162.52 17.5496C163.15 14.0696 163.48 10.4196 163.63 7.15965C163.78 3.89965 163.77 1.03965 163.73 -0.860352C162.23 -0.550352 160.69 -0.250352 159.18 0.00964844C157.66 0.269648 156.17 0.499648 154.77 0.659648C151.99 0.989648 149.59 1.06965 148.13 0.709648Z" fill="black"/>
<path opacity="0.0235" d="M148.13 0.709668L148.04 15.9797L147.95 31.2497C148.2 31.2997 150.29 32.7097 154.39 31.6197C156.54 31.0497 158.19 29.2997 159.49 26.8997C160.87 24.3597 161.83 21.0697 162.45 17.5997C163.07 14.1197 163.38 10.4597 163.52 7.18967C163.66 3.91967 163.63 1.04967 163.58 -0.840332C162.09 -0.530332 160.57 -0.240332 159.07 0.019668C157.56 0.279668 156.09 0.499668 154.7 0.669668C151.95 0.989668 149.58 1.06967 148.13 0.709668Z" fill="black"/>
<path opacity="0.0275" d="M148.13 0.709687L148.04 15.9797L147.95 31.2497C148.24 31.3097 150.32 32.6897 154.36 31.6097C156.49 31.0397 158.13 29.3097 159.43 26.9397C160.82 24.4097 161.77 21.1197 162.39 17.6397C163.01 14.1597 163.3 10.4897 163.42 7.21969C163.54 3.94969 163.5 1.06969 163.44 -0.820312C161.97 -0.520312 160.45 -0.220313 158.96 0.0296875C157.47 0.289687 156 0.509688 154.63 0.669688C151.92 0.989687 149.57 1.05969 148.13 0.709687Z" fill="black"/>
<path opacity="0.0314" d="M148.13 0.709961L148.04 15.98L147.95 31.25C148.28 31.32 150.36 32.66 154.34 31.6C156.45 31.03 158.08 29.32 159.37 26.99C160.77 24.47 161.72 21.18 162.33 17.7C162.94 14.22 163.22 10.54 163.33 7.25996C163.44 3.97996 163.38 1.09996 163.31 -0.790039C161.85 -0.490039 160.35 -0.200039 158.87 0.0499609C157.39 0.299961 155.94 0.519961 154.58 0.679961C151.88 0.989961 149.56 1.05996 148.13 0.709961Z" fill="black"/>
<path opacity="0.0353" d="M148.13 0.70998L148.04 15.98L147.95 31.25C148.32 31.32 150.39 32.64 154.31 31.59C156.41 31.03 158.02 29.34 159.31 27.03C160.71 24.51 161.67 21.23 162.27 17.75C162.87 14.26 163.13 10.58 163.23 7.29998C163.33 4.01998 163.25 1.12998 163.17 -0.77002C161.72 -0.47002 160.23 -0.19002 158.77 0.0599804C157.3 0.30998 155.86 0.51998 154.52 0.67998C151.85 0.98998 149.54 1.05998 148.13 0.70998Z" fill="black"/>
<path opacity="0.0392" d="M148.13 0.709766L148.04 15.9798L147.95 31.2498C148.36 31.3298 150.42 32.6098 154.29 31.5798C156.37 31.0198 157.97 29.3498 159.25 27.0798C160.66 24.5698 161.61 21.2898 162.2 17.7998C162.79 14.3098 163.04 10.6298 163.12 7.33977C163.2 4.04977 163.11 1.15977 163.02 -0.740234C161.58 -0.450234 160.11 -0.170234 158.66 0.0797657C157.2 0.329766 155.78 0.539766 154.45 0.689766C151.82 0.989766 149.53 1.04977 148.13 0.709766Z" fill="black"/>
<path opacity="0.0431" d="M148.13 0.709785L148.04 15.9798L147.95 31.2498C148.4 31.3398 150.45 32.5898 154.26 31.5698C156.33 31.0098 157.91 29.3598 159.18 27.1198C160.6 24.6198 161.55 21.3398 162.13 17.8498C162.71 14.3598 162.95 10.6698 163.02 7.36979C163.09 4.06979 162.98 1.17979 162.89 -0.720215C161.46 -0.430215 160 -0.150215 158.57 0.0897852C157.13 0.329785 155.72 0.539785 154.4 0.689785C151.78 0.989785 149.52 1.04979 148.13 0.709785Z" fill="black"/>
<path opacity="0.0471" d="M148.13 0.70957L148.04 15.9796L147.95 31.2496C148.44 31.3496 150.49 32.5696 154.23 31.5596C156.28 31.0096 157.85 29.3796 159.12 27.1596C160.55 24.6596 161.5 21.3896 162.07 17.8996C162.64 14.4096 162.87 10.7096 162.92 7.40957C162.97 4.10957 162.86 1.20957 162.75 -0.69043C161.34 -0.40043 159.89 -0.13043 158.47 0.10957C157.04 0.34957 155.64 0.54957 154.34 0.69957C151.75 0.98957 149.51 1.04957 148.13 0.70957Z" fill="black"/>
<path opacity="0.051" d="M148.13 0.70959L148.04 15.9796L147.95 31.2496C148.48 31.3596 150.52 32.5396 154.21 31.5496C156.25 30.9996 157.81 29.3896 159.06 27.2096C160.49 24.7196 161.44 21.4496 162.01 17.9496C162.58 14.4496 162.78 10.7496 162.82 7.43959C162.86 4.12959 162.73 1.22959 162.61 -0.67041C161.21 -0.39041 159.78 -0.12041 158.37 0.11959C156.95 0.35959 155.57 0.55959 154.28 0.69959C151.71 0.98959 149.5 1.04959 148.13 0.70959Z" fill="black"/>
<path opacity="0.0549" d="M148.13 0.709863L148.04 15.9799L147.95 31.2499C148.52 31.3599 150.55 32.5199 154.18 31.5399C156.2 30.9899 157.75 29.3999 159 27.2499C160.44 24.7699 161.39 21.4999 161.95 17.9999C162.51 14.4999 162.7 10.7899 162.73 7.47986C162.75 4.16986 162.61 1.25986 162.48 -0.640137C161.09 -0.360137 159.67 -0.100137 158.28 0.129863C156.88 0.359863 155.5 0.559863 154.22 0.699863C151.68 0.989863 149.49 1.03986 148.13 0.709863Z" fill="black"/>
<path opacity="0.0588" d="M148.13 0.709883L148.04 15.9799L147.95 31.2499C148.56 31.3699 150.59 32.4899 154.16 31.5299C156.16 30.9899 157.7 29.4199 158.94 27.2899C160.39 24.8199 161.34 21.5499 161.89 18.0499C162.44 14.5499 162.62 10.8299 162.63 7.50988C162.64 4.18988 162.48 1.27988 162.34 -0.620117C160.96 -0.350117 159.56 -0.0801172 158.18 0.139883C156.79 0.369883 155.43 0.559883 154.16 0.699883C151.65 0.989883 149.48 1.03988 148.13 0.709883Z" fill="black"/>
<path opacity="0.0627" d="M148.13 0.709668L148.04 15.9797L147.95 31.2497C148.6 31.3797 150.62 32.4697 154.13 31.5197C156.12 30.9797 157.64 29.4297 158.88 27.3397C160.34 24.8697 161.28 21.6097 161.82 18.0997C162.36 14.5997 162.53 10.8697 162.52 7.54967C162.52 4.22967 162.34 1.30967 162.19 -0.590332C160.83 -0.320332 159.43 -0.0603321 158.07 0.159668C156.69 0.389668 155.35 0.579668 154.09 0.709668C151.61 0.989668 149.47 1.03967 148.13 0.709668Z" fill="black"/>
<path opacity="0.0667" d="M148.13 0.709687L148.04 15.9797L147.95 31.2497C148.65 31.3897 150.65 32.4397 154.1 31.5097C156.07 30.9697 157.58 29.4397 158.81 27.3797C160.27 24.9197 161.22 21.6597 161.75 18.1497C162.28 14.6397 162.43 10.9097 162.41 7.58969C162.39 4.25969 162.2 1.33969 162.04 -0.570312C160.69 -0.300312 159.31 -0.0503125 157.96 0.169687C156.6 0.389687 155.26 0.579687 154.02 0.709687C151.58 0.989687 149.46 1.03969 148.13 0.709687Z" fill="black"/>
<path opacity="0.0706" d="M148.13 0.709961L148.04 15.98L147.95 31.25C148.69 31.4 150.69 32.42 154.08 31.5C156.04 30.97 157.54 29.46 158.76 27.43C160.23 24.98 161.18 21.72 161.7 18.21C162.22 14.7 162.36 10.96 162.33 7.62996C162.3 4.29996 162.09 1.36996 161.93 -0.540039C160.59 -0.280039 159.22 -0.0300391 157.89 0.189961C156.54 0.409961 155.22 0.589961 153.99 0.719961C151.54 0.989961 149.44 1.02996 148.13 0.709961Z" fill="black"/>
<path opacity="0.0745" d="M148.13 0.709746L148.04 15.9797L147.95 31.2497C148.73 31.4097 150.72 32.3897 154.05 31.4897C155.99 30.9597 157.48 29.4697 158.69 27.4697C160.17 25.0297 161.11 21.7697 161.63 18.2597C162.15 14.7497 162.27 11.0097 162.22 7.66975C162.17 4.32975 161.95 1.38975 161.78 -0.510254C160.45 -0.250254 159.1 -0.000253856 157.78 0.209746C156.44 0.429746 155.14 0.609746 153.92 0.739746C151.51 0.989746 149.43 1.02975 148.13 0.709746Z" fill="black"/>
<path opacity="0.0784" d="M148.13 0.709766L148.04 15.9798L147.95 31.2498C148.77 31.4098 150.75 32.3698 154.03 31.4798C155.96 30.9498 157.43 29.4898 158.63 27.5198C160.12 25.0798 161.06 21.8298 161.57 18.3098C162.08 14.7898 162.19 11.0498 162.12 7.69977C162.06 4.34977 161.82 1.40977 161.64 -0.490234C160.32 -0.230234 158.99 0.00976568 157.68 0.219766C156.35 0.429766 155.06 0.609766 153.86 0.739766C151.48 0.989766 149.42 1.02977 148.13 0.709766Z" fill="black"/>
<path opacity="0.0824" d="M148.13 0.709805L148.04 15.9798L147.95 31.2498C148.81 31.4198 150.78 32.3498 154 31.4798C155.91 30.9598 157.37 29.5098 158.57 27.5698C160.07 25.1398 161.01 21.8898 161.51 18.3698C162.01 14.8498 162.1 11.0998 162.03 7.7498C161.95 4.3998 161.7 1.4498 161.51 -0.450195C160.21 -0.200195 158.88 0.0398047 157.59 0.249805C156.28 0.459805 155 0.629805 153.81 0.759805C151.44 0.989805 149.41 1.0198 148.13 0.709805Z" fill="black"/>
<path opacity="0.0863" d="M148.13 0.709824L148.04 15.9798L147.95 31.2498C148.85 31.4298 150.82 32.3198 153.97 31.4698C155.87 30.9498 157.32 29.5198 158.5 27.6098C160 25.1898 160.94 21.9398 161.43 18.4198C161.92 14.8998 162 11.1398 161.91 7.77982C161.82 4.41982 161.55 1.46982 161.35 -0.430176C160.06 -0.180176 158.75 0.0498242 157.47 0.259824C156.17 0.469824 154.91 0.639824 153.72 0.759824C151.41 0.989824 149.4 1.01982 148.13 0.709824Z" fill="black"/>
<path opacity="0.0902" d="M148.13 0.709609L148.04 15.9796L147.95 31.2496C148.89 31.4396 150.85 32.2996 153.95 31.4596C155.83 30.9396 157.27 29.5396 158.45 27.6596C159.96 25.2496 160.9 21.9996 161.38 18.4696C161.86 14.9496 161.93 11.1796 161.82 7.81961C161.71 4.45961 161.43 1.49961 161.22 -0.400391C159.94 -0.150391 158.64 0.0796093 157.38 0.279609C156.09 0.479609 154.84 0.649609 153.67 0.769609C151.37 0.989609 149.39 1.01961 148.13 0.709609Z" fill="black"/>
<path opacity="0.0941" d="M148.13 0.709629L148.04 15.9796L147.95 31.2496C148.93 31.4496 150.88 32.2696 153.92 31.4496C155.79 30.9396 157.21 29.5496 158.38 27.6996C159.9 25.2996 160.84 22.0396 161.31 18.5196C161.78 14.9896 161.84 11.2196 161.72 7.84963C161.6 4.47963 161.31 1.51963 161.09 -0.380371C159.82 -0.140371 158.54 0.0896289 157.29 0.279629C156.02 0.479629 154.78 0.639629 153.62 0.759629C151.34 0.989629 149.38 1.01963 148.13 0.709629Z" fill="black"/>
<path opacity="0.098" d="M148.13 0.709902L148.04 15.9799L147.95 31.2499C148.97 31.4499 150.92 32.2499 153.9 31.4399C155.75 30.9299 157.16 29.5699 158.33 27.7399C159.86 25.3399 160.79 22.0899 161.26 18.5699C161.73 15.0399 161.76 11.2599 161.63 7.8899C161.5 4.5199 161.19 1.5499 160.96 -0.350098C159.71 -0.110098 158.44 0.109902 157.2 0.299902C155.94 0.499902 154.71 0.659902 153.57 0.769902C151.3 0.989902 149.37 1.0099 148.13 0.709902Z" fill="black"/>
<path opacity="0.102" d="M148.13 0.709687L148.04 15.9797L147.95 31.2497C149.01 31.4597 150.95 32.2297 153.87 31.4297C155.7 30.9297 157.11 29.5797 158.26 27.7897C159.8 25.3997 160.73 22.1497 161.19 18.6197C161.65 15.0897 161.67 11.2997 161.52 7.92969C161.37 4.54969 161.05 1.57969 160.81 -0.320312C159.57 -0.0903125 158.31 0.129688 157.09 0.319688C155.84 0.509688 154.63 0.669687 153.5 0.779687C151.27 0.989687 149.36 1.00969 148.13 0.709687Z" fill="black"/>
<path opacity="0.1059" d="M148.13 0.709941L148.04 15.9799L147.95 31.2499C149.05 31.4699 150.99 32.2099 153.84 31.4199C155.66 30.9199 157.05 29.5899 158.2 27.8299C159.75 25.4499 160.68 22.1999 161.13 18.6699C161.58 15.1399 161.59 11.3499 161.42 7.95994C161.26 4.57994 160.92 1.59994 160.67 -0.310059C159.44 -0.0800586 158.2 0.139941 156.99 0.319941C155.76 0.509941 154.56 0.659941 153.44 0.769941C151.24 0.989941 149.34 1.00994 148.13 0.709941Z" fill="black"/>
<path opacity="0.1098" d="M148.13 0.70998L148.04 15.98L147.95 31.25C149.09 31.48 151.02 32.18 153.82 31.41C155.62 30.91 157 29.61 158.14 27.88C159.7 25.51 160.62 22.26 161.06 18.73C161.5 15.19 161.5 11.4 161.32 8.00998C161.14 4.61998 160.79 1.63998 160.53 -0.27002C159.31 -0.0400195 158.08 0.16998 156.89 0.34998C155.67 0.53998 154.48 0.68998 153.38 0.78998C151.2 0.98998 149.33 0.99998 148.13 0.70998Z" fill="black"/>
<path opacity="0.1137" d="M148.13 0.709746L148.04 15.9797L147.95 31.2497C149.14 31.4897 151.05 32.1497 153.79 31.3997C155.58 30.8997 156.95 29.6197 158.07 27.9197C159.63 25.5597 160.56 22.3097 160.99 18.7697C161.42 15.2297 161.4 11.4297 161.21 8.02975C161.02 4.62975 160.65 1.64975 160.38 -0.260254C159.17 -0.0402539 157.96 0.169746 156.78 0.349746C155.57 0.529746 154.4 0.679746 153.31 0.779746C151.17 0.989746 149.32 0.999746 148.13 0.709746Z" fill="black"/>
<path opacity="0.1176" d="M148.13 0.709531L148.04 15.9795L147.95 31.2495C149.18 31.4995 151.08 32.1295 153.77 31.3895C155.54 30.8995 156.9 29.6395 158.02 27.9595C159.59 25.5995 160.52 22.3595 160.94 18.8195C161.36 15.2795 161.33 11.4695 161.12 8.06953C160.91 4.66953 160.53 1.67953 160.25 -0.230469C159.06 -0.0104688 157.86 0.189531 156.69 0.369531C155.49 0.549531 154.34 0.689531 153.26 0.789531C151.13 0.989531 149.31 0.999531 148.13 0.709531Z" fill="black"/>
<path opacity="0.1216" d="M148.13 0.709805L148.04 15.9798L147.95 31.2498C149.22 31.4998 151.12 32.1098 153.74 31.3798C155.5 30.8898 156.84 29.6498 157.95 28.0098C159.53 25.6598 160.45 22.4198 160.87 18.8798C161.28 15.3398 161.24 11.5198 161.02 8.1098C160.8 4.6998 160.4 1.7098 160.12 -0.200195C158.94 0.0198047 157.75 0.219805 156.6 0.389805C155.42 0.559805 154.27 0.709805 153.2 0.799805C151.1 0.989805 149.3 0.999805 148.13 0.709805Z" fill="black"/>
<path opacity="0.1255" d="M148.13 0.709824L148.04 15.9798L147.95 31.2498C149.26 31.5098 151.15 32.0798 153.71 31.3698C155.45 30.8898 156.79 29.6698 157.89 28.0498C159.48 25.7098 160.4 22.4698 160.81 18.9198C161.22 15.3698 161.16 11.5498 160.92 8.13982C160.68 4.72983 160.27 1.72982 159.98 -0.180176C158.81 0.0298242 157.64 0.229824 156.5 0.399824C155.33 0.569824 154.2 0.709824 153.14 0.799824C151.07 0.989824 149.29 0.989824 148.13 0.709824Z" fill="black"/>
<path opacity="0.1294" d="M148.13 0.709863L148.04 15.9799L147.95 31.2499C149.3 31.5199 151.18 32.0599 153.69 31.3599C155.42 30.8799 156.74 29.6799 157.83 28.0999C159.43 25.7699 160.35 22.5299 160.75 18.9799C161.15 15.4299 161.07 11.5999 160.82 8.18986C160.57 4.76986 160.14 1.76986 159.84 -0.140137C158.68 0.0698633 157.52 0.259863 156.4 0.429863C155.24 0.599863 154.12 0.729863 153.08 0.819863C151.03 0.989863 149.28 0.989863 148.13 0.709863Z" fill="black"/>
<path opacity="0.1333" d="M148.13 0.709883L148.04 15.9799L147.95 31.2499C149.34 31.5299 151.21 32.0299 153.66 31.3499C155.37 30.8699 156.69 29.6999 157.77 28.1399C159.38 25.8199 160.29 22.5799 160.68 19.0299C161.07 15.4799 160.98 11.6399 160.72 8.21988C160.45 4.79988 160.01 1.77988 159.7 -0.120117C158.56 0.0898828 157.41 0.279883 156.3 0.439883C155.16 0.599883 154.05 0.739883 153.02 0.829883C151 0.989883 149.27 0.989883 148.13 0.709883Z" fill="black"/>
<path opacity="0.1373" d="M148.13 0.709902L148.04 15.9799L147.95 31.2499C149.38 31.5399 151.25 32.0099 153.64 31.3399C155.34 30.8699 156.64 29.7099 157.71 28.1799C159.33 25.8699 160.24 22.6299 160.62 19.0699C161 15.5199 160.9 11.6799 160.62 8.2499C160.34 4.8199 159.88 1.7999 159.56 -0.100098C158.43 0.0999023 157.29 0.289902 156.2 0.439902C155.07 0.599902 153.98 0.729902 152.96 0.819902C150.96 0.989902 149.26 0.989902 148.13 0.709902Z" fill="black"/>
<path opacity="0.1412" d="M148.13 0.709922L148.04 15.9799L147.95 31.2499C149.42 31.5399 151.28 31.9799 153.61 31.3299C155.29 30.8599 156.58 29.7299 157.64 28.2299C159.27 25.9299 160.18 22.6899 160.55 19.1299C160.92 15.5699 160.8 11.7299 160.51 8.28992C160.22 4.84992 159.74 1.82992 159.41 -0.0800781C158.29 0.119922 157.17 0.299922 156.09 0.449922C154.97 0.609922 153.89 0.729922 152.89 0.819922C150.93 0.989922 149.25 0.979922 148.13 0.709922Z" fill="black"/>
<path opacity="0.1451" d="M148.13 0.709707L148.04 15.9797L147.95 31.2497C149.46 31.5497 151.31 31.9597 153.58 31.3197C155.24 30.8497 156.53 29.7397 157.58 28.2697C159.22 25.9697 160.12 22.7397 160.49 19.1797C160.86 15.6197 160.72 11.7697 160.41 8.32971C160.1 4.88971 159.62 1.85971 159.28 -0.050293C158.17 0.139707 157.07 0.319707 156 0.469707C154.89 0.619707 153.83 0.749707 152.84 0.829707C150.9 0.989707 149.23 0.979707 148.13 0.709707Z" fill="black"/>
<path opacity="0.149" d="M148.13 0.709727L148.04 15.9797L147.95 31.2497C149.5 31.5597 151.35 31.9297 153.56 31.3097C155.21 30.8397 156.48 29.7597 157.52 28.3097C159.17 26.0197 160.07 22.7897 160.43 19.2297C160.79 15.6697 160.64 11.8097 160.32 8.35973C160 4.90973 159.5 1.87973 159.15 -0.0302734C158.05 0.159727 156.96 0.339727 155.91 0.479727C154.82 0.629727 153.76 0.749727 152.79 0.829727C150.86 0.989727 149.22 0.979727 148.13 0.709727Z" fill="black"/>
<path opacity="0.1529" d="M148.13 0.71L148.04 15.98L147.95 31.25C149.54 31.57 151.38 31.91 153.53 31.3C155.16 30.84 156.43 29.77 157.46 28.36C159.12 26.08 160.02 22.85 160.37 19.28C160.72 15.72 160.56 11.85 160.22 8.4C159.88 4.95 159.37 1.91 159.01 0C157.93 0.19 156.85 0.36 155.81 0.5C154.73 0.65 153.69 0.76 152.73 0.84C150.83 0.99 149.21 0.98 148.13 0.71Z" fill="black"/>
<path opacity="0.1569" d="M148.13 0.709531L148.04 15.9795L147.95 31.2495C149.59 31.5795 151.41 31.8795 153.51 31.2895C155.13 30.8295 156.38 29.7895 157.4 28.3995C159.07 26.1295 159.96 22.8995 160.3 19.3295C160.64 15.7595 160.47 11.8895 160.11 8.42953C159.76 4.96953 159.23 1.92953 158.86 0.0195312C157.79 0.199531 156.72 0.369531 155.7 0.509531C154.63 0.649531 153.61 0.769531 152.65 0.839531C150.79 0.989531 149.2 0.969531 148.13 0.709531Z" fill="black"/>
<path opacity="0.1608" d="M148.13 0.70957L148.04 15.9796L147.95 31.2496C149.63 31.5796 151.45 31.8596 153.48 31.2796C155.08 30.8196 156.33 29.7996 157.34 28.4496C159.02 26.1896 159.91 22.9596 160.24 19.3896C160.57 15.8196 160.38 11.9396 160.02 8.47957C159.65 5.01957 159.11 1.96957 158.73 0.0595703C157.67 0.23957 156.62 0.39957 155.61 0.53957C154.56 0.67957 153.54 0.78957 152.6 0.85957C150.76 0.98957 149.19 0.96957 148.13 0.70957Z" fill="black"/>
<path opacity="0.1647" d="M148.13 0.70959L148.04 15.9796L147.95 31.2496C149.67 31.5896 151.48 31.8296 153.45 31.2696C155.04 30.8196 156.27 29.8196 157.27 28.4896C158.97 26.2396 159.85 23.0096 160.17 19.4296C160.49 15.8596 160.29 11.9696 159.91 8.50959C159.53 5.03959 158.97 1.98959 158.58 0.0795898C157.53 0.25959 156.5 0.40959 155.5 0.54959C154.46 0.68959 153.46 0.78959 152.53 0.85959C150.72 0.98959 149.18 0.96959 148.13 0.70959Z" fill="black"/>
<path opacity="0.1686" d="M148.13 0.709863L148.04 15.9799L147.95 31.2499C149.71 31.5999 151.51 31.8099 153.43 31.2599C155 30.8099 156.22 29.8299 157.22 28.5399C158.93 26.2999 159.8 23.0599 160.12 19.4899C160.44 15.9099 160.22 12.0299 159.82 8.54986C159.42 5.07986 158.85 2.01986 158.45 0.109863C157.41 0.279863 156.39 0.439863 155.41 0.569863C154.38 0.699863 153.4 0.809863 152.48 0.869863C150.69 0.989863 149.17 0.959863 148.13 0.709863Z" fill="black"/>
<path opacity="0.1725" d="M148.13 0.709648L148.04 15.9796L147.95 31.2496C149.75 31.6096 151.54 31.7796 153.4 31.2496C154.95 30.7996 156.17 29.8496 157.15 28.5796C158.87 26.3496 159.74 23.1096 160.05 19.5396C160.36 15.9597 160.13 12.0696 159.72 8.58965C159.31 5.10965 158.72 2.04965 158.32 0.139648C157.3 0.309648 156.29 0.459648 155.32 0.589648C154.3 0.719648 153.33 0.819648 152.43 0.879648C150.66 0.989648 149.16 0.959648 148.13 0.709648Z" fill="black"/>
<path opacity="0.1765" d="M148.13 0.709902L148.04 15.9799L147.95 31.2499C149.79 31.6199 151.58 31.7599 153.38 31.2499C154.92 30.8099 156.12 29.8699 157.09 28.6299C158.82 26.4099 159.69 23.1699 159.99 19.5899C160.29 16.0099 160.04 12.1099 159.62 8.6199C159.2 5.1299 158.59 2.0699 158.18 0.149902C157.17 0.319902 156.17 0.459902 155.22 0.579902C154.22 0.709902 153.26 0.799902 152.37 0.859902C150.62 0.989902 149.14 0.959902 148.13 0.709902Z" fill="black"/>
<path opacity="0.1804" d="M148.13 0.709941L148.04 15.9799L147.95 31.2499C149.83 31.6299 151.61 31.7399 153.35 31.2399C154.87 30.7999 156.07 29.8899 157.03 28.6799C158.78 26.4799 159.63 23.2299 159.92 19.6499C160.21 16.0699 159.95 12.1599 159.51 8.66994C159.07 5.17994 158.45 2.10994 158.03 0.189941C157.03 0.349941 156.05 0.499941 155.11 0.609941C154.12 0.729941 153.17 0.829941 152.3 0.879941C150.59 0.989941 149.13 0.959941 148.13 0.709941Z" fill="black"/>
<path opacity="0.1843" d="M148.13 0.709961L148.04 15.98L147.95 31.25C149.87 31.63 151.64 31.71 153.33 31.23C154.84 30.79 156.02 29.91 156.97 28.72C158.73 26.53 159.58 23.28 159.86 19.7C160.14 16.12 159.87 12.2 159.41 8.69996C158.96 5.19996 158.32 2.12996 157.89 0.209961C156.9 0.369961 155.94 0.509961 155.01 0.619961C154.03 0.739961 153.1 0.829961 152.24 0.879961C150.55 0.989961 149.12 0.949961 148.13 0.709961Z" fill="black"/>
<path opacity="0.1882" d="M148.13 0.70998L148.04 15.98L147.95 31.25C149.91 31.64 151.68 31.69 153.3 31.22C154.79 30.79 155.97 29.92 156.91 28.76C158.68 26.58 159.53 23.33 159.8 19.74C160.07 16.15 159.79 12.23 159.32 8.72998C158.85 5.22998 158.2 2.13998 157.76 0.22998C156.79 0.37998 155.83 0.51998 154.92 0.62998C153.96 0.74998 153.04 0.82998 152.18 0.87998C150.52 0.98998 149.11 0.94998 148.13 0.70998Z" fill="black"/>
<path opacity="0.1922" d="M148.13 0.709766L148.04 15.9798L147.95 31.2498C149.95 31.6498 151.71 31.6598 153.27 31.2098C154.75 30.7798 155.91 29.9398 156.84 28.8098C158.62 26.6398 159.46 23.3898 159.73 19.7998C159.99 16.2098 159.69 12.2798 159.21 8.76977C158.73 5.25977 158.07 2.16977 157.61 0.259766C156.65 0.409766 155.71 0.539766 154.81 0.649766C153.86 0.759766 152.95 0.849766 152.11 0.899766C150.49 0.989766 149.1 0.949766 148.13 0.709766Z" fill="black"/>
<path opacity="0.1961" d="M148.13 0.709551L148.04 15.9796L147.95 31.2495C149.99 31.6595 151.74 31.6396 153.25 31.1996C154.71 30.7696 155.87 29.9496 156.79 28.8496C158.59 26.6896 159.42 23.4396 159.68 19.8496C159.94 16.2596 159.62 12.3196 159.12 8.80955C158.62 5.29955 157.95 2.19955 157.48 0.289551C156.53 0.439551 155.6 0.569551 154.71 0.669551C153.77 0.779551 152.88 0.859551 152.05 0.909551C150.45 0.989551 149.09 0.949551 148.13 0.709551Z" fill="black"/>
<path opacity="0.2" d="M148.13 0.709824L148.04 15.9798L147.95 31.2498C150.03 31.6698 151.78 31.6098 153.22 31.1898C154.67 30.7698 155.81 29.9698 156.72 28.8998C158.53 26.7498 159.36 23.4998 159.61 19.8998C159.86 16.2998 159.53 12.3598 159.02 8.84982C158.51 5.32982 157.82 2.22982 157.35 0.319824C155.42 0.619824 153.59 0.829824 152.01 0.919824C150.42 0.989824 149.08 0.939824 148.13 0.709824Z" fill="black"/>
</g>
<path d="M185.93 25.3103C167.16 34.9603 149.01 29.4303 147.2 28.8403L147.13 29.3203C147.13 29.3203 166.24 36.0203 186.02 25.8403C186.02 25.8403 188.34 21.9503 187.65 18.7603C188 21.8403 185.93 25.3103 185.93 25.3103Z" fill="#D0D2D3"/>
<path d="M182.47 14.3001C182.68 14.3301 182.88 14.3701 183.08 14.4201C184.22 13.4301 186.79 10.7501 186.06 7.33008C186.53 11.4001 182.47 14.3001 182.47 14.3001Z" fill="#D0D2D3"/>
<path d="M147.13 29.3201L157.77 29.1901L147.69 25.1201L147.13 29.3201Z" fill="#929497"/>
<path d="M110.68 13.0101C110.68 13.0101 93.67 25.0201 86.01 38.6801L95.25 51.8501C95.25 51.8501 120.62 17.3901 157.78 29.2001L161.49 1.3601C161.48 1.3501 139.58 -4.3299 110.68 13.0101Z" fill="white"/>
<path d="M94.61 50.9402L95.24 51.8402C95.24 51.8402 120.61 17.3802 157.77 29.1902L157.91 28.1702C121.97 17.3302 96.82 48.1302 94.61 50.9402Z" fill="#D0D2D3"/>
<path d="M101.82 26.2203C101.22 26.1403 100.58 26.2603 99.9 26.5803C99.22 26.9003 98.53 27.3903 97.84 28.0603C97.15 28.7303 96.47 29.4903 95.82 30.3603C95.57 30.6903 95.32 31.0503 95.07 31.4103C94.82 31.7703 94.57 32.1503 94.33 32.5203C94.09 32.9003 93.86 33.2603 93.65 33.6103C93.44 33.9603 93.27 34.2703 93.13 34.5303C96.34 36.9103 97.94 38.1003 101.14 40.4803C101.28 40.3503 101.42 40.2103 101.57 40.0503C101.72 39.9003 101.86 39.7503 101.99 39.6103C102.28 39.3003 102.54 39.0103 102.78 38.7203C101.63 37.7503 101.05 37.2703 99.9 36.3003C100.1 36.0903 100.29 35.9003 100.46 35.7203C100.63 35.5403 100.82 35.3303 101.04 35.0903C101.62 34.4503 102.16 33.8003 102.66 33.1203C103.16 32.4503 103.55 31.7803 103.83 31.1003C104.11 30.4303 104.23 29.7503 104.2 29.0903C104.17 28.4203 103.92 27.7903 103.43 27.1903C102.95 26.6303 102.42 26.3003 101.82 26.2203ZM101.75 31.6903C101.58 32.1203 101.34 32.5503 101.03 32.9903C100.72 33.4303 100.39 33.8503 100.03 34.2603C99.77 34.5603 99.56 34.7903 99.42 34.9503C99.28 35.1003 99.11 35.2903 98.92 35.4903C97.63 34.4103 96.99 33.8603 95.7 32.7803C95.99 32.3303 96.35 31.8103 96.79 31.2503C97.21 30.7003 97.63 30.2303 98.06 29.8203C98.49 29.4103 98.9 29.1203 99.3 28.9303C99.69 28.7403 100.07 28.6703 100.43 28.7203C100.79 28.7603 101.11 28.9503 101.41 29.2703C101.75 29.6403 101.93 30.0303 101.96 30.4403C101.98 30.8403 101.91 31.2603 101.75 31.6903Z" fill="#D82E21"/>
<path d="M116.99 26.3303C116.62 26.3803 115.4 27.6903 114.45 28.2403C113.36 28.8603 112.44 29.1703 111.64 29.1503C110.84 29.1303 110.15 28.7403 109.56 27.9503C112.34 25.9103 113.81 25.0003 116.84 23.4103C116.79 23.2703 116.73 23.1103 116.66 22.9203C116.59 22.7303 116.51 22.5503 116.43 22.3903C116.14 21.7903 115.78 21.2803 115.32 20.8903C114.87 20.5003 114.34 20.2403 113.75 20.1303C113.16 20.0203 112.51 20.0603 111.8 20.2603C111.09 20.4603 110.35 20.8503 109.57 21.4203C108.66 22.0903 107.96 22.8003 107.47 23.5303C106.97 24.2603 106.65 24.9703 106.49 25.6503C106.33 26.3303 106.33 26.9803 106.47 27.5903C106.62 28.2003 106.89 28.7503 107.28 29.2603C107.68 29.7803 108.14 30.1703 108.66 30.4603C109.18 30.7503 109.77 30.9103 110.42 30.9503C111.07 30.9903 111.78 30.9003 112.55 30.6903C113.32 30.4803 114.16 30.1203 115.08 29.6103C115.71 29.2603 116.27 28.9203 116.76 28.5803C117.25 28.2403 118.02 27.7103 118.05 27.5003C118.06 27.4003 117.75 27.0403 117.56 26.8203C117.38 26.6103 117.08 26.3203 116.99 26.3303ZM108.64 24.7403C108.85 24.0303 109.39 23.3403 110.26 22.7103C110.7 22.3903 111.13 22.1803 111.53 22.0903C111.93 21.9903 112.29 21.9803 112.62 22.0503C112.95 22.1203 113.24 22.2703 113.5 22.4903C113.76 22.7103 113.98 22.9703 114.14 23.2903C111.95 24.6003 110.89 25.3203 108.85 26.8703C108.5 26.1603 108.43 25.4503 108.64 24.7403Z" fill="#D82E21"/>
<path d="M125.59 13.9602C124.55 13.6202 123.16 13.7902 121.51 14.5202C120.88 14.8002 120.24 15.1302 119.61 15.5302C118.97 15.9302 117.99 16.5002 117.92 16.7602C117.86 17.0002 118.74 18.0602 118.97 18.0402C119.18 18.0302 119.82 17.3902 120.27 17.0902C120.73 16.8002 121.24 16.5202 121.81 16.2802C122.73 15.8902 123.49 15.7702 124.08 15.9002C124.67 16.0302 125.07 16.5302 125.31 17.3602C125.35 17.5202 125.38 17.6002 125.42 17.7602C125.19 17.8102 124.91 17.8802 124.58 17.9702C124.25 18.0602 123.83 18.2102 123.33 18.4002C122.65 18.6602 122.03 18.9902 121.48 19.3802C120.93 19.7702 120.48 20.2102 120.13 20.6902C119.78 21.1702 119.57 21.6702 119.48 22.2002C119.39 22.7302 119.46 23.2502 119.69 23.7802C119.92 24.3302 120.23 24.7402 120.61 25.0402C120.99 25.3402 121.42 25.5402 121.9 25.6502C122.39 25.7602 122.93 25.7802 123.53 25.7102C124.13 25.6402 124.78 25.5002 125.47 25.2902C126.21 25.0702 126.92 24.8202 127.61 24.5202C128.3 24.2202 128.88 23.9602 129.37 23.7402C128.69 20.9202 128.35 19.5202 127.68 16.7002C127.32 15.2402 126.64 14.3102 125.59 13.9602ZM125.95 23.3102C125.6 23.4502 125.26 23.5802 124.92 23.6802C124.66 23.7602 124.38 23.8402 124.08 23.9102C123.78 23.9802 123.49 24.0002 123.21 23.9702C122.93 23.9402 122.67 23.8402 122.42 23.6802C122.18 23.5202 121.98 23.2502 121.84 22.8602C121.61 22.2502 121.68 21.7002 122.06 21.2002C122.44 20.7002 123.11 20.2602 124.07 19.9202C124.32 19.8302 124.62 19.7402 124.99 19.6502C125.35 19.5602 125.66 19.4902 125.9 19.4402C126.29 20.8202 126.49 21.5102 126.88 22.8902C126.6 23.0202 126.29 23.1702 125.95 23.3102Z" fill="#D82E21"/>
<path d="M140.22 20.6805C140.11 20.6405 139.44 20.9805 139.05 21.0605C138.66 21.1405 138.24 21.1905 137.78 21.2205C136.63 21.2905 135.7 21.0105 134.94 20.3905C134.18 19.7605 133.68 18.7105 133.45 17.2005C133.25 15.8805 133.41 14.7605 133.94 13.8205C134.48 12.8905 135.44 12.2805 136.78 12.0805C137.88 11.9205 139.47 12.2905 139.76 12.1505C139.85 12.1005 139.98 11.5005 140.05 11.1105C140.11 10.7205 140.21 10.1805 140.13 10.0905C140 9.93047 139.04 9.89047 138.45 9.88047C137.86 9.87047 137.19 9.93047 136.44 10.0605C135.32 10.2505 134.37 10.6105 133.58 11.1305C132.79 11.6405 132.18 12.2505 131.73 12.9405C131.28 13.6305 130.99 14.3805 130.87 15.1905C130.74 16.0005 130.77 16.8505 130.93 17.7105C131.29 19.5805 132.09 20.9605 133.25 21.9405C134.41 22.9305 135.9 23.3605 137.8 23.2805C138.92 23.2405 140.58 23.0005 140.78 22.6605C140.86 22.5305 140.69 21.9205 140.58 21.5605C140.47 21.2105 140.3 20.7105 140.22 20.6805Z" fill="#D82E21"/>
<path d="M150.56 9.29031C149.98 9.26031 149.45 9.31031 148.96 9.45031C148.47 9.59031 148.04 9.78031 147.67 10.0203C147.3 10.2603 146.98 10.5203 146.72 10.8003C146.46 11.0903 146.24 11.3503 146.07 11.6003C146.21 8.40031 146.29 6.81031 146.43 3.61031C146.21 3.59031 145.96 3.57031 145.68 3.57031C145.4 3.57031 145.16 3.58031 144.94 3.59031C144.72 3.61031 144.48 3.63031 144.21 3.67031C143.94 3.71031 143.7 3.76031 143.48 3.81031C143.43 11.5103 143.4 15.3503 143.34 23.0503C143.5 23.1003 143.69 23.1403 143.9 23.1703C144.11 23.2003 144.28 23.2303 144.43 23.2403C144.59 23.2603 144.78 23.2703 144.99 23.2703C145.2 23.2703 145.39 23.2703 145.55 23.2503C145.67 20.4303 145.74 19.0203 145.86 16.2003C145.9 15.3603 146.02 14.6403 146.24 14.0603C146.46 13.4803 146.75 13.0003 147.1 12.6403C147.46 12.2803 147.87 12.0203 148.33 11.8703C148.79 11.7203 149.26 11.6503 149.75 11.6903C150.61 11.7503 151.23 12.1103 151.57 12.7803C151.91 13.4503 151.98 14.4503 151.81 15.7703C151.37 19.1003 151.15 20.7703 150.71 24.1003C150.87 24.1703 151.05 24.2503 151.24 24.3103C151.44 24.3703 151.61 24.4303 151.78 24.4603C151.94 24.5003 152.12 24.5403 152.33 24.5703C152.53 24.6003 152.71 24.6203 152.88 24.6303C153.5 20.9403 153.82 19.1003 154.44 15.4103C154.76 13.5403 154.62 12.0603 153.99 11.0103C153.36 9.98031 152.2 9.38031 150.56 9.29031Z" fill="#D82E21"/>
<path d="M101.38 25.7403C100.78 25.6603 100.14 25.7803 99.46 26.1003C98.78 26.4203 98.09 26.9103 97.4 27.5803C96.71 28.2403 96.03 29.0103 95.38 29.8803C95.13 30.2103 94.88 30.5703 94.63 30.9303C94.38 31.3003 94.13 31.6703 93.89 32.0403C93.65 32.4203 93.42 32.7803 93.22 33.1303C93.01 33.4803 92.84 33.7903 92.7 34.0503C95.91 36.4303 97.51 37.6203 100.71 40.0003C100.85 39.8703 100.99 39.7303 101.14 39.5703C101.29 39.4203 101.43 39.2703 101.56 39.1303C101.85 38.8203 102.11 38.5303 102.35 38.2403C101.2 37.2703 100.62 36.7903 99.47 35.8203C99.67 35.6103 99.86 35.4203 100.03 35.2303C100.2 35.0503 100.39 34.8403 100.6 34.6003C101.18 33.9603 101.72 33.3103 102.22 32.6303C102.72 31.9603 103.11 31.2903 103.39 30.6103C103.67 29.9403 103.79 29.2603 103.76 28.6003C103.73 27.9303 103.48 27.3003 102.99 26.7003C102.52 26.1503 101.98 25.8203 101.38 25.7403ZM101.31 31.2103C101.14 31.6403 100.9 32.0703 100.59 32.5103C100.28 32.9503 99.95 33.3703 99.59 33.7803C99.33 34.0803 99.12 34.3103 98.98 34.4603C98.84 34.6103 98.67 34.8003 98.48 35.0003C97.19 33.9203 96.55 33.3703 95.26 32.2903C95.55 31.8403 95.91 31.3203 96.34 30.7603C96.76 30.2103 97.19 29.7403 97.61 29.3303C98.04 28.9203 98.45 28.6303 98.85 28.4403C99.24 28.2503 99.62 28.1803 99.98 28.2303C100.34 28.2703 100.66 28.4603 100.96 28.7803C101.3 29.1503 101.48 29.5403 101.51 29.9503C101.55 30.3603 101.48 30.7803 101.31 31.2103Z" fill="#FD5C4A"/>
<path d="M116.56 25.8401C116.19 25.8901 114.97 27.2001 114.02 27.7501C112.93 28.3701 112.01 28.6801 111.21 28.6601C110.41 28.6401 109.72 28.2501 109.13 27.4601C111.91 25.4201 113.38 24.5101 116.41 22.9201C116.36 22.7801 116.3 22.6201 116.23 22.4301C116.16 22.2401 116.08 22.0601 116 21.9001C115.71 21.3001 115.35 20.7901 114.89 20.4001C114.44 20.0101 113.91 19.7601 113.32 19.6401C112.73 19.5301 112.08 19.5701 111.37 19.7701C110.66 19.9701 109.92 20.3601 109.14 20.9301C108.23 21.6001 107.53 22.3101 107.04 23.0401C106.54 23.7701 106.22 24.4801 106.06 25.1601C105.9 25.8401 105.9 26.4901 106.04 27.1001C106.19 27.7101 106.46 28.2601 106.85 28.7701C107.25 29.2901 107.71 29.6801 108.23 29.9801C108.75 30.2701 109.34 30.4301 109.99 30.4701C110.64 30.5101 111.35 30.4301 112.12 30.2101C112.89 30.0001 113.73 29.6401 114.65 29.1301C115.28 28.7801 115.84 28.4401 116.33 28.1001C116.82 27.7601 117.59 27.2301 117.62 27.0201C117.63 26.9201 117.32 26.5601 117.13 26.3401C116.95 26.1301 116.65 25.8301 116.56 25.8401ZM108.2 24.2601C108.41 23.5501 108.95 22.8601 109.82 22.2301C110.26 21.9101 110.69 21.7001 111.09 21.6101C111.49 21.5101 111.85 21.5001 112.18 21.5701C112.51 21.6401 112.8 21.7901 113.06 22.0101C113.32 22.2301 113.54 22.4901 113.7 22.8101C111.51 24.1201 110.45 24.8401 108.41 26.3901C108.07 25.6801 107.99 24.9701 108.2 24.2601Z" fill="#FD5C4A"/>
<path d="M125.16 13.4802C124.12 13.1402 122.73 13.3102 121.08 14.0402C120.45 14.3202 119.81 14.6502 119.18 15.0502C118.54 15.4502 117.56 16.0202 117.49 16.2802C117.43 16.5202 118.31 17.5802 118.54 17.5602C118.75 17.5402 119.38 16.9102 119.84 16.6102C120.3 16.3202 120.81 16.0402 121.38 15.8002C122.3 15.4102 123.06 15.2902 123.65 15.4202C124.23 15.5602 124.64 16.0502 124.88 16.8802C124.93 17.0402 124.95 17.1202 124.99 17.2802C124.76 17.3302 124.48 17.4002 124.15 17.4902C123.82 17.5802 123.4 17.7302 122.9 17.9202C122.22 18.1802 121.6 18.5102 121.05 18.9002C120.5 19.2902 120.05 19.7302 119.7 20.2102C119.35 20.6902 119.14 21.1902 119.05 21.7202C118.96 22.2502 119.03 22.7702 119.26 23.3002C119.49 23.8502 119.8 24.2602 120.18 24.5602C120.55 24.8602 120.98 25.0602 121.47 25.1702C121.96 25.2802 122.5 25.3002 123.1 25.2302C123.7 25.1602 124.35 25.0202 125.05 24.8102C125.79 24.5902 126.5 24.3402 127.19 24.0402C127.88 23.7402 128.47 23.4802 128.95 23.2602C128.27 20.4402 127.93 19.0302 127.26 16.2202C126.89 14.7602 126.2 13.8202 125.16 13.4802ZM125.51 22.8202C125.16 22.9602 124.82 23.0902 124.48 23.1902C124.22 23.2702 123.94 23.3502 123.64 23.4202C123.34 23.4902 123.05 23.5102 122.77 23.4702C122.49 23.4402 122.23 23.3402 121.98 23.1802C121.74 23.0202 121.54 22.7502 121.4 22.3602C121.17 21.7502 121.24 21.2002 121.62 20.7002C122 20.2002 122.67 19.7602 123.63 19.4202C123.88 19.3302 124.18 19.2402 124.55 19.1502C124.91 19.0602 125.22 18.9902 125.46 18.9402C125.85 20.3202 126.05 21.0102 126.44 22.3902C126.17 22.5402 125.86 22.6802 125.51 22.8202Z" fill="#FD5C4A"/>
<path d="M139.78 20.2C139.66 20.16 139 20.5 138.61 20.58C138.22 20.66 137.8 20.71 137.34 20.74C136.19 20.81 135.26 20.53 134.5 19.91C133.74 19.28 133.24 18.23 133.01 16.72C132.81 15.4 132.97 14.28 133.5 13.34C134.04 12.41 135 11.8 136.34 11.6C137.44 11.44 139.03 11.81 139.32 11.67C139.41 11.62 139.54 11.02 139.61 10.63C139.67 10.24 139.77 9.7 139.69 9.61C139.56 9.45 138.6 9.41 138.01 9.4C137.42 9.39 136.75 9.45 136 9.58C134.88 9.77 133.93 10.13 133.14 10.65C132.35 11.16 131.74 11.77 131.29 12.46C130.84 13.15 130.55 13.9 130.43 14.71C130.3 15.53 130.33 16.37 130.49 17.23C130.85 19.1 131.65 20.48 132.81 21.46C133.98 22.45 135.47 22.88 137.36 22.8C138.48 22.75 140.13 22.52 140.34 22.18C140.42 22.05 140.25 21.44 140.14 21.08C140.04 20.73 139.87 20.22 139.78 20.2Z" fill="#FD5C4A"/>
<path d="M150.13 8.80008C149.55 8.77008 149.02 8.82008 148.53 8.96008C148.04 9.10008 147.61 9.29008 147.24 9.53008C146.87 9.77008 146.55 10.0301 146.29 10.3101C146.03 10.6001 145.81 10.8601 145.64 11.1101C145.78 7.91008 145.85 6.32008 146 3.12008C145.78 3.10008 145.53 3.08008 145.25 3.08008C144.97 3.08008 144.73 3.09008 144.51 3.10008C144.29 3.12008 144.05 3.14008 143.78 3.18008C143.51 3.22008 143.27 3.27008 143.05 3.32008C142.99 11.0201 142.97 14.8601 142.91 22.5601C143.07 22.6101 143.26 22.6401 143.47 22.6801C143.68 22.7101 143.86 22.7401 144.01 22.7501C144.17 22.7701 144.36 22.7801 144.57 22.7801C144.78 22.7801 144.97 22.7801 145.13 22.7601C145.26 19.9401 145.32 18.5301 145.44 15.7101C145.48 14.8701 145.6 14.1501 145.82 13.5701C146.04 12.9901 146.33 12.5101 146.68 12.1601C147.04 11.8001 147.45 11.5401 147.91 11.3901C148.37 11.2401 148.85 11.1701 149.33 11.2101C150.19 11.2701 150.81 11.6401 151.15 12.3001C151.49 12.9701 151.56 13.9701 151.39 15.2901C150.95 18.6201 150.73 20.2901 150.29 23.6201C150.45 23.6901 150.63 23.7601 150.82 23.8301C151.02 23.9001 151.2 23.9501 151.36 23.9901C151.52 24.0301 151.7 24.0601 151.91 24.1001C152.11 24.1301 152.29 24.1501 152.46 24.1601C153.08 20.4701 153.4 18.6301 154.02 14.9401C154.34 13.0701 154.2 11.5901 153.57 10.5401C152.93 9.50008 151.77 8.90008 150.13 8.80008Z" fill="#FD5C4A"/>
</svg>
