<svg width="178" height="163" viewBox="0 0 178 163" fill="none" xmlns="http://www.w3.org/2000/svg">
<g clip-path="url(#clip0_174_5094)">
<path opacity="0.2" d="M118.11 132.05C106.45 132.05 77.41 129.13 77.41 129.13C77.41 129.13 65.84 130.02 66.25 134.9C66.66 139.77 72.19 140.73 116.53 140.86C160.87 140.99 181.99 141.18 176.71 135C171.42 128.8 129.76 132.05 118.11 132.05Z" fill="black"/>
<path opacity="0.2" d="M139.89 133.33C127.53 133.58 85.11 131.02 82.87 131.82C82.87 131.82 78.58 132.15 80.85 135.01C83.12 137.87 104.31 138.66 126.52 137.51C148.72 136.36 157.27 138.71 157.55 135.01C157.82 131.31 152.25 133.08 139.89 133.33Z" fill="black"/>
<path d="M142.94 52.3202C144.17 24.3402 131.41 19.8202 118.91 19.2702V19.2002C118.37 19.2002 117.82 19.2102 117.28 19.2202C116.73 19.2102 116.19 19.2002 115.65 19.2002V19.2702C103.15 19.8202 90.39 24.3402 91.62 52.3202C92.96 82.7502 64.32 68.4302 64.32 105.12C64.32 138.02 108.21 137.82 117.28 137.43C126.35 137.82 170.24 138.02 170.24 105.12C170.24 68.4302 141.6 82.7502 142.94 52.3202Z" fill="#A9C63F"/>
<path d="M142.94 52.3201C143.89 30.8701 136.61 23.2201 127.53 20.5601C130.03 24.7901 136.71 33.9501 133.78 50.7501C127.8 85.0201 135.6 78.1501 140.95 93.3901C154.11 130.87 81.02 145.62 64.32 105.17C64.36 138.03 108.21 137.83 117.28 137.44C126.35 137.83 170.24 138.03 170.24 105.13C170.24 68.4301 141.6 82.7501 142.94 52.3201Z" fill="#89AF28"/>
<path opacity="0.3" d="M120.63 19.3799C120.29 21.4099 117.3 42.3699 136.74 53.4599C138.96 54.7299 141.04 55.9099 142.99 57.0099C142.89 55.5699 142.87 54.0199 142.94 52.3199C144.12 25.6199 132.55 20.2899 120.63 19.3799Z" fill="#024C27"/>
<path opacity="0.3" d="M109.47 26.1603C105.58 25.0303 100.75 29.9603 98.66 37.1603C96.58 44.3603 98.04 51.1103 101.92 52.2303C105.81 53.3603 110.65 48.4303 112.73 41.2303C114.81 34.0403 113.36 27.2903 109.47 26.1603Z" fill="white"/>
<path opacity="0.3" d="M106.42 33.1403C104.61 32.6203 102.37 34.9003 101.4 38.2503C100.43 41.5903 101.11 44.7303 102.91 45.2503C104.71 45.7703 106.96 43.4903 107.93 40.1403C108.91 36.8003 108.23 33.6703 106.42 33.1403Z" fill="white"/>
<path opacity="0.3" d="M156.04 76.3398C156.04 76.3398 180.53 133.34 101.08 136.75C108.27 137.66 114.46 137.55 117.28 137.43C126.35 137.82 170.24 138.02 170.24 105.12C170.24 86.7399 163.05 81.1598 156.04 76.3398Z" fill="#024C27"/>
<path opacity="0.3" d="M108.57 20.15L107.59 20.39C107.59 20.39 111.22 24.64 117.88 24.64C124.54 24.64 128.62 20.91 128.62 20.91C128.62 20.91 120.25 17.67 108.57 20.15Z" fill="#024C27"/>
<path opacity="0.3" d="M112.44 19.5202C112.44 19.5202 116.02 22.4302 119.89 21.9302C123.75 21.4302 124.51 19.8502 124.51 19.8502C124.51 19.8502 116.31 18.8802 112.44 19.5202Z" fill="#024C27"/>
<path d="M117.28 0.840064C117.28 0.840064 119.4 7.14006 116.53 20.5601C116.53 20.5601 118.23 21.3801 120.85 20.5601C120.85 20.5601 118.64 6.60006 122.51 1.73006C122.51 1.73006 121.13 -1.47994 117.28 0.840064Z" fill="#54382B"/>
<path d="M117.28 0.840064C117.28 0.840064 118.5 3.13006 122.51 1.73006C122.51 1.73006 121.13 -1.47994 117.28 0.840064Z" fill="#7A694B"/>
<path d="M120.46 7.79004C119.79 10.27 118.99 13.96 119.21 16.82C119.42 19.54 119.14 20.54 118.87 20.9C119.45 20.88 120.1 20.78 120.84 20.55C120.85 20.56 119.74 13.6 120.46 7.79004Z" fill="#3A231A"/>
<path opacity="0.3" d="M84.8 78.36C79.12 78.18 70.25 87.63 69.11 99.91C67.97 112.18 82.52 117.87 80.25 103.77C77.98 89.6799 88.89 83.3099 88.89 83.3099C91.17 81.5699 90.48 78.54 84.8 78.36Z" fill="white"/>
<path d="M120.05 10.96C119.5 11.3 118.87 12.66 119.67 13.29C120.46 13.92 125.18 17.3 125.18 17.3L125.8 16.66C123.85 15.47 120.05 10.96 120.05 10.96Z" fill="#037A3F"/>
<path d="M142.25 17.3899C116.85 3.3299 122.06 22.3499 122.53 25.3499C122.53 25.3499 123.62 44.8299 153.83 56.6799C153.83 56.6799 159.68 57.9599 167.12 66.8399C167.11 66.8499 167.65 31.4499 142.25 17.3899Z" fill="#037A3F"/>
<path d="M142.25 17.3899C132.81 12.1699 127.6 11.5099 124.8 12.8999C127.82 12.2599 132.8 13.2899 140.83 17.4599C166.61 30.8199 167.03 66.2199 167.03 66.2199C159.36 57.5399 153.47 56.4199 153.47 56.4199C152.35 56.0199 151.29 55.5999 150.25 55.1699C151.4 55.6799 152.58 56.1899 153.82 56.6799C153.82 56.6799 159.67 57.9599 167.11 66.8399C167.11 66.8499 167.65 31.4499 142.25 17.3899Z" fill="#078E47"/>
<path d="M124.07 14.7L123.15 14.25C120.65 17.49 122.27 23.73 122.52 25.35C122.52 25.35 123.61 44.83 153.82 56.68C153.82 56.68 159.67 57.96 167.11 66.84C162.99 41.66 124.07 14.7 124.07 14.7Z" fill="#03592C"/>
<path d="M131.27 35.85C124.35 26.16 126.56 16.19 126.58 16.09L126.18 16C126.16 16.1 123.9 26.24 130.94 36.09C137.95 45.91 151.71 52.34 151.85 52.4L152.02 52.03C151.89 51.97 138.22 45.58 131.27 35.85Z" fill="#02421E"/>
<path d="M132.25 20.5199L131.86 20.4199C131.84 20.5199 129.49 30.0399 141.59 39.0799L141.83 38.7599C129.96 29.8899 132.23 20.6199 132.25 20.5199Z" fill="#02421E"/>
<path d="M138.74 26.0499L138.89 26.4299C138.96 26.3999 146 23.8499 154.27 32.3499L154.56 32.0699C146.09 23.3599 138.81 26.0199 138.74 26.0499Z" fill="#02421E"/>
<path d="M142.97 31.0602L143.03 31.4602C143.11 31.4402 151.68 30.3702 159.41 46.1802L159.77 46.0002C151.91 29.9302 143.33 31.0102 142.97 31.0602Z" fill="#02421E"/>
<path d="M150.34 37.8901C150.36 37.9801 152.26 47.0201 158.72 55.9901L159.05 55.7501C152.65 46.8601 150.76 37.9001 150.74 37.8101L150.34 37.8901Z" fill="#02421E"/>
<path d="M129.75 18.4501L129.82 18.8501C129.9 18.8401 137.69 17.6701 143.81 23.1701L144.08 22.8701C137.81 17.2301 129.83 18.4401 129.75 18.4501Z" fill="#02421E"/>
<path d="M123.69 14.2598L123.3 14.0698C123.3 14.0698 122.9 14.6298 122.84 14.7098C122.84 14.7098 155.31 35.2898 167.1 66.4698C167.11 66.4598 163.71 42.7998 123.69 14.2598Z" fill="#02421E"/>
<path opacity="0.2" d="M75.68 157.16C65.51 156.97 31.92 155.96 31.92 155.96C31.92 155.96 18.23 155.96 23.74 160.73C25.56 162.3 59.16 162.48 73.14 162.87C87.12 163.26 108.73 161.16 110.01 158.27C111.28 155.38 85.85 157.34 75.68 157.16Z" fill="black"/>
<path opacity="0.2" d="M65.2801 158.27C57.6301 158.27 26.3201 158.98 30.1701 159.44C30.1701 159.44 67.7001 164.36 87.8801 160.73C108.07 157.09 72.9301 158.27 65.2801 158.27Z" fill="black"/>
<path d="M81.93 90.56C82.95 67.52 72.44 63.8 62.14 63.35V63.29C61.69 63.29 61.24 63.3 60.79 63.3C60.34 63.29 59.89 63.29 59.44 63.29V63.35C49.15 63.8 38.64 67.52 39.65 90.56C40.76 115.62 17.17 103.83 17.17 134.05C17.17 161.15 53.32 160.98 60.78 160.66C68.25 160.98 104.39 161.15 104.39 134.05C104.42 103.83 80.83 115.62 81.93 90.56Z" fill="#D1B182"/>
<path d="M90.69 111.93C85.16 108.14 78.89 103.85 79.48 90.45C79.9 80.8 78.24 73.99 74.53 70.2C71.8 67.42 67.95 66.06 62.04 65.8L61.33 65.75C61.17 65.75 61.01 65.75 60.85 65.76C60.85 65.76 60.63 65.76 60.57 65.76L59.57 65.8C53.66 66.06 49.81 67.42 47.08 70.2C43.37 73.99 41.7 80.81 42.13 90.45C42.72 103.85 36.45 108.14 30.92 111.93C25.13 115.89 19.66 119.64 19.66 134.05C19.66 155.91 46.23 158.27 57.65 158.27C58.72 158.27 59.75 158.25 60.71 158.21H60.82H60.93C61.59 158.24 62.66 158.27 63.99 158.27C69.18 158.27 79.13 157.75 87.53 154.23C97.11 150.22 101.97 143.43 101.97 134.05C101.96 119.64 96.49 115.9 90.69 111.93Z" fill="#F4EAC3"/>
<path d="M88.3801 115.31C82.6101 111.36 74.7001 105.95 75.3901 90.2801C75.7601 81.9301 74.4501 75.9801 71.6001 73.0701C70.2901 71.7301 68.0001 70.1601 61.8501 69.8901L61.2101 69.8501H60.9201H60.6201L59.7301 69.8901C53.5901 70.1601 51.3001 71.7301 49.9901 73.0701C47.1401 75.9801 45.8301 81.9301 46.2001 90.2801C46.8901 105.95 38.9801 111.36 33.2101 115.32C27.7101 119.09 23.7301 121.81 23.7301 134.06C23.7301 141.8 27.7101 147.21 35.9101 150.58C43.5301 153.72 52.7901 154.18 57.6301 154.18C58.6401 154.18 59.6101 154.16 60.5101 154.12L60.8001 154.11L61.0801 154.12C61.7001 154.15 62.7001 154.18 63.9701 154.18C68.8501 154.18 78.1901 153.7 85.9401 150.46C93.9701 147.1 97.8701 141.74 97.8701 134.05C97.8701 121.8 93.8901 119.08 88.3801 115.31Z" fill="#FFF6D2"/>
<path d="M58.93 142.79C58.93 158 47.2 160.05 47.17 160.06C53.21 160.85 58.44 160.76 60.8 160.66C63.16 160.76 68.38 160.85 74.43 160.06C60.17 160.06 58.93 142.79 58.93 142.79Z" fill="#8DC63F"/>
<path d="M58.93 142.79C58.93 150.35 56.03 154.66 53.11 157.08C56.45 157.77 61.33 158.31 65.51 156.96C59.6 152 58.93 142.79 58.93 142.79Z" fill="#7BAF28"/>
<path opacity="0.3" d="M58.93 108.84C58.93 108.84 50.29 113.94 48.6 125.33C46.91 136.72 58.59 137.81 58.59 137.81C58.59 137.81 69.51 139.43 68.85 126.44C68.19 113.46 58.93 108.84 58.93 108.84Z" fill="#F4EAC3"/>
<path opacity="0.3" d="M58.9001 144.15C58.9001 144.15 61.3201 110.76 59.3201 68.5698C59.3201 68.5798 58.0001 107.67 58.9001 144.15Z" fill="#5E1313"/>
<path d="M52.86 120.22C51.82 120.22 50.98 123.01 50.98 126.45C50.98 129.89 51.82 132.68 52.86 132.68C53.9 132.68 54.74 129.89 54.74 126.45C54.74 123 53.9 120.22 52.86 120.22Z" fill="#492222"/>
<path d="M52.5601 122.12C52.2901 122.12 52.0701 122.84 52.0701 123.72C52.0701 124.61 52.2901 125.32 52.5601 125.32C52.8301 125.32 53.0401 124.6 53.0401 123.72C53.0401 122.84 52.8301 122.12 52.5601 122.12Z" fill="#FFF6D2"/>
<path d="M65.1 120.22C64.06 120.22 63.22 123.01 63.22 126.45C63.22 129.89 64.06 132.68 65.1 132.68C66.14 132.68 66.98 129.89 66.98 126.45C66.98 123 66.14 120.22 65.1 120.22Z" fill="#492222"/>
<path d="M64.7901 122.12C64.5201 122.12 64.3101 122.84 64.3101 123.72C64.3101 124.61 64.5301 125.32 64.7901 125.32C65.0601 125.32 65.2801 124.6 65.2801 123.72C65.2801 122.84 65.0601 122.12 64.7901 122.12Z" fill="#FFF6D2"/>
<path d="M0 69.1802C18.48 75.2902 5.81 98.8002 5.81 98.8002C17.96 97.5302 35.74 85.1002 35.74 85.1002C33.53 71.3802 21.3 51.7002 21.3 51.7002C11.64 63.5502 0 69.1802 0 69.1802Z" fill="white"/>
<mask id="mask0_174_5094" style="mask-type:luminance" maskUnits="userSpaceOnUse" x="0" y="51" width="36" height="48">
<path d="M35.74 85.1002C35.74 85.1002 17.96 97.5302 5.81 98.7902C5.81 98.7902 18.49 75.2802 0 69.1702C0 69.1702 11.64 63.5402 21.3 51.7002C21.3 51.7102 33.52 71.3902 35.74 85.1002Z" fill="white"/>
</mask>
<g mask="url(#mask0_174_5094)">
<path opacity="0.01" d="M8.42004 57.18C9.26004 59.15 10.57 62.08 12.24 65.34C13.91 68.61 15.93 72.21 18.18 75.51C22.65 82.05 28.02 87.45 33.3 86.8C38.55 86.15 40.17 83.61 40.25 83.56L33.37 67.77L26.49 51.98C25.05 53.01 22.33 53.98 19.08 54.86C15.83 55.74 12.03 56.53 8.42004 57.18Z" fill="black"/>
<path opacity="0.01" d="M8.57996 57.15C9.40996 59.12 10.71 62.06 12.36 65.34C14.01 68.62 16.02 72.23 18.27 75.54C22.69 82.02 28 87.37 33.23 86.76C38.44 86.15 40.09 83.66 40.25 83.56L33.37 67.77L26.49 51.98C25.06 53 22.37 53.97 19.15 54.84C15.92 55.72 12.16 56.5 8.57996 57.15Z" fill="black"/>
<path opacity="0.0118" d="M8.73999 57.1202C9.55999 59.1002 10.84 62.0502 12.48 65.3402C14.12 68.6302 16.12 72.2502 18.36 75.5702C22.73 81.9902 27.98 87.2902 33.16 86.7302C38.32 86.1702 40.01 83.7202 40.25 83.5702L33.37 67.7802L26.49 51.9902C25.07 53.0002 22.41 53.9602 19.22 54.8302C16.02 55.6902 12.3 56.4702 8.73999 57.1202Z" fill="black"/>
<path opacity="0.0157" d="M8.90002 57.0902C9.71002 59.0702 10.98 62.0402 12.61 65.3402C14.24 68.6402 16.22 72.2802 18.45 75.6002C22.75 81.9802 27.95 87.2202 33.09 86.6902C38.2 86.1702 39.93 83.7702 40.25 83.5702L33.37 67.7802L26.49 51.9902C25.08 53.0002 22.44 53.9502 19.28 54.8102C16.12 55.6702 12.43 56.4402 8.90002 57.0902Z" fill="black"/>
<path opacity="0.0196" d="M9.06006 57.0502C9.86006 59.0302 11.1201 62.0102 12.7301 65.3202C14.3501 68.6302 16.3101 72.2902 18.5401 75.6102C22.7801 81.9302 27.9301 87.1202 33.0201 86.6402C38.0801 86.1602 39.8501 83.8102 40.2501 83.5502L33.3701 67.7602L26.4901 51.9702C25.0901 52.9702 22.4801 53.9102 19.3501 54.7702C16.2101 55.6402 12.5601 56.4102 9.06006 57.0502Z" fill="black"/>
<path opacity="0.0235" d="M9.21997 57.02C10.01 59.01 11.25 62 12.85 65.32C14.45 68.65 16.4 72.32 18.63 75.64C22.82 81.9 27.91 87.05 32.95 86.61C37.97 86.17 39.77 83.87 40.25 83.56L33.37 67.77L26.49 51.98C25.1 52.97 22.52 53.91 19.41 54.76C16.31 55.61 12.69 56.38 9.21997 57.02Z" fill="black"/>
<path opacity="0.0275" d="M9.38 56.9902C10.16 58.9802 11.39 61.9802 12.98 65.3202C14.57 68.6602 16.5 72.3402 18.72 75.6802C22.85 81.8902 27.88 86.9802 32.88 86.5802C37.85 86.1802 39.69 83.9302 40.25 83.5702L33.37 67.7802L26.49 51.9902C25.11 52.9702 22.55 53.9102 19.48 54.7502C16.41 55.5902 12.82 56.3502 9.38 56.9902Z" fill="black"/>
<path opacity="0.0314" d="M9.54004 56.9502C10.31 58.9502 11.53 61.9602 13.1 65.3102C14.68 68.6602 16.6 72.3602 18.81 75.7002C22.89 81.8502 27.86 86.8902 32.81 86.5402C37.73 86.1802 39.61 83.9802 40.25 83.5702L33.37 67.7802L26.49 51.9902C25.12 52.9702 22.59 53.8902 19.55 54.7302C16.5 55.5602 12.96 56.3202 9.54004 56.9502Z" fill="black"/>
<path opacity="0.0353" d="M9.70996 56.9202C10.47 58.9202 11.67 61.9402 13.24 65.3102C14.8 68.6702 16.71 72.3802 18.92 75.7302C22.94 81.8202 27.86 86.8202 32.76 86.5002C37.64 86.1902 39.55 84.0302 40.27 83.5702L33.39 67.7802L26.51 51.9902C25.15 52.9602 22.65 53.8802 19.63 54.7102C16.6 55.5402 13.09 56.2902 9.70996 56.9202Z" fill="black"/>
<path opacity="0.0392" d="M9.87 56.89C10.62 58.9 11.81 61.93 13.36 65.3C14.91 68.67 16.8 72.4 19 75.75C22.97 81.79 27.83 86.73 32.68 86.46C37.51 86.19 39.46 84.08 40.26 83.56L33.38 67.77L26.5 51.98C25.15 52.94 22.67 53.85 19.69 54.68C16.7 55.51 13.22 56.26 9.87 56.89Z" fill="black"/>
<path opacity="0.0431" d="M10.03 56.86C10.77 58.87 11.95 61.92 13.48 65.3C15.02 68.69 16.89 72.42 19.09 75.78C23 81.76 27.8 86.65 32.6 86.42C37.38 86.19 39.37 84.13 40.25 83.56L33.37 67.77L26.49 51.98C25.15 52.93 22.7 53.84 19.75 54.66C16.8 55.49 13.35 56.23 10.03 56.86Z" fill="black"/>
<path opacity="0.0471" d="M10.1901 56.82C10.9201 58.84 12.0801 61.89 13.6101 65.29C15.1301 68.69 17.0001 72.44 19.1901 75.8C23.0501 81.72 27.7901 86.57 32.5401 86.38C37.2701 86.19 39.3001 84.19 40.2601 83.56L33.3801 67.77L26.5001 51.98C25.1701 52.93 22.7401 53.82 19.8201 54.64C16.8901 55.46 13.4801 56.2 10.1901 56.82Z" fill="black"/>
<path opacity="0.051" d="M10.35 56.7902C11.07 58.8102 12.22 61.8802 13.73 65.2902C15.24 68.7002 17.09 72.4602 19.27 75.8302C23.07 81.7002 27.76 86.4902 32.46 86.3502C37.15 86.2002 39.21 84.2502 40.25 83.5702L33.37 67.7802L26.49 51.9902C25.17 52.9302 22.77 53.8202 19.88 54.6302C16.99 55.4302 13.61 56.1702 10.35 56.7902Z" fill="black"/>
<path opacity="0.0549" d="M10.51 56.7602C11.22 58.7802 12.36 61.8602 13.85 65.2902C15.35 68.7102 17.18 72.4902 19.36 75.8602C23.11 81.6702 27.73 86.4202 32.39 86.3102C37.03 86.2102 39.13 84.3002 40.25 83.5702L33.37 67.7802L26.49 51.9902C25.18 52.9202 22.81 53.8102 19.95 54.6102C17.09 55.4102 13.75 56.1402 10.51 56.7602Z" fill="black"/>
<path opacity="0.0588" d="M10.67 56.7202C11.37 58.7502 12.49 61.8402 13.98 65.2702C15.47 68.7002 17.29 72.5002 19.46 75.8702C23.16 81.6202 27.72 86.3202 32.33 86.2602C36.92 86.2002 39.05 84.3402 40.26 83.5502L33.38 67.7602L26.5 51.9702C25.21 52.8902 22.85 53.7702 20.02 54.5702C17.18 55.3802 13.88 56.1102 10.67 56.7202Z" fill="black"/>
<path opacity="0.0627" d="M10.83 56.69C11.52 58.72 12.63 61.83 14.1 65.27C15.57 68.72 17.38 72.52 19.54 75.9C23.18 81.59 27.69 86.25 32.25 86.23C36.8 86.21 38.96 84.4 40.25 83.56L33.37 67.77L26.49 51.98C25.2 52.9 22.88 53.77 20.08 54.56C17.28 55.36 14.01 56.07 10.83 56.69Z" fill="black"/>
<path opacity="0.0667" d="M10.99 56.66C11.67 58.7 12.77 61.81 14.23 65.27C15.69 68.73 17.48 72.55 19.64 75.93C23.23 81.57 27.68 86.17 32.19 86.19C36.69 86.21 38.89 84.45 40.26 83.56L33.38 67.77L26.5 51.98C25.23 52.89 22.93 53.75 20.16 54.54C17.38 55.33 14.14 56.04 10.99 56.66Z" fill="black"/>
<path opacity="0.0706" d="M11.15 56.6202C11.82 58.6602 12.9 61.7902 14.35 65.2602C15.8 68.7302 17.57 72.5602 19.73 75.9602C23.27 81.5402 27.65 86.0902 32.12 86.1602C36.57 86.2202 38.81 84.5102 40.26 83.5702L33.38 67.7802L26.5 51.9902C25.24 52.8902 22.96 53.7502 20.22 54.5302C17.47 55.3102 14.27 56.0102 11.15 56.6202Z" fill="black"/>
<path opacity="0.0745" d="M11.3101 56.5902C11.9701 58.6402 13.0401 61.7802 14.4701 65.2602C15.9001 68.7402 17.6701 72.5902 19.8101 75.9902C23.2901 81.5102 27.6201 86.0202 32.0401 86.1202C36.4401 86.2302 38.7201 84.5602 40.2501 83.5702L33.3701 67.7802L26.4901 51.9902C25.2401 52.8802 22.9901 53.7302 20.2801 54.5102C17.5701 55.2802 14.4001 55.9802 11.3101 56.5902Z" fill="black"/>
<path opacity="0.0784" d="M11.47 56.5602C12.12 58.6102 13.18 61.7602 14.6 65.2502C16.02 68.7402 17.77 72.6002 19.91 76.0102C23.34 81.4702 27.61 85.9302 31.98 86.0802C36.34 86.2302 38.65 84.6102 40.26 83.5702L33.38 67.7802L26.5 51.9902C25.26 52.8802 23.04 53.7202 20.35 54.4902C17.67 55.2502 14.54 55.9502 11.47 56.5602Z" fill="black"/>
<path opacity="0.0824" d="M11.63 56.5202C12.27 58.5702 13.31 61.7402 14.72 65.2402C16.13 68.7502 17.87 72.6202 20 76.0302C23.38 81.4402 27.58 85.8502 31.91 86.0302C36.22 86.2202 38.57 84.6502 40.26 83.5502L33.38 67.7602L26.5 51.9702C25.27 52.8502 23.07 53.6802 20.42 54.4502C17.76 55.2302 14.67 55.9202 11.63 56.5202Z" fill="black"/>
<path opacity="0.0863" d="M11.79 56.49C12.42 58.55 13.45 61.72 14.84 65.24C16.23 68.76 17.96 72.64 20.08 76.06C23.4 81.41 27.55 85.77 31.83 86C36.09 86.23 38.48 84.71 40.25 83.56L33.37 67.77L26.49 51.98C25.27 52.85 23.1 53.68 20.48 54.44C17.86 55.2 14.8 55.89 11.79 56.49Z" fill="black"/>
<path opacity="0.0902" d="M11.95 56.4602C12.57 58.5202 13.59 61.7102 14.97 65.2402C16.35 68.7702 18.06 72.6702 20.18 76.0902C23.45 81.3802 27.54 85.6902 31.77 85.9702C35.9799 86.2402 38.4099 84.7702 40.2599 83.5702L33.38 67.7802L26.5 51.9902C25.29 52.8502 23.14 53.6802 20.55 54.4302C17.96 55.1802 14.93 55.8602 11.95 56.4602Z" fill="black"/>
<path opacity="0.0941" d="M12.11 56.4302C12.72 58.5002 13.72 61.6902 15.09 65.2402C16.46 68.7802 18.16 72.6902 20.27 76.1202C23.49 81.3502 27.52 85.6202 31.7 85.9302C35.87 86.2502 38.33 84.8202 40.26 83.5702L33.38 67.7802L26.5 51.9902C25.3 52.8502 23.18 53.6602 20.62 54.4102C18.05 55.1502 15.06 55.8302 12.11 56.4302Z" fill="black"/>
<path opacity="0.098" d="M12.27 56.39C12.87 58.46 13.86 61.67 15.22 65.22C16.57 68.77 18.26 72.7 20.36 76.13C23.53 81.3 27.49 85.52 31.63 85.88C35.75 86.24 38.25 84.86 40.26 83.56L33.38 67.77L26.5 51.98C25.31 52.83 23.22 53.64 20.69 54.38C18.15 55.13 15.2 55.8 12.27 56.39Z" fill="black"/>
<path opacity="0.102" d="M12.4301 56.3602C13.0201 58.4402 14.0001 61.6602 15.3401 65.2202C16.6801 68.7902 18.3501 72.7202 20.4501 76.1602C23.5701 81.2702 27.4701 85.4502 31.5601 85.8402C35.6301 86.2402 38.1701 84.9102 40.2601 83.5502L33.3801 67.7602L26.5001 51.9702C25.3201 52.8102 23.2501 53.6102 20.7501 54.3502C18.2501 55.1002 15.3301 55.7702 12.4301 56.3602Z" fill="black"/>
<path opacity="0.1059" d="M12.59 56.33C13.17 58.41 14.13 61.64 15.46 65.22C16.79 68.8 18.45 72.75 20.54 76.19C23.6 81.24 27.45 85.37 31.49 85.81C35.52 86.25 38.09 84.97 40.26 83.56L33.38 67.77L26.5 51.98C25.33 52.81 23.29 53.61 20.82 54.34C18.34 55.07 15.46 55.74 12.59 56.33Z" fill="black"/>
<path opacity="0.1098" d="M12.75 56.29C13.32 58.38 14.27 61.62 15.59 65.21C16.91 68.8 18.55 72.76 20.63 76.21C23.64 81.21 27.42 85.28 31.42 85.77C35.4 86.25 38.01 85.02 40.26 83.56L33.38 67.77L26.5 51.98C25.34 52.81 23.33 53.59 20.88 54.32C18.44 55.05 15.59 55.71 12.75 56.29Z" fill="black"/>
<path opacity="0.1137" d="M12.91 56.2602C13.47 58.3502 14.41 61.6002 15.71 65.2102C17.01 68.8102 18.65 72.7902 20.72 76.2502C23.68 81.1902 27.4 85.2202 31.34 85.7402C35.27 86.2602 37.92 85.0802 40.25 83.5702L33.37 67.7802L26.49 51.9902C25.34 52.8102 23.35 53.5902 20.94 54.3102C18.54 55.0202 15.72 55.6802 12.91 56.2602Z" fill="black"/>
<path opacity="0.1176" d="M13.0701 56.2302C13.6201 58.3202 14.5401 61.5902 15.8301 65.2002C17.1201 68.8102 18.7401 72.8002 20.8101 76.2702C23.7201 81.1502 27.3801 85.1302 31.2801 85.7002C35.1601 86.2702 37.8501 85.1302 40.2601 83.5702L33.3801 67.7802L26.5001 51.9902C25.3601 52.8002 23.4001 53.5802 21.0201 54.2902C18.6401 55.0002 15.8501 55.6502 13.0701 56.2302Z" fill="black"/>
<path opacity="0.1216" d="M13.23 56.19C13.77 58.29 14.68 61.57 15.96 65.19C17.24 68.82 18.85 72.81 20.9 76.29C23.76 81.11 27.36 85.05 31.2 85.65C35.04 86.26 37.76 85.17 40.25 83.56L33.37 67.77L26.49 51.98C25.36 52.78 23.42 53.55 21.07 54.26C18.73 54.97 15.99 55.62 13.23 56.19Z" fill="black"/>
<path opacity="0.1255" d="M13.39 56.16C13.92 58.26 14.82 61.55 16.08 65.19C17.34 68.83 18.94 72.84 20.99 76.32C23.8 81.08 27.33 84.97 31.13 85.62C34.92 86.27 37.68 85.23 40.25 83.56L33.37 67.77L26.49 51.98C25.37 52.78 23.46 53.54 21.14 54.24C18.83 54.94 16.12 55.59 13.39 56.16Z" fill="black"/>
<path opacity="0.1294" d="M13.55 56.1302C14.07 58.2402 14.95 61.5402 16.2 65.1902C17.45 68.8402 19.03 72.8602 21.08 76.3502C23.83 81.0502 27.31 84.8902 31.06 85.5902C34.8 86.2802 37.6 85.2902 40.25 83.5702L33.37 67.7802L26.49 51.9902C25.39 52.7802 23.5 53.5302 21.21 54.2302C18.93 54.9202 16.25 55.5602 13.55 56.1302Z" fill="black"/>
<path opacity="0.1333" d="M13.71 56.1002C14.22 58.2102 15.09 61.5202 16.33 65.1902C17.57 68.8502 19.14 72.8902 21.17 76.3802C23.87 81.0202 27.29 84.8202 30.99 85.5502C34.69 86.2802 37.52 85.3402 40.25 83.5702L33.37 67.7802L26.49 51.9902C25.4 52.7702 23.53 53.5202 21.27 54.2102C19.02 54.8902 16.38 55.5302 13.71 56.1002Z" fill="black"/>
<path opacity="0.1373" d="M13.87 56.06C14.37 58.18 15.23 61.5 16.45 65.17C17.67 68.84 19.23 72.89 21.26 76.39C23.91 80.97 27.26 84.72 30.92 85.5C34.57 86.28 37.43 85.38 40.25 83.56L33.37 67.77L26.49 51.98C25.41 52.75 23.57 53.49 21.34 54.18C19.12 54.87 16.51 55.5 13.87 56.06Z" fill="black"/>
<path opacity="0.1412" d="M14.03 56.03C14.52 58.15 15.36 61.49 16.57 65.17C17.78 68.85 19.33 72.92 21.35 76.42C23.95 80.94 27.24 84.65 30.85 85.46C34.45 86.28 37.35 85.43 40.25 83.56L33.37 67.77L26.49 51.98C25.42 52.75 23.61 53.48 21.41 54.16C19.22 54.84 16.64 55.47 14.03 56.03Z" fill="black"/>
<path opacity="0.1451" d="M14.1901 56C14.6701 58.13 15.5001 61.47 16.7001 65.17C17.9001 68.87 19.4401 72.94 21.4501 76.45C24.0001 80.91 27.2301 84.57 30.7901 85.43C34.3401 86.29 37.2801 85.49 40.2601 83.56L33.3801 67.77L26.5001 51.98C25.4401 52.74 23.6501 53.46 21.4801 54.14C19.3101 54.82 16.7801 55.44 14.1901 56Z" fill="black"/>
<path opacity="0.149" d="M14.35 55.96C14.82 58.09 15.64 61.45 16.82 65.16C18.01 68.87 19.53 72.95 21.53 76.47C24.03 80.87 27.2 84.48 30.71 85.39C34.22 86.29 37.19 85.54 40.25 83.56L33.37 67.77L26.49 51.98C25.44 52.73 23.68 53.45 21.54 54.12C19.41 54.79 16.91 55.41 14.35 55.96Z" fill="black"/>
<path opacity="0.1529" d="M14.51 55.93C14.97 58.06 15.77 61.43 16.95 65.16C18.12 68.88 19.64 72.98 21.63 76.5C24.08 80.84 27.18 84.41 30.65 85.35C34.11 86.29 37.12 85.59 40.26 83.56L33.38 67.77L26.5 51.98C25.46 52.72 23.73 53.44 21.62 54.1C19.51 54.76 17.04 55.38 14.51 55.93Z" fill="black"/>
<path opacity="0.1569" d="M14.67 55.9C15.12 58.04 15.91 61.42 17.07 65.15C18.23 68.88 19.73 72.99 21.71 76.52C24.11 80.8 27.15 84.32 30.57 85.31C33.98 86.3 37.03 85.64 40.25 83.56L33.37 67.77L26.49 51.98C25.46 52.72 23.75 53.42 21.67 54.08C19.6 54.74 17.17 55.35 14.67 55.9Z" fill="black"/>
<path opacity="0.1608" d="M14.83 55.8702C15.27 58.0102 16.05 61.4102 17.19 65.1502C18.34 68.9002 19.83 73.0102 21.8 76.5602C24.15 80.7802 27.13 84.2602 30.5 85.2802C33.87 86.3102 36.95 85.7002 40.25 83.5702L33.37 67.7802L26.49 51.9902C25.47 52.7202 23.79 53.4202 21.74 54.0702C19.7 54.7102 17.3 55.3202 14.83 55.8702Z" fill="black"/>
<path opacity="0.1647" d="M14.99 55.8302C15.42 57.9802 16.18 61.3802 17.32 65.1402C18.45 68.9002 19.93 73.0302 21.9 76.5802C24.2 80.7402 27.12 84.1702 30.44 85.2402C33.76 86.3102 36.88 85.7502 40.26 83.5702L33.38 67.7802L26.5 51.9902C25.49 52.7102 23.83 53.4002 21.81 54.0502C19.8 54.6902 17.43 55.2902 14.99 55.8302Z" fill="black"/>
<path opacity="0.1686" d="M15.15 55.8002C15.57 57.9502 16.32 61.3702 17.44 65.1402C18.56 68.9102 20.03 73.0502 21.98 76.6102C24.23 80.7102 27.08 84.0902 30.36 85.2102C33.63 86.3202 36.79 85.8102 40.25 83.5702L33.37 67.7802L26.49 51.9902C25.49 52.7002 23.86 53.3902 21.87 54.0302C19.89 54.6602 17.57 55.2602 15.15 55.8002Z" fill="black"/>
<path opacity="0.1725" d="M15.3101 55.7702C15.7301 57.9302 16.4601 61.3502 17.5601 65.1402C18.6701 68.9202 20.1301 73.0702 22.0701 76.6402C24.2801 80.6802 27.0601 84.0202 30.2901 85.1702C33.5101 86.3202 36.7101 85.8602 40.2501 83.5702L33.3701 67.7802L26.4901 51.9902C25.5001 52.7002 23.9001 53.3702 21.9401 54.0102C19.9901 54.6402 17.7001 55.2302 15.3101 55.7702Z" fill="black"/>
<path opacity="0.1765" d="M15.47 55.7302C15.88 57.8902 16.59 61.3302 17.69 65.1302C18.78 68.9202 20.24 73.0902 22.17 76.6602C24.33 80.6402 27.05 83.9302 30.23 85.1302C33.41 86.3302 36.64 85.9102 40.26 83.5702L33.38 67.7802L26.5 51.9902C25.52 52.6902 23.94 53.3602 22.01 53.9902C20.09 54.6102 17.83 55.2002 15.47 55.7302Z" fill="black"/>
<path opacity="0.1804" d="M15.63 55.7C16.03 57.87 16.73 61.32 17.81 65.12C18.89 68.93 20.33 73.1 22.25 76.68C24.36 80.6 27.01 83.85 30.15 85.08C33.28 86.32 36.55 85.95 40.25 83.56L33.37 67.77L26.49 51.98C25.52 52.67 23.97 53.33 22.07 53.96C20.18 54.58 17.96 55.17 15.63 55.7Z" fill="black"/>
<path opacity="0.1843" d="M15.79 55.6702C16.18 57.8402 16.87 61.3002 17.94 65.1202C19.01 68.9402 20.44 73.1202 22.35 76.7102C24.41 80.5702 27 83.7702 30.09 85.0502C33.17 86.3302 36.48 86.0102 40.26 83.5702L33.38 67.7802L26.5 51.9902C25.54 52.6702 24.02 53.3302 22.15 53.9502C20.28 54.5602 18.09 55.1402 15.79 55.6702Z" fill="black"/>
<path opacity="0.1882" d="M15.95 55.63C16.33 57.8 17 61.28 18.06 65.11C19.12 68.94 20.54 73.14 22.44 76.73C24.45 80.53 26.98 83.68 30.02 85.01C33.06 86.33 36.3999 86.06 40.2599 83.56L33.38 67.77L26.5 51.98C25.55 52.66 24.05 53.31 22.21 53.92C20.38 54.53 18.22 55.11 15.95 55.63Z" fill="black"/>
<path opacity="0.1922" d="M16.11 55.6C16.48 57.78 17.14 61.26 18.18 65.11C19.22 68.95 20.64 73.16 22.53 76.76C24.49 80.5 26.96 83.61 29.94 84.97C32.93 86.33 36.31 86.11 40.25 83.56L33.37 67.77L26.49 51.98C25.55 52.65 24.08 53.29 22.27 53.9C20.48 54.51 18.36 55.08 16.11 55.6Z" fill="black"/>
<path opacity="0.1961" d="M16.27 55.57C16.63 57.75 17.28 61.25 18.31 65.1C19.34 68.96 20.75 73.17 22.62 76.78C24.54 80.46 26.93 83.52 29.88 84.93C32.82 86.33 36.24 86.16 40.26 83.56L33.38 67.77L26.5 51.98C25.58 52.64 24.12 53.28 22.35 53.88C20.57 54.48 18.49 55.05 16.27 55.57Z" fill="black"/>
<path opacity="0.2" d="M16.4301 55.54C16.7801 57.73 17.4101 61.24 18.4301 65.1C19.4501 68.97 20.8401 73.19 22.7101 76.81C24.5801 80.43 26.9101 83.45 29.8001 84.89C32.6901 86.34 36.1501 86.21 40.2501 83.56L33.3701 67.77L26.4901 51.98C24.6701 53.28 20.8301 54.49 16.4301 55.54Z" fill="black"/>
</g>
<path d="M0.93 68.6899C0.34 69.0199 0 69.1799 0 69.1799C7.51 71.6599 9.88 77.0099 10.04 82.4899C10.09 76.9699 8.05 71.4399 0.93 68.6899Z" fill="#D0D2D3"/>
<path d="M6.26006 97.9001C5.99006 98.4701 5.81006 98.8001 5.81006 98.8001C17.9601 97.5301 35.7401 85.1001 35.7401 85.1001C35.7001 84.8501 35.6501 84.6001 35.6001 84.3501C34.0301 85.4401 17.7901 96.4601 6.26006 97.9001Z" fill="#D0D2D3"/>
<path d="M27.3199 77.3898C27.3199 77.3898 28.4899 85.5698 35.7399 85.1098L32.1499 66.5098C32.1499 66.4998 28.0599 75.9298 27.3199 77.3898Z" fill="#929497"/>
<path opacity="0.2" d="M90.89 61.54C90.09 68.29 84.01 72.12 80.51 75.11C96 73.4 97.12 69.28 97.12 69.28C96.7 67.56 94.62 64.27 90.89 61.54Z" fill="black"/>
<path d="M14.9 43.58L27.71 78.47C27.71 78.47 43.09 41.42 97.12 69.29V54.53C97.12 54.53 68.54 18.96 14.9 43.58Z" fill="white"/>
<path d="M27.3199 77.3899L27.7099 78.4699C27.7099 78.4699 43.09 41.4199 97.1199 69.2899V68.0399C45.4199 42.2799 30.1099 74.5299 27.3199 77.3899Z" fill="#D0D2D3"/>
<path d="M39.14 42.8399C38.42 42.1699 37.53 41.7199 36.49 41.5099C35.45 41.3099 34.28 41.3199 33.02 41.5899C31.75 41.8599 30.45 42.2999 29.13 42.9299C28.63 43.1699 28.11 43.4399 27.58 43.7399C27.05 44.0399 26.53 44.3499 26.01 44.6699C25.49 44.9899 25 45.3199 24.54 45.6499C24.08 45.9699 23.68 46.2699 23.36 46.5299C26.07 53.7899 28.78 61.0499 31.49 68.3099C31.7 68.1599 31.93 67.9799 32.16 67.7799C32.39 67.5799 32.61 67.3899 32.81 67.1999C33.27 66.7899 33.7 66.3799 34.1 65.9699C33.06 62.8599 32.54 61.3099 31.51 58.1999C31.86 57.9999 32.18 57.8099 32.47 57.6299C32.76 57.4499 33.1 57.2299 33.48 56.9799C34.51 56.3199 35.5 55.5999 36.47 54.8199C37.44 54.0399 38.27 53.1999 38.98 52.2899C39.69 51.3799 40.21 50.3899 40.55 49.3099C40.88 48.2299 40.92 47.0499 40.63 45.7399C40.35 44.4699 39.86 43.5099 39.14 42.8399ZM37 49.5299C36.82 50.2399 36.51 50.8899 36.08 51.4699C35.64 52.0599 35.12 52.5899 34.51 53.0699C33.89 53.5499 33.27 53.9899 32.62 54.3899C32.14 54.6799 31.77 54.8999 31.52 55.0399C31.27 55.1799 30.97 55.3399 30.63 55.5199C29.47 52.0399 28.89 50.2999 27.73 46.8199C28.35 46.3999 29.09 45.9599 29.95 45.5299C30.79 45.1099 31.6 44.7999 32.37 44.6099C33.14 44.4199 33.83 44.3799 34.44 44.4999C35.05 44.6099 35.57 44.8899 36 45.3099C36.43 45.7299 36.74 46.3299 36.94 47.1199C37.16 48.0199 37.17 48.8199 37 49.5299Z" fill="#4F7C08"/>
<path d="M59.31 45.8698C58.92 45.1698 58.37 44.5598 57.67 44.0498C56.97 43.5398 56.11 43.1498 55.1 42.8898C54.09 42.6298 52.93 42.5398 51.64 42.6698C50.13 42.8198 48.84 43.1998 47.81 43.7798C46.77 44.3598 45.96 45.0798 45.37 45.9198C44.78 46.7598 44.41 47.6998 44.26 48.7098C44.1 49.7198 44.14 50.7598 44.35 51.8098C44.56 52.8798 44.92 53.7998 45.42 54.5798C45.92 55.3498 46.57 55.9298 47.38 56.3298C48.19 56.7298 49.15 56.9098 50.27 56.9198C51.39 56.9298 52.7 56.7298 54.22 56.3698C55.26 56.1298 56.22 55.8798 57.08 55.6198C57.94 55.3598 59.3 55.0298 59.45 54.7698C59.51 54.6598 59.3 54.0998 59.16 53.7598C59.02 53.4198 58.77 52.9398 58.64 52.9098C58.04 52.7698 55.74 53.9098 54.16 54.2298C52.36 54.5898 50.98 54.6198 49.96 54.1898C48.94 53.7498 48.27 52.7898 47.98 51.2998C51.9 50.2198 55.94 49.6198 60 49.4798C60.01 49.2998 60.02 49.0898 60.02 48.8398C60.02 48.5898 60.02 48.3598 60 48.1298C59.93 47.3198 59.7 46.5698 59.31 45.8698ZM47.67 49.2998C47.63 48.0798 47.94 47.0398 48.6 46.2298C49.26 45.4198 50.34 44.9098 51.8 44.7298C52.54 44.6398 53.2 44.6698 53.76 44.8198C54.32 44.9698 54.8 45.1898 55.18 45.4798C55.56 45.7698 55.86 46.1298 56.09 46.5398C56.31 46.9498 56.45 47.3898 56.49 47.8498C52.93 48.1298 51.15 48.4198 47.67 49.2998Z" fill="#4F7C08"/>
<path d="M75.56 46.5001C74.35 45.4901 72.57 44.5701 70.19 43.9801C69.29 43.7601 68.34 43.5901 67.36 43.4901C66.38 43.3901 64.83 43.2501 64.67 43.4301C64.56 43.5601 65.07 45.1501 65.45 45.3101C65.79 45.4501 66.84 45.2601 67.57 45.3001C68.29 45.3401 69.07 45.4601 69.9 45.6401C71.25 45.9301 72.27 46.3701 72.98 46.8701C73.69 47.3801 74.04 48.0301 74.05 48.8201C74.05 48.9701 74.05 49.0501 74.05 49.2001C73.73 49.0901 73.33 48.9601 72.85 48.8201C72.37 48.6801 71.76 48.5301 71.02 48.3701C70.02 48.1601 69.06 48.0701 68.15 48.0801C67.24 48.1001 66.44 48.2401 65.75 48.5001C65.06 48.7601 64.53 49.1301 64.15 49.6101C63.77 50.0901 63.6 50.6701 63.64 51.3301C63.68 52.0101 63.89 52.5901 64.26 53.0601C64.63 53.5401 65.13 53.9201 65.77 54.2401C66.41 54.5501 67.18 54.7901 68.08 54.9701C68.98 55.1501 69.98 55.2901 71.09 55.4101C72.27 55.5401 73.42 55.6501 74.55 55.7501C75.68 55.8501 76.63 55.9601 77.42 56.0501C77.4 53.6001 77.39 52.3801 77.38 49.9301C77.37 48.6701 76.77 47.5201 75.56 46.5001ZM72.64 53.9301C72.08 53.8701 71.54 53.8101 71.02 53.7401C70.61 53.6801 70.18 53.6201 69.72 53.5401C69.26 53.4601 68.84 53.3401 68.46 53.1801C68.08 53.0201 67.75 52.8001 67.49 52.5301C67.23 52.2601 67.09 51.9101 67.07 51.4601C67.04 50.7701 67.39 50.2801 68.14 50.0401C68.88 49.8001 69.98 49.7901 71.41 50.0701C71.78 50.1401 72.23 50.2501 72.76 50.3901C73.29 50.5301 73.73 50.6701 74.07 50.7801C74.09 52.0901 74.1 52.7401 74.12 54.0501C73.69 54.0301 73.2 53.9801 72.64 53.9301Z" fill="#4F7C08"/>
<path d="M90.85 54.3201C90.78 54.2201 90.58 54.0901 90.41 53.9601C90.24 53.8201 90.07 53.6901 89.91 53.5701C88.81 52.7401 87.9 52.2301 87.18 52.0201C86.46 51.8101 85.5 51.9401 85.42 51.8801C85.4 51.8701 85.39 51.4501 85.32 51.1401C85.25 50.8301 85.21 50.4901 85.12 50.3701C85.03 50.2401 84.71 50.0901 84.47 49.9401C84.23 49.7901 83.99 49.6501 83.75 49.5101C83.51 49.3801 83.28 49.2501 83.06 49.1501C82.84 49.0401 82.61 48.9401 82.37 48.8301C82.38 52.4201 82.39 54.2101 82.4 57.8001C82.66 57.9201 82.94 58.0401 83.24 58.1601C83.54 58.2801 83.81 58.3901 84.05 58.4901C84.29 58.5901 84.56 58.6901 84.85 58.8001C85.14 58.9101 85.41 59.0101 85.65 59.0901C85.64 57.4101 85.63 56.5801 85.62 54.9001C85.62 54.3301 85.74 53.9301 85.98 53.7101C86.22 53.4901 86.55 53.4001 86.96 53.4501C87.37 53.5001 87.83 53.6601 88.34 53.9201C88.85 54.1801 89.38 54.5101 89.93 54.9101C90.03 54.9801 90.17 55.0801 90.34 55.2101C90.51 55.3401 90.8 55.6201 90.84 55.6101C90.85 55.6101 90.91 55.4301 90.93 55.3301C90.96 55.2301 90.97 55.1201 90.96 55.0001C90.96 54.8901 90.94 54.7801 90.92 54.6701C90.93 54.5501 90.91 54.4001 90.85 54.3201Z" fill="#4F7C08"/>
<path d="M39.14 41.5799C38.42 40.9099 37.53 40.4599 36.49 40.2599C35.45 40.0599 34.28 40.0699 33.02 40.3399C31.75 40.6099 30.45 41.0499 29.13 41.6799C28.63 41.9199 28.11 42.1899 27.58 42.4899C27.05 42.7899 26.53 43.0999 26.01 43.4199C25.49 43.7399 25 44.0699 24.54 44.3899C24.08 44.7099 23.68 45.0099 23.36 45.2699C26.07 52.5299 28.78 59.7899 31.49 67.0499C31.7 66.8999 31.93 66.7199 32.16 66.5199C32.39 66.3199 32.61 66.1299 32.81 65.9399C33.27 65.5299 33.7 65.1199 34.1 64.7099C33.06 61.5999 32.54 60.0499 31.51 56.9399C31.86 56.7399 32.18 56.5499 32.47 56.3699C32.76 56.1899 33.1 55.9699 33.48 55.7199C34.51 55.0599 35.5 54.3399 36.47 53.5599C37.44 52.7799 38.27 51.9399 38.98 51.0299C39.69 50.1199 40.21 49.1299 40.55 48.0499C40.88 46.9699 40.92 45.7899 40.63 44.4799C40.35 43.2099 39.86 42.2499 39.14 41.5799ZM37 48.2699C36.82 48.9799 36.51 49.6299 36.08 50.2199C35.64 50.8099 35.12 51.3399 34.51 51.8199C33.89 52.2999 33.27 52.7399 32.62 53.1399C32.14 53.4299 31.77 53.6499 31.52 53.7899C31.27 53.9299 30.97 54.0899 30.63 54.2699C29.47 50.7899 28.89 49.0499 27.73 45.5699C28.35 45.1499 29.09 44.7099 29.95 44.2799C30.79 43.8599 31.6 43.5499 32.37 43.3599C33.14 43.1699 33.83 43.1299 34.44 43.2499C35.05 43.3599 35.57 43.6399 36 44.0599C36.43 44.4799 36.74 45.0799 36.94 45.8699C37.16 46.7599 37.17 47.5599 37 48.2699Z" fill="#8DC63F"/>
<path d="M59.31 44.61C58.92 43.91 58.37 43.3 57.67 42.79C56.97 42.28 56.11 41.89 55.1 41.63C54.09 41.37 52.93 41.28 51.64 41.41C50.13 41.56 48.84 41.94 47.81 42.52C46.77 43.1 45.96 43.82 45.37 44.66C44.78 45.5 44.41 46.44 44.26 47.45C44.1 48.46 44.14 49.5 44.35 50.55C44.56 51.62 44.92 52.54 45.42 53.32C45.92 54.09 46.57 54.67 47.38 55.07C48.19 55.47 49.15 55.65 50.27 55.66C51.39 55.67 52.7 55.47 54.22 55.11C55.26 54.87 56.22 54.62 57.08 54.36C57.94 54.1 59.3 53.77 59.45 53.51C59.51 53.4 59.3 52.84 59.16 52.5C59.02 52.16 58.77 51.69 58.64 51.65C58.04 51.51 55.74 52.65 54.16 52.97C52.36 53.33 50.98 53.36 49.96 52.93C48.94 52.49 48.27 51.54 47.98 50.04C51.9 48.96 55.94 48.36 60 48.22C60.01 48.04 60.02 47.83 60.02 47.58C60.02 47.33 60.02 47.1 60 46.87C59.93 46.06 59.7 45.31 59.31 44.61ZM47.67 48.04C47.63 46.81 47.94 45.78 48.6 44.97C49.26 44.16 50.34 43.65 51.8 43.47C52.54 43.38 53.2 43.41 53.76 43.56C54.32 43.71 54.8 43.93 55.18 44.22C55.56 44.51 55.86 44.87 56.09 45.28C56.31 45.69 56.45 46.13 56.49 46.59C52.93 46.87 51.15 47.16 47.67 48.04Z" fill="#8DC63F"/>
<path d="M75.56 45.2398C74.35 44.2298 72.57 43.3098 70.19 42.7198C69.29 42.4998 68.34 42.3298 67.36 42.2298C66.38 42.1298 64.83 41.9898 64.67 42.1698C64.56 42.2998 65.07 43.8898 65.45 44.0498C65.79 44.1898 66.84 43.9998 67.57 44.0398C68.29 44.0798 69.07 44.1898 69.9 44.3798C71.25 44.6698 72.27 45.1098 72.98 45.6198C73.69 46.1298 74.04 46.7798 74.05 47.5698C74.05 47.7198 74.05 47.7998 74.05 47.9498C73.73 47.8398 73.33 47.7098 72.85 47.5698C72.37 47.4298 71.76 47.2798 71.02 47.1198C70.02 46.9098 69.06 46.8198 68.15 46.8298C67.24 46.8498 66.44 46.9898 65.75 47.2498C65.06 47.5098 64.53 47.8798 64.15 48.3598C63.77 48.8398 63.6 49.4198 63.64 50.0798C63.68 50.7598 63.89 51.3398 64.26 51.8098C64.63 52.2898 65.13 52.6698 65.77 52.9898C66.41 53.2998 67.18 53.5398 68.08 53.7198C68.98 53.8998 69.98 54.0398 71.09 54.1598C72.27 54.2898 73.42 54.3998 74.55 54.4998C75.68 54.5998 76.63 54.7098 77.42 54.7998C77.4 52.3498 77.39 51.1298 77.38 48.6798C77.37 47.4098 76.77 46.2498 75.56 45.2398ZM72.64 52.6698C72.08 52.6098 71.54 52.5498 71.02 52.4798C70.61 52.4198 70.18 52.3598 69.72 52.2798C69.26 52.1998 68.84 52.0798 68.46 51.9198C68.08 51.7598 67.75 51.5398 67.49 51.2698C67.23 50.9998 67.09 50.6498 67.07 50.1998C67.04 49.5098 67.39 49.0198 68.14 48.7798C68.88 48.5398 69.98 48.5298 71.41 48.8098C71.78 48.8798 72.23 48.9898 72.76 49.1298C73.29 49.2698 73.73 49.4098 74.07 49.5198C74.09 50.8298 74.1 51.4798 74.12 52.7898C73.69 52.7698 73.2 52.7198 72.64 52.6698Z" fill="#8DC63F"/>
<path d="M90.85 53.0598C90.78 52.9598 90.58 52.8298 90.41 52.6998C90.24 52.5598 90.07 52.4298 89.91 52.3098C88.81 51.4798 87.9 50.9698 87.18 50.7598C86.46 50.5498 85.5 50.6798 85.42 50.6198C85.4 50.6098 85.39 50.1898 85.32 49.8798C85.25 49.5698 85.21 49.2298 85.12 49.1098C85.03 48.9798 84.71 48.8298 84.47 48.6798C84.23 48.5298 83.99 48.3898 83.75 48.2498C83.51 48.1198 83.28 47.9998 83.06 47.8898C82.84 47.7798 82.61 47.6798 82.37 47.5698C82.38 51.1598 82.39 52.9498 82.4 56.5398C82.66 56.6598 82.94 56.7798 83.24 56.8998C83.54 57.0198 83.81 57.1298 84.05 57.2298C84.29 57.3298 84.56 57.4298 84.85 57.5398C85.14 57.6498 85.41 57.7498 85.65 57.8298C85.64 56.1498 85.63 55.3198 85.62 53.6398C85.62 53.0698 85.74 52.6698 85.98 52.4498C86.22 52.2298 86.55 52.1398 86.96 52.1898C87.37 52.2398 87.83 52.3898 88.34 52.6598C88.85 52.9198 89.38 53.2498 89.93 53.6498C90.03 53.7198 90.17 53.8198 90.34 53.9498C90.51 54.0798 90.8 54.3598 90.84 54.3498C90.85 54.3498 90.91 54.1698 90.93 54.0698C90.96 53.9698 90.97 53.8598 90.96 53.7398C90.96 53.6298 90.94 53.5198 90.92 53.4098C90.93 53.2898 90.91 53.1398 90.85 53.0598Z" fill="#8DC63F"/>
</g>
<defs>
<clipPath id="clip0_174_5094">
<rect width="177.5" height="162.91" fill="white"/>
</clipPath>
</defs>
</svg>
