<svg width="248" height="178" viewBox="0 0 248 178" fill="none" xmlns="http://www.w3.org/2000/svg">
<path opacity="0.2" d="M216.54 134.97C189.9 133.53 86.1599 136.02 84.0399 143.25C84.0399 143.25 80.0799 149.24 102.88 151.54C102.88 151.54 108.88 159.45 125.16 161.27C141.44 163.09 154.07 167.39 168.92 162.7C183.77 158.01 200.28 163.48 203.61 160.36C206.94 157.23 224.92 151.24 240.94 150.85C256.97 150.47 243.19 136.41 216.54 134.97Z" fill="black"/>
<path opacity="0.2" d="M199.48 136.95C174.26 135.31 85.6399 139.45 85.8799 143.45C85.8799 143.45 89.3899 149.23 105.18 147.39C105.18 147.39 109.78 157.53 127.32 156.34C138.7 155.57 140.72 154.35 140.74 153.59C140.36 153.17 140.17 152.9 140.17 152.9C140.17 152.9 140.75 153.18 140.74 153.59C142.36 155.36 147.63 159.82 158.51 158.23C171.97 156.26 172.88 155.99 179.63 155.8C186.38 155.61 198.27 147.41 203.63 147.42C208.98 147.42 236.48 148.08 232.4 144.48C228.3 140.88 224.7 138.59 199.48 136.95Z" fill="black"/>
<path opacity="0.2" d="M140.17 152.9C140.17 152.9 140.35 153.17 140.74 153.59C140.75 153.18 140.17 152.9 140.17 152.9Z" fill="black"/>
<path d="M143.82 0.200103C139.96 -0.659897 140.47 1.6001 140.47 1.6001C134.23 0.950104 136.63 5.2701 136.63 5.2701C132.25 4.2601 135.06 8.3001 135.06 8.3001C151.35 14.7001 139.92 35.5101 139.92 35.5101C148.2 45.0001 161.88 35.5101 161.88 35.5101C162.74 16.3901 143.82 0.200103 143.82 0.200103Z" fill="#086023"/>
<path d="M143.43 0.120117C143.56 0.210117 144.54 0.960117 146.02 2.27012C144.68 0.930117 143.82 0.200117 143.82 0.200117C143.68 0.160117 143.56 0.150117 143.43 0.120117Z" fill="#30A050"/>
<path d="M143 0.050293C143.06 0.060293 143.12 0.060293 143.18 0.070293C143.11 0.060293 143.06 0.060293 143 0.050293Z" fill="#30A050"/>
<path d="M142.34 0.0102539C142.45 0.0102539 142.55 0.0102539 142.67 0.0202539C142.55 0.0102539 142.44 0.0102539 142.34 0.0102539Z" fill="#30A050"/>
<path d="M141.92 35.6001C141.92 35.6001 150.18 17.7701 139.11 10.5801C149.21 18.6001 139.93 35.5101 139.93 35.5101C148.21 45.0001 161.89 35.5101 161.89 35.5101C161.89 35.4901 161.89 35.4701 161.89 35.4501C157.92 37.9401 148.73 42.4101 141.92 35.6001Z" fill="#30A050"/>
<path d="M136.33 2.79037C136.81 2.14037 137.9 1.65037 140.14 1.73037C140.14 1.73037 140.12 1.67037 140.11 1.58037C137.7 1.39037 136.68 2.00037 136.33 2.79037Z" fill="#30A050"/>
<path d="M134.2 6.32035C134.31 5.76035 134.92 5.39035 136.58 5.65035C136.58 5.65035 136.47 5.48035 136.35 5.21035C134.49 4.86035 134.09 5.52035 134.2 6.32035Z" fill="#30A050"/>
<path d="M140.47 1.60014C134.23 0.950144 136.63 5.27014 136.63 5.27014C132.25 4.26014 135.06 8.30014 135.06 8.30014C135.06 8.30014 137.27 8.48014 137.27 7.49014C137.27 6.50014 137.27 5.67014 137.27 5.67014C137.27 5.67014 139.93 6.43014 140.38 4.76014C140.84 3.09014 140.84 2.41014 140.84 2.41014C140.84 2.41014 143.65 3.70014 143.72 2.41014C143.77 1.58014 144.65 1.36014 144.72 1.01014C144.15 0.480144 143.82 0.190144 143.82 0.190144C139.97 -0.669856 140.47 1.60014 140.47 1.60014Z" fill="#0C491D"/>
<path d="M141.18 2.05029L140.5 2.77029C140.65 2.91029 155.17 16.8103 153.22 31.6503L154.2 31.7803C156.22 16.4403 141.33 2.19029 141.18 2.05029Z" fill="#0C491D"/>
<path d="M137.55 5.26025L137 6.09025C137.15 6.19025 152.09 16.4603 145.48 31.3603L146.38 31.7603C153.33 16.0903 137.71 5.37025 137.55 5.26025Z" fill="#0C491D"/>
<path d="M144.25 1.5L143.57 2.22C143.73 2.37 159.7 17.47 156.97 31.38L157.94 31.57C160.78 17.13 144.93 2.14 144.25 1.5Z" fill="#0C491D"/>
<path opacity="0.1" d="M142.08 30.48C141.04 33.48 139.92 35.52 139.92 35.52C148.2 45.01 161.88 35.52 161.88 35.52C161.99 33.13 161.79 30.78 161.35 28.51C152.22 25.37 145.1 28.62 142.08 30.48Z" fill="black"/>
<path d="M82.86 54.98C59.76 60.42 62.15 86.96 67.3 107.39C71.2 122.83 80.89 150.51 98.96 146.34C117.57 142.04 116.49 112.58 114.81 96.2C112.75 76.02 104.97 49.78 82.86 54.98Z" fill="#D16C28"/>
<path d="M83.48 58.4899C61.99 63.4899 63.51 87.8099 68.32 107.06C72.04 121.92 81.28 146.77 98.34 142.84C115.91 138.79 115.44 112.05 113.77 96.3499C111.75 77.2499 104.05 53.6999 83.48 58.4899Z" fill="#F27B1F"/>
<path opacity="0.3" d="M74.11 106.24C70.87 92.37 66.54 68.88 83.37 64.21C82.85 64.29 82.32 64.4 81.79 64.52C63.8 68.6 67.63 92.35 71.2 107.16C74.04 118.93 81.11 143.47 95.63 139.9C96.09 139.79 96.53 139.65 96.96 139.49C83.1 141 76.82 117.85 74.11 106.24Z" fill="white"/>
<path d="M111.4 37.3502C81.05 41.2402 81.43 74.9702 86.89 101.64C90.79 120.68 99.9 157.35 122.77 154.43C145.96 151.47 147.69 114.05 147.54 93.7602C147.36 67.2302 140.47 33.6202 111.4 37.3502Z" fill="#D16C28"/>
<path d="M111.84 41.8401C83.64 45.4601 83.46 75.8502 88.2 101.32C91.66 119.92 100.99 152.65 122.34 149.94C144.34 147.15 146.44 113.34 146.22 93.7801C145.95 68.7601 138.84 38.3801 111.84 41.8401Z" fill="#F27B1F"/>
<path opacity="0.3" d="M95.53 100.91C92.51 82.54 89.15 52.97 111.12 49.04C110.45 49.08 109.76 49.16 109.06 49.25C85.57 52.27 88.08 82.35 91.81 101.75C94.61 116.31 100.87 148.54 119.32 145.89C119.89 145.81 120.44 145.69 120.97 145.56C103.79 145.65 97.92 115.47 95.53 100.91Z" fill="white"/>
<path d="M217.72 54.98C195.63 49.78 187.82 76.02 185.76 96.19C184.09 112.57 183.01 142.03 201.62 146.33C219.68 150.51 229.39 122.82 233.28 107.38C238.44 86.96 240.83 60.42 217.72 54.98Z" fill="#D16C28"/>
<path d="M217.11 58.4899C196.54 53.6999 188.85 77.2499 186.82 96.3499C185.15 112.07 184.68 138.79 202.25 142.84C219.31 146.78 228.56 121.91 232.27 107.06C237.08 87.8099 238.59 63.4899 217.11 58.4899Z" fill="#F27B1F"/>
<path opacity="0.3" d="M218.79 64.53C218.26 64.41 217.73 64.3 217.21 64.21C234.04 68.89 229.71 92.37 226.47 106.24C223.76 117.85 217.49 140.99 203.62 139.49C204.05 139.64 204.49 139.78 204.95 139.89C219.48 143.46 226.54 118.92 229.38 107.15C232.96 92.35 236.79 68.6 218.79 64.53Z" fill="white"/>
<path d="M189.18 37.35C160.12 33.61 153.22 67.24 153.03 93.76C152.88 114.06 154.59 151.48 177.8 154.43C200.7 157.35 209.79 120.69 213.69 101.64C219.15 74.97 219.53 41.25 189.18 37.35Z" fill="#D16C28"/>
<path d="M188.75 41.8401C161.76 38.3801 154.64 68.7701 154.36 93.7801C154.15 113.34 156.24 147.15 178.24 149.94C199.6 152.65 208.92 119.93 212.39 101.32C217.14 75.8401 216.95 45.4601 188.75 41.8401Z" fill="#F27B1F"/>
<path opacity="0.3" d="M191.54 49.24C190.84 49.15 190.15 49.08 189.48 49.04C211.45 52.96 208.09 82.54 205.07 100.91C202.67 115.48 196.81 145.65 179.63 145.55C180.17 145.68 180.71 145.8 181.28 145.88C199.74 148.53 205.99 116.31 208.79 101.74C212.52 82.34 215.04 52.27 191.54 49.24Z" fill="white"/>
<path d="M152.57 31.1502C118.74 30.8702 114.08 64.2902 117.17 95.8802C119.35 118.09 127.09 156.1 151.87 156.34C177.42 156.59 184.76 119.28 187.25 96.4002C190.54 66.0702 184.97 31.4202 152.57 31.1502Z" fill="#D16C28"/>
<path d="M152.54 35.95C121.09 35.72 115.9 65.82 118.69 95.68C120.7 117.19 128.36 151.31 151.89 151.53C176.16 151.76 183.41 118.32 185.72 96.18C188.72 67.57 182.63 36.17 152.54 35.95Z" fill="#F27B1F"/>
<path opacity="0.3" d="M150.86 43.4503C150.08 43.3903 149.28 43.3703 148.47 43.3703C122.26 43.2003 120.85 73.6403 122.74 96.5803C124.14 113.51 128.93 147.06 148.94 146.83C149.59 146.82 150.22 146.78 150.84 146.72C132.06 144.58 128.22 112.73 127.06 96.1503C125.58 74.6903 126.18 44.4203 150.86 43.4503Z" fill="white"/>
<path opacity="0.1" d="M211.87 109.92C211.87 109.92 201.88 127.25 182.31 116.65C182.31 116.65 156.18 156.94 125.6 133.27C125.6 133.27 119.52 149.48 98.22 137.21C98.22 137.21 87.31 141.8 80.31 137.81C85.16 144.14 91.31 148.1 98.97 146.34C100.45 146 101.78 145.48 103.02 144.85C108.09 151.4 114.54 155.48 122.78 154.43C127.68 153.8 131.63 151.63 134.8 148.41C139.32 153.24 144.93 156.28 151.87 156.34C158.27 156.4 163.53 154.11 167.86 150.27C170.63 152.46 173.92 153.93 177.81 154.43C186.06 155.48 192.52 151.4 197.58 144.85C198.81 145.49 200.15 146 201.62 146.34C219.68 150.52 229.39 122.83 233.28 107.39C235.45 98.7703 237.13 89.0703 236.61 80.3203C236.62 80.3303 237.49 108.47 211.87 109.92Z" fill="black"/>
<path opacity="0.1" d="M189.18 37.3502C183.45 36.6102 178.59 37.3502 174.46 39.1802C169.13 34.2302 161.99 31.2302 152.57 31.1502C141.65 31.0602 133.78 34.5002 128.22 40.2402C123.67 37.6502 118.14 36.4902 111.41 37.3502C108.25 37.7602 105.42 38.4902 102.9 39.5002C103.25 39.4002 113.76 36.4902 120.66 52.5202C120.66 52.5202 148.76 22.7502 181.74 50.5302C181.74 50.5302 179.21 38.4002 193.55 38.1602C192.16 37.8202 190.71 37.5502 189.18 37.3502Z" fill="black"/>
<g opacity="0.3">
<mask id="mask0_174_8658" style="mask-type:luminance" maskUnits="userSpaceOnUse" x="63" y="31" width="174" height="126">
<path d="M217.72 54.9802C215.93 54.5602 214.25 54.3602 212.64 54.3402C208.73 45.4202 201.48 38.9302 189.18 37.3502C183.45 36.6102 178.59 37.3502 174.46 39.1802C169.13 34.2302 161.99 31.2302 152.57 31.1502C141.65 31.0602 133.78 34.5002 128.22 40.2402C123.67 37.6502 118.14 36.4902 111.41 37.3502C99.11 38.9302 91.85 45.4102 87.94 54.3402C86.34 54.3702 84.65 54.5602 82.87 54.9902C59.77 60.4302 62.16 86.9702 67.31 107.4C71.21 122.84 80.9 150.52 98.97 146.35C100.45 146.01 101.78 145.49 103.02 144.86C108.09 151.41 114.54 155.49 122.78 154.44C127.68 153.81 131.62 151.64 134.79 148.42C139.31 153.25 144.92 156.29 151.87 156.36C158.28 156.42 163.54 154.12 167.87 150.28C170.65 152.47 173.92 153.95 177.81 154.45C186.06 155.5 192.52 151.42 197.58 144.87C198.81 145.51 200.15 146.02 201.62 146.36C219.68 150.54 229.39 122.85 233.28 107.41C238.44 86.9602 240.83 60.4202 217.72 54.9802Z" fill="white"/>
</mask>
<g mask="url(#mask0_174_8658)">
<path d="M245.5 38.6803C245.59 39.3703 253.47 107.88 206.18 157.22L206.89 157.9C254.5 108.22 246.56 39.2403 246.47 38.5503L245.5 38.6803Z" fill="#D16C28"/>
<path d="M235.19 37.1305C235.27 37.8905 242.28 113.541 200.26 157.381L200.97 158.061C243.3 113.891 236.25 37.7905 236.17 37.0205L235.19 37.1305Z" fill="#D16C28"/>
<path d="M224.88 35.5903C224.95 36.4203 231.08 119.21 194.33 157.55L195.04 158.23C232.09 119.56 225.92 36.3403 225.86 35.5103L224.88 35.5903Z" fill="#D16C28"/>
<path d="M214.57 34.0605C214.63 34.9605 219.89 124.87 188.41 157.73L189.12 158.41C220.9 125.25 215.61 34.9005 215.56 34.0005L214.57 34.0605Z" fill="#D16C28"/>
<path d="M204.26 32.5202C204.31 33.5002 208.69 130.54 182.48 157.89L183.19 158.57C209.7 130.91 205.29 33.4502 205.24 32.4702L204.26 32.5202Z" fill="#D16C28"/>
<path d="M193.95 30.9802C193.99 32.0302 197.5 136.2 176.55 158.06L177.26 158.74C198.49 136.59 195.09 35.2502 194.93 30.9502L193.95 30.9802Z" fill="#D16C28"/>
<path d="M183.64 29.4504C183.67 30.5704 186.3 141.87 170.63 158.23L171.34 158.91C187.3 142.26 184.74 34.0204 184.63 29.4204L183.64 29.4504Z" fill="#D16C28"/>
<path d="M173.34 27.9101C173.36 29.1101 175.12 147.53 164.71 158.39L165.42 159.07C176.1 147.92 174.4 32.7901 174.32 27.8901L173.34 27.9101Z" fill="#D16C28"/>
<path d="M163.03 26.3801C163.29 61.6401 163.04 154.11 158.78 158.56L159.49 159.24C164.9 153.59 164.05 31.5601 164.01 26.3701L163.03 26.3801Z" fill="#D16C28"/>
<path d="M153.71 24.8403H152.72V159.06H153.71V24.8403Z" fill="#D16C28"/>
<path d="M143.42 26.2805L142.43 26.2705C142.39 31.4605 141.54 153.501 146.95 159.141L147.66 158.461C143.4 154.011 143.16 61.5405 143.42 26.2805Z" fill="#D16C28"/>
<path d="M133.14 27.8205L132.15 27.8105C132.07 32.7105 130.37 147.841 141.05 158.991L141.76 158.311C131.36 147.451 133.12 29.0205 133.14 27.8205Z" fill="#D16C28"/>
<path d="M122.86 29.3703L121.87 29.3403C121.75 33.9403 119.2 142.17 135.16 158.83L135.87 158.15C120.2 141.79 122.83 30.5003 122.86 29.3703Z" fill="#D16C28"/>
<path d="M112.58 30.9204L111.59 30.8804C111.43 35.1804 108.03 136.52 129.26 158.67L129.97 157.99C109.03 136.14 112.54 31.9704 112.58 30.9204Z" fill="#D16C28"/>
<path d="M102.31 32.5202L101.32 32.4702C101.27 33.4502 96.87 130.92 123.37 158.57L124.08 157.89C97.87 130.54 102.26 33.5002 102.31 32.5202Z" fill="#D16C28"/>
<path d="M92.02 34.0605L91.03 34.0005C90.97 34.9105 85.69 125.25 117.47 158.41L118.18 157.73C86.71 124.87 91.97 34.9605 92.02 34.0605Z" fill="#D16C28"/>
<path d="M81.74 35.5903L80.75 35.5103C80.68 36.3503 74.51 119.57 111.57 158.23L112.28 157.55C75.54 119.21 81.68 36.4303 81.74 35.5903Z" fill="#D16C28"/>
<path d="M71.4599 37.1303L70.4799 37.0303C70.3999 37.7903 63.3499 113.9 105.68 158.07L106.39 157.39C64.3799 113.55 71.3899 37.8903 71.4599 37.1303Z" fill="#D16C28"/>
<path d="M61.18 38.6805L60.2 38.5605C60.11 39.2505 52.18 108.231 99.78 157.911L100.49 157.231C53.22 107.891 61.09 39.3605 61.18 38.6805Z" fill="#D16C28"/>
</g>
</g>
<path opacity="0.2" d="M114.94 170.57C102.38 169.78 42.79 166.68 37.63 166.65C32.47 166.62 22.73 166.34 28.46 170.92C28.46 170.92 56.45 177.51 86.86 177.8C117.28 178.09 167.99 176.65 163.98 170.92C159.97 165.19 127.49 171.36 114.94 170.57Z" fill="black"/>
<path opacity="0.2" d="M100.63 169.75C88.9 166.63 55.46 167.96 55.43 169.15C55.39 170.34 58.55 171.8 61.41 172.23C61.41 172.23 78.72 175.21 101.72 174.64C124.73 174.07 128.6 174.24 127.48 172.23C126.37 170.22 112.36 172.87 100.63 169.75Z" fill="black"/>
<path d="M16.92 116.35C16.92 116.35 13.75 173.54 86.15 173.54C167.26 173.54 159.83 116.35 159.83 116.35H16.92Z" fill="#F27B1F"/>
<path d="M16.92 116.35C16.92 116.35 13.75 166.65 86.15 166.65C167.26 166.65 159.83 116.35 159.83 116.35H16.92Z" fill="#D16C28"/>
<path d="M16.92 116.35C16.92 116.35 13.75 163.91 86.15 163.91C167.26 163.91 159.83 116.35 159.83 116.35H16.92Z" fill="#E5A10A"/>
<path d="M40.3299 116.35H18.0599C18.0599 116.35 14.9399 161.44 86.1799 161.44C165.99 161.44 158.68 116.35 158.68 116.35H40.3299Z" fill="#FFB602"/>
<path d="M127.37 115.64C125.31 116.27 124.83 114.82 122.61 115.47C120.39 116.12 120.86 114.96 117.54 115.3C114.21 115.64 116.11 112.47 112.47 114.37C108.82 116.27 111.04 115.05 107.24 113.76C103.43 112.47 100.32 113.09 99.1399 114.63C97.9599 116.17 95.1599 112.55 93.2499 112.55C91.3499 112.55 91.8899 114.54 89.1799 114.72C86.4599 114.9 86.0099 112.64 84.0199 113.09C82.0299 113.54 81.5699 114.36 79.9499 114.54C78.3199 114.72 78.1399 112.73 75.5099 113.27C72.8799 113.81 72.8799 114.81 71.3399 114.54C69.7999 114.27 69.8899 112 66.6299 113.63C63.3699 115.26 64.8199 115.62 62.5599 114.81C60.2999 113.99 59.0299 112.55 57.3999 113.9C55.7699 115.26 55.2299 114.26 52.5099 114.35C49.7899 114.44 48.7099 114.9 47.6199 115.17C46.5299 115.44 42.5599 114.18 42.7199 116.36C42.7199 116.36 42.5599 134.83 61.4299 141.33C80.2999 147.83 105.35 146.09 114.23 142.91C123.11 139.74 128.34 129.12 129.29 125.47C130.24 121.82 131.03 116.36 131.03 116.36C131.03 116.36 129.44 115 127.37 115.64Z" fill="#FCE14A"/>
<path d="M124.16 115.11C123.98 115.05 123.78 114.99 123.72 114.99C123.71 114.99 123.64 114.99 123.49 115.04C122.73 115.26 122.09 115.36 121.46 115.36C120.66 115.36 120.05 115.19 119.65 115.07C119.33 114.98 119.15 114.93 118.69 114.93C118.45 114.93 118.18 114.94 117.86 114.98C117.57 115.01 117.31 115.02 117.07 115.02C115.43 115.02 114.35 114.44 113.66 113.84C112.12 114.64 111.3 115.05 110.23 115.05C108.87 115.05 108 114.32 107.63 114C107.4 113.81 107.15 113.59 106.25 113.29C105.22 112.94 104.21 112.76 103.33 112.76C102.23 112.76 101.69 113.04 101.61 113.11C100.83 114.12 99.66 114.71 98.39 114.71C96.78 114.71 95.43 113.81 94.25 113.01C94.05 112.88 93.8 112.7 93.55 112.55C92.84 113.3 91.6 114.26 89.39 114.41C89.21 114.42 89.04 114.43 88.88 114.43C86.69 114.43 85.32 113.48 84.5 112.91C84.45 112.87 84.41 112.84 84.36 112.81C83.97 112.93 83.68 113.07 83.3 113.26C82.62 113.6 81.68 114.07 80.29 114.22C80.1 114.24 79.92 114.25 79.74 114.25C78.14 114.25 77.07 113.46 76.5 113.04C76.43 112.99 76.36 112.93 76.29 112.88C76.25 112.88 76.2 112.89 76.14 112.91C75.35 113.07 75.02 113.25 74.6 113.49C74.02 113.81 73.13 114.29 71.83 114.29C71.5 114.29 71.16 114.26 70.81 114.2C69.59 113.98 68.78 113.35 68.27 112.9C68.2 112.93 68.12 112.97 68.03 113.02C67.09 113.49 66.7 113.78 66.42 114C65.99 114.33 65.18 114.94 63.93 114.94C63.18 114.94 62.6 114.73 61.86 114.46L61.53 114.34C60.74 114.06 60.07 113.72 59.53 113.46C59.37 113.38 59.18 113.29 59.01 113.21C57.96 113.98 56.9 114.34 55.72 114.34C55.19 114.34 54.71 114.27 54.29 114.2C53.85 114.13 53.43 114.07 52.88 114.07H52.63C50.78 114.13 49.91 114.37 49.07 114.61C48.83 114.68 48.61 114.74 48.38 114.79C48.02 114.88 47.63 114.92 47.19 114.92C46.84 114.92 46.42 114.89 45.96 114.85C46.49 119.31 49.16 130.43 62.44 135C72.64 138.51 83.78 139.25 91.33 139.25C101.97 139.25 109.75 137.82 113.18 136.6C120.75 133.89 125.5 124.3 126.28 121.3C126.75 119.51 127.18 117.21 127.49 115.42C127.11 115.49 126.74 115.52 126.36 115.52C125.41 115.49 124.66 115.26 124.16 115.11Z" fill="#FFEA80"/>
<path d="M65.64 120.76C64.57 120.4 61.61 120.17 61.49 121.71C61.49 121.71 64.69 123.49 61.49 125.03C58.28 126.57 61.02 128 62.2 127.4C63.39 126.81 63.27 125.52 65.05 124.62C66.83 123.72 66.71 121.11 65.64 120.76Z" fill="#FFB602"/>
<path d="M70.27 124.02C70.27 124.02 67.07 124.08 66.95 125.98C66.83 127.88 67.19 130.73 67.78 129.78C68.37 128.83 70.39 127.77 71.22 126.99C72.05 126.22 72.01 123.71 70.27 124.02Z" fill="#FFB602"/>
<path d="M71.7499 118.86C70.3899 118.62 68.24 119.59 68.62 121C68.62 121 68.7399 123.61 70.2799 122.54C71.8099 121.47 73.0999 119.1 71.7499 118.86Z" fill="#FFB602"/>
<path d="M58.3999 121.35C57.6899 119.33 55.5499 121.35 55.4299 121.35C55.3099 121.35 57.4499 123.84 59.1099 123.37C60.7799 122.89 58.3999 121.35 58.3999 121.35Z" fill="#FFB602"/>
<path d="M76.09 121.94C76.09 121.94 73.48 121.23 74.31 123.43C75.14 125.62 74.9 125.38 76.09 124.02C77.27 122.66 76.09 121.94 76.09 121.94Z" fill="#FFB602"/>
<path d="M71.7499 131.03C71.7499 131.03 69.2099 131.32 71.2299 132.98C73.2499 134.64 74.5799 133.64 74.1499 132.01C73.7099 130.37 73.5799 130.28 71.7499 131.03Z" fill="#FFB602"/>
<path d="M79.4099 126.98C78.8699 126.99 76.0699 126.81 76.6099 128.59C77.1499 130.37 78.2199 130.27 79.4099 129.97C80.5999 129.66 82.6099 126.91 79.4099 126.98Z" fill="#FFB602"/>
<path d="M82.0199 120.81C82.0199 120.81 83.5599 123.36 83.9199 124.02C84.2799 124.68 84.6299 124.67 84.6299 122.42C84.6299 120.17 81.4299 117.89 82.0199 120.81Z" fill="#FFB602"/>
<path d="M89.38 125.98C89.38 125.98 86.18 127.34 86.42 128.56C86.66 129.78 88.43 128.53 89.38 128.56C90.33 128.59 91.71 124.58 89.38 125.98Z" fill="#FFB602"/>
<path d="M97.45 123.43C97.45 123.43 93.77 125.03 95.43 126.34C97.09 127.65 99.35 127.88 99.23 126.34C99.11 124.79 97.45 123.43 97.45 123.43Z" fill="#FFB602"/>
<path d="M90.6599 120.81C90.6599 120.81 89.6799 123.88 90.6599 122.79C91.6399 121.7 92.4699 121.45 92.1099 120.81C91.7499 120.16 90.6599 120.81 90.6599 120.81Z" fill="#FFB602"/>
<path d="M105.52 124.39C104.69 124.43 104.33 126.63 103.62 125.41C102.91 124.19 103.14 123.04 102.55 122.79C101.96 122.53 101.72 125.06 101.72 125.06C101.72 125.06 103.86 127.7 102.91 129.1C101.96 130.49 103.15 130.58 103.15 130.58C103.15 130.58 105.28 129.48 105.4 129.1C105.52 128.71 108.37 130.06 107.54 127.55C106.71 125.03 106.35 124.35 105.52 124.39Z" fill="#FFB602"/>
<path d="M90.66 132.21C89.92 130.49 86.4 133.34 86.4 133.34C88.29 134.29 88.31 135.83 89.38 134.65C90.45 133.46 90.81 135.01 91.4 133.94C91.99 132.86 91.4 133.93 90.66 132.21Z" fill="#FFB602"/>
<path d="M96.37 135.07C98.94 136.23 99.24 133.94 99.23 130.14C99.23 130.14 93.8 133.91 96.37 135.07Z" fill="#FFB602"/>
<path d="M113.88 124.39C113.88 124.39 110.96 129.33 113.88 129.09C116.8 128.85 118 126.78 117.83 125.41C117.66 124.05 114.35 123.51 113.88 124.39Z" fill="#FFB602"/>
<path d="M107.69 132.76C110.1 134.18 111.13 132.01 110.96 131.04C110.87 130.51 105.28 131.34 107.69 132.76Z" fill="#FFB602"/>
<path d="M107.69 119.43C107.69 119.43 108.13 123.38 109.03 123.03C109.93 122.68 108.37 117.72 107.69 119.43Z" fill="#FFB602"/>
<path d="M112.58 132.76C115.25 134.01 117.86 131.44 117.84 130.58C117.84 130.58 109.91 131.51 112.58 132.76Z" fill="#FFB602"/>
<path d="M65.64 119.92C64.57 119.56 61.61 119.33 61.49 120.87C61.49 120.87 64.69 122.65 61.49 124.19C58.28 125.73 61.02 127.16 62.2 126.56C63.39 125.97 63.27 124.68 65.05 123.78C66.83 122.88 66.71 120.27 65.64 119.92Z" fill="white"/>
<path d="M70.27 123.18C70.27 123.18 67.07 123.24 66.95 125.14C66.83 127.04 67.19 129.89 67.78 128.94C68.37 127.99 70.39 126.93 71.22 126.15C72.05 125.38 72.01 122.87 70.27 123.18Z" fill="white"/>
<path d="M71.7499 118.02C70.3899 117.78 68.24 118.75 68.62 120.16C68.62 120.16 68.7399 122.77 70.2799 121.7C71.8099 120.63 73.0999 118.26 71.7499 118.02Z" fill="white"/>
<path d="M58.3999 120.511C57.6899 118.491 55.5499 120.511 55.4299 120.511C55.3099 120.511 57.4499 123.001 59.1099 122.531C60.7799 122.051 58.3999 120.511 58.3999 120.511Z" fill="white"/>
<path d="M76.09 121.1C76.09 121.1 73.48 120.39 74.31 122.59C75.14 124.78 74.9 124.54 76.09 123.18C77.27 121.82 76.09 121.1 76.09 121.1Z" fill="white"/>
<path d="M71.7499 130.19C71.7499 130.19 69.2099 130.48 71.2299 132.14C73.2499 133.8 74.5799 132.8 74.1499 131.17C73.7099 129.53 73.5799 129.44 71.7499 130.19Z" fill="white"/>
<path d="M79.4099 126.14C78.8699 126.15 76.0699 125.97 76.6099 127.75C77.1499 129.53 78.2199 129.43 79.4099 129.13C80.5999 128.82 82.6099 126.07 79.4099 126.14Z" fill="white"/>
<path d="M82.0199 119.97C82.0199 119.97 83.5599 122.52 83.9199 123.18C84.2799 123.84 84.6299 123.83 84.6299 121.58C84.6299 119.32 81.4299 117.05 82.0199 119.97Z" fill="white"/>
<path d="M89.38 125.14C89.38 125.14 86.18 126.5 86.42 127.72C86.66 128.94 88.43 127.69 89.38 127.72C90.33 127.75 91.71 123.74 89.38 125.14Z" fill="white"/>
<path d="M97.45 122.59C97.45 122.59 93.77 124.19 95.43 125.5C97.09 126.81 99.35 127.04 99.23 125.5C99.11 123.95 97.45 122.59 97.45 122.59Z" fill="white"/>
<path d="M90.6599 119.971C90.6599 119.971 89.6799 123.041 90.6599 121.951C91.6399 120.861 92.4699 120.611 92.1099 119.971C91.7499 119.321 90.6599 119.971 90.6599 119.971Z" fill="white"/>
<path d="M105.52 123.56C104.69 123.6 104.33 125.8 103.62 124.58C102.91 123.36 103.14 122.21 102.55 121.96C101.96 121.7 101.72 124.23 101.72 124.23C101.72 124.23 103.86 126.87 102.91 128.27C101.96 129.66 103.15 129.75 103.15 129.75C103.15 129.75 105.28 128.65 105.4 128.27C105.52 127.88 108.37 129.23 107.54 126.72C106.71 124.19 106.35 123.51 105.52 123.56Z" fill="white"/>
<path d="M90.66 131.37C89.92 129.65 86.4 132.5 86.4 132.5C88.29 133.45 88.31 134.99 89.38 133.81C90.45 132.62 90.81 134.17 91.4 133.1C91.99 132.02 91.4 133.09 90.66 131.37Z" fill="white"/>
<path d="M96.37 134.23C98.94 135.39 99.24 133.1 99.23 129.3C99.23 129.3 93.8 133.07 96.37 134.23Z" fill="white"/>
<path d="M113.88 123.561C113.88 123.561 110.96 128.501 113.88 128.261C116.8 128.021 118 125.951 117.83 124.581C117.66 123.211 114.35 122.671 113.88 123.561Z" fill="white"/>
<path d="M107.69 131.92C110.1 133.34 111.13 131.17 110.96 130.2C110.87 129.67 105.28 130.5 107.69 131.92Z" fill="white"/>
<path d="M107.69 118.59C107.69 118.59 108.13 122.54 109.03 122.19C109.93 121.84 108.37 116.88 107.69 118.59Z" fill="white"/>
<path d="M112.58 131.92C115.25 133.17 117.86 130.6 117.84 129.74C117.84 129.74 109.91 130.67 112.58 131.92Z" fill="white"/>
<path opacity="0.3" d="M87.94 54.3402C86.34 54.3702 84.65 54.5602 82.87 54.9902C66.28 58.9002 62.84 73.6902 64.12 89.2902C70.94 76.4402 84.74 88.1102 84.74 88.1102C84.38 75.6602 106.16 75.0302 106.16 75.0302L107.09 61.3902L89.38 51.4502C88.86 52.3802 88.37 53.3402 87.94 54.3402Z" fill="#031E10"/>
<path d="M0 60.31C0 60.31 11.24 87.66 11.75 87.27C12.25 86.88 22.31 83.91 22.31 83.91L15.51 56.98L0 60.31Z" fill="white"/>
<mask id="mask1_174_8658" style="mask-type:luminance" maskUnits="userSpaceOnUse" x="0" y="56" width="23" height="32">
<path d="M22.31 83.91C22.31 83.91 12.25 86.89 11.75 87.27C11.24 87.66 0 60.31 0 60.31L15.51 56.98L22.31 83.91Z" fill="white"/>
</mask>
<g mask="url(#mask1_174_8658)">
<path opacity="0.01" d="M3.75 58.3901C4.01 59.8801 4.44 62.1101 5.08 64.6501C5.72 67.1901 6.55 70.0401 7.62 72.7601C8.96 76.1701 10.65 79.3801 12.74 81.5101C13.97 82.7601 15.33 83.6401 16.84 83.9801C20.85 84.8801 22.5 83.6401 22.54 83.6301L20.34 71.6401L18.15 59.7301C16.9 60.0201 14.72 59.8801 12.17 59.6101C11.07 59.5001 9.89 59.3501 8.68 59.1801C7.05 58.9601 5.37 58.6801 3.75 58.3901Z" fill="black"/>
<path opacity="0.01" d="M3.87 58.4102C4.12 59.9002 4.54 62.1302 5.17 64.6802C5.79 67.2202 6.62 70.0802 7.68 72.8002C9 76.2002 10.69 79.3902 12.78 81.5202C14 82.7602 15.36 83.6402 16.86 83.9802C20.82 84.8702 22.47 83.6502 22.54 83.6402L20.34 71.6502L18.17 59.8202C16.95 60.1102 14.79 59.8802 12.29 59.6202C11.19 59.5202 10.02 59.3702 8.8 59.2002C7.17 58.9802 5.5 58.7002 3.87 58.4102Z" fill="black"/>
<path opacity="0.0118" d="M4 58.4302C4.24 59.9202 4.65 62.1602 5.26 64.7102C5.87 67.2602 6.69 70.1202 7.74 72.8402C9.05 76.2302 10.72 79.4102 12.81 81.5202C14.02 82.7502 15.38 83.6302 16.88 83.9702C20.79 84.8502 22.43 83.6602 22.53 83.6402L20.33 71.6502L18.17 59.9002C16.97 60.1802 14.85 59.8802 12.4 59.6302C11.31 59.5302 10.13 59.3902 8.92 59.2202C7.3 58.9902 5.62 58.7202 4 58.4302Z" fill="black"/>
<path opacity="0.0157" d="M4.12 58.4502C4.35 59.9402 4.75 62.1802 5.35 64.7402C5.95 67.2902 6.75 70.1602 7.8 72.8802C9.1 76.2602 10.76 79.4202 12.84 81.5302C14.05 82.7502 15.4 83.6202 16.89 83.9602C20.74 84.8302 22.38 83.6602 22.52 83.6402L20.32 71.6502L18.18 59.9802C17.01 60.2502 14.91 59.8802 12.51 59.6302C11.43 59.5402 10.25 59.4002 9.02999 59.2402C7.43 59.0102 5.75 58.7402 4.12 58.4502Z" fill="black"/>
<path opacity="0.0196" d="M4.25 58.4702C4.48 59.9602 4.86 62.2102 5.45 64.7702C6.04 67.3302 6.83 70.2002 7.87 72.9202C9.16 76.2802 10.81 79.4402 12.89 81.5302C14.09 82.7502 15.44 83.6102 16.93 83.9502C20.73 84.8102 22.37 83.6702 22.54 83.6302L20.34 71.6402L18.21 60.0402C17.06 60.3102 14.99 59.8502 12.65 59.6102C11.57 59.5302 10.4 59.3902 9.17 59.2302C7.55 59.0202 5.88 58.7602 4.25 58.4702Z" fill="black"/>
<path opacity="0.0235" d="M4.37 58.4902C4.59 59.9802 4.96 62.2302 5.54 64.8002C6.12 67.3602 6.9 70.2402 7.93 72.9702C9.21 76.3202 10.85 79.4602 12.92 81.5502C14.12 82.7602 15.45 83.6102 16.94 83.9502C20.69 84.7902 22.32 83.6802 22.53 83.6402L20.33 71.6502L18.22 60.1302C17.1 60.3902 15.06 59.8602 12.76 59.6202C11.69 59.5402 10.51 59.4102 9.27999 59.2502C7.68 59.0402 6.01 58.7702 4.37 58.4902Z" fill="black"/>
<path opacity="0.0275" d="M4.5 58.5103C4.71 60.0003 5.07 62.2603 5.64 64.8303C6.2 67.3903 6.96 70.2703 7.99 73.0003C9.25 76.3403 10.88 79.4703 12.95 81.5503C14.14 82.7503 15.47 83.6003 16.96 83.9403C20.65 84.7703 22.29 83.6903 22.53 83.6403L20.33 71.6503L18.23 60.2103C17.13 60.4703 15.12 59.8603 12.88 59.6303C11.82 59.5603 10.64 59.4303 9.41 59.2703C7.81 59.0603 6.13 58.7903 4.5 58.5103Z" fill="black"/>
<path opacity="0.0314" d="M4.62 58.5303C4.82 60.0203 5.17 62.2803 5.72 64.8503C6.26999 67.4203 7.03 70.3103 8.04 73.0403C9.29 76.3703 10.91 79.4803 12.98 81.5503C14.17 82.7403 15.49 83.5903 16.98 83.9303C20.62 84.7503 22.25 83.6903 22.53 83.6403L20.33 71.6503L18.25 60.2903C17.18 60.5403 15.19 59.8603 13 59.6303C11.94 59.5603 10.77 59.4403 9.52999 59.2803C7.93 59.0803 6.26 58.8103 4.62 58.5303Z" fill="black"/>
<path opacity="0.0353" d="M4.75 58.5503C4.94 60.0403 5.28 62.3103 5.82 64.8803C6.36 67.4603 7.11 70.3503 8.11 73.0803C9.35 76.4003 10.96 79.5003 13.02 81.5603C14.2 82.7403 15.52 83.5903 17 83.9203C20.58 84.7303 22.21 83.6903 22.53 83.6303L20.33 71.6403L18.26 60.3603C17.21 60.6103 15.26 59.8403 13.12 59.6203C12.07 59.5603 10.89 59.4403 9.65 59.2903C8.06 59.0903 6.39 58.8303 4.75 58.5503Z" fill="black"/>
<path opacity="0.0392" d="M4.87 58.5703C5.06 60.0603 5.38 62.3303 5.91 64.9103C6.44 67.4903 7.17 70.3903 8.17 73.1203C9.39 76.4303 11 79.5103 13.05 81.5703C14.22 82.7503 15.54 83.5803 17.02 83.9203C20.55 84.7203 22.18 83.7103 22.52 83.6403L20.32 71.6503L18.26 60.4503C17.24 60.6903 15.31 59.8503 13.22 59.6303C12.17 59.5703 11 59.4603 9.75 59.3103C8.18 59.1103 6.52 58.8503 4.87 58.5703Z" fill="black"/>
<path opacity="0.0431" d="M5 58.5903C5.18 60.0803 5.49 62.3503 6.01 64.9403C6.53 67.5203 7.24 70.4303 8.24 73.1603C9.45 76.4603 11.04 79.5303 13.09 81.5703C14.26 82.7403 15.57 83.5703 17.04 83.9103C20.52 84.7003 22.14 83.7103 22.52 83.6403L20.32 71.6503L18.28 60.5203C17.28 60.7503 15.39 59.8403 13.35 59.6303C12.31 59.5803 11.13 59.4703 9.89 59.3203C8.31 59.1303 6.64 58.8703 5 58.5903Z" fill="black"/>
<path opacity="0.0471" d="M5.12 58.6104C5.29 60.1004 5.59 62.3804 6.09 64.9704C6.59 67.5604 7.3 70.4703 8.29 73.2003C9.48 76.4903 11.07 79.5404 13.12 81.5804C14.28 82.7404 15.59 83.5604 17.06 83.9004C20.48 84.6804 22.11 83.7204 22.52 83.6404L20.32 71.6504L18.3 60.6003C17.33 60.8303 15.46 59.8304 13.47 59.6304C12.44 59.5904 11.26 59.4804 10.01 59.3304C8.44 59.1404 6.77 58.8804 5.12 58.6104Z" fill="black"/>
<path opacity="0.051" d="M5.25 58.6299C5.41 60.1199 5.7 62.3999 6.19 64.9999C6.68 67.5899 7.37 70.4999 8.36 73.2499C9.54 76.5199 11.12 79.5699 13.16 81.5899C14.32 82.7399 15.62 83.5599 17.08 83.8999C20.45 84.6599 22.07 83.7299 22.52 83.6399L20.32 71.6499L18.31 60.6799C17.36 60.8999 15.52 59.8299 13.59 59.6299C12.56 59.5899 11.39 59.4899 10.13 59.3399C8.56 59.1599 6.9 58.8999 5.25 58.6299Z" fill="black"/>
<path opacity="0.0549" d="M5.37 58.6499C5.52 60.1399 5.8 62.4299 6.28 65.0299C6.76 67.6299 7.44 70.5399 8.42 73.2899C9.59 76.5499 11.15 79.5799 13.19 81.5999C14.34 82.7399 15.64 83.5599 17.1 83.8899C20.41 84.6399 22.03 83.7299 22.52 83.6399L20.32 71.6499L18.32 60.7599C17.4 60.9799 15.59 59.8299 13.7 59.6299C12.68 59.5999 11.5 59.4999 10.24 59.3599C8.69 59.1799 7.02 58.9199 5.37 58.6499Z" fill="black"/>
<path opacity="0.0588" d="M5.5 58.6699C5.65 60.1599 5.91 62.4499 6.38 65.0599C6.85 67.6599 7.52 70.5799 8.49 73.3299C9.64 76.5799 11.2 79.5999 13.24 81.6099C14.39 82.7399 15.68 83.5499 17.14 83.8899C20.4 84.6299 22.02 83.7499 22.54 83.6499L20.34 71.6599L18.36 60.8499C17.46 61.0599 15.68 59.8399 13.85 59.6399C12.83 59.6099 11.66 59.5199 10.4 59.3799C8.82 59.1899 7.15 58.9399 5.5 58.6699Z" fill="black"/>
<path opacity="0.0627" d="M5.62 58.6899C5.76 60.1799 6.01 62.4799 6.47 65.0799C6.93 67.6899 7.58 70.6099 8.55 73.3599C9.69 76.5999 11.24 79.5999 13.27 81.5999C14.41 82.7299 15.7 83.5299 17.15 83.8699C20.36 84.5999 21.97 83.7399 22.53 83.6399L20.33 71.6499L18.36 60.9199C17.49 61.1199 15.74 59.8199 13.95 59.6399C12.94 59.6199 11.77 59.5299 10.5 59.3899C8.94 59.2099 7.28 58.9599 5.62 58.6899Z" fill="black"/>
<path opacity="0.0667" d="M5.75 58.71C5.88 60.2 6.12 62.5 6.56 65.11C7.01 67.72 7.65 70.65 8.61 73.4C9.74 76.63 11.28 79.62 13.3 81.61C14.43 82.73 15.72 83.53 17.17 83.86C20.32 84.59 21.94 83.75 22.52 83.63L20.32 71.64L18.37 60.98C17.52 61.18 15.8 59.8 14.07 59.62C13.07 59.61 11.89 59.52 10.62 59.38C9.07 59.22 7.41 58.98 5.75 58.71Z" fill="black"/>
<path opacity="0.0706" d="M5.87 58.73C5.99 60.22 6.22 62.52 6.65 65.14C7.08 67.76 7.72 70.69 8.67 73.44C9.79 76.65 11.31 79.63 13.34 81.61C14.47 82.72 15.75 83.52 17.19 83.85C20.29 84.56 21.9 83.75 22.52 83.63L20.32 71.64L18.38 61.06C17.56 61.25 15.86 59.8 14.18 59.62C13.18 59.61 12.01 59.53 10.73 59.39C9.19999 59.24 7.53 59 5.87 58.73Z" fill="black"/>
<path opacity="0.0745" d="M6 58.75C6.11 60.24 6.33 62.55 6.75 65.17C7.17 67.79 7.79 70.73 8.74 73.48C9.84 76.68 11.36 79.65 13.38 81.62C14.5 82.72 15.78 83.51 17.22 83.85C20.26 84.55 21.87 83.76 22.53 83.64L20.33 71.65L18.4 61.15C17.6 61.34 15.94 59.8 14.31 59.63C13.32 59.63 12.14 59.55 10.87 59.42C9.32 59.26 7.66 59.01 6 58.75Z" fill="black"/>
<path opacity="0.0784" d="M6.12 58.77C6.22 60.26 6.43 62.57 6.84 65.2C7.25 67.83 7.86 70.77 8.8 73.53C9.89 76.72 11.4 79.67 13.41 81.64C14.53 82.73 15.8 83.52 17.24 83.85C20.23 84.54 21.84 83.78 22.53 83.65L20.33 71.66L18.42 61.24C17.65 61.42 16.01 59.81 14.43 59.65C13.44 59.65 12.27 59.58 10.99 59.45C9.45 59.27 7.79 59.03 6.12 58.77Z" fill="black"/>
<path opacity="0.0824" d="M6.25 58.7803C6.35 60.2703 6.54 62.5903 6.94 65.2203C7.34 67.8503 7.93 70.8003 8.87 73.5603C9.95 76.7403 11.45 79.6803 13.46 81.6303C14.57 82.7203 15.84 83.5003 17.27 83.8303C20.21 84.5103 21.81 83.7703 22.54 83.6303L20.34 71.6403L18.44 61.3003C17.69 61.4803 16.09 59.7903 14.56 59.6303C13.58 59.6403 12.41 59.5703 11.12 59.4403C9.57 59.2903 7.91 59.0503 6.25 58.7803Z" fill="black"/>
<path opacity="0.0863" d="M6.37 58.8101C6.46 60.3001 6.64 62.6201 7.02 65.2601C7.41 67.8901 7.99 70.8501 8.92 73.6101C9.99 76.7801 11.47 79.7001 13.48 81.6501C14.59 82.7301 15.84 83.5001 17.28 83.8401C20.16 84.5101 21.76 83.8001 22.53 83.6501L20.33 71.6601L18.45 61.4001C17.73 61.5701 16.15 59.8101 14.67 59.6501C13.7 59.6701 12.52 59.6001 11.23 59.4701C9.69999 59.3101 8.04 59.0701 6.37 58.8101Z" fill="black"/>
<path opacity="0.0902" d="M6.5 58.8203C6.58 60.3203 6.75 62.6403 7.12 65.2803C7.49 67.9203 8.07 70.8803 8.99 73.6403C10.04 76.8003 11.52 79.7103 13.52 81.6403C14.62 82.7103 15.87 83.4803 17.3 83.8103C20.13 84.4703 21.73 83.7803 22.53 83.6303L20.33 71.6403L18.46 61.4603C17.76 61.6203 16.21 59.7803 14.79 59.6303C13.82 59.6503 12.65 59.5903 11.36 59.4603C9.83 59.3203 8.17 59.0903 6.5 58.8203Z" fill="black"/>
<path opacity="0.0941" d="M6.62 58.8403C6.69 60.3403 6.85 62.6603 7.21 65.3103C7.57 67.9503 8.13 70.9203 9.05 73.6803C10.09 76.8203 11.56 79.7203 13.56 81.6503C14.65 82.7103 15.9 83.4803 17.33 83.8103C20.1 84.4603 21.7 83.7903 22.53 83.6403L20.33 71.6503L18.48 61.5403C17.81 61.7003 16.29 59.7803 14.91 59.6403C13.95 59.6703 12.78 59.6103 11.48 59.4903C9.94999 59.3403 8.3 59.1103 6.62 58.8403Z" fill="black"/>
<path opacity="0.098" d="M6.75 58.8604C6.81 60.3604 6.96 62.6904 7.31 65.3304C7.66 67.9804 8.21 70.9503 9.12 73.7104C10.15 76.8404 11.61 79.7304 13.6 81.6504C14.69 82.7004 15.93 83.4604 17.35 83.8004C20.07 84.4304 21.67 83.8003 22.53 83.6303L20.33 71.6404L18.49 61.6104C17.84 61.7604 16.35 59.7704 15.03 59.6304C14.07 59.6604 12.9 59.6104 11.6 59.4904C10.08 59.3504 8.42 59.1204 6.75 58.8604Z" fill="black"/>
<path opacity="0.102" d="M6.87 58.8799C6.93 60.3799 7.06 62.7099 7.39 65.3599C7.73 68.0099 8.27 70.9899 9.17 73.7499C10.19 76.8699 11.63 79.7499 13.62 81.6499C14.7 82.6899 15.94 83.4499 17.36 83.7799C20.03 84.3999 21.62 83.7899 22.52 83.6199L20.32 71.6299L18.5 61.6999C17.88 61.8499 16.42 59.7699 15.14 59.6399C14.19 59.6799 13.02 59.6299 11.71 59.5099C10.21 59.3699 8.55 59.1399 6.87 58.8799Z" fill="black"/>
<path opacity="0.1059" d="M7 58.8999C7.05 60.3999 7.17 62.7299 7.49 65.3899C7.82 68.0499 8.34 71.0299 9.24 73.7999C10.24 76.9099 11.68 79.7699 13.66 81.6699C14.74 82.7099 15.97 83.4599 17.39 83.7899C20 84.3999 21.59 83.8199 22.53 83.6399L20.33 71.6499L18.52 61.7799C17.92 61.9199 16.49 59.7699 15.27 59.6399C14.33 59.6799 13.15 59.6399 11.85 59.5199C10.33 59.3899 8.68 59.1599 7 58.8999Z" fill="black"/>
<path opacity="0.1098" d="M7.12 58.9199C7.16 60.4199 7.27 62.7599 7.58 65.4199C7.89 68.0799 8.41 71.0699 9.3 73.8399C10.29 76.9399 11.72 79.7899 13.7 81.6699C14.77 82.6999 16 83.4399 17.41 83.7699C19.97 84.3699 21.56 83.8099 22.53 83.6299L20.33 71.6399L18.53 61.8499C17.96 61.9799 16.55 59.7599 15.38 59.6399C14.44 59.6899 13.27 59.6499 11.96 59.5299C10.46 59.3999 8.81 59.1799 7.12 58.9199Z" fill="black"/>
<path opacity="0.1137" d="M7.25 58.9399C7.28 60.4399 7.38 62.7799 7.68 65.4499C7.98 68.1199 8.49 71.0999 9.37 73.8799C10.35 76.9699 11.76 79.7999 13.74 81.6799C14.81 82.6999 16.03 83.4399 17.44 83.7699C19.95 84.3599 21.53 83.8199 22.54 83.6399L20.34 71.6499L18.56 61.9399C18.01 62.0699 16.64 59.7599 15.52 59.6499C14.59 59.7099 13.42 59.6699 12.1 59.5599C10.59 59.4199 8.93 59.1999 7.25 58.9399Z" fill="black"/>
<path opacity="0.1176" d="M7.37 58.96C7.39 60.46 7.47 62.81 7.77 65.48C8.06 68.15 8.55 71.14 9.43 73.92C10.4 76.99 11.8 79.82 13.77 81.69C14.83 82.7 16.05 83.44 17.45 83.77C19.9 84.35 21.49 83.84 22.53 83.64L20.33 71.65L18.56 62.01C18.04 62.13 16.69 59.75 15.62 59.64C14.7 59.7 13.52 59.67 12.21 59.56C10.71 59.43 9.06 59.22 7.37 58.96Z" fill="black"/>
<path opacity="0.1216" d="M7.5 58.98C7.52 60.48 7.58 62.83 7.86 65.51C8.14 68.18 8.62 71.18 9.48 73.96C10.43 77.02 11.83 79.83 13.8 81.69C14.86 82.69 16.07 83.42 17.47 83.75C19.87 84.32 21.45 83.83 22.52 83.63L20.32 71.64L18.57 62.08C18.07 62.2 16.76 59.74 15.74 59.63C14.82 59.7 13.65 59.67 12.33 59.56C10.84 59.45 9.19 59.24 7.5 58.98Z" fill="black"/>
<path opacity="0.1255" d="M7.62 59C7.63 60.5 7.68 62.86 7.95 65.54C8.22 68.22 8.69 71.22 9.54 74C10.48 77.05 11.87 79.85 13.83 81.7C14.88 82.7 16.09 83.42 17.48 83.75C19.82 84.3 21.4 83.85 22.51 83.64L20.31 71.65L18.57 62.17C18.1 62.28 16.81 59.75 15.84 59.65C14.93 59.73 13.76 59.7 12.43 59.59C10.96 59.47 9.31 59.25 7.62 59Z" fill="black"/>
<path opacity="0.1294" d="M7.75 59.02C7.75 60.52 7.79 62.88 8.05 65.56C8.31 68.24 8.76 71.25 9.61 74.03C10.54 77.07 11.91 79.85 13.87 81.69C14.91 82.68 16.12 83.4 17.51 83.73C19.8 84.27 21.38 83.84 22.52 83.63L20.32 71.64L18.6 62.24C18.15 62.34 16.89 59.73 15.98 59.64C15.07 59.72 13.9 59.7 12.57 59.59C11.09 59.48 9.44 59.27 7.75 59.02Z" fill="black"/>
<path opacity="0.1333" d="M7.87003 59.04C7.86003 60.54 7.89003 62.9 8.14003 65.59C8.38003 68.28 8.83003 71.29 9.67003 74.08C10.59 77.11 11.95 79.88 13.91 81.71C14.95 82.69 16.15 83.4 17.54 83.73C19.78 84.26 21.35 83.85 22.53 83.63L20.33 71.64L18.62 62.32C18.2 62.42 16.97 59.73 16.1 59.64C15.2 59.73 14.03 59.71 12.69 59.61C11.22 59.5 9.57003 59.29 7.87003 59.04Z" fill="black"/>
<path opacity="0.1373" d="M7.99994 59.0601C7.97994 60.5601 7.99994 62.9301 8.22994 65.6201C8.45994 68.3101 8.89994 71.3301 9.72994 74.1201C10.6399 77.1301 11.9899 79.8901 13.9399 81.7201C14.9699 82.6901 16.1699 83.4001 17.5499 83.7301C19.7299 84.2501 21.2999 83.8701 22.5199 83.6401L20.3199 71.6501L18.6199 62.4101C18.2199 62.5001 17.0199 59.7401 16.2099 59.6501C15.3199 59.7401 14.1499 59.7301 12.8099 59.6301C11.3399 59.5201 9.69994 59.3101 7.99994 59.0601Z" fill="black"/>
<path opacity="0.1412" d="M8.12001 59.0801C8.10001 60.5801 8.10001 62.9501 8.32001 65.6501C8.54001 68.3501 8.96001 71.3701 9.79001 74.1601C10.68 77.1601 12.03 79.9101 13.97 81.7201C15 82.6801 16.19 83.3901 17.57 83.7201C19.7 84.2301 21.27 83.8701 22.52 83.6401L20.32 71.6501L18.64 62.4801C18.27 62.5701 17.1 59.7201 16.33 59.6501C15.44 59.7501 14.27 59.7401 12.93 59.6401C11.47 59.5301 9.82001 59.3301 8.12001 59.0801Z" fill="black"/>
<path opacity="0.1451" d="M8.24996 59.1001C8.21996 60.6001 8.20996 62.9801 8.41996 65.6801C8.62996 68.3801 9.03996 71.4101 9.85996 74.2001C10.74 77.1901 12.07 79.9201 14.02 81.7301C15.04 82.6901 16.23 83.3801 17.6 83.7101C19.68 84.2101 21.24 83.8801 22.53 83.6401L20.33 71.6501L18.66 62.5601C18.31 62.6401 17.17 59.7201 16.46 59.6501C15.58 59.7501 14.41 59.7501 13.06 59.6501C11.6 59.5501 9.94996 59.3501 8.24996 59.1001Z" fill="black"/>
<path opacity="0.149" d="M8.37998 59.1201C8.33998 60.6201 8.31998 63.0001 8.51998 65.7101C8.71998 68.4201 9.11998 71.4501 9.92998 74.2401C10.8 77.2201 12.12 79.9401 14.06 81.7401C15.08 82.6901 16.26 83.3801 17.63 83.7101C19.65 84.1901 21.22 83.8901 22.53 83.6401L20.33 71.6501L18.68 62.6401C18.36 62.7201 17.25 59.7201 16.58 59.6501C15.7 59.7601 14.53 59.7601 13.18 59.6601C11.72 59.5601 10.08 59.3601 8.37998 59.1201Z" fill="black"/>
<path opacity="0.1529" d="M8.50003 59.1401C8.45003 60.6401 8.42003 63.0301 8.61003 65.7401C8.79003 68.4501 9.18003 71.4901 9.99003 74.2801C10.85 77.2501 12.16 79.9501 14.09 81.7401C15.1 82.6801 16.28 83.3701 17.64 83.6901C19.61 84.1601 21.17 83.8901 22.52 83.6301L20.32 71.6401L18.68 62.7101C18.38 62.7801 17.3 59.7101 16.69 59.6401C15.82 59.7601 14.65 59.7601 13.3 59.6701C11.85 59.5801 10.21 59.3801 8.50003 59.1401Z" fill="black"/>
<path opacity="0.1569" d="M8.61998 59.1602C8.55998 60.6602 8.51998 63.0502 8.68998 65.7702C8.85998 68.4802 9.23998 71.5302 10.04 74.3202C10.89 77.2702 12.19 79.9702 14.12 81.7502C15.12 82.6802 16.29 83.3602 17.66 83.6902C19.57 84.1502 21.13 83.9002 22.52 83.6402L20.32 71.6502L18.7 62.8002C18.43 62.8602 17.37 59.7102 16.81 59.6502C15.95 59.7702 14.78 59.7802 13.42 59.6902C11.98 59.6002 10.33 59.4002 8.61998 59.1602Z" fill="black"/>
<path opacity="0.1608" d="M8.75001 59.1802C8.68001 60.6802 8.63001 63.0802 8.79001 65.8002C8.95001 68.5202 9.32001 71.5702 10.11 74.3702C10.94 77.3102 12.23 79.9902 14.16 81.7602C15.16 82.6802 16.32 83.3602 17.69 83.6902C19.55 84.1402 21.11 83.9102 22.53 83.6502L20.33 71.6602L18.72 62.8902C18.47 62.9502 17.45 59.7202 16.94 59.6702C16.08 59.8002 14.91 59.8002 13.55 59.7202C12.1 59.6102 10.46 59.4202 8.75001 59.1802Z" fill="black"/>
<path opacity="0.1647" d="M8.88 59.2002C8.81 60.7002 8.74 63.1002 8.89 65.8202C9.04 68.5402 9.39 71.5902 10.18 74.4002C11 77.3302 12.28 80.0002 14.2 81.7602C15.19 82.6702 16.35 83.3402 17.71 83.6702C19.52 84.1102 21.07 83.9102 22.53 83.6302L20.33 71.6402L18.73 62.9402C18.51 62.9902 17.51 59.6902 17.05 59.6402C16.2 59.7702 15.03 59.7802 13.66 59.7002C12.23 59.6202 10.59 59.4402 8.88 59.2002Z" fill="black"/>
<path opacity="0.1686" d="M9.00005 59.2202C8.92005 60.7202 8.84005 63.1202 8.98005 65.8502C9.12005 68.5802 9.46005 71.6302 10.24 74.4402C11.05 77.3602 12.32 80.0102 14.23 81.7702C15.22 82.6802 16.37 83.3402 17.73 83.6702C19.48 84.0902 21.04 83.9202 22.53 83.6402L20.33 71.6502L18.75 63.0302C18.55 63.0802 17.59 59.6902 17.18 59.6502C16.34 59.7902 15.17 59.8002 13.8 59.7202C12.36 59.6402 10.71 59.4602 9.00005 59.2202Z" fill="black"/>
<path opacity="0.1725" d="M9.13002 59.2402C9.04002 60.7402 8.95002 63.1502 9.08002 65.8802C9.20002 68.6102 9.54002 71.6702 10.31 74.4802C11.11 77.3902 12.36 80.0302 14.28 81.7702C15.26 82.6702 16.41 83.3302 17.76 83.6602C19.46 84.0702 21.01 83.9302 22.54 83.6402L20.34 71.6502L18.77 63.1102C18.6 63.1502 17.66 59.6902 17.3 59.6502C16.46 59.8002 15.29 59.8102 13.92 59.7302C12.48 59.6602 10.84 59.4802 9.13002 59.2402Z" fill="black"/>
<path opacity="0.1765" d="M9.24995 59.2603C9.14995 60.7603 9.04995 63.1703 9.15995 65.9103C9.26995 68.6503 9.59995 71.7103 10.36 74.5203C11.15 77.4103 12.39 80.0403 14.3 81.7803C15.28 82.6703 16.42 83.3203 17.77 83.6503C19.42 84.0503 20.96 83.9303 22.52 83.6403L20.32 71.6503L18.77 63.1903C18.62 63.2303 17.71 59.6903 17.41 59.6603C16.58 59.8103 15.41 59.8303 14.03 59.7603C12.61 59.6803 10.97 59.4903 9.24995 59.2603Z" fill="black"/>
<path opacity="0.1804" d="M9.38005 59.2803C9.27005 60.7803 9.16005 63.2003 9.26005 65.9403C9.36005 68.6803 9.68005 71.7503 10.43 74.5603C11.21 77.4403 12.44 80.0603 14.34 81.7803C15.31 82.6603 16.45 83.3103 17.8 83.6403C19.39 84.0303 20.9401 83.9303 22.5301 83.6303L20.33 71.6403L18.7901 63.2603C18.6701 63.2903 17.7901 59.6803 17.5301 59.6503C16.7001 59.8103 15.54 59.8303 14.15 59.7603C12.73 59.6903 11.1 59.5103 9.38005 59.2803Z" fill="black"/>
<path opacity="0.1843" d="M9.49994 59.3003C9.38994 60.8003 9.25994 63.2203 9.34994 65.9703C9.43994 68.7203 9.73994 71.7903 10.4899 74.6003C11.2599 77.4703 12.4799 80.0703 14.3799 81.7903C15.3399 82.6603 16.4799 83.3003 17.8199 83.6303C19.3599 84.0003 20.8999 83.9403 22.5299 83.6303L20.3299 71.6403L18.8099 63.3403C18.7099 63.3603 17.8599 59.6703 17.6599 59.6503C16.8399 59.8103 15.6699 59.8403 14.2899 59.7703C12.8599 59.7103 11.2199 59.5303 9.49994 59.3003Z" fill="black"/>
<path opacity="0.1882" d="M9.63003 59.3203C9.50003 60.8203 9.37003 63.2403 9.44003 66.0003C9.52003 68.7503 9.81003 71.8303 10.55 74.6503C11.3 77.5103 12.51 80.1003 14.41 81.8103C15.37 82.6703 16.5 83.3103 17.84 83.6403C19.33 84.0003 20.87 83.9603 22.53 83.6503L20.33 71.6603L18.82 63.4403C18.74 63.4603 17.92 59.6903 17.77 59.6703C16.96 59.8403 15.79 59.8703 14.4 59.8003C12.99 59.7203 11.35 59.5503 9.63003 59.3203Z" fill="black"/>
<path opacity="0.1922" d="M9.74998 59.3403C9.61998 60.8403 9.46998 63.2703 9.52998 66.0303C9.59998 68.7803 9.87998 71.8703 10.61 74.6903C11.35 77.5403 12.55 80.1103 14.44 81.8103C15.39 82.6703 16.52 83.3003 17.85 83.6303C19.28 83.9803 20.82 83.9703 22.52 83.6503L20.32 71.6603L18.83 63.5103C18.78 63.5203 17.99 59.6803 17.89 59.6703C17.08 59.8503 15.91 59.8803 14.52 59.8203C13.11 59.7403 11.48 59.5703 9.74998 59.3403Z" fill="black"/>
<path opacity="0.1961" d="M9.87997 59.3604C9.73997 60.8604 9.57997 63.2904 9.62997 66.0504C9.67997 68.8104 9.94997 71.9004 10.68 74.7204C11.41 77.5504 12.6 80.1203 14.49 81.8103C15.44 82.6603 16.56 83.2804 17.89 83.6104C19.27 83.9504 20.8 83.9603 22.54 83.6303L20.34 71.6404L18.86 63.5704C18.83 63.5804 18.07 59.6504 18.02 59.6504C17.22 59.8304 16.05 59.8704 14.65 59.8104C13.24 59.7504 11.6 59.5904 9.87997 59.3604Z" fill="black"/>
<path opacity="0.2" d="M10 59.3799C9.85004 60.8799 9.68004 63.3199 9.72004 66.0799C9.76004 68.8399 10.02 71.9399 10.74 74.7599C11.46 77.5799 12.64 80.1299 14.52 81.8099C15.46 82.6499 16.58 83.2699 17.9 83.5999C19.22 83.9299 20.76 83.9599 22.53 83.6299L20.33 71.6399L18.13 59.6499C17.33 59.8399 16.17 59.8799 14.77 59.8199C13.37 59.7699 11.73 59.5999 10 59.3799Z" fill="black"/>
</g>
<path d="M15.08 57.07L19.84 74.14L15.51 56.98L15.08 57.07Z" fill="#D0D2D3"/>
<path d="M11.0699 86.1698C11.4399 86.9098 11.6799 87.3198 11.7399 87.2698C12.2399 86.8798 22.2999 83.9098 22.2999 83.9098L22.0799 83.0498C20.7099 83.4098 13.0199 85.4898 11.0699 86.1698Z" fill="#D0D2D3"/>
<path d="M12.13 80.9003C12.13 80.9003 15.57 84.3503 22.31 83.9003L20.88 75.5903C20.87 75.6003 12.65 79.3803 12.13 80.9003Z" fill="#929497"/>
<path d="M2.63 51.3001L12.13 80.9801C12.13 80.9801 49.94 51.6001 105.93 75.1001L113.79 57.7801C113.79 57.7801 74.4 16.6001 2.63 51.3001Z" fill="white"/>
<path d="M11.33 78.48L12.13 80.98C12.13 80.98 49.94 51.6 105.93 75.1L106.85 73.08C55.73 53.44 19.33 73.4 11.33 78.48Z" fill="#D0D2D3"/>
<path d="M23.31 52.4102C22.63 51.8902 21.88 51.5502 21.05 51.4002C20.23 51.2502 19.35 51.2702 18.44 51.4702C17.53 51.6702 16.61 51.9802 15.7 52.4102C15.35 52.5802 15 52.7502 14.63 52.9502C14.27 53.1502 13.91 53.3502 13.55 53.5602C13.19 53.7702 12.86 53.9802 12.54 54.1802C12.22 54.3802 11.95 54.5702 11.73 54.7302C15.7 61.2102 17.69 64.4602 21.66 70.9402C21.83 70.8702 22.01 70.7802 22.18 70.6802C22.36 70.5802 22.52 70.4702 22.67 70.3702C23.02 70.1502 23.33 69.9202 23.61 69.6802C22.25 67.3302 21.57 66.1602 20.22 63.8102C20.48 63.7002 20.71 63.6002 20.92 63.4902C21.13 63.3802 21.37 63.2502 21.64 63.1102C22.37 62.7102 23.04 62.2502 23.66 61.7202C24.28 61.1902 24.77 60.5802 25.13 59.8902C25.49 59.2002 25.68 58.4302 25.71 57.5802C25.73 56.7302 25.51 55.7702 25.01 54.7202C24.56 53.7002 23.99 52.9302 23.31 52.4102ZM22.74 59.1502C22.51 59.5802 22.2 59.9602 21.8 60.2802C21.4 60.6102 20.97 60.8902 20.52 61.1302C20.18 61.3102 19.92 61.4402 19.74 61.5202C19.56 61.6002 19.34 61.6902 19.09 61.7902C17.57 59.1702 16.81 57.8502 15.29 55.2302C15.71 54.9602 16.22 54.6702 16.82 54.3802C17.4 54.1002 17.97 53.8902 18.53 53.7702C19.09 53.6402 19.61 53.6302 20.1 53.7302C20.59 53.8302 21.04 54.0402 21.45 54.3802C21.86 54.7102 22.22 55.1902 22.54 55.8102C22.9 56.5202 23.07 57.1502 23.08 57.6902C23.08 58.2302 22.96 58.7202 22.74 59.1502Z" fill="#D15907"/>
<path d="M37.29 50.29C37.06 50.33 36.86 50.37 36.68 50.42C36.5 50.47 36.3 50.52 36.08 50.6C35.86 50.67 35.67 50.75 35.5 50.83C36.81 54.66 37.46 56.57 38.77 60.4C38.31 60.73 37.71 61.03 36.98 61.29C36.49 61.46 36.05 61.57 35.64 61.6C35.23 61.63 34.84 61.57 34.48 61.4C34.12 61.23 33.77 60.94 33.45 60.52C33.13 60.1 32.82 59.53 32.53 58.81C31.5 56.29 30.99 55.03 29.96 52.51C29.77 52.54 29.56 52.59 29.33 52.65C29.1 52.71 28.89 52.78 28.72 52.84C28.56 52.9 28.37 52.98 28.15 53.07C27.93 53.17 27.74 53.26 27.58 53.36C28.7 55.92 29.26 57.21 30.38 59.77C30.88 60.93 31.43 61.8 32 62.39C32.57 62.98 33.17 63.37 33.79 63.57C34.41 63.77 35.04 63.81 35.69 63.69C36.34 63.58 37.01 63.39 37.69 63.14C38.41 62.87 39.09 62.56 39.73 62.19C40.37 61.83 40.92 61.5 41.37 61.2C39.99 56.81 39.31 54.62 37.93 50.23C37.73 50.23 37.52 50.25 37.29 50.29Z" fill="#D15907"/>
<path d="M58.5 48.6003C57.77 47.9203 56.64 47.5803 55.15 47.6303C54.66 47.6503 54.23 47.7203 53.86 47.8503C53.49 47.9803 53.17 48.1503 52.89 48.3403C52.62 48.5403 52.38 48.7703 52.18 49.0303C51.98 49.2903 51.73 49.7903 51.69 49.7903C51.69 49.7903 50.82 48.7503 50.22 48.4603C49.62 48.1703 48.81 48.0703 47.8 48.1803C47.31 48.2403 46.88 48.3503 46.51 48.5203C46.13 48.6903 45.81 48.8903 45.55 49.1203C45.29 49.3503 45.07 49.6103 44.91 49.8803C44.74 50.1503 44.55 50.7203 44.54 50.7203C44.54 50.7203 44.38 50.1803 44.25 49.8403C44.11 49.4903 43.98 49.0603 43.89 49.0103C43.82 48.9703 43.52 49.0203 43.36 49.0303C43.2 49.0403 43.03 49.0603 42.84 49.1003C42.66 49.1303 42.48 49.1803 42.31 49.2203C42.14 49.2703 41.97 49.3203 41.79 49.3803C43 53.8603 43.6 56.1003 44.81 60.5803C44.98 60.5703 45.16 60.5403 45.37 60.5103C45.57 60.4703 45.76 60.4403 45.91 60.4003C46.07 60.3603 46.24 60.3103 46.43 60.2503C46.62 60.1903 46.79 60.1303 46.94 60.0603C46.39 57.7903 46.12 56.6603 45.56 54.3903C45.41 53.7503 45.34 53.1803 45.38 52.6703C45.41 52.1603 45.53 51.7303 45.72 51.3703C45.91 51.0103 46.17 50.7203 46.49 50.5103C46.81 50.3003 47.18 50.1603 47.59 50.1103C48.31 50.0103 48.88 50.1903 49.3 50.6303C49.72 51.0703 50.01 51.7603 50.18 52.7103C50.66 55.3003 50.9 56.5903 51.39 59.1903C51.56 59.1903 51.74 59.1803 51.94 59.1703C52.14 59.1503 52.32 59.1303 52.48 59.1103C52.64 59.0903 52.82 59.0503 53.01 59.0103C53.2 58.9703 53.38 58.9203 53.54 58.8703C53.15 56.4303 52.96 55.2203 52.57 52.7803C52.41 51.7703 52.54 50.9903 52.97 50.4303C53.4 49.8703 54.05 49.5703 54.89 49.5303C55.68 49.4903 56.28 49.7103 56.67 50.1703C57.06 50.6303 57.3 51.3303 57.4 52.2703C57.65 54.7103 57.78 55.9303 58.03 58.3703C58.19 58.3803 58.38 58.3903 58.58 58.3903C58.78 58.3903 58.96 58.3803 59.12 58.3703C59.28 58.3603 59.47 58.3403 59.67 58.3103C59.88 58.2803 60.06 58.2503 60.22 58.2203C60.02 55.5803 59.92 54.2603 59.72 51.6203C59.64 50.2703 59.23 49.2703 58.5 48.6003Z" fill="#D15907"/>
<path d="M73.06 49.9902C72.64 49.5302 72.12 49.1602 71.49 48.8702C70.86 48.5902 70.17 48.3902 69.43 48.3002C68.93 48.2302 68.47 48.2302 68.06 48.2702C67.65 48.3102 67.28 48.4002 66.96 48.5202C66.63 48.6402 66.36 48.7902 66.13 48.9702C65.9 49.1502 65.56 49.5302 65.54 49.5302C65.54 49.5302 65.53 49.4002 65.5 49.2502C65.47 49.1102 65.45 48.9602 65.42 48.8002C65.39 48.6402 65.37 48.4902 65.34 48.3602C65.31 48.2202 65.29 48.1202 65.28 48.1102C65.2 48.0502 64.94 48.0402 64.75 48.0102C64.57 47.9802 64.39 47.9602 64.22 47.9502C64.04 47.9402 63.86 47.9302 63.68 47.9402C63.51 47.9402 63.33 47.9502 63.17 47.9702C63.38 53.8902 63.48 56.8402 63.69 62.7602C63.84 62.7802 64.01 62.7902 64.2 62.8002C64.39 62.8102 64.56 62.8102 64.71 62.8002C64.86 62.7902 65.03 62.7802 65.22 62.7602C65.41 62.7402 65.58 62.7202 65.75 62.6902C65.74 60.8602 65.73 59.9502 65.72 58.1202C65.97 58.1902 66.27 58.2502 66.61 58.3002C66.95 58.3502 67.28 58.3802 67.61 58.3902C69.54 58.4702 71.05 58.1202 72.19 57.3302C73.33 56.5302 74 55.3702 74.15 53.7802C74.23 52.9802 74.17 52.2702 73.98 51.6402C73.78 50.9902 73.47 50.4502 73.06 49.9902ZM71.7 53.4902C71.66 54.1102 71.53 54.6302 71.31 55.0602C71.09 55.4902 70.81 55.8402 70.47 56.1102C70.13 56.3802 69.73 56.5702 69.27 56.6802C68.81 56.7902 68.32 56.8302 67.77 56.8002C67.29 56.7702 66.9 56.7402 66.6 56.6902C66.3 56.6402 66 56.5702 65.72 56.4702C65.71 54.8502 65.7 54.0502 65.69 52.4302C65.69 51.9402 65.77 51.5202 65.95 51.1802C66.13 50.8402 66.36 50.5602 66.65 50.3502C66.94 50.1402 67.28 50.0002 67.66 49.9202C68.04 49.8402 68.43 49.8302 68.84 49.8702C69.94 49.9902 70.71 50.4002 71.15 51.0502C71.58 51.6902 71.76 52.5002 71.7 53.4902Z" fill="#D15907"/>
<path d="M79.53 46.3801C79.34 46.3301 79.13 46.2801 78.9 46.2301C78.67 46.1801 78.46 46.1501 78.27 46.1201C77.57 51.2901 77.23 53.8701 76.53 59.0401C76.69 59.0901 76.87 59.1401 77.06 59.1801C77.26 59.2201 77.43 59.2601 77.6 59.2901C77.76 59.3201 77.95 59.3501 78.15 59.3701C78.36 59.4001 78.54 59.4101 78.71 59.4201C79.54 54.3701 79.96 51.8501 80.79 46.8001C80.61 46.7201 80.4 46.6501 80.16 46.5701C79.93 46.4901 79.72 46.4301 79.53 46.3801Z" fill="#D15907"/>
<path d="M86.74 52.4999C86.53 52.4199 86.3 52.3299 86.06 52.2499C85.84 52.1699 85.62 52.1099 85.41 52.0499C85.2 51.9899 84.99 51.9399 84.77 51.8999C82.84 53.0199 81.9 53.6399 80.09 54.9799C81.54 57.2099 82.21 58.3099 83.46 60.4599C83.66 60.5299 83.86 60.5999 84.06 60.6599C84.26 60.7199 84.46 60.7799 84.66 60.8399C84.86 60.8899 85.06 60.9399 85.25 60.9899C85.44 61.0299 85.64 61.0699 85.85 61.1099C84.66 58.9099 84.02 57.7899 82.64 55.4999C84.48 54.3099 85.43 53.7599 87.39 52.7799C87.17 52.6799 86.95 52.5899 86.74 52.4999Z" fill="#D15907"/>
<path d="M92.76 51.1401C92.58 51.0601 92.37 50.9701 92.12 50.8801C91.87 50.7901 91.5099 50.6001 91.4199 50.6301C91.3799 50.6401 91.2899 50.8501 91.2399 50.9901C91.1899 51.1301 91.15 51.2601 91.11 51.3701C91.08 51.4801 91.04 51.6101 91.01 51.7601C90.97 51.9101 90.9199 52.1301 90.9499 52.1801C90.9999 52.2701 91.37 52.3901 91.61 52.5001C91.85 52.6101 92.0599 52.7101 92.2499 52.7901C92.4299 52.8701 92.63 52.9501 92.86 53.0401C93.09 53.1301 93.43 53.3001 93.51 53.2701C93.55 53.2601 93.6499 53.0501 93.6999 52.9101C93.7599 52.7801 93.7999 52.6501 93.8399 52.5501C93.8799 52.4401 93.9199 52.3201 93.9599 52.1701C93.9999 52.0301 94.0599 51.8301 94.0299 51.7701C93.9799 51.6801 93.6299 51.5501 93.3899 51.4301C93.1499 51.3201 92.94 51.2201 92.76 51.1401Z" fill="#D15907"/>
<path d="M89.25 53.7803C89.2 53.8803 89.16 53.9803 89.13 54.0903C89.1 54.1903 89.08 54.3003 89.06 54.4203C89.04 54.5303 89.04 54.6403 89.05 54.7303C89.66 54.9503 89.96 55.0703 90.56 55.3103C89.73 57.9503 89.31 59.2703 88.48 61.9203C88.63 61.9903 88.8 62.0603 88.99 62.1403C89.18 62.2103 89.35 62.2703 89.49 62.3203C89.65 62.3703 89.82 62.4303 90.02 62.4903C90.22 62.5503 90.4 62.5903 90.56 62.6303C91.62 59.6103 92.15 58.1003 93.21 55.0803C91.7 54.4203 90.94 54.1103 89.4 53.5303C89.35 53.5903 89.3 53.6703 89.25 53.7803Z" fill="#D15907"/>
<path d="M102.8 59.77C102.34 59.5 101.9 59.29 101.47 59.14C101.05 58.99 100.66 58.9 100.3 58.85C99.94 58.81 99.62 58.8 99.32 58.83C99.02 58.86 98.55 59 98.54 58.99C98.54 58.99 98.67 58.64 98.73 58.38C98.79 58.13 98.87 57.84 98.84 57.77C98.8 57.69 98.53 57.57 98.39 57.48C98.25 57.4 98.1 57.31 97.93 57.23C97.76 57.15 97.6 57.07 97.43 56.99C97.27 56.92 97.1 56.85 96.92 56.79C95.74 59.64 95.15 61.07 93.97 63.92C94.12 64 94.29 64.09 94.48 64.18C94.67 64.27 94.84 64.35 95 64.41C95.15 64.48 95.33 64.54 95.52 64.62C95.71 64.69 95.89 64.75 96.05 64.8C96.68 63.41 97 62.71 97.63 61.32C97.82 60.9 98.07 60.58 98.38 60.37C98.69 60.16 99.02 60.03 99.39 59.99C99.76 59.95 100.15 59.99 100.56 60.11C100.97 60.23 101.38 60.4 101.79 60.63C102.49 61.03 102.93 61.47 103.1 61.93C103.27 62.39 103.19 62.91 102.86 63.48C102.05 64.93 101.64 65.65 100.83 67.1C100.97 67.19 101.13 67.3 101.31 67.4C101.49 67.51 101.65 67.6 101.8 67.68C101.95 67.76 102.12 67.85 102.32 67.94C102.51 68.04 102.69 68.12 102.85 68.19C103.77 66.68 104.24 65.93 105.16 64.42C105.63 63.65 105.69 62.89 105.32 62.1C104.94 61.35 104.1 60.54 102.8 59.77Z" fill="#D15907"/>
<path d="M23.69 51.6099C23.01 51.0899 22.26 50.7499 21.43 50.5999C20.61 50.4499 19.73 50.4699 18.82 50.6699C17.91 50.8699 16.99 51.1799 16.08 51.6099C15.73 51.7799 15.38 51.9499 15.01 52.1499C14.65 52.3499 14.29 52.5499 13.93 52.7599C13.57 52.9699 13.24 53.1799 12.92 53.3799C12.6 53.5799 12.33 53.7699 12.11 53.9299C16.08 60.4099 18.07 63.6499 22.04 70.1399C22.21 70.0699 22.39 69.9799 22.56 69.8799C22.74 69.7799 22.9 69.6699 23.05 69.5699C23.4 69.3499 23.71 69.1199 23.99 68.8799C22.63 66.5299 21.95 65.3599 20.6 63.0099C20.86 62.8999 21.09 62.7999 21.3 62.6899C21.51 62.5799 21.75 62.4499 22.02 62.3099C22.75 61.9099 23.42 61.4499 24.04 60.9199C24.66 60.3899 25.15 59.7799 25.51 59.0899C25.87 58.3999 26.06 57.6299 26.09 56.7799C26.11 55.9299 25.89 54.9699 25.39 53.9199C24.94 52.8999 24.37 52.1399 23.69 51.6099ZM23.12 58.3499C22.89 58.7799 22.58 59.1599 22.18 59.4799C21.78 59.8099 21.35 60.0899 20.9 60.3299C20.56 60.5099 20.3 60.6399 20.12 60.7199C19.94 60.7999 19.72 60.8899 19.47 60.9899C17.95 58.3599 17.19 57.0499 15.67 54.4299C16.09 54.1599 16.6 53.8699 17.2 53.5799C17.78 53.2999 18.35 53.0899 18.91 52.9699C19.47 52.8399 19.99 52.8299 20.48 52.9299C20.97 53.0299 21.42 53.2399 21.83 53.5799C22.24 53.9099 22.6 54.3899 22.92 55.0099C23.28 55.7199 23.45 56.3399 23.46 56.8899C23.46 57.4399 23.35 57.9199 23.12 58.3499Z" fill="#F27B1F"/>
<path d="M37.67 49.4899C37.44 49.5299 37.24 49.5699 37.06 49.6199C36.88 49.6699 36.68 49.7299 36.46 49.7999C36.24 49.8699 36.05 49.9499 35.88 50.0199C37.19 53.8499 37.84 55.7599 39.15 59.5899C38.69 59.9199 38.09 60.2199 37.36 60.4799C36.87 60.6499 36.43 60.7599 36.02 60.7899C35.61 60.8299 35.22 60.7599 34.86 60.5899C34.5 60.4199 34.15 60.1299 33.83 59.7099C33.51 59.2899 33.2 58.7199 32.91 57.9999C31.88 55.4799 31.37 54.2199 30.34 51.6999C30.15 51.7299 29.94 51.7799 29.71 51.8399C29.48 51.8999 29.27 51.9699 29.1 52.0299C28.94 52.0899 28.75 52.1599 28.53 52.2599C28.31 52.3599 28.12 52.4499 27.96 52.5499C29.08 55.1099 29.64 56.3999 30.76 58.9599C31.26 60.1199 31.81 60.9899 32.38 61.5799C32.95 62.1699 33.55 62.5599 34.17 62.7599C34.79 62.9599 35.42 62.9899 36.07 62.8799C36.72 62.7699 37.39 62.5799 38.07 62.3299C38.79 62.0599 39.47 61.7499 40.11 61.3799C40.75 61.0199 41.29 60.6899 41.75 60.3899C40.37 55.9999 39.68 53.7999 38.3 49.4199C38.11 49.4299 37.9 49.4599 37.67 49.4899Z" fill="#F27B1F"/>
<path d="M58.88 47.7999C58.15 47.1299 57.02 46.7799 55.53 46.8299C55.04 46.8499 54.61 46.9199 54.24 47.0499C53.87 47.1799 53.55 47.3399 53.27 47.5399C53 47.7399 52.76 47.9699 52.56 48.2299C52.36 48.4999 52.11 48.9999 52.07 48.9999C52.07 48.9999 51.2 47.9599 50.59 47.6699C49.99 47.3699 49.18 47.2699 48.17 47.3899C47.68 47.4499 47.25 47.5599 46.88 47.7299C46.5 47.8999 46.18 48.0999 45.92 48.3299C45.66 48.5599 45.44 48.8199 45.28 49.0899C45.11 49.3599 44.92 49.9299 44.91 49.9299C44.91 49.9299 44.75 49.3899 44.62 49.0499C44.48 48.7099 44.35 48.2699 44.26 48.2199C44.19 48.1799 43.89 48.2299 43.73 48.2399C43.57 48.2499 43.4 48.2699 43.21 48.3099C43.03 48.3399 42.85 48.3799 42.68 48.4299C42.51 48.4799 42.34 48.5299 42.16 48.5899C43.37 53.0699 43.97 55.3099 45.18 59.7899C45.35 59.7799 45.53 59.7499 45.74 59.7199C45.94 59.6799 46.13 59.6499 46.28 59.6099C46.44 59.5699 46.61 59.5199 46.8 59.4599C46.99 59.3999 47.16 59.3399 47.31 59.2699C46.76 56.9999 46.49 55.8599 45.93 53.5899C45.78 52.9599 45.71 52.3799 45.75 51.8699C45.79 51.3599 45.9 50.9299 46.09 50.5699C46.28 50.2099 46.54 49.9199 46.86 49.7099C47.18 49.4999 47.55 49.3599 47.96 49.3099C48.68 49.2099 49.25 49.3899 49.67 49.8299C50.09 50.2699 50.38 50.9599 50.55 51.9099C51.03 54.4999 51.27 55.7999 51.76 58.3899C51.93 58.3899 52.11 58.3799 52.31 58.3699C52.51 58.3499 52.69 58.3299 52.85 58.2999C53.01 58.2799 53.19 58.2399 53.38 58.1999C53.57 58.1599 53.75 58.1099 53.91 58.0599C53.52 55.6199 53.33 54.4099 52.94 51.9699C52.78 50.9599 52.91 50.1699 53.34 49.6199C53.77 49.0599 54.42 48.7599 55.26 48.7199C56.05 48.6799 56.65 48.8999 57.04 49.3599C57.43 49.8199 57.67 50.5199 57.77 51.4599C58.02 53.8999 58.15 55.1199 58.4 57.5599C58.56 57.5699 58.75 57.5799 58.95 57.5799C59.15 57.5799 59.33 57.5699 59.49 57.5599C59.65 57.5499 59.84 57.5299 60.04 57.5099C60.25 57.4799 60.43 57.4499 60.59 57.4199C60.39 54.7799 60.29 53.4599 60.09 50.8199C60.02 49.4799 59.62 48.4799 58.88 47.7999Z" fill="#F27B1F"/>
<path d="M73.44 49.1901C73.02 48.7301 72.5 48.3601 71.87 48.0701C71.24 47.7901 70.55 47.5901 69.81 47.5001C69.31 47.4401 68.85 47.4301 68.44 47.4701C68.03 47.5101 67.66 47.6001 67.34 47.7201C67.01 47.8401 66.74 47.9901 66.51 48.1701C66.28 48.3401 65.94 48.7301 65.92 48.7201C65.92 48.7201 65.91 48.5901 65.88 48.4401C65.85 48.3001 65.83 48.1501 65.8 47.9901C65.77 47.8301 65.75 47.6801 65.72 47.5501C65.69 47.4101 65.67 47.3101 65.65 47.3001C65.57 47.2401 65.31 47.2301 65.12 47.2001C64.94 47.1701 64.76 47.1501 64.59 47.1401C64.41 47.1301 64.23 47.1201 64.05 47.1201C63.88 47.1201 63.7 47.1301 63.54 47.1501C63.75 53.0701 63.85 56.0201 64.06 61.9401C64.21 61.9601 64.38 61.9701 64.57 61.9801C64.76 61.9901 64.93 61.9901 65.08 61.9801C65.23 61.9801 65.4 61.9601 65.59 61.9401C65.78 61.9201 65.95 61.9001 66.12 61.8701C66.11 60.0401 66.1 59.1301 66.08 57.3001C66.33 57.3701 66.63 57.4301 66.97 57.4801C67.31 57.5301 67.64 57.5601 67.97 57.5701C69.9 57.6501 71.41 57.3001 72.55 56.5101C73.69 55.7101 74.36 54.5501 74.51 52.9601C74.59 52.1601 74.53 51.4501 74.34 50.8201C74.16 50.2001 73.86 49.6501 73.44 49.1901ZM72.08 52.6901C72.04 53.3101 71.91 53.8301 71.69 54.2601C71.47 54.6901 71.19 55.0401 70.85 55.3101C70.51 55.5801 70.11 55.7701 69.65 55.8801C69.19 55.9901 68.7 56.0301 68.15 56.0001C67.67 55.9701 67.28 55.9401 66.98 55.8901C66.68 55.8401 66.38 55.7701 66.1 55.6701C66.09 54.0501 66.08 53.2501 66.07 51.6301C66.07 51.1401 66.15 50.7201 66.33 50.3801C66.51 50.0401 66.74 49.7601 67.03 49.5501C67.32 49.3401 67.66 49.2001 68.04 49.1201C68.42 49.0401 68.81 49.0301 69.22 49.0701C70.31 49.1901 71.09 49.6001 71.53 50.2501C71.96 50.8901 72.14 51.7101 72.08 52.6901Z" fill="#F27B1F"/>
<path d="M79.91 45.5801C79.72 45.5301 79.51 45.4801 79.28 45.4301C79.05 45.3801 78.84 45.3501 78.65 45.3301C77.96 50.5001 77.61 53.0801 76.91 58.2501C77.07 58.3001 77.25 58.3501 77.44 58.3901C77.64 58.4301 77.81 58.4701 77.98 58.5001C78.14 58.5301 78.33 58.5601 78.53 58.5801C78.74 58.6101 78.92 58.6201 79.09 58.6301C79.92 53.5801 80.34 51.0601 81.17 46.0101C80.99 45.9301 80.78 45.8501 80.54 45.7801C80.31 45.6901 80.1 45.6301 79.91 45.5801Z" fill="#F27B1F"/>
<path d="M87.12 51.7099C86.91 51.6299 86.68 51.5399 86.44 51.4599C86.22 51.3899 86 51.3199 85.79 51.2599C85.58 51.1999 85.37 51.1499 85.15 51.1099C83.22 52.2299 82.28 52.8499 80.47 54.1899C81.92 56.4199 82.59 57.5199 83.84 59.6699C84.04 59.7399 84.24 59.8099 84.44 59.8699C84.64 59.9299 84.84 59.9899 85.04 60.0499C85.24 60.0999 85.44 60.1499 85.63 60.1899C85.82 60.2299 86.02 60.2699 86.23 60.3099C85.04 58.1099 84.4 56.9899 83.02 54.6999C84.86 53.5099 85.81 52.9599 87.77 51.9799C87.55 51.8799 87.33 51.7899 87.12 51.7099Z" fill="#F27B1F"/>
<path d="M89.63 52.98C89.58 53.08 89.54 53.19 89.51 53.29C89.48 53.39 89.46 53.5 89.44 53.62C89.42 53.73 89.42 53.84 89.43 53.93C90.04 54.15 90.34 54.27 90.94 54.51C90.11 57.15 89.69 58.47 88.86 61.12C89.01 61.19 89.18 61.27 89.37 61.34C89.56 61.41 89.73 61.47 89.87 61.52C90.03 61.57 90.2 61.63 90.4 61.69C90.6 61.75 90.77 61.79 90.94 61.83C92 58.81 92.53 57.3 93.59 54.28C92.08 53.62 91.32 53.31 89.78 52.73C89.73 52.79 89.68 52.88 89.63 52.98Z" fill="#F27B1F"/>
<path d="M93.77 50.64C93.53 50.52 93.32 50.42 93.14 50.34C92.96 50.26 92.75 50.18 92.5 50.08C92.25 49.98 91.89 49.8 91.8 49.83C91.76 49.84 91.67 50.05 91.62 50.19C91.57 50.33 91.53 50.45 91.49 50.57C91.46 50.68 91.42 50.81 91.38 50.96C91.34 51.1 91.29 51.33 91.32 51.38C91.37 51.47 91.74 51.59 91.98 51.7C92.22 51.81 92.43 51.91 92.62 51.99C92.8 52.06 93 52.15 93.23 52.24C93.46 52.33 93.8 52.5 93.88 52.47C93.92 52.45 94.02 52.25 94.07 52.11C94.13 51.98 94.17 51.86 94.21 51.75C94.25 51.64 94.29 51.52 94.33 51.37C94.37 51.23 94.43 51.02 94.4 50.97C94.36 50.9 94.01 50.76 93.77 50.64Z" fill="#F27B1F"/>
<path d="M103.18 58.9702C102.72 58.7002 102.28 58.4902 101.85 58.3402C101.43 58.1902 101.04 58.1002 100.68 58.0502C100.32 58.0102 100 58.0002 99.7 58.0202C99.4 58.0502 98.93 58.1902 98.92 58.1802C98.92 58.1802 99.05 57.8302 99.11 57.5702C99.17 57.3202 99.25 57.0302 99.22 56.9602C99.18 56.8802 98.91 56.7602 98.77 56.6802C98.63 56.6002 98.48 56.5102 98.31 56.4302C98.14 56.3402 97.98 56.2702 97.81 56.1902C97.65 56.1202 97.48 56.0502 97.3 55.9902C96.12 58.8502 95.53 60.2702 94.35 63.1302C94.5 63.2102 94.67 63.3002 94.86 63.3902C95.05 63.4802 95.22 63.5602 95.38 63.6202C95.53 63.6802 95.71 63.7502 95.9 63.8302C96.09 63.9002 96.27 63.9602 96.43 64.0102C97.06 62.6202 97.38 61.9202 98.01 60.5302C98.2 60.1102 98.45 59.7902 98.76 59.5802C99.07 59.3702 99.4 59.2402 99.77 59.2002C100.14 59.1602 100.53 59.2002 100.94 59.3202C101.35 59.4402 101.76 59.6102 102.17 59.8402C102.87 60.2402 103.31 60.6802 103.48 61.1402C103.65 61.6002 103.57 62.1202 103.24 62.6902C102.43 64.1402 102.02 64.8602 101.21 66.3102C101.35 66.4002 101.51 66.5102 101.69 66.6102C101.87 66.7202 102.03 66.8102 102.18 66.8902C102.33 66.9702 102.5 67.0602 102.7 67.1602C102.89 67.2602 103.07 67.3402 103.23 67.4102C104.15 65.9002 104.62 65.1502 105.54 63.6402C106.01 62.8702 106.07 62.1102 105.7 61.3202C105.32 60.5502 104.48 59.7402 103.18 58.9702Z" fill="#F27B1F"/>
</svg>
