<svg width="265" height="188" viewBox="0 0 265 188" fill="none" xmlns="http://www.w3.org/2000/svg">
<path opacity="0.2" d="M111.25 158.36C94.54 158.36 44.86 156.73 32.81 157.26C20.76 157.79 10.04 160.84 17.44 161.7C17.44 161.7 66.87 167.59 85.31 167.59C103.75 167.59 164.61 169.07 165.88 161.7C167.15 154.32 127.96 158.36 111.25 158.36Z" fill="black"/>
<path opacity="0.2" d="M122.5 157.15C118.18 158.21 62.29 158.8 57.42 158.8C52.55 158.8 49.79 159.7 50.93 159.88C50.93 159.88 73.64 163.49 85.18 164.57C96.72 165.65 120.53 165.49 123.22 161.69C125.91 157.89 126.82 156.09 122.5 157.15Z" fill="black"/>
<path d="M83.58 0.900117C82.72 0.880117 81.85 0.870117 80.98 0.870117C36.26 0.880117 0 36.5601 0 81.2901C0 126.01 28.31 161.69 90.65 161.69C135.37 161.69 167.93 131.14 161.95 81.2901C156.71 37.5701 138.28 1.99012 83.58 0.900117Z" fill="#30661B"/>
<mask id="mask0_174_4923" style="mask-type:luminance" maskUnits="userSpaceOnUse" x="0" y="0" width="163" height="162">
<path d="M83.58 0.900117C82.72 0.880117 81.85 0.870117 80.98 0.870117C36.26 0.880117 0 36.5601 0 81.2901C0 126.01 28.31 161.69 90.65 161.69C135.37 161.69 167.93 131.14 161.95 81.2901C156.71 37.5701 138.28 1.99012 83.58 0.900117Z" fill="white"/>
</mask>
<g mask="url(#mask0_174_4923)">
<path d="M65.14 0.879929C69.17 -4.17007 59.38 -3.51007 61.11 10.5699C61.31 12.1699 61.96 13.7099 62.53 15.2399C65.84 24.0299 71.41 31.7299 61.11 34.2999C49 37.3199 42.66 48.0399 48.42 57.0899C54.18 66.1399 51.03 66.7099 46.27 75.9399C41.51 85.1599 40.66 97.8399 46.27 104.18C51.88 110.52 55.92 106.49 49 113.98C42.08 121.47 43.22 134.8 48.42 145.68C53.63 156.56 55.91 167.01 60.52 171.62C65.13 176.23 51.87 158.36 58.79 147.99C65.71 137.62 70.32 130.12 63.98 124.36C57.64 118.6 72.62 119.75 63.4 108.22C54.18 96.6899 36.31 97.1199 50.14 90.2799C63.97 83.4399 74.1 82.2899 67.02 77.0999C59.94 71.9099 47.83 62.4599 60.51 57.0999C73.19 51.7399 69.34 47.0999 69.34 47.0999C69.34 47.0999 87.72 49.4899 81.32 35.3399C74.94 21.1799 61.1 5.92993 65.14 0.879929Z" fill="#254C0F"/>
<path d="M34.43 10.5701C34.43 10.5701 30.96 9.47005 26.06 13.5501C21.16 17.6301 25.4 22.7001 22.79 28.6001C20.18 34.4901 22.79 31.2401 21.03 35.1301C19.27 39.0201 18.71 42.4001 18.44 45.6701C18.17 48.9401 13.81 51.3901 13.54 59.8201C13.27 68.2601 14.63 66.9001 8.64002 70.4401C2.65002 73.9801 9.46002 81.8701 14.36 87.8601C19.26 93.8501 12.73 91.9401 6.74002 95.4801C0.75002 99.0201 8.10002 103.37 15.72 109.09C23.34 114.81 12.18 117.26 14.09 125.15C16 133.04 21.17 146.93 21.17 144.48C21.17 142.03 17.09 135.77 20.35 131.14C23.62 126.51 19.26 124.33 19.26 120.8C19.26 117.26 21.71 117.81 26.75 109.91C31.79 102.02 11.91 97.1201 17.9 94.1201C23.89 91.1301 23.89 87.59 18.72 79.4201C13.55 71.2501 15.73 73.4301 24.71 68.8001C33.69 64.1701 22.53 62.2701 21.72 54.4901C20.9 46.7101 23.63 53.2901 27.16 47.1001C30.7 40.9101 24.98 38.8601 29.88 37.2301C34.78 35.6001 41.58 36.6901 34.44 28.6001C27.28 20.5201 34.43 10.5701 34.43 10.5701Z" fill="#254C0F"/>
<path d="M112.5 93.8502C104.72 88.6802 95.19 85.8802 103.08 81.2902C110.97 76.7002 119.19 69.3502 112.5 67.7202C105.81 66.0902 102.27 64.4502 107.44 59.2802C112.61 54.1102 117.29 50.3802 112.5 47.2102C107.71 44.0402 100.91 42.4302 106.08 35.3402C111.25 28.2502 113.97 25.2602 107.99 21.4502C102 17.6402 96.14 8.6602 98.8 7.30021C101.46 5.94021 97.5 1.84021 98.8 0.890205C100.1 -0.0497947 91.39 -5.78979 90.3 0.890205C90.3 0.890205 80.23 14.6502 92.75 20.3602C105.27 26.0702 100.37 29.0702 97.65 36.9602C94.93 44.8502 108.81 51.1502 103.64 53.9902C98.47 56.8302 91.99 54.9302 95.64 61.4602C99.29 67.9902 94.11 63.0902 94.39 70.1702C94.66 77.2502 88.67 75.1602 93.03 85.1902C97.38 95.2202 104.46 93.8502 100.11 98.4802C95.75 103.11 90.04 100.11 93.03 109.1C96.02 118.08 96.3 120.8 90.85 127.61C85.41 134.41 98.47 134.14 94.39 139.04C90.31 143.94 84.83 142.58 86.48 149.66C88.13 156.74 84.62 155.65 82.7 159.73C80.78 163.81 86.5 168.17 89.76 164.08C93.03 160 87.04 157.27 94.93 150.74C102.82 144.21 109.9 134.41 106.63 132.5C103.36 130.6 98.74 123.52 108.54 119.16C118.34 114.81 112.9 110.45 110.99 105.82C109.07 101.19 120.28 99.0202 112.5 93.8502Z" fill="#254C0F"/>
<path d="M142.55 46.2499C142.55 46.2499 146.98 41.9399 141.79 37.3299C136.6 32.7199 131.57 32.0199 135.76 27.7799C139.95 23.5399 138.02 16.0099 136.16 7.35994C134.3 -1.29006 126.28 -4.72006 127.41 10.2499C127.41 10.2499 118.1 23.2499 128.51 41.5299C138.92 59.8099 130.95 45.7299 128.3 54.4899C126.75 59.6299 132.97 61.4799 136.94 63.8399C137.35 63.3299 137.87 62.7499 138.5 62.1099C148.71 51.7299 142.55 46.2499 142.55 46.2499Z" fill="#254C0F"/>
<path d="M150.34 108.21C149.29 99.56 143.52 106.48 150.15 95.53C156.78 84.58 145.18 81.28 145.18 81.28C145.18 81.28 153.82 81.49 150.98 73.23C149.56 69.12 143.94 68.92 139.91 68.46C139.71 69.18 139.28 69.99 138.51 70.91C131.42 79.39 128.01 82.27 135.77 88.03C143.53 93.79 136.33 87.45 138.49 100.13C140.65 112.81 156.34 109.93 147.05 115.69C137.76 121.45 151.32 123.18 138.49 126.06C125.66 128.94 124.37 132.98 125.88 137.59C127.39 142.2 139.89 130.34 125.96 144.74C112.03 159.14 113 158.09 111.84 161.67C110.68 165.25 135.91 140.14 143.59 136.43C151.27 132.72 143.83 126.35 151.82 120.29C159.81 114.26 151.4 116.86 150.34 108.21Z" fill="#254C0F"/>
<path d="M136.94 63.8403C134.01 67.4903 136.34 68.0803 139.9 68.4803C140.46 66.4403 139.01 65.0703 136.94 63.8403Z" fill="#254C0F"/>
<path d="M53.41 13.7299C58.58 9.66992 50.23 3.89993 50.23 3.89993C47.87 1.86993 40.13 8.56992 44.3 9.52992C48.47 10.4999 48.98 10.4099 46.77 16.3099C44.56 22.2099 45.66 24.7999 41.23 28.5999C36.8 32.4099 41.97 34.3899 41.23 35.3299C40.49 36.2799 41.48 41.4299 37.52 47.0899C33.56 52.7499 37.52 53.1799 37.52 53.1799C37.52 53.1799 33.48 61.3099 39.02 64.2699C44.55 67.2199 37.91 70.9099 37.52 73.2399C37.13 75.5699 28.69 81.6099 29.06 83.4599C29.43 85.3099 37.55 84.9399 32.38 90.2699C27.21 95.6099 34.23 97.4799 29.8 101.9C25.37 106.33 33.12 108.17 31.28 113.34C29.44 118.51 30.54 121.46 27.59 129.57C24.64 137.69 26.85 135.47 31.28 142.11C35.71 148.75 33.86 153.18 36.77 153.18C39.68 153.18 38.66 155.76 39.93 151.02C41.2 146.28 37.55 145.8 39.4 137.69C41.24 129.57 34.6 134 37.53 125.88C40.46 117.76 35.34 118.87 37.55 112.23C39.76 105.59 37.55 112.23 37.53 103.01C37.51 93.7899 34.6 96.3699 41.3 86.7799C47.99 77.1899 34.97 79.0299 42.39 72.9199C49.8 66.8099 41.25 62.0599 44.2 52.8799C47.15 43.6999 34.98 43.9799 46.04 37.7099C57.11 31.4399 46.41 34.7599 50.47 29.5899C54.53 24.4299 50.47 29.5899 55.11 23.4799C59.73 17.3699 48.24 17.7799 53.41 13.7299Z" fill="#449332"/>
<path d="M95.1 21.5101C88.09 22.2201 89.04 10.5901 87.66 5.79014C86.28 0.990141 85.27 -5.05986 81.33 -2.30986C81.33 -2.30986 62.63 6.03014 71.12 10.2501C75.36 12.3601 79.09 14.0801 81.16 15.8701C83.24 17.6501 83.67 19.5001 81.33 21.8501C76.65 26.5501 94.73 22.0901 86.61 28.6101C78.49 35.1301 91.04 33.0001 86.98 40.7101C82.92 48.4201 85.02 49.6101 82.68 52.8901C80.34 56.1701 90.44 57.2801 81.33 59.8601C72.22 62.4401 68.91 57.2801 68.91 63.1801C68.91 69.0801 73.7 65.3901 72.59 71.3001C71.48 77.2001 78.86 76.5501 75.91 78.7201C72.96 80.8901 75.54 81.2601 73.7 86.8001C71.86 92.3301 76.28 90.4901 72.59 93.8101C68.9 97.1301 67.43 94.1801 68.91 98.2401C70.38 102.3 71.12 102.3 71.12 111.52C71.12 120.74 73.7 118.53 74.07 121.11C74.44 123.69 79.24 118.53 74.44 125.17C69.64 131.81 80.71 129.97 74.07 138.08C67.43 146.2 75.91 139.93 70.75 148.41C65.58 156.9 67.79 160.98 68.35 161.71C68.91 162.43 74.88 169.78 75.4 160.94C75.92 152.1 73.34 151.1 75.92 144.77C78.5 138.44 74.33 138.08 78.07 132.17C81.82 126.27 89.2 126.63 86.62 121.84C84.04 117.04 72.97 116.31 79.61 109.66C86.25 103.02 77.65 102.65 82.69 96.3801C87.73 90.1101 89.03 89.9101 88.74 81.7101C88.46 73.5101 76.42 72.7701 81.33 67.9701C86.24 63.1701 86.14 68.3401 88.77 60.9601C91.4 53.5801 85.4 53.9501 88.77 44.7301C92.14 35.5101 88.82 41.0101 92.14 32.9101C95.47 24.7901 102.12 20.8001 95.1 21.5101Z" fill="#449332"/>
<path d="M123.92 108.33C123.99 108.15 123.99 108.23 123.92 108.33V108.33Z" fill="#449332"/>
<path d="M139.38 113.34C131.63 107.07 130.7 107.07 129.69 103.01C128.68 98.9504 118.35 100.8 124.99 96.3704C131.63 91.9404 134.66 91.5704 132.04 88.2504C129.42 84.9304 130.52 83.2504 131.45 80.9804C132.38 78.7204 136.62 73.8204 132.04 73.2304C127.46 72.6404 129.79 62.0504 124.99 63.5204C120.19 65.0004 122.44 61.0304 121.32 60.8004C120.2 60.5704 127.21 51.2504 123.52 52.0404C119.83 52.8304 126.21 45.1404 121.32 44.3404C116.44 43.5404 124.66 42.1304 121.32 37.7004C117.98 33.2704 122.04 38.4604 119.46 31.9904C116.88 25.5204 115.77 18.5104 117.25 17.7704C118.73 17.0304 120.24 15.2404 121.33 10.4204C122.42 5.60037 116.42 -0.979629 115.3 5.23037C115.3 5.23037 111.5 21.1404 115.3 27.7604C119.1 34.3804 110.03 31.4304 115.3 39.1704C120.57 46.9204 112.2 39.5204 115.83 50.9704C119.46 62.4204 108.82 60.9404 117.09 66.4804C119.8 68.2904 122.41 69.6004 124.48 70.7404C128.73 73.0904 130.69 74.7504 126.47 78.7004C120.2 84.5604 121.85 80.5004 121.21 91.9404C120.57 103.38 122.04 105.59 123.15 107.8C123.57 108.64 123.83 108.47 123.93 108.32C123.99 108.14 123.99 108.23 123.93 108.32C123.83 108.61 123.57 109.56 123.15 112.23C122.04 119.24 130.34 119.24 121.21 124.77C112.08 130.3 112.9 135.1 113.6 138.05C114.3 141 109.13 133.99 109.13 142.11C109.13 150.23 115.77 149.05 109.13 153.88C102.49 158.71 102.12 157.59 101.38 162.03C100.64 166.46 108.94 164.99 111.8 157.61C114.66 150.23 109.65 151.08 115.29 144.75C120.93 138.42 112.79 133.18 123.15 130.31C133.5 127.44 138.35 125.14 133.52 122.93C128.68 120.72 147.12 119.62 139.38 113.34Z" fill="#449332"/>
</g>
<path opacity="0.3" d="M138.25 21.7002L137.16 28.6002C134.95 23.6902 158.45 80.1502 77.52 113.35C48.9 125.09 28.52 128.99 14.12 129.12C28.29 148.93 53.39 161.69 90.66 161.69C135.38 161.69 167.94 131.14 161.96 81.2902C159.12 57.6602 152.43 36.4102 138.25 21.7002Z" fill="#031E10"/>
<path opacity="0.3" d="M156.25 53.6499C156.4 76.1599 151.95 144.39 92.51 146.55C56.5 147.86 38.02 146.04 28.55 143.93C43.23 155.06 63.78 161.69 90.65 161.69C135.37 161.69 167.93 131.14 161.95 81.2899C160.79 71.5799 158.97 62.2699 156.25 53.6499Z" fill="#031E10"/>
<path opacity="0.3" d="M71.54 14.76C71.54 14.76 42.03 12.98 31.48 32.88C20.93 52.78 41.55 60.18 50.9 54.1C60.26 48 86.34 41.45 88.56 30.5C90.78 19.54 76.92 12.51 71.54 14.76Z" fill="white"/>
<path opacity="0.3" d="M64.08 21.9403C64.08 21.9403 48.3 20.9903 42.65 31.6303C37.01 42.2703 48.04 46.2303 53.04 42.9803C58.04 39.7203 71.99 36.2203 73.18 30.3603C74.37 24.5003 66.96 20.7303 64.08 21.9403Z" fill="white"/>
<path opacity="0.2" d="M189.03 179.75C182.23 179.75 122.33 180.35 116.74 179.81C111.14 179.28 101.89 178.85 108.38 183.19C108.38 183.19 134.37 186.2 161.53 186.74C188.69 187.27 219.94 188.47 230.43 182.44C235.87 179.32 195.83 179.75 189.03 179.75Z" fill="black"/>
<path opacity="0.2" d="M203.87 182.17C201.02 179.99 169.75 185.25 162.3 183.2C154.85 181.15 118.55 181.98 121 182.17H122.05C122.05 182.17 147.7 185.95 170.32 184.88C192.95 183.81 206.72 184.35 203.87 182.17Z" fill="black"/>
<path d="M204.06 119.68H88.9C88.9 119.68 82.46 183.88 162.5 183.88C242.53 183.88 241.86 119.68 241.86 119.68H204.06Z" fill="#27661B"/>
<path d="M105.48 165.04C104.62 164.14 99.69 156.98 94.49 149.34C96.96 154.68 100.48 160.12 105.48 165.04Z" fill="#1C4C0F"/>
<path d="M123.18 176.81C119.57 175.11 108.04 167.42 105.68 165.25C110.21 169.66 115.94 173.66 123.18 176.81Z" fill="#1C4C0F"/>
<path d="M238.52 119.68C237.51 128.33 231.8 164.68 206.86 172.07C178.51 180.47 173.56 180.47 161.69 179.77C149.82 179.07 160.56 180.18 153.25 181.52C145.94 182.85 135.94 177.32 132.03 176.97C128.35 176.64 127.05 178.35 123.8 177.07C133.68 181.25 146.32 183.88 162.49 183.88C242.52 183.88 241.85 119.68 241.85 119.68H238.52Z" fill="#1C4C0F"/>
<path d="M193.92 141.98C184.82 137.78 166.78 131.48 163.38 131.48C159.98 131.48 90.46 119.69 90.46 119.69C90.46 119.69 88.58 158.79 116.93 167.71C145.28 176.63 148.63 177 153.25 176.82C157.87 176.63 165.26 171.93 169.77 173.13C174.28 174.33 170.66 176.99 180.63 176.82C190.6 176.65 190.5 176.29 199.52 171.04C208.54 165.79 211.42 161.57 209.67 157.21C207.91 152.82 203.01 146.18 193.92 141.98Z" fill="#569332"/>
<path d="M204.77 119.68H94.17C94.17 119.68 83.17 174.75 163.21 174.75C243.24 174.75 236.87 119.68 236.87 119.68H204.77Z" fill="#CC2929"/>
<path opacity="0.3" d="M230.07 119.68C231.09 130.04 227.9 156.16 172.54 165.04C102.87 176.21 95.61 119.68 95.61 119.68H93.46C93.46 119.68 82.46 174.75 162.49 174.75C242.52 174.75 236.15 119.68 236.15 119.68H230.07Z" fill="#5E1313"/>
<g opacity="0.7">
<path d="M191.8 119.68C192.15 119.88 192.66 120.52 193.9 121.98C196.87 125.48 199.5 121.81 202.29 121.46C202.58 121.42 202.78 121.38 202.93 121.32C203.17 121.63 203.66 122.1 204.57 122.8C208.77 126.01 207.7 119.24 210.15 122.8C212.61 126.36 211.56 120.99 215.75 122.8C219.95 124.61 221.34 124.49 223.09 122.8C224.84 121.11 227.19 122.16 228.69 121.81C229.67 121.58 229.89 120.91 229.88 119.69H204.06H191.8V119.68Z" fill="white"/>
<path d="M102.81 124.78C104.73 122.68 106.13 117.44 108.93 121.28C111.73 125.13 117.32 124.26 118.37 122.42C119.42 120.58 121.77 121.64 125.49 122.42C129.21 123.2 129.56 119.68 131.48 119.68H97.04C97.04 119.68 100.89 126.88 102.81 124.78Z" fill="white"/>
<path d="M136.55 122.42C141.79 124.95 144.07 118.83 146.87 121.1C149.67 123.37 153.39 126.76 156.69 125.16C159.98 123.55 160.15 117.78 164.61 121.98C169.07 126.18 172.04 127.4 173.44 124.08C174.84 120.76 176.41 118.83 180.08 121.81C183.75 124.78 187.25 121.13 189.7 120.41C190.58 120.15 190.98 119.83 191.28 119.69H131.48C133.41 119.68 131.31 119.89 136.55 122.42Z" fill="white"/>
</g>
<path d="M140.26 135.88C136.8 133.51 135.7 137.03 135.7 137.03C134.89 142.07 140.58 143.31 140.58 143.31C140.58 143.31 143.72 138.24 140.26 135.88Z" fill="white"/>
<path d="M137.72 136.03C137.07 136.27 136.69 136.83 136.86 137.28C137.03 137.73 137.69 137.9 138.33 137.66C138.98 137.42 139.36 136.86 139.19 136.41C139.03 135.96 138.37 135.79 137.72 136.03Z" fill="white"/>
<path d="M188.36 136.08C184.41 139.31 187.85 144.02 187.85 144.02C187.85 144.02 193.56 142.32 192.54 138.25C191.52 134.18 188.36 136.08 188.36 136.08Z" fill="white"/>
<path d="M190.54 136.67C189.9 136.42 189.24 136.59 189.06 137.04C188.89 137.49 189.27 138.05 189.91 138.3C190.55 138.55 191.21 138.38 191.39 137.93C191.57 137.48 191.19 136.92 190.54 136.67Z" fill="white"/>
<path d="M155.33 139.53C156.25 143.62 159.45 141.8 159.45 141.8C163.48 138.67 160.16 133.88 160.16 133.88C160.16 133.88 154.41 135.44 155.33 139.53Z" fill="white"/>
<path d="M157.95 139.54C157.31 139.28 156.65 139.42 156.47 139.87C156.29 140.32 156.65 140.89 157.29 141.15C157.93 141.41 158.59 141.27 158.77 140.82C158.95 140.37 158.59 139.8 157.95 139.54Z" fill="white"/>
<path d="M172.72 133.33C172.72 133.33 169.87 138.56 173.46 140.73C177.05 142.9 177.95 139.33 177.95 139.33C178.48 134.24 172.72 133.33 172.72 133.33Z" fill="white"/>
<path d="M175.28 138.84C174.65 139.12 174.3 139.7 174.49 140.14C174.68 140.58 175.35 140.71 175.98 140.43C176.61 140.15 176.96 139.57 176.77 139.13C176.58 138.7 175.91 138.56 175.28 138.84Z" fill="white"/>
<path d="M148.37 150.24C146.3 153.88 149.89 154.69 149.89 154.69C154.98 155.08 155.74 149.31 155.74 149.31C155.74 149.31 150.44 146.6 148.37 150.24Z" fill="white"/>
<path d="M148.98 151.26C148.55 151.47 148.43 152.14 148.72 152.76C149.01 153.38 149.6 153.72 150.04 153.51C150.48 153.3 150.59 152.63 150.3 152.01C150.01 151.39 149.42 151.05 148.98 151.26Z" fill="white"/>
<path d="M168.44 153.72C169.34 157.81 172.55 156.01 172.55 156.01C176.6 152.89 173.29 148.09 173.29 148.09C173.29 148.09 167.54 149.63 168.44 153.72Z" fill="white"/>
<path d="M171.06 153.74C170.43 153.47 169.76 153.62 169.57 154.06C169.39 154.5 169.75 155.08 170.38 155.34C171.01 155.6 171.68 155.46 171.86 155.02C172.06 154.59 171.7 154.01 171.06 153.74Z" fill="white"/>
<path d="M140.26 134.6C136.8 132.24 135.7 135.75 135.7 135.75C134.89 140.79 140.58 142.03 140.58 142.03C140.58 142.03 143.72 136.97 140.26 134.6Z" fill="#492222"/>
<path d="M137.72 134.75C137.07 134.99 136.69 135.55 136.86 136C137.03 136.45 137.69 136.62 138.33 136.38C138.98 136.14 139.36 135.58 139.19 135.13C139.03 134.68 138.37 134.51 137.72 134.75Z" fill="#562B2B"/>
<path d="M188.36 134.8C184.41 138.03 187.85 142.74 187.85 142.74C187.85 142.74 193.56 141.04 192.54 136.97C191.52 132.9 188.36 134.8 188.36 134.8Z" fill="#492222"/>
<path d="M190.54 135.401C189.9 135.151 189.24 135.321 189.06 135.761C188.89 136.211 189.27 136.771 189.91 137.021C190.55 137.271 191.21 137.101 191.39 136.651C191.57 136.211 191.19 135.651 190.54 135.401Z" fill="#562B2B"/>
<path d="M155.33 138.25C156.25 142.34 159.45 140.52 159.45 140.52C163.48 137.39 160.16 132.6 160.16 132.6C160.16 132.6 154.41 134.16 155.33 138.25Z" fill="#492222"/>
<path d="M157.95 138.26C157.31 138 156.65 138.14 156.47 138.59C156.29 139.04 156.65 139.61 157.29 139.87C157.93 140.13 158.59 139.99 158.77 139.54C158.95 139.1 158.59 138.52 157.95 138.26Z" fill="#562B2B"/>
<path d="M172.72 132.06C172.72 132.06 169.87 137.29 173.46 139.46C177.05 141.62 177.95 138.05 177.95 138.05C178.48 132.97 172.72 132.06 172.72 132.06Z" fill="#492222"/>
<path d="M175.28 137.57C174.65 137.85 174.3 138.43 174.49 138.87C174.68 139.31 175.35 139.44 175.98 139.16C176.61 138.88 176.96 138.3 176.77 137.86C176.58 137.42 175.91 137.29 175.28 137.57Z" fill="#562B2B"/>
<path d="M148.37 148.97C146.3 152.61 149.89 153.42 149.89 153.42C154.98 153.81 155.74 148.04 155.74 148.04C155.74 148.04 150.44 145.33 148.37 148.97Z" fill="#492222"/>
<path d="M148.98 149.98C148.55 150.19 148.43 150.86 148.72 151.48C149.01 152.1 149.6 152.44 150.04 152.23C150.48 152.02 150.59 151.35 150.3 150.73C150.01 150.12 149.42 149.78 148.98 149.98Z" fill="#562B2B"/>
<path d="M168.44 152.45C169.34 156.54 172.55 154.74 172.55 154.74C176.6 151.62 173.29 146.82 173.29 146.82C173.29 146.82 167.54 148.35 168.44 152.45Z" fill="#492222"/>
<path d="M171.06 152.47C170.43 152.2 169.76 152.35 169.57 152.79C169.39 153.23 169.75 153.81 170.38 154.07C171.01 154.33 171.68 154.19 171.86 153.75C172.06 153.31 171.7 152.74 171.06 152.47Z" fill="#562B2B"/>
<path opacity="0.2" d="M155.62 51.6997C143.67 75.1997 115.87 69.0597 115.87 69.0597C116.18 72.7397 162.55 88.1797 161.45 77.2697C160.35 66.3597 155.62 51.6997 155.62 51.6997Z" fill="black"/>
<path d="M259.09 72.8699L259.78 68.5899L263.93 67.2099L262.09 63.2899L258.4 64.2799L255.9 60.9899L260.7 57.9899L257.01 55.4499L254.24 57.5199L251.94 53.3199L257.01 50.8399L254.7 46.6899C250.32 47.3799 212.81 59.9499 212.81 59.9499L213.21 61.2399L225.21 87.1499L264.84 75.9799L263.92 70.6699L259.09 72.8699Z" fill="white"/>
<mask id="mask1_174_4923" style="mask-type:luminance" maskUnits="userSpaceOnUse" x="212" y="46" width="53" height="42">
<path d="M212.82 59.9499C212.82 59.9499 250.33 47.3799 254.71 46.6899L257.02 50.8399L251.95 53.3199L254.25 57.5199L257.02 55.4499L260.71 57.9899L255.91 60.9899L258.41 64.2799L262.1 63.2899L263.94 67.2099L259.79 68.5899L259.1 72.8699L263.94 70.6599L264.86 75.9699L225.23 87.1399L213.23 61.2299L212.82 59.9499Z" fill="white"/>
</mask>
<g mask="url(#mask1_174_4923)">
<path opacity="0.01" d="M210.87 55.6096L216.69 73.3996L222.51 91.1896C222.56 91.1796 225.65 92.1896 230.31 89.1196C235.05 85.9996 235.47 77.7896 234.34 69.2696C233.22 60.7796 230.56 51.9796 229.09 47.5796C225.75 49.4396 222.16 51.3396 218.95 52.8096C215.69 54.3596 212.78 55.4596 210.87 55.6096Z" fill="black"/>
<path opacity="0.01" d="M210.87 55.6098L216.69 73.3998L222.51 91.1898C222.61 91.1798 225.68 92.1498 230.28 89.1198C235.01 85.9998 235.43 77.8398 234.29 69.3498C233.17 60.9498 230.53 52.2298 229.05 47.8398C225.73 49.5898 222.18 51.3798 219 52.7798C215.72 54.3398 212.79 55.4498 210.87 55.6098Z" fill="black"/>
<path opacity="0.0118" d="M210.87 55.6099L216.69 73.3999L222.51 91.1899C222.66 91.1699 225.71 92.0999 230.25 89.1199C234.98 85.9999 235.39 77.8799 234.24 69.4399C233.12 61.1199 230.49 52.4899 229 48.1099C225.71 49.7399 222.19 51.4299 219.05 52.7599C215.75 54.3299 212.8 55.4499 210.87 55.6099Z" fill="black"/>
<path opacity="0.0157" d="M210.87 55.6096L216.69 73.3996L222.51 91.1896C222.72 91.1596 225.74 92.0596 230.21 89.1196C234.93 85.9996 235.34 77.9196 234.18 69.5196C233.06 61.2896 230.45 52.7396 228.95 48.3696C225.69 49.8896 222.2 51.4696 219.1 52.7296C215.78 54.3196 212.81 55.4496 210.87 55.6096Z" fill="black"/>
<path opacity="0.0196" d="M210.87 55.6099L216.69 73.3999L222.51 91.1899C222.77 91.1599 225.77 92.0199 230.18 89.1099C234.9 85.9899 235.3 77.9599 234.13 69.5999C233.01 61.4499 230.41 52.9899 228.9 48.6299C225.67 50.0299 222.21 51.5099 219.15 52.6999C215.81 54.3099 212.82 55.4499 210.87 55.6099Z" fill="black"/>
<path opacity="0.0235" d="M210.87 55.6097L216.69 73.3997L222.51 91.1897C222.82 91.1497 225.8 91.9797 230.15 89.1097C234.86 85.9797 235.26 77.9997 234.08 69.6897C232.96 61.6197 230.38 53.2497 228.86 48.9097C225.65 50.1997 222.23 51.5697 219.2 52.6897C215.84 54.2997 212.83 55.4497 210.87 55.6097Z" fill="black"/>
<path opacity="0.0275" d="M210.87 55.6099L216.69 73.3999L222.51 91.1899C222.87 91.1399 225.83 91.9399 230.12 89.1099C234.83 85.9799 235.22 78.0399 234.02 69.7699C232.9 61.7899 230.33 53.4999 228.8 49.1699C225.62 50.3399 222.22 51.6099 219.24 52.6599C215.87 54.2799 212.84 55.4499 210.87 55.6099Z" fill="black"/>
<path opacity="0.0314" d="M210.87 55.6099L216.69 73.3999L222.51 91.1899C222.92 91.1399 225.87 91.8999 230.08 89.1099C234.78 85.9799 235.15 78.0899 233.96 69.8599C232.82 61.9599 230.29 53.7599 228.75 49.4399C225.6 50.4999 222.23 51.6599 219.29 52.6399C215.9 54.2699 212.85 55.4499 210.87 55.6099Z" fill="black"/>
<path opacity="0.0353" d="M210.87 55.6097L216.69 73.3997L222.51 91.1897C222.97 91.1297 225.9 91.8497 230.05 89.1097C234.75 85.9797 235.11 78.1297 233.91 69.9397C232.77 62.1297 230.25 54.0197 228.7 49.6997C225.58 50.6397 222.24 51.6997 219.34 52.6097C215.93 54.2597 212.86 55.4497 210.87 55.6097Z" fill="black"/>
<path opacity="0.0392" d="M210.87 55.61L216.69 73.4L222.51 91.19C223.03 91.13 225.93 91.82 230.02 89.1C234.72 85.98 235.06 78.17 233.86 70.02C232.72 62.29 230.22 54.27 228.66 49.96C225.56 50.79 222.26 51.74 219.4 52.58C215.96 54.25 212.87 55.45 210.87 55.61Z" fill="black"/>
<path opacity="0.0431" d="M210.87 55.61L216.69 73.4L222.51 91.19C223.08 91.12 225.96 91.78 229.99 89.1C234.68 85.98 235.02 78.21 233.81 70.11C232.67 62.47 230.19 54.53 228.62 50.23C225.55 50.94 222.28 51.79 219.45 52.56C215.99 54.24 212.88 55.45 210.87 55.61Z" fill="black"/>
<path opacity="0.0471" d="M210.87 55.6097L216.69 73.3997L222.51 91.1897C223.13 91.1097 225.99 91.7397 229.95 89.0997C234.64 85.9797 234.97 78.2497 233.75 70.1897C232.61 62.6297 230.14 54.7797 228.56 50.4897C225.52 51.0897 222.28 51.8297 219.49 52.5297C216.02 54.2197 212.89 55.4497 210.87 55.6097Z" fill="black"/>
<path opacity="0.051" d="M210.87 55.61L216.69 73.4L222.51 91.19C223.18 91.11 226.02 91.7 229.92 89.1C234.6 85.98 234.92 78.3 233.7 70.28C232.56 62.81 230.11 55.04 228.52 50.77C225.51 51.25 222.3 51.89 219.55 52.52C216.05 54.21 212.9 55.45 210.87 55.61Z" fill="black"/>
<path opacity="0.0549" d="M210.87 55.61L216.69 73.4L222.51 91.19C223.23 91.1 226.05 91.66 229.89 89.1C234.57 85.98 234.88 78.34 233.65 70.37C232.51 62.98 230.07 55.3 228.47 51.04C225.49 51.41 222.31 51.94 219.6 52.5C216.08 54.2 212.91 55.45 210.87 55.61Z" fill="black"/>
<path opacity="0.0588" d="M210.87 55.61L216.69 73.4L222.51 91.19C223.28 91.09 226.08 91.61 229.86 89.09C234.53 85.97 234.84 78.37 233.59 70.44C232.44 63.14 230.03 55.54 228.42 51.29C225.46 51.54 222.32 51.97 219.65 52.46C216.11 54.19 212.92 55.44 210.87 55.61Z" fill="black"/>
<path opacity="0.0627" d="M210.87 55.6101L216.69 73.4001L222.51 91.1901C223.33 91.0901 226.12 91.5701 229.82 89.0901C234.49 85.9701 234.79 78.4201 233.53 70.5301C232.38 63.3101 229.98 55.8101 228.36 51.5601C225.43 51.7001 222.32 52.0201 219.68 52.4401C216.14 54.1801 212.93 55.4401 210.87 55.6101Z" fill="black"/>
<path opacity="0.0667" d="M210.87 55.6098L216.69 73.3998L222.51 91.1898C223.39 91.0798 226.15 91.5298 229.79 89.0898C234.45 85.9698 234.74 78.4598 233.48 70.6098C232.33 63.4698 229.95 56.0598 228.32 51.8198C225.42 51.8398 222.34 52.0598 219.74 52.4098C216.17 54.1598 212.94 55.4398 210.87 55.6098Z" fill="black"/>
<path opacity="0.0706" d="M210.87 55.6098L216.69 73.3998L222.51 91.1898C223.44 91.0698 226.18 91.4898 229.76 89.0898C234.42 85.9698 234.7 78.4998 233.43 70.6998C232.28 63.6498 229.91 56.3198 228.27 52.0898C225.4 51.9998 222.35 52.1098 219.79 52.3898C216.2 54.1498 212.94 55.4398 210.87 55.6098Z" fill="black"/>
<path opacity="0.0745" d="M210.87 55.6096L216.69 73.3996L222.51 91.1896C223.49 91.0696 226.21 91.4496 229.73 89.0896C234.38 85.9696 234.66 78.5496 233.38 70.7896C232.23 63.8196 229.88 56.5796 228.23 52.3596C225.38 52.1496 222.37 52.1596 219.85 52.3696C216.23 54.1396 212.95 55.4396 210.87 55.6096Z" fill="black"/>
<path opacity="0.0784" d="M210.87 55.6096L216.69 73.3996L222.51 91.1896C223.54 91.0596 226.24 91.4096 229.69 89.0796C234.34 85.9596 234.61 78.5796 233.32 70.8596C232.17 63.9796 229.83 56.8196 228.17 52.6196C225.35 52.2996 222.37 52.1996 219.88 52.3396C216.25 54.1296 212.96 55.4396 210.87 55.6096Z" fill="black"/>
<path opacity="0.0824" d="M210.87 55.6098L216.69 73.3998L222.51 91.1898C223.59 91.0498 226.27 91.3698 229.66 89.0798C234.3 85.9598 234.57 78.6198 233.27 70.9498C232.12 64.1498 229.8 57.0798 228.13 52.8898C225.34 52.4498 222.38 52.2498 219.94 52.3198C216.28 54.1198 212.97 55.4398 210.87 55.6098Z" fill="black"/>
<path opacity="0.0863" d="M210.87 55.61L216.69 73.4L222.51 91.19C223.64 91.05 226.3 91.32 229.63 89.08C234.27 85.96 234.52 78.67 233.22 71.03C232.07 64.32 229.76 57.33 228.08 53.15C225.32 52.6 222.39 52.29 219.99 52.29C216.31 54.1 212.98 55.44 210.87 55.61Z" fill="black"/>
<path opacity="0.0902" d="M210.87 55.61L216.69 73.4L222.51 91.19C223.7 91.04 226.33 91.28 229.6 89.08C234.23 85.96 234.48 78.71 233.16 71.12C232.01 64.49 229.72 57.59 228.03 53.42C225.29 52.75 222.4 52.34 220.04 52.27C216.34 54.09 212.99 55.44 210.87 55.61Z" fill="black"/>
<path opacity="0.0941" d="M210.87 55.61L216.69 73.4L222.51 91.19C223.75 91.03 226.36 91.24 229.56 89.08C234.19 85.95 234.43 78.75 233.1 71.21C231.95 64.67 229.67 57.86 227.98 53.69C225.27 52.9 222.41 52.4 220.09 52.25C216.37 54.08 213 55.44 210.87 55.61Z" fill="black"/>
<path opacity="0.098" d="M210.87 55.61L216.69 73.4L222.51 91.19C223.8 91.03 226.39 91.2 229.53 89.07C234.15 85.94 234.39 78.79 233.05 71.28C231.9 64.82 229.64 58.1 227.93 53.94C225.25 53.04 222.42 52.43 220.13 52.21C216.4 54.07 213.01 55.44 210.87 55.61Z" fill="black"/>
<path opacity="0.102" d="M210.87 55.6099L216.69 73.3999L222.51 91.1899C223.85 91.0199 226.42 91.1599 229.5 89.0699C234.12 85.9399 234.35 78.8299 233 71.3699C231.85 64.9899 229.6 58.3599 227.89 54.2099C225.24 53.1899 222.44 52.4799 220.19 52.1899C216.43 54.0599 213.02 55.4399 210.87 55.6099Z" fill="black"/>
<path opacity="0.1059" d="M210.87 55.6097L216.69 73.3997L222.51 91.1897C223.9 91.0097 226.45 91.1197 229.47 89.0697C234.08 85.9397 234.31 78.8797 232.95 71.4597C231.8 65.1697 229.57 58.6197 227.84 54.4897C225.22 53.3597 222.45 52.5397 220.24 52.1797C216.46 54.0497 213.03 55.4397 210.87 55.6097Z" fill="black"/>
<path opacity="0.1098" d="M210.87 55.6099L216.69 73.3999L222.51 91.1899C223.95 91.0099 226.48 91.0699 229.43 89.0699C234.04 85.9399 234.26 78.9199 232.89 71.5399C231.74 65.3299 229.52 58.8699 227.79 54.7499C225.19 53.4999 222.46 52.5799 220.29 52.1499C216.49 54.0299 213.04 55.4399 210.87 55.6099Z" fill="black"/>
<path opacity="0.1137" d="M210.87 55.6099L216.69 73.3999L222.51 91.1899C224 90.9999 226.51 91.0299 229.4 89.0699C234 85.9399 234.21 78.9599 232.84 71.6299C231.69 65.5099 229.49 59.1299 227.74 55.0199C225.17 53.6599 222.47 52.6299 220.33 52.1299C216.52 54.0199 213.05 55.4299 210.87 55.6099Z" fill="black"/>
<path opacity="0.1176" d="M210.87 55.6098L216.69 73.3998L222.51 91.1898C224.06 90.9898 226.54 90.9898 229.37 89.0598C233.97 85.9298 234.17 78.9998 232.79 71.6998C231.64 65.6598 229.45 59.3698 227.7 55.2698C225.16 53.7898 222.49 52.6598 220.39 52.0898C216.55 54.0098 213.06 55.4298 210.87 55.6098Z" fill="black"/>
<path opacity="0.1216" d="M210.87 55.6098L216.69 73.3998L222.51 91.1898C224.11 90.9898 226.57 90.9498 229.34 89.0598C233.93 85.9298 234.13 79.0398 232.73 71.7898C231.58 65.8398 229.41 59.6398 227.64 55.5398C225.13 53.9498 222.49 52.7098 220.43 52.0698C216.58 53.9998 213.07 55.4298 210.87 55.6098Z" fill="black"/>
<path opacity="0.1255" d="M210.87 55.6098L216.69 73.3998L222.51 91.1898C224.16 90.9798 226.6 90.9098 229.31 89.0598C233.9 85.9298 234.09 79.0798 232.68 71.8798C231.53 66.0098 229.37 59.8998 227.6 55.8098C225.11 54.0998 222.51 52.7598 220.49 52.0498C216.61 53.9898 213.08 55.4298 210.87 55.6098Z" fill="black"/>
<path opacity="0.1294" d="M210.87 55.61L216.69 73.4L222.51 91.19C224.21 90.98 226.63 90.87 229.27 89.06C233.85 85.93 234.04 79.12 232.62 71.96C231.47 66.17 229.33 60.15 227.54 56.07C225.08 54.25 222.51 52.8 220.52 52.02C216.64 53.97 213.09 55.43 210.87 55.61Z" fill="black"/>
<path opacity="0.1333" d="M210.87 55.6098L216.69 73.3998L222.51 91.1898C224.26 90.9698 226.66 90.8198 229.24 89.0598C233.82 85.9198 234 79.1698 232.57 72.0498C231.42 66.3498 229.29 60.4098 227.5 56.3498C225.07 54.4098 222.53 52.8598 220.58 52.0098C216.67 53.9598 213.1 55.4298 210.87 55.6098Z" fill="black"/>
<path opacity="0.1373" d="M210.87 55.6097L216.69 73.3997L222.51 91.1897C224.31 90.9597 226.69 90.7797 229.21 89.0497C233.78 85.9097 233.96 79.1997 232.52 72.1197C231.38 66.4997 229.26 60.6497 227.45 56.5997C225.05 54.5497 222.54 52.8897 220.63 51.9697C216.7 53.9497 213.1 55.4297 210.87 55.6097Z" fill="black"/>
<path opacity="0.1412" d="M210.87 55.6097L216.69 73.3997L222.51 91.1897C224.37 90.9597 226.72 90.7397 229.18 89.0497C233.75 85.9097 233.92 79.2397 232.47 72.2097C231.33 66.6797 229.22 60.9097 227.41 56.8697C225.03 54.6997 222.56 52.9397 220.69 51.9497C216.73 53.9397 213.11 55.4297 210.87 55.6097Z" fill="black"/>
<path opacity="0.1451" d="M210.87 55.6097L216.69 73.3997L222.51 91.1897C224.42 90.9497 226.75 90.6997 229.14 89.0497C233.7 85.9097 233.87 79.2897 232.41 72.2997C231.27 66.8497 229.18 61.1697 227.36 57.1397C225.01 54.8597 222.56 52.9897 220.74 51.9297C216.76 53.9297 213.12 55.4297 210.87 55.6097Z" fill="black"/>
<path opacity="0.149" d="M210.87 55.6099L216.69 73.3999L222.51 91.1899C224.47 90.9399 226.78 90.6499 229.11 89.0499C233.67 85.9099 233.83 79.3299 232.36 72.3799C231.22 67.0099 229.14 61.4199 227.31 57.3999C224.99 54.9999 222.57 53.0299 220.78 51.8999C216.79 53.9099 213.13 55.4299 210.87 55.6099Z" fill="black"/>
<path opacity="0.1529" d="M210.87 55.6096L216.69 73.3996L222.51 91.1896C224.52 90.9396 226.81 90.6096 229.08 89.0396C233.63 85.8996 233.79 79.3596 232.3 72.4596C231.16 67.1796 229.1 61.6796 227.26 57.6596C224.97 55.1496 222.58 53.0696 220.83 51.8696C216.82 53.8996 213.14 55.4296 210.87 55.6096Z" fill="black"/>
<path opacity="0.1569" d="M210.87 55.6096L216.69 73.3996L222.51 91.1896C224.57 90.9296 226.84 90.5696 229.05 89.0396C233.59 85.8996 233.75 79.4096 232.25 72.5496C231.11 67.3496 229.06 61.9396 227.21 57.9296C224.95 55.2996 222.59 53.1196 220.88 51.8496C216.85 53.8896 213.15 55.4296 210.87 55.6096Z" fill="black"/>
<path opacity="0.1608" d="M210.87 55.6096L216.69 73.3996L222.51 91.1896C224.62 90.9196 226.87 90.5296 229.01 89.0396C233.55 85.8896 233.7 79.4496 232.19 72.6296C231.06 67.5196 229.02 62.1896 227.16 58.1996C224.92 55.4596 222.6 53.1696 220.93 51.8296C216.88 53.8796 213.16 55.4296 210.87 55.6096Z" fill="black"/>
<path opacity="0.1647" d="M210.87 55.6101L216.69 73.4001L222.51 91.1901C224.68 90.9201 226.9 90.4901 228.98 89.0401C233.51 85.8901 233.67 79.4901 232.14 72.7201C231.01 67.6901 228.98 62.4501 227.11 58.4701C224.9 55.6101 222.61 53.2201 220.98 51.8101C216.91 53.8701 213.17 55.4301 210.87 55.6101Z" fill="black"/>
<path opacity="0.1686" d="M210.87 55.6098L216.69 73.3998L222.51 91.1898C224.73 90.9098 226.93 90.4398 228.95 89.0398C233.48 85.8898 233.63 79.5298 232.09 72.7998C230.96 67.8498 228.95 62.6998 227.07 58.7298C224.89 55.7598 222.63 53.2598 221.03 51.7798C216.94 53.8498 213.18 55.4198 210.87 55.6098Z" fill="black"/>
<path opacity="0.1725" d="M210.87 55.61L216.69 73.4L222.51 91.19C224.78 90.9 226.96 90.4 228.92 89.03C233.44 85.88 233.59 79.57 232.04 72.88C230.91 68.02 228.91 62.95 227.02 58.99C224.87 55.9 222.64 53.3 221.08 51.75C216.97 53.84 213.19 55.42 210.87 55.61Z" fill="black"/>
<path opacity="0.1765" d="M210.87 55.61L216.69 73.4L222.51 91.19C224.83 90.9 226.99 90.36 228.88 89.03C233.39 85.87 233.54 79.61 231.98 72.97C230.86 68.19 228.87 63.21 226.97 59.26C224.84 56.06 222.65 53.35 221.13 51.73C217 53.83 213.2 55.42 210.87 55.61Z" fill="black"/>
<path opacity="0.1804" d="M210.87 55.6097L216.69 73.3997L222.51 91.1897C224.88 90.8897 227.02 90.3197 228.85 89.0297C233.36 85.8697 233.5 79.6497 231.93 73.0497C230.81 68.3597 228.83 63.4697 226.92 59.5197C224.82 56.1997 222.66 53.3897 221.18 51.6997C217.03 53.8197 213.21 55.4197 210.87 55.6097Z" fill="black"/>
<path opacity="0.1843" d="M210.87 55.6097L216.69 73.3997L222.51 91.1897C224.93 90.8797 227.05 90.2697 228.82 89.0297C233.32 85.8697 233.47 79.6897 231.87 73.1397C230.75 68.5297 228.79 63.7297 226.87 59.7897C224.8 56.3597 222.67 53.4397 221.22 51.6797C217.06 53.8097 213.22 55.4197 210.87 55.6097Z" fill="black"/>
<path opacity="0.1882" d="M210.87 55.6097L216.69 73.3997L222.51 91.1897C224.98 90.8797 227.07 90.2297 228.79 89.0297C233.28 85.8597 233.43 79.7397 231.82 73.2197C230.7 68.6897 228.75 63.9797 226.82 60.0597C224.78 56.5097 222.68 53.4897 221.27 51.6597C217.09 53.7897 213.23 55.4197 210.87 55.6097Z" fill="black"/>
<path opacity="0.1922" d="M210.87 55.6099L216.69 73.3999L222.51 91.1899C225.04 90.8699 227.1 90.1899 228.75 89.0199C233.23 85.8499 233.39 79.7699 231.76 73.2999C230.65 68.8499 228.71 64.2299 226.77 60.3199C224.75 56.6599 222.69 53.5299 221.32 51.6299C217.12 53.7799 213.24 55.4199 210.87 55.6099Z" fill="black"/>
<path opacity="0.1961" d="M210.87 55.6099L216.69 73.3999L222.51 91.1899C225.09 90.8599 227.13 90.1399 228.72 89.0199C233.2 85.8499 233.35 79.8099 231.71 73.3899C230.6 69.0299 228.67 64.4899 226.73 60.5899C224.74 56.8099 222.71 53.5799 221.38 51.6099C217.15 53.7699 213.25 55.4199 210.87 55.6099Z" fill="black"/>
<path opacity="0.2" d="M210.87 55.6096L216.69 73.3996L222.51 91.1896C232.85 89.8896 233.87 82.0296 231.66 73.4696C230.55 69.1896 228.64 64.7396 226.68 60.8496C224.72 56.9596 222.72 53.6196 221.43 51.5796C217.18 53.7596 213.26 55.4196 210.87 55.6096Z" fill="black"/>
</g>
<path d="M251.94 52.5597L252.27 53.1597L257.01 50.8397L256.68 50.2397L251.94 52.5597Z" fill="#D0D2D3"/>
<path d="M255.9 60.2096L256.29 60.7296L260.7 57.9796L260.12 57.5796L255.9 60.2096Z" fill="#D0D2D3"/>
<path d="M225.22 86.3799L213.22 60.4699L213.04 59.8799C212.9 59.9299 212.82 59.9499 212.82 59.9499L213.22 61.2399L225.22 87.1499L264.85 75.9799L264.72 75.2499L225.22 86.3799Z" fill="#D0D2D3"/>
<path d="M259.78 67.8195L259.09 72.1096L259.22 72.0396L259.78 68.5895L263.93 67.1995L263.62 66.5396L259.78 67.8195Z" fill="#D0D2D3"/>
<path d="M215.5 68.5897L229.38 62.2697L212.82 59.9497L215.5 68.5897Z" fill="#929497"/>
<path d="M229.38 62.27C229.38 62.27 165.9 90.95 115.87 69.06L108.07 88.71C108.07 88.71 174.78 124.69 241.49 90.48L229.38 62.27Z" fill="white"/>
<path d="M241.23 89.8598C176.93 122.66 112.71 90.3698 108.31 88.0898L108.07 88.6998C108.07 88.6998 174.78 124.68 241.49 90.4698L241.23 89.8598Z" fill="#D0D2D3"/>
<path d="M133.1 80.5401C132.94 80.5101 132.78 80.4801 132.62 80.4601C132.45 80.4401 132.3 80.4201 132.14 80.4101C130.11 82.9001 127.97 85.3101 125.74 87.6301C126 84.8101 126.35 82.0001 126.81 79.2101C126.68 79.1601 126.52 79.1101 126.33 79.0501C126.14 78.9901 125.97 78.9501 125.81 78.9101C125.64 78.8701 125.46 78.8301 125.27 78.7901C125.08 78.7501 124.9 78.7201 124.74 78.6901C122.3 80.7301 119.84 82.6601 117.27 84.5401C118.09 81.5001 118.54 80.0401 119.51 77.2401C119.37 77.1801 119.21 77.1201 119.03 77.0601C118.85 77.0001 118.67 76.9401 118.49 76.8801C118.31 76.8301 118.11 76.7701 117.9 76.7101C117.68 76.6501 117.5 76.6101 117.35 76.5801C116.47 79.4801 115.71 82.3701 115.02 85.3201C115.18 85.4001 115.36 85.5001 115.58 85.5901C115.79 85.6901 115.99 85.7701 116.16 85.8401C116.36 85.9201 116.58 86.0001 116.82 86.0901C117.06 86.1801 117.28 86.2501 117.49 86.3101C119.93 84.5401 122.27 82.7101 124.59 80.7801C124.17 83.3701 123.85 85.9801 123.61 88.5901C123.8 88.6801 124.02 88.7701 124.26 88.8601C124.5 88.9501 124.72 89.0301 124.92 89.1001C125.11 89.1601 125.32 89.2301 125.55 89.3001C125.78 89.3701 125.99 89.4201 126.17 89.4601C128.96 86.6601 131.59 83.7901 134.14 80.7801C134 80.7301 133.85 80.6901 133.66 80.6401C133.47 80.6201 133.28 80.5801 133.1 80.5401Z" fill="#0F4C2E"/>
<path d="M137.83 84.48C137.32 84.38 136.78 84.31 136.2 84.25C135.63 84.2 134.77 84.05 134.59 84.17C134.43 84.28 134.4 85.27 134.54 85.37C134.68 85.47 135.4 85.4 135.84 85.43C136.28 85.47 136.73 85.54 137.21 85.64C137.99 85.8 138.54 86.03 138.88 86.35C139.22 86.66 139.3 87.12 139.11 87.71C139.07 87.83 139.06 87.88 139.02 88C138.83 87.94 138.6 87.87 138.32 87.79C138.04 87.71 137.68 87.63 137.23 87.53C136.63 87.4 136.04 87.32 135.46 87.29C134.88 87.26 134.34 87.3 133.84 87.4C133.34 87.5 132.91 87.67 132.54 87.9C132.17 88.14 131.9 88.46 131.74 88.85C131.57 89.26 131.54 89.64 131.63 89.99C131.73 90.34 131.94 90.67 132.26 90.97C132.59 91.27 133.02 91.55 133.57 91.81C134.11 92.06 134.75 92.29 135.47 92.48C136.23 92.69 137 92.8499 137.76 92.95C138.52 93.05 139.17 93.12 139.71 93.16C140.28 91.16 140.56 90.17 141.12 88.17C141.41 87.13 141.27 86.31 140.7 85.72C140.13 85.15 139.18 84.74 137.83 84.48ZM137.88 91.66C137.59 91.64 137.26 91.6 136.9 91.54C136.54 91.48 136.19 91.4 135.85 91.31C135.59 91.24 135.32 91.16 135.04 91.06C134.76 90.96 134.51 90.84 134.31 90.69C134.1 90.54 133.95 90.36 133.86 90.15C133.76 89.94 133.77 89.7 133.88 89.41C134.05 88.96 134.41 88.69 134.95 88.58C135.49 88.47 136.19 88.52 137.07 88.72C137.29 88.77 137.57 88.85 137.89 88.94C138.21 89.03 138.47 89.12 138.67 89.18C138.34 90.18 138.19 90.67 137.88 91.66Z" fill="#0F4C2E"/>
<path d="M147.76 84.1098C147.7 84.0998 147.66 84.0998 147.6 84.0898C145.96 85.2098 145.12 85.7398 143.39 86.7198C143.4 86.8098 143.41 86.8598 143.42 86.9598C144.06 87.0698 144.39 87.1198 145.03 87.2198C144.59 89.1098 144.36 90.0498 143.92 91.9298C143.71 92.8098 143.86 93.4898 144.37 93.9998C144.88 94.5098 145.67 94.8798 146.74 95.0998C147.11 95.1698 147.46 95.2298 147.8 95.2598C148.13 95.2998 148.67 95.3798 148.76 95.3098C148.8 95.2698 148.82 94.9098 148.84 94.6698C148.86 94.4298 148.85 93.9899 148.77 93.9398C148.72 93.8998 148.38 93.9398 148.16 93.9298C147.93 93.9198 147.7 93.8898 147.45 93.8398C147.13 93.7798 146.86 93.6998 146.66 93.6098C146.46 93.5198 146.31 93.3898 146.22 93.2098C146.13 93.0398 146.08 92.8098 146.09 92.5198C146.1 92.2298 146.15 91.8598 146.25 91.3998C146.57 89.8498 146.74 89.0698 147.06 87.5198C148.13 87.6698 148.67 87.7498 149.75 87.8798C149.8 87.7698 149.84 87.6599 149.87 87.5499C149.9 87.4399 149.93 87.3198 149.95 87.1898C149.99 86.9498 150 86.7298 149.98 86.5298C148.92 86.4098 148.39 86.3498 147.33 86.2098C147.5 85.3698 147.59 84.9498 147.76 84.1098Z" fill="#0F4C2E"/>
<path d="M159.77 88.3799C159.42 87.9599 158.98 87.6299 158.45 87.3699C157.92 87.1099 157.3 86.9699 156.58 86.9199C155.74 86.8599 154.99 86.9399 154.34 87.1399C153.69 87.3399 153.12 87.6299 152.65 88.0199C152.18 88.3999 151.79 88.8699 151.5 89.4199C151.21 89.9699 151.01 90.5699 150.91 91.2299C150.81 91.8999 150.82 92.5299 150.95 93.1299C151.08 93.7299 151.36 94.2699 151.78 94.7699C152.2 95.2599 152.77 95.6899 153.49 96.0399C154.21 96.3899 155.1 96.6499 156.15 96.7999C156.87 96.8999 157.53 96.9499 158.13 96.9399C158.73 96.9299 159.67 96.8999 159.79 96.7499C159.85 96.6799 159.76 96.2099 159.7 95.9299C159.64 95.6499 159.53 95.2499 159.45 95.2099C159.13 95.0599 157.47 95.4499 156.42 95.3099C155.22 95.1499 154.34 94.7799 153.79 94.2299C153.24 93.6799 153.02 92.8999 153.12 91.9099C156.12 92.3099 157.63 92.4699 160.65 92.7299C160.67 92.5899 160.69 92.4299 160.72 92.2299C160.74 92.0299 160.76 91.8499 160.77 91.6699C160.8 91.0199 160.73 90.4199 160.56 89.8599C160.38 89.2899 160.12 88.7999 159.77 88.3799ZM153.3 90.5999C153.5 89.8299 153.86 89.2499 154.36 88.8599C154.86 88.4599 155.53 88.2999 156.38 88.3699C156.81 88.4099 157.17 88.4999 157.47 88.6699C157.77 88.8299 158.01 89.0399 158.2 89.2899C158.38 89.5399 158.52 89.8299 158.6 90.1499C158.68 90.4699 158.71 90.8099 158.69 91.1599C156.53 90.9699 155.45 90.8599 153.3 90.5999Z" fill="#0F4C2E"/>
<path d="M169.11 87.5002C169.08 87.4802 168.93 87.4802 168.81 87.4702C168.69 87.4602 168.58 87.4602 168.47 87.4602C167.73 87.4602 167.13 87.6302 166.66 87.9602C166.19 88.2902 165.54 89.1202 165.52 89.1102C165.52 89.1102 165.5 88.6102 165.46 88.2902C165.42 87.9702 165.4 87.5702 165.34 87.5102C165.3 87.4702 165.08 87.4602 164.93 87.4402C164.78 87.4202 164.63 87.4202 164.48 87.4102C164.33 87.4102 164.19 87.4102 164.05 87.4202C163.91 87.4302 163.77 87.4502 163.62 87.4702C163.55 90.7902 163.48 94.1201 163.41 97.4501C163.59 97.4901 163.78 97.5302 163.98 97.5602C164.18 97.5901 164.37 97.6201 164.53 97.6301C164.7 97.6502 164.88 97.6602 165.08 97.6602C165.28 97.6702 165.47 97.6602 165.63 97.6502C165.63 95.6302 165.63 94.6202 165.63 92.6102C165.63 91.9302 165.71 91.3702 165.87 90.9402C166.03 90.5102 166.25 90.1702 166.52 89.9302C166.79 89.6802 167.1 89.5102 167.43 89.4202C167.77 89.3202 168.12 89.2802 168.5 89.2802C168.57 89.2802 168.66 89.2802 168.78 89.2802C168.9 89.2802 169.1 89.3402 169.13 89.3202C169.16 89.3002 169.17 88.9902 169.18 88.8102C169.19 88.6302 169.2 88.4602 169.19 88.3002C169.19 88.1502 169.17 88.0102 169.15 87.8702C169.17 87.7502 169.15 87.5402 169.11 87.5002Z" fill="#0F4C2E"/>
<path d="M184.97 87.4301C184.28 86.7301 183.34 86.4601 182.13 86.5701C181.74 86.6101 181.39 86.7001 181.1 86.8401C180.81 86.9901 180.55 87.1601 180.33 87.3701C180.11 87.5801 179.92 87.8201 179.75 88.0801C179.58 88.3401 179.37 88.8601 179.34 88.8601C179.34 88.8601 178.62 87.7601 178.13 87.4301C177.64 87.1101 177 86.9701 176.18 87.0201C175.79 87.0401 175.43 87.1201 175.11 87.2501C174.79 87.3801 174.52 87.5401 174.28 87.7401C174.04 87.9301 173.84 88.1501 173.67 88.3801C173.5 88.6201 173.27 89.1201 173.26 89.1201C173.26 89.1201 173.2 88.5901 173.13 88.2501C173.06 87.9101 173.02 87.4901 172.95 87.4301C172.9 87.3901 172.66 87.3901 172.53 87.3801C172.4 87.3701 172.26 87.3701 172.11 87.3701C171.96 87.3701 171.81 87.3901 171.67 87.4001C171.53 87.4201 171.38 87.4401 171.23 87.4701C171.43 91.0001 171.63 94.5401 171.82 98.0701C171.99 98.1101 172.18 98.1301 172.39 98.1601C172.6 98.1801 172.79 98.2001 172.96 98.2101C173.13 98.2201 173.31 98.2201 173.52 98.2101C173.72 98.2001 173.91 98.1901 174.07 98.1701C173.9 95.9701 173.82 94.8701 173.65 92.6701C173.6 92.0501 173.63 91.5101 173.73 91.0401C173.83 90.5701 173.98 90.1801 174.19 89.8601C174.39 89.5501 174.64 89.3101 174.93 89.1401C175.22 88.9701 175.54 88.8801 175.89 88.8701C176.5 88.8501 176.97 89.0601 177.3 89.5301C177.63 90.0001 177.86 90.7201 177.97 91.6801C178.27 94.3201 178.43 95.6301 178.73 98.2701C178.9 98.3001 179.09 98.3201 179.29 98.3401C179.5 98.3601 179.68 98.3601 179.85 98.3601C180.02 98.3601 180.2 98.3601 180.4 98.3401C180.6 98.3301 180.79 98.3001 180.95 98.2701C180.61 95.7301 180.44 94.4601 180.1 91.9201C179.96 90.8701 180.08 90.0601 180.44 89.4901C180.8 88.9201 181.33 88.6101 182.04 88.5501C182.7 88.5001 183.22 88.7101 183.6 89.2001C183.98 89.6901 184.26 90.4601 184.44 91.4901C184.9 94.1701 185.13 95.5101 185.59 98.1901C185.76 98.2101 185.95 98.2301 186.16 98.2401C186.37 98.2501 186.56 98.2501 186.72 98.2401C186.89 98.2301 187.07 98.2201 187.28 98.2001C187.49 98.1801 187.67 98.1501 187.84 98.1101C187.27 95.1301 186.99 93.6401 186.42 90.6601C186.16 89.2201 185.67 88.1301 184.97 87.4301Z" fill="#0F4C2E"/>
<path d="M199.13 94.9401C198.84 94.8901 197.34 95.7701 196.28 95.8801C195.07 96.0001 194.08 95.7801 193.32 95.2301C192.56 94.6801 192.02 93.7501 191.69 92.4401C194.71 92.1301 196.22 91.9401 199.23 91.4801C199.19 91.3001 199.14 91.0801 199.08 90.8301C199.02 90.5801 198.96 90.3401 198.89 90.1101C198.65 89.2901 198.33 88.5401 197.93 87.8701C197.53 87.2001 197.07 86.6501 196.56 86.2101C196.05 85.7701 195.48 85.4601 194.87 85.2601C194.25 85.0701 193.59 85.0301 192.88 85.1501C192.04 85.2901 191.36 85.5701 190.83 86.0001C190.29 86.4301 189.88 86.9501 189.6 87.5701C189.31 88.1901 189.15 88.8901 189.11 89.6801C189.07 90.4701 189.14 91.2901 189.33 92.1701C189.52 93.0601 189.8 93.8701 190.18 94.6001C190.56 95.3301 191.05 95.9501 191.66 96.4701C192.27 96.9801 192.99 97.3701 193.82 97.6101C194.65 97.8601 195.6 97.9401 196.67 97.8401C197.4 97.7701 198.05 97.6501 198.62 97.4801C199.19 97.3101 200.06 96.9801 200.12 96.7901C200.16 96.6701 199.86 96.1201 199.69 95.7801C199.49 95.4501 199.23 94.9601 199.13 94.9401ZM191.31 90.7101C191.17 89.6701 191.26 88.8301 191.58 88.1901C191.89 87.5501 192.46 87.1701 193.3 87.0401C193.72 86.9701 194.11 87.0101 194.47 87.1401C194.83 87.2701 195.15 87.4801 195.43 87.7501C195.71 88.0201 195.96 88.3501 196.18 88.7401C196.4 89.1301 196.57 89.5501 196.69 90.0001C194.54 90.3201 193.46 90.4601 191.31 90.7101Z" fill="#0F4C2E"/>
<path d="M207.72 94.1202C207.69 94.1102 207.48 94.2202 207.31 94.2702C207.14 94.3202 207 94.3502 206.86 94.3702C206.67 94.4002 206.48 94.4102 206.29 94.4002C206.1 94.3902 205.93 94.3202 205.75 94.2002C205.58 94.0802 205.41 93.8902 205.25 93.6402C205.09 93.3902 204.93 93.0302 204.78 92.5702C203.19 87.7902 201.6 83.0202 200.01 78.2402C199.86 78.2402 199.7 78.2602 199.52 78.2902C199.34 78.3202 199.19 78.3502 199.05 78.3902C198.91 78.4302 198.76 78.4702 198.59 78.5302C198.43 78.5902 198.28 78.6502 198.15 78.7202C199.7 83.6302 201.25 88.5402 202.8 93.4602C203.01 94.1102 203.26 94.6502 203.57 95.0702C203.87 95.4902 204.21 95.8102 204.58 96.0302C204.95 96.2502 205.34 96.3902 205.76 96.4502C206.18 96.5102 206.6 96.5102 207.04 96.4402C207.3 96.4002 207.57 96.3502 207.87 96.2702C208.16 96.2002 208.56 96.0602 208.58 95.9802C208.67 95.7602 207.92 94.1802 207.72 94.1202Z" fill="#0F4C2E"/>
<path d="M217.72 86.9002C217.28 85.9102 216.76 85.0102 216.19 84.2202C215.61 83.4302 214.99 82.7801 214.31 82.2701C213.64 81.7701 212.93 81.4202 212.18 81.2402C211.43 81.0602 210.67 81.0802 209.88 81.3002C209.09 81.5302 208.47 81.9002 208.01 82.4102C207.55 82.9302 207.23 83.5402 207.05 84.2402C206.87 84.9502 206.83 85.7302 206.93 86.6002C207.03 87.4702 207.25 88.3801 207.6 89.3401C207.95 90.3001 208.37 91.1701 208.88 91.9501C209.39 92.7301 209.98 93.3802 210.65 93.9102C211.32 94.4302 212.06 94.8001 212.87 95.0201C213.68 95.2401 214.54 95.2602 215.44 95.0802C216.34 94.9002 217.06 94.5502 217.59 94.0502C218.11 93.5502 218.46 92.9301 218.63 92.2001C218.8 91.4701 218.8 90.6502 218.63 89.7502C218.47 88.8502 218.16 87.9002 217.72 86.9002ZM216.35 91.2701C216.23 92.2501 215.66 92.8401 214.64 93.0602C213.62 93.2802 212.7 93.0002 211.89 92.2502C211.09 91.5002 210.41 90.3702 209.83 88.8702C209.26 87.3602 209.04 86.1402 209.16 85.1902C209.28 84.2402 209.8 83.6401 210.72 83.3801C211.65 83.1301 212.51 83.3601 213.32 84.0901C214.13 84.8201 214.87 85.9502 215.53 87.4901C216.18 89.0301 216.46 90.2901 216.35 91.2701Z" fill="#0F4C2E"/>
<path d="M225.35 77.63C224.32 76.94 223.25 76.82 222.11 77.25C221.71 77.4 221.38 77.61 221.12 77.89C220.86 78.16 220.66 78.47 220.52 78.8C220.38 79.13 220.28 79.49 220.22 79.86C220.16 80.23 220.16 80.93 220.15 80.94C220.15 80.94 219.8 80.27 219.54 79.83C219.28 79.39 219.04 78.86 218.9 78.8C218.83 78.77 218.59 78.84 218.46 78.86C218.33 78.88 218.19 78.92 218.05 78.97C217.91 79.02 217.77 79.08 217.64 79.14C217.51 79.2 217.38 79.28 217.26 79.36C219.38 83.87 221.49 88.37 223.61 92.87C223.79 92.86 223.99 92.84 224.21 92.8C224.43 92.76 224.62 92.72 224.78 92.68C224.94 92.64 225.12 92.58 225.32 92.51C225.51 92.44 225.68 92.36 225.83 92.28C224.71 89.98 223.59 87.68 222.47 85.39C222.06 84.56 221.8 83.82 221.67 83.18C221.54 82.54 221.51 81.99 221.58 81.53C221.65 81.07 221.81 80.7 222.05 80.4C222.29 80.11 222.6 79.89 222.97 79.76C223.6 79.53 224.22 79.66 224.83 80.15C225.44 80.64 226.08 81.53 226.75 82.8C228.16 85.47 229.57 88.14 230.98 90.81C231.16 90.8 231.36 90.77 231.57 90.72C231.78 90.68 231.97 90.63 232.13 90.58C232.29 90.53 232.47 90.46 232.67 90.38C232.87 90.3 233.04 90.21 233.18 90.12C231.58 87.19 229.98 84.26 228.39 81.34C227.4 79.56 226.38 78.32 225.35 77.63Z" fill="#0F4C2E"/>
<path d="M133.1 79.5298C132.94 79.4998 132.78 79.4698 132.62 79.4498C132.45 79.4298 132.3 79.4098 132.14 79.3998C130.11 81.8898 127.97 84.2998 125.74 86.6198C126 83.7998 126.35 80.9898 126.81 78.1998C126.68 78.1498 126.52 78.0998 126.33 78.0398C126.14 77.9798 125.97 77.9398 125.81 77.8998C125.64 77.8598 125.46 77.8198 125.27 77.7798C125.08 77.7398 124.9 77.7098 124.74 77.6798C122.3 79.7198 119.84 81.6498 117.27 83.5298C118.09 80.4898 118.54 79.0298 119.51 76.2298C119.37 76.1698 119.21 76.1098 119.03 76.0498C118.85 75.9898 118.67 75.9298 118.49 75.8698C118.31 75.8198 118.11 75.7598 117.9 75.6998C117.68 75.6398 117.5 75.5998 117.35 75.5698C116.47 78.4698 115.71 81.3598 115.02 84.3098C115.18 84.3898 115.36 84.4898 115.58 84.5798C115.79 84.6798 115.99 84.7598 116.16 84.8298C116.36 84.9098 116.58 84.9998 116.82 85.0798C117.06 85.1698 117.28 85.2398 117.49 85.2998C119.93 83.5298 122.27 81.6998 124.59 79.7698C124.17 82.3598 123.85 84.9698 123.61 87.5798C123.8 87.6698 124.02 87.7598 124.26 87.8498C124.5 87.9398 124.72 88.0198 124.92 88.0898C125.11 88.1498 125.32 88.2198 125.55 88.2898C125.78 88.3598 125.99 88.4098 126.17 88.4498C128.96 85.6498 131.59 82.7798 134.14 79.7698C134 79.7198 133.85 79.6798 133.66 79.6298C133.47 79.5998 133.28 79.5598 133.1 79.5298Z" fill="#329363"/>
<path d="M137.83 83.4699C137.32 83.3699 136.78 83.2999 136.2 83.2399C135.63 83.1799 134.77 83.0399 134.59 83.1599C134.43 83.2699 134.4 84.2599 134.54 84.3599C134.68 84.4599 135.4 84.3899 135.84 84.4199C136.28 84.4599 136.73 84.5299 137.21 84.6299C137.99 84.7899 138.54 85.0199 138.88 85.3299C139.22 85.6399 139.3 86.0999 139.11 86.6999C139.07 86.8199 139.06 86.8699 139.02 86.9899C138.83 86.9299 138.6 86.8599 138.32 86.7799C138.04 86.6999 137.68 86.6199 137.23 86.5199C136.63 86.3899 136.04 86.3099 135.46 86.2799C134.88 86.2499 134.34 86.2899 133.84 86.3899C133.34 86.4899 132.91 86.6599 132.54 86.8899C132.17 87.1299 131.9 87.4499 131.74 87.8399C131.57 88.2499 131.54 88.6299 131.63 88.9799C131.73 89.3299 131.94 89.6599 132.26 89.9599C132.59 90.2699 133.02 90.5399 133.57 90.7999C134.11 91.0499 134.75 91.2799 135.47 91.4699C136.23 91.6799 137 91.8399 137.76 91.9399C138.52 92.0399 139.17 92.1099 139.71 92.1599C140.28 90.1599 140.56 89.1599 141.12 87.1699C141.41 86.1299 141.27 85.3099 140.7 84.7199C140.13 84.1299 139.18 83.7199 137.83 83.4699ZM137.88 90.6399C137.59 90.6199 137.26 90.5799 136.9 90.5199C136.54 90.4499 136.19 90.3799 135.85 90.2899C135.59 90.2199 135.32 90.1399 135.04 90.0399C134.76 89.9399 134.51 89.8199 134.31 89.6699C134.1 89.5199 133.95 89.3399 133.86 89.1299C133.76 88.9199 133.77 88.6799 133.88 88.3899C134.05 87.9399 134.41 87.6699 134.95 87.5599C135.49 87.4499 136.19 87.4999 137.07 87.7099C137.29 87.7599 137.57 87.8299 137.89 87.9299C138.21 88.0199 138.47 88.1099 138.67 88.1699C138.34 89.1599 138.19 89.6499 137.88 90.6399Z" fill="#329363"/>
<path d="M147.76 83.0898C147.7 83.0798 147.66 83.0798 147.6 83.0698C145.96 84.1898 145.12 84.7198 143.39 85.6998C143.4 85.7898 143.41 85.8398 143.42 85.9398C144.06 86.0498 144.39 86.0998 145.03 86.1998C144.59 88.0898 144.36 89.0298 143.92 90.9198C143.71 91.7998 143.86 92.4798 144.37 92.9898C144.88 93.4998 145.67 93.8698 146.74 94.0898C147.11 94.1598 147.46 94.2198 147.8 94.2498C148.13 94.2898 148.67 94.3698 148.76 94.2998C148.8 94.2598 148.82 93.8998 148.84 93.6598C148.86 93.4198 148.85 92.9798 148.77 92.9298C148.72 92.8898 148.38 92.9298 148.16 92.9198C147.93 92.9098 147.7 92.8798 147.45 92.8298C147.13 92.7698 146.86 92.6898 146.66 92.5998C146.46 92.5098 146.31 92.3798 146.22 92.1998C146.13 92.0298 146.08 91.7998 146.09 91.5098C146.1 91.2198 146.15 90.8498 146.25 90.3798C146.57 88.8298 146.74 88.0498 147.06 86.4998C148.13 86.6498 148.67 86.7298 149.75 86.8598C149.8 86.7498 149.84 86.6398 149.87 86.5298C149.9 86.4198 149.93 86.2998 149.95 86.1698C149.99 85.9298 150 85.7098 149.98 85.5098C148.92 85.3898 148.39 85.3298 147.33 85.1898C147.5 84.3498 147.59 83.9298 147.76 83.0898Z" fill="#329363"/>
<path d="M159.77 87.3696C159.42 86.9496 158.98 86.6196 158.45 86.3596C157.92 86.0996 157.3 85.9596 156.58 85.9096C155.74 85.8496 154.99 85.9296 154.34 86.1296C153.69 86.3296 153.12 86.6296 152.65 87.0096C152.18 87.3896 151.79 87.8596 151.5 88.4096C151.21 88.9596 151.01 89.5596 150.91 90.2196C150.81 90.8896 150.82 91.5196 150.95 92.1196C151.08 92.7196 151.36 93.2596 151.78 93.7596C152.2 94.2496 152.77 94.6796 153.49 95.0296C154.21 95.3796 155.1 95.6396 156.15 95.7896C156.87 95.8896 157.53 95.9396 158.13 95.9296C158.73 95.9196 159.67 95.8896 159.79 95.7396C159.85 95.6696 159.76 95.1996 159.7 94.9196C159.64 94.6396 159.53 94.2396 159.45 94.1996C159.13 94.0496 157.47 94.4396 156.42 94.2996C155.22 94.1396 154.34 93.7696 153.79 93.2196C153.24 92.6696 153.02 91.8896 153.12 90.8996C156.12 91.2996 157.63 91.4596 160.65 91.7196C160.67 91.5796 160.69 91.4196 160.72 91.2196C160.74 91.0296 160.76 90.8396 160.77 90.6596C160.8 90.0096 160.73 89.4096 160.56 88.8496C160.38 88.2696 160.12 87.7796 159.77 87.3696ZM153.3 89.5796C153.5 88.8096 153.86 88.2296 154.36 87.8396C154.86 87.4396 155.53 87.2796 156.38 87.3496C156.81 87.3896 157.17 87.4796 157.47 87.6496C157.77 87.8096 158.01 88.0196 158.2 88.2696C158.38 88.5196 158.52 88.8096 158.6 89.1296C158.68 89.4496 158.71 89.7896 158.69 90.1396C156.53 89.9496 155.45 89.8396 153.3 89.5796Z" fill="#329363"/>
<path d="M169.11 86.4799C169.08 86.4599 168.93 86.4599 168.81 86.4499C168.69 86.4399 168.58 86.4399 168.47 86.4399C167.73 86.4499 167.13 86.6099 166.66 86.9399C166.19 87.2699 165.54 88.0999 165.52 88.0899C165.52 88.0899 165.5 87.5899 165.46 87.2699C165.42 86.9499 165.4 86.5499 165.34 86.4899C165.3 86.4499 165.08 86.4399 164.93 86.4299C164.78 86.4099 164.63 86.4099 164.48 86.3999C164.33 86.3999 164.19 86.3999 164.05 86.4099C163.91 86.4199 163.77 86.4399 163.62 86.4599C163.55 89.7899 163.48 93.1099 163.41 96.4399C163.59 96.4799 163.78 96.5199 163.98 96.5499C164.18 96.5799 164.37 96.6099 164.53 96.6199C164.7 96.6399 164.88 96.6499 165.08 96.6499C165.28 96.6499 165.47 96.6499 165.63 96.6399C165.63 94.6199 165.63 93.6099 165.63 91.5999C165.63 90.9099 165.71 90.3599 165.87 89.9299C166.03 89.4999 166.25 89.1599 166.52 88.9199C166.79 88.6699 167.1 88.4999 167.43 88.4099C167.77 88.3099 168.12 88.2699 168.5 88.2699C168.57 88.2699 168.66 88.2699 168.78 88.2699C168.9 88.2699 169.1 88.3299 169.13 88.3099C169.16 88.2899 169.17 87.9799 169.18 87.7999C169.19 87.6199 169.2 87.4499 169.19 87.2899C169.19 87.1399 169.17 86.9999 169.15 86.8599C169.17 86.7299 169.15 86.5199 169.11 86.4799Z" fill="#329363"/>
<path d="M184.97 86.4096C184.28 85.7096 183.34 85.4396 182.13 85.5496C181.74 85.5896 181.39 85.6796 181.1 85.8196C180.81 85.9696 180.55 86.1396 180.33 86.3496C180.11 86.5596 179.92 86.7996 179.75 87.0596C179.58 87.3196 179.37 87.8396 179.34 87.8396C179.34 87.8396 178.62 86.7396 178.13 86.4096C177.64 86.0896 177 85.9496 176.18 85.9996C175.79 86.0196 175.43 86.0996 175.11 86.2296C174.79 86.3596 174.52 86.5196 174.28 86.7196C174.04 86.9096 173.84 87.1296 173.67 87.3596C173.5 87.5996 173.27 88.0996 173.26 88.0996C173.26 88.0996 173.2 87.5696 173.13 87.2296C173.06 86.8896 173.02 86.4696 172.95 86.4096C172.9 86.3696 172.66 86.3696 172.53 86.3596C172.4 86.3496 172.26 86.3496 172.11 86.3496C171.96 86.3496 171.81 86.3696 171.67 86.3796C171.53 86.3996 171.38 86.4196 171.23 86.4496C171.43 89.9796 171.63 93.5196 171.82 97.0496C171.99 97.0896 172.18 97.1096 172.39 97.1396C172.6 97.1596 172.79 97.1796 172.96 97.1896C173.13 97.1996 173.31 97.1996 173.52 97.1896C173.72 97.1896 173.91 97.1696 174.07 97.1496C173.9 94.9496 173.82 93.8496 173.65 91.6496C173.6 91.0296 173.63 90.4896 173.73 90.0196C173.83 89.5496 173.98 89.1596 174.19 88.8396C174.39 88.5196 174.64 88.2796 174.93 88.1196C175.22 87.9496 175.54 87.8596 175.89 87.8496C176.5 87.8296 176.97 88.0396 177.3 88.5096C177.63 88.9796 177.86 89.6996 177.97 90.6596C178.27 93.2996 178.43 94.6096 178.73 97.2496C178.9 97.2796 179.09 97.2996 179.29 97.3196C179.5 97.3396 179.68 97.3396 179.85 97.3396C180.02 97.3396 180.2 97.3296 180.4 97.3196C180.6 97.3096 180.79 97.2796 180.95 97.2496C180.61 94.7096 180.44 93.4396 180.1 90.8996C179.96 89.8496 180.08 89.0396 180.44 88.4696C180.8 87.8996 181.33 87.5896 182.04 87.5296C182.7 87.4796 183.22 87.6896 183.6 88.1796C183.98 88.6696 184.26 89.4396 184.44 90.4696C184.9 93.1496 185.13 94.4896 185.59 97.1696C185.76 97.1896 185.95 97.2096 186.16 97.2196C186.37 97.2296 186.56 97.2296 186.72 97.2196C186.89 97.2096 187.07 97.1996 187.28 97.1796C187.49 97.1596 187.67 97.1296 187.84 97.0896C187.27 94.1096 186.99 92.6196 186.42 89.6396C186.16 88.1996 185.67 87.1096 184.97 86.4096Z" fill="#329363"/>
<path d="M199.13 93.92C198.84 93.87 197.34 94.7501 196.28 94.8601C195.07 94.9901 194.08 94.7601 193.32 94.2101C192.56 93.6601 192.02 92.73 191.69 91.42C194.71 91.11 196.22 90.9201 199.23 90.4601C199.19 90.2801 199.14 90.06 199.08 89.81C199.02 89.56 198.96 89.32 198.89 89.09C198.65 88.27 198.33 87.52 197.93 86.85C197.53 86.18 197.07 85.6301 196.56 85.1901C196.05 84.7501 195.48 84.43 194.87 84.24C194.25 84.05 193.59 84.01 192.88 84.13C192.04 84.27 191.36 84.5501 190.83 84.9801C190.29 85.4101 189.88 85.9301 189.6 86.5501C189.31 87.1701 189.15 87.8701 189.11 88.6601C189.07 89.4501 189.14 90.2801 189.33 91.1501C189.52 92.0401 189.8 92.8501 190.18 93.5801C190.56 94.3101 191.05 94.93 191.66 95.45C192.27 95.96 192.99 96.35 193.82 96.59C194.65 96.84 195.6 96.9201 196.67 96.8201C197.4 96.7501 198.05 96.6301 198.62 96.4601C199.19 96.2901 200.06 95.96 200.12 95.77C200.16 95.65 199.86 95.1001 199.69 94.7601C199.49 94.4301 199.23 93.9401 199.13 93.92ZM191.31 89.6901C191.17 88.6501 191.26 87.81 191.58 87.17C191.89 86.53 192.46 86.15 193.3 86.02C193.72 85.95 194.11 85.9901 194.47 86.1201C194.83 86.2501 195.15 86.4601 195.43 86.7301C195.71 87.0001 195.96 87.3301 196.18 87.7201C196.4 88.1101 196.57 88.5301 196.69 88.9801C194.54 89.3001 193.46 89.4401 191.31 89.6901Z" fill="#329363"/>
<path d="M207.72 93.1097C207.69 93.0997 207.48 93.2098 207.31 93.2598C207.14 93.3097 207 93.3397 206.86 93.3597C206.67 93.3897 206.48 93.3997 206.29 93.3897C206.1 93.3797 205.93 93.3098 205.75 93.1898C205.58 93.0698 205.41 92.8797 205.25 92.6297C205.09 92.3797 204.93 92.0197 204.78 91.5597C203.19 86.7897 201.6 82.0097 200.01 77.2397C199.86 77.2397 199.7 77.2597 199.52 77.2897C199.34 77.3197 199.19 77.3497 199.05 77.3897C198.91 77.4297 198.76 77.4697 198.59 77.5297C198.43 77.5897 198.28 77.6497 198.15 77.7197C199.7 82.6297 201.25 87.5397 202.8 92.4597C203.01 93.1097 203.26 93.6497 203.57 94.0697C203.87 94.4897 204.21 94.8097 204.58 95.0297C204.95 95.2497 205.34 95.3897 205.76 95.4497C206.18 95.5097 206.6 95.5098 207.04 95.4398C207.3 95.3997 207.57 95.3497 207.87 95.2697C208.16 95.1997 208.56 95.0598 208.58 94.9798C208.67 94.7398 207.92 93.1697 207.72 93.1097Z" fill="#329363"/>
<path d="M217.72 85.89C217.28 84.9 216.76 84 216.19 83.21C215.61 82.42 214.99 81.77 214.31 81.26C213.64 80.76 212.93 80.41 212.18 80.23C211.43 80.05 210.67 80.07 209.88 80.3C209.09 80.53 208.47 80.9 208.01 81.41C207.55 81.93 207.23 82.54 207.05 83.24C206.87 83.95 206.83 84.73 206.93 85.6C207.03 86.47 207.25 87.38 207.6 88.34C207.95 89.3 208.37 90.16 208.88 90.95C209.39 91.73 209.98 92.38 210.65 92.91C211.32 93.43 212.06 93.81 212.87 94.02C213.68 94.24 214.54 94.26 215.44 94.08C216.34 93.9 217.06 93.55 217.59 93.05C218.11 92.55 218.46 91.93 218.63 91.2C218.8 90.47 218.8 89.65 218.63 88.74C218.47 87.83 218.16 86.88 217.72 85.89ZM216.35 90.25C216.23 91.23 215.66 91.82 214.64 92.04C213.62 92.26 212.7 91.98 211.89 91.24C211.09 90.49 210.41 89.36 209.83 87.86C209.26 86.35 209.04 85.13 209.16 84.18C209.28 83.23 209.8 82.63 210.72 82.37C211.65 82.12 212.51 82.35 213.32 83.08C214.13 83.81 214.87 84.94 215.53 86.48C216.18 88.01 216.46 89.27 216.35 90.25Z" fill="#329363"/>
<path d="M225.35 76.61C224.32 75.92 223.25 75.8 222.11 76.23C221.71 76.38 221.38 76.59 221.12 76.87C220.86 77.15 220.66 77.45 220.52 77.78C220.38 78.11 220.28 78.47 220.22 78.84C220.16 79.21 220.16 79.91 220.15 79.92C220.15 79.92 219.8 79.25 219.54 78.81C219.28 78.37 219.04 77.84 218.9 77.78C218.83 77.75 218.59 77.81 218.46 77.84C218.33 77.87 218.19 77.9 218.05 77.95C217.91 78 217.77 78.06 217.64 78.12C217.51 78.18 217.38 78.26 217.26 78.34C219.38 82.84 221.49 87.35 223.61 91.85C223.79 91.84 223.99 91.82 224.21 91.78C224.43 91.74 224.62 91.7 224.78 91.66C224.94 91.62 225.12 91.56 225.32 91.49C225.51 91.42 225.68 91.34 225.83 91.26C224.71 88.96 223.59 86.67 222.47 84.37C222.06 83.54 221.8 82.8 221.67 82.16C221.54 81.52 221.51 80.97 221.58 80.51C221.65 80.05 221.81 79.68 222.05 79.38C222.29 79.09 222.6 78.87 222.97 78.74C223.6 78.51 224.22 78.64 224.83 79.13C225.44 79.62 226.08 80.51 226.75 81.78C228.16 84.45 229.57 87.12 230.98 89.79C231.16 89.78 231.36 89.75 231.57 89.7C231.78 89.66 231.97 89.61 232.13 89.56C232.29 89.51 232.47 89.44 232.67 89.36C232.87 89.28 233.04 89.19 233.18 89.1C231.58 86.17 229.98 83.24 228.39 80.32C227.4 78.55 226.38 77.31 225.35 76.61Z" fill="#329363"/>
</svg>
