<svg width="472" height="472" viewBox="0 0 472 472" fill="none" xmlns="http://www.w3.org/2000/svg">
<g filter="url(#filter0_d_7_6)">
<path d="M236 464C364.13 464 468 360.13 468 232C468 103.87 364.13 0 236 0C107.87 0 4 103.87 4 232C4 360.13 107.87 464 236 464Z" fill="url(#paint0_linear_7_6)"/>
</g>
<path fill-rule="evenodd" clip-rule="evenodd" d="M108 116.32C106.937 116.272 105.875 116.447 104.883 116.832C103.891 117.217 102.99 117.804 102.237 118.557C101.484 119.31 100.897 120.211 100.512 121.203C100.127 122.195 99.9523 123.257 100 124.32C100 126.442 100.843 128.477 102.343 129.977C103.843 131.477 105.878 132.32 108 132.32H117.952C123.723 132.32 129.322 134.287 133.824 137.897C138.327 141.507 141.465 146.543 142.72 152.176L167.792 264.832C167.792 265.088 167.92 265.36 168.016 265.616C169.655 270.532 172.799 274.808 177.003 277.837C181.207 280.867 186.258 282.497 191.44 282.496H302.592C307.177 282.496 311.671 281.219 315.57 278.808C319.47 276.398 322.622 272.949 324.672 268.848C331.184 255.824 344.208 214.896 353.392 196.544C355.274 192.78 356.162 188.598 355.973 184.394C355.784 180.19 354.523 176.105 352.311 172.525C350.099 168.946 347.009 165.991 343.333 163.942C339.658 161.892 335.52 160.816 331.312 160.816H180.32C178.198 160.816 176.163 161.659 174.663 163.159C173.163 164.659 172.32 166.694 172.32 168.816C172.32 170.938 173.163 172.973 174.663 174.473C176.163 175.973 178.198 176.816 180.32 176.816H331.312C332.794 176.815 334.251 177.193 335.546 177.914C336.84 178.635 337.929 179.675 338.708 180.935C339.487 182.195 339.931 183.634 339.998 185.114C340.064 186.594 339.751 188.067 339.088 189.392C329.904 207.744 316.88 248.592 310.368 261.696C309.646 263.139 308.536 264.353 307.162 265.201C305.789 266.049 304.206 266.497 302.592 266.496H191.44C189.692 266.497 187.984 265.971 186.54 264.986C185.095 264.001 183.981 262.604 183.344 260.976C183.344 260.88 158.336 148.704 158.336 148.704C156.291 139.521 151.178 131.309 143.84 125.422C136.502 119.535 127.376 116.324 117.968 116.32H108ZM200.128 307.872C203.429 307.872 206.655 308.851 209.399 310.684C212.144 312.518 214.283 315.124 215.546 318.174C216.809 321.223 217.139 324.579 216.495 327.816C215.851 331.053 214.262 334.026 211.928 336.36C209.594 338.694 206.621 340.283 203.384 340.927C200.147 341.571 196.791 341.241 193.742 339.978C190.692 338.715 188.086 336.576 186.252 333.831C184.419 331.087 183.44 327.861 183.44 324.56C183.44 320.134 185.198 315.889 188.328 312.76C191.457 309.63 195.702 307.872 200.128 307.872ZM200.128 291.872C193.662 291.869 187.341 293.783 181.963 297.373C176.586 300.963 172.393 306.067 169.917 312.04C167.44 318.012 166.791 324.585 168.05 330.927C169.31 337.269 172.422 343.095 176.992 347.668C181.563 352.241 187.388 355.356 193.729 356.619C200.07 357.881 206.644 357.235 212.617 354.761C218.591 352.288 223.697 348.098 227.29 342.722C230.882 337.346 232.8 331.026 232.8 324.56C232.796 315.895 229.353 307.585 223.227 301.456C217.101 295.328 208.793 291.88 200.128 291.872ZM291.216 307.872C294.517 307.872 297.743 308.851 300.487 310.684C303.232 312.518 305.371 315.124 306.634 318.174C307.897 321.223 308.227 324.579 307.583 327.816C306.939 331.053 305.35 334.026 303.016 336.36C300.682 338.694 297.709 340.283 294.472 340.927C291.235 341.571 287.879 341.241 284.83 339.978C281.78 338.715 279.174 336.576 277.34 333.831C275.507 331.087 274.528 327.861 274.528 324.56C274.528 320.134 276.286 315.889 279.416 312.76C282.545 309.63 286.79 307.872 291.216 307.872ZM291.216 291.872C284.751 291.872 278.431 293.789 273.055 297.381C267.68 300.973 263.49 306.078 261.016 312.051C258.542 318.024 257.895 324.596 259.156 330.937C260.417 337.278 263.531 343.102 268.102 347.674C272.674 352.245 278.498 355.359 284.839 356.62C291.18 357.881 297.752 357.234 303.725 354.76C309.698 352.286 314.803 348.096 318.395 342.72C321.987 337.345 323.904 331.025 323.904 324.56C323.9 315.892 320.454 307.58 314.325 301.451C308.196 295.322 299.884 291.876 291.216 291.872Z" fill="white"/>
<defs>
<filter id="filter0_d_7_6" x="0" y="0" width="472" height="472" filterUnits="userSpaceOnUse" color-interpolation-filters="sRGB">
<feFlood flood-opacity="0" result="BackgroundImageFix"/>
<feColorMatrix in="SourceAlpha" type="matrix" values="0 0 0 0 0 0 0 0 0 0 0 0 0 0 0 0 0 0 127 0" result="hardAlpha"/>
<feOffset dy="4"/>
<feGaussianBlur stdDeviation="2"/>
<feComposite in2="hardAlpha" operator="out"/>
<feColorMatrix type="matrix" values="0 0 0 0 0 0 0 0 0 0 0 0 0 0 0 0 0 0 0.25 0"/>
<feBlend mode="normal" in2="BackgroundImageFix" result="effect1_dropShadow_7_6"/>
<feBlend mode="normal" in="SourceGraphic" in2="effect1_dropShadow_7_6" result="shape"/>
</filter>
<linearGradient id="paint0_linear_7_6" x1="234.208" y1="-6.56324e-08" x2="237.792" y2="464" gradientUnits="userSpaceOnUse">
<stop offset="0.9999" stop-color="#FF0000"/>
<stop offset="1" stop-color="#045DE9"/>
</linearGradient>
</defs>
</svg>
