<svg width="512" height="62" viewBox="0 0 512 62" fill="none" xmlns="http://www.w3.org/2000/svg">
<path d="M30.7187 61.7229H481.277C485.312 61.7229 489.307 60.9281 493.035 59.3839C496.763 57.8397 500.15 55.5763 503.003 52.7229C505.856 49.8696 508.119 46.4822 509.663 42.7543C511.206 39.0263 512.001 35.0308 512 30.9958C512.001 26.9611 511.206 22.9657 509.662 19.238C508.119 15.5103 505.856 12.1232 503.003 9.27017C500.15 6.41717 496.763 4.15416 493.035 2.61039C489.307 1.06661 485.312 0.272306 481.277 0.272858H30.7187C22.6322 0.367444 14.909 3.64619 9.22406 9.39797C3.53916 15.1498 0.350983 22.9108 0.350983 30.9979C0.350983 39.085 3.53916 46.846 9.22406 52.5978C14.909 58.3496 22.6322 61.6284 30.7187 61.7229Z" fill="black"/>
</svg>
