<svg width="120" height="141" viewBox="0 0 120 141" fill="none" xmlns="http://www.w3.org/2000/svg">
<path fill-rule="evenodd" clip-rule="evenodd" d="M119.718 46.0718C119.386 34.2989 115.294 23.9368 108.505 17.4638C106.437 16.3178 104.222 15.2719 101.892 14.1569C99.619 13.0699 96.763 11.7409 94.415 11.2819C92.72 10.9509 86.243 10.1518 84.927 10.1318C81.859 10.0858 79.066 10.9049 76.015 11.4259C74.544 9.54285 74.001 8.26386 71.127 6.25086C69.553 5.18787 67.648 4.45786 66.096 3.37486C63.207 2.06986 59.768 0.847845 56.176 0.786845C54.936 0.765845 53.494 1.21486 52.151 1.36286C48.051 1.81086 43.314 2.55187 40.505 4.38087C39.234 5.20787 38.017 6.42485 36.911 7.39985C34.97 9.11085 33.519 11.4559 32.455 13.7259C32.076 13.7679 32.26 14.3459 31.735 14.4449C25.644 14.3639 19.545 13.5988 15.346 16.3128C14.482 16.8718 13.638 17.7078 12.759 18.3258C9.95001 20.2998 7.45502 22.5398 5.57102 25.2268C3.07302 28.7858 1.321 34.0449 0.968997 39.4589C0.845997 41.3749 1.552 51.2899 1.401 51.9669C1.19 59.4529 3.377 65.7768 3.845 72.0928C5.125 76.8518 6.058 82.0699 7.439 87.3319C7.861 88.9379 8.68999 90.5399 9.01999 92.2199C9.52599 94.7919 10.073 97.3879 10.602 99.9829C11.461 104.192 11.464 108.238 12.615 112.2C13.771 116.181 14.595 120.947 16.209 124.275C16.981 125.865 18.846 128.728 19.947 129.881C20.616 130.584 22.029 131.088 22.967 131.895C23.622 132.459 23.885 133.176 24.547 133.477C25.904 134.086 27.397 133.961 28.43 135.202C31.443 135.352 34.897 134.417 37.774 134.483C40.528 132.358 45.473 133.03 48.701 134.196C55.356 139.026 65.797 141.493 76.159 140.52C76.477 140.825 76.589 140.518 77.309 140.52C89.247 138.514 97.008 132.329 100.168 121.543C103.225 119.014 106.613 116.146 108.506 111.914C110.016 108.532 114.354 92.6849 114.688 91.2129C115.098 89.4059 116.137 84.2909 116.27 83.5949C118.519 71.7319 120.083 59.0149 119.718 46.0718Z" fill="#FBC55E"/>
<path d="M67.675 23.0703C69.156 23.0703 76.301 31.4093 77.811 31.1933C79.321 30.9773 74.581 33.8493 74.145 35.8653C73.71 37.8813 71.975 39.4883 71.126 40.1523C70.276 40.8163 64.036 40.5273 62.644 40.1523C61.252 39.7773 55.795 37.7593 48.124 41.4723C40.453 45.1853 39.237 52.7153 40.073 58.5273C40.504 61.5253 28.96 60.6863 28.002 58.5273C27.044 56.3683 29.332 44.9983 34.181 39.6943C39.029 34.3903 47.406 28.1023 52.15 28.1023C56.894 28.1023 59.957 27.5273 62.127 25.9023C64.297 24.2773 65.087 23.0703 67.675 23.0703Z" fill="#007636"/>
<path fill-rule="evenodd" clip-rule="evenodd" d="M57.181 3.23047C56.535 4.21347 56.199 5.50549 55.025 5.96149C55.358 4.76049 56.275 3.37847 57.181 3.23047Z" fill="#604C3F"/>
<path fill-rule="evenodd" clip-rule="evenodd" d="M62.644 4.66895C62.101 5.46795 61.936 6.64393 60.919 6.96893C60.994 6.20993 61.722 5.04195 62.644 4.66895Z" fill="#604C3F"/>
<path fill-rule="evenodd" clip-rule="evenodd" d="M42.804 5.24414C43.386 5.51614 42.629 5.82914 42.517 6.10614C42.042 7.28714 41.546 9.22415 40.074 9.55615C41.109 8.24515 41.769 6.55614 42.804 5.24414Z" fill="#604C3F"/>
<path fill-rule="evenodd" clip-rule="evenodd" d="M40.504 6.8252C40.178 8.3682 38.956 10.2612 37.485 11.1392C38.56 9.76819 39.388 8.1532 40.504 6.8252Z" fill="#604C3F"/>
<path fill-rule="evenodd" clip-rule="evenodd" d="M67.964 6.8252C68.3 7.4352 67.535 8.8452 66.814 8.4072C67.294 7.9762 67.581 7.3542 67.964 6.8252Z" fill="#604C3F"/>
<path fill-rule="evenodd" clip-rule="evenodd" d="M38.348 8.2627C38.533 8.8207 37.87 9.96069 37.342 10.7057C36.823 11.4357 36.054 12.3337 35.329 12.5747C36.115 10.9167 37.509 9.8677 38.348 8.2627Z" fill="#604C3F"/>
<path fill-rule="evenodd" clip-rule="evenodd" d="M79.608 12.2881C78.297 13.8581 77.131 16.3231 74.864 16.4581C76.843 15.4651 77.552 13.2041 79.608 12.2881Z" fill="#604C3F"/>
<path fill-rule="evenodd" clip-rule="evenodd" d="M84.208 12.4307C84.046 13.7567 81.151 16.1877 80.183 14.8747C82.212 14.7477 82.778 13.1587 84.208 12.4307Z" fill="#604C3F"/>
<path fill-rule="evenodd" clip-rule="evenodd" d="M93.122 13.0068C92.724 14.6288 91.411 16.0769 89.96 16.1689C90.872 15.1169 92.249 14.5298 92.69 13.0068C92.835 13.0068 92.977 13.0068 93.122 13.0068Z" fill="#604C3F"/>
<path fill-rule="evenodd" clip-rule="evenodd" d="M76.015 13.582C74.947 15.246 73.956 16.988 72.132 17.895C73.522 16.65 74.53 14.255 76.015 13.582Z" fill="#604C3F"/>
<path fill-rule="evenodd" clip-rule="evenodd" d="M95.278 14.2998C94.868 15.6628 94.094 16.6628 92.977 17.3198C93.296 16.4228 94.157 14.8698 95.278 14.2998Z" fill="#604C3F"/>
<path fill-rule="evenodd" clip-rule="evenodd" d="M101.46 15.7393C101.811 17.2033 100.007 18.9732 98.585 19.6202C99.651 18.4342 100.837 17.3673 101.46 15.7393Z" fill="#604C3F"/>
<path fill-rule="evenodd" clip-rule="evenodd" d="M41.798 17.1758C43.24 17.5948 42.236 19.5288 42.661 20.6258C41.636 20.2138 42.163 18.2498 41.798 17.1758Z" fill="#604C3F"/>
<path fill-rule="evenodd" clip-rule="evenodd" d="M18.221 17.3203C18.074 19.5213 16.078 21.1193 14.771 22.6393C15.54 21.0603 17.21 19.1363 18.221 17.3203Z" fill="#604C3F"/>
<path fill-rule="evenodd" clip-rule="evenodd" d="M106.636 18.3262C106.827 18.3262 107.019 18.3262 107.21 18.3262C106.747 19.9242 105.704 20.9402 104.479 21.7772C105.077 20.5052 106.194 19.7532 106.636 18.3262Z" fill="#604C3F"/>
<path fill-rule="evenodd" clip-rule="evenodd" d="M52.293 19.9082C52.675 20.9632 52.315 22.5152 52.005 23.3582C51.644 22.8742 51.966 20.6552 52.293 19.9082Z" fill="#604C3F"/>
<path fill-rule="evenodd" clip-rule="evenodd" d="M80.327 24.9385C80.505 25.0015 80.622 25.1235 80.614 25.3705C79.323 26.2345 78.106 27.1745 76.301 27.5265C77.536 26.5565 79.087 25.9025 80.327 24.9385Z" fill="#604C3F"/>
<path fill-rule="evenodd" clip-rule="evenodd" d="M82.628 25.6592C82.804 25.7222 82.923 25.8432 82.915 26.0902C81.243 27.4882 77.995 28.0672 76.302 28.9652C76.372 28.2692 77.14 28.2702 77.308 27.6722C79.499 27.6472 81.052 26.7842 82.628 25.6592Z" fill="#604C3F"/>
<path fill-rule="evenodd" clip-rule="evenodd" d="M85.503 28.2458C84.347 29.1518 82.411 29.2748 81.478 30.4018C80.884 29.8798 81.99 29.6058 82.339 29.2518C82.933 28.6518 83.464 27.4648 84.353 27.3828C84.394 28.1428 83.675 28.1438 83.49 28.6768C84.72 28.1818 85.865 27.6008 86.654 26.6628C87.164 26.8498 87.176 26.9888 87.802 26.8078C88.115 27.1068 87.784 27.2718 87.659 27.5268C89.186 26.9278 90.118 25.7238 91.684 26.2328C91.661 26.3998 91.715 26.4888 91.829 26.5208C89.452 27.7868 86.731 28.7078 84.065 29.6828C84.251 28.9118 85.292 28.9948 85.503 28.2458Z" fill="#604C3F"/>
<path fill-rule="evenodd" clip-rule="evenodd" d="M65.951 26.2324C66.23 26.6074 65.109 27.1134 64.513 27.5264C63.883 27.9644 63.208 28.7884 62.5 28.3884C63.607 27.6274 64.595 26.7474 65.951 26.2324Z" fill="#604C3F"/>
<path fill-rule="evenodd" clip-rule="evenodd" d="M68.682 28.5332C68.38 29.2512 66.707 30.5682 65.807 30.6902C66.468 29.6742 67.869 29.3972 68.682 28.5332Z" fill="#604C3F"/>
<path fill-rule="evenodd" clip-rule="evenodd" d="M71.845 34.4268C71.039 35.7308 68.734 36.7778 67.101 37.7338C68.489 36.4378 70.363 35.6288 71.845 34.4268Z" fill="#604C3F"/>
<path fill-rule="evenodd" clip-rule="evenodd" d="M71.414 37.1592C70.429 37.9462 69.346 38.6362 68.107 39.1722C68.914 38.2052 70.075 37.5932 71.414 37.1592Z" fill="#604C3F"/>
<path fill-rule="evenodd" clip-rule="evenodd" d="M48.556 38.5957C47.199 39.8767 46.124 41.4367 44.099 42.0467C42.531 43.0237 41.355 45.1417 39.642 45.4967C39.874 44.5967 40.677 44.5497 40.361 43.7707C43.482 42.4367 45.582 40.0807 48.556 38.5957Z" fill="#604C3F"/>
<path fill-rule="evenodd" clip-rule="evenodd" d="M74.145 41.1846C74.159 41.8706 73.045 42.6706 71.989 42.7656C72.517 42.0466 73.585 41.8696 74.145 41.1846Z" fill="#604C3F"/>
<path fill-rule="evenodd" clip-rule="evenodd" d="M70.551 41.4717C69.538 42.8067 68.222 43.8387 66.669 44.6337C68.007 43.6247 69.04 42.3087 70.551 41.4717Z" fill="#604C3F"/>
<path fill-rule="evenodd" clip-rule="evenodd" d="M75.727 41.4717C75.963 42.4777 73.932 42.4547 73.569 43.3397C73.395 42.3977 75.169 42.1627 75.727 41.4717Z" fill="#604C3F"/>
<path fill-rule="evenodd" clip-rule="evenodd" d="M66.669 41.6162C65.72 43.2552 63.974 44.8632 62.644 45.6412C64.068 44.3812 65.123 42.7522 66.669 41.6162Z" fill="#604C3F"/>
<path fill-rule="evenodd" clip-rule="evenodd" d="M79.895 42.4775C78.583 43.5135 77.495 44.7735 75.727 45.3535C77.067 44.3445 78.237 43.1675 79.895 42.4775Z" fill="#604C3F"/>
<path fill-rule="evenodd" clip-rule="evenodd" d="M52.15 43.1982C51.576 43.9652 50.984 44.7152 49.994 45.0672C50.558 44.2902 51.352 43.7412 52.15 43.1982Z" fill="#604C3F"/>
<path fill-rule="evenodd" clip-rule="evenodd" d="M66.957 43.1982C66.546 43.6982 66.133 44.1953 65.231 44.2043C65.587 43.6483 66.297 43.4482 66.957 43.1982Z" fill="#604C3F"/>
<path fill-rule="evenodd" clip-rule="evenodd" d="M54.738 45.0668C55.32 44.2598 56.53 44.0788 57.181 43.3398C57.611 44.0678 55.787 44.8738 54.738 45.0668Z" fill="#604C3F"/>
<path fill-rule="evenodd" clip-rule="evenodd" d="M54.881 43.6279C55.328 43.9259 53.947 44.7729 53.731 45.3539C52.999 45.0579 52.927 45.6349 52.15 45.6409C52.926 44.8359 54.228 44.5569 54.881 43.6279Z" fill="#604C3F"/>
<path fill-rule="evenodd" clip-rule="evenodd" d="M53.156 43.7715C52.717 44.4585 51.642 45.1985 50.855 45.0665C51.554 44.5665 52.185 43.9995 53.156 43.7715Z" fill="#604C3F"/>
<path fill-rule="evenodd" clip-rule="evenodd" d="M58.475 44.0586C58.807 44.4686 57.375 45.5256 56.607 45.7846C56.98 44.9596 57.83 44.6106 58.475 44.0586Z" fill="#604C3F"/>
<path fill-rule="evenodd" clip-rule="evenodd" d="M75.727 44.0586C75.573 44.3846 75.29 44.5816 74.864 44.6336C74.952 44.2436 75.259 44.0716 75.727 44.0586Z" fill="#604C3F"/>
<path fill-rule="evenodd" clip-rule="evenodd" d="M60.631 44.3467C60.489 45.1637 58.971 45.8487 57.9 46.2157C58.717 45.4997 59.816 45.0637 60.631 44.3467Z" fill="#604C3F"/>
<path fill-rule="evenodd" clip-rule="evenodd" d="M57.613 46.5029C57.377 46.7939 57.133 47.0759 56.607 47.0779C56.786 46.7309 57.196 46.6139 57.613 46.5029Z" fill="#604C3F"/>
<path fill-rule="evenodd" clip-rule="evenodd" d="M38.205 50.0977C38.75 50.3067 37.972 51.1667 37.486 51.2477C37.451 51.0917 37.2 51.1507 37.199 50.9607C37.228 50.3677 38.093 50.6087 38.205 50.0977Z" fill="#604C3F"/>
<path fill-rule="evenodd" clip-rule="evenodd" d="M6.14496 51.9665C6.31296 51.9425 6.40098 51.9975 6.43298 52.1095C5.77198 54.3715 4.54596 56.0685 3.41296 57.8595C3.87896 56.0255 5.68196 54.2825 6.14496 51.9665Z" fill="#604C3F"/>
<path fill-rule="evenodd" clip-rule="evenodd" d="M115.118 63.6116C115.35 63.5706 115.364 63.7476 115.55 63.7556C115.232 64.2046 115.177 64.9176 114.542 65.0496C114.528 64.3636 115.097 64.2616 115.118 63.6116Z" fill="#604C3F"/>
<path fill-rule="evenodd" clip-rule="evenodd" d="M113.536 69.6494C113.679 70.1304 113.044 71.0704 112.53 71.3754C112.821 70.7544 113.185 70.2084 113.536 69.6494Z" fill="#604C3F"/>
<path fill-rule="evenodd" clip-rule="evenodd" d="M46.687 81.7261C45.611 83.2291 43.983 84.2091 42.662 85.4631C41.34 86.7171 40.271 88.2761 38.637 89.2011C40.84 86.3731 43.531 84.0311 46.112 81.5821C46.412 81.5211 46.492 81.6801 46.687 81.7261Z" fill="#604C3F"/>
<path fill-rule="evenodd" clip-rule="evenodd" d="M46.111 85.8945C45.922 87.1735 44.664 87.4355 43.812 88.0505C42.63 88.9035 41.377 89.8955 40.361 90.9265C39.324 91.9775 38.673 93.3025 37.486 94.2325C39.207 90.3935 43.048 88.6766 45.68 85.7516C45.913 85.7096 45.927 85.8865 46.111 85.8945Z" fill="#604C3F"/>
<path fill-rule="evenodd" clip-rule="evenodd" d="M46.399 88.4824C46.011 90.0374 44.448 90.7974 43.381 91.6444C42.236 92.5544 41.277 93.5985 40.074 94.3765C39.824 95.0865 39.135 95.3545 38.78 95.9585C40.188 92.9575 43.927 91.0414 46.111 88.3384C46.279 88.3144 46.367 88.3714 46.399 88.4824Z" fill="#604C3F"/>
<path fill-rule="evenodd" clip-rule="evenodd" d="M46.974 91.3574C47.31 92.3904 46.054 92.9784 45.393 93.5134C44.685 94.0864 43.886 94.8064 43.092 95.0944C41.749 96.5794 39.812 98.2344 38.491 99.2634C40.966 96.2764 43.935 93.7824 46.974 91.3574Z" fill="#604C3F"/>
<path fill-rule="evenodd" clip-rule="evenodd" d="M101.892 94.377C102.056 94.726 100.8 95.9509 100.167 96.5339C99.663 96.9979 99.038 97.4039 98.585 97.6839C99.415 96.3089 100.89 95.581 101.892 94.377Z" fill="#604C3F"/>
<path fill-rule="evenodd" clip-rule="evenodd" d="M48.124 94.6646C47.035 96.7836 44.829 97.9246 43.092 99.4086C41.665 100.627 40.55 102.128 39.068 103.29C41.352 99.7766 45.006 97.6326 47.693 94.5206C47.925 94.4806 47.941 94.6566 48.124 94.6646Z" fill="#604C3F"/>
<path fill-rule="evenodd" clip-rule="evenodd" d="M48.124 98.1143C48.313 98.1653 48.351 98.3682 48.556 98.4012C45.579 102.135 40.672 103.935 37.917 107.888C37.985 107.064 38.665 106.281 39.21 105.732C41.739 103.19 45.513 101.253 47.693 98.2572C47.897 98.2712 48.1 98.2813 48.124 98.1143Z" fill="#604C3F"/>
<path fill-rule="evenodd" clip-rule="evenodd" d="M47.693 104.007C47.084 105.33 45.718 106.123 44.673 107.026C42.703 108.731 40.527 110.163 38.923 112.344C40.48 108.966 44.663 106.968 46.974 103.864C47.307 103.818 47.526 103.888 47.693 104.007Z" fill="#604C3F"/>
<path fill-rule="evenodd" clip-rule="evenodd" d="M47.98 107.024C48.109 107.088 48.238 107.151 48.268 107.312C47.352 109.173 45.204 109.846 43.667 111.049C42.085 112.286 40.591 113.563 39.067 114.786C38.916 114.272 39.965 113.48 40.647 112.917C42.692 111.232 45.256 109.404 47.405 107.887C47.499 107.502 47.818 107.341 47.98 107.024Z" fill="#604C3F"/>
<path fill-rule="evenodd" clip-rule="evenodd" d="M47.98 110.764C48.158 111.846 46.787 112.411 46.111 112.919C43.857 114.619 41.597 116.867 39.211 118.525C41.908 115.711 44.814 113.106 47.98 110.764Z" fill="#604C3F"/>
<path fill-rule="evenodd" clip-rule="evenodd" d="M47.837 114.5C48.025 114.551 48.063 114.753 48.268 114.788C46.814 116.683 44.577 117.853 42.661 119.244C40.683 120.678 38.896 122.162 37.054 123.699C39.856 119.842 44.513 117.838 47.837 114.5Z" fill="#604C3F"/>
<path fill-rule="evenodd" clip-rule="evenodd" d="M47.406 118.669C47.383 119.917 45.983 120.45 45.105 121.112C42.984 122.712 40.998 124.579 39.21 126.573C41.114 123.206 44.412 121.233 46.974 118.524C47.089 118.601 47.207 118.675 47.406 118.669Z" fill="#604C3F"/>
<path fill-rule="evenodd" clip-rule="evenodd" d="M20.522 121.688C20.996 122.798 19.076 123.967 18.509 124.995C18.673 123.385 20.214 123.151 20.522 121.688Z" fill="#604C3F"/>
<path fill-rule="evenodd" clip-rule="evenodd" d="M47.837 122.838C46.921 124.729 44.702 125.485 43.092 126.719C42.323 127.307 41.566 128.004 41.079 128.875C43.752 128.529 45.374 125.887 47.692 124.707C47.795 125.773 46.338 126.486 45.392 127.15C44.073 128.074 42.85 128.992 41.078 129.451C40.617 129.576 40.78 129.078 40.503 129.019C39.919 129.212 40.473 129.386 40.503 129.738C39.209 130.408 38.137 131.301 37.341 132.468C39.405 128.493 43.94 125.745 47.405 122.693C47.638 122.654 47.653 122.83 47.837 122.838Z" fill="#604C3F"/>
<path fill-rule="evenodd" clip-rule="evenodd" d="M35.33 127.727C34.596 129.915 32.461 131.948 30.299 133.188C30.728 131.75 32.248 131.401 33.174 130.457C33.81 129.465 34.665 128.691 35.33 127.727Z" fill="#604C3F"/>
<path fill-rule="evenodd" clip-rule="evenodd" d="M33.46 128.442C32.708 130.04 30.281 131.206 29.003 132.756C29.515 130.919 32.217 130.028 33.46 128.442Z" fill="#604C3F"/>
<path fill-rule="evenodd" clip-rule="evenodd" d="M65.807 132.325C66.175 132.319 65.982 132.432 65.951 132.612C64.385 134.303 63.6 136.778 61.063 137.499C62.635 135.767 64.62 134.444 65.807 132.325Z" fill="#604C3F"/>
<path fill-rule="evenodd" clip-rule="evenodd" d="M70.408 132.613C70.041 134.449 68.424 136.283 66.67 137.213C67.501 135.84 69.447 134.336 70.408 132.613Z" fill="#604C3F"/>
<path fill-rule="evenodd" clip-rule="evenodd" d="M81.333 133.188C81.558 133.676 80.304 135.111 79.608 135.63C80.032 134.667 80.852 134.098 81.333 133.188Z" fill="#604C3F"/>
<path fill-rule="evenodd" clip-rule="evenodd" d="M119.718 46.0718C119.386 34.2989 115.294 23.9368 108.505 17.4638C106.437 16.3178 104.222 15.2719 101.892 14.1569C99.619 13.0699 96.763 11.7409 94.415 11.2819C92.72 10.9509 86.243 10.1518 84.927 10.1318C81.859 10.0858 79.066 10.9049 76.015 11.4259C74.544 9.54285 74.001 8.26386 71.127 6.25086C69.553 5.18787 67.648 4.45786 66.096 3.37486C63.207 2.06986 59.768 0.847845 56.176 0.786845C54.936 0.765845 53.494 1.21486 52.151 1.36286C48.051 1.81086 43.314 2.55187 40.505 4.38087C39.234 5.20787 38.017 6.42485 36.911 7.39985C34.97 9.11085 33.519 11.4559 32.455 13.7259C32.076 13.7679 32.26 14.3459 31.735 14.4449C25.644 14.3639 19.545 13.5988 15.346 16.3128C14.482 16.8718 13.638 17.7078 12.759 18.3258C9.95001 20.2998 7.45502 22.5398 5.57102 25.2268C3.07302 28.7858 1.321 34.0449 0.968997 39.4589C0.845997 41.3749 1.552 51.2899 1.401 51.9669C1.19 59.4529 3.377 65.7768 3.845 72.0928C5.125 76.8518 6.058 82.0699 7.439 87.3319C7.861 88.9379 8.68999 90.5399 9.01999 92.2199C9.52599 94.7919 10.073 97.3879 10.602 99.9829C11.461 104.192 11.464 108.238 12.615 112.2C13.771 116.181 14.595 120.947 16.209 124.275C16.981 125.865 18.846 128.728 19.947 129.881C20.616 130.584 22.029 131.088 22.967 131.895C23.622 132.459 23.885 133.176 24.547 133.477C25.904 134.086 27.397 133.961 28.43 135.202C31.443 135.352 34.897 134.417 37.774 134.483C40.528 132.358 45.473 133.03 48.701 134.196C55.356 139.026 65.797 141.493 76.159 140.52C76.477 140.825 76.589 140.518 77.309 140.52C89.247 138.514 97.008 132.329 100.168 121.543C103.225 119.014 106.613 116.146 108.506 111.914C110.016 108.532 114.354 92.6849 114.688 91.2129C115.098 89.4059 116.137 84.2909 116.27 83.5949C118.519 71.7319 120.083 59.0149 119.718 46.0718ZM74.288 11.7129C73.29 12.9659 71.792 13.7198 70.839 15.0198C70.474 14.4848 72.024 13.4439 71.989 12.2879C72.778 12.0409 73.63 10.3929 74.288 11.7129ZM40.504 6.10585C42.097 5.34985 43.497 4.40285 45.536 4.09285C44.466 5.65685 43.19 7.01885 42.086 8.54985C43.901 7.77685 45.179 5.22185 46.83 3.80485C47.034 4.95685 45.048 6.70286 44.673 8.26286C46.939 7.07786 46.348 3.03585 49.993 3.23085C48.788 4.23085 47.973 5.62086 47.261 7.11286C48.349 6.42586 49.472 4.53187 50.281 3.08787C50.996 3.13187 51.599 3.06486 52.15 2.94386C51.492 4.20286 50.817 5.44385 49.562 6.10585C49.595 6.31285 49.992 6.15587 49.994 6.39387C51.859 5.18187 52.601 2.11486 55.312 2.22386C55.41 3.32886 53.544 3.71386 53.443 5.09886C52.929 4.65786 52.65 5.36986 52.582 5.81886C54.092 4.98086 55.279 3.81985 56.176 2.36885C57.404 2.43385 58.364 2.76687 59.338 3.08787C59.029 4.64687 57.658 5.14585 57.038 6.39485C58.416 6.18085 59.246 4.20285 60.345 3.23185C60.997 3.15485 61.205 3.52086 61.639 3.66386C61.271 5.02086 60.075 5.54887 59.483 6.68287C60.94 6.79687 61.507 4.77886 62.358 3.80686C63.095 4.02886 63.674 4.40787 64.514 4.52687C64.487 5.69787 63.5 5.90885 63.22 6.82685C64.054 7.03585 64.71 5.82686 64.801 4.81486C65.404 4.73886 65.605 5.06487 66.096 5.10087C65.957 6.01687 65.505 6.62085 64.946 7.11485C65.909 7.55885 66.159 6.15185 66.527 5.53385C67.708 6.02885 69.019 6.39587 69.69 7.40187C69.81 8.60087 68.235 8.78986 68.54 9.70286C69.232 9.19686 69.797 8.56287 70.265 7.83387C71.084 8.11687 71.392 8.91187 71.991 9.41487C71.369 10.5179 70.398 11.2729 69.546 12.1469C70.925 12.3809 71.665 10.0959 72.852 10.1329C73.383 11.0949 72.303 11.3699 71.846 11.8589C70.483 13.3159 69.866 15.6738 69.115 17.7528C68.067 18.5268 67.622 19.9009 67.247 21.3479C66.009 21.7879 66.183 23.6388 64.946 24.0798C66.053 22.4068 66.955 20.5298 67.966 18.7608C68.173 16.7738 70.12 15.1208 69.691 13.4418C68.968 15.0678 68.044 16.4929 67.39 18.1859C66.925 18.3639 67.281 17.7208 66.816 17.8988C66.408 18.4488 66.307 19.3069 66.097 20.0549C65.747 19.9719 66.163 19.1239 65.665 19.1929C64.99 21.5369 64.167 23.7328 62.645 25.2308C62.071 25.0768 62.585 24.0759 63.077 24.5119C63.65 22.9769 64.175 21.3919 64.946 20.0549C65.007 19.8239 64.41 19.5729 64.371 19.9109C63.954 19.5759 64.641 19.1369 64.515 18.6169C63.212 19.8529 62.863 22.0449 62.215 23.9359C61.786 23.8369 62.462 22.6349 61.64 22.9299C62.081 21.6449 62.943 20.7829 63.221 19.3349C62.076 20.0699 60.766 23.2219 61.065 24.9409C60.994 25.5409 60.464 25.6828 59.915 25.8038C59.903 24.6898 60.666 24.3498 60.49 23.0718C59.424 23.5998 59.84 26.3348 58.621 26.2348C59.586 23.3998 60.504 21.2349 61.496 18.6159C60.82 18.8549 60.476 19.7908 60.203 20.4848C59.476 22.3268 59.062 25.3079 57.328 26.5229C56.945 25.9519 57.996 25.0819 57.615 24.5099C56.66 24.6099 57.23 26.2339 56.321 26.3778C56.668 24.4658 57.767 22.5619 57.328 20.3409C56.902 21.1149 56.635 22.8078 56.609 23.5028C56.574 23.8729 56.361 23.3058 56.033 23.5028C55.611 24.3268 55.32 25.2808 55.171 26.3778C54.899 26.5368 54.492 26.5619 54.164 26.6649C55.854 23.9589 55.315 22.1859 56.465 18.7589C56.509 18.4279 56.05 18.5999 56.033 18.3269C56.04 17.8539 56.276 17.6118 56.178 17.0328C55.028 17.7038 55.367 19.8648 55.028 21.3468C54.538 22.1978 54.317 23.3199 54.165 24.5099C53.362 24.7389 54.109 23.4158 53.446 23.5028C52.757 24.7789 52.825 26.8109 51.434 27.3849C52.809 23.3679 54.879 19.8839 55.891 15.1649C55.239 15.0879 55.555 15.9789 55.315 16.3139C54.837 15.9979 54.555 14.3928 54.453 13.7268C53.655 14.2698 53.806 15.7619 53.159 16.4579C52.61 15.7749 53.499 14.0368 52.872 13.7268C52.067 14.5518 52.198 16.3118 51.722 17.4638C52.331 17.4978 51.976 16.5678 52.585 16.6018C52.357 16.9698 52.722 17.7399 52.585 18.4709C53.112 18.2799 52.748 17.1969 53.591 17.3209C53.599 21.3179 52.136 23.9179 51.003 27.0959C50.559 27.2269 50.616 27.8589 49.997 27.8149C50.026 27.0849 51.356 25.6569 50.284 25.2279C50.333 24.7589 51.046 24.4809 50.571 23.9338C49.317 24.6918 48.862 26.2499 47.983 27.3839C46.696 26.3229 48.376 24.3179 47.552 23.0709C46.717 23.8659 47.307 26.0849 46.545 26.9529C46.121 25.6299 46.565 23.1468 46.113 21.4898C45.813 21.1768 45.703 21.5618 45.252 21.4898C45.141 21.1698 45.168 20.7099 44.82 20.6278C44.121 21.8958 45.326 23.6359 45.539 24.9399C43.572 24.0319 44.391 21.2128 43.67 19.0458C42.715 19.5218 43.884 21.3508 43.815 22.3518C42.809 22.3488 42.292 20.6179 41.227 20.1959C41.051 19.0549 40.838 17.4079 40.22 16.3139C38.768 16.3379 39.768 17.5988 39.645 18.6148C38.555 17.7868 37.219 17.2059 37.202 15.3079C37.352 14.5999 37.747 15.8298 38.064 15.8818C38.278 15.2348 37.325 14.5159 36.77 14.1569C36.088 14.8729 36.993 15.6349 36.77 16.7449C34.589 16.8469 36.204 13.6699 34.757 13.2949C35.432 9.65887 38.498 8.41285 40.504 6.10585ZM73.282 27.3829C73.024 27.4009 72.979 27.2069 72.708 27.2389C72.675 26.7259 72.915 26.4858 73.427 26.5198C73.53 26.9598 73.179 26.9439 73.282 27.3829ZM76.302 30.5458C76.476 31.2658 76.999 31.2609 76.734 32.1269C74.238 33.0829 73.927 36.2219 71.702 37.4459C72.435 38.3119 70.772 38.7838 70.552 39.6018C67.813 39.6749 65.346 40.7729 63.652 39.6018C63.798 39.1248 64.448 39.1519 64.371 38.4529C63.778 38.1989 63.29 39.2848 62.79 39.6018C62.124 39.5488 61.889 39.0649 61.064 39.1699C61.334 38.4339 62.227 38.3198 62.502 37.5888C61.243 37.8038 60.253 39.1559 58.189 38.7389C58.927 37.8949 60.098 37.4859 60.92 36.7249C59.434 36.2739 58.041 38.3299 56.463 38.7389C56.121 37.5179 58.213 37.6589 58.619 36.7249C57.098 36.8319 56.576 37.9409 55.169 38.1629C55.625 37.3249 56.766 37.1719 57.038 36.1499C56.546 35.9239 55.433 37.7689 55.025 37.1559C54.437 38.0539 52.463 37.5659 52.437 39.0249C52.841 39.4129 53.027 38.7698 53.587 38.8818C52.522 39.6878 50.591 39.6239 49.274 40.1759C50.06 39.2849 51.175 38.7229 51.861 37.7319C50.699 37.9129 49.575 39.3739 48.267 39.8879V40.6069C44.647 42.0669 41.987 44.4869 39.496 47.0769C39.351 47.5099 39.817 47.3318 40.072 47.3648C39.818 48.4389 38.322 47.9299 38.203 49.3769C38.842 49.2499 38.931 48.5709 39.353 48.2279C39.435 49.9399 39.101 52.4799 37.771 53.2589C38.046 53.7069 38.396 53.0338 38.778 53.1148C38.783 54.3528 39.122 54.6248 38.921 55.8468C38.476 56.2158 37.659 56.2129 37.483 56.8529C38.124 57.3899 38.301 56.2388 39.065 56.4208C38.95 56.9198 39.278 56.9739 39.207 57.4279C38.381 57.5589 37.793 57.9289 37.195 58.2889C37.762 59.0599 38.349 57.7189 39.207 57.8579C39.256 59.4009 37.676 58.8369 37.195 59.5829C37.574 60.3259 38.131 59.3259 38.776 59.4399C38.755 60.0419 38.131 60.0409 37.769 60.3019C35.171 59.5449 31.601 59.7609 28.999 59.0079C29.47 58.3129 30.231 57.5249 29.718 56.2769C28.978 56.3979 28.997 57.2809 28.28 57.4269C27.882 57.1109 28.735 56.8379 28.712 56.4199C28.579 56.4119 28.451 56.4088 28.368 56.4508C29.102 55.5288 30.181 53.8809 30.868 52.5379C29.795 52.4739 29.479 54.4069 28.28 54.6939C28.712 52.9679 30.419 52.5198 30.868 50.8128C29.701 51.0358 29.742 52.4658 28.712 52.8258C29.161 50.3038 31.679 49.8499 32.593 47.7939C31.333 48.1629 30.993 49.4529 30.005 50.0949C30.193 48.7469 32.161 47.9379 32.737 46.4999C32.589 46.2239 32.167 46.8779 32.018 47.0749C31.823 47.0299 31.899 46.7149 31.873 46.4999C31.518 46.6719 31.312 46.9919 31.154 47.3629C31.14 46.4509 31.963 45.6808 32.592 45.0628C34.027 43.6498 35.238 42.0279 36.187 40.1739C35.165 40.6399 34.288 42.4908 33.311 43.4808C34.599 40.5018 37.458 37.8509 39.924 35.5739C38.949 36.9949 37.586 38.0269 36.762 39.5989C38.74 37.7439 40.75 35.9189 42.657 33.9929C42.555 33.5509 42.555 33.7169 42.657 33.2729C43.772 33.0009 44.401 32.2389 45.389 31.8359C44.652 33.0159 43.447 33.7279 42.513 34.7109C45.464 33.5879 47.427 30.2318 50.995 29.2478C50.262 30.3838 48.59 30.5799 47.833 31.6909C50.572 30.8809 51.802 28.1339 55.021 28.2409C53.613 29.4199 51.877 30.2719 49.99 30.9729C50.974 31.1159 52.167 30.6589 53.152 30.2539C54.575 29.6689 55.749 28.2779 56.89 28.0979C58.242 27.8819 58.908 29.0558 60.34 28.8168C60.577 27.9088 59.886 27.9279 59.908 27.2359C62.57 26.4839 64.928 25.0268 67.241 24.3598C70.943 25.7458 72.196 29.5708 76.302 30.5458ZM74.577 26.6639C74.442 27.1999 74.505 27.9359 74.145 28.2459C73.345 27.9869 73.917 26.7359 74.577 26.6639ZM75.727 37.5899C74.46 38.1439 73.522 39.0289 72.276 39.6029C73.042 38.2899 73.653 37.3379 75.727 37.5899ZM57.756 41.4718C58.496 41.0138 59.012 40.3309 60.056 40.1779C59.73 41.0489 58.908 41.4248 57.756 41.4718ZM59.913 42.4779C59.617 42.3909 58.915 42.7099 59.051 42.1899C59.346 42.2779 60.048 41.9589 59.913 42.4779ZM58.188 40.0349C58.14 40.8139 57.466 40.5699 57.038 40.3218C55.623 40.6628 54.921 42.0489 53.443 41.9039C55.205 41.4599 55.758 39.8099 58.188 40.0349ZM54.019 39.0279C54.109 38.5439 54.507 38.3658 55.025 38.3088C55.002 38.4758 55.056 38.5649 55.169 38.5959C54.925 38.8799 54.499 38.9829 54.019 39.0279ZM53.156 41.4718C52.582 42.0918 50.97 41.5228 50.136 41.4718C51.017 40.8318 52.263 40.8498 53.156 41.4718ZM45.537 43.7719C44.504 44.6569 43.433 45.5018 42.374 46.3598C42.662 45.3038 44.232 44.2899 45.537 43.7719ZM37.486 61.5989C36.919 62.0639 35.869 62.7239 35.185 62.6049C35.764 62.1509 36.686 61.3629 37.486 61.5989ZM40.648 35.4338C40.552 34.1879 41.894 34.3789 42.23 33.5649C42.3 34.2129 41.181 34.9088 40.648 35.4338ZM45.824 31.4089C46.231 31.1929 46.489 30.8279 47.119 30.8339C46.844 31.3199 46.443 31.6819 45.966 31.9649C45.966 31.9719 45.969 31.9769 45.969 31.9829C45.958 31.9819 45.947 31.9829 45.936 31.9819C45.852 32.0319 45.77 32.0838 45.681 32.1278C45.432 32.0229 45.732 31.9779 45.936 31.9819C45.946 31.9759 45.957 31.9699 45.966 31.9649C45.972 31.7259 45.792 31.6719 45.824 31.4089ZM46.831 29.1089C46.983 28.4939 47.578 28.3219 47.98 27.9589C48.338 28.5139 47.435 29.0379 46.831 29.1089ZM49.849 25.3709C50.71 26.3089 49.054 27.1429 49.13 28.2459C48.529 27.0179 49.527 26.1529 49.849 25.3709ZM52.724 26.8079C52.869 25.9939 53.4 25.5669 53.587 24.7939C53.905 24.7159 53.792 25.0689 54.019 25.0819C53.619 25.6249 53.451 27.0599 52.724 26.8079ZM67.675 23.0699C67.45 22.5029 68.193 21.8058 68.395 21.2008C68.82 21.5548 68.617 23.1889 67.675 23.0699ZM66.669 19.6199C67.032 19.8999 66.59 20.5859 66.526 20.9139C66.197 20.6679 66.76 20.1039 66.669 19.6199ZM63.794 20.9139C64.028 21.2989 63.519 22.1679 63.219 22.4949C62.9 22.0259 63.634 21.3819 63.794 20.9139ZM55.025 16.4579C55.398 16.6579 54.919 17.2018 54.881 17.4638C54.471 17.2268 54.951 16.6829 55.025 16.4579ZM40.217 18.1819C40.665 18.2609 40.438 19.0159 40.648 19.3319C40.113 19.3399 40.234 18.6929 40.217 18.1819ZM34.466 14.1569C35.189 14.3449 34.778 15.6669 35.185 16.1699C34.892 16.0329 34.617 15.8759 34.323 15.7389C34.371 15.2099 34.201 14.4649 34.466 14.1569ZM33.604 14.4449C33.81 14.6219 33.876 14.9389 33.892 15.3069C33.083 15.4219 33.373 14.7529 33.604 14.4449ZM89.384 133.762C89.194 134.821 88.181 136.297 86.366 136.207C87.122 135.096 87.973 134.078 88.665 132.9C86.954 134.304 85.995 136.459 83.921 137.5C85.009 136.416 85.605 134.885 86.653 133.762C87.497 132.858 88.821 132.719 89.671 131.75C89.71 133.037 88.192 134.008 87.659 135.201C88.573 135.633 88.821 134.162 89.384 133.762ZM94.272 130.457C92.655 131.572 91.733 133.383 90.102 134.482C91.018 132.236 92.874 129.681 94.704 127.869C94.919 128.49 93.675 129.428 94.272 130.457ZM89.815 132.758C90.206 131.709 90.655 130.721 91.829 130.457C91.327 131.393 90.847 132.352 89.815 132.758ZM95.852 128.588C95.405 128.313 96.079 127.963 95.997 127.582C96.698 127.666 95.942 128.377 95.852 128.588ZM95.997 126.432C95.976 125.547 96.477 125.186 96.86 124.707C97.093 125.231 96.397 126.063 95.997 126.432ZM96.284 127.295C96.571 126.334 97.136 125.652 97.579 124.85C97.817 125.213 97.12 127.055 96.284 127.295ZM101.604 111.77C101.481 112.317 101.213 112.721 101.317 113.495C99.2 115.786 96.967 117.962 94.846 120.251C96.778 118.972 98.953 116.691 100.596 114.645C100.899 115.357 100.19 116.232 100.741 116.945C100.456 117.185 100.559 116.933 100.167 116.945C98.61 119.799 95.479 121.076 93.696 123.701C95.872 121.469 98.782 119.97 100.454 117.234C100.94 118.107 99.886 118.675 99.88 119.533C97.579 121.402 95.421 123.412 93.409 125.57C95.163 124.543 96.93 122.287 98.872 120.97C98.985 121.609 98.681 121.831 98.729 122.408C96.432 125.142 93.354 127.096 90.678 129.453C92.52 128.515 93.926 127.14 95.565 126.002C95.764 126.436 95.348 126.91 95.135 127.152C93.473 129.017 90.582 130.341 88.809 132.183C88.325 132.001 88.047 132.746 87.801 132.328C85.574 134.269 84.416 137.279 81.477 138.51C82.077 137.096 83.159 136.166 83.92 134.916C82.182 135.908 81.49 139.193 78.313 139.229C79.377 137.37 81.151 136.219 82.338 134.485C81.793 134.561 81.654 135.046 81.477 135.491C79.376 136.27 78.809 139.335 76.444 139.372C77.403 138.175 78.651 137.267 79.464 135.923C77.88 136.298 77.267 138.821 75.439 139.517C73.127 140.398 70.642 139.202 68.107 139.517C70.142 137.335 72.126 135.101 73.859 132.617C71.9 134.541 69.628 137.396 67.389 139.517C64.497 139.199 61.841 138.644 59.338 137.935C61.291 136.103 62.185 133.21 64.082 131.324C61.792 132.531 60.998 136.48 58.332 137.793C57.795 137.418 56.865 137.437 56.463 136.93C56.941 135.444 57.897 134.436 58.764 133.336C57.451 133.654 56.846 135.922 55.457 136.643C54.984 136.252 54.203 136.17 53.875 135.635C54.806 134.602 55.522 133.354 56.319 132.186C55.154 132.768 53.945 136.651 51.719 134.487C52.427 132.751 54.117 131.997 54.882 130.317C53.753 130.674 53.778 132.184 52.582 132.473C53.081 131.344 53.755 130.389 54.02 129.024C52.956 130.739 52.176 132.739 50.713 134.055C50.029 133.924 49.752 133.387 48.987 133.336C49.679 131.393 50.896 129.973 51.575 128.016C50.223 129.395 49.642 131.547 48.268 132.905C47.744 132.999 47.502 132.807 47.261 132.618C48.332 130.86 50.064 129.766 50.855 127.731C49.595 129.344 48.177 130.801 46.831 132.331C46.121 132.368 45.908 131.911 45.25 131.899C45.928 130.325 46.912 129.057 47.693 127.586C46.477 128.383 45.734 130.897 44.243 131.899C40.46 131.383 38.308 133.077 35.042 133.481C35.65 132.124 36.723 131.231 37.63 130.172C35.9 131.031 35.358 133.076 33.461 133.766C33.859 132.098 36.004 130.95 36.768 129.166C35.221 130.543 33.715 131.961 32.598 133.766C30.657 134.075 27.899 134.098 26.991 132.905C27.672 131.716 28.738 130.913 29.58 129.886C28.039 130.415 27.465 132.65 25.697 132.474C25.855 130.849 27.544 129.535 28.285 128.017C26.922 129.146 25.965 130.681 24.978 132.187C24.174 131.746 23.427 131.248 23.109 130.318C24.297 128.582 25.82 127.183 26.704 125.142C25.178 126.06 24.118 128.691 22.679 130.173C21.709 130.185 21.568 129.368 20.81 129.167C22.172 128.232 22.945 126.702 23.685 125.142C22.746 125.835 21.805 127.767 20.81 128.88C18.434 126.982 22.871 123.325 23.685 121.548C22.053 122.552 20.71 125.091 19.516 127.011C18.545 126.161 18.358 124.527 17.36 123.704C18.133 122.534 18.383 121.725 18.942 120.399C17.914 120.76 18.125 122.36 17.073 122.698C15.476 120.729 17.576 118.76 18.079 116.805C17.072 117.571 17.145 119.416 15.923 119.967C16.001 118.524 14.848 117.871 15.06 116.805C15.188 116.166 15.613 116.448 16.067 115.942C16.861 115.059 17.226 113.31 17.648 112.061C16.755 113.468 16.413 115.424 14.773 116.086C14.429 114.801 14.107 113.493 13.767 112.204C15.612 110.504 16.42 107.766 17.648 105.449C16.267 107.469 15.434 110.037 13.623 111.629C12.752 108.87 15.076 107.384 15.779 105.305C14.616 106.202 14.265 107.911 13.049 108.755C11.973 105.233 13.246 102.361 14.774 100.275C14.124 100.871 13.124 102.36 12.618 103.581C11.679 101.98 13.753 101.006 13.768 99.4128C13.057 99.3748 12.916 101.147 12.043 101.425C11.078 99.0788 12.296 97.1749 13.192 95.5319C12.294 96.0699 12.055 97.2698 11.467 98.1188C11.262 97.3178 10.859 96.7159 10.892 95.6758C12.5 95.0779 12.796 93.1709 13.336 91.5059C12.287 92.6129 12.339 94.8218 10.605 95.2438C9.19201 91.9608 12.571 91.1519 12.762 88.1989C12.057 89.6989 11.263 91.1099 10.173 92.2239C8.45801 89.9789 10.073 88.4478 10.892 86.4728C10.158 87.1768 9.93701 88.3938 9.02301 88.9168C9.21201 87.9878 8.40701 87.3018 8.44901 86.4728C8.52701 84.9228 10.396 83.7149 10.461 82.0169C9.745 83.1689 9.158 84.4519 8.306 85.4669C7.295 83.4539 7.08599 81.0928 8.59299 79.5718C7.99099 79.3578 7.89099 80.8818 7.15399 81.0108C7.04699 80.1608 6.83999 79.4068 6.57999 78.7098C7.89499 77.2458 9.11701 75.6889 9.74201 73.5349C8.57801 75.0059 8.004 77.0658 6.293 77.9909C5.385 75.0378 6.722 73.7139 7.586 71.5209C6.793 72.3099 6.72301 73.8209 5.71701 74.3969C5.05701 72.3649 5.013 70.0119 6.293 68.7899C5.641 68.9059 5.75001 69.7809 5.14301 69.9399C4.69001 69.3079 5.594 69.0128 5.43 68.2149C4.96599 68.0859 5.229 68.6829 4.999 68.7889C4.697 68.7449 4.485 67.8808 4.711 67.7828C6.734 66.6418 7.59799 64.3439 8.59299 62.1759C7.43499 63.9889 6.49 66.0159 4.711 67.2069C4.238 66.8169 4.36699 65.8259 4.13599 65.1939C5.69199 64.5929 6.34001 63.0849 6.86801 61.4559C6.11901 62.1449 5.606 64.3149 4.28 64.9059C2.895 62.8919 3.38501 60.5319 3.13101 58.0059C3.06001 57.3009 2.62401 56.6539 2.69901 56.1379C2.81501 55.3339 4.26001 53.4169 4.71201 52.5429C5.40601 51.2019 6.14399 50.1419 6.43799 48.8059C5.25599 50.8349 4.34501 53.1339 2.70001 54.6999C1.99801 50.5129 4.377 47.9078 5.719 44.9248C4.188 45.7948 3.93199 49.1709 2.41199 50.5309C2.18299 47.4729 3.68001 46.1438 5.00101 44.6358C4.10801 45.0248 3.546 46.2159 2.125 46.6499C1.299 43.1579 3.535 41.9759 4.569 39.6049C3.65 40.4109 3.31901 41.8049 2.26901 42.4799C2.23101 40.9099 2.242 39.3859 2.556 38.1679C4.429 37.0689 5.142 34.8119 6.581 33.2789C5.02 34.4019 4.12199 36.1879 2.84299 37.5919C2.47599 36.7889 3.579 36.2229 3.706 35.4359C3.128 35.3859 3.327 36.1119 2.987 36.2979C2.619 35.3529 3.50401 34.4209 3.99301 33.8539C4.41501 33.9759 3.80501 34.2159 3.99301 34.5739C5.33901 32.4689 6.774 30.4529 7.875 28.1039C6.165 29.8439 5.14399 32.2729 3.27399 33.8539C4.04199 29.3989 6.88701 27.0219 9.16901 24.0789C8.92101 23.8869 8.41 24.6559 8.163 24.9409C8.53 23.1529 10.643 21.8639 12.044 20.6289C11.132 22.9279 9.19 25.4408 7.443 27.3858C9.721 25.8248 11.628 23.1469 12.332 20.4859C13.461 19.8429 14.249 18.8559 15.494 18.3289C14.465 20.0319 13.537 21.8349 12.332 23.3609C14.08 22.4729 15.318 19.8318 16.213 17.6098C17.619 16.6678 19.533 16.2349 21.389 15.7419C21.687 16.2149 20.983 16.9688 20.527 17.6098C19.883 18.5128 19.153 19.3288 18.37 20.0538C17.907 20.0218 17.763 20.3079 17.221 20.1979C18.145 21.3009 19.682 19.5759 20.24 18.9039C20.463 19.3239 19.648 19.9359 19.521 20.4859C21.457 19.9779 21.143 17.2189 22.254 15.8839C23.294 15.7269 24.482 15.7179 25.703 15.7409C25.435 17.1019 24.535 17.8309 23.834 18.7599C25.043 18.4819 26.005 16.7139 26.71 15.4529C27.292 15.6069 27.709 15.6069 28.291 15.4529C27.734 17.0999 26.391 17.9609 25.416 19.1909C26.939 18.8439 28.019 16.8109 29.01 15.4529C29.813 15.5419 30.53 15.3879 31.311 15.7409C30.737 17.1319 29.485 17.8449 28.723 19.0479C30.133 18.4929 30.996 17.3909 31.742 16.1719C33.535 17.0529 36.069 17.4589 37.925 18.6159C38.572 19.0179 39.208 19.9319 39.937 20.6289C40.904 21.5509 42.333 22.6069 43.388 23.9359C44.739 25.6369 46.054 27.4438 45.688 29.8298C41.804 32.0798 38.277 34.6858 35.337 37.8818C31.842 43.5898 27.216 48.9278 26.998 57.4338C27.123 57.9898 26.647 57.9449 26.567 58.2949C27.338 58.7219 27.639 59.6179 28.148 60.3088C27.553 60.7678 26.445 60.7139 25.992 61.3149C26.913 61.9819 28.493 60.2279 29.442 60.4529C29.319 61.1439 27.978 60.6179 28.004 61.4589C29.221 61.8239 30.18 60.0448 31.741 60.7398C31.297 61.3969 30.059 61.2619 29.728 62.0339C30.983 62.1369 31.991 60.7519 33.753 60.8849C33.64 61.6329 32.517 61.3728 32.172 61.8909C33.423 62.2178 34.702 60.6059 36.197 61.1719C35.241 61.7009 34.59 62.5369 33.321 62.7539C33.62 63.5369 34.434 62.5889 34.903 62.6089C34.915 62.8369 34.834 63.1578 35.047 63.1838C36.19 63.1278 36.632 62.3729 37.923 62.4649C38.155 62.2189 38.359 61.9419 38.354 61.4579C40.796 60.3539 42.472 58.4828 44.249 56.7138C42.771 57.4418 41.769 58.6429 40.367 59.4459C40.885 56.8449 43.867 55.6008 45.256 53.4078C43.711 53.9248 42.238 56.5229 40.654 57.0019C41.865 54.8559 44.649 53.0439 46.549 51.1069C44.325 51.8239 42.82 54.6769 40.367 55.7079V53.9829C41.882 52.8609 43.156 51.5009 44.537 50.2449C42.765 50.8209 42.139 52.5439 40.223 52.9759C40.462 51.3349 42.212 50.6629 43.241 49.8139C44.372 48.8799 45.255 47.7859 46.404 46.9389C46.319 46.4229 46.571 46.2439 46.692 45.9319C47.893 45.6489 48.864 45.1339 49.422 44.2069C48.026 44.7979 45.916 45.3639 45.973 46.9389C44.186 48.4109 42.587 50.0709 40.365 51.1079C40.575 49.3399 42.312 48.5688 43.385 47.6578C44.577 46.6438 45.621 45.5539 46.835 44.6379C44.822 45.5019 42.943 47.7429 40.797 48.9519C40.82 47.7269 41.834 47.4839 42.809 46.6519C44.758 44.9889 46.313 42.6609 49.28 42.6259C52.885 42.5849 57.003 43.1139 60.493 44.2079C62.208 43.3349 63.802 42.3409 65.382 41.3329C67.71 41.1709 70.154 40.6779 72.282 40.7579C71.489 42.1209 69.98 42.7689 68.976 43.9199C70.58 43.1759 71.727 41.9749 72.856 40.7579C76.555 41.0709 81.624 41.1439 84.645 42.9139C84.18 43.9339 83.147 44.3868 82.489 45.2138C83.204 45.0158 84.387 44.0469 85.077 43.3449C85.806 43.4319 86.065 43.9859 86.659 44.2079C86.362 45.1099 85.372 45.3179 84.79 45.9329C85.593 46.1119 86.366 45.0209 87.089 44.6389C87.733 44.5699 87.732 45.1478 88.239 45.2138C87.844 45.9698 86.882 46.1558 86.372 46.7958C87.347 46.7169 87.827 46.1429 88.384 45.6459C89.036 45.7119 89.337 46.1299 89.677 46.5079C89.204 47.6649 87.829 47.9179 87.089 48.8088C88.138 48.8118 89.398 46.5418 90.685 47.2268C90.57 47.7358 89.964 47.7529 89.822 48.2339C90.178 48.4869 90.566 47.5459 91.115 47.5139C91.56 48.0299 92.326 48.2208 92.697 48.8088C92.217 49.7188 91.129 50.0189 90.685 50.9649C91.73 50.6209 92.144 49.6469 93.128 49.2398C94.636 51.4389 95.911 53.7519 97.153 56.4279C98.52 59.3759 100.007 63.0678 100.602 67.0668C100.702 67.7228 100.557 68.3399 100.747 68.9359C102.524 74.5159 102.186 83.4139 102.903 90.0689C102.089 90.2599 101.874 91.0519 101.178 91.3629C101.442 91.8169 102.377 91.8738 102.903 91.6498C102.755 93.3148 103.171 94.5089 102.616 95.3879C102.186 96.0669 100.829 95.7128 101.034 96.8258C101.829 96.8128 102.128 95.6738 102.761 95.9638C102.691 98.6248 100.404 99.0688 99.597 100.994C100.343 100.639 100.796 99.9898 101.179 99.2698C101.261 100.312 99.878 101.13 99.454 102.145C100.46 101.618 101.626 100.007 102.472 98.8388C103.05 101.574 100.751 102.675 99.742 104.301C100.656 103.968 101.693 102.515 102.33 101.426C103.033 104.287 100.33 104.984 99.455 106.744C100.646 106.162 101.154 104.898 102.33 104.301C101.824 107.197 99.486 108.263 98.447 110.625C99.908 109.402 100.834 107.645 102.185 106.312C101.626 110.019 98.361 111.017 96.867 113.788C98.525 112.092 100.513 110.726 101.611 108.47C102.117 113.096 97.484 113.829 96.291 117.239C97.749 115.676 99.647 113.311 101.604 111.77ZM2.551 46.7919C3.153 46.9888 2.39501 47.6029 2.40601 48.0859C2.05501 47.8149 2.305 46.9389 2.551 46.7919ZM104.048 107.025C104.192 107.461 103.667 108.461 103.042 108.606C103.466 108.169 103.679 107.519 104.048 107.025ZM104.911 103.146C105.368 104.052 103.841 105.416 103.616 106.595C103.218 105.188 104.681 104.401 104.911 103.146ZM103.905 108.895C104.053 109.67 103.452 110.932 102.755 111.338C102.692 110.08 103.544 109.732 103.905 108.895ZM102.755 114.068C103.171 114.683 102.273 115.211 101.892 115.506C101.878 114.728 102.64 114.721 102.755 114.068ZM107.929 108.32C106.839 112.02 104.962 114.935 102.611 117.375C102.82 116.145 103.968 114.613 104.767 113.494C105.494 111.441 106.783 109.949 107.786 108.176C108.042 108.136 108.081 108.313 107.929 108.32ZM117.993 49.9548C118.626 53.8468 115.536 55.2609 114.831 58.2919C115.868 57.2219 116.8 54.7999 117.993 53.4049C118.843 56.7949 116.565 58.3019 115.55 60.3049C116.429 59.9849 116.966 58.0789 118.138 57.5729C117.927 60.0979 115.943 61.6019 115.55 63.4669C116.599 62.6009 117.171 61.2559 117.849 60.0169C118.122 63.6659 115.07 66.4209 113.681 69.3629C115.286 68.2839 116.286 65.3559 117.562 63.4669C117.861 68.3179 115.029 71.2848 113.25 74.5368C114.676 73.2298 116.105 70.6828 117.131 68.4988C117.26 73.8979 113.729 76.8849 111.668 80.5749C113.213 79.3399 114.375 76.4769 115.981 74.8249C116.071 79.1309 112.999 81.5208 111.526 84.7438C112.729 83.6478 113.756 81.1308 115.262 79.8558C114.69 84.8898 110.682 86.4879 109.08 90.4949C110.959 88.3929 112.531 85.2268 114.687 83.8818C114.013 87.3758 109.25 93.6979 109.08 94.6639C110.689 93.5889 111.678 90.6488 113.395 89.2008C113.012 93.3228 110.262 95.0779 108.793 98.1139C110.199 97.2679 110.613 95.4309 111.955 94.5209C111.758 96.1439 111.178 97.3829 110.517 98.5449C110.251 98.5229 108.73 100.217 107.781 101.14C107.683 101.321 107.574 101.497 107.453 101.666C107.451 101.687 107.443 101.714 107.443 101.733C107.435 101.883 107.408 102.031 107.396 102.18C107.857 101.512 108.367 100.908 108.937 100.413C108.978 101.367 107.668 102.21 107.355 103.288C108.548 102.75 109.4 99.8779 110.806 99.5508C110.038 100.27 109.816 101.531 109.368 102.569C108.909 102.654 107.602 104.149 107.007 104.865C106.929 105.293 106.855 105.72 106.788 106.15C107.581 105.175 108.39 104.219 109.223 103.287C108.965 107.819 105.067 109.958 103.329 113.491C103.651 112.669 104.556 108.571 104.52 108.146C104.407 108.343 104.291 108.539 104.192 108.748C104.292 108.516 104.397 108.268 104.501 108.021C104.521 107.447 104.603 106.849 104.702 106.245C104.534 106.466 104.362 106.681 104.192 106.879C104.356 106.021 104.655 105.296 105.001 104.616C105.194 103.636 105.372 102.655 105.44 101.708C105.372 101.542 105.342 101.361 105.368 101.177C104.905 102.097 104.413 102.986 103.905 103.86C104.2 102.492 104.751 100.976 105.311 99.4378C105.299 99.3928 105.299 99.3438 105.288 99.2998C105.21 99.0198 105.188 98.7398 105.184 98.4598C104.807 99.4558 104.454 100.531 104.047 101.417C104.084 99.7518 104.846 98.3249 105.455 96.7509C105.709 95.8259 106.041 94.9008 106.027 93.9779C105.181 95.5538 105.029 97.8229 103.759 98.9739C104.29 96.7969 105.048 94.6839 106.013 92.8489C106.007 92.1299 106.031 91.4239 106.089 90.7239C105.597 91.6019 105.48 92.8538 104.765 93.5108C104.242 91.9788 105.169 91.0079 106.161 90.0139C106.192 89.7789 106.243 89.5389 106.288 89.3019C105.993 89.6609 105.684 90.0029 105.339 90.2039C104.8 90.3129 105.241 89.4398 104.62 89.6289C104.487 89.7509 104.362 90.4399 104.19 90.9239C103.825 88.7829 106.221 87.0488 107.352 85.4598C106.239 85.6408 105.561 87.5008 104.62 88.3348C104.239 86.3708 105.94 85.2458 106.489 83.7348C105.245 84.2158 105.124 85.8189 103.903 86.3229C102.614 73.9749 102.508 60.3198 96.713 51.9638C95.951 50.8638 95.397 49.4509 94.701 48.6569C93.416 47.1889 91.404 46.4589 90.386 44.6309H91.394C90.744 44.0839 89.57 44.0599 88.806 43.6249C88.667 43.1039 89.425 43.4789 89.525 43.1939C88.408 42.2979 85.578 43.1149 84.923 41.7549C86.784 41.6739 87.917 41.2159 89.525 41.1809C87.9 40.5259 85.486 41.5419 83.199 41.1809C83.656 40.7349 84.599 40.6459 85.213 40.7489C84.096 39.6879 81.729 41.1368 79.893 40.3168C80.772 39.7638 82.563 39.4968 83.631 39.5979C83.371 38.6698 81.762 39.4748 81.043 39.4548C81.207 38.8518 82.184 39.0609 82.481 38.5919C81.045 38.4309 80.051 39.5999 78.311 39.3119C77.915 39.3459 77.983 39.8459 77.737 40.0309C76.733 39.8369 75.401 39.9699 74.43 39.7429C74.586 39.0359 75.352 38.9398 75.868 38.5928C76.558 38.6198 75.622 38.8438 75.868 39.3128C77.241 39.0078 78.878 38.9679 79.751 38.1629C78.606 38.2659 77.714 38.6179 76.442 38.5939C76.833 37.7369 78.309 37.9679 79.03 37.4449C78.702 36.9129 77.46 37.5989 76.874 37.7319C76.636 37.5289 77.1 36.8169 77.306 36.5829C76.345 36.3419 75.406 37.3639 73.999 37.1569C75.015 35.8239 77.985 36.4468 78.311 34.4248C77.45 34.6178 77.333 35.5529 76.155 35.4319C76.501 34.7709 77.542 34.8038 77.737 33.9938C77.174 33.8658 76.34 34.7039 75.725 34.9999C75.916 33.0829 79.389 33.2019 80.469 31.6929C79.141 31.6139 78.682 32.3989 77.449 32.4129C77.775 31.5399 78.682 31.2479 79.174 30.5439C79.342 30.5659 79.295 30.8059 79.319 30.9749C80.61 30.1589 81.772 29.2109 82.337 27.6689C83.097 27.2009 84.112 27.1998 84.351 25.9418C82.759 27.0358 81.021 27.9809 79.175 28.8179C79.042 29.5949 78.847 30.3088 78.025 30.3988C77.957 29.5158 78.812 29.5569 78.744 28.6739C78.181 28.4969 77.756 29.5659 77.164 29.8239C76.685 29.6319 76.225 29.4219 75.726 29.2499C75.703 28.7939 76.107 28.7699 76.013 28.2429C75.433 27.7679 75.734 29.1359 74.863 28.8179C74.213 25.1939 78.412 25.1808 79.752 23.0668C77.873 23.9688 75.752 25.3939 74.432 26.3739C73.952 25.4499 75.307 24.6939 76.014 24.0739C76.832 23.3549 77.928 22.7909 78.026 21.6299C76.452 23.1219 74.817 24.5529 73.282 26.0869C72.716 26.3169 73.233 25.4659 72.85 25.5119C72.256 25.5389 72.635 26.5429 71.989 26.5189C72.309 25.5899 71.926 24.8468 72.131 24.2178C72.746 22.3348 75.68 22.1869 75.582 20.0489C74.271 21.6129 72.478 22.6959 71.269 24.3619C71.333 24.5759 71.454 24.3049 71.701 24.3619C71.813 24.9539 71.479 25.0999 71.557 25.6569C71.019 25.6189 70.74 25.3229 70.407 25.0809C70.657 24.2579 71.354 23.3439 71.126 22.4929C70.221 22.6899 70.536 24.1079 69.976 24.6499C68.749 24.2099 69.956 23.3219 70.263 23.0679C70.581 22.8069 71.249 21.7689 71.989 21.0559C73.165 19.9189 74.098 19.4329 74.145 18.0359C73.292 18.4749 73.081 19.5599 72.276 20.0489C72.159 19.4499 73.339 18.9099 73.282 17.8929C72.501 17.8789 72.727 18.5819 72.421 19.0429C71.517 20.3999 70.244 21.2449 70.121 22.7799C69.787 22.5859 70.147 21.6979 69.689 21.6299C69.261 22.1609 69.409 23.2668 68.97 23.7868C68.318 23.0978 69.533 22.0139 69.257 20.7669C70.152 20.0319 71.063 19.3139 71.27 17.8919C70.029 18.6629 69.771 20.4169 68.395 21.0549C69.997 17.4319 72.392 14.6059 75.727 12.7159C78.135 12.7279 79.87 11.4659 81.909 11.5659C80.681 13.5019 79.126 15.1098 77.307 16.4548C79.364 16.2048 80.618 13.9229 82.051 12.5729C82.215 12.0399 82.065 11.7389 82.196 11.4229C83.557 11.5339 84.821 11.3999 86.366 11.5659C86.044 13.0269 84.45 14.4379 83.346 15.5919C85.192 15.4719 86.075 13.1468 87.082 11.7098C87.547 11.6778 87.691 11.9639 88.232 11.8529C87.765 13.0159 86.746 13.6248 86.076 14.5848C87.148 13.9778 88.363 13.5169 88.664 12.1419C89.393 12.1309 89.855 12.3879 90.678 12.2849C90.383 13.8599 88.69 14.0359 88.09 15.3049C89.594 14.7489 90.836 13.9299 91.252 12.2849C94.942 12.1409 97.035 13.5948 99.735 14.4418C99.317 15.8928 98.387 16.8319 97.579 17.8919C99.132 17.4319 99.663 15.9519 100.454 14.7289C101.647 15.2119 102.817 15.7209 103.905 16.3099C103.382 18.2329 102.18 19.4739 101.028 20.7669C102.825 20.6459 103.387 18.0458 104.622 16.8858C105.243 16.9368 105.64 17.2099 106.061 17.4599C105.116 18.9109 104.243 20.4339 103.329 21.9169C104.47 21.2359 105.661 19.3599 106.204 17.6029C107.612 17.8739 108.136 19.0259 109.079 19.7589C108.784 21.7169 107.585 22.7689 107.067 24.5039C108.077 23.3099 108.885 21.9139 109.655 20.4789C112.134 22.1419 107.893 26.8238 107.641 28.8168C108.932 26.7538 110.17 24.6358 111.092 22.2048C114.258 24.4578 110.451 27.9679 109.654 30.5429C111.062 28.9789 111.744 26.6899 113.103 25.0789C114.654 28.5919 110.841 30.8219 110.228 33.9929C111.498 31.8589 112.732 29.6909 114.109 27.6679C117.042 30.8579 113.292 34.1758 112.384 37.2998C113.611 35.6028 114.529 33.5979 115.691 31.8369C116.47 33.4439 115.101 35.1389 114.398 36.5809C113.623 38.1709 112.789 39.7729 112.384 41.4689C113.609 38.9069 114.886 36.3999 116.267 33.9929C117.892 37.2689 114.827 39.8769 113.822 42.3309C115.127 41.3819 115.916 38.6739 117.416 37.4429C118.232 42.1639 114.443 44.4469 113.68 48.5129C114.741 45.7399 116.479 43.6429 117.705 41.0359C118.978 44.8819 115.654 47.6099 114.398 50.6679C115.906 49.5889 116.722 46.5718 118.279 45.0628C118.545 50.7868 114.828 53.3969 113.103 57.5699C114.905 55.7789 116.233 52.2678 117.993 49.9548ZM104.192 91.6448C104.569 91.5388 104.127 92.8589 104.048 93.2259C103.548 92.7159 104.356 92.2958 104.192 91.6448ZM103.905 96.1018C103.952 95.7658 104.077 95.5078 104.192 95.2398C104.476 95.3498 104.271 96.1668 103.905 96.1018Z" fill="#604C3F"/>
<path fill-rule="evenodd" clip-rule="evenodd" d="M97.435 13.8701C97.292 15.6451 95.705 16.7381 94.705 17.1771C95.813 16.2721 96.296 14.7431 97.435 13.8701Z" fill="#604C3F"/>
<path fill-rule="evenodd" clip-rule="evenodd" d="M58.763 19.7627C59.23 20.1107 58.74 21.2977 58.475 22.0637C58.244 22.7357 57.833 23.9527 57.613 23.6457C57.661 23.6457 57.709 23.6457 57.756 23.6457C57.988 22.2477 58.4 21.0287 58.763 19.7627Z" fill="#604C3F"/>
<path fill-rule="evenodd" clip-rule="evenodd" d="M67.533 26.2324C67.255 26.8674 66.101 27.8674 64.945 28.1014C65.693 27.3644 66.703 26.8884 67.533 26.2324Z" fill="#604C3F"/>
<path fill-rule="evenodd" clip-rule="evenodd" d="M69.976 30.1152C69.034 30.9452 68.298 31.9822 66.814 32.2712C67.824 31.5082 68.82 30.7312 69.976 30.1152Z" fill="#604C3F"/>
<path fill-rule="evenodd" clip-rule="evenodd" d="M73.427 30.5459C71.732 32.0619 69.83 33.3709 67.533 34.2829C69.598 33.1389 71.233 31.5629 73.427 30.5459Z" fill="#604C3F"/>
<path fill-rule="evenodd" clip-rule="evenodd" d="M74.001 32.416C72.239 33.721 70.126 34.674 68.251 35.865C69.512 34.634 71.94 33.325 74.001 32.416Z" fill="#604C3F"/>
<path fill-rule="evenodd" clip-rule="evenodd" d="M77.452 42.6221C76.932 43.0621 76.604 43.692 75.87 43.916C76.278 43.366 76.77 42.8991 77.452 42.6221Z" fill="#604C3F"/>
<path fill-rule="evenodd" clip-rule="evenodd" d="M6.43303 42.7662C6.15503 43.2062 5.71702 43.4873 5.42602 43.9153C5.29402 44.1513 5.77303 42.6812 6.43303 42.7662Z" fill="#604C3F"/>
<path fill-rule="evenodd" clip-rule="evenodd" d="M4.852 43.1975C5.154 43.0925 4.53902 44.3665 4.27602 44.6335C3.92102 44.1755 4.856 43.7815 4.852 43.1975Z" fill="#604C3F"/>
<path fill-rule="evenodd" clip-rule="evenodd" d="M82.052 43.0527C81.079 44.4277 79.818 45.5147 78.603 46.6477C79.638 45.3347 80.517 43.8657 82.052 43.0527Z" fill="#604C3F"/>
<path fill-rule="evenodd" clip-rule="evenodd" d="M89.528 48.373C89.7 48.556 89.087 49.1701 88.665 49.2361C88.849 48.8431 89.243 48.663 89.528 48.373Z" fill="#604C3F"/>
<path fill-rule="evenodd" clip-rule="evenodd" d="M7.008 55.418C6.924 56.82 5.83499 58.461 4.85199 59.443C5.54499 58.077 6.504 56.974 7.008 55.418Z" fill="#604C3F"/>
<path fill-rule="evenodd" clip-rule="evenodd" d="M46.111 79.2813C45.91 80.3743 44.73 80.4883 44.099 81.1503C42.302 82.8533 40.603 84.6503 38.636 86.1823C39.909 84.3823 42.182 82.4843 44.099 80.7193C44.722 80.1463 45.216 79.1693 46.111 79.2813Z" fill="#604C3F"/>
<path fill-rule="evenodd" clip-rule="evenodd" d="M46.542 126.861C46.09 128.47 43.983 129.67 42.948 131.176C43.406 129.57 45.634 128.494 46.542 126.861Z" fill="#604C3F"/>
<path fill-rule="evenodd" clip-rule="evenodd" d="M90.534 129.594C90.304 129.998 89.7 130.594 89.384 130.457C89.737 130.139 90.015 129.746 90.534 129.594Z" fill="#604C3F"/>
<path fill-rule="evenodd" clip-rule="evenodd" d="M69.257 132.182C68.27 134.549 66.329 137.975 63.219 138.221C65.89 136.865 67.753 134.703 69.257 132.182Z" fill="#604C3F"/>
<path fill-rule="evenodd" clip-rule="evenodd" d="M82.196 132.182C82.366 132.27 82.071 133.102 81.62 133.045C81.716 132.66 82.032 132.498 82.196 132.182Z" fill="#604C3F"/>
<path fill-rule="evenodd" clip-rule="evenodd" d="M70.839 139.227C72.385 137.18 74.214 135.414 75.727 133.332C76.428 133.397 75.208 133.551 75.583 134.195C73.727 135.596 73.147 138.275 70.839 139.227Z" fill="#604C3F"/>
<path fill-rule="evenodd" clip-rule="evenodd" d="M77.308 134.338C76.269 135.887 74.656 138.106 72.708 139.227C74.21 137.566 75.794 135.988 77.308 134.338Z" fill="#604C3F"/>
</svg>
