<svg width="240" height="213" viewBox="0 0 240 213" fill="none" xmlns="http://www.w3.org/2000/svg">
<path fill-rule="evenodd" clip-rule="evenodd" d="M239.019 104.497C240.685 98.0554 239.383 93.8384 237.854 87.9194C236.948 84.4084 236.264 80.6014 235.239 77.4494C232.908 70.2944 227.189 62.3564 223.603 56.5074C222.69 55.0174 221.885 53.5674 220.985 52.1444C216.484 45.0254 212.678 41.5874 205.862 36.7294C199.215 31.9934 193.973 30.6734 186.955 27.4224C176.936 22.7814 162.366 18.5454 150.598 23.9324C151.366 21.6484 152.046 18.8864 152.344 16.9524C150.215 12.6604 146.909 9.73639 142.454 7.6434C141.761 7.3184 141.343 6.42839 140.71 6.18939C138.911 5.51339 136.333 5.16339 134.02 4.44439C131.747 3.73839 129.282 2.81139 127.331 2.40939C121.21 1.14439 114.495 0.5994 108.716 0.9544C101.232 1.4124 93.627 -0.380624 86.903 0.0803765C84.655 0.234376 81.617 1.45539 78.468 2.11739C75.378 2.76539 72.048 3.35841 69.7411 4.15341C67.023 5.08941 64.711 7.29539 62.178 8.80639C56.513 12.1904 51.808 14.6584 46.472 18.1144C43.536 20.0154 40.463 22.1094 38.328 24.2224C33.57 28.9284 31.248 34.5334 28.438 39.9284C27.46 44.4694 25.335 49.3144 26.984 54.7614C20.405 56.0874 15.149 57.0334 10.696 60.5794C5.201 66.0294 3.23199 76.3324 1.96999 86.7564C1.07699 94.1354 -0.50695 102.795 0.80605 110.315C2.02905 117.301 4.94704 123.545 5.46004 129.802C6.27604 139.747 5.44804 149.367 8.36904 157.143C9.51204 160.186 12.721 165.952 14.768 168.196C17.439 171.127 23.412 174.514 27.857 174.885C37.294 175.675 45.916 171.094 56.068 172.85C51.726 177.26 49.615 186.703 53.161 192.919C59.312 197.761 68.448 196.314 78.174 196.409C82.95 196.458 87.062 197.464 91.554 198.155C98.607 199.239 105.812 199.141 112.494 199.901C114.819 200.163 117.608 200.874 120.057 201.354C122.715 201.875 125.855 202.442 127.909 203.389C130.323 204.502 131.613 207.176 133.725 208.336C135.788 209.465 139.033 210.188 141.87 210.951C144.794 211.738 148.234 212.621 151.47 212.406C159.585 211.863 165.29 205.744 171.246 202.806C177.652 199.65 184.159 196.384 191.025 195.244C196.536 194.33 205.666 195.623 210.512 193.5C214.654 191.687 216.267 186.478 216.037 180.993C214.983 179.139 213.49 177.723 212.838 175.467C218.185 172.549 220.857 167.624 225.636 163.83C227.639 162.241 230.03 161.153 231.454 159.468C233.824 156.659 236.784 151.963 237.561 148.124C238.488 143.538 237.86 137.986 237.561 133.872C236.984 125.948 233.629 119.455 234.071 111.186C235.635 108.869 237.557 106.914 239.019 104.497Z" fill="#E8F0D4"/>
<path d="M150.456 211.941C147.692 211.941 144.881 211.246 142.003 210.47C141.519 210.339 141.023 210.21 140.523 210.081C138.116 209.454 135.627 208.806 133.969 207.897C133.06 207.399 132.297 206.579 131.49 205.709C130.513 204.658 129.505 203.572 128.121 202.936C126.175 202.038 123.315 201.479 120.793 200.987L120.156 200.864C119.393 200.714 118.598 200.542 117.796 200.368C116.017 199.985 114.176 199.587 112.552 199.403C109.687 199.079 106.796 198.913 103.736 198.739C99.761 198.512 95.651 198.28 91.632 197.661C90.46 197.481 89.315 197.278 88.176 197.079C84.871 196.495 81.7491 195.944 78.1811 195.909L77.189 195.903C75.576 195.903 73.981 195.938 72.417 195.973C70.917 196.006 69.443 196.039 68.007 196.039C62.005 196.039 57.244 195.449 53.551 192.586C50.188 186.568 52.282 177.41 56.428 173.199L57.098 172.518L56.157 172.356C54.556 172.079 52.939 171.944 51.216 171.944C47.459 171.944 43.852 172.602 40.363 173.238C36.87 173.875 33.571 174.476 30.129 174.476C29.371 174.476 28.622 174.445 27.903 174.385C23.558 174.022 17.69 170.653 15.141 167.857C13.155 165.678 9.96205 159.951 8.84005 156.965C6.82505 151.6 6.61805 145.29 6.40005 138.61C6.30505 135.732 6.208 132.756 5.962 129.759C5.672 126.222 4.64405 122.755 3.55605 119.084C2.71205 116.237 1.83902 113.293 1.30202 110.226C0.213023 103.983 1.16401 96.7899 2.00301 90.4429C2.16701 89.2069 2.32699 87.9939 2.46999 86.8139C3.71099 76.5609 5.61002 66.3289 11.052 60.9319C15.194 57.6379 20.1 56.6529 26.312 55.4049L27.625 55.1399L27.466 54.6139C26.21 50.4659 27.217 46.6729 28.191 43.0059C28.457 42.0039 28.709 41.0559 28.917 40.0979C29.386 39.1969 29.841 38.2899 30.296 37.3829C32.508 32.9779 34.794 28.4229 38.684 24.5759C40.796 22.4859 43.808 20.4359 46.747 18.5329C50.104 16.3589 53.197 14.5849 56.473 12.7059C58.384 11.6099 60.3461 10.4849 62.439 9.23489C63.35 8.69089 64.24 8.0539 65.1 7.4379C66.633 6.3409 68.218 5.20691 69.908 4.62491C71.715 4.00191 74.234 3.49092 76.67 2.99692C77.308 2.86792 77.946 2.7379 78.574 2.6059C79.892 2.3289 81.171 1.9609 82.407 1.6059C84.087 1.1229 85.674 0.665895 86.94 0.579895C87.679 0.528895 88.442 0.503906 89.272 0.503906C91.855 0.503906 94.507 0.744908 97.316 0.999908C100.193 1.26091 103.167 1.52991 106.132 1.52991C107.039 1.52991 107.919 1.50391 108.749 1.45291C109.89 1.38291 111.088 1.3479 112.312 1.3479C117.093 1.3479 122.393 1.8989 127.233 2.8989C128.556 3.1719 130.172 3.7079 131.736 4.2269C132.454 4.4649 133.174 4.70391 133.876 4.92191C134.96 5.25791 136.087 5.5119 137.176 5.7579C138.423 6.0389 139.601 6.30492 140.539 6.65692C140.747 6.73592 140.971 6.97691 141.206 7.23291C141.491 7.54291 141.815 7.89392 142.247 8.09592C146.775 10.2239 149.824 13.0659 151.83 17.0319C151.518 18.9669 150.842 21.6499 150.129 23.7729L149.761 24.8669L150.811 24.3869C154.399 22.7439 158.507 21.9109 163.021 21.9109C171.992 21.9109 180.875 25.1549 186.749 27.8749C188.843 28.8449 190.771 29.6399 192.634 30.4089C197.097 32.2489 200.95 33.8389 205.576 37.1359C212.289 41.9209 216.047 45.2619 220.566 52.4109C221.076 53.2159 221.553 54.0289 222.039 54.8529C222.41 55.4849 222.785 56.1229 223.181 56.7679C223.955 58.0299 224.827 59.3889 225.744 60.8159C229.126 66.0819 232.958 72.0499 234.767 77.6039C235.405 79.5629 235.9 81.7399 236.424 84.0449C236.729 85.3859 237.035 86.7359 237.373 88.0449L237.634 89.0489C239.046 94.4709 240.069 98.3949 238.557 104.302C237.763 105.601 236.812 106.796 235.891 107.952C235.14 108.895 234.363 109.871 233.663 110.91L233.586 111.024L233.579 111.162C233.321 115.99 234.35 120.274 235.346 124.417C236.075 127.449 236.827 130.584 237.07 133.911C237.108 134.435 237.152 134.982 237.197 135.548C237.499 139.355 237.874 144.093 237.079 148.028C236.341 151.674 233.534 156.24 231.08 159.149C230.245 160.135 229.035 160.922 227.753 161.756C226.947 162.28 226.114 162.822 225.333 163.442C223.341 165.024 221.706 166.801 220.126 168.521C217.843 171.004 215.686 173.351 212.606 175.032L212.254 175.223L212.365 175.609C212.817 177.173 213.647 178.346 214.449 179.482C214.843 180.039 215.216 180.566 215.55 181.139C215.77 187.068 213.819 191.513 210.319 193.046C207.472 194.292 203.028 194.321 198.729 194.351C195.863 194.371 193.156 194.388 190.95 194.755C184.182 195.878 177.74 199.054 171.51 202.126L171.031 202.362C169.108 203.309 167.253 204.555 165.288 205.876C161.138 208.665 156.846 211.55 151.442 211.909C151.113 211.93 150.785 211.941 150.456 211.941ZM98.166 196.582C98.471 196.582 98.774 196.592 99.075 196.617C102.171 196.883 105.427 197.295 108.575 197.691C113.239 198.281 117.644 198.837 121.499 198.947C125.44 199.748 128.813 201.832 132.384 204.041C136.18 206.387 140.105 208.814 144.984 209.701C146.271 209.933 147.571 210.053 148.847 210.053C155.766 210.053 161.423 206.608 166.413 203.569L167.437 202.946C175.127 198.294 182.172 194.343 190.518 193.126C192.49 192.839 194.779 192.749 197.202 192.653C203.328 192.413 209.663 192.165 212.638 188.729C213.945 187.219 214.474 185.188 214.212 182.69C213.721 178.01 207.078 171.876 204.392 170.107C194.213 163.402 186.316 159.768 173.75 159.768C172.744 159.768 171.699 159.793 170.646 159.842L170.206 159.862L170.172 160.302C170.138 160.724 170.284 161.068 170.502 161.356C170.414 161.307 170.326 161.258 170.238 161.208C168.976 160.496 167.673 159.759 165.985 159.759C165.268 159.759 164.556 159.892 163.807 160.164L162.998 160.458L163.654 161.015C164.107 161.401 164.538 161.81 164.975 162.226C166.171 163.364 167.409 164.541 169.285 165.447C170.995 166.272 173.174 166.378 174.881 166.378C175.796 166.378 176.74 166.344 177.69 166.309C178.636 166.274 179.588 166.24 180.519 166.24C181.521 166.24 182.371 166.282 183.117 166.367C185.663 166.658 187.208 167.626 188.844 168.651C189.412 169.008 189.999 169.375 190.638 169.72C190.745 169.945 190.883 170.144 191.044 170.322C188.776 168.668 186.594 167.142 183.515 166.826C181.071 166.576 179.038 166.574 177.246 166.572C174.431 166.569 171.998 166.566 168.764 165.679L167.518 165.337L168.208 166.428C169.115 167.86 170.371 169.122 171.7 170.457C174.466 173.236 177.318 176.103 177.692 181.005C176.033 175.845 173.004 171.581 168.365 167.81L168.261 167.725L168.128 167.704C168.02 167.687 167.917 167.679 167.822 167.679C167.443 167.679 167.167 167.795 166.966 167.879C166.9 167.907 166.81 167.945 166.776 167.949C166.776 167.946 166.75 167.931 166.701 167.884C164.728 164.753 160.63 163.825 156.666 162.928L155.249 162.605L155.337 163.313C155.534 164.899 156.618 165.607 157.574 166.232C157.952 166.479 158.315 166.715 158.614 166.995C158.51 167.141 158.457 167.29 158.434 167.433C157.526 166.491 156.205 166.016 154.917 165.554C153.84 165.166 152.804 164.794 152.06 164.175C152.194 164.214 152.326 164.258 152.459 164.302C152.909 164.452 153.419 164.621 154.088 164.623L154.636 164.624L154.587 164.079C154.475 162.818 153.772 162.152 152.556 162.152C151.91 162.152 151.185 162.34 150.545 162.504C150.11 162.616 149.7 162.722 149.385 162.754C148.972 162.794 148.549 162.826 148.124 162.858C146.074 163.012 143.954 163.171 142.695 164.34L141.726 165.238L143.047 165.206C143.373 165.198 143.7 165.19 144.019 165.19C144.668 165.19 145.485 165.22 146.037 165.456L146.653 165.719L146.73 165.053C146.746 164.916 146.746 164.761 146.744 164.607C146.744 164.595 146.743 164.582 146.743 164.568C148.572 165.731 150.573 166.862 152.915 167.68C152.69 167.817 152.527 168.044 152.441 168.352L152.378 168.576C150.447 167.141 148.404 165.753 145.505 165.753C144.865 165.753 144.195 165.823 143.515 165.961L142.071 166.254L143.395 166.9C143.675 167.037 143.981 167.147 144.288 167.257C144.541 167.348 144.785 167.435 145.004 167.535C144.382 169.273 146.111 170.435 147.521 171.385C147.873 171.621 148.229 171.861 148.541 172.101C146.92 171.202 145.692 170.333 144.535 169.283C144.11 168.898 143.703 168.387 143.27 167.847C142.187 166.491 140.959 164.954 139.007 164.954C138.669 164.954 138.317 165.002 137.962 165.096L137.241 165.287L137.691 165.881C138.888 167.462 140.579 168.53 142.214 169.563C143.689 170.495 145.082 171.374 146.146 172.598C147.157 174.092 148.058 175.746 148.899 177.465C146.867 173.483 144.295 170.164 140.276 168.884L139.352 168.59L139.649 169.514C140.05 170.764 140.714 171.739 141.355 172.681C141.501 172.894 141.643 173.104 141.782 173.314C141.745 173.31 141.708 173.307 141.67 173.307C141.396 173.307 141.144 173.432 140.919 173.678L140.761 173.853L140.794 174.085C141.346 177.972 141.358 182.895 138.529 185.065C138.601 184.454 138.932 183.906 139.323 183.261C139.983 182.171 140.794 180.834 140.423 178.74L140.649 178.945L140.626 177.785C140.528 173.069 139.522 166.798 131.94 166.798C131.663 166.798 131.376 166.807 131.082 166.824L130.22 166.874L130.694 167.597C131.311 168.54 131.965 169.469 132.652 170.382C132 169.819 131.28 169.316 130.46 168.912L129.908 168.64L129.755 169.237C129.661 169.604 129.585 169.991 129.509 170.377C129.363 171.116 129.224 171.827 128.962 172.373C128.812 171.55 129.035 170.862 129.285 170.096C129.571 169.218 129.867 168.311 129.556 167.191L129.461 166.847L129.105 166.825C128.928 166.814 128.756 166.809 128.59 166.809C127.051 166.809 125.907 167.27 125.192 168.178L125.048 168.361L125.094 168.588C125.352 169.846 125.772 171.002 126.279 172.094C125.711 171.254 125.127 170.436 124.53 169.642L123.934 168.85L123.651 169.8C123.436 170.521 123.411 171.291 123.488 172.081C123.479 172.024 123.382 171.347 123.382 171.347L122.834 171.497C122.51 171.587 122.226 171.716 121.974 171.872C122.322 171.288 122.572 170.584 122.595 169.666L122.604 169.294L122.252 169.179C122.102 169.13 122.006 169.076 122.013 168.791L122.024 168.321L121.555 168.282C121.406 168.269 121.263 168.263 121.126 168.263C119.47 168.263 118.648 169.135 117.924 169.906L117.511 170.337C117.511 170.337 117.545 170.933 117.555 171.122L117.076 171.195C115.631 171.416 114.895 172.358 114.248 173.19C114.002 173.505 113.769 173.805 113.505 174.062C113.905 173.426 114.144 172.738 113.822 172.057L113.556 171.496L113.064 171.876C109.801 174.395 107.745 178.662 107.534 183.044C106.791 179.253 109.723 174.939 111.786 171.903L112.333 171.094L111.684 170.374C110.008 171.261 108.599 172.421 107.236 173.544C105.595 174.895 104.028 176.187 102.032 177.047C102.697 176.429 103.509 175.933 104.348 175.419C105.72 174.58 107.138 173.713 107.988 172.228L108.423 171.47L107.549 171.48C104.218 171.516 101.879 173.543 99.618 175.501C99.499 175.604 99.381 175.706 99.263 175.808C100.159 174.976 100.922 174.088 101.57 173.133L101.932 172.598L101.323 172.382C100.773 172.186 100.196 172.087 99.607 172.087C96.763 172.087 94.146 174.343 92.235 175.989C91.877 176.299 91.545 176.585 91.245 176.826C90.244 177.631 89.238 178.502 88.25 179.374C88.81 178.714 89.309 177.983 89.688 177.129L89.903 176.646C89.903 176.646 89.358 176.441 89.332 176.433C89.736 176.258 90.149 176.092 90.557 175.929C92.839 175.012 95.201 174.064 96.102 171.569L96.315 170.977L95.691 170.903C95.003 170.82 94.312 170.778 93.636 170.778C90.063 170.778 87.183 171.931 84.398 173.046C83.725 173.317 83.051 173.586 82.37 173.839L82.179 173.91L82.092 174.095C81.657 175.019 81.37 175.954 81.194 176.891C81.243 176.194 81.285 175.524 81.298 174.899L81.312 174.294L80.715 174.395C77.1251 175.001 75.415 177.459 73.761 179.835C72.965 180.978 72.205 182.068 71.255 182.958C71.235 181.777 72.051 180.963 72.969 180.045C73.75 179.264 74.558 178.456 74.878 177.357L75.1421 176.456L74.247 176.74C73.775 176.889 73.384 177.11 73.037 177.364C73.466 177.004 73.915 176.653 74.371 176.297C76.174 174.89 78.038 173.435 78.94 170.99L79.248 170.159L78.377 170.326C76.767 170.636 75.593 171.369 74.457 172.078C73.703 172.55 72.972 173.006 72.128 173.335C72.595 173.053 73.088 172.788 73.594 172.517C75.131 171.692 76.721 170.839 77.723 169.351L78.368 168.393L77.2281 168.578C77.0561 168.606 76.901 168.618 76.756 168.618C76.388 168.618 76.084 168.538 75.764 168.453C75.412 168.36 75.014 168.255 74.515 168.255C74.369 168.255 74.214 168.264 74.048 168.284L73.907 168.301L73.797 168.389C72.028 169.798 69.766 170.814 67.578 171.797C66.094 172.464 64.582 173.143 63.185 173.957C64.325 173.078 65.702 172.405 67.121 171.712C68.773 170.905 70.482 170.07 71.825 168.86L72.691 168.079L71.528 167.99C71.041 167.953 70.573 167.935 70.123 167.935C63.699 167.935 60.878 171.571 58.149 175.088C57.211 176.295 56.243 177.544 55.146 178.604L55.071 178.677L55.031 178.775C53.447 182.667 52.9501 188.464 55.064 192.017L55.112 192.097L55.185 192.154C56.059 192.842 57.094 193.476 58.74 193.476C58.979 193.476 59.231 193.462 59.498 193.435C62.131 194.46 65.266 194.939 69.347 194.939C71.374 194.939 73.466 194.828 75.488 194.718C77.482 194.613 79.544 194.503 81.512 194.503C82.507 194.503 83.4051 194.53 84.2541 194.585C85.8171 194.689 87.347 195.13 88.968 195.599C90.331 195.994 91.741 196.402 93.234 196.619C93.69 196.685 94.186 196.717 94.752 196.717C95.328 196.717 95.91 196.684 96.4911 196.651C97.049 196.615 97.61 196.582 98.166 196.582ZM204.413 167.74C204.93 168.227 205.417 168.908 205.931 169.629C207.03 171.166 208.274 172.907 210.184 173.058C210.233 173.062 210.282 173.064 210.332 173.064C212.223 173.064 215.986 170.167 217.562 168.545C218.162 167.927 218.769 167.241 219.403 166.525C220.613 165.159 221.865 163.746 223.348 162.465C223.947 161.948 224.517 161.463 225.063 160.998C229.584 157.15 232.57 154.608 235.693 147.752C236.353 146.3 236.025 144.502 235.737 142.915C235.6 142.167 235.472 141.461 235.446 140.834C234.985 129.915 233.742 120.935 231.646 113.381L231.501 112.856L230.99 113.047C229.455 113.62 227.972 114.305 226.539 114.968C225.168 115.602 223.751 116.257 222.26 116.829C220.688 117.433 219.119 117.637 217.459 117.853C216.596 117.965 215.704 118.082 214.782 118.259C213.291 118.545 211.811 118.951 210.244 119.381C207.325 120.182 204.306 121.01 201.196 121.01C199.915 121.01 198.719 120.873 197.544 120.59L196.385 120.312L196.998 121.334C197.662 122.441 198.697 123.129 199.699 123.794C199.943 123.957 200.184 124.116 200.416 124.28C199.987 124.076 199.532 123.881 198.965 123.783L197.818 123.585L198.464 124.553C199.607 126.263 201.257 127.452 202.949 128.531C202.027 128.167 201.204 127.462 200.348 126.729C199.589 126.079 198.805 125.407 197.933 124.987L197.561 124.808L196.984 125.584C196.264 126.547 195.52 127.543 194.943 128.705L194.8 128.991L194.999 129.24C195.15 129.43 195.316 129.627 195.491 129.83C195.259 129.666 195.016 129.511 194.763 129.366L194.446 129.184L194.176 129.432C193.974 129.618 193.757 129.791 193.541 129.964C193.479 130.013 193.417 130.063 193.354 130.113C193.651 129.743 193.902 129.315 194.104 128.83L194.195 128.614L194.087 128.406C193.835 127.92 193.428 127.614 192.977 127.401L193.181 127.386C193.36 127.386 193.45 127.447 193.638 127.585C193.864 127.75 194.173 127.978 194.687 127.978C194.739 127.978 194.794 127.975 194.851 127.971L195.085 127.95L195.402 127.493C196.128 126.463 197.121 125.052 196.426 123.489L196.264 123.125L195.873 123.202C194.786 123.415 194.071 123.988 193.559 124.706V124.566C193.58 124.499 193.77 124.248 193.884 124.098C194.216 123.661 194.593 123.165 194.387 122.649C194.192 122.16 193.619 122.066 193.431 122.036L192.982 121.962L192.867 122.402C192.816 122.593 192.666 122.793 192.519 122.986C192.277 123.307 192.001 123.671 192.091 124.136C192.154 124.463 192.386 124.743 192.801 124.994L193.221 125.248C192.962 125.722 192.764 126.23 192.588 126.725L192.423 127.187C192.188 127.11 191.953 127.048 191.733 126.99L191.255 126.864L191.123 127.339C191.015 127.728 190.805 128.205 190.602 128.666C190.153 129.687 189.729 130.653 189.965 131.405L190.098 131.829L190.535 131.747C191.254 131.611 191.885 131.356 192.424 130.983C192.12 131.338 191.862 131.755 191.708 132.277L191.659 132.441L191.722 132.6C191.987 133.28 192.73 133.372 193.273 133.441C193.65 133.488 193.877 133.53 193.973 133.606C193.559 134.855 194.189 135.529 194.701 136.078C194.906 136.298 195.1 136.506 195.252 136.753L195.451 137.079L195.818 136.973C196.914 136.655 198.036 136.507 199.349 136.507C200.342 136.507 201.317 136.593 202.259 136.676C203.194 136.758 204.076 136.836 204.968 136.836C205.645 136.836 206.248 136.79 206.813 136.696C207.811 136.529 208.915 135.791 210.082 135.009C210.599 134.663 211.122 134.313 211.634 134.018C212.527 133.504 213.502 133.083 214.447 132.674C215.194 132.351 215.901 132.046 216.56 131.701C217.778 131.065 218.895 130.33 219.976 129.619C222.536 127.936 224.953 126.346 228.27 126.346C228.68 126.346 229.101 126.371 229.53 126.419C229.221 126.763 228.695 126.897 227.798 126.897C227.603 126.897 227.406 126.892 227.212 126.886C227.015 126.881 226.819 126.875 226.631 126.875C226.304 126.875 225.881 126.889 225.503 126.993C223.623 127.515 221.746 128.725 219.931 129.894C218.904 130.556 217.933 131.182 216.971 131.686L216.017 132.183C213.202 133.648 210.542 135.031 208.426 136.998L207.666 137.705L208.692 137.859C211.118 138.224 213.426 138.794 215.633 139.579C214.715 139.389 213.681 139.295 212.6 139.198C211.253 139.077 209.861 138.951 208.602 138.627C207.981 138.466 207.439 138.196 206.915 137.935C206.256 137.606 205.573 137.266 204.759 137.16C204.144 137.08 203.514 137.042 202.83 137.042C201.019 137.042 199.21 137.322 197.459 137.593L196.633 137.719C195.574 137.201 194.303 136.906 193.115 136.906C191.631 136.906 190.386 137.342 189.517 138.167L189.207 138.461L189.447 138.813C189.704 139.188 189.973 139.554 190.246 139.91C189.717 139.491 189.118 139.206 188.415 139.194C188.002 139.194 187.4 139.42 186.735 139.791L186.817 139.628C186.86 139.543 187.005 139.463 187.159 139.379C187.528 139.176 188.147 138.836 188.03 137.888L187.978 137.469L187.556 137.45C187.347 137.303 187.136 137.146 186.792 137.146C186.727 137.146 186.655 137.152 186.575 137.166L186.219 137.228L186.166 137.585C186.151 137.636 186.045 137.804 185.976 137.916C185.741 138.29 185.448 138.756 185.591 139.242C185.645 139.427 185.787 139.684 186.157 139.857L186.415 139.978C184.684 141.033 182.67 142.947 182.413 144.411C182.262 145.271 182.687 145.95 183.58 146.274L183.912 146.394L184.333 145.882C185.557 144.392 186.614 143.103 188.455 143.081C188.369 143.389 188.138 143.562 187.815 143.805C187.363 144.145 186.8 144.568 186.742 145.481C186.749 145.92 186.821 146.33 186.936 146.717C186.795 146.444 186.661 146.167 186.531 145.886L186.396 145.594L186.074 145.595C185.419 145.598 185.047 145.925 184.776 146.163C184.574 146.341 184.45 146.443 184.257 146.473L183.837 146.537L183.833 146.962C183.822 148.201 184.156 149.083 184.48 149.935C184.54 150.091 184.598 150.245 184.654 150.399C184.408 150.103 184.09 149.792 183.564 149.678L183.398 149.642L183.244 149.715C182.583 150.029 182.06 150.46 181.554 150.876C180.998 151.334 180.472 151.767 179.791 152.026L179.56 152.114L179.49 152.352C179.387 152.7 179.348 153.007 179.341 153.28C179.187 153.027 178.93 152.832 178.49 152.832C178.372 152.832 178.249 152.847 178.113 152.878L178.043 152.894L177.982 152.929C176.241 153.906 174.704 155.108 173.217 156.27L171.633 157.509L173.326 157.354C174.35 157.26 175.378 157.212 176.379 157.212C185.223 157.212 191.848 160.902 198.255 164.47C200.259 165.579 202.324 166.73 204.413 167.74ZM23.609 58.6479C19.661 58.6479 15.181 59.9979 12.716 61.9299C10.461 63.6989 8.55602 67.5479 7.62002 69.6859C6.55502 72.1229 5.14501 76.2089 4.67501 79.7089C3.85501 85.8059 3.09301 91.7069 2.34701 97.7479C1.32201 106.049 3.124 112.571 4.868 118.877C6.364 124.29 7.77702 129.402 7.57802 135.604C7.23502 146.412 8.87201 154.21 12.886 160.891C13.288 161.56 13.611 162.311 13.923 163.038C14.323 163.971 14.702 164.851 15.238 165.583C18.88 170.555 24.305 172.972 31.828 172.972C33.839 172.972 35.987 172.809 38.396 172.474C39.403 172.334 40.368 172.046 41.39 171.742C42.3 171.471 43.242 171.19 44.23 171.017C45.47 170.8 46.844 170.7 48.555 170.7C49.641 170.7 50.737 170.739 51.833 170.778C52.944 170.818 54.058 170.858 55.161 170.858C56.281 170.858 57.26 170.816 58.153 170.73L58.337 170.711L58.465 170.578C60.002 168.985 62.229 167.922 64.586 166.796C65.302 166.454 66.032 166.105 66.768 165.731L66.486 164.788C65.755 164.87 65.0141 164.915 64.2801 164.923C65.633 164.814 66.768 164.496 67.665 163.973L68.425 163.53L67.6551 163.104C66.2371 162.318 63.461 161.79 60.745 161.79C58.5 161.79 56.553 162.15 55.263 162.804L54.6031 163.138C54.0191 162.95 53.4411 162.758 52.8661 162.567C52.826 162.553 52.785 162.54 52.745 162.526C52.979 162.532 53.209 162.536 53.434 162.536C55.904 162.535 57.853 162.139 59.225 161.357L60.037 160.895L59.899 160.826L60.4181 160.841C60.6311 160.847 60.978 160.952 61.313 161.054C61.749 161.186 62.198 161.323 62.587 161.323C63.077 161.323 63.332 161.102 63.461 160.918L63.916 160.261L63.126 160.139C62.94 160.11 62.639 159.968 62.348 159.83C61.887 159.613 61.411 159.388 60.971 159.388C60.461 159.388 60.088 159.689 59.949 160.213L59.799 160.777L59.203 160.478C58.39 160.07 57.604 159.634 56.818 159.199C55.499 158.467 54.1531 157.721 52.6681 157.102C53.3241 157.282 54.016 157.396 54.727 157.396C55.456 157.396 56.162 157.274 56.824 157.032L57.91 156.636C57.91 156.636 56.7461 156.05 56.6811 156.017C57.5651 156.285 58.433 156.459 59.257 156.481L60.624 156.517L59.354 155.385C57.746 153.945 55.544 151.973 52.555 151.973C51.851 151.973 51.125 152.083 50.401 152.301L49.558 152.554C48.292 151.971 46.996 151.393 45.682 150.839C45.732 150.763 45.771 150.672 45.795 150.564L45.825 150.432C47.09 150.96 48.414 151.356 49.86 151.356C50.314 151.356 50.769 151.315 51.214 151.236L52.24 151.052L51.455 150.367C51.185 150.133 50.907 149.907 50.623 149.687C51.151 149.892 51.691 150.031 52.246 150.079L53.822 150.214L52.61 149.198C51.621 148.369 50.668 147.628 49.718 146.961C50.35 147.288 50.987 147.624 51.402 147.942L52.46 148.753L52.197 147.446C51.883 145.881 50.7541 144.299 49.1291 143.963L48.996 143.363C48.499 141.132 45.187 139.577 42.525 139.577C40.707 139.577 39.367 140.262 38.752 141.505L38.5431 141.927C38.4181 141.893 37.86 141.744 37.86 141.744L37.656 141.985C35.703 144.283 33.452 147.79 32.01 151.714C33.176 148.266 34.907 145.094 37.268 142.031L37.736 141.425L37.1421 141.278C38.5681 141.102 39.386 140.23 39.411 138.826L39.417 138.457L39.066 138.342C37.512 137.834 35.953 137.576 34.432 137.576C29.614 137.576 25.849 140.13 23.023 142.205C24.994 139.008 29.151 137.213 34.756 137.213C38.334 137.213 42.217 137.966 45.408 139.28L46.454 139.711L46.068 138.647C45.757 137.787 45.242 137.087 44.591 136.505L44.641 135.953C44.709 135.192 44.477 134.477 43.988 133.942C43.537 133.448 42.918 133.166 42.289 133.166C41.573 133.166 40.929 133.539 40.521 134.19L40.429 134.337C39.731 134.101 39.023 133.891 38.335 133.688C38.214 133.652 38.093 133.616 37.973 133.581C38.108 133.586 38.241 133.589 38.373 133.589C39.891 133.589 40.983 133.206 41.617 132.449L41.99 132.005C42.144 132.033 42.277 132.047 42.378 132.047H43.429L42.786 131.231C42.667 131.085 42.554 130.932 42.44 130.779C41.813 129.933 41.102 128.974 39.457 128.974C39.266 128.974 39.063 128.987 38.845 129.015L38.24 129.094L38.346 129.409C38.135 129.273 37.902 129.15 37.635 129.046C37.111 128.841 36.549 128.693 35.915 128.597C37.148 128.536 38.227 128.432 39.019 128.253L39.995 128.032L39.233 127.384C38.537 126.792 37.797 125.983 37.011 125.126C35.365 123.328 33.662 121.468 31.784 120.888C31.3 120.738 30.767 120.641 30.173 120.593C30.363 120.522 30.54 120.443 30.707 120.354L31.609 119.878L30.679 119.457C29.454 118.902 28.229 118.112 26.93 117.277C24.209 115.526 21.395 113.714 17.984 113.594L17.732 113.59C17.502 113.59 17.265 113.599 17.029 113.609C16.805 113.618 16.582 113.626 16.363 113.626C15.473 113.626 14.958 113.495 14.765 112.838C14.781 112.838 14.797 112.838 14.813 112.838C17.755 112.838 19.966 113.566 22.526 114.408C22.982 114.557 23.445 114.71 23.922 114.862L24.357 115L24.534 114.579C24.889 113.732 25.086 112.944 25.152 112.099L25.172 111.85C25.172 111.85 24.937 111.644 24.912 111.625C24.941 111.602 25.164 111.393 25.164 111.393L25.152 111.163C24.963 107.477 24.034 104.366 22.702 101.641C23.389 102.825 24.059 104.012 24.725 105.193C24.626 106.541 24.908 107.504 25.18 108.436C25.427 109.281 25.661 110.079 25.609 111.165L25.572 111.929L25.606 111.916L25.608 112.354C25.61 112.789 25.478 113.091 25.325 113.441C25.09 113.98 24.822 114.591 25.036 115.65L25.107 116.003L25.464 116.047C26.89 116.226 28.133 117.241 29.335 118.222C30.608 119.261 31.812 120.244 33.209 120.244C33.514 120.244 33.818 120.195 34.115 120.099L34.797 119.878L34.354 119.314C34.085 118.972 33.767 118.645 33.419 118.328C33.864 118.535 34.331 118.663 34.828 118.668L36.059 118.681L35.186 117.813C34.654 117.284 34.155 116.685 33.673 116.107C31.928 114.014 30.124 111.85 26.152 111.85L25.77 111.851L26.286 111.654C26.697 111.496 27.061 111.423 27.429 111.423C27.878 111.423 28.294 111.534 28.778 111.662C29.412 111.83 30.13 112.021 31.118 112.021C31.384 112.021 31.669 112.007 31.975 111.975L32.649 111.905L32.383 111.283C31.974 110.321 31.419 109.41 30.809 108.53C31.857 109.728 32.977 110.869 34.229 111.869L35.075 112.544L35.042 111.463C34.989 109.753 33.945 108.016 32.848 106.325C33.033 106.458 33.23 106.58 33.444 106.689L34.321 107.133L34.163 106.163C33.844 104.195 33.09 102.659 32.268 101.238C32.523 101.527 32.762 101.807 32.945 102.128L33.834 101.67C33.711 101.403 33.596 101.13 33.481 100.855C33.367 100.582 33.252 100.307 33.127 100.037C34.11 101.186 34.869 102.533 35.213 104.303L36.201 104.258C36.451 101.794 35.12 98.8969 33.833 96.0949C33.494 95.3549 33.163 94.6349 32.872 93.9459C32.906 93.9479 32.94 93.9489 32.976 93.9489C33.027 93.9489 33.082 93.9469 33.138 93.9409L33.63 93.8889L33.584 93.3969C33.515 92.6569 33.327 91.9459 33.084 91.2679C33.156 91.4219 33.23 91.5759 33.302 91.7289C34.082 93.3849 34.89 95.0969 35.865 96.6219L36.545 97.6859L36.777 96.4449C37.688 91.5839 36.308 88.6869 34.708 85.7679C35.004 86.0869 35.338 86.3829 35.756 86.6109L36.566 87.0519L36.494 86.1339C36.43 85.3139 36.162 84.5509 35.841 83.8439C36.261 84.5589 36.754 85.2269 37.459 85.7119L37.959 86.0549L38.2 85.4989C39.24 83.1089 38.748 80.8019 37.745 78.6859C38.097 79.2129 38.444 79.7539 38.761 80.3099L39.463 81.5469L39.688 80.1429C39.961 78.4519 39.664 76.7719 38.957 75.3729C39.336 75.7559 39.796 76.0349 40.193 76.1739L40.648 76.3329L40.824 75.8839C41.074 75.2439 41.009 74.4729 40.648 73.8189C40.292 73.1729 39.692 72.7259 39 72.5929L38.672 72.5289L38.487 72.8079C38.194 73.2539 38.1231 73.7629 38.2801 74.2839C37.6561 73.4549 36.863 72.7879 35.95 72.3659L36.027 72.2999C36.318 72.0529 36.4 71.7739 36.385 71.5079C36.543 71.6899 36.636 71.8119 36.664 71.9969L36.727 72.3999L37.134 72.4189C37.402 72.4319 37.6631 72.4389 37.9181 72.4389C39.4541 72.4389 41.576 72.2229 42.278 70.3519L42.503 69.7539L41.868 69.6799C40.156 69.4799 38.5 69.3789 36.947 69.3789C36.862 69.3789 36.778 69.3789 36.693 69.3799L36.815 69.2699L36.554 69.2279C36.58 69.2249 37.235 69.1459 37.235 69.1459L37.051 68.5699C36.809 67.8129 36.229 67.4379 35.611 67.1759C36.007 67.1719 36.35 67.0299 36.634 66.7539L36.86 66.5339L36.758 66.2349C36.194 64.5829 34.569 64.0219 33.136 63.5249C33.052 63.4959 32.97 63.4669 32.887 63.4389C33.142 63.2599 33.279 62.9919 33.294 62.6359L33.3061 62.3459L33.061 62.1909C32.243 61.6749 30.659 60.8089 29.253 60.8089C28.988 60.8089 28.74 60.8399 28.51 60.8999L28.488 60.8849C27.816 60.4359 27.78 60.3649 28.003 59.9359L28.276 59.4119L27.713 59.2299C26.525 58.8439 25.142 58.6479 23.609 58.6479ZM64.151 157.495C66.243 159.604 68.831 161.247 71.334 162.835C73.157 163.992 75.042 165.189 76.695 166.545L76.827 166.653L76.998 166.658C80.865 166.774 85.398 167.619 89.782 168.437C93.886 169.202 98.132 169.994 101.714 170.15C101.943 170.16 102.169 170.165 102.394 170.165H102.396C105.613 170.164 108.443 169.182 111.439 168.141C113.26 167.509 115.142 166.855 117.265 166.356C118.191 166.138 119.205 166.076 120.281 166.01C121.101 165.96 121.95 165.908 122.757 165.78C123.961 165.589 125.198 165.176 126.394 164.777C127.985 164.246 129.487 163.745 130.859 163.745C130.937 163.745 131.014 163.746 131.091 163.75C131.264 163.757 131.501 163.874 131.732 163.986C132.063 164.148 132.439 164.331 132.857 164.331C134.317 164.331 135.397 163.834 136.44 163.352C137.116 163.041 137.754 162.747 138.499 162.573C140.148 162.189 141.868 161.955 143.532 161.729C149.128 160.968 154.414 160.249 154.009 153.91L153.974 153.362L153.432 153.448C150.638 153.889 147.992 154.629 145.432 155.344C141.536 156.433 137.855 157.462 133.724 157.514L133.411 157.516C129.47 157.516 125.505 156.605 121.621 155.548C125.056 156.262 128.509 156.622 131.951 156.622C136.169 156.622 140.43 156.079 144.617 155.009C145.544 154.772 146.462 154.48 147.349 154.198C149.344 153.564 151.23 152.965 153.14 152.965C153.347 152.965 153.555 152.972 153.763 152.987L154.233 153.021L154.296 152.554C154.962 147.552 154.337 141.282 152.536 134.9L152.437 134.553L151.867 134.531C150.403 134.531 149.22 135.244 148.075 135.933C147.275 136.415 146.448 136.913 145.521 137.172C141.235 138.369 135.389 138.57 130.237 138.609L130.017 138.61C122.59 138.61 117.204 135.966 112.008 129.77L111.909 129.652L111.761 129.61C109.66 129.017 107.3 128.74 104.334 128.74C102.522 128.74 100.645 128.842 98.828 128.939C96.98 129.039 95.07 129.142 93.195 129.142C91.978 129.142 90.885 129.099 89.8531 129.012C86.105 128.692 82.774 127.593 79.552 126.531C77.763 125.941 76.07 125.383 74.401 124.992C74.263 124.811 74.109 124.643 73.941 124.487C80.367 127.243 88.215 128.68 97.013 128.68C100.562 128.68 104.227 128.44 107.907 127.969L108.795 127.855L107.646 126.433C105.426 123.696 103.131 120.866 101.613 117.384L101.55 117.239L101.414 117.157C100.533 116.621 99.254 115.325 99.29 114.635C99.293 114.592 99.2971 114.513 99.3791 114.424C100.905 115.721 101.867 117.501 102.883 119.379C103.542 120.598 104.224 121.859 105.11 123.109C106.434 124.978 108.249 126.363 110.003 127.702C111.123 128.557 112.282 129.442 113.313 130.449C113.59 130.72 113.815 131.081 114.053 131.463C114.343 131.929 114.643 132.411 115.078 132.794C119.327 136.537 124.957 138.281 132.794 138.281C134.013 138.281 135.317 138.238 136.671 138.154C143.009 137.759 147.677 136.098 150.941 133.078L151.182 132.855L151.073 132.545C149.466 127.977 147.815 124.789 145.509 120.826C145.117 120.154 144.736 119.462 144.359 118.78C143.924 117.993 143.5 117.224 143.077 116.512C146.306 121.327 149.136 126.054 151.303 131.443L151.476 131.872L151.916 131.733C155.133 130.723 156.081 126.698 156.999 122.807C157.24 121.786 157.488 120.731 157.772 119.763C159.101 115.234 159.952 108.502 158.353 103.19L158.323 103.089L158.184 102.926C157.833 102.517 157.182 101.756 157.252 101.256C157.262 101.186 157.289 101.089 157.398 100.979C158.451 101.399 158.756 103.117 159.005 104.514C159.047 104.746 159.087 104.97 159.128 105.177C160.531 112.23 158.565 119.691 157.39 124.148L157.106 125.225L158.099 124.722C162.703 122.389 164.739 116.762 165.634 112.452C165.72 112.038 165.674 111.57 165.625 111.073C165.512 109.929 165.523 109.367 166.111 109.139C166.954 110.471 166.314 112.946 165.882 114.617L165.823 114.844C164.587 119.637 161.554 123.042 158.782 125.857C158.244 125.995 157.847 126.263 157.495 126.503C157.196 126.705 156.915 126.896 156.57 126.994L156.291 127.073L156.222 127.354C155.875 128.755 155.084 129.719 154.247 130.74C153.601 131.528 152.934 132.343 152.471 133.378L152.399 133.539L152.444 133.709C152.716 134.753 153.019 135.818 153.327 136.901C154.545 141.183 155.804 145.611 155.628 150.143L155.603 150.795L156.24 150.65C159.58 149.889 161.114 147.443 162.891 144.61C163.358 143.865 163.845 143.088 164.391 142.303C169.392 135.109 173.993 126.958 173.788 116.124L173.786 116.027L173.748 115.938C173.404 115.126 173.155 114.404 172.973 113.69C173.135 113.519 173.257 113.329 173.369 113.154C173.518 112.922 173.627 112.763 173.762 112.668C175.921 124.947 170.275 135.272 164.441 143.771L163.863 144.613L164.883 144.553C168.453 144.345 171.402 142.385 174.254 140.49C175.436 139.705 176.559 138.959 177.711 138.339C177.741 138.388 177.772 138.436 177.802 138.481C177.95 138.71 178.05 138.863 178.046 139.135C174.26 142.015 169.274 144.354 162.381 146.485L162.207 146.538L162.108 146.69C160.398 149.327 158.843 151.392 155.74 151.998L155.331 152.078L155.336 152.495C155.364 154.954 154.906 157.065 153.938 158.95L153.575 159.656L154.368 159.679L154.663 159.683C156.705 159.683 158.528 159.072 160.137 158.533C161.51 158.073 162.806 157.638 164.038 157.638L164.423 157.65L164.562 157.551C168.814 154.534 172.203 151.653 176.26 147.608C184.604 139.286 189.596 130.162 191.524 119.713L191.612 119.233L191.134 119.133C190.698 119.041 190.394 118.841 190.099 118.614C190.341 118.753 190.609 118.863 190.901 118.941L191.622 119.136L191.528 118.396C191.34 116.907 190.503 115.955 189.104 115.644L188.336 115.473L188.507 116.241C188.688 117.05 189.018 117.69 189.495 118.158C189.25 117.995 188.972 117.855 188.634 117.791L188.28 117.073C187.53 115.553 186.393 113.691 184.249 112.763L183.03 112.236C183.03 112.236 183.622 113.485 183.634 113.509C183.572 113.466 183.511 113.423 183.446 113.383C183.053 113.133 182.534 113.129 182.075 113.125C181.801 113.123 181.488 113.12 181.346 113.057C179.758 112.35 178.721 110.976 177.623 109.523C176.563 108.12 175.468 106.67 173.814 105.8L172.991 105.367L173.085 106.293C173.099 106.43 173.128 106.561 173.17 106.685C172.824 106.32 172.478 105.945 172.124 105.563C169.822 103.076 167.441 100.504 164.408 99.6529L163.95 100.496L163.578 100.065C161.77 97.9619 159.9 95.7869 157.537 94.4619L156.893 95.1979C157.452 95.9419 158.006 96.6599 158.559 97.3559C156.72 95.1709 154.797 92.9469 152.336 91.2839L151.148 90.4819L151.579 91.8489C151.918 92.9239 152.721 93.7839 153.498 94.6169C153.575 94.6999 153.652 94.7819 153.729 94.8639C153.398 94.7089 153.003 94.6109 152.519 94.6109C152.35 94.6109 152.171 94.6229 151.986 94.6479C148.48 90.0009 144.033 86.5239 140.132 83.7299L139.397 84.3649C139.569 84.6979 139.754 85.0169 139.952 85.3239C138.595 83.9049 137.155 82.5179 135.466 81.3929L133.954 80.3859L134.737 82.0239C135.027 82.6309 135.429 83.2179 135.869 83.7909C133.676 81.2269 131.377 78.6739 128.341 77.8369L126.881 77.4349L127.497 78.2229C126.531 77.1359 125.532 76.0589 124.482 75.0499L123.669 75.5899C123.763 75.8339 123.866 76.0669 123.977 76.2939C121.923 75.6079 120.536 73.8529 119.193 72.1529C117.706 70.2719 116.169 68.3259 113.745 67.9359L112.925 67.8039L113.047 68.1619C112.967 68.0649 112.886 67.9669 112.806 67.8689C111.761 66.5979 110.68 65.2819 109.315 64.2499L108.37 63.5359L108.517 64.7109C108.6 65.3749 108.845 65.8789 109.158 66.2939C108.946 66.2319 108.711 66.1929 108.447 66.1849L108.145 66.1749L107.997 66.4369C107.378 67.5269 106.895 68.7559 106.43 69.9449C106.238 70.4359 106.042 70.9319 105.837 71.4199C106.008 70.7839 106.05 70.1369 105.631 69.5829L105.141 68.9349L104.784 69.6639C104.143 70.9719 103.325 72.1569 102.533 73.3039C102.1 73.9289 101.661 74.5659 101.243 75.2309C101.237 75.2199 101.231 75.2089 101.224 75.1969C101.077 74.9289 100.815 74.7469 100.422 74.6379L100.125 74.5559L99.9181 74.7839C99.09 75.6939 98.662 76.9519 98.248 78.1699C97.914 79.1549 97.592 80.1029 97.086 80.8279C97.176 80.2279 97.328 79.6839 97.485 79.1199C97.626 78.6189 97.77 78.0999 97.871 77.5339L98.053 76.5109L97.14 77.0069C95.756 77.7599 95.194 79.2359 94.65 80.6639C94.2551 81.6989 93.877 82.6929 93.21 83.3509C93.287 83.1709 93.374 82.9979 93.463 82.8199C93.785 82.1769 94.151 81.4489 94.099 80.3319L94.072 79.7199L93.477 79.8699C91.615 80.3419 90.923 81.9819 90.312 83.4289C90.001 84.1659 89.701 84.8779 89.271 85.4299C89.453 85.0299 89.598 84.5189 89.435 83.7419L89.302 83.1059L88.721 83.3979C87.553 83.9849 87.1011 85.1659 86.663 86.3069C86.3241 87.1899 85.999 88.0379 85.364 88.6229C85.471 88.4009 85.598 88.1899 85.733 87.9669C86.101 87.3589 86.519 86.6689 86.536 85.5989L86.55 84.7479L85.8 85.1509C84.044 86.0939 83.418 88.0639 82.814 89.9689C82.402 91.2679 82.01 92.5029 81.297 93.3769C81.169 93.1919 80.928 92.9079 80.46 92.9079C80.345 92.9079 80.224 92.9249 80.091 92.9599L79.942 92.9999C80.157 92.2539 80.252 91.5019 80.13 90.7469L79.164 90.6649C77.188 96.4389 73.062 100.264 69.07 103.964L68.961 104.066C68.949 104.023 68.932 103.98 68.909 103.936C68.757 103.637 68.432 103.514 68.135 103.434L67.914 103.374L67.725 103.502C66.627 104.241 65.8661 105.287 65.1291 106.297C64.5701 107.064 64.029 107.808 63.359 108.403C63.882 107.74 64.36 107.012 64.691 106.128L64.943 105.453H64.222C60.76 105.454 57.549 107.892 55.887 110.279C55.74 110.237 55.591 110.217 55.443 110.217C54.752 110.217 54.183 110.638 53.64 111.209C53.755 110.978 53.856 110.73 53.939 110.461L54.219 109.544L53.3061 109.84C50.4421 110.769 48.979 113.058 47.564 115.272C46.952 116.231 46.362 117.152 45.674 117.961C45.485 117.659 45.11 117.659 44.967 117.659C44.893 117.659 44.803 117.663 44.696 117.671L44.303 117.7L44.24 118.09C44.053 119.244 43.572 120.105 43.063 121.018C42.633 121.786 42.19 122.581 41.924 123.566L41.884 123.713L42.05 124.202C43.773 129.265 45.553 134.5 49.031 138.01C49.24 138.223 49.199 139.002 49.179 139.376L49.162 139.689L49.436 139.84C51.502 140.977 52.775 142.145 53.549 143.617C53.924 147.465 56.614 150.11 59.215 152.669C60.2631 153.7 61.253 154.673 62.083 155.711L62.299 155.981L62.628 155.875C63.049 155.739 63.457 155.672 63.875 155.672C64.716 155.672 65.46 155.94 66.247 156.223C66.877 156.45 67.527 156.684 68.229 156.769C68.803 156.838 69.387 156.873 69.965 156.873C72.1531 156.873 74.096 156.386 76.153 155.871C77.372 155.566 78.632 155.25 80.008 155.021C80.133 155 80.26 154.993 80.388 154.993C80.639 154.993 80.896 155.021 81.149 155.047C81.428 155.076 81.704 155.104 81.965 155.104C82.319 155.104 83.398 155.104 83.883 153.834L84.048 153.402L83.631 153.204C81.14 152.022 78.68 151.101 76.301 150.211C74.237 149.439 72.105 148.641 69.951 147.673L69.36 147.414C67.969 146.81 66.158 146.025 65.682 144.928C75.605 150.068 85.911 155.234 98.618 155.234C100.904 155.234 103.251 155.066 105.592 154.733C106.195 154.648 106.812 154.511 107.409 154.379C108.356 154.169 109.335 153.953 110.222 153.953C110.691 153.953 111.101 154.012 111.474 154.133L112.01 154.307C111.107 154.911 106.026 155.276 104.308 155.4C103.857 155.433 103.461 155.461 103.152 155.487C101.537 155.621 99.832 155.69 98.084 155.69C92.832 155.69 88.293 155.085 85.941 154.072L85.704 153.97L85.484 154.103C81.455 156.541 74.259 156.905 70.329 156.905C68.384 156.905 66.3881 156.817 64.5561 156.651L63.19 156.527L64.151 157.495ZM159.497 160.322C158.41 160.322 157.513 160.723 156.9 161.482L156.405 162.095L157.171 162.282C158.676 162.649 160.12 163.119 161.517 163.574C162.285 163.825 163.051 164.075 163.833 164.31L164.496 164.51L164.477 163.818C164.433 162.152 161.825 160.322 159.497 160.322ZM177.491 150.813C177.386 151.027 176.883 151.272 176.478 151.468C175.837 151.779 175.175 152.101 175.01 152.699C174.952 152.911 174.937 153.244 175.195 153.637L175.535 154.154L175.97 153.714C176.123 153.558 176.614 153.336 177.007 153.158C177.917 152.746 178.778 152.358 178.838 151.646C178.871 151.267 178.663 150.922 178.22 150.622L177.746 150.3L177.491 150.813ZM182.108 147.956C181.94 148.026 181.767 148.091 181.594 148.157C180.548 148.552 179.247 149.042 179.184 150.725L179.153 151.572L180.186 151.051C181.225 150.535 182.404 149.951 182.784 148.547L183.052 147.56L182.108 147.956ZM180.66 145.944C180.632 145.991 180.552 146.09 180.497 146.157C180.248 146.464 179.907 146.885 180.032 147.368C180.083 147.564 180.233 147.835 180.662 148.008L181.23 148.238L181.339 147.645C181.338 147.659 181.35 147.664 181.366 147.664C181.396 147.664 181.446 147.648 181.484 147.636C181.67 147.576 181.901 147.501 182.084 147.307L182.215 147.168L182.221 146.978C182.24 146.318 181.915 145.836 181.305 145.62L180.784 145.435L180.66 145.944ZM190.765 132.916C189.895 132.916 188.94 133.453 188.208 134.352C187.522 135.196 187.188 136.167 187.339 136.887L187.437 137.358L187.912 137.279C189.982 136.93 191.991 136.332 192.666 134.327L192.754 134.066L192.581 133.853C192.083 133.239 191.456 132.916 190.765 132.916ZM41.031 119.563C40.861 120.967 41.681 121.233 42.042 121.282L42.493 121.344L42.597 120.901C42.613 120.832 42.65 120.764 42.698 120.677C42.822 120.448 43.0101 120.102 42.8921 119.525L42.811 119.124H41.084L41.031 119.563ZM200.634 108.45C201.011 110.294 201.256 112.167 201.003 114.028C200.933 114.551 200.653 115.032 200.359 115.541C199.977 116.199 199.545 116.945 199.546 117.878L199.547 118.433L200.763 118.305C215.323 116.767 239.695 114.193 238.064 94.8579C237.836 92.1679 236.865 89.3769 235.925 86.6779C235.527 85.5329 235.151 84.4519 234.845 83.4159C234.616 82.6419 234.536 81.8419 234.452 80.9949C234.359 80.0809 234.264 79.1369 233.973 78.1759C232.864 74.5329 230.397 69.7929 226.641 64.0849C225.296 62.0439 224.005 59.8039 222.756 57.6359C219.761 52.4379 216.664 47.0639 212.296 43.3289C208.027 39.6799 201.904 35.8469 197.96 33.6729C196.229 32.7189 194.351 32.2249 192.533 31.7479C190.951 31.3319 189.315 30.9019 187.751 30.1679C186.626 29.6409 185.567 29.0989 184.528 28.5679C180.798 26.6609 177.273 24.8589 171.883 24.3059C170.304 24.1439 169.098 23.8939 167.931 23.6529C166.915 23.4429 165.957 23.2439 164.899 23.1429C164.331 23.0879 163.77 23.0609 163.231 23.0609C160.524 23.0609 158.567 23.7339 156.496 24.4469C155.041 24.9469 153.536 25.4649 151.683 25.7659L151.575 25.7839L151.484 25.8449C150.152 26.7429 147.903 29.3999 148.351 31.2749C148.499 31.8939 148.998 32.6719 150.537 32.8639L150.716 32.8869L150.867 32.7899C151.199 32.5789 151.384 32.3189 151.418 32.0179C151.429 31.9269 151.424 31.8399 151.408 31.7569C151.617 31.8999 151.886 31.9989 152.243 31.9989L152.428 31.9909L152.477 31.9769C153.114 31.8019 153.735 31.4189 154.336 31.0489C155.053 30.6079 155.794 30.1519 156.426 30.1519C156.446 30.1519 156.465 30.1529 156.485 30.1529C156.407 30.4779 156.116 30.6089 155.506 30.8179C155.111 30.9529 154.665 31.1069 154.329 31.4199L154.129 31.6079L154.18 31.8779C154.25 32.2519 154.389 32.5529 154.557 32.8109C154.345 32.6329 154.126 32.4809 153.941 32.3509L153.381 31.9539L153.094 32.3789C152.941 32.6069 152.865 32.8949 152.869 33.2119C152.558 32.9589 152.194 32.7629 151.723 32.7629C151.374 32.7629 151.018 32.8729 150.635 33.0999L150.362 33.2619L150.392 33.5779C150.483 34.5219 151.758 35.8339 152.891 35.8339C153.348 35.8339 153.742 35.6359 154.03 35.2669C154.207 35.3729 154.394 35.4449 154.586 35.4779L154.879 35.5289L155.064 35.2969C155.361 34.9229 155.482 34.5259 155.422 34.1179C155.401 33.9789 155.361 33.8469 155.306 33.7219C155.454 33.9009 155.578 34.0789 155.661 34.2909L155.787 34.6169L156.137 34.6099C156.501 34.6029 156.859 34.5849 157.208 34.5669C157.616 34.5469 158.013 34.5259 158.398 34.5259C158.77 34.5259 159.099 34.5469 159.396 34.5919C158.79 34.6729 158.191 34.7929 157.794 35.2269L157.018 36.0749L158.279 36.0639C160.426 36.0639 162.319 36.6319 163.847 37.3829C162.701 36.8759 161.422 36.4719 159.74 36.4719C159.41 36.4719 159.064 36.4879 158.701 36.5209L158.158 36.5709L158.255 37.1069C158.612 39.0939 159.814 40.2469 161.06 41.1969L161.311 41.3879L161.592 41.2439C161.888 41.0929 162.075 40.8799 162.149 40.6129C162.254 40.2339 162.096 39.8849 161.91 39.5689C162.14 39.8599 162.337 40.2029 162.539 40.5549C163.018 41.3919 163.562 42.3419 164.693 42.7259C164.901 42.7689 165.022 42.7799 165.133 42.7799C165.69 42.7799 166.009 42.5189 166.243 42.3279C166.44 42.1669 166.527 42.1019 166.72 42.1019C166.767 42.1019 166.82 42.1059 166.877 42.1149C167.829 43.4799 169.48 44.0869 171.327 44.4449C170.894 44.3859 170.458 44.3579 170.005 44.3579C169.835 44.3579 169.661 44.3619 169.482 44.3709L169.067 44.3909L169.011 44.8029C168.911 45.5339 169.037 46.1289 169.396 46.6189L169.65 46.9679L170.032 46.7669C170.562 46.4889 171.03 46.4739 171.525 46.4569C172.143 46.4369 172.844 46.4139 173.59 45.8509L174.328 45.2929L173.457 44.9809C172.965 44.8049 172.496 44.6679 172.032 44.5689C172.706 44.6769 173.396 44.7609 174.081 44.8449C174.669 44.9169 175.258 44.9879 175.831 45.0739L176.046 45.1059L176.217 44.9699C178.08 43.4879 178.807 40.9199 179.122 38.2569C179.028 40.7779 178.399 43.3279 177.571 44.2429L176.547 45.3729L178.041 45.0679C178.853 44.9029 179.68 44.7469 180.51 44.5899C185.035 43.7359 189.716 42.8539 192.53 40.2949C192.926 39.9359 193.149 39.4939 193.346 39.1049C193.597 38.6099 193.767 38.3049 194.104 38.1719C194.188 39.6569 192.85 41.0049 189.945 42.3809C187.379 43.5949 183.327 44.9829 179.652 45.2429L179.544 45.2499L179.448 45.3019C179.202 45.4359 179.046 45.6149 178.984 45.8339C178.951 45.9499 178.949 46.0589 178.964 46.1589C178.456 45.9849 177.871 45.8969 177.215 45.8969C175.51 45.8969 173.658 46.4849 172.492 47.0349L171.943 47.2939L172.302 47.7829C173.142 48.9239 174.251 49.7849 175.473 50.5109C174.994 50.3689 174.484 50.2579 173.929 50.1899L172.918 50.0679L172.971 49.3199L172.216 49.6449C172.114 49.6889 172.016 49.7099 171.917 49.7099C171.548 49.7099 171.12 49.4049 170.625 49.0529C170.052 48.6449 169.353 48.1469 168.449 47.9289C168.407 47.8479 168.358 47.7839 168.316 47.7329C168.35 47.7009 168.404 47.6609 168.487 47.6029C168.754 47.4149 169.25 47.0649 169.127 46.2479L169.117 46.1819L169.09 46.1209C168.751 45.3509 168.341 44.6359 167.873 43.9929L167.748 43.8209L167.537 43.7919C167.369 43.7689 167.214 43.7579 167.069 43.7579C166.548 43.7579 166.107 43.8939 165.721 44.1729L165.451 44.3689L165.528 44.6939C166.543 48.9529 169.287 51.6629 172.688 51.7669L173.147 51.7809L173.201 51.3259C173.253 50.8849 173.1 50.6059 173 50.4219C172.97 50.3659 172.947 50.3249 172.934 50.2899L173.47 50.9909C174.497 52.3319 175.94 53.3669 177.549 54.2579C176.857 54.0759 176.134 53.9679 175.372 53.9679H174.831C174.224 53.0359 173.329 52.3459 171.874 52.2239L170.954 52.1469L171.64 53.4239C172.557 55.1459 173.505 56.9269 175.398 57.8279L176.399 58.3039L176.165 57.4879C176.529 58.1209 177.004 58.6689 177.735 58.9959L178.453 59.3159L178.439 58.5299C178.436 58.3439 178.405 58.1449 178.363 57.9349C179.268 59.7649 180.969 60.9259 182.652 61.9239C182.035 61.6609 181.382 61.4319 180.679 61.2539L179.895 61.0559L180.068 61.8459C180.623 64.3789 182.11 65.9639 183.922 67.1769C183.816 67.1349 183.701 67.0989 183.58 67.0699L182.792 66.8819C182.792 66.8819 183.051 67.9809 183.09 68.1349C182.651 67.3439 182.136 66.6119 181.471 66.0189L181.328 65.8919H179.544L180.158 66.6959C180.682 67.3809 180.989 68.3129 181.313 69.2989C181.903 71.0919 182.571 73.1229 184.821 73.5719L185.923 73.7919L185.349 72.8259C185.026 72.2819 184.739 71.6799 184.465 71.0719C184.605 71.2129 184.758 71.3419 184.927 71.4579L185.787 72.0479L185.708 71.0069C185.626 69.9399 185.512 68.4539 184.625 67.6199C185.185 67.9549 185.767 68.2639 186.354 68.5609C186.301 68.5479 185.5 68.3599 185.5 68.3599L185.586 69.0689C185.724 70.2069 186.084 71.1129 186.432 71.9889C186.67 72.5859 186.894 73.1499 187.052 73.7839L187.148 74.1649L187.681 74.1619C189.663 74.1619 191.492 74.3969 193.262 74.6239C194.795 74.8209 196.244 75.0069 197.708 75.0339L197.974 75.0359C202.318 75.0359 206.019 73.0739 208.394 69.5109C211.105 65.4459 211.591 59.9299 209.701 55.0079C209.859 54.8799 209.968 54.7259 210.053 54.6049C210.116 54.5169 210.157 54.4609 210.192 54.4269C213.114 62.1809 209.633 71.8809 202.75 74.9509L200.982 75.7389L202.911 75.9059C205.682 76.1449 208.209 76.3629 210.541 76.3629C213.776 76.3629 216.325 75.9279 218.562 74.9959C219.947 74.4189 220.853 73.4619 221.729 72.5359C222.415 71.8119 223.07 71.1209 223.918 70.6639C223.5 72.1939 221.446 73.6099 220.703 74.1219C218.142 75.8899 215.003 76.7129 210.823 76.7129C208.026 76.7129 205.03 76.3449 202.133 75.9899C199.181 75.6279 196.127 75.2539 193.221 75.2539C191.871 75.2539 190.657 75.3319 189.506 75.4929L188.538 75.6279L189.214 76.3339C190.322 77.4899 191.825 78.5359 193.279 79.5479C193.769 79.8889 194.252 80.2249 194.712 80.5589C193.877 80.1089 193.011 79.6769 192.09 79.3049L191.374 79.0149L191.402 79.7869C191.478 81.8009 192.718 82.8719 194.194 83.6269C193.766 83.5139 193.321 83.4189 192.854 83.3449L192.381 83.2699L192.31 83.6199C191.943 82.5679 191.272 81.7559 189.923 81.5989L189.52 81.5519L189.391 81.9369C189.349 82.0629 189.312 82.1909 189.281 82.3159C189.298 81.9719 189.206 81.6479 189.01 81.3719C188.742 80.9949 188.304 80.7609 187.865 80.7609C187.303 80.7609 186.868 81.1329 186.757 81.7099L186.67 82.1619L187.112 82.2869C187.386 82.3639 187.597 82.5229 187.844 82.7079C188.043 82.8579 188.243 83.0059 188.476 83.1239L188.985 83.3829C188.985 83.3829 189.177 82.8359 189.179 82.8309C188.821 85.3069 190.389 87.5619 192.286 88.3729L193.126 88.7319L192.976 87.8309C192.897 87.3589 192.846 86.8599 192.795 86.3599C192.773 86.1369 192.749 85.9119 192.723 85.6859C192.802 85.8369 192.853 85.9809 192.856 86.1769L192.863 86.5649L193.241 86.6549C193.391 86.6909 193.53 86.7079 193.664 86.7079C194.05 86.7079 194.3 86.5619 194.482 86.4539C194.579 86.3969 194.638 86.3639 194.702 86.3489C194.783 86.6999 194.86 87.0809 194.94 87.4739C195.293 89.2169 195.712 91.2889 196.841 92.1349C196.666 92.1009 196.483 92.0789 196.292 92.0689L195.741 92.0389C195.741 92.0389 195.772 92.7529 195.778 92.8329C195.678 92.0469 195.464 91.2859 194.725 90.9489L194.059 90.6449L194.046 90.8839C193.873 89.7999 193.391 88.8659 191.994 88.8659L191.408 88.8859L191.4 89.3599C191.387 90.1709 191.346 92.6369 193.552 93.0589L194.12 93.1669C194.268 93.7379 194.582 94.2569 195.218 94.4909L195.981 94.7719L195.888 93.9639C195.873 93.8429 195.863 93.7209 195.851 93.5979C196.134 95.7039 197.022 97.3989 198.548 98.7569L199.301 99.4269L199.347 98.8259C199.37 99.1149 199.387 99.4029 199.384 99.6439C198.519 99.0759 197.884 98.2519 197.218 97.3879C196.143 95.9949 195.032 94.5529 192.873 94.1129L191.899 93.9139L192.32 94.8149C193.106 96.4939 194.419 97.6179 195.688 98.7059C196.887 99.7329 198.019 100.703 198.723 102.1L199.455 103.552L199.497 103.23C199.622 103.966 199.784 104.713 199.96 105.476C197.865 100.269 191.359 97.3939 186.012 95.0319C184.859 94.5219 183.77 94.0409 182.812 93.5719C180.529 92.4549 178.652 91.2379 176.836 90.0599C175.267 89.0419 173.783 88.0799 172.064 87.1789C171.574 86.9219 171.033 86.8199 170.509 86.7209C170.007 86.6259 169.532 86.5369 169.184 86.3229C168.784 86.0769 168.476 85.6849 168.15 85.2699C167.783 84.8029 167.403 84.3199 166.85 83.9919C165.905 83.4319 164.788 82.9839 163.708 82.5519C162.795 82.1859 161.851 81.8069 161.013 81.3619C158.899 80.2409 156.877 79.1799 154.884 78.1349C153.235 77.2699 151.606 76.4149 149.959 75.5449C149.074 75.0769 148.245 74.4539 147.442 73.8519C146.577 73.2029 145.683 72.5319 144.713 72.0479C144.148 71.7659 143.537 71.6549 142.948 71.5479C142.427 71.4539 141.935 71.3639 141.496 71.1659C140.093 70.5329 138.784 69.6759 137.398 68.7689C136.204 67.9859 134.968 67.1769 133.662 66.5219C131.447 65.4119 129.205 64.2359 127.037 63.0999C120.908 59.8869 114.57 56.5639 108.075 54.3039C107.473 53.8679 106.859 53.3559 106.21 52.8149C105.247 52.0119 104.154 51.1029 102.882 50.2639C101.623 49.4329 100.246 48.9379 98.915 48.4599C97.941 48.1099 97.021 47.7789 96.146 47.3279C95.553 47.0219 95.025 46.5209 94.515 46.0359C93.615 45.1809 92.684 44.2969 91.294 44.2969C91.061 44.2969 90.82 44.3229 90.577 44.3739L90.244 44.4439L90.187 44.7799C90.179 44.8269 90.148 44.8629 90.038 44.9679C89.8951 45.1029 89.701 45.2889 89.6161 45.6039L89.587 45.7099L89.605 45.8189C90.537 51.2649 96.621 54.8119 101.51 57.6629C102.107 58.0109 102.681 58.3459 103.22 58.6699C108.25 61.6919 113.311 65.3229 118.204 68.8339C127.037 75.1699 136.169 81.7219 145.685 85.1479C146.985 86.2809 148.48 87.2399 149.926 88.1679C150.741 88.6909 151.558 89.2149 152.344 89.7709C152.986 90.2249 153.67 90.6439 154.333 91.0499C156.017 92.0809 157.607 93.0549 158.613 94.5819L158.702 94.7159L158.851 94.7739C163.401 96.5219 167.021 99.3499 170.522 102.084C171.963 103.21 173.455 104.374 174.996 105.454C175.38 105.822 175.97 105.873 176.501 105.873C176.653 105.873 177.252 105.856 177.391 105.856C181.103 110.775 187.14 113.41 192.981 115.959C194.107 116.451 195.233 116.942 196.343 117.449L196.578 117.556L196.802 117.427C199.426 115.919 200.938 112.302 200.634 108.45ZM66.813 42.1539C55.754 50.9299 46.438 65.5189 42.5 80.2279C42.221 81.2749 41.771 82.2749 41.296 83.3349C40.738 84.5759 40.162 85.8589 39.876 87.2359C37.645 97.9739 38.802 108.77 40.165 115.936L40.231 116.286L40.584 116.338C40.872 116.381 41.142 116.4 41.395 116.4C43.503 116.4 44.5 115.026 45.38 113.815C45.672 113.413 45.947 113.033 46.261 112.691C50.745 107.801 56.761 105.402 63.13 102.864C65.578 101.887 68.111 100.878 70.54 99.7169L70.67 99.6549L70.746 99.5339C71.297 98.6669 72.014 97.9699 72.772 97.2309C74.337 95.7089 75.955 94.1359 76.054 91.0339C76.836 90.1969 77.527 89.2999 78.196 88.4299C79.483 86.7579 80.699 85.1779 82.523 83.9779C83.885 83.0809 85.441 82.0869 87.084 81.0379C92.112 77.8239 97.811 74.1799 101.474 71.1469C104.099 68.9729 106.475 65.1579 105.707 62.3719C105.383 61.1979 104.344 59.6969 101.23 59.2159L100.44 59.0939C100.44 59.0939 100.711 59.9689 100.731 60.0229C99.075 58.1009 97.352 56.1559 95.201 55.4539L94.8921 56.0279C91.549 52.6609 88.695 49.0289 87.703 43.4319C87.902 42.5779 88.441 42.4069 89.178 42.1719C90.036 41.8989 91.212 41.5249 91.183 39.6329L91.182 39.5469L91.152 39.4669C90.985 39.0129 90.645 38.9629 90.506 38.9629C90.278 38.9629 90.097 39.0749 89.933 39.2209C90.643 37.6669 91.795 36.9579 93.598 36.9399L93.921 36.9369L94.051 36.6409C94.5601 35.4799 95.525 34.7439 96.545 33.9639C96.94 33.6629 97.333 33.3619 97.703 33.0349L98.434 32.3899L97.664 32.2139C97.934 31.9829 98.242 31.6349 98.235 31.1799C99.191 30.7359 100.204 30.7159 101.185 30.6959C102.604 30.6679 104.072 30.6379 104.805 29.0919L105.24 28.1719L104.245 28.3899C103.985 28.4469 103.743 28.4759 103.526 28.4759C102.893 28.4759 102.508 28.2319 102.062 27.9499C101.837 27.8069 101.612 27.6659 101.361 27.5509L101.173 27.4649L100.979 27.5359C97.833 28.6959 94.428 29.5779 91.137 30.4309L90.954 30.4779L90.757 30.7679C89.19 33.0669 87.002 36.2769 85.204 39.7789C85.249 39.6509 85.2941 39.5229 85.34 39.3959C86.1831 37.0089 86.98 34.7539 88.206 32.6189L88.995 31.2449L87.56 31.9169C86.727 32.3069 85.902 32.7009 85.079 33.0939C81.091 34.9979 77.324 36.7959 73.092 37.9959C66.71 39.8059 63.71 52.7629 63.173 61.5229C62.991 60.4049 62.849 59.3399 62.964 58.3099C63.618 52.4599 65.15 48.1759 67.576 42.7519L66.813 42.1539ZM36.411 115.461C36.492 115.461 36.538 115.484 36.659 115.55C36.823 115.639 37.047 115.761 37.386 115.761L37.492 115.757L38.135 115.71L37.929 115.099C37.685 114.372 37.672 113.618 37.659 112.887C37.64 111.744 37.621 110.562 36.559 109.891L35.749 109.38L35.791 110.336C35.815 110.884 35.864 111.369 35.911 111.823C36.018 112.883 36.103 113.721 35.807 114.841L35.619 115.551L36.411 115.461ZM31.149 112.74C31.351 113.755 32.109 114.232 32.717 114.615C33.051 114.826 33.3661 115.025 33.577 115.284L34.456 114.878C34.348 114.287 34.051 113.899 33.789 113.557C33.543 113.235 33.349 112.981 33.298 112.579L33.242 112.142H31.029L31.149 112.74ZM34.051 107.64C34.001 108.077 34.092 108.428 34.322 108.685C34.56 108.952 34.926 109.087 35.408 109.087C35.519 109.087 35.64 109.08 35.765 109.067L36.211 109.019V106.963L35.77 106.911C35.707 106.904 35.649 106.9 35.593 106.9C35.254 106.9 35.03 107.022 34.867 107.111C34.745 107.177 34.6981 107.2 34.6161 107.2H34.171L34.051 107.64ZM184.315 88.8299C185.632 90.0309 186.794 91.3509 186.461 93.3629L186.386 93.8179L186.832 93.9299C187.143 94.0079 187.415 94.1429 187.702 94.2859C188.194 94.5309 188.751 94.8079 189.566 94.8179L190.108 94.8239L190.071 94.2829C189.634 87.9889 185.687 82.3569 183.926 80.1359C183.187 76.8369 181.904 74.0459 180.661 71.3469C179.632 69.1089 178.567 66.7949 177.837 64.2229L177.757 63.9429L177.475 63.8739C175.789 63.4599 175.328 62.3279 174.792 61.0159C174.223 59.6209 173.581 58.0489 171.396 57.2869C170.77 54.2639 167.712 51.1849 165.004 48.4589C164.254 47.7029 163.528 46.9729 162.891 46.2799L162.094 46.8759C164.759 51.3159 167.51 56.2029 169.83 61.4779C169.055 59.9369 168.254 58.4849 167.522 57.1599L167.031 56.2679L166.106 56.6249C167.123 60.8829 166.467 64.6629 165.774 68.6639C165.257 71.6449 164.722 74.7279 164.929 78.0459C164.569 77.6299 164.228 77.2229 163.929 76.7749L164.219 75.5259C165.764 68.9129 167.515 61.4179 165.024 54.8779C164.984 54.6899 165.028 54.6149 165.133 54.4349C165.274 54.1959 165.486 53.8339 165.333 53.1949L165.321 53.1449L165.299 53.0989C162.136 46.3309 157.033 41.5609 152.1 36.9489C147.389 33.7279 141.164 32.0659 135.143 30.4579C133.376 29.9859 131.55 29.4979 129.795 28.9809L128.664 28.6479L129.21 29.6929C130.266 31.7109 131.439 33.7309 132.572 35.6839C134.849 39.6059 137.163 43.5899 138.845 48.0319C137.542 44.7679 135.832 41.9479 134.141 39.3689L133.226 39.6999C133.912 45.6609 132.834 50.4019 131.695 55.4209C131.466 56.4259 131.233 57.4529 131.012 58.5009C130.749 56.4459 131.397 54.1489 132.072 51.7499C132.672 49.6199 133.292 47.4169 133.35 45.1799C133.519 38.7539 131.577 33.3139 127.411 28.5509L127.281 28.4019L127.085 28.3819C124.9 28.1649 122.916 27.7459 120.997 27.3409C118.241 26.7589 115.637 26.2089 112.505 26.2089C111.62 26.2089 110.719 26.2549 109.824 26.3459L109.533 26.3759L109.417 26.6439C107.917 30.0809 104.705 31.7729 101.304 33.5649C97.481 35.5779 93.529 37.6599 92.232 42.4189L92.121 42.8289L92.508 43.0049C93.046 43.2499 93.537 43.5359 94.057 43.8379C95.14 44.4689 96.2601 45.1209 97.8061 45.3599C98.6491 45.7569 99.448 46.4979 100.221 47.2139C101.384 48.2909 102.587 49.4049 104.044 49.4489L104.12 49.4509L104.193 49.4299C104.468 49.3529 104.61 49.1859 104.68 49.0589C104.865 48.7269 104.759 48.3609 104.665 48.0389C104.639 47.9479 104.6 47.8109 104.586 47.7199C105.05 47.9329 105.267 48.4659 105.514 49.0759C105.768 49.7009 106.055 50.4089 106.693 50.8229L107.572 51.3929L107.463 50.3509C107.414 49.8879 107.503 49.7739 107.514 49.7629C107.52 49.7569 107.53 49.7509 107.542 49.7469C107.67 49.9569 107.818 50.1509 107.963 50.3389C108.503 51.0429 108.743 51.4149 108.283 52.1819L108.006 52.6449L108.732 53.0069C109.87 53.5769 111.047 54.1659 112.314 54.6509L112.855 54.8589L112.981 54.2929C113.035 54.0489 113.045 53.8269 113.026 53.6239C113.731 55.0149 114.548 56.5599 116.455 56.9989L116.568 57.0249L116.68 56.9989C117.22 56.8729 117.493 56.3879 117.714 55.9989C117.772 55.8949 117.853 55.7519 117.915 55.6689C117.932 55.6819 118.013 55.7529 118.013 55.7529L118.057 55.7789C118.461 56.0169 118.659 56.5739 118.868 57.1629C119.179 58.0399 119.567 59.1329 120.852 59.3319L121.397 59.4169L121.427 58.8659C121.445 58.5599 121.398 58.3019 121.348 58.0939C123.135 60.9249 126.267 62.3759 129.301 63.7809C130.028 64.1179 130.756 64.4549 131.465 64.8109L132.184 65.1709L132.19 64.3679C132.191 64.2399 132.187 64.1059 132.184 63.9729C132.179 63.8219 132.173 63.5959 132.185 63.4119C132.244 63.5059 132.301 63.6009 132.36 63.6949C133.146 64.9769 133.96 66.3019 135.599 66.8719L136.317 67.1219L136.262 66.3639C136.206 65.5939 135.709 65.0069 135.272 64.4899C134.985 64.1509 134.784 63.8959 134.678 63.6709C135.074 64.1069 135.434 64.5909 135.808 65.0919C136.966 66.6469 138.164 68.2549 140.631 68.6379L141.166 68.7209L141.206 68.1799C141.257 67.4789 141.053 67.0289 140.873 66.6319C140.754 66.3689 140.65 66.1399 140.627 65.8409C141.418 60.8649 141.19 56.6259 140.364 52.9199C141.322 56.9079 141.687 61.3059 141.083 66.3399L141.054 66.5849L141.23 66.7569C141.552 67.0719 141.753 67.5689 141.966 68.0949C142.332 68.9999 142.788 70.1269 144.103 70.3809L144.193 70.3979L144.284 70.3819C144.882 70.2779 145.104 69.8099 145.252 69.4999C145.411 69.1669 145.437 69.1669 145.552 69.1669C145.595 69.1669 145.644 69.1719 145.699 69.1829C146.24 69.7039 146.64 70.3889 147.062 71.1129C147.94 72.6179 148.936 74.3239 151.442 74.4609L152.007 74.4909L151.968 73.9269C151.902 72.9819 151.347 72.2679 150.858 71.6379C150.446 71.1089 150.163 70.7229 150.108 70.3369C150.93 70.8759 151.351 71.8799 151.792 72.9319C152.418 74.4279 153.128 76.1219 155.162 76.4909L155.632 76.5759L155.738 76.1099C155.991 75.0029 155.447 74.3039 155.05 73.7929C154.778 73.4429 154.657 73.2639 154.666 73.0879C155.353 73.3349 155.968 74.0449 156.231 74.9349C156.496 75.8289 156.335 76.6269 155.803 77.0679L155.29 77.4939L155.842 77.8669C156.29 78.1699 156.851 78.2979 157.393 78.4209C157.814 78.5169 158.21 78.6069 158.502 78.7649L158.788 78.9199L159.046 78.7209C159.822 78.1209 159.382 77.2889 159.17 76.8879C159.112 76.7779 159.029 76.6199 159.002 76.5299C159.01 76.5279 159.02 76.5259 159.033 76.5219C159.788 76.7889 160.08 77.5809 160.416 78.4889C160.818 79.5819 161.275 80.8199 162.701 81.1389L163.288 81.2709L163.31 80.6699C163.339 79.8629 162.842 79.2629 162.443 78.7809C162.252 78.5509 161.99 78.2339 162.006 78.1049C162.008 78.0869 162.02 78.0619 162.044 78.0289C162.865 78.4239 163.197 79.3549 163.577 80.4189C163.735 80.8619 163.899 81.3189 164.106 81.7429L164.164 81.8599L164.271 81.9339C164.685 82.2219 165.224 82.2929 165.747 82.3629C166.09 82.4079 166.443 82.4549 166.675 82.5609L167.626 82.9959L167.367 81.9829C166.989 80.5019 166.174 79.4829 165.346 78.5269C165.771 78.6119 166.031 78.8799 166.307 79.1629C166.608 79.4719 166.948 79.8209 167.481 79.8209C167.71 79.8209 167.944 79.7549 168.193 79.6159C168.454 80.0029 168.751 80.3879 169.041 80.7639C169.991 81.9969 170.975 83.2709 170.752 84.6429L170.7 84.9609L170.969 85.1389C173.28 86.6739 175.869 88.1129 178.886 89.5379L179.488 89.8219L179.594 89.1659C179.777 88.0369 179.349 87.0899 179.005 86.3289C178.855 85.9939 178.732 85.7129 178.66 85.4659C179.628 86.5679 180.268 88.4589 180.058 89.8869L179.996 90.3129L180.409 90.4379C181.048 90.6309 181.559 90.9659 182.102 91.3199C182.871 91.8209 183.665 92.3399 184.853 92.4919L185.341 92.5549L185.411 92.0679C185.549 91.1129 185.104 90.3649 184.748 89.7639C184.521 89.3719 184.361 89.0879 184.315 88.8299ZM82.499 87.4189C81.627 87.4189 81.261 87.9979 81.019 88.3819C80.799 88.7309 80.701 88.8539 80.459 88.8759L79.798 88.9339L80.107 89.7359C80.354 90.3809 80.61 91.0469 80.937 91.6489L81.428 92.5489L81.883 91.4989C82.341 90.4429 82.815 89.3509 83.033 87.9999L83.125 87.4359L82.499 87.4189ZM167.383 80.6869C167.531 80.8569 167.652 81.4169 167.747 81.8679C167.951 82.8209 168.204 84.0069 169.19 84.0069C169.471 84.0069 169.763 83.8989 170.083 83.6759L170.574 83.3329L170.149 82.9109C169.851 82.6169 169.642 82.1909 169.42 81.7409C169.099 81.0879 168.734 80.3479 168.011 79.9259L167.383 80.6869ZM188.354 79.7749C188.715 80.6639 189.396 81.3779 190.713 81.4389L191.244 81.4629L191.236 80.9319C191.203 78.6609 190.302 77.2299 188.559 76.6809L187.868 76.4629L187.91 77.1869C187.944 77.7779 187.987 78.5209 188.171 79.2199C187.497 77.1879 186.665 74.9989 184.536 74.0809L183.258 73.5299L183.893 74.7679C184.151 75.2689 184.345 75.8349 184.551 76.4349C185.098 78.0259 185.718 79.8299 187.721 80.2649L188.575 80.4499L188.354 79.7749ZM33.166 59.1449C33.2 59.8709 33.601 60.2609 33.904 60.5559C34.19 60.8339 34.362 61.0019 34.339 61.4239L34.323 61.7069L34.557 61.8649C35.687 62.6279 36.756 63.4969 37.79 64.3369C39.235 65.5099 40.73 66.7239 42.442 67.7029L42.689 67.8439L42.937 67.7039C44.825 66.6329 45.95 65.1949 46.376 63.3069L46.522 62.6609L45.861 62.6979C44.902 62.7509 44.154 63.3109 43.495 63.8049C43.022 64.1589 42.5711 64.4969 42.1291 64.5789C42.7751 63.8309 43.602 63.2429 44.466 62.6279C45.324 62.0179 46.209 61.3889 46.929 60.5739C47.13 60.6249 47.322 60.6499 47.502 60.6499C48.976 60.6499 49.394 59.0579 49.571 58.3789L49.752 57.6929L49.045 57.7539C48.103 57.8359 47.281 58.2529 46.487 58.6569C45.689 59.0619 44.936 59.4439 44.144 59.4439C44.089 59.4439 44.035 59.4419 43.98 59.4389C44.346 59.2049 44.799 59.0289 45.269 58.8469C46.219 58.4779 47.297 58.0599 47.794 57.0129L48.096 56.3759L47.395 56.3009C47.276 56.2879 47.158 56.2819 47.041 56.2819C46.29 56.2819 45.585 56.5269 44.963 56.7419C44.566 56.8799 44.184 57.0129 43.838 57.0669C44.98 56.2999 46.502 55.8959 47.984 55.5029C50.091 54.9439 52.271 54.3659 53.296 52.6949L53.758 51.9429L52.875 51.9339C51.768 51.9339 50.7641 52.3979 49.7931 52.8459C48.9511 53.2349 48.155 53.6019 47.427 53.6149C49.948 52.7269 51.89 51.7229 53.467 50.5029L54.4781 49.7209L53.205 49.6099C49.597 49.2939 46.315 48.3769 43.582 46.9629C45.72 48.0509 48.163 48.5759 50.99 48.5759L51.608 48.5689L51.746 48.4479C52.988 47.3509 54.809 46.7159 56.57 46.1029C58.117 45.5629 59.716 45.0049 61.005 44.1219L62.223 43.2879L60.749 43.2099C60.656 43.2049 60.563 43.2029 60.472 43.2029C58.975 43.2029 57.691 43.8239 56.449 44.4259C55.636 44.8199 54.858 45.1959 54.097 45.3479C54.916 44.9719 55.674 44.4679 56.417 43.9739C57.646 43.1569 58.806 42.3849 60.039 42.3849C60.659 42.3849 61.272 42.5769 61.913 42.9719L62.487 43.3259L62.659 42.6749C62.707 42.4949 62.874 42.4029 63.244 42.2369C63.74 42.0129 64.5711 41.6389 64.4181 40.4469L64.37 40.0729L64 40.0149C63.722 39.9729 63.448 39.9529 63.179 39.9529C61.833 39.9529 60.614 40.4389 59.538 40.8679C58.922 41.1139 58.329 41.3499 57.779 41.4679C58.673 41.1519 59.586 40.8169 60.388 40.3649L60.545 40.2769L60.609 40.1079C60.656 39.9869 60.796 39.6189 60.619 39.2849C60.604 39.2579 60.59 39.2339 60.573 39.2099C64.819 38.9309 67.666 38.1949 69.721 36.8569L70.335 36.4579L69.739 36.0319C67.6 34.5039 65.127 34.2979 62.988 34.2979C62.036 34.2979 61.05 34.3469 60.096 34.3939C59.135 34.4409 58.141 34.4909 57.174 34.4909C57.002 34.4909 56.83 34.4899 56.659 34.4859C56.115 34.4749 55.545 34.2809 54.941 34.0749C54.396 33.8889 53.833 33.6969 53.226 33.6159C53.025 33.5899 52.811 33.5779 52.586 33.5779C52.216 33.5779 51.815 33.6079 51.408 33.6389C51.014 33.6689 50.613 33.6999 50.23 33.6999C49.433 33.6999 48.935 33.5579 48.641 33.2279C49.225 33.0609 49.868 32.9789 50.59 32.9789C51.592 32.9789 52.635 33.1299 53.739 33.2899C54.937 33.4629 56.177 33.6419 57.468 33.6419C58.703 33.6419 59.818 33.4759 60.874 33.1329L61.536 32.9179L61.121 32.3589C60.915 32.0819 60.7041 31.7819 60.4911 31.4649C62.917 34.0259 66.919 34.1379 70.797 34.2459C71.505 34.2659 72.213 34.2849 72.911 34.3199C73.205 34.3339 73.542 34.4669 73.869 34.5949C74.261 34.7489 74.667 34.9089 75.084 34.9089C75.742 34.9079 76.25 34.5119 76.593 33.7299L76.719 33.4429L76.515 33.2039C75.952 32.5469 75.012 32.4069 74.1031 32.2719C73.83 32.2319 73.564 32.1919 73.319 32.1409C73.339 32.1399 73.359 32.1399 73.38 32.1399C74.034 32.1399 74.6811 32.2039 75.3061 32.2659C75.91 32.3259 76.534 32.3869 77.145 32.3869C78.326 32.3869 79.2871 32.1479 80.1681 31.6349L80.462 31.4639L80.411 31.1279C80.229 29.9239 79.158 29.6549 78.297 29.4389C77.818 29.3179 77.479 29.2179 77.256 29.0739C78.784 29.1339 79.839 29.6619 80.953 30.2199C81.578 30.5339 82.224 30.8569 82.962 31.0969L83.385 31.2349L83.571 30.8309C83.606 30.7809 83.831 30.7179 83.952 30.6839C84.33 30.5779 85.115 30.3569 85.07 29.4349L85.063 29.2849L84.974 29.1639C84.326 28.2789 83.269 27.8959 82.247 27.5249C81.828 27.3729 81.423 27.2259 81.06 27.0509C81.295 26.8439 81.506 26.4779 81.259 25.7989L81.221 25.6929L81.141 25.6139C79.972 24.4589 78.024 24.1869 76.14 23.9249C74.251 23.6609 72.448 23.4099 71.553 22.3449C72.069 22.4999 72.557 22.6899 73.062 22.8859C74.287 23.3629 75.552 23.8559 77.316 23.8559L78.102 23.8369L78.09 23.3399C78.069 22.4619 77.526 21.4059 76.897 20.1829C76.312 19.0439 75.673 17.8019 75.5301 16.7529C75.8081 17.3369 76.063 17.9469 76.313 18.5459C77.126 20.4889 77.9641 22.4989 79.6161 23.7509L79.8061 23.8949L80.039 23.8369C80.324 23.7659 80.5981 23.7299 80.8531 23.7299C81.5131 23.7299 82.018 23.9639 82.356 24.4259C82.387 24.6089 82.344 24.6819 82.25 24.8439C82.109 25.0839 81.897 25.4449 82.05 26.0849L82.082 26.2209L82.18 26.3209C83.168 27.3219 84.624 27.7929 86.032 28.2479L86.74 28.4789L87.3791 28.6939L87.4 28.0199C87.419 27.4039 87.18 26.9989 86.85 26.7259C87.196 26.9569 87.546 27.2999 87.89 27.6369C88.37 28.1069 88.825 28.5519 89.325 28.7579L89.528 28.8419L89.727 28.7479C90.453 28.4079 91.285 28.1339 92.088 27.8689L93.276 27.4689L93.208 27.0519C93.022 25.9059 92.24 25.3789 91.49 24.9509C91.511 24.9599 91.53 24.9689 91.55 24.9779C92.127 25.2439 92.7251 25.5179 93.5431 25.5949L94.025 25.6389L94.085 25.1589C94.189 24.3269 93.689 23.8179 93.323 23.4459C93.102 23.2219 93.004 23.1139 92.988 23.0289C93.613 23.1929 93.908 23.6979 94.303 24.4559C94.746 25.3039 95.298 26.3599 96.749 26.4679L97.086 26.4929L97.235 26.1889C97.766 25.1039 97.48 24.0709 97.032 23.1579C97.423 23.8279 97.8671 24.4739 98.5431 24.9289L98.878 25.1549L99.169 24.8739C99.987 24.0839 99.776 22.9449 99.589 21.9399C99.519 21.5619 99.45 21.1949 99.435 20.8669C99.448 20.9109 99.461 20.9579 99.475 21.0099C99.616 21.5199 99.85 22.3739 100.847 22.3969L101.043 22.4009L101.189 22.2709C102.299 21.2879 102.963 19.8719 103.402 18.3019L103.563 19.3549C103.594 19.5619 103.57 19.5789 103.335 19.7409C103.066 19.9279 102.564 20.2759 102.689 21.0989L102.702 21.1809L102.74 21.2549C102.806 21.3819 102.838 21.6159 102.869 21.8419C102.933 22.3119 103.013 22.8959 103.505 23.1959L104.35 23.7119L104.264 22.7259C104.24 22.4419 104.336 22.1209 104.46 21.7799C104.448 22.1939 104.417 23.7019 104.417 23.7019L105.049 23.5449C106.562 23.1699 106.743 21.5869 106.904 20.1919C106.959 19.7189 107.014 19.2379 107.119 18.8249C107.163 19.5239 107.02 20.3479 106.888 21.1079C106.657 22.4459 106.437 23.7109 107.242 24.3299L107.601 24.6069L107.912 24.2759C108.701 23.4339 109.069 22.2379 109.427 21.0799C109.591 20.5459 109.751 20.0269 109.946 19.5559C109.856 21.3459 109.502 22.6979 108.875 23.6609L108.108 24.8369L109.446 24.4099C110.964 23.9259 111.483 22.4799 111.942 21.2039C112.226 20.4149 112.498 19.6599 112.962 19.1539C113.192 19.8059 112.801 20.6839 112.212 21.8599C111.861 22.5579 111.53 23.2179 111.419 23.8469L111.293 24.5519L111.999 24.4269C114.392 24.0009 116.041 21.3949 117.497 19.0949C117.724 18.7349 117.945 18.3859 118.164 18.0539C118.18 18.6179 117.846 19.1589 117.363 19.8539C116.842 20.6049 116.252 21.4569 116.692 22.4009L116.999 23.0579L117.504 22.5379C117.972 22.0579 118.367 21.4079 118.787 20.7199C119.402 19.7109 120.035 18.6729 120.806 18.3839C120.475 19.1069 119.831 19.9019 119.16 20.7329C118.459 21.6009 117.734 22.4979 117.279 23.4239L116.836 24.3279L117.824 24.1349C122.633 23.1959 125.745 20.6099 126.364 17.0409C126.718 15.0039 126.156 13.2689 125.661 11.7369C125.581 11.4899 125.504 11.2499 125.431 11.0139C126.756 11.6699 126.846 13.2659 126.817 15.6349C126.799 17.0479 126.781 18.5059 127.331 19.5749C126.56 20.8509 125.271 21.6389 123.911 22.4699C122.956 23.0539 121.97 23.6569 121.158 24.4509L120.566 25.0299L121.354 25.2839C121.836 25.4389 122.331 25.5179 122.829 25.5179C124.636 25.5179 126.475 24.5049 128.41 22.4349C127.957 23.2959 127.362 24.0319 126.749 24.7919C126.516 25.0809 126.281 25.3709 126.056 25.6679L125.124 26.8909L126.597 26.4509C128.897 25.7629 130.463 24.3539 131.979 22.9919C132.086 22.8949 132.194 22.7989 132.301 22.7029C132.078 23.0529 131.768 23.3759 131.423 23.7359C130.966 24.2109 130.448 24.7499 130.082 25.4499L129.703 26.1759L130.521 26.1819C132.068 26.1819 133.048 25.1599 133.835 24.3389C134.084 24.0789 134.317 23.8359 134.542 23.6469C134.043 24.5049 133.324 25.1669 132.575 25.8569C132.152 26.2469 131.715 26.6499 131.315 27.0929L130.51 27.9879L131.712 27.9269L131.904 27.9219C132.702 27.9219 133.217 28.1809 133.815 28.4799C134.005 28.5759 134.196 28.6699 134.394 28.7569L134.712 28.8959L134.953 28.6459C135.783 27.7869 136.955 27.2479 138.195 26.6769C139.621 26.0199 141.088 25.3449 142.063 24.1259C142.084 24.7949 141.417 25.4179 140.253 26.3349C139.539 26.8979 138.866 27.4289 138.519 28.0569L138.108 28.7999H138.957C142.701 28.7969 145.858 27.5989 147.85 25.4259C149.718 23.3849 150.515 20.6189 150.217 17.2039L150.206 17.0749L150.134 16.9679C146.898 12.1499 142.883 9.1439 138.2 8.03391C136.121 7.5409 134.022 6.9969 131.802 6.4209C126.938 5.1589 121.907 3.85491 116.928 3.08191C114.68 2.73291 112.273 2.5639 109.571 2.5639C106.539 2.5639 103.535 2.7759 100.631 2.9809C97.812 3.1799 95.149 3.36792 92.538 3.36792H92.422C91.346 3.27592 90.179 3.22791 88.996 3.22791C80.853 3.22791 72.045 5.4829 66.558 8.9729C63.989 10.6069 61.293 12.1479 58.439 13.7789C48.222 19.6179 37.659 25.6559 33.518 35.9099C30.769 39.7489 27.455 48.0789 29.007 53.9119C29.659 56.3319 31.055 58.0919 33.166 59.1449ZM176.899 61.0699C177.029 61.3669 177.122 61.7179 177.219 62.0889C177.481 63.0869 177.779 64.2179 178.968 64.5509L179.786 64.7799L179.589 63.9529C179.226 62.4279 178.603 61.2959 177.686 60.4929L176.899 61.0699ZM156.375 36.8129L155.731 36.8659L155.944 37.4759C156.311 38.5289 157.025 39.3509 158.19 40.0639L159.078 40.6079L158.947 39.5749C158.892 39.1449 158.213 36.8069 156.52 36.8069C156.52 36.8069 156.424 36.8089 156.375 36.8129ZM145.157 28.4549C144.144 28.4549 143.31 29.0649 143.129 29.9379L143.008 30.5169L143.599 30.5399C143.953 30.5539 144.351 30.7259 144.737 30.8929C145.165 31.0779 145.606 31.2689 146.046 31.2689C146.334 31.2689 146.594 31.1879 146.819 31.0269L146.988 30.9059L147.021 30.7019C147.155 29.8929 146.891 29.3809 146.648 29.0939C146.64 29.0849 146.632 29.0759 146.625 29.0679L146.769 29.0829C146.92 29.0989 147.065 29.1069 147.201 29.1069C148.343 29.1069 149.022 28.4999 149.066 27.4429L149.076 27.2059L148.897 27.0479C148.609 26.7929 148.244 26.6519 147.87 26.6519C147.409 26.6519 146.972 26.8579 146.674 27.2179C146.35 27.6079 146.228 28.1269 146.331 28.6779L146.358 28.8249C146.029 28.5859 145.609 28.4549 145.157 28.4549ZM153.516 188.285C152.976 187.047 152.462 185.762 151.921 184.409C151.443 183.215 150.964 182.013 150.461 180.833C150.738 181.458 151.012 182.084 151.283 182.706C152.056 184.473 152.854 186.298 153.709 188.039C153.624 188.125 153.563 188.215 153.516 188.285ZM81.6161 185.251C81.0971 183.867 80.965 182.265 80.984 180.633C81.075 182.219 81.3481 183.773 81.6161 185.251ZM178.602 184.591C178.565 184.396 178.526 184.199 178.485 184.006C178.59 184.297 178.608 184.481 178.602 184.591ZM95.997 178.252C96.564 177.903 97.099 177.545 97.6 177.177C97.08 177.574 96.55 177.939 95.997 178.252ZM112.728 175.097C112.868 174.926 113.013 174.746 113.154 174.561L113.163 174.647C113.185 174.861 113.212 175.074 113.241 175.287L113.236 175.285C113.145 175.255 113.048 175.239 112.95 175.239C112.809 175.239 112.676 175.27 112.552 175.315C112.552 175.315 112.669 175.171 112.728 175.097ZM196.418 173.61C194.83 172.967 193.466 172.066 192.169 171.136C192.699 171.407 193.296 171.614 193.884 171.819C195.508 172.384 196.353 172.775 196.418 173.61ZM30.574 158.857C30.54 158.857 30.495 158.853 30.436 158.84C30.538 157.983 30.665 157.144 30.817 156.323C30.811 156.564 30.823 156.833 30.835 157.111C30.859 157.667 30.899 158.596 30.682 158.824C30.669 158.838 30.65 158.857 30.574 158.857ZM50.933 156.463C50.687 156.385 50.436 156.312 50.18 156.243C50.186 156.195 50.188 156.148 50.185 156.103C50.423 156.224 50.673 156.346 50.933 156.463ZM114.982 153.719C114.169 153.512 113.375 153.323 112.597 153.162L112.232 153.087L112.06 153.406L112.046 153.385C111.694 152.828 111.247 152.388 110.742 152.023C111.43 152.351 112.145 152.664 112.896 152.956C113.591 153.225 114.285 153.48 114.982 153.719ZM207.271 151.217C206.794 150.77 206.412 150.207 206.016 149.626C205.865 149.403 205.711 149.178 205.551 148.957C206.198 149.653 206.78 150.401 207.271 151.217ZM107.961 150.63C107.116 150.287 106.242 149.933 105.497 149.451C105.078 149.18 104.745 148.775 104.393 148.346C104.361 148.308 104.33 148.269 104.297 148.231C105.641 149.114 107.013 150.009 108.497 150.849C108.497 150.849 108.14 150.703 107.961 150.63ZM203.54 147.085C203.178 146.909 202.794 146.782 202.419 146.658C201.861 146.474 201.335 146.3 200.934 145.987C200.446 145.607 200.08 145.057 199.692 144.474C199.628 144.379 199.565 144.283 199.501 144.188C200.882 145.106 202.269 146.044 203.54 147.085ZM101.222 146.255C100.13 145.861 99.339 145.528 98.972 144.976C99.745 145.378 100.488 145.807 101.222 146.255ZM224.803 145.482C224.317 145.093 223.814 144.658 223.289 144.205C222.083 143.164 220.777 142.036 219.314 141.129C221.554 142.23 223.69 143.578 225.742 145.185C225.74 145.199 225.737 145.206 225.737 145.206C225.693 145.252 225.462 145.303 225.323 145.333C225.155 145.371 224.975 145.411 224.803 145.482ZM47.195 145.352C45.792 144.551 44.339 143.873 42.735 143.269C44.161 143.525 45.672 143.68 47.157 143.833L48.055 143.927C47.755 143.968 47.4541 144.05 47.1551 144.173L46.748 144.341L46.863 144.766C46.919 144.974 47.034 145.168 47.195 145.352ZM194.801 140.72C193.877 140.228 193.031 139.692 192.423 138.882C192.432 138.882 192.44 138.882 192.448 138.882C193.204 138.882 193.678 139.399 194.389 140.242C194.523 140.4 194.659 140.561 194.801 140.72ZM69.308 122.125C67.898 121.493 66.9951 120.883 66.7931 119.885C67.4721 120.036 67.797 120.513 68.117 121.272L68.177 121.413L68.305 121.496C68.634 121.71 68.968 121.92 69.308 122.125ZM187.322 117.906C187.074 117.722 186.846 117.497 186.63 117.244C186.94 117.441 187.277 117.615 187.644 117.761L187.747 117.801C187.609 117.825 187.469 117.86 187.322 117.906ZM141.553 114.278C141.391 114.082 141.227 113.902 141.062 113.74C139.072 111.781 133.607 111.65 128.786 111.534C126.876 111.488 125.073 111.445 123.914 111.275C123.466 111.209 123.019 111.137 122.575 111.059C124.019 111.224 125.604 111.306 127.36 111.305C130.189 111.305 133.032 111.099 135.782 110.899L138.067 110.736L137.282 109.96C135.727 108.424 134.091 106.925 132.508 105.476C127.756 101.126 122.843 96.6289 119.646 90.6249C120.909 92.2919 122.279 93.8539 123.792 95.2659L124.128 95.5799L124.469 95.2699C127.304 92.6939 126.41 88.2039 125.693 84.5959C125.503 83.6419 125.319 82.7189 125.227 81.9269C127.454 85.8319 127.549 93.1609 125.164 96.9619L124.975 97.2649L125.201 97.5429C127.317 100.151 129.81 102.436 132.221 104.645C134.29 106.542 136.43 108.503 138.301 110.645L138.54 110.918L138.873 110.776C140.847 109.937 142.247 108.42 143.038 106.266C144.612 101.973 143.376 96.1839 141.451 92.3489L141.415 92.2789L141.36 92.2229C141.206 92.0659 141.023 91.9159 140.838 91.7649C140.308 91.3339 140.043 91.0789 140.069 90.7349C143.02 93.0439 144.019 97.3639 144.579 103.092L144.643 103.746L145.256 103.509C147.501 102.644 148.147 99.5829 148.483 96.7019C148.522 96.3599 148.439 95.9529 148.352 95.5219C148.269 95.1149 148.131 94.4349 148.27 94.2649C148.294 94.2349 148.366 94.2139 148.462 94.2079C149.871 100.079 146.661 103.608 143.557 107.024C142.202 108.515 140.921 109.922 139.992 111.515L139.831 111.791L140.014 112.053C140.532 112.802 141.047 113.542 141.553 114.278ZM117.092 109.783C113.345 108.702 109.774 107.249 106.382 105.603C107.701 106.092 109.066 106.453 110.338 106.453L112.101 106.419L110.734 105.532C110.378 105.301 110.006 105.056 109.625 104.797C111.642 105.97 113.673 106.708 115.7 107C115.74 107.058 115.781 107.114 115.822 107.171C116.208 107.708 116.512 108.131 116.366 109.074L116.306 109.461L116.667 109.612C116.807 109.671 116.948 109.728 117.092 109.783ZM168.382 105.555C167.369 104.761 166.489 103.639 165.628 102.539C165.204 101.998 164.784 101.463 164.355 100.97L164.02 100.582C165.088 101.54 166.022 102.692 166.925 103.807C167.397 104.39 167.876 104.981 168.382 105.555ZM104.856 101.206C103.03 99.6629 101.249 97.9209 99.804 96.0499L99.711 95.9289C98.942 94.9369 98.325 94.0309 98.576 93.1049C99.386 93.2469 99.591 93.8379 99.876 94.8629C100.015 95.3619 100.158 95.8789 100.437 96.3269C101.47 97.9879 103.35 99.8489 104.856 101.206ZM97.089 100.465C94.556 98.9179 92.154 97.3559 89.889 95.8819L88.777 95.1579C88.532 94.5309 87.958 94.0499 87.399 93.5819C86.898 93.1619 86.38 92.7279 86.36 92.3629C86.355 92.2739 86.382 92.1759 86.44 92.0699C87.233 92.6029 87.875 93.2999 88.547 94.0329C89.726 95.3159 90.944 96.6419 93.059 97.1049C94.295 98.2809 95.658 99.4149 97.089 100.465ZM30.924 98.9569C30.608 98.3999 30.313 97.8349 30.057 97.2349C30.31 97.4359 30.562 97.6369 30.809 97.8389L30.85 98.4239C30.863 98.6129 30.889 98.7899 30.924 98.9569ZM20.059 97.2669C18.532 95.1469 16.833 93.2539 15.213 91.4499C13.901 89.9889 12.6491 88.5949 11.5431 87.1579C12.1211 87.4239 12.605 87.9129 13.079 88.3899L13.253 88.5649C15.854 91.1579 18.057 94.1399 20.059 97.2669ZM78.742 95.7959C78.809 95.6609 78.877 95.5239 78.944 95.3889C78.782 95.8259 78.607 96.2229 78.375 96.5439C78.375 96.5439 78.616 96.0499 78.742 95.7959ZM199.363 95.2199C199.238 94.3649 198.974 93.6119 198.481 93.0479C198.298 92.8399 198.09 92.6649 197.856 92.5229C197.911 92.5269 197.965 92.5289 198.022 92.5289C198.237 92.5289 198.461 92.4959 198.694 92.4299C198.859 93.5149 199.603 94.0449 200.441 94.3559C200.285 94.3629 200.126 94.3789 199.964 94.4059L199.743 94.4419L199.623 94.6309C199.512 94.8069 199.427 95.0049 199.363 95.2199ZM119.49 90.4309C116.109 87.8499 114.04 82.9419 112.377 78.9989C112.176 78.5239 111.892 78.0559 111.591 77.5609C110.977 76.5489 110.389 75.5799 110.511 74.6049L110.836 75.2619C113.422 80.4969 116.071 85.8619 119.511 90.4469L119.49 90.4309ZM182.26 89.0439C181.683 88.2139 181.219 87.2209 181.07 86.3419C181.644 87.0199 182.06 88.0689 182.26 89.0439ZM56.924 85.9809C56.96 81.8099 57.803 77.6859 59.44 73.8639C59.894 72.8009 60.619 71.7389 61.319 70.7129C62.384 69.1519 63.39 67.6779 63.549 66.1569C63.662 65.0789 63.564 64.0269 63.413 63.0009C63.43 63.0339 63.447 63.0679 63.464 63.1009C63.803 63.7609 64.123 64.3869 64.277 65.1689C63.82 66.2419 63.814 67.5359 63.808 68.6849C63.805 69.3189 63.802 69.9189 63.722 70.3829L63.692 70.5589L63.781 70.7139C64.433 71.8659 65.029 73.0719 65.604 74.2379C65.622 74.2729 65.638 74.3079 65.656 74.3429C65.155 73.4589 64.663 72.5719 64.175 71.6899L62.808 69.2369L62.352 69.8899C59.766 73.5839 57.429 79.5439 56.924 85.9809ZM73.471 85.2079C72.401 84.1769 71.414 83.0509 70.492 81.8569C70.717 82.0609 70.946 82.2589 71.173 82.4549C72.163 83.3129 73.113 84.1339 73.471 85.2079ZM174.327 84.6739C173.693 83.9699 173.272 82.7239 173.188 81.7479C173.899 82.3569 174.306 83.6309 174.327 84.6739ZM174.81 77.3369C174.046 75.9229 173.782 74.1939 173.507 72.3939C173.418 71.8139 173.328 71.2239 173.219 70.6359C173.865 72.8179 174.405 75.0529 174.81 77.3369ZM34.9311 74.0999C34.4241 73.3459 33.957 72.6229 33.618 71.9569C33.78 72.0009 33.938 72.0539 34.099 72.1069C34.13 72.1169 34.16 72.1279 34.192 72.1379L34.363 72.6599C34.528 73.1639 34.7201 73.6419 34.9311 74.0999ZM73.38 67.6269C73.139 66.9299 73.155 65.9719 73.429 64.7609C73.919 62.5919 75.837 60.4129 77.691 58.3069C79.402 56.3639 81.17 54.3539 81.851 52.3009C81.957 51.9809 82.036 51.6559 82.092 51.3299L82.152 52.0499C82.351 54.4519 82.553 56.9019 83.081 59.3389C82.734 57.9869 82.435 56.5279 82.158 54.9659L81.998 54.0629L81.326 54.6859C77.925 57.8409 73.943 62.5429 73.38 67.6269ZM86.97 67.2439C86.457 66.7229 85.998 66.1459 85.585 65.5149C85.681 65.6019 85.779 65.6869 85.88 65.7739C86.573 66.3719 86.967 66.7739 86.97 67.2439ZM185.239 57.9289C184.365 57.5829 183.539 57.1519 182.733 56.7059C183.62 57.1059 184.47 57.5059 185.239 57.9289ZM181.023 53.2849C180.58 53.0939 180.158 52.8749 179.743 52.6419C180.175 52.8499 180.604 53.0619 181.023 53.2849ZM82.237 47.9639C82.233 47.1089 82.256 46.3019 82.441 45.5779C82.543 45.1819 82.855 44.7889 83.157 44.4079C83.172 44.3899 83.186 44.3709 83.201 44.3529C82.844 45.3669 82.549 46.3829 82.34 47.3879C82.3061 47.5519 82.271 47.7479 82.237 47.9639ZM43.148 46.7319C41.172 45.6499 39.502 44.2989 38.226 42.7239C38.248 42.7109 38.405 42.6189 38.462 42.5859C39.847 44.3809 41.393 45.7549 43.148 46.7319ZM178.564 34.4499C178.17 33.8299 177.707 33.0999 177.557 32.5179C178.029 32.8299 178.406 33.4049 178.68 34.2359C178.753 34.4589 178.818 34.6939 178.872 34.9409C178.872 34.9409 178.671 34.6179 178.564 34.4499ZM58.786 28.5659C57.993 27.0369 57.295 25.3799 56.873 23.8189C57.613 24.7009 57.936 25.7949 58.292 27.0089C58.443 27.5239 58.597 28.0449 58.786 28.5659ZM104.435 18.9439L103.511 17.9079C103.826 16.6629 104.016 15.3399 104.186 14.0699C104.495 15.8079 104.553 17.4109 104.534 19.0639C104.534 19.0639 104.471 18.9839 104.435 18.9439Z" fill="#604C3F"/>
</svg>
