<svg width="125" height="261" viewBox="0 0 125 261" fill="none" xmlns="http://www.w3.org/2000/svg">
<path fill-rule="evenodd" clip-rule="evenodd" d="M77.6979 77.0332C75.9089 73.3232 74.6559 69.3572 73.1059 66.4392C72.2719 64.8702 72.1219 62.9522 71.4549 61.2552C70.6899 59.3052 69.3169 58.0762 68.6179 56.1032C65.7539 52.9472 62.7879 50.0292 60.0779 46.5092C59.1299 45.2812 58.4759 44.9902 57.6359 43.4462C57.2489 42.7322 56.4449 42.2242 56.1559 41.6442C55.6509 40.6292 55.6389 40.4922 54.9859 39.8682C53.9259 38.8562 53.2149 38.0992 52.1859 37.4012C51.2969 36.3572 50.2379 36.3912 49.0829 36.4082C46.4779 35.9182 43.2899 36.8062 40.8939 35.8252C43.5639 38.0632 25.9029 41.5362 24.6249 41.9662C24.1869 42.9752 21.8909 44.3192 20.9979 45.2362C19.1479 47.1342 17.6279 49.1982 16.7649 51.4542C15.4259 54.9522 15.9669 58.7462 15.3179 62.6952C16.5849 70.5142 16.7269 77.6782 20.7929 85.8372C20.5829 87.3902 21.8999 88.7722 22.4409 90.2712C22.8219 91.3312 22.9339 92.5812 23.3589 93.6512C24.1149 95.5452 25.2849 97.2872 26.0959 99.2952C26.5359 100.383 26.7479 101.647 27.1959 102.75C28.7099 106.473 30.4389 109.559 31.8109 112.285C34.0619 116.762 37.0599 120.483 39.7119 123.639C40.0569 125 41.1279 126.631 42.0279 127.502C43.0219 129.94 44.9329 132.998 46.1689 135.129C47.7929 137.931 48.1119 140.909 49.3549 142.991C50.6459 148.17 53.8239 153.208 56.5769 158.222C58.6439 161.987 60.5669 165.789 62.7719 169.067C61.6049 170.957 63.6419 174.583 64.6929 177.143C65.2759 178.562 66.2509 180.643 66.8029 181.239C67.6519 178.643 63.7599 174.527 64.7729 172.157C66.3749 174.57 68.3809 176.847 70.0499 179.623C71.7849 182.51 73.0979 185.878 74.9969 188.872C75.4439 189.574 76.1579 190.055 76.6589 190.75C78.0959 192.742 79.1819 195.377 80.0989 197.759C81.0899 200.331 82.5609 203.19 83.8809 205.981C84.2389 206.739 84.5809 207.56 84.8209 208.301C86.3029 212.886 82.6109 215.349 81.5619 218.776C81.2009 219.955 81.0349 221.071 80.8549 222.214C80.4169 224.972 81.3089 226.974 82.2079 230.369C82.6689 232.108 82.9039 233.539 83.3389 235.012C84.6899 233.875 81.8479 228.563 82.6199 227.181C83.4939 228.789 85.5189 234.75 87.1129 235.434C86.7389 233.732 86.2159 233.212 85.6259 232.135C82.9289 227.213 81.9079 222.732 83.8889 219.333C85.1839 217.114 88.0129 215.644 89.3389 213.523C90.3819 217.566 92.3469 221.04 94.8589 223.441C95.1119 223.797 94.9169 223.964 95.0429 224.267C97.2389 225.554 98.4999 229.053 100.751 230.207C102.815 233.073 104.158 236.85 106.063 239.609C105.22 242.884 105.57 250.696 106.138 250.533C106.233 249.142 106.509 247.61 106.608 246.141C106.672 245.203 106.168 244.036 106.957 243.298C108.251 246.306 108.655 249.541 108.962 252.69C108.801 256.562 104.322 260.223 104.619 260.362C105.577 259.545 107.666 257.85 108.224 256.803C109.305 254.775 109.881 254.261 110.902 252.197C114.238 248.129 114.608 243.69 115.743 238.688C116.881 240.049 118.238 242.668 118.947 244.743C119.26 245.66 119.257 246.903 120.427 246.544C121.084 243.218 117.204 240.301 116.381 236.928C115.994 235.347 116.563 233.952 115.793 232.515C116.625 229.279 119.232 225.951 118.122 221.968C117.306 219.035 115.981 216.649 115.58 213.844C115.395 212.553 115.759 211.188 115.459 209.842C115.332 209.269 115.368 209.259 115.118 208.721C115.234 208.79 117.184 209.502 117.065 210.842C119.831 212.082 122.502 220.786 123.254 220.19C122.875 218.445 121.788 216.46 121.757 214.644C122.722 215.558 122.807 218.102 124.508 217.73C122.875 212.825 118.426 210.244 115.216 207.389L115.181 207.403C115.093 207.318 114.997 207.242 114.873 207.186C114.768 207.139 114.654 207.113 114.541 207.085C114.453 207.028 114.356 207 114.258 206.989C113.88 206.301 113.486 205.617 113.164 204.92C112.578 203.645 112.042 202.151 111.675 200.871C110.497 196.767 111.254 193.005 109.635 189.543C109.935 187.929 108.915 186.483 108.4 184.642C107.782 182.442 107.226 179.007 106.582 176.824C106.017 174.906 104.766 173.183 104.441 171.54C103.245 165.499 99.8549 159.071 98.2859 152.275C100.408 153.463 100.57 156.503 102.262 158.016C102.992 158.667 104.2 158.886 105.007 159.604C106.263 160.722 106.768 161.652 107.623 163.197C108.103 163.324 108.407 164.191 109.031 163.978C108.267 162.528 107.787 161.325 106.663 159.985C105.683 158.817 103.908 158.424 102.88 157.317C101.568 155.905 101.227 153.715 99.9639 152.345C99.2599 151.579 98.1659 151.524 97.6069 150.599C96.7019 149.105 96.9719 147.119 96.6289 145.593C95.8619 142.187 94.4369 138.581 93.7399 134.759C92.4309 127.588 90.2749 120.508 87.9359 113.401C86.2989 108.43 83.4009 103.864 82.8629 99.4012C82.7259 98.2652 83.0459 97.0482 83.0269 95.7322C83.0029 94.0612 82.5509 92.2142 82.4349 90.5712C82.3999 90.0692 82.6519 89.6042 82.6099 89.1502C82.1929 84.6992 79.6279 81.0332 77.6979 77.0332Z" fill="#EC7A3C"/>
<path fill-rule="evenodd" clip-rule="evenodd" d="M41.3139 37.1795C39.5609 38.4655 25.8169 40.5755 24.9059 42.5115C23.9949 44.4465 23.6709 38.9975 19.0969 33.2415C14.5219 27.4865 2.88994 14.8455 0.655939 12.2485C-1.57806 9.65252 6.46493 1.55152 8.10993 5.61052C9.75493 9.66952 21.8529 23.5995 24.3289 24.8355C22.8829 16.0755 16.4819 4.86752 15.2279 2.72652C13.9759 0.585519 18.9489 -1.53348 20.4419 2.39452C21.9349 6.32352 27.9259 23.3505 29.8939 24.5805C30.0869 19.1545 26.3469 4.78952 26.5449 3.65652C26.7439 2.52252 29.0249 -1.23348 29.7939 3.25652C30.5639 7.74652 34.8429 24.2535 36.4419 27.4325C38.4779 31.4805 39.4199 33.3795 41.0649 34.4045C40.2729 35.6265 39.2989 35.5985 40.1199 36.2395C40.9399 36.8805 41.3139 37.1795 41.3139 37.1795Z" fill="#52982A"/>
<path fill-rule="evenodd" clip-rule="evenodd" d="M55.615 65.125C55.87 65.553 55.287 65.626 55.542 66.055C54.244 66.068 54.434 67.083 53.792 67.664C53.438 67.086 54.169 66.969 53.709 66.347C52.718 65.961 52.04 66.842 51.389 67.287C51.189 67.171 51.071 66.863 50.87 66.747C50.377 67.073 51.042 67.888 50.205 68.067C49.92 67.662 50.196 67.494 49.968 67.112C49.659 66.866 49.432 67.065 49.142 67.297C49.207 67.672 49.85 67.947 49.56 68.328C49.056 68.78 48.9 67.868 48.99 67.66C48.673 67.671 48.143 67.639 48.035 67.896C47.782 68.038 48.228 68.477 48.038 68.645C46.434 69.073 44.911 68.243 43.52 68.975C43.326 68.904 42.751 68.468 43.025 68.124C46.567 68.014 51.106 64.953 54.842 65.437C55.127 65.276 55.272 64.969 55.615 65.125Z" fill="#604C3F"/>
<path fill-rule="evenodd" clip-rule="evenodd" d="M42.2859 93.3334C43.5749 94.1854 45.4369 93.4484 47.0619 92.8994C47.3719 93.4204 47.1309 93.7124 47.0929 94.0874C46.0239 94.3424 45.1379 94.1654 44.0729 94.4114C43.7439 94.7514 43.2669 95.7474 42.6299 95.2954C42.7079 94.9724 43.2199 94.8334 43.3759 94.5424C43.2729 94.0294 42.7939 94.4044 42.5229 94.2884C42.0429 94.6514 42.2919 95.7834 41.4179 95.6364C41.1249 95.1914 41.7969 95.1564 41.6719 94.7834C41.5289 94.5324 41.2229 94.6654 40.9999 94.6054C40.4089 95.0674 40.8139 95.9504 39.8709 96.2634C39.6139 95.9054 40.1249 95.8724 39.8679 95.5144C38.4869 95.8544 39.8719 97.3674 38.5079 97.7144C38.4699 97.3064 38.9539 97.1214 38.8389 96.6804C38.3579 96.4794 36.9899 97.7464 35.9509 97.7004C35.6899 96.6994 37.2279 96.4604 37.5439 95.7044C39.4779 94.6624 40.4209 93.7384 42.2859 93.3334Z" fill="#604C3F"/>
<path fill-rule="evenodd" clip-rule="evenodd" d="M81.074 92.7725C80.792 94.0425 79.692 94.9645 78.583 95.8825C79.303 94.7995 80.199 93.7905 81.074 92.7725Z" fill="#604C3F"/>
<path fill-rule="evenodd" clip-rule="evenodd" d="M65.046 135.431C64.744 135.681 64.516 135.852 64.249 135.984C64.197 136.132 64.14 136.276 64.085 136.422C64.76 136.26 65.584 135.752 65.981 136.253C67.06 134.852 68.809 134.138 70.384 133.418C68.271 132.042 67.356 135.966 65.046 135.431Z" fill="#604C3F"/>
<path fill-rule="evenodd" clip-rule="evenodd" d="M87.1919 128.694C88.0739 127.602 88.8639 126.473 89.4329 125.249C89.1759 125.351 89.1259 124.964 88.8119 125.201C88.5169 126.367 87.8669 127.383 87.1289 128.362C87.1499 128.473 87.1709 128.584 87.1919 128.694Z" fill="#604C3F"/>
<path fill-rule="evenodd" clip-rule="evenodd" d="M71.3519 136.178C71.4539 136.886 70.7799 137.753 70.4029 137.913C70.3579 137.182 70.8039 136.658 71.3519 136.178Z" fill="#604C3F"/>
<path fill-rule="evenodd" clip-rule="evenodd" d="M71.6409 137.262C72.3059 137.316 72.034 138.476 71.648 138.76C71.468 138.186 71.5689 137.73 71.6409 137.262Z" fill="#604C3F"/>
<path fill-rule="evenodd" clip-rule="evenodd" d="M68.785 174.282C68.557 174.364 68.396 174.474 68.323 174.621C68.347 174.825 68.255 174.901 68.479 175.008C69.455 175.128 70.488 175.271 71.539 175.389C71.426 175.254 69.551 174.632 68.785 174.282Z" fill="#604C3F"/>
<path fill-rule="evenodd" clip-rule="evenodd" d="M99.9559 169.678C99.9639 169.715 99.9759 169.75 99.9839 169.786C100.008 169.893 100.016 169.989 100.036 170.093C100.873 169.153 101.695 168.173 101.809 166.903C101.247 167.851 100.611 168.769 99.9559 169.678Z" fill="#604C3F"/>
<path fill-rule="evenodd" clip-rule="evenodd" d="M102.756 170.723C102.008 172.011 100.879 173.137 100.052 174.391C100.061 174.465 100.07 174.54 100.075 174.615C100.554 174.102 100.962 173.359 101.474 172.743C102.013 172.091 103.282 171.273 102.756 170.723Z" fill="#604C3F"/>
<path fill-rule="evenodd" clip-rule="evenodd" d="M108.242 190.558C107.71 192.235 106.797 193.751 106.043 195.335C106.057 195.383 106.071 195.432 106.085 195.48C107.111 193.934 108.23 192.427 108.552 190.582C108.483 190.493 108.384 190.476 108.242 190.558Z" fill="#604C3F"/>
<path fill-rule="evenodd" clip-rule="evenodd" d="M86.9869 207.723C87.9399 208.246 89.1099 208.256 90.2439 208.354C90.5739 208.28 89.9349 207.796 90.4739 207.811C90.9889 207.799 91.5209 207.811 92.0599 207.829C92.0249 207.727 88.5639 207.499 86.9869 207.723Z" fill="#604C3F"/>
<path fill-rule="evenodd" clip-rule="evenodd" d="M96.046 216.797C95.025 216.702 94.032 216.546 92.89 216.737C93.782 217.11 95.196 217.252 96.237 216.995C96.172 216.929 96.108 216.864 96.046 216.797Z" fill="#604C3F"/>
<path fill-rule="evenodd" clip-rule="evenodd" d="M94.224 220.397C95.064 220.431 95.725 220.888 96.551 220.954C95.98 221.289 94.831 220.813 94.224 220.397Z" fill="#604C3F"/>
<path fill-rule="evenodd" clip-rule="evenodd" d="M77.698 77.0336C75.909 73.3236 74.656 69.3576 73.1059 66.4396C72.2719 64.8706 72.1219 62.9525 71.4549 61.2556C70.6899 59.3055 69.317 58.0765 68.618 56.1035C65.754 52.9476 62.788 50.0296 60.078 46.5096C59.13 45.2816 58.4759 44.9906 57.6359 43.4466C57.2489 42.7326 56.445 42.2246 56.156 41.6446C55.651 40.6296 55.639 40.4926 54.986 39.8686C53.9259 38.8566 53.215 38.0996 52.186 37.4016C51.297 36.3576 50.238 36.3916 49.083 36.4086C46.478 35.9185 43.29 36.8065 40.894 35.8256C40.989 35.3666 41.213 34.9636 41.068 34.4036C37.456 30.7806 36.001 23.7996 33.38 18.7606C32.999 15.4726 31.224 11.4116 30.567 7.74555C30.55 6.48555 30.491 4.09355 29.797 3.25555C29.081 3.22655 29.161 4.39655 29.159 5.01455C29.154 7.06555 29.713 9.14155 30.092 11.3896C30.222 12.1646 30.182 12.8816 30.283 13.7126C30.866 18.5526 32.622 23.5366 32.336 28.0376C31.841 27.3556 31.316 26.7456 30.88 25.9256C31.162 23.3736 30.438 20.4956 29.966 17.7436C29.714 16.2806 28.858 13.9766 28.545 12.0166C28.122 9.36855 28.007 6.69455 26.832 4.45655C26.219 5.43155 26.787 6.36756 26.975 7.39956C27.874 12.3386 28.588 18.1176 29.422 23.0656C27.195 18.5506 24.421 12.6546 23.053 8.08955C21.357 6.91455 21.946 3.75355 20.445 2.39355C20.115 4.56055 21.629 7.14755 22.568 9.48755C23.418 11.6026 24.115 13.7176 25.128 15.8026C26.425 18.4736 27.495 21.3206 28.624 23.6896C28.924 24.3176 29.838 24.9036 29.149 25.7276C28.157 23.6716 26.427 22.1036 25.869 19.8536C24.142 18.7576 23.844 16.2186 23.08 14.0806C22.183 11.5716 21.458 9.13455 20.619 6.52555C20.396 5.83355 20.411 4.57355 19.473 4.43855C21.46 9.11755 22.038 14.5706 24.107 18.4676C25.393 20.8886 27.443 23.2716 27.422 26.2776C22.939 20.3966 19.996 11.1406 18.133 4.83155C17.547 5.75955 18.921 7.51455 18.77 8.62555C17.571 6.97655 16.717 4.57855 15.747 2.64755C15.248 2.60755 14.85 2.88656 14.64 3.24656C18.957 9.73456 21.108 16.9636 23.616 23.9186C21.025 22.0406 18.575 19.4216 16.379 16.7956C15.18 15.3616 13.744 13.9276 13.082 12.7306C12.625 11.9036 12.752 10.5996 11.368 10.7246C11.725 13.0046 13.556 14.6386 14.363 16.2636C12.255 14.4146 9.40396 11.2506 7.79496 8.57055C7.44696 7.99255 7.55196 7.03455 6.72896 7.05155C8.73296 11.5586 12.197 14.6186 15.457 18.2216C17.73 20.7326 20.114 23.4776 22.542 25.7046C23.984 27.0286 25.609 27.5066 25.348 29.6686C19.754 25.7286 15.336 19.0116 10.17 14.0606C9.82696 13.7776 9.64396 13.1166 9.33696 12.7476C8.62696 12.7736 8.73596 13.6946 8.28196 13.4756C7.54896 12.1096 6.31495 11.4676 5.58295 10.5166C5.10595 9.89855 4.85597 8.49855 3.81997 9.13055C3.76097 11.3736 6.64696 12.5336 7.53896 14.9766C5.86096 14.3976 5.07895 11.7066 3.26195 11.4576C4.98495 13.5326 8.05796 15.9346 9.64696 18.3246C9.04096 17.9886 8.54096 17.4036 7.93596 17.0666C9.10796 18.8286 11.016 20.0826 12.425 21.8506C16.235 26.6296 21.24 31.1306 24.169 37.4996C24.489 38.1956 24.442 39.4836 25.496 39.6626C24.838 37.1696 22.767 34.5126 21.951 32.3966C22.732 32.5886 22.887 33.3756 23.509 34.0166C24.501 35.0396 25.933 35.5376 26.337 36.9216C26.77 38.4056 25.907 41.5356 24.629 41.9656C22.786 36.4276 19.326 30.7986 15.237 26.5636C13.423 24.6846 11.861 22.5896 10.071 20.8536C9.49496 20.2936 8.74596 19.9766 8.12796 19.3896C6.87296 18.1986 4.95696 15.3426 4.67296 14.9376C3.08396 14.1706 2.45996 10.3776 0.392964 10.6696C0.0189639 12.3526 1.90696 13.6786 3.04596 14.9966C4.26696 16.4116 14.241 26.9946 16.542 29.7866C18.788 32.5116 20.913 35.8236 22.525 39.3666C22.823 40.0215 23.501 41.3876 23.545 42.2546C23.615 43.6166 21.895 44.3186 21.001 45.2356C19.151 47.1336 17.631 49.1976 16.768 51.4536C15.429 54.9516 15.97 58.7456 15.321 62.6946C16.588 70.5135 16.73 77.6776 20.796 85.8365C20.586 87.3895 21.903 88.7716 22.444 90.2706C22.825 91.3306 22.937 92.5806 23.362 93.6506C24.118 95.5446 25.288 97.2866 26.099 99.2946C26.539 100.383 26.751 101.647 27.199 102.75C28.713 106.473 30.442 109.559 31.814 112.285C34.065 116.762 37.063 120.483 39.715 123.639C40.06 125 41.131 126.631 42.031 127.502C43.025 129.94 44.936 132.998 46.172 135.129C47.796 137.931 48.115 140.909 49.358 142.991C50.649 148.17 53.8269 153.208 56.5799 158.222C58.6469 161.987 60.57 165.789 62.775 169.067C61.608 170.957 63.645 174.583 64.696 177.143C65.279 178.562 66.254 180.643 66.806 181.239C67.655 178.643 63.763 174.527 64.776 172.157C66.378 174.57 68.384 176.847 70.053 179.623C71.788 182.51 73.101 185.878 75 188.872C75.447 189.574 76.1609 190.055 76.6619 190.75C78.0989 192.742 79.185 195.377 80.102 197.759C81.0929 200.331 82.564 203.19 83.884 205.981C84.242 206.739 84.584 207.56 84.824 208.301C86.306 212.886 82.614 215.349 81.565 218.776C81.204 219.955 81.038 221.071 80.858 222.214C80.42 224.972 81.312 226.974 82.211 230.369C82.672 232.108 82.907 233.539 83.342 235.012C84.693 233.875 81.8509 228.563 82.6229 227.181C83.4969 228.789 85.522 234.75 87.116 235.434C86.742 233.732 86.219 233.212 85.629 232.135C82.932 227.213 81.911 222.732 83.892 219.333C85.187 217.114 88.016 215.644 89.342 213.523C90.385 217.566 92.35 221.04 94.862 223.441C95.115 223.797 94.92 223.964 95.046 224.267C97.242 225.554 98.503 229.053 100.754 230.207C102.818 233.073 104.161 236.85 106.066 239.609C105.223 242.884 105.573 250.696 106.141 250.533C106.236 249.142 106.512 247.61 106.611 246.141C106.675 245.203 106.171 244.036 106.96 243.298C108.254 246.306 108.658 249.541 108.965 252.69C108.804 256.562 104.325 260.223 104.622 260.362C105.58 259.545 107.669 257.85 108.227 256.803C109.308 254.775 109.884 254.261 110.905 252.197C114.241 248.129 114.611 243.69 115.746 238.688C116.884 240.049 118.241 242.668 118.95 244.743C119.263 245.66 119.26 246.903 120.43 246.544C121.087 243.218 117.207 240.301 116.384 236.928C115.997 235.347 116.566 233.952 115.796 232.515C116.628 229.279 119.235 225.951 118.125 221.968C117.309 219.035 115.984 216.649 115.583 213.844C115.398 212.553 115.762 211.188 115.462 209.842C115.335 209.269 115.371 209.259 115.121 208.721C115.237 208.79 117.187 209.502 117.068 210.842C119.834 212.082 122.505 220.786 123.257 220.19C122.878 218.445 121.791 216.46 121.76 214.644C122.725 215.558 122.81 218.102 124.511 217.73C122.878 212.825 118.429 210.244 115.219 207.389L115.184 207.403C115.096 207.318 115 207.242 114.876 207.186C114.771 207.139 114.657 207.113 114.544 207.085C114.456 207.028 114.359 207 114.261 206.989C113.883 206.301 113.489 205.617 113.167 204.92C112.581 203.645 112.045 202.151 111.678 200.871C110.5 196.767 111.257 193.005 109.638 189.543C109.938 187.929 108.918 186.483 108.403 184.642C107.785 182.442 107.229 179.007 106.585 176.824C106.02 174.906 104.769 173.183 104.444 171.54C103.248 165.499 99.858 159.071 98.289 152.275C100.411 153.463 100.573 156.503 102.265 158.016C102.995 158.667 104.203 158.886 105.01 159.604C106.266 160.722 106.771 161.652 107.626 163.197C108.106 163.324 108.41 164.191 109.034 163.978C108.27 162.528 107.79 161.325 106.666 159.985C105.686 158.817 103.911 158.424 102.883 157.317C101.571 155.905 101.23 153.715 99.967 152.345C99.263 151.579 98.1689 151.524 97.6099 150.599C96.7049 149.105 96.975 147.119 96.632 145.593C95.865 142.187 94.44 138.581 93.743 134.759C92.434 127.588 90.278 120.508 87.939 113.401C86.302 108.43 83.404 103.864 82.866 99.4006C82.729 98.2646 83.049 97.0476 83.03 95.7316C83.006 94.0606 82.5539 92.2136 82.438 90.5706C82.4029 90.0686 82.655 89.6036 82.613 89.1496C82.193 84.6996 79.628 81.0336 77.698 77.0336ZM60.269 48.8336C60.558 48.7376 60.6769 49.0456 60.7869 49.3726C60.3769 49.6436 60.142 49.1076 60.269 48.8336ZM57.388 45.7976C56.98 46.1836 56.0159 46.5736 55.4549 46.5806C55.4539 45.6556 56.0589 44.9855 56.4509 44.2256C56.9909 44.2726 57.364 45.2766 57.388 45.7976ZM58.798 49.2776C58.404 49.4186 58.0879 48.7136 58.1749 48.4796C58.4449 48.5976 58.611 48.9616 58.798 49.2776ZM53.7789 47.2606C53.77 46.5806 54.5929 46.2526 54.9599 45.7316C55.6269 45.5766 54.986 46.4556 55.068 46.7386L53.7789 47.2606ZM55.643 48.1556C55.772 48.6016 55.339 48.8106 55.311 49.1896C54.79 49.1656 54.738 48.7846 54.635 48.2636C55.072 47.9896 55.357 48.0726 55.643 48.1556ZM53.72 40.0806C53.815 40.4776 53.688 40.7796 53.338 40.9876C52.957 40.7946 53.201 40.2176 53.72 40.0806ZM39.673 34.6686C38.715 34.9096 37.61 33.3186 36.566 32.9266C36.184 29.6036 33.8839 25.9196 33.68 22.8416C35.712 26.7416 36.984 31.7546 39.673 34.6686ZM32.154 22.4096C31.722 20.0276 31.365 17.6726 31.246 15.7246C32.359 20.6916 34.281 26.7246 35.785 31.7416C32.64 30.3966 32.792 25.9346 32.154 22.4096ZM33.588 31.1316C32.308 30.7756 31.225 28.6616 30.628 27.5296C31.771 28.3616 32.618 29.8926 33.588 31.1316ZM27.904 24.8816C30.726 29.0646 33.73 32.8166 37.095 35.7136C36.225 36.0056 35.084 35.4916 34.407 35.0026C31.693 33.0426 29.427 29.3116 27.904 24.8816ZM28.015 26.6366C28.607 26.4996 28.608 27.7596 28.952 28.2086C28.314 28.5296 28.015 27.0196 28.015 26.6366ZM24.563 22.9346C25.228 23.3826 25.638 24.4336 26.047 25.4846C24.853 25.8816 24.782 23.7056 24.563 22.9346ZM26.151 25.7426C26.972 26.5656 28.156 28.1056 28.105 29.4516C27.199 29.0706 26.365 28.5196 25.772 27.3956C25.63 26.7306 26.42 26.4596 26.151 25.7426ZM26.35 29.5636C27.15 29.1026 27.274 30.2396 28.158 29.5816C28.529 30.2016 28.229 30.5376 28.475 31.1046C27.852 31.1456 27.384 30.8216 26.82 30.7246L26.35 29.5636ZM20.976 23.3366C22.286 24.0256 23.492 24.9616 24.476 26.4206C23.055 25.9926 22.068 24.5416 20.976 23.3366ZM11.464 15.7876C15.194 19.8476 18.504 24.3906 22.469 28.1346C23.688 29.2866 25.496 30.0646 26.05 31.7856C24.796 31.6216 23.29 29.9066 21.804 29.4536C18.031 25.3436 13.119 21.1376 11.077 15.9436L11.464 15.7876ZM19.581 29.1546C18.816 28.7736 18.231 27.9716 17.686 27.0716C18.342 27.5776 19.373 28.4186 19.581 29.1546ZM19.633 29.2836C21.82 30.7626 23.911 32.4646 26.29 33.4896C26.651 34.2486 26.315 34.7106 26.454 35.3746C23.811 34.2166 21.84 31.4706 19.633 29.2836ZM27.631 33.0956C27.432 32.5566 27.079 32.3796 26.928 31.7306C27.282 31.3466 27.973 32.0356 28.531 31.9806C29.004 34.5656 29.114 36.9976 29.132 39.3896C30.114 36.5656 28.886 32.8066 28.545 29.4236C31.134 30.9016 31.622 36.4846 32.719 38.9866C33.262 37.3996 31.487 34.3866 31.271 32.8206C32.841 33.4356 33.643 35.1516 35.082 35.9286C36.195 36.5306 37.481 36.6736 38.676 37.0226C38.768 36.5426 37.827 36.3456 37.356 36.3576C37.624 35.6536 37.095 35.0856 37.011 34.3966C38.238 35.1996 39.496 35.9286 40.613 36.9886C35.731 39.1866 31.751 39.2576 27.073 40.9756C27.345 38.8096 27.087 35.5016 27.631 33.0956ZM19.306 71.4326C19.519 71.8566 19.63 72.5186 19.958 72.6696C20.266 72.0616 19.445 71.3986 19.561 70.5796C20.374 70.5656 20.67 72.3475 20.864 73.0526C20.162 73.3625 19.77 72.9456 19.185 72.9826C19.263 72.4816 18.755 71.7336 19.306 71.4326ZM23.316 90.2166C23.332 90.0285 24.329 91.3136 23.657 91.4286C23.341 90.9386 23.587 90.6876 23.316 90.2166ZM41.048 122.497C41.554 122.558 42.278 123.648 41.985 124.069C41.393 124.206 41.392 122.946 41.048 122.497ZM42.065 124.636C42.654 124.367 43.383 125.785 43.001 126.208C42.438 126.354 42.025 125.112 42.065 124.636ZM84.1359 216.982C85.0919 215.358 85.7869 213.623 86.9549 212.089C87.228 212.703 86.87 213.049 86.781 213.509C87.076 213.926 87.31 212.908 87.6059 213.325C87.449 214.968 85.2309 215.737 84.1359 216.982ZM114.722 230.25C114.472 229.467 114.861 228.956 114.635 228.185C115.087 228.042 115.64 227.661 115.977 227.791C115.62 228.636 115.411 229.544 114.722 230.25ZM113.802 226.87C114.641 225.587 116.038 224.542 117.197 223.393C117.596 224.773 116.219 227.95 113.802 226.87ZM117.04 223.007C115.203 224.161 115.458 223.763 116.804 222.053C115.788 221.767 116.058 220.486 115.993 219.681C116.714 220.523 117.1 222.142 117.04 223.007ZM94.515 141.499C93.818 141.465 92.85 142.07 92.628 140.913C91.25 142.144 88.976 142.622 86.957 143.211C88.762 140.736 90.914 138.408 92.709 135.928C93.327 138.138 93.712 139.252 94.515 141.499ZM94.747 147.256C94.325 147.519 94.278 148.341 93.796 148.241C93.2869 147.62 93.135 146.545 92.647 145.405C92.853 145.1 93.239 144.873 93.341 144.524C94.211 144.902 94.124 146.152 94.747 147.256ZM92.516 144.71C92.094 143.926 92.327 143.42 92.172 142.748C93.563 142.315 93.4669 144.361 92.516 144.71ZM91.54 146.005C91.218 145.086 90.559 144.023 91.659 143.705C92.116 144.682 92.391 145.582 91.54 146.005ZM81.587 91.8146C81.083 91.9176 81.073 91.1496 81.221 90.9116C81.529 90.8816 81.663 91.6566 81.587 91.8146ZM80.709 86.3166C79.06 86.3286 77.339 85.5066 75.648 86.4176C75.502 86.3436 75.391 86.1825 75.31 85.9536C74.681 86.4146 73.243 87.5736 72.704 86.5596C74.242 85.1456 76.004 83.8266 76.92 82.1496C75.349 83.5526 73.558 85.7786 71.521 87.3396C71.863 87.6456 71.955 86.9666 72.423 86.9736C72.56 89.1936 69.047 88.7085 68.048 90.2466C69.387 91.0496 71.761 89.9345 72.768 88.9335C73.316 89.0826 72.862 90.0415 73.419 90.1705C73.94 89.7855 73.216 88.8745 73.436 88.3625C73.79 88.0025 74.341 87.5626 74.931 87.6066C75.197 88.1385 76.128 89.6115 75.951 90.4946C76.6489 89.8286 75.811 88.5136 75.808 87.5516C77.101 87.6656 76.56 90.0526 77.19 90.5926C76.677 91.2776 75.976 91.8826 75.233 92.4706C75.264 92.5056 75.296 92.5386 75.326 92.5746C76.6209 91.6966 77.99 90.5345 78.476 89.3215C77.927 89.1656 78.1 90.2266 77.396 90.3596C76.992 89.2976 76.952 88.3915 76.996 87.5195C77.617 87.1465 78.052 87.2146 78.443 87.3846C79.842 89.8636 77.884 90.9216 77.225 92.5296C78.253 91.9316 78.295 90.9176 79.333 90.3246C79.426 90.7916 79.6229 91.3016 79.4159 91.6405C80.1989 91.8075 80.952 92.0496 81.513 92.7426C82.003 94.8726 81.298 96.8105 81.463 98.9146C81.753 102.591 84.4809 106.186 85.4119 109.77C84.503 109.814 83.877 109.19 83.033 109.084C83.084 108.572 83.467 108.199 83.517 107.687C82.422 107.654 82.524 108.85 81.949 109.373C80.406 109.746 78.917 110.689 77.566 111.149C77.32 111.506 78.018 111.742 78.036 112.309C78.758 112.233 79.524 111.096 80.305 111.24C79.905 112.139 79.041 112.842 78.43 113.651C78.813 113.737 79.18 112.905 79.691 112.69C79.547 113.117 79.312 113.505 79.0369 113.877C79.075 113.883 79.1119 113.888 79.1489 113.896C79.6109 113.328 80.128 112.879 80.802 112.84C81 112.177 80.793 111.342 81.879 111.054C82.299 111.908 82.04 112.474 82.328 113.273C82.943 112.608 82.058 111.307 82.6 110.611C83.766 112.851 82.867 114.218 81.857 115.536C81.922 115.578 81.9829 115.622 82.046 115.665C82.866 114.533 83.618 113.373 84.467 112.255C84.922 112.899 85.256 114.351 85.539 115.272C85.97 114.92 85.17 114.048 85.661 113.722C86.378 113.54 86.108 114.643 86.598 115.293C86.158 116.569 85.341 117.687 84.482 118.785C84.523 118.872 84.565 118.954 84.605 119.044C85.371 118.085 86.035 117.084 86.601 116.042C86.937 116.156 87.2469 117.163 87.1749 117.459C86.5949 117.605 86.3599 117.897 85.938 118.111C85.67 118.711 85.316 119.275 84.931 119.826C84.935 119.837 84.941 119.847 84.945 119.859C84.993 119.984 85.031 120.11 85.077 120.234C85.927 119.265 86.763 118.293 87.561 117.303C87.651 116.664 86.643 115.561 87.294 115.16C88.832 120.239 90.814 126.583 91.991 131.564C90.751 134.404 88.784 136.937 86.687 139.412C86.689 139.517 86.691 139.623 86.686 139.728C88.641 137.561 90.339 134.938 92.15 132.7C92.71 133.129 92.076 133.843 92.6229 134.609C90.5719 138.938 86.985 142.616 83.767 146.452C82.888 146.643 81.883 146.191 81.108 146.929C81.258 147.669 81.692 147.737 82.017 148.061C85.813 147.671 86.0779 144.426 89.8729 143.377C90.1159 143.645 90.401 143.813 90.549 144.303C90.048 144.697 89.909 145.243 89.263 145.575L88.741 144.285C88.199 144.661 88.603 145.438 88.904 146.17C87.84 147.468 86.645 148.71 85.434 149.946C85.5219 149.978 85.61 150.011 85.699 150.05C86.739 148.942 87.767 147.781 88.855 146.79C89.19 146.504 89.2 146.985 89.321 147.202C89.289 146.226 89.705 145.442 90.628 144.872L91.254 146.418C90.874 146.792 90.66 147.235 90.227 147.585C90.7579 147.872 90.817 147.059 91.334 146.986C91.631 147.237 91.173 147.674 91.595 147.631C91.829 147.097 91.584 145.883 92.414 145.948C92.844 147.202 93.4259 148.054 93.563 148.784C93.142 149.314 92.692 149.831 92.245 150.35C92.299 150.393 92.361 150.423 92.413 150.47C92.435 150.49 92.453 150.51 92.475 150.53C92.823 150.148 93.168 149.769 93.514 149.405C93.755 149.256 93.927 149.267 94.005 149.505C93.882 148.564 94.6689 148.007 95.5969 147.509C96.3589 148.311 96.052 149.52 95.634 150.195C95.209 150.884 94.583 151.555 93.889 152.218C93.912 152.254 93.936 152.29 93.959 152.326C94.647 151.646 95.369 150.989 96.178 150.424C96.243 151.507 97.341 153.273 97.5109 154.085C96.9849 155.002 96.399 156.123 95.756 157.262C95.796 157.446 95.835 157.63 95.872 157.814C96.513 156.824 97.064 155.797 97.644 154.782C98.072 155.006 97.979 155.916 98.142 156.381C97.594 157.039 96.978 157.669 96.7309 158.454C97.4979 157.96 97.535 157.157 98.428 156.716C98.602 157.353 98.639 157.768 99.055 158.263C98.294 159.315 97.4529 160.335 96.572 161.337L96.611 161.532C96.63 161.59 96.651 161.648 96.671 161.705C97.531 160.781 98.376 159.861 99.188 158.959C100.056 160.743 98.769 162.125 97.32 163.397C97.345 163.453 97.372 163.508 97.397 163.564C98.248 162.712 99.108 161.912 99.999 161.331C100.242 162.017 100.522 162.617 100.859 163.083C100.274 164.227 99.551 165.312 98.736 166.358C98.836 166.57 98.929 166.782 99.023 166.996C99.693 165.965 100.281 164.9 101.044 163.908C102.293 165.991 102.323 168.977 103.659 171.102C102.92 173.317 100.931 175.002 99.941 177.11C101.52 175.571 102.316 173.701 103.948 172.184C104.504 173.508 105.211 175.276 105.386 176.104C104.939 176.151 104.891 175.255 104.529 175.1C101.692 176.564 99.651 179.209 96.161 180.742C94.254 180.119 92.206 179.826 89.678 180.669C89.631 180.749 89.63 180.849 89.651 180.959C89.923 181.288 90.1749 181.629 90.408 181.986C90.6069 181.884 90.813 181.688 91.103 181.591C93.641 180.978 95.6809 182.601 98.1789 181.276C99.0019 182.21 98.877 183.526 99.226 184.602C99.606 184.087 99.644 183.427 100.407 183.073C101.161 184.27 100.51 185.342 99.725 186.281C99.792 186.287 99.86 186.298 99.928 186.308C100.726 185.445 101.529 184.375 102.424 183.606C102.668 183.995 102.578 184.241 102.66 184.561C103.093 183.499 102.692 182.082 104.093 181.43C104.512 181.8 104.409 182.738 104.747 183.415C105.369 183.108 105.267 182.497 105.36 181.966C105.628 181.922 105.742 182.239 106.109 181.963C105.698 183.569 104.327 184.768 103.649 186.261C105.03 184.994 105.527 183.353 106.91 182.088C107.483 183.566 107.553 184.245 107.933 185.725C107.001 186.72 106.351 187.831 105.804 188.989C106.355 188.474 106.683 187.866 107.244 187.356C107.166 189.032 105.242 192.726 105.34 193.032C106.711 190.917 107.765 188.669 108.09 186.113C108.626 188.297 109.355 190.563 109.514 192.588C108.744 193.616 107.904 194.613 107.333 195.723C108.268 195.086 108.294 194.065 109.44 193.518C109.755 195.36 110.013 197.178 110.498 199.092C109.611 200.14 108.83 201.233 108.06 202.331C109.203 201.498 109.703 200.393 110.655 199.479C110.786 202.012 108.889 204.275 107.327 206.444C107.37 206.573 107.402 206.714 107.432 206.855C108.664 205.176 109.794 203.452 111.155 201.827C111.569 203.623 112.69 204.686 112.955 205.9C113.408 207.977 111.222 209.134 110.265 210.741C110.666 210.904 110.997 210.132 111.449 209.961C110.916 210.836 110.322 212.348 110.425 211.877C111.081 211.55 110.974 210.9 111.71 210.606C112.182 211.328 112.514 212.312 112.911 213.571C112.045 214.698 110.901 215.706 109.882 216.767C109.914 216.815 109.939 216.87 109.969 216.921C110.955 216.222 111.765 214.941 113.043 214.268L113.513 215.428C112.825 216.096 110.608 219.001 110.616 219.323C112.061 217.835 113.323 216.272 114.751 214.776C115.702 217.102 111.929 222.229 112.847 222.301C113.094 221.764 113.225 221.179 113.9 220.824C114.294 221.489 113.934 221.835 114.268 222.475C114.937 222.792 115.034 221.574 115.324 221.747C115.553 222.128 115.276 222.297 115.56 222.702C114.08 224.71 109.953 229.477 109.397 230.452C110.489 229.762 111.755 228.186 113.828 228.055C114.253 229.16 113.377 229.716 114.1 230.946C113.931 231.339 113.186 231.486 112.968 231.856C113.361 232.102 114.217 231.258 114.619 231.487C115.11 233.518 112.785 234.532 111.072 235.325C111.798 235.374 112.34 235.008 113.368 234.694C113.225 235.238 112.545 235.556 112.082 235.966C113.011 236.155 113.622 234.799 114.351 234.896C114.399 235.487 114.375 236.046 114.281 236.575C113.203 237.165 111.432 236.417 111.316 237.777C111.667 238.211 112.154 238.322 112.79 238.08C112.991 239.127 111.598 239.498 111.122 240.258C112.259 239.955 113.332 238.702 114.055 237.868C114.408 238.658 114.151 239.19 114.09 239.806C113.722 240.087 113.687 239.58 113.418 239.629C112.873 240.182 113.501 241.23 113.117 241.851C112.37 242.117 110.635 244.111 110.657 246.15C110.41 246.313 110.959 247.929 110.643 248.706C111.226 248.56 110.98 247.142 111.796 246.739C112.355 248.114 110.285 249.302 110.291 250.8C109.896 248.826 109.441 246.682 108.61 244.428C108.052 242.915 108.064 241.205 107.789 239.809C108.318 239.901 108.694 240.363 109.237 240.422C109.565 240.105 108.919 240.036 108.924 239.649C109.267 239.68 109.528 239.907 109.907 239.851C108.555 238.385 105.184 238.338 105.522 235.325C104.945 234.369 102.813 232.248 103.826 231.51C104.381 232.516 104.563 233.106 105.571 234.704C106.134 234.622 105.332 233.963 105.825 233.851C107.006 233.835 105.002 233.705 104.471 231.249C105.228 230.893 104.088 228.207 101.775 229.04C102.46 229.776 103.324 230.408 102.635 230.792C100.556 228.635 97.945 226.404 96.533 223.51C97.308 223.948 97.844 224.956 98.48 225.722C99.193 225.316 100.137 225.335 101.11 225.476C101.079 225.374 101.049 225.272 101.027 225.168C100.209 225.05 99.36 224.975 98.607 224.921C98.371 223.747 97.307 223.351 97.381 222.267C98.265 222.194 98.369 223.968 99.094 224.272C99.229 223.451 98.723 222.996 98.283 221.9C98.6619 221.676 98.777 222.076 99.008 222.206C99.175 221.707 99.24 221.165 99.621 220.757C100.312 220.815 101.748 220.78 101.785 220.692C100.191 220.325 98.218 220.111 96.493 220.074C96.803 220.603 97.5219 220.163 97.813 220.74C96.742 221.197 96.252 221.746 95.548 222.557C94.2 221.59 92.837 219.416 92.118 217.795C93.358 217.641 94.2909 218.212 95.451 218.245C94.793 217.589 93.153 217.136 91.78 217.332C91.215 215.757 90.843 214.927 90.522 213.489C91.832 213.452 92.942 213.543 94.062 213.573C93.989 213.404 91.074 212.811 89.795 212.433C89.684 211.098 88.624 211.39 87.698 211.331C87.344 210.847 87.616 210.348 87.228 210.171C86.838 209.944 86.75 210.745 86.664 211C86.136 206.89 83.235 203.007 81.807 199.013C83.403 198.712 84.866 198.73 86.336 198.729C86.239 198.609 86.144 198.489 86.048 198.368C84.634 198.333 83.193 198.359 81.65 198.627C81.186 197.503 80.861 196.96 80.32 195.715C81.622 195.709 83.399 196.64 84.939 196.94C84.931 196.928 84.922 196.917 84.913 196.906C83.449 196.213 81.339 194.994 80.163 195.328C79.823 194.566 79.075 192.79 78.806 191.977C79.655 191.737 80.25 192.097 80.976 192.148C80.193 191.558 79.201 191.463 78.234 191.309C77.607 189.91 76.152 189.194 75.894 187.755C77.426 187.808 78.975 187.823 80.545 187.787C80.536 187.712 77.004 187.054 75.193 187.139C74.647 186.129 73.716 184.786 73.602 183.582C74.653 183.537 75.475 184.035 76.573 183.879C74.673 183.405 72.531 183.504 71.728 180.44C73.34 179.997 74.531 180.547 75.964 180.525C75.004 179.933 72.972 179.687 71.338 179.848C70.768 179.01 70.071 178.469 69.674 177.222C70.862 177.014 72.405 177.618 73.839 177.799C73.753 177.7 73.6679 177.601 73.5799 177.505C71.4329 176.846 68.3619 177.026 67.2049 173.721C68.4029 173.507 69.469 173.61 70.603 173.546C70.597 173.523 70.589 173.5 70.584 173.478C69.377 173.331 68.238 173.021 66.866 173.258C66.131 172.367 65.402 171.311 65.226 170.321C66.007 169.948 67.426 170.14 68.504 169.893C67.652 169.299 66.135 170.276 65.505 169.157C67.655 168.983 71.857 169.071 71.947 168.977C69.705 168.84 67.468 168.69 65.243 168.512C64.573 168.691 65.158 169.401 64.292 169.497C63.916 168.947 64.2069 168.679 64.2609 168.309C63.6969 167.876 63.053 167.63 62.781 166.509C64.319 166.408 65.667 166.757 67.275 166.489C65.668 166.416 64.318 165.737 62.496 166.175C62.001 165.535 61.125 164.882 61.118 163.883C62.578 163.686 63.993 163.595 65.4 163.522C65.273 163.356 61.795 162.886 60.208 162.75C59.692 162.119 59.26 161.291 58.906 160.277C60.371 160.027 61.8079 159.843 63.2569 159.632C63.2369 159.584 59.929 159.381 58.854 160.149C58.368 159.157 57.4629 157.93 57.2909 157.03C57.6119 156.776 57.698 157.076 57.987 156.898C58.48 157.105 57.784 157.354 58.043 157.776C59.625 157.571 61.0729 157.681 62.542 157.744C62.5079 157.648 60.085 157.317 58.97 157.1C59.44 156.67 61.062 156.839 62.189 156.74C62.179 156.709 58.558 156.394 56.719 156.361C56.344 155.531 55.6789 154.758 56.0889 154.066C57.7649 153.792 59.396 153.627 61.045 153.419C61.034 153.37 61.011 153.317 61.002 153.268C59.267 153.571 57.38 153.295 55.827 153.421C55.034 152.002 53.9699 149.754 53.1659 147.596C54.9449 147.178 55.183 150.4 56.207 151.765C56.412 152.137 55.895 152.203 55.719 152.413C55.835 153.062 56.559 152.276 56.677 152.925C58.137 152.525 59.602 152.657 60.961 152.658C60.961 152.552 60.966 152.45 60.976 152.347C59.563 152.325 58.13 152.35 56.726 152.306C56.394 150.803 55.156 149.118 54.846 147.665C55.446 147.592 55.9 147.866 56.449 147.916L57.232 149.849C57.552 149.38 56.842 148.473 57.069 147.964C58.248 147.448 58.629 148.818 59.321 149.452C59.586 149.136 58.816 148.384 59.057 148.059C59.893 147.933 60.582 148.156 61.432 147.997C60.563 147.612 59.3499 148.038 58.5369 147.518C59.1229 146.795 63.243 148.377 62.896 146.053C58.446 147.146 55.8349 143.897 51.2959 145.201C50.9089 144.503 51.08 144.042 50.694 143.344C51.829 143.197 53.832 142.938 53.763 142.813C52.579 142.782 51.402 142.733 50.251 142.624C49.86 141.64 49.57 140.697 49.773 139.965C50.763 140.034 51.927 140.234 53.023 140.211C52.994 140.098 49.781 140.028 48.965 138.342C49.77 137.898 51.215 137.419 51.183 137.373C50.33 137.377 49.472 137.392 48.6 137.44C48.397 136.805 47.726 136.287 47.868 135.635C48.642 135.465 49.355 135.437 50.065 135.417C49.989 135.265 48.128 135.029 47.402 135.224C46.639 133.83 45.898 132.387 45.187 130.869C45.93 130.809 46.793 130.764 47.708 130.714C47.673 130.571 47.645 130.428 47.626 130.287C46.711 130.302 45.789 130.332 44.849 130.407C44.202 129.499 43.574 128.358 42.948 126.825C43.654 126.418 44.015 126.828 44.268 127.491C44.536 127.319 43.995 126.805 44.212 126.613C45.314 126.345 47.3659 126.073 47.3859 125.971C46.1859 125.849 44.749 126.283 43.642 125.943L43.171 124.783C43.495 124.606 43.666 124.79 43.767 125.142C44.896 124.384 48.0319 124.198 48.0889 124.103C47.0869 124.171 46.062 124.291 45.157 124.128C44.934 123.393 44.33 122.498 44.398 121.885C44.571 121.548 45.1719 121.734 45.5329 121.724C45.8459 122.415 46.072 123.311 46.497 123.735C47.338 123.195 45.782 122.297 46.048 121.515C46.454 121.397 46.6699 121.728 47.1839 121.356C46.7599 121.248 46.1579 119.615 46.0629 118.959C46.3519 118.78 46.438 119.081 46.76 118.827C47.16 119.329 48.548 120.94 47.443 121.251C47.652 121.428 47.961 121.373 48.32 121.195C48.186 120.672 47.666 119.455 47.5849 118.642C50.3279 117.151 51.9409 117.809 54.3469 117.553C54.5249 117.344 54.3989 117.006 54.4719 116.752C54.1529 116.161 53.504 116.348 52.793 116.682C51.232 115.86 49.783 117.059 48.25 117.322C47.825 117.395 47.705 117.155 47.268 117.119C46.935 117.094 46.577 117.13 46.216 117.179C45.838 117.339 45.455 117.475 45.07 117.596C45.91 117.602 46.737 117.644 47.53 117.764C45.248 117.762 43.444 119.43 41.444 119.78C40.926 120.131 41.225 120.826 40.65 121.153C37.684 121.346 36.308 117.786 34.579 115.059C35.427 114.769 36.18 114.702 36.915 114.675C36.7929 114.576 36.669 114.479 36.541 114.382C35.698 114.382 34.868 114.351 34.085 114.209C33.819 113.343 32.939 112.797 33.016 111.941C33.174 111.952 33.336 111.957 33.495 111.966C33.239 111.667 32.996 111.353 32.772 111.025C32.628 111.021 32.481 111.024 32.34 111.014C31.936 109.893 30.934 109.147 31.062 108.231C31.143 108.232 30.926 107.887 30.647 107.949C29.978 106.813 29.547 105.75 29.237 104.469C29.736 104.441 30.217 104.459 30.693 104.489C30.696 104.385 28.582 103.547 27.987 102.124C29.047 101.203 32.015 100.518 32.2 100.319C30.692 100.408 29.15 100.58 27.671 100.602C26.852 99.6456 26.485 98.7096 26.341 97.6886C27.874 97.3446 29.265 97.3396 30.755 97.1006C30.466 96.4336 28.555 97.4246 27.912 96.7516C29.993 96.1276 31.74 96.2876 33.721 95.8986C31.49 95.8966 28.434 95.6336 26.339 96.9386C26.141 96.8156 25.891 96.8206 25.666 96.7606C25.434 95.2166 23.283 93.1975 24.069 91.7056C24.427 92.0366 24.595 92.8186 24.954 93.1486C25.14 92.7646 24.506 92.0336 24.637 91.6266C25.375 91.3076 25.993 91.2706 26.63 91.1916C26.624 91.0736 26.628 90.9496 26.629 90.8276C25.489 91.0296 24.294 91.3166 24.063 90.2086C24.965 90.0646 25.823 90.0275 26.685 89.9785C26.7 89.8595 26.713 89.7395 26.732 89.6236C26.056 89.6506 25.396 89.6395 24.809 89.4576C24.824 89.1076 24.576 88.6465 24.648 88.3215C25.61 88.3326 26.224 87.9585 27.3 87.6685C27.317 87.6295 27.33 87.5876 27.348 87.5486C26.763 87.3996 25.772 88.2086 25.547 87.2066C26.242 87.0206 26.98 86.8946 27.742 86.7926C27.749 86.7826 27.753 86.7706 27.76 86.7586C27.772 86.6836 27.793 86.6106 27.809 86.5366C27.16 86.5976 26.521 86.6326 25.906 86.6116C26.57 85.7006 24.89 84.0505 24.935 83.1035C26.231 82.7315 26.175 85.5536 27.143 85.9595C26.986 84.7306 26.172 84.0005 26.148 82.7616C27.042 82.5565 27.572 83.7836 27.756 84.5116C28.158 84.1115 27.679 83.3396 27.464 82.6776C27.633 82.3596 27.633 82.6236 27.98 82.4696C27.855 81.9226 27.179 82.6786 27.074 82.0865C27.95 80.2445 30.821 80.9176 32.592 80.1506C32.875 79.8436 33.085 79.5055 32.871 78.9875C28.639 77.8706 23.98 84.4106 20.358 81.8065C20.36 81.1525 19.616 79.9606 19.519 78.9956C20.859 79.1926 22.033 79.7825 23.448 79.8046C23.609 79.4085 22.552 79.7486 22.438 79.1636C22.939 79.0506 23.4 79.0356 23.845 79.0556C23.719 78.9726 19.122 78.7276 18.99 76.2086C20.051 75.9696 20.996 75.9986 21.939 76.0356C21.913 75.9016 19.836 75.6116 18.858 75.5126C18.534 74.8416 18.415 74.2576 18.437 73.7326C18.905 73.5556 18.88 74.5336 19.242 74.6076C19.555 74.5266 19.234 74.1766 19.472 74.0646C20.267 74.2516 21.051 74.4635 21.834 74.6796C21.834 74.6715 21.853 74.5026 21.861 74.4246C21.231 74.2116 20.651 73.9615 20.193 73.6216C20.863 73.4766 22.079 73.4615 22.106 73.3925C21.799 73.3605 21.499 73.3146 21.225 73.2036C21.139 72.4196 20.764 71.5135 20.671 70.7265C21.619 70.8285 22.565 70.9426 23.456 71.1815C23.482 71.1575 23.508 71.1346 23.534 71.1116C23.278 70.6766 21.665 70.8355 21.881 69.6366C22.506 69.4205 22.874 69.8126 23.508 69.5776C23.597 69.0736 22.543 68.2896 22.905 67.7206C23.608 67.4045 23.716 68.4966 24.2 68.6965C24.269 68.1916 23.869 67.4875 24.141 67.0695L24.914 66.7566C25.331 66.4436 25.271 67.2596 25.562 67.2446C26.312 64.0466 31.861 62.9185 35.097 62.6306C35.55 62.3955 35.509 61.9506 35.557 61.5436C34.152 60.5246 32.642 61.9426 31.377 62.3376C30.646 62.5656 29.914 62.3826 29.235 62.6056C27.39 63.2106 26.291 65.3846 24.083 65.4436C23.131 65.4696 22.112 66.7095 21.787 66.0746C21.639 66.2025 22.167 66.5686 21.79 66.8226C20.115 67.0496 19.577 67.5706 17.742 68.3136C17.257 67.6156 17.057 66.4816 17.137 65.7086C18.533 65.5206 19.692 65.8936 20.91 66.1306C20.24 65.3566 18.296 65.4106 17.133 64.9596C16.621 63.8536 16.956 63.1056 16.915 62.1976C18.605 62.8296 20.306 63.4366 22.087 63.8526C20.876 63.0135 18.52 62.6936 17.015 61.7056C16.935 59.8206 17.151 58.0606 17.379 56.3076C18.476 56.3926 19.459 56.7476 20.494 56.9785C20.546 56.8695 18.754 55.6006 17.634 55.4536C17.349 54.8336 17.573 54.4315 17.808 54.0326C19.029 54.1465 20.106 54.6016 21.199 55.0216C21.218 54.9186 18.888 53.9156 17.881 53.1026C19.071 52.8166 20.203 53.5696 21.346 54.1276C21.387 53.8426 18.636 51.6836 18.52 51.3426C18.259 50.5856 19.431 49.5386 20.084 48.9096C20.605 49.7776 21.136 50.6276 21.773 51.2256C21.944 50.5316 20.533 49.5356 20.185 48.4176C20.966 47.4316 21.881 46.5026 22.781 45.5656C22.868 45.6446 22.895 45.7575 22.883 45.8946C23.005 45.6356 23.158 45.3906 23.345 45.1646C24.276 43.8636 25.908 43.1926 27.491 42.0066C27.666 42.4366 27.112 42.5576 27.108 42.9126C27.756 42.6206 28.352 40.9186 29.94 41.0146C29.744 41.7776 29.249 42.4136 28.744 43.0456C28.911 42.9696 30.922 40.4636 32.727 40.4856C32.394 40.9896 31.96 41.4506 31.506 41.9036C31.653 41.8496 34.03 40.0336 35.591 39.7756C35.512 40.6216 34.269 40.9736 33.837 41.6706C33.845 41.6716 33.856 41.6716 33.865 41.6726C35.563 40.9305 37.032 38.8596 39.563 38.4666C39.077 39.2976 38.289 40.0005 37.524 40.7146C37.713 40.6506 41.194 37.2026 43.715 37.2356C42.558 38.0516 41.533 38.9236 40.586 39.8306C40.796 39.7826 44.827 36.5606 46.634 37.4026C45.555 37.9776 44.791 38.6846 44.085 39.4166C44.188 39.4196 47.1619 37.0015 48.805 37.5746C48.153 38.2206 47.456 38.8456 46.797 39.4886C46.893 39.4866 48.9529 37.8196 50.1489 37.9306C50.8729 37.9966 52.712 38.7836 52.971 39.3376C53.167 39.7586 52.939 40.5486 52.592 41.3496C52.838 41.7646 53.028 42.2156 53.155 42.6836C53.427 41.9946 53.669 41.2916 54.295 40.7516C54.641 41.1956 55.03 41.5396 55.462 41.7796C55.434 43.0846 54.633 44.0616 54.315 45.2446C55.026 44.4766 54.986 43.3926 56.009 42.7576C56.684 44.2776 54.911 45.2516 54.086 45.7876C53.514 47.6066 50.5269 49.0656 48.6019 49.6606C48.3389 50.0766 48.414 50.5046 48.892 50.7436C49.447 50.4806 49.805 50.1335 50.515 49.9366C50.709 50.4025 50.855 50.9836 51.243 50.9916C52.126 50.7396 51.332 50.1916 51.16 49.6756C51.596 49.2746 52.6289 48.8555 53.2229 48.8396C53.4619 49.1986 53.507 50.0166 53.874 50.0766C54.477 49.8686 53.436 48.9656 53.738 48.6316C54.615 48.5496 55.055 49.8896 54.5979 50.3826C55.6689 50.1246 55.2059 49.2166 55.9079 48.8016C56.5319 48.7546 56.6669 49.8666 57.1789 50.0886C57.4269 49.2336 55.9899 48.6816 56.4719 47.9736C57.4019 47.7926 57.6839 49.1456 58.3389 49.6186C58.2829 50.0606 58.1279 50.4616 57.9079 50.8356C58.0659 50.8556 58.2229 50.8786 58.3779 50.9116C58.9489 50.3566 59.572 49.9096 60.327 49.7116C60.413 50.3486 60.272 50.9556 60.023 51.5316C60.108 51.5786 60.19 51.6306 60.273 51.6806C60.439 51.3636 60.597 51.0495 60.745 50.7425C60.993 50.5775 61.1229 50.6926 61.3129 50.6626C61.1599 50.2776 60.9829 49.8826 61.3859 49.7326C61.8639 49.5306 61.989 50.1556 62.191 50.6066C61.838 51.1626 61.44 51.6996 61.031 52.2316C61.102 52.2926 61.174 52.3516 61.243 52.4156C61.627 51.8866 62.0519 51.3656 62.6579 51.0186C62.9719 51.5386 63.4069 51.7715 63.6709 52.4086C63.4219 53.0476 63.066 53.6416 62.664 54.2156C62.723 54.3176 62.782 54.4166 62.838 54.5216C63.067 54.2596 63.316 54.0056 63.625 53.7776C63.592 54.2016 63.4189 54.5666 63.1659 54.8966C63.2619 54.9726 63.3589 55.0486 63.4549 55.1276C63.8739 54.5596 64.332 54.0196 64.889 53.5656C65.714 54.3866 65.294 55.3096 64.637 56.2116C64.834 56.4136 65.025 56.6196 65.209 56.8306C65.678 56.3636 66.189 55.9526 66.784 55.6476C66.909 56.5006 66.411 57.0886 65.887 57.6676C65.967 57.7766 66.0449 57.8876 66.1229 57.9986C66.4889 57.5976 66.859 57.1966 67.255 56.8086C67.193 57.4536 66.952 58.1115 66.617 58.7686C66.798 59.0716 66.965 59.3826 67.1189 59.7026C67.6629 58.9846 67.976 58.1686 67.849 57.1666C69.676 58.8476 68.83 60.5016 67.941 61.9586C67.972 62.0826 68.004 62.2066 68.031 62.3316C68.558 61.6766 68.934 60.9586 69.594 60.3616C69.973 60.8826 70.081 61.6646 70.534 62.6816C69.82 63.7226 69.1109 64.7646 68.2909 65.7626C68.2779 65.9936 68.262 66.2266 68.236 66.4626C69.138 65.4466 69.924 64.2486 70.4849 63.3016C70.965 63.7586 71.404 65.1126 71.477 65.7506C69.226 68.0016 68.271 70.8006 64.586 72.4445C67.373 71.7596 70.2719 69.1226 72.4939 67.8896L72.859 68.7915C71.472 70.5885 70.547 72.5826 68.208 73.9776C67.868 73.8296 68.063 73.6596 67.947 73.3326C67.3699 73.1665 67.687 74.0915 67.125 74.2655C66.022 74.3195 64.121 74.2416 63.307 75.2126C63.496 75.6046 63.603 76.1936 63.906 76.3206C64.554 76.0856 64.925 75.5686 65.581 75.6416C65.769 76.0766 65.2579 76.2166 64.835 76.3936C65.049 76.6446 65.578 76.1506 65.918 76.1046C66.352 76.2786 65.857 76.5315 65.922 76.8535C66.695 76.8615 66.747 76.4846 67.107 76.0735C67.247 76.4146 67.342 76.8616 67.678 76.7426C68.16 76.5546 67.817 76.0175 67.647 75.5546C68.182 75.2146 68.013 76.5396 68.527 76.2476C68.888 76.0806 68.546 75.6145 68.42 75.2415C69.123 74.9265 69.805 74.6596 70.328 74.7686C70.692 75.5636 70.907 76.2946 70.906 76.9346C72.036 76.4766 70.392 75.2326 70.921 74.3775C72.1049 74.3176 71.634 76.0296 72.325 76.3596C71.792 77.0246 71.135 77.6366 70.371 78.2026C71.203 78.2326 71.532 77.1305 72.534 76.8755C72.74 77.2576 72.486 77.6125 72.9 77.7785C73.314 77.2415 72.127 76.0276 73.486 75.8896C73.566 76.4826 73.683 76.4715 73.956 77.0506C73.27 77.9715 72.501 78.8586 71.689 79.7265C71.727 79.7825 71.766 79.8366 71.801 79.8936C72.678 79.4596 73.211 78.3136 73.906 77.6696C74.368 77.2496 74.168 78.3965 74.631 77.9765C74.691 77.6786 73.927 76.8726 74.858 76.6846C75.023 77.4956 75.658 77.5876 75.613 78.1786C75.468 78.4666 74.94 79.2626 74.505 78.7785C74.274 79.9426 73.4179 80.8406 72.4809 81.7046C72.5249 81.9656 72.549 82.2285 72.549 82.4915C73.722 81.0035 74.8 79.4986 76.337 78.4855C76.667 78.4116 76.0279 77.9276 76.5669 77.9436C76.5709 78.3356 76.733 78.7966 76.961 79.2836C77.287 79.2996 77.463 79.1436 77.891 79.3566L78.727 81.4196C77.824 82.9596 76.537 84.3376 75.39 85.7736C76.854 85.1116 77.516 83.1855 79.04 82.1926C79.665 82.8615 80.385 85.0996 80.709 86.3166ZM79.931 91.4346C79.655 91.0686 79.973 90.9545 79.928 90.6855C80.266 90.6675 80.377 91.4336 79.931 91.4346ZM83.5369 112.183C83.462 111.581 83.076 110.848 83.245 110.351C83.995 110.366 84.3139 111.884 83.5369 112.183ZM104.399 179.96C103.963 179.672 103.683 178.71 104.444 178.591C104.683 179.156 104.806 179.67 104.399 179.96ZM104.949 181.689C104.75 181.527 104.364 180.378 104.58 180.038C104.986 180.286 104.854 181.217 104.949 181.689ZM103.643 178.466C103.194 177.493 103.208 176.715 104.123 176.32C104.342 177.195 104.473 178.035 103.643 178.466ZM103.336 179.191C102.97 179.569 102.96 180.099 102.308 180.356C101.905 179.652 102.049 179.178 101.706 178.5C102.098 178.167 102.259 177.737 102.787 177.461C103.072 178.082 102.955 178.531 103.336 179.191ZM103.649 179.963C104.135 181.005 103.317 182.006 102.782 182.266C102.48 181.675 102.417 181.186 102.465 180.744C102.893 180.513 103.181 179.844 103.649 179.963ZM102.03 181.52C102.686 182.866 102.121 183.695 101.242 184.391C100.854 183.16 100.762 182.052 102.03 181.52ZM100.434 182.768C99.992 182.872 99.9159 183.677 99.507 183.443C99.157 182.199 98.126 180.192 99.648 180.085C100.076 181.05 100.265 181.913 100.434 182.768ZM100.74 182.043C100.538 180.818 99.103 179.072 101.243 178.838C102.19 180.318 101.876 181.797 100.74 182.043ZM52.752 146.566C52.728 146.378 52.896 146.272 52.853 146.075C52.984 146.102 53.116 146.124 53.292 146.047C53.4739 146.419 53.017 146.688 52.752 146.566ZM54.0409 146.044C54.8359 146.057 55.963 146.491 56.061 147.327C55.213 147.437 54.0319 147.132 54.0409 146.044ZM56.733 147.504L56.367 146.602C57.022 146.487 57.41 146.997 57.792 147.525C57.382 147.652 57.099 147.481 56.733 147.504ZM43.172 124.037C42.491 123.996 41.967 122.416 41.845 121.874C42.729 122.109 42.555 123.287 43.172 124.037ZM43.574 121.324C43.142 121.588 42.89 121.427 42.567 121.432C42.286 120.864 42.627 120.561 43.132 120.603C43.198 121.035 43.454 121.019 43.574 121.324ZM42.904 121.895C43.988 121.391 44.589 123.248 44.722 124.159C44.245 124.358 43.895 124.263 43.534 124.19C43.178 123.363 42.831 122.54 42.904 121.895ZM43.671 120.084C44.533 119.623 45.232 120.689 45.252 121.394C44.227 121.814 43.838 121.115 43.671 120.084ZM44.908 119.433C45.599 119.276 46.523 120.816 46.26 121.285C45.335 121.306 45.694 119.797 44.908 119.433ZM24.85 86.5946C23.387 87.2646 23.629 84.4885 23.366 84.0435C23.996 83.9576 24.694 85.7146 24.85 86.5946ZM25.396 87.5726C24.929 87.8336 24.558 87.8696 24.259 87.7326C24.249 87.5146 24.319 87.3306 24.308 87.1125C24.851 86.8415 25.129 87.1936 25.396 87.5726ZM21.534 84.3356C21.243 83.6646 20.959 83.4726 21.088 82.8656C21.609 82.9816 22.277 82.7476 22.767 82.9346C22.537 83.4796 21.995 83.8906 21.534 84.3356ZM24.681 89.5135C24.398 89.6756 24.178 89.6936 23.985 89.6456C23.731 89.1816 23.994 88.9365 24.006 88.5865C24.301 88.7305 24.456 89.2026 24.681 89.5135ZM25.469 86.6425L24.686 84.7086C25.255 84.8056 25.945 86.1875 25.469 86.6425ZM20.149 69.4406C20.771 69.3176 21.217 69.6056 21.598 70.0536C21.279 70.5616 19.965 70.1456 20.149 69.4406ZM20.996 68.1976C21.922 67.8596 22.54 68.2506 22.912 69.2216C21.96 69.6186 21.335 69.2466 20.996 68.1976ZM70.1919 73.3235C71.076 72.2365 72.52 70.8205 73.379 70.0806C73.976 70.8885 74.124 71.8146 74.372 72.5296C72.99 72.2246 71.7099 73.0126 70.1919 73.3235ZM74.26 76.3266C74.13 75.9146 74.095 75.5445 74.099 75.1906C74.399 75.2556 74.842 76.2806 74.26 76.3266ZM72.292 75.1725C72.157 74.7945 71.879 74.3575 72.003 74.0885C72.3149 73.9395 72.484 74.1306 72.752 74.0856C72.952 74.5976 72.798 74.9595 72.292 75.1725ZM73.17 75.1176C73.173 75.4386 73.037 75.7016 72.553 75.8176C72.347 75.3966 72.762 74.9586 73.17 75.1176ZM71.9939 66.2906C72.5359 68.3346 70.033 69.0906 68.319 70.1806C69.324 68.7916 70.3879 67.4256 71.9939 66.2906Z" fill="#604C3F"/>
<path fill-rule="evenodd" clip-rule="evenodd" d="M81.293 95.5352C81.208 96.9232 79.644 97.6852 78.854 98.7732C79.495 97.6212 80.404 96.5822 81.293 95.5352Z" fill="#604C3F"/>
<path fill-rule="evenodd" clip-rule="evenodd" d="M78.252 101.558C78.248 101.635 78.242 101.712 78.235 101.788C79.421 100.771 80.531 99.722 80.944 98.377C80.152 99.483 79.227 100.531 78.252 101.558Z" fill="#604C3F"/>
<path fill-rule="evenodd" clip-rule="evenodd" d="M81.4769 101.913C80.7889 103.299 79.7949 104.555 78.6889 105.763C78.6889 105.85 78.6859 105.938 78.6799 106.026C79.1699 105.474 79.6489 104.932 80.0939 104.424C80.7629 103.661 82.0799 102.855 81.4769 101.913Z" fill="#604C3F"/>
<path fill-rule="evenodd" clip-rule="evenodd" d="M82.1029 103.46C81.6609 105.089 79.9039 106.16 78.6079 107.426C79.2169 106.296 81.2549 104.845 82.1029 103.46Z" fill="#604C3F"/>
<path fill-rule="evenodd" clip-rule="evenodd" d="M47.617 129.174C47.607 129.145 47.602 129.113 47.592 129.082C46.754 129.127 45.922 129.249 45.109 129.555C45.896 129.931 46.75 129.612 47.601 129.421C47.606 129.339 47.608 129.256 47.617 129.174Z" fill="#604C3F"/>
<path fill-rule="evenodd" clip-rule="evenodd" d="M88.802 128.506C88.491 129.201 88.059 129.899 87.563 130.597C87.57 130.628 87.576 130.659 87.582 130.689C88.509 129.52 89.666 128.394 89.568 126.695C88.833 126.889 89.058 127.934 88.802 128.506Z" fill="#604C3F"/>
<path fill-rule="evenodd" clip-rule="evenodd" d="M88.0899 134.293C88.0629 134.455 88.0149 134.607 87.9659 134.759C89.1659 133.598 90.3779 132.444 90.6719 130.9C89.8679 132.055 88.9829 133.176 88.0899 134.293Z" fill="#604C3F"/>
<path fill-rule="evenodd" clip-rule="evenodd" d="M88.133 149.86C88.9 149.202 89.875 148.632 90.154 147.768C89.484 148.515 88.555 149.154 87.96 149.933C88.017 149.909 88.073 149.882 88.133 149.86Z" fill="#604C3F"/>
<path fill-rule="evenodd" clip-rule="evenodd" d="M73.26 181.624C74.555 182.078 76.031 182.105 77.548 182.037C77.393 181.88 74.54 181.595 73.26 181.624Z" fill="#604C3F"/>
<path fill-rule="evenodd" clip-rule="evenodd" d="M103.653 189.02C103.664 189.04 103.675 189.062 103.687 189.082C104.831 187.707 106.099 186.385 106.641 184.754C105.649 186.178 104.635 187.591 103.653 189.02Z" fill="#604C3F"/>
<path fill-rule="evenodd" clip-rule="evenodd" d="M82.9509 200.355C83.9369 201.065 85.5559 200.949 86.8269 201.034C87.2939 201.066 87.8329 201.394 88.2289 201.104C88.2089 201.077 84.4409 200.196 82.9509 200.355Z" fill="#604C3F"/>
<path fill-rule="evenodd" clip-rule="evenodd" d="M89.752 203.132C89.658 203.127 86.293 202.735 84.849 203.187C85.261 203.665 86.254 203.466 86.657 203.205C87.69 203.327 89.836 203.252 89.752 203.132Z" fill="#604C3F"/>
<path fill-rule="evenodd" clip-rule="evenodd" d="M84.933 204.505C86.933 203.981 88.3 204.957 90.15 204.792C89.237 205.268 87.826 204.721 86.663 204.704C86.084 204.696 85.249 205.302 84.933 204.505Z" fill="#604C3F"/>
<path fill-rule="evenodd" clip-rule="evenodd" d="M107.45 200.101C107.471 200.205 107.486 200.31 107.503 200.414C108.304 199.286 109.097 198.154 109.252 196.752C108.515 197.811 107.997 198.962 107.45 200.101Z" fill="#604C3F"/>
<path fill-rule="evenodd" clip-rule="evenodd" d="M108.395 211.127C108.414 211.139 108.433 211.149 108.452 211.161C109.921 209.43 111.605 207.789 112.288 205.725C110.857 207.469 109.674 209.319 108.395 211.127Z" fill="#604C3F"/>
<path fill-rule="evenodd" clip-rule="evenodd" d="M71.4739 134.628C71.7189 136.441 68.8799 136.947 70.1769 139.206C70.5249 139.448 70.3199 138.562 70.7939 138.505C71.0829 139.232 70.5639 139.618 70.4149 140.159C70.4669 140.793 71.0249 140.231 71.1149 140.776C71.0099 141.052 70.8269 141.294 70.8599 141.629C73.1329 145 72.3859 148.581 73.4879 151.819C73.6429 152.274 73.9629 152.891 74.2439 153.313C75.0429 154.513 75.8879 155.566 76.6369 156.996C77.9549 159.517 79.4649 162.047 80.5719 164.856C78.3519 165.34 78.2609 160.172 76.6189 158.804C76.2529 160.998 76.7799 163.571 77.5309 166.238C77.0229 166.596 76.8299 166.212 76.4719 166.217C74.6599 161.821 76.9009 156.553 72.9279 153.398C72.5739 151.571 71.2419 150.691 70.5069 149.276C69.4839 147.303 70.3499 144.627 68.5119 142.131C67.6819 142.409 67.453 141.27 66.8549 141.003C67.0369 140.546 67.3379 140.14 67.3389 139.606C66.9499 139.13 66.7989 140.009 66.1789 140.077C65.7219 139.155 64.78 139.762 64.752 138.404C66.747 137.391 67.7099 138.817 68.8139 139.91C69.5789 142.219 71.3349 146.124 71.2539 148.526C71.5579 148.733 71.627 149.492 72.058 149.4C71.748 148.171 72.0209 146.482 71.3669 144.729C69.9359 140.911 66.9459 135.885 71.4739 134.628Z" fill="#604C3F"/>
</svg>
