<svg width="108" height="246" viewBox="0 0 108 246" fill="none" xmlns="http://www.w3.org/2000/svg">
<path d="M68.112 85.2598C58.589 94.5878 50.509 99.9718 41.905 102.869C41.875 105.946 41.926 108.854 41.737 111.59C41.558 114.168 38.526 125.561 37.502 128.178C36.948 129.591 30.407 141.249 27.266 145.472C24.282 149.486 20.97 153.238 17.561 157.118C14.289 160.844 11.529 165.247 8.91398 169.824C6.26398 174.462 3.57798 179.316 2.03198 184.294C0.277985 189.94 -0.321017 202.621 0.443983 208.47C1.59398 217.27 6.18998 222.993 11.208 228.587C16.13 234.072 22.33 239.015 28.855 241.821C31.637 243.018 35.136 243.664 38.737 244.292C42.31 244.914 46.095 245.671 50.031 245.527C51.527 245.472 58.094 244.875 59.56 244.645C63.057 244.095 66.573 242.939 69.971 242.174C74.185 241.225 78.337 240.041 81.442 238.292C83.84 236.941 86.116 234.591 88.148 232.645C89.156 231.678 90.213 230.541 91.148 229.468C92.121 228.351 92.692 226.891 93.619 225.762C95.319 223.691 100.92 217.292 103.147 207.41C103.83 204.382 104.995 199.093 105.265 198.234C106.063 195.13 106.676 190.161 106.677 189.058C108.015 181.296 105.539 171.897 106.324 163.824C104.995 160.976 105.414 156.381 104.383 153.236C104.408 152.555 104.129 151.138 104.03 150.589C103.226 147.944 103.421 145.305 102.795 142.472C102.542 141.327 101.981 140.275 101.736 139.119C101.458 137.805 101.482 136.402 101.207 135.06C100.774 132.948 99.783 130.967 99.266 128.883C98.388 125.345 98.096 121.667 97.326 118.119C96.205 112.962 94.108 108.06 92.896 103.207C84.678 101.924 72.826 96.8268 68.112 85.2598Z" fill="#8C669D"/>
<path d="M96.618 98.7076C92.872 96.7666 91.589 93.1436 89.736 89.0016C88.735 86.7666 88.075 84.2826 87.09 81.9426C84.869 76.6716 82.097 72.3817 78.266 68.8837C75.297 66.1717 71.091 62.7387 70.501 59.7077C70.107 57.6787 70.826 55.0557 71.384 52.6497C71.932 50.2817 72.301 47.8427 72.796 45.9437C74.039 41.1567 74.867 37.4417 76.149 33.2377C77.466 28.9157 78.51 24.6907 80.207 21.2376C81.921 17.7507 83.647 13.7577 86.031 11.0037C86.792 10.1237 90.551 7.45365 91.677 7.65065C93.15 7.90765 93.262 10.8597 95.383 10.8277C96.218 10.8147 96.593 10.1517 97.324 9.76765C97.749 8.51365 97.587 6.88365 97.677 5.70965C96.23 3.82965 95.508 1.70965 93.442 0.768653C87.381 -1.99035 81.746 4.90065 78.795 7.65065C77.587 10.8287 75.452 12.6877 73.855 15.7687C72.415 18.5417 71.466 22.5076 70.325 26.3566C67.992 34.2327 67.043 41.2857 64.854 49.1207C63.907 52.5137 62.972 57.4697 61.149 59.5326C60.479 60.2906 59.071 61.0757 58.149 61.6497C55.397 63.3687 52.968 64.5276 50.561 66.2376C47.191 70.7607 41.893 75.3127 41.032 82.4726C40.833 84.1276 40.541 86.3266 40.679 88.2956C40.83 90.4346 42.73 93.9846 40.503 95.7066C38.649 94.5596 36.036 94.2336 35.738 96.4126C35.308 99.5536 39.479 101.136 41.914 101.884C41.909 102.217 41.909 102.539 41.905 102.868C50.509 99.9706 58.59 94.5867 68.112 85.2587C72.826 96.8257 84.677 101.923 92.894 103.206C92.843 103.001 92.783 102.795 92.735 102.589C94.423 101.69 96.109 100.788 96.618 98.7076Z" fill="#36A862"/>
<path fill-rule="evenodd" clip-rule="evenodd" d="M70.6769 42.7676C70.8449 44.5386 71.0279 47.3656 70.3239 49.8266C70.1609 50.3966 69.6159 50.8676 69.4419 51.4146C68.9779 52.8716 69.4609 54.5956 68.3829 55.4736C68.9579 51.1656 69.6699 46.9946 70.3239 42.7676C70.4419 42.7676 70.5599 42.7676 70.6769 42.7676Z" fill="#604C3F"/>
<path fill-rule="evenodd" clip-rule="evenodd" d="M68.383 60.2383C68.735 62.3813 69.037 64.8953 68.56 66.9433C67.662 65.5843 68.395 61.9903 68.383 60.2383Z" fill="#604C3F"/>
<path d="M106.323 163.823C104.994 160.975 105.413 156.38 104.382 153.235C104.407 152.554 104.128 151.137 104.029 150.588C103.225 147.943 103.42 145.304 102.794 142.471C102.541 141.326 101.98 140.274 101.735 139.118C101.457 137.804 101.481 136.401 101.206 135.059C100.773 132.947 99.7819 130.966 99.2649 128.882C98.3869 125.344 98.0949 121.666 97.3249 118.118C96.1569 112.742 93.9169 107.643 92.7369 102.59C94.4249 101.69 96.1109 100.787 96.6189 98.7076C92.8729 96.7666 91.5899 93.1436 89.7369 89.0016C88.7359 86.7666 88.0759 84.2826 87.0909 81.9426C84.8699 76.6716 82.0979 72.3817 78.2669 68.8837C75.2979 66.1717 71.0919 62.7387 70.5019 59.7077C70.1079 57.6787 70.8269 55.0557 71.3849 52.6497C71.9329 50.2817 72.3019 47.8427 72.7969 45.9437C74.0399 41.1567 74.8679 37.4417 76.1499 33.2377C77.4669 28.9157 78.5109 24.6907 80.2079 21.2376C81.9219 17.7507 83.6479 13.7577 86.0319 11.0037C86.7929 10.1237 90.5519 7.45365 91.6779 7.65065C93.1509 7.90765 93.2629 10.8597 95.3839 10.8277C96.2189 10.8147 96.5939 10.1517 97.3249 9.76765C97.7499 8.51365 97.5879 6.88365 97.6779 5.70965C96.2309 3.82965 95.5089 1.70965 93.4429 0.768653C87.3819 -1.99035 81.7469 4.90065 78.7959 7.65065C77.5879 10.8287 75.4529 12.6877 73.8559 15.7687C72.4159 18.5417 71.4669 22.5076 70.3259 26.3566C67.9929 34.2327 67.0439 41.2857 64.8549 49.1207C63.9079 52.5137 62.9729 57.4697 61.1499 59.5326C60.4799 60.2906 59.0719 61.0757 58.1499 61.6497C55.3979 63.3687 52.9689 64.5276 50.5619 66.2376C47.1919 70.7607 41.8939 75.3127 41.0329 82.4726C40.8339 84.1276 40.5419 86.3266 40.6799 88.2956C40.8309 90.4346 42.7309 93.9846 40.5039 95.7066C38.6499 94.5596 36.0369 94.2336 35.7389 96.4126C35.3089 99.5536 39.4799 101.136 41.9149 101.884C41.8579 105.333 41.9469 108.561 41.7389 111.589C41.5599 114.167 38.5279 125.56 37.5039 128.177C36.9499 129.59 30.4089 141.248 27.2679 145.471C24.2839 149.485 20.9719 153.237 17.5629 157.117C14.2909 160.843 11.5309 165.246 8.91594 169.823C6.26594 174.461 3.57994 179.315 2.03394 184.293C0.279938 189.939 -0.319063 202.62 0.445937 208.469C1.59594 217.269 6.19194 222.992 11.2099 228.586C16.1319 234.071 22.3319 239.014 28.8569 241.82C31.6389 243.017 35.1379 243.663 38.7389 244.291C42.3119 244.913 46.0969 245.67 50.0329 245.526C51.5289 245.471 58.0959 244.874 59.5619 244.644C63.0589 244.094 66.5749 242.938 69.9729 242.173C74.1869 241.224 78.3389 240.04 81.4439 238.291C83.8419 236.94 86.1179 234.59 88.1499 232.644C89.1579 231.677 90.2149 230.54 91.1499 229.467C92.1229 228.35 92.6939 226.89 93.6209 225.761C95.3209 223.69 100.922 217.291 103.149 207.409C103.832 204.381 104.997 199.092 105.267 198.233C106.065 195.129 106.678 190.16 106.679 189.057C108.014 181.295 105.538 171.897 106.323 163.823ZM105.617 175.647C105.301 175.67 105.245 175.431 104.911 175.47C104.943 174.913 105.036 174.418 105.617 174.412C105.569 175.143 105.849 175.099 105.617 175.647ZM105.441 171.235C105.071 171.31 104.973 171.114 104.735 171.058C104.797 170.827 105.046 170.781 105.088 170.529C105.398 170.572 105.49 170.833 105.441 171.235ZM104.029 175.117C103.703 174.548 104.605 173.698 104.735 172.999C105.014 173.522 104.197 174.456 104.029 175.117ZM104.911 168.412C105.687 169.17 104.107 170.518 103.853 171.411C103.571 170.479 104.464 169.203 104.911 168.412ZM103.676 156.588C104.444 156.621 103.997 156.895 104.028 157.47C103.319 157.496 103.563 157.018 103.676 156.588ZM102.617 155.001C102.172 154.196 103.007 153.16 103.146 152.353C104 152.915 102.805 154.321 102.617 155.001ZM101.029 141.412C101.774 141.561 100.853 142.804 100.676 143.177C100.166 142.655 100.971 141.951 101.029 141.412ZM73.3239 67.2966C73.8229 67.5056 74.1019 67.8396 74.2069 67.4736C75.9539 68.4906 77.9219 72.1887 77.9129 71.8857C78.6019 72.2547 78.6829 72.4156 78.6189 71.7086C80.5439 72.3186 80.7149 74.9107 80.7359 73.8267C82.6899 74.7547 82.8479 77.4796 83.7359 79.4736C83.6579 79.7356 83.5099 79.4036 83.2059 79.4736C83.1939 80.3526 83.7259 79.5886 84.0889 80.0026C84.5449 81.4286 84.9479 82.9076 85.5009 84.2376C85.5269 84.5636 86.0979 84.3456 86.2069 84.5907C87.4399 89.0067 90.2989 92.7307 91.5009 96.5907C88.9989 94.2187 87.4249 90.6487 86.3839 87.7666C85.9349 88.0016 86.6429 88.5506 86.5589 89.0026C86.0319 88.6476 85.3689 88.4286 85.5009 87.4137C82.5989 81.8456 80.1339 75.8396 75.2659 72.2376C74.7969 70.4957 72.7719 69.4826 73.3239 67.2966ZM70.8529 63.2377C72.3609 63.5547 72.0309 65.7066 72.4419 67.1197C71.4419 66.3217 70.4819 64.8557 70.8529 63.2377ZM70.4999 65.7086C70.9569 66.1347 71.2839 66.6896 71.5589 67.2966C70.8179 67.2076 70.1679 66.3076 70.4999 65.7086ZM58.3239 67.1207C59.1999 66.4067 60.2129 64.3046 61.8539 63.7667C61.8619 64.3066 61.2179 64.1906 61.3239 64.8256C62.4049 64.3756 63.0839 61.9987 63.7939 60.5907C62.6879 60.4877 61.9929 62.3177 61.3239 63.2377C60.9049 62.1677 61.9909 61.0847 62.7349 60.5907C68.0049 49.1557 68.5899 33.0346 73.8529 21.5917C73.9249 21.1677 73.5299 21.2087 73.6759 20.7097C75.6259 16.8946 77.5009 13.0057 79.6759 9.41665C81.8199 8.55465 83.1699 5.70465 85.4999 4.47565C85.8579 4.42065 86.6589 3.75565 87.2639 3.23965C88.8089 2.68065 90.2929 2.10065 92.3809 2.53465C93.9149 3.17665 95.3119 4.02965 96.2639 5.18165C96.7819 7.52065 96.6019 8.66865 95.3809 9.41665C94.3959 9.34265 93.9369 8.74365 93.4399 8.18065V6.23965C90.6119 5.25765 88.8749 7.77165 87.2629 8.00365C87.7769 6.75265 88.5309 5.74265 89.0279 4.47565C87.2629 5.47465 87.4509 8.42665 85.4989 9.23965C85.8819 8.44665 86.1459 7.53465 86.3819 6.59265C84.7539 8.61265 84.6439 12.1507 82.3219 13.4747C82.4149 12.3917 83.0599 11.8607 83.0279 10.6517C81.9939 11.8377 82.3589 15.0157 80.7339 15.0637C77.5229 26.3607 72.7889 38.5067 70.3219 50.8857C69.8389 53.3147 69.2429 56.0477 69.2629 58.6507C69.2759 60.1947 70.1649 62.0297 69.4399 63.4147C69.9179 64.7017 70.0019 66.3826 70.1459 68.0026C70.1489 68.5876 71.1429 68.1826 71.3819 68.5326C73.8619 72.6346 77.8689 75.2147 80.3809 79.6497C82.8099 83.9367 84.6049 88.7266 87.2629 92.7086C89.1239 95.4957 91.2529 97.8076 93.7929 99.9436C90.9539 102.029 86.3379 100.268 85.8519 97.2966C88.1389 98.0786 89.9059 100.694 92.3809 99.7677C92.3599 98.7897 91.2179 98.9306 90.2639 98.8857C88.5639 97.4687 86.3319 96.5816 84.4409 95.3566C81.0899 91.2376 79.0349 85.8217 75.7939 81.5927C75.8809 81.0357 75.4759 80.9697 75.6179 80.3577C73.3299 77.1157 69.9149 72.1246 70.4999 72.7696C72.4959 74.9716 73.6769 78.7366 75.2649 81.7696C78.6629 88.2626 82.2929 94.1396 86.7359 99.7686C86.2939 99.7386 86.1829 100.04 86.0309 100.298C85.3899 99.9967 84.5559 99.8906 84.6189 98.8857C82.5849 97.4487 81.1429 95.4206 79.6779 93.4146C79.1339 93.2826 79.4629 94.0227 78.7959 93.7677C77.1709 92.3347 76.6559 89.7906 75.9729 87.4146C75.1249 88.5747 76.7649 90.0966 76.6789 91.6497C74.6759 89.8287 74.2679 86.4156 73.1499 83.7096C72.7279 83.6396 73.2479 84.5136 72.6199 84.2386C71.6819 80.7057 69.2519 78.6666 68.3849 75.0616C67.3549 76.0746 68.5409 77.7296 69.0909 78.7676C69.7629 80.0366 70.7149 81.1266 71.0319 82.2976C69.9369 84.3406 71.0979 87.5807 71.5609 89.7086C69.2519 88.1637 69.7359 81.6357 66.7969 80.1796C65.9279 80.6637 66.4509 82.5387 65.0319 82.4736C65.1029 85.9557 62.8779 87.1426 61.8559 89.5316C59.1869 91.8056 57.0509 94.6097 53.7389 96.2377C55.7149 93.3927 57.8619 90.7156 59.0319 87.0616C59.2939 86.8576 62.3039 81.2816 62.3849 78.2386C61.0919 80.0626 56.6659 91.9886 53.7389 94.1207C53.6909 93.4856 54.0649 93.2706 54.0919 92.7086C53.0029 94.5606 52.4139 96.9127 50.7379 98.1786C50.1609 96.7816 51.4219 95.3366 52.1499 94.1196C52.9009 92.8636 53.7059 91.3267 54.7969 90.5907C54.5289 91.1457 54.2699 91.7107 54.0909 92.3557C55.9259 89.3087 57.0339 85.5346 58.8549 82.4736C57.9269 82.9817 57.1719 84.6616 56.5609 86.0026C55.9809 87.2737 55.5969 88.7096 55.1489 89.8847C54.9919 89.7477 54.7499 89.6956 54.4429 89.7086C53.2929 91.5006 52.3419 93.4906 51.0899 95.1796C50.4959 94.0686 51.7819 92.3816 51.9729 91.2976C52.0229 91.0116 51.6109 90.5216 51.6199 90.2386C51.6459 89.3516 52.3609 87.2146 52.6789 85.4736C53.1449 82.9127 53.6179 79.0887 54.2659 77.3567C54.9539 75.5187 53.9059 75.6356 53.2069 78.0616C51.9779 82.3306 51.5749 87.8857 50.5609 92.3567C49.4009 93.7257 48.2919 95.1456 47.2079 96.5916C47.4979 96.9826 48.1169 96.2187 48.4429 96.0627C47.6599 97.2437 45.9359 99.8766 43.6789 99.5916C45.8289 95.3256 47.4479 89.6036 47.3849 83.7106C48.5199 79.6777 49.6579 75.3486 51.6199 71.7106C51.9479 71.7346 52.2089 71.8267 52.3259 72.0637C54.0029 70.7407 54.5679 68.3067 56.5609 67.2987C56.3319 67.8337 56.0499 68.3167 55.8549 68.8867C57.2259 67.4336 58.2619 65.6477 59.5609 64.1217C59.9059 65.1757 58.5149 66.0146 58.3239 67.1207ZM86.7359 102.767C87.0209 102.717 87.0399 102.934 87.2649 102.943C87.1739 103.204 87.0039 103.387 86.9119 103.649C86.5289 103.679 86.8319 103.023 86.7359 102.767ZM71.5589 86.8847C71.1389 85.9517 71.2509 84.4877 71.0299 83.3547C71.3149 83.3046 71.3339 83.5216 71.5589 83.5316C73.1309 88.4306 75.7439 92.2887 78.2649 96.2366C75.9549 94.9586 73.9629 93.3636 72.0889 91.6487C72.3029 90.3346 73.4809 88.4337 71.5589 86.8847ZM81.7939 98.7076C80.5649 99.5706 79.4419 97.4647 78.2649 97.1187C79.3999 96.9866 80.9209 97.9916 81.7939 98.7076ZM79.1469 94.8257C79.8409 94.4907 80.8049 95.3977 80.9119 96.2366C79.8479 96.2416 79.7869 95.2437 79.1469 94.8257ZM68.3829 91.1197C68.1959 90.3196 68.3259 88.9426 68.3829 88.1207C68.5879 88.0917 68.6969 88.1586 68.7359 88.2966C69.2139 89.1946 68.2369 89.9837 68.3829 91.1197ZM57.0889 96.7666C56.8309 96.6136 56.5289 96.5027 56.5599 96.0607C56.7169 95.9237 56.9579 95.8717 57.2649 95.8837C57.3219 96.2937 57.2369 96.5616 57.0889 96.7666ZM48.6189 98.3557C48.6349 99.0217 47.7129 100.27 46.3249 100.12C46.7549 99.1966 47.8869 98.9757 48.6189 98.3557ZM44.5609 104.002C44.0229 103.749 44.1239 102.505 44.5609 102.237C45.4709 102.464 44.3899 103.377 44.5609 104.002ZM44.2079 106.472C43.6969 105.835 44.3179 104.825 44.3839 104.178C44.8059 104.728 44.0309 105.584 44.2079 106.472ZM43.5019 109.648C42.9329 108.721 43.7339 107.65 43.8549 106.825C44.3859 107.715 43.6149 108.817 43.5019 109.648ZM59.2059 63.4147C58.3849 64.8877 56.9339 65.7306 56.2069 67.2966C56.0019 67.3256 55.8929 67.2577 55.8539 67.1207C56.3799 65.2936 57.2129 63.7737 59.2059 63.4147ZM43.5019 81.4137C43.1149 82.4397 43.3379 84.0746 42.4429 84.5896C42.7879 83.4836 41.8959 81.5536 43.5019 81.4137ZM43.1479 84.7666H43.6779C43.4699 86.4417 43.1799 88.0336 42.9719 89.7076C41.1809 88.7626 42.8699 86.2626 43.1479 84.7666ZM37.5019 96.5896C37.8709 96.2046 38.0049 96.6776 38.5609 96.5896C38.6069 97.1646 38.3519 97.4387 37.8559 97.4716C37.7789 97.1367 37.4739 97.0286 37.5019 96.5896ZM38.3839 98.3557C38.7729 97.7437 39.3629 97.3337 40.3249 97.2957C40.9809 98.0407 39.5369 97.8157 39.7959 98.7086C43.0009 97.6946 43.4749 93.3427 44.2079 89.7086C44.5549 87.9876 45.2269 84.9596 44.7369 83.0026C45.8449 80.1706 41.2539 77.5216 55.8549 65.0036C56.0229 65.7636 55.0689 66.9196 54.6189 67.6497C53.9649 67.9977 53.5859 67.8186 53.0319 68.0026C50.3679 71.6156 47.4499 76.8326 46.5019 83.1786C45.8559 87.5006 45.6659 92.0736 44.3839 95.7076C43.6829 97.6956 41.2579 99.9866 38.3839 98.3557ZM41.5609 99.9426C41.8289 99.1596 42.7039 99.8416 42.9729 100.12C42.6509 100.598 41.9069 100.022 41.5609 99.9426ZM60.4419 242.35C60.7389 240.471 62.9209 240.475 64.3249 239.702C63.5759 241.131 62.6509 242.382 60.4419 242.35ZM92.9119 224.174C91.4909 225.972 90.3029 227.898 88.6769 228.939C91.0269 224.819 94.3829 221.705 96.9709 217.821C96.9049 219.917 94.3079 222.407 92.9119 224.174ZM97.3239 217.468C96.3309 216.272 97.8609 214.912 98.5589 213.763C99.3249 212.5 100.306 211.217 100.853 210.057C101.058 210.028 101.167 210.096 101.206 210.234C99.9799 212.714 98.6779 215.118 97.3239 217.468ZM99.2639 211.116C99.8189 209.846 100.679 208.883 101.558 207.939C101.469 208.287 100.391 210.636 99.2639 211.116ZM103.676 198.763C103.592 198.21 104.152 198.297 104.205 197.881C104.745 198.205 104.021 199.28 103.676 198.763ZM101.949 191.525C102.688 190.518 105.149 188.41 105.617 187.293C105.774 187.371 105.932 187.449 105.971 187.646C105.295 189.116 101.825 194.06 101.757 194.713C102.038 194.436 103.902 193.018 104.206 192.763C103.903 193.32 101.386 197.358 101.185 198.262C101.658 197.569 103.719 195.738 104.206 195.057C104.371 196.914 103.12 198.545 101.917 200.113C101.085 202.506 97.7269 204.771 96.7729 207.131C98.2559 204.869 102.207 202.651 103.677 200.527C104.051 200.948 103.873 201.698 103.677 201.939C101.757 204.305 97.6249 207.673 95.5959 210.307C95.4789 210.646 95.3619 210.985 95.2439 211.324C96.6309 209.587 100.319 207.882 101.559 205.997C101.781 206.041 101.737 206.349 101.559 206.35C100.073 208.836 94.3869 215.248 93.8079 216.313C92.7589 218.246 92.1789 220.229 90.8689 222.19C90.9089 222.221 88.7439 224.321 88.7589 224.376C87.4659 226.375 87.5689 226.749 85.5189 227.993C85.5909 227.767 84.4199 232.352 83.7359 233.172C83.1459 233.289 81.9029 235.664 80.9119 235.996C81.4159 234.527 82.4149 232.817 83.3399 231.768C82.3539 232.542 81.1459 233.846 80.0519 234.477C79.7389 235.305 78.5969 236.277 77.9129 236.702C78.0389 236.124 78.6019 233.686 78.8949 233.275C77.6659 233.84 72.5269 238.156 71.2069 238.819C71.9559 238.01 74.0559 238.326 74.8689 237.581C74.6689 237.582 71.4599 238.121 71.1949 238.321C71.2319 238.072 73.5549 237.72 73.6219 237.502C73.5799 237.497 73.4369 234.864 73.3949 234.857C73.2209 234.928 69.4209 240.028 67.1499 240.584C67.6549 239.506 69.7609 236.426 70.3799 235.461C70.1209 235.541 66.3499 240.655 64.6789 241.29C64.8399 240.243 67.2579 236.982 67.9689 236.063C67.4379 236.19 62.8419 239.818 61.8559 240.231C62.0569 239.774 64.1429 236.814 64.4269 236.44C64.0359 236.507 58.7629 242.113 56.7379 242.878C57.1979 241.643 60.5849 237.985 61.2619 236.967C61.1369 236.981 55.4209 243.418 52.6799 243.583C53.4229 242.282 57.6909 238.755 58.5489 237.57C58.3639 237.582 52.0409 242.61 50.5619 243.406C51.0179 242.12 55.0459 239.049 55.7619 238.022C55.5499 238.028 50.0429 242.789 49.1499 243.936C48.2199 243.866 48.0049 243.12 48.6389 242.814C49.3919 242.12 52.6589 239.23 53.2739 238.399C52.6549 238.397 46.1739 243.677 44.5619 243.584C45.3439 242.447 50.1599 239.893 51.2389 238.626C51.0179 238.615 44.4499 242.959 42.6209 243.407C42.7449 242.328 49.1089 239.231 48.8279 238.098C49.1089 239.231 41.6269 242.652 39.2679 242.878C39.8579 241.586 44.7859 239.841 45.9639 238.776C45.7949 238.75 38.9269 241.633 37.3269 242.348C37.3779 241.499 38.6429 241.294 38.9769 240.746C43.0939 237.413 37.8089 240.673 36.7979 241.289C36.4669 241.625 34.3089 241.954 33.4449 241.465C34.4049 240.415 40.8599 239.599 41.6689 238.398C41.2969 238.285 33.2919 240.725 31.5029 241.113C31.5189 239.63 38.3219 238.915 39.1819 237.644C38.9769 237.569 31.3619 239.628 29.9149 240.407C29.2669 240.173 28.3969 240.16 28.1499 239.524C29.3749 238.582 35.8509 238.516 36.8459 237.343C36.6949 237.276 30.7489 238.963 30.3639 239.231C30.4869 238.828 28.0019 238.149 27.3389 238.589C27.7569 237.79 33.1169 237.546 33.6059 236.816C33.3819 236.707 27.1989 237.351 26.5619 238.642C25.5499 238.419 24.6099 238.125 24.0919 237.407C25.0799 236.367 30.6919 237.438 31.4959 236.214C31.1349 236.014 24.6279 235.522 24.0139 235.938C23.3269 236.404 21.8689 236.151 21.0929 235.466C21.8819 234.333 28.6479 235.89 29.3869 234.706C29.1329 234.546 20.1589 233.031 18.9749 233.702C18.5579 233.178 17.7419 233.052 17.7399 232.114C18.2569 232.159 26.7219 232.988 27.1249 232.295C26.8479 232.093 17.6289 231.849 15.9749 231.232C16.5059 230.062 23.4459 232.252 24.2309 231.336C23.5849 230.82 15.7009 230.186 15.2689 230.172C14.5419 230.075 14.2029 229.592 13.8579 229.112C14.3449 228.029 15.5989 224.216 15.4459 224.072C14.8859 225.115 13.5979 227.406 12.7999 228.054C12.9059 226.879 13.1499 220.317 12.9109 220.068C12.2939 220.956 12.1849 225.723 11.3879 226.289C11.8669 225.316 11.3369 218.648 11.1759 218.466C10.7099 219.474 11.4159 224.842 10.3289 225.23C10.1309 223.975 10.3319 216.932 9.97394 216.464C9.32994 217.229 9.53394 222.497 9.26994 223.642C8.72594 223.421 8.29494 223.087 8.21094 222.407C8.96094 221.832 9.16294 215.537 8.90594 215.129C8.32493 216.091 8.01894 220.637 6.97494 220.995C7.18894 219.624 7.71094 215.197 7.62494 215.025C7.01394 216.13 6.24394 218.721 5.91694 219.407C5.47894 217.981 7.06294 214.082 6.81694 213.452C6.57494 213.736 4.86194 216.44 4.60194 216.704C4.79494 216.283 6.58294 211.661 6.50194 211.43C5.84194 212.576 5.00794 214.882 3.97494 215.524C3.46494 213.927 6.36594 209.492 6.23294 209.003C5.54194 210.064 4.31694 212.434 3.62294 213.407C3.40494 212.331 4.92494 208.065 5.55894 206.622C5.35894 206.256 3.47994 210.234 2.74094 211.466C2.86594 210.811 2.43994 210.709 2.56394 210.054C3.46494 208.995 5.17594 200.697 5.12794 200.37C4.47994 201.587 2.91994 204.063 2.12194 205.001C0.987939 203.369 2.63294 201.404 2.60894 200.37C1.93194 201.301 5.74994 192.147 5.44694 193.298C4.81994 192.711 2.33294 195.015 2.73494 193.949C3.30494 193.846 8.84194 187.154 6.76394 188.284C4.49794 189.515 4.99494 189.907 3.74294 189.794C0.812937 189.529 9.00694 184.048 9.03094 183.877C8.58893 184.504 4.85194 186.057 4.24594 186.521C4.79894 185.15 9.45694 180.435 10.1639 179.219C10.3699 178.218 6.21994 182.466 6.51294 181.485C6.49594 179.677 13.0239 172.795 13.9409 171.412C13.9469 171.491 10.4149 173.6 10.4149 173.677C11.0619 172.245 16.5879 167.881 17.4659 166.376C18.3439 164.87 12.2849 169.566 13.1849 168.264C12.8589 166.932 17.4659 162.976 21.2429 162.346C22.1979 160.594 15.2849 162.66 16.8569 161.525C16.2789 162.183 24.9619 158.031 24.3909 158.695C26.0999 157.522 19.3839 160.094 19.7309 159.199C20.7869 156.478 27.9439 154.513 28.0629 154.387C29.5899 152.144 23.1829 156.269 24.7969 154.114C24.6669 154.907 31.0239 150.088 30.7069 150.862C30.9089 150.656 25.6509 150.889 27.0339 151.141C27.1569 150.979 32.7209 145.7 34.7349 142.805C31.5879 143.686 28.7199 148.005 31.1879 144.973C31.1249 146.118 40.8189 133.034 40.2259 134.219L34.5879 138.048C34.9599 137.548 42.6529 128.055 42.9949 127.547C40.3509 127.295 41.3859 129.865 39.2449 129.487C39.0949 128.97 45.6989 119.845 45.2619 119.614C40.3539 122.257 40.4199 124.529 41.6379 120.927C42.5579 118.2 48.3669 112.019 45.7649 113.447C41.8639 115.587 42.6469 114.738 42.7979 113.704C42.8599 113.284 43.4759 112.618 43.6799 112.116C43.9519 111.447 44.1739 110.733 44.3729 110.001C44.3889 109.54 44.4139 109.082 44.4179 108.616C44.4209 108.318 44.5129 108.082 44.6499 107.893C44.7189 107.159 44.9439 106.447 45.3319 105.832C45.6099 104.577 45.9099 103.349 46.3269 102.234C46.1729 103.209 45.8649 106.102 45.6939 107.095C46.1199 106.655 47.5439 103.834 47.5619 103.646C47.5769 103.807 49.6269 101.674 50.0329 100.646C50.5119 101.745 49.5989 104.045 49.1939 105.011C49.7369 104.81 51.8949 99.1546 52.6809 99.0576C52.4969 100.373 52.1249 101.5 51.6929 102.567C52.5339 102.134 54.5739 100.106 54.7979 99.5867C54.7929 100.005 54.7359 100.431 54.6599 100.858C54.9359 100.686 56.1279 98.3536 56.5619 97.4686C56.5579 98.2746 56.5259 99.0126 56.4609 99.7307C56.8689 99.4817 59.0099 95.1986 60.2679 93.9386C59.9489 95.2966 59.5859 96.6116 59.2039 97.9066C59.7649 97.4706 61.6709 90.3356 63.6209 89.5266C63.3319 91.1976 62.9609 92.7847 62.5529 94.3347C62.8199 94.1587 63.1049 94.0077 63.4059 93.8837C64.0569 91.7766 64.7439 89.7037 65.5619 87.7617C65.8109 89.5866 65.2479 91.5546 64.6509 93.5466C65.1329 93.4806 66.4319 92.6297 66.6209 92.1737C66.5999 92.6526 68.1069 94.4957 68.2469 94.5347C68.4579 94.0307 68.6769 93.5326 68.9139 93.0556C68.9449 93.6416 71.7089 97.7156 71.7379 97.6436C71.7719 97.7396 72.2739 98.2596 72.4869 98.4126C72.5459 97.4066 72.6099 96.4047 72.9729 95.7027C74.0739 95.3377 74.4889 99.2226 74.8479 99.3046C74.9279 98.6916 75.0559 98.1257 75.2679 97.6447C75.8429 98.0407 77.9989 100.912 78.3879 101.401C78.4659 101.209 78.5369 101.008 78.6209 100.822C78.8969 101.211 79.3389 102.563 79.5459 102.757C79.6749 102.02 79.5759 101.055 80.0319 100.645C80.8269 101.386 81.3799 103.592 81.5589 103.63C81.7449 103.306 81.8499 102.837 81.9739 102.41C82.5909 102.749 82.3349 103.817 82.3439 103.82C83.1739 103.892 82.6919 102.652 83.0329 102.234C83.2459 102.724 83.2539 103.419 83.2289 104.147C83.4459 104.242 83.9609 102.531 84.7969 102.058C85.4409 102.852 85.3349 105.463 85.5539 105.657C85.6509 105.512 85.7469 105.368 85.8559 105.234C85.8669 105.467 86.2709 106.33 86.4739 106.548C86.8009 105.879 87.1699 105.251 87.6209 104.705C87.4839 105.783 87.8519 106.356 87.7979 107.352C88.4219 107.036 88.5119 106.183 88.6799 105.411C88.9789 106.305 89.6879 108.487 89.7389 108.411C89.8819 108.548 89.9059 108.653 89.8849 108.758C90.0239 108.815 90.1609 108.875 90.2949 108.944C90.5079 108.4 90.4349 107.57 90.6209 106.999C91.0999 106.873 90.4949 107.831 90.9739 107.705C90.8639 108.186 90.7359 108.65 90.6189 109.125C90.3659 110.147 90.5949 111.053 90.9599 111.563C91.0609 111.704 92.1429 110.64 92.2379 110.783C92.3899 110.521 92.5429 110.257 92.5619 110C92.6799 110.188 92.5509 110.593 92.3879 111.011C92.5739 111.302 91.7659 113.276 91.9269 113.572C92.0999 113.113 93.2569 110.973 93.4449 110.529C93.8839 111.337 92.4239 117.992 92.6569 119.237C92.7709 119.013 94.9139 116.571 95.0319 116.352C95.6839 116.776 93.0669 122.331 93.1309 123.454C93.3529 122.855 95.5969 120.031 95.9149 119.53C96.6819 119.782 92.7639 128.288 93.0609 127.772C94.1789 128.689 96.0289 121.879 96.7959 121.823C96.6909 123.59 93.6669 132.671 93.7519 133.311C94.0219 132.623 96.4579 129.705 96.6199 129.059C97.0809 129.684 94.2689 136.273 94.3369 136.502C94.9089 134.718 97.6139 130.819 98.5609 129.412C98.1029 131.728 95.0419 138.968 95.1749 139.474C95.7859 137.96 98.4239 134.224 99.0899 132.765C100.209 134.42 97.4129 139.188 96.6269 141.362C96.5529 141.567 95.9849 142.988 96.0799 143.513C96.2259 143.253 97.8769 138.541 98.0309 138.289C97.9129 138.679 96.2839 144.788 96.3379 145.184C96.6719 144.406 99.0599 141.433 99.4429 140.705C99.3969 142.054 96.7679 148.513 96.8289 148.807C97.2039 148.026 99.6369 145.055 100.149 144.411C99.8359 145.541 97.2319 150.582 97.3079 150.918C97.7879 149.699 100.308 146.27 100.854 145.117C101.177 146.76 97.8279 153.502 97.9229 154.11C98.6669 152.179 101.424 148.01 102.089 145.999C102.908 146.35 102.423 147.614 102.265 148.117C101.759 149.73 98.7379 152.692 98.5709 154.472C98.5729 154.488 98.5749 154.503 98.5779 154.519C99.5919 153.079 101.698 150.004 102.619 148.47C103.021 148.714 102.685 149.699 102.795 150.235C101.936 151.856 98.8129 157.35 98.8299 157.483C99.2609 156.57 101.282 154.531 101.736 153.764C101.593 154.808 99.1679 160.336 99.2859 161.409C99.9019 160.292 102.086 158.03 102.619 156.942C102.908 157.709 100.738 159.748 100.413 160.552C100.123 161.269 99.5159 163.554 99.5579 163.965C99.9489 163.105 101.958 161.156 102.442 160.47C102.258 161.6 99.8529 166.857 99.9399 167.741C100.569 166.432 102.835 164.035 103.678 162.941C103.216 164.697 100.525 173.665 100.75 175.818C101.268 174.917 103.401 172.907 104.031 172.118C103.663 173.685 101.318 180.945 101.475 182.472C101.955 181.732 104.033 179.868 104.56 179.177C104.239 180.312 101.687 184.692 101.732 185.249C102.437 183.955 104.771 181.565 105.618 180.412C106.314 181.891 104.904 183.367 104.206 184.471C103.954 184.871 101.91 188.094 101.932 188.723C102.764 187.487 105.177 185.119 105.972 183.941C106.287 184.97 105.571 186.158 104.737 186.588C104.367 187.432 101.959 191.075 101.949 191.525Z" fill="#604C3F"/>
<path fill-rule="evenodd" clip-rule="evenodd" d="M78.7939 18.0635C78.8439 19.5855 78.3569 22.0955 76.8529 22.6515C76.7379 24.3015 76.2009 25.5285 75.7939 26.8875C75.9629 27.5265 75.0319 27.0665 74.9119 27.4165C73.6679 32.2315 72.8659 37.4885 71.5589 42.2395C71.5029 43.1005 71.2809 42.0685 71.3829 41.7095C72.2769 35.8165 73.8029 30.0315 75.4419 24.4155C76.3679 23.6355 76.3939 21.9565 77.0299 20.8865C77.7259 21.0685 76.9219 21.8215 77.0299 22.4755C77.9309 21.3165 78.0249 19.3525 78.7939 18.0635Z" fill="#604C3F"/>
</svg>
