<svg width="62" height="69" viewBox="0 0 62 69" fill="none" xmlns="http://www.w3.org/2000/svg">
<path fill-rule="evenodd" clip-rule="evenodd" d="M61.644 44.5543C61.523 42.0253 61.1739 39.3803 59.8969 37.2883C59.0479 35.0713 57.285 31.7602 54.471 29.2872C53.331 28.2872 51.522 27.2823 49.964 26.2523C49.077 25.6673 48.218 24.7702 47.296 24.4122C47.04 24.3132 45.066 23.4302 44.262 23.1262C43.397 22.7982 42.4649 22.5672 41.5949 22.1132C40.6349 21.6142 37.71 20.3093 36.905 20.7363C36.025 20.2653 35.448 19.4933 34.606 18.9873C33.794 17.5663 32.676 16.5222 32.307 14.7562C31.443 10.6352 32.307 6.29424 32.859 2.43324C32.126 -0.698759 26.815 0.374238 24.765 1.60524C24.363 2.48224 24.706 3.30625 24.765 4.18025C24.873 5.78425 24.386 7.89628 24.398 9.60628C24.4 10.1433 24.584 10.5203 24.49 10.9863C24.357 11.6413 23.962 12.2733 23.847 12.9183C23.57 14.4623 23.324 15.9522 22.835 17.4232C22.019 18.3152 21.616 19.5172 20.81 20.4592C19.708 21.7512 17.5139 22.7252 15.8449 23.6782C14.1799 24.6292 12.52 25.9812 11.154 27.1732C10.573 27.6802 9.82797 28.0482 9.31497 28.6442C8.50497 29.5832 5.10499 33.6623 4.80899 33.7943C2.42999 38.2003 -0.195045 44.5462 0.945955 50.6232C1.84496 55.4122 3.97295 59.5802 7.93595 61.4772C8.08795 61.1872 7.59297 61.1003 7.84397 61.0173C8.11297 61.1763 8.23795 61.4793 8.30295 61.8433C10.063 62.6733 12.055 64.1842 14.19 64.6962C14.876 64.8592 15.7609 65.0812 16.4879 65.0632C17.3589 65.0422 18.198 64.2973 18.696 65.1563C18.575 65.8623 17.642 65.7582 17.593 66.5352C18.323 66.9062 18.943 65.9643 19.523 65.6163C19.792 65.8383 20.3109 65.8083 20.5349 66.0753C20.2889 66.9013 19.263 66.9493 18.88 67.6383C20.05 68.2183 20.6089 66.6963 21.5479 66.4423C21.7239 66.7273 22.395 66.5153 22.651 66.7183C22.279 67.3573 21.2949 67.3853 21.0869 68.1903C22.5819 68.5513 23.2199 66.1403 25.1339 66.9033C24.9709 67.5373 23.909 67.2713 23.663 67.8223C24.823 68.9903 25.801 66.2302 27.341 67.1782C27.11 67.7732 26.4809 67.9733 26.2379 68.5573C27.5679 68.8903 27.732 66.8142 29.09 67.1782C28.937 67.7202 28.144 67.8323 28.445 68.5573C29.635 68.8473 29.5349 66.6763 30.8369 67.0863C30.8859 67.7293 29.8069 68.4662 30.5609 68.9252C31.4649 68.4762 31.191 66.3723 32.584 66.7183C32.599 67.3523 31.867 68.5313 32.86 68.5573C33.162 67.9403 33.038 66.8972 33.411 66.3502C33.417 66.7272 33.517 66.8103 33.872 66.9943C34.212 67.3583 34.304 67.9713 34.791 68.1893C34.805 68.0193 35.104 68.1323 35.158 68.0053C35.563 67.5553 34.658 67.2533 34.974 66.9013C35.801 67.0863 36.584 67.3132 37.55 67.3602C37.875 67.3192 37.9749 67.0492 38.2849 66.9932C42.8969 66.6702 46.314 64.5212 48.585 61.5662C48.961 61.6042 53.922 58.0432 54.102 57.9802C57.456 55.7292 59.534 52.9462 61 48.5062C61.441 47.1752 61.714 46.0163 61.644 44.5543Z" fill="#FFF0E0"/>
<path fill-rule="evenodd" clip-rule="evenodd" d="M30.009 4.82422C30.228 5.44422 29.754 6.16323 29.734 6.84723C29.49 6.20523 29.898 5.42122 30.009 4.82422Z" fill="#604C3F"/>
<path fill-rule="evenodd" clip-rule="evenodd" d="M29.456 8.59473C29.489 10.6877 29.783 13.6437 30.744 15.7687C31.363 17.1397 32.191 18.7848 33.226 20.0908C33.494 20.4268 33.96 20.5657 34.054 21.0107C30.851 18.8627 29.672 14.3618 29.088 9.88275C29.378 9.62075 29.519 9.20973 29.456 8.59473Z" fill="#604C3F"/>
<path fill-rule="evenodd" clip-rule="evenodd" d="M29.549 21.2861C30.337 22.1871 29.838 24.0401 30.744 25.1481C29.694 25.1571 30.17 23.6371 29.733 23.0341C29.37 22.9771 29.624 23.5391 29.548 23.7691C29.227 23.1211 29.376 22.1181 29.549 21.2861Z" fill="#604C3F"/>
<path fill-rule="evenodd" clip-rule="evenodd" d="M42.148 24.0451C41.736 24.0581 41.687 23.7091 41.319 23.6781C41.425 23.3581 42.1 23.7311 42.148 24.0451Z" fill="#604C3F"/>
<path fill-rule="evenodd" clip-rule="evenodd" d="M38.102 24.5049C38.459 24.7289 38.831 24.9409 39.021 25.3329C38.586 25.1869 38.235 24.9519 38.102 24.5049Z" fill="#604C3F"/>
<path fill-rule="evenodd" clip-rule="evenodd" d="M29.733 24.6904C29.937 24.8534 30.057 25.1004 30.1 25.4254C29.801 25.3574 29.824 24.9664 29.733 24.6904Z" fill="#604C3F"/>
<path fill-rule="evenodd" clip-rule="evenodd" d="M42.332 24.7816C42.518 24.5126 42.813 24.9057 42.975 24.9657C42.784 25.2407 42.602 24.7346 42.332 24.7816Z" fill="#604C3F"/>
<path fill-rule="evenodd" clip-rule="evenodd" d="M17.594 24.873C17.705 25.082 17.168 25.428 16.949 25.608C17.019 25.219 17.378 25.118 17.594 24.873Z" fill="#604C3F"/>
<path fill-rule="evenodd" clip-rule="evenodd" d="M30.468 25.517C29.848 26.053 30.739 27.1989 30.744 27.9999C30.279 27.4519 30.1449 26.5759 30.0089 25.6999C29.9889 25.4279 30.336 25.377 30.468 25.517Z" fill="#604C3F"/>
<path fill-rule="evenodd" clip-rule="evenodd" d="M46.01 26.068C46.299 26.024 46.253 26.315 46.47 26.344C46.389 26.537 45.955 26.315 46.01 26.068Z" fill="#604C3F"/>
<path fill-rule="evenodd" clip-rule="evenodd" d="M23.847 26.252C24.184 26.587 23.758 27.594 23.663 28.093C23.46 27.582 23.81 26.831 23.847 26.252Z" fill="#604C3F"/>
<path fill-rule="evenodd" clip-rule="evenodd" d="M46.563 26.5292C46.727 26.3722 47.186 26.6972 47.206 26.9892C46.91 26.9162 46.804 26.6542 46.563 26.5292Z" fill="#604C3F"/>
<path fill-rule="evenodd" clip-rule="evenodd" d="M49.965 27.8164C50.151 27.9684 50.392 28.0624 50.425 28.3674C50.115 28.3394 50.058 28.0604 49.965 27.8164Z" fill="#604C3F"/>
<path fill-rule="evenodd" clip-rule="evenodd" d="M26.329 28.0928C26.564 28.3778 26.51 28.9547 26.514 29.4717C26.279 29.1847 26.333 28.6078 26.329 28.0928Z" fill="#604C3F"/>
<path fill-rule="evenodd" clip-rule="evenodd" d="M51.344 28.5518C52.157 29.0878 52.376 30.2177 53.459 30.4827C53.546 31.3167 54.279 31.5037 54.563 32.1387C54.28 32.2067 54.386 31.8858 54.102 31.9548C54.442 32.4138 54.786 32.8667 54.838 33.6097C54.021 32.0347 53.029 30.1457 51.526 29.5627C51.437 29.1937 50.986 29.1838 50.975 28.7358C51.202 28.9078 51.452 29.0557 51.618 29.2867C51.868 29.0627 51.308 28.8708 51.344 28.5518Z" fill="#604C3F"/>
<path fill-rule="evenodd" clip-rule="evenodd" d="M12.167 28.9209C12.555 28.9319 12.122 29.4889 11.892 29.4719C11.841 29.1459 12.216 29.2449 12.167 28.9209Z" fill="#604C3F"/>
<path fill-rule="evenodd" clip-rule="evenodd" d="M15.018 29.1045C15.19 29.3425 14.907 29.9085 14.466 29.8395C14.642 29.5875 14.842 29.3565 15.018 29.1045Z" fill="#604C3F"/>
<path fill-rule="evenodd" clip-rule="evenodd" d="M52.724 31.4941C52.991 31.5361 52.942 31.8921 53.183 31.9551C52.995 32.1961 52.735 31.7341 52.724 31.4941Z" fill="#604C3F"/>
<path fill-rule="evenodd" clip-rule="evenodd" d="M8.672 33.5195C8.03 34.6245 7.26499 35.6065 6.64899 36.7375C6.90799 35.6165 7.762 34.2955 8.672 33.5195Z" fill="#604C3F"/>
<path fill-rule="evenodd" clip-rule="evenodd" d="M56.035 36.0928C56.248 36.1858 56.332 36.4088 56.311 36.7358C56.073 36.6658 55.991 36.4428 56.035 36.0928Z" fill="#604C3F"/>
<path fill-rule="evenodd" clip-rule="evenodd" d="M58.609 37.3809C59.115 37.8559 59.252 38.7009 59.252 39.6799C58.995 38.9579 58.943 38.0279 58.609 37.3809Z" fill="#604C3F"/>
<path fill-rule="evenodd" clip-rule="evenodd" d="M57.967 37.9336C58.102 37.9806 58.199 38.0706 58.334 38.1166C57.987 38.5786 58.678 38.6556 58.518 39.2216C58.02 39.1046 58.14 38.3726 57.967 37.9336Z" fill="#604C3F"/>
<path fill-rule="evenodd" clip-rule="evenodd" d="M17.501 38.9437C17.664 38.6977 17.567 39.4828 17.594 39.6788C17.43 39.9248 17.525 39.1417 17.501 38.9437Z" fill="#604C3F"/>
<path fill-rule="evenodd" clip-rule="evenodd" d="M58.426 39.5869C58.745 39.6539 58.684 40.1029 58.61 40.3229C58.324 40.3029 58.454 39.8659 58.426 39.5869Z" fill="#604C3F"/>
<path fill-rule="evenodd" clip-rule="evenodd" d="M17.501 40.0479C17.818 40.5929 17.634 41.8529 17.686 42.8979C17.494 42.2709 17.524 41.0939 17.501 40.0479Z" fill="#604C3F"/>
<path fill-rule="evenodd" clip-rule="evenodd" d="M49.689 42.8984C50.447 44.8374 51.105 46.8774 51.711 48.9684C51.167 48.5544 51.262 47.8024 51.068 47.2214C50.608 45.8374 49.94 44.4294 49.689 42.8984Z" fill="#604C3F"/>
<path fill-rule="evenodd" clip-rule="evenodd" d="M17.594 42.9912C17.942 43.2602 17.802 44.4152 17.686 43.6342C17.65 43.4102 17.557 43.4102 17.594 42.9912Z" fill="#604C3F"/>
<path fill-rule="evenodd" clip-rule="evenodd" d="M39.573 46.8545C39.895 47.1735 40.034 47.6785 40.216 48.1415C39.828 47.8855 39.699 47.3705 39.573 46.8545Z" fill="#604C3F"/>
<path fill-rule="evenodd" clip-rule="evenodd" d="M57.69 47.4981C58.037 47.4671 57.711 48.1321 57.69 48.3251C57.426 48.1441 57.723 47.7501 57.69 47.4981Z" fill="#604C3F"/>
<path fill-rule="evenodd" clip-rule="evenodd" d="M57.506 48.416C57.586 48.806 57.378 49.696 57.046 49.979C57.026 49.286 57.441 49.025 57.506 48.416Z" fill="#604C3F"/>
<path fill-rule="evenodd" clip-rule="evenodd" d="M13.822 48.6924C14.007 48.8834 13.918 49.5814 13.637 49.6114C13.657 49.2634 13.72 48.9584 13.822 48.6924Z" fill="#604C3F"/>
<path fill-rule="evenodd" clip-rule="evenodd" d="M58.058 48.7852C58.536 48.8682 57.945 49.2152 58.058 49.5192C57.786 49.3602 58.11 49.0302 58.058 48.7852Z" fill="#604C3F"/>
<path fill-rule="evenodd" clip-rule="evenodd" d="M18.236 48.876C18.628 50.018 18.685 51.492 18.88 52.831C18.45 51.727 18.424 50.222 18.236 48.876Z" fill="#604C3F"/>
<path fill-rule="evenodd" clip-rule="evenodd" d="M42.608 49.7959C42.984 50.1019 42.897 50.9619 42.608 51.2679C42.412 50.7079 42.859 50.3889 42.608 49.7959Z" fill="#604C3F"/>
<path fill-rule="evenodd" clip-rule="evenodd" d="M16.488 49.9796C16.778 49.8176 16.697 50.8106 16.764 51.1756C16.485 50.9656 16.699 50.2616 16.488 49.9796Z" fill="#604C3F"/>
<path fill-rule="evenodd" clip-rule="evenodd" d="M17.776 50.623C17.959 50.332 18.133 50.81 18.052 51.083C17.764 51.128 17.983 50.662 17.776 50.623Z" fill="#604C3F"/>
<path fill-rule="evenodd" clip-rule="evenodd" d="M55.574 51.083C55.652 51.067 55.661 51.12 55.666 51.176C55.685 51.28 55.759 51.227 55.759 51.176C56.008 51.402 55.658 51.8069 55.666 52.0949C55.13 52.0209 56.071 51.383 55.391 51.452C55.438 51.315 55.527 51.22 55.574 51.083Z" fill="#604C3F"/>
<path fill-rule="evenodd" clip-rule="evenodd" d="M16.673 51.36C17.017 51.323 16.712 51.933 16.949 52.003C16.678 52.327 16.804 51.479 16.673 51.36Z" fill="#604C3F"/>
<path fill-rule="evenodd" clip-rule="evenodd" d="M8.672 51.8193C8.861 52.2123 8.95402 52.7024 8.94702 53.2914C8.73102 52.9254 8.735 52.3393 8.672 51.8193Z" fill="#604C3F"/>
<path fill-rule="evenodd" clip-rule="evenodd" d="M55.115 52.2793C55.344 52.4273 54.951 52.7213 54.931 52.9243C54.717 52.7923 55.037 52.4253 55.115 52.2793Z" fill="#604C3F"/>
<path fill-rule="evenodd" clip-rule="evenodd" d="M55.299 52.3711C55.391 52.3711 55.483 52.3711 55.574 52.3711C55.431 52.7481 55.264 53.1021 55.115 53.4751C54.828 53.1221 55.372 52.8161 55.299 52.3711Z" fill="#604C3F"/>
<path fill-rule="evenodd" clip-rule="evenodd" d="M11.892 54.0264C12.155 54.0394 12.059 54.4104 12.076 54.6694C11.888 54.5824 11.876 54.3174 11.892 54.0264Z" fill="#604C3F"/>
<path fill-rule="evenodd" clip-rule="evenodd" d="M17.409 54.9453C17.727 55.1183 17.671 55.6653 17.776 56.0493C17.518 55.8183 17.574 55.2713 17.409 54.9453Z" fill="#604C3F"/>
<path fill-rule="evenodd" clip-rule="evenodd" d="M43.712 55.7734C43.83 56.1704 43.331 56.7404 43.251 57.2454C43.035 56.7504 43.611 56.2594 43.712 55.7734Z" fill="#604C3F"/>
<path fill-rule="evenodd" clip-rule="evenodd" d="M32.676 55.8667C33.025 55.7927 32.792 56.3016 32.86 56.5096C32.672 56.4226 32.66 56.1567 32.676 55.8667Z" fill="#604C3F"/>
<path fill-rule="evenodd" clip-rule="evenodd" d="M29.272 57.6132C29.121 57.5442 29.121 56.8552 29.272 56.7852C29.193 57.1522 29.41 57.4652 29.272 57.6132Z" fill="#604C3F"/>
<path fill-rule="evenodd" clip-rule="evenodd" d="M30.468 56.877C30.781 58.44 30.522 60.461 30.653 62.395C30.152 60.839 30.509 58.938 30.468 56.877Z" fill="#604C3F"/>
<path fill-rule="evenodd" clip-rule="evenodd" d="M34.422 56.9697C34.724 57.1557 34.489 57.8858 34.239 58.0728C34.261 57.6658 34.427 57.4027 34.422 56.9697Z" fill="#604C3F"/>
<path fill-rule="evenodd" clip-rule="evenodd" d="M32.768 57.0625C32.857 57.0645 32.839 57.1745 32.86 57.2465C32.847 58.3125 32.49 58.2125 32.768 57.0625Z" fill="#604C3F"/>
<path fill-rule="evenodd" clip-rule="evenodd" d="M29.272 57.7051C29.767 59.5121 29.928 61.599 30.192 63.407C29.529 62.646 29.76 61.4111 29.641 60.3721C29.534 59.4691 29.275 58.6191 29.272 57.7051Z" fill="#604C3F"/>
<path fill-rule="evenodd" clip-rule="evenodd" d="M32.583 58.625C32.758 59.047 32.63 59.956 32.215 60.096C32.357 59.626 32.553 59.207 32.583 58.625Z" fill="#604C3F"/>
<path fill-rule="evenodd" clip-rule="evenodd" d="M47.941 60.0049C48.124 60.1629 47.808 60.6019 47.573 60.6479C47.591 60.3279 47.899 60.2999 47.941 60.0049Z" fill="#604C3F"/>
<path fill-rule="evenodd" clip-rule="evenodd" d="M34.514 60.4639C34.659 61.1669 33.881 62.5229 33.227 63.0389C33.393 62.2849 34.328 61.5049 34.514 60.4639Z" fill="#604C3F"/>
<path fill-rule="evenodd" clip-rule="evenodd" d="M34.974 66.9022C34.658 67.2542 35.563 67.5552 35.158 68.0062C35.103 68.1332 34.804 68.0202 34.791 68.1902C34.304 67.9712 34.212 67.3592 33.872 66.9952C33.518 66.8112 33.417 66.7282 33.411 66.3512C33.038 66.8982 33.162 67.9412 32.86 68.5582C31.867 68.5332 32.598 67.3532 32.584 66.7192C31.19 66.3732 31.4649 68.4772 30.5609 68.9262C29.8069 68.4672 30.8859 67.7302 30.8369 67.0872C29.5349 66.6772 29.636 68.8482 28.445 68.5582C28.143 67.8332 28.936 67.7212 29.09 67.1792C27.733 66.8152 27.5689 68.8912 26.2379 68.5582C26.4809 67.9742 27.11 67.7742 27.341 67.1792C25.801 66.2312 24.823 68.9912 23.663 67.8232C23.909 67.2722 24.9709 67.5382 25.1339 66.9042C23.2199 66.1412 22.5819 68.5522 21.0869 68.1912C21.2949 67.3862 22.278 67.3582 22.651 66.7192C22.395 66.5162 21.7239 66.7282 21.5479 66.4432C20.6089 66.6972 20.05 68.2192 18.88 67.6392C19.263 66.9492 20.2889 66.9022 20.5349 66.0762C20.3109 65.8092 19.792 65.8392 19.523 65.6172C18.943 65.9652 18.324 66.9072 17.593 66.5362C17.642 65.7592 18.574 65.8632 18.696 65.1572C18.198 64.2992 17.3589 65.0442 16.4879 65.0642C15.7609 65.0822 14.876 64.8602 14.19 64.6972C12.055 64.1852 10.063 62.6752 8.30295 61.8442C8.23795 61.4802 8.11297 61.1772 7.84397 61.0182C7.59297 61.1012 8.08795 61.1882 7.93595 61.4782C3.97295 59.5812 1.84496 55.4132 0.945955 50.6242C-0.195045 44.5472 2.42999 38.2012 4.80899 33.7952C5.10499 33.6622 8.50397 29.5842 9.31497 28.6452C9.82797 28.0492 10.573 27.6812 11.154 27.1742C12.52 25.9822 14.1799 24.6302 15.8449 23.6792C17.5139 22.7262 19.708 21.7522 20.81 20.4602C21.616 19.5182 22.019 18.3162 22.835 17.4242C23.323 15.9532 23.569 14.4632 23.847 12.9192C23.962 12.2742 24.358 11.6432 24.49 10.9872C24.584 10.5212 24.4 10.1442 24.398 9.60719C24.386 7.89719 24.874 5.78623 24.765 4.18123C24.706 3.30723 24.363 2.48321 24.765 1.60621C26.815 0.375215 32.125 -0.697782 32.859 2.43422C32.307 6.29522 31.443 10.6362 32.307 14.7572C32.676 16.5232 33.794 17.5672 34.606 18.9882C35.448 19.4942 36.025 20.2662 36.905 20.7372C37.711 20.3102 40.6349 21.6152 41.5949 22.1142C42.4649 22.5682 43.397 22.7992 44.262 23.1272C45.066 23.4312 47.04 24.3152 47.296 24.4132C48.218 24.7712 49.077 25.6682 49.964 26.2532C51.522 27.2832 53.331 28.2882 54.471 29.2882C57.284 31.7612 59.0479 35.0722 59.8969 37.2892C61.1739 39.3812 61.523 42.0252 61.644 44.5552C61.713 46.0172 61.441 47.1762 61 48.5092C59.534 52.9492 57.456 55.7322 54.102 57.9832C53.921 58.0462 48.96 61.6072 48.585 61.5692C46.314 64.5242 42.8969 66.6732 38.2849 66.9962C37.9739 67.0532 37.875 67.3222 37.55 67.3632C36.584 67.3152 35.801 67.0872 34.974 66.9022ZM29.917 1.2372C29.832 1.7042 29.808 1.90918 30.101 2.15718C30.442 2.19218 30.341 1.78418 30.744 1.88118C30.903 1.93718 30.736 2.31718 30.9279 2.34218C31.01 2.11618 31.442 2.24218 31.388 1.88118C31.151 1.36018 30.497 1.1602 29.917 1.2372ZM25.409 2.34218C25.459 4.14118 28.51 4.0592 29.456 3.1692C28.667 3.3172 27.627 3.54122 26.789 3.35322C26.646 3.00622 26.496 2.6652 26.421 2.2502C26.397 1.9032 27.132 1.70219 26.697 1.51619C26.287 1.81019 25.636 1.86118 25.409 2.34218ZM26.973 2.70918C28.065 2.96818 29.161 2.7442 29.917 2.0652C28.871 1.3842 27.3 1.62018 26.973 2.70918ZM27.709 8.77919C27.078 8.78019 27.72 9.69119 27.434 9.88319C27.156 8.42719 27.377 6.15917 27.801 4.82417C27.526 4.73117 27.397 4.49321 27.157 4.36421C26.301 4.67721 26.617 5.44422 26.697 6.11122C26.792 6.90822 26.502 7.63722 26.421 8.50422C26.286 9.96222 26.49 11.4932 26.329 12.9182C26.41 13.1442 26.736 13.1232 26.697 13.4702C26.187 16.6192 25.583 19.9442 25.502 23.3102C25.764 23.5382 26.3669 23.4252 26.5139 23.7702C26.5579 21.9662 27.142 19.8232 27.066 17.8832C27.016 16.6672 26.313 15.2132 27.25 14.3892C28.245 15.8672 27.951 18.5482 28.722 19.8162C29.64 20.2112 29.318 18.5742 30.469 18.8952C28.699 16.1882 28.019 12.8102 27.709 8.77919ZM28.4439 12.0892C28.5289 13.2192 29.1459 14.0852 28.9959 14.9412C29.3609 15.4962 29.6219 16.1552 29.7329 16.9642C30.0509 17.0732 30.121 17.4352 30.192 17.7912C30.3 17.8362 30.401 17.8902 30.467 17.9762C31.251 19.6682 32.855 21.0652 33.226 22.7582C32.166 21.8562 31.6629 20.3982 30.6519 19.4482C31.1399 20.9822 31.578 22.5682 32.583 23.5872C33.432 23.6392 33.805 23.2142 34.331 22.9432C34.969 23.4102 35.859 23.1702 36.17 22.5762C36.111 22.2042 35.776 22.1122 35.803 21.6562C36.184 21.6292 36.14 22.3552 36.538 22.0242C35.381 20.4772 33.794 19.4902 32.676 17.8842C29.963 13.9972 31.33 7.9082 31.756 2.9872C30.966 3.4542 31.328 5.07419 30.744 5.74519C31.176 6.85519 30.264 7.81719 30.192 8.96419C30.094 10.5452 30.9 12.1592 30.835 13.4722C29.606 10.4822 29.984 6.47622 31.019 3.44722C30.258 3.57522 29.893 4.10022 29.18 4.27522C28.792 6.08822 29.078 7.9382 29.088 9.5182C28.654 8.0922 28.7979 5.9422 28.7199 4.6432C28.0019 4.7312 27.893 5.91121 27.8 6.66621C27.722 7.30721 27.753 7.95722 27.8 8.41322C27.798 8.56522 27.545 8.46418 27.525 8.59718C28.715 9.16418 27.5009 11.2242 28.4439 12.0892ZM25.778 4.18123C25.247 5.05523 25.7869 7.4462 25.2249 8.3202C25.4639 9.3822 25.4299 10.8892 25.2249 11.9062C25.3569 12.1432 25.44 12.4262 25.778 12.4582C26.001 11.5572 25.814 10.2512 26.145 9.24019C25.795 7.90219 26.539 5.18423 26.145 4.18123C26.023 4.18123 25.899 4.18123 25.778 4.18123ZM24.9489 15.0322C25.1079 14.5952 25.3999 13.5032 24.9489 13.2852C24.8759 13.5992 24.7139 14.6342 24.9489 15.0322ZM27.341 16.5972C27.577 16.4422 27.485 15.4612 27.157 15.3092C27.248 15.6352 26.843 16.4662 27.341 16.5972ZM23.847 18.8952C24.71 18.4692 24.791 16.9872 25.042 16.2282C24.357 16.8302 24.223 17.9842 23.847 18.8952ZM13.362 26.8962C13.422 27.8232 12.376 26.7322 12.994 27.5392C12.434 28.3592 11.616 28.9202 10.972 29.6542C10.711 29.7302 10.733 29.5242 10.511 29.5622C10.868 30.4342 9.41497 30.8582 8.94797 31.2162C9.95497 30.0782 10.925 28.9012 11.984 27.8152C10.327 29.0722 8.98998 30.6462 7.66098 32.2292C8.03598 32.2352 8.10595 31.9372 8.48795 31.9542C8.45895 32.4772 8.12799 32.9742 8.30399 33.4262C7.58799 34.0572 7.15296 34.6642 6.64896 35.6322C6.15196 36.5862 5.56495 37.8532 5.17795 38.7602C4.77995 39.6902 4.33597 40.8252 4.53397 41.7022C4.33897 41.9082 4.17297 42.6262 4.34897 42.8972C4.56497 42.5002 4.57799 41.9002 4.99399 41.7022C4.65599 42.5282 4.45099 43.4882 4.16599 44.3682C4.04199 43.7882 4.61499 43.3392 4.16599 42.9902C3.96399 43.3392 4.03096 43.9582 3.89096 44.3682C4.40596 44.6182 4.02094 45.1522 3.98294 45.6562C3.87194 47.1272 4.16396 49.0852 4.16696 50.3462C3.97096 49.8482 4.113 48.8002 3.616 48.8742C3.89 46.4422 3.65994 44.1042 3.98294 42.0692C2.31094 45.9532 2.74099 52.4932 5.45499 55.1282C5.34599 54.4692 4.77897 53.7822 4.99497 53.1062C5.63997 54.9292 5.77896 56.9122 7.38596 57.6122C7.40696 56.9702 6.75599 56.1512 7.11099 55.7722C7.44499 57.5572 8.15396 58.5662 9.31796 59.4522C9.78796 59.8072 10.364 60.2902 10.882 60.2782C10.722 59.8272 10.1789 59.7552 10.2379 59.0842C10.0639 59.0622 10.0349 59.1862 9.87094 59.1762C6.95294 56.6302 6.21395 50.9202 6.74295 46.0262C7.10795 46.5732 6.85099 47.2762 7.11099 47.9562C6.81199 48.7352 6.84699 50.3362 7.11099 51.2672C7.59699 52.9832 8.59498 54.8122 9.22598 56.2322C9.41098 56.6462 9.41994 57.1522 9.87094 57.3372C9.45494 56.1932 8.966 54.4432 9.043 53.3822C9.625 55.2962 9.47095 57.5262 11.157 58.6242C11.05 58.7302 10.832 58.7282 10.606 58.7162C11.271 59.7072 12.301 60.3312 12.997 61.2912C12.476 60.2312 12.435 59.2302 11.618 58.4402C11.877 58.4242 11.832 58.7152 12.078 58.7152C11.985 58.0412 11.552 57.7082 11.342 57.1522C11.306 56.9322 11.76 57.2032 11.618 56.8762C11.536 56.4042 10.993 55.9112 11.25 55.4052C11.782 57.4172 12.5459 59.1982 14.0089 60.2782C13.3479 58.8852 12.635 57.0532 12.354 55.5882C13.008 56.4672 13.048 57.9592 13.917 58.6232C13.892 58.0652 13.705 57.6702 13.549 57.2432C13.987 55.9492 12.647 53.6132 12.997 52.0932C13.164 52.2332 12.98 52.7252 13.365 52.6452C13.346 52.0572 13.204 51.4162 13.365 50.7132C13.301 51.0552 13.522 51.1092 13.458 51.4502C14.053 51.0032 13.915 49.8232 14.193 49.0582C14.686 49.0312 14.5039 48.3282 14.8369 48.1382C14.0879 50.0762 13.855 52.6602 14.929 54.5762C14.772 54.5922 14.5669 54.0542 14.5609 54.4842C15.0009 57.4792 16.3669 60.0352 18.3319 61.1982C18.1319 60.6672 17.782 60.1432 17.965 59.7272C17.79 59.7062 17.761 59.8292 17.598 59.8192C16.785 58.1452 15.5769 56.3812 15.0219 54.7592C16.2059 56.6122 17.066 58.7842 18.701 60.1862C18.293 59.3062 17.526 58.2942 17.321 57.5182C17.777 58.1362 18.038 58.9492 18.609 59.4512C18.371 58.4312 17.886 57.1712 17.874 56.2302C18.826 58.9262 19.358 62.0432 21.736 63.3122C21.475 62.2812 20.178 61.5012 19.713 60.3702C20.939 61.3212 21.386 63.0502 23.024 63.5892C22.849 63.0892 22.311 62.9522 22.287 62.3012C20.534 60.0582 18.315 57.0112 18.516 53.6572C18.932 57.1752 20.83 59.6512 22.563 62.1182C23.099 63.1452 23.935 63.8742 25.138 64.2342C25.071 64.4842 25.321 64.4172 25.322 64.6012C25.961 64.5692 26.509 64.9342 26.977 64.7852C26.893 64.2732 26.424 64.5862 26.15 64.5102C24.188 63.9692 22.997 62.2142 22.471 60.1882C21.041 58.1232 19.195 55.9842 18.977 53.0152C19.55 55.5372 20.645 57.5382 22.103 59.1762C22.638 60.6642 23.812 61.5122 24.954 62.3952C23.999 62.7262 23.864 61.4722 23.116 61.2912C23.713 63.4152 25.967 64.2382 28.174 64.2342C27.176 63.1462 25.279 62.4682 24.954 61.0152C25.64 61.6482 26.003 62.6032 27.07 62.8542C26.778 61.5772 25.812 61.0732 25.783 59.8202C25.626 59.7022 25.422 59.6302 25.414 59.3602C24.596 57.2692 23.5569 54.5692 24.3109 51.7262C24.1759 56.4022 25.851 59.9962 27.989 62.8542C27.621 61.6192 27.084 60.3872 26.977 59.3602C27.818 60.9392 28.02 63.1622 29.46 64.1422C29.989 64.0272 30.364 63.7582 30.932 63.6822C31.426 62.5502 31.797 61.2982 32.312 60.1872C32.356 61.1512 31.583 61.7872 31.76 62.5792C31.781 62.4782 31.9099 62.3572 31.9439 62.4862C31.7209 62.6962 31.319 63.2072 31.485 63.4982C31.868 62.9462 32.516 63.0762 32.588 62.1182C32.715 62.1162 32.79 62.1622 32.864 62.2102C32.872 62.0512 32.8429 61.9252 32.7719 61.8422C33.4099 62.0372 33.679 60.6172 34.151 60.6482C33.322 61.6892 32.616 62.8542 31.76 63.8672C31.342 63.7872 31.187 63.9692 31.115 64.2352C31.788 64.5172 32.146 63.7482 32.68 63.5902C32.675 63.7082 32.5619 63.7182 32.5869 63.8662C36.0899 62.1032 37.042 57.6002 36.542 53.3822C36.447 52.5892 35.906 51.9372 35.99 51.1752C36.964 52.6672 36.786 54.9672 37.002 57.3372C36.875 57.3402 36.8 57.2922 36.727 57.2442C36.964 57.6182 36.939 58.0842 36.635 58.3482C37.164 58.7172 36.947 57.7262 37.278 57.9802C37.299 58.9712 36.298 59.8542 36.635 60.5542C37.107 59.9532 37.648 58.9332 38.106 58.6232C37.451 59.8692 36.6599 60.9772 36.0819 62.3012C36.5849 62.0952 36.649 62.0162 37.278 61.9342C37.192 61.4492 37.482 61.3402 37.646 61.1072C37.691 61.4032 37.216 61.6502 37.461 61.8412C38.027 61.4582 38.189 60.6682 38.748 60.2782C37.984 61.9662 36.308 63.2342 35.346 64.4172C36.722 63.6752 38.032 62.4952 38.84 61.2912C39.755 59.9292 40.16 57.7282 40.956 56.5082C40.823 54.9492 40.982 52.0122 40.404 50.7142C40.602 50.7922 40.717 50.9532 41.047 50.8992C40.948 50.4142 40.495 49.7982 40.679 49.3352C41.031 49.7662 41.041 50.6572 41.322 50.8992C41.47 49.9762 40.566 48.8402 40.679 47.9562C41.036 48.7662 41.306 50.1492 41.783 50.5312C41.739 49.9402 41.572 49.2032 41.691 48.6002C42.085 49.9422 41.923 51.4402 41.783 52.9232C42.145 53.0692 41.815 52.5252 42.06 52.5542C42.324 54.3542 41.574 55.8472 41.323 57.4292C42.087 56.9662 42.114 55.7672 42.244 54.6692C42.969 54.4142 42.664 53.1272 43.163 52.6462C43.069 54.3112 42.017 55.7502 42.336 57.2452C42.807 56.2742 43.124 55.1522 43.623 54.2112C43.175 56.0622 42.1 57.7772 41.783 59.4532C42.16 59.1852 42.165 58.5472 42.612 58.3492C42.515 59.2672 41.336 60.2762 40.679 61.2002C40.69 61.3762 40.988 61.0922 41.231 61.2002C41.414 60.8872 41.699 60.1992 41.967 60.2792C41.513 61.7562 40.046 62.2212 39.484 63.5912C38.864 63.7982 38.636 64.4002 37.83 64.4182C37.798 64.7552 37.5149 64.8402 37.277 64.9712C37.111 64.7262 36.7139 64.8302 36.6339 65.1562C37.4969 65.1492 39.081 64.9532 39.668 64.1442C39.666 63.9922 39.412 64.0922 39.392 63.9592C40.985 63.5272 41.347 61.8682 42.52 61.0172C42.013 62.1382 40.871 63.1052 40.404 63.9592C42.291 63.6062 43.44 62.0322 44.727 61.3852C44.014 62.5502 42.894 63.7722 41.507 63.9592C41.602 64.3912 41.0779 64.2032 41.139 64.6022C44.0659 64.0972 45.443 61.5472 46.933 59.9122C46.854 60.2622 46.517 60.3552 46.566 60.8322C46.628 61.1452 46.872 60.4282 46.933 60.7392C46.823 61.1692 46.452 60.9802 46.198 61.1082C46.304 61.2562 46.559 61.3992 46.382 61.5672C46.034 61.7012 46.2059 61.3142 45.9229 61.3842C46.5359 62.0592 45.094 62.4292 45.37 63.0382C46.185 62.4422 46.759 61.6062 47.485 60.9232C47.482 61.1432 47.014 61.3622 47.3 61.5672C47.961 61.1982 48.37 59.8302 49.14 59.2682C49.125 58.6222 49.607 58.0412 49.968 58.0732C50.358 55.9312 51.992 53.6302 51.347 50.7152C51.531 50.6232 51.558 50.3742 51.715 50.2572C51.638 49.9052 51.595 49.5182 51.622 49.0612C52.548 47.8222 51.432 45.5442 51.347 44.4622C51.423 45.0422 51.999 45.9162 52.084 46.2102C52.085 46.2142 51.867 46.2172 51.899 46.3012C51.94 46.4092 52.218 46.4252 52.267 46.5762C52.523 47.4072 52.3289 48.4392 52.3579 49.4282C52.1179 49.5352 51.963 49.1442 51.991 49.5192C52.845 49.8622 52.154 51.6992 52.542 52.2792C52.783 51.1982 52.68 49.8332 53.002 49.0602C53.06 49.3092 52.887 49.7892 53.094 49.8872C53.209 49.6052 53.078 49.0072 53.37 48.6922C53.347 50.3902 53.266 51.9662 52.818 53.0152C52.58 52.8972 52.541 52.8132 52.267 52.9232C52.189 53.3652 52.141 53.8382 52.083 54.3022C52.614 54.2212 52.263 53.2572 52.817 53.1992C52.204 55.1602 51.125 56.6562 50.519 58.6252C51.626 58.3242 51.2459 56.5332 52.1729 56.0502C52.6489 54.7532 53.083 52.7592 53.921 51.7282C53.694 52.2192 53.608 52.9342 53.736 53.2922C53.601 53.2932 53.445 52.9042 53.46 53.2922C53.984 54.1582 52.8 55.4422 52.633 56.5102C53.531 56.3342 53.531 55.2632 53.828 54.4882C54.287 54.8342 54.153 53.9312 54.656 54.0282C54.756 53.7942 54.376 53.5902 54.656 53.4762C54.737 53.8842 55.215 53.3622 54.932 53.9362C56.025 53.0902 56.512 51.3842 57.046 50.2582C56.865 51.2412 56.5819 52.1222 56.0349 52.7412C55.9719 54.2512 54.272 55.3852 54.011 56.6942C55.72 55.0622 56.667 52.6702 57.691 50.3492C57.587 51.5072 56.9859 52.9512 56.4959 54.0282C57.5339 52.6332 58.376 50.9082 58.795 49.1542C58.626 49.0072 58.483 49.2392 58.335 48.9702C58.425 48.7242 58.523 48.4852 58.519 48.1422C58.361 48.1062 58.284 48.2792 58.244 48.1422C58.518 46.6832 59.55 44.9262 58.887 43.6352C58.896 43.4912 59.121 43.5632 59.071 43.3612C58.877 42.8582 58.655 41.5662 58.703 40.8772C59.173 40.9292 58.91 41.7142 58.979 42.1652C59.087 42.1792 59.24 42.1482 59.254 42.2562C59.552 43.9252 59.117 46.0882 59.162 47.5002C59.896 45.1482 59.909 42.1952 59.713 39.7732C59.838 40.9772 60.152 42.0212 60.267 43.2682C60.399 44.7062 59.692 46.0232 59.899 47.0392C59.4 48.5332 58.833 50.4472 58.427 51.7282C58.589 51.6692 58.817 51.2072 58.979 51.4532C58.97 51.5982 58.745 51.5242 58.795 51.7282C59.241 51.6532 58.965 51.3342 58.887 51.0842C59.609 49.4102 60.304 47.8912 60.359 45.8432C60.752 44.8502 60.576 43.6082 60.267 42.7152C60.517 41.7482 60.078 40.7062 59.991 39.7732C59.829 39.5832 59.707 39.6922 59.623 39.5882C59.15 36.5362 57.746 34.4162 56.129 32.5072C56.766 34.1692 58.152 35.5722 58.52 37.1972C58.235 36.7742 58.316 36.6872 58.06 37.0132C57.881 36.8552 57.8629 36.5372 57.8759 36.1852C57.792 36.0242 57.537 36.0342 57.508 35.8182C56.945 33.9212 55.373 32.5682 54.657 31.1272C53.991 30.9672 53.814 30.0322 53.092 30.2082C52.701 29.1902 51.975 28.5062 51.07 28.0012C51.055 28.1082 51.086 28.2622 50.978 28.2762C50.431 27.6282 49.479 27.3852 49.23 26.4372C48.692 26.3632 48.335 26.1072 48.128 25.7012C48.061 26.0182 47.852 25.7632 47.667 25.7012C47.565 26.2022 48.172 25.9962 48.128 26.4372C47.828 26.5952 47.685 25.9972 47.667 26.4372C47.901 26.7562 48.759 26.9372 48.68 27.2652C47.462 26.3352 46.103 25.5492 44.633 24.8732C44.893 25.4422 45.57 25.5922 45.921 26.0682C45.775 25.9912 45.408 25.6702 45.275 25.8842C45.378 25.9472 45.754 26.1902 45.552 26.2512C45.049 25.7722 44.573 25.2682 43.805 25.0572C42.883 24.1142 42.132 23.0402 40.677 23.0342C40.616 23.3992 41.221 23.1042 41.137 23.4932C40.756 23.1882 39.729 23.1842 39.851 22.6662C39.489 22.8942 39.1449 22.5692 39.0219 23.0342C40.0069 23.3062 40.923 23.6462 41.597 24.2282C41.362 24.3292 41.123 23.9152 41.137 24.3202C41.537 24.3832 41.661 24.7182 41.965 24.8732C40.505 24.4322 39.525 23.0212 37.918 23.0342C39.374 23.7542 40.642 24.6622 41.872 25.6082C41.583 25.6542 41.665 25.3272 41.32 25.4242C41.322 25.9452 42.299 25.9762 42.149 26.3442C41.383 26.0662 40.771 25.6362 40.493 24.8722C39.695 24.6892 39.049 24.3552 38.745 23.6772C37.927 23.6082 37.519 23.1252 36.814 22.9412C36.816 23.3282 36.428 23.3272 36.631 23.6772C37.229 23.8442 37.8589 23.9812 38.0089 24.5962C37.8169 24.5432 37.7469 24.3682 37.4569 24.4112C37.6059 24.9992 38.4209 24.9212 38.4699 25.6072C37.6429 25.0232 36.969 24.2882 36.077 23.7682C35.937 24.0272 35.421 23.9092 35.342 24.2272C35.776 24.5912 36.412 24.7522 36.631 25.3312C35.501 24.5862 34.456 23.4882 32.86 24.4102C32.895 24.9292 33.4809 25.3812 33.3189 25.7912C33.0579 25.7402 32.509 25.5032 32.676 25.3312C32.889 25.2522 33.072 25.6522 33.135 25.4232C32.93 25.0762 32.758 24.6962 32.583 24.3192C30.828 23.8682 30.5919 21.8972 30.0089 20.2732C29.6199 20.1032 29.484 20.8862 28.905 20.8262C29.063 23.0912 29.635 25.7872 28.813 27.7242C28.872 27.3582 28.57 27.3532 28.629 26.9892C27.596 27.0702 27.356 26.3602 26.697 26.0682C26.551 26.8552 26.645 27.5452 26.329 28.0002C25.959 26.4652 26.6019 24.6822 25.2249 24.1372C24.9729 24.8042 25.103 25.8552 24.857 26.5302C24.633 24.2302 24.517 22.0072 25.133 19.8162C24.373 20.3122 24.471 21.5442 24.306 22.4832C24.248 22.8102 24.004 23.1252 24.031 23.4942C24.081 24.2672 24.541 25.3012 23.938 26.0692C23.949 25.3262 24.044 25.1542 24.031 24.3212C23.367 25.0702 23.595 26.7082 23.111 27.6342C23.219 26.0672 23.641 23.9932 23.846 23.1272C23.342 22.9542 23.216 23.8902 22.742 24.0462C22.522 24.7762 22.096 25.3012 21.823 25.9782C21.69 25.4462 21.498 26.0262 21.362 25.8862C21.725 25.2672 22.262 24.8232 22.375 23.9552C22.348 23.6302 22.126 24.2792 22.099 23.9552C22.328 23.3262 22.917 23.0562 23.02 22.2992C22.181 22.6872 21.678 23.4112 21.179 24.1382C20.415 23.7462 20.199 25.4662 19.524 24.8742C20.019 24.2952 20.772 23.9752 21.179 23.3112C20.369 23.4212 19.882 24.3412 19.248 24.3222C20.469 23.3052 22.255 22.3632 22.742 20.9212C22.677 21.2212 22.412 21.3262 22.19 21.4732C22.847 20.1932 24.129 18.2652 24.214 16.4142C23.689 16.6232 23.891 17.1522 23.754 17.5182C23.071 19.3252 21.483 20.9622 20.351 22.2072C20.082 22.1852 20.068 22.4162 19.799 22.3922C18.474 23.5802 16.8719 24.4932 15.3839 25.5192C15.4049 25.1722 15.881 25.2812 15.937 24.9672C15.109 24.9332 14.919 26.0032 14.19 25.5192C14.137 25.6512 14.046 25.7432 13.914 25.7952C13.77 26.1212 14.227 25.8502 14.19 26.0702C14.061 26.4012 13.383 26.1822 13.455 26.7142C13.517 27.1392 13.76 26.5722 13.822 26.8062C13.813 27.0392 13.479 27.0232 13.362 26.8962ZM20.995 63.2232C20.297 62.2972 18.99 61.1832 18.144 60.0962C18.363 61.8692 19.454 62.7712 20.995 63.2232ZM27.157 25.5172C27.506 25.7502 27.706 26.1332 28.352 26.0692C28.213 23.3022 28.364 19.6432 27.433 17.0572C27.445 19.8132 26.785 22.9232 27.157 25.5172ZM23.203 20.7362C23.608 20.7442 23.973 19.8252 23.663 19.7232C23.533 20.0842 23.181 20.2212 23.203 20.7362ZM37.182 22.8502C37.408 22.8372 37.625 22.8362 37.735 22.9422C37.77 22.7032 38.0079 22.6652 38.0089 22.3902C37.5089 22.4932 37.526 22.0792 37.09 22.1142C36.946 22.4042 37.031 22.6272 37.182 22.8502ZM41.779 22.6662C41.673 22.5882 41.5329 22.5442 41.3189 22.5742C41.1569 22.9852 41.807 22.9042 41.779 22.6662ZM42.148 22.7582C42.163 23.0362 42.851 23.3002 42.792 22.8502C42.392 22.9812 42.369 22.5352 42.148 22.7582ZM43.9879 23.4932C43.7179 23.5172 43.704 23.2852 43.435 23.3092C43.318 23.6192 43.902 23.6902 43.9879 23.4932ZM44.079 24.5052C43.902 24.1622 43.515 24.0272 43.159 23.8612C43.234 24.3072 43.716 24.3482 44.079 24.5052ZM46.01 25.0582C45.783 24.6412 44.863 24.4302 44.447 24.5052C44.982 24.6292 45.415 25.2932 46.01 25.0582ZM6.92398 33.3342C7.07298 32.9892 7.67594 32.6172 7.56894 32.3232C7.30194 32.5482 6.76498 32.9872 6.92398 33.3342ZM6.37296 33.7942C6.25896 34.0922 6.67098 33.8642 6.55698 34.1612C4.79498 37.1212 2.58498 40.1232 2.78598 44.7382C3.18398 42.3762 3.95597 40.3882 4.80997 38.4832C4.93297 38.4832 5.05495 38.4832 5.17795 38.4832C5.85195 36.2152 7.20696 34.6292 8.02896 32.5062C8.00996 32.4352 7.95194 32.4002 7.84494 32.4142C7.41394 32.8992 7.07896 33.8812 6.37296 33.7942ZM3.52194 38.5762C4.11794 38.3122 4.46795 37.3172 4.44095 36.7362C4.16395 37.3802 3.74594 37.8802 3.52194 38.5762ZM2.418 44.3692C2.493 44.3042 2.66496 43.7332 2.32596 43.8172C2.37896 43.9812 2.216 44.3582 2.418 44.3692ZM2.23294 46.5762C2.58694 46.3802 2.349 45.5892 2.418 45.1052C1.935 45.2762 2.04994 46.3152 2.23294 46.5762ZM2.50998 47.5892C1.63398 49.6902 2.70199 52.3722 3.61399 54.0272C4.07799 52.3412 2.35796 51.3762 2.69296 49.6122C2.73596 49.3952 2.94897 49.2192 2.96897 48.9692C3.03397 48.1592 2.89196 46.9322 2.69296 46.0272C2.56896 46.5232 2.32298 47.0402 2.50998 47.5892ZM2.69296 52.6462C2.25496 52.0422 2.26498 50.9912 1.95798 50.2562C2.01598 50.8212 2.08496 52.6352 2.69296 52.6462ZM9.31497 57.4302C8.34897 55.8302 8.25696 53.9112 7.29196 52.3712C7.57896 54.3452 8.02997 56.2392 9.31497 57.4302ZM3.70597 55.7732C3.96396 56.2652 3.97699 56.9712 4.53299 56.9692C3.73899 55.7702 3.37898 54.1372 2.60098 52.9232C2.66698 54.1712 3.24897 54.9082 3.70597 55.7732ZM5.36099 56.3252C5.10499 55.3242 4.55697 54.6152 4.07297 53.8422C4.21697 54.9572 4.61199 55.8182 5.36099 56.3252ZM14.099 55.7732C14.078 55.2712 14.05 54.7802 13.73 54.5782C13.682 55.1482 13.753 55.5992 14.099 55.7732ZM54.102 55.7732C54.354 55.5952 54.526 55.3382 54.655 55.0382C54.524 55.0162 54.5 54.8872 54.379 54.8532C54.479 55.3542 54.161 55.4322 54.102 55.7732ZM55.5739 55.5902C55.6779 55.4482 55.873 55.3992 55.851 55.1302C55.605 55.0762 55.3829 55.5082 55.5739 55.5902ZM7.01596 59.9122C6.55596 58.1222 5.41097 57.0612 4.34897 55.6832C4.75897 57.3962 5.74396 58.8802 7.01596 59.9122ZM14.281 56.5092C14.348 56.2282 14.122 56.2402 14.19 55.9582C13.906 55.8912 14.012 56.2102 13.729 56.1412C13.984 56.9612 13.878 58.1402 14.557 58.5342C14.409 57.6292 14.199 56.8672 14.005 56.3262C14.15 56.3342 14.078 56.5602 14.281 56.5092ZM7.75296 58.7172C7.65096 58.0522 7.06696 57.8692 6.64896 57.5212C6.97696 57.9582 7.20296 58.5012 7.75296 58.7172ZM41.412 58.8092C41.526 58.5522 41.933 58.1082 41.687 57.7972C41.681 58.1622 41.239 58.5682 41.412 58.8092ZM39.8499 61.1082C40.6229 60.7792 40.773 59.8232 41.228 59.1762C40.063 59.1142 40.41 60.5652 39.8499 61.1082ZM17.409 60.9242C17.146 60.3282 16.733 59.8812 16.214 59.5452C16.332 60.2852 16.761 60.7132 17.409 60.9242ZM9.40799 61.2002C8.87399 60.5982 8.01494 60.3252 7.38394 59.8212C7.39394 60.5262 8.75599 61.1392 9.40799 61.2002ZM13.638 61.0172C13.467 60.6062 13.249 60.2412 12.903 60.0052C12.956 60.5332 13.122 60.9482 13.638 61.0172ZM9.95999 61.6592C10.219 61.7122 10.736 61.9792 10.972 61.7522C10.621 61.6972 10.114 61.4352 10.328 61.1082C10.132 60.9662 9.91798 60.8422 9.68198 60.7392C9.72198 61.2032 9.99899 61.3422 9.95999 61.6592ZM16.214 62.8562C16.421 62.8942 16.1999 63.3602 16.4879 63.3152C16.9839 62.3732 16.003 61.7742 15.753 61.0172C15.46 61.0722 15.469 60.8432 15.293 61.0172C15.632 61.7202 16.175 62.2182 16.58 62.8562C16.371 62.9812 16.235 62.6182 16.214 62.8562ZM17.685 62.3032C17.547 61.9902 17.1909 61.2402 16.7639 60.9242C16.7959 61.5992 17.318 62.2712 17.685 62.3032ZM34.422 63.6842C33.991 63.7432 33.552 63.7922 33.503 64.2362C34.503 64.1202 35.178 63.2222 35.711 62.3962C35.98 61.9772 36.424 61.4232 36.17 61.1092C35.627 62.0072 34.696 62.5162 34.422 63.6842ZM14.373 62.3962C14.138 61.9572 13.649 61.2832 13.086 61.4772C13.458 61.8402 13.688 62.3452 14.373 62.3962ZM17.869 61.7522C17.856 61.5182 17.7349 61.3952 17.5009 61.3852C17.5119 61.6182 17.635 61.7402 17.869 61.7522ZM37.273 64.1442C38.642 63.7962 39.175 62.6122 39.756 61.4772C39.664 61.4772 39.572 61.4772 39.48 61.4772C39.113 62.7332 37.866 63.1112 37.273 64.1442ZM39.389 62.7642C39.736 62.7122 39.971 62.5492 40.032 62.2112C39.777 62.3542 39.5579 62.5332 39.389 62.7642ZM13.271 62.7642C13.258 62.4692 13.063 62.3602 12.718 62.3962C12.64 62.7812 13.129 62.5972 13.271 62.7642ZM18.512 63.6842C18.503 63.1392 18.187 62.9052 17.869 62.6712C17.955 63.1372 18.111 63.5312 18.512 63.6842ZM19.984 63.3152C20.092 63.0422 19.594 62.9202 19.523 63.1312C19.699 63.1702 19.691 63.3942 19.984 63.3152ZM15.661 63.5912C15.944 63.5232 15.8379 63.8432 16.1209 63.7752C16.0499 63.5722 16.069 63.2762 15.846 63.2232C15.798 63.3592 15.71 63.4542 15.661 63.5912ZM23.663 64.6022C23.126 63.8822 22.11 63.6422 21.179 63.3142C21.859 63.8922 22.905 64.1042 23.663 64.6022ZM22.099 64.6952C21.625 64.1272 20.875 63.8332 20.168 63.4992C20.396 64.3132 21.264 64.4862 22.099 64.6952ZM18.0529 64.3272C17.9949 64.0172 17.7399 63.9042 17.4099 63.8672C17.3919 64.2382 17.775 64.5362 18.0529 64.3272ZM28.629 64.2352C28.781 64.2352 28.936 64.2352 29.089 64.2352C29.107 63.9392 28.761 64.0112 28.629 63.8672C28.629 63.9892 28.629 64.1112 28.629 64.2352ZM29.2719 64.4182C29.2329 64.8272 30.496 64.6082 30.284 64.2352C30.019 64.2482 29.7719 64.4172 29.2719 64.4182ZM39.757 65.8902C41.165 65.7422 42.6829 65.1372 43.7119 64.3272C42.2799 64.7352 40.771 65.0652 39.757 65.8902ZM34.146 65.0632C34.644 65.0082 34.918 64.7292 35.157 64.4192C34.709 64.5212 34.418 64.7822 34.146 65.0632ZM32.491 65.0632C32.931 65.1342 33.098 64.9332 33.226 64.6962C32.892 64.7262 32.501 64.7042 32.491 65.0632ZM39.021 65.4322C39.73 65.4652 40.12 65.1802 40.493 64.8792C40.049 64.7672 39.389 65.1672 39.021 65.4322ZM30.284 65.0632C30.428 65.2092 30.777 65.0882 30.927 64.9712C30.783 64.8242 30.435 64.9442 30.284 65.0632ZM35.25 65.4322C35.557 65.3352 36.315 65.2122 36.077 64.8792C35.918 65.1782 35.391 65.1102 35.25 65.4322ZM22.742 65.3392C22.742 65.4322 22.742 65.5232 22.742 65.6152C23.133 65.5162 23.759 65.7372 24.123 65.4312C23.775 65.3192 22.957 65.2892 22.742 65.3392ZM28.629 65.4322C28.349 65.4982 28.293 65.3362 28.076 65.3392C27.903 65.7992 28.709 65.8512 28.629 65.4322ZM21.455 65.6152C21.533 65.7002 22.041 65.8102 22.098 65.6152C21.893 65.5632 21.493 65.3042 21.455 65.6152ZM27.616 65.6152C27.415 65.5102 27.24 65.3772 26.881 65.4312C26.766 65.7992 27.504 65.7812 27.616 65.6152ZM30.468 66.0742C30.833 66.2202 31.422 65.8892 31.94 65.8892C31.782 65.3262 30.599 65.7352 30.468 66.0742ZM36.538 65.9812C36.79 66.0282 37.189 66.1762 37.273 65.7982C36.974 65.8062 36.708 65.8462 36.538 65.9812ZM25.778 66.6262C26.168 66.6292 26.123 66.1992 26.513 66.4412C26.548 66.1622 26.179 66.2862 26.145 66.0742C26.023 66.2602 25.553 66.3742 25.778 66.6262Z" fill="#604C3F"/>
<path fill-rule="evenodd" clip-rule="evenodd" d="M27.341 10.0664C27.731 10.7714 27.492 11.5484 27.616 12.4574C27.367 11.7154 27.468 11.0024 27.341 10.0664Z" fill="#604C3F"/>
<path fill-rule="evenodd" clip-rule="evenodd" d="M49.689 27.7252C49.018 27.5052 48.77 26.8653 48.217 26.5303C48.684 26.5853 49.326 27.2582 49.689 27.7252Z" fill="#604C3F"/>
<path fill-rule="evenodd" clip-rule="evenodd" d="M21.823 21.4707C20.972 22.6127 19.365 23.7947 17.961 24.6897C19.143 23.5107 20.446 22.4527 21.823 21.4707Z" fill="#604C3F"/>
<path fill-rule="evenodd" clip-rule="evenodd" d="M30.192 22.5742C30.664 23.3332 31.362 24.8312 31.387 25.4252C31.046 24.4752 30.234 23.5192 30.192 22.5742Z" fill="#604C3F"/>
<path fill-rule="evenodd" clip-rule="evenodd" d="M42.424 24.3198C42.707 24.2028 43.322 24.8497 43.436 24.9637C44.122 25.6547 43.79 25.2738 43.067 25.1478C43.268 24.7838 42.576 24.6288 42.424 24.3198Z" fill="#604C3F"/>
<path fill-rule="evenodd" clip-rule="evenodd" d="M34.974 25.4251C35.153 25.7981 35.524 25.9811 35.711 26.3451C35.07 26.1251 34.462 25.0781 33.963 24.4121C34.822 24.5141 36.004 25.5491 36.17 26.3451C36.371 26.4421 36.476 26.3422 36.723 26.5302C36.507 27.0652 37.247 27.2371 37.457 27.6341C36.651 27.2421 35.894 26.0071 34.974 25.4251Z" fill="#604C3F"/>
<path fill-rule="evenodd" clip-rule="evenodd" d="M18.973 24.5049C19.477 24.6329 18.613 25.0019 18.973 25.2409C17.659 26.3889 16.646 27.7579 15.661 28.8279C15.456 28.3239 15.883 27.8819 16.396 27.8159C16.528 26.7769 17.863 26.4698 17.869 25.6078C16.998 25.9338 16.606 26.7379 15.753 27.0799C16.745 26.1419 17.859 25.3239 18.973 24.5049Z" fill="#604C3F"/>
<path fill-rule="evenodd" clip-rule="evenodd" d="M42.148 25.148C42.463 25.019 42.911 25.548 43.251 25.7C42.949 25.816 42.523 25.268 42.148 25.148Z" fill="#604C3F"/>
<path fill-rule="evenodd" clip-rule="evenodd" d="M30.56 25.2412C31.317 25.5272 31.082 26.8042 31.481 27.4482C30.976 26.9092 30.947 25.8962 30.56 25.2412Z" fill="#604C3F"/>
<path fill-rule="evenodd" clip-rule="evenodd" d="M38.561 25.7002C39.978 26.2772 41.265 27.7792 42.516 28.8282C42.376 29.0372 41.841 28.4992 41.687 28.3672C40.752 27.5682 39.49 26.5242 38.561 25.7002Z" fill="#604C3F"/>
<path fill-rule="evenodd" clip-rule="evenodd" d="M15.568 25.9775C14.75 26.8765 13.882 27.7256 12.902 28.4606C13.425 27.6916 14.639 26.3375 15.568 25.9775Z" fill="#604C3F"/>
<path fill-rule="evenodd" clip-rule="evenodd" d="M33.963 26.4368C33.953 26.7208 34.075 26.8767 34.147 27.0807C33.982 26.9977 33.59 26.3527 33.503 25.8857C34.011 26.1127 34.345 26.5158 34.79 26.8058C34.605 26.9528 34.259 26.4818 33.963 26.4368Z" fill="#604C3F"/>
<path fill-rule="evenodd" clip-rule="evenodd" d="M18.42 26.6211C18.545 26.8711 18.005 27.2441 17.869 27.5401C17.662 27.2071 18.392 27.0241 18.42 26.6211Z" fill="#604C3F"/>
<path fill-rule="evenodd" clip-rule="evenodd" d="M45.366 27.1733C45.499 27.0753 46.022 27.3713 46.01 27.7253C45.695 27.6413 45.629 27.3093 45.366 27.1733Z" fill="#604C3F"/>
<path fill-rule="evenodd" clip-rule="evenodd" d="M14.926 27.1729C15.002 27.5569 14.252 27.9059 14.006 28.2749C13.918 27.8769 14.696 27.5569 14.926 27.1729Z" fill="#604C3F"/>
<path fill-rule="evenodd" clip-rule="evenodd" d="M47.573 27.2654C47.904 26.9704 48.063 27.6294 48.401 27.6334C48.166 27.8314 47.9 27.2794 47.573 27.2654Z" fill="#604C3F"/>
<path fill-rule="evenodd" clip-rule="evenodd" d="M47.481 27.54C48.223 28.023 48.899 28.5751 49.321 29.3801C48.78 28.6931 47.898 28.351 47.481 27.54Z" fill="#604C3F"/>
<path fill-rule="evenodd" clip-rule="evenodd" d="M12.259 31.126C12.652 31.439 11.73 31.835 11.524 32.139C11.408 31.807 11.972 31.362 12.259 31.126Z" fill="#604C3F"/>
<path fill-rule="evenodd" clip-rule="evenodd" d="M9.31499 32.7829C9.19099 32.9659 9.09996 33.1809 8.85496 33.2429C8.72796 33.4709 9.00199 32.7049 9.31499 32.7829Z" fill="#604C3F"/>
<path fill-rule="evenodd" clip-rule="evenodd" d="M6.37299 37.0137C6.26399 37.7947 5.64798 38.8646 5.17798 39.5876C5.53098 38.6856 5.95099 37.8487 6.37299 37.0137Z" fill="#604C3F"/>
<path fill-rule="evenodd" clip-rule="evenodd" d="M37.642 42.3457C37.968 42.5727 38.032 43.0597 38.194 43.4497C37.917 43.1757 37.8 42.7387 37.642 42.3457Z" fill="#604C3F"/>
<path fill-rule="evenodd" clip-rule="evenodd" d="M38.744 44.8301C38.978 44.9951 39.057 45.314 39.111 45.657C38.853 45.519 38.888 45.0861 38.744 44.8301Z" fill="#604C3F"/>
<path fill-rule="evenodd" clip-rule="evenodd" d="M39.111 45.75C39.391 45.961 39.474 46.368 39.573 46.761C39.315 46.528 39.227 46.125 39.111 45.75Z" fill="#604C3F"/>
<path fill-rule="evenodd" clip-rule="evenodd" d="M39.665 45.8418C39.864 46.0398 39.926 46.3778 40.032 46.6688C39.825 46.4768 39.665 46.2398 39.665 45.8418Z" fill="#604C3F"/>
<path fill-rule="evenodd" clip-rule="evenodd" d="M41.319 47.3135C41.507 47.5855 41.648 47.9045 41.595 48.4165C41.365 48.1885 41.422 47.6715 41.319 47.3135Z" fill="#604C3F"/>
<path fill-rule="evenodd" clip-rule="evenodd" d="M5.82098 49.1523C5.91798 49.8813 6.07101 50.5574 6.09601 51.3604C5.76501 50.9134 5.83898 49.6103 5.82098 49.1523Z" fill="#604C3F"/>
<path fill-rule="evenodd" clip-rule="evenodd" d="M6.09698 51.6357C6.42598 52.9307 6.76899 54.2128 7.01599 55.5898C6.45899 54.5228 6.28898 53.0677 6.09698 51.6357Z" fill="#604C3F"/>
<path fill-rule="evenodd" clip-rule="evenodd" d="M16.949 52.7393C17.263 53.2523 17.279 54.0632 17.501 54.6702C17.14 54.5702 17.108 53.3473 16.949 52.7393Z" fill="#604C3F"/>
<path fill-rule="evenodd" clip-rule="evenodd" d="M21.915 55.4983C22.209 55.4823 22.44 56.3193 22.65 56.6923C22.307 56.3953 22.221 55.8373 21.915 55.4983Z" fill="#604C3F"/>
<path fill-rule="evenodd" clip-rule="evenodd" d="M25.87 56.417C26.185 56.898 26.44 57.44 26.514 58.165C26.169 57.713 26.127 56.958 25.87 56.417Z" fill="#604C3F"/>
<path fill-rule="evenodd" clip-rule="evenodd" d="M22.742 56.877C23.006 57.442 23.514 57.762 23.57 58.533C23.289 57.985 22.877 57.571 22.742 56.877Z" fill="#604C3F"/>
<path fill-rule="evenodd" clip-rule="evenodd" d="M47.021 57.7969C47.263 58.0169 46.856 58.3629 46.837 58.6249C46.641 58.4509 47.057 58.1129 47.021 57.7969Z" fill="#604C3F"/>
<path fill-rule="evenodd" clip-rule="evenodd" d="M26.514 58.3501C26.707 58.1621 26.793 58.8621 26.881 59.0851C26.573 59.0241 26.721 58.5091 26.514 58.3501Z" fill="#604C3F"/>
<path fill-rule="evenodd" clip-rule="evenodd" d="M34.146 58.2568C34.347 59.1638 33.684 60.0018 33.41 60.7398C33.435 60.0578 34.044 59.1668 34.146 58.2568Z" fill="#604C3F"/>
<path fill-rule="evenodd" clip-rule="evenodd" d="M47.758 58.2568C47.913 58.5078 47.39 58.8668 47.297 59.1768C47.18 58.9628 47.591 58.4918 47.758 58.2568Z" fill="#604C3F"/>
<path fill-rule="evenodd" clip-rule="evenodd" d="M23.755 58.9004C24.229 59.4684 24.622 60.1183 24.857 60.9233C24.373 60.3673 24.095 59.6044 23.755 58.9004Z" fill="#604C3F"/>
<path fill-rule="evenodd" clip-rule="evenodd" d="M46.47 58.9004C46.611 59.0774 46.237 59.5214 46.01 59.6364C46.126 59.3564 46.323 59.1524 46.47 58.9004Z" fill="#604C3F"/>
<path fill-rule="evenodd" clip-rule="evenodd" d="M34.698 59.7292C34.886 59.9442 34.766 60.4082 34.331 60.2792C34.664 59.9082 34.682 59.2212 35.157 58.9922C34.993 59.2072 35.059 59.9992 34.698 59.7292Z" fill="#604C3F"/>
<path fill-rule="evenodd" clip-rule="evenodd" d="M42.24 59.4531C42.444 59.6041 42.167 60.0481 41.964 60.0961C41.964 59.7891 42.263 59.7821 42.24 59.4531Z" fill="#604C3F"/>
<path fill-rule="evenodd" clip-rule="evenodd" d="M33.227 60.9246C33.358 60.7226 33.195 61.6425 32.86 61.5685C33.001 61.3725 33.124 61.1586 33.227 60.9246Z" fill="#604C3F"/>
</svg>
