<svg width="55" height="165" viewBox="0 0 55 165" fill="none" xmlns="http://www.w3.org/2000/svg">
<path fill-rule="evenodd" clip-rule="evenodd" d="M48.072 27.0494C48.889 25.6774 51.474 24.1203 51.891 22.2024C52.156 20.9844 52.5509 19.4293 52.7719 17.9433C52.9219 16.9293 53.186 15.3434 52.479 14.5654C51.592 14.4814 50.996 15.4964 50.276 16.0344C48.217 17.5734 45.603 19.2354 42.492 18.8244C42.151 16.0624 42.091 14.6644 41.317 12.5094C40.504 10.2414 40.648 10.2094 42.198 8.54335C43.575 7.06435 44.344 6.24636 45.722 5.01836C46.421 4.39636 47.344 3.85635 47.485 3.25635C47.678 2.43535 45.5739 -0.164643 44.8419 0.759357C44.3699 1.19236 43.1129 2.23335 42.7849 2.52135C42.5689 2.71135 41.4549 3.38035 41.0219 3.69635C38.4649 5.56735 37.747 9.68336 34.12 10.1584C32.199 11.7754 29.9999 13.8104 29.1259 16.4734C28.5909 18.1054 28.904 19.4123 28.538 20.4394C27.201 24.1964 23.371 24.7054 20.901 27.6364C19.876 27.8844 18.9639 28.2454 19.1389 29.6924C20.1159 31.2314 21.362 31.1734 23.692 30.8674C25.971 30.5674 28.14 30.8284 29.42 30.4274C26.754 35.9354 24.844 41.0284 23.399 47.9044C22.988 49.8594 21.818 52.2864 21.637 54.0734C21.571 54.7194 21.822 55.4864 21.783 56.1294C21.591 59.2304 20.7969 62.3153 20.6079 65.3813C20.4309 68.2473 20.7369 71.0723 20.6079 73.9003C20.4269 77.8993 20.315 81.7734 20.315 85.7964C20.315 90.4864 19.971 95.2774 20.168 100.043C20.381 105.208 20.534 110.239 20.315 115.464C20.206 118.04 20.383 120.255 20.02 122.367C19.25 126.839 18.007 130.54 16.643 134.41C15.399 137.937 14.245 141.541 12.971 144.985C10.861 150.688 7.87799 154.36 3.71799 157.762C2.10799 159.079 0.197965 160.279 0.192965 161.728C0.179965 165.248 4.08196 163.413 6.21396 163.49C8.23196 163.564 10.011 164.264 11.648 164.371C16.271 164.674 21.122 163.255 24.425 161.286C27.782 159.286 30.8399 157.141 33.3839 154.384C34.9049 152.737 36.5009 150.694 37.7899 148.656C39.4209 146.078 40.181 142.595 41.315 139.256C41.846 137.692 42.523 136.177 43.078 134.557C43.631 132.937 44.127 131.237 44.692 129.563C48.167 119.307 46.795 107.721 47.924 96.5184C48.295 92.8404 48.478 89.4803 48.511 85.9433C48.557 81.1783 48.212 76.6733 48.07 71.9913C48 69.6593 48.13 67.3143 47.924 64.9413C47.38 58.6533 47.564 51.2113 46.602 44.5273C46.048 40.6783 45.594 36.4234 44.84 32.0434C47.426 33.1214 52.825 35.9913 54.532 32.7773C52.699 30.5493 49.972 29.2134 48.072 27.0494Z" fill="#36A862"/>
<path d="M36.324 46.5832C37.015 46.7052 40.098 45.2552 39.848 44.0862C38.533 44.7772 37.89 46.1422 36.324 46.5832ZM34.69 36.3632C35.46 35.8862 35.963 35.1392 36.763 34.6872C35.578 34.2212 35.381 35.8132 34.69 36.3632ZM32.212 36.3022C32.64 36.0882 33.319 35.3602 33.092 34.9812C32.794 35.4152 32.426 35.7822 32.212 36.3022ZM30.89 47.4642C31.943 47.1952 32.825 46.7552 33.092 45.7022C32.162 46.0932 31.796 47.0482 30.89 47.4642ZM27.659 44.6732C27.163 44.6672 27.004 45.4442 26.483 44.9672C27.174 43.7672 28.986 42.0232 30.302 40.5602C29.543 40.0032 29.377 41.2942 28.687 41.2942C29.03 38.5652 30.541 34.5882 33.239 34.0982C34.304 33.9022 35.884 34.4282 36.911 33.6572C36.679 34.0742 37.848 34.1282 38.232 34.3912C37.958 35.0952 37.413 35.5292 37.058 36.1532C37.419 36.2152 38.122 35.3642 38.38 34.8312C39.07 34.8682 39.205 35.4742 39.701 35.7122C38.599 35.7242 37.749 37.7752 36.763 38.7962C37.791 38.1592 38.33 37.0332 39.114 36.1522C39.646 36.3302 39.427 36.7032 40.142 36.4462C40.895 38.2882 38.894 39.4932 37.939 40.5582C38.887 40.3812 40.075 39.1762 40.582 38.0622C41.249 38.6192 41.231 39.8612 41.316 40.9992C39.871 41.6112 39.382 43.1782 38.084 43.9372C39.345 43.9732 39.902 42.0342 41.169 41.5872C41.248 44.0962 40.373 45.9252 39.259 47.6082C38.935 47.6882 39.051 47.3272 38.82 47.3142C36.855 48.2022 35.16 50.3742 32.504 48.9302C32.7 48.2932 33.612 48.3732 33.826 47.7552C33.11 47.6452 32.681 48.6492 31.917 48.6362C30.656 48.6112 29.309 46.6412 28.832 45.5512C29.255 45.0132 30.785 44.9022 30.302 43.9362C29.654 44.2652 29.317 44.9092 28.687 45.2572C28.136 45.2732 27.849 45.0222 27.659 44.6732Z" fill="#B5D495"/>
<path d="M39.555 56.5703C38.901 57.4323 38.197 58.2463 37.352 58.9203C38.399 58.6263 39.91 57.2863 39.555 56.5703ZM36.324 55.9823C36.673 55.1383 38.52 54.2933 37.939 53.4853C37.602 54.4223 36.128 55.0033 36.324 55.9823ZM34.121 64.3543C36.317 63.2713 38.001 61.6733 39.261 59.6543C37.633 61.3073 35.97 62.9223 34.121 64.3543ZM36.178 52.1643C35.846 53.1563 34.948 53.5773 34.414 54.3673C35.247 54.0243 36.697 52.8983 36.178 52.1643ZM30.742 63.4733C31.349 63.2463 32.015 63.0813 32.212 62.4443C31.624 62.6903 31.043 62.9403 30.742 63.4733ZM27.365 62.5913C28.068 62.6583 28.332 62.2793 28.687 62.0043C28.179 62.1323 27.671 62.2613 27.365 62.5913ZM28.245 59.8013C27.469 60.0523 27.029 60.6403 26.631 61.2703C27.426 61.0373 27.916 60.4993 28.245 59.8013ZM25.749 60.8293C23.87 60.5173 23.821 62.0353 22.371 62.1513C22.886 60.6083 24.63 60.2963 25.456 59.0663C25.357 56.6193 26.147 55.0583 27.07 53.6323C27.425 53.5703 27.389 53.9013 27.805 53.7793C28.135 53.7543 27.615 53.4053 27.805 53.0453C28.808 52.7753 29.219 51.9123 30.007 51.4293C30.674 51.3493 30.491 52.1203 31.035 52.1633C31.121 51.5393 30.546 51.5763 30.448 51.1353C31.06 50.7433 32.222 50.1013 32.945 50.6953C32.957 51.7843 32.014 51.9193 31.769 52.7513C33.09 52.5853 33.006 50.2913 34.707 50.9883C34.707 52.1633 33.801 52.4323 33.532 53.3383C34.383 52.9163 34.707 51.9673 35.295 51.2823C37.204 52.0653 38.765 53.1913 39.848 54.8073C39.096 55.4253 38.759 56.4593 38.085 57.1573C38.679 56.5763 39.598 56.3193 39.701 55.2483C41.658 59.8933 38.574 63.9383 34.854 64.7953C34.413 64.7393 33.96 64.7093 33.826 64.3543C33.281 65.0523 31.349 65.6273 30.595 64.7953C30.908 64.1273 31.777 64.0173 32.064 63.3263C31.374 63.7113 30.589 64.0063 30.155 64.6483C28.412 63.6503 26.221 63.0943 25.749 60.8293Z" fill="#B5D495"/>
<path d="M38.381 70.376C38.001 70.877 37.584 71.342 37.205 71.844C37.829 71.686 38.784 71.073 38.381 70.376ZM33.239 68.76C33.05 69.305 32.242 69.232 32.212 69.935C32.873 69.953 33.405 69.078 33.239 68.76ZM34.414 67.145C34.414 67.738 33.533 68.215 33.827 68.613C34.005 68.252 35.34 67.652 34.414 67.145ZM27.512 78.453C28.662 78.331 30.467 78.08 30.45 77.278C29.685 77.976 28.063 77.945 27.512 78.453ZM26.925 71.404C28.051 70.951 29.134 68.925 28.833 68.026C28.405 69.359 27.555 70.272 26.925 71.404ZM27.806 75.957C27.592 76.281 27.016 76.245 26.925 76.691C27.396 76.715 28.087 76.201 27.806 75.957ZM25.749 76.397C24.299 76.611 23.253 77.223 21.638 77.278C21.79 75.541 24.324 75.32 25.309 74.047C25.725 73.515 25.639 72.634 25.749 71.55C26.03 68.747 28.125 67.468 30.596 66.85C31.521 66.618 31.882 66.324 33.092 66.556C32.481 67.609 30.92 67.713 30.155 68.613C30.914 68.148 33.276 68.013 33.386 66.41C34.776 66.293 35.65 66.845 36.91 67.879C37.951 68.73 40.576 70.523 40.288 72.138C40.094 73.227 38.398 73.337 37.938 74.488C38.831 74.01 39.48 73.288 40.435 72.872C40.551 74.261 40.325 75.308 39.994 76.25C37.277 77.749 35.1 80.552 31.184 80.362C31.661 79.371 32.963 79.206 33.68 78.453C32.626 78.337 31.586 79.494 30.742 80.069C28.594 80.258 27.867 79.029 26.631 78.307C26.471 77.535 26.361 76.715 25.749 76.397Z" fill="#B5D495"/>
<path d="M31.918 136.174C31.135 136.516 30.682 137.19 29.862 137.495C30.485 137.624 32.261 137.013 31.918 136.174ZM30.155 134.558C29.458 134.742 28.827 134.993 28.54 135.586C29.22 135.385 29.715 134.999 30.155 134.558ZM22.371 145.72C23.43 145.683 25.48 144.624 25.896 143.957C25.101 144.925 22.946 144.533 22.371 145.72ZM21.344 143.958C22.579 143.775 23.319 143.095 23.987 142.343C23.143 142.918 21.882 143.076 21.344 143.958ZM19.727 141.755C20.902 141.607 21.562 140.946 22.224 140.286C21.123 140.506 20.413 141.119 19.727 141.755ZM20.315 138.377C20.223 138.824 19.525 138.664 19.433 139.111C20.058 139.228 20.963 138.628 20.315 138.377ZM18.994 132.208C19.722 131.878 20.493 132.631 20.755 133.236C22.525 133.242 23.039 131.994 24.573 131.767C24.684 132.415 24.097 132.367 23.987 132.795C24.55 133.095 24.831 132.023 25.308 131.767C26.012 131.816 25.841 131.89 26.63 131.914C26.544 132.856 25.474 132.813 25.014 133.382C26.049 133.541 26.655 132.446 27.659 132.354C30.614 132.085 32.395 136.289 33.386 138.523C33.234 139.398 32.107 139.3 31.77 139.991C32.529 140.064 32.511 139.361 33.386 139.551C33.6 142.311 32.26 143.517 30.302 144.104C30.938 144.587 31.52 143.761 32.211 143.81C31.636 145.438 30.522 146.521 28.539 146.748C28.477 146.148 29.163 146.295 29.272 145.867C28.147 146.405 24.874 148.248 24.132 146.014C23.764 146.136 23.557 146.418 23.104 146.454C21.017 146.172 20.075 144.373 19.286 142.195C18.551 140.157 18.026 138.738 19.139 137.055C20.332 136.828 21.189 136.265 21.636 135.293C21.066 135.024 20.718 136.235 19.873 136.174C20.853 134.846 19.605 133.255 18.994 132.208Z" fill="#B5D495"/>
<path d="M37.792 127.215C37.102 128.041 36.073 128.531 35.149 129.124C36.416 128.971 38.094 128.445 37.792 127.215ZM27.659 129.271C28.215 129.584 29.684 128.885 29.421 128.39C28.956 128.806 28.155 128.885 27.659 129.271ZM26.043 127.949C26.911 127.441 27.664 126.829 28.393 126.187C27.384 126.548 26.435 126.97 26.043 127.949ZM24.868 125.453C25.847 125.257 26.876 124.327 27.07 123.837C26.38 124.419 25.339 124.65 24.868 125.453ZM24.573 122.515C25.523 122.233 26.948 121.664 26.776 120.753C26.196 121.493 24.85 121.469 24.573 122.515ZM24.28 121.633C24.005 120.489 22.224 120.018 22.224 118.843C22.977 118.187 24.077 119.198 24.868 119.136C26.776 118.983 28.196 116.315 30.596 117.08C29.863 118.01 28.645 118.457 27.659 119.136C28.723 118.928 30.786 118.445 31.036 116.933C31.624 116.78 32.291 116.719 32.946 116.639C32.474 117.881 31.043 118.162 30.008 118.842C31.453 118.866 33.026 117.746 33.974 116.785C34.745 116.7 35.045 117.085 35.589 117.226C35.326 118.334 34.372 118.749 33.827 119.576C34.966 119.637 35.326 117.648 37.059 117.813C36.893 118.97 35.903 119.301 35.296 120.016C36.073 119.472 37.426 119.502 37.647 118.4C38.019 118.908 38.4 119.41 38.528 120.163C37.818 121.265 36.503 121.76 35.736 122.806C36.764 122.267 37.518 121.453 38.674 121.043C39.905 123.772 36.863 124.299 35.884 125.743C37.059 125.254 37.75 124.28 39.114 123.98C38.876 128.295 36.654 130.626 33.092 131.617C32.835 130.969 33.98 130.583 34.268 130.002C33.277 130.136 31.128 132.951 29.715 130.883C30.707 130.602 31.409 130.026 32.065 129.415C31.16 129.445 29.873 130.357 28.981 130.883C26.662 129.121 23.926 127.848 23.988 123.834C24 123.103 24.489 122.491 24.28 121.633Z" fill="#B5D495"/>
<path d="M29.715 100.924C28.949 101.089 28.571 101.635 28.245 102.246C28.98 102.05 29.44 101.579 29.715 100.924ZM28.0999 103.568C27.8299 103.985 27.268 104.1 27.071 104.596C27.53 104.461 28.5269 104.1 28.0999 103.568ZM21.783 104.596C23.504 104.902 24.727 104.339 26.043 103.862C26.911 101.457 29.586 99.6024 32.064 99.7504C31.942 100.704 31.0909 100.931 30.4489 101.365C32.0459 101.616 32.786 99.2054 34.708 99.7504C34.622 100.692 33.711 100.808 33.387 101.512C34.378 101.72 34.7879 100.074 36.1779 100.19C36.41 100.686 35.5529 101.182 35.4439 101.806C36.4399 101.818 36.428 100.832 37.206 100.631C37.751 100.723 38.062 101.041 38.528 101.218C38.386 101.812 38.135 102.296 37.793 102.687C38.454 102.565 38.601 101.928 39.262 101.806C41.092 102.791 39.239 104.615 38.234 105.331C38.878 105.165 40.127 104.4 40.585 103.568C41.631 104.59 40.358 105.869 39.704 106.506C40.176 106.775 40.6409 105.784 41.3189 105.772C41.9859 107.969 39.679 108.434 38.968 109.737C39.63 109.756 40.2969 108.519 41.3189 108.416C41.3189 108.856 41.3189 109.296 41.3189 109.737C40.2979 110.429 39.501 111.347 38.675 112.234C39.19 112.301 40.064 111.469 40.584 111.059C40.432 111.989 39.666 113.568 38.382 113.85C38.338 113.513 38.803 113.685 38.822 113.409C37.927 113.66 36.061 114.161 35.297 115.024C33.688 114.969 32.182 114.81 31.479 113.85C32.708 113.807 33.4439 113.268 33.9749 112.528C32.9409 113.06 31.816 113.501 30.744 113.996C29.931 113.831 29.447 113.335 28.835 112.968C29.905 112.277 31.563 112.173 32.214 111.059C31.276 111.347 29.533 112.093 28.395 112.675C27.844 112.198 27.256 111.758 26.927 111.059C28.162 110.484 29.129 109.64 30.157 108.856C29.018 108.795 28.027 110.148 26.927 110.619C26.382 110.282 26.302 109.481 26.339 108.562C27.103 108.104 27.9 107.675 28.395 106.947C27.716 107.345 26.982 107.688 26.339 108.122C25.531 107.706 25.195 106.818 24.43 106.359C23.283 106.621 21.056 106.199 21.783 104.596Z" fill="#B5D495"/>
<path d="M31.036 96.8128C31.618 96.6528 33.111 96.1518 33.239 95.0498C32.352 95.4838 31.74 96.1938 31.036 96.8128ZM29.567 84.9158C30.093 84.5608 30.853 84.4378 31.036 83.7408C30.369 83.4288 29.715 84.2358 29.567 84.9158ZM27.07 94.1688C27.524 94.2728 27.352 94.2728 27.805 94.1688C27.805 94.0218 27.805 93.8748 27.805 93.7278C27.463 93.7768 27.175 93.8808 27.07 94.1688ZM25.602 90.2028C26.104 90.0618 26.421 89.7498 26.63 89.3218C26.092 88.9298 25.762 89.7558 25.602 90.2028ZM25.3091 93.1398C26.1651 92.9688 26.705 92.4788 26.925 91.6708C26.099 91.8738 25.6641 92.4668 25.3091 93.1398ZM24.573 91.5238C23.926 90.8208 22.579 91.6588 21.783 91.2308C21.82 90.6188 21.588 90.6558 21.783 90.2028C26.483 90.5458 25.4911 85.1978 28.3921 83.7408C28.3431 84.0838 28.214 84.3478 28.099 84.6218C29.414 83.4228 30.803 81.5748 33.533 82.2718C33.2701 83.2818 32.5421 83.8268 31.9181 84.4758C32.7011 84.4208 33.919 83.5398 33.974 82.2718C34.641 82.2908 35.039 82.5788 35.589 82.7128C35.492 83.5448 34.732 83.7158 34.414 84.3288C35.18 84.5178 36.006 82.9828 36.911 83.3008C37.015 84.0908 36.476 84.2368 36.324 84.7698C36.795 84.6538 37.126 84.3968 37.351 84.0358C38.08 83.9928 38.134 84.6168 38.527 84.9168C38.391 85.7118 37.8171 86.0678 37.4991 86.6798C38.3251 86.5268 38.4841 85.6998 39.4081 85.6518C40.3691 86.9558 39.757 88.2958 38.821 89.1768C39.506 89.0288 39.714 88.4058 40.289 88.1488C41.055 90.2048 39.328 91.0008 38.527 91.9668C39.298 91.9548 39.885 91.1358 40.436 91.3798C40.386 92.2608 40.264 93.0698 39.995 93.7298C38.489 93.8708 37.756 95.9688 36.178 96.5208C37.285 96.4048 38.485 95.1068 39.409 94.3178C38.6 95.8598 36.893 97.7748 34.122 97.8418C34.226 97.0648 35.2781 97.2368 35.1501 96.2258C34.1221 96.6178 33.693 97.6088 32.799 98.1348C31.171 97.7068 28.993 97.8288 28.1 96.6668C28.552 95.8948 29.88 95.9998 30.156 95.0508C29.214 94.9408 28.5101 96.3358 27.3661 96.5198C25.9261 95.3618 24.825 93.8688 24.573 91.5238Z" fill="#B5D495"/>
<path fill-rule="evenodd" clip-rule="evenodd" d="M32.211 21.3213C33.015 21.6683 32.08 22.6003 32.065 23.0843C31.613 22.9813 31.783 22.9813 31.331 23.0843C31.351 22.4183 31.69 22.0733 31.771 21.4683C31.907 21.5583 32.313 21.8103 32.211 21.3213Z" fill="#604C3F"/>
<path fill-rule="evenodd" clip-rule="evenodd" d="M33.239 22.2021C33.952 22.4991 33.009 23.4842 32.946 23.9642C32.672 23.5852 33.21 22.7661 33.239 22.2021Z" fill="#604C3F"/>
<path fill-rule="evenodd" clip-rule="evenodd" d="M34.855 22.3496C35.5 22.6206 34.856 23.9676 34.266 23.9656C34.574 23.5376 34.64 22.8676 34.855 22.3496Z" fill="#604C3F"/>
<path fill-rule="evenodd" clip-rule="evenodd" d="M33.092 34.9805C33.318 35.3595 32.639 36.0875 32.211 36.3025C32.429 35.7845 32.791 35.4125 33.092 34.9805Z" fill="#604C3F"/>
<path fill-rule="evenodd" clip-rule="evenodd" d="M33.092 45.7012C32.824 46.7542 31.94 47.1922 30.89 47.4642C31.797 47.0482 32.161 46.0912 33.092 45.7012Z" fill="#604C3F"/>
<path fill-rule="evenodd" clip-rule="evenodd" d="M36.178 52.1631C36.699 52.8991 35.244 54.0211 34.414 54.3661C34.948 53.5781 35.849 53.1581 36.178 52.1631Z" fill="#604C3F"/>
<path fill-rule="evenodd" clip-rule="evenodd" d="M37.94 53.4854C38.524 54.2914 36.673 55.1374 36.325 55.9814C36.13 55.0034 37.6 54.4214 37.94 53.4854Z" fill="#604C3F"/>
<path fill-rule="evenodd" clip-rule="evenodd" d="M39.555 56.5693C39.909 57.2873 38.396 58.6263 37.352 58.9193C38.196 58.2463 38.902 57.4353 39.555 56.5693Z" fill="#604C3F"/>
<path fill-rule="evenodd" clip-rule="evenodd" d="M28.245 59.8018C27.915 60.4988 27.426 61.0378 26.63 61.2698C27.028 60.6398 27.47 60.0528 28.245 59.8018Z" fill="#604C3F"/>
<path fill-rule="evenodd" clip-rule="evenodd" d="M32.211 62.4443C32.019 63.0843 31.35 63.2463 30.742 63.4723C31.044 62.9413 31.624 62.6893 32.211 62.4443Z" fill="#604C3F"/>
<path fill-rule="evenodd" clip-rule="evenodd" d="M34.414 67.1445C35.341 67.6545 34.007 68.2505 33.827 68.6135C33.535 68.2165 34.417 67.7405 34.414 67.1445Z" fill="#604C3F"/>
<path fill-rule="evenodd" clip-rule="evenodd" d="M28.833 68.0254C29.132 68.9264 28.054 70.9534 26.924 71.4034C27.553 70.2694 28.407 69.3614 28.833 68.0254Z" fill="#604C3F"/>
<path fill-rule="evenodd" clip-rule="evenodd" d="M33.239 68.7598C33.402 69.0768 32.874 69.9558 32.211 69.9348C32.244 69.2328 33.05 69.3058 33.239 68.7598Z" fill="#604C3F"/>
<path fill-rule="evenodd" clip-rule="evenodd" d="M38.38 70.375C38.781 71.076 37.831 71.684 37.204 71.844C37.584 71.342 38 70.877 38.38 70.375Z" fill="#604C3F"/>
<path fill-rule="evenodd" clip-rule="evenodd" d="M27.806 75.9561C28.088 76.2001 27.397 76.7131 26.924 76.6901C27.019 76.2471 27.591 76.2801 27.806 75.9561Z" fill="#604C3F"/>
<path fill-rule="evenodd" clip-rule="evenodd" d="M31.036 83.74C30.852 84.437 30.097 84.562 29.567 84.915C29.713 84.235 30.372 83.425 31.036 83.74Z" fill="#604C3F"/>
<path fill-rule="evenodd" clip-rule="evenodd" d="M26.63 89.3217C26.422 89.7507 26.102 90.0657 25.602 90.2027C25.762 89.7557 26.093 88.9287 26.63 89.3217Z" fill="#604C3F"/>
<path fill-rule="evenodd" clip-rule="evenodd" d="M26.924 91.6719C26.705 92.4809 26.168 92.9719 25.309 93.1409C25.666 92.4699 26.101 91.8759 26.924 91.6719Z" fill="#604C3F"/>
<path fill-rule="evenodd" clip-rule="evenodd" d="M27.806 93.7275C27.806 93.8745 27.806 94.0205 27.806 94.1675C27.354 94.2705 27.523 94.2705 27.071 94.1675C27.172 93.8785 27.462 93.7765 27.806 93.7275Z" fill="#604C3F"/>
<path fill-rule="evenodd" clip-rule="evenodd" d="M44.843 94.7559C45.095 95.0959 45.574 95.9749 45.282 96.3719C44.768 96.2009 44.962 95.3219 44.843 94.7559Z" fill="#604C3F"/>
<path fill-rule="evenodd" clip-rule="evenodd" d="M33.239 95.0498C33.114 96.1498 31.616 96.6548 31.036 96.8118C31.74 96.1948 32.354 95.4868 33.239 95.0498Z" fill="#604C3F"/>
<path fill-rule="evenodd" clip-rule="evenodd" d="M29.715 100.925C29.441 101.581 28.98 102.051 28.245 102.247C28.568 101.638 28.947 101.088 29.715 100.925Z" fill="#604C3F"/>
<path fill-rule="evenodd" clip-rule="evenodd" d="M28.099 103.567C28.525 104.098 27.528 104.459 27.071 104.595C27.265 104.103 27.832 103.985 28.099 103.567Z" fill="#604C3F"/>
<path fill-rule="evenodd" clip-rule="evenodd" d="M26.776 120.751C26.95 121.661 25.521 122.235 24.573 122.513C24.85 121.467 26.195 121.491 26.776 120.751Z" fill="#604C3F"/>
<path fill-rule="evenodd" clip-rule="evenodd" d="M37.792 127.214C38.09 128.443 36.417 128.97 35.149 129.123C36.073 128.53 37.102 128.042 37.792 127.214Z" fill="#604C3F"/>
<path fill-rule="evenodd" clip-rule="evenodd" d="M29.421 128.389C29.685 128.888 28.214 129.58 27.659 129.27C28.152 128.883 28.955 128.804 29.421 128.389Z" fill="#604C3F"/>
<path fill-rule="evenodd" clip-rule="evenodd" d="M30.155 134.558C29.717 135 29.221 135.387 28.539 135.586C28.829 134.994 29.46 134.743 30.155 134.558Z" fill="#604C3F"/>
<path fill-rule="evenodd" clip-rule="evenodd" d="M31.918 136.174C32.261 137.012 30.486 137.625 29.861 137.495C30.685 137.191 31.136 136.518 31.918 136.174Z" fill="#604C3F"/>
<path fill-rule="evenodd" clip-rule="evenodd" d="M20.315 138.375C20.961 138.627 20.058 139.224 19.433 139.11C19.524 138.662 20.224 138.823 20.315 138.375Z" fill="#604C3F"/>
<path fill-rule="evenodd" clip-rule="evenodd" d="M22.225 140.285C21.564 140.947 20.905 141.608 19.728 141.753C20.416 141.12 21.123 140.506 22.225 140.285Z" fill="#604C3F"/>
<path fill-rule="evenodd" clip-rule="evenodd" d="M23.987 142.341C23.322 143.096 22.581 143.775 21.342 143.957C21.884 143.078 23.142 142.917 23.987 142.341Z" fill="#604C3F"/>
<path fill-rule="evenodd" clip-rule="evenodd" d="M30.742 20.7334C31.711 21.3764 30.5191 22.5804 30.1551 23.2304C30.0971 22.7284 30.604 21.5294 30.742 20.7334Z" fill="#604C3F"/>
<path fill-rule="evenodd" clip-rule="evenodd" d="M42.492 18.8244C45.603 19.2354 48.218 17.5734 50.276 16.0344C50.996 15.4964 51.592 14.4824 52.479 14.5654C53.186 15.3444 52.9219 16.9304 52.7719 17.9434C52.5509 19.4284 52.156 20.9834 51.891 22.2024C51.474 24.1204 48.889 25.6774 48.072 27.0494C49.971 29.2144 52.6989 30.5494 54.5349 32.7774C52.8279 35.9914 47.429 33.1214 44.843 32.0434C45.597 36.4234 46.0509 40.6794 46.6049 44.5274C47.567 51.2114 47.383 58.6534 47.927 64.9414C48.132 67.3144 48.002 69.6594 48.073 71.9914C48.216 76.6734 48.5599 81.1794 48.5139 85.9434C48.4809 89.4804 48.298 92.8394 47.927 96.5184C46.797 107.722 48.169 119.307 44.695 129.563C44.13 131.237 43.634 132.937 43.081 134.557C42.526 136.178 41.849 137.692 41.318 139.256C40.183 142.594 39.424 146.078 37.793 148.656C36.504 150.694 34.907 152.737 33.387 154.384C30.843 157.141 27.785 159.286 24.4279 161.286C21.124 163.255 16.274 164.674 11.651 164.371C10.014 164.264 8.23495 163.563 6.21695 163.49C4.08395 163.412 0.182955 165.248 0.195955 161.728C0.200955 160.279 2.10998 159.08 3.72098 157.762C7.88098 154.36 10.863 150.687 12.974 144.985C14.247 141.541 15.402 137.938 16.646 134.41C18.01 130.54 19.253 126.839 20.023 122.367C20.386 120.255 20.209 118.04 20.318 115.464C20.537 110.239 20.383 105.208 20.171 100.043C19.975 95.2784 20.318 90.4864 20.318 85.7964C20.318 81.7734 20.43 77.8994 20.611 73.9004C20.74 71.0724 20.434 68.2474 20.611 65.3814C20.799 62.3154 21.593 59.2294 21.786 56.1294C21.826 55.4864 21.574 54.7194 21.64 54.0734C21.821 52.2864 22.9909 49.8594 23.4019 47.9044C24.8469 41.0284 26.7569 35.9354 29.4229 30.4274C28.1439 30.8294 25.975 30.5674 23.695 30.8674C21.365 31.1744 20.119 31.2314 19.142 29.6924C18.967 28.2454 19.878 27.8834 20.904 27.6364C23.374 24.7054 27.204 24.1964 28.541 20.4394C28.907 19.4124 28.594 18.1054 29.129 16.4734C30.003 13.8104 32.202 11.7754 34.123 10.1584C37.75 9.68242 38.469 5.56641 41.025 3.69641C41.458 3.38141 42.572 2.71241 42.788 2.52141C43.115 2.23241 44.3729 1.19241 44.8449 0.759413C45.5759 -0.164587 47.6809 2.43441 47.4879 3.25641C47.3469 3.85641 46.4239 4.39642 45.7249 5.01842C44.3459 6.24642 43.578 7.06441 42.201 8.54341C40.651 10.2094 40.507 10.2414 41.32 12.5094C42.091 14.6654 42.151 16.0634 42.492 18.8244ZM38.38 9.71841C38.795 9.74441 38.564 10.4174 39.114 10.3064C40.682 7.12641 43.415 5.10942 46.017 2.96242C46.009 2.42542 45.406 1.72142 45.136 1.93442C43.396 4.45442 39.021 5.61141 38.38 9.71841ZM35.589 10.8934C35.752 11.3544 35.658 11.2814 35.443 11.6274C33.253 13.0594 31.115 13.9414 30.302 16.4734C29.9 17.7294 30.292 19.2074 29.862 20.5864C29.634 21.3194 28.573 22.8614 27.953 23.6704C26.535 25.5164 23.764 25.8114 22.666 27.9294C22.926 27.9634 23.401 27.7824 23.254 28.2234C22.712 28.7594 21.543 28.6664 21.197 29.3984C22.197 29.9244 22.345 28.6824 23.254 28.6644C23.608 28.8484 23.59 29.4054 24.135 29.3984C30.05 29.0484 34.233 26.9644 38.381 24.8454C38.902 25.0594 39.328 25.3664 39.262 26.1664C40.348 27.6874 41.899 28.5304 43.669 29.5444C45.497 30.5924 49.904 33.4034 51.452 32.3344C51.306 32.3344 51.158 32.3344 51.012 32.3344C51.45 31.2984 49.721 31.0604 49.984 30.1314C45.6 27.0244 42.076 23.0584 41.025 16.6194C39.836 16.1444 40.645 13.6704 39.556 13.0944C39.351 14.0294 39.546 15.2504 39.556 16.0324C39.155 15.1124 38.926 14.0184 38.528 13.0944C37.969 12.8794 38.4999 13.7514 37.9409 13.5354C38.1629 12.9194 38.543 11.5104 37.793 11.1854C37.541 12.4504 37.401 13.8284 37.059 15.0034C37.007 13.6444 37.155 12.5034 37.059 11.4784C36.094 12.3244 35.226 13.2684 34.563 14.4164C34.457 13.9664 34.712 13.8804 34.71 13.5344C33.923 13.4324 34.065 14.2614 33.388 14.2694C34.408 13.1344 35.161 11.7344 36.766 11.1844C36.767 10.2544 35.951 11.3654 35.589 10.8934ZM39.114 12.6564C39.361 12.3014 39.353 11.2204 38.821 11.1874C38.552 11.5634 38.958 12.2464 39.114 12.6564ZM46.1649 19.1184C46.0039 19.6924 45.3089 19.7314 44.6939 19.8524C44.5519 20.4354 45.5149 19.9134 45.4279 20.4394C45.2379 20.7374 44.652 20.6414 44.547 21.0274C45.071 20.9994 46.263 20.7724 46.604 21.3204C45.333 21.2374 44.83 21.6204 43.96 21.3204C44.377 20.9694 44.162 20.7224 43.52 20.7334C43.529 21.5074 44.179 21.6404 44.253 22.3484C45.326 22.3434 46.646 21.8064 47.485 22.0544C46.713 22.3614 46.0849 22.8074 44.8419 22.6424C44.5989 22.8704 44.8919 23.2144 44.9879 23.5234C45.7079 23.5934 46.042 22.7014 46.604 23.0834C46.503 23.7164 45.427 23.3744 45.282 23.9644C45.584 24.0054 45.575 24.3564 45.722 24.5514C46.517 24.3634 47.705 23.7964 48.367 23.9644C48.353 24.1964 47.992 24.0794 48.072 24.4044C50.092 23.7254 50.756 20.9264 51.01 18.9704C50.467 18.8294 50.458 19.9734 50.129 19.5574C50.157 18.8534 51.271 17.9964 50.568 17.5014C49.135 17.9314 47.6279 19.6764 46.1649 19.1184ZM46.018 25.1394C46.684 25.0604 46.41 25.9224 47.045 25.8744C47.618 25.7134 47.658 25.0194 47.779 24.4054C47.114 24.5714 46.507 24.7974 46.018 25.1394ZM36.7639 27.9304C37.0779 27.7944 36.9659 26.8624 36.4699 27.0494C36.5599 27.3524 36.2329 28.0694 36.7639 27.9304ZM34.5609 30.1334C34.5209 29.6954 34.972 29.2384 34.414 29.1054C34.223 30.0404 32.912 31.2004 32.211 30.2794C31.91 30.8604 31.729 31.5594 31.184 31.8954C31.33 31.5014 31.486 31.1204 31.478 30.5734C30.201 30.7654 30.132 32.1664 29.568 33.0704C29.698 33.4704 30.261 32.3184 30.45 32.7774C30.406 32.8674 30.085 33.3424 30.45 33.3654C31.595 32.7554 32.578 31.4284 33.682 31.6034C33.679 32.2364 32.95 32.1444 32.948 32.7774C34.435 33.5034 34.99 32.0994 35.737 31.6034C35.856 32.2664 34.756 32.4734 35.151 32.9254C35.718 32.1704 36.502 31.6324 37.206 31.0164C37.59 32.0204 36.113 32.3444 35.591 32.9254C36.472 33.0194 36.791 32.8674 37.648 33.0714C38.313 32.7574 38.371 31.8374 39.117 31.6034C39.319 32.5834 37.97 32.6464 38.383 33.3654C38.787 33.7714 38.997 33.2334 39.411 33.2184C39.172 34.3384 40.258 34.1334 40.586 34.6874C41.1 34.8944 41.048 33.7974 41.32 34.2464C40.965 34.6334 40.965 35.3284 41.32 35.7154C41.588 36.1764 41.8169 35.2214 42.0529 35.7154C42.0689 36.1714 41.874 36.4174 41.76 36.7434C42.034 37.1094 42.329 37.5444 42.642 37.4774C42.3 38.3394 42.753 38.9394 42.788 39.8274C43.195 39.9734 43.2029 38.9934 43.5219 39.5334C43.0569 40.5314 42.454 42.0304 42.641 43.2054C43.352 43.1334 43.1389 42.1384 43.5219 41.7364C44.1039 43.0174 42.266 44.0144 42.494 45.5544C43.201 45.4254 43.2879 43.9044 43.8159 44.0854C43.5089 45.5904 42.073 45.9654 42.052 47.7574C42.506 48.2144 42.301 47.2604 42.934 47.4644C42.968 48.0364 42.619 48.2254 42.494 48.6384C42.868 48.7974 43.008 48.0064 43.227 48.4914C43.397 50.3374 41.706 51.0664 42.052 52.6034C42.752 52.8144 41.941 51.5114 42.641 51.7224C42.895 52.8554 42.849 54.3174 42.347 54.9534C42.675 56.2404 43.303 57.2274 43.669 58.4774C43.377 58.4754 43.48 58.0774 43.081 58.1844C43.004 58.8934 42.312 59.7624 42.641 60.3874C42.737 60.1764 43.061 59.4554 43.227 59.8004C42.652 61.7994 44.154 63.2384 44.255 64.4994C43.82 63.6634 43.265 62.9454 42.934 62.0024C42.313 62.1654 42.198 62.8314 42.052 63.4714C42.459 64.0424 42.922 64.5594 43.081 65.3804C42.561 65.5964 42.3909 66.1614 42.1989 66.7024C42.1359 67.1084 42.746 66.8404 42.787 67.1434C42.49 68.4644 44.3529 69.5574 43.9619 70.9614C43.6879 70.5014 43.588 69.8664 43.227 69.4924C42.647 69.8904 42.118 70.3404 42.2 71.4024C42.005 71.2114 41.6529 71.2084 41.6129 71.5484C41.9809 71.8644 41.7 72.8324 42.347 72.8704C42.868 72.7554 42.622 71.8724 43.227 71.8424C43.37 72.8424 42.307 73.3694 43.227 73.8994C43.039 73.9074 43.024 74.0874 42.787 74.0454C43.283 75.3614 44.563 76.6744 44.549 78.0104C44.256 77.4224 43.961 76.8374 43.669 76.2484C41.383 76.8434 43.482 79.5234 43.374 80.8014C42.637 80.0214 42.658 78.4824 41.906 77.7174C41.699 78.1474 41.139 78.2244 41.318 79.0394C41.596 79.5764 42.164 78.9094 42.346 79.4794C42.502 80.0274 41.794 79.7114 41.906 80.2134C42.056 80.5514 42.41 80.6864 42.346 81.2414C42.619 81.3824 42.836 80.8024 42.933 81.2414C42.606 82.2034 43.199 82.3544 43.081 83.4444C42.44 83.2944 42.405 83.7484 42.052 83.8844C41.978 84.4984 42.134 84.8794 42.347 85.2064C42.722 85.3644 42.861 84.5744 43.081 85.0594C42.583 86.2154 44.2499 87.6844 44.1079 88.8784C43.7849 88.5174 43.864 87.7524 43.226 87.7034C42.772 88.1784 42.156 88.4924 41.906 89.1724C42.366 89.1034 42.319 89.5414 42.493 89.7594C43.145 89.8184 43.236 88.5514 43.669 88.8784C43.728 89.8234 42.592 90.0074 43.081 90.9344C43.445 91.1254 43.69 90.5034 43.815 90.9344C43.413 91.6204 44.034 92.4454 43.815 92.8434C43.578 92.4394 43.408 91.8804 42.787 92.2564C43.056 93.1384 42.7229 93.3334 42.493 94.0184C42.9749 95.1034 43.841 96.5864 43.815 97.6904C43.432 97.4364 43.753 96.4784 43.081 96.5154C42.768 96.9384 42.3419 97.2454 42.1989 97.8374C42.8299 98.5774 42.825 99.9534 43.815 100.334C43.338 101.204 44.105 101.965 44.254 102.684C43.995 103.111 43.464 103.265 43.373 103.859C43.396 104.914 44.315 105.072 44.254 106.209C43.605 106.098 43.75 106.781 43.373 106.943C43.61 108.421 44.655 109.87 44.401 111.349C44.284 110.928 44.103 110.569 43.961 110.174C43.292 110.337 42.856 110.733 42.64 111.349C42.948 111.579 43.106 111.96 43.521 112.084C43.612 113.252 42.618 113.334 42.051 113.846C42.403 114.867 43.152 116.269 43.08 117.224C42.491 116.588 42.527 115.328 41.758 114.874C41.125 115.016 41.356 115.795 41.464 116.343C41.567 116.633 42.284 116.306 42.346 116.637C41.302 118.382 44.118 120.425 43.668 122.511C43.297 121.167 42.84 119.911 42.198 118.84C41.541 119.552 40.411 120.075 40.728 121.337C41.444 121.264 41.673 119.937 42.198 120.162C42.051 121.069 40.716 121.482 41.171 122.512C42.05 122.511 41.783 121.362 42.64 121.338C41.96 122.456 41.018 123.465 41.906 125.009C40.643 125.753 39.695 127.704 41.024 129.121C40.503 130.411 39.115 130.835 38.674 132.206C38.689 132.754 39.247 132.216 39.261 132.5C38.213 133.208 39.54 134.694 39.115 135.584C38.936 134.979 38.7069 134.426 38.5269 133.821C37.9289 134.104 37.82 134.877 37.5 135.437C37.803 135.769 37.7999 136.409 38.0869 136.759C37.0489 136.59 36.6279 137.945 35.8839 138.521C36.1349 139.349 37.085 140.254 36.912 141.017C36.635 141 36.81 140.532 36.471 140.576C35.75 141.519 34.4079 141.842 34.4149 143.514C34.9509 144.018 35.209 142.411 35.59 142.78C35.374 144.081 33.979 144.203 33.533 145.277C33.377 145.824 34.085 145.509 33.974 146.011C33.276 146.786 32.146 147.665 32.653 148.801C32.176 148.788 32.549 147.926 31.919 148.067C31.142 148.319 30.912 149.117 30.743 149.977C30.365 149.965 30.5879 149.349 30.0089 149.536C29.1159 150.134 30.433 150.931 30.156 151.298C29.571 151.197 29.643 150.441 28.981 150.418C24.668 153.44 19.3349 156.435 14.1469 159.377C17.7759 156.396 22.5469 154.56 26.3369 151.74C26.3079 151.181 26.206 150.694 26.043 150.271C24.852 151.039 23.1529 151.298 22.8109 152.914C22.2339 152.307 21.2679 153.146 21.0479 153.795C20.4689 153.274 20.25 154.351 19.874 153.942C20.093 153.624 20.607 153.6 20.607 153.061C20.245 152.591 20.06 151.944 19.432 151.74C18.665 151.953 18.199 152.465 17.523 152.768C17.526 153.645 17.844 154.21 18.11 154.824C19.006 154.935 18.999 154.146 19.726 154.09C19.136 154.775 17.9779 155.669 17.0819 155.558C17.4399 155.475 17.838 155.432 17.817 154.971C17.693 154.213 17.533 153.492 16.935 153.208C16.913 153.381 16.96 153.625 16.789 153.648C14.757 153.937 12.907 156.408 10.768 156.586C11.659 155.714 13.282 155.575 13.852 154.383C14.96 154.316 15.46 153.641 16.055 153.061C15.945 152.584 15.812 152.129 15.174 152.18C14.664 152.402 15.119 153.152 14.88 153.355C14.469 152.873 14.215 152.984 13.558 153.208C13.356 153.672 13.921 154.094 13.558 154.236C13.548 153.805 13.223 153.691 12.971 153.502C12.119 153.974 11.25 155.207 10.326 155.118C11.113 154.239 12.489 153.951 12.971 152.768C12.636 152.809 12.418 152.732 12.383 152.474C12.851 152.174 12.107 151.512 12.529 151.299C12.788 151.432 12.772 151.84 13.118 151.887C13.262 151.689 13.509 151.594 13.705 151.447C13.594 150.481 13.154 149.843 12.529 149.391C10.646 152.794 8.27495 155.711 5.47995 158.204C4.07995 159.3 0.558961 161.727 2.10196 162.463C3.59596 163.132 5.77097 162.229 7.38797 162.316C8.45297 162.374 9.52 162.799 10.767 162.903C15.273 163.284 19.433 161.807 22.81 160.994C25.644 159.177 27.884 157.49 30.3 155.413C35.343 151.078 38.408 145.48 40.727 138.229C41.396 136.14 42.2169 133.917 42.7849 131.914C43.2639 130.219 43.893 128.372 44.253 126.774C45.961 119.173 46.152 111.168 46.456 102.981C46.656 97.6294 47.65 92.0424 47.339 86.6784C47.212 84.5234 47.2999 82.3434 47.1909 80.2164C46.938 75.3104 47.131 70.5384 46.898 65.8234C46.737 62.5964 46.2149 59.4184 46.1649 55.9834C46.0569 48.9354 44.985 42.4184 44.401 36.1564C44.217 34.1834 44.041 32.4524 43.373 31.1634C43.165 31.8294 43.98 32.8154 43.226 33.0724C43.243 32.2694 42.916 31.0374 42.346 31.3104C42.484 31.4344 42.838 32.0684 42.492 32.1914C41.705 31.6084 41.758 30.1834 40.877 29.6944C40.688 31.0594 41.866 31.8364 41.464 32.9254C40.929 31.8934 40.821 30.4344 39.995 29.6944C40.099 30.0444 40.384 31.0564 39.849 31.1634C39.715 30.1214 39.59 29.0714 38.9669 28.5204C38.929 29.4784 39.1749 30.0594 38.9669 30.5764C38.7339 30.0264 38.601 29.3774 38.38 28.8144C38.055 29.2224 38.213 30.1154 37.352 29.9894C37.088 29.0954 37.826 27.7834 37.205 27.4924C36.715 28.4214 36.9549 30.0804 35.8839 30.4304C35.8049 29.5264 36.6 28.8514 36.471 28.3744C35.988 29.0164 35.2209 30.1524 34.5609 30.1334ZM43.521 101.364C42.873 101.514 42.261 102.984 43.081 103.273C43.358 102.675 44.202 102.087 43.521 101.364ZM35.002 141.166C35.742 140.927 36.0549 140.259 36.1779 139.403C35.4219 137.852 34.414 140.083 35.002 141.166ZM34.267 136.173C34.462 137.202 34.518 138.37 35.15 138.963C35.181 138.849 35.272 138.792 35.443 138.816C35.653 137.776 35.006 136.71 34.267 136.173ZM35.589 29.1054C35.486 28.6474 36.41 28.4734 35.883 28.0774C35.761 28.3084 35.249 28.8964 35.589 29.1054ZM38.232 34.3934C37.845 34.1324 36.676 34.0754 36.911 33.6584C35.884 34.4294 34.305 33.9054 33.239 34.0994C30.541 34.5924 29.0299 38.5654 28.6859 41.2954C29.3779 41.2984 29.543 40.0034 30.301 40.5614C28.988 42.0234 27.1749 43.7654 26.4829 44.9674C27.0039 45.4454 27.163 44.6694 27.659 44.6734C27.846 45.0244 28.1379 45.2714 28.6859 45.2604C29.3179 44.9124 29.652 44.2684 30.301 43.9394C30.787 44.9084 29.2549 45.0154 28.8319 45.5544C29.3109 46.6434 30.654 48.6164 31.917 48.6384C32.684 48.6524 33.113 47.6484 33.826 47.7574C33.612 48.3754 32.7 48.2964 32.504 48.9324C35.159 50.3754 36.858 48.2054 38.82 47.3174C39.05 47.3304 38.9339 47.6914 39.2589 47.6114C40.3709 45.9304 41.249 44.0974 41.169 41.5904C39.9 42.0364 39.348 43.9784 38.084 43.9404C39.384 43.1834 39.8699 41.6134 41.3159 41.0024C41.2299 39.8644 41.2459 38.6244 40.5819 38.0654C40.0759 39.1774 38.886 40.3824 37.939 40.5624C38.895 39.4964 40.897 38.2934 40.142 36.4504C39.425 36.7104 39.649 36.3344 39.114 36.1564C38.329 37.0354 37.795 38.1664 36.763 38.8004C37.75 37.7784 38.602 35.7304 39.701 35.7164C39.206 35.4764 39.073 34.8744 38.379 34.8344C38.125 35.3674 37.419 36.2204 37.057 36.1564C37.411 35.5284 37.96 35.0994 38.232 34.3934ZM27.952 37.0364C28.858 36.7184 29.189 35.8274 29.567 34.9804C29.279 35.0244 29.276 34.7824 29.127 34.6864C29.021 35.7564 28.01 35.9194 27.952 37.0364ZM27.219 38.7984C27.952 38.8414 28.222 37.8214 28.099 37.4774C27.953 37.4774 27.8059 37.4774 27.6599 37.4774C27.5419 37.9464 27.225 38.2174 27.219 38.7984ZM25.896 42.6174C26.613 42.9854 26.625 41.5274 27.51 41.5894C27.275 40.8784 27.362 40.0944 27.658 39.5324C26.532 40.0224 26.281 41.3874 25.896 42.6174ZM41.758 47.0234C41.758 46.8274 41.758 46.6324 41.758 46.4364C41.192 46.3194 41.191 47.1394 41.758 47.0234ZM26.924 47.6104C27.21 47.3274 27.078 46.7114 26.484 46.8764C26.533 47.2184 26.635 47.5094 26.924 47.6104ZM25.602 49.3734C26.239 49.4224 25.964 48.5604 26.63 48.6394C26.505 48.1774 26.3589 47.7374 25.8969 47.6114C25.8609 48.2124 25.398 48.3854 25.309 48.9334C25.948 48.7824 25.576 48.7654 25.602 49.3734ZM27.511 49.0794C27.996 49.0744 28.073 48.6614 28.099 48.1984C27.911 48.1904 27.8959 48.0104 27.6599 48.0514C27.6439 48.4654 27.105 48.6754 27.511 49.0794ZM36.4699 49.2264C37.6179 49.2964 38.3609 48.9614 38.5269 48.0514C37.7659 48.3674 36.8179 48.4974 36.4699 49.2264ZM29.567 49.6674C29.845 49.7004 29.891 49.5014 30.155 49.5204C30.076 48.6694 29.1569 48.6584 28.6859 48.1994C28.8779 48.7894 29.446 49.0044 29.567 49.6674ZM24.427 49.9604C24.226 49.3574 24.782 48.7614 24.427 48.4914C24.275 48.8204 23.824 49.7734 24.427 49.9604ZM27.952 49.9604C28.497 49.8944 28.875 49.0364 28.392 48.7854C28.296 49.2274 27.828 49.2984 27.952 49.9604ZM27.219 50.2544C27.53 49.9244 27.322 49.2864 26.924 49.2264C26.534 49.6034 26.277 50.2924 27.219 50.2544ZM39.408 50.6954C39.695 50.5844 39.627 49.6094 39.26 49.6674C38.948 49.8774 38.795 50.6734 39.408 50.6954ZM26.924 51.8704C27.491 51.6044 27.768 51.0504 27.952 50.4014C27.753 50.3554 27.672 50.1914 27.364 50.2544C27.366 50.9044 26.453 51.2174 26.924 51.8704ZM39.555 52.0174C39.339 51.2044 38.9309 50.5854 38.2329 50.2544C37.6169 50.9344 38.821 51.7684 39.555 52.0174ZM40.289 51.7234C40.338 51.2344 40.715 51.0724 40.583 50.4014C40.395 50.3934 40.379 50.2124 40.143 50.2544C39.994 50.8094 39.259 51.5774 40.289 51.7234ZM39.849 54.8074C38.768 53.1954 37.206 52.0644 35.296 51.2824C34.709 51.9684 34.386 52.9184 33.532 53.3384C33.802 52.4314 34.71 52.1664 34.708 50.9884C33.01 50.2894 33.091 52.5874 31.77 52.7504C32.016 51.9184 32.956 51.7824 32.946 50.6944C32.224 50.1004 31.0629 50.7434 30.4489 51.1344C30.5459 51.5764 31.121 51.5394 31.036 52.1624C30.492 52.1204 30.677 51.3474 30.008 51.4284C29.22 51.9124 28.809 52.7744 27.806 53.0444C27.616 53.4084 28.133 53.7574 27.806 53.7784C27.39 53.9004 27.425 53.5714 27.071 53.6314C26.145 55.0554 25.3599 56.6204 25.4569 59.0664C24.6309 60.2964 22.889 60.6104 22.372 62.1504C23.822 62.0344 23.871 60.5164 25.75 60.8284C26.225 63.0954 28.413 63.6484 30.156 64.6474C30.588 64.0024 31.376 63.7124 32.065 63.3254C31.775 64.0144 30.91 64.1284 30.596 64.7944C31.35 65.6274 33.28 65.0504 33.827 64.3544C33.961 64.7094 34.417 64.7434 34.8549 64.7944C38.577 63.9404 41.661 59.8934 39.702 55.2484C39.598 56.3204 38.679 56.5744 38.086 57.1574C38.757 56.4574 39.098 55.4264 39.849 54.8074ZM23.693 52.8984C24.293 52.7644 24.341 52.0774 24.426 51.4294C23.634 51.3274 23.397 52.3794 23.693 52.8984ZM42.051 53.9264C42.051 53.6814 42.051 53.4364 42.051 53.1924C41.495 52.8914 41.015 52.9654 41.318 51.8704C41.026 51.8684 41.131 51.4704 40.729 51.5774C39.845 52.6724 41.291 53.5434 42.051 53.9264ZM23.399 54.9544C23.641 54.7584 23.377 53.2894 23.252 53.4854C23.459 54.1464 22.808 54.7914 23.399 54.9544ZM24.28 54.2194C24.583 54.2604 24.315 54.8704 24.721 54.8074C24.89 54.6334 24.887 54.2874 24.867 53.9264C24.534 53.8854 24.315 53.9614 24.28 54.2194ZM42.198 59.3604C42.585 58.7174 42.786 57.8914 42.786 56.8634C42.418 56.6764 42.326 56.9384 42.198 56.7174C42.478 55.9074 41.728 54.9644 41.317 54.3674C41.571 56.2584 41.457 58.2934 42.198 59.3604ZM23.253 55.3944C23.85 55.5334 23.732 56.3824 24.28 56.5694C24.551 55.8164 24.542 55.5004 24.28 54.8074C23.744 54.8094 23.493 55.0974 23.253 55.3944ZM23.84 58.3324C23.949 57.7774 24.206 56.8574 23.546 56.7174C23.296 57.1104 23.455 58.1114 23.84 58.3324ZM22.8109 59.3604C23.6019 59.0664 23.3579 57.9134 22.8109 57.4504C23.0089 58.1924 22.3709 58.8624 22.8109 59.3604ZM42.051 62.0034C42.183 61.6444 42.394 61.3664 42.346 60.8284C41.849 60.7334 41.748 61.7844 42.051 62.0034ZM41.758 61.1224C41.852 60.7854 42.384 60.2314 41.611 59.9474C41.276 63.0894 38.432 63.7204 37.939 66.7034C39.032 65.2364 41.241 62.9774 41.758 61.1224ZM25.162 63.6194C25.386 63.4094 25.305 62.8534 24.867 62.8854C24.846 63.2494 24.841 63.5984 25.162 63.6194ZM23.84 64.7944C24.113 64.9354 24.33 64.3544 24.427 64.7944C24.057 64.9514 24.057 65.6654 24.427 65.8224C24.671 65.4304 25.185 65.3074 25.162 64.6484C25.072 64.3944 24.466 64.6594 24.427 64.3544C24.853 64.1194 24.604 63.8054 24.427 63.4734C24.281 63.4734 24.1339 63.4734 23.9879 63.4734C23.7179 63.8204 23.603 64.3224 23.84 64.7944ZM40.877 64.6484C40.959 64.3284 41.396 63.6144 41.171 63.4734C41.027 63.7314 40.497 64.3534 40.877 64.6484ZM25.749 64.3544C25.688 64.0004 26.018 64.0354 25.896 63.6204C25.749 63.6204 25.601 63.6204 25.456 63.6204C25.36 63.9774 25.158 64.3754 25.749 64.3544ZM22.077 63.9134C22.77 64.5494 22.656 65.0904 23.546 65.5294C23.509 64.7344 23.03 64.3814 22.812 63.7664C22.396 63.6454 22.431 63.9734 22.077 63.9134ZM41.023 64.9414C41.901 64.9024 41.276 65.2844 41.611 65.9694C42.256 65.8314 42.2709 65.0634 42.6389 64.6484C42.0939 64.6054 42.24 63.8714 41.611 63.9134C41.624 64.4644 41.073 64.4524 41.023 64.9414ZM25.896 65.2344C26.295 65.1444 26.4699 64.8314 26.4829 64.3534C25.9399 64.3034 25.656 64.9524 25.896 65.2344ZM28.099 65.9694C28.206 65.6354 28.937 65.9264 28.833 65.3824C27.969 65.5134 27.998 64.7484 27.364 64.6484C27.604 65.0924 27.663 65.7194 28.099 65.9694ZM26.19 65.9694C26.52 66.3314 27.5279 65.2084 26.7769 64.9414C26.5289 65.2314 26.037 65.2784 26.19 65.9694ZM21.931 66.5564C23.226 67.5054 23.123 69.4894 24.427 70.6684C24.263 70.0134 26.021 68.2204 24.427 67.8784C24.14 68.3994 24.619 68.4124 24.573 69.0524C24.427 69.0524 24.399 69.1714 24.28 69.2004C24.24 68.8984 23.733 69.0614 23.693 68.7594C23.983 68.4534 23.804 67.7844 23.693 67.4374C23.358 67.2354 23.14 67.8164 23.105 67.4374C23.438 66.5304 22.485 65.7344 22.077 65.0874C21.878 65.8474 22.289 65.7664 21.931 66.5564ZM39.849 66.5564C40.039 66.0124 40.773 66.0114 40.729 65.2344C40.542 65.2264 40.5269 65.0464 40.2899 65.0874C40.1159 65.4604 39.416 66.0664 39.849 66.5564ZM23.84 66.8504C23.734 67.3004 24.0929 67.2824 23.9879 67.7314C24.5399 67.6964 24.56 67.1294 24.722 66.7034C24.413 66.3814 24.068 66.6734 23.84 66.8504ZM25.602 65.3814C25.042 65.5544 24.629 65.8774 24.722 66.7034C25.16 66.4084 25.639 66.1524 25.602 65.3814ZM36.7639 65.8224C37.1519 66.3344 37.65 66.2704 37.792 65.5294C37.353 65.3244 36.8939 65.3554 36.7639 65.8224ZM23.546 66.5564C24.265 66.5844 24.214 65.6994 23.546 65.6754C23.258 65.9504 23.501 66.2134 23.546 66.5564ZM26.776 66.7034C27.282 66.6704 27.417 66.2664 27.51 65.8224C26.942 65.7804 26.45 66.3034 26.776 66.7034ZM39.995 67.2914C40.333 67.2464 40.1589 67.7154 40.4359 67.7314C40.6809 67.0954 41.558 67.0914 41.463 66.1164C40.714 65.7154 40.107 66.5804 39.995 67.2914ZM25.015 67.1444C25.146 67.4544 25.642 67.3994 25.602 67.8784C26.053 67.8794 26.612 67.2334 26.19 66.8504C25.711 67.1874 26.216 66.2164 25.75 66.1164C25.543 66.4964 25.252 66.7944 25.015 67.1444ZM35.149 79.9214C36.395 79.6984 38.894 78.6744 38.966 77.2774C37.614 78.0804 36.449 79.0674 35.149 79.9214ZM39.995 76.2504C40.326 75.3094 40.5529 74.2614 40.4359 72.8724C39.4829 73.2904 38.83 74.0074 37.939 74.4874C38.396 73.3394 40.095 73.2244 40.289 72.1374C40.576 70.5214 37.952 68.7304 36.911 67.8784C35.649 66.8444 34.776 66.2934 33.386 66.4094C33.278 68.0144 30.913 68.1454 30.156 68.6124C30.922 67.7134 32.485 67.6114 33.093 66.5554C31.884 66.3224 31.522 66.6184 30.597 66.8494C28.127 67.4674 26.032 68.7474 25.75 71.5494C25.642 72.6354 25.725 73.5114 25.31 74.0464C24.322 75.3174 21.7939 75.5394 21.6389 77.2774C23.2509 77.2254 24.303 76.6134 25.75 76.3964C26.36 76.7164 26.471 77.5364 26.631 78.3054C27.869 79.0264 28.596 80.2574 30.743 80.0684C31.59 79.4944 32.631 78.3344 33.681 78.4534C32.967 79.2084 31.661 79.3714 31.184 80.3624C35.101 80.5524 37.279 77.7504 39.995 76.2504ZM38.526 67.2914C38.873 67.6504 38.798 67.0714 39.26 67.1444C39.302 66.8094 39.225 66.5924 38.966 66.5564C38.835 66.8174 38.371 66.7434 38.526 67.2914ZM41.171 68.7594C41.335 68.2714 42.434 67.5404 41.758 67.1444C41.505 67.5344 39.99 68.3184 41.171 68.7594ZM39.995 68.1724C40.028 67.6494 39.784 67.4044 39.261 67.4384C39.227 67.9614 39.473 68.2054 39.995 68.1724ZM21.931 69.9344C22.079 69.6914 22.554 69.7754 22.812 69.6414C22.958 68.5824 22.202 68.8074 22.518 67.8794C22.301 67.8024 22.148 67.6624 21.931 67.5854C22.13 68.4744 21.587 69.3894 21.931 69.9344ZM41.905 70.2294C42.231 69.7714 42.711 69.4694 42.932 68.9074C42.838 68.4634 42.703 68.0604 42.198 68.0264C41.917 68.5704 40.865 69.7014 41.905 70.2294ZM23.253 69.7884C21.807 69.8924 23.049 71.4984 23.546 71.8444C24.311 71.3224 23.409 70.3234 23.253 69.7884ZM21.783 74.1944C22.439 73.6584 22.953 73.4974 23.399 73.0194C23.356 72.5004 23.002 73.5384 22.959 73.0194C23.387 71.9704 22.448 71.1054 21.931 70.5224C21.713 71.5774 21.797 72.9334 21.783 74.1944ZM42.198 76.6904C42.539 76.2474 43.034 75.9604 43.08 75.2214C42.633 74.4514 41.056 76.2924 42.198 76.6904ZM40.877 78.0124C41.175 77.8144 41.808 77.1914 41.464 76.8374C41.271 77.2314 41.069 77.6184 40.877 78.0124ZM24.722 79.0414C24.947 78.8174 24.982 78.0344 24.427 78.1594C24.147 78.4364 24.409 78.9224 24.722 79.0414ZM23.105 79.1874C23.566 79.2094 23.61 78.8114 23.693 78.4534C23.494 78.4064 23.412 78.2444 23.105 78.3064C22.905 78.4944 22.905 79.0004 23.105 79.1874ZM22.518 80.2154C22.944 79.7744 22.773 78.7294 22.078 78.5994C21.451 79.1054 21.961 80.0304 22.518 80.2154ZM23.693 80.0684C24.218 80.1534 24.138 79.6334 24.133 79.1874C23.987 79.1874 23.839 79.1874 23.693 79.1874C23.405 79.4624 23.647 79.7254 23.693 80.0684ZM25.015 79.9214C25.428 79.9424 25.439 79.5624 25.456 79.1874C25.001 79.1634 24.795 79.7044 25.015 79.9214ZM37.352 81.3904C37.168 81.3304 37.052 81.2014 37.058 80.9504C36.705 80.8904 36.739 81.2184 36.325 81.0964C36.796 81.7994 37.7949 81.9764 38.5269 82.4184C39.2749 81.9904 39.8449 81.3874 40.2899 80.6554C40.0699 80.6304 39.748 80.7084 39.703 80.5094C40.099 80.3674 40.411 80.1414 40.437 79.6284C39.151 79.3914 38.521 81.0264 37.352 81.3904ZM26.924 80.5094C27.19 80.2584 26.879 79.9324 26.484 79.9224C26.545 80.2024 26.537 80.5544 26.924 80.5094ZM23.253 81.2434C23.805 81.1054 23.522 79.9864 22.959 80.0684C22.612 80.4464 22.671 81.0834 23.253 81.2434ZM26.19 81.6844C26.182 81.4324 26.303 81.3074 26.484 81.2434C26.31 80.7324 26.214 80.1414 25.602 80.0684C25.026 80.5404 25.61 81.4924 26.19 81.6844ZM24.427 80.9504C24.49 80.6714 24.743 80.5814 24.722 80.2164C24.574 80.2164 24.427 80.2164 24.281 80.2164C24.236 80.5584 23.967 80.8484 24.427 80.9504ZM39.114 83.3004C39.548 81.9694 41.139 81.8334 41.171 80.5094C40.622 81.4444 38.549 82.2054 39.114 83.3004ZM27.364 81.8314C27.885 81.8144 27.955 81.3454 27.952 80.8034C27.675 80.8364 27.629 80.6384 27.364 80.6564C26.893 81.0274 27.247 81.3124 27.364 81.8314ZM22.518 81.0964C21.851 81.2604 21.636 81.8794 21.638 82.7124C22.453 82.5304 22.0759 83.5474 22.6649 83.5934C22.9629 83.1914 23.473 82.7744 23.105 82.1254C22.691 81.9274 22.738 82.9034 22.517 82.4184C22.944 82.1184 22.813 81.4444 22.518 81.0964ZM25.456 82.7124C25.894 82.3774 25.549 81.1864 24.867 81.0964C24.344 81.5174 24.86 82.5354 25.456 82.7124ZM23.693 82.1254C23.756 81.8454 24.009 81.7564 23.987 81.3904C23.799 81.3824 23.783 81.2024 23.546 81.2434C23.482 81.5704 23.208 82.0404 23.693 82.1254ZM40.728 82.2724C41.309 82.1174 41.947 82.0204 42.05 81.3914C41.206 81.2774 41.168 81.9754 40.728 82.2724ZM26.4829 82.8594C27.0619 82.9474 27.133 82.5304 27.218 82.1254C27.084 81.8654 26.889 81.6704 26.629 81.5374C26.271 81.7954 26.2829 82.4234 26.4829 82.8594ZM24.28 83.7404C25.259 83.7184 24.923 81.9364 23.987 82.1254C23.577 82.6784 24.089 83.3264 24.28 83.7404ZM36.911 83.3004C36.006 82.9844 35.181 84.5184 34.414 84.3274C34.729 83.7134 35.489 83.5424 35.589 82.7124C35.036 82.5794 34.64 82.2914 33.974 82.2714C33.919 83.5394 32.699 84.4204 31.918 84.4744C32.542 83.8264 33.268 83.2794 33.532 82.2714C30.806 81.5734 29.412 83.4214 28.098 84.6214C28.215 84.3464 28.344 84.0824 28.392 83.7404C25.491 85.1954 26.484 90.5464 21.783 90.2024C21.591 90.6584 21.823 90.6214 21.783 91.2304C22.582 91.6594 23.924 90.8204 24.573 91.5234C24.825 93.8674 25.926 95.3614 27.364 96.5174C28.506 96.3354 29.212 94.9394 30.155 95.0494C29.88 95.9974 28.553 95.8944 28.098 96.6644C28.993 97.8274 31.1679 97.7074 32.7979 98.1334C33.6899 97.6054 34.12 96.6154 35.149 96.2244C35.274 97.2314 34.2249 97.0634 34.1209 97.8394C36.8919 97.7714 38.598 95.8554 39.408 94.3154C38.485 95.1064 37.285 96.4014 36.177 96.5184C37.754 95.9704 38.492 93.8704 39.994 93.7274C40.264 93.0674 40.387 92.2604 40.435 91.3774C39.881 91.1304 39.294 91.9544 38.525 91.9644C39.33 90.9954 41.053 90.1994 40.288 88.1454C39.715 88.4034 39.508 89.0284 38.82 89.1734C39.754 88.2944 40.367 86.9504 39.407 85.6484C38.48 85.7004 38.324 86.5244 37.498 86.6764C37.813 86.0624 38.393 85.7104 38.525 84.9144C38.136 84.6184 38.0789 83.9904 37.3499 84.0334C37.1259 84.3974 36.795 84.6534 36.323 84.7674C36.477 84.2364 37.014 84.0874 36.911 83.3004ZM41.317 83.7404C42.171 83.7614 42.219 82.9784 42.492 82.4184C41.896 82.1834 40.86 82.8654 41.317 83.7404ZM25.602 83.7404C25.168 83.1814 25.0079 83.8234 24.5739 84.0344C24.4629 84.5874 24.755 84.7364 24.722 85.2094C25.833 85.2944 25.235 83.6654 26.19 83.5934C26.193 83.1004 26.19 82.6134 25.602 82.7124C25.449 83.1284 25.449 83.3244 25.602 83.7404ZM21.638 84.9154C22.198 84.9384 22.1139 84.3154 22.3709 84.0344C22.0599 83.7574 21.862 83.3684 21.638 83.0054C21.638 83.6424 21.638 84.2784 21.638 84.9154ZM23.253 85.0624C24.31 84.9614 24.066 83.2054 23.253 83.0054C22.923 83.7684 22.677 84.4124 23.253 85.0624ZM39.408 83.1524C39.592 83.8014 40.1199 84.1044 40.4359 84.6214C40.9229 84.5694 41.073 84.1814 41.317 83.8864C40.992 83.7704 40.95 83.3724 40.728 83.1524C40.143 83.6044 39.856 82.7824 39.408 83.1524ZM41.317 86.2364C42.4 86.1284 42.347 84.6434 41.317 84.4744C40.743 84.9354 40.924 85.6824 41.317 86.2364ZM21.638 87.1184C22.524 86.8384 22.282 85.6564 23.106 85.6504C22.994 85.2244 22.875 84.8054 22.518 84.6224C21.935 85.1644 21.487 85.8434 21.638 87.1184ZM24.1339 86.3844C24.7609 86.2544 24.7569 84.7464 23.9879 84.7684C23.6549 85.1114 23.4739 86.2644 24.1339 86.3844ZM23.105 85.9434C22.643 86.7254 21.454 87.4944 21.783 88.5874C22.868 88.4654 24.496 86.7024 23.105 85.9434ZM41.464 87.2654C41.702 87.5164 41.908 87.8004 41.905 88.2944C42.839 88.1184 43.6689 86.4854 42.3449 86.0914C42.1069 86.5374 41.607 86.7244 41.464 87.2654ZM42.051 92.5534C42.373 92.0924 42.948 91.8824 43.08 91.2314C42.489 90.0754 41.441 91.6834 42.051 92.5534ZM21.783 94.0214C22.549 94.1014 22.478 93.3454 22.517 92.7004C22.322 92.7004 22.125 92.7004 21.93 92.7004C21.807 93.0654 21.738 93.4864 21.783 94.0214ZM37.2039 98.5744C38.1209 100.009 40.181 100.298 41.171 101.658C41.458 100.672 42.681 100.623 42.64 99.3084C41.617 99.4124 41.487 100.408 40.437 100.483C40.579 99.4304 42.95 98.9974 41.612 97.8394C40.768 98.3174 40.497 99.3684 39.409 99.6014C39.731 98.3564 41.232 98.2914 41.465 96.9574C40.268 96.6744 39.6209 98.9004 38.5269 98.7204C39.8119 97.2644 41.41 96.1194 42.346 94.3144C40.408 95.5124 39.285 97.5214 37.2039 98.5744ZM21.783 96.2244C23.098 96.5104 23.312 94.5444 22.224 94.4624C21.791 94.7974 21.61 95.7154 21.783 96.2244ZM42.051 96.9584C42.378 96.7464 42.383 96.2124 43.08 96.3714C43.133 95.7304 42.812 95.4634 42.492 95.1964C42.383 95.8564 40.959 96.4084 42.051 96.9584ZM23.253 97.2524C23.462 97.0564 23.462 96.4204 23.253 96.2244C23.106 96.2244 22.959 96.2244 22.812 96.2244C22.741 96.7834 22.875 97.1414 23.253 97.2524ZM21.931 98.8684C22.013 98.6564 22.1599 98.5104 22.3709 98.4274C22.6709 98.6174 22.742 99.0354 23.105 99.1624C23.53 98.6944 23.0539 98.2364 22.6649 98.1344C22.702 97.3634 22.223 97.1084 21.783 96.8124C21.679 97.1384 21.717 98.3914 21.931 98.8684ZM25.309 97.1054C25.239 97.5674 25.518 97.6794 25.602 97.9864C26.135 97.9814 26.074 97.3814 26.484 97.2524C26.05 97.4514 25.574 97.4364 25.309 97.1054ZM23.546 98.1334C24.205 98.3334 24.26 97.5414 23.987 97.2524C23.839 97.2524 23.693 97.2524 23.546 97.2524C23.381 97.7154 23.532 97.5854 23.546 98.1334ZM24.427 99.3094C24.903 99.1964 25.196 98.9024 25.309 98.4274C25.119 98.1764 25.0039 97.8504 24.5739 97.8404C24.2309 98.1694 23.903 98.9304 24.427 99.3094ZM27.219 99.1624C27.369 98.8234 27.723 98.6884 27.659 98.1344C26.38 97.1614 25.116 99.2354 27.219 99.1624ZM27.806 99.6024C28.108 99.3174 28.816 99.4384 28.833 98.8684C28.595 98.1274 27.473 99.3344 27.806 99.6024ZM24.722 99.8964C24.698 100.267 25.066 100.347 24.868 100.63C24.527 100.565 24.476 99.9814 24.135 100.336C24.152 101.054 24.439 101.501 25.016 101.658C25.559 100.831 26.557 100.458 26.778 99.3084C25.864 99.3644 24.804 98.5704 24.722 99.8964ZM22.959 101.511C23.502 101.313 23.441 100.557 23.105 100.189C22.206 100.048 22.139 101.484 22.959 101.511ZM22.2249 99.3094C21.7819 99.5354 21.589 100.174 21.784 100.631C22.464 100.766 22.8369 99.5504 22.2249 99.3094ZM24.1339 100.043C24.0499 99.6374 23.978 99.2194 23.4 99.3094C23.358 99.8404 23.8249 100.308 24.1339 100.043ZM39.261 101.805C38.602 101.929 38.452 102.563 37.792 102.686C38.134 102.293 38.386 101.811 38.526 101.218C38.064 101.044 37.75 100.722 37.2039 100.631C36.4289 100.834 36.436 101.821 35.442 101.805C35.554 101.182 36.412 100.688 36.177 100.19C34.785 100.075 34.38 101.72 33.385 101.512C33.708 100.807 34.6219 100.693 34.7069 99.7494C32.7859 99.2034 32.046 101.618 30.448 101.365C31.094 100.933 31.938 100.702 32.063 99.7494C29.584 99.6054 26.91 101.455 26.042 103.861C24.727 104.339 23.5 104.902 21.782 104.595C21.055 106.2 23.282 106.624 24.426 106.357C25.192 106.817 25.53 107.703 26.336 108.12C26.98 107.686 27.713 107.342 28.392 106.945C27.899 107.675 27.102 108.104 26.336 108.561C26.3 109.478 26.3809 110.278 26.9229 110.617C28.0229 110.15 29.015 108.794 30.155 108.855C29.125 109.636 28.1619 110.486 26.9229 111.059C27.2549 111.754 27.84 112.198 28.392 112.674C29.528 112.096 31.272 111.345 32.21 111.059C31.564 112.175 29.9019 112.276 28.8319 112.968C29.4429 113.336 29.93 113.829 30.741 113.997C31.811 113.5 32.937 113.059 33.972 112.528C33.441 113.27 32.705 113.807 31.476 113.85C32.178 114.812 33.682 114.972 35.294 115.025C36.059 114.162 37.9269 113.66 38.8189 113.409C38.8009 113.686 38.332 113.511 38.378 113.849C39.662 113.567 40.43 111.986 40.581 111.059C40.058 111.469 39.186 112.305 38.672 112.234C39.5 111.349 40.2969 110.432 41.3159 109.737C41.3159 109.296 41.3159 108.855 41.3159 108.415C40.2949 108.522 39.625 109.756 38.965 109.737C39.679 108.433 41.9829 107.968 41.3159 105.771C40.6379 105.783 40.174 106.778 39.701 106.506C40.354 105.872 41.6309 104.59 40.5819 103.568C40.1249 104.403 38.878 105.167 38.231 105.33C39.234 104.617 41.09 102.789 39.261 101.805ZM42.492 104.155C43.025 103.4 41.983 103.151 42.051 102.392C42.447 101.759 43.131 101.415 43.08 100.335C42.25 100.573 41.784 101.139 42.051 102.097C41.753 102.016 41.764 101.656 41.464 101.951C41.985 102.508 41.912 103.657 42.492 104.155ZM23.84 102.98C21.566 101.173 25.521 100.819 23.84 102.98V102.98ZM21.931 103.42C22.441 103.538 22.495 103.201 22.959 103.273C22.672 102.581 22.429 101.845 21.783 101.511C21.577 102.175 21.695 102.828 21.931 103.42ZM43.373 106.505C44.275 105.86 43.455 104.661 42.786 104.302C42.565 104.916 42.949 106.06 43.373 106.505ZM22.3709 109.442C22.7689 109.534 22.737 110.056 23.253 110.029C23.378 109.568 23.808 109.409 23.84 108.854C23.657 108.547 23.412 108.302 23.106 108.12C22.97 108.67 22.5069 108.893 22.3709 109.442ZM42.933 109.295C43.616 109.413 43.427 108.23 43.081 108.121C42.852 108.334 42.95 108.873 42.933 109.295ZM23.546 110.764C23.731 110.825 23.847 110.953 23.84 111.204C25.15 111.347 25.0609 109.516 24.1339 109.295C23.9799 109.828 23.443 109.977 23.546 110.764ZM42.786 109.589C42.786 109.883 42.786 110.176 42.786 110.471C43.306 110.447 43.909 109.462 43.373 109.295C43.241 109.79 43.045 109.313 42.786 109.589ZM22.2249 111.792C22.6059 111.635 22.431 110.921 22.812 110.764C22.659 110.28 22.357 109.946 21.931 109.736C22.093 110.356 21.5849 111.648 22.2249 111.792ZM24.427 111.939C24.592 111.97 24.657 112.103 24.722 112.233C25.666 112.236 25.645 111.372 25.309 110.764C25.163 110.764 25.015 110.764 24.868 110.764C24.959 111.393 24.39 111.363 24.427 111.939ZM23.546 112.379C23.514 112.102 23.712 112.055 23.693 111.792C23.149 110.494 21.933 112.57 23.546 112.379ZM41.758 113.408C42.413 113.219 42.996 112.551 42.64 111.792C42.493 111.792 42.3459 111.792 42.1989 111.792C42.0649 112.308 41.362 112.83 41.758 113.408ZM22.2249 114.143C22.4409 113.771 22.744 113.486 22.812 112.967C22.63 112.659 22.384 112.415 22.078 112.233C21.96 112.658 21.6729 113.961 22.2249 114.143ZM25.456 113.408C26.016 113.331 26.205 112.884 26.189 112.233C25.456 112.2 25.203 112.874 25.456 113.408ZM23.84 113.554C24.446 113.631 24.587 112.76 24.28 112.379C24.134 112.379 23.987 112.379 23.84 112.379C23.526 112.774 23.526 113.16 23.84 113.554ZM24.427 114.436C24.875 114.345 25.178 114.109 25.162 113.555C24.973 113.547 24.959 113.367 24.722 113.409C24.506 113.788 24.18 113.954 24.427 114.436ZM26.3369 114.583C27.1079 114.668 27.322 114.198 27.364 113.555C26.538 113.065 25.6499 113.952 26.3369 114.583ZM40.728 114.583C41.18 114.553 41.757 113.728 41.17 113.555C41.103 113.978 40.65 114.014 40.728 114.583ZM23.546 114.289C23.528 113.915 23.332 113.719 22.959 113.702C22.538 114.201 23.216 114.878 23.546 114.289ZM27.07 115.317C27.63 115.959 28.5429 115.242 28.6859 114.582C28.3859 114.539 28.398 114.185 28.098 114.142C27.737 114.515 27.34 114.852 27.07 115.317ZM24.867 114.73C24.927 115.21 24.995 115.679 25.456 115.758C25.855 115.865 25.751 115.466 26.043 115.464C26.195 114.346 25.394 114.067 24.867 114.73ZM21.931 116.785C22.663 117.149 23.4019 117.331 24.1339 117.079C24.1039 116.325 23.149 116.498 23.253 115.61C22.909 115.485 22.62 116.124 22.518 115.757C22.824 115.378 22.6439 114.543 22.2249 114.435C21.7919 114.885 21.959 115.933 21.931 116.785ZM37.499 116.198C37.429 116.659 37.894 116.586 37.939 116.932C38.803 116.328 39.7249 115.781 40.4359 115.023C40.2419 115.021 40.301 114.765 40.142 114.73C39.462 115.42 38.547 115.877 37.499 116.198ZM28.833 115.464C28.937 115.552 29.871 115.639 29.861 115.17C29.606 114.783 28.842 115.117 28.833 115.464ZM25.309 117.08C24.948 116.755 24.862 116.156 24.722 115.611C24.525 115.611 24.3289 115.611 24.1339 115.611C24.0919 116.475 24.811 117.227 25.309 117.08ZM25.896 116.639C26.43 116.586 26.723 116.292 26.776 115.758C26.196 115.765 25.903 116.059 25.896 116.639ZM40.289 118.548C40.93 118.058 41.952 116.49 40.583 116.051C39.797 116.54 39.023 117.906 40.289 118.548ZM37.058 117.814C35.327 117.649 34.964 119.635 33.828 119.577C34.37 118.749 35.327 118.334 35.59 117.226C35.048 117.084 34.7459 116.699 33.9749 116.785C33.0249 117.745 31.4569 118.868 30.0089 118.842C31.0439 118.163 32.475 117.881 32.947 116.639C32.292 116.719 31.622 116.784 31.037 116.932C30.787 118.445 28.7239 118.926 27.6599 119.136C28.6459 118.459 29.863 118.01 30.597 117.08C28.196 116.316 26.777 118.985 24.868 119.136C24.077 119.198 22.9779 118.186 22.2249 118.842C22.2249 120.017 24.002 120.49 24.281 121.632C24.49 122.491 23.9979 123.099 23.9879 123.836C23.9279 127.853 26.66 129.126 28.981 130.885C29.874 130.358 31.163 129.446 32.065 129.417C31.408 130.032 30.706 130.603 29.715 130.885C31.13 132.951 33.274 130.138 34.267 130.004C33.979 130.584 32.8369 130.97 33.0919 131.619C36.6569 130.629 38.878 128.298 39.114 123.982C37.749 124.281 37.06 125.258 35.883 125.744C36.865 124.301 39.907 123.774 38.674 121.044C37.521 121.457 36.764 122.269 35.736 122.807C36.503 121.761 37.8169 121.264 38.5269 120.163C38.3959 119.413 38.019 118.909 37.646 118.401C37.425 119.502 36.071 119.469 35.296 120.016C35.899 119.299 36.894 118.971 37.058 117.814ZM39.114 117.814C39.304 117.232 38.631 117.514 38.821 116.932C38.673 116.932 38.526 116.932 38.38 116.932C38.267 117.585 38.865 117.523 39.114 117.814ZM40.289 119.87C40.972 119.979 41.59 118.848 41.758 117.961C41.57 117.953 41.554 117.773 41.318 117.815C41.12 118.645 40.06 118.614 40.289 119.87ZM21.783 124.863C22.54 124.95 22.5959 124.173 22.3709 123.688C21.6649 123.549 21.482 124.455 21.783 124.863ZM40.728 125.304C41.224 125.212 41.406 124.804 41.463 124.276C41.316 124.08 41.324 123.729 41.023 123.689C40.731 124.033 40.685 124.624 40.728 125.304ZM21.049 126.186C21.133 125.879 21.413 125.766 21.343 125.305C20.849 125.118 20.736 126.049 21.049 126.186ZM22.959 126.479C22.998 125.9 22.901 125.459 22.518 125.304C22.24 125.656 22.567 126.342 22.959 126.479ZM22.3709 127.36C20.0989 126.94 22.8409 125.316 22.3709 127.36V127.36ZM20.168 128.682C20.334 128.957 20.3429 129.389 20.9019 129.269C20.9019 128.877 20.9019 128.485 20.9019 128.094C21.2559 128.033 21.22 128.362 21.637 128.24C21.61 127.581 21.432 127.073 20.754 127.065C20.688 127.732 20.157 127.938 20.168 128.682ZM22.6649 128.535C23.4599 128.754 23.372 127.636 22.6649 127.801C22.6649 128.045 22.6649 128.291 22.6649 128.535ZM23.253 129.563C23.448 129.563 23.644 129.563 23.84 129.563C23.882 129.229 23.805 129.011 23.546 128.976C23.544 129.268 23.146 129.163 23.253 129.563ZM38.086 130.444C38.192 130.878 38.126 131.481 38.526 131.619C39.046 130.718 40.157 130.411 40.142 128.976C39.116 129.124 39.285 130.468 38.086 130.444ZM21.196 130.297C21.465 130.108 21.842 129.639 21.49 129.269C21.343 129.269 21.196 129.269 21.049 129.269C20.849 129.467 20.769 130.295 21.196 130.297ZM25.602 130.444C25.84 130.099 25.296 129.555 24.722 129.563C24.644 130.228 24.936 130.523 25.602 130.444ZM19.58 130.592C19.89 130.722 20.015 131.038 20.463 131.032C20.813 130.537 20.408 129.784 19.875 129.71C19.67 129.898 19.783 130.403 19.58 130.592ZM22.518 130.444C23.187 130.59 23.2429 129.695 22.6649 129.71C22.542 129.881 22.472 130.104 22.518 130.444ZM21.49 131.326C22.045 131.343 22.2789 131.038 22.3709 130.592C21.8429 130.309 21.389 130.584 21.49 131.326ZM36.617 133.234C37.429 132.851 38.561 131.89 37.645 131.031C37.109 131.632 35.767 132.106 36.617 133.234ZM20.755 133.234C20.491 132.63 19.719 131.874 18.994 132.207C19.606 133.254 20.852 134.843 19.875 136.173C20.721 136.231 21.069 135.023 21.638 135.291C21.192 136.265 20.334 136.827 19.141 137.053C18.024 138.737 18.552 140.159 19.287 142.194C20.075 144.374 21.016 146.17 23.106 146.453C23.558 146.415 23.7659 146.134 24.1339 146.012C24.8729 148.248 28.148 146.408 29.274 145.866C29.165 146.295 28.4819 146.15 28.5399 146.747C30.5199 146.523 31.6379 145.438 32.2119 143.809C31.5199 143.758 30.9429 144.589 30.3029 144.103C32.2599 143.513 33.602 142.31 33.387 139.55C32.511 139.359 32.5319 140.064 31.7719 139.99C32.1069 139.296 33.237 139.398 33.387 138.522C32.399 136.288 30.6189 132.082 27.6599 132.353C26.6539 132.446 26.048 133.54 25.015 133.381C25.476 132.815 26.546 132.856 26.63 131.912C25.838 131.889 26.015 131.812 25.309 131.766C24.835 132.026 24.5519 133.096 23.9879 132.794C24.0989 132.368 24.6839 132.413 24.5739 131.766C23.0349 131.991 22.526 133.244 20.755 133.234ZM34.5609 135.144C35.5729 134.884 36.024 134.062 36.469 133.234C35.848 133.27 36.211 132.319 35.588 132.353C35.392 133.47 33.6679 133.812 34.5609 135.144ZM37.2039 134.116C37.584 134.381 38.593 133.401 38.086 132.795C37.772 133.172 36.9459 133.634 37.2039 134.116ZM32.505 133.234C32.521 133.758 32.573 134.243 32.946 134.409C33.563 134.096 34.019 133.622 34.414 133.088C33.71 132.691 33.423 133.419 32.505 133.234ZM35.296 136.613C36.101 136.195 36.8799 135.75 36.7639 134.41C35.9849 134.293 34.431 135.495 35.296 136.613ZM34.267 135.731C34.378 135.399 34.09 134.397 33.386 134.409C33.184 134.835 33.608 135.7 34.267 135.731ZM35.735 137.788C36.73 137.559 37.056 136.661 37.351 135.731C37.163 135.723 37.149 135.543 36.911 135.585C36.727 136.457 35.041 136.518 35.735 137.788ZM17.23 140.725C16.998 140.125 17.3219 138.969 16.7899 138.669C16.2589 139.259 16.566 140.482 17.23 140.725ZM16.7899 142.782C17.3969 142.144 16.639 140.939 15.908 140.725C15.455 141.617 16.2279 142.428 16.7899 142.782ZM15.175 150.125C15.473 150.082 15.567 149.83 15.762 149.684C15.728 149.034 15.441 148.636 14.881 148.51C14.693 148.518 14.677 148.698 14.441 148.657C14.384 149.446 14.578 149.988 15.175 150.125ZM16.056 143.516C16.059 142.974 15.991 142.504 15.469 142.488C14.591 144.254 13.992 146.299 13.119 148.069C13.623 148.201 13.758 148.704 14.441 148.657C14.571 148.346 14.887 148.222 14.88 147.776C14.799 147.417 14.311 147.462 14.44 146.894C14.506 146.52 15.075 146.648 15.174 146.306C15.368 145.569 14.2259 145.122 15.0269 144.691C15.3559 144.928 15.615 145.757 16.054 145.425C16.024 144.717 15.336 143.896 15.467 143.516C15.49 143.881 15.966 143.559 16.056 143.516ZM17.378 143.956C17.44 143.676 17.798 143.69 17.672 143.222C17.484 143.215 17.469 143.033 17.231 143.075C16.968 143.453 16.864 143.781 17.378 143.956ZM17.818 145.131C18.287 145.257 18.272 144.9 18.551 144.837C18.524 144.424 18.296 144.211 17.818 144.25C17.686 144.681 17.686 144.701 17.818 145.131ZM18.111 147.481C18.659 147.393 18.832 146.929 19.433 146.894C19.415 146.227 19.164 145.793 18.7 145.572C18.024 145.898 18.542 146.758 18.111 147.481ZM16.203 146.747C16.664 146.768 16.7069 146.37 16.7899 146.012C16.6189 145.889 16.396 145.818 16.056 145.866C16.036 146.228 16.034 146.573 16.203 146.747ZM32.065 146.894C32.372 147.169 33.343 146.276 32.947 145.866C32.827 146.383 32.05 146.242 32.065 146.894ZM15.321 147.628C15.948 147.801 15.911 146.467 15.469 146.453C15.206 146.649 15.013 147.303 15.321 147.628ZM16.497 147.334C16.682 147.785 16.72 148.385 17.23 148.509C18.005 148.163 17.5259 147.097 16.9359 146.893C16.8549 147.106 16.707 147.252 16.497 147.334ZM21.049 147.775C21.387 147.394 21.066 146.781 20.463 146.893C20.402 147.442 20.579 147.755 21.049 147.775ZM30.008 147.775C29.939 148.237 30.218 148.348 30.302 148.656C31.034 148.41 31.616 148.013 31.771 147.187C30.841 147.041 30.748 147.732 30.008 147.775ZM18.846 148.95C19.514 148.932 19.865 148.597 20.168 148.215C20.243 146.558 18.14 147.91 18.846 148.95ZM15.615 148.363C16.046 148.47 16.246 148.808 16.497 149.096C16.98 148.747 16.519 147.881 15.908 147.775C15.832 147.992 15.691 148.145 15.615 148.363ZM22.8109 148.95C23.1359 148.581 22.6429 148.141 22.3709 147.922C22.2399 148.096 22.2499 149.019 22.8109 148.95ZM29.421 149.537C29.46 149.331 29.743 149.37 29.861 149.244C30.022 148.594 29.612 148.514 29.567 148.069C28.076 147.778 28.581 149.427 29.421 149.537ZM22.077 149.684C22.444 149.096 21.919 148.33 21.343 148.216C21.042 148.739 21.331 149.74 22.077 149.684ZM14.44 150.859C14.332 149.645 13.582 149.073 12.971 148.362C13.352 149.304 13.619 150.358 14.44 150.859ZM25.749 149.537C25.819 148.655 24.622 147.913 23.693 148.95C23.444 149.598 24.216 149.979 23.839 150.271C23.341 150.182 23.604 149.331 22.958 149.39C22.799 150.076 23.543 150.346 23.104 150.859C22.578 150.797 22.783 150.005 22.223 149.978C21.873 150.577 22.05 151.909 22.663 152.034C22.927 151.067 25.659 150.674 25.749 149.537ZM26.19 149.244C26.826 149.146 27.398 148.983 27.511 148.363C27.119 148.363 26.7289 148.363 26.3369 148.363C26.1669 148.536 26.17 148.881 26.19 149.244ZM16.644 149.537C16.645 149.928 16.587 150.376 16.7899 150.565C17.3019 150.098 18.16 149.976 18.405 149.243C18.303 148.953 18.013 148.851 17.672 148.802C17.559 149.6 17.216 149.357 16.644 149.537ZM19.141 149.831C19.014 150.173 19.654 150.464 19.287 150.565C19.091 150.468 19.014 150.251 18.995 149.978C18.652 149.978 18.308 149.978 17.967 149.978C18.367 150.662 17.391 150.613 17.084 151.006C17.04 151.541 17.108 151.963 17.231 152.328C18.728 151.67 20.084 150.871 21.197 149.831C20.866 148.478 19.732 148.914 19.141 149.831ZM26.4829 149.831C26.5229 150.33 26.369 151.022 26.629 151.299C29.32 150.879 28.9379 147.718 26.4829 149.831ZM15.615 151.153C15.81 151.153 16.007 151.153 16.203 151.153C16.519 150.838 16.277 150.333 16.056 150.125C15.957 150.125 15.86 150.125 15.762 150.125C15.54 150.333 15.299 150.838 15.615 151.153ZM20.168 151.447C20.018 152.177 20.608 152.737 21.196 153.062C23.472 152.105 20.593 149.393 20.168 151.447ZM14.586 152.034C15 152.007 15.213 151.778 15.175 151.299C14.976 151.253 14.894 151.091 14.586 151.153C14.387 151.341 14.387 151.847 14.586 152.034ZM16.056 151.593C16.084 152.153 16.264 152.559 16.7899 152.622C16.7719 152.1 16.897 151.438 16.349 151.447C16.316 151.561 16.227 151.617 16.056 151.593ZM13.266 152.769C13.876 152.851 14.237 152.198 14 151.888C13.416 151.842 13.204 152.169 13.266 152.769Z" fill="#604C3F"/>
<path fill-rule="evenodd" clip-rule="evenodd" d="M36.764 34.686C35.918 35.161 35.409 35.973 34.562 36.448C35.361 36.004 35.513 34.196 36.764 34.686Z" fill="#604C3F"/>
<path fill-rule="evenodd" clip-rule="evenodd" d="M39.849 44.085C40.097 45.256 37.013 46.705 36.325 46.582C37.888 46.139 38.535 44.779 39.849 44.085Z" fill="#604C3F"/>
<path fill-rule="evenodd" clip-rule="evenodd" d="M39.261 59.6533C38 61.6723 36.32 63.2723 34.121 64.3533C35.968 62.9213 37.632 61.3053 39.261 59.6533Z" fill="#604C3F"/>
<path fill-rule="evenodd" clip-rule="evenodd" d="M28.686 62.0039C28.329 62.2829 28.069 62.6599 27.364 62.5909C27.669 62.2599 28.179 62.1329 28.686 62.0039Z" fill="#604C3F"/>
<path fill-rule="evenodd" clip-rule="evenodd" d="M30.449 77.2783C30.466 78.0803 28.665 78.3323 27.511 78.4533C28.061 77.9463 29.685 77.9743 30.449 77.2783Z" fill="#604C3F"/>
<path fill-rule="evenodd" clip-rule="evenodd" d="M27.07 123.835C26.873 124.325 25.848 125.254 24.867 125.45C25.341 124.652 26.379 124.417 27.07 123.835Z" fill="#604C3F"/>
<path fill-rule="evenodd" clip-rule="evenodd" d="M42.051 125.599C42.284 125.905 42.53 126.197 42.64 126.626C42.031 126.696 42.249 125.94 42.051 125.599Z" fill="#604C3F"/>
<path fill-rule="evenodd" clip-rule="evenodd" d="M28.393 126.187C27.664 126.827 26.91 127.445 26.043 127.949C26.435 126.971 27.382 126.546 28.393 126.187Z" fill="#604C3F"/>
<path fill-rule="evenodd" clip-rule="evenodd" d="M25.896 143.956C25.477 144.627 23.428 145.684 22.371 145.719C22.947 144.533 25.1 144.922 25.896 143.956Z" fill="#604C3F"/>
</svg>
