<svg width="85" height="131" viewBox="0 0 85 131" fill="none" xmlns="http://www.w3.org/2000/svg">
<path fill-rule="evenodd" clip-rule="evenodd" d="M83.155 62.941C81.568 58.288 79.167 55.402 76.199 52.133C75.34 51.189 74.428 50.25 73.342 49.401C72.288 48.575 69.295 46.453 68.871 46.171C67.676 45.379 66.765 44.511 65.517 43.811C64.242 43.097 63.74 42.591 62.661 41.576C62.011 40.965 61.14 40.441 60.673 39.961C59.933 39.201 59.323 38.089 58.563 37.229C57.821 36.392 56.95 35.855 56.451 34.994C54.753 32.059 56.082 26.742 56.202 23.316C56.583 21.923 58.467 18.956 58.313 18.224C57.415 17.407 56.332 18.392 55.458 18.1C56.251 12.675 53.937 8.25799 52.974 4.18799C52.817 3.52899 53.107 2.12299 51.98 2.07599C51.185 4.71899 50.963 7.933 50.49 10.896C49.352 10.376 49.822 8.25102 48.254 8.16302C48.224 9.71103 48.669 12.217 48.254 13.877C47.863 13.606 47.584 13.223 47.137 13.008C45.669 9.484 45.22 5.70401 45.522 1.08301C45.213 1.10301 45.137 0.886984 44.9 0.833984C44.754 0.894984 44.619 0.968008 44.528 1.08301C43.646 2.11401 43.769 5.563 43.659 6.797C43.537 8.161 42.769 9.24199 42.541 10.524C42.138 12.787 41.321 14.697 41.796 16.983C42.068 18.298 42.574 19.954 43.038 21.33C43.305 22.124 43.838 22.778 44.031 23.567C44.86 26.93 44.394 29.816 43.038 32.882C42.225 33.976 40.927 34.184 39.684 34.87C38.864 35.323 38.245 35.998 37.573 36.235C35.584 36.938 33.269 37.615 31.238 37.85C29.498 38.051 28.157 38.075 26.89 38.471C22.888 39.722 18.845 42.039 15.835 44.061C13.638 45.537 12.243 47.325 10.618 49.278C8.497 51.826 6.53903 54.726 5.77303 58.345C4.38603 62.754 3.40602 67.324 3.28902 71.884C3.25002 73.415 3.15802 74.491 3.28902 75.983C3.68402 80.468 5.134 83.864 6.519 87.288C8.28 91.64 14.017 99.653 14.219 99.709C17.148 102.826 21.059 105.623 24.157 108.156C22.027 107.103 17.226 108.329 15.339 106.789C14.987 107.102 14.681 107.458 14.593 108.032C17.734 109.094 21.552 108.561 24.406 109.522C25.165 109.778 26.135 109.975 26.517 110.639C22.829 109.473 18.988 110.131 15.461 111.137C14.148 111.511 12.866 112.561 11.61 112.626C10.155 112.704 8.22301 111.467 6.64101 111.137C6.03701 111.01 5.25404 111.02 4.65504 111.137C3.57004 111.346 1.58604 111.663 1.17604 112.999C2.73304 113.595 4.06903 111.954 6.02003 112.131C7.97903 112.531 9.52201 113.948 11.487 113.869C12.879 113.812 14.554 112.78 16.206 112.254C20.051 111.029 23.668 110.566 27.759 112.131C26.42 112.82 25.305 113.733 24.156 114.614C23.856 115.349 23.631 116.159 22.915 116.477C21.909 116.2 21.644 115.166 20.679 114.987C18.781 114.636 18.025 116.142 17.076 117.222C13.657 114.324 7.48599 115.111 3.03999 115.732C2.80499 116.16 2.49904 116.515 2.54304 117.222C3.28604 117.586 3.80904 116.86 4.53004 116.601C7.25504 115.622 13.562 115.934 15.213 117.47C9.88903 116.432 6.93901 119.437 1.92201 118.837C1.63101 119.478 0.390008 119.761 0.680008 120.575C1.42201 121.304 2.24404 120.86 3.28804 120.948C7.06304 121.267 12.156 122.437 15.338 120.824C16.227 120.372 16.771 119.4 17.573 118.837C20.568 119.242 22.834 121.566 25.771 120.575C26.647 120.28 27.637 118.506 28.503 118.464C29.672 118.407 31.841 121.178 32.727 121.818C33.627 122.47 34.812 122.665 33.845 123.681C31.31 122.125 28.133 121.902 25.771 123.06C24.713 123.579 24.236 125.121 23.287 125.544C21.547 126.322 19.645 124.74 17.945 124.302C15.001 123.543 11.87 123.633 9.49904 124.179C9.50804 124.7 8.91002 125.081 9.25002 125.544C11.131 125.295 12.518 124.753 14.468 124.924C15.715 125.032 17.114 125.395 18.319 125.793C19.537 126.194 20.714 126.931 21.797 127.034C24.1 127.257 24.481 125.384 26.145 124.426C28.539 123.046 30.99 123.415 33.225 124.799C32.479 126.231 30.726 127.528 29.002 128.153C24.91 129.632 19.486 128.456 14.717 128.028C14.567 128.457 13.974 128.443 14.097 129.147C17.419 129.745 20.854 130.047 24.034 130.264C29.003 130.601 32.559 127.663 34.717 125.295C41.282 127.716 47.01 122.263 45.524 115.854C46.853 116.263 47.62 115.783 48.629 115.979C50.683 116.377 51.248 118.405 52.356 119.581C53.717 121.029 55.758 121.096 58.194 120.823C58.942 120.739 60.188 120.926 60.305 120.078C58.838 118.975 57.344 120.537 55.088 120.078C52.475 118.583 51.428 115.026 47.884 114.612C51.005 113.758 53.92 112.699 56.826 111.63C58.292 110.321 60.747 110.002 62.044 108.524C65.161 106.839 67.903 104.778 70.614 102.686C73.174 100.328 75.422 97.362 77.446 94.116C78.939 91.721 80.579 89.24 81.545 86.663C81.932 85.633 83.441 81.063 83.657 79.707C84.487 74.495 83.805 68.926 83.155 62.941ZM5.27199 120.083C8.51099 119.209 11.848 117.809 15.833 118.712C13.935 121.318 8.27799 120.504 5.27199 120.083ZM38.814 115.36H39.182C39.755 115.488 39.551 116.399 40.553 116.105C40.44 119.141 38.256 120.105 36.2 121.198C36.494 119.164 37.541 116.829 38.814 115.36ZM18.319 117.47C18.793 115.963 20.925 115.541 21.67 117.101C21.098 117.718 19.17 117.929 18.319 117.47ZM20.925 118.84C22.702 117.83 24.45 117.83 27.011 117.967C26.242 120.144 22.725 119.759 20.925 118.84ZM24.524 116.724C25.225 114.118 27.907 113.478 30.114 112.377C31.394 113.5 33.195 114.102 35.086 114.614C34.513 115.646 33.73 117.679 32.103 117.845C30.183 118.042 26.86 116.151 24.524 116.724ZM34.709 121.326C33.391 120.903 32.607 119.947 31.733 119.088C33.171 118.87 34.196 118.359 35.085 117.101C35.664 116.272 35.755 114.336 37.442 114.985C36.6 117.168 35.537 119.127 34.709 121.326ZM34.958 124.181C35.01 123.526 35.394 123.209 35.583 122.69C38.558 121.311 41.367 119.782 41.789 115.858C42.534 115.767 43.416 115.828 43.905 115.481C47.023 120.181 40.365 127.487 34.958 124.181Z" fill="#F19549"/>
<path fill-rule="evenodd" clip-rule="evenodd" d="M24.809 130.092C24.558 130.092 24.303 130.084 24.043 130.067C21.294 129.879 17.71 129.587 14.275 128.978C14.272 128.763 14.379 128.677 14.538 128.547C14.64 128.464 14.751 128.373 14.832 128.241C15.797 128.33 16.788 128.448 17.788 128.568C19.889 128.819 22.059 129.078 24.111 129.078C26.076 129.078 27.696 128.838 29.066 128.343C30.963 127.654 32.664 126.3 33.398 124.893L33.484 124.728L33.326 124.63C31.963 123.786 30.597 123.359 29.267 123.359C28.156 123.359 27.071 123.66 26.04 124.255C25.424 124.609 24.987 125.073 24.564 125.522C23.89 126.238 23.308 126.855 22.157 126.855C22.047 126.855 21.931 126.849 21.811 126.837C21.163 126.775 20.472 126.473 19.739 126.151C19.298 125.958 18.841 125.757 18.377 125.604C17.367 125.27 15.87 124.847 14.481 124.726C14.217 124.703 13.963 124.693 13.717 124.693C12.704 124.693 11.829 124.867 10.904 125.051C10.41 125.15 9.903 125.251 9.354 125.328C9.314 125.208 9.36798 125.083 9.48498 124.855C9.56298 124.703 9.65 124.534 9.682 124.342C10.847 124.086 12.145 123.951 13.448 123.951C14.994 123.951 16.489 124.134 17.891 124.495C18.409 124.629 18.947 124.872 19.514 125.13C20.412 125.536 21.339 125.956 22.263 125.956C22.659 125.956 23.019 125.881 23.365 125.727C23.881 125.497 24.262 124.979 24.63 124.478C24.99 123.988 25.363 123.481 25.856 123.24C26.805 122.774 27.922 122.528 29.086 122.528C30.695 122.528 32.347 122.999 33.737 123.852L33.875 123.936L33.986 123.819C34.305 123.483 34.435 123.201 34.395 122.93C34.335 122.532 33.933 122.304 33.466 122.041C33.262 121.926 33.043 121.803 32.84 121.655C32.575 121.465 32.181 121.063 31.724 120.599C30.645 119.503 29.423 118.262 28.535 118.262C27.94 118.29 27.424 118.832 26.877 119.405C26.475 119.828 26.058 120.264 25.703 120.384C25.237 120.54 24.777 120.617 24.295 120.617C23.113 120.617 22.008 120.153 20.838 119.663C19.82 119.236 18.766 118.795 17.595 118.637L17.518 118.626L17.454 118.671C17.088 118.929 16.774 119.265 16.472 119.59C16.082 120.009 15.714 120.404 15.243 120.644C14.167 121.19 12.764 121.456 10.953 121.456C9.298 121.456 7.55299 121.241 5.86499 121.033C4.97199 120.923 4.10602 120.816 3.30102 120.748C3.19402 120.739 3.087 120.735 2.984 120.735C2.75501 120.735 2.53702 120.754 2.32702 120.771C2.14502 120.787 1.97002 120.801 1.80102 120.801C1.37002 120.801 1.08499 120.694 0.817989 120.431C0.743989 120.164 0.995012 119.952 1.41601 119.632C1.64501 119.458 1.88203 119.278 2.03003 119.049C2.43803 119.093 2.84999 119.115 3.25799 119.115C5.05299 119.115 6.62398 118.688 8.14398 118.277C9.64798 117.869 11.203 117.447 12.966 117.447C13.703 117.447 14.425 117.518 15.172 117.664L15.859 117.798L15.347 117.321C14.17 116.226 11.07 115.838 8.77099 115.838C7.04399 115.838 5.47199 116.047 4.46099 116.41C4.20599 116.502 3.98202 116.641 3.76702 116.776C3.48502 116.953 3.21802 117.12 2.95202 117.12C2.88102 117.12 2.809 117.108 2.737 117.084C2.737 116.633 2.90101 116.358 3.08801 116.044L3.16302 115.914C5.25802 115.622 7.47897 115.342 9.63397 115.342C12.942 115.342 15.333 116.006 16.947 117.372L17.096 117.499L17.226 117.351C17.388 117.166 17.544 116.97 17.702 116.772C18.373 115.929 19.006 115.132 20.139 115.132C20.297 115.132 20.464 115.148 20.643 115.18C21.073 115.26 21.343 115.534 21.658 115.85C21.967 116.163 22.318 116.517 22.863 116.666L22.931 116.686L22.996 116.657C23.693 116.347 23.965 115.65 24.226 114.976L24.322 114.736L24.717 114.431C25.692 113.677 26.698 112.899 27.851 112.305L28.248 112.1L27.83 111.941C26.055 111.262 24.304 110.932 22.476 110.932C20.574 110.932 18.562 111.29 16.146 112.06C15.53 112.256 14.912 112.521 14.314 112.778C13.291 113.218 12.324 113.632 11.48 113.666L11.33 113.669C10.293 113.669 9.37301 113.245 8.39801 112.795C7.66201 112.455 6.89997 112.103 6.06097 111.932C5.93197 111.919 5.828 111.914 5.724 111.914C4.892 111.914 4.15902 112.214 3.51202 112.478C2.94702 112.709 2.413 112.926 1.888 112.926C1.733 112.926 1.584 112.907 1.44 112.87C1.916 111.857 3.54501 111.548 4.54101 111.358L4.69397 111.329C4.98797 111.271 5.325 111.241 5.669 111.241C6.008 111.241 6.32999 111.271 6.60199 111.328C7.22599 111.459 7.92898 111.743 8.60998 112.019C9.58998 112.415 10.602 112.825 11.477 112.825L11.623 112.822C12.398 112.781 13.178 112.388 13.932 112.008C14.453 111.746 14.991 111.475 15.518 111.324C18.174 110.566 20.331 110.214 22.305 110.214C23.8 110.214 25.158 110.413 26.458 110.824L26.948 110.979L26.692 110.534C26.332 109.909 25.542 109.663 24.845 109.446L24.47 109.327C23.055 108.851 21.449 108.738 19.749 108.619C18.086 108.502 16.367 108.382 14.824 107.891C14.919 107.523 15.124 107.262 15.351 107.043C16.462 107.827 18.334 107.84 20.147 107.853C21.69 107.864 23.147 107.874 24.068 108.33L24.28 108C23.485 107.351 22.638 106.685 21.767 105.999C19.192 103.974 16.53 101.879 14.361 99.5709L14.323 99.53L14.268 99.515C14.013 99.268 8.45498 91.5489 6.70098 87.2109L6.5 86.715C5.201 83.514 3.857 80.2029 3.484 75.9639C3.383 74.8209 3.41598 73.914 3.45398 72.864L3.48498 71.887C3.58998 67.774 4.40002 63.363 5.96002 58.403C6.77202 54.568 8.956 51.5809 10.768 49.4039L11.161 48.931C12.595 47.2 13.949 45.5649 15.943 44.2249C18.644 42.4109 22.745 39.9729 26.946 38.6599C27.851 38.3769 28.813 38.2869 29.927 38.1819C30.346 38.1429 30.787 38.101 31.258 38.046C33.015 37.843 35.161 37.296 37.636 36.421C38.043 36.277 38.419 35.9949 38.817 35.6949C39.119 35.4679 39.43 35.2339 39.778 35.0419C40.164 34.8289 40.554 34.664 40.933 34.502C41.794 34.137 42.607 33.7909 43.196 32.9979C44.699 29.6139 45.009 26.7009 44.223 23.5159C44.112 23.0609 43.893 22.6489 43.682 22.2509C43.514 21.9349 43.34 21.6059 43.225 21.2629C42.896 20.2859 42.297 18.424 41.99 16.939C41.649 15.301 41.994 13.8439 42.358 12.3019C42.492 11.7359 42.629 11.159 42.736 10.556C42.835 9.99997 43.038 9.48795 43.252 8.94495C43.515 8.27995 43.787 7.59195 43.856 6.81195C43.88 6.53695 43.894 6.15091 43.909 5.70691C43.96 4.21491 44.037 1.95996 44.679 1.20996C44.729 1.14696 44.8 1.09592 44.909 1.04492C44.945 1.06192 44.98 1.08595 45.021 1.11395C45.092 1.16395 45.183 1.22695 45.308 1.25995C45.023 5.94795 45.545 9.70791 46.951 13.0819L46.98 13.1519L47.048 13.1849C47.291 13.3009 47.483 13.4759 47.686 13.6619C47.831 13.7939 47.975 13.925 48.138 14.038L48.376 14.2029L48.446 13.9229C48.728 12.7919 48.624 11.2949 48.532 9.97394C48.492 9.40194 48.454 8.85692 48.451 8.38892C49.025 8.52092 49.21 9.04693 49.42 9.64893C49.619 10.2199 49.826 10.8109 50.405 11.0759L50.644 11.1849L50.685 10.9249C50.831 10.0189 50.952 9.08796 51.073 8.15796C51.336 6.14996 51.606 4.07595 52.123 2.29095C52.604 2.39295 52.67 2.88694 52.71 3.60394C52.724 3.83794 52.737 4.05893 52.778 4.23193C53.036 5.31993 53.383 6.41595 53.752 7.57495C54.729 10.648 55.835 14.1309 55.259 18.0679L55.236 18.2339L55.394 18.2869C55.528 18.3319 55.669 18.353 55.828 18.353C56.104 18.353 56.388 18.285 56.661 18.218C56.923 18.155 57.193 18.0889 57.444 18.0889C57.71 18.0889 57.927 18.1629 58.123 18.3209C58.128 18.7289 57.556 19.8759 57.091 20.8069C56.644 21.7029 56.182 22.6299 56.009 23.2589C55.971 24.2059 55.855 25.2399 55.732 26.3359C55.388 29.4019 54.998 32.876 56.279 35.09C56.6 35.645 57.057 36.0609 57.541 36.5009C57.832 36.7669 58.133 37.0399 58.415 37.3569C58.761 37.7479 59.081 38.202 59.392 38.64C59.752 39.151 60.124 39.6779 60.532 40.0959C60.78 40.3499 61.127 40.6099 61.494 40.8839C61.848 41.1489 62.214 41.4229 62.527 41.7169L62.721 41.9009C63.678 42.8029 64.204 43.2999 65.422 43.9819C66.15 44.3889 66.752 44.8489 67.391 45.3359C67.829 45.6699 68.273 46.0079 68.764 46.3339C69.166 46.6009 72.151 48.7159 73.222 49.5549C74.344 50.4319 75.284 51.4159 76.055 52.2639C79.006 55.5149 81.39 58.3689 82.969 63.0009L83.058 63.8599C83.669 69.4589 84.246 74.7479 83.458 79.6729C83.247 80.9879 81.763 85.507 81.355 86.59C80.505 88.859 79.122 91.0629 77.783 93.1959L77.274 94.0089C75.038 97.5939 72.814 100.384 70.476 102.537C67.749 104.641 65.034 106.677 61.947 108.347C61.221 109.155 60.187 109.614 59.188 110.057C58.304 110.45 57.389 110.856 56.691 111.479C54.222 112.372 51.069 113.531 47.829 114.417L47.858 114.809C49.939 115.052 51.107 116.396 52.344 117.819C53.126 118.718 53.935 119.649 54.986 120.251C55.346 120.334 55.644 120.364 55.957 120.364C56.639 120.364 57.255 120.217 57.799 120.087C58.255 119.978 58.687 119.874 59.085 119.874C59.46 119.874 59.778 119.967 60.077 120.162C59.941 120.524 59.418 120.57 58.71 120.593C58.518 120.6 58.332 120.606 58.169 120.623C57.406 120.709 56.794 120.748 56.239 120.749C54.502 120.749 53.347 120.346 52.499 119.443C52.178 119.101 51.903 118.685 51.612 118.244C50.942 117.227 50.183 116.076 48.665 115.781C48.466 115.742 48.275 115.728 48.088 115.728C47.853 115.728 47.623 115.751 47.388 115.775C47.153 115.798 46.912 115.823 46.652 115.823C46.281 115.823 45.94 115.771 45.581 115.661L45.249 115.559L45.327 115.897C45.907 118.397 45.376 120.92 43.869 122.816C42.423 124.635 40.241 125.679 37.884 125.68C36.861 125.68 35.819 125.487 34.785 125.106L34.658 125.059L34.568 125.159C31.584 128.434 28.303 130.092 24.809 130.092ZM43.786 115.32C43.477 115.54 42.925 115.574 42.39 115.607C42.179 115.62 41.968 115.633 41.768 115.657L41.61 115.676L41.592 115.834C41.191 119.585 38.594 121.075 35.496 122.506L35.42 122.541L35.392 122.621C35.327 122.805 35.235 122.96 35.143 123.115C34.971 123.407 34.793 123.708 34.76 124.165L34.751 124.287L34.854 124.35C35.789 124.921 36.796 125.21 37.85 125.21C40.29 125.21 42.8 123.587 44.096 121.171C45.182 119.147 45.171 117.033 44.068 115.372L43.954 115.2L43.786 115.32ZM36.822 114.655C35.922 114.655 35.573 115.516 35.293 116.209C35.174 116.505 35.06 116.785 34.92 116.983C34.127 118.112 33.194 118.664 31.701 118.887L31.305 118.947L31.964 119.606C32.706 120.36 33.473 121.14 34.651 121.512L34.832 121.57L34.899 121.392C35.325 120.262 35.822 119.174 36.303 118.122C36.755 117.135 37.221 116.115 37.63 115.059L37.702 114.872L37.516 114.8C37.267 114.704 37.032 114.655 36.822 114.655ZM38.659 115.229C37.363 116.728 36.296 119.116 36.004 121.17L35.949 121.56L36.662 121.182C38.62 120.151 40.644 119.085 40.75 116.112L40.76 115.835L40.493 115.914C40.38 115.947 40.281 115.964 40.2 115.964C39.991 115.964 39.92 115.862 39.789 115.65C39.676 115.465 39.535 115.236 39.227 115.166L38.718 115.161L38.659 115.229ZM13.198 118.219C10.927 118.219 8.86097 118.828 6.86297 119.417C6.31097 119.58 5.76397 119.741 5.21997 119.887L5.24401 120.279C6.66701 120.479 8.53597 120.742 10.371 120.742H10.372C13.218 120.742 15.057 120.117 15.992 118.832L16.17 118.586L15.875 118.519C14.993 118.316 14.117 118.219 13.198 118.219ZM25.114 117.706C23.272 117.706 22.03 117.983 20.826 118.664L20.503 118.847L20.834 119.016C21.746 119.484 22.984 119.774 24.064 119.774C25.689 119.774 26.803 119.157 27.199 118.035L27.288 117.783L27.021 117.768C26.332 117.732 25.702 117.706 25.114 117.706ZM25.503 116.816C26.575 116.816 27.774 117.154 28.933 117.48C29.989 117.777 30.985 118.058 31.806 118.058C31.915 118.058 32.022 118.053 32.124 118.042C33.628 117.888 34.423 116.334 35.002 115.2C35.094 115.022 35.179 114.856 35.259 114.71L35.382 114.487L35.137 114.42C33.456 113.962 31.554 113.377 30.248 112.228L30.147 112.139L30.027 112.2C29.608 112.408 29.173 112.599 28.739 112.791C26.864 113.615 24.926 114.469 24.333 116.674L24.245 117.001L24.574 116.92C24.852 116.852 25.165 116.816 25.503 116.816ZM20.153 115.914C19.236 115.914 18.402 116.529 18.125 117.41L18.075 117.569L18.221 117.647C18.546 117.82 19.027 117.915 19.575 117.915C20.378 117.915 21.381 117.704 21.816 117.233L21.908 117.133L21.849 117.011C21.517 116.315 20.898 115.914 20.153 115.914ZM31.086 111.892C31.403 112.239 32.551 113.368 34.004 113.368C34.169 113.368 34.334 113.353 34.501 113.321L34.967 113.231L34.577 112.96C33.733 112.373 32.219 111.732 31.269 111.56L30.684 111.454L31.086 111.892ZM46.041 108.463L45.992 108.517C45.228 109.352 44.349 110.106 43.499 110.835C42.795 111.439 42.066 112.064 41.401 112.734L40.86 113.281L41.599 113.067C43.025 112.654 44.398 112.058 44.821 110.518C44.935 110.45 45.052 110.385 45.17 110.32C45.746 110.001 46.401 109.638 46.584 108.82L46.595 108.769L46.581 108.719C46.529 108.546 46.391 108.447 46.199 108.447H46.185L46.041 108.463ZM36.625 110.793C36.74 111.562 37.094 112.136 37.705 112.545L37.984 112.733L38.015 112.398C38.094 111.533 37.641 111.173 37.242 110.856C37.146 110.78 37.05 110.704 36.961 110.62L36.539 110.217L36.625 110.793ZM52.631 107.729C52.362 107.868 51.919 108.083 51.375 108.346C49.145 109.426 45.414 111.235 44.64 112.138L44.326 112.503L44.806 112.467C47.433 112.273 52.153 109.336 52.898 108.004L53.222 107.425L52.631 107.729ZM40.164 111.434C39.935 111.449 39.758 111.527 39.639 111.665C39.513 111.811 39.46 112.015 39.481 112.27L39.498 112.479L39.706 112.453C40.185 112.393 40.302 111.949 40.372 111.685L40.443 111.416L40.164 111.434ZM29.048 110.294C29.13 110.888 29.522 111.238 30.212 111.335L30.469 111.371L30.438 111.112C30.373 110.583 29.961 110.39 29.63 110.237C29.533 110.192 29.438 110.148 29.35 110.095L28.992 109.879L29.048 110.294ZM55.305 109.543C54.653 109.543 54.076 109.912 53.518 110.27C53.261 110.434 53.011 110.595 52.766 110.706L52.162 110.978L52.815 111.086C52.894 111.099 52.981 111.105 53.075 111.105C53.875 111.105 55.134 110.62 55.734 109.898L55.949 109.638L55.618 109.573C55.513 109.553 55.408 109.543 55.305 109.543ZM46.59 105.443C46.466 105.647 45.419 106.553 44.495 107.353C42.655 108.947 41.438 110.021 41.306 110.414L41.185 110.774L41.55 110.671C42.128 110.508 46.719 106.961 46.998 105.815C47.054 105.588 46.959 105.457 46.897 105.4L46.774 105.284C47.483 104.759 48.348 103.761 49.203 102.657C48.54 103.594 47.955 104.536 47.705 105.434L47.529 106.064L48.027 105.64C49.748 104.174 51.427 101.589 52.913 99.0499C52.161 100.525 51.522 101.91 51.326 102.898L51.676 103.065C53.227 101.211 55.936 97.117 57.913 94.127C59.156 92.247 60.331 90.471 60.524 90.314L60.639 90.2839L60.618 90.1899C60.73 89.7279 61.732 87.8279 62.141 87.5809L62.208 87.541L62.229 87.4659C62.449 86.7009 63.205 84.7349 63.889 83.0699C62.69 86.8739 61.067 91.2179 57.909 94.9819L57.854 95.0479L57.863 95.1329C57.897 95.4349 57.791 95.5769 57.657 95.7579C57.537 95.9189 57.402 96.1009 57.372 96.3889C56.526 97.2459 55.284 98.8559 53.851 100.714C51.457 103.817 48.479 107.677 46.971 108.316L47.045 108.701C48.905 108.701 52.705 104.372 56.31 99.9769C56.247 100.107 56.189 100.241 56.136 100.381L55.983 100.788L56.392 100.639C56.752 100.508 57.006 100.285 57.23 100.086C57.505 99.8439 57.722 99.6519 58.071 99.6519L58.252 99.6699L58.385 99.4949C58.39 99.4699 58.394 99.444 58.395 99.421L58.494 99.4839L58.603 99.3209C59.298 98.2849 60.096 97.3239 60.946 96.3439L61.271 96.309C61.055 96.585 60.843 96.8639 60.634 97.1379C59.871 98.1369 59.084 99.1689 58.172 100.06C57.524 100.693 56.68 101.217 55.862 101.724C54.422 102.616 53.06 103.461 52.655 104.867L52.503 105.395L52.959 105.088C55.068 103.668 56.613 102.519 57.822 101.471C58.012 101.306 58.151 101.092 58.286 100.884C58.409 100.696 58.535 100.5 58.698 100.349C59.198 99.8779 59.746 99.4399 60.327 98.976C61.197 98.28 62.098 97.5609 62.811 96.7289C63.478 95.9549 63.994 95.061 64.488 94.189C64.475 94.23 64.286 94.963 64.286 94.963L64.782 94.5109C68.972 90.6929 71.43 84.9629 72.299 76.9949C73.689 73.1019 73.105 65.6059 71.153 62.4589L71.038 62.5109C70.813 61.1379 70.413 59.9009 69.514 58.9479L69.303 58.7249L69.22 58.9219C69.206 58.8809 69.193 58.84 69.18 58.799C68.819 57.6969 68.445 56.5559 67.639 55.8309L67.421 55.6349L67.338 55.8569C66.89 54.6509 66.244 53.514 64.993 52.825L64.362 52.4769L64.723 53.0999C65.465 54.3799 66.159 55.7479 66.829 57.0709C66.839 57.0919 66.849 57.1109 66.859 57.1309C66.809 57.0819 66.758 57.0389 66.705 56.9999L66.425 57.262C65.263 54.557 64.029 51.7999 61.518 50.3419L61.508 50.3359C61.576 49.8609 61.271 49.6939 61.083 49.5919C61.023 49.5589 60.967 49.529 60.927 49.494L60.592 49.2059C60.791 49.1709 60.995 49.0719 60.997 48.7759L60.998 48.658L60.894 48.5999C60.614 48.4439 60.312 48.1459 60.021 47.8579C59.551 47.3929 59.108 46.955 58.638 46.955L58.532 46.9619C58.361 46.9879 58.248 47.0599 58.197 47.1749C58.19 47.1919 58.184 47.209 58.18 47.226C57.881 47.008 57.687 46.665 57.468 46.28C57.205 45.818 56.908 45.2959 56.364 44.9199C55.88 43.6289 55.121 42.515 54.317 41.335C52.95 39.327 51.535 37.2499 51.43 34.1119L51.423 33.9189H50.686L50.661 34.0889C50.234 36.8509 51.613 39.081 52.829 41.049C53.109 41.5009 53.377 41.936 53.619 42.364C53.559 42.314 53.485 42.2689 53.387 42.2469L53.065 42.1749C52.764 41.2469 52.279 40.5039 51.808 39.7819C51.022 38.5779 50.279 37.44 50.314 35.489C50.257 35.26 50.117 35.1569 49.929 35.1569L49.836 35.1639L49.697 35.1849L49.669 35.322C49.082 38.225 50.402 39.762 51.68 41.249C52.092 41.728 52.481 42.181 52.803 42.676L53.157 42.52C53.405 43.382 53.966 43.923 54.509 44.447C55.042 44.962 55.545 45.4479 55.761 46.2219L55.782 46.296L55.847 46.3369C56.718 46.8879 57.412 47.3769 57.754 48.2299L57.796 48.3339L57.906 48.3519C58.447 48.4439 58.763 48.9059 59.099 49.3959C59.463 49.9269 59.839 50.4769 60.527 50.4769C60.582 50.4769 60.638 50.473 60.697 50.465L61.011 50.424C61.064 50.4729 61.121 50.5179 61.184 50.5579L61.221 50.5829C61.264 51.0089 61.435 51.298 61.6 51.577C61.692 51.733 61.785 51.889 61.85 52.072L61.858 52.0949C61.681 51.8899 61.501 51.69 61.314 51.494L61.097 51.265L60.983 51.559C60.752 52.151 61.262 52.7689 61.635 53.2209L61.757 53.3699C63.781 57.2669 66.214 61.9419 66.607 67.5309C66.543 67.3039 66.464 67.0739 66.384 66.8409C66.166 66.1999 65.942 65.538 65.965 64.804C65.774 64.185 65.596 63.6309 65.418 63.0789C64.08 58.9199 62.697 54.618 59.947 51.741L59.523 51.2979L59.604 51.9059C59.612 51.9639 59.621 52.0199 59.631 52.0759L59.6 52.0239L59.275 52.1479C59.093 51.7829 58.905 51.426 58.706 51.088L59.009 51.431L58.882 50.7249C58.776 50.1389 58.497 49.6779 58.057 49.3569L57.723 49.1149L57.739 49.5269C57.743 49.6109 57.752 49.689 57.765 49.762C57.267 49.204 56.695 48.7829 56.009 48.5809L55.776 48.5129C55.822 48.4719 55.859 48.418 55.886 48.356L55.949 48.2119L55.822 48.1169C55.784 48.0879 55.746 48.0459 55.706 48.0009C55.609 47.8919 55.477 47.7419 55.236 47.7059L55.083 47.684L55.022 47.8259C54.946 48.0079 54.963 48.204 55.071 48.366C55.173 48.52 55.34 48.616 55.507 48.616C55.536 48.616 55.566 48.6129 55.593 48.6069L55.788 48.8879C58.624 52.9739 60.31 58.076 60.937 64.478C60.919 64.476 60.789 64.4739 60.789 64.4739L60.654 64.5789C60.547 64.7099 60.587 64.8989 60.599 64.9619C60.637 65.7739 60.557 66.6029 60.456 67.5209C60.381 68.2079 60.247 68.9719 60.073 69.7299C60.79 65.2379 60.248 59.5059 58.49 55.7689L58.223 55.8259C58.029 54.3429 57.71 52.9389 56.686 52.2139L56.406 52.015L56.397 51.869C56.342 50.938 56.006 50.3139 55.398 50.0099C55.328 49.0849 54.824 48.6049 54.336 48.1379C54.174 47.9829 54.011 47.828 53.866 47.655L53.53 47.8649C53.823 48.5129 54.149 49.1409 54.513 49.7589C54.453 49.7089 54.393 49.6589 54.331 49.6129L53.866 49.2559L53.909 49.418C53.724 49.012 53.511 48.6399 53.299 48.2719C52.947 47.6619 52.615 47.084 52.414 46.364L52.377 46.231L52.24 46.218C52.162 46.211 52.035 46.1069 51.933 46.0239C51.787 45.9059 51.639 45.7839 51.466 45.7589L51.425 45.4009C51.342 44.6609 50.885 44.018 50.402 43.338C50.019 42.8 49.624 42.243 49.43 41.637L49.386 41.4969H48.519L48.695 41.7979C48.873 42.1029 49.046 42.4109 49.218 42.7209C49.768 43.7049 50.335 44.7239 51.078 45.5569L51.274 45.778C51.213 45.799 51.144 45.8389 51.079 45.9119L50.971 46.0319L51.066 46.163C52.411 48.023 53.35 49.7059 54.023 51.4589L54.382 51.3809C54.407 51.4999 54.434 51.6189 54.459 51.7379C54.613 52.4529 54.772 53.1889 54.965 53.8859C54.782 54.0049 54.667 54.212 54.659 54.452C54.65 54.733 54.79 54.9869 55.014 55.1199L55.003 55.2159C54.95 55.6989 55.084 56.3999 55.253 57.2859C55.751 59.894 56.622 64.4659 53.673 69.8519C54.85 66.8049 55.396 63.7219 55.342 63.1649C55.312 62.4019 55.152 61.3969 54.983 60.3329C54.809 59.2339 54.611 57.9889 54.533 56.8369C54.376 54.5199 53.636 51.807 52.647 49.926L52.273 50.049C52.273 50.049 52.546 51.7439 52.588 51.9969C52.588 51.9969 52.407 52.149 52.386 52.166C52.33 52.002 52.258 51.8419 52.092 51.7199L51.901 51.5809L51.818 51.7469C51.81 51.4829 51.804 51.1999 51.801 50.8859L51.424 50.7949C51.256 51.1149 51.143 51.4869 51.062 51.8879L51.089 51.3759L50.697 51.8849C50.426 52.2369 50.301 52.721 50.218 53.231C50.155 53.144 50.052 53.0849 49.905 53.0529L49.802 53.0309L49.725 53.103C49.558 53.259 49.493 53.5559 49.576 53.7789C49.613 53.8789 49.678 53.957 49.761 54.007L49.691 54.1639C49.094 55.4979 47.509 59.041 47.253 59.306L47.199 59.3419L47.191 59.3909C47.016 59.8649 46.861 60.358 46.706 60.851C46.346 61.995 45.973 63.1799 45.352 64.0649L45.315 64.119L45.316 64.1829C45.325 64.7209 45.135 64.9589 44.896 65.2609C44.856 65.3099 44.817 65.3609 44.777 65.4119C45.179 63.4949 46.028 61.599 46.85 59.762C48.336 56.442 49.873 53.0079 48.94 49.2269L48.634 49.236C48.66 49.009 48.682 48.779 48.696 48.543L48.304 48.476C47.238 52.259 45.968 55.8709 44.524 59.2339C44.826 57.5269 45.411 55.9299 46.022 54.2599C46.933 51.771 47.877 49.1969 47.828 46.1669L47.82 45.6849L47.484 46.0309C46.578 46.9649 46.271 48.346 45.974 49.684C45.96 49.749 45.946 49.8129 45.931 49.8759C45.939 49.5209 45.876 49.188 45.679 48.9109L45.543 48.7219C45.657 48.4949 45.776 48.274 45.895 48.054C46.36 47.192 46.798 46.3769 46.833 45.4319L46.852 44.8879L46.486 45.2899C45.774 46.0689 43.327 49.398 41.708 51.601C41.656 51.672 41.604 51.743 41.554 51.812C41.577 51.727 41.598 51.6389 41.614 51.5469L41.658 51.2999L41.407 51.312C40.679 51.347 40.465 51.919 40.292 52.379C40.239 52.519 40.188 52.6579 40.122 52.7839L40.117 52.793L40.063 52.7849L39.999 52.9089C39.831 53.2289 39.648 53.534 39.466 53.84C38.968 54.673 38.453 55.534 38.24 56.692L38.228 56.752L38.252 56.8079C38.273 56.8579 38.298 56.896 38.324 56.924C37.956 57.0719 37.699 57.269 37.615 57.947C37.606 58.035 37.606 58.1399 37.678 58.2199L37.738 58.2849C37.738 58.2849 37.854 58.2939 37.858 58.2939C37.83 58.3669 37.749 58.6109 37.734 58.6519L37.366 58.7059C37.351 58.9729 37.348 59.228 37.431 59.426C37.3 59.535 37.175 59.6069 37.062 59.6719C36.661 59.9009 36.418 60.0999 36.429 60.9119C36.394 60.9499 36.157 62.3739 36.155 62.3879C36.107 62.7259 36.072 63.1559 36.04 63.5649C36.017 63.8489 35.995 64.1219 35.97 64.3449C35.886 64.6849 35.815 65.0189 35.755 65.3519C35.994 62.7869 36.379 60.337 36.891 58.142L36.953 57.882L36.686 57.8969C36.648 57.8989 36.612 57.9029 36.577 57.9089C36.949 57.1839 37.301 56.4549 37.646 55.7399C38.863 53.2199 40.012 50.8409 41.811 48.9169C42.036 48.6759 42.347 48.4659 42.649 48.2629C42.916 48.0829 43.191 47.897 43.417 47.684C44.31 46.846 45.193 45.9559 45.341 45.0869L45.384 44.8319L45.126 44.8549C43.876 44.9639 43.399 45.6409 42.895 46.3569C42.74 46.5779 42.578 46.8079 42.383 47.0359C41.818 47.6979 40.971 48.2819 40.223 48.7979C39.617 49.2159 39.043 49.611 38.664 50.0099C38.233 50.4609 37.903 51.0059 37.598 51.5549L37.314 51.562C36.634 51.5779 36.077 52.0769 35.805 52.3729C33.909 54.4379 32.969 57.594 32.06 60.645L31.911 61.1469C31.034 62.7289 30.425 65.4629 30.411 67.9119C30.386 67.9339 30.28 67.9959 30.157 68.0679C29.95 68.1899 29.667 68.356 29.665 68.78C29.991 69.711 29.917 70.134 29.823 70.668C29.78 70.91 29.733 71.1799 29.719 71.5139C29.675 71.5319 29.636 71.554 29.601 71.58C29.658 71.277 29.693 70.9669 29.695 70.6469C29.696 70.2529 29.687 69.8639 29.677 69.4769C29.651 68.4349 29.626 67.451 29.815 66.46C30.152 64.689 30.74 63.006 31.309 61.379C31.726 60.185 32.121 59.0569 32.42 57.9009L32.437 57.838L32.414 57.7769C32.343 57.5919 32.229 57.554 32.147 57.554C32.142 57.554 32.137 57.554 32.132 57.554C32.147 57.535 32.162 57.5159 32.177 57.4959C32.424 57.1839 32.702 56.833 32.679 56.197C32.707 56.18 32.742 56.1649 32.777 56.1489C32.932 56.0789 33.192 55.961 33.171 55.601C33.195 55.437 33.299 55.3199 33.431 55.1719C33.583 54.9999 33.767 54.7929 33.795 54.4379C33.976 54.3939 34.068 54.261 34.129 54.176C34.189 54.092 34.205 54.076 34.24 54.072L34.39 54.0529L34.413 53.903C34.49 53.377 34.865 52.975 35.228 52.588C35.654 52.1329 36.094 51.6619 36.029 50.9979L35.993 50.6299L35.705 50.8619C35.542 50.9939 35.381 51.1279 35.222 51.2639C35.499 50.9509 35.777 50.6389 36.052 50.3289C36.654 49.6529 37.254 48.9769 37.844 48.2899L38.32 47.7369L37.629 47.9699C36.583 48.3229 35.875 49.013 35.191 49.679C34.616 50.239 34.071 50.77 33.338 51.119C33.36 50.957 33.347 50.7809 33.289 50.5869L33.213 50.3279L32.987 50.476C28.181 53.641 25.078 59.6549 23.504 68.8569C23.498 68.8489 23.493 68.8419 23.49 68.8369C23.392 68.6869 23.462 68.3639 23.524 68.0809C23.565 67.8889 23.605 67.701 23.609 67.541C23.669 65.03 24.076 63.5679 24.711 62.0219C25.077 61.1329 25.389 60.256 25.69 59.408C26.307 57.671 26.889 56.0299 27.795 54.7319C29.675 52.0379 32.099 50.2379 34.664 48.3319C35.578 47.6519 36.523 46.95 37.446 46.202L37.251 45.8589C35.06 46.6709 33.073 48.233 31.152 49.744C30.572 50.201 29.975 50.6699 29.384 51.1089C30.444 50.0069 31.728 49.1009 32.976 48.2199C34.105 47.4229 35.271 46.5999 36.275 45.6339C36.309 45.6359 36.342 45.637 36.375 45.637C36.822 45.637 37.059 45.4039 37.248 45.2169C37.342 45.1239 37.431 45.0369 37.538 44.9819C37.646 45.1209 37.747 45.265 37.969 45.265L38.114 45.2459L38.203 45.2249L38.245 45.1439C38.316 45.0049 38.399 44.8769 38.492 44.7589C38.433 44.9159 38.437 45.0799 38.502 45.2479L38.576 45.4429L38.767 45.3599C39.502 45.0429 40.021 44.609 40.353 44.033L40.633 43.5449L39.914 43.8179C39.649 43.9159 39.353 44.0249 39.097 44.1649C39.289 44.0119 39.495 43.866 39.706 43.718L40.568 43.0949L39.923 43.114C39.137 43.137 38.586 43.3939 38.055 43.6429C37.62 43.8459 37.209 44.0379 36.673 44.1089L36.619 44.116L36.576 44.1489C34.924 45.4309 33.031 46.5309 31.2 47.5939C28.569 49.1219 25.849 50.701 23.761 52.864C22.014 54.979 20.592 57.52 18.999 61.374L18.914 61.577C17.806 64.26 16.848 66.575 17.372 69.559C17.17 70.115 16.993 71.049 16.846 71.973C16.833 71.508 16.722 71.0509 16.327 70.7349L16.162 70.601C16.242 69.961 16.392 69.395 16.722 69.038L16.779 68.9769L16.776 68.8939C16.751 68.2279 16.851 67.6979 16.959 67.1359C17.064 66.5779 17.174 66.0019 17.148 65.2919C18.844 59.0319 21.607 53.9839 25.351 50.3449H25.875L25.935 50.2549C26.685 49.1249 27.903 48.4819 29.192 47.7999C30.216 47.2589 31.275 46.6989 32.065 45.8729H32.639L32.67 45.7109C32.716 45.4699 33.003 45.305 33.281 45.145C33.622 44.949 34.047 44.705 33.908 44.249L33.853 44.0679L33.669 44.1129C30.974 44.7659 27.737 46.6039 25.837 48.5399C25.782 48.4849 25.704 48.4459 25.592 48.4459L25.476 48.46C22.978 50.257 21.096 52.5999 19.276 54.8649C19.175 55.1589 19.133 55.407 19.091 55.655C19.037 55.975 18.986 56.2849 18.885 56.5289L18.66 56.3489C17.943 57.1699 17.451 58.2209 16.981 59.2459C16.993 59.2159 17.004 59.186 17.015 59.155C17.744 57.233 18.494 55.255 19.556 53.624C19.579 53.67 19.614 53.717 19.661 53.765L19.759 53.8619L19.884 53.806C20.649 53.466 20.93 52.6819 21.202 51.9249C21.308 51.6299 21.418 51.3249 21.554 51.0609C22.401 50.8229 22.817 50.1739 23.22 49.5469C23.494 49.1189 23.754 48.7149 24.141 48.4449L24.615 48.1149L23.937 48.0789C23.294 48.0789 22.811 48.431 22.384 48.741C22.067 48.971 21.792 49.1719 21.531 49.1719C21.442 49.1719 21.354 49.1489 21.265 49.0999L21.086 49.0029L20.992 49.1829C20.787 49.5729 20.441 49.911 20.076 50.27C19.503 50.832 18.913 51.4109 18.855 52.2289C18.597 52.2669 18.34 52.5349 18.285 52.7589C18.249 52.9069 18.291 53.043 18.396 53.132C17.848 53.749 17.444 54.502 17.05 55.236C16.994 55.34 16.939 55.4449 16.882 55.5479C16.933 55.3039 16.944 55.0609 16.892 54.8229L16.782 54.312L16.523 54.7659C16.415 54.9539 16.278 55.1469 16.135 55.3469C15.624 56.0629 14.989 56.9539 15.39 58.1589L15.477 58.1469C15.422 58.2919 15.195 58.8729 15.142 59.0109C15.172 58.7619 15.182 58.494 15.157 58.202L15.125 57.8289L14.833 58.062C14.038 58.698 13.849 59.8979 13.666 61.0579C13.535 61.8859 13.4 62.7429 13.047 63.3329C12.997 63.6749 13.105 63.8209 13.184 63.9269C13.248 64.0139 13.28 64.0569 13.27 64.1619C12.378 66.5059 11.96 69.2159 11.967 72.6379C11.956 72.6599 11.946 72.6979 11.946 72.7429C11.933 73.3269 11.971 73.9139 12.006 74.3599C12.023 74.8109 11.972 75.1529 11.918 75.5139C11.859 75.9099 11.799 76.32 11.839 76.874C11.726 77.109 11.754 77.6099 11.781 78.0939C11.795 78.3399 11.808 78.571 11.796 78.744C11.727 79.716 11.92 80.6749 12.109 81.6019C12.173 81.9219 12.238 82.2419 12.292 82.5599C12.304 82.6259 12.335 82.7679 12.375 82.9489C12.473 83.3899 12.637 84.125 12.648 84.434C14.099 88.714 15.878 93.52 18.78 97.098L19.169 97.577C19.169 97.577 19.135 96.9519 19.135 96.9479L19.579 97.7919C20.633 99.8039 21.722 101.884 23.537 103.219L23.83 102.96L23.776 102.865C24.016 103.157 24.248 103.501 24.49 103.861C25.121 104.798 25.772 105.766 26.716 105.985L27.192 106.096L27.162 106.048C27.279 106.147 27.369 106.287 27.464 106.433C27.63 106.69 27.818 106.981 28.192 107.099L28.534 107.207L28.447 106.859C28.306 106.301 27.676 105.582 27.201 105.582H27.176L27.085 105.597L26.906 105.644C26.841 105.544 26.772 105.449 26.701 105.356L26.715 105.053C26.766 103.896 26.023 103.415 25.426 103.029C25.24 102.909 25.059 102.793 24.907 102.659C24.055 101.907 23.627 100.876 23.173 99.7839C23.123 99.6639 23.072 99.5429 23.022 99.4229L23.177 99.3409C24.318 101.228 25.654 102.953 26.673 103.584L27.146 103.877L26.968 103.351C26.594 102.241 25.472 100.604 24.388 99.0209C23.938 98.3639 23.499 97.7249 23.127 97.1429L23.525 97.3959L23.215 96.7599C22.668 95.6369 22.246 94.5359 21.799 93.3709C21.541 92.6969 21.278 92.0119 20.984 91.3049C20.59 90.3599 20.098 89.4729 19.623 88.6149C19.027 87.5429 18.412 86.4339 18.009 85.2319C17.484 83.6639 17.256 80.9069 17.177 79.2559C17.389 80.0509 17.563 80.8839 17.734 81.7C18.213 83.9949 18.708 86.367 20.029 87.908L20.452 88.4019L20.44 88.2979C20.819 90.1969 21.364 91.962 22.384 93.244L22.774 93.7349C23.185 95.9659 24.228 97.546 25.361 99.077L25.485 99.244L25.647 99.114C26.067 98.777 25.898 98.3109 25.761 97.9359C25.647 97.6209 25.538 97.3229 25.692 97.0759L25.783 96.9299C26.045 97.3719 26.277 97.7909 26.459 98.174L26.838 98.0629C26.767 97.5099 26.622 97.0719 26.506 96.7189C26.4 96.4009 26.334 96.1899 26.358 96.075C26.421 96.269 26.484 96.4629 26.546 96.6559C27.199 98.6839 27.875 100.78 29.162 102.254L29.173 102.337C29.227 102.77 29.432 103.073 29.782 103.237L30.109 103.391L30.065 103.032C30.014 102.617 29.824 102.321 29.497 102.151L29.557 102.115C29.23 101.288 28.981 100.381 28.74 99.5029C28.537 98.7669 28.328 98.0039 28.07 97.2769C27.767 96.4229 27.367 95.6099 26.979 94.8239C26.618 94.0909 26.244 93.3329 25.958 92.5529C25.328 90.8399 24.913 89.089 24.474 87.236C24.163 85.922 23.964 83.5269 23.881 81.9409C23.96 82.1589 24.037 82.3779 24.083 82.6019C24.27 83.5059 24.426 84.4269 24.581 85.3459C24.894 87.1849 25.216 89.0869 25.783 90.7789C25.827 91.0369 25.893 91.321 25.978 91.601C26.04 91.8009 26.158 91.982 26.341 92.155C26.509 92.563 26.729 92.975 26.967 93.351L27.095 93.5519C27.086 93.6959 27.055 94.03 27.055 94.03L27.084 94.0839C27.736 95.2969 28.301 96.6349 28.848 97.9299C29.754 100.079 30.692 102.302 32.072 104.051L32.423 103.875C32.194 103.021 31.911 102.206 31.637 101.419C31.147 100.009 30.639 98.5499 30.44 96.8239C30.327 96.5829 30.203 96.5479 30.115 96.5479C30.017 96.5479 29.938 96.5929 29.882 96.6259C29.827 96.4599 29.774 96.2869 29.722 96.1049C29.751 96.1729 29.782 96.242 29.813 96.309L30.193 96.1959C29.781 93.3749 29.657 91.207 29.526 88.913C29.471 87.949 29.416 86.973 29.338 85.934C29.66 85.788 29.75 85.4299 29.777 85.0609C29.814 85.3659 29.875 85.665 29.931 85.952C29.974 86.164 30.016 86.3699 30.044 86.5659C30.115 87.0379 30.087 87.5959 30.057 88.1879C30.029 88.7429 30 89.315 30.043 89.905C30.163 91.555 30.527 95.6389 31.295 97.9039L31.63 97.851C31.494 98.183 31.514 98.636 31.532 99.077C31.543 99.331 31.554 99.586 31.534 99.809L31.518 99.9769L31.681 100.021C31.906 100.081 31.918 100.131 31.954 100.266C31.979 100.367 32.013 100.495 32.123 100.625C32.009 100.971 32.024 101.29 32.171 101.643L32.198 101.71L32.263 101.744C32.837 102.043 33.183 102.97 33.517 103.866C33.775 104.557 34.041 105.271 34.431 105.786L34.788 105.63C34.717 105.236 34.639 104.847 34.552 104.462L34.66 104.492C34.88 104.553 35.059 104.66 35.25 104.773C35.371 104.844 35.492 104.916 35.623 104.976L36.002 105.154L35.902 104.748C34.55 99.2499 33.922 93.3659 34.105 88.3209C34.246 89.3199 34.516 90.2349 34.999 90.8199C34.709 92.7579 34.766 96.93 35.52 99.025L35.769 98.991C35.857 102.148 36.448 108.391 37.525 109.84L37.881 109.677C37.648 108.645 37.441 106.803 37.224 104.853C37.015 102.984 36.801 101.072 36.544 99.6899C36.58 99.8039 36.616 99.9179 36.651 100.031C36.817 100.554 36.983 101.078 37.131 101.62L37.522 101.602C37.616 101.076 37.657 100.538 37.666 99.9969L37.886 100.019C38.865 97.1779 39.205 94.9179 39.566 92.5259C39.805 90.9339 40.052 89.2969 40.502 87.4059C40.529 89.1229 40.45 92.4519 40.402 94.4749C40.354 96.4749 40.34 97.079 40.361 97.291L40.358 97.2839C40.351 97.4349 40.278 97.7559 40.177 98.1979C39.828 99.7319 39.101 102.926 39.236 107.412L39.252 107.929L39.589 107.536C40.383 106.608 40.605 105.128 40.802 103.676C40.815 103.779 40.833 103.879 40.859 103.978L41.031 104.646L41.243 103.99C41.423 103.433 41.765 101.58 42.12 99.4919C42.12 99.5459 42.122 99.586 42.125 99.616L42.095 99.9409L42.466 100.055C42.519 99.9669 42.563 99.8709 42.607 99.7759L42.641 99.7029C42.707 99.6269 42.795 99.4599 42.951 99.0809C41.576 103.567 40.175 108.332 39.941 109.349L39.78 110.054L40.281 109.533C41.565 108.194 42.908 104.393 44.094 101.041C44.449 100.037 44.783 99.09 45.088 98.291C45.265 98.077 45.438 97.805 45.591 97.502C45.672 97.543 45.756 97.5529 45.818 97.5529L45.925 97.5449L46.047 97.5269L46.086 97.4099C47.041 94.5409 47.777 91.8079 48.329 89.0729C48.568 89.9449 48.256 90.8669 47.952 91.7639C47.859 92.0349 47.768 92.3049 47.692 92.5709C47.521 93.1659 47.403 93.771 47.29 94.356C47.12 95.234 46.944 96.1419 46.582 97.0219C46.426 97.3999 46.271 97.786 46.117 98.171C45.564 99.555 44.993 100.985 44.362 101.957L44.33 102.006V102.066C44.296 102.182 43.78 103.172 43.281 104.13C41.159 108.203 40.685 109.271 40.867 109.57L40.926 109.667L41.077 109.689H41.141L41.194 109.651C44.415 107.333 51.474 94.144 54.867 87.806L55.479 86.6639C55.511 87.4559 55.181 88.2029 54.628 88.4719L54.535 88.517L54.517 88.6169C54.102 91.0159 52.27 93.8599 50.497 96.6119C49.045 98.8679 47.672 100.999 47.053 102.874L46.909 103.309L47.326 103.119C47.494 103.043 47.712 102.842 47.981 102.535C47.19 103.607 46.505 104.576 46.214 105.217L45.952 105.793L46.497 105.473C46.538 105.449 46.581 105.421 46.624 105.393L46.59 105.443ZM33.836 108.349L34.207 108.677C34.417 108.862 34.547 109.147 34.684 109.446C34.883 109.882 35.109 110.375 35.633 110.577L36.035 110.732L35.893 110.325C35.578 109.413 35.055 108.327 34.36 108.327H34.356L33.836 108.349ZM37.617 101.06C37.461 103.11 38.068 109.049 38.677 110.419L39.058 110.312C38.981 109.739 38.906 108.735 38.818 107.571C38.633 105.12 38.405 102.069 38.005 101.006L37.617 101.06ZM27.363 105.064C27.818 105.543 28.209 106.149 28.623 106.79C29.465 108.094 30.335 109.441 31.817 109.719L32.32 109.814L32.014 109.404C31.414 108.597 30.769 107.815 30.146 107.058C29.482 106.253 28.795 105.42 28.164 104.56L27.96 104.282C27.96 104.282 27.738 104.789 27.727 104.812C27.728 104.79 27.666 104.771 27.574 104.739L27.363 105.064ZM26.506 107.894C26.36 107.894 26.215 107.918 26.075 107.966L25.743 108.081L26.011 108.308C26.126 108.407 26.238 108.508 26.349 108.611C26.788 109.014 27.241 109.43 27.959 109.593L28.273 109.664L28.197 109.35C28.028 108.649 27.333 107.894 26.506 107.894ZM55.098 104.078C54.681 104.508 50.255 107.769 48.128 108.987L48.252 109.359C50.18 109.125 55.413 104.943 55.441 104.225L55.461 103.703L55.098 104.078ZM59.286 103.513C58.813 103.934 58.312 104.327 57.823 104.712C57.486 104.977 57.149 105.241 56.818 105.516C56.547 105.743 56.251 105.954 55.953 106.166C55.095 106.78 54.207 107.415 53.781 108.451L53.663 108.738L53.973 108.727C54.248 108.716 54.42 108.605 54.572 108.507C54.708 108.419 54.814 108.351 54.995 108.351H55.085L55.232 108.287C56.324 107.059 57.735 106.095 59.099 105.162C60.492 104.21 61.931 103.226 63.057 101.952C63.122 101.939 63.247 101.875 63.372 101.81C63.493 101.747 63.613 101.685 63.738 101.626L63.787 101.604L63.817 101.56C63.906 101.432 64.005 101.316 64.105 101.2C64.274 101.003 64.448 100.8 64.578 100.542C67.986 98.0669 70.681 94.9939 72.524 91.4769C72.921 90.7239 73.421 89.7449 73.776 88.8499C73.979 88.3389 74.186 87.8269 74.394 87.3149C76.033 83.2659 77.728 79.0789 77.765 74.1209C77.771 73.2229 77.714 72.1299 77.21 71.6179L76.992 71.3969C76.992 71.3969 76.813 71.8659 76.78 71.9589C76.901 70.9869 76.908 70.013 76.732 69.09L76.964 69.288L77.018 68.931C77.029 68.854 77.038 68.755 77.042 68.642C77.143 69.2 77.235 69.7549 77.326 70.3029L77.367 70.549L77.763 70.538C78.243 66.307 77.785 63.7759 76.365 62.8099C76.118 62.1309 75.81 61.481 75.43 60.838C75.432 60.841 75.904 61.3019 75.904 61.3019L75.774 60.663C75.381 58.74 74.169 56.8479 72.822 56.0599L72.555 56.3439C72.909 56.8689 73.224 57.4529 73.53 58.0189C73.677 58.2919 73.827 58.5689 73.982 58.8409L73.658 59.0499C73.69 59.1149 73.722 59.1819 73.754 59.2479C73.681 59.2059 73.605 59.1749 73.535 59.1489L73.188 59.0219L73.289 59.46C73.351 59.738 73.443 60.158 73.932 60.158H74.132L74.149 60.049C74.494 60.74 74.847 61.426 75.201 62.101C75.15 62.068 75.097 62.038 75.037 62.012L74.606 61.8209L74.769 62.2629C74.848 62.4779 74.901 62.7179 74.953 62.9609L74.515 62.1769C74.515 62.1769 74.509 62.954 74.509 62.963C74.229 62.055 73.609 61.2109 73.24 60.8149L72.775 60.314L72.823 60.58C72.796 60.515 72.768 60.4499 72.741 60.3859C72.596 60.0389 72.449 59.693 72.312 59.335L72.298 59.192C72.209 58.31 71.719 57.8409 71.245 57.3879C71.051 57.2029 70.866 57.0249 70.711 56.8229C70.715 56.8149 70.719 56.8069 70.724 56.799C70.754 56.743 70.79 56.677 70.809 56.588C70.934 56.7649 71.064 56.937 71.199 57.103L71.551 56.937C71.513 56.753 71.456 56.5679 71.383 56.3809C71.516 56.6829 71.682 56.9939 72.012 57.1559L72.18 57.2379L72.273 57.0759C72.426 56.8099 72.416 56.5029 72.242 56.1859C72.039 55.8179 71.601 55.4559 71.295 55.3309L71.305 55.2679C71.305 55.2619 71.307 55.2589 71.312 55.2589C71.338 55.2589 71.442 55.3499 71.507 55.4069C71.658 55.5399 71.802 55.6659 71.956 55.6829L72.185 55.7069L72.178 55.5239C72.18 55.5259 72.182 55.527 72.183 55.528C72.268 55.597 72.34 55.6559 72.425 55.6769L72.856 55.7839L72.651 55.39C72.077 54.291 71.014 52.9219 69.908 52.6779L69.756 53.0269L69.425 52.84C69.468 52.815 69.504 52.7799 69.533 52.7379L69.668 52.5419L69.451 52.4429C69.317 52.3809 69.253 52.2759 69.254 52.2339L69.784 52.0339L69.306 51.8149C69.247 51.7959 69.209 51.7429 69.148 51.6519C69.054 51.5149 68.926 51.3279 68.636 51.3079L68.476 51.2969L68.45 51.3849L68.314 51.335L68.683 51.1829C68.475 50.6769 68.045 50.3349 67.59 49.9739C67.402 49.8249 67.208 49.6709 67.02 49.4969L66.561 49.0729L66.689 49.684C66.704 49.755 66.724 49.8209 66.749 49.8809L66.539 49.6359C64.706 47.5029 62.067 45.344 59.653 44.002L59.435 44.3369C59.958 44.7279 60.407 45.2219 60.841 45.6989C61.62 46.5569 62.426 47.4429 63.719 47.8459C63.926 48.0309 64.147 48.3059 64.38 48.5969C64.863 49.1989 65.363 49.823 66.359 49.965L66.826 50.0309C66.94 50.2169 67.097 50.3509 67.242 50.4739C67.39 50.6009 67.519 50.7099 67.598 50.8599C67.504 50.9119 67.459 51.0169 67.433 51.0819C67.42 51.1129 67.396 51.1709 67.38 51.1829L67.127 51.1909L67.189 51.4349C67.258 51.6889 67.416 51.9949 67.622 52.2549C67.424 52.0979 67.246 51.8729 67.073 51.6539C66.998 51.5579 66.922 51.4629 66.844 51.3719L66.928 51.2419C67.072 51.0219 67.084 50.7649 66.962 50.5389C66.802 50.2429 66.444 50.0519 66.052 50.0519C65.989 50.0519 65.926 50.056 65.862 50.067L65.666 50.0959L65.694 50.293C65.725 50.5 65.797 50.666 65.898 50.801C65.891 50.801 65.884 50.801 65.878 50.801C65.833 50.801 65.786 50.8039 65.739 50.8109L65.67 50.822C64.39 49.29 63.053 47.774 61.541 46.627C61.347 46.48 61.157 46.3059 60.967 46.1299C60.447 45.6529 59.911 45.1589 59.202 45.0969L58.591 45.0419L59.053 45.4459C59.424 45.7699 59.764 46.126 60.104 46.481C60.69 47.093 61.296 47.7269 62.062 48.1979C62.4 48.6239 62.86 49.085 63.304 49.53C63.667 49.893 64.034 50.262 64.376 50.645C64.562 50.853 64.739 51.0859 64.918 51.3209C65.489 52.0679 66.079 52.8419 66.987 52.9459L67.126 52.963C67.191 53.037 67.257 53.11 67.321 53.184C67.981 53.93 68.661 54.7 69.249 55.538L69.07 55.7009L69.135 55.8189C69.849 57.1229 70.586 58.4689 71.854 59.2889L71.742 59.257L71.56 59.2449L71.533 59.426C71.521 59.497 71.521 59.56 71.53 59.614L71.303 59.5809L71.419 59.8959C72.449 62.7119 73.114 65.7459 73.644 70.0389L73.67 70.2509L73.88 70.2109C73.966 70.1939 74.038 70.1649 74.098 70.1259C74.088 70.2019 74.018 70.7329 74.018 70.7329L74.372 70.869C74.041 72.42 73.793 74.066 73.552 75.666L73.413 76.5809C73.353 76.6089 73.298 76.642 73.242 76.674C73.175 76.714 73.108 76.7539 73.029 76.7819L72.925 76.8189L72.691 77.8619C72.203 80.0469 71.698 82.3039 71.043 84.3619L71.023 84.424L71.043 84.4839C71.106 84.6749 71.246 84.7719 71.36 84.8489C71.484 84.9339 71.524 84.9689 71.531 85.0579C69.488 90.9799 65.282 94.9919 61.215 98.8709C58.96 101.022 56.627 103.247 54.678 105.79L54.93 106.089C56.061 105.494 57.216 104.697 58.567 103.581C58.854 103.344 59.121 103.051 59.379 102.76C59.281 102.902 59.195 103.057 59.125 103.228L59.042 103.428L59.286 103.513ZM60.464 106.731C59.438 107.204 58.984 107.661 59.114 108.089L59.285 108.648L59.492 108.102C59.564 107.912 59.763 107.82 59.994 107.714C60.292 107.576 60.663 107.405 60.745 106.947L60.812 106.57L60.464 106.731ZM34.767 105.102C34.841 105.375 34.903 105.742 34.969 106.13C35.177 107.363 35.393 108.64 36.147 108.64C36.229 108.64 36.314 108.623 36.399 108.59L36.576 108.522L36.517 108.342C36.409 108.01 36.333 107.647 36.257 107.283C36.057 106.325 35.85 105.335 35.061 104.876L34.64 104.631L34.767 105.102ZM29.927 102.506C30.688 104.746 31.981 106.83 33.222 107.814L33.508 107.54C33.031 106.881 32.636 106.109 32.254 105.363C31.694 104.271 31.116 103.141 30.256 102.299L29.927 102.506ZM64.893 101.62C63.986 101.632 63.555 102.147 63.174 102.602C62.902 102.927 62.644 103.236 62.227 103.369L62.166 103.387L62.128 103.438C61.489 104.275 60.609 104.915 59.758 105.536C59.179 105.958 58.579 106.393 58.051 106.892L58.28 107.215C61.374 105.632 63.527 103.956 65.055 101.942L65.303 101.616L64.893 101.62ZM23.581 105.281C23.554 105.604 23.793 105.939 23.999 106.164C24.376 106.575 24.999 106.991 25.459 106.991L25.88 106.941L25.658 106.643C25.503 106.495 25.365 106.328 25.226 106.164C24.865 105.732 24.491 105.286 23.832 105.105L23.601 105.042L23.581 105.281ZM39.795 93.077C39.475 94.373 37.89 102.789 38.732 104.314L39.09 104.963L39.107 104.222C39.118 103.752 39.305 102.504 39.522 101.06C40.108 97.1669 40.561 93.8749 40.171 93.0389L39.931 92.525L39.795 93.077ZM22.215 103.812C22.235 104.654 23.001 104.802 23.37 104.873L23.675 104.932L23.603 104.631C23.475 104.092 23.032 103.88 22.64 103.693L22.208 103.481L22.215 103.812ZM27.072 100.403C27.707 102.013 28.569 103.492 29.71 104.924L30.051 104.722C29.335 103.032 28.594 101.413 27.403 100.19L27.072 100.403ZM68.051 102.008C67.319 102.301 66.723 102.77 66.226 103.44L65.826 103.981L66.457 103.747C67.164 103.484 67.937 103.103 68.309 102.276L68.511 101.824L68.051 102.008ZM17.909 101.801C17.798 101.801 17.689 101.834 17.586 101.901L17.421 102.007L17.524 102.174C17.696 102.451 17.963 102.61 18.219 102.762C18.389 102.863 18.548 102.957 18.67 103.079L18.983 102.835L18.923 102.734C18.704 102.362 18.371 101.801 17.909 101.801ZM18.863 101.231C18.954 101.797 19.342 102.063 19.686 102.299C19.768 102.356 19.851 102.413 19.93 102.474L20.229 102.222L20.169 102.109C19.942 101.68 19.684 101.195 19.122 101.009L18.809 100.905L18.863 101.231ZM15.573 99.8469C15.538 99.9209 15.524 100.003 15.532 100.089C15.544 100.228 15.582 100.649 16.969 101.494L17.532 101.837L17.255 101.239C16.649 99.935 15.942 98.81 14.982 97.632C15 97.606 15.011 97.5759 15.02 97.5439C15.503 98.2099 16.009 98.8609 16.551 99.4689L16.889 99.267C16.344 97.761 15.466 96.573 14.596 95.437C14.64 95.4689 14.684 95.5 14.728 95.528L15.013 95.265C14.849 94.964 14.694 94.6559 14.538 94.3469C14.396 94.0669 14.255 93.783 14.104 93.504C14.482 94.064 14.877 94.6099 15.279 95.1619C15.995 96.1489 16.735 97.1709 17.397 98.3159L17.505 98.283C17.949 99.545 18.773 100.991 19.75 101.266L19.932 100.918C19.523 100.585 19.258 100.102 18.978 99.5889C18.916 99.4759 18.853 99.362 18.789 99.249C18.953 99.421 19.125 99.5829 19.305 99.7339L19.604 99.4769L19.312 98.9949C18.803 98.1539 18.278 97.2839 17.588 96.5839L17.317 96.7609C17.196 96.5469 17.061 96.349 16.928 96.153C16.793 95.955 16.662 95.7609 16.547 95.5569L16.818 95.5959L16.773 95.325C16.687 94.812 16.367 94.525 16.093 94.502C16.023 94.2299 16.002 93.9489 16.03 93.6359C15.7 92.8299 15.346 92.1099 14.983 91.3649C13.899 89.1519 12.67 86.6429 12.177 83.7709C11.152 77.8049 11.816 69.4949 12.303 65.0709L12.316 64.95C12.316 64.95 12.176 64.8589 12.157 64.8489C12.271 64.8049 12.388 64.7409 12.409 64.5999C12.427 64.4799 12.358 64.386 12.295 64.327C12.286 64.051 12.448 63.6019 12.619 63.1299C12.944 62.2339 13.347 61.1229 13.06 60.0909C13.229 59.6669 13.422 59.2669 13.615 58.8669C13.947 58.1779 14.29 57.4679 14.507 56.6359C14.628 56.5779 14.699 56.4809 14.751 56.4089C14.809 56.3299 14.828 56.3089 14.865 56.3049L14.992 56.2869L15.028 56.1639C15.612 54.1769 16.946 52.715 18.236 51.301C19.346 50.083 20.395 48.9339 20.984 47.4879L21.184 46.9949L20.708 47.2339C19.325 47.9279 18.32 49.0139 17.489 50.0219C17.424 49.9749 17.352 49.9659 17.309 49.9659C17.278 49.9659 17.248 49.97 17.217 49.978C17.873 49.211 18.619 48.4899 19.532 47.9569L19.6 47.9169L19.623 47.8409C19.974 46.6639 21.089 46.025 22.167 45.408C22.288 45.339 22.409 45.269 22.528 45.2L22.471 45.3569C22.443 45.4359 22.34 45.4759 22.173 45.5309C21.941 45.6089 21.589 45.726 21.59 46.171L21.591 46.4639L21.863 46.356C22.394 46.149 22.826 45.957 22.903 45.65C22.934 45.527 22.901 45.401 22.811 45.296L22.662 45.1209C23.454 44.6499 24.149 44.1529 24.46 43.3889L24.702 42.7939L24.165 43.1469C23.949 43.2889 23.67 43.3769 23.374 43.4709C22.869 43.6319 22.303 43.8119 22.044 44.3199C21.942 44.3009 21.842 44.291 21.744 44.291C21.015 44.291 20.544 44.8209 20.129 45.2889C20.015 45.4179 19.902 45.545 19.789 45.653L19.485 45.9449L19.903 45.9959C19.948 46.0019 19.989 46.004 20.028 46.004C20.069 46.004 20.107 46.0019 20.143 45.9969C19.698 46.2979 19.233 46.5399 18.738 46.7299L18.659 46.7589L18.626 46.8359C18.498 47.1309 18.517 47.276 18.562 47.478C18.573 47.526 18.585 47.5809 18.595 47.6479C16.877 48.2579 15.836 49.5479 14.828 50.7979C14.565 51.1229 14.303 51.448 14.028 51.762C13.974 51.711 13.897 51.676 13.79 51.676L13.674 51.6899L13.537 51.7189C13.545 51.6479 13.547 51.5759 13.544 51.5029L13.523 51.0599L13.544 51.033C13.574 51.049 13.608 51.0629 13.645 51.0779L13.8 51.1389L13.888 50.9979C14.349 50.2609 14.973 49.7009 15.634 49.1099C16.246 48.5609 16.88 47.9939 17.362 47.2759L17.393 47.2299L17.416 47.2169C18.765 46.4879 19.625 45.269 20.224 44.288L20.269 44.215L20.247 44.132C20.2 43.958 20.057 43.856 19.867 43.856L19.822 43.8579C20.339 43.4509 20.798 42.857 21.089 42.434L21.476 41.8749L20.848 42.1359C18.572 43.0809 16.559 44.5519 14.7 46.6299C14.661 46.5479 14.574 46.4579 14.413 46.4579L14.293 46.4739L14.239 46.4879L14.2 46.5269C12.658 48.0559 11.051 49.721 9.82202 51.783L9.53003 52.2729L10.064 52.0729C11.491 51.5369 12.258 50.3479 13.002 49.2C13.419 48.554 13.848 47.89 14.39 47.361V47.697L14.713 47.447C15.399 46.915 15.978 46.2689 16.538 45.6439L16.619 45.554C16.716 45.594 16.822 45.614 16.94 45.614C17.56 45.614 18.386 45.023 18.594 44.309C18.644 44.317 18.694 44.3199 18.744 44.3199C19.026 44.3199 19.312 44.2059 19.588 44.0269C19.308 44.4419 18.948 44.7749 18.568 45.1279C18.016 45.6399 17.445 46.1699 17.135 46.9699L17.121 46.9799C17.046 47.0109 16.973 47.0469 16.903 47.0889C17.181 46.7709 17.435 46.4219 17.626 46.0079L17.934 45.34L16.889 46.062C15.642 46.908 14.353 47.7819 14.035 49.6329C13.714 49.7809 13.202 50.133 13.196 50.543C13.195 50.644 13.223 50.7689 13.335 50.8839L13.15 50.9529C12.521 51.1889 12.226 51.7259 11.94 52.2469C11.76 52.5729 11.591 52.8809 11.347 53.1039L11.502 53.2979C11.302 53.5609 11.136 53.8509 11.04 54.1909C11 54.3369 11.043 54.5219 11.109 54.7679C11.128 54.8399 11.157 54.949 11.158 54.981C11.107 55.68 10.742 56.3619 10.334 57.0779C10.372 56.3399 9.75101 56.2069 9.53601 56.1619L9.40899 56.1349L9.30902 56.2709C8.49702 57.3859 7.29897 59.0289 7.79797 60.4609C7.78397 60.4489 7.56402 60.2679 7.56402 60.2679L7.45202 60.4919C7.00002 61.3899 6.97502 62.3889 7.37902 63.2579C6.50002 64.0259 6.48901 65.789 6.48101 67.356L6.36102 67.288C6.28802 67.376 6.22499 67.4699 6.17199 67.5689C6.17299 67.5639 6.17301 67.5599 6.17401 67.5549C6.37701 65.3159 6.58801 62.9989 7.20001 61.1429C7.22101 60.8079 7.08898 60.6119 6.82898 60.5189L6.59698 60.437L6.56298 60.679C6.42098 61.684 6.21697 62.688 6.00097 63.749C5.80897 64.693 5.61402 65.65 5.46502 66.614C5.43702 66.406 5.39198 66.224 5.32898 66.088L5.02502 65.4279L4.94799 66.1509C4.88199 66.7769 4.85 67.2839 4.82 67.7719C4.79 68.2529 4.76101 68.7159 4.70001 69.2559L5.07501 69.374C5.12501 69.283 5.16997 69.1789 5.21197 69.0629C5.17797 69.8859 5.20498 70.713 5.32098 71.541L5.57898 71.5439C5.50198 71.6599 5.40499 71.7609 5.28399 71.8439L5.19 71.9069L5.19598 72.02C5.23798 72.802 5.27002 73.646 5.25402 74.476C5.26602 73.095 4.86197 70.9179 4.59497 69.9689L4.203 69.9999C3.621 75.1859 4.277 80.6089 5.958 84.5099L6.341 84.416C6.258 83.277 5.899 82.1859 5.552 81.1299C5.102 79.7589 4.63601 78.34 4.72601 76.741C4.73501 76.588 4.77202 76.433 4.82202 76.275L4.82501 76.728C4.82601 77.576 4.827 78.4529 5.242 78.9659L5.60601 79.4169L5.59698 78.8369C5.59498 78.7019 5.56102 78.549 5.52502 78.387C5.51702 78.352 5.50901 78.3159 5.50201 78.2789L5.60998 78.299L5.76202 78.2739L5.84399 78.1149L5.89202 77.5399C5.95503 76.7349 6.01 76.043 6.25 75.452C6.147 76.709 6.50102 78.0259 6.86602 79.3149C6.80902 79.2009 6.75002 79.0899 6.68402 78.9849L6.315 79.1019C6.364 79.9639 6.53898 80.784 6.76098 81.556C6.72998 81.516 6.69601 81.477 6.66101 81.439L6.33899 81.0889L6.31402 81.564C6.19002 83.952 6.93698 85.947 7.54998 87.452L7.45398 87.4699L7.24401 87.5269L7.31897 87.7319C8.58197 91.1699 10.182 93.7949 12.212 95.7549L12.543 96.0759L12.551 95.614C12.552 95.541 12.549 95.468 12.541 95.395C13.439 96.953 14.38 98.5369 15.573 99.8469ZM67.122 100.923C67.096 101.002 67.068 101.089 67.057 101.175L66.997 101.647L67.376 101.359C68.385 100.59 69.336 99.799 70.231 98.981C70.175 99.142 70.15 99.3069 70.162 99.4739L70.18 99.7339L70.427 99.65C71.394 99.317 71.845 98.4869 72.125 97.7679C72.532 97.6349 73.021 97.1049 73.06 96.7169C73.078 96.5439 73.003 96.3999 72.864 96.3229C74.116 94.9209 75.238 93.44 76.244 91.866L75.935 91.616C74.789 92.738 73.704 93.9519 72.652 95.1259C72.353 95.4599 72.051 95.7969 71.747 96.1329C71.756 96.1179 71.958 95.791 71.958 95.791L71.588 95.7819C71.148 95.7819 70.999 96.1079 70.899 96.3239C70.872 96.3839 70.845 96.4429 70.812 96.4969L70.775 96.5569C70.477 96.6369 70.302 96.8679 70.285 97.2139V97.231L70.237 97.192C68.985 98.194 67.845 99.333 66.851 100.577L66.532 100.977C66.532 100.977 67.105 100.891 67.133 100.889C67.133 100.889 67.125 100.913 67.122 100.923ZM67.686 98.525C67.453 98.605 66.942 98.892 66.853 99.265C66.813 99.43 66.861 99.593 66.987 99.723L67.2 99.942L67.315 99.6599C67.37 99.5269 67.465 99.4279 67.576 99.3129C67.711 99.1729 67.863 99.0159 67.941 98.7769L68.068 98.3939L67.686 98.525ZM73.693 91.5599C73.026 91.6339 73.06 92.0899 73.083 92.3909C73.096 92.5689 73.109 92.752 73.035 92.921L72.874 93.064C72.284 93.649 71.477 94.45 71.528 95.249L71.554 95.676L71.864 95.3809C73.682 93.6519 75.327 91.558 76.856 89.015C76.851 89.029 76.847 89.0419 76.842 89.0549C76.731 89.3999 76.634 89.697 76.783 89.892L76.968 90.1329L77.116 89.869C77.175 89.766 77.239 89.6689 77.304 89.5709C77.502 89.2729 77.728 88.934 77.762 88.418L77.777 88.205H77.33C77.552 87.816 77.771 87.4179 77.989 87.0089L78.083 86.8319C78.083 86.8319 77.888 86.7289 77.878 86.7249C78.183 86.2589 78.419 85.7799 78.621 85.2769C78.623 85.4809 78.691 85.6339 78.823 85.7169L78.954 85.7999L79.067 85.6939C79.766 85.0329 80.595 83.768 80.929 82.447L80.966 82.7189C80.977 82.7989 80.914 82.9269 80.859 83.0399C80.773 83.2159 80.638 83.489 80.789 83.713L80.757 83.6989L80.661 83.7839C80.504 83.9249 80.401 84.389 80.465 84.671C80.517 84.898 80.658 84.971 80.738 84.994L80.995 85.0679L80.994 84.7999C80.994 84.7659 81.025 84.67 81.049 84.601C81.104 84.436 81.192 84.1709 81.104 83.9669L81.3 84.101L81.24 83.658C81.226 83.554 81.316 83.4329 81.404 83.3159C81.511 83.1699 81.634 83.006 81.58 82.814C81.523 82.618 81.309 82.5329 81.238 82.5049L80.943 82.3879C81.094 81.7609 81.132 81.1219 80.988 80.5309L80.604 80.5359C81.117 79.033 81.612 77.4789 81.489 75.8439L81.097 75.8019C81.078 75.8699 81.058 75.9399 81.038 76.0079C81.078 75.7459 81.105 75.4909 81.117 75.2459L80.876 75.1929C80.902 74.8449 80.971 74.463 81.042 74.067C81.232 73.009 81.428 71.9169 80.815 71.2509L80.355 70.752L80.47 71.421C80.543 71.843 80.394 72.1939 80.25 72.5339C80.098 72.8939 79.94 73.2649 80.116 73.6439C80.045 73.6869 79.987 73.7419 79.943 73.8079C79.781 74.0519 79.852 74.373 79.927 74.713C79.99 75 80.056 75.298 79.983 75.538C79.988 75.514 79.965 75.5089 79.94 75.5089C79.926 75.5089 79.913 75.5099 79.9 75.5109C79.779 75.5239 79.612 75.54 79.516 75.681C79.453 75.774 79.44 75.8919 79.48 76.0339C79.101 77.8619 78.555 79.601 77.978 81.228C78.557 79.131 78.977 76.9179 79.244 74.5759C80.233 73.3839 80.13 70.585 79.662 68.53C79.724 68.559 79.797 68.5829 79.881 68.5999L80.143 68.6559L80.122 68.3889C80.051 67.4849 79.752 66.6739 79.463 65.8909C79.259 65.3369 79.062 64.8029 78.956 64.2659C78.992 64.2709 79.026 64.2739 79.06 64.2739C79.222 64.2739 79.328 64.2129 79.404 64.1669C79.466 64.1319 79.494 64.116 79.544 64.116L79.771 64.1699L79.874 63.9479C79.901 63.6169 79.83 63.337 79.718 63.09L79.796 63.153L79.75 62.6729C79.686 62.0089 79.578 61.407 79.422 60.866C79.578 60.976 79.751 61.0649 79.921 61.1519C80.055 61.2199 80.19 61.289 80.313 61.369L80.322 61.3749C80.211 61.3089 80.087 61.2669 79.946 61.2509L79.557 61.21L79.75 61.549C80.316 62.5429 80.542 63.9469 80.76 65.3069L80.845 65.83C80.86 65.92 80.87 66.0259 80.883 66.1389C80.941 66.6969 81.029 67.5389 81.769 67.6129L82.064 67.642L81.981 67.3569C81.876 67.0009 81.817 66.668 81.788 66.353C81.835 66.368 81.889 66.377 81.951 66.377L82.065 66.3679L82.224 66.343L82.235 66.1829C82.254 65.9219 82.258 65.6539 82.097 65.4819C82.041 65.4219 81.943 65.352 81.784 65.343C81.802 65.103 81.828 64.875 81.853 64.655L81.871 64.4979L81.731 64.3669C81.657 64.3399 81.591 64.3259 81.532 64.3259H81.443L81.354 64.387C81.338 64.282 81.323 64.174 81.308 64.067C81.158 63.013 80.992 61.8419 80.38 61.4149L80.883 61.739L80.603 61.1199C80.099 60.0069 79.48 58.749 78.489 57.864L78.606 57.814L78.477 57.6149C78.418 57.5239 78.356 57.4089 78.289 57.2839C78.028 56.8059 77.732 56.2629 77.299 56.2629C77.239 56.2629 77.18 56.2739 77.122 56.2949L76.825 56.4039L77.052 56.6259C77.153 56.7239 77.259 56.928 77.363 57.124C77.559 57.5 77.762 57.8879 78.095 57.9439L78.116 58.0229C78.275 58.625 78.6 59.052 78.916 59.465C79.053 59.646 79.186 59.8219 79.305 60.0079C79.256 60.0099 79.198 60.0249 79.139 60.0689C78.701 59.0489 78.046 58.2979 77.165 57.7979L76.925 57.6609C76.948 57.638 76.97 57.6109 76.988 57.5809L77.168 57.2969L76.832 57.2759C76.811 57.2739 76.802 57.274 76.754 57.15C76.702 57.016 76.607 56.7679 76.293 56.7679L76.158 56.7819L75.997 56.814V56.978C75.997 57.308 76.336 57.767 76.669 57.767C76.722 57.767 76.772 57.7559 76.817 57.7349L76.87 58.0089C77.019 58.7979 77.37 59.385 77.709 59.952C77.901 60.273 78.085 60.5819 78.234 60.9229H78.203L78.05 61.0359C78.037 61.054 78.026 61.0709 78.017 61.0909C77.913 60.7049 77.762 60.3489 77.412 60.1559L77.018 59.9399L77.122 60.3779C77.546 62.1709 78.133 63.9599 78.699 65.6899C78.802 66.0049 78.905 66.3179 79.006 66.6279C78.949 66.5949 78.883 66.5869 78.844 66.5869L78.766 66.5959L78.611 66.629L78.608 66.788C78.444 76.472 76.624 84.4459 73.042 91.1689L73.385 91.374C73.576 91.087 73.763 90.798 73.945 90.507C73.811 90.812 73.811 91.112 73.811 91.369C73.811 91.435 73.811 91.4929 73.809 91.5469L73.693 91.5599ZM82.211 77.7379C82.224 77.9019 82.157 78.126 82.094 78.343C81.962 78.793 81.797 79.3539 82.315 79.6379L82.617 79.8029L82.611 79.4579C82.608 79.3019 82.643 79.1159 82.678 78.9229C82.76 78.4709 82.853 77.9579 82.567 77.5989L82.162 77.0869L82.211 77.7379ZM82.466 72.934C82.484 72.993 82.469 73.1239 82.458 73.2299C82.433 73.4709 82.391 73.8759 82.744 73.9439L82.931 73.9799L83.012 73.6689C83.081 73.4359 83.175 73.118 83.031 72.89C82.982 72.812 82.883 72.7109 82.69 72.6819L82.379 72.6329L82.466 72.934ZM80.968 69.1329C80.961 69.2099 80.94 69.308 80.918 69.413C80.844 69.767 80.759 70.169 80.964 70.421C81.032 70.505 81.164 70.606 81.402 70.606C81.454 70.606 81.51 70.6019 81.573 70.5909L81.776 70.559L81.737 70.3569C81.716 70.2409 81.705 70.114 81.695 69.986C81.663 69.591 81.626 69.1439 81.252 68.9699L80.995 68.851L80.968 69.1329ZM7.85302 55.6069C6.56502 57.1289 6.00201 59.3029 5.45001 61.7789L5.82397 61.913C6.22897 61.112 6.57398 60.235 6.90698 59.387C7.26398 58.476 7.633 57.5389 8.078 56.6959L8.40197 56.8629C10.17 54.8619 11.271 53.0809 11.677 51.5659L11.312 51.4119C10.955 52.0069 10.516 52.5469 10.093 53.0689C9.92701 53.2739 9.75897 53.48 9.59497 53.692C9.62197 53.5 9.57203 53.3039 9.39202 53.1149L9.14801 52.8579L9.05401 53.1989C8.98701 53.4399 8.81099 53.699 8.64099 53.95C8.34999 54.378 8.04899 54.82 8.18499 55.296L8.29498 55.6819C8.22998 55.6249 8.15602 55.5889 8.09802 55.5599L7.95697 55.491L7.85302 55.6069ZM76.13 59.14C76.152 59.23 76.173 59.324 76.193 59.416C76.282 59.826 76.375 60.2509 76.702 60.4929L77.082 60.775L77.019 60.306C76.95 59.771 76.887 59.2929 76.58 59.0239L76.517 58.7889C75.552 55.2269 73.151 53.0559 70.829 50.9579C70.421 50.5879 70.012 50.219 69.611 49.843C69.747 49.823 69.854 49.743 69.919 49.614L69.962 49.5269L69.92 49.439C69.558 48.678 68.876 48.2539 68.218 47.8439L67.476 47.3679L67.555 47.8209C67.639 48.2979 67.925 48.5769 68.177 48.8239C68.345 48.9879 68.496 49.1369 68.593 49.3309C68.429 49.3409 68.229 49.3859 68.179 49.6049L68.159 49.6959L68.216 49.77C68.935 50.716 69.827 51.502 70.691 52.262C72.109 53.511 73.448 54.69 74.149 56.551L74.179 56.6309L74.258 56.6639C74.734 56.8669 74.982 57.3209 75.244 57.8019C75.465 58.2059 75.693 58.6239 76.072 58.9099L76.13 59.14ZM74.207 52.7819C74.141 52.7819 74.076 52.794 74.016 52.817L73.613 52.9719L73.993 53.179C74.147 53.263 74.244 53.436 74.345 53.619C74.503 53.904 74.699 54.2589 75.182 54.3179L75.467 54.353L75.401 54.0739C75.278 53.5599 74.74 52.7819 74.207 52.7819ZM71.195 50.1429C71.324 50.3139 71.435 50.501 71.548 50.689C71.797 51.105 72.054 51.5359 72.492 51.8079L72.928 52.0789L72.789 51.5839C72.593 50.8799 71.938 49.845 71.361 49.822L70.94 49.806L71.195 50.1429ZM48.305 43.7329C48.803 45.8619 49.36 48.1209 50.049 50.2089L50.438 50.1349C50.312 47.9719 49.794 46.1729 49.294 44.4329L49.024 43.4879H48.248L48.305 43.7329ZM42.102 44.1819C41.839 44.4289 41.617 44.7109 41.397 44.9899C40.92 45.5939 40.469 46.1659 39.636 46.3489L39.527 46.3729L39.49 46.4799C39.372 46.8239 39.102 47.118 38.842 47.403C38.445 47.835 38.034 48.282 38.115 48.929L38.148 49.202L38.397 49.0869C40.342 48.1819 42.329 46.1489 43.583 43.7819L43.788 43.395L43.361 43.4929C43.196 43.5309 43.044 43.5819 42.903 43.6429C44.12 42.7369 45.512 41.2619 45.593 39.2249L45.601 39.017H44.865L44.827 39.1689C44.546 40.3089 43.892 41.06 43.202 41.856C42.657 42.484 42.094 43.1319 41.732 43.9829L41.492 44.546C41.492 44.546 42.074 44.1989 42.102 44.1819ZM25.743 47.4639C25.024 47.5549 24.705 48.0509 24.468 48.5729L24.192 49.184L24.758 48.825C24.858 48.762 24.968 48.708 25.077 48.653C25.454 48.468 25.881 48.257 25.966 47.692L26.006 47.4299L25.743 47.4639ZM54.752 46.9249C55.318 47.7229 56.012 48.3569 56.919 48.4819L57.407 48.549L57.103 48.1599C56.856 47.8429 56.623 47.512 56.389 47.181C55.682 46.177 54.951 45.139 53.812 44.507L53.245 44.192C53.245 44.192 53.72 45.1349 53.785 45.2639C53.13 44.3279 52.357 43.538 51.473 42.905L51.185 42.697L51.172 42.8549C50.931 41.3209 50.595 39.7629 49.488 38.9319L49.371 38.8439C49.444 38.7119 49.514 38.571 49.561 38.4L49.585 38.309L49.53 38.2319C48.922 37.3679 49.187 36.2009 49.444 35.0729L49.546 34.6099C51.628 32.9549 52.858 29.9039 53.407 28.2239C53.494 27.9559 53.54 27.6349 53.59 27.2949C53.665 26.7669 53.751 26.174 54.007 25.903C53.527 28.286 53.292 31.047 53.265 34.369L53.262 34.7429L53.575 34.538C54.464 33.956 54.39 32.7639 54.318 31.6099C54.293 31.2029 54.266 30.7819 54.287 30.4069C54.326 29.6599 54.433 28.9509 54.535 28.2639C54.674 27.3409 54.805 26.4669 54.786 25.5159C55.596 24.7779 55.865 23.5279 56.125 22.3179C56.308 21.4679 56.497 20.5899 56.87 19.9359L56.912 19.8629L56.888 19.7809C56.837 19.6079 56.699 19.5099 56.507 19.5099L56.421 19.5159L56.322 19.53L56.273 19.616C55.347 21.258 54.656 23.0549 54.171 25.1479C54.275 22.9889 55.25 20.3789 56.466 19.1089L56.945 18.6079L56.272 18.7759C54.119 19.3149 53.501 21.1119 52.849 23.0139C52.709 23.4209 52.568 23.8329 52.409 24.2369C52.016 25.2389 51.464 26.2029 50.931 27.1349C50.235 28.3509 49.575 29.5039 49.234 30.7339C49.191 30.4869 49.149 30.2389 49.106 29.9919C48.211 24.7769 47.287 19.3839 44.427 15.9829L44.073 15.562L44.074 16.1119C44.079 18.9849 44.348 21.8379 44.609 24.5949C44.73 25.8819 44.851 27.16 44.944 28.424L44.95 28.507L45.013 28.5609C45.063 28.6699 45.079 29.4149 45.089 29.8579C45.101 30.4439 45.11 30.7549 45.165 30.8929C45.241 35.1569 43.908 36.5489 41.891 38.6569C41.613 38.9469 41.323 39.2519 41.021 39.5779L41.286 39.8759C43.342 38.3779 45.55 36.3969 46.331 33.0529C46.46 32.5019 46.498 31.9119 46.538 31.2869C46.588 30.5129 46.639 29.717 46.874 28.981C47.008 29.595 46.942 30.3899 46.882 31.1099C46.817 31.8899 46.767 32.505 46.955 32.853L47.127 33.168L47.305 32.856C47.387 32.713 47.445 32.5429 47.501 32.3759C47.598 32.0849 47.676 31.8789 47.835 31.7769C47.907 32.6319 47.489 33.6449 47.178 34.4019L46.94 34.989L47.282 34.942C47.895 34.857 48.047 34.3079 48.168 33.8679C48.272 33.4869 48.357 33.225 48.581 33.124C48.661 33.79 48.508 34.2129 48.318 34.7349C48.226 34.9879 48.13 35.254 48.054 35.567L48.033 35.6489L48.079 35.7209C48.437 36.2849 48.388 36.9729 48.34 37.6389C48.287 38.3679 48.233 39.1209 48.714 39.7139L49.032 40.1079L49.068 39.603C49.078 39.464 49.11 39.3499 49.155 39.2429C49.055 41.1219 49.959 42.1149 50.833 43.0759L51.193 43.4709C51.297 43.8199 51.575 43.992 51.809 44.137C51.861 44.169 51.913 44.201 51.963 44.236C51.889 44.407 51.868 44.6029 51.899 44.8329L51.911 44.9189L51.982 44.9689C52.27 45.1719 52.635 45.587 52.988 45.989C53.583 46.664 54.096 47.2479 54.53 47.2479L54.784 47.1989L54.763 46.9569C54.762 46.9449 54.757 46.9349 54.752 46.9249ZM30.914 42.507C27.255 43.901 24.507 45.624 22.516 47.775L22.098 48.226L22.702 48.1069C23.252 47.9979 23.627 47.7229 23.988 47.4579C24.345 47.1959 24.682 46.9489 25.18 46.8669L25.273 46.8519L25.32 46.7709C25.823 45.9169 26.721 45.4589 27.714 45.0339C27.604 45.1499 27.533 45.3179 27.558 45.5709L27.583 45.8319L27.828 45.7379C28.182 45.6029 28.43 45.3549 28.563 45.0009L28.711 44.611C29.55 44.245 30.36 43.8239 30.917 43.1359C30.916 43.1389 30.84 43.452 30.84 43.452L31.151 43.3879C32.04 43.2039 32.952 43.016 33.167 42.119L33.279 41.6509L32.868 41.9009C32.682 42.0139 32.446 42.0859 32.195 42.1619C31.891 42.2549 31.563 42.354 31.31 42.546L31.461 42.2979L30.914 42.507ZM64.72 46.0939C65.183 46.5689 65.705 46.9839 66.283 47.3359L66.512 47.4749L66.581 47.2169C66.597 47.1579 66.606 47.0889 66.615 47.0189C66.62 46.9769 66.628 46.9129 66.638 46.8729C66.656 46.8889 66.701 46.9109 66.771 46.9589L67.371 47.369L67.066 46.71C66.648 45.807 65.78 45.3789 64.94 44.9659C64.582 44.7889 64.211 44.607 63.89 44.392L63.608 44.663C63.743 44.884 63.886 45.097 64.04 45.301C63.853 45.106 63.679 44.88 63.508 44.658C63.015 44.022 62.506 43.3649 61.691 43.3649H61.205L61.527 43.7079C61.623 43.8029 61.72 43.896 61.819 43.989L61.642 43.8879C61.464 43.7869 61.325 43.6359 61.177 43.4769C60.969 43.2509 60.734 42.997 60.362 42.877L60.052 42.7769L60.104 43.098C60.194 43.659 60.744 44.3129 61.319 44.3129C61.428 44.3129 61.534 44.289 61.632 44.241L61.933 44.0939C62.023 44.1769 62.112 44.2589 62.201 44.3409C62.671 44.7719 63.123 45.1859 63.501 45.6669C63.498 45.6669 63.496 45.6669 63.493 45.6669C63.381 45.6669 63.285 45.7269 63.23 45.8319L63.168 45.95L63.253 46.0529C63.286 46.0919 64.056 47.0109 64.666 47.0109C64.726 47.0109 64.784 47.0019 64.838 46.9839L65.349 46.814L64.851 46.6099C64.701 46.5489 64.614 46.4919 64.559 46.4219C64.565 46.3919 64.576 46.3769 64.62 46.3129C64.652 46.2609 64.699 46.1919 64.72 46.0939ZM30.734 44.4959C30.184 44.5659 29.56 44.6459 29.423 45.2589L29.362 45.5359L29.643 45.5009C30.109 45.4419 30.409 45.233 30.7 45.03C30.787 44.969 30.874 44.9079 30.966 44.8519L30.835 44.4829L30.734 44.4959ZM56.682 42.8459C57.218 43.6839 58.023 44.7789 58.911 44.8799L59.161 44.9089L59.132 44.6589C59.055 43.9799 58.489 43.376 58.032 42.89L57.839 42.6829C55.292 39.8869 53.599 37.3079 52.662 34.7979L52.274 34.861C52.248 35.597 52.325 36.0919 52.541 36.5649L52.636 36.775C53.57 38.834 54.977 41.9329 56.682 42.8459ZM46.817 39.033C46.567 39.851 46.263 40.621 45.97 41.366C45.542 42.45 45.138 43.473 44.947 44.52L44.899 44.7869L45.167 44.7549C46.256 44.6259 46.844 42.858 46.95 42.504C47.173 41.765 47.178 40.8679 47.182 40.0779C47.184 39.7299 47.186 39.3979 47.205 39.1049L46.817 39.033ZM26.818 42.0139C26.103 42.2529 25.466 42.8879 24.891 43.4619C24.631 43.7219 24.384 43.9679 24.153 44.1519L24.346 44.4959C25.619 44.0259 26.781 43.3449 28.005 42.3519L28.284 42.1249L27.944 42.0079C27.845 41.9729 27.745 41.9479 27.643 41.9329C27.935 41.8259 28.214 41.6939 28.408 41.4509L28.626 41.176L28.278 41.129C28.174 41.115 28.068 41.1079 27.962 41.1079C27.527 41.1079 26.997 41.2219 26.816 41.5449C26.734 41.6889 26.735 41.8539 26.818 42.0139ZM23.606 41.879C23.485 41.91 23.349 41.9389 23.205 41.9689C22.359 42.1479 21.081 42.4179 20.973 43.6699L20.947 43.9709L21.234 43.8779C22.113 43.5929 22.752 43.0689 23.369 42.5629C23.506 42.4509 23.641 42.3389 23.781 42.2299L23.606 41.879ZM35.189 43.4449C35.191 43.5329 35.227 43.6249 35.322 43.7109L35.421 43.801L35.541 43.7449C37.859 42.6699 39.833 41.0659 41.576 38.8419L41.92 38.4039L41.376 38.5239C40.248 38.7719 39.54 39.4359 38.855 40.0779C38.36 40.5409 37.889 40.981 37.272 41.275V40.7639L36.94 41.0529C36.772 41.1979 36.538 41.2939 36.29 41.3959C36.169 41.4459 36.04 41.4979 35.914 41.5599C36.304 41.2029 36.516 40.8499 36.391 40.5139L36.317 40.314L35.375 40.726C34.871 40.943 34.366 41.1609 33.881 41.3969L33.764 41.4539L33.769 41.585C33.773 41.673 33.77 41.7679 33.767 41.8619C33.757 42.1859 33.747 42.5209 33.955 42.7159L34.066 42.8199L34.343 42.6519C34.693 42.4409 35.038 42.2259 35.344 42.0099C35.222 42.1819 35.142 42.4009 35.135 42.6879L35.131 42.853L35.189 42.866L35.087 42.8889C34.817 42.9489 34.366 43.0479 34.391 43.5729L34.401 43.7679L34.596 43.7629C34.897 43.7559 35.069 43.6029 35.189 43.4449ZM56.87 39.4639C56.866 41.0929 58.007 41.8899 59.109 42.6599C59.261 42.7659 60.005 43.3029 60.005 43.3029L59.873 42.7709C59.596 41.6509 58.877 40.9799 58.183 40.3319C57.851 40.0229 57.509 39.703 57.229 39.343L57.057 39.1219C57.35 39.4159 57.719 39.6279 58.162 39.7559C58.412 40.3799 58.794 41.011 59.645 41.153L60.075 41.2249L59.849 40.8519C59.041 39.5139 57.847 38.5559 56.693 37.6899L56.225 37.3389L56.38 37.9019C56.487 38.2969 56.651 38.634 56.871 38.913L56.87 39.4639ZM41.746 42.0029C41.272 42.1149 40.964 42.4239 40.852 42.8959L40.778 43.2089L41.092 43.137C41.449 43.054 42.049 42.9159 41.991 42.1819L41.973 41.9489L41.746 42.0029ZM42.598 40.145C41.62 40.471 40.449 41.6039 39.535 42.5549L39.115 42.9929L39.713 42.8909C41.023 42.6669 41.704 41.824 42.362 41.007C42.509 40.824 42.657 40.6419 42.811 40.4659L43.3 39.9089L42.598 40.145ZM22.901 41.1279C22.623 41.1429 21.971 41.178 21.965 41.822L21.963 42.0499L22.19 42.0219C22.624 41.9679 22.927 41.7629 23.092 41.4119L23.235 41.1089L22.901 41.1279ZM24.084 40.9949C23.926 40.9949 23.698 41.014 23.56 41.174C23.467 41.2809 23.433 41.4259 23.458 41.6049L23.479 41.7529L23.627 41.775C23.682 41.783 23.732 41.7869 23.779 41.7869C24.199 41.7869 24.353 41.4919 24.455 41.2969L24.596 41.0259C24.596 41.0239 24.15 40.9949 24.084 40.9949ZM34.153 39.6459C33.681 39.7969 33.174 39.9139 32.667 40.0319C31.422 40.3179 30.134 40.6149 29.351 41.4379L29.578 41.757C30.125 41.507 30.8 41.3569 31.453 41.2109C32.552 40.9659 33.686 40.7129 34.362 39.9709L34.867 39.416L34.153 39.6459ZM27.345 39.517C26.516 39.676 25.814 40.028 25.257 40.562L25.469 40.892C25.653 40.82 25.849 40.7599 26.045 40.7009C26.631 40.5209 27.236 40.3369 27.554 39.8179L27.789 39.431L27.345 39.517ZM30.848 38.7689C29.581 38.8559 28.147 38.9539 27.58 39.9899L27.396 40.327L27.777 40.2849C29.02 40.1469 30.271 39.91 31.009 39.103L31.347 38.7339L30.848 38.7689ZM54.141 35.1479L54.187 35.4459C54.413 36.9039 54.753 39.1089 56.256 39.6539L56.669 39.8029C56.669 39.8029 56.291 38.81 56.183 38.517C55.725 37.276 55.251 35.9919 54.498 34.9959L54.141 35.1479ZM46.698 35.5089C46.331 36.5129 45.951 37.551 45.816 38.822L45.743 39.5139L46.173 38.9659C46.857 38.0949 47.26 36.3319 47.209 35.2319L46.82 35.174L46.698 35.5089ZM35.786 37.778C35.445 37.855 35.096 37.9239 34.746 37.9929C33.996 38.1399 33.221 38.2929 32.534 38.5289L31.975 38.7219L32.535 38.9069C32.638 38.9409 32.727 38.9959 32.822 39.0529C32.987 39.1529 33.174 39.2659 33.451 39.2889L33.563 39.299L33.629 39.2069C33.847 38.9049 34.233 38.8719 34.644 38.8369C35.181 38.7899 35.79 38.738 36.019 38.033L36.127 37.6989L35.786 37.778ZM39.522 37.6519C38.365 37.8519 37.415 38.2419 36.699 38.8109L36.901 39.1519C37.189 39.0299 37.547 38.9559 37.893 38.8839C38.627 38.7319 39.386 38.5739 39.732 37.9459L39.931 37.5819L39.522 37.6519ZM45.008 37.525C44.78 37.54 44.603 37.6179 44.484 37.7559C44.358 37.9019 44.305 38.1059 44.326 38.3619L44.342 38.559L44.539 38.5449C44.768 38.5299 44.944 38.4519 45.063 38.3149C45.189 38.1689 45.242 37.9649 45.221 37.7089L45.205 37.512L45.008 37.525ZM38.304 37.028C37.437 37.028 37.02 37.5049 36.782 37.8629L36.552 38.2109L36.968 38.1729C37.711 38.1059 38.224 37.8189 38.49 37.3229L38.648 37.03L38.304 37.028ZM40.409 36.408C39.718 36.466 39.336 36.837 39.026 37.228L38.713 37.624L39.212 37.5499C39.691 37.4789 40.355 37.3109 40.61 36.6819L40.732 36.3799L40.409 36.408ZM41.959 36.1769C41.875 36.2139 41.788 36.249 41.701 36.283C41.237 36.468 40.711 36.6789 40.6 37.3179L40.555 37.5779L40.818 37.5519C41.549 37.4779 42.025 37.096 42.231 36.418L42.359 35.9979L41.959 36.1769ZM51.947 32.5049C51.355 33.2189 51.926 34.198 52.265 34.783L52.671 34.7089C52.634 34.4989 52.654 34.2099 52.674 33.9299C52.719 33.2909 52.77 32.568 52.142 32.437L52.024 32.413L51.947 32.5049ZM48.821 27.5109C48.877 27.6139 48.912 27.75 48.949 27.895C49.032 28.223 49.136 28.6309 49.574 28.7289L49.682 28.7529L49.76 28.6729C49.968 28.4579 50.041 28.1459 50.111 27.8439C50.174 27.5759 50.232 27.3219 50.374 27.1899L50.457 27.114L50.435 27.004C50.396 26.815 50.302 26.689 50.219 26.577C50.142 26.473 50.082 26.3929 50.069 26.2679C50.518 25.8809 50.71 25.262 50.793 24.575C50.834 24.897 50.914 25.187 51.066 25.416L51.281 25.739L51.419 25.3759C52.884 21.5159 51.443 17.7209 47.139 14.0959C45.942 11.8509 44.917 9.67992 44.975 6.42792C44.927 6.15492 44.745 6.06192 44.623 6.00092L44.375 5.87592L44.327 6.14691C44.137 7.44891 43.791 8.89395 43.424 10.424C43.121 11.687 42.808 12.9909 42.589 14.2139C42.318 15.7349 42.47 16.6539 43.052 17.0269L43.337 17.2109L43.358 16.8719C43.415 15.9949 43.291 15.2979 43.156 14.7659C43.522 14.6169 43.549 14.245 43.566 14.03C43.567 14.022 43.567 14.0129 43.568 14.0059C44.034 14.1839 44.236 14.6319 44.466 15.1429C44.689 15.6359 44.918 16.1469 45.425 16.4149L45.727 16.575L45.719 16.2329C45.712 15.9589 45.665 15.703 45.596 15.46L45.687 15.439C45.736 15.428 45.78 15.4209 45.819 15.4199L45.816 15.864C45.803 18.046 46.503 19.5099 47.242 21.0579C47.519 21.6369 47.805 22.2349 48.066 22.8939L48.19 23.2089L48.177 23.4279C48.126 24.2449 48.317 24.8439 48.742 25.2079L48.936 25.374L49.05 25.145C49.357 24.534 48.979 23.5519 48.474 23.2659L48.373 23.2089L48.446 22.8599C48.593 22.1469 48.607 21.3899 48.5 20.687C48.637 21.144 48.747 21.62 48.797 22.093C48.814 22.256 48.789 22.447 48.765 22.632C48.708 23.058 48.639 23.5879 49.149 23.8629L49.374 23.9839L49.401 23.877C49.422 24.967 49.432 26.0799 49.419 27.1769C49.347 27.2109 49.266 27.2269 49.169 27.2269C49.125 27.2269 49.076 27.2239 49.024 27.2159L48.631 27.1609L48.821 27.5109ZM52.151 18.244C52.169 18.423 52.215 18.628 52.263 18.843C52.422 19.558 52.505 20.079 52.129 20.283L51.884 20.4169L52.089 20.606C52.233 20.739 52.293 21.0129 52.274 21.4449L52.262 21.723L52.53 21.6459C52.957 21.5219 53.458 21.1709 53.42 20.2039L53.414 20.067L53.284 20.0219C53.013 19.9299 52.987 19.7119 52.992 19.2379C52.997 18.7989 53.002 18.2509 52.42 18.0369L52.118 17.926L52.151 18.244ZM53.813 17.6559C53.847 18.1999 53.936 18.703 54.168 19.075L54.41 19.465L54.531 19.0229C55.76 14.5009 54.123 9.42792 52.532 5.96692L52.378 5.63196L52.182 5.94495C51.508 7.01095 51.514 8.56791 51.52 10.0739C51.523 10.9129 51.526 11.7049 51.408 12.3499C51.214 13.4269 51.545 14.389 52.452 15.377L52.647 15.59L52.778 15.3329C52.934 15.0249 52.857 14.6729 52.789 14.3619C52.773 14.2899 52.758 14.218 52.746 14.15C52.992 14.637 53 15.302 53.009 15.952C53.019 16.727 53.029 17.4609 53.455 17.8709L53.705 18.111C53.704 18.111 53.806 17.6949 53.813 17.6559ZM51.533 18.312C51.536 18.388 51.531 18.471 51.528 18.554C51.515 18.828 51.504 19.1129 51.673 19.2899C51.733 19.3519 51.839 19.4249 52.016 19.4249L52.132 19.4149L52.336 19.3849L52.219 18.7549C51.673 15.8109 51.109 12.7659 49.392 10.8849L49.078 10.541L49.018 11.3569C48.889 13.0639 48.743 14.9979 49.854 16.0109L50.067 16.205L50.174 15.9379C50.222 15.8189 50.233 15.705 50.223 15.601C50.366 15.891 50.485 16.2139 50.607 16.5469C50.841 17.1849 51.082 17.844 51.533 18.312ZM43.216 18.2849C43.234 18.3399 43.219 18.4739 43.206 18.5829C43.182 18.8049 43.156 19.0339 43.292 19.1849C43.339 19.2389 43.427 19.3019 43.57 19.3019L43.696 19.2869L43.865 19.252L43.854 19.0789C43.85 19.0029 43.853 18.9179 43.856 18.8339C43.867 18.5389 43.884 18.0449 43.416 18.0219L43.128 18.0089L43.216 18.2849ZM34.245 103.248C33.9 101.993 33.466 100.778 32.936 99.59C32.985 99.64 33.036 99.6879 33.088 99.7349L33.259 99.8849C33.378 100.297 33.501 100.702 33.622 101.104C33.834 101.801 34.05 102.515 34.245 103.248ZM23.143 101.736L23.225 101.761C23.602 101.88 23.598 101.93 23.579 102.171C23.572 102.263 23.563 102.373 23.573 102.501C23.572 102.502 23.285 101.988 23.143 101.736ZM59.929 102.157C60.207 101.871 60.494 101.622 60.815 101.462C60.723 101.533 60.629 101.605 60.534 101.677C60.329 101.83 60.123 101.985 59.929 102.157ZM23.108 101.676C22.652 100.872 22.181 100.071 21.665 99.309L21.974 99.1259C21.941 99.0559 21.907 98.9849 21.872 98.9149C22.346 99.7589 22.769 100.654 23.095 101.634L23.108 101.676ZM61.698 100.71C61.747 100.582 61.956 100.465 62.177 100.366C62.054 100.54 61.912 100.671 61.694 100.725C61.693 100.726 61.696 100.715 61.698 100.71ZM35.916 98.1849C35.909 97.9199 35.896 97.644 35.883 97.361C35.88 97.308 35.878 97.2569 35.875 97.2039C35.938 97.5289 36.011 97.8439 36.09 98.1509L35.916 98.1849ZM17.75 98.012C17.738 97.923 17.724 97.8379 17.705 97.7559C17.78 97.8929 17.858 98.025 17.94 98.155L17.75 98.012ZM31.683 97.741C31.689 97.425 31.699 97.103 31.717 96.788C31.756 97.01 31.801 97.2289 31.855 97.4429L31.683 97.741ZM19.855 97.09C19.72 96.957 19.583 96.827 19.441 96.702L19.134 96.9429C19.081 96.0409 18.793 95.3209 18.411 94.6829L18.391 94.2329C18.368 93.7579 18.284 93.3619 18.172 93.0129C18.375 93.3959 18.589 93.7679 18.81 94.1299L18.494 94.2869C18.756 95.4169 19.271 96.299 19.855 97.09ZM21.36 96.7529C21.141 95.2579 20.594 93.821 20.037 92.429C20.367 93.091 20.698 93.7309 21.022 94.3439L20.871 94.2859L20.979 94.671C21.142 95.249 21.406 95.929 21.739 96.653L21.478 96.7899C21.491 96.8309 21.504 96.8709 21.518 96.9109C21.519 96.909 21.414 96.8049 21.36 96.7529ZM25.391 96.799C25.273 96.799 25.211 96.7239 25.178 96.6769C24.978 96.3899 24.886 95.8269 24.953 95.5819C25.19 95.9639 25.422 96.3359 25.638 96.6949L25.433 96.796C25.418 96.798 25.404 96.799 25.391 96.799ZM24.71 95.1899C24.396 94.9219 24.198 94.5299 24.036 94.0839C24.258 94.4579 24.485 94.8289 24.71 95.1899ZM12.569 92.4869C12.585 92.4389 12.598 92.3919 12.61 92.3439C12.647 92.4989 12.692 92.6519 12.743 92.8019C12.743 92.8029 12.626 92.5939 12.569 92.4869ZM13.302 92.236C13.166 92.062 13.022 91.8959 12.866 91.7419L12.676 91.5519C12.616 90.7849 12.233 90.0449 11.858 89.3229C11.792 89.1939 11.725 89.0669 11.663 88.9409C11.716 88.9599 11.775 88.9719 11.842 88.9769L11.868 88.9789C12.235 90.2069 12.732 91.262 13.302 92.236ZM74.669 90.504C74.648 90.361 74.589 90.2289 74.469 90.1199L74.32 89.9849C74.32 89.9849 74.157 90.1679 74.143 90.1849C75.131 88.5639 75.98 86.864 76.694 85.075C76.539 85.77 76.142 86.6009 75.725 87.4739C75.373 88.2109 75.009 88.9739 74.768 89.7069C74.696 90.0099 74.768 90.174 74.826 90.306C74.837 90.331 74.847 90.3519 74.854 90.3729C74.781 90.4069 74.721 90.452 74.669 90.504ZM22.202 88.377C22.294 88.741 22.401 89.0919 22.53 89.4229C22.512 89.4399 22.496 89.458 22.481 89.478C22.428 89.549 22.395 89.6419 22.377 89.7469C22.377 89.7459 22.217 88.488 22.202 88.377ZM71.799 89.562C71.78 89.4299 71.761 89.305 71.792 89.218C71.986 88.67 72.318 88.156 72.639 87.658C73.072 86.988 73.482 86.352 73.536 85.679C73.643 85.666 73.737 85.6129 73.844 85.5529C73.865 85.5409 73.885 85.5299 73.907 85.5179C73.673 86.2179 73.282 86.8739 72.873 87.5629C72.588 88.0429 72.294 88.5389 72.046 89.0649C71.966 89.2319 71.884 89.3979 71.799 89.562ZM23.93 89.028C23.591 87.9 23.323 86.7339 23.106 85.5699C23.366 86.7519 23.638 87.904 23.93 89.028ZM77.055 84.1299C77.101 84.2209 77.169 84.266 77.214 84.296L77.321 84.27C77.288 84.295 77.233 84.3159 77.175 84.338C77.102 84.366 77.012 84.402 76.933 84.46C76.933 84.46 77.015 84.2399 77.055 84.1299ZM79.112 83.8339C79.182 83.8719 79.259 83.8949 79.337 83.8989C79.203 83.9939 79.081 84.123 78.979 84.27C78.978 84.271 79.068 83.9819 79.112 83.8339ZM79.862 82.9589C80.017 82.2609 80.264 81.5369 80.522 80.7819C80.544 80.7179 80.567 80.6519 80.589 80.5869C80.46 81.1739 80.275 81.7209 80.096 82.2499C80.019 82.4819 79.938 82.7179 79.862 82.9589ZM74.171 80.705C74.208 79.854 74.372 79.1389 74.567 78.4269C74.626 79.2059 74.45 79.964 74.171 80.705ZM74.909 77.2069L75.024 77.166C75.096 77.177 75.125 77.3169 75.061 77.4869C75.031 77.5689 74.941 77.755 74.752 77.77C74.753 77.771 74.859 77.3979 74.909 77.2069ZM4.88702 76.088C4.91302 76.017 4.94099 75.9439 4.96899 75.8699C5.07499 75.5929 5.18498 75.3059 5.22198 75.0139C5.23498 74.9139 5.24302 74.8069 5.24902 74.6929C5.23202 75.2039 5.19502 75.707 5.12902 76.184L4.88702 76.088ZM6.92102 74.0339C6.96802 73.9609 6.96801 73.8949 6.96801 73.8309C6.96701 73.7759 6.96602 73.6849 6.97802 73.6589L6.99701 73.6459C7.05401 73.7449 7.11102 73.8349 7.18902 73.8849C7.14302 73.906 7.098 73.934 7.052 73.963C7.013 73.988 6.94602 74.0299 6.92102 74.0339ZM7.33697 73.067C7.21297 73.019 7.21299 73.01 7.21099 72.989C7.31299 72.0509 7.41997 71.1609 7.53497 70.3109C7.43897 71.2219 7.42402 72.1639 7.43402 73.1079C7.43502 73.1079 7.36497 73.078 7.33697 73.067ZM24.207 72.418C24.306 71.691 24.433 71.0499 24.596 70.4449C24.727 69.9569 25.02 69.5199 25.305 69.0989C25.141 69.6349 25.019 70.1879 24.97 70.7659C24.883 70.9409 24.781 71.1889 24.679 71.4539C24.679 71.4539 24.314 72.202 24.207 72.418ZM7.67199 69.3439C8.01899 66.9979 8.42798 64.9799 8.91998 63.1879L8.979 63.2499L9.10498 63.2689C9.13998 63.2689 9.172 63.2619 9.203 63.2499C8.847 64.6719 8.54299 66.2189 8.29199 67.8939L8.065 67.8439C7.893 68.3259 7.76599 68.8279 7.67199 69.3439ZM76.328 67.7689C76.209 67.4959 76.066 67.2299 75.899 66.9749C75.856 66.2979 75.731 65.643 75.169 65.369L74.985 65.28L74.899 65.4639C74.691 65.9119 74.661 66.479 74.724 67.072C74.691 67.017 74.656 66.965 74.617 66.916L74.575 66.8629C74.633 66.1609 74.685 65.4949 74.334 64.9319C74.553 64.6139 74.647 64.2609 74.654 63.8979C74.726 64.0429 74.835 64.163 74.995 64.239L75.265 64.3669L75.281 64.077C75.321 64.156 75.367 64.2309 75.418 64.3019L75.766 64.7719L75.78 64.1879C75.788 63.8209 75.787 63.4539 75.738 63.1229C75.758 63.1599 76.449 64.478 76.449 64.478L76.479 64.2139C76.482 64.2299 76.484 64.246 76.487 64.262C76.51 64.427 76.535 64.5919 76.568 64.7469C76.462 64.7639 76.375 64.8009 76.31 64.8849C76.243 64.972 76.224 65.0849 76.254 65.2209C76.406 65.728 76.538 66.2349 76.655 66.7399C76.594 66.6479 76.524 66.5689 76.445 66.5079L76.162 66.783C76.304 66.981 76.316 67.3679 76.328 67.7429C76.328 67.7509 76.328 67.7599 76.328 67.7689ZM71.623 67.6379C71.467 66.7309 71.386 65.809 71.306 64.908C71.296 64.789 71.285 64.6709 71.275 64.5529C71.509 65.6809 71.624 66.7049 71.623 67.6379ZM69.986 67.1459C69.872 66.9529 69.884 66.699 69.936 66.366C69.981 66.625 70.014 66.8799 69.986 67.1459ZM26.584 65.9769C26.788 65.1309 26.941 64.263 27.092 63.4109C27.207 62.7589 27.32 62.114 27.454 61.494C27.493 61.315 27.536 61.1319 27.586 60.9509C27.486 61.4909 27.44 62.0449 27.431 62.6899C27.415 63.8489 27.044 64.9039 26.584 65.9769ZM70.007 64.3809C69.989 64.2269 69.969 64.0729 69.944 63.9229C70.009 63.9779 70.078 64.0229 70.14 64.0649C70.255 64.1399 70.343 64.1979 70.392 64.2839C70.358 64.2689 70.319 64.2599 70.276 64.2599C70.165 64.2589 70.073 64.3209 70.007 64.3809ZM69.83 63.34C69.573 62.237 69.116 61.2949 68.517 60.6899C68.53 60.5909 68.546 60.4939 68.565 60.3969L68.688 60.6209L68.806 60.168C68.968 60.754 69.158 61.3249 69.446 61.8029L69.593 62.0479L69.759 61.8409C69.842 62.3679 69.867 62.885 69.83 63.34ZM67.232 61.9709C67.13 61.6699 67.01 61.3649 66.88 61.0579L66.943 60.9069C67.032 60.6929 67.079 60.4529 67.096 60.2C67.118 60.445 67.134 60.698 67.151 60.955C67.173 61.293 67.194 61.6359 67.232 61.9709ZM14.711 61.806C14.595 61.388 14.639 61.0169 14.736 60.6329C14.722 60.9539 14.768 61.2609 14.906 61.5399L14.923 61.5729C14.86 61.6729 14.79 61.752 14.711 61.806ZM30.063 58.4929C30.042 58.4399 30.013 58.3859 29.979 58.3319C30.242 57.8489 30.52 57.38 30.81 56.921C30.545 57.428 30.296 57.9509 30.063 58.4929ZM9.71099 58.2199C9.66399 58.1909 9.60899 58.1679 9.54699 58.1519L9.43902 58.124C9.55702 57.861 9.67998 57.6049 9.81298 57.3569C9.86698 57.4059 9.941 57.437 10.044 57.437L10.138 57.426C9.987 57.688 9.84099 57.9519 9.71099 58.2199ZM11.357 57.2869C11.742 56.2469 12.065 55.1919 12.179 54.1429C12.264 54.0469 12.405 53.854 12.551 53.653C12.664 53.497 12.78 53.3359 12.893 53.1719L12.924 53.228C13.091 53.524 12.996 53.6619 12.824 53.9119C12.682 54.1179 12.506 54.375 12.524 54.754C12.517 54.808 12.517 54.9119 12.588 54.9919L12.648 55.0569L12.721 55.0629C12.233 55.7289 11.778 56.4709 11.357 57.2869ZM65.416 56.7579C65.197 56.2319 64.965 55.7049 64.647 55.2549C64.649 55.2569 64.65 55.2589 64.652 55.2609C65.145 55.8499 65.503 56.3269 65.416 56.7579ZM64.333 54.8669C64.237 54.7659 64.136 54.6719 64.026 54.5859L63.624 54.267L63.687 54.663C63.166 53.778 62.581 52.9539 61.939 52.1959L62.002 52.2079C62.06 52.2189 62.11 52.2239 62.156 52.2239C62.316 52.2239 62.422 52.169 62.485 52.137C62.909 52.535 63.233 53.089 63.577 53.674C63.784 54.028 63.996 54.3899 64.233 54.7339C64.266 54.7769 64.298 54.8209 64.333 54.8669ZM56.672 54.356C56.523 53.511 56.32 52.7139 56.034 51.9979C56.037 52.0009 56.372 52.4349 56.372 52.4349C56.355 53.2279 56.615 53.9059 56.851 54.5059L56.672 54.356ZM69.681 53.585C69.587 53.439 69.498 53.2949 69.417 53.1519L69.35 53.0359L69.217 53.054L69.122 53.0599C69.007 53.0629 68.745 53.0709 68.682 53.3019C68.548 53.1349 68.411 52.9649 68.268 52.7899C68.355 52.8229 68.442 52.8419 68.53 52.8419L68.671 52.825L68.663 52.674C68.839 52.797 69.049 52.8989 69.223 52.8989C69.265 52.8989 69.306 52.893 69.343 52.882C69.343 52.882 69.639 53.503 69.681 53.585ZM13.286 52.9709C13.253 52.9709 13.218 52.9619 13.18 52.9459L13.073 52.8979C13.267 52.584 13.429 52.261 13.505 51.939L13.568 52.0139C13.688 52.1579 13.692 52.467 13.576 52.715C13.546 52.775 13.442 52.9709 13.286 52.9709ZM60.577 49.8449C60.412 49.6579 60.255 49.4809 60.165 49.2449C60.223 49.2369 60.301 49.2339 60.351 49.2319C60.394 49.2299 60.444 49.228 60.495 49.223L60.602 49.6939C60.625 49.7949 60.656 49.889 60.694 49.978C60.693 49.979 60.616 49.8889 60.577 49.8449ZM47.56 19.8599C47.358 19.3809 47.239 18.797 47.122 18.231C47.028 17.771 46.932 17.3019 46.791 16.8729C46.991 17.2699 47.159 17.6769 47.182 18.2319L47.186 18.3099L47.242 18.3649C47.335 18.4579 47.449 18.5179 47.551 18.5709C47.574 18.5839 47.597 18.5949 47.618 18.6069L47.556 19.0659C47.538 19.1979 47.546 19.3569 47.555 19.5159C47.563 19.6639 47.566 19.7779 47.56 19.8599ZM46.322 15.9189C46.271 15.8529 46.218 15.788 46.161 15.728L45.874 15.421C45.965 15.432 46.021 15.4769 46.103 15.5389C46.14 15.5679 46.178 15.5969 46.218 15.6229C46.249 15.7259 46.284 15.8239 46.322 15.9189Z" fill="#604C3F"/>
</svg>
