<svg width="380" height="334" viewBox="0 0 380 334" fill="none" xmlns="http://www.w3.org/2000/svg">
<path fill-rule="evenodd" clip-rule="evenodd" d="M379.06 186.575C378.89 184.964 377.744 183.199 377.636 181.6C377.271 176.151 376.025 171.465 374.083 166.32C370.921 157.945 366.837 152.457 362.001 146.42C359.454 143.243 357.478 139.685 355.249 137.535C353.352 135.711 350.202 134.959 348.852 132.563C347.088 129.423 346.75 124.375 346.01 121.19C344.075 112.877 341.164 107.197 337.125 101.292C335.072 98.2867 333.588 94.9037 331.439 92.4067C326.841 87.0667 320.914 82.9487 314.738 78.9017C307.861 74.4007 301.476 71.9657 293.062 68.9517C285.294 66.1727 275.813 62.5997 266.766 64.6877C265.476 63.1357 264.238 61.5287 262.857 60.0687C259.853 60.0007 258.854 58.6787 257.526 57.5817C253.245 54.0407 245.287 53.8387 240.825 50.8297C224.172 46.5937 206.046 47.6357 190.719 52.9607C190.428 47.9827 187.559 44.8667 186.101 41.5927C183.167 35.0047 181.115 28.5237 177.216 23.1127C173.785 18.3477 168.761 15.3597 165.846 9.96474C159.92 7.48074 156.985 2.00672 150.209 0.371724C150.08 -0.685276 145.37 2.52674 141.681 3.21474C137.686 3.95474 133.122 3.16269 130.31 5.69869C126.428 9.97369 128.707 17.9427 134.218 18.8497C135.442 22.5167 138.415 24.0837 140.26 27.3757C142.91 32.1067 143.881 37.7447 146.301 42.6557C147.946 45.9917 151.35 48.2357 151.277 52.2517C139.344 48.5197 129.509 51.4437 121.072 55.0967C117.419 56.6717 113.711 58.1207 110.411 59.7147C99.048 65.1977 93.772 75.0487 85.536 82.1017C65.395 83.7447 51.369 90.6707 37.919 98.4467C26.926 104.803 20.122 111.007 13.4 120.479C10.638 124.368 7.31496 128.184 5.58196 132.206C-0.0770369 145.336 0.129966 164.741 1.67297 180.889C2.24497 186.884 2.52197 192.376 4.15997 197.591C5.55797 202.039 9.75496 206.447 10.556 210.384C10.927 212.208 10.398 214.365 10.556 216.424C10.738 218.793 11.696 221.269 11.978 223.53C12.566 228.27 12.552 232.683 14.109 237.39C15.487 241.555 16.25 246.543 18.373 249.471C19.774 251.401 22.462 253.265 24.414 255.512C26.433 257.837 27.685 260.723 29.389 262.974C32.869 267.573 38.013 269.6 42.893 272.924C52.409 279.407 61.716 285.797 76.295 286.429C85.989 303.385 98.57 317.455 117.161 325.516C127.966 334.419 150.939 335.141 165.49 332.978C168.681 332.504 171.753 332.359 174.729 331.913C184.496 330.444 191.801 326.699 199.247 323.03C205.05 320.167 210.589 317.874 215.593 315.566C218.51 316.982 221.113 319.886 224.477 321.606C227.412 323.11 230.95 323.642 234.783 324.804C239.714 326.302 246.396 329.032 251.13 329.424C258.375 330.027 263.258 329.053 268.54 328.002C273.861 326.944 304.574 322.207 314.738 305.259C319.429 297.44 323.299 289.426 326.109 278.965C328.041 278.052 345.763 273.016 350.273 264.749C351.16 263.124 352.98 261.218 354.537 259.42C361.971 250.828 366.402 242.09 371.594 231.702C374.967 224.953 375.58 219.604 377.282 211.445C379.034 203.042 379.919 194.794 379.06 186.575Z" fill="#EC7A3C"/>
<path fill-rule="evenodd" clip-rule="evenodd" d="M150.261 2.14575C152.557 0.879753 160.261 8.02076 165.135 11.3488C170.821 15.2278 180.06 29.8918 181.836 35.5848C183.102 39.6408 192.141 63.9808 194.274 70.7228C195.794 75.5328 218.449 88.8178 229.066 88.6558C239.682 88.4948 243.221 94.7057 243.221 97.0267C243.221 99.3467 225.292 99.4508 223.404 100.224C221.517 100.998 217.979 100.179 217.742 102.712C217.507 105.244 225.287 115.813 224.348 118.208C223.41 120.606 214.865 123.559 209.198 125.854C203.531 128.151 204.337 136.607 201.75 137.332C192.142 140.025 178.397 122.047 170.821 122.613C163.244 123.176 147.886 123.401 145.341 125.854C142.796 128.309 137.289 121.718 136.352 118.881C135.414 116.042 127.028 115.95 127.028 110.528C127.028 108.76 134.719 107.145 136.352 104.488C137.984 101.831 125.328 102.712 122.667 98.4468C120.006 94.1838 138.024 86.1808 147.849 86.8058C157.674 87.4318 158.157 81.0858 159.902 74.8098C161.647 68.5338 156.925 64.8747 154.069 55.8027C151.214 46.7367 140.261 27.3757 139.181 22.2247C138.145 17.2737 130.761 15.1218 130.489 12.7618C130.216 10.4048 135.259 3.18676 139.181 4.97876C143.103 6.76576 148.245 3.25875 150.261 2.14575Z" fill="#008457"/>
<path fill-rule="evenodd" clip-rule="evenodd" d="M153.765 6.76562C153.803 7.65162 154.43 7.86764 153.765 8.54364C152.505 7.85764 151.711 8.55164 150.21 8.54364C150.375 6.35064 152.486 8.05562 153.765 6.76562Z" fill="#604C3F"/>
<path fill-rule="evenodd" clip-rule="evenodd" d="M161.226 13.5176C165.633 14.9156 168.756 17.5955 170.11 22.0475C167.545 18.8065 164.156 16.3936 161.226 13.5176Z" fill="#604C3F"/>
<path fill-rule="evenodd" clip-rule="evenodd" d="M154.831 18.1387C155.066 18.1387 155.305 18.1387 155.541 18.1387C160.264 22.2987 162.32 29.1257 165.136 35.1947C163.191 31.6707 158.18 27.8947 159.095 23.8257C157.962 21.6387 155.532 20.7527 154.831 18.1387Z" fill="#604C3F"/>
<path fill-rule="evenodd" clip-rule="evenodd" d="M165.491 20.9805C166.828 21.0655 166.877 22.4374 167.267 23.4664C166.383 22.9304 165.643 22.2495 165.491 20.9805Z" fill="#604C3F"/>
<path fill-rule="evenodd" clip-rule="evenodd" d="M151.987 21.6914C156.145 23.2204 156.683 28.3654 158.027 32.7074C155.505 29.5434 154.212 25.1534 151.987 21.6914Z" fill="#604C3F"/>
<path fill-rule="evenodd" clip-rule="evenodd" d="M144.525 24.8887C144.879 24.8887 145.236 24.8887 145.591 24.8887C145.902 25.8567 146.47 27.7407 145.948 28.4447C145.036 27.6947 144.594 26.4787 144.525 24.8887Z" fill="#604C3F"/>
<path fill-rule="evenodd" clip-rule="evenodd" d="M173.309 27.377C177.494 31.839 179.146 38.834 181.481 45.145C178.443 39.768 175.278 32.643 173.309 27.377Z" fill="#604C3F"/>
<path fill-rule="evenodd" clip-rule="evenodd" d="M148.079 28.8002C148.079 29.5072 148.079 30.2202 148.079 30.9322C146.945 31.2372 146.979 30.3722 146.301 30.2202C146.368 29.2222 146.919 28.7052 148.079 28.8002Z" fill="#604C3F"/>
<path fill-rule="evenodd" clip-rule="evenodd" d="M149.5 34.1274C149.5 34.4844 149.5 34.8404 149.5 35.1934C149.087 35.4914 148.547 35.6624 147.723 35.5494C146.871 34.3644 148.425 33.2424 149.5 34.1274Z" fill="#604C3F"/>
<path fill-rule="evenodd" clip-rule="evenodd" d="M158.383 33.7734C159.935 38.6174 161.588 43.3615 163.358 47.9855C159.194 45.7575 159.451 39.1024 158.383 33.7734Z" fill="#604C3F"/>
<path fill-rule="evenodd" clip-rule="evenodd" d="M160.16 33.7734C164.012 36.6734 164.213 43.2235 167.623 46.5665C168.392 45.1905 166.315 43.6184 166.557 41.5914C170.469 45.9734 171.994 52.7345 172.598 60.4235C170.64 56.6965 170.929 50.7224 168.333 47.6324C167.591 49.5014 169.131 53.8614 169.044 55.0964C165.407 53.8744 168.428 45.9955 164.78 44.7875C164.518 46.4705 165.18 47.2315 165.136 48.6965C162.673 44.5275 163.411 37.1554 160.16 33.7734Z" fill="#604C3F"/>
<path fill-rule="evenodd" clip-rule="evenodd" d="M180.772 48.3428C182.753 50.9798 182.85 55.5018 184.68 58.2938C182.591 57.1808 181.102 52.3958 180.772 48.3428Z" fill="#604C3F"/>
<path fill-rule="evenodd" clip-rule="evenodd" d="M174.73 50.4746C178.335 53.0426 179.847 59.5527 180.415 63.9807C178.523 59.4757 176.377 55.2246 174.73 50.4746Z" fill="#604C3F"/>
<path fill-rule="evenodd" clip-rule="evenodd" d="M179.35 51.542C180.475 54.442 182.161 56.781 182.903 60.069C181.164 59.2 179.269 55.414 179.35 51.542Z" fill="#604C3F"/>
<path fill-rule="evenodd" clip-rule="evenodd" d="M220.57 56.8711C221.883 56.8771 222.19 60.4131 220.925 60.7791C218.912 60.7561 220.149 57.6671 220.57 56.8711Z" fill="#604C3F"/>
<path fill-rule="evenodd" clip-rule="evenodd" d="M167.978 58.2939C171.028 59.2999 170.274 63.3719 170.821 66.1099C168.836 66.4619 168.535 63.535 170.11 63.27C169.289 61.721 168.044 60.5949 167.978 58.2939Z" fill="#604C3F"/>
<path fill-rule="evenodd" clip-rule="evenodd" d="M172.598 60.7783C175.196 64.3403 177.771 67.9263 179.35 72.5053C176.604 69.0923 174.037 65.5003 172.598 60.7783Z" fill="#604C3F"/>
<path fill-rule="evenodd" clip-rule="evenodd" d="M186.102 64.334C188.745 65.6 189.832 68.421 191.076 71.085C188.937 69.317 187.386 66.958 186.102 64.334Z" fill="#604C3F"/>
<path fill-rule="evenodd" clip-rule="evenodd" d="M128.179 65.3999C128.427 66.4929 128.427 66.0809 128.179 67.1749C126.838 67.3319 126.51 66.4769 125.691 66.1089C125.741 65.0939 127.173 65.4619 128.179 65.3999Z" fill="#604C3F"/>
<path fill-rule="evenodd" clip-rule="evenodd" d="M183.969 67.1757C185.431 66.5537 186.582 69.2927 186.457 71.4397C188.019 74.1417 190.396 76.0297 191.076 79.6147C186.923 78.4377 187.424 72.6077 183.969 70.7307C184.558 69.6897 185.072 68.1177 183.969 67.1757Z" fill="#604C3F"/>
<path fill-rule="evenodd" clip-rule="evenodd" d="M170.822 71.7979C175.578 73.3189 177.471 77.7009 177.928 83.5249C176.003 82.0119 176.316 78.2629 174.73 76.4159C174.218 76.4979 174.605 77.4769 174.019 77.4819C172.53 76.0089 171.601 73.9789 170.822 71.7979Z" fill="#604C3F"/>
<path fill-rule="evenodd" clip-rule="evenodd" d="M181.837 77.4805C184.487 78.3045 186.373 81.6594 186.811 83.5234C184.96 81.7024 182.965 80.0235 181.837 77.4805Z" fill="#604C3F"/>
<path fill-rule="evenodd" clip-rule="evenodd" d="M169.4 80.6816C172.402 82.6516 173.943 86.0876 175.796 89.2076C173.074 86.9546 170.986 84.0686 169.4 80.6816Z" fill="#604C3F"/>
<path fill-rule="evenodd" clip-rule="evenodd" d="M128.179 83.5239C129.481 83.2969 131.371 85.5339 132.798 86.3659C131.2 88.0799 129.589 84.3009 128.179 83.5239Z" fill="#604C3F"/>
<path fill-rule="evenodd" clip-rule="evenodd" d="M299.103 84.2314C299.955 84.4484 300.725 84.7464 301.946 84.5884C301.838 86.0014 302.629 86.5104 304.078 86.3644C303.608 87.9074 301.043 87.3544 299.46 87.7864C299.097 87.3174 299.11 86.4755 298.748 86.0095C297.473 86.1395 297.446 86.9635 296.261 86.3655C296.181 83.9195 299.135 86.0914 299.103 84.2314Z" fill="#604C3F"/>
<path fill-rule="evenodd" clip-rule="evenodd" d="M209.199 85.6533C213.355 86.4763 217.022 87.7833 219.86 89.9183C216.692 89.5283 211.467 88.1243 209.199 85.6533Z" fill="#604C3F"/>
<path fill-rule="evenodd" clip-rule="evenodd" d="M292.706 86.3658C292.298 87.8408 289.396 88.3568 288.088 87.7878C287.76 85.5188 292.109 85.5178 292.706 86.3658Z" fill="#604C3F"/>
<path fill-rule="evenodd" clip-rule="evenodd" d="M307.987 85.6533C308.069 87.0113 306.032 87.4313 305.145 86.7173C305.548 85.8203 306.72 85.6903 307.987 85.6533Z" fill="#604C3F"/>
<path fill-rule="evenodd" clip-rule="evenodd" d="M190.72 92.0503C189.15 90.5423 187.322 89.2923 186.102 87.4323C188.277 86.7853 190.62 90.6203 190.72 92.0503Z" fill="#604C3F"/>
<path fill-rule="evenodd" clip-rule="evenodd" d="M180.772 88.8535C181.955 87.9245 182.647 90.5145 182.903 91.6975C185.289 94.6425 189.892 95.3665 192.142 98.4475C187.453 96.1475 182.04 94.5705 180.772 88.8535Z" fill="#604C3F"/>
<path fill-rule="evenodd" clip-rule="evenodd" d="M169.754 88.8535C173.057 91.2365 173.217 96.7615 176.151 99.5135C174.792 99.7975 173.516 96.9445 172.597 95.6045C172.121 95.8375 171.935 96.3665 171.887 97.0265C170.608 94.8715 170.479 91.5665 169.754 88.8535Z" fill="#604C3F"/>
<path fill-rule="evenodd" clip-rule="evenodd" d="M160.516 89.9189C160.871 89.9189 161.226 89.9189 161.583 89.9189C163.009 92.4329 161.014 94.4699 160.16 96.6719C159.145 94.4699 161.522 92.3279 160.516 89.9189Z" fill="#604C3F"/>
<path fill-rule="evenodd" clip-rule="evenodd" d="M316.515 89.9189C319.457 91.5619 313.595 94.0869 313.673 90.9849C314.349 90.6039 316.112 91.3359 316.515 89.9189Z" fill="#604C3F"/>
<path fill-rule="evenodd" clip-rule="evenodd" d="M227.323 93.8283C231.811 93.6013 235.598 94.0813 237.627 96.3153C235.884 95.2103 229.228 95.9533 227.323 93.8283Z" fill="#604C3F"/>
<path fill-rule="evenodd" clip-rule="evenodd" d="M130.665 94.1846C131.495 94.1846 132.324 94.1846 133.153 94.1846C133.108 94.8206 133.589 94.9346 133.508 95.6046C132.521 96.3326 130.331 95.8886 130.665 94.1846Z" fill="#604C3F"/>
<path fill-rule="evenodd" clip-rule="evenodd" d="M205.29 103.067C201.813 101.451 200.004 98.1668 196.407 96.6718C199.556 95.8468 203.289 100.394 205.29 103.067Z" fill="#604C3F"/>
<path fill-rule="evenodd" clip-rule="evenodd" d="M185.746 96.6719C186.916 97.5159 187.652 98.7889 188.233 100.224C186.822 99.6209 186.199 98.2339 185.746 96.6719Z" fill="#604C3F"/>
<path fill-rule="evenodd" clip-rule="evenodd" d="M169.044 98.8018C171.303 101.519 173.316 104.482 174.019 108.753C172.124 107.449 171.846 104.529 170.466 102.712C168.026 103.413 169.479 106.68 169.4 108.399C168.042 106.913 167.834 104.279 167.623 101.646C169.597 101.745 168.719 99.5358 169.044 98.8018Z" fill="#604C3F"/>
<path fill-rule="evenodd" clip-rule="evenodd" d="M194.984 100.581C200.166 102.505 203.626 106.151 208.134 108.753C202.725 108.474 198.683 103.753 194.984 100.581Z" fill="#604C3F"/>
<path fill-rule="evenodd" clip-rule="evenodd" d="M177.928 102.712C180.193 104.711 182.529 106.639 183.969 109.464C181.623 107.546 178.77 106.134 177.928 102.712Z" fill="#604C3F"/>
<path fill-rule="evenodd" clip-rule="evenodd" d="M158.028 104.135C158.345 104.292 158.664 104.443 158.739 104.844C157.83 108.201 155.26 109.894 153.765 112.662C153.587 114.261 153.524 115.975 151.987 116.217C152.202 115.365 152.498 114.595 152.342 113.372C149.049 112.499 146.653 115.465 144.524 116.926C142.96 113.172 149.84 112.185 152.697 110.529C153.998 107.921 156.218 106.231 158.028 104.135Z" fill="#604C3F"/>
<path fill-rule="evenodd" clip-rule="evenodd" d="M215.595 110.528C212.211 109.176 210.851 105.797 207.067 104.843C210.502 103.387 213.738 108.06 215.595 110.528Z" fill="#604C3F"/>
<path fill-rule="evenodd" clip-rule="evenodd" d="M144.169 109.107C143.55 111.331 141.087 111.709 139.905 113.371C139.5 114.506 139.836 116.381 137.774 115.86C139.049 112.962 141.422 109.357 144.169 109.107Z" fill="#604C3F"/>
<path fill-rule="evenodd" clip-rule="evenodd" d="M171.888 109.464C173.62 109.472 173.99 113.529 171.888 113.372C171.159 112.136 172.823 111.168 171.888 109.464Z" fill="#604C3F"/>
<path fill-rule="evenodd" clip-rule="evenodd" d="M211.686 111.238C215.532 112.388 219.573 115.17 220.569 117.99C217.366 115.983 214.297 113.842 211.686 111.238Z" fill="#604C3F"/>
<path fill-rule="evenodd" clip-rule="evenodd" d="M177.217 111.951C178.845 113.049 179.711 114.904 180.061 117.283C179.032 115.759 176.993 113.565 177.217 111.951Z" fill="#604C3F"/>
<path fill-rule="evenodd" clip-rule="evenodd" d="M186.102 112.307C190.968 116.205 197.109 118.828 200.316 124.389C197.681 123.824 197.646 120.663 195.34 119.769C194.246 119.507 194.658 120.744 193.562 120.48C191.558 117.274 187.783 115.837 186.102 112.307Z" fill="#604C3F"/>
<path fill-rule="evenodd" clip-rule="evenodd" d="M225.546 112.662C228.803 112.845 231.023 117.134 235.496 117.283C232.046 118.481 227.634 115.126 225.546 112.662Z" fill="#604C3F"/>
<path fill-rule="evenodd" clip-rule="evenodd" d="M203.513 114.438C206.23 115.392 208.658 116.637 209.199 119.768C207.152 118.146 205.173 116.451 203.513 114.438Z" fill="#604C3F"/>
<path fill-rule="evenodd" clip-rule="evenodd" d="M176.152 115.147C177.552 117.455 180.588 119.903 180.416 122.612C178.308 121.012 176.22 117.612 176.152 115.147Z" fill="#604C3F"/>
<path fill-rule="evenodd" clip-rule="evenodd" d="M185.389 115.147C188.281 115.933 188.933 118.95 190.367 121.19C188.101 119.783 186.536 117.677 185.389 115.147Z" fill="#604C3F"/>
<path fill-rule="evenodd" clip-rule="evenodd" d="M147.369 116.926C147.723 116.926 148.079 116.926 148.433 116.926C149.047 117.718 148.812 119.938 147.012 119.412C146.807 118.26 147.256 117.761 147.369 116.926Z" fill="#604C3F"/>
<path fill-rule="evenodd" clip-rule="evenodd" d="M331.44 117.638C332.717 118.136 333.975 118.656 334.284 120.126C332.966 119.668 332.114 118.74 331.44 117.638Z" fill="#604C3F"/>
<path fill-rule="evenodd" clip-rule="evenodd" d="M183.969 124.033C185.536 123.772 185.425 125.185 186.457 125.456C185.598 126.406 183.534 125.555 183.969 124.033Z" fill="#604C3F"/>
<path fill-rule="evenodd" clip-rule="evenodd" d="M195.34 124.389C197.565 126.664 199.924 128.808 201.025 132.207C198.074 130.656 196.576 127.654 195.34 124.389Z" fill="#604C3F"/>
<path fill-rule="evenodd" clip-rule="evenodd" d="M191.431 127.231C193.718 126.845 196.502 129.027 197.116 131.497C194.93 130.364 193.198 128.781 191.431 127.231Z" fill="#604C3F"/>
<path fill-rule="evenodd" clip-rule="evenodd" d="M31.878 133.627C32.127 135.417 31.14 135.97 29.39 135.759C29.354 134.185 30.549 133.84 31.878 133.627Z" fill="#604C3F"/>
<path fill-rule="evenodd" clip-rule="evenodd" d="M40.0519 133.983C40.1069 134.866 39.4929 135.082 39.3419 135.758C37.9659 135.949 37.6059 135.126 36.1429 135.405C35.7429 133.333 38.8449 133.313 40.0519 133.983Z" fill="#604C3F"/>
<path fill-rule="evenodd" clip-rule="evenodd" d="M29.3909 140.38C27.9859 140.712 27.2769 140.711 27.2589 138.957C28.4129 138.376 29.5119 138.765 29.3909 140.38Z" fill="#604C3F"/>
<path fill-rule="evenodd" clip-rule="evenodd" d="M20.1509 140.023C21.2159 140.023 22.2839 140.023 23.3489 140.023C23.5339 140.549 23.8739 140.919 24.0589 141.446C25.3169 141.637 24.9339 140.186 26.1919 140.379C26.1879 141.322 26.3259 142.408 25.8369 142.866C24.6749 142.52 19.4409 142.243 20.1509 140.023Z" fill="#604C3F"/>
<path fill-rule="evenodd" clip-rule="evenodd" d="M17.6649 144.29C16.2219 144.429 15.1889 144.159 15.1769 142.867C16.3809 142.059 18.2079 141.765 17.6649 144.29Z" fill="#604C3F"/>
<path fill-rule="evenodd" clip-rule="evenodd" d="M111.832 160.988C113.559 161.34 111.45 163.246 111.477 164.185C110.289 163.204 112.156 162.284 111.832 160.988Z" fill="#604C3F"/>
<path fill-rule="evenodd" clip-rule="evenodd" d="M232.652 166.675C234.195 166.555 234.516 167.656 234.784 168.808C233.174 168.996 232.464 168.287 232.652 166.675Z" fill="#604C3F"/>
<path fill-rule="evenodd" clip-rule="evenodd" d="M240.826 183.021C240.51 183.297 240.023 183.405 239.405 183.378C239.781 184.424 240.604 185.021 241.182 185.865C240.779 186.53 240.761 187.575 239.405 187.288C238.605 186.15 239.655 183.494 237.983 184.088C237.983 181.836 237.983 179.588 237.983 177.337C238.621 177.293 238.733 177.774 239.405 177.693C239.774 175.901 239.041 175.214 237.983 174.85C237.363 175.176 237.199 175.961 237.274 176.982C235.805 176.672 234.84 174.368 235.141 173.43C240.9 171.37 240.583 178.387 240.826 183.021Z" fill="#604C3F"/>
<path fill-rule="evenodd" clip-rule="evenodd" d="M334.284 179.821C335.919 180.553 335.819 183.025 338.548 182.665C337.45 185.254 331.673 182.242 334.284 179.821Z" fill="#604C3F"/>
<path fill-rule="evenodd" clip-rule="evenodd" d="M340.325 186.931C342.425 187.2 342.169 189.824 342.811 191.549C342.399 191.849 341.858 192.02 341.034 191.903C341.696 190.297 339.399 188.65 340.325 186.931Z" fill="#604C3F"/>
<path fill-rule="evenodd" clip-rule="evenodd" d="M371.595 193.327C371.949 192.905 372.783 196.423 371.951 197.236C370.946 196.039 371.759 195.234 371.595 193.327Z" fill="#604C3F"/>
<path fill-rule="evenodd" clip-rule="evenodd" d="M350.274 194.749C350.627 194.749 350.985 194.749 351.34 194.749C351.85 197.319 354.184 198.067 355.604 199.721C353.2 200.196 350.128 196.851 350.274 194.749Z" fill="#604C3F"/>
<path fill-rule="evenodd" clip-rule="evenodd" d="M349.919 200.432C348.901 200.503 347.98 200.478 348.142 199.365C348.827 198.675 350.315 198.994 349.919 200.432Z" fill="#604C3F"/>
<path fill-rule="evenodd" clip-rule="evenodd" d="M352.761 201.857C349.114 202.059 353.097 198.075 352.761 201.857V201.857Z" fill="#604C3F"/>
<path fill-rule="evenodd" clip-rule="evenodd" d="M359.868 205.408C361.419 206.41 363.86 208.199 363.423 210.029C361.241 209.486 360.188 207.813 359.868 205.408Z" fill="#604C3F"/>
<path fill-rule="evenodd" clip-rule="evenodd" d="M357.737 206.476C358.895 206.383 359.446 206.897 359.512 207.896C358.656 207.75 358.741 208.545 357.737 208.25C357.282 207.786 357.282 206.941 357.737 206.476Z" fill="#604C3F"/>
<path fill-rule="evenodd" clip-rule="evenodd" d="M355.249 208.963C355.604 208.963 355.96 208.963 356.315 208.963C356.704 210.695 360.413 216.446 356.671 215.714C358.749 212.817 354.081 213.033 355.249 208.963Z" fill="#604C3F"/>
<path fill-rule="evenodd" clip-rule="evenodd" d="M248.998 210.385C248.81 210.67 248.628 210.96 248.644 211.448C247.485 211.542 246.934 211.027 246.867 210.029C247.614 209.247 248.446 209.954 248.998 210.385Z" fill="#604C3F"/>
<path fill-rule="evenodd" clip-rule="evenodd" d="M363.776 212.16C365.286 212.786 366.35 213.852 366.975 215.358C365.146 216.521 363.528 213.078 363.776 212.16Z" fill="#604C3F"/>
<path fill-rule="evenodd" clip-rule="evenodd" d="M362.356 213.583C363.764 216.499 364.053 218.602 364.489 222.11C363.112 221.717 363.225 223.366 362.356 222.466C361.727 221.268 362.915 219.572 361.29 218.911C361.606 216.911 363.321 215.872 362.356 213.583Z" fill="#604C3F"/>
<path fill-rule="evenodd" clip-rule="evenodd" d="M122.493 215.003C121.901 215.981 120.682 217.726 119.295 216.779C119.501 215.418 121.194 214.146 122.493 215.003Z" fill="#604C3F"/>
<path fill-rule="evenodd" clip-rule="evenodd" d="M248.998 217.492C250.219 217.571 250.547 218.547 250.776 219.623C249.078 220.042 248.276 218.392 248.998 217.492Z" fill="#604C3F"/>
<path fill-rule="evenodd" clip-rule="evenodd" d="M121.072 220.688C120.28 222.623 118.209 223.273 117.163 224.951C117.37 222.607 118.587 219.596 121.072 220.688Z" fill="#604C3F"/>
<path fill-rule="evenodd" clip-rule="evenodd" d="M248.644 221.044C249.903 222.508 250.726 224.41 251.486 226.376C248.442 226.868 248.197 222.883 248.644 221.044Z" fill="#604C3F"/>
<path fill-rule="evenodd" clip-rule="evenodd" d="M49.2899 224.243C50.5039 224.093 51.3139 224.351 51.0669 225.665C49.8519 225.815 49.0429 225.556 49.2899 224.243Z" fill="#604C3F"/>
<path fill-rule="evenodd" clip-rule="evenodd" d="M121.782 224.598C121.924 225.926 121.498 226.684 120.361 226.73C119.77 226.034 120.627 224.632 121.782 224.598Z" fill="#604C3F"/>
<path fill-rule="evenodd" clip-rule="evenodd" d="M342.811 226.376C343.588 226.428 343.573 227.27 343.522 228.151C342.411 228.315 341.936 227.842 342.1 226.729C342.515 226.787 342.733 226.653 342.811 226.376Z" fill="#604C3F"/>
<path fill-rule="evenodd" clip-rule="evenodd" d="M46.0929 227.795C47.4409 227.485 47.7619 228.976 47.1579 229.574C46.4249 229.359 45.8119 229.021 46.0929 227.795Z" fill="#604C3F"/>
<path fill-rule="evenodd" clip-rule="evenodd" d="M116.808 228.859C118.298 228.91 118.26 230.489 118.229 232.059C117.191 232.444 116.892 233.562 115.386 233.48C115.979 232.061 116.267 230.336 116.808 228.859Z" fill="#604C3F"/>
<path fill-rule="evenodd" clip-rule="evenodd" d="M46.4479 232.06C47.3519 232.103 47.8259 232.577 47.8689 233.481C47.1629 233.484 47.4169 234.453 46.4479 234.193C45.9609 233.74 45.9609 232.514 46.4479 232.06Z" fill="#604C3F"/>
<path fill-rule="evenodd" clip-rule="evenodd" d="M46.803 234.549C47.1 234.961 47.272 235.5 47.158 236.323C46.738 236.731 45.903 236.727 45.027 236.679C44.31 235.369 45.52 234.815 46.803 234.549Z" fill="#604C3F"/>
<path fill-rule="evenodd" clip-rule="evenodd" d="M41.828 235.614C42.911 235.597 43.211 236.364 43.96 236.678C43.433 238.243 40.628 236.955 41.828 235.614Z" fill="#604C3F"/>
<path fill-rule="evenodd" clip-rule="evenodd" d="M345.298 236.322C345.956 236.376 345.517 237.527 346.011 237.745C346.718 237.386 347.527 237.131 347.788 236.322C348.557 237.274 348.269 237.936 348.142 239.165C346.997 239.743 346.216 239.337 344.945 239.165C344.692 237.848 345.55 237.642 345.298 236.322Z" fill="#604C3F"/>
<path fill-rule="evenodd" clip-rule="evenodd" d="M110.056 237.035C111.173 236.986 111.277 237.947 111.477 238.813C111.064 238.754 110.846 238.891 110.767 239.166C109.859 239.128 110.061 237.977 110.056 237.035Z" fill="#604C3F"/>
<path fill-rule="evenodd" clip-rule="evenodd" d="M41.1169 238.102C41.5849 238.227 41.6749 238.727 42.1829 238.813C42.0039 240.528 41.3479 241.768 39.3409 241.655C39.5409 240.078 40.0619 238.823 41.1169 238.102Z" fill="#604C3F"/>
<path fill-rule="evenodd" clip-rule="evenodd" d="M45.7369 239.878C44.6239 240.042 44.1509 239.569 44.3159 238.458C45.4579 237.489 46.4539 238.82 45.7369 239.878Z" fill="#604C3F"/>
<path fill-rule="evenodd" clip-rule="evenodd" d="M112.543 240.232C113.933 241.216 114.771 243.343 113.254 244.497C111.879 244.805 111.99 243.63 111.123 243.431C111.025 244.637 111.396 246.31 110.767 246.985C109.648 246.328 109.724 244.474 109.701 242.719C111.46 242.64 112.086 242.217 112.543 240.232Z" fill="#604C3F"/>
<path fill-rule="evenodd" clip-rule="evenodd" d="M44.6709 241.301C44.9689 241.711 45.1389 242.252 45.0269 243.076C44.5519 243.582 43.0119 243.582 42.5389 243.076C42.7609 241.995 43.3279 241.259 44.6709 241.301Z" fill="#604C3F"/>
<path fill-rule="evenodd" clip-rule="evenodd" d="M344.589 241.655C345.263 241.037 344.982 244.946 344.589 245.563C343.493 244.56 344.958 243.112 344.589 241.655Z" fill="#604C3F"/>
<path fill-rule="evenodd" clip-rule="evenodd" d="M43.249 246.629C43.777 247.729 43.146 248.586 42.539 249.473C40.844 249.085 41.345 246.356 43.249 246.629Z" fill="#604C3F"/>
<path fill-rule="evenodd" clip-rule="evenodd" d="M42.5389 250.538C44.0289 250.588 43.9909 252.167 43.9599 253.738C43.1299 253.621 42.4929 253.309 41.8279 253.026C41.4209 251.553 42.5749 251.644 42.5389 250.538Z" fill="#604C3F"/>
<path fill-rule="evenodd" clip-rule="evenodd" d="M107.214 250.538C107.567 250.538 107.923 250.538 108.279 250.538C108.578 250.95 108.747 251.491 108.634 252.315C107.321 252.565 107.064 251.754 107.214 250.538Z" fill="#604C3F"/>
<path fill-rule="evenodd" clip-rule="evenodd" d="M112.543 251.247C113.956 251.138 114.467 251.931 114.32 253.378C112.907 253.491 112.397 252.699 112.543 251.247Z" fill="#604C3F"/>
<path fill-rule="evenodd" clip-rule="evenodd" d="M107.923 253.737C108.397 253.737 108.871 253.737 109.344 253.737C109.509 254.847 109.035 255.324 107.923 255.157C107.923 254.684 107.923 254.209 107.923 253.737Z" fill="#604C3F"/>
<path fill-rule="evenodd" clip-rule="evenodd" d="M113.964 257.647C114.459 258.522 115.965 259.651 115.031 260.844C112.706 261.064 113.471 259.007 113.964 257.647Z" fill="#604C3F"/>
<path fill-rule="evenodd" clip-rule="evenodd" d="M112.188 261.199C112.835 263.159 112.413 266.184 113.254 267.949C109.864 268.273 111.07 262.431 112.188 261.199Z" fill="#604C3F"/>
<path fill-rule="evenodd" clip-rule="evenodd" d="M107.567 266.174C107.923 266.174 108.279 266.174 108.634 266.174C108.747 267.007 109.196 267.509 108.99 268.662C107.052 269.321 106.82 267.102 107.567 266.174Z" fill="#604C3F"/>
<path fill-rule="evenodd" clip-rule="evenodd" d="M102.95 270.438C103.423 270.438 103.897 270.438 104.371 270.438C105.044 271.551 104.925 274.399 103.66 274.703C104.016 276.068 105.095 275.363 105.793 275.77C105.824 277.097 106.191 276.782 105.793 277.901C101.366 277.461 103.571 274.681 102.95 270.438Z" fill="#604C3F"/>
<path fill-rule="evenodd" clip-rule="evenodd" d="M107.923 280.39C108.788 280.588 109.751 280.692 109.7 281.808C109.244 282.296 108.022 282.296 107.567 281.808C107.417 281.067 107.811 280.87 107.923 280.39Z" fill="#604C3F"/>
<path fill-rule="evenodd" clip-rule="evenodd" d="M90.1559 281.808C90.8699 281.237 90.3579 284.91 90.5099 286.076C89.7959 286.65 90.3099 282.974 90.1559 281.808Z" fill="#604C3F"/>
<path fill-rule="evenodd" clip-rule="evenodd" d="M282.756 281.452C283.349 281.452 283.941 281.452 284.532 281.452C284.79 283.565 282.499 283.565 282.756 281.452Z" fill="#604C3F"/>
<path fill-rule="evenodd" clip-rule="evenodd" d="M285.6 285.36C286.33 286.705 287.554 290.361 284.889 290.337C284.278 288.749 285.891 286.897 285.6 285.36Z" fill="#604C3F"/>
<path fill-rule="evenodd" clip-rule="evenodd" d="M95.1309 286.786C95.9849 287.231 95.8459 288.675 96.5519 289.271C95.6119 290.304 95.0439 287.957 95.1309 286.786Z" fill="#604C3F"/>
<path fill-rule="evenodd" clip-rule="evenodd" d="M96.1969 290.338C97.1059 291.087 97.4139 292.436 97.2629 294.247C95.9529 293.898 96.2989 291.898 96.1969 290.338Z" fill="#604C3F"/>
<path fill-rule="evenodd" clip-rule="evenodd" d="M283.468 293.535C282.67 294.23 280.913 293.727 280.981 292.47C281.7 291.854 284.014 291.799 283.468 293.535Z" fill="#604C3F"/>
<path fill-rule="evenodd" clip-rule="evenodd" d="M287.377 293.18C287.732 293.18 288.088 293.18 288.442 293.18C290.549 297.292 293.044 301.595 292.352 306.686C289.561 305.923 291.301 302.361 290.219 299.58C288.915 297.671 286.811 295.938 287.377 293.18Z" fill="#604C3F"/>
<path fill-rule="evenodd" clip-rule="evenodd" d="M286.31 298.509C287.327 298.441 288.25 298.465 288.088 299.578C287.266 300.403 286.196 299.665 286.31 298.509Z" fill="#604C3F"/>
<path fill-rule="evenodd" clip-rule="evenodd" d="M152.698 300.643C150.762 301.919 150.239 305.231 150.921 308.106C150.329 308.106 149.736 308.106 149.144 308.106C150.038 306.376 148.626 298.217 152.698 300.643Z" fill="#604C3F"/>
<path fill-rule="evenodd" clip-rule="evenodd" d="M286.31 305.973C287.28 305.712 287.026 306.681 287.733 306.685C287.629 308.238 287.633 309.902 285.6 309.527C284.664 308.332 285.664 306.697 286.31 305.973Z" fill="#604C3F"/>
<path fill-rule="evenodd" clip-rule="evenodd" d="M289.864 309.526C290.579 309.922 290.272 312.275 289.864 312.723C288.635 313.004 288.364 312.327 287.733 312.013C287.801 310.542 289.609 310.809 289.864 309.526Z" fill="#604C3F"/>
<path fill-rule="evenodd" clip-rule="evenodd" d="M147.369 310.594C149.717 309.946 150.2 313.102 148.079 313.08C147.781 312.313 147.159 311.869 147.369 310.594Z" fill="#604C3F"/>
<path fill-rule="evenodd" clip-rule="evenodd" d="M151.987 311.306C152.803 312.299 152.182 314.131 150.565 313.79C149.85 312.898 150.763 311.357 151.987 311.306Z" fill="#604C3F"/>
<path fill-rule="evenodd" clip-rule="evenodd" d="M154.831 312.369C156.34 313.87 156.352 317.812 153.41 317.699C152.917 316.256 154.975 314.616 154.831 312.369Z" fill="#604C3F"/>
<path fill-rule="evenodd" clip-rule="evenodd" d="M150.921 318.056C152.031 317.894 152.057 318.815 151.987 319.833C150.55 320.229 150.231 318.741 150.921 318.056Z" fill="#604C3F"/>
<path fill-rule="evenodd" clip-rule="evenodd" d="M145.947 319.833C147.218 319.981 147.656 320.966 147.723 322.32C145.893 322.779 145.175 320.86 145.947 319.833Z" fill="#604C3F"/>
<path fill-rule="evenodd" clip-rule="evenodd" d="M150.21 321.253C152.065 321.26 153.248 322.733 152.698 324.096C150.707 324.31 149.998 323.244 150.21 321.253Z" fill="#604C3F"/>
<path fill-rule="evenodd" clip-rule="evenodd" d="M150.921 325.162C152.086 325.108 152.626 326.613 151.987 327.296C150.87 327.228 150.278 326.634 150.21 325.518C150.624 325.577 150.842 325.44 150.921 325.162Z" fill="#604C3F"/>
<path fill-rule="evenodd" clip-rule="evenodd" d="M150.21 0.371717C156.986 2.00672 159.92 7.47973 165.847 9.96473C168.762 15.3607 173.786 18.3487 177.217 23.1127C181.115 28.5227 183.168 35.0047 186.102 41.5927C187.56 44.8667 190.429 47.9837 190.72 52.9607C206.047 47.6357 224.173 46.5937 240.826 50.8297C245.288 53.8387 253.246 54.0407 257.527 57.5817C258.855 58.6797 259.854 60.0007 262.858 60.0687C264.239 61.5287 265.478 63.1357 266.767 64.6877C275.814 62.5997 285.295 66.1717 293.063 68.9517C301.477 71.9657 307.862 74.4007 314.739 78.9017C320.915 82.9487 326.842 87.0667 331.44 92.4067C333.588 94.9037 335.073 98.2867 337.126 101.292C341.165 107.197 344.075 112.878 346.011 121.19C346.751 124.376 347.089 129.423 348.853 132.563C350.203 134.959 353.353 135.71 355.25 137.535C357.478 139.684 359.455 143.243 362.002 146.42C366.838 152.457 370.922 157.945 374.084 166.32C376.025 171.466 377.272 176.151 377.637 181.6C377.744 183.199 378.891 184.963 379.061 186.575C379.92 194.794 379.036 203.042 377.284 211.448C375.583 219.607 374.97 224.956 371.596 231.705C366.405 242.093 361.973 250.831 354.539 259.423C352.982 261.221 351.162 263.127 350.275 264.752C345.765 273.019 328.043 278.055 326.111 278.968C323.3 289.429 319.431 297.443 314.74 305.262C304.576 322.21 273.864 326.948 268.542 328.005C263.26 329.056 258.377 330.03 251.132 329.427C246.398 329.034 239.716 326.305 234.785 324.807C230.952 323.645 227.414 323.113 224.479 321.609C221.115 319.889 218.512 316.985 215.595 315.569C210.591 317.877 205.052 320.169 199.249 323.033C191.803 326.702 184.497 330.447 174.731 331.916C171.754 332.361 168.683 332.507 165.492 332.981C150.941 335.144 127.968 334.422 117.163 325.519C98.5719 317.458 85.9909 303.388 76.2969 286.432C61.7179 285.8 52.4109 279.41 42.8949 272.927C38.0159 269.603 32.8719 267.575 29.3909 262.977C27.6869 260.726 26.4349 257.84 24.4159 255.515C22.4639 253.268 19.7759 251.404 18.3749 249.474C16.2519 246.546 15.4899 241.558 14.1109 237.393C12.5539 232.686 12.5679 228.273 11.9799 223.533C11.6979 221.271 10.7399 218.796 10.5579 216.427C10.3999 214.368 10.9289 212.211 10.5579 210.387C9.75692 206.449 5.55892 202.042 4.16192 197.594C2.52392 192.379 2.24692 186.887 1.67492 180.892C0.131923 164.745 -0.0760803 145.339 5.58392 132.209C7.31692 128.187 10.6399 124.37 13.4019 120.482C20.1239 111.009 26.9279 104.806 37.9209 98.4497C51.3709 90.6747 65.3969 83.7477 85.5379 82.1047C93.7739 75.0517 99.0499 65.2017 110.413 59.7177C113.713 58.1237 117.421 56.6747 121.074 55.0997C129.511 51.4477 139.346 48.5227 151.279 52.2547C151.352 48.2387 147.949 45.9947 146.303 42.6587C143.883 37.7477 142.912 32.1097 140.262 27.3787C138.417 24.0867 135.445 22.5197 134.22 18.8527C128.709 17.9457 126.43 9.97673 130.312 5.70173C133.125 3.16573 137.688 3.95772 141.683 3.21772C145.371 2.52672 150.081 -0.685283 150.21 0.371717ZM209.555 95.6037C210.122 94.4047 208.047 94.0877 209.199 93.4727C214.252 93.4527 218.326 97.8997 223.058 98.4467C225.615 98.7417 228.332 97.4067 231.231 97.3807C234.762 97.3497 238.026 99.2787 241.536 97.3807C238.779 91.1377 230.787 90.1247 223.058 88.8537C222.64 88.3257 222.166 87.8497 221.637 87.4327C204.578 84.3537 193.032 75.7647 190.011 58.6487C189.543 57.6937 188.473 55.2137 188.59 54.3837C182.017 36.5547 174.23 18.0477 159.807 9.25471C160.014 11.3587 159.459 12.6957 159.096 14.2297C161.28 17.7297 164.748 19.9467 165.848 24.5357C162.243 20.4597 159.669 13.1347 151.634 15.6517C151.504 19.0737 150.62 21.7437 149.146 23.8257C154.832 36.0247 160.347 48.3967 162.649 63.9807C166.078 66.7597 164.897 73.9837 165.493 78.5487C164.542 77.4857 165.095 74.9177 163.717 74.2837C163.682 78.8187 164.803 82.1957 165.493 86.0107C166.027 86.5427 166.989 86.6467 167.269 87.4327C167.735 89.9517 171.164 94.3087 168.691 96.3167C167.89 93.6817 167.886 90.2517 166.203 88.4977C165.791 91.5207 164.325 93.4907 163.006 95.6047C165.348 88.0287 163.368 81.3677 162.65 73.9287C160.645 74.9797 161.606 77.9747 161.229 79.9697C160.717 82.6787 159.348 84.5567 158.386 86.3657C161.731 92.0027 156.129 96.8547 156.255 102.712C155.229 103.226 155.569 105.108 153.768 104.844C153.929 100.15 156.865 98.2287 157.321 93.8287C156.092 93.3397 154.324 94.9887 152.346 94.8937C154.519 97.7457 152.783 101.899 149.504 102.357C150.458 100.197 152.681 98.7577 151.636 95.6047C149.558 95.4227 148.427 96.1857 147.015 96.6717C147.722 108.395 136.023 107.711 129.248 111.951C130.069 115.157 133.327 115.927 137.065 116.217C138.718 119.183 140.892 121.629 143.463 123.678C145.689 123.3 146.032 122.897 148.083 123.678C158.346 121.269 160.082 110.33 163.008 100.581C166.214 107.501 159.388 112.551 158.387 118.703C161.7 119.132 167.554 119.132 169.048 116.57C169.472 117.333 169.432 118.553 170.114 119.058C182.811 121.885 184.711 137.38 201.029 135.405C203.185 132.231 202.99 126.705 205.649 124.033C203.296 118.331 196.768 116.804 195.344 110.174C193.589 108.34 189.266 107.297 188.948 105.2C192.681 107.389 196.601 109.39 199.964 111.951C198.399 112.429 197.517 110.398 196.41 111.595C200.653 115.881 203.165 121.898 209.558 124.033C211.831 122.87 215.432 123.037 217.02 121.19C216.05 117.42 212.412 116.322 210.623 113.372C214.412 114.558 216.372 117.572 218.086 120.835C220.123 120.5 221.417 119.428 222.706 118.346C221.662 106.123 209.637 104.882 203.872 97.3807C207.864 99.9027 211.844 102.44 215.955 104.844C215.684 102.915 216.392 101.967 216.31 100.224C215.132 98.9127 212.16 99.3987 212.045 97.0267C215.101 96.9207 217.518 101.777 219.507 98.4477C217.147 96.6647 213.553 96.1087 210.269 95.2497C209.92 96.0907 210.153 97.5047 208.847 97.3817C206.606 97.4857 204.754 95.3277 204.583 94.5377C205.837 95.3267 207.683 96.5047 209.555 95.6037ZM148.079 3.92372C146.731 4.00172 144.991 6.2047 143.103 6.7657C137.576 8.4147 130.526 7.04673 131.732 13.1627C131.851 13.7727 132.715 14.1507 132.797 14.9377C135.345 15.7097 139.489 14.8807 142.037 15.6507C144.101 16.5467 144.004 19.6057 147.011 19.5587C147.831 17.8917 147.642 15.2127 148.432 13.5167C150.354 11.7667 154.554 12.2957 156.251 10.3197C156.838 7.77671 150.835 3.76472 148.079 3.92372ZM158.739 51.1877C154.395 43.8007 151.967 34.5027 147.369 27.3777C148.488 23.7437 145.488 23.7057 143.46 22.4017C141.706 21.2767 140.413 18.4857 138.483 19.2057C138.527 21.4977 140.581 21.7727 141.682 23.4687C145.141 28.7977 145.104 37.2887 149.855 39.8167C149.657 39.8187 149.451 39.5297 149.855 39.4617C150.548 40.3087 151.966 40.4287 151.632 42.3047C150.018 42.4977 150.683 40.4107 149.144 40.5257C148.953 44.1537 152.523 44.0187 154.119 45.8577C154.02 46.5867 153.17 46.5667 152.698 46.9227C154.256 49.7467 154.394 53.9917 157.318 55.4527C157.101 57.1407 157.88 59.5017 159.806 60.0707C160.03 56.3947 156.858 54.4107 158.739 51.1877ZM217.017 52.2527C218.093 52.6937 219.61 52.2017 220.215 51.1877C218.939 51.3327 217.463 51.2757 217.017 52.2527ZM223.768 52.9607C224.052 51.9427 226.15 52.7387 225.901 51.1877C224.953 51.1877 224.005 51.1877 223.057 51.1877C222.652 52.2257 222.849 52.5047 223.768 52.9607ZM247.932 60.7787C245.481 61.4157 242.445 60.6227 240.114 60.0687C243.516 59.8407 250.157 60.4227 253.262 59.3597C249.373 56.1247 239.38 58.7827 234.429 55.8027C235.338 55.7667 236.122 55.6027 236.561 55.0967C232.392 55.0457 228.527 55.5377 224.479 54.7387C223.988 55.5517 224.091 56.9557 222.703 56.8707C222.209 56.4147 222.486 55.1927 221.991 54.7387C218.876 54.8237 215.364 56.3977 212.752 55.8027C213.836 55.8217 214.562 55.4817 214.884 54.7387C210.675 55.5317 206.476 56.6647 203.158 55.8027C206.003 54.3847 210.008 54.1247 211.686 51.5407C206.575 51.6417 204.562 54.8397 200.67 56.1597C200.635 59.3217 199.093 60.9787 198.539 63.6207C198.956 63.6757 199.547 63.5597 199.604 63.9787C196.785 64.9957 197.539 70.3637 200.67 70.3727C202.812 68.9597 203.629 66.2237 206.001 65.0427C204.532 66.6917 201.576 70.5157 203.868 73.5697C204.65 73.1677 203.892 71.2257 204.933 71.0827C208.867 70.8347 211.362 64.2807 214.173 62.9117C212.708 66.8957 208.402 68.0387 207.776 72.8597C211.441 71.1937 213.081 67.5027 215.95 65.0427C214.82 68.6477 210.715 69.2837 210.265 73.5697C212.689 72.3257 214.034 69.9967 216.305 68.5937C214.178 72.2727 210.253 74.1507 208.132 77.8327C213.719 78.1927 217.824 72.1437 220.924 70.0167C218.205 72.7457 216.183 76.1737 212.751 78.1907C210.916 78.2517 209.212 78.4417 209.198 80.3217C215.306 78.6117 221.874 75.4677 225.19 72.1497C222.494 76.9157 216.576 78.4617 212.752 82.0997C213.16 82.7787 215.104 83.7497 215.951 82.8087C215.592 82.8057 215.505 82.1867 215.951 82.0997C220.244 81.8897 222.254 79.4017 225.546 78.1907C223.843 81.2257 220.424 82.5447 216.661 83.5217C218.097 84.0987 219.396 84.8127 221.281 84.9427C222.224 83.0417 224.729 82.7037 225.901 81.0337C225.467 80.9927 225.06 80.9257 225.19 80.3217C228.292 79.0437 229.676 76.0447 232.296 74.2817C230.899 77.0307 228.132 78.4077 226.611 81.0337C232.449 79.6447 236.196 76.1667 240.469 73.2157C243.664 71.6727 247.37 70.6427 249.352 67.8857C248.121 67.6247 245.982 68.2757 245.799 67.8857C246.446 66.8757 247.819 66.5897 248.286 65.3987C246.264 65.2787 244.571 67.3567 243.311 66.8197C245.098 64.4067 249.933 64.6647 252.551 61.4897C248.911 60.1297 247.369 63.5447 245.443 65.0437C245.685 63.0307 248.23 63.3287 247.932 60.7787ZM225.19 54.0297C227.87 54.1027 230.619 54.2467 231.94 52.9607C232.69 54.4617 235.446 53.9557 237.626 54.0297C234.279 50.9907 229.092 52.5347 225.19 54.0297ZM212.397 53.6727C213.875 53.4907 215.836 53.7977 215.951 52.2527C214.782 52.7417 212.789 52.4067 212.397 53.6727ZM203.513 52.6067C199.499 53.8037 194.469 53.9827 192.142 56.8707C192.556 56.9307 192.528 57.4337 192.498 57.9357C193.014 58.1317 194.334 57.5227 194.275 58.2927C193.408 60.4707 193.618 64.6297 196.406 64.3327C197.841 62.0957 199.39 59.9747 199.96 56.8697C197.811 56.3907 196.318 58.4247 194.983 57.5807C197.942 56.0377 201.669 55.2617 203.513 52.6067ZM134.574 55.8037C135.831 55.9947 136.406 55.5047 136.707 54.7397C135.624 54.7217 134.897 55.0637 134.574 55.8037ZM140.971 55.8037C141.915 55.8017 143.064 56.0047 143.104 55.0977C142.162 55.1007 141.012 54.8987 140.971 55.8037ZM156.962 74.6397C156.177 69.4857 151.666 66.2157 150.922 62.2017C152.998 63.0877 154.423 64.6247 155.542 66.4657C154.456 68.5067 156.053 70.6007 158.029 70.7307C155.683 61.1507 148.487 53.7187 136.354 57.9367C134.41 56.7137 130.795 58.0307 129.246 59.3607C130.017 62.2197 126.215 63.0207 125.337 61.1367C125.602 60.0967 127.256 60.4477 127.114 59.0047C126.055 57.5957 124.658 59.1337 123.205 59.3607C122.242 61.8577 124.101 61.7997 124.626 63.6227C122.32 63.9167 120.96 63.2647 120.718 61.4917C113.892 64.7337 108.246 69.1567 102.24 73.2187C101.71 74.0497 102.36 74.7507 101.884 74.9927C100.486 76.4387 97.9609 76.7577 96.5549 78.1937C99.0059 78.6257 101.768 77.4937 103.306 78.1937C103.209 78.9247 101.982 78.5287 101.884 79.2577C106.286 78.1397 110.07 80.4207 113.611 78.9017C119.172 81.7517 124.722 84.6107 129.247 88.4967C131.448 87.5017 134.712 87.5647 137.776 87.4317C139.345 83.6217 145.65 86.3997 148.791 84.5887C147.238 83.8717 144.97 83.0317 143.462 84.2317C141.461 82.7967 139.533 81.2927 138.485 78.9017C141.045 79.8177 142.542 83.5587 146.303 82.1017C145.739 79.4627 141.238 78.8807 140.972 77.1267C145.942 78.3167 149.734 80.6847 154.832 81.7467C154.395 78.7477 150.541 79.1677 149.857 76.4147C150.767 76.2507 151.872 77.6727 152.344 76.7717C150.966 75.8987 150.288 74.3287 149.502 72.8627C150.41 72.4807 150.745 74.3907 151.278 73.2187C149.498 71.9177 148.576 69.7607 147.37 67.8887C151.204 69.3137 153.229 74.2767 156.962 74.6397ZM133.865 55.8037C131.929 56.2377 129.863 56.5387 128.89 57.9367C131.325 58.0027 132.667 56.9767 133.865 55.8037ZM154.119 59.7157C154.239 58.4557 155.096 58.8397 154.474 57.5817C153.011 57.8617 152.652 57.0377 151.277 57.2267C151.776 58.5027 152.469 59.5887 154.119 59.7157ZM111.832 64.3337C112.859 64.1757 113.452 63.5837 113.608 62.5577C112.546 62.6817 112.194 63.5117 111.832 64.3337ZM250.064 64.3337C249.922 65.2577 249.004 65.4077 248.998 66.4657C251.292 66.5097 252.189 65.1557 253.263 63.9807C251.888 63.7887 251.527 64.6127 250.064 64.3337ZM252.196 66.4657C254.881 66.3077 257.517 66.0997 258.592 64.3337C256.114 63.4947 252.974 64.4827 252.196 66.4657ZM102.593 69.3097C106.236 69.3977 107.498 67.1087 108.99 65.0447C106.862 65.0527 103.925 67.3197 102.593 69.3097ZM237.626 80.3237C239.587 80.3767 240.921 77.9467 242.602 78.9017C238.831 82.5927 232.144 83.3697 228.032 86.7177C234.509 89.3617 242.762 90.2327 245.09 97.0257C253.32 97.8387 261.502 96.6547 268.541 98.8007C269.692 99.2397 268.814 97.6527 269.963 98.0927C270.103 98.6007 270.391 98.6897 269.963 99.1577C272.284 97.6187 273.395 100.308 274.94 100.934C275.41 101.124 276.324 100.508 276.717 100.58C278.658 100.927 279.709 103.087 281.691 103.42C286.787 101.498 289.033 108.627 294.839 106.975C293.915 106.927 292.522 105.535 293.063 105.2C296.052 106.711 297.66 109.602 301.946 109.82C300.956 107.019 297.499 106.684 296.26 104.135C301.522 105.86 302.517 111.854 309.053 112.307C307.639 109.336 303.209 107.492 302.301 105.201C307.813 107.625 310.413 114.855 317.225 114.795C315.881 113.297 313.502 112.832 312.606 110.886C315.969 112.467 319.852 112.971 323.266 115.149C322.196 117.19 325.576 119.048 327.174 118.347C326.43 117.555 324.961 117.484 324.688 116.218C331.149 118.879 335.176 125.867 341.745 127.232C339.544 124.695 336.374 123.128 334.64 120.127C335.212 120.184 336.47 121.317 336.771 120.481C335.226 118.117 333.371 116.062 332.152 113.374C336.293 116.459 338.984 120.995 342.812 124.391C343.498 121.943 341.109 120.939 339.97 119.414C337.63 116.292 336.171 112.312 334.285 109.822C336.625 111.981 338.185 114.923 340.68 116.927C340.094 115.147 338.856 114.013 338.194 112.308C338.225 111.748 339.1 112.029 338.905 111.241C337.134 107.445 335.04 103.973 332.864 100.583C328.96 99.3927 326.442 96.8157 324.69 93.4757C323.272 93.1237 323.622 94.5367 322.204 94.1867C321.04 91.9237 318.44 89.5687 318.294 87.4347C315.564 85.2897 311.88 87.5847 309.765 85.6567C310.888 85.5957 311.886 85.4067 311.898 84.2347C308.396 80.6837 304.15 76.6027 297.329 77.4837C294.006 75.3577 290.029 73.8837 284.891 73.5747C284.859 72.6067 285.483 72.8597 284.891 72.1547C275.672 69.8437 267.982 73.8827 260.371 73.9307C263.602 74.5247 266.138 71.4937 268.899 70.7327C272.089 69.8537 275.666 70.8697 277.428 67.8897C275.006 67.3497 272.257 67.1397 269.254 67.1777C262.879 72.3507 251.856 72.5737 244.735 75.7077C248.427 73.5947 252.309 71.6717 255.751 69.3117C249.261 72.5327 240.482 73.4667 237.626 80.3237ZM330.729 98.0937C330.176 96.1587 328.307 95.5387 326.465 94.8937C327.247 96.5977 328.31 98.0247 330.729 98.0937ZM255.395 71.4397C258.951 70.7337 262.508 70.0257 264.634 67.8877C261.176 67.2757 258.018 70.0347 255.395 71.4397ZM161.583 70.7307C162.293 69.8407 161.874 67.8067 160.516 67.8877C160.552 69.1557 160.682 70.3267 161.583 70.7307ZM278.138 70.3747C280.002 70.1077 282.367 70.3407 283.112 68.9517C281.662 67.4057 277.119 68.4857 278.138 70.3747ZM285.245 70.0197C285.013 71.4357 286.596 71.0357 287.733 71.0847C287.591 70.0347 285.974 69.3957 285.245 70.0197ZM199.96 74.9917C202.184 75.3227 201.282 72.5277 202.092 71.4387C201.637 71.4197 201.599 70.9837 201.025 71.0847C200.343 72.0617 200.189 73.5657 199.96 74.9917ZM96.1969 75.7057C99.3019 75.6117 99.5599 72.6727 101.528 71.4387C99.4839 72.5937 97.3739 73.6847 96.1969 75.7057ZM291.641 73.5717C292.727 73.8287 292.935 73.2077 293.774 73.2177C293.829 71.7677 291.236 71.8647 291.641 73.5717ZM232.652 82.1017C234.506 81.4667 236.209 80.6837 236.917 78.9017C234.964 79.4387 233.953 80.9127 232.652 82.1017ZM107.567 81.7467C110.801 82.6577 114.508 83.0987 117.517 84.2317C116.993 81.2827 110.199 79.6567 107.567 81.7467ZM154.831 83.8787C152.446 82.7087 150.192 81.4057 147.369 80.6817C147.921 83.3067 152.752 85.1097 154.831 83.8787ZM318.647 85.2987C316.434 84.5517 315.54 82.4857 312.606 82.4567C313.36 84.4327 316.181 86.2217 318.647 85.2987ZM223.058 85.2987C224.454 85.3777 226.301 84.0607 225.546 83.1667C224.817 83.9767 223.12 83.8227 223.058 85.2987ZM119.295 104.844C123.09 104.375 128.168 105.19 130.665 103.421C129.012 100.914 123.577 102.65 121.426 102.356C122.802 101.836 124.654 101.796 125.335 100.581C122.961 98.3337 117.964 98.7127 114.675 97.3807C117.078 97.1187 119.583 97.8137 121.071 97.3807C120.595 95.7547 120.572 93.6267 121.426 92.4067C118.771 89.0227 111.032 90.7187 107.567 88.1427C109.251 87.4777 112.259 89.2197 113.964 87.7867C103.885 83.6827 91.3659 89.3687 81.6279 90.2737C84.8309 87.6727 91.8089 88.8477 94.4199 85.6527C86.3069 83.9687 81.8999 90.8787 74.8759 90.2737C78.2319 88.7697 82.5409 88.2247 84.8259 85.6527C75.9989 86.0217 69.4949 90.6807 61.3729 92.0487C57.1879 92.7537 48.3219 97.7317 43.2489 100.222C41.1139 101.271 40.1369 104.853 37.2089 104.842C35.5099 108.708 31.4109 110.179 27.6149 111.95C29.5369 110.084 32.4889 109.245 34.0109 106.974C30.4819 108.659 26.4489 109.837 24.4159 113.017C26.9399 112.859 24.1829 114.187 26.5479 114.437C23.5399 116.855 20.8569 120.398 17.6649 122.964C15.9199 124.369 12.4279 125.358 13.0449 128.296C13.0519 127.829 14.0309 127.845 14.1109 128.296C10.7509 130.62 8.22093 133.779 7.00293 138.246C9.04293 138.439 9.93292 134.59 11.9799 133.625C11.7219 134.711 12.3419 134.921 12.3339 135.757C10.0349 139.264 7.50392 142.535 6.29292 147.13C5.54192 147.693 3.36192 149.358 5.22792 150.328C6.51792 148.06 8.01193 144.114 9.84793 143.575C9.57493 145.56 6.75093 146.867 8.07193 149.261C8.97293 148.27 9.62992 147.029 10.9139 146.418C11.9329 148.204 12.4799 146.074 13.4019 145.708C14.5769 147.625 12.8119 149.274 11.2689 149.616C11.2949 148.998 11.1889 148.512 10.9139 148.196C9.25092 148.665 8.62893 150.175 8.07193 151.751C9.24193 152.799 9.84693 150.858 10.5589 151.751C9.27193 154.87 6.32991 158.147 6.64991 161.699C9.46091 160.952 10.4499 156.499 12.6909 156.369C11.3179 160.11 6.24891 161.979 6.64991 166.318C9.14191 165.255 10.1229 162.683 12.3349 161.342C9.06993 164.002 8.90992 169.763 7.71592 174.49C10.3529 172.861 9.25393 167.499 13.0459 167.027C12.0259 174.084 4.76893 179.973 8.78093 187.636C8.96093 185.317 8.50093 182.578 8.78093 181.243C9.49093 181.6 9.34292 182.813 10.5579 182.663C11.4469 180.233 12.6949 176.275 14.4669 175.91C13.8909 178.418 11.3809 180.873 12.3349 183.728C14.5569 180.739 17.5509 178.52 20.5079 176.265C19.9489 176.911 19.1059 179.105 19.7979 179.819C20.2569 177.904 23.8429 176.559 21.9299 174.49C25.6989 171.151 28.6699 167.016 31.5229 162.763C26.1009 165.986 22.0609 172.488 17.6659 175.556C19.8349 172.039 23.4969 170.016 25.4819 166.317C24.4619 165.822 23.6779 167.284 23.3509 166.317C30.7029 161.586 37.0589 155.861 43.2499 149.971C43.2819 149 42.6589 149.256 43.2499 148.551C47.5929 146.376 51.5439 143.813 54.2669 140.021C53.8479 139.963 53.2579 140.082 53.1999 139.665C55.4739 138.503 58.2469 137.84 59.5959 135.756C58.6539 135.341 57.5039 136.438 57.4639 135.756C59.4259 134.507 64.6229 133.149 63.5049 131.135C67.2519 129.789 70.8179 128.265 73.4549 125.806C72.1709 125.495 71.0839 127.194 70.2569 126.162C73.5879 124.279 78.4589 123.941 80.9169 121.187C80.2549 120.848 79.7299 122.25 79.4959 121.187C84.6629 117.169 94.3479 117.579 99.7509 113.015C99.1199 112.802 98.2759 114.054 97.9739 113.015C101.379 111.513 104.873 111.694 108.636 110.881C109.995 110.587 110.974 109.416 112.545 109.105C117.323 108.161 123.297 109.673 128.181 107.328C129.787 108.523 132.392 107.256 133.155 105.553C126.134 105.179 119.304 108.336 113.61 106.973C115.157 106.268 118.17 107.033 118.942 105.553C118.043 104.793 115.341 105.835 115.033 104.486C117.612 104.461 118.989 103.23 121.073 102.71C120.817 103.735 118.185 103.557 119.295 104.844ZM150.921 90.6297C147.128 90.9347 145.323 90.2507 140.26 90.9847C139.71 91.5017 139.947 92.8027 139.905 93.8297C138.824 93.8157 137.566 93.6237 137.774 94.8947C138.722 97.6817 143.341 96.2687 146.301 95.2497C150.504 93.8067 155.478 91.4637 158.028 90.2757C158.184 89.0537 157.888 88.2857 157.674 87.4327C155.615 88.6897 152.224 88.6187 150.921 90.6297ZM326.11 92.7617C325.594 91.6157 324.891 90.6617 323.622 90.2757C322.526 91.8137 325.034 92.2707 326.11 92.7617ZM123.915 95.9597C126.856 98.7127 133.511 98.8507 137.418 97.0257C137.536 95.4877 135.451 96.1507 135.642 94.5367C136.381 93.8107 138.211 92.8367 137.418 91.6967C132.27 92.4707 125.786 91.9097 123.915 95.9597ZM261.436 100.581C260.347 99.8997 257.566 99.6407 255.75 100.224C257.433 100.315 260.935 101.584 261.436 100.581ZM63.8599 136.115C61.9249 137.681 60.4679 139.919 58.5299 141.447C39.2599 156.617 21.4439 174.465 14.8209 200.79C18.8829 200.468 17.1759 194.38 20.1519 192.974C20.2529 194.055 19.0129 194.353 19.7969 195.105C21.4459 195.452 20.2779 192.979 21.9289 193.328C20.7959 196.817 17.4369 198.073 18.0209 203.277C19.0619 203.254 19.0669 202.191 19.7969 201.858C20.8769 209.329 17.7399 215.353 17.6649 222.822C20.1809 220.009 19.1239 213.621 21.5729 210.741C21.0589 221.407 14.2179 235.455 20.1519 243.788C19.9879 240.978 21.5629 237.098 19.0859 235.972C19.7799 230.387 20.1429 224.472 22.6389 220.69C22.3729 223.148 21.6449 225.143 21.9289 228.153C23.5099 227.484 22.7419 224.465 24.0599 223.533C24.4759 227.282 21.5879 232.296 22.9939 237.037C21.3649 237.963 21.5699 242.784 22.9939 243.789C23.8969 242.026 24.0249 240.344 23.7059 238.104C24.8239 238.511 24.5689 237.544 25.1269 237.393C24.6369 233.232 26.7819 231.703 27.6149 228.862C26.1039 235.333 26.0619 242.41 26.9039 248.763C27.2089 251.072 27.7579 253.657 29.0369 255.159C29.8439 252.171 27.9029 247.092 29.0369 243.788C30.5109 246.712 30.0699 249.37 31.8789 251.961C33.4849 245.371 29.4879 242.544 31.5219 236.68C32.0009 242.245 33.8609 246.426 34.3659 251.961C35.6609 252.613 36.4889 251.882 37.5639 252.316C38.4009 249.104 35.4129 247.843 36.4989 245.564C38.4949 245.109 37.8069 247.336 37.9199 248.762C39.8779 251.069 39.6399 255.572 42.8949 256.58C44.0279 256.885 43.9929 256.021 44.6719 255.869C44.9689 256.639 45.5909 257.079 45.3819 258.355C47.5479 257.773 47.2069 254.516 47.5139 253.026C49.7959 259.272 50.3469 267.251 54.2659 271.859C55.2869 265.58 51.8069 260.167 52.8439 256.223C56.6889 260.435 55.1089 270.07 59.2399 273.991C60.2699 271.161 59.8849 267.991 58.8859 265.463C60.7499 264.129 58.0059 258.189 61.0169 258.003C62.7869 262.273 59.9619 271.138 63.5039 273.636C64.0099 269.855 62.0849 263.745 62.7949 259.779C63.7549 261.425 63.2299 264.557 64.5709 265.819C67.9119 264.372 63.6659 259.468 65.2809 257.289C67.7929 261.886 65.8719 270.914 69.8999 273.992C70.9649 267.634 68.3209 262.349 69.8999 256.224C70.8079 257.212 70.2549 259.66 71.6779 260.133C72.9759 255.539 71.3769 248.214 72.3889 243.787C72.5599 244.207 72.7669 244.594 73.0999 244.853C74.3159 231.737 81.0079 224.095 86.6029 215.358C84.4689 223.071 77.8319 230.02 78.4309 238.102C80.6119 234.835 81.3709 230.145 84.1149 227.44C83.2819 234.468 75.3489 240.624 79.1409 247.696C78.3459 253.762 74.1819 262.419 77.0089 269.729C78.1899 264.631 78.8269 258.991 80.9169 254.803C80.3859 261.128 77.9089 268.528 80.5619 273.991C81.4889 273.262 80.3119 270.426 81.2729 269.729C81.1189 275.306 82.4959 278.488 83.0499 283.943C85.4389 281.946 84.0549 276.18 85.1819 272.925C84.8089 277.675 86.4189 284.225 83.4049 286.785C84.6989 290.575 83.4249 294.579 87.3149 296.733C87.2949 292.012 86.1199 288.452 85.5379 284.295C86.2539 284.764 86.7399 285.461 86.9589 286.429C88.4829 284.676 88.9889 288.271 90.1569 287.85C91.7069 292.815 93.3669 297.669 96.5529 300.997C97.5649 299.809 95.8639 298.117 96.9079 297.087C96.6699 300.943 99.3799 305.513 96.9079 307.394C98.8399 309.962 100.983 312.32 104.015 313.788C103.981 309.203 100.102 308.465 98.3289 305.616C99.7259 305.761 99.8469 307.177 101.173 307.393C101.996 306.975 100.424 305.145 101.173 304.904C101.748 305.987 102.268 307.127 103.66 307.393C104.199 304.596 102.102 302.566 103.305 300.286C105.08 306.447 103.502 315.963 109.702 317.697C108.66 312.337 106.613 307.419 106.147 301.706C108.578 308.399 110.012 316.086 116.098 319.12C114.709 314.354 110.82 309.926 110.768 305.972C114.24 314.349 121.947 320.375 128.89 324.094C126.097 318.004 120.637 312.686 117.874 307.749C120.388 309.871 122.473 312.926 124.625 315.922C126.582 318.644 127.934 323.081 131.377 323.386C130.875 320.187 126.942 317.417 125.336 314.146C128.203 316.729 130.653 319.725 132.798 323.031C132.705 324.308 130.997 325.233 131.733 326.228C134.063 326.942 135.518 323.907 138.13 323.741C136.845 326.245 133.327 326.52 131.733 328.715C137.783 329.546 141.225 325.217 145.236 326.229C146.355 326.4 145.502 324.6 146.302 324.451C146.657 324.092 148.24 324.316 148.789 324.806C147.987 327.913 143.044 326.879 141.682 329.426C146.194 330.937 150.709 327.363 155.896 327.295C157.333 326.409 155.294 324.149 156.961 323.387C157.964 323.804 158.042 325.148 158.382 326.229C159.934 326.578 161.33 324.935 162.292 325.874C160.907 326.62 158.811 326.657 158.027 328.005C162.393 329.196 165.909 325.648 169.754 327.296C169.862 326.597 169.275 326.588 169.043 326.23C172.148 325.425 175.113 324.482 177.571 323.033C178.67 324.902 181.982 322.057 183.256 323.033C179.742 325.084 174.542 325.45 171.886 328.361C176.979 328.242 180.121 326.175 183.612 324.452C184.022 324.032 184.015 323.197 183.967 322.321C187.642 321.139 188.58 317.22 191.785 315.569C192.219 311.815 190.877 307.954 191.43 305.262C192.099 307.908 192.537 310.79 192.851 313.79C193.47 313.819 193.956 313.713 194.273 313.436C193.825 314.076 192.49 315.653 193.561 316.634C197.653 311.466 193.848 300.254 191.785 293.18C195.004 293.547 193.158 299.861 196.05 298.51C197.105 301.514 197.131 304.806 198.182 307.04C201.638 303.288 196.939 299.622 197.115 294.247C197.197 291.799 196.905 290.061 196.051 288.206C197.542 288.609 197.038 291.011 198.538 291.404C197.866 283.308 194.686 277.722 193.918 269.729C195.293 269.331 195.182 270.984 196.05 270.081C196.107 266.502 193.179 262.41 194.628 259.777C194.754 261.547 195.229 262.965 196.404 263.686C196.589 263.549 196.93 261.959 197.114 262.974C197.523 270.504 197.023 278.938 199.958 283.942C201.398 280.677 198.746 275.488 199.958 271.503C200.259 276.712 201.766 280.747 200.668 285.004C200.714 284.369 200.316 284.175 199.602 284.295C199.933 286.217 200.598 287.802 201.735 288.915C202.601 288.188 199.775 286.098 201.735 285.359C204.453 286.315 204.395 290.047 207.421 290.692C207.563 287.4 206.02 282.642 207.066 280.741C208.266 288.782 207.153 299.131 214.173 301.349C213.989 299.749 213.277 296.811 213.462 296.021C214.115 296.553 214.348 297.504 215.239 297.798C215.295 297.38 215.179 296.789 215.594 296.732C217.35 302.321 219.529 307.485 224.122 310.236C223.845 308.02 220.966 306.531 221.28 304.904C224.702 306.34 224.486 311.414 228.743 312.012C228.053 308.553 224.52 306.052 224.122 303.485C225.833 305.09 226.854 307.384 229.097 308.459C229.914 314.157 235.205 317.275 239.758 318.054C238.952 316.602 235.98 315.446 236.203 314.146C243.193 315.217 245.484 322.859 251.839 323.386C251.782 320.948 247.629 320.732 247.93 319.12C251.933 320.263 254.233 324.828 260.368 322.674C260.095 318.683 252.861 321.654 251.13 319.12C252.726 318.857 255.816 320.635 256.104 318.409C254.99 317.392 253.171 317.08 252.551 315.566C254.508 316.164 255.83 318.521 258.591 319.12C259.241 319.261 260.371 318.703 261.079 318.765C267.004 319.291 274.991 323.534 278.846 319.831C277.118 319.544 275.124 319.526 274.225 318.409C279.522 320.005 285.088 320.312 288.44 316.276C286.542 316.865 284.849 317.66 282.754 318.053C284.703 316.686 286.657 315.322 288.086 313.433C288.771 313.578 288.366 314.81 289.507 314.501C291.709 313.858 292.84 312.149 294.481 310.946C294.329 311.622 293.717 311.837 293.772 312.721C301.223 311.055 302.067 302.776 304.076 295.664C304.056 299.671 302.769 302.412 301.944 305.614C306.288 304.152 305.667 295.835 309.052 294.599C308.179 297.043 306.663 298.843 306.208 301.703C309.706 301.295 309.399 297.079 310.118 293.887C309.597 293.063 308.991 294.582 309.052 293.175C309.413 291.524 310.115 290.21 310.829 288.912C312.327 291.356 310.243 294.141 310.472 297.439C312.74 296.506 312.107 292.678 313.671 291.044C313.786 292.167 312.407 294.979 313.671 294.954C316.052 292.357 317.923 289.253 318.646 285.001C315.923 283.751 315.5 286.47 314.382 287.847C314.605 283.449 316.827 281.053 318.646 278.252C319.089 280.364 317.466 282.268 317.935 283.228C320.556 278.398 322.691 272.895 322.912 266.526C322.023 268.243 322.097 270.924 320.068 271.501C320.845 270.203 321.42 268.672 320.779 266.882C327.338 248.593 316.066 234.821 312.961 221.399C311.049 218.451 308.568 214.183 308.697 210.382C315.683 224.717 323.799 237.922 326.818 256.221C329.216 252.278 326.982 242.293 328.242 237.033C329.113 243.148 328.969 250.284 328.951 257.286C331.289 255.953 329.607 250.601 331.439 248.76C331.418 254.198 329.798 259.812 328.951 265.461C332.248 260.822 332.931 253.568 334.992 247.694C337.652 249.584 335.697 253.258 335.703 256.932C336.314 257.073 336.613 256.407 336.769 256.932C335.334 262.485 332.445 266.585 330.373 271.502C333.973 269.179 335.574 264.858 337.836 261.197C338.246 264.095 336.07 264.406 336.061 266.882C339.215 265.298 340.27 261.615 342.1 258.708C342.68 260.741 340.106 262.914 341.391 264.039C345.28 259.907 341.258 254.379 344.588 250.179C344.588 251.481 344.588 252.783 344.588 254.087C346.551 253.21 345.651 249.466 347.074 248.046C347.884 252.793 343.566 256.109 344.943 259.063C346.636 253.507 353.259 246.992 349.918 240.941C351.006 240.682 350.965 241.554 352.051 241.298C352.094 238.054 351.461 235.489 350.985 232.768C350.587 232.024 348.383 233.448 348.141 232.768C349.166 227.954 346.338 226.991 344.944 224.595C346.448 223.637 347.171 225.853 348.497 225.307C349.44 227.324 350.286 229.44 351.696 230.991C351.085 237.138 356.075 241.438 353.471 246.274C352.662 246.529 351.656 246.588 350.985 246.983C349.549 251.47 347.284 255.129 346.01 259.776C349.397 256.884 351.879 253.088 353.117 248.047C353.828 248.047 354.537 248.047 355.248 248.047C356.418 241.182 356.174 230.553 357.381 223.884C357.639 230.844 356.328 236.503 357.381 243.429C358.277 240.774 358.375 237.32 359.156 234.546C360.24 239.023 357.381 244.321 358.092 248.402C362.033 241.8 361.66 231.984 363.067 223.528C363.298 225.431 362.6 228.259 363.423 229.571C363.753 224.607 364.888 222.558 366.976 219.262C368.363 221.504 365.355 225.079 367.332 226.726C369.256 224.98 367.887 216.945 370.887 218.554C371.166 216.97 370.643 216.19 370.176 215.355C372.926 207.655 368.108 197.607 369.11 189.415C369.548 194.897 371.891 198.478 373.729 202.562C373.44 194.147 373.04 184.652 370.887 176.977C371.975 179.559 372.139 183.068 374.44 184.44C374.19 176.153 369.061 170.877 369.11 163.473C365.077 159.452 364.071 152.401 359.514 148.907C357.895 145.668 355.147 143.56 353.473 140.377C348.213 137.109 344.229 132.564 337.838 130.427C330.201 123.376 319.02 119.87 309.055 115.145C293.336 111.829 280.058 104.181 263.569 100.579C262.051 101.904 259.257 101.952 257.883 103.419C251.522 102.956 247.372 100.553 240.826 101.644C242.498 103.17 246.243 102.624 247.223 104.842C240.21 102.765 235.071 105.449 228.388 106.262C229.553 109.914 236.144 106.034 238.338 108.751C235.933 108.41 235.468 109.409 235.851 110.172C234.607 110.67 233.577 109.176 233.009 110.172C233.604 111.246 235.824 112.553 235.14 113.728C233.873 112.744 232.561 111.804 231.231 110.883C228.633 112.336 226.44 109.062 223.413 110.172C224.262 112.048 225.414 113.618 225.546 116.215C230.376 117.306 232.626 120.98 237.982 121.545C237.869 122.366 238.04 122.906 238.338 123.32C252.651 133.526 263.937 146.761 275.295 159.922C275.78 161.693 278.11 163.493 277.781 164.9C266.863 152.627 255.868 138.577 242.957 130.428C242.749 132.657 245.826 133.471 244.733 135.404C243.223 133.817 241.208 130.978 238.692 129.364C238.52 129.783 238.313 130.169 237.981 130.428C234.526 127.725 233.543 122.547 227.322 122.611C227.772 125.055 231.683 125.757 231.23 127.941C227.519 128.288 224.225 123.384 219.859 124.387C221.853 128.789 227.542 129.497 229.808 133.625C225.495 132.016 223.455 128.135 218.438 127.229C218.545 128.91 221.263 129.84 220.569 131.136C217.733 130.152 216.69 125.588 213.108 126.519C212.682 128.72 214.812 128.37 215.595 129.364C219.237 134.013 224.132 139.303 224.834 145.709C221.594 141.134 218.643 136.265 214.529 132.562C214.309 133.524 214.98 135.38 214.174 135.757C212.718 133.066 212.707 128.933 209.554 127.941C207.43 130.318 209.4 136.79 207.066 138.956C207.066 135.996 207.066 133.032 207.066 130.072C203.82 134.197 207.377 144.634 206.711 149.617C206.097 145.612 205.118 141.969 204.934 137.534C202.092 138.245 200.292 140 196.052 139.312C195.53 140.095 196.094 141.959 194.984 142.155C194.291 140.837 195.174 137.939 192.498 138.6C192.05 141.491 192.204 144.864 192.142 147.13C191.579 145.56 191.424 143.582 190.367 142.509C189.198 145.724 191.047 151.956 189.299 154.591C188.732 154.328 189.381 152.854 188.234 153.172C187.304 156.978 188.579 162.99 187.168 166.318C187.168 164.658 187.168 163.002 187.168 161.342C184.67 167.363 184.534 175.116 184.326 182.309C184.138 188.787 184.373 196.033 184.681 202.563C184.873 206.636 186.124 211.223 183.97 214.646C181.461 196.419 181.183 175.223 183.615 157.789C182.361 159.023 182.66 161.81 180.773 162.409C181.419 156.411 185.537 150.838 186.812 144.288C185.256 144.399 185.24 147.909 183.97 147.13C183.519 142.849 187.631 138.927 185.747 134.691C184.752 135.474 185.752 138.252 183.97 138.247C183.867 137.164 184.027 135.822 182.905 135.758C182.278 137.977 182.377 140.919 181.127 142.51C180.468 139.876 182.933 137.249 181.127 135.758C180.09 138.63 179.474 141.922 178.285 144.644C177.921 139.718 182.999 132.505 178.995 128.653C178.423 130.622 180.121 132.975 178.64 133.627C177.117 133.256 178.47 130.005 176.508 130.073C175.981 132.509 176.429 135.919 174.732 137.182C175.884 133.291 175.053 129.58 173.666 126.52C172.556 129.201 172.259 132.693 171.178 135.405C166.355 136.267 165.941 143.431 163.006 145.001C165.488 139.309 169.183 134.831 171.89 129.365C170.799 128.795 170.646 127.292 170.824 125.456C169.994 125.456 169.165 125.456 168.335 125.456C166.587 127.378 166.794 131.255 164.428 132.563C165.304 130.476 166.263 128.475 166.56 125.808C162.608 126.479 163.028 133.412 160.163 133.983C161.376 131.759 162.794 129.742 163.361 126.875C157.317 128.887 156.17 135.794 152.345 140.024C151.794 139.215 151.604 139.352 150.568 139.668C153.673 134.482 157.302 129.82 160.519 124.745C154.101 122.555 152.02 132.53 148.082 133.983C149.295 132.115 150.95 130.693 151.635 128.298C146.531 129.355 146.063 135.047 141.685 136.827C143.276 134.507 146.712 132.144 146.66 129.365C145.35 130.303 143.991 131.196 141.685 131.137C142.236 129.587 145.641 129.296 144.882 127.586C137.47 128.94 137.808 139.937 130.314 140.024C134.786 138.453 137.742 133.474 138.841 129.717C133.953 132.412 131.661 137.7 127.115 140.735C126.654 139.853 128.158 139.26 127.115 138.957C120.369 142.99 119.105 152.507 115.034 159.214C115.158 155.544 118.335 153.04 117.876 149.975C114.875 151.829 114.575 156.386 112.902 159.569C112.65 158.253 113.509 158.044 113.257 156.724C108.366 161.708 103.354 168.686 99.7529 174.494C98.9309 175.822 98.7699 178.482 96.5559 178.404C100.826 167.274 108.325 159.375 113.968 149.619C112.63 149.025 112.35 151.272 111.836 150.331C115.648 145.259 120.463 141.19 123.563 135.406C122.952 135.266 122.651 135.931 122.497 135.406C124.63 131.853 128.916 130.454 131.025 126.876C126.67 128.445 125.398 133.095 120.364 133.984C122.413 130.345 126.273 128.521 128.537 125.101C128.241 124.214 125.761 125.51 126.05 124.034C129.505 123.818 132.672 123.312 134.222 121.191C131.446 121.287 127.666 123.456 125.694 121.191C128.595 121.013 131.547 120.886 132.801 119.059C123.491 119.952 114.356 124.051 106.861 127.943C111.332 123.175 119.607 122.211 125.339 118.704C124.168 118.102 123.068 118.493 121.785 118.704C121.507 117.801 121.141 116.98 120.364 116.571C108.598 116.143 98.8219 125.806 87.6719 124.746C89.3219 124.019 91.8599 122.307 91.9359 121.191C82.6749 126.332 72.1149 129.428 63.8599 136.115ZM228.388 102.002C231.891 103.178 235.334 101.69 237.626 101.645C234.979 100.843 230.595 100.51 228.388 102.002ZM136.352 104.488C137.535 105.066 140.048 103.929 140.615 102.712C139.276 103.387 137.297 103.421 136.352 104.488ZM229.809 103.067C227.516 102.641 226.011 103.001 224.124 102.712C224.663 103.947 228.994 104.383 229.809 103.067ZM35.4309 104.844C36.9769 105.087 37.3989 104.204 37.9189 103.421C36.5899 103.398 35.8839 103.995 35.4309 104.844ZM220.925 108.398C221.89 108.178 223.745 108.849 224.123 108.043C221.202 107.884 222.301 103.705 219.148 103.777C218.361 105.623 220.102 107.081 220.925 108.398ZM117.518 115.503C120.308 113.87 121.655 114.706 125.336 114.439C125.594 113.354 124.974 113.145 124.982 112.307C121.26 112.139 119.619 114.052 117.518 115.503ZM20.8629 116.217C22.4359 116.132 23.4009 115.44 23.7059 114.082C22.1299 114.167 21.1669 114.863 20.8629 116.217ZM91.2229 124.033C98.2479 122.412 104.421 119.937 108.991 115.861C100.09 115.606 96.5929 120.756 91.2229 124.033ZM137.061 124.389C138.104 124.365 139.065 124.26 138.838 122.966C137.798 122.992 137.52 123.777 137.061 124.389ZM4.16092 154.239C5.02792 156.723 3.80793 157.784 3.80693 160.277C5.14393 159.958 5.67391 158.831 5.58291 157.083C7.06791 157.025 7.52391 155.943 7.35891 154.239C5.86491 153.624 5.65492 153.624 4.16092 154.239ZM4.51593 163.832C5.00693 163.258 5.77291 162.956 5.58291 161.701C4.08491 161.303 3.19793 163.552 4.51593 163.832ZM3.80592 165.254C4.41992 166.061 3.66892 168.233 4.87092 168.45C5.20592 166.964 5.61792 166.346 5.22692 164.901C4.60792 164.871 4.12092 164.977 3.80592 165.254ZM4.51593 176.269C6.96093 174.806 7.21692 171.153 8.07092 168.098C5.28892 169.247 4.49193 173.393 4.51593 176.269ZM18.0199 183.021C18.0299 182.176 19.8399 181.328 18.7299 180.535C18.4999 181.161 16.9789 182.299 18.0199 183.021ZM10.5569 192.974C12.3999 191.737 12.4599 188.716 13.0439 186.22C10.3579 186.938 13.0699 184.462 11.2669 184.444C10.0929 186.356 9.84593 190.255 10.5569 192.974ZM7.35792 194.394C7.98092 193.131 7.52992 190.392 7.00192 190.131C7.31292 191.917 5.91292 193.508 7.35792 194.394ZM373.727 203.276C373.139 203.546 373.139 206.206 373.727 206.475C374.259 205.9 373.421 204.693 373.727 203.276ZM16.2429 212.16C17.2159 212.16 17.6269 209.786 16.9529 209.318C16.8989 210.447 16.1469 210.881 16.2429 212.16ZM14.4659 217.135C14.5209 218.978 14.1039 221.289 15.5319 221.756C15.6949 220.147 17.4369 217.119 15.8879 216.069C15.7869 216.8 14.9379 216.779 14.4659 217.135ZM364.489 228.151C365.757 230.101 363.692 232.423 364.489 233.836C366.454 233.314 366.555 230.929 366.62 228.506C365.245 228.901 365.356 227.252 364.489 228.151ZM25.4809 250.895C25.3679 250.06 24.9209 249.561 25.1269 248.406C24.2459 248.458 23.4019 248.473 23.3499 247.697C23.6659 246.828 24.1789 246.155 24.0599 244.854C23.7059 244.854 23.3499 244.854 22.9939 244.854C21.3709 247.286 22.8429 250.611 25.4809 250.895ZM335.349 253.379C335.783 252.845 336.048 250.319 335.349 249.83C334.917 250.364 334.651 252.89 335.349 253.379ZM35.0769 258.712C32.5819 260.021 34.1119 265.902 37.2089 265.106C37.2799 262.431 35.5229 261.581 35.4319 259.066C36.5529 259.367 36.4439 260.899 37.5639 261.2C38.0029 259.288 37.6609 256.492 37.2089 254.446C34.4269 253.981 34.5309 256.843 35.0769 258.712ZM348.497 259.778C349.249 259.211 350.821 257.623 349.919 256.58C349.632 257.612 347.495 258.635 348.497 259.778ZM47.5139 267.95C47.7189 267.325 47.0839 265.863 47.8689 265.818C47.9729 267.491 48.3919 268.849 49.6459 269.372C49.8989 265.685 49.1279 263.02 48.5809 260.133C46.7809 259.873 46.5989 261.23 46.0939 262.265C45.3619 260.747 45.5339 258.325 43.9609 257.648C44.2389 260.661 44.2749 266.739 47.5139 267.95ZM43.9599 264.043C43.3929 262.122 43.5109 259.518 42.1839 258.355C42.7409 260.285 42.7679 262.746 43.9599 264.043ZM328.243 262.976C327.886 261.303 329.763 260.014 328.598 258.712C328.632 260.146 326.329 261.893 328.243 262.976ZM330.729 267.95C331.879 266.141 333.485 264.783 333.573 261.909C332.899 261.99 332.788 261.509 332.151 261.554C331.624 263.403 329.911 265.938 330.729 267.95ZM325.044 265.818C325.478 265.281 325.741 262.757 325.044 262.264C325.095 263.285 324.056 265.036 325.044 265.818ZM39.3419 266.174C40.1549 266.901 41.0279 267.567 42.1839 267.95C42.5819 267.924 41.2259 263.774 40.0519 262.975C39.1409 263.369 39.3539 264.885 39.3419 266.174ZM65.9919 275.059C65.9409 271.676 66.1349 268.045 64.2159 266.531C64.9859 269.192 63.7169 273.898 65.9919 275.059ZM73.0999 282.165C75.1319 279.2 72.5609 271.029 71.6789 266.53C70.9389 271.596 73.4629 276.307 73.0999 282.165ZM48.5799 272.216C48.2199 271.273 47.9959 270.194 46.8029 270.082C46.6569 271.531 47.1669 272.325 48.5799 272.216ZM322.202 278.611C322.704 276.983 324.376 276.524 323.977 273.991C323.899 273.715 323.68 273.579 323.266 273.635C322.977 275.134 321.153 276.96 322.202 278.611ZM79.4949 282.521C80.2149 279.957 79.9529 275.479 78.4309 273.992C77.6149 276.946 77.5399 280.723 79.4949 282.521ZM54.2659 275.059C55.1059 276.826 57.1979 277.336 58.8859 278.257C58.0749 276.629 55.8379 274.767 54.2659 275.059ZM60.3069 278.611C60.3549 279.984 61.6919 280.069 63.1489 280.034C63.0969 278.714 61.4799 277.696 60.3069 278.611ZM80.2059 285.361C80.9119 286.435 81.0989 288.025 82.3389 288.561C82.1459 286.622 82.4399 284.194 81.2729 283.232C81.1299 284.156 80.2109 284.303 80.2059 285.361ZM311.186 302.775C309.254 302.163 308.432 304.502 309.409 305.618C314.118 302.509 317.704 296.385 319.003 291.049C317.009 295.571 314.038 299.114 311.186 302.775ZM203.869 293.535C204.197 295.579 204.662 297.479 206.002 298.51C206.244 296.406 203.25 291.453 203.869 293.535ZM89.7999 297.801C89.8269 296.472 89.6519 295.343 89.0889 294.604C89.4089 295.585 88.3599 297.938 89.7999 297.801ZM94.7759 305.262C93.8339 301.23 93.0009 297.087 90.5109 294.604C89.8419 298.979 91.4689 303.72 94.7759 305.262ZM310.474 301.352C312.005 300.508 314.146 298.4 313.673 296.735C312.374 298.044 311.278 299.552 310.474 301.352ZM209.555 305.262C210.159 308.45 212.223 310.176 214.885 311.306C214.885 310.594 214.885 309.882 214.885 309.171C211.129 308.072 210.052 304.293 208.845 300.644C208.49 300.644 208.135 300.644 207.778 300.644C206.699 302.568 208.045 304.779 209.555 305.262ZM203.869 304.197C203.808 303.192 204.175 301.758 203.159 301.708C202.781 302.131 202.997 303.959 203.869 304.197ZM207.422 313.08C207.157 314.12 205.504 313.769 205.645 315.213C206.512 315.975 207.753 314.959 208.488 314.504C208.202 311.571 208.903 307.747 206.001 306.686C206.102 309.188 207.121 310.776 207.422 313.08ZM199.604 309.171C200.723 309.223 200.826 308.259 201.025 307.396C200.571 307.375 200.533 306.941 199.96 307.04C199.55 307.46 199.557 308.295 199.604 309.171ZM301.59 309.527C302.874 310.465 304.169 308.955 304.433 307.751C303.926 307.665 303.833 307.164 303.369 307.04C302.776 307.871 301.382 307.901 301.59 309.527ZM198.894 312.015C199.428 312.547 200.39 312.651 200.671 313.436C199.907 314.922 199.483 316.751 199.25 318.767C200.368 318.937 200.639 318.261 201.382 318.056C201.511 314.488 203.5 311.248 200.671 309.171C200.138 310.177 199.105 310.685 198.894 312.015ZM216.307 313.08C218.25 313.979 219.478 315.593 221.991 315.924C222.314 314.69 220.744 313.046 218.794 313.79C218.206 312.363 217.535 311.022 216.661 309.882C216.94 311.346 216.117 311.706 216.307 313.08ZM204.58 315.924C205.55 314.555 206.623 311.788 204.934 310.594C204.497 312.008 203.432 315.097 204.58 315.924ZM210.976 314.148C211.015 313.477 212.15 313.9 212.042 313.081C211.337 313.076 211.59 312.111 210.62 312.37C210.137 312.823 210.072 314.11 210.976 314.148ZM233.008 315.924C231.723 315.43 231.017 314.361 229.454 314.148C229.974 315.181 231.733 316.826 233.008 315.924ZM194.984 320.898C198.257 320.905 197.658 317.353 197.472 315.213C196.278 316.741 196.353 319.545 194.984 320.898ZM126.758 324.451C123.619 322.781 120.067 320.845 117.162 318.056C117.374 322.628 122.975 328.026 126.758 324.451ZM232.297 320.188C232.407 318.776 231.614 318.266 230.165 318.411C229.403 319.768 230.71 320.223 232.297 320.188ZM241.182 321.965C239.499 320.805 236.434 317.634 234.43 319.122C237.887 322.656 243.861 324.752 248.998 325.518C247.43 323.295 244.725 322.211 241.182 321.965ZM283.112 321.608C285.725 321.496 288.183 321.229 288.798 319.122C286.66 319.707 284.835 320.609 283.112 321.608ZM187.167 324.451C187.999 325.025 189.47 323.86 190.367 323.388C189.227 321.82 189.62 322.016 190.011 319.833C187.827 320.692 187.101 322.065 187.167 324.451ZM192.142 322.676C192.719 321.831 194.419 322.111 193.919 320.189C193.465 320.169 193.426 319.734 192.852 319.834C192.868 320.818 191.419 322.159 192.142 322.676ZM261.081 320.542C261.086 321.841 262.091 322.14 262.503 323.032C264.57 322.727 267.649 323.439 268.188 321.608C264.873 322.371 262.811 320.205 261.081 320.542ZM275.295 323.388C276.005 323.388 276.717 323.388 277.427 323.388C277.62 321.96 275.364 322.856 275.295 323.388ZM256.105 325.874C259.183 328.069 265.647 325.837 268.187 324.096C264.269 325.271 257.856 323.33 256.105 325.874ZM127.468 326.94C128.083 328.114 130.668 327.71 130.311 325.874C129.049 325.914 127.449 325.616 127.468 326.94ZM156.962 330.494C160.52 329.906 164.982 330.219 167.267 328.36C165.264 327.766 159.28 329.062 156.962 330.494Z" fill="#604C3F"/>
<path fill-rule="evenodd" clip-rule="evenodd" d="M168.689 30.9316C172.056 33.4866 172.37 39.0956 173.665 43.7246C172.088 41.0196 169.445 34.4586 168.689 30.9316Z" fill="#604C3F"/>
<path fill-rule="evenodd" clip-rule="evenodd" d="M175.44 43.0137C176.976 43.3727 176.752 45.4907 177.572 46.5677C176.798 46.8517 175.439 44.6837 175.44 43.0137Z" fill="#604C3F"/>
<path fill-rule="evenodd" clip-rule="evenodd" d="M203.158 58.2939C204.704 59.8279 201.157 61.8169 199.96 62.9139C201.091 61.4349 202.482 60.2229 203.158 58.2939Z" fill="#604C3F"/>
<path fill-rule="evenodd" clip-rule="evenodd" d="M194.63 76.0596C196.175 77.9286 200.042 80.3766 201.026 81.7466C202.446 83.7176 200.11 82.3996 199.25 81.7466C197.614 80.5056 196.151 78.4806 194.63 76.0596Z" fill="#604C3F"/>
<path fill-rule="evenodd" clip-rule="evenodd" d="M132.087 82.1017C133.822 81.4397 135.304 84.0867 136.352 85.2977C134.458 86.1177 133.475 82.9727 132.087 82.1017Z" fill="#604C3F"/>
<path fill-rule="evenodd" clip-rule="evenodd" d="M193.563 83.8789C197.463 85.5619 202.542 89.1029 206.357 92.0509C202.56 90.2789 196.616 87.5789 193.563 83.8789Z" fill="#604C3F"/>
<path fill-rule="evenodd" clip-rule="evenodd" d="M193.563 89.5654C196.068 89.7794 197.954 91.8005 199.605 93.4725C200.031 93.9035 201.972 94.6665 200.671 94.8925C198.299 93.1215 195.158 92.1144 193.563 89.5654Z" fill="#604C3F"/>
<path fill-rule="evenodd" clip-rule="evenodd" d="M80.561 90.6299C79.54 91.2679 78.502 91.8899 76.652 91.6969C77.685 91.0689 79.159 90.8879 80.561 90.6299Z" fill="#604C3F"/>
<path fill-rule="evenodd" clip-rule="evenodd" d="M176.507 92.4062C180.236 94.6012 182.56 98.1993 185.035 101.644C182.436 99.7403 178.118 96.4802 176.507 92.4062Z" fill="#604C3F"/>
<path fill-rule="evenodd" clip-rule="evenodd" d="M120.006 94.1846C118.48 95.3796 115.758 95.3826 113.964 96.3166C114.14 95.1806 117.539 94.2096 120.006 94.1846Z" fill="#604C3F"/>
<path fill-rule="evenodd" clip-rule="evenodd" d="M289.864 103.421C290.838 103.753 291.38 104.512 292.352 104.844C291.972 105.315 289.909 104.465 289.864 103.421Z" fill="#604C3F"/>
<path fill-rule="evenodd" clip-rule="evenodd" d="M176.862 104.844C179.665 107.255 181.625 110.508 183.969 113.372C181.269 110.86 177.982 108.938 176.862 104.844Z" fill="#604C3F"/>
<path fill-rule="evenodd" clip-rule="evenodd" d="M150.21 140.023C150.652 141.774 148.06 143.553 147.369 145.352C147.188 143.861 149.435 141.743 150.21 140.023Z" fill="#604C3F"/>
<path fill-rule="evenodd" clip-rule="evenodd" d="M147.012 145.71C146.679 147.745 145.088 148.52 144.525 150.33C144.316 149.163 145.724 146.559 147.012 145.71Z" fill="#604C3F"/>
<path fill-rule="evenodd" clip-rule="evenodd" d="M22.638 205.408C23.719 206.627 21.829 207.901 21.928 209.318C21.171 209.664 22.459 206.438 22.638 205.408Z" fill="#604C3F"/>
<path fill-rule="evenodd" clip-rule="evenodd" d="M193.208 256.58C194.203 256.768 193.865 258.293 194.275 259.066C194.078 259.468 193.005 257.754 193.208 256.58Z" fill="#604C3F"/>
<path fill-rule="evenodd" clip-rule="evenodd" d="M102.238 295.667C102.263 293.04 103.504 302.437 102.593 298.509C102.402 297.682 102.221 297.332 102.238 295.667Z" fill="#604C3F"/>
</svg>
