<svg width="111" height="110" viewBox="0 0 111 110" fill="none" xmlns="http://www.w3.org/2000/svg">
<path fill-rule="evenodd" clip-rule="evenodd" d="M109.823 49.8039C109.738 49.3829 109.88 48.9279 109.823 48.5259C109.536 46.5029 109.566 44.8289 108.799 42.6449C104.783 34.1329 98.92 27.4669 91.541 22.3169C91.089 22.2589 89.928 21.5439 89.752 21.2949C88.86 21.2909 88.736 20.5189 87.705 20.6549C81.423 16.5199 71.709 15.3489 63.415 13.6239C63.614 11.5439 63.79 8.6509 64.31 6.8479C63.802 5.7979 65.403 4.61591 64.31 3.65091C61.429 6.35291 60.015 10.5209 58.173 14.2629C56.678 14.0169 54.26 13.8289 52.676 14.2629C51.957 12.5989 51.004 11.1879 50.247 9.9169C50.026 9.5459 49.962 9.01692 49.736 8.63892C48.687 6.88792 47.166 5.2669 46.54 3.5249C46.185 2.5399 46.315 1.44791 45.389 0.711914H45.006C44.258 1.79791 44.176 3.52992 43.727 5.05792C43.482 5.88892 42.959 6.60892 42.831 7.35892C42.337 10.2689 44.181 12.3929 43.982 14.7739C43.277 15.0109 43.34 14.7719 42.959 14.7739C36.575 15.5069 32.071 18.1199 26.978 20.1439C26.716 20.7789 26.038 20.6609 25.572 20.9109C22.41 22.6129 19.744 24.7759 17.006 26.9199C16.487 27.3269 15.843 27.5399 15.344 27.9429C11.994 30.6459 7.32104 38.4699 7.03404 38.8099C2.59504 46.0079 -0.107956 56.5389 1.28204 67.0599C1.08304 67.3319 1.46104 69.5829 1.66804 70.0119C1.56404 71.7069 3.68904 79.3099 3.71004 79.7149C5.11004 82.2349 6.32604 84.9399 7.92904 87.2569C9.15104 87.9229 11.95 91.9669 12.787 92.8819C13.178 93.3089 15.683 95.8759 16.367 96.8439C18.152 98.5019 20.291 99.5529 21.863 100.549C23.327 101.229 24.727 101.948 26.082 102.851C27.287 103.655 28.931 104.786 30.174 105.28C31.672 105.876 33.179 106.233 34.903 106.815C36.049 107.268 38.069 107.652 38.355 107.835C41.697 108.355 45.307 109.503 49.349 109.626C52.511 109.722 55.673 109.464 58.426 109.754C63.921 108.723 74.332 107.444 74.918 107.324C75.325 107.219 83.223 104.293 86.424 102.595C90.061 101.292 93.583 99.2449 96.397 96.9709C96.9601 96.5169 98.431 94.9999 98.698 94.9259C102.225 90.8269 105.718 88.0249 108.014 81.5019C109.564 75.4849 109.788 71.6469 110.332 67.4439C111.09 61.6019 110.929 55.3629 109.823 49.8039Z" fill="#E7544B"/>
<path fill-rule="evenodd" clip-rule="evenodd" d="M63.3381 10.0238C63.3381 10.0238 62.3061 17.6518 62.2901 18.0938C62.2741 18.5348 63.4881 16.2998 64.6911 16.0208C65.8951 15.7418 69.3991 17.3318 68.2701 19.1208C67.1421 20.9098 59.8081 27.1418 59.5651 28.8848C59.3231 30.6278 66.1701 24.6808 68.4911 23.6618C70.8111 22.6428 73.5161 20.2308 75.8151 21.2948C78.1121 22.3588 91.2471 25.5028 91.7741 27.7248C92.3021 29.9448 75.0411 25.9838 74.0731 26.2738C73.1061 26.5638 66.5491 30.7448 64.5941 32.0768C70.3171 33.8238 76.1331 44.6198 77.1671 53.2438C73.8631 51.1918 70.2031 37.2038 60.0471 35.3658C49.8911 33.5278 47.7641 33.2378 45.6361 33.0448C43.5081 32.8508 43.4101 31.2068 41.1861 32.4648C38.9621 33.7228 28.5151 42.7168 24.4531 44.6518C21.6481 43.2978 29.7881 36.5528 30.4501 34.9798C31.1131 33.4058 37.8011 27.7258 38.7681 27.9188C39.7351 28.1128 42.9271 28.0168 44.4751 28.4998C46.0221 28.9828 50.3691 29.9748 51.1491 30.3368C51.9291 30.6988 48.7751 21.5358 46.3121 17.6658C45.3341 16.1288 43.2171 10.4128 43.6041 8.38078C43.9911 6.34978 44.9581 0.83678 45.4411 2.67378C45.9251 4.51078 55.2301 19.5998 55.2111 21.2958C57.0791 19.3128 65.0501 1.70976 64.6791 4.27876C64.3101 6.84776 63.3381 10.0238 63.3381 10.0238Z" fill="#36A862"/>
<path fill-rule="evenodd" clip-rule="evenodd" d="M62.137 13.4967C62.283 13.3347 62.393 12.4887 62.137 12.3457C62.071 12.6757 61.668 13.4007 62.137 13.4967Z" fill="#604C3F"/>
<path fill-rule="evenodd" clip-rule="evenodd" d="M78.6291 18.6103C78.6651 18.2753 78.5821 18.0603 78.2441 18.0993C78.2091 18.4333 78.2921 18.6483 78.6291 18.6103Z" fill="#604C3F"/>
<path fill-rule="evenodd" clip-rule="evenodd" d="M79.7791 20.1442C80.4251 19.9412 81.3931 19.8052 81.1861 18.9932C80.7831 19.1452 80.8241 19.7392 80.2901 19.7602C79.6871 19.7232 79.5341 19.2371 79.0121 19.1201C79.1371 19.5931 79.4771 19.8502 79.7791 20.1442Z" fill="#604C3F"/>
<path fill-rule="evenodd" clip-rule="evenodd" d="M70.1901 21.0401C70.5051 21.0561 70.8061 21.0591 70.9581 20.9111C70.8411 20.0051 70.3521 19.4721 69.6791 19.1211C69.7101 19.8961 70.6491 20.1681 70.1901 21.0401Z" fill="#604C3F"/>
<path fill-rule="evenodd" clip-rule="evenodd" d="M81.6971 21.2948C81.5591 20.7588 82.104 20.0648 81.952 19.6328C81.566 20.3708 80.986 20.3738 80.545 20.5278C81.115 20.5988 81.1511 21.2008 81.6971 21.2948Z" fill="#604C3F"/>
<path fill-rule="evenodd" clip-rule="evenodd" d="M83.2301 22.573C83.5241 22.312 83.2771 21.512 83.3581 21.04C83.2301 21.04 83.1021 21.04 82.9741 21.04C82.8351 21.337 82.5911 22.648 83.2301 22.573Z" fill="#604C3F"/>
<path fill-rule="evenodd" clip-rule="evenodd" d="M85.2771 21.167C85.0621 21.592 85.0451 22.214 84.8931 22.702C85.7551 22.776 85.6711 21.447 85.2771 21.167Z" fill="#604C3F"/>
<path fill-rule="evenodd" clip-rule="evenodd" d="M65.332 40.3428C65.625 41.0728 65.936 41.7848 66.483 42.2608C66.235 41.4868 66.06 40.6388 65.332 40.3428Z" fill="#604C3F"/>
<path fill-rule="evenodd" clip-rule="evenodd" d="M109.823 49.8039C109.738 49.3829 109.88 48.9279 109.823 48.5259C109.536 46.5029 109.566 44.8289 108.799 42.6449C104.783 34.1329 98.92 27.4669 91.541 22.3169C91.089 22.2589 89.928 21.5439 89.752 21.2949C88.86 21.2909 88.736 20.5189 87.705 20.6549C81.423 16.5199 71.709 15.3489 63.415 13.6239C63.614 11.5439 63.79 8.6509 64.31 6.8479C63.802 5.7979 65.403 4.61591 64.31 3.65091C61.429 6.35291 60.015 10.5209 58.173 14.2629C56.678 14.0169 54.26 13.8289 52.676 14.2629C51.957 12.5989 51.004 11.1879 50.247 9.9169C50.026 9.5459 49.962 9.01692 49.736 8.63892C48.687 6.88792 47.166 5.2669 46.54 3.5249C46.185 2.5399 46.315 1.44791 45.389 0.711914H45.006C44.258 1.79791 44.176 3.52992 43.727 5.05792C43.482 5.88892 42.959 6.60892 42.831 7.35892C42.337 10.2689 44.181 12.3929 43.982 14.7739C43.277 15.0109 43.34 14.7719 42.959 14.7739C36.575 15.5069 32.071 18.1199 26.978 20.1439C26.716 20.7789 26.038 20.6609 25.572 20.9109C22.41 22.6129 19.744 24.7759 17.006 26.9199C16.487 27.3269 15.843 27.5399 15.344 27.9429C11.994 30.6459 7.32104 38.4699 7.03404 38.8099C2.59504 46.0079 -0.107956 56.5389 1.28204 67.0599C1.08304 67.3319 1.46104 69.5829 1.66804 70.0119C1.56404 71.7069 3.68904 79.3099 3.71004 79.7149C5.11004 82.2349 6.32604 84.9399 7.92904 87.2569C9.15104 87.9229 11.95 91.9669 12.787 92.8819C13.178 93.3089 15.683 95.8759 16.367 96.8439C18.152 98.5019 20.291 99.5529 21.863 100.549C23.327 101.229 24.727 101.948 26.082 102.851C27.287 103.655 28.931 104.786 30.174 105.28C31.672 105.876 33.179 106.233 34.903 106.815C36.049 107.268 38.069 107.652 38.355 107.835C41.697 108.355 45.307 109.503 49.349 109.626C52.511 109.722 55.673 109.464 58.426 109.754C63.921 108.723 74.332 107.444 74.918 107.324C75.325 107.219 83.223 104.293 86.424 102.595C90.061 101.292 93.583 99.2449 96.397 96.9709C96.9601 96.5169 98.431 94.9999 98.698 94.9259C102.225 90.8269 105.718 88.0249 108.014 81.5019C109.564 75.4849 109.788 71.6469 110.332 67.4439C111.09 61.6019 110.929 55.3629 109.823 49.8039ZM93.331 27.8149C92.621 27.2039 91.599 26.9039 90.901 26.2819C91.094 25.6219 91.6661 25.3429 91.6691 24.4919C90.856 24.6159 90.972 25.6699 90.39 26.0269C90.129 25.9039 89.885 25.7649 89.624 25.6429C89.655 24.5229 90.7001 24.4189 90.774 23.3409C92.564 23.7309 94.662 25.5439 93.331 27.8149ZM73.643 25.1299C71.154 26.6039 68.923 28.3369 66.739 30.1149C64.607 31.0509 62.512 32.0249 60.091 32.6729C59.87 32.4019 60.396 31.7899 60.603 31.5219C62.532 31.5569 64.005 31.0139 65.332 29.9879C65.768 29.6519 66.112 29.0319 66.611 28.7089C67.43 28.1799 68.447 28.3229 68.784 27.3039C67.249 27.9929 65.77 29.1219 63.542 29.6049C63.98 28.8499 65.152 28.8279 65.204 27.6869C64.419 28.0109 63.826 28.5239 63.158 28.9659C62.665 28.5849 63.92 28.0079 63.797 27.1759C64.128 26.7639 64.619 26.4109 65.331 25.8979C66.294 25.2039 66.606 25.0509 67.761 24.4909C70.377 23.2229 71.315 21.5459 74.792 21.6779C79.337 21.8499 82.313 25.2339 86.8091 25.0019C87.5731 25.6029 88.605 25.9339 89.623 26.2809C89.704 27.0099 90.544 26.9769 90.773 27.5589C84.836 28.1289 79.042 25.8039 73.643 25.1299ZM83.23 28.3259C83.138 28.7879 82.582 28.7849 82.08 28.8379C82.223 28.3709 82.814 28.1549 83.23 28.3259ZM72.62 27.9429C73.581 27.7109 73.952 26.8879 75.048 26.7919C74.589 27.6539 73.388 27.7739 72.875 28.5819C73.828 28.5029 75.04 26.9229 76.199 27.0479C75.091 27.8579 74.135 28.8189 72.748 29.3499C72.846 28.7389 72.5471 28.5259 72.62 27.9429ZM77.861 27.3039C77.01 28.1209 75.69 28.1209 74.537 28.8379C75.1141 28.3219 76.598 26.7749 77.861 27.3039ZM80.802 28.1979C79.597 27.5859 78.085 28.9649 76.582 29.2209C77.682 28.5859 79.404 26.6029 80.802 28.1979ZM81.825 28.0699C81.668 28.4669 81.278 28.6309 80.803 28.7089C81.034 28.3889 81.113 27.9119 81.825 28.0699ZM69.807 29.7319C69.642 29.9519 69.542 30.2359 69.168 30.2439C69.079 29.7719 69.37 29.6789 69.807 29.7319ZM72.108 39.8319C73.323 41.7709 74.594 44.8239 75.175 46.9909C74.4611 45.7459 73.885 44.3609 73.386 42.9009C73.209 44.9809 75.048 46.7389 75.56 48.7819C75.684 49.2749 75.539 49.8429 75.688 50.3149C75.903 50.9959 76.845 51.5429 76.456 52.3609C74.654 49.5609 74.201 45.4109 72.109 42.9009C71.843 42.6199 71.695 43.0119 71.47 42.7719C69.893 41.2409 69.557 39.9019 67.891 38.5539C67.502 38.2389 66.936 37.7159 66.612 37.5309C64.751 36.4679 62.22 36.6219 61.626 34.3349C62.866 34.0879 63.005 35.4359 64.055 34.9749C63.275 34.4779 62.431 34.0419 61.37 33.8249C63.311 33.4179 64.729 34.6399 66.484 34.8469C65.3391 34.0739 63.791 33.7039 62.265 33.3129C64.609 32.2919 66.841 34.2399 68.658 34.9749C69.613 36.5129 71.021 38.0979 72.108 39.8319ZM69.04 33.0559C69.568 33.2099 70.15 33.3099 70.318 33.8239C69.671 33.7899 69.165 33.6129 69.04 33.0559ZM72.62 48.5249C72.21 48.3389 72.208 47.7449 72.108 47.2469C72.4361 47.5169 72.595 47.9539 72.62 48.5249ZM66.739 32.0339C66.779 31.6049 67.319 31.6759 67.762 31.6509C67.642 31.9979 67.117 31.9429 66.739 32.0339ZM58.429 33.6959C57.197 34.8839 53.967 34.0229 53.315 32.6729C53.484 32.2879 53.958 32.2069 54.338 32.0329C55.917 30.3729 57.139 28.3559 58.045 26.0249C59.917 23.6779 61.496 21.0379 63.415 18.7379C64.081 19.2639 64.877 19.6619 65.332 20.3989C64.726 21.3719 63.938 22.5429 63.032 23.5949C61.274 25.6349 58.933 27.9849 58.173 30.2429C57.851 31.2029 58.42 32.5009 58.429 33.6959ZM58.557 23.0849C58.566 24.0329 57.382 24.8919 57.023 25.8979C56.483 24.8909 57.937 23.7729 58.557 23.0849ZM56.639 24.4909C56.415 24.3749 56.195 24.2539 56.255 23.8519C56.934 23.9329 56.944 23.3479 57.278 23.0849C57.546 23.0649 56.939 24.2419 56.639 24.4909ZM56.383 23.7239C56.112 23.5269 56.33 22.8409 56 22.7029C56.531 22.3379 56.871 21.7839 57.278 21.2959C57.639 22.2529 56.706 23.0229 56.383 23.7239ZM60.73 28.7089C60.75 27.3649 62.334 26.4789 63.415 25.7689C63.621 26.6279 61.528 27.8109 60.73 28.7089ZM59.324 30.6279C60.596 30.2799 61.325 29.3899 62.264 28.7089C61.884 29.5669 60.6 30.6249 59.707 31.3939C59.929 31.8229 59.782 32.2109 59.451 32.4169C58.968 32.2299 59.219 31.0259 59.324 30.6279ZM64.566 29.7319C63.7 30.5279 62.331 30.8209 60.986 31.1389C61.792 30.2839 63.159 29.9879 64.566 29.7319ZM59.963 33.8239C60.427 33.6999 60.07 34.3979 60.474 34.3349C60.345 34.5469 59.931 34.4739 59.707 34.5909C59.885 34.4269 59.786 33.9879 59.963 33.8239ZM66.611 22.7019C66.796 22.7719 66.923 22.8999 66.994 23.0849C66.65 23.8059 65.641 23.8639 65.204 24.4909C64.9341 23.6629 66.407 23.4789 66.611 22.7019ZM67.506 22.8289C67.621 22.3909 68.3081 22.5229 68.785 22.4449C68.703 22.9179 68.066 22.8349 67.506 22.8289ZM71.597 20.1439C71.966 19.6609 71.898 20.1939 72.493 20.3989C72.303 19.4259 70.9761 18.5169 70.064 17.8419C70.2241 16.7409 68.622 16.4199 68.146 15.5409C68.3061 15.3069 68.836 15.7789 69.296 15.6689C70.02 16.8209 71.221 17.4929 72.492 18.0979C72.869 18.6149 72.972 19.4059 73.642 19.6329C73.985 19.3219 73.163 19.0949 73.386 18.4819C74.151 18.7819 74.072 19.9269 75.048 20.0159C75.068 19.2289 74.378 19.1539 74.282 18.4819C75.288 18.8389 75.54 19.9509 76.327 20.5269C76.191 19.2549 74.65 18.2829 73.769 17.3309C73.64 17.4139 73.637 17.6249 73.386 17.5859C73.051 17.0689 72.4641 16.8039 71.98 16.4359C72.011 16.9589 72.414 17.1099 72.491 17.5859C71.716 17.4489 70.659 16.5319 70.062 15.7959C73.268 15.9149 74.738 17.7679 76.455 19.3759C76.278 18.6129 75.251 17.5969 74.537 16.9469C76.0311 16.7749 76.35 18.8829 77.478 19.5039C77.519 18.8409 76.741 17.9579 76.199 17.4579C79.759 18.1179 83.7181 19.4849 86.6821 21.1659C86.0191 21.5259 85.932 22.4619 85.532 23.0839C86.476 23.4009 86.378 21.7669 86.81 21.1659C87.827 21.7269 89.096 22.0349 90.006 22.7009C90.326 23.7769 89.7961 24.5639 89.3671 25.2569C88.9481 25.0489 88.879 25.2849 88.345 25.2569C88.0751 24.2059 88.307 22.6519 87.704 21.9329C87.32 22.7049 87.878 23.6339 87.704 24.6179C86.79 24.3819 85.796 23.6879 84.765 23.9779C81.264 23.0579 78.035 21.0669 74.282 20.3979C73.2 20.7199 71.519 20.5409 70.701 21.4209C70.15 21.4179 70.231 20.7839 69.679 20.7819C69.335 21.0929 70.158 21.3189 69.936 21.9319C69.586 21.8399 69.678 22.1869 69.424 22.1879C68.8641 22.1069 68.948 21.3849 68.401 21.2929C68.2281 21.3319 68.2951 21.6119 68.274 21.8049C67.5591 21.4719 67.415 21.9269 66.484 21.6769C66.122 21.8699 66.17 22.4709 65.972 22.8279C64.989 22.9959 64.708 23.8659 63.927 24.2339C64.829 22.0249 66.9361 21.0219 68.913 19.8879C68.905 19.4519 68.873 18.9949 69.169 18.8649C68.627 18.5119 68.692 17.5509 68.401 16.9469C67.568 16.2469 66.219 16.0609 65.332 15.4129C68.762 14.6329 69.774 18.4659 71.597 20.1439ZM67.506 19.5049C67.169 19.4229 66.941 19.6649 66.611 19.6329C65.946 19.5689 65.954 19.0589 65.461 18.6099C65.005 18.1949 63.982 18.1029 64.438 17.3319C66.023 17.0169 68.179 17.9139 67.506 19.5049ZM64.694 15.6689C64.615 16.1019 63.833 15.8309 63.543 16.0519C63.326 16.4749 63.4 17.1879 62.775 17.2019C62.901 16.4749 62.879 15.6009 63.159 15.0289C64.021 14.8929 64.237 15.4009 64.694 15.6689ZM58.302 17.3319C59.015 14.4229 60.086 11.8709 61.497 9.66092C61.269 10.1249 61.092 10.9359 61.497 11.3229C61.078 12.2259 60.858 13.3259 60.73 14.5189C61.412 13.5809 61.697 12.2469 62.137 11.0659C62.428 11.1729 61.882 11.8519 62.265 12.0889C62.627 11.3429 62.602 10.2109 62.904 9.4039C62.632 12.1149 62.204 15.7779 61.37 18.3549C61.482 18.5409 61.471 18.8489 61.881 18.7379C61.495 19.7999 60.619 20.3739 59.964 21.1669C59.598 21.1489 60.074 20.2889 59.708 20.2719C59.252 21.2649 58.751 22.2129 58.173 23.0849C58.174 22.1889 59.145 21.1589 59.196 19.8889C58.494 20.4219 58.383 21.5469 57.918 22.3169C57.809 20.4079 59.133 18.9639 58.941 17.0759C58.058 18.9209 57.287 20.8759 55.873 22.1899C56.431 20.5329 57.27 19.1559 57.79 17.4599C57.904 17.3599 58.079 17.3219 58.302 17.3319ZM58.045 14.6469C57.929 15.4689 57.569 16.0459 57.278 16.6919C56.74 16.5059 57.221 15.2999 56.895 14.9019C57.481 15.0209 57.512 14.5829 58.045 14.6469ZM55.873 14.7739C56.015 15.4639 56.866 16.7349 56.129 17.4589C56.056 16.8769 56.355 16.6629 56.256 16.0529C55.29 16.7359 56.081 18.6169 55.617 20.1439C54.848 19.8519 54.835 18.0029 55.617 17.5869C55.468 16.7499 55.554 15.8309 54.978 14.9029C55.297 14.6599 55.479 15.0079 55.873 14.7739ZM55.233 16.4369C54.715 16.4829 54.147 15.4799 53.827 14.9029C54.763 14.9459 54.743 15.9459 55.233 16.4369ZM54.849 17.9709C54.202 17.2119 53.709 16.2979 53.314 15.2859C54.035 15.9739 54.854 16.5589 54.849 17.9709ZM46.794 8.12692C47.091 8.29992 46.771 9.0879 47.179 9.1499C47.515 8.6479 47.266 8.32991 47.306 7.61591C47.78 7.82391 47.848 8.43592 48.074 8.89392C49.634 11.1259 51.174 13.3789 52.164 16.1819C54.228 19.0889 56.003 23.8019 55.616 27.9439C54.7 27.5389 55.367 25.5519 54.849 24.7479C54.873 26.3059 54.072 28.7949 54.721 29.7329C54.446 30.3109 54.083 30.7989 53.314 30.8839C53.453 30.0099 54.037 29.3459 54.082 28.3269C54.124 27.3529 53.788 26.3019 53.826 25.3859C53.938 24.9759 53.495 25.1219 53.443 24.8749C52.347 21.7709 52.492 18.4699 51.013 16.0529C50.231 14.7749 49.523 13.3829 48.712 12.0899C47.955 10.8819 46.489 9.74992 46.794 8.12692ZM45.006 5.05792C45.162 6.60192 44.951 8.85592 45.261 11.0659C45.479 10.5179 45.529 9.8009 45.517 9.0209C46.065 10.0919 46.221 11.5559 46.54 12.8559C46.669 10.6379 45.77 8.3409 45.644 5.9519C46.414 9.6479 48.18 12.2689 49.863 15.2839C50.648 16.6899 51.589 17.9099 52.036 19.7589C52.252 20.6459 52.03 21.6019 52.548 22.3149C52.238 23.2159 52.964 23.9729 52.804 25.1279C53.475 25.8619 53.305 27.4389 53.314 28.8359C52.615 28.1719 53.099 26.3239 52.548 25.5109C52.244 26.2449 52.606 27.4119 52.676 28.1959C52.197 28.0769 52.385 27.2939 52.164 26.9179C51.878 26.9729 52.112 27.5479 52.035 27.8129C50.783 27.1129 50.734 25.4509 50.246 24.2339C49.614 22.6589 48.374 21.3209 48.073 19.6319C46.946 18.4149 46.465 16.5519 45.387 15.2839C45.192 11.6279 43.654 7.75492 45.006 5.05792ZM47.434 31.6499C47.502 32.1789 48.245 32.0329 48.202 32.6729C48.557 32.6489 49.522 33.3589 48.969 33.0559C46.249 32.7409 44.157 31.4649 41.298 31.9059C39.799 32.1369 38.102 33.6649 36.695 34.8459C35.951 35.4709 35.363 35.9189 35.033 36.7639C33.418 37.1499 32.629 38.3659 31.198 38.9369C31.45 38.0819 32.424 37.9469 32.86 37.2749C31.46 37.7509 30.892 39.0559 29.536 39.5759C30.025 38.5739 30.967 38.0249 31.452 37.0199C30.061 38.3119 28.906 39.8409 27.49 41.1099C27.849 40.2749 28.569 38.6959 29.535 38.0419C29.48 37.7979 29.26 37.7199 29.279 37.4019C31.087 34.9179 34.862 30.9449 37.589 29.0919C39.301 27.9289 42.676 29.6089 45.131 30.1139C47.359 30.5729 49.139 30.4329 50.629 31.9039C49.739 31.6849 48.84 31.4759 48.073 31.1359C48.821 32.1769 50.711 32.0769 51.907 32.6709C50.653 33.1079 48.821 31.9339 47.434 31.6499ZM49.863 34.9749C49.774 35.4339 49.264 35.1539 49.096 34.9749C49.225 34.6139 49.639 35.0089 49.863 34.9749ZM48.969 34.8469C49.044 35.1189 48.205 35.3109 48.329 34.8469C48.574 34.6059 48.561 34.9229 48.969 34.8469ZM47.69 34.3349C47.415 34.8159 46.986 34.3799 46.411 34.4619C46.544 33.8829 47.345 34.1329 47.69 34.3349ZM41.169 33.4399C40.877 34.4679 39.363 34.2769 38.868 35.1019C38.847 34.2699 40.203 33.7109 41.169 33.4399ZM24.422 43.5399C25.331 41.2519 27.217 39.9429 28.64 38.1699C29.105 38.7049 27.742 39.4359 27.746 40.3429C26.54 41.3109 25.94 42.8859 24.422 43.5399ZM46.923 22.5729C46.83 22.8639 46.809 23.2259 46.667 23.4679C45.805 23.3919 46.067 22.1939 46.029 21.2949C46.52 21.5809 46.776 21.2999 46.795 20.7829C47.342 20.9869 46.886 21.8359 46.412 21.8059C46.388 22.2549 46.844 22.2269 46.923 22.5729ZM46.54 20.0159C46.136 19.9919 46.243 19.0719 46.412 18.8659C46.702 19.0019 46.46 19.6689 46.54 20.0159ZM46.284 21.1669C45.881 20.9499 46.124 20.5729 46.156 20.1439C46.64 20.0599 46.396 21.0399 46.284 21.1669ZM47.179 22.9579C47.766 23.2649 48.182 23.7429 48.202 24.6189C47.627 24.3139 47.582 23.9829 47.051 23.8519C46.976 23.4369 47.137 23.2569 47.179 22.9579ZM48.329 26.5359C48.516 26.6479 48.734 26.7269 48.712 27.0479C48.394 27.0679 48.317 26.8459 48.074 26.7919C48.104 26.6539 48.327 26.7059 48.329 26.5359ZM48.585 29.0939C48.134 29.3689 47.529 28.7039 46.794 28.8379C47.133 28.2119 48.331 28.7959 48.585 29.0939ZM46.667 27.5589C46.852 27.3409 47.576 27.6659 47.562 28.0699C47.19 27.9739 46.928 27.7669 46.667 27.5589ZM50.375 28.7089C50.773 28.7799 50.57 29.4519 50.759 29.7319C50.424 29.5979 50.34 29.2129 50.375 28.7089ZM51.525 28.0699C51.928 28.0519 51.965 28.3989 52.036 28.7089C51.817 28.5449 51.535 28.4449 51.525 28.0699ZM52.421 33.9509C52.167 34.2379 51.53 33.8259 51.142 33.8239C51.455 33.4769 52.018 33.9629 52.421 33.9509ZM52.165 31.2669C51.869 30.9609 51.786 29.9209 52.036 29.4769H52.548C52.827 29.8799 52.855 30.5329 52.931 31.1389C52.54 31.0459 52.556 31.3589 52.165 31.2669ZM45.644 19.8889C45.498 20.5629 45.911 21.1599 45.644 21.5499C44.855 21.0619 44.401 20.2359 43.983 19.3769C43.32 19.7479 43.058 19.0539 42.576 18.8659C43.491 18.8049 44.699 19.5539 45.644 19.8889ZM44.749 17.4589C45.404 17.4059 45.136 18.7959 45.005 19.1209C44.776 19.1379 44.735 18.9649 44.493 18.9929C44.441 18.6729 44.36 17.7079 44.749 17.4589ZM45.644 19.3769C45.024 19.2519 45.748 18.5309 45.517 17.9709C46.151 17.8909 45.959 19.2529 45.644 19.3769ZM44.366 11.1949C44.904 11.5089 44.696 12.5699 44.877 13.2409C44.53 12.5709 44.225 12.0579 44.366 11.1949ZM43.727 16.0529C43.767 16.3499 43.706 16.5449 43.6 16.6929C43.224 16.7259 43.206 16.4039 42.832 16.4369C42.928 16.1059 43.24 15.9919 43.727 16.0529ZM109.695 62.4589C109.756 62.8499 109.223 63.7459 108.513 64.7399C108.401 64.7979 108.284 64.8509 108.161 64.8869C107.497 65.0809 106.5 66.3039 106.49 66.4009C107.276 66.2959 107.486 65.4259 108.167 65.2149C106.908 66.9049 105.895 69.4439 105.882 69.4849C106.019 69.4799 109.147 66.0819 109.289 66.0779C108.98 67.0709 105.663 70.0669 105.572 70.2519C107.218 69.8539 108.144 68.5599 109.31 67.8279C109.38 68.5569 108.542 70.9319 107.203 72.3159C106.583 72.4749 105.939 72.6109 105.276 72.7259C105.261 72.8399 106.27 72.8939 106.757 72.7699C105.738 73.7949 104.859 74.5979 104.848 74.6319C105.085 74.6469 108.064 72.2149 108.266 72.2659C108.019 72.4689 104.552 75.4459 104.499 75.5719C106.092 75.1829 107.131 73.9849 108.541 73.7059C107.996 74.5399 103.828 76.9559 103.78 77.0429C105.398 77.2149 106.625 76.1339 108.158 75.6229C108.462 76.5699 104.953 79.2469 103.36 79.4499C103.354 79.4619 102.33 79.4469 102.323 79.4589C103.66 79.6689 106.311 77.8929 107.46 77.9659C106.246 78.8129 102.875 81.3109 102.885 81.4489C104.53 81.4339 104.714 79.9709 106.239 79.5879C106.759 79.3339 107.064 79.3539 107.517 78.8209C107.576 82.0309 101.942 83.0819 101.928 83.1669C103.642 83.2119 104.701 82.2569 106.239 82.1429C106.242 82.7019 103.213 84.6219 101.448 84.7529C101.406 84.8419 101.359 84.9329 101.312 85.0239C102.826 84.9189 103.78 83.8969 105.344 83.9339C104.957 84.4579 100.644 86.0429 100.564 86.1379C100.816 86.1739 104.087 85.7059 104.326 85.7169C104.254 86.9439 99.468 87.1399 99.297 87.2829C101.042 87.1229 101.334 88.0099 103.254 87.6949C103.172 89.1459 97.4291 89.6519 97.3781 89.7409C97.439 89.7939 101.299 90.5219 101.357 90.5789C101.271 90.5669 98.402 92.4169 96.257 91.5579C97.0711 92.6309 97.088 92.5399 99.213 92.5579C97.732 93.1839 93.893 93.6129 93.812 93.7029C94.438 93.9609 96.481 94.4249 97.2 93.8709C96.501 94.4309 95.989 94.7869 95.883 94.7979C94.474 94.8189 91.625 94.5389 91.539 94.6029C92.891 95.1039 94.514 94.9569 95.883 95.4379C94.996 96.4149 89.906 95.6219 89.834 95.6569C91.231 96.1999 92.862 96.1349 94.349 96.5879C93.926 97.0179 91.939 97.8439 91.511 97.8179C90.315 97.6119 85.7461 97.4769 85.6391 97.5659C86.4681 98.1349 89.8871 98.5659 90.6391 99.0699C89.632 98.7399 84.9041 98.0059 84.785 98.0499C84.73 98.0699 84.677 98.0939 84.623 98.1139C84.9501 98.3089 85.2781 98.4989 85.604 98.6729C86.5611 99.1829 88.682 99.4759 89.927 99.8429C89.404 100.066 88.87 100.23 88.34 100.294C86.874 100.468 81.1981 99.6959 81.119 99.7389C81.8511 100.003 85.534 100.698 86.239 100.921C85.355 101.458 81.416 100.566 80.66 99.9869C80.566 100.038 83.548 101.731 84.9081 101.827C83.5741 102.706 79.538 100.604 79.45 100.653C80.478 101.317 82.164 102.235 83.219 103.052C82.937 103.185 82.937 103.215 82.6431 103.3C81.4191 102.357 77.41 101.783 77.342 101.818C78.303 102.821 80.494 103.138 82.0011 103.469C81.6661 103.534 81.34 103.551 81.052 103.487C79.015 103.034 75.334 102.826 75.21 102.883C76.65 103.675 78.682 103.5 80.157 104.255C79.038 104.498 79.6831 104.579 78.5461 104.806C77.176 104.199 73.086 103.241 72.997 103.269C73.814 104.231 75.151 104.671 75.939 105.662C75.2001 105.74 69.6581 103.953 69.536 103.964C70.6171 104.996 72.196 105.498 72.998 106.684C72.998 106.684 72.082 106.194 71.976 106.045C70.669 105.52 68.267 104.075 68.165 104.084C69.138 105.205 70.527 105.91 71.592 106.939C70.759 106.879 70.708 106.847 70.047 107.054C69.667 106.267 67.247 106.177 66.743 105.652C66.317 105.209 65.464 104.222 65.409 104.223C65.643 104.574 65.88 104.927 66.104 105.267C66.541 105.933 67.828 107.16 68.889 107.423C68.077 107.69 67.32 107.923 66.478 107.705C65.968 107.573 64.196 106.503 63.802 106.034C63.373 105.524 62.488 104.275 62.375 104.276C63.207 105.7 64.526 106.635 65.584 107.832C65.146 108.119 63.627 107.876 63.666 107.577C62.185 106.737 59.857 104.29 59.79 104.29C59.806 104.316 59.824 104.347 59.839 104.373C60.509 106.046 61.957 106.942 63.026 108.217C62.243 108.585 59.958 107.832 59.958 107.832C59.516 107.728 55.219 104.337 55.094 104.34C55.649 105.497 57.58 106.275 58.297 107.45C56.963 106.858 53.612 104.394 53.487 104.4C54.465 106.124 57.022 107.387 58.297 108.728C57.24 108.686 56.55 108.815 55.868 108.855C55.76 108.707 51.385 104.512 51.296 104.517C52.085 106.008 54.237 107.168 54.716 108.855C53.807 108.743 53.892 108.753 53.066 108.732C52.395 107.352 48.316 104.603 48.216 104.603C48.512 106.071 50.963 107.761 52.007 108.701C51.693 108.692 51.694 108.695 51.373 108.677C50.729 107.644 47.277 104.594 47.143 104.591C47.363 105.904 49.873 107.995 50.846 108.644C50.645 108.63 50.448 108.622 50.242 108.601C49.003 107.449 45.942 104.547 45.826 104.541C46.438 106.134 48.459 107.261 49.22 108.601C48.313 108.697 48.855 108.446 48.013 108.478C47.985 108.067 45.351 105.193 45.253 104.71C45.047 104.281 47.034 108.673 46.8 108.27C46.273 107.265 43.766 104.369 43.679 104.358C43.776 105.865 45.696 107 46.151 108.217C45.393 108.251 44.713 108.205 44.233 107.96C44.128 107.501 40.601 103.849 40.231 103.765C40.332 104.777 41.872 106.406 42.132 107.421C42.268 107.555 38.319 103.255 38.181 103.212C38.27 104.423 40.049 105.96 40.726 107.054C40.226 107.136 39.677 107.13 39.247 106.939C39.213 106.566 36.399 103.48 36.164 101.988C36.129 101.974 37.77 105.605 38.013 106.392C37.389 105.728 33.97 101.083 33.783 101.005C33.846 101.226 33.907 101.431 33.965 101.57C34.573 103.011 36.728 105.138 37.204 106.171C36.336 105.952 35.792 105.989 35.03 105.532C34.719 103.995 33.203 100.759 33.161 100.741C33.003 102.187 34.645 104.069 34.392 105.405C34.12 105.411 33.837 105.364 33.542 105.292C32.885 103.902 31.467 100.013 31.348 99.9599C31.331 100.685 32.264 101.386 32.345 102.081C32.426 102.762 32.535 104.508 33.186 105.192C32.742 105.063 32.27 104.905 31.769 104.788C31.682 103.882 29.572 100.599 29.578 99.1589C29.467 99.1079 30.115 100.927 30.173 101.825C29.55 101.057 27.538 98.1669 27.434 98.1129C27.814 99.4189 29.23 100.659 29.405 101.825C29.485 102.355 29.295 103.116 29.332 103.696C29.27 103.67 29.212 103.64 29.149 103.615C28.261 102.544 26.516 97.6459 26.44 97.6059C26.482 99.4849 27.576 101.317 27.743 102.72C27.323 102.547 26.919 102.357 26.526 102.156C26.593 100.79 25.06 96.8339 24.843 96.7079C24.755 98.0249 25.384 100.01 25.23 101.426C24.642 101.069 24.072 100.69 23.523 100.291C24.185 99.1069 22.639 95.3269 22.437 95.1879C22.294 96.7749 22.477 98.2569 22.883 99.7789C22.247 99.7339 22.039 99.2579 21.477 99.1399C21.158 97.4509 20.623 93.8729 20.541 93.8069C20.19 95.2779 20.895 96.8659 20.709 98.4989C19.748 98.2529 19.183 92.7019 19.113 92.6409C18.698 94.1299 19.359 95.7589 19.048 97.3499C18.739 97.1699 17.406 93.6979 17.599 92.6219C17.665 92.2579 17.699 91.3699 17.614 91.2889C17.514 91.6079 17.422 91.9259 17.344 92.2379C17.131 93.0949 17.566 95.7529 17.964 96.7339C17.239 96.2829 16.85 95.8019 16.874 94.4099C16.89 93.4369 15.689 92.2479 15.81 91.4699C15.891 90.9509 16.118 89.7889 16.045 89.7129C15.454 91.1399 15.919 92.6329 15.723 94.2819C15.186 94.0099 15.003 93.3829 14.444 93.1309C14.583 91.5239 15.269 87.7559 15.182 87.6489C14.804 89.2179 13.896 90.2549 14.188 92.4929C11.531 91.3009 13.988 86.1079 13.927 86.0239C12.605 86.6239 12.489 88.4639 11.888 89.6809C11.762 89.5049 11.629 89.3379 11.493 89.1739C11.92 87.6049 12.401 84.6529 12.315 84.5239C12.241 84.6249 12.166 84.7249 12.092 84.8239C11.589 85.5029 11.036 87.2889 10.994 88.5879C10.769 88.3249 10.548 88.0569 10.352 87.7629C10.376 87.3619 11.641 83.4839 11.592 83.4029C10.61 84.4749 10.477 85.8339 9.84004 87.2519C9.32004 87.3039 9.44604 86.7079 9.07304 86.6119C9.85304 85.1359 10.73 81.9589 10.663 81.8379C9.79804 83.1959 9.59204 84.6519 8.94504 86.2279C8.31904 85.9599 9.51804 79.6909 9.47304 79.6009C8.51204 80.9139 8.25004 82.3669 7.15604 83.5459C6.44904 83.1439 8.42904 77.3339 8.38004 77.2169C7.37104 78.3599 6.95504 79.5319 6.13304 80.8589C6.23904 78.8239 7.80304 75.8209 7.74204 75.6649C6.75604 76.6649 5.10804 79.0729 4.85404 78.6869C5.27204 76.6679 7.16004 74.1049 7.12204 73.9979C6.04504 75.0009 5.58604 76.0599 4.72604 77.2799C3.74604 74.9509 6.33104 71.6029 6.28504 71.4519C5.47704 72.2359 4.31904 73.5979 3.96004 73.5729C4.20604 71.9339 5.96404 70.3749 5.94204 70.2999C5.07104 70.7659 4.65404 71.7689 3.70304 72.2959C4.31904 71.0189 5.52204 68.8149 5.48804 68.6869C5.32904 68.7659 3.71004 70.3839 2.80904 71.1449C2.83204 70.5249 3.53304 67.9149 4.42004 67.1829C3.53304 67.2769 3.36504 68.6339 2.42604 69.1009C2.13504 68.3589 4.49104 64.4109 4.48104 64.3559C3.50204 64.6769 2.96104 65.5159 2.29704 66.2899C1.91504 66.0159 2.43404 65.3079 2.55304 65.1389C3.09504 64.3639 4.22404 62.8039 4.20904 62.6989C3.48204 63.3119 3.32104 63.9279 2.42604 64.3699C2.90804 63.3229 4.10004 61.8589 4.09004 61.7689C3.23404 62.3939 2.96004 63.0399 2.16904 63.7319C1.93904 63.4499 2.05804 62.8209 1.91304 62.4539C2.62004 61.4839 3.94004 59.9139 3.93904 59.8629C2.90504 60.2989 2.86804 61.1709 1.91304 61.6869C1.77704 59.5369 4.56304 56.8999 4.58304 56.7079C3.61104 57.5189 2.80104 58.4059 1.91304 59.0019C1.83804 58.3289 2.00904 57.9029 2.04104 57.3399C3.25804 56.8719 4.85604 54.9939 4.86604 54.9499C3.92204 55.1459 3.21504 56.3619 2.16904 56.7009V55.4229C2.95304 54.4979 5.32304 53.3379 5.33804 53.2969C4.56704 53.5299 3.31404 54.1389 2.42604 54.5279C2.22904 54.1729 2.72704 53.6049 2.55304 52.8659C3.84804 51.9939 6.78504 50.0959 6.86504 49.9169C5.44304 50.6489 4.04804 51.4219 2.68104 52.0979C2.95404 51.2659 5.79504 48.4809 7.28304 48.2649C6.42704 47.9959 4.70204 48.9819 3.70304 49.4149C3.71704 48.9449 3.80204 48.4779 3.93004 48.0159C4.64004 46.7519 10.182 43.5469 10.197 43.4729C8.68904 44.1539 6.20604 44.3829 4.97904 45.4019C5.21204 44.8989 5.43904 44.4029 5.62304 43.9179C7.54104 43.9869 8.48804 42.0239 10.608 41.8729C8.84004 41.7259 7.35804 42.9689 5.87804 43.5349C6.37904 41.7769 8.13804 41.2779 9.45704 40.3379C8.98504 40.3369 7.84604 40.7709 7.28404 41.1049C8.06204 39.6059 12.883 38.2289 12.985 38.1019C11.208 38.4219 9.25804 39.0269 7.92304 39.8259C7.67104 37.8139 11.26 37.4619 12.398 35.9919C10.96 36.5129 9.99404 37.5069 8.56204 38.0369C9.18604 36.3599 10.972 35.8439 12.525 35.0959C13.336 34.7049 17.069 33.4249 17.332 33.1119C16.988 33.1789 16.656 33.2459 16.361 33.3059C16.095 33.3389 12.211 34.5689 10.48 35.0959C11.414 34.2819 12.673 33.7959 13.931 33.3059C12.992 33.0079 12.241 33.3439 11.246 34.0729C11.813 32.7649 13.392 32.4689 14.826 32.0279C14.192 31.8229 13.336 31.9389 12.525 32.5399C13.172 30.9279 19.896 29.9339 19.812 29.8549C18.958 29.0509 16.137 30.9419 14.826 30.6219C17.049 29.3449 19.57 28.7479 22.495 28.4259C22.656 28.3259 19.215 28.7159 17.64 28.9599C18.273 28.1879 19.802 28.3089 20.579 27.6809C18.741 27.7609 16.849 28.8939 15.21 29.5989C16.074 28.8739 16.947 28.1579 17.834 27.4549C19.062 27.1629 21.018 27.1819 21.73 26.5299C21.031 26.8669 19.324 26.8949 18.242 27.1349C18.692 26.7829 19.145 26.4359 19.606 26.0929C21.268 25.7389 24.65 25.6619 25.95 25.5069C24.862 25.4449 22.503 25.0039 20.793 25.2339C21.234 24.9229 21.679 24.6169 22.133 24.3189C24.713 23.7149 29.167 23.5409 29.421 23.3869C29.436 23.3479 25.311 23.2599 22.633 23.9989C23.339 23.5479 24.057 23.1099 24.8 22.6959C25.193 22.5989 25.046 23.0459 25.439 22.9509C27.656 22.4669 33.739 22.2149 34.039 22.0659C33.192 21.9699 27.235 21.5589 25.439 22.4379C25.64 21.6169 26.848 21.8019 27.613 21.5429C28.048 21.4059 27.257 21.5039 27.485 21.1599C28.326 20.7679 32.173 20.8019 34.772 21.2879C34.615 21.1049 31.919 20.6939 31.96 20.5209C31.589 20.3609 30.312 20.5099 29.658 20.2649C30.887 19.4499 32.231 18.7479 34.133 18.6029C35.418 19.0029 39.233 19.4279 39.501 19.3519C37.957 18.7719 35.856 18.7479 34.261 18.2199C36.28 17.2499 38.914 16.3779 41.548 16.4299C41.691 16.6279 44.167 17.4189 44.232 18.7319C42.016 18.3489 40.454 17.3119 37.968 17.1969C38.785 17.9989 40.353 18.0499 41.676 18.3489C43.018 19.8709 45.083 21.1749 45.511 23.2069C45.492 23.5239 45.077 23.2439 45 23.2069C45.165 24.0229 46.391 23.7749 46.534 24.6129C45.805 24.7449 45.871 24.0819 45.255 24.1019C45.745 25.3179 47.542 25.2239 47.94 26.5309C47.049 26.5019 46.937 25.0949 45.895 25.6359C45.789 26.1749 46.851 26.2039 46.534 26.5309C45.199 26.5729 44.093 25.4339 42.699 25.1249C42.371 25.1389 42.445 25.5529 42.442 25.8919C43.662 26.1639 44.943 26.3729 45.895 26.9139C44.809 27.0639 42.635 25.9749 40.653 26.0189C40.751 26.6819 41.403 26.1779 41.931 26.5299C41.371 26.6969 41.632 27.0169 41.804 27.4259C40.776 27.5999 40.121 27.0229 39.246 27.0419C38.784 27.0519 38.345 27.4449 37.84 27.4259C37.463 27.4119 37.079 27.2539 36.689 27.0379C36.643 27.0599 36.597 27.0819 36.552 27.1049C36.823 27.2509 37.083 27.3999 37.329 27.5529C31.687 33.0349 25.321 37.7909 22.116 45.7069C22.242 46.2199 22.798 46.3019 23.011 46.7299C23.511 46.8039 23.753 46.6199 24.034 46.4739C26.562 44.0159 29.444 41.9129 32.216 39.6989C35 38.9439 36.373 36.1029 38.608 35.2239C37.471 36.3029 36.162 37.2099 35.156 38.4199C37.32 37.3509 39.604 35.0979 42.187 33.4339C41.603 34.7259 40.176 35.1719 39.247 36.1189C40.368 35.8319 41.513 34.4649 42.7 33.8189C42.848 34.6089 41.501 35.0059 41.037 35.6079C42.26 35.8709 42.905 33.4039 44.872 33.5639C43.472 35.1029 42 36.5709 39.631 37.1429C39.794 36.6239 40.485 36.6339 40.781 36.2479C39.853 36.0459 39.063 37.0859 38.352 37.5269C41.84 37.4349 44.193 35.1009 48.069 34.9699C47.153 35.5899 45.794 35.7639 44.616 36.1199C45.185 36.5549 45.695 35.8409 46.406 35.9929C46.375 36.3459 45.93 36.2839 45.766 36.5029C47.203 36.3189 49.096 35.4849 51.264 35.6079C51.716 35.8389 51.768 36.4679 52.286 36.6309C52.941 36.3189 51.936 36.0209 52.159 35.3529C53.021 35.6039 53.897 36.3629 53.692 37.2709C54.991 36.4659 52.909 35.0069 52.542 34.2029C53.64 34.5109 54.7 35.9639 55.866 36.6319C55.928 36.9229 56.119 37.2849 55.866 37.5269C56.463 37.6549 56.579 37.3039 56.505 36.7599C56.958 36.6909 56.819 37.2129 57.272 37.1429C57.574 36.5739 56.409 36.5119 56.505 35.7369C57.483 35.9089 57.859 36.6839 58.678 37.0159C58.378 36.4189 57.618 35.6069 57.145 35.6079C56.901 35.3139 57.886 35.1629 58.423 35.2259C58.457 35.6179 58.7 35.8009 58.807 36.1199C60.685 35.8609 60.552 37.6129 61.235 38.5499C61.479 38.0899 60.822 37.4329 60.852 36.7599C63.035 37.2179 62.696 40.1999 64.304 41.2349C63.804 40.2439 63.216 39.3409 62.769 38.2949C63.634 38.2839 63.832 40.0439 64.56 40.5959C64.629 39.9699 63.748 39.1949 63.665 38.2949C66.364 38.3499 66.114 41.0609 67.627 42.5129C67.823 41.8889 67.058 41.1249 66.988 40.3399C67.566 40.9549 67.719 41.9959 68.267 42.6409C68.593 42.2649 67.888 41.8329 68.011 41.2349C69.295 42.1669 70.101 43.5769 70.568 45.3249C70.0061 44.8639 70.053 43.7949 69.546 43.2799C69.424 44.5389 70.501 45.5349 70.953 46.3479C71.206 45.9179 70.837 45.0179 70.696 44.5579C71.846 44.7309 71.6441 47.3599 72.231 48.5209C72.724 48.6519 72.933 49.4179 73.127 50.1839C73.372 49.5089 72.829 48.5229 72.743 47.7549C73.697 49.0179 73.929 50.9999 75.171 51.9729C75.529 53.2859 76.117 55.0229 77.601 54.7849C78.378 52.2269 76.405 49.2979 76.451 46.8599C74.793 43.5729 73.756 39.6679 71.208 37.2719C71.329 36.4229 70.651 35.8479 70.313 35.0989C70.542 35.2129 70.639 35.4549 71.081 35.3549C71.108 34.7289 70.687 34.5559 70.569 34.0759C71.334 33.9329 72.1421 34.7859 72.87 35.0989C73.192 34.8149 73.573 34.5899 73.969 34.3789C73.937 34.2939 73.9061 34.2099 73.883 34.1229C72.924 35.2369 71.664 33.9149 70.697 33.3089C71.829 32.9459 72.772 33.7529 73.842 33.9179C73.831 33.8579 73.816 33.7979 73.808 33.7369C73.504 33.7029 73.19 33.6119 72.871 33.4359C72.911 33.2629 73.191 33.3299 73.383 33.3089C72.594 32.7339 71.1021 32.8619 70.315 32.2859C71.249 31.8369 72.76 31.9429 73.639 31.7739C72.5 31.4749 70.328 31.6859 68.909 31.6469C70.048 30.8699 71.637 31.3269 73 30.8789C72.724 30.6449 72.115 30.7409 71.85 30.4959C72.446 30.0259 73.883 30.3989 74.663 30.1119C73.526 29.6379 72.286 30.0079 70.699 29.9849C70.859 29.2469 72.197 29.4549 72.873 29.6019C73.551 29.0189 74.291 29.2879 75.174 28.9629C75.287 29.3739 74.843 29.2269 74.791 29.4739C75.304 29.6379 75.7701 28.8099 76.454 29.3459C76.5601 29.7559 76.562 29.6109 76.326 29.8569C77.654 29.6079 78.507 28.8849 79.778 28.5779C79.132 29.0819 78.191 29.2929 77.733 29.9849C78.425 29.9929 79.724 29.5069 80.545 29.2179C80.582 29.6789 79.985 29.5109 79.778 29.7279C79.62 30.1429 80.192 29.8269 80.0331 30.2399C79.8641 30.3459 79.6901 30.4469 79.5161 30.5499C79.6581 30.5679 79.791 30.5979 79.923 30.6339C81.955 29.3389 84.217 28.0689 86.937 29.2179C85.697 28.7329 83.738 29.5109 82.334 29.9849C82.796 30.3549 83.527 29.9049 83.996 29.8569C84.066 30.1399 83.7521 30.0389 83.7401 30.2399C84.2501 30.4399 84.761 29.9729 85.403 30.3689C85.399 30.5779 85.353 30.7449 85.288 30.8929C85.443 30.8909 85.596 30.8959 85.748 30.9039C85.802 30.8529 85.861 30.8019 85.915 30.7519C87.836 30.6699 89.266 30.0959 90.9 29.7289C91.323 29.4759 90.584 29.1839 90.9 29.0909C91.488 28.8289 92.051 29.3629 92.69 29.0909C92.293 29.7819 91.845 31.1409 92.073 31.2339C93.119 30.1659 94.125 29.0589 95.119 27.9399C94.4761 28.1089 96.347 27.4779 97.164 28.3229C96.859 30.2429 96.013 31.8579 94.924 33.2679C95.049 33.3109 96.191 32.0019 96.653 31.3909C96.351 32.0969 95.899 33.6809 96.111 33.7939C96.469 33.3839 97.666 30.7429 97.676 31.2639C97.546 30.5089 100.058 30.0479 99.849 31.6469C99.729 32.5739 99.248 34.6089 98.33 35.6809C98.384 35.7259 100.968 32.6159 101.256 32.9249C100.654 34.1419 100.157 35.6539 99.14 36.4559C99.207 36.5279 100.93 34.3089 101.895 33.5649C101.736 34.5409 101.665 36.2969 100.211 37.3379C100.248 37.9349 101.86 35.9539 101.964 35.9049C101.885 35.9869 100.93 38.8599 100.994 38.9699C101.789 38.3659 102.016 37.0029 102.79 36.3769C102.907 35.9819 103.109 35.6729 103.301 35.3549C103.663 35.7179 101.766 40.4359 101.813 40.5379C103.013 39.8179 103.575 37.9169 104.836 37.2719C104.537 39.1089 102.521 42.2709 102.548 42.3449C103.751 41.2759 104.303 39.4009 105.475 38.6779C105.435 40.3789 102.926 43.4889 102.958 43.5959C104.25 42.6099 104.95 40.8559 106.243 39.9569C106.864 40.9899 103.666 44.9109 103.739 45.2299C104.448 44.7409 105.895 41.6119 106.499 41.3629C106.028 43.1519 105.351 44.9329 104.346 46.1879C105.596 45.6049 105.91 42.7759 107.393 42.0019C107.685 42.3069 104.927 47.8119 104.946 47.9039C106.468 47.0559 106.378 44.7479 108.033 44.0479C107.046 45.8509 105.056 49.8369 105.075 49.9199C106.699 49.0589 107.052 47.5359 108.418 46.4669C108.374 47.1489 105.268 51.7129 105.29 51.8079C106.877 50.8819 107.128 49.2499 108.59 48.3119C108.85 49.7629 105.532 54.9939 105.546 55.0609C107.057 54.0669 107.833 52.0029 109.184 50.9529C109.369 52.8569 105.703 55.8399 105.721 55.9319C107.115 55.2279 107.918 53.5069 109.313 52.8699C109.223 53.4279 106.036 57.6409 106.049 57.7189C107.577 57.0739 108.631 55.7669 109.313 54.2759C109.705 54.9079 106.327 59.6239 106.35 59.8059C107.732 59.4129 108.457 58.1849 109.568 57.6009C108.968 58.9029 106.495 61.1729 106.503 61.2719C107.97 60.7829 108.723 59.3669 109.568 58.3679C109.93 58.8159 106.609 63.1319 106.61 63.1659C108.068 62.7389 108.815 61.4709 109.825 60.9239C109.061 62.2979 106.607 64.7109 106.603 64.8229C107.968 64.4229 108.656 63.1499 109.695 62.4589Z" fill="#604C3F"/>
</svg>
