<svg width="84" height="85" viewBox="0 0 84 85" fill="none" xmlns="http://www.w3.org/2000/svg">
<path d="M83.5518 23.4597C83.1284 18.318 82.4146 12.4483 79.2841 7.85108C74.268 0.485895 62.8039 -0.183712 56.3974 0.0754267C49.9904 -0.184207 38.5268 0.485895 33.5108 7.85108C31.971 10.1121 30.912 12.7139 30.1997 15.4833C29.2708 15.4759 28.3967 15.4932 27.6014 15.5253C21.1954 15.2672 9.73078 15.9358 4.71471 23.301C1.58467 27.8977 0.870422 33.7679 0.447016 38.9097C-0.380011 48.9543 -0.479431 60.1076 5.05452 66.6697C7.64492 69.7413 12.2361 71.7056 18.7059 72.5117C18.8019 74.7549 18.0787 77.2286 17.4896 79.2434C16.8149 81.5514 16.3272 83.2185 17.1676 84.0419C17.4728 84.3406 17.8625 84.4415 18.2607 84.4415C18.6742 84.4415 19.0972 84.3327 19.4429 84.2244C23.7022 82.8861 27.8116 78.2681 29.5616 72.9043C29.6205 72.9048 29.6788 72.9048 29.7382 72.9048C35.6827 72.9048 45.6223 72.0369 50.1477 66.6702C52.3335 64.0788 53.4445 60.7649 54.0583 57.4534C54.1854 57.4539 54.313 57.4544 54.4362 57.4544C56.1862 62.8177 60.2956 67.4357 64.5549 68.7739C64.9012 68.8827 65.3236 68.9911 65.7371 68.9911C66.1353 68.9911 66.5255 68.8902 66.8302 68.5915C67.6706 67.7681 67.1829 66.101 66.5082 63.7929C65.9191 61.7782 65.196 59.305 65.2919 57.0613C71.7617 56.2552 76.3534 54.2908 78.9433 51.2198C84.4787 44.6572 84.3788 33.5043 83.5518 23.4597Z" fill="#392B41"/>
<path d="M18.2612 84.4721C17.7978 84.4721 17.4228 84.3346 17.1463 84.0636C16.2931 83.2274 16.7828 81.5528 17.4604 79.2345C18.0421 77.2449 18.7658 74.7702 18.6767 72.5389C12.2133 71.7293 7.62216 69.7615 5.03128 66.6895C-0.510097 60.119 -0.411171 48.9582 0.41635 38.9072C0.840251 33.7615 1.555 27.8864 4.68949 23.2837C9.71446 15.9051 21.2028 15.2375 27.6029 15.4942C28.4586 15.4596 29.3242 15.4457 30.1759 15.4517C30.9362 12.5047 32.0496 9.94199 33.4855 7.83327C38.512 0.452258 49.9989 -0.213887 56.3984 0.0442628C62.7955 -0.214876 74.2829 0.453247 79.3093 7.83376C82.4443 12.4369 83.1586 18.3116 83.5825 23.4573C84.41 33.5083 84.5094 44.6691 78.9675 51.24C76.3766 54.3121 71.7855 56.2799 65.3221 57.0894C65.2331 59.3213 65.9567 61.7955 66.5384 63.785C67.216 66.1029 67.7057 67.7779 66.8525 68.6142C66.576 68.8852 66.2011 69.0227 65.7376 69.0227C65.2939 69.0227 64.8453 68.8981 64.546 68.8041C62.4537 68.1469 60.3743 66.7087 58.5323 64.645C56.7001 62.5927 55.2766 60.1175 54.4144 57.4861C54.3229 57.4861 54.229 57.4861 54.135 57.4856L54.0845 57.4851C53.3505 61.428 52.0709 64.4393 50.172 66.6909C48.1697 69.0652 44.9096 70.7946 40.4826 71.8307C36.5785 72.7441 32.4849 72.9365 29.7387 72.9365L29.5844 72.936C28.7227 75.5674 27.2992 78.0426 25.4665 80.0949C23.624 82.1587 21.5446 83.5968 19.4528 84.2545C19.1535 84.347 18.7049 84.4721 18.2612 84.4721ZM25.4349 15.5125C18.8756 15.5125 9.2228 16.737 4.74043 23.3188C1.61435 27.9091 0.901091 33.7749 0.477685 38.9126C-0.348847 48.9513 -0.448763 60.0967 5.07827 66.6504C7.66223 69.7146 12.2485 71.6764 18.7099 72.4815C18.7247 72.4835 18.7361 72.4958 18.7371 72.5107C18.833 74.7589 18.1049 77.2499 17.5198 79.2518C16.8481 81.5494 16.3628 83.2091 17.1898 84.0196C17.4545 84.2787 17.8151 84.4103 18.2617 84.4103C18.697 84.4103 19.1397 84.2872 19.4345 84.1942C23.6409 82.8723 27.7938 78.2256 29.5329 72.8939C29.5369 72.8816 29.5487 72.8727 29.5621 72.8727L29.7387 72.8732C35.3923 72.8732 45.559 72.0641 50.125 66.6494C52.0209 64.4017 53.2981 61.3914 54.0286 57.4475C54.0316 57.4327 54.044 57.4223 54.0588 57.4223L54.135 57.4228C54.2364 57.4233 54.3378 57.4233 54.4367 57.4233C54.4501 57.4233 54.4619 57.4322 54.4659 57.4445C56.2055 62.7762 60.3585 67.4229 64.5648 68.7443C64.8601 68.8372 65.3028 68.9604 65.7376 68.9604C66.1842 68.9604 66.5448 68.8288 66.8094 68.5697C67.6365 67.7591 67.1512 66.0995 66.4795 63.8018C65.8944 61.8004 65.1658 59.3089 65.2617 57.0603C65.2622 57.0449 65.2736 57.0326 65.2889 57.0311C71.7503 56.226 76.3366 54.2641 78.921 51.2C84.4481 44.6458 84.3482 33.5009 83.5216 23.4622C83.0987 18.3244 82.3854 12.4592 79.2589 7.86838C74.2487 0.513087 62.7846 -0.153553 56.3984 0.10608C50.0097 -0.151575 38.5461 0.511604 33.536 7.86838C32.1006 9.9766 30.9876 12.5408 30.2294 15.4907C30.2259 15.5041 30.2135 15.514 30.1997 15.514C30.1997 15.514 30.1997 15.514 30.1992 15.514C29.341 15.5061 28.468 15.5214 27.6024 15.556C26.9321 15.5293 26.204 15.5125 25.4349 15.5125Z" fill="#392B41"/>
<path d="M56.1694 26.6748C56.4024 26.5393 56.6334 26.4047 56.8619 26.2668C58.6693 25.1743 59.9207 24.0448 60.6874 22.8144C61.4219 21.6354 61.6776 20.2774 61.3541 19.2705C61.0707 18.3882 60.1735 18.0272 59.4305 17.8804C59.3919 17.8873 59.3524 17.8937 59.3153 17.9011C56.989 18.3734 55.2553 20.5914 55.1 23.2941C55.0065 24.9167 53.8535 26.2628 52.3385 26.6678C52.6353 27.3409 52.9038 28.0318 53.1442 28.7385C54.1464 27.8567 55.2113 27.2326 56.1694 26.6748Z" fill="#F49916"/>
<path d="M53.1442 28.7696C53.1418 28.7696 53.1388 28.7691 53.1363 28.7686C53.1264 28.7662 53.1185 28.7587 53.115 28.7488C52.8727 28.0377 52.6021 27.3419 52.3103 26.6807C52.3068 26.6723 52.3068 26.6629 52.3108 26.655C52.3147 26.6466 52.3221 26.6406 52.3306 26.6382C53.8773 26.2242 54.9778 24.8796 55.0688 23.2926C55.2251 20.5756 56.9687 18.3467 59.3088 17.8714C59.3365 17.8655 59.3652 17.8606 59.3944 17.8556L59.4251 17.8502C59.4285 17.8497 59.4325 17.8497 59.4365 17.8502C60.1641 17.9941 61.0925 18.3556 61.3833 19.2611C61.7098 20.2764 61.4531 21.6443 60.7136 22.8312C59.9444 24.0656 58.6901 25.1981 56.8777 26.2935C56.6438 26.4344 56.3999 26.5763 56.1847 26.7015C55.2435 27.2494 54.177 27.8705 53.1645 28.7617C53.1586 28.7667 53.1517 28.7696 53.1442 28.7696ZM52.381 26.6881C52.662 27.328 52.9236 27.9991 53.1586 28.6851C54.1656 27.8063 55.2212 27.191 56.1541 26.648C56.3692 26.5229 56.6126 26.3815 56.8461 26.2405C58.6495 25.1506 59.8975 24.0245 60.6612 22.7985C61.3912 21.627 61.6455 20.2789 61.3245 19.2804C61.0435 18.4055 60.1403 18.0534 59.43 17.9125L59.4048 17.9169C59.3766 17.9219 59.3484 17.9268 59.3212 17.9323C57.0083 18.4021 55.285 20.6077 55.1302 23.2965C55.0382 24.8979 53.9351 26.2569 52.381 26.6881Z" fill="#F49916"/>
<path d="M82.3221 23.5611C81.9116 18.5766 81.226 12.8944 78.2642 8.54588C73.577 1.66287 62.568 1.05706 56.4227 1.30878H56.3722C50.2259 1.05706 39.2178 1.66287 34.5307 8.54539C33.1289 10.6037 32.1466 12.9755 31.4689 15.51C36.0923 15.6628 41.7499 16.4986 46.1007 19.1904C47.5677 14.8443 51.1044 11.5156 55.5491 10.6131C56.8179 10.3549 58.1682 10.2768 59.4597 10.3846C63.5795 10.0473 68.9779 11.5725 70.7205 16.9961C71.7236 20.1191 71.2003 23.6734 69.2851 26.7469C67.8848 28.9936 65.8271 30.9184 62.9944 32.631C62.7312 32.7902 62.4646 32.945 62.198 33.1008C61.3898 33.5711 60.627 34.0152 60.1695 34.4805C59.4617 35.2006 59.205 36.4528 59.5725 37.3924C60.3189 39.3018 59.3726 41.4625 57.4629 42.2092C57.0281 42.3788 56.573 42.4654 56.1096 42.4654H56.0947L55.1104 42.4634C55.1109 42.4911 55.1109 42.5188 55.1109 42.5465C56.0799 42.5134 56.756 42.5653 56.8792 42.5757C57.2141 42.5678 57.5465 42.5964 57.867 42.6607C58.6347 42.815 59.3197 43.1973 59.8515 43.767C60.6384 44.4317 61.1177 45.3995 61.1672 46.4296C61.2404 47.9503 60.5499 49.4364 59.3192 50.4047C58.4615 51.0798 57.3976 51.4517 56.3247 51.4517C56.2931 51.4517 56.2619 51.4502 56.2302 51.4487L56.2011 51.4517H56.1996L54.7647 51.4477C54.6568 52.9561 54.5149 54.5767 54.2666 56.2205C54.4768 56.2205 54.6835 56.2195 54.8834 56.2176H54.8898C55.1623 56.2176 55.4027 56.3961 55.4809 56.6572C57.034 61.839 60.9179 66.3373 64.9259 67.5969C65.7791 67.865 65.9666 67.7121 65.9676 67.7107C66.2797 67.405 65.7049 65.4402 65.3251 64.1396C64.6628 61.8741 63.8382 59.0547 64.1004 56.448C64.129 56.1592 64.3561 55.9297 64.6445 55.8966C70.9693 55.1785 75.5882 53.2864 78.0015 50.425C83.9534 43.3664 82.8103 29.4877 82.3221 23.5611Z" fill="#F49916"/>
<path d="M65.7317 67.7853C65.5694 67.7853 65.3132 67.7507 64.9165 67.6261C60.8991 66.3635 57.0068 61.8563 55.4512 56.6656C55.376 56.4159 55.1505 56.2477 54.8898 56.2477C54.684 56.2497 54.4773 56.2507 54.267 56.2507C54.2581 56.2507 54.2497 56.2467 54.2438 56.2398C54.2379 56.2329 54.2354 56.224 54.2369 56.2151C54.5015 54.4624 54.642 52.7454 54.735 51.4448C54.736 51.4284 54.7493 51.4161 54.7656 51.4161L56.2006 51.42L56.2283 51.4176C56.2639 51.4185 56.2945 51.42 56.3257 51.42C57.3921 51.42 58.4487 51.0506 59.3014 50.3795C60.5242 49.4176 61.2102 47.9414 61.1375 46.4306C61.0885 45.4114 60.6132 44.449 59.8327 43.7903C59.3029 43.223 58.6223 42.8437 57.862 42.6904C57.545 42.6266 57.2146 42.5984 56.8812 42.6058C56.7516 42.595 56.0725 42.544 55.1129 42.5767C55.104 42.5737 55.0965 42.5737 55.0906 42.5678C55.0847 42.5623 55.0812 42.5544 55.0812 42.546L55.0807 42.4629C55.0807 42.4545 55.0837 42.4466 55.0896 42.4412C55.0956 42.4352 55.1035 42.4318 55.1114 42.4318L56.1105 42.4337C56.5701 42.4337 57.0217 42.3482 57.453 42.1796C59.3469 41.4387 60.2852 39.2959 59.5453 37.4028C59.1733 36.4518 59.433 35.1863 60.1487 34.4578C60.6092 33.9895 61.3739 33.5439 62.1836 33.0731C62.4448 32.9213 62.7149 32.7635 62.98 32.6038C65.8083 30.8942 67.8625 28.9729 69.2604 26.7301C71.1706 23.664 71.693 20.1191 70.6923 17.005C68.9571 11.6046 63.5597 10.078 59.4637 10.4148C58.1687 10.3065 56.8193 10.3856 55.5565 10.6422C51.2275 11.5215 47.6157 14.8003 46.1313 19.1993C46.1284 19.2082 46.1214 19.2151 46.1125 19.2186C46.1036 19.2215 46.0937 19.221 46.0858 19.2161C41.5797 16.4284 35.65 15.6786 31.4694 15.5407C31.46 15.5402 31.4511 15.5357 31.4457 15.5283C31.4402 15.5209 31.4382 15.511 31.4407 15.5021C32.1629 12.8009 33.1942 10.4548 34.5065 8.52809C39.2025 1.63272 50.2239 1.02592 56.3747 1.27813H56.4236C62.5744 1.02789 73.5943 1.63222 78.2909 8.52809C81.2567 12.883 81.9432 18.5697 82.3543 23.5581C82.843 29.4887 83.9866 43.3763 78.0262 50.4448C75.6075 53.3121 70.9822 55.2082 64.6489 55.9268C64.3764 55.9574 64.1592 56.178 64.132 56.4505C63.8708 59.0513 64.6939 61.8677 65.3557 64.1302C65.8617 65.8601 66.2911 67.4377 65.9903 67.7319C65.9889 67.7324 65.9325 67.7853 65.7317 67.7853ZM54.8824 56.1864C55.1772 56.1864 55.427 56.3719 55.5096 56.6478C57.0597 61.8202 60.9352 66.3106 64.9348 67.5673C65.7534 67.8239 65.9458 67.6879 65.9473 67.6864C66.2446 67.3952 65.65 65.3621 65.2949 64.1475C64.6316 61.8795 63.8065 59.0572 64.0692 56.4441C64.0994 56.1429 64.3397 55.8996 64.6405 55.8654C70.9574 55.1484 75.5694 53.2597 77.9773 50.4042C83.9213 43.3556 82.7792 29.4857 82.2915 23.5626C81.8814 18.5821 81.1964 12.9048 78.2384 8.56221C73.5587 1.69157 62.5615 1.08773 56.4236 1.33995H56.3722C50.2318 1.08823 39.2356 1.69206 34.5559 8.56271C33.2535 10.4746 32.2287 12.8019 31.5085 15.4803C35.6842 15.6218 41.5842 16.3745 46.0833 19.1439C46.8134 17.001 48.0589 15.0802 49.6867 13.5877C51.3507 12.0621 53.3757 11.023 55.5422 10.5829C56.8104 10.3248 58.1657 10.2456 59.4617 10.3539C63.5751 10.0167 69.0032 11.5517 70.7492 16.9867C71.7553 20.1181 71.2305 23.6818 69.3103 26.7638C67.9075 29.0149 65.8464 30.9426 63.0097 32.6577C62.7446 32.8179 62.474 32.9752 62.2128 33.1275C61.4071 33.5968 60.6453 34.0399 60.1908 34.5023C59.4909 35.2145 59.2371 36.4523 59.6002 37.3815C60.353 39.3068 59.3989 41.4857 57.4733 42.2384C57.035 42.4095 56.5755 42.4966 56.1086 42.4966L55.1401 42.4946V42.5149C56.0868 42.4832 56.755 42.5346 56.8807 42.545C57.216 42.5371 57.5499 42.5658 57.8719 42.6306C58.645 42.7859 59.337 43.1716 59.8732 43.7458C60.6636 44.4129 61.1474 45.3916 61.1973 46.4281C61.271 47.9587 60.5761 49.4542 59.3375 50.429C58.4744 51.108 57.404 51.4823 56.3237 51.4823C56.2916 51.4823 56.2599 51.4809 56.2278 51.4794L56.203 51.4818L54.7923 51.4784C54.7003 52.7677 54.5609 54.46 54.3012 56.1894C54.5 56.1894 54.6944 56.1884 54.8824 56.1864Z" fill="#F49916"/>
<path d="M47.1676 19.9065C47.453 20.1152 47.729 20.3352 47.9991 20.5637C47.9991 20.5632 47.9991 20.5632 47.9995 20.5627C48.0441 20.3649 48.094 20.1696 48.147 19.9752C48.1643 19.9124 48.1821 19.8501 48.2004 19.7873C48.2474 19.6231 48.2978 19.4609 48.3507 19.2997C48.3685 19.2458 48.3849 19.1919 48.4032 19.1385C48.4744 18.9302 48.5496 18.724 48.6302 18.5203C48.6431 18.4876 48.6579 18.455 48.6708 18.4224C48.7405 18.2508 48.8132 18.0806 48.8899 17.913C48.9166 17.8541 48.9438 17.7958 48.971 17.7379C49.0442 17.5831 49.1199 17.4298 49.198 17.278C49.2208 17.2335 49.2431 17.1885 49.2663 17.145C49.3677 16.9541 49.4736 16.7661 49.5834 16.5812C49.6061 16.5426 49.6304 16.5055 49.6536 16.4669C49.7436 16.3186 49.8366 16.1727 49.9321 16.0283C49.9672 15.9749 50.0028 15.9225 50.0389 15.8695C50.1374 15.7256 50.2383 15.5842 50.3421 15.4447C50.3674 15.4106 50.3921 15.3755 50.4178 15.3419C50.5464 15.1722 50.6795 15.0061 50.816 14.8434C50.8491 14.8043 50.8833 14.7662 50.9164 14.7272C51.0242 14.6015 51.134 14.4784 51.2458 14.3572C51.2894 14.3103 51.3324 14.2638 51.3764 14.2178C51.5006 14.0872 51.6277 13.9596 51.7573 13.835C51.7815 13.8118 51.8043 13.7875 51.829 13.7648C51.9818 13.6194 52.1391 13.4789 52.2989 13.3415C52.3419 13.3044 52.3855 13.2693 52.429 13.2331C52.5522 13.1303 52.6768 13.0299 52.8034 12.9315C52.8326 12.9092 52.8598 12.8845 52.889 12.8622C50.1779 14.2925 48.1128 16.8359 47.1676 19.9065Z" fill="#A90E34"/>
<path d="M47.9991 20.5944C47.9916 20.5944 47.9847 20.5919 47.9793 20.587C47.6904 20.3422 47.4188 20.128 47.1498 19.9312C47.1394 19.9233 47.1344 19.9099 47.1384 19.8971C48.0812 16.8354 50.172 14.2608 52.8746 12.8336C52.8885 12.8261 52.9063 12.8306 52.9152 12.8439C52.9236 12.8573 52.9207 12.8756 52.9078 12.885C52.8934 12.8959 52.8791 12.9077 52.8653 12.9191C52.8509 12.931 52.8366 12.9424 52.8222 12.9537C52.6956 13.0517 52.57 13.153 52.4488 13.2544L52.4023 13.293C52.3746 13.3162 52.3464 13.339 52.3192 13.3622C52.151 13.5066 51.9982 13.6446 51.8508 13.7846C51.8379 13.7964 51.8255 13.8093 51.8132 13.8217C51.8018 13.833 51.7909 13.8439 51.7795 13.8548C51.6524 13.9774 51.5248 14.106 51.3997 14.2371C51.3556 14.2831 51.3126 14.33 51.2691 14.3765C51.1573 14.4977 51.0465 14.6213 50.9401 14.7455L50.9025 14.789C50.8818 14.8132 50.8605 14.8369 50.8402 14.8612C50.7027 15.0254 50.5692 15.193 50.443 15.3587C50.4287 15.3775 50.4153 15.3963 50.4015 15.4156C50.3906 15.4309 50.3792 15.4462 50.3678 15.4615C50.266 15.599 50.1641 15.7415 50.0656 15.8854C50.0295 15.9378 49.9944 15.9907 49.9588 16.0441C49.8633 16.188 49.7698 16.3354 49.6808 16.4813L49.6521 16.5278C49.6383 16.55 49.6239 16.5728 49.6106 16.595C49.5027 16.776 49.3964 16.9654 49.2945 17.1573C49.2811 17.1825 49.2683 17.2083 49.2554 17.2335L49.2262 17.2899C49.1476 17.4422 49.0714 17.5965 48.9997 17.7483C48.972 17.8067 48.9453 17.8645 48.9186 17.9234C48.8424 18.091 48.7687 18.2621 48.6999 18.4318C48.694 18.4471 48.6876 18.4619 48.6807 18.4772C48.6732 18.4946 48.6658 18.5119 48.6589 18.5292C48.5817 18.724 48.5056 18.9312 48.4324 19.1459C48.4215 19.1785 48.4106 19.2116 48.4002 19.2443L48.3799 19.3071C48.3275 19.4673 48.2765 19.6315 48.23 19.7937L48.2202 19.8293C48.2058 19.8798 48.191 19.9302 48.1771 19.9816C48.1207 20.1884 48.0728 20.3797 48.0302 20.5677C48.0297 20.5701 48.0287 20.5736 48.0272 20.5756C48.0228 20.584 48.0149 20.5899 48.006 20.5919C48.003 20.5944 48.001 20.5944 47.9991 20.5944ZM47.2037 19.8946C47.4564 20.0801 47.7112 20.2808 47.9808 20.5078C48.0213 20.3308 48.0653 20.1547 48.1168 19.9668C48.1306 19.9154 48.1455 19.8644 48.1598 19.814L48.1702 19.7789C48.2172 19.6157 48.2681 19.451 48.3206 19.2898L48.3408 19.2275C48.3517 19.1943 48.3621 19.1607 48.3735 19.1281C48.4472 18.9124 48.5239 18.7042 48.601 18.5084C48.6079 18.4901 48.6159 18.4728 48.6233 18.455C48.6297 18.4402 48.6361 18.4253 48.6421 18.4105C48.7113 18.2399 48.785 18.0683 48.8617 17.8996C48.8884 17.8413 48.9156 17.7824 48.9428 17.7241C49.0145 17.5713 49.0912 17.4165 49.1703 17.2632L49.199 17.2068C49.2119 17.1811 49.2252 17.1548 49.2386 17.1296C49.3415 16.9368 49.4483 16.7464 49.5562 16.5649C49.57 16.5416 49.5844 16.5189 49.5987 16.4961L49.6269 16.4501C49.7159 16.3033 49.8099 16.1554 49.9059 16.0105C49.941 15.9571 49.9766 15.9042 50.0132 15.8512C50.1121 15.7063 50.2145 15.5629 50.3169 15.4254L50.35 15.3799C50.3639 15.3607 50.3782 15.3414 50.3926 15.3221C50.5192 15.1554 50.6533 14.9873 50.7917 14.8221C50.8125 14.7974 50.8338 14.7731 50.8546 14.7489L50.8922 14.7059C50.999 14.5813 51.1103 14.4561 51.2226 14.335C51.2661 14.288 51.3096 14.2415 51.3537 14.195C51.4788 14.0635 51.6074 13.9339 51.735 13.8108C51.7459 13.8004 51.7573 13.789 51.7682 13.7781C51.781 13.7653 51.7939 13.7524 51.8067 13.7401C51.9546 13.5996 52.109 13.4611 52.2776 13.3157C52.3053 13.292 52.3335 13.2688 52.3617 13.2455L52.4082 13.2069C52.4661 13.1585 52.5244 13.1105 52.5838 13.0625C50.0567 14.5096 48.1069 16.9788 47.2037 19.8946Z" fill="#A90E34"/>
<path d="M61.7345 23.4672C61.0613 24.5477 60.0814 25.5457 58.7588 26.4952C58.8884 26.4196 59.019 26.3439 59.1466 26.2667C60.954 25.1743 62.2054 24.0448 62.9721 22.8144C63.7066 21.6354 63.9623 20.2774 63.6388 19.2705C63.6087 19.176 63.5706 19.0875 63.5266 19.0034C63.5127 18.9767 63.4944 18.953 63.4791 18.9273C63.4469 18.8729 63.4143 18.818 63.3767 18.7685C63.3554 18.7403 63.3307 18.7156 63.3079 18.6889C63.2708 18.6459 63.2342 18.6029 63.1937 18.5633C63.167 18.5376 63.1373 18.5143 63.1091 18.4896C63.0675 18.454 63.026 18.4184 62.981 18.3858C62.9498 18.363 62.9167 18.3422 62.8835 18.321C62.8375 18.2913 62.7915 18.2621 62.7431 18.2349C62.7079 18.2156 62.6718 18.1978 62.6357 18.1795C62.5858 18.1548 62.5353 18.1311 62.4834 18.1088C62.4458 18.093 62.4077 18.0777 62.3691 18.0633C62.3157 18.043 62.2618 18.0238 62.2064 18.006C62.1668 17.9931 62.1272 17.9812 62.0872 17.9694C62.0644 17.9629 62.0412 17.9575 62.0184 17.9516C62.245 18.2295 62.4166 18.545 62.5284 18.8932C62.9602 20.2358 62.656 21.9885 61.7345 23.4672Z" fill="#A90E34"/>
<path d="M58.7588 26.5259C58.7489 26.5259 58.739 26.5209 58.7331 26.512C58.7242 26.4982 58.7276 26.4799 58.741 26.47C60.0636 25.5205 61.0341 24.5329 61.7088 23.4503C62.6253 21.9796 62.9286 20.2368 62.4997 18.9021C62.3899 18.5608 62.2202 18.2473 61.9952 17.9703C61.9868 17.96 61.9858 17.9451 61.9932 17.9337C62.0006 17.9224 62.0145 17.9174 62.0273 17.9209L62.057 17.9288C62.0704 17.9323 62.0837 17.9357 62.0966 17.9392C62.1371 17.9506 62.1767 17.9634 62.2168 17.9758C62.2727 17.9941 62.3271 18.0134 62.381 18.0336C62.4196 18.0485 62.4587 18.0633 62.4962 18.0796C62.5487 18.1019 62.5996 18.1261 62.6501 18.1508C62.6867 18.1691 62.7233 18.1874 62.7589 18.2072C62.8103 18.2359 62.8598 18.2671 62.9014 18.2938L62.9246 18.3091C62.9503 18.3259 62.9755 18.3422 62.9998 18.3595C63.0458 18.3927 63.0883 18.4298 63.1299 18.4649L63.1531 18.4842C63.1744 18.5025 63.1957 18.5203 63.2154 18.5396C63.2545 18.5771 63.2901 18.6187 63.3248 18.6587L63.3322 18.6671C63.3401 18.676 63.3475 18.685 63.3554 18.6934C63.3713 18.7117 63.3876 18.7295 63.4019 18.7487C63.442 18.8017 63.4761 18.8595 63.5063 18.9105C63.5122 18.9204 63.5187 18.9297 63.5251 18.9396C63.5355 18.9555 63.5459 18.9713 63.5543 18.9881C63.6008 19.0771 63.6388 19.1686 63.6685 19.2601C63.995 20.2754 63.7383 21.6433 62.9988 22.8302C62.2296 24.0646 60.9752 25.1971 59.1634 26.2925C59.0679 26.3498 58.9705 26.4067 58.8731 26.4636L58.7746 26.5209C58.7697 26.5244 58.7642 26.5259 58.7588 26.5259ZM62.1005 18.0055C62.3019 18.2695 62.4557 18.5648 62.5581 18.8838C62.9919 20.2348 62.6867 21.9974 61.7607 23.4835C61.1647 24.4399 60.3392 25.3227 59.2465 26.1698C60.9876 25.1016 62.1985 23.9978 62.9459 22.798C63.6759 21.6265 63.9302 20.2784 63.6092 19.2799C63.581 19.1919 63.5439 19.1038 63.4994 19.0178C63.4914 19.0029 63.482 18.9891 63.4731 18.9748C63.4662 18.9644 63.4593 18.954 63.4529 18.9431C63.4237 18.8936 63.3901 18.8373 63.3525 18.7868C63.3391 18.769 63.3238 18.7522 63.3094 18.7359C63.301 18.727 63.2931 18.7176 63.2852 18.7082L63.2778 18.6998C63.2441 18.6612 63.2095 18.6207 63.1724 18.5851C63.1531 18.5668 63.1333 18.5499 63.1126 18.5326L63.0888 18.5129C63.0483 18.4782 63.0062 18.4426 62.9627 18.4105C62.9394 18.3937 62.9147 18.3778 62.89 18.362L62.8667 18.3467C62.8262 18.3205 62.7777 18.2898 62.7277 18.2621C62.6931 18.2433 62.6575 18.225 62.6219 18.2072C62.5724 18.183 62.5225 18.1593 62.471 18.1375C62.4339 18.1217 62.3958 18.1068 62.3577 18.0925C62.3048 18.0722 62.2509 18.0534 62.1965 18.0356C62.1653 18.0252 62.1332 18.0148 62.1005 18.0055Z" fill="#A90E34"/>
<path d="M55.2741 28.8745C55.3191 28.8329 55.3651 28.7943 55.4106 28.7538C55.5046 28.6707 55.5981 28.5891 55.6931 28.511C55.7465 28.467 55.7999 28.4239 55.8538 28.3809C55.9429 28.3097 56.0319 28.2405 56.1214 28.1727C56.1763 28.1312 56.2307 28.0901 56.2857 28.0501C56.3148 28.0288 56.344 28.0056 56.3732 27.9848C55.4423 28.5332 54.4402 29.1667 53.5553 30.0411C53.6156 30.2503 53.6725 30.4609 53.7289 30.6721C54.0643 30.1741 54.4397 29.7008 54.8651 29.2681C54.9996 29.1306 55.1361 29.0006 55.2741 28.8745Z" fill="#A90E34"/>
<path d="M53.7284 30.7028C53.7269 30.7028 53.7249 30.7023 53.7234 30.7023C53.7116 30.7003 53.7017 30.6914 53.6987 30.68C53.6483 30.4911 53.5889 30.2691 53.5251 30.0495C53.5221 30.0386 53.5251 30.0272 53.533 30.0193C54.41 29.1534 55.4087 28.5174 56.3569 27.9586C56.3712 27.9502 56.3895 27.9546 56.3984 27.9685C56.4073 27.9823 56.4039 28.0006 56.3905 28.0105C56.3757 28.0209 56.3608 28.0323 56.346 28.0436C56.3316 28.0545 56.3173 28.0654 56.303 28.0758C56.2486 28.1158 56.1941 28.1569 56.1397 28.1984C56.0507 28.2657 55.9617 28.3354 55.8726 28.4061C55.8192 28.4492 55.7658 28.4917 55.7124 28.5362C55.61 28.6213 55.5081 28.7103 55.4304 28.7785L55.3815 28.8215C55.3523 28.8468 55.3231 28.872 55.2944 28.8987C55.2944 28.8987 55.2944 28.8987 55.2944 28.8992C55.1426 29.0377 55.009 29.1657 54.8858 29.2914C54.4847 29.6993 54.1033 30.1702 53.7531 30.6909C53.7482 30.6973 53.7383 30.7028 53.7284 30.7028ZM53.5894 30.05C53.6438 30.2389 53.6957 30.4298 53.7408 30.5984C54.0826 30.097 54.453 29.642 54.8428 29.2459C54.9665 29.1197 55.101 28.9912 55.2534 28.8512C55.2825 28.8245 55.3122 28.7988 55.3419 28.7731L55.3904 28.7305C55.468 28.6623 55.5704 28.5723 55.6738 28.4867C55.7272 28.4422 55.7811 28.3992 55.835 28.3562C55.8578 28.3379 55.881 28.3196 55.9038 28.3013C55.1139 28.7869 54.3101 29.3413 53.5894 30.05Z" fill="#A90E34"/>
<path d="M69.5458 17.3734C68.0198 12.6239 63.3643 11.2847 59.5146 11.6175C59.022 11.6595 58.5392 11.7287 58.0797 11.8222C53.4272 12.7673 49.8747 16.6756 49.0615 21.5562C49.5784 22.0923 50.0582 22.6704 50.4881 23.301C50.9713 24.0106 51.4056 24.7544 51.7983 25.5254C52.9192 25.3365 53.8006 24.386 53.8674 23.2228C54.0554 19.9614 56.1941 17.276 59.069 16.6919C59.155 16.6746 59.2445 16.6583 59.3356 16.644C59.7585 16.5752 60.1928 16.5386 60.6231 16.5386C62.4819 16.5386 64.275 17.2181 64.8131 18.8931C65.2444 20.2358 64.9402 21.9885 64.0187 23.4671C63.1467 24.8662 61.7617 26.1273 59.7842 27.3226C59.5497 27.4645 59.3123 27.6025 59.0749 27.7405C58.001 28.3661 56.7842 29.0742 55.744 30.1326C55.0842 30.8041 54.55 31.5776 54.1409 32.4104C54.7276 35.1991 54.9991 38.1209 55.0822 41.0114C55.3973 41.1534 55.745 41.232 56.1086 41.232C56.4177 41.232 56.7219 41.1746 57.0128 41.0609C58.2889 40.5619 58.9216 39.1179 58.4225 37.8419C57.8804 36.4557 58.2444 34.6779 59.2886 33.6161C59.8619 33.0325 60.6943 32.5479 61.5763 32.0351C61.8374 31.8832 62.0981 31.7314 62.3553 31.5756C65.0179 29.9659 66.9415 28.1737 68.237 26.0951C69.9613 23.3292 70.4381 20.1508 69.5458 17.3734Z" fill="#FAB50B"/>
<path d="M56.1096 41.2627C55.749 41.2627 55.3993 41.1875 55.0703 41.0396C55.0594 41.0347 55.0525 41.0243 55.052 41.0124C54.9595 37.7974 54.6519 34.986 54.1112 32.4163C54.1098 32.4094 54.1107 32.4025 54.1137 32.3966C54.5366 31.5351 55.0778 30.7661 55.7223 30.1103C56.7654 29.049 57.9842 28.3394 59.0595 27.7133C59.3123 27.5664 59.5403 27.4334 59.7688 27.2959C61.7419 26.103 63.1239 24.8454 63.993 23.4503C64.9096 21.9796 65.2128 20.2368 64.7839 18.902C64.3145 17.4412 62.7589 16.5688 60.6231 16.5688C60.1992 16.5688 59.7674 16.6039 59.3405 16.6737C59.2495 16.6885 59.1604 16.7043 59.0754 16.7216C56.2144 17.3032 54.0855 19.9772 53.8985 23.2243C53.8323 24.382 52.9508 25.3627 51.8038 25.5556C51.7899 25.5576 51.7771 25.5511 51.7711 25.5393C51.3695 24.75 50.9293 24.0027 50.4628 23.3178C50.0552 22.7194 49.5764 22.1334 49.0398 21.577C49.0328 21.5701 49.0299 21.5602 49.0314 21.5503C49.433 19.1394 50.497 16.9402 52.1085 15.1915C53.7319 13.43 55.7945 12.2539 58.0737 11.7911C58.5352 11.6971 59.0195 11.6284 59.5121 11.5858C63.3718 11.252 68.0431 12.5942 69.5754 17.363C70.4702 20.1488 69.9924 23.3366 68.2642 26.11C66.9667 28.192 65.0397 29.9881 62.3726 31.6008C62.1164 31.7556 61.8522 31.9094 61.597 32.0578C60.7136 32.5721 59.8826 33.0553 59.3118 33.6364C58.2756 34.6902 57.914 36.4533 58.4521 37.8291C58.9572 39.1208 58.3166 40.5832 57.0246 41.0881C56.7308 41.2048 56.4227 41.2627 56.1096 41.2627ZM55.1134 40.9912C55.4289 41.1306 55.7643 41.2009 56.1096 41.2009C56.4147 41.2009 56.7155 41.144 57.0024 41.0317C58.2627 40.5392 58.8874 39.1129 58.3948 37.8528C57.8482 36.4552 58.2152 34.6645 59.2678 33.5938C59.8445 33.0068 60.679 32.5217 61.5619 32.0078C61.8211 31.857 62.0847 31.7032 62.3409 31.5484C64.9991 29.9417 66.9198 28.1519 68.2122 26.0778C69.9306 23.3203 70.4064 20.1508 69.5171 17.3823C67.9961 12.6481 63.3554 11.3163 59.5181 11.6476C59.0274 11.6897 58.5456 11.7584 58.0866 11.8514C53.5251 12.7782 49.9133 16.6727 49.0952 21.5454C49.6299 22.1012 50.1072 22.6858 50.5143 23.2832C50.9782 23.9642 51.416 24.707 51.8161 25.4908C52.9246 25.2935 53.7729 24.342 53.8372 23.2209C54.0262 19.9455 56.1748 17.2483 59.0635 16.6613C59.1496 16.644 59.2396 16.6277 59.3311 16.6128C59.7614 16.5426 60.1962 16.507 60.6236 16.507C62.7876 16.507 64.365 17.3952 64.8433 18.8828C65.2771 20.2338 64.9719 21.9964 64.0459 23.4825C63.1714 24.8855 61.783 26.15 59.801 27.3483C59.5725 27.4863 59.344 27.6193 59.0912 27.7662C58.0193 28.3903 56.8045 29.098 55.7668 30.1533C55.1292 30.8017 54.5935 31.5623 54.1741 32.4134C54.7132 34.979 55.0204 37.7851 55.1134 40.9912Z" fill="#FAB50B"/>
<path d="M59.9346 46.489C59.9009 45.7912 59.572 45.1354 59.0328 44.6908C59.0101 44.672 58.9888 44.6523 58.969 44.6305C58.6114 44.2383 58.146 43.9752 57.6231 43.8704C57.4139 43.8283 57.1973 43.8071 56.9771 43.8071C56.9386 43.8071 56.8995 43.8076 56.8609 43.8091C56.2312 43.8303 55.6258 44.0331 55.102 44.3837C55.0723 46.2719 54.9833 48.118 54.87 49.8716C55.0273 49.9587 55.194 50.0299 55.3686 50.0813C55.6377 50.1599 55.9241 50.2049 56.2199 50.2138L56.3242 50.2178C57.1221 50.2178 57.9145 49.9399 58.556 49.4349C59.4736 48.7134 59.989 47.6121 59.9346 46.489Z" fill="#FAB50B"/>
<path d="M56.3247 50.2485L56.2194 50.2445C55.9221 50.2356 55.6332 50.1906 55.3607 50.111C55.1895 50.0606 55.0199 49.9893 54.8557 49.8988C54.8453 49.8929 54.8388 49.8815 54.8398 49.8702C54.9694 47.8643 55.0456 46.0696 55.0718 44.3837C55.0718 44.3733 55.0773 44.3644 55.0852 44.3585C55.6199 44 56.2337 43.7997 56.8604 43.7784C57.1236 43.769 57.3822 43.7903 57.6301 43.8402C58.1588 43.9466 58.6302 44.2126 58.9923 44.6097C59.0116 44.6305 59.0318 44.6498 59.0526 44.6671C59.5992 45.1176 59.9316 45.7808 59.9657 46.4875C60.0201 47.6205 59.5008 48.7312 58.5753 49.4592C57.9283 49.9681 57.129 50.2485 56.3247 50.2485ZM54.9022 49.8543C55.057 49.9384 55.2167 50.0047 55.3775 50.0517C55.6451 50.1298 55.929 50.1743 56.2213 50.1832L56.3257 50.1872C57.1151 50.1872 57.9011 49.9117 58.5372 49.4107C59.4463 48.6951 59.9573 47.6037 59.9039 46.4905C59.8707 45.8011 59.5463 45.1537 59.013 44.7146C58.9898 44.6958 58.9675 44.6745 58.9463 44.6513C58.5926 44.2641 58.1331 44.0039 57.6172 43.9001C57.3743 43.8516 57.1191 43.8298 56.8619 43.8397C56.252 43.8605 55.654 44.0544 55.1327 44.4005C55.1064 46.0775 55.0308 47.8618 54.9022 49.8543Z" fill="#FAB50B"/>
<path d="M52.0442 19.7215C53.2778 18.7369 54.7365 17.8329 56.0957 17.0292C56.7575 16.6381 57.4703 16.2968 58.1796 16.0016C58.9769 15.6693 59.8084 15.4161 60.4035 14.7499C60.9045 14.1891 60.8907 13.2094 60.1552 12.8237C58.2568 11.8282 55.8306 13.0709 54.2834 14.2257C52.5353 15.5308 51.5525 17.0762 51.2033 19.2319C51.1197 19.7433 51.6401 20.044 52.0442 19.7215Z" fill="white"/>
<path d="M51.6851 19.8862C51.5946 19.8862 51.505 19.863 51.4239 19.8155C51.2285 19.7012 51.1321 19.4762 51.1721 19.2275C51.5184 17.0896 52.472 15.5392 54.2646 14.2015C55.3295 13.4067 58.0371 11.6778 60.1695 12.7975C60.4846 12.9626 60.6938 13.2495 60.7581 13.6055C60.8318 14.013 60.7047 14.4596 60.4262 14.7717C59.9187 15.3399 59.2292 15.6149 58.5629 15.8804C58.4388 15.9299 58.3146 15.9798 58.191 16.0313C57.4164 16.3542 56.7165 16.6994 56.111 17.0574C54.8191 17.821 53.3277 18.7384 52.0635 19.7472C51.9472 19.8387 51.8142 19.8862 51.6851 19.8862ZM58.6169 12.4923C56.8856 12.4923 55.1129 13.6451 54.3012 14.2509C52.523 15.5783 51.5767 17.1158 51.233 19.2369C51.1969 19.4599 51.2819 19.6607 51.4551 19.7621C51.6292 19.8639 51.8473 19.8392 52.0249 19.6978C53.2921 18.6864 54.7859 17.7681 56.0799 17.0035C56.6878 16.644 57.3902 16.2973 58.1672 15.9739C58.2909 15.9225 58.4155 15.8725 58.5397 15.8231C59.2302 15.5476 59.8821 15.2875 60.3797 14.7306C60.6458 14.4324 60.7675 14.0056 60.6968 13.6169C60.6355 13.2801 60.4381 13.0086 60.1398 12.8524C59.6546 12.5967 59.1377 12.4923 58.6169 12.4923Z" fill="white"/>
<path d="M63.1101 15.0086C63.5879 15.2202 64.2977 15.327 64.6291 15.3661C65.2776 15.4418 65.7465 15.2148 65.8108 14.5318C65.977 12.7614 62.8949 12.521 62.6184 14.2153C62.5932 14.3691 62.5977 14.5343 62.6704 14.6723C62.7406 14.8058 62.9033 14.9171 63.1101 15.0086Z" fill="white"/>
<path d="M64.8571 15.4106C64.7834 15.4106 64.7063 15.4057 64.6252 15.3963C64.3323 15.3621 63.5978 15.2583 63.0972 15.0367C62.8633 14.9329 62.7104 14.8152 62.6422 14.6866C62.5754 14.559 62.5566 14.3988 62.5873 14.2104C62.7342 13.3103 63.6433 12.9473 64.4669 13.0526C65.2113 13.1481 65.9251 13.6436 65.841 14.5348C65.8128 14.8355 65.7059 15.0625 65.5234 15.2103C65.3587 15.3434 65.1351 15.4106 64.8571 15.4106ZM64.1899 13.0962C63.4781 13.0962 62.7737 13.4557 62.6491 14.2203C62.6204 14.3953 62.6367 14.5422 62.6976 14.6574C62.7589 14.7736 62.9019 14.8824 63.123 14.9804C63.6156 15.1989 64.3432 15.3013 64.6331 15.3354C65.0031 15.3785 65.2904 15.3201 65.4853 15.1619C65.6545 15.0249 65.7539 14.8122 65.7801 14.5288C65.8598 13.6787 65.1742 13.2055 64.4595 13.114C64.3699 13.1021 64.2799 13.0962 64.1899 13.0962Z" fill="white"/>
<path d="M64.0173 27.014C63.7017 27.9076 64.7755 28.5204 65.5031 28.1559C66.8461 27.4833 67.7789 25.9819 68.5145 24.7183C69.2816 23.3999 70.1576 21.7125 69.2861 20.2556C68.7311 19.3283 67.5237 19.6419 67.1651 20.533C66.7125 21.6586 66.3222 22.7995 65.7534 23.8796C65.196 24.9389 64.4179 25.8805 64.0173 27.014Z" fill="white"/>
<path d="M65.0337 28.2949C64.7518 28.2949 64.4649 28.193 64.2458 27.9996C63.9505 27.7395 63.857 27.3765 63.9886 27.0036C64.2413 26.2875 64.6509 25.6377 65.0466 25.0091C65.2796 24.6392 65.5204 24.2569 65.7267 23.8648C66.1516 23.0582 66.483 22.2011 66.8035 21.3728C66.9113 21.0934 67.0231 20.8046 67.1369 20.5212C67.3298 20.041 67.7715 19.7057 68.2612 19.6671C68.691 19.6345 69.0754 19.8417 69.3133 20.2393C70.1754 21.6809 69.3672 23.3153 68.5417 24.7332C67.773 26.0546 66.8416 27.5199 65.5175 28.1831C65.3681 28.2583 65.2014 28.2949 65.0337 28.2949ZM64.0464 27.0244C63.9238 27.3721 64.0113 27.7108 64.2863 27.9536C64.6123 28.241 65.1188 28.3142 65.4893 28.1287C66.7986 27.4729 67.7235 26.0165 68.4877 24.703C69.3044 23.2995 70.1047 21.6843 69.2599 20.2714C69.0343 19.8946 68.6703 19.6988 68.2657 19.7289C67.7992 19.7655 67.3783 20.086 67.1943 20.5444C67.0805 20.8273 66.9687 21.1161 66.8609 21.395C66.5399 22.2254 66.2075 23.0839 65.7811 23.894C65.5734 24.2881 65.332 24.6714 65.0985 25.0423C64.7048 25.6679 64.2972 26.3147 64.0464 27.0244Z" fill="white"/>
<path d="M49.4681 23.9958C44.781 17.1133 33.7714 16.5075 27.6266 16.7592H27.5762C26.9059 16.7315 26.1773 16.7142 25.4057 16.7142C19.1041 16.7142 9.91034 17.8635 5.73465 23.9958C2.77328 28.3438 2.08722 34.0266 1.67668 39.0111C1.18848 44.9376 0.0458736 58.8169 5.99779 65.8745C8.41111 68.7364 13.03 70.6285 19.3549 71.3466C19.6432 71.3792 19.8703 71.6091 19.899 71.898C20.1606 74.5052 19.3366 77.3241 18.6742 79.5895C18.2939 80.8897 17.7196 82.855 18.0317 83.1606C18.0332 83.1626 18.2207 83.3154 19.0734 83.0469C23.0819 81.7873 26.9658 77.2884 28.5184 72.1072C28.5976 71.8436 28.8355 71.6749 29.1159 71.6675C34.7478 71.7298 44.8398 71.0513 49.205 65.8745C52.8801 61.5166 53.3188 54.7404 53.6389 49.7925C54.18 41.4279 54.1953 30.9362 49.4681 23.9958Z" fill="#E6332A"/>
<path d="M18.2681 83.2358C18.0658 83.2358 18.009 83.1819 18.008 83.1809C17.7092 82.8886 18.1386 81.3115 18.6441 79.5821C19.3059 77.3186 20.1295 74.5022 19.8683 71.9014C19.8411 71.6289 19.6234 71.4084 19.3514 71.3777C13.0186 70.6586 8.3928 68.7631 5.97454 65.8952C0.0142102 58.8273 1.1578 44.9391 1.646 39.0091C2.05704 34.0202 2.7436 28.3329 5.70941 23.9785C7.57517 21.2388 10.6221 19.2364 14.7647 18.0262C17.8146 17.1356 21.3947 16.6836 25.4062 16.6836C26.1209 16.6836 26.8515 16.6989 27.5781 16.7286H27.6271C33.7779 16.4768 44.7988 17.0841 49.4943 23.9785C54.2265 30.9268 54.2117 41.4249 53.67 49.795C53.3495 54.7473 52.9108 61.5294 49.2287 65.8952C44.8482 71.0894 34.7503 71.762 29.1159 71.6987C28.8454 71.7061 28.6223 71.8698 28.5486 72.1165C26.993 77.3072 23.1007 81.8145 19.0833 83.077C18.6866 83.2012 18.4304 83.2358 18.2681 83.2358ZM18.053 83.1388C18.0535 83.1388 18.2459 83.2748 19.064 83.0177C23.0631 81.7611 26.9391 77.2706 28.4888 72.0982C28.5704 71.8258 28.8162 71.6448 29.115 71.6368C34.736 71.6967 44.8171 71.03 49.1812 65.8552C52.8499 61.5047 53.2882 54.7344 53.6082 49.791C54.1488 41.4308 54.1642 30.9461 49.4429 24.0131C44.7637 17.1425 33.7665 16.5382 27.6281 16.7899H27.5766C26.85 16.7602 26.1204 16.7449 25.4062 16.7449C18.7019 16.7449 9.85147 18.006 5.76036 24.0126C2.80295 28.3547 2.11788 34.0325 1.70734 39.0135C1.21963 44.9366 0.0775232 58.8065 6.02153 65.8547C8.4294 68.7102 13.0414 70.5988 19.3583 71.3159C19.6591 71.35 19.8994 71.5933 19.9296 71.8945C20.1923 74.5076 19.3667 77.33 18.7039 79.5979C18.3483 80.813 17.7542 82.8461 18.053 83.1388Z" fill="#E6332A"/>
<path d="M13.0978 54.0683C12.7352 49.879 13.4949 45.8411 13.5736 41.6801C13.6186 39.2998 12.058 35.2931 9.17581 35.2125C3.7576 35.0611 2.88309 43.1162 2.72184 46.9776C2.44929 53.5055 4.24036 61.8326 10.3075 65.3507C10.8704 65.6771 11.4729 65.9679 12.1204 66.0357C12.7678 66.1029 13.4717 65.9135 13.8902 65.4145C14.131 65.1272 14.2666 64.7494 14.3319 64.3236C14.5243 63.0719 14.1103 61.4092 13.9802 60.4409C13.6953 58.3149 13.2827 56.2072 13.0978 54.0683Z" fill="#F18B89"/>
<path d="M12.3751 66.0797C12.29 66.0797 12.204 66.0752 12.1174 66.0663C11.4323 65.9946 10.8106 65.6781 10.2927 65.3779C4.26707 61.8835 2.41516 53.5812 2.69117 46.9766C2.81631 43.9876 3.23922 41.4986 3.94902 39.5798C5.05255 36.5952 6.81295 35.1185 9.17729 35.1818C10.4648 35.2179 11.645 36.0655 12.4997 37.5689C13.1952 38.7915 13.629 40.4056 13.6048 41.6806C13.5751 43.2571 13.4455 44.8397 13.3203 46.3708C13.1156 48.8751 12.9039 51.465 13.1284 54.0658C13.2466 55.4357 13.4623 56.8159 13.6705 58.1507C13.7873 58.8989 13.908 59.6729 14.0104 60.437C14.0405 60.663 14.087 60.931 14.1365 61.2154C14.3027 62.1733 14.5099 63.3651 14.362 64.3285C14.2908 64.7924 14.1399 65.1648 13.9134 65.4348C13.5711 65.8428 12.9973 66.0797 12.3751 66.0797ZM9.02643 35.2411C6.76497 35.2411 5.07629 36.7075 4.0064 39.601C3.29907 41.5139 2.87715 43.9965 2.7525 46.9791C2.47749 53.5658 4.32148 61.8444 10.3229 65.324C10.8353 65.6212 11.4496 65.9343 12.1233 66.005C12.8217 66.0777 13.4895 65.8438 13.8664 65.3947C14.0855 65.1331 14.2319 64.7716 14.3012 64.3191C14.4476 63.3651 14.2418 62.1792 14.0761 61.2258C14.0267 60.9414 13.9802 60.6724 13.9495 60.4449C13.8471 59.6818 13.7264 58.9083 13.6097 58.1601C13.401 56.8244 13.1853 55.4431 13.0671 54.0713C12.8415 51.4655 13.0537 48.8731 13.2585 46.3663C13.3837 44.8362 13.5127 43.2547 13.5429 41.6801C13.5845 39.4774 12.1209 35.3262 9.17531 35.2436C9.12536 35.2416 9.07589 35.2411 9.02643 35.2411Z" fill="#F18B89"/>
<path d="M63.3109 3.2998C61.3868 2.46106 58.8968 2.40221 56.5715 2.48975C53.2521 2.61437 37.1646 4.02381 39.2985 7.70022C39.6699 8.34015 40.5895 8.80502 41.5975 9.03102C41.786 9.07306 41.9774 9.10817 42.1713 9.13686C43.0137 9.26049 43.8981 9.26445 44.7647 9.23082C48.7277 9.07751 52.6714 8.96228 56.6448 9.0152C58.6614 9.0424 60.7636 9.09037 62.5977 8.55281C65.9261 7.57757 66.344 4.6227 63.3109 3.2998Z" fill="#FCC87C"/>
<path d="M43.8961 9.27979C43.2352 9.27979 42.6817 9.2427 42.1663 9.16753C41.9675 9.13836 41.7736 9.10225 41.5901 9.06121C40.4831 8.81295 39.616 8.31 39.2713 7.71556C39.0234 7.28878 39.0081 6.87139 39.2262 6.47575C40.7908 3.63709 54.0286 2.55455 56.5696 2.4591C58.7954 2.37552 61.3383 2.40618 63.3223 3.27163C64.681 3.86409 65.4517 4.85119 65.3849 5.91148C65.3112 7.0786 64.2463 8.1018 62.6056 8.58249C60.8274 9.10324 58.8018 9.07604 56.8431 9.04884L56.6438 9.04637C52.5254 8.99247 48.5011 9.11759 44.7651 9.26199C44.455 9.27337 44.1666 9.27979 43.8961 9.27979ZM58.0554 2.48976C57.5519 2.48976 57.0548 2.50262 56.5725 2.52042C54.037 2.61587 40.8313 3.69199 39.2807 6.50542C39.0739 6.88078 39.0887 7.2779 39.3247 7.68441C39.661 8.26401 40.5133 8.75608 41.6039 9.00087C41.786 9.04143 41.9784 9.07703 42.1752 9.10621C42.8979 9.21254 43.6962 9.24122 44.7632 9.20017C48.4996 9.05577 52.5259 8.93015 56.6452 8.98455L56.8446 8.98703C58.7999 9.01423 60.8199 9.04192 62.5892 8.52315C64.2042 8.05037 65.2519 7.04794 65.3241 5.90753C65.3894 4.87394 64.6321 3.91008 63.2985 3.32801C61.7543 2.65444 59.8668 2.48976 58.0554 2.48976Z" fill="#FCC87C"/>
<path d="M72.9815 4.90707C71.4773 4.49809 69.0135 4.19691 67.7033 5.02279C65.6016 6.34767 68.3131 8.89801 70.7744 9.08544C73.3708 9.28276 75.4507 7.53506 74.4298 5.98912C74.1612 5.58261 73.6443 5.08708 72.9815 4.90707Z" fill="#FCC87C"/>
<path d="M71.1736 9.13143C71.0406 9.13143 70.9065 9.12649 70.772 9.1161C69.0813 8.98752 67.2655 7.75859 66.9623 6.53806C66.856 6.11029 66.8955 5.49508 67.6864 4.99658C68.9636 4.19147 71.3413 4.42935 72.9894 4.8769C73.6572 5.0584 74.1844 5.56135 74.455 5.97132C74.7988 6.49158 74.8131 7.07513 74.4966 7.61319C73.9549 8.53551 72.6239 9.13143 71.1736 9.13143ZM70.0636 4.52677C69.1644 4.52677 68.3181 4.67118 67.7196 5.04851C67.1181 5.42782 66.8767 5.93769 67.0222 6.52273C67.3194 7.72051 69.109 8.92719 70.7764 9.05428C72.3568 9.17347 73.8634 8.56914 74.4436 7.58253C74.7478 7.06524 74.7335 6.50542 74.4036 6.00594C74.1389 5.60487 73.624 5.11379 72.9731 4.93674C72.1144 4.70332 71.0569 4.52677 70.0636 4.52677Z" fill="#FCC87C"/>
<path d="M18.6233 39.512C18.5877 39.471 18.5565 39.4264 18.5229 39.3839C18.4897 39.3419 18.4551 39.3013 18.424 39.2578C18.3864 39.2054 18.3522 39.1505 18.3171 39.0966C18.2879 39.0516 18.2573 39.0076 18.2301 38.9616C18.1969 38.9057 18.1682 38.8473 18.1386 38.7895C18.1138 38.742 18.0876 38.696 18.0649 38.6471C18.0372 38.5872 18.0139 38.5254 17.9892 38.4641C17.9694 38.4146 17.9476 38.3667 17.9298 38.3162C17.9076 38.2524 17.8898 38.1866 17.871 38.1214C17.8561 38.0714 17.8393 38.022 17.8264 37.971C17.8091 37.9018 17.7978 37.8301 17.7849 37.7594C17.776 37.7109 17.7641 37.6629 17.7567 37.6135C17.7453 37.5334 17.7399 37.4517 17.7339 37.3706C17.7305 37.3286 17.7245 37.2881 17.7226 37.2455C17.7171 37.1214 17.7176 36.9958 17.725 36.8692C17.7384 36.6387 17.7592 36.4107 17.7829 36.1833C17.7898 36.117 17.7982 36.0512 17.8062 35.9854C17.8269 35.8153 17.8502 35.6457 17.8769 35.4775C17.8868 35.4147 17.8957 35.3524 17.9066 35.2901C17.9447 35.0686 17.9867 34.8485 18.0347 34.6309C18.0401 34.6072 18.0466 34.5834 18.052 34.5597C18.096 34.3648 18.145 34.1715 18.1974 33.9801C18.2152 33.9153 18.2335 33.8515 18.2518 33.7872C18.2983 33.626 18.3478 33.4658 18.3997 33.307C18.418 33.2511 18.4353 33.1948 18.4546 33.1394C18.5254 32.9326 18.6 32.7279 18.6802 32.5256C18.6945 32.489 18.7108 32.4529 18.7257 32.4163C18.7934 32.2492 18.8647 32.0835 18.9389 31.9198C18.9671 31.858 18.9953 31.7967 19.0244 31.7359C19.0952 31.5855 19.1689 31.4372 19.2446 31.2903C19.2698 31.2418 19.2935 31.1929 19.3192 31.1444C19.4197 30.956 19.524 30.77 19.6323 30.5875C19.6581 30.5445 19.6848 30.503 19.7105 30.4604C19.798 30.317 19.8876 30.1756 19.9801 30.0361C20.0172 29.9797 20.0553 29.9239 20.0933 29.868C20.1888 29.729 20.2863 29.592 20.3867 29.457C20.4149 29.4189 20.4421 29.3799 20.4707 29.3423C20.5984 29.1741 20.7294 29.01 20.8645 28.8487C20.9001 28.8062 20.9367 28.7657 20.9728 28.7236C21.0777 28.6015 21.185 28.4813 21.2943 28.3631C21.3393 28.3146 21.3843 28.2662 21.4303 28.2182C21.5525 28.0901 21.6772 27.965 21.8038 27.8423C21.83 27.8171 21.8547 27.7909 21.8809 27.7662C22.0333 27.6218 22.1896 27.4818 22.3489 27.3448C22.3924 27.3073 22.4369 27.2712 22.4809 27.2346C22.6036 27.1322 22.7278 27.0318 22.8544 26.9339C22.8836 26.9116 22.9108 26.8869 22.94 26.8646C19.3771 28.7454 16.9247 32.5439 16.672 36.9409C16.6339 37.6036 16.856 38.241 17.2977 38.7366C17.6518 39.1342 18.1128 39.4017 18.6233 39.512Z" fill="#A90E34"/>
<path d="M18.6233 39.5427C18.6213 39.5427 18.6188 39.5427 18.6169 39.5422C18.096 39.4299 17.6321 39.1584 17.2744 38.7573C16.8273 38.2559 16.6022 37.61 16.6408 36.9394C16.8896 32.6236 19.2975 28.7528 22.9251 26.8374C22.9395 26.83 22.9568 26.8345 22.9657 26.8478C22.9741 26.8612 22.9711 26.8795 22.9583 26.8889C22.9434 26.9002 22.9286 26.9121 22.9142 26.9245C22.9004 26.9358 22.887 26.9467 22.8727 26.9576C22.7471 27.055 22.6214 27.1559 22.5002 27.2578L22.4626 27.289C22.431 27.3152 22.3993 27.3414 22.3682 27.3681C22.1985 27.514 22.0457 27.6515 21.9017 27.7884C21.8874 27.8018 21.874 27.8156 21.8602 27.8295C21.8483 27.8414 21.8369 27.8527 21.8251 27.8646C21.6999 27.9853 21.5743 28.1114 21.4521 28.2395C21.4066 28.2874 21.3616 28.3354 21.3166 28.3844C21.2117 28.4976 21.1069 28.6153 20.9961 28.7439L20.953 28.7933C20.9313 28.8181 20.9095 28.8433 20.8882 28.869C20.7512 29.0332 20.6191 29.1984 20.4955 29.3611C20.4792 29.3828 20.4628 29.4051 20.447 29.4273L20.4114 29.4763C20.3115 29.6108 20.213 29.7488 20.1186 29.8863C20.0805 29.9422 20.0429 29.998 20.0058 30.0544C19.9168 30.1889 19.8262 30.3309 19.7372 30.4777L19.7046 30.5302C19.6892 30.5549 19.6739 30.5796 19.6586 30.6043C19.5517 30.7844 19.4469 30.9713 19.346 31.1602C19.3301 31.1899 19.3148 31.2205 19.2995 31.2507L19.2718 31.3056C19.1946 31.455 19.1204 31.6048 19.0521 31.7502C19.0235 31.811 18.9948 31.8723 18.9671 31.9337C18.8934 32.0969 18.8216 32.263 18.7544 32.4292L18.7346 32.4767C18.7257 32.497 18.7173 32.5172 18.7089 32.538C18.6327 32.7299 18.557 32.9356 18.4838 33.1502C18.4724 33.1844 18.4611 33.2185 18.4502 33.2526L18.4289 33.3179C18.3765 33.4781 18.3265 33.6393 18.2815 33.7971L18.2736 33.8253C18.2578 33.8802 18.2419 33.9346 18.2271 33.9895C18.1732 34.1878 18.1242 34.3821 18.0822 34.5676L18.0738 34.6032C18.0708 34.6151 18.0678 34.6274 18.0649 34.6393C18.0198 34.8421 17.9783 35.0572 17.9372 35.297C17.9303 35.3391 17.9234 35.3811 17.917 35.4231L17.9076 35.484C17.8813 35.6487 17.8576 35.8193 17.8368 35.9909L17.8314 36.0344C17.825 36.0858 17.819 36.1373 17.8136 36.1882C17.7859 36.4468 17.7676 36.6644 17.7557 36.8726C17.7488 36.9963 17.7478 37.1224 17.7532 37.246C17.7542 37.2703 17.7567 37.294 17.7597 37.3177C17.7616 37.335 17.7636 37.3523 17.7646 37.3697L17.7671 37.4048C17.772 37.473 17.7775 37.5432 17.7874 37.611C17.7918 37.6412 17.7978 37.6708 17.8042 37.7005C17.8081 37.7188 17.8121 37.7371 17.8151 37.7554L17.824 37.8039C17.8339 37.8573 17.8433 37.9122 17.8566 37.9646C17.8645 37.9967 17.8744 38.0284 17.8843 38.0595C17.8898 38.0773 17.8957 38.0956 17.9006 38.1134L17.9135 38.1589C17.9278 38.2084 17.9417 38.2583 17.959 38.3063C17.9704 38.339 17.9837 38.3711 17.9971 38.4027C18.004 38.4196 18.0109 38.4364 18.0179 38.4527L18.0342 38.4932C18.053 38.5407 18.0718 38.5882 18.0931 38.6342C18.1079 38.6658 18.1242 38.6965 18.141 38.7277L18.1885 38.8182C18.2108 38.8612 18.2325 38.9042 18.2573 38.9462C18.2756 38.9774 18.2954 39.0076 18.3151 39.0372L18.3661 39.1149C18.3933 39.1574 18.42 39.1995 18.4497 39.24C18.4714 39.2702 18.4952 39.2993 18.5184 39.3285L18.5481 39.3656C18.5605 39.3809 18.5724 39.3968 18.5842 39.4126C18.605 39.4398 18.6253 39.467 18.6475 39.4922C18.6564 39.5021 18.6574 39.5169 18.6505 39.5283C18.6441 39.5372 18.6342 39.5427 18.6233 39.5427ZM22.6358 27.0664C19.205 29.0263 16.9425 32.7759 16.7026 36.9424C16.665 37.5966 16.8842 38.2267 17.3204 38.7158C17.6494 39.0847 18.0708 39.3414 18.5437 39.4611C18.5407 39.4571 18.5372 39.4527 18.5343 39.4487C18.5224 39.4334 18.5105 39.418 18.4987 39.4027L18.4695 39.3661C18.4452 39.3364 18.4215 39.3063 18.3987 39.2751C18.3686 39.2336 18.3409 39.1905 18.3132 39.147L18.2632 39.0704C18.2424 39.0392 18.2222 39.0086 18.2034 38.9764C18.1781 38.9339 18.1559 38.8899 18.1331 38.8454L18.0861 38.7558C18.0688 38.7242 18.052 38.6921 18.0367 38.6594C18.0144 38.6124 17.9956 38.5635 17.9763 38.515L17.9605 38.4749C17.9541 38.4581 17.9471 38.4418 17.9402 38.426C17.9264 38.3929 17.9125 38.3602 17.9006 38.3261C17.8828 38.2766 17.8685 38.2257 17.8541 38.1748L17.8413 38.1298C17.8363 38.112 17.8309 38.0942 17.825 38.0768C17.8151 38.0442 17.8047 38.0116 17.7963 37.9779C17.7829 37.9235 17.773 37.8672 17.7631 37.8133L17.7542 37.7648C17.7508 37.747 17.7473 37.7292 17.7433 37.7114C17.7369 37.6807 17.7305 37.6496 17.726 37.6179C17.7161 37.5482 17.7107 37.477 17.7053 37.4082L17.7028 37.3731C17.7013 37.3563 17.6998 37.3395 17.6978 37.3232C17.6949 37.2979 17.6924 37.2727 17.6914 37.2475C17.686 37.1214 17.687 36.9938 17.6939 36.8682C17.7058 36.659 17.7246 36.4404 17.7522 36.1808C17.7577 36.1289 17.7641 36.0774 17.7706 36.026L17.776 35.9825C17.7968 35.8104 17.8205 35.6388 17.8467 35.4736L17.8561 35.4133C17.8626 35.3707 17.8695 35.3282 17.8764 35.2857C17.918 35.0448 17.96 34.8287 18.0045 34.625C18.0075 34.6126 18.0104 34.5997 18.0134 34.5874L18.0218 34.5532C18.0644 34.3663 18.1133 34.171 18.1677 33.9722C18.1826 33.9168 18.1984 33.8619 18.2142 33.807L18.2222 33.7788C18.2677 33.6201 18.3176 33.4583 18.3705 33.2976L18.3913 33.2328C18.4022 33.1982 18.4136 33.1641 18.4254 33.13C18.4991 32.9143 18.5753 32.7076 18.6515 32.5148C18.6599 32.4935 18.6688 32.4727 18.6777 32.4519L18.697 32.4055C18.7643 32.2388 18.8365 32.0716 18.9107 31.9075C18.9389 31.8456 18.9676 31.7843 18.9963 31.723C19.0655 31.5766 19.1397 31.4263 19.2174 31.2759L19.2451 31.2215C19.2604 31.1909 19.2762 31.1602 19.292 31.13C19.3934 30.9401 19.4988 30.7522 19.6061 30.5717C19.6215 30.546 19.6368 30.5213 19.6526 30.496L19.6848 30.4441C19.7743 30.2972 19.8653 30.1543 19.9549 30.0193C19.9919 29.9629 20.03 29.9065 20.0681 29.8507C20.1626 29.7122 20.2615 29.5737 20.3619 29.4387L20.3971 29.3903C20.4134 29.368 20.4297 29.3452 20.4465 29.3235C20.5707 29.1603 20.7032 28.9936 20.8412 28.8289C20.863 28.8032 20.8848 28.778 20.907 28.7523L20.9496 28.7033C21.0609 28.5738 21.1662 28.4556 21.2716 28.3418C21.3166 28.2934 21.3621 28.2444 21.4081 28.1964C21.5308 28.0679 21.6569 27.9413 21.7825 27.8196C21.7944 27.8082 21.8058 27.7968 21.8171 27.7855C21.8315 27.7711 21.8453 27.7573 21.8597 27.7434C22.0046 27.606 22.1579 27.468 22.3286 27.3211C22.3603 27.2939 22.3919 27.2677 22.4241 27.241L22.4612 27.2103C22.5185 27.1624 22.5769 27.1144 22.6358 27.0664Z" fill="#A90E34"/>
<path d="M21.5604 53.6549C21.8691 54.4442 22.5378 55.0035 23.3386 55.1781C23.3263 55.1637 23.3154 55.1474 23.303 55.133C23.2659 55.0885 23.2308 55.043 23.1957 54.9966C23.1715 54.9639 23.1467 54.9318 23.1235 54.8986C23.0888 54.8492 23.0557 54.7978 23.0231 54.7463C23.0023 54.7137 22.9815 54.682 22.9617 54.6484C22.9276 54.59 22.8959 54.5302 22.8643 54.4699C22.8494 54.4412 22.8331 54.413 22.8188 54.3838C22.7748 54.2928 22.7332 54.2003 22.6961 54.1049C21.6203 51.3523 21.8528 48.2159 23.2021 45.6339C23.6517 44.7734 24.2255 43.9747 24.916 43.272C25.0506 43.135 25.1876 43.005 25.3256 42.8788C25.3706 42.8378 25.4161 42.7992 25.4611 42.7592C25.5556 42.6761 25.6501 42.5935 25.745 42.5149C25.7975 42.4713 25.8504 42.4293 25.9028 42.3868C25.9933 42.3141 26.0843 42.2434 26.1754 42.1741C26.2273 42.1346 26.2792 42.0955 26.3317 42.0569C26.3618 42.0347 26.392 42.0109 26.4222 41.9892C25.4586 42.5564 24.4179 43.2132 23.5103 44.1365C21.0836 46.6047 20.2996 50.43 21.5604 53.6549Z" fill="#A90E34"/>
<path d="M23.3386 55.2087C23.3367 55.2087 23.3342 55.2082 23.3322 55.2077C22.5126 55.0297 21.8394 54.4531 21.5317 53.6657C20.2665 50.43 21.0534 46.5914 23.489 44.1142C24.4229 43.1642 25.4849 42.505 26.4073 41.962C26.4217 41.9536 26.44 41.9575 26.4489 41.9719C26.4578 41.9857 26.4543 42.004 26.441 42.0139C26.4256 42.0248 26.4098 42.0366 26.3945 42.0485C26.3796 42.0594 26.3653 42.0708 26.3505 42.0816C26.3089 42.1118 26.2679 42.143 26.2268 42.1741L26.1946 42.1984C26.1036 42.2671 26.0131 42.3383 25.9226 42.41L25.9068 42.4224C25.8593 42.4605 25.8123 42.4985 25.7648 42.5376C25.6664 42.6187 25.5709 42.7028 25.4814 42.7814L25.428 42.8284C25.4008 42.8521 25.3731 42.8759 25.3459 42.9011C25.193 43.0411 25.0595 43.1691 24.9378 43.2933C24.2601 43.9822 23.6854 44.7744 23.2288 45.6473C21.8656 48.2565 21.6772 51.4136 22.7243 54.0925C22.7599 54.183 22.7995 54.2735 22.8465 54.3695C22.8554 54.3878 22.8653 54.4056 22.8747 54.4234L22.8915 54.4545C22.9231 54.5154 22.9538 54.5747 22.9879 54.6321C23.0018 54.6558 23.0166 54.6786 23.031 54.7008L23.0488 54.729C23.0809 54.7799 23.1136 54.8309 23.1482 54.8798C23.169 54.9095 23.1907 54.9382 23.212 54.9669L23.2199 54.9773C23.2545 55.0238 23.2897 55.0688 23.3263 55.1128C23.3322 55.1202 23.3381 55.1276 23.3441 55.1355C23.3495 55.1429 23.3555 55.1504 23.3614 55.1578C23.3703 55.1677 23.3713 55.182 23.3644 55.1939C23.3594 55.2028 23.349 55.2087 23.3386 55.2087ZM21.5891 53.6435C21.8785 54.3838 22.4988 54.9328 23.259 55.1271C23.2288 55.09 23.2001 55.0524 23.1715 55.0144L23.1635 55.004C23.1418 54.9748 23.1195 54.9456 23.0982 54.9155C23.0631 54.8655 23.03 54.8136 22.9973 54.7616L22.9795 54.734C22.9647 54.7107 22.9494 54.6875 22.935 54.6632C22.9004 54.6044 22.8687 54.5445 22.8371 54.4832L22.8208 54.4526C22.8109 54.4343 22.8005 54.4155 22.7911 54.3962C22.7436 54.2983 22.703 54.2063 22.6674 54.1148C21.6134 51.4191 21.8028 48.2431 23.1744 45.6186C23.6334 44.7398 24.2122 43.9426 24.8938 43.2493C25.0164 43.1241 25.151 42.9951 25.3043 42.8546C25.332 42.8294 25.3597 42.8052 25.3874 42.7809L25.4408 42.7339C25.5304 42.6553 25.6268 42.5707 25.7257 42.4891C25.7732 42.4501 25.8207 42.412 25.8682 42.3739L25.884 42.3611C25.9088 42.3413 25.934 42.3215 25.9592 42.3017C25.1638 42.7874 24.3037 43.3729 23.5335 44.1572C21.1138 46.6176 20.3328 50.43 21.5891 53.6435Z" fill="#A90E34"/>
<path d="M28.8078 40.5001C28.9379 40.4239 29.0685 40.3483 29.1971 40.2701C31.005 39.1777 32.2564 38.0482 33.0231 36.8178C33.7576 35.6388 34.0128 34.2813 33.6893 33.2739C33.6592 33.1794 33.6211 33.0909 33.5775 33.0073C33.5627 32.9791 33.5439 32.9539 33.5276 32.9267C33.4959 32.8738 33.4648 32.8209 33.4282 32.7724C33.4059 32.7427 33.3797 32.716 33.3555 32.6879C33.3198 32.6463 33.2847 32.6048 33.2452 32.5672C33.217 32.5395 33.1858 32.5148 33.1556 32.4891C33.1156 32.4549 33.076 32.4208 33.0334 32.3901C33.0003 32.3659 32.9647 32.3437 32.9301 32.3214C32.886 32.2932 32.8425 32.265 32.796 32.2398C32.7589 32.219 32.7208 32.2002 32.6823 32.1809C32.6348 32.1572 32.5863 32.1345 32.5368 32.1132C32.4973 32.0964 32.4567 32.0806 32.4161 32.0652C32.3647 32.0459 32.3128 32.0272 32.2598 32.0103C32.2188 31.997 32.1777 31.9841 32.1357 31.9723C32.1134 31.9658 32.0907 31.9604 32.0684 31.9545C32.295 32.2329 32.4666 32.5479 32.5789 32.8961C33.0102 34.2387 32.706 35.9914 31.785 37.4696C31.1118 38.5511 30.1314 39.5501 28.8078 40.5001Z" fill="#A90E34"/>
<path d="M28.8078 40.5308C28.7979 40.5308 28.788 40.5258 28.7821 40.5169C28.7732 40.5031 28.7766 40.4848 28.79 40.4749C30.1136 39.5249 31.0846 38.5363 31.7598 37.4537C32.6763 35.983 32.979 34.2402 32.5507 32.9059C32.4414 32.5647 32.2712 32.2512 32.0457 31.9742C32.0373 31.9638 32.0363 31.949 32.0437 31.9376C32.0511 31.9263 32.0645 31.9213 32.0778 31.9248L32.106 31.9322C32.1194 31.9357 32.1322 31.9391 32.1451 31.9426C32.1871 31.9545 32.2287 31.9678 32.2702 31.9807C32.3236 31.998 32.3761 32.0168 32.428 32.036C32.4691 32.0514 32.5096 32.0672 32.5497 32.0845C32.5997 32.1058 32.6486 32.129 32.6966 32.1528L32.7045 32.1567C32.7406 32.175 32.7767 32.1928 32.8119 32.2121C32.8564 32.2368 32.8984 32.263 32.9474 32.2952L32.9597 32.3031C32.9909 32.3234 33.0226 32.3432 33.0522 32.3654C33.0918 32.3936 33.1294 32.4257 33.1655 32.4564L33.2006 32.4861C33.2234 32.5054 33.2461 32.5242 33.2674 32.5449C33.3045 32.5805 33.3381 32.6196 33.3703 32.6577L33.4019 32.6938C33.4198 32.7136 33.4371 32.7329 33.4534 32.7541C33.489 32.8011 33.5202 32.8535 33.5503 32.904L33.5548 32.9114C33.5607 32.9218 33.5677 32.9317 33.5736 32.9416C33.5845 32.9589 33.5958 32.9757 33.6052 32.994C33.6517 33.0825 33.6898 33.174 33.719 33.2655C34.045 34.2808 33.7887 35.6487 33.0493 36.8351C32.2796 38.0699 31.0247 39.2024 29.2129 40.2978C29.116 40.3562 29.0175 40.414 28.9191 40.4714L28.8231 40.5278C28.8187 40.5293 28.8132 40.5308 28.8078 40.5308ZM32.151 32.0089C32.3528 32.2734 32.5067 32.5687 32.6091 32.8872C33.0428 34.2382 32.7377 36.0008 31.8117 37.4864C31.2162 38.4423 30.3911 39.3246 29.3 40.1712C31.0396 39.104 32.2495 38.0007 32.9973 36.8009C33.7274 35.6294 33.9812 34.2813 33.6606 33.2828C33.6324 33.1948 33.5953 33.1067 33.5508 33.0212C33.5424 33.0049 33.532 32.9895 33.5221 32.9742C33.5152 32.9638 33.5083 32.9529 33.5019 32.942L33.4974 32.9346C33.4682 32.8857 33.4381 32.8352 33.4044 32.7907C33.3896 32.7709 33.3733 32.7526 33.3569 32.7343L33.3243 32.6968C33.2911 32.6587 33.26 32.6221 33.2254 32.5885C33.2051 32.5692 33.1833 32.5509 33.1616 32.5321L33.1264 32.5024C33.0913 32.4727 33.0547 32.4416 33.0171 32.4144C32.9884 32.3931 32.9578 32.3738 32.9276 32.3545L32.9152 32.3466C32.8668 32.3155 32.8262 32.2893 32.7832 32.2655C32.749 32.2467 32.7134 32.2289 32.6783 32.2116L32.6704 32.2077C32.6234 32.1844 32.5759 32.1617 32.5264 32.1409C32.4874 32.1241 32.4473 32.1083 32.4072 32.0934C32.3563 32.0741 32.3049 32.0558 32.2524 32.039C32.2178 32.0291 32.1847 32.0187 32.151 32.0089Z" fill="#A90E34"/>
<path d="M23.8758 56.4688C23.8956 56.4688 23.9159 56.4678 23.9411 56.4668L23.9841 56.4663L24.04 56.4643L26.1467 56.4688H26.161C26.624 56.4688 27.0795 56.3827 27.5143 56.2131C29.4241 55.4664 30.3703 53.3057 29.6239 51.3963C29.2564 50.4562 29.5131 49.2045 30.221 48.4844C30.6785 48.0191 31.4412 47.575 32.2494 47.1047C32.5165 46.9494 32.7827 46.7941 33.0458 46.6349C35.8786 44.9223 37.9362 42.998 39.3365 40.7508C41.2518 37.6773 41.7751 34.123 40.772 31C39.0294 25.5769 33.631 24.0512 29.5112 24.3885C28.2192 24.2807 26.8683 24.3588 25.6001 24.6165C19.9677 25.7608 15.7895 30.7997 15.4398 36.8702C15.3829 37.8617 15.7153 38.8162 16.3762 39.5575C17.037 40.2988 17.9471 40.739 18.9404 40.7958C19.0066 40.7993 19.0714 40.7998 19.1372 40.7988L19.1877 40.8008H21.5124C21.5471 40.8008 21.5817 40.7978 21.6153 40.7919C23.4969 40.7034 25.0421 39.1861 25.151 37.297C25.3068 34.5943 27.04 32.3768 29.3662 31.904C29.4038 31.8961 29.4434 31.8902 29.482 31.8832C30.2249 32.0301 31.1217 32.3911 31.4051 33.2734C31.7286 34.2803 31.4734 35.6383 30.7383 36.8173C29.9717 38.0477 28.7202 39.1767 26.9128 40.2696C26.7002 40.3982 26.485 40.5233 26.2698 40.6485L26.2213 40.6767C25.0807 41.3403 23.7878 42.093 22.6308 43.27C19.8683 46.0795 18.9765 50.4329 20.4109 54.1024C20.9728 55.5405 22.333 56.4688 23.8758 56.4688ZM26.4227 41.9887C26.3925 42.0104 26.3623 42.0342 26.3321 42.0564C26.2797 42.0945 26.2278 42.1341 26.1758 42.1736C26.0848 42.2424 25.9938 42.3136 25.9033 42.3863C25.8504 42.4283 25.7979 42.4708 25.7455 42.5144C25.65 42.593 25.5556 42.6756 25.4616 42.7587C25.4161 42.7987 25.3706 42.8373 25.3261 42.8783C25.1881 43.0045 25.051 43.1345 24.9165 43.2715C24.226 43.9737 23.6522 44.7729 23.2026 45.6334C21.8537 48.2149 21.6208 51.3518 22.6966 54.1044C22.7337 54.1998 22.7752 54.2928 22.8193 54.3833C22.8336 54.4125 22.8499 54.4407 22.8648 54.4694C22.8959 54.5297 22.9276 54.59 22.9622 54.6479C22.982 54.681 23.0033 54.7132 23.0235 54.7458C23.0562 54.7972 23.0888 54.8487 23.124 54.8981C23.1472 54.9313 23.1719 54.9639 23.1962 54.9961C23.2313 55.0425 23.2664 55.088 23.3035 55.1325C23.3159 55.1474 23.3268 55.1632 23.3391 55.1775C22.5383 55.0035 21.8696 54.4437 21.5609 53.6544C20.3001 50.4295 21.0841 46.6042 23.5113 44.1355C24.4184 43.2127 25.4591 42.5559 26.4227 41.9887ZM16.672 36.9409C16.9252 32.5434 19.3771 28.7454 22.94 26.8646C22.9108 26.8869 22.8831 26.9111 22.8544 26.9339C22.7282 27.0318 22.6036 27.1317 22.4809 27.2346C22.4369 27.2717 22.3924 27.3073 22.3489 27.3448C22.1896 27.4813 22.0333 27.6218 21.8809 27.7662C21.8547 27.7909 21.8295 27.8171 21.8038 27.8424C21.6767 27.965 21.552 28.0901 21.4303 28.2182C21.3843 28.2662 21.3393 28.3146 21.2943 28.3631C21.185 28.4813 21.0782 28.6015 20.9728 28.7236C20.9367 28.7657 20.9001 28.8062 20.8645 28.8487C20.7294 29.01 20.5984 29.1741 20.4707 29.3423C20.4421 29.3799 20.4149 29.4189 20.3867 29.457C20.2862 29.592 20.1888 29.729 20.0933 29.868C20.0553 29.9239 20.0177 29.9798 19.9801 30.0361C19.8876 30.1756 19.798 30.317 19.7105 30.4604C19.6848 30.503 19.6576 30.5445 19.6323 30.5875C19.5235 30.77 19.4192 30.956 19.3192 31.1444C19.2935 31.1924 19.2698 31.2418 19.2446 31.2903C19.1684 31.4372 19.0952 31.586 19.0244 31.7359C18.9957 31.7972 18.9671 31.8585 18.9389 31.9198C18.8647 32.0835 18.7934 32.2492 18.7257 32.4163C18.7108 32.4529 18.6945 32.489 18.6802 32.5256C18.6 32.7279 18.5254 32.9326 18.4546 33.1394C18.4358 33.1948 18.418 33.2511 18.3997 33.307C18.3478 33.4658 18.2983 33.626 18.2518 33.7872C18.2335 33.8515 18.2147 33.9153 18.1974 33.9801C18.145 34.172 18.0965 34.3648 18.052 34.5597C18.0465 34.5834 18.0401 34.6072 18.0347 34.6309C17.9867 34.8485 17.9447 35.0686 17.9066 35.2901C17.8957 35.3524 17.8868 35.4152 17.8769 35.4776C17.8502 35.6457 17.8269 35.8153 17.8062 35.9854C17.7982 36.0512 17.7898 36.117 17.7829 36.1833C17.7587 36.4103 17.7379 36.6387 17.725 36.8692C17.7176 36.9958 17.7171 37.1214 17.7226 37.2455C17.7245 37.2876 17.731 37.3286 17.7339 37.3707C17.7404 37.4518 17.7453 37.5334 17.7567 37.6135C17.7636 37.6629 17.7755 37.7104 17.7849 37.7594C17.7982 37.8301 17.8096 37.9013 17.8264 37.971C17.8388 38.022 17.8561 38.0714 17.871 38.1214C17.8902 38.1866 17.9076 38.2524 17.9298 38.3162C17.9476 38.3667 17.9694 38.4146 17.9892 38.4641C18.0139 38.5254 18.0372 38.5872 18.0649 38.6471C18.0876 38.6955 18.1138 38.742 18.1386 38.7895C18.1687 38.8473 18.1974 38.9057 18.2301 38.9616C18.2573 39.0081 18.2879 39.0516 18.3171 39.0966C18.3522 39.151 18.3864 39.2059 18.424 39.2578C18.4551 39.3013 18.4897 39.3419 18.5229 39.3839C18.5565 39.4265 18.5877 39.471 18.6233 39.512C18.1128 39.4017 17.6513 39.1342 17.2972 38.7366C16.856 38.241 16.6334 37.6036 16.672 36.9409ZM21.4991 39.5654C21.4313 39.5669 21.3636 39.5679 21.2953 39.5644C19.9271 39.4858 18.878 38.3088 18.9567 36.9409C19.2742 31.4292 23.0468 26.8582 28.1306 25.8256C28.5911 25.7321 29.0739 25.6634 29.5661 25.6214C33.4138 25.2885 38.0713 26.6278 39.5972 31.3768C40.4895 34.1542 40.0127 37.3326 38.2894 40.098C36.9945 42.1766 35.0703 43.9693 32.4077 45.5785C32.15 45.7343 31.8893 45.8861 31.6287 46.0385C30.7472 46.5513 29.9148 47.0364 29.341 47.6195C28.2968 48.6818 27.9328 50.4586 28.4749 51.8453C28.9735 53.1213 28.3413 54.5653 27.0657 55.0643C26.7743 55.178 26.4701 55.2354 26.161 55.2354C25.1297 55.2354 24.2211 54.6148 23.8456 53.6549C22.5848 50.43 23.3688 46.6047 25.796 44.136C26.8367 43.0771 28.0535 42.3685 29.1273 41.7439L29.1753 41.7157C29.3969 41.5866 29.618 41.458 29.8361 41.326C31.8137 40.1302 33.1986 38.8691 34.0707 37.4705C34.9917 35.9924 35.2959 34.2397 34.8646 32.897C34.3264 31.222 32.5334 30.5425 30.674 30.5425C30.2432 30.5425 29.8084 30.5791 29.385 30.6484C29.2945 30.6632 29.2055 30.6785 29.1199 30.6958C26.2451 31.2799 24.1063 33.9657 23.9183 37.2267C23.8451 38.5086 22.7822 39.5357 21.4991 39.5654ZM32.5799 32.8965C32.4681 32.5479 32.2959 32.2329 32.0694 31.9549C32.0917 31.9609 32.1144 31.9663 32.1367 31.9727C32.1782 31.9846 32.2198 31.9975 32.2608 32.0108C32.3137 32.0281 32.3657 32.0464 32.4171 32.0657C32.4577 32.0811 32.4982 32.0969 32.5378 32.1137C32.5873 32.135 32.6357 32.1577 32.6832 32.1814C32.7218 32.2002 32.7599 32.2195 32.797 32.2403C32.843 32.266 32.887 32.2937 32.931 32.3219C32.9662 32.3441 33.0013 32.3664 33.0344 32.3906C33.077 32.4218 33.117 32.4559 33.1566 32.4895C33.1868 32.5153 33.2179 32.54 33.2461 32.5677C33.2852 32.6058 33.3208 32.6473 33.3564 32.6883C33.3807 32.7165 33.4064 32.7432 33.4291 32.7729C33.4657 32.8214 33.4969 32.8743 33.5286 32.9272C33.5449 32.9544 33.5637 32.9791 33.5785 33.0078C33.622 33.0914 33.6601 33.1799 33.6903 33.2744C34.0138 34.2818 33.7586 35.6393 33.024 36.8182C32.2569 38.0487 31.0059 39.1782 29.1981 40.2706C29.0694 40.3488 28.9389 40.4239 28.8088 40.5006C30.1324 39.5506 31.1128 38.5521 31.7865 37.471C32.707 35.9919 33.0112 34.2392 32.5799 32.8965Z" fill="#392B41"/>
<path d="M23.1353 64.0847C23.1912 64.101 23.2476 64.1159 23.305 64.1292C23.2902 64.1124 23.2783 64.0926 23.264 64.0753C23.2006 63.9991 23.1413 63.92 23.0839 63.8389C23.0582 63.8023 23.0305 63.7672 23.0062 63.7296C22.9276 63.6094 22.8544 63.4858 22.7901 63.3562C22.0041 61.7752 22.2044 59.894 23.3134 58.4469C23.3738 58.3683 23.4366 58.2922 23.5009 58.218C23.5212 58.1942 23.5424 58.172 23.5632 58.1487C23.6082 58.0983 23.6542 58.0488 23.7007 58.0009C23.7106 57.991 23.7195 57.9796 23.7299 57.9697C23.0616 58.1838 22.4597 58.6082 22.0081 59.1972C21.188 60.2673 21.0356 61.6506 21.6104 62.8068C21.9171 63.4245 22.473 63.8898 23.1353 64.0847Z" fill="#A90E34"/>
<path d="M23.305 64.1599C23.3025 64.1599 23.3005 64.1599 23.2981 64.1594C23.2417 64.146 23.1838 64.1312 23.1269 64.1144C22.4562 63.9171 21.8933 63.4453 21.5827 62.8207C21.0025 61.654 21.1558 60.2585 21.9833 59.1784C22.4364 58.5874 23.0374 58.1591 23.7205 57.94C23.7338 57.9356 23.7487 57.941 23.7561 57.9534C23.7635 57.9653 23.7615 57.9811 23.7516 57.991L23.723 58.0221C23.676 58.0696 23.631 58.1191 23.5859 58.169L23.5632 58.1942C23.5498 58.2086 23.5365 58.2229 23.5236 58.2383C23.4549 58.3174 23.394 58.3916 23.3371 58.4657C22.2356 59.9034 22.0363 61.7717 22.8173 63.3424C22.8766 63.4616 22.9469 63.5827 23.032 63.7128C23.0473 63.7365 23.0641 63.7593 23.0804 63.782C23.0898 63.7954 23.0997 63.8083 23.1091 63.8216C23.1719 63.9106 23.2303 63.9873 23.2877 64.056C23.2951 64.0649 23.3015 64.0738 23.308 64.0832C23.3144 64.0921 23.3208 64.1015 23.3282 64.1099C23.3371 64.1198 23.3381 64.1347 23.3312 64.146C23.3253 64.1544 23.3154 64.1599 23.305 64.1599ZM23.1437 64.055C23.1709 64.0629 23.1982 64.0709 23.2259 64.0778C23.1719 64.012 23.117 63.9398 23.0587 63.8567L23.0305 63.8181C23.0132 63.7944 22.9963 63.7712 22.98 63.7464C22.8935 63.6144 22.8222 63.4913 22.7619 63.3696C21.9705 61.7777 22.1723 59.8841 23.2882 58.4277C23.3456 58.3525 23.4074 58.2773 23.4771 58.1972C23.4905 58.1819 23.5038 58.167 23.5177 58.1522L23.5399 58.1275C23.5667 58.0978 23.5939 58.0681 23.6211 58.039C22.9988 58.264 22.4513 58.669 22.0318 59.216C21.2186 60.2767 21.0678 61.6476 21.6376 62.793C21.9408 63.4027 22.4898 63.8627 23.1437 64.055Z" fill="#A90E34"/>
<path d="M39.5967 31.3768C38.0708 26.6273 33.4133 25.2881 29.5656 25.6214C29.0734 25.6634 28.5906 25.7322 28.1301 25.8256C23.0463 26.8582 19.2737 31.4292 18.9562 36.9409C18.8775 38.3088 19.9266 39.4853 21.2948 39.5644C21.3631 39.5684 21.4308 39.5669 21.4986 39.5654C22.7817 39.5357 23.8446 38.5086 23.9183 37.2262C24.1063 33.9652 26.2451 31.2794 29.1199 30.6954C29.2055 30.678 29.2945 30.6622 29.385 30.6479C29.8084 30.5786 30.2432 30.542 30.674 30.542C32.5339 30.542 34.3264 31.2215 34.8646 32.8965C35.2959 34.2392 34.9917 35.9919 34.0707 37.4701C33.1986 38.8691 31.8137 40.1302 29.8361 41.3255C29.618 41.4575 29.3969 41.5861 29.1753 41.7152L29.1273 41.7434C28.0535 42.3685 26.8367 43.0767 25.796 44.1355C23.3688 46.6042 22.5848 50.4295 23.8456 53.6544C24.2211 54.6148 25.1302 55.2349 26.161 55.2349C26.4702 55.2349 26.7743 55.1776 27.0657 55.0638C28.3413 54.5653 28.974 53.1213 28.4749 51.8448C27.9328 50.4582 28.2968 48.6808 29.341 47.619C29.9143 47.0359 30.7467 46.5508 31.6287 46.038C31.8898 45.8861 32.1505 45.7338 32.4077 45.578C35.0703 43.9683 36.9945 42.1761 38.2894 40.0975C40.0122 37.3326 40.489 34.1537 39.5967 31.3768Z" fill="#EA573B"/>
<path d="M26.1605 55.2661C25.1168 55.2661 24.1963 54.638 23.8164 53.6658C22.5512 50.43 23.3381 46.5914 25.7737 44.1142C26.8179 43.0519 28.0362 42.3428 29.1115 41.7167L29.2015 41.6643C29.4053 41.5456 29.6155 41.4224 29.8198 41.2988C31.7934 40.106 33.1749 38.8484 34.0445 37.4533C34.961 35.9825 35.2642 34.2397 34.8354 32.9055C34.366 31.4446 32.8104 30.5722 30.674 30.5722C30.2501 30.5722 29.8178 30.6078 29.39 30.6776C29.2901 30.6939 29.2035 30.7092 29.1263 30.725C26.2654 31.3066 24.1365 33.9806 23.9495 37.2277C23.8748 38.5259 22.7985 39.5659 21.4996 39.5961C21.4259 39.5976 21.3601 39.5986 21.2933 39.5951C20.6231 39.5565 20.0078 39.2588 19.5601 38.7564C19.1125 38.2544 18.8869 37.6085 18.9255 36.9389C19.2441 31.4129 23.0265 26.8305 28.1242 25.795C28.5852 25.701 29.0694 25.6323 29.5631 25.5897C33.4237 25.2584 38.094 26.5981 39.6259 31.367C40.5207 34.1527 40.0429 37.341 38.3146 40.1139C37.0172 42.1964 35.0896 43.9921 32.4226 45.6048C32.1748 45.7546 31.9329 45.8955 31.643 46.0647C30.7636 46.576 29.9331 47.0597 29.3623 47.6408C28.326 48.6946 27.9649 50.4577 28.5026 51.8335C29.0076 53.1252 28.3676 54.5871 27.0756 55.0925C26.7813 55.2077 26.4731 55.2661 26.1605 55.2661ZM30.674 30.5109C32.8386 30.5109 34.4159 31.3991 34.8942 32.8872C35.328 34.2382 35.0229 36.0008 34.0969 37.4864C33.2224 38.8894 31.834 40.1539 29.852 41.3522C29.6472 41.4758 29.4365 41.599 29.2327 41.7177L29.1427 41.7701C28.0708 42.3937 26.856 43.1009 25.8177 44.1572C23.3985 46.6171 22.6175 50.4295 23.8738 53.643C24.2448 54.5915 25.1421 55.2043 26.1605 55.2043C26.4657 55.2043 26.7664 55.1474 27.0538 55.0351C28.3136 54.5426 28.9384 53.1163 28.4457 51.8562C27.8996 50.4587 28.2667 48.6674 29.3187 47.5973C29.8955 47.0102 30.7299 46.5251 31.6128 46.0113C31.9027 45.8421 32.1441 45.7012 32.3919 45.5518C35.0505 43.9451 36.9707 42.1553 38.2632 40.0812C39.9815 37.3237 40.4574 34.1542 39.568 31.3857C38.047 26.6515 33.4054 25.3172 29.569 25.6516C29.0774 25.6936 28.5956 25.7623 28.1371 25.8553C23.0661 26.8854 19.3039 31.4446 18.9873 36.9424C18.9497 37.5957 19.1694 38.2252 19.6061 38.7153C20.0429 39.2054 20.6434 39.4957 21.2968 39.5333C21.3616 39.5372 21.4264 39.5358 21.4986 39.5343C22.7658 39.5051 23.8155 38.4903 23.8882 37.2243C24.0771 33.9489 26.2258 31.2517 29.1145 30.6647C29.1926 30.6489 29.2797 30.6331 29.3806 30.6167C29.8114 30.5465 30.2467 30.5109 30.674 30.5109Z" fill="#EA573B"/>
<path d="M29.0838 58.6942C29.061 58.6754 29.0403 58.6557 29.0205 58.6339C28.6629 58.2417 28.1974 57.9786 27.6746 57.8738C27.4654 57.8318 27.2492 57.8105 27.0301 57.8105C26.991 57.8105 26.9519 57.811 26.9124 57.8125C26.022 57.8426 25.1797 58.2333 24.5485 58.8965C24.4585 58.9915 24.3724 59.0918 24.2918 59.1972C23.4717 60.2674 23.3193 61.6506 23.8941 62.8068C24.2013 63.4245 24.7572 63.8899 25.4196 64.0847C25.6886 64.1638 25.975 64.2084 26.2703 64.2168L26.3752 64.2207C27.1725 64.2207 27.9654 63.9428 28.607 63.4384C29.524 62.7168 30.0394 61.6155 29.985 60.4919C29.9519 59.7946 29.6234 59.1393 29.0838 58.6942Z" fill="#EA573B"/>
<path d="M26.3757 64.2519L26.2698 64.2479C25.9725 64.239 25.6837 64.194 25.4116 64.1144C24.7409 63.9171 24.178 63.4458 23.8674 62.8207C23.2872 61.654 23.4405 60.2585 24.268 59.1784C24.3487 59.073 24.4357 58.9712 24.5272 58.8752C25.1688 58.2007 26.0156 57.812 26.9119 57.7818C27.175 57.7734 27.4327 57.7937 27.681 57.8441C28.2103 57.9504 28.6812 58.2165 29.0432 58.6136C29.0625 58.6344 29.0828 58.6537 29.1036 58.6705C29.6497 59.121 29.9825 59.7842 30.0167 60.4909C30.0711 61.6239 29.5517 62.7351 28.6268 63.4631C27.9793 63.972 27.1799 64.2519 26.3757 64.2519ZM27.0301 57.8411C26.9915 57.8411 26.9524 57.8416 26.9133 57.8431C26.0334 57.8728 25.2014 58.2546 24.5713 58.9173C24.4812 59.0117 24.3957 59.1121 24.3165 59.2155C23.5033 60.2763 23.3525 61.6471 23.9223 62.7925C24.2255 63.4022 24.7745 63.8622 25.4289 64.0545C25.696 64.1327 25.9795 64.1772 26.2723 64.1856L26.3772 64.1895C27.1666 64.1895 27.9521 63.9141 28.5887 63.4136C29.4978 62.698 30.0088 61.6066 29.9548 60.4934C29.9217 59.8045 29.5972 59.1571 29.0645 58.718C29.0413 58.6987 29.019 58.6779 28.9982 58.6547C28.6451 58.2674 28.1855 58.0073 27.6691 57.9035C27.4619 57.8624 27.2472 57.8411 27.0301 57.8411Z" fill="#EA573B"/>
<path d="M29.9024 57.7704C29.3707 57.2007 28.6851 56.8184 27.9179 56.6641C27.5969 56.5998 27.265 56.5726 26.9321 56.5791C26.7936 56.5672 25.8558 56.493 24.5638 56.5796L24.5401 56.5815C23.17 56.6419 21.8913 57.3209 21.0282 58.4465C19.9192 59.8935 19.7189 61.7747 20.5054 63.3557C20.9649 64.2796 21.7969 64.9769 22.7881 65.2681C23.1131 65.3636 23.4554 65.4229 23.807 65.4442C23.8313 65.4472 23.8555 65.4486 23.8803 65.4486L23.9337 65.4496C23.9861 65.4521 24.039 65.4546 24.0915 65.4546C24.1286 65.4546 24.1657 65.4531 24.2028 65.4506L24.2136 65.4491L26.251 65.4546H26.2525C26.2624 65.4546 26.2718 65.4521 26.2817 65.4516C26.3134 65.4531 26.3445 65.4546 26.3762 65.4546C27.449 65.4546 28.513 65.0827 29.3712 64.4081C30.6013 63.4398 31.2923 61.9542 31.2186 60.433C31.1687 59.4034 30.6899 58.4356 29.9024 57.7704ZM22.0076 59.1972C22.4597 58.6077 23.0611 58.1838 23.7294 57.9697C23.7195 57.9796 23.7101 57.9905 23.7002 58.0009C23.6532 58.0488 23.6077 58.0983 23.5627 58.1487C23.5419 58.172 23.5207 58.1942 23.5004 58.218C23.4361 58.2922 23.3733 58.3683 23.3129 58.4469C22.2039 59.894 22.0036 61.7752 22.7896 63.3562C22.8539 63.4858 22.9276 63.6095 23.0057 63.7296C23.0305 63.7672 23.0577 63.8023 23.0834 63.8389C23.1408 63.92 23.2001 63.9991 23.2634 64.0753C23.2778 64.0926 23.2897 64.1119 23.3045 64.1292C23.2471 64.1159 23.1907 64.101 23.1348 64.0847C22.4725 63.8899 21.9166 63.4245 21.6094 62.8068C21.0351 61.6506 21.1875 60.2673 22.0076 59.1972ZM28.6075 63.4383C27.9659 63.9428 27.173 64.2207 26.3757 64.2207L26.2708 64.2167C25.9755 64.2078 25.6891 64.1633 25.42 64.0847C24.7577 63.8899 24.2018 63.4245 23.8946 62.8068C23.3198 61.6506 23.4722 60.2673 24.2923 59.1972C24.3734 59.0913 24.459 58.9909 24.549 58.8965C25.1797 58.2333 26.022 57.8431 26.9128 57.8125C26.9519 57.8115 26.9915 57.8105 27.0306 57.8105C27.2492 57.8105 27.4658 57.8317 27.6751 57.8738C28.1979 57.9786 28.6634 58.2417 29.021 58.6339C29.0408 58.6551 29.062 58.6754 29.0843 58.6942C29.6239 59.1388 29.9524 59.7946 29.986 60.4924C30.0399 61.6155 29.5245 62.7168 28.6075 63.4383Z" fill="#392B41"/>
<path d="M28.2301 30.005C29.0274 29.6726 29.8589 29.4194 30.4539 28.7533C30.955 28.193 30.9411 27.2128 30.2056 26.827C28.3072 25.8315 25.8806 27.0743 24.3333 28.2291C22.5853 29.5342 21.6025 31.0796 21.2533 33.2353C21.1707 33.7462 21.691 34.0468 22.0946 33.7249C23.3283 32.7403 24.7869 31.8362 26.1462 31.0326C26.808 30.6419 27.5208 30.3007 28.2301 30.005Z" fill="white"/>
<path d="M21.736 33.8896C21.645 33.8896 21.556 33.8663 21.4749 33.8189C21.2795 33.7046 21.183 33.4796 21.2231 33.2308C21.5693 31.093 22.523 29.5426 24.3155 28.2048C25.3805 27.4101 28.0871 25.6807 30.2205 26.8003C30.5355 26.9655 30.7448 27.2529 30.8091 27.6089C30.8828 28.0164 30.7557 28.463 30.4772 28.7745C29.9692 29.3428 29.2792 29.6182 28.6124 29.8843C28.4888 29.9338 28.3651 29.9832 28.2419 30.0341C27.4688 30.3566 26.7689 30.7018 26.162 31.0603C24.869 31.8244 23.3772 32.7417 22.1144 33.7501C21.9982 33.8421 21.8656 33.8896 21.736 33.8896ZM28.6678 26.4957C26.9366 26.4957 25.1638 27.6485 24.3521 28.2543C22.5739 29.5816 21.6277 31.1192 21.2839 33.2402C21.2478 33.4633 21.3329 33.6641 21.506 33.7654C21.6801 33.8673 21.8983 33.8421 22.0753 33.7012C23.3416 32.6908 24.8354 31.772 26.1303 31.0069C26.7397 30.6469 27.4421 30.3002 28.2177 29.9768C28.3409 29.9253 28.465 29.8759 28.5887 29.8264C29.2797 29.551 29.9321 29.2908 30.4302 28.7335C30.6963 28.4358 30.818 28.009 30.7472 27.6203C30.6859 27.283 30.4886 27.0115 30.1903 26.8552C29.7055 26.6001 29.1887 26.4957 28.6678 26.4957Z" fill="white"/>
<path d="M33.1611 29.0119C33.6389 29.2236 34.3487 29.3304 34.6801 29.369C35.3285 29.4447 35.7975 29.2177 35.8618 28.5347C36.028 26.7642 32.9459 26.5239 32.6694 28.2182C32.6442 28.372 32.6486 28.5372 32.7213 28.6751C32.7916 28.8092 32.9543 28.9204 33.1611 29.0119Z" fill="white"/>
<path d="M34.9086 29.414C34.8349 29.414 34.7577 29.4091 34.6761 29.3997C34.3838 29.3655 33.6498 29.2627 33.1482 29.0401C32.9142 28.9363 32.7614 28.8186 32.6931 28.69C32.6264 28.5619 32.6076 28.4017 32.6382 28.2133C32.7851 27.3137 33.6953 26.9497 34.5173 27.0555C35.2618 27.151 35.9755 27.6465 35.8919 28.5377C35.8637 28.8384 35.7569 29.0658 35.5744 29.2132C35.4097 29.3467 35.1861 29.414 34.9086 29.414ZM34.2403 27.0995C33.5286 27.0995 32.8242 27.4591 32.6996 28.2231C32.6714 28.3977 32.6872 28.5451 32.748 28.6608C32.8089 28.777 32.9523 28.8853 33.1734 28.9833C33.6814 29.2088 34.4575 29.3116 34.6835 29.3378C35.0535 29.3814 35.3404 29.3225 35.5358 29.1647C35.705 29.0278 35.8044 28.8146 35.8311 28.5312C35.9107 27.6811 35.2252 27.2079 34.5104 27.1164C34.4209 27.1055 34.3309 27.0995 34.2403 27.0995Z" fill="white"/>
<path d="M34.0682 41.0174C33.7526 41.911 34.8265 42.5238 35.5541 42.1593C36.8975 41.4867 37.8299 39.9853 38.5654 38.7212C39.3326 37.4028 40.2086 35.7154 39.3375 34.2585C38.7826 33.3312 37.5747 33.6448 37.2166 34.5355C36.764 35.6615 36.3737 36.8019 35.8044 37.882C35.2464 38.9423 34.4689 39.8839 34.0682 41.0174Z" fill="white"/>
<path d="M35.0847 42.2982C34.8027 42.2982 34.5159 42.1964 34.2967 42.003C34.0014 41.7429 33.908 41.3799 34.0395 41.007C34.2928 40.2909 34.7018 39.6411 35.0976 39.0125C35.3305 38.6426 35.5714 38.2603 35.7777 37.8682C36.2026 37.0611 36.5345 36.2045 36.855 35.3757C36.9628 35.0963 37.0746 34.8074 37.1884 34.5241C37.3813 34.0439 37.8225 33.7086 38.3122 33.67C38.7455 33.6359 39.1268 33.8451 39.3643 34.2427C40.2264 35.6843 39.4182 37.3182 38.5926 38.7366C37.8235 40.058 36.8926 41.5238 35.5684 42.1865C35.4191 42.2616 35.2524 42.2982 35.0847 42.2982ZM34.0974 41.0278C33.9747 41.3754 34.0623 41.7142 34.3373 41.957C34.6633 42.2443 35.1698 42.3175 35.5402 42.1321C36.849 41.4763 37.7745 40.0199 38.5387 38.7059C39.3554 37.3024 40.1557 35.6872 39.3108 34.2748C39.0853 33.8975 38.7237 33.6962 38.3166 33.7323C37.8502 33.7689 37.4297 34.0889 37.2452 34.5478C37.1315 34.8307 37.0197 35.1195 36.9119 35.3984C36.5908 36.2283 36.2585 37.0873 35.8321 37.8973C35.6243 38.2915 35.383 38.6748 35.1495 39.0457C34.7558 39.6708 34.3482 40.3181 34.0974 41.0278Z" fill="white"/>
</svg>
