<svg width="105" height="56" viewBox="0 0 105 56" fill="none" xmlns="http://www.w3.org/2000/svg">
<path d="M32.3646 50.8238C32.3646 51.4871 32.9078 52.0298 33.5718 52.0298H98.8501C99.5141 52.0298 100.057 51.4871 100.057 50.8238L100.6 13.3102C100.6 12.6469 99.819 11.352 98.3868 11.4493L34.5896 9.7985C33.7565 9.77695 32.951 10.0976 32.3611 10.6856C31.7712 11.2736 31.4484 12.0775 31.4681 12.9098L32.3646 50.8238Z" fill="url(#paint0_linear_149_24295)"/>
<path d="M33.5564 49.6668C33.5564 50.295 34.0703 50.8089 34.6984 50.8089H97.2759C97.904 50.8089 98.418 50.2949 98.418 49.6668L98.9306 15.6116C98.8702 13.5622 97.0735 12.8257 95.9843 12.8691L34.8405 11.2288C34.2552 11.213 33.6894 11.4385 33.2749 11.852C32.8603 12.2654 32.6324 12.8313 32.647 13.4166L33.5564 49.6668Z" fill="#91B3FA"/>
<path d="M97.7417 33.4756C97.7409 33.4756 97.7402 33.4756 97.7394 33.4756C97.6539 33.4743 97.5856 33.4039 97.5869 33.3185L97.6274 30.5567C97.6287 30.4713 97.6988 30.4092 97.7844 30.4042C97.8699 30.4054 97.9382 30.4759 97.9369 30.5613L97.8964 33.3231C97.8951 33.4077 97.826 33.4756 97.7417 33.4756Z" fill="#91B3FA"/>
<path d="M97.8411 26.7076C97.8404 26.7076 97.8396 26.7076 97.8388 26.7076C97.7533 26.7064 97.685 26.636 97.6863 26.5505L97.8417 15.9727C97.8387 15.3406 97.6467 14.8359 97.2708 14.4758C96.5705 13.8047 95.4594 13.8395 95.4119 13.8408L75.8698 13.3168C75.7844 13.3147 75.717 13.2435 75.7192 13.158C75.7215 13.074 75.7903 13.0074 75.8739 13.0074C75.8753 13.0074 75.8766 13.0074 75.8781 13.0076L95.4095 13.5316C95.5307 13.5259 96.7044 13.5044 97.485 14.2522C97.9237 14.6727 98.1478 15.252 98.1511 15.9742L97.9957 26.5551C97.9945 26.6398 97.9255 26.7076 97.8411 26.7076Z" fill="#91B3FA"/>
<path d="M27.1421 55.1439H103.956C103.997 55.1439 104.03 55.111 104.03 55.0708V51.921C104.03 51.8808 103.997 51.8479 103.956 51.8479H27.1421C27.1018 51.8479 27.0689 51.8808 27.0689 51.921V55.0708C27.0689 55.111 27.1019 55.1439 27.1421 55.1439Z" fill="url(#paint1_linear_149_24295)"/>
<path d="M89.2612 46.6597H40.7386C39.1144 46.6597 37.7977 45.343 37.7977 43.7188V20.1525C37.7977 18.5096 39.1436 17.1853 40.7862 17.2119L89.3088 17.9982C90.9142 18.0242 92.202 19.3331 92.202 20.9387V43.7188C92.202 45.343 90.8854 46.6597 89.2612 46.6597Z" fill="#7D97F4"/>
<path d="M64.7827 41.5885C59.0637 41.5885 54.4109 36.9357 54.4109 31.2168C54.4109 25.4978 59.0637 20.845 64.7827 20.845C70.5017 20.845 75.1544 25.4978 75.1544 31.2168C75.1544 36.9357 70.5017 41.5885 64.7827 41.5885ZM64.7827 22.5831C60.0221 22.5831 56.149 26.4561 56.149 31.2168C56.149 35.9774 60.0221 39.8504 64.7827 39.8504C69.5433 39.8504 73.4164 35.9774 73.4164 31.2168C73.4164 26.4561 69.5433 22.5831 64.7827 22.5831Z" fill="#E1473D"/>
<path fill-rule="evenodd" clip-rule="evenodd" d="M61.5336 35.211V27.7545C61.5336 26.9577 62.4009 26.4639 63.0861 26.8705L69.3692 30.5987C70.0403 30.997 70.0403 31.9685 69.3692 32.3667L63.0861 36.095C62.4009 36.5016 61.5336 36.0077 61.5336 35.211Z" fill="#FF622F"/>
<path opacity="0.58" d="M89.639 46.8971H42.8523C42.3752 46.8971 41.9884 46.5323 41.9884 46.0822C41.9884 45.6322 42.3752 45.2674 42.8117 45.2674H89.5985C90.1162 45.2674 90.503 45.6322 90.503 46.0822C90.503 46.5323 90.1162 46.8971 89.639 46.8971Z" fill="white"/>
<path d="M62.1102 46.8971H42.8033C42.3532 46.8971 41.9884 46.5323 41.9884 46.0822C41.9884 45.6322 42.3532 45.2674 42.8033 45.2674H62.1102C62.5602 45.2674 62.9251 45.6322 62.9251 46.0822C62.9251 46.5323 62.5602 46.8971 62.1102 46.8971Z" fill="url(#paint2_linear_149_24295)"/>
<path d="M62.1589 47.5553C63.0475 47.5553 63.7678 46.835 63.7678 45.9464C63.7678 45.0578 63.0475 44.3375 62.1589 44.3375C61.2703 44.3375 60.55 45.0578 60.55 45.9464C60.55 46.835 61.2703 47.5553 62.1589 47.5553Z" fill="url(#paint3_linear_149_24295)"/>
<path d="M42.6664 6.10004L43.8342 10.3082C43.9927 10.8795 43.8965 11.4914 43.5685 11.9853C42.745 13.2255 40.7316 15.4651 36.4629 16.6075C32.1274 17.7678 29.6729 16.5741 28.6167 15.7876C28.2343 15.5028 27.9563 15.1006 27.8249 14.6423L26.5467 10.1857L42.6664 6.10004Z" fill="url(#paint4_linear_149_24295)"/>
<path d="M33.424 0.683504L45.5668 4.08502C46.192 4.26016 46.3693 5.06167 45.8758 5.48369C43.4688 7.54229 37.9984 12.3372 35.9266 15.122C35.7049 15.4199 35.309 15.5281 34.9659 15.3861L22.6795 10.3003C22.1238 10.0703 22.002 9.33704 22.454 8.9402C24.8377 6.84743 30.9038 1.60766 32.8757 0.722976C33.0481 0.645651 33.2421 0.632531 33.424 0.683504Z" fill="url(#paint5_linear_149_24295)"/>
<path d="M33.6867 6.95637C33.6867 6.95637 27.213 11.0398 26.7197 11.9727C26.2264 12.9056 27.2195 17.1465 27.2195 17.1465C26.2004 20.7358 26.0495 24.6336 27.7709 26.6726C27.7709 26.6726 29.8933 21.9526 28.9452 19.9632C27.9971 17.9737 27.6316 17.1582 27.6316 17.1582C27.6316 17.1582 26.8022 12.6373 27.0645 11.991C27.0645 11.991 34.2361 7.21495 33.6867 6.95637Z" fill="url(#paint6_linear_149_24295)"/>
<path opacity="0.63" d="M43.9328 5.21123L37.7183 11.3414L36.1647 12.8739L35.7762 13.257L35.5824 13.4476C35.5218 13.5071 35.4533 13.5579 35.3814 13.6027C35.0919 13.7807 34.7229 13.8229 34.3993 13.7093L30.2607 12.3229C30.2281 12.312 30.1927 12.3296 30.1818 12.3623C30.1709 12.3948 30.1883 12.43 30.2206 12.4411L34.3486 13.8588C34.7123 13.9897 35.1353 13.9462 35.4674 13.7448C35.5501 13.6944 35.6288 13.6365 35.6987 13.5691L35.8954 13.3787L36.2866 12.9985L37.8518 11.4778L44.1126 5.39496C44.1635 5.3455 44.1647 5.2641 44.1152 5.21318C44.0658 5.16226 43.9844 5.16109 43.9335 5.21055L43.9328 5.21123Z" fill="white"/>
<path opacity="0.63" d="M27.6932 19.3275L27.7055 19.3405L27.7199 19.3575L27.749 19.392L27.8049 19.4672C27.8418 19.518 27.8741 19.5738 27.9092 19.6268L28.0014 19.7964C28.0301 19.8542 28.0552 19.9142 28.0824 19.973C28.111 20.0312 28.1323 20.0929 28.1544 20.1542C28.1761 20.2157 28.2003 20.2763 28.2202 20.3385L28.2731 20.5276C28.2901 20.5908 28.3108 20.6532 28.3214 20.7182L28.3599 20.9116C28.3722 20.9762 28.388 21.0402 28.3938 21.1061C28.4092 21.237 28.4269 21.3679 28.4407 21.4993L28.4598 21.8959C28.4611 21.929 28.4637 21.962 28.4639 21.9951L28.4615 22.0946L28.4569 22.2936C28.4591 22.5595 28.4228 22.8238 28.4014 23.0891C28.3971 23.1556 28.3863 23.2214 28.3756 23.2872L28.3445 23.4847C28.3231 23.6163 28.3044 23.7484 28.2809 23.8797C28.2221 24.14 28.1687 24.4019 28.1053 24.6615L27.8877 25.434L27.887 25.4363C27.8803 25.46 27.8942 25.4847 27.9179 25.4914C27.9413 25.498 27.9656 25.4847 27.9727 25.4616L28.212 24.6902C28.2826 24.4303 28.3434 24.1675 28.4096 23.906C28.4368 23.7739 28.4593 23.6407 28.4844 23.508L28.5211 23.3087C28.5336 23.2424 28.5463 23.176 28.5525 23.1086C28.5814 22.8397 28.6251 22.572 28.6301 22.3004L28.6401 22.0971L28.645 21.9955C28.6458 21.9616 28.644 21.9276 28.6436 21.8936L28.6345 21.4857C28.6239 21.35 28.6092 21.2143 28.5967 21.0784C28.5924 21.0102 28.5779 20.9432 28.5669 20.8757L28.5319 20.6734C28.5225 20.6054 28.5028 20.5395 28.4866 20.4727L28.4362 20.2729C28.4169 20.2068 28.3932 20.1419 28.3718 20.0763C28.35 20.0108 28.3291 19.945 28.3003 19.8817C28.2729 19.818 28.2476 19.7534 28.2183 19.6904L28.123 19.5039C28.0859 19.4438 28.0522 19.3825 28.0118 19.3236L27.9499 19.2357L27.9152 19.1923L27.8976 19.1705L27.8759 19.1465C27.8283 19.0938 27.7471 19.0896 27.6944 19.1371C27.6417 19.1847 27.6375 19.266 27.685 19.3186C27.6855 19.3192 27.686 19.3197 27.6864 19.3202L27.6932 19.3275Z" fill="white"/>
<path opacity="0.63" d="M27.4955 20.998L27.4958 21.2507L27.4936 21.5355L27.4862 22.1061L27.4666 23.2482L27.4206 25.5327C27.4197 25.5713 27.4502 25.6033 27.4888 25.6042C27.5268 25.6051 27.5584 25.5752 27.5602 25.5376L27.6649 23.2545L27.7138 22.1125L27.736 21.541L27.7455 21.2547L27.7491 21.1103L27.7505 21.0378C27.7503 21.0066 27.7482 20.9696 27.745 20.9362C27.7386 20.8674 27.6777 20.8168 27.6089 20.8232C27.5442 20.8293 27.4956 20.8836 27.4954 20.9473L27.4955 20.998Z" fill="white"/>
<path d="M1.26048 54.4148H55.146C57.0274 54.4148 58.5529 52.8899 58.5529 51.0091C58.5529 49.1283 57.0274 47.6034 55.146 47.6034H1.26048V54.4148Z" fill="#F2A65A"/>
<path d="M1.34317 54.4148H35.1492C36.9048 54.4148 38.3279 52.9922 38.3279 51.2372V50.781C38.3279 49.026 36.9048 47.6034 35.1492 47.6034H1.34317C0.718279 47.6034 0.211887 48.1096 0.211887 48.7343V53.2836C0.211887 53.9086 0.718279 54.4148 1.34317 54.4148Z" fill="#F7B369"/>
<path d="M0.211887 53.0996H34.6135C35.8082 53.0996 36.7766 52.1315 36.7766 50.9372C36.7766 49.743 35.8082 48.7749 34.6135 48.7749H0.211887V53.0996Z" fill="#FFD7B0"/>
<path d="M50.9229 47.6034H9.92766C8.04617 47.6034 6.52075 46.0785 6.52075 44.1977C6.52075 42.3169 8.04617 40.792 9.92766 40.792H50.9229C50.9721 40.792 51.0121 40.8318 51.0121 40.8812V47.5142C51.0121 47.5636 50.9723 47.6034 50.9229 47.6034Z" fill="#A37B90"/>
<path d="M51.8203 47.6034H19.7139C17.8324 47.6034 16.307 46.0785 16.307 44.1977C16.307 42.3169 17.8324 40.792 19.7139 40.792H51.8206C52.4097 40.792 52.8871 41.2692 52.8871 41.8581V46.5373C52.8868 47.1262 52.4094 47.6034 51.8203 47.6034Z" fill="#B28DA3"/>
<path d="M52.8868 46.2882H19.9589C18.7642 46.2882 17.7958 45.32 17.7958 44.1258C17.7958 42.9316 18.7642 41.9635 19.9589 41.9635H52.8868V46.2882Z" fill="#F4F2F4"/>
<path d="M16.9992 50.3182H0.212736C0.167837 50.3182 0.13146 50.2819 0.13146 50.2373C0.13146 50.1927 0.167837 50.1563 0.212736 50.1563H16.9992C17.0441 50.1563 17.0805 50.1927 17.0805 50.2373C17.0802 50.2822 17.0438 50.3182 16.9992 50.3182Z" fill="white"/>
<path d="M44.4873 27.2504H19.0916C17.2101 27.2504 15.6847 25.7256 15.6847 23.8447C15.6847 21.9639 17.2101 20.439 19.0916 20.439H44.4873C44.8266 20.439 45.1017 20.714 45.1017 21.0532V26.6363C45.1017 26.9755 44.8266 27.2504 44.4873 27.2504Z" fill="#D3D2DB"/>
<path d="M45.5322 27.2504H25.84C23.9586 27.2504 22.4331 25.7256 22.4331 23.8447C22.4331 21.9639 23.9586 20.439 25.84 20.439H45.5322C46.0281 20.439 46.4299 20.8407 46.4299 21.3364V26.3531C46.4296 26.8488 46.0278 27.2504 45.5322 27.2504Z" fill="#EBEBED"/>
<path d="M46.4296 26.0071H25.7343C24.4505 26.0071 23.4098 24.9665 23.4098 23.6834C23.4098 22.5783 24.3061 21.6824 25.4115 21.6824H46.4299V26.0071H46.4296Z" fill="white"/>
<path d="M46.4779 23.1329H40.9949C40.95 23.1329 40.9136 23.0965 40.9136 23.0519C40.9136 23.0073 40.95 22.9709 40.9949 22.9709H46.4779C46.5228 22.9709 46.5592 23.0073 46.5592 23.0519C46.5589 23.0965 46.5225 23.1329 46.4779 23.1329Z" fill="#B9B2C1"/>
<path d="M46.4509 24.5745H38.8491C38.8042 24.5745 38.7678 24.5381 38.7678 24.4935C38.7678 24.4489 38.8042 24.4126 38.8491 24.4126H46.4509C46.4958 24.4126 46.5322 24.4489 46.5322 24.4935C46.5319 24.5384 46.4958 24.5745 46.4509 24.5745Z" fill="#B9B2C1"/>
<path d="M9.08993 51.886H0.211887C0.166988 51.886 0.130615 51.8497 0.130615 51.8051C0.130615 51.7605 0.166988 51.7241 0.211887 51.7241H9.08993C9.13483 51.7241 9.1712 51.7605 9.1712 51.8051C9.1712 51.8497 9.13483 51.886 9.08993 51.886Z" fill="white"/>
<path d="M49.9445 40.765H8.94927C7.06778 40.765 5.54235 39.2401 5.54235 37.3593C5.54235 35.4785 7.06778 33.9536 8.94927 33.9536H49.9445C49.9937 33.9536 50.0337 33.9937 50.0337 34.0428V40.6758C50.0337 40.7252 49.994 40.765 49.9445 40.765Z" fill="#D3D2DB"/>
<path d="M50.8419 40.765H18.7355C16.854 40.765 15.3286 39.2401 15.3286 37.3593C15.3286 35.4785 16.854 33.9536 18.7355 33.9536H50.8419C51.431 33.9536 51.9084 34.4308 51.9084 35.0197V39.6989C51.9084 40.2878 51.431 40.765 50.8419 40.765Z" fill="#EBEBED"/>
<path d="M51.9084 39.4498H18.9805C17.7858 39.4498 16.8174 38.4817 16.8174 37.2874C16.8174 36.0932 17.7858 35.1251 18.9805 35.1251H51.9087V39.4498H51.9084Z" fill="white"/>
<path d="M46.8308 34.0079H16.2703C14.3888 34.0079 12.8634 32.483 12.8634 30.6022C12.8634 28.7213 14.3888 27.1965 16.2703 27.1965H46.8308C47.0457 27.1965 47.2199 27.3706 47.2199 27.5854V33.619C47.2199 33.8337 47.0457 34.0079 46.8308 34.0079Z" fill="#B9B2C1"/>
<path d="M47.8007 34.0079H24.1518C22.2703 34.0079 20.7449 32.483 20.7449 30.6022C20.7449 28.7213 22.2703 27.1965 24.1518 27.1965H47.8007C48.3364 27.1965 48.7709 27.6305 48.7709 28.1663V33.038C48.7709 33.5735 48.3367 34.0079 47.8007 34.0079Z" fill="#C7BFCE"/>
<path d="M48.7709 32.7645H24.0486C22.854 32.7645 21.8855 31.7964 21.8855 30.6022C21.8855 29.4079 22.854 28.4398 24.0486 28.4398H48.7709V32.7645Z" fill="#EBEBED"/>
<path d="M48.8269 29.8903H42.4231C42.3782 29.8903 42.3418 29.8539 42.3418 29.8093C42.3418 29.7647 42.3782 29.7284 42.4231 29.7284H48.8269C48.8715 29.7284 48.9079 29.7647 48.9079 29.8093C48.9079 29.8539 48.8715 29.8903 48.8269 29.8903Z" fill="white"/>
<path d="M48.7956 31.3316H39.9176C39.8727 31.3316 39.8363 31.2953 39.8363 31.2507C39.8363 31.2061 39.8727 31.1697 39.9176 31.1697H48.7956C48.8402 31.1697 48.8766 31.2061 48.8766 31.2507C48.8766 31.2953 48.8402 31.3316 48.7956 31.3316Z" fill="white"/>
<path d="M51.9905 36.5846H35.204C35.1591 36.5846 35.1228 36.5483 35.1228 36.5037C35.1228 36.4591 35.1591 36.4227 35.204 36.4227H51.9905C52.0351 36.4227 52.0715 36.4591 52.0715 36.5037C52.0715 36.5483 52.0351 36.5846 51.9905 36.5846Z" fill="#EBEBED"/>
<path d="M51.8683 38.1521H42.9903C42.9454 38.1521 42.909 38.1158 42.909 38.0712C42.909 38.0266 42.9454 37.9902 42.9903 37.9902H51.8683C51.9129 37.9902 51.9493 38.0266 51.9493 38.0712C51.9493 38.1158 51.9132 38.1521 51.8683 38.1521Z" fill="#EBEBED"/>
<path d="M52.8337 43.4861H46.4299C46.385 43.4861 46.3486 43.4497 46.3486 43.4051C46.3486 43.3605 46.385 43.3242 46.4299 43.3242H52.8337C52.8783 43.3242 52.9146 43.3605 52.9146 43.4051C52.9146 43.4497 52.8783 43.4861 52.8337 43.4861Z" fill="#A37B90"/>
<path d="M52.9001 44.9275H44.0218C43.9769 44.9275 43.9405 44.8911 43.9405 44.8465C43.9405 44.8019 43.9769 44.7656 44.0218 44.7656H52.9001C52.9448 44.7656 52.9811 44.8019 52.9811 44.8465C52.9811 44.8911 52.9448 44.9275 52.9001 44.9275Z" fill="#A37B90"/>
<defs>
<linearGradient id="paint0_linear_149_24295" x1="72.1734" y1="49.146" x2="56.7561" y2="2.89382" gradientUnits="userSpaceOnUse">
<stop stop-color="#09005D"/>
<stop offset="1" stop-color="#1A0F91"/>
</linearGradient>
<linearGradient id="paint1_linear_149_24295" x1="65.3545" y1="54.6211" x2="66.6926" y2="46.89" gradientUnits="userSpaceOnUse">
<stop stop-color="#09005D"/>
<stop offset="1" stop-color="#1A0F91"/>
</linearGradient>
<linearGradient id="paint2_linear_149_24295" x1="41.9884" y1="46.0823" x2="62.9251" y2="46.0823" gradientUnits="userSpaceOnUse">
<stop stop-color="#FF928E"/>
<stop offset="1" stop-color="#FE7062"/>
</linearGradient>
<linearGradient id="paint3_linear_149_24295" x1="64.8462" y1="42.7004" x2="58.5412" y2="50.3163" gradientUnits="userSpaceOnUse">
<stop stop-color="#E1473D"/>
<stop offset="1" stop-color="#E9605A"/>
</linearGradient>
<linearGradient id="paint4_linear_149_24295" x1="53.0217" y1="37.1279" x2="38.8586" y2="15.8833" gradientUnits="userSpaceOnUse">
<stop stop-color="#4F52FF"/>
<stop offset="1" stop-color="#4042E2"/>
</linearGradient>
<linearGradient id="paint5_linear_149_24295" x1="35.6794" y1="14.9227" x2="33.0355" y2="1.41987" gradientUnits="userSpaceOnUse">
<stop stop-color="#4F52FF"/>
<stop offset="1" stop-color="#4042E2"/>
</linearGradient>
<linearGradient id="paint6_linear_149_24295" x1="33.0693" y1="5.55601" x2="42.417" y2="-16.5384" gradientUnits="userSpaceOnUse">
<stop stop-color="#4F52FF"/>
<stop offset="1" stop-color="#4042E2"/>
</linearGradient>
</defs>
</svg>
