<svg width="25" height="20" viewBox="0 0 25 20" fill="none" xmlns="http://www.w3.org/2000/svg">
<path d="M23.2143 8H6.07143L10.1964 3.38C10.5482 2.986 10.7143 2.516 10.7143 2C10.7143 1.016 9.98839 0 8.92857 0C8.45446 0 8.04107 0.193 7.69643 0.58L0.591071 8.538C0.298214 8.866 0 9.271 0 10C0 10.729 0.249107 11.08 0.576786 11.447L7.69643 19.42C8.04107 19.807 8.45446 20 8.92857 20C9.98929 20 10.7143 18.984 10.7143 18C10.7143 17.484 10.5482 17.014 10.1964 16.62L6.07143 12H23.2143C24.2 12 25 11.104 25 10C25 8.896 24.2 8 23.2143 8Z" fill="#1DBEF5"/>
</svg>
