<svg width="26" height="28" viewBox="0 0 26 28" fill="none" xmlns="http://www.w3.org/2000/svg">
<path d="M25.1213 22.5526H21.3474C20.3457 17.8158 14.1203 17.8158 13.1186 22.5526H0.878675C0.645638 22.5526 0.422142 22.6524 0.25736 22.8301C0.0925772 23.0078 0 23.2488 0 23.5C0 23.7513 0.0925772 23.9923 0.25736 24.1699C0.422142 24.3476 0.645638 24.4474 0.878675 24.4474H13.1318C14.1379 29.1842 20.3633 29.1842 21.3606 24.4474H25.1213C25.3543 24.4474 25.5779 24.3476 25.7426 24.1699C25.9074 23.9923 26 23.7513 26 23.5C26 23.2488 25.9074 23.0078 25.7426 22.8301C25.5779 22.6524 25.3543 22.5526 25.1213 22.5526Z" fill="white"/>
<path d="M0.878675 14.8421H3.24231C4.244 19.0526 10.4694 19.0526 11.4711 14.8421H25.1213C25.3543 14.8421 25.5779 14.7534 25.7426 14.5955C25.9074 14.4375 26 14.2233 26 14C26 13.7767 25.9074 13.5625 25.7426 13.4045C25.5779 13.2466 25.3543 13.1579 25.1213 13.1579H11.4711C10.4694 8.94737 4.244 8.94737 3.24231 13.1579H0.878675C0.645638 13.1579 0.422142 13.2466 0.25736 13.4045C0.0925772 13.5625 0 13.7767 0 14C0 14.2233 0.0925772 14.4375 0.25736 14.5955C0.422142 14.7534 0.645638 14.8421 0.878675 14.8421Z" fill="white"/>
<path d="M0.878675 5.44737H8.8834C9.88949 10.1842 16.1149 10.1842 17.1166 5.44737H25.1213C25.3543 5.44737 25.5779 5.34757 25.7426 5.16989C25.9074 4.99221 26 4.75125 26 4.5C26 4.24872 25.9074 4.00775 25.7426 3.83012C25.5779 3.65244 25.3543 3.55263 25.1213 3.55263H17.1166C16.1105 -1.18421 9.88509 -1.18421 8.8834 3.55263H0.878675C0.645638 3.55263 0.422142 3.65244 0.25736 3.83012C0.0925772 4.00775 0 4.24872 0 4.5C0 4.75125 0.0925772 4.99221 0.25736 5.16989C0.422142 5.34757 0.645638 5.44737 0.878675 5.44737Z" fill="white"/>
</svg>
