<svg width="30" height="31" viewBox="0 0 30 31" fill="none" xmlns="http://www.w3.org/2000/svg">
<g clip-path="url(#clip0_116_29)">
<path fill-rule="evenodd" clip-rule="evenodd" d="M6.27272 15.3192C6.27272 14.3462 6.43431 13.4135 6.72272 12.5386L1.67453 8.68359C0.690671 10.6812 0.136353 12.9321 0.136353 15.3192C0.136353 17.7042 0.689989 19.9537 1.67249 21.95L6.71794 18.0875C6.43226 17.2167 6.27272 16.2873 6.27272 15.3192Z" fill="#FBBC05"/>
<path fill-rule="evenodd" clip-rule="evenodd" d="M15.1364 6.46811C17.25 6.46811 19.1591 7.21705 20.6591 8.44258L25.0227 4.08513C22.3636 1.77024 18.9546 0.340454 15.1364 0.340454C9.20865 0.340454 4.11411 3.73041 1.67456 8.6836L6.72274 12.5386C7.88592 9.00769 11.2016 6.46811 15.1364 6.46811Z" fill="#EA4335"/>
<path fill-rule="evenodd" clip-rule="evenodd" d="M15.1364 24.1702C11.2016 24.1702 7.88592 21.6306 6.72274 18.0997L1.67456 21.954C4.11411 26.9079 9.20865 30.2979 15.1364 30.2979C18.795 30.2979 22.288 28.9988 24.9096 26.5648L20.1177 22.8602C18.7657 23.712 17.0632 24.1702 15.1364 24.1702Z" fill="#34A853"/>
<path fill-rule="evenodd" clip-rule="evenodd" d="M29.4545 15.3192C29.4545 14.4341 29.3182 13.4809 29.1136 12.5958H15.1364V18.3831H23.1818C22.7795 20.3562 21.6845 21.8731 20.1177 22.8603L24.9095 26.5648C27.6634 24.0089 29.4545 20.2016 29.4545 15.3192Z" fill="#4285F4"/>
</g>
<defs>
<clipPath id="clip0_116_29">
<rect width="30" height="30.6383" fill="white"/>
</clipPath>
</defs>
</svg>
