<svg width="390" height="388" viewBox="0 0 390 388" fill="none" xmlns="http://www.w3.org/2000/svg">
<path d="M79.0179 24.7317L144.542 53.9088C149.112 55.9442 152.758 63.0674 152.758 69.8509V275.398C152.758 282.183 149.112 287.682 144.542 287.682H79.0179C73.1267 287.682 68.2646 281.284 68.2646 273.391V34.2358C68.2646 26.3426 73.1267 22.1086 79.0179 24.7317Z" fill="url(#paint0_linear_1_6)"/>
<path d="M408.768 333.144H-19V333.358H408.768V333.144Z" fill="#EBEBEB"/>
<path d="M92.5336 341.292H25.8805V341.506H92.5336V341.292Z" fill="#EBEBEB"/>
<path d="M365.906 347.799H333.481V348.013H365.906V347.799Z" fill="#EBEBEB"/>
<path d="M109.809 349.237H93.39V349.45H109.809V349.237Z" fill="#EBEBEB"/>
<path d="M190.914 338.97H153.961V339.184H190.914V338.97Z" fill="#EBEBEB"/>
<path d="M203.949 338.97H198.531V339.184H203.949V338.97Z" fill="#EBEBEB"/>
<path d="M298.309 344.187H261.331V344.401H298.309V344.187Z" fill="#EBEBEB"/>
<path d="M94.6724 313.586H52.6382C50.7646 313.586 49.1742 312.212 48.903 310.358L38.3807 238.43C38.0479 236.152 39.8137 234.109 42.116 234.109H84.1502C86.0238 234.109 87.6142 235.484 87.8854 237.338L98.4068 309.265C98.7405 311.543 96.9747 313.586 94.6724 313.586Z" fill="#F0F0F0"/>
<path d="M57.638 313.586H37.8178C35.9442 313.586 34.3537 312.211 34.0825 310.358L23.5611 238.431C23.2283 236.153 24.9942 234.11 27.2964 234.11H47.1158C48.9894 234.11 50.5798 235.484 50.851 237.338L61.3724 309.266C61.7061 311.542 59.9402 313.586 57.638 313.586Z" fill="#FAFAFA"/>
<path d="M308.52 215.88H104.213C99.0246 215.88 94.4577 219.771 94.0137 224.57L88.8719 280.104C88.427 284.904 92.2735 288.795 97.4624 288.795H301.769C306.957 288.795 311.524 284.904 311.968 280.104L317.11 224.57C317.554 219.771 313.708 215.88 308.52 215.88Z" fill="#E0E0E0"/>
<path d="M294.651 215.88H90.345C85.1562 215.88 80.5893 219.771 80.1453 224.57L75.0035 280.104C74.5586 284.904 78.4051 288.795 83.594 288.795H287.9C293.089 288.795 297.656 284.904 298.1 280.104L303.242 224.57C303.686 219.771 299.84 215.88 294.651 215.88Z" fill="#E6E6E6"/>
<path d="M64.5524 307.431V287.659C64.5524 284.259 67.308 281.503 70.7079 281.503H147.658C151.057 281.503 153.814 284.259 153.814 287.659V307.431C153.814 310.831 151.058 313.586 147.658 313.586H70.7079C67.308 313.586 64.5524 310.831 64.5524 307.431Z" fill="#EBEBEB"/>
<path d="M175.82 307.954V287.137C175.82 284.026 178.342 281.504 181.453 281.504H271.261C274.372 281.504 276.894 284.026 276.894 287.137V307.954C276.894 311.064 274.372 313.586 271.261 313.586H181.453C178.342 313.586 175.82 311.064 175.82 307.954Z" fill="#E0E0E0"/>
<path d="M153.813 307.954V287.137C153.813 284.026 156.335 281.504 159.446 281.504H249.254C252.365 281.504 254.887 284.026 254.887 287.137V307.954C254.887 311.064 252.365 313.586 249.254 313.586H159.446C156.335 313.586 153.813 311.064 153.813 307.954Z" fill="#EBEBEB"/>
<path d="M307.957 313.586H276.687C274.385 313.586 272.879 311.543 273.502 309.265L293.196 237.338C293.703 235.484 295.469 234.109 297.343 234.109H328.613C330.915 234.109 332.421 236.152 331.797 238.43L312.103 310.357C311.596 312.212 309.83 313.586 307.957 313.586Z" fill="#F0F0F0"/>
<path d="M281.686 313.586H261.866C259.564 313.586 258.058 311.543 258.682 309.265L278.376 237.338C278.883 235.484 280.649 234.109 282.522 234.109H302.342C304.644 234.109 306.15 236.152 305.526 238.43L285.832 310.357C285.325 312.212 283.56 313.586 281.686 313.586Z" fill="#FAFAFA"/>
<path d="M265.104 333.144H262.096L254.887 313.586H262.339L265.104 333.144Z" fill="#E0E0E0"/>
<path d="M303.277 333.144H300.269L293.06 313.586H300.512L303.277 333.144Z" fill="#E0E0E0"/>
<path d="M86.2924 333.144H89.3004L96.5083 313.586H89.0575L86.2924 333.144Z" fill="#E0E0E0"/>
<path d="M48.1193 333.144H51.1273L58.3361 313.586H50.8843L48.1193 333.144Z" fill="#E0E0E0"/>
<path d="M308.953 89.5464H80.8143V170.917H308.953V89.5464Z" fill="#E0E0E0"/>
<path d="M306.862 89.5464H78.7234V170.917H306.862V89.5464Z" fill="#F0F0F0"/>
<path d="M300.018 164.073V96.3904L85.5674 96.3904V164.073L300.018 164.073Z" fill="#FAFAFA"/>
<path d="M192.792 150.526C204.001 150.526 213.087 141.44 213.087 130.231C213.087 119.023 204.001 109.936 192.792 109.936C181.583 109.936 172.497 119.023 172.497 130.231C172.497 141.44 181.583 150.526 192.792 150.526Z" fill="#F0F0F0"/>
<path d="M120.379 164.073L134.593 96.3906H165.962L151.749 164.073H120.379Z" fill="white"/>
<path d="M164.985 164.073L179.199 96.3906H194.884L180.671 164.073H164.985Z" fill="white"/>
<path d="M260.755 164.073L274.969 96.3906H290.653L276.44 164.073H260.755Z" fill="white"/>
<path d="M359.384 221.38C354.061 244.448 367.083 268.275 361.759 291.342C360.002 291.27 358.246 291.196 356.488 291.123C354.731 291.051 352.974 290.977 351.218 290.904C360.054 267.983 350.547 244.302 359.384 221.38Z" fill="#F0F0F0"/>
<path d="M345.743 231.384C350.105 253.438 336.106 275.491 340.467 297.545C342.226 297.545 343.984 297.545 345.743 297.545C347.501 297.545 349.26 297.545 351.019 297.545C343.141 275.49 353.622 253.438 345.743 231.384Z" fill="#F0F0F0"/>
<path d="M355.481 213.046C348.503 236.566 361.474 261.947 354.497 285.467C352.586 285.288 350.675 285.11 348.765 284.931C346.854 284.752 344.943 284.574 343.033 284.396C353.831 261.234 344.682 236.209 355.481 213.046Z" fill="#E6E6E6"/>
<path d="M365.759 246.914C368.01 259.631 355.46 269.632 357.711 282.349C359.129 282.609 360.546 282.869 361.964 283.13C363.382 283.39 364.799 283.65 366.217 283.911C361.132 270.673 370.845 260.152 365.759 246.914Z" fill="#E6E6E6"/>
<path d="M370.411 281.504C358.922 281.504 347.434 281.504 335.945 281.504C327.965 297.792 327.965 316.855 335.945 333.144C347.434 333.144 358.922 333.144 370.411 333.144C378.391 316.855 378.391 297.792 370.411 281.504Z" fill="#E0E0E0"/>
<g filter="url(#filter0_f_1_6)">
<path d="M194.884 371.782C286.496 371.782 360.763 367.445 360.763 362.095C360.763 356.745 286.496 352.408 194.884 352.408C103.271 352.408 29.0049 356.745 29.0049 362.095C29.0049 367.445 103.271 371.782 194.884 371.782Z" fill="#C9C7FE"/>
</g>
<path d="M322.875 320.624V10.2559C322.875 2.87094 315.298 -2.08774 308.53 0.867276L263.512 20.5241C254.045 24.6572 247.927 34.0047 247.927 44.3345V320.625L322.875 320.624Z" fill="url(#paint1_linear_1_6)"/>
<path d="M316.752 239.157H131.874C129.88 239.157 128.339 237.527 128.449 235.533L134.676 122.188C134.785 120.194 136.506 118.563 138.499 118.563H323.378C325.371 118.563 326.912 120.194 326.802 122.188L320.576 235.533C320.466 237.527 318.746 239.157 316.752 239.157Z" fill="#263238"/>
<path d="M238.982 137.84H221.111C215.152 137.84 210.544 132.972 210.87 127.021L211.052 123.715C211.368 117.949 216.352 113.233 222.126 113.233H239.985C245.951 113.233 250.564 118.106 250.236 124.063L250.056 127.358C249.74 133.123 244.756 137.84 238.982 137.84Z" fill="#263238"/>
<path d="M255.251 356.766H249.525L233.762 115.757H239.488L255.251 356.766Z" fill="#263238"/>
<path d="M212.273 356.766H217.999L233.762 115.757H228.036L212.273 356.766Z" fill="#263238"/>
<path d="M315.768 239.157H130.89C128.896 239.157 127.356 237.527 127.465 235.533L133.692 122.188C133.801 120.194 135.522 118.563 137.514 118.563H322.393C324.386 118.563 325.927 120.194 325.818 122.188L319.591 235.533C319.482 237.527 317.761 239.157 315.768 239.157Z" fill="#407BFF"/>
<path opacity="0.4" d="M133.823 235.685C132.228 235.685 131 234.387 131.088 232.79L137.013 124.931C137.1 123.336 138.47 122.037 140.066 122.037H319.459C321.055 122.037 322.282 123.336 322.194 124.931L316.27 232.79C316.182 234.386 314.813 235.685 313.217 235.685H133.823Z" fill="#263238"/>
<path opacity="0.1" d="M314.329 178.514H260.33C258.972 178.514 257.932 177.412 258.006 176.055L260.703 126.959C260.713 126.767 260.567 126.612 260.374 126.612C260.182 126.612 260.018 126.767 260.008 126.959L257.311 176.055C257.237 177.412 256.075 178.514 254.717 178.514H198.602C197.244 178.514 196.204 177.412 196.278 176.055L198.975 126.959C198.985 126.767 198.839 126.612 198.646 126.612C198.454 126.612 198.291 126.767 198.28 126.959L195.584 176.055C195.509 177.412 194.348 178.514 192.99 178.514H138.991C138.799 178.514 138.635 178.669 138.625 178.861C138.614 179.052 138.761 179.208 138.953 179.208H192.952C194.31 179.208 195.35 180.309 195.276 181.667L192.579 230.763C192.569 230.954 192.715 231.11 192.908 231.11C193.099 231.11 193.263 230.954 193.274 230.763L195.97 181.667C196.045 180.309 197.207 179.208 198.564 179.208H254.68C256.038 179.208 257.078 180.309 257.003 181.667L254.307 230.763C254.297 230.954 254.443 231.11 254.635 231.11C254.827 231.11 254.991 230.954 255.001 230.763L257.698 181.667C257.773 180.309 258.934 179.208 260.292 179.208H314.291C314.483 179.208 314.647 179.052 314.657 178.861C314.667 178.669 314.52 178.514 314.329 178.514Z" fill="white"/>
<path opacity="0.4" d="M226.286 135.51H204.597L203.385 157.569L225.043 158.148L226.286 135.51Z" fill="#263238"/>
<path d="M223.934 157.2C216.679 156.847 209.422 156.493 202.164 156.14C203.369 148.642 204.124 141.126 204.429 133.63C211.729 133.984 219.029 134.337 226.326 134.691C225.98 142.187 225.182 149.704 223.934 157.2Z" fill="white"/>
<path opacity="0.4" d="M252.434 150.246L230.716 151.903L231.193 173.898L252.922 172.819L252.434 150.246Z" fill="#263238"/>
<path d="M251.74 171.962C244.448 172.164 237.155 172.367 229.862 172.57C230.494 165.034 230.674 157.513 230.405 150.048C237.741 149.842 245.077 149.635 252.411 149.429C252.638 156.899 252.414 164.424 251.74 171.962Z" fill="#407BFF"/>
<path opacity="0.4" d="M189.005 190.365L148.964 188.836L145.37 224.457L185.317 226.921L189.005 190.365Z" fill="#263238"/>
<path d="M183.33 225.308C169.957 224.224 156.582 223.139 143.207 222.055C145.892 210.004 147.749 197.891 148.771 185.78C162.226 186.867 175.679 187.953 189.129 189.041C188.028 201.151 186.092 213.263 183.33 225.308Z" fill="white"/>
<g opacity="0.3">
<path d="M147.793 140.494C146.552 140.494 145.592 139.479 145.66 138.237C145.728 136.995 146.799 135.979 148.042 135.979C149.283 135.979 150.243 136.994 150.175 138.237C150.107 139.479 149.035 140.494 147.793 140.494Z" fill="#263238"/>
<path opacity="0.8" d="M183.175 140.494H155.392C154.151 140.494 153.191 139.479 153.259 138.237C153.327 136.995 154.398 135.979 155.64 135.979H183.423C184.664 135.979 185.624 136.994 185.557 138.237C185.488 139.479 184.416 140.494 183.175 140.494Z" fill="#263238"/>
<path d="M147.253 150.338C146.011 150.338 145.051 149.323 145.119 148.081C145.188 146.84 146.259 145.823 147.5 145.823C148.741 145.823 149.701 146.839 149.634 148.081C149.566 149.323 148.494 150.338 147.253 150.338Z" fill="#263238"/>
<path opacity="0.8" d="M187.554 150.338H154.852C153.61 150.338 152.65 149.323 152.719 148.081C152.787 146.84 153.858 145.823 155.1 145.823H187.803C189.044 145.823 190.004 146.839 189.936 148.081C189.867 149.323 188.796 150.338 187.554 150.338Z" fill="#263238"/>
<path d="M146.712 160.183C145.471 160.183 144.511 159.167 144.578 157.925C144.647 156.684 145.718 155.667 146.96 155.667C148.202 155.667 149.161 156.683 149.094 157.925C149.025 159.167 147.953 160.183 146.712 160.183Z" fill="#263238"/>
<path opacity="0.8" d="M170.228 160.183H154.311C153.07 160.183 152.11 159.167 152.177 157.925C152.246 156.684 153.317 155.667 154.558 155.667H170.476C171.717 155.667 172.677 156.683 172.609 157.925C172.541 159.167 171.47 160.183 170.228 160.183Z" fill="#263238"/>
<path opacity="0.8" d="M184.967 170.027H169.05C167.809 170.027 166.849 169.012 166.916 167.77C166.985 166.528 168.056 165.512 169.298 165.512H185.215C186.457 165.512 187.417 166.527 187.349 167.77C187.281 169.012 186.21 170.027 184.967 170.027Z" fill="#263238"/>
<path d="M146.171 170.027C144.93 170.027 143.97 169.012 144.038 167.77C144.106 166.528 145.177 165.512 146.419 165.512C147.66 165.512 148.62 166.527 148.552 167.77C148.485 169.012 147.413 170.027 146.171 170.027Z" fill="#263238"/>
<path opacity="0.8" d="M161.121 170.027H153.77C152.529 170.027 151.569 169.012 151.637 167.77C151.705 166.528 152.776 165.512 154.017 165.512H161.368C162.61 165.512 163.57 166.527 163.502 167.77C163.434 169.012 162.362 170.027 161.121 170.027Z" fill="#263238"/>
</g>
<path d="M215.242 199.321H204.468L202.987 226.277H213.761L215.242 199.321Z" fill="#407BFF"/>
<path d="M231.583 204.878H220.809L219.634 226.277H230.407L231.583 204.878Z" fill="#407BFF"/>
<path d="M249.018 190.522H238.244L236.281 226.277H247.054L249.018 190.522Z" fill="#407BFF"/>
<path d="M206.866 214.532C205.8 214.532 204.724 214.503 203.636 214.448C201.755 214.351 199.314 214.113 197.118 213.126C196.769 212.968 196.613 212.557 196.77 212.207C196.928 211.857 197.338 211.701 197.688 211.858C199.672 212.75 201.947 212.968 203.707 213.059C216.633 213.724 227.953 210.357 239.345 202.465C242.061 200.584 246.117 197.103 248.609 193.485C248.826 193.169 249.259 193.09 249.575 193.307C249.89 193.525 249.97 193.958 249.753 194.273C247.158 198.042 243.084 201.566 240.137 203.607C229.436 211.02 218.785 214.532 206.866 214.532Z" fill="white"/>
<path d="M251.357 198.808C251.269 198.808 251.179 198.791 251.092 198.755C250.737 198.609 250.569 198.203 250.715 197.849C251.699 195.467 251.906 192.789 251.313 190.366C248.605 192.187 245.715 193.722 242.707 194.935C242.35 195.078 241.946 194.907 241.802 194.551C241.658 194.195 241.83 193.791 242.186 193.647C245.393 192.353 248.463 190.683 251.311 188.681C251.49 188.556 251.719 188.522 251.927 188.59C252.135 188.658 252.299 188.82 252.369 189.028C253.367 191.986 253.232 195.394 251.998 198.38C251.888 198.647 251.63 198.808 251.357 198.808Z" fill="white"/>
<path d="M308.088 172.233H268.012C267.331 172.233 266.705 171.967 266.248 171.484C265.791 171.001 265.559 170.359 265.596 169.678L267.457 135.798C267.533 134.411 268.725 133.282 270.113 133.282H310.189C310.87 133.282 311.496 133.548 311.953 134.031C312.41 134.514 312.642 135.156 312.605 135.837L310.744 169.716C310.668 171.104 309.476 172.233 308.088 172.233ZM270.114 133.977C269.089 133.977 268.208 134.811 268.152 135.837L266.291 169.716C266.265 170.205 266.429 170.663 266.753 171.007C267.077 171.349 267.524 171.538 268.012 171.538H308.088C309.113 171.538 309.994 170.704 310.05 169.678L311.911 135.798C311.937 135.31 311.773 134.851 311.449 134.508C311.125 134.166 310.678 133.977 310.19 133.977H270.114Z" fill="#407BFF"/>
<path d="M311.882 143.003H267.429C267.237 143.003 267.082 142.847 267.082 142.656C267.082 142.464 267.237 142.308 267.429 142.308H311.882C312.073 142.308 312.229 142.464 312.229 142.656C312.229 142.847 312.074 143.003 311.882 143.003Z" fill="#407BFF"/>
<path d="M276.32 172.233C276.313 172.233 276.307 172.233 276.3 172.232C276.108 172.222 275.962 172.058 275.972 171.866L277.578 142.637C277.588 142.445 277.75 142.295 277.944 142.309C278.136 142.319 278.282 142.484 278.272 142.675L276.666 171.905C276.656 172.089 276.503 172.233 276.32 172.233Z" fill="#407BFF"/>
<path d="M306.79 146.475H282.657C282.465 146.475 282.309 146.32 282.309 146.128C282.309 145.936 282.465 145.781 282.657 145.781H306.79C306.982 145.781 307.138 145.936 307.138 146.128C307.138 146.32 306.982 146.475 306.79 146.475Z" fill="#407BFF"/>
<path d="M303.154 150.738H282.422C282.231 150.738 282.075 150.582 282.075 150.39C282.075 150.199 282.231 150.043 282.422 150.043H303.154C303.346 150.043 303.502 150.199 303.502 150.39C303.502 150.582 303.346 150.738 303.154 150.738Z" fill="#407BFF"/>
<path d="M294.248 155.136H282.181C281.989 155.136 281.834 154.98 281.834 154.789C281.834 154.597 281.989 154.441 282.181 154.441H294.248C294.44 154.441 294.596 154.597 294.596 154.789C294.596 154.98 294.44 155.136 294.248 155.136Z" fill="#407BFF"/>
<path d="M296.44 163.719H281.71C281.518 163.719 281.362 163.563 281.362 163.372C281.362 163.18 281.518 163.024 281.71 163.024H296.44C296.632 163.024 296.787 163.18 296.787 163.372C296.787 163.564 296.632 163.719 296.44 163.719Z" fill="#407BFF"/>
<path d="M293.535 168.117H281.467C281.276 168.117 281.12 167.961 281.12 167.77C281.12 167.578 281.276 167.422 281.467 167.422H293.535C293.726 167.422 293.882 167.578 293.882 167.77C293.882 167.961 293.726 168.117 293.535 168.117Z" fill="#407BFF"/>
<path d="M300.599 168.117H296.732C296.54 168.117 296.385 167.961 296.385 167.77C296.385 167.578 296.54 167.422 296.732 167.422H300.599C300.791 167.422 300.946 167.578 300.946 167.77C300.946 167.961 300.791 168.117 300.599 168.117Z" fill="#407BFF"/>
<path d="M304.545 159.398H281.946C281.755 159.398 281.599 159.242 281.599 159.05C281.599 158.859 281.755 158.703 281.946 158.703H304.545C304.736 158.703 304.892 158.859 304.892 159.05C304.892 159.242 304.736 159.398 304.545 159.398Z" fill="#407BFF"/>
<path d="M283.479 221.522C278.243 221.522 273.953 219.974 271.288 217.096C268.444 214.024 267.264 209.192 268.05 203.84C268.532 200.561 269.603 197.811 271.234 195.663C272.872 193.509 275.24 191.733 278.274 190.384C284.967 187.407 292.715 187.511 299 190.664C301.816 192.076 303.58 193.863 304.245 195.975C304.361 196.34 304.157 196.73 303.791 196.846C303.425 196.961 303.035 196.758 302.92 196.392C302.372 194.652 300.844 193.142 298.376 191.905C292.46 188.937 285.156 188.844 278.838 191.654C276.02 192.907 273.834 194.538 272.34 196.504C270.852 198.462 269.871 200.999 269.423 204.042C268.698 208.976 269.748 213.391 272.306 216.153C275.861 219.992 281.746 220.267 284.938 220.092C290.872 219.763 295.977 217.69 299.313 214.255C303.214 210.238 304.308 204.229 301.857 200.277C301.383 199.512 300.361 198.205 298.86 198.056C298.479 198.018 298.2 197.677 298.238 197.296C298.276 196.914 298.619 196.638 298.998 196.674C300.551 196.829 301.985 197.849 303.038 199.546C305.815 204.023 304.642 210.763 300.311 215.224C296.73 218.91 291.299 221.131 285.016 221.48C284.496 221.508 283.983 221.522 283.479 221.522Z" fill="white"/>
<path d="M105.882 149.105L103.415 153.404L100.997 157.795C99.405 160.729 97.8839 163.686 96.4954 166.658C95.8041 168.149 95.1462 169.632 94.5456 171.123L94.4344 171.393C94.425 171.414 94.413 171.436 94.3984 171.457C94.3599 171.501 94.3471 171.538 94.3249 171.575C94.2787 171.65 94.2487 171.723 94.2085 171.821C94.1444 172.013 94.1692 172.343 94.3112 172.78C94.5832 173.668 95.3866 174.826 96.3722 175.903C97.3381 176.988 98.588 178.097 99.713 179.07L97.7077 183.341C96.6887 183.05 95.8409 182.757 94.9426 182.364C94.0545 181.99 93.1913 181.536 92.3306 181.025C90.6307 179.975 88.923 178.677 87.5088 176.553C86.821 175.489 86.2315 174.173 86.0005 172.651C85.8953 171.893 85.8576 171.099 85.9552 170.325C85.9988 169.937 86.0553 169.551 86.1519 169.185L86.2914 168.629L86.3966 168.291C86.9467 166.541 87.5157 164.81 88.1838 163.141C89.4842 159.783 90.9489 156.538 92.5471 153.38C93.3453 151.799 94.1734 150.238 95.0452 148.701C95.9222 147.15 96.776 145.654 97.7795 144.092L105.882 149.105Z" fill="#FFC3BD"/>
<path d="M97.5664 178.587L102.062 177.418L102.32 184.676C102.32 184.676 98.8035 185.199 96.6501 183.047L97.5664 178.587Z" fill="#FFC3BD"/>
<path d="M108.432 176.195L107.418 182.567L102.319 184.676L102.061 177.418L108.432 176.195Z" fill="#FFC3BD"/>
<path d="M127.026 114.902C127.127 115.399 127.472 115.748 127.797 115.682C128.122 115.616 128.302 115.16 128.201 114.663C128.101 114.166 127.756 113.817 127.431 113.883C127.106 113.95 126.925 114.406 127.026 114.902Z" fill="#263238"/>
<path d="M127.426 115.757C127.426 115.757 129.138 118.394 130.663 119.524C129.951 120.523 128.38 120.452 128.38 120.452L127.426 115.757Z" fill="#ED847E"/>
<path d="M124.647 112.513C124.575 112.513 124.502 112.487 124.445 112.435C124.324 112.322 124.317 112.134 124.429 112.014C125.547 110.804 126.903 111.019 126.961 111.029C127.123 111.056 127.232 111.21 127.205 111.372C127.177 111.534 127.022 111.641 126.863 111.616C126.818 111.609 125.757 111.453 124.865 112.417C124.807 112.482 124.727 112.513 124.647 112.513Z" fill="#263238"/>
<path d="M112.875 121.89C113.776 126.488 114.676 134.913 111.459 137.981C111.459 137.981 112.716 142.645 121.259 142.645C130.654 142.645 125.749 137.982 125.749 137.982C120.622 136.758 120.754 132.953 121.647 129.381L112.875 121.89Z" fill="#FFC3BD"/>
<path d="M109.605 138.834C108.918 137.557 108.162 136.094 109.727 135.637C111.448 135.133 122.505 134.199 125.754 135.144C124.755 136.919 126.445 139.101 126.445 139.101L109.605 138.834Z" fill="#263238"/>
<path d="M81.7725 353.19C82.403 353.326 83.0335 353.363 83.3372 353.104C83.4647 352.996 83.593 352.788 83.4818 352.413C83.4236 352.216 83.2945 352.068 83.0985 351.975C82.2499 351.57 80.3001 352.365 80.2162 352.399C80.1623 352.421 80.1264 352.473 80.1247 352.532C80.123 352.591 80.1555 352.645 80.2085 352.671C80.5063 352.814 81.1394 353.052 81.7725 353.19ZM82.7948 352.185C82.859 352.198 82.918 352.218 82.9694 352.243C83.0874 352.299 83.1619 352.382 83.1961 352.497C83.2756 352.765 83.1764 352.849 83.1439 352.877C82.8059 353.164 81.5509 352.899 80.6671 352.546C81.2668 352.334 82.237 352.064 82.7948 352.185Z" fill="#407BFF"/>
<path d="M80.2419 352.681C80.2659 352.686 80.2907 352.685 80.3155 352.678C81.0256 352.471 82.5459 351.391 82.5647 350.678C82.5681 350.549 82.5228 350.315 82.184 350.197C81.9641 350.12 81.7425 350.138 81.5244 350.25C80.6842 350.678 80.1538 352.419 80.1316 352.493C80.1162 352.545 80.1299 352.601 80.1684 352.641C80.188 352.661 80.2137 352.675 80.2419 352.681ZM82.0206 350.459C82.042 350.463 82.0642 350.47 82.0856 350.478C82.2695 350.542 82.267 350.632 82.2661 350.671C82.2559 351.091 81.2523 351.939 80.5166 352.282C80.7005 351.78 81.1206 350.789 81.6587 350.515C81.7819 350.451 81.9008 350.434 82.0206 350.459Z" fill="#407BFF"/>
<path d="M128.176 354.244C128.983 354.244 129.762 354.133 130.023 353.771C130.114 353.644 130.186 353.428 130.01 353.121C129.912 352.948 129.753 352.831 129.539 352.772C128.492 352.488 126.296 353.74 126.203 353.793C126.149 353.824 126.12 353.885 126.13 353.946C126.14 354.008 126.188 354.056 126.248 354.069C126.649 354.147 127.424 354.244 128.176 354.244ZM129.173 353.025C129.278 353.025 129.374 353.035 129.46 353.059C129.598 353.097 129.693 353.164 129.752 353.267C129.857 353.452 129.818 353.543 129.781 353.596C129.488 354.003 127.899 354.012 126.732 353.847C127.313 353.548 128.438 353.025 129.173 353.025Z" fill="#407BFF"/>
<path d="M126.277 354.07C126.298 354.07 126.318 354.066 126.338 354.058C127.097 353.717 128.599 352.358 128.485 351.648C128.457 351.481 128.339 351.273 127.93 351.232C127.625 351.201 127.349 351.286 127.105 351.487C126.305 352.143 126.136 353.836 126.129 353.908C126.123 353.96 126.146 354.012 126.19 354.043C126.216 354.061 126.247 354.07 126.277 354.07ZM127.81 351.523C127.84 351.523 127.87 351.524 127.9 351.527C128.168 351.554 128.185 351.659 128.19 351.695C128.26 352.121 127.238 353.189 126.464 353.655C126.544 353.16 126.768 352.147 127.294 351.717C127.452 351.586 127.621 351.523 127.81 351.523Z" fill="#407BFF"/>
<path d="M119.365 353.922H125.651L126.276 339.366H119.992L119.365 353.922Z" fill="#FFC3BD"/>
<path d="M73.236 351.012L79.3787 352.342L85.5454 338.785L79.4027 337.455L73.236 351.012Z" fill="#FFC3BD"/>
<path d="M79.969 351.725L73.0682 350.232C72.8167 350.177 72.5618 350.304 72.4548 350.538L70.0593 355.735C69.8112 356.274 70.1397 356.906 70.7224 357.022C73.1401 357.502 74.3413 357.614 77.3767 358.271C79.2435 358.675 83.4587 359.702 86.0373 360.26C88.5594 360.806 89.5039 358.342 88.4987 357.883C83.99 355.823 82.1061 354.009 80.8861 352.318C80.6645 352.014 80.336 351.805 79.969 351.725Z" fill="#263238"/>
<path d="M125.609 353.193H118.745C118.489 353.193 118.266 353.372 118.21 353.623L116.968 359.21C116.84 359.789 117.28 360.338 117.873 360.328C120.349 360.286 123.926 360.14 127.038 360.14C130.677 360.14 133.819 360.339 138.086 360.339C140.667 360.339 141.383 357.73 140.302 357.494C135.385 356.419 131.371 356.303 127.122 353.684C126.662 353.399 126.152 353.193 125.609 353.193Z" fill="#263238"/>
<path d="M100.206 139.402C94.3154 140.753 89.4585 155.791 89.4585 155.791L101.288 164.807C101.288 164.807 105.63 160.713 107.562 153.191C109.586 145.309 106.229 138.021 100.206 139.402Z" fill="#407BFF"/>
<path opacity="0.2" d="M100.206 139.402C94.3154 140.753 89.4585 155.791 89.4585 155.791L101.288 164.807C101.288 164.807 105.63 160.713 107.562 153.191C109.586 145.309 106.229 138.021 100.206 139.402Z" fill="#FAFAFA"/>
<path opacity="0.2" d="M105.254 150.461C102.055 153.626 101.011 159.392 100.763 164.406L101.285 164.808C101.285 164.808 105.631 160.71 107.564 153.19C107.684 152.719 107.787 152.249 107.872 151.787L105.254 150.461Z" fill="black"/>
<path d="M135.416 139.725C135.416 139.725 142.106 147.281 135.788 194.049C125.66 194.049 107.101 194.049 102.172 194.049C101.94 188.889 105.182 163.715 100.206 139.401C100.206 139.401 105.968 138.244 111.46 137.98C115.755 137.773 121.973 137.636 125.75 137.981C130.727 138.435 135.416 139.725 135.416 139.725Z" fill="#407BFF"/>
<path opacity="0.2" d="M135.416 139.725C135.416 139.725 142.106 147.281 135.788 194.049C125.66 194.049 107.101 194.049 102.172 194.049C101.94 188.889 105.182 163.715 100.206 139.401C100.206 139.401 105.968 138.244 111.46 137.98C115.755 137.773 121.973 137.636 125.75 137.981C130.727 138.435 135.416 139.725 135.416 139.725Z" fill="#FAFAFA"/>
<path opacity="0.2" d="M138.355 154.02L138.227 153.908L130.587 155.739C130.15 160.907 135.463 167.084 138.201 169.907C138.577 163.311 138.569 158.109 138.355 154.02Z" fill="black"/>
<path opacity="0.2" d="M126.276 339.37L125.954 346.873H119.666L119.987 339.37H126.276Z" fill="black"/>
<path opacity="0.2" d="M79.4001 337.458L85.5454 338.789L82.3628 345.776L76.2184 344.446L79.4001 337.458Z" fill="black"/>
<path d="M110.242 117.217C111.856 123.242 112.496 126.85 116.214 129.355C121.806 133.124 128.77 128.799 128.988 122.413C129.184 116.664 126.51 107.777 120.045 106.563C113.674 105.368 108.628 111.192 110.242 117.217Z" fill="#FFC3BD"/>
<path d="M113.009 127.042C115.57 128.508 124.91 123.609 122.992 116.183C122.992 116.183 126.55 111.904 126.148 107.182C125.746 102.461 122.505 100.662 119.057 101.675C116.019 102.568 116.107 104.232 116.107 104.232C116.107 104.232 101.744 105.922 104.809 111.76C98.9635 118.134 109.812 125.212 113.009 127.042Z" fill="#263238"/>
<path d="M105.212 112.246C105.212 112.246 103.501 109.285 101.006 110.943C102.183 110.961 104.108 111.162 105.212 112.246Z" fill="#263238"/>
<path d="M125.69 110.294C125.69 110.294 128.821 103.228 123.941 100.953C125.586 103.243 126.481 106.939 125.69 110.294Z" fill="#263238"/>
<path d="M120.494 117.469C120.904 119.05 121.943 120.411 123.031 121.219C124.666 122.436 125.888 121.238 125.772 119.388C125.667 117.722 124.69 115.081 122.886 114.587C121.107 114.101 120.025 115.662 120.494 117.469Z" fill="#FFC3BD"/>
<path d="M123.863 194.05C123.863 194.05 116.73 242.082 112.815 260.076C108.527 279.782 85.5334 344.976 85.5334 344.976L74.2822 342.54C74.2822 342.54 90.3603 289.411 93.9595 261.862C96.7238 240.702 102.172 194.05 102.172 194.05H123.863Z" fill="#263238"/>
<path d="M88.2275 341.22C88.2754 341.23 86.1306 345.289 86.1306 345.289L73.472 342.549L74.5389 338.743L88.2275 341.22Z" fill="#407BFF"/>
<path opacity="0.3" d="M119.355 211.163C111.108 212.78 111.981 243.537 112.973 259.356C115.351 248.174 118.833 226.657 121.212 211.386C120.664 211.112 120.048 211.026 119.355 211.163Z" fill="black"/>
<path d="M135.788 194.05C135.788 194.05 136.654 241.042 135.971 260.209C135.26 280.144 128.296 345.421 128.296 345.421H117.649C117.649 345.421 117.258 281.31 116.785 261.731C116.269 240.386 113.692 194.051 113.692 194.051H135.788V194.05Z" fill="#263238"/>
<path opacity="0.4" d="M194.896 160.92H173.206L171.995 182.98L193.653 183.559L194.896 160.92Z" fill="#263238"/>
<path d="M183.495 175.113C176.254 174.22 169.014 173.326 161.772 172.432C163.527 165.076 164.834 157.667 165.688 150.247C172.972 151.143 180.256 152.039 187.538 152.936C186.642 160.356 185.293 167.762 183.495 175.113Z" fill="#407BFF"/>
<path d="M130.345 341.179C130.393 341.179 129.744 345.6 129.744 345.6H116.792L116.442 341.655L130.345 341.179Z" fill="#407BFF"/>
<path d="M138.517 145.459C139.482 146.964 140.584 148.655 141.684 150.216C142.805 151.791 143.925 153.366 145.105 154.879C147.443 157.91 149.923 160.821 152.593 163.237C153.254 163.849 153.931 164.415 154.614 164.938L155.128 165.325C155.081 165.297 154.918 165.243 154.827 165.221C154.603 165.178 154.495 165.217 154.554 165.248C154.685 165.315 155.31 165.207 155.963 164.924C156.626 164.643 157.379 164.261 158.126 163.801C161.135 161.936 164.243 159.33 167.163 156.798L170.834 159.763C168.557 163.432 166.05 166.751 162.607 169.801C161.732 170.553 160.795 171.3 159.666 171.964C158.532 172.619 157.243 173.289 155.35 173.568C154.405 173.691 153.26 173.667 152.079 173.291C151.502 173.119 150.893 172.815 150.416 172.522L149.674 172.053C148.695 171.419 147.763 170.75 146.879 170.053C143.341 167.25 140.388 164.09 137.664 160.803C136.323 159.145 135.023 157.467 133.819 155.725C132.6 153.964 131.455 152.28 130.321 150.319L138.517 145.459Z" fill="#FFC3BD"/>
<path d="M126.17 149.232C124.16 157.658 139.406 165.91 139.406 165.91L149.309 154.307C149.309 154.307 144.801 147.475 139.192 142.092C132.264 135.442 127.7 142.818 126.17 149.232Z" fill="#407BFF"/>
<path opacity="0.2" d="M126.17 149.232C124.16 157.658 139.406 165.91 139.406 165.91L149.309 154.307C149.309 154.307 144.801 147.475 139.192 142.092C132.264 135.442 127.7 142.818 126.17 149.232Z" fill="#FAFAFA"/>
<path d="M166.168 158.551L168.505 151.045L174.656 154.11C174.656 154.11 173.76 159.587 169.283 160.536L166.168 158.551Z" fill="#FFC3BD"/>
<path d="M170.972 148.964L176.519 150.491L174.655 154.109L168.504 151.045L170.972 148.964Z" fill="#FFC3BD"/>
<defs>
<filter id="filter0_f_1_6" x="13.4049" y="336.808" width="362.958" height="50.5745" filterUnits="userSpaceOnUse" color-interpolation-filters="sRGB">
<feFlood flood-opacity="0" result="BackgroundImageFix"/>
<feBlend mode="normal" in="SourceGraphic" in2="BackgroundImageFix" result="shape"/>
<feGaussianBlur stdDeviation="7.8" result="effect1_foregroundBlur_1_6"/>
</filter>
<linearGradient id="paint0_linear_1_6" x1="62.4177" y1="281.448" x2="137.735" y2="83.392" gradientUnits="userSpaceOnUse">
<stop stop-color="white" stop-opacity="0"/>
<stop offset="1" stop-color="#C9C7FF"/>
</linearGradient>
<linearGradient id="paint1_linear_1_6" x1="285.401" y1="260.248" x2="285.401" y2="15.0525" gradientUnits="userSpaceOnUse">
<stop stop-color="white" stop-opacity="0"/>
<stop offset="1" stop-color="#C9C7FF"/>
</linearGradient>
</defs>
</svg>
