<svg width="154" height="142" viewBox="0 0 154 142" fill="none" xmlns="http://www.w3.org/2000/svg">
<g clip-path="url(#clip0_56_35)">
<path opacity="0.3" d="M98.7728 43.3948H0V142H98.7728V43.3948Z" fill="#DBE9F6"/>
<path opacity="0.3" d="M105.819 37.2566H7.04663V135.862H105.819V37.2566Z" fill="#FFC3BD"/>
<path opacity="0.3" d="M112.439 31.5452H13.6658V130.15H112.439V31.5452Z" fill="#C7AD59"/>
<path opacity="0.3" d="M119.913 24.5531H21.1399V123.158H119.913V24.5531Z" fill="#7BCE59"/>
<path d="M126.352 15.1195H27.5793V113.725H126.352V15.1195Z" fill="#1DBEF5"/>
<path opacity="0.8" fill-rule="evenodd" clip-rule="evenodd" d="M80.7073 59.6284L133.959 3.61551C135.019 2.47469 136.303 1.56462 137.732 0.942255C139.16 0.319895 140.702 -0.00134277 142.261 -0.00134277C143.819 -0.00134277 145.361 0.319895 146.79 0.942255C148.218 1.56462 149.502 2.47469 150.562 3.61551C152.776 5.9861 154.006 9.10628 154.006 12.347C154.006 15.5877 152.776 18.7078 150.562 21.0784L89.0666 85.7566C89.049 85.7813 89.0289 85.8042 89.0068 85.8249C87.9465 86.9651 86.662 87.8747 85.2336 88.4967C83.8052 89.1187 82.2635 89.4397 80.7051 89.4397C79.1467 89.4397 77.6051 89.1187 76.1767 88.4967C74.7482 87.8747 73.4637 86.9651 72.4035 85.8249L70.1886 83.4942L48.2063 60.3711C45.993 58.0005 44.7622 54.8803 44.7622 51.6396C44.7622 48.3989 45.993 45.2788 48.2063 42.9082C49.2665 41.7679 50.551 40.8584 51.9795 40.2364C53.4079 39.6144 54.9495 39.2933 56.5079 39.2933C58.0663 39.2933 59.608 39.6144 61.0364 40.2364C62.4649 40.8584 63.7494 41.7679 64.8096 42.9082L80.7073 59.6284Z" fill="#4530B3"/>
</g>
<defs>
<clipPath id="clip0_56_35">
<rect width="154" height="142" fill="white"/>
</clipPath>
</defs>
</svg>
