<svg width="62" height="62" viewBox="0 0 62 62" fill="none" xmlns="http://www.w3.org/2000/svg">
<path d="M30.9996 33.6302C24.291 33.6302 18.8332 28.1724 18.8332 21.4638C18.8332 14.7552 24.291 9.29736 30.9996 9.29736C37.7082 9.29736 43.166 14.7552 43.166 21.4638C43.166 28.1724 37.7082 33.6302 30.9996 33.6302Z" fill="#0B1F51"/>
<path d="M52.9204 9.07961C47.0643 3.22473 39.2804 0 31 0C22.7196 0 14.9345 3.22473 9.07961 9.07961C3.22473 14.9345 0 22.7196 0 31C0 39.2804 3.22473 47.0655 9.07961 52.9204C14.9345 58.7753 22.7196 62 31 62C39.2804 62 47.0643 58.7753 52.9205 52.9204C58.7753 47.0655 62 39.2804 62 31C62 22.7196 58.7753 14.9345 52.9204 9.07961ZM8.37242 48.3612C4.6718 43.5489 2.46789 37.527 2.46789 31C2.46789 15.2675 15.2675 2.46789 31 2.46789C46.7325 2.46789 59.5309 15.2675 59.5309 31C59.5309 37.5294 57.327 43.5538 53.6227 48.3673C52.7048 45.2965 50.3677 42.5548 46.8193 40.4585C42.5318 37.9252 36.8872 36.5304 30.927 36.5304C24.974 36.5304 19.3541 37.9255 15.1024 40.4611C11.5935 42.5536 9.28184 45.2903 8.37242 48.3612Z" fill="#0B1F51"/>
</svg>
