<svg width="41" height="41" viewBox="0 0 41 41" fill="none" xmlns="http://www.w3.org/2000/svg">
<g clip-path="url(#clip0_177_22178)">
<path d="M20.5 0C16.4455 0 12.482 1.2023 9.11082 3.45487C5.73961 5.70744 3.11208 8.9091 1.56048 12.655C0.0088823 16.4009 -0.397086 20.5227 0.393911 24.4994C1.18491 28.476 3.13734 32.1287 6.00432 34.9957C8.8713 37.8627 12.524 39.8151 16.5007 40.6061C20.4773 41.3971 24.5991 40.9911 28.345 39.4395C32.0909 37.8879 35.2926 35.2604 37.5451 31.8892C39.7977 28.518 41 24.5545 41 20.5C40.9913 15.0657 38.8287 9.85651 34.9861 6.01389C31.1435 2.17127 25.9343 0.00867404 20.5 0ZM29.1264 21.1888L16.0064 29.3888C15.8772 29.4669 15.7308 29.512 15.58 29.52C15.4426 29.5207 15.3073 29.4869 15.1864 29.4216C15.0581 29.3495 14.9512 29.2448 14.8763 29.1181C14.8014 28.9914 14.7613 28.8472 14.76 28.7V12.3C14.7613 12.1528 14.8014 12.0086 14.8763 11.8819C14.9512 11.7552 15.0581 11.6505 15.1864 11.5784C15.3124 11.5016 15.4571 11.461 15.6046 11.461C15.7521 11.461 15.8968 11.5016 16.0228 11.5784L29.1428 19.7784C29.2617 19.8498 29.36 19.9508 29.4283 20.0715C29.4966 20.1922 29.5325 20.3285 29.5325 20.4672C29.5325 20.6059 29.4966 20.7422 29.4283 20.8629C29.36 20.9836 29.2617 21.0846 29.1428 21.156L29.1264 21.1888Z" fill="white"/>
</g>
<defs>
<clipPath id="clip0_177_22178">
<rect width="41" height="41" fill="white"/>
</clipPath>
</defs>
</svg>
