<svg width="115" height="100" viewBox="0 0 115 100" fill="none" xmlns="http://www.w3.org/2000/svg">
<path d="M57 16.115C57 14.7749 57.7237 13.5464 58.8998 12.8764L80.6115 0.502547C81.7876 -0.167516 83.235 -0.167516 84.3885 0.502547L106.1 12.8764C107.276 13.5464 108 14.7749 108 16.115V40.885C108 42.2251 107.276 43.4536 106.1 44.1236L84.3885 56.4975C83.2124 57.1675 81.765 57.1675 80.6115 56.4975L58.8998 44.1236C57.7237 43.4536 57 42.2251 57 40.885V16.115Z" fill="#A62C8B"/>
<path d="M73.725 80.084C72.1102 81.3053 69.8898 81.3053 68.275 80.084L49.7942 66.0157C48.6504 65.1562 48 63.7992 48 62.3742V28.5832C48 27.7012 48.6953 27 49.57 27H92.43C93.3047 27 94 27.7012 94 28.5832V62.3742C94 63.7992 93.3272 65.1562 92.2058 66.0157L73.725 80.084Z" fill="#2D4779"/>
<path d="M57 47C57 49.4064 54.6161 51.4755 54.0088 53.702C53.4016 55.996 54.4137 58.9871 53.2442 61.0112C52.0522 63.0578 48.9486 63.6651 47.3068 65.3068C45.6426 66.9711 45.0353 70.0747 43.0112 71.2442C40.9871 72.4137 38.0185 71.4016 35.702 72.0088C33.4755 72.5936 31.4064 75 29 75C26.5936 75 24.5245 72.6161 22.298 72.0088C20.004 71.4016 17.0129 72.4137 14.9888 71.2442C12.9422 70.0522 12.3349 66.9486 10.6932 65.3068C9.02892 63.6426 5.9253 63.0353 4.75582 61.0112C3.58634 58.9871 4.59839 56.0185 3.99117 53.702C3.40643 51.4755 1 49.4064 1 47C1 44.5936 3.38394 42.5245 3.99117 40.298C4.59839 38.004 3.58634 35.0129 4.75582 32.9888C5.94779 30.9422 9.05141 30.3349 10.6932 28.6932C12.3574 27.0289 12.9647 23.9253 14.9888 22.7558C17.0129 21.5863 19.9815 22.5984 22.298 21.9912C24.5245 21.4064 26.5936 19 29 19C31.4064 19 33.4755 21.3839 35.702 21.9912C37.996 22.5984 40.9871 21.5863 43.0112 22.7558C45.0578 23.9478 45.6651 27.0514 47.3068 28.6932C48.9711 30.3574 52.0747 30.9647 53.2442 32.9888C54.4137 35.0129 53.4016 37.9815 54.0088 40.298C54.5936 42.502 57 44.5711 57 47Z" fill="#69592F"/>
<path d="M86.0007 90C111.867 75.3285 114.021 60.6796 114.582 58.6094C116.422 51.9037 112.339 40 99.3715 40C87.0102 40 86.0007 46.2106 86.0007 46.2106C86.0007 46.2106 84.9911 40 72.6298 40C59.6403 40 55.5797 51.9037 57.4193 58.6094C57.9802 60.6796 60.1115 75.3285 86.0007 90Z" fill="#DE1919"/>
<path d="M56 68.5C56 75.9964 50.8025 81.872 45.9589 86.7796C41.1153 91.7097 35.3649 97 28 97C20.6351 97 14.8625 91.7097 10.0411 86.7796C5.19746 81.8495 0 75.9964 0 68.5C0 61.0036 5.19746 55.128 10.0411 50.2204C14.8847 45.2903 20.6351 40 28 40C35.3649 40 41.1374 45.2903 45.9589 50.2204C50.8025 55.1505 56 61.0036 56 68.5Z" fill="#3A67AB"/>
<path d="M79 78.8955C79 82.5629 77.9848 86.1637 76.0868 89.2977C67.3472 103.567 45.6307 103.567 36.9132 89.2977C34.9931 86.1637 34 82.5852 34 78.8955C34 69.1156 34 59.3358 34 49.5559C34 48.689 34.6842 48 35.5449 48C49.515 48 63.485 48 77.4551 48C78.3158 48 79 48.689 79 49.5559C79 59.3358 79 69.1156 79 78.8955Z" fill="#2F9C3A"/>
</svg>
