<svg width="106" height="106" viewBox="0 0 106 106" fill="none" xmlns="http://www.w3.org/2000/svg">
<g clip-path="url(#clip0_22_10877)">
<path opacity="0.13" d="M77.6249 69.9209C91.2876 56.2583 91.2876 34.1067 77.6249 20.4441C63.9623 6.78144 41.8107 6.78144 28.1481 20.4441C14.4854 34.1067 14.4854 56.2583 28.1481 69.9209C41.8107 83.5835 63.9623 83.5835 77.6249 69.9209Z" fill="#E6E7E8"/>
<path d="M95.8378 89.5655C95.8378 93.2167 77.3423 96.1768 54.5287 96.1768C31.714 96.1768 13.2198 93.2167 13.2198 89.5655C13.2198 85.9141 31.7142 82.954 54.5287 82.954C77.3421 82.9542 95.8378 85.9141 95.8378 89.5655Z" fill="#BCBEC0"/>
<path d="M30.3518 44.8928L27.0401 45.3864L30.9171 71.4027L34.2289 70.9092L30.3518 44.8928Z" fill="#9078B7"/>
<path d="M31.6272 71.296C31.2488 69.158 30.9696 67.041 30.6495 64.8933C30.2711 62.3513 30.0876 59.7235 29.8525 57.1627C29.7318 55.8482 29.6533 54.5304 29.5391 53.2154C29.4372 52.042 29.3335 50.9147 29.3933 49.736C29.4367 48.9078 29.333 47.951 29.6685 47.168C29.8552 46.7305 30.1661 46.4144 30.5366 46.1589L30.3481 44.8929L27.0362 45.3865L30.9167 71.4019L31.6272 71.296Z" fill="#D1BED4"/>
<path d="M30.348 44.8929L28.2816 42.3865L27.0401 45.3863L30.348 44.8929Z" fill="#FDE1D3"/>
<path d="M27.8177 45.2701C27.7593 44.3325 28.0014 43.3201 28.7199 42.9185L28.2816 42.3865L27.0399 45.3863L27.8177 45.2701Z" fill="#FCCFC6"/>
<path d="M28.9112 43.1496L28.2817 42.3865L27.9045 43.2997L28.9112 43.1496Z" fill="#9078B7"/>
<path d="M28.158 43.2621C28.1508 43.1494 28.1566 43.0374 28.1795 42.9315C28.2184 42.752 28.2989 42.6446 28.4166 42.5501L28.2817 42.3865L27.9043 43.2997L28.158 43.2621Z" fill="#D1BED4"/>
<path d="M34.2323 70.9091L30.9208 71.4029L31.0532 72.2909L34.3647 71.797L34.2323 70.9091Z" fill="#155AA9"/>
<path d="M31.8479 72.171C31.8411 72.1281 31.8384 72.084 31.8399 72.0384C31.8504 71.6527 32.1974 71.5171 32.5367 71.4655C33.1155 71.3782 33.6986 71.3236 34.279 71.2449L34.2284 70.9083L30.917 71.4019L31.0494 72.2902L31.8479 72.171Z" fill="#6B9DC1"/>
<path d="M25.8798 46.2121L22.7517 47.4053L32.1261 71.9803L35.2542 70.7871L25.8798 46.2121Z" fill="#EF5695"/>
<path d="M32.7982 71.727C31.9693 69.7192 31.2428 67.7121 30.469 65.6834C29.5531 63.2814 28.8102 60.7546 28.0307 58.3037C27.63 57.0458 27.2711 55.7754 26.8769 54.5157C26.5257 53.3919 26.1824 52.3132 25.9889 51.1485C25.8526 50.3301 25.5452 49.4181 25.7055 48.5818C25.7945 48.1141 26.0298 47.7384 26.3372 47.4093L25.8807 46.2137L22.7523 47.4071L32.1268 71.9828L32.7982 71.727Z" fill="#F8C1D9"/>
<path d="M25.8806 46.2137L23.3246 44.2096L22.7557 47.4056L25.8806 46.2137Z" fill="#FDE1D3"/>
<path d="M23.4896 47.1261C23.2319 46.2219 23.2506 45.1816 23.8666 44.6347L23.3246 44.2096L22.756 47.4056L23.4896 47.1261Z" fill="#FCCFC6"/>
<path d="M24.1023 44.8199L23.3247 44.2096L23.1515 45.1824L24.1023 44.8199Z" fill="#EF5695"/>
<path d="M23.3918 45.0909C23.3601 44.9822 23.3417 44.872 23.3412 44.7636C23.3407 44.5801 23.396 44.4579 23.4913 44.34L23.3247 44.2096L23.1517 45.1824L23.3918 45.0909Z" fill="#F8C1D9"/>
<path d="M35.2548 70.7864L32.127 71.9795L32.4469 72.818L35.5747 71.6249L35.2548 70.7864Z" fill="#155AA9"/>
<path d="M33.2013 72.534C33.1858 72.4933 33.1731 72.4512 33.1644 72.4058C33.0921 72.0271 33.4017 71.82 33.7226 71.6971C34.2688 71.4874 34.8269 71.3089 35.3766 71.1073L35.2555 70.7899L32.1273 71.983L32.4474 72.8216L33.2013 72.534Z" fill="#6B9DC1"/>
<path d="M21.6744 47.9646L18.8217 49.7174L32.5914 72.1276L35.4441 70.3748L21.6744 47.9646Z" fill="#5BB1E3"/>
<path d="M33.2068 71.7514C32.0196 69.9328 30.9332 68.0955 29.7959 66.2455C28.4497 64.0557 27.2516 61.7106 26.0303 59.447C25.4038 58.2853 24.8155 57.1039 24.1938 55.9387C23.6401 54.8994 23.1026 53.9032 22.696 52.7951C22.4106 52.0165 21.9399 51.1772 21.9419 50.3253C21.9424 49.8494 22.1034 49.4366 22.345 49.0562L21.6741 47.9662L18.8215 49.719L32.5945 72.1281L33.2068 71.7514Z" fill="#D0E1EB"/>
<path d="M21.6739 47.966L18.7911 46.4707L18.8255 49.7173L21.6739 47.966Z" fill="#FDE1D3"/>
<path d="M19.4941 49.3055C19.0725 48.4653 18.8985 47.4395 19.4023 46.7876L18.7911 46.4707L18.8255 49.7173L19.4941 49.3055Z" fill="#FCCFC6"/>
<path d="M19.6681 46.9259L18.7911 46.4707L18.8008 47.4584L19.6681 46.9259Z" fill="#5BB1E3"/>
<path d="M19.0197 47.3243C18.9693 47.2233 18.9299 47.1184 18.909 47.0122C18.8748 46.832 18.907 46.7016 18.978 46.5684L18.7911 46.4707L18.8008 47.4584L19.0197 47.3243Z" fill="#B3D7E9"/>
<path d="M35.443 70.3726L32.5904 72.1259L33.0606 72.8909L35.9132 71.1376L35.443 70.3726Z" fill="#155AA9"/>
<path d="M33.7532 72.4696C33.7303 72.4325 33.7098 72.3931 33.6929 72.3507C33.5515 71.992 33.818 71.7307 34.11 71.551C34.6088 71.2431 35.1231 70.9642 35.6252 70.664L35.4472 70.3743L32.5945 72.1279L33.0654 72.8924L33.7532 72.4696Z" fill="#6B9DC1"/>
<path d="M17.6441 51.0735L14.6487 53.4844L33.5868 77.0135L36.5821 74.6026L17.6441 51.0735Z" fill="#FFD145"/>
<path d="M34.2316 76.4982C32.6157 74.5989 31.1234 72.6252 29.5606 70.683C27.7103 68.3832 25.9902 65.9244 24.2716 63.5232C23.3883 62.2907 22.5462 61.0303 21.6704 59.7935C20.8881 58.6894 20.1315 57.6331 19.5075 56.4293C19.0688 55.5837 18.4109 54.6964 18.289 53.7257C18.2214 53.1835 18.3451 52.6896 18.5642 52.2212L17.6423 51.0769L14.6468 53.4876L33.5879 77.015L34.2316 76.4982Z" fill="#FDDAC6"/>
<path d="M17.6427 51.0772L14.1409 49.7926L14.6512 53.4851L17.6427 51.0772Z" fill="#FDE1D3"/>
<path d="M15.3538 52.9195C14.7512 52.0238 14.4035 50.8802 14.8834 50.0648L14.1405 49.7926L14.6508 53.4849L15.3538 52.9195Z" fill="#FCCFC6"/>
<path d="M15.2063 50.1837L14.1409 49.7926L14.2962 50.9166L15.2063 50.1837Z" fill="#155AA9"/>
<path d="M14.525 50.7316C14.4535 50.6244 14.3936 50.5102 14.3545 50.392C14.2894 50.1921 14.3066 50.0385 14.369 49.8765L14.1409 49.793L14.2962 50.917L14.525 50.7316Z" fill="#6B9DC1"/>
<path d="M36.5802 74.6079L33.5853 77.0185L34.2317 77.8217L37.2267 75.4112L36.5802 74.6079Z" fill="#155AA9"/>
<path d="M34.9573 77.2369C34.9256 77.1983 34.8965 77.1561 34.8715 77.1108C34.6579 76.7224 34.9241 76.3863 35.23 76.1388C35.7536 75.7165 36.2993 75.3236 36.8283 74.909L36.5835 74.6044L33.5882 77.0153L34.2353 77.8185L34.9573 77.2369Z" fill="#6B9DC1"/>
<path d="M34.2351 77.8183C34.9032 78.6342 36.1053 78.7606 36.9282 78.0982C37.7511 77.4356 37.884 76.2342 37.2294 75.4076L34.2351 77.8183Z" fill="#EF5695"/>
<path d="M35.6042 78.5173C35.2542 78.3343 35.0388 78.075 35.2123 77.7163C35.3754 77.378 35.678 77.1329 35.9704 76.9061C36.4638 76.5219 36.9532 76.132 37.4418 75.7404C37.3834 75.625 37.3136 75.5128 37.2291 75.4076L34.2348 77.8183C34.5878 78.2488 35.0887 78.4851 35.6042 78.5173Z" fill="#DFB1C6"/>
<path d="M49.8437 28.0287C49.8437 23.662 51.8308 22.1398 54.6279 22.1398C57.4262 22.1398 59.6016 23.6291 59.6016 28.0287H61.5114C61.5114 21.9536 58.1733 20.154 54.6279 20.154C51.0834 20.154 47.7446 21.7564 47.7446 28.0287H49.8437Z" fill="#1455A1"/>
<path d="M54.6281 20.154C51.0837 20.154 47.7449 21.7564 47.7449 28.0287H48.6331C48.6331 22.5656 51.5414 21.1698 54.6284 21.1698C57.7164 21.1698 60.6239 22.7374 60.6239 28.0287H61.5122C61.5117 21.9536 58.1739 20.154 54.6281 20.154Z" fill="#89C3DD"/>
<path d="M37.1142 84.7359C37.1142 85.7623 36.2821 86.5944 35.2557 86.5944H29.9103C28.884 86.5944 28.0519 85.7623 28.0519 84.7359V67.5962C28.0519 66.5696 28.884 65.7375 29.9103 65.7375H35.2555C36.2818 65.7375 37.114 66.5696 37.114 67.5962L37.1142 84.7359Z" fill="#5BB1E3"/>
<path d="M35.2557 65.7375H32.6581C32.58 69.1964 32.5247 72.6556 32.5182 76.1153C32.5152 77.6208 32.6678 79.1672 32.4958 80.666C32.3801 81.6701 32.138 82.7259 31.3478 83.4281C30.4254 84.2473 29.2497 84.4667 28.0519 84.5163V84.7359C28.0519 85.7623 28.884 86.5944 29.9103 86.5944H35.2555C36.2818 86.5944 37.114 85.7623 37.114 84.7359V67.5962C37.1142 66.5696 36.2821 65.7375 35.2557 65.7375Z" fill="#D5E8F2"/>
<path d="M37.7335 72.3565V67.4267C37.7335 66.2597 36.7879 65.3139 35.6207 65.3139H29.5449C28.3779 65.3139 27.4324 66.2595 27.4324 67.4267V72.3562H37.7335V72.3565Z" fill="#1A4F9A"/>
<path d="M35.621 65.3142H32.6416C32.6259 66.4076 32.4898 67.4805 32.1169 68.4615C31.3361 70.5182 29.2986 70.4 27.4329 70.3045V72.3562H37.7337V67.4267C37.7335 66.2597 36.7879 65.3142 35.621 65.3142Z" fill="#67B0CE"/>
<path d="M29.1241 72.5145C29.1308 71.8928 29.6396 71.3947 30.2596 71.4034C30.8808 71.4091 31.3789 71.918 31.3717 72.5389C31.368 72.9049 31.1872 73.2248 30.913 73.4269L30.9038 74.2965C30.8985 74.7175 30.5927 75.0566 30.2207 75.0516C29.8468 75.0476 29.5489 74.7028 29.5531 74.282L29.5628 73.4122C29.2943 73.2041 29.1191 72.8797 29.1241 72.5145Z" fill="#2D96CB"/>
<path d="M30.3937 71.4134C30.4084 72.2101 30.4271 73.0104 30.371 73.8006C30.3326 74.3491 30.0043 74.4997 29.5992 74.567C29.6962 74.8482 29.9358 75.0489 30.2205 75.0518C30.5924 75.0568 30.8985 74.718 30.9035 74.2967L30.9128 73.4272C31.187 73.225 31.3677 72.9052 31.3715 72.5392C31.3779 71.9633 30.9506 71.4852 30.3937 71.4134Z" fill="#D5E8F2"/>
<path d="M72.5232 84.7359C72.5232 85.7623 73.3549 86.5944 74.3817 86.5944H79.7264C80.753 86.5944 81.5846 85.7623 81.5846 84.7359V67.5962C81.5846 66.5696 80.753 65.7375 79.7264 65.7375H74.3817C73.3549 65.7375 72.5232 66.5696 72.5232 67.5962V84.7359Z" fill="#5BB1E3"/>
<path d="M74.3817 65.7375H76.9794C77.0574 69.1964 77.1123 72.6556 77.1192 76.1153C77.1222 77.6208 76.9694 79.1672 77.1417 80.666C77.2566 81.6701 77.4987 82.7259 78.2892 83.4281C79.2116 84.2473 80.387 84.4667 81.5848 84.5163V84.7359C81.5848 85.7623 80.7532 86.5944 79.7266 86.5944H74.382C73.3551 86.5944 72.5235 85.7623 72.5235 84.7359V67.5962C72.5232 66.5696 73.3549 65.7375 74.3817 65.7375Z" fill="#D5E8F2"/>
<path d="M71.9035 72.3565V67.4267C71.9035 66.2597 72.8495 65.3139 74.0162 65.3139H80.0918C81.259 65.3139 82.2048 66.2595 82.2048 67.4267V72.3562H71.9035V72.3565Z" fill="#1A4F9A"/>
<path d="M74.016 65.3143H76.9951C77.0108 66.4077 77.1472 67.4807 77.5198 68.4616C78.3011 70.5183 80.3384 70.4002 82.2043 70.3047V72.3564H71.9032V67.4268C71.9035 66.2599 72.8496 65.3143 74.016 65.3143Z" fill="#67B0CE"/>
<path d="M80.5126 72.5145C80.5066 71.8928 79.9973 71.3947 79.3771 71.4034C78.7559 71.4091 78.2585 71.918 78.2652 72.5389C78.2687 72.9049 78.4502 73.2248 78.7239 73.4269L78.7329 74.2965C78.7381 74.7175 79.044 75.0566 79.4162 75.0516C79.7907 75.0476 80.0886 74.7028 80.0843 74.282L80.0744 73.4122C80.3429 73.2041 80.5176 72.8797 80.5126 72.5145Z" fill="#2D96CB"/>
<path d="M79.243 71.4134C79.2283 72.2101 79.2103 73.0104 79.2664 73.8006C79.3048 74.3491 79.6326 74.4997 80.0377 74.567C79.9408 74.8482 79.7014 75.0489 79.4165 75.0518C79.0443 75.0568 78.7382 74.718 78.7332 74.2967L78.7242 73.4272C78.4505 73.225 78.269 72.9052 78.2655 72.5392C78.2588 71.9633 78.6865 71.4852 79.243 71.4134Z" fill="#D5E8F2"/>
<path d="M61.3288 27.0938C61.3288 27.0938 63.1302 25.3799 65.5511 25.7287C65.5511 25.7287 70.7693 27.2683 71.9615 29.0034C71.9615 29.0034 70.2473 31.606 70.1311 33.4212C70.1311 33.4212 67.2373 28.8566 61.3288 27.0938Z" fill="#5BB1E3"/>
<path d="M68.8441 29.6773C67.9769 29.2984 67.0295 29.0239 66.252 28.4713C65.1661 27.6987 65.084 26.6893 65.4445 25.716C63.0772 25.4316 61.3284 27.0939 61.3284 27.0939C67.2369 28.8567 70.1307 33.4212 70.1307 33.4212C70.1801 32.6509 70.5172 31.7393 70.8889 30.9443C70.4506 30.3235 69.423 29.9304 68.8441 29.6773Z" fill="#D5E8F2"/>
<path d="M71.9611 29.0034C71.9611 29.0034 72.5741 33.2651 71.4705 36.0542C71.4705 36.0542 70.3988 33.911 70.0315 33.2556C70.0315 33.2556 70.6274 29.8926 71.9611 29.0034Z" fill="#2D96CB"/>
<path d="M47.084 27.1222C47.084 27.1222 45.2559 25.2583 42.8642 25.7713C42.8642 25.7713 37.7636 27.665 36.6929 29.4766C36.6929 29.4766 38.3913 31.8957 38.6312 33.6991C38.6312 33.6991 41.3108 29.2826 47.084 27.1222Z" fill="#5BB1E3"/>
<path d="M43.1082 25.7272C43.2005 26.4322 43.1412 27.1255 42.8086 27.7647C42.2409 28.8563 41.1413 29.3888 40.2127 30.1245C39.4486 30.7295 38.7506 31.3991 38.1864 32.1792C38.3986 32.6912 38.5671 33.217 38.6314 33.6989C38.6314 33.6989 41.3108 29.2826 47.084 27.122C47.084 27.122 45.3788 25.3844 43.1082 25.7272Z" fill="#D5E8F2"/>
<path d="M36.6939 29.4823C36.6939 29.4823 36.1684 33.6181 37.4612 36.3239C37.4612 36.3239 38.407 34.2294 38.7276 33.5495C38.7276 33.5495 38.087 30.2763 36.6939 29.4823Z" fill="#2D96CB"/>
<path d="M54.6281 27.1033C42.9071 27.1033 33.3997 36.5127 33.3289 48.1455H33.3252V84.1119C33.3252 86.3416 33.5533 86.5944 35.6494 86.5944H73.6022C75.3704 86.5944 75.9259 86.5944 75.9259 84.1119V48.4397C75.9259 48.3861 75.9301 48.3327 75.9301 48.2776C75.9306 36.5832 66.3926 27.1033 54.6281 27.1033Z" fill="#5BB1E3"/>
<path d="M54.5815 25.6823C46.2606 25.6823 38.2256 30.7472 34.816 40.3398C34.816 40.3398 37.4183 52.3296 45.6705 52.3296C45.6705 52.3296 58.8799 52.5004 64.0275 52.294C67.9509 52.1367 73.8191 50.0875 74.2411 39.9798C70.7976 30.5171 62.8349 25.6823 54.5815 25.6823Z" fill="#155AA9"/>
<path d="M65.7724 28.9885C65.9553 29.5212 66.1321 30.0562 66.2926 30.5964C66.6137 31.6736 66.8879 32.773 67.0016 33.8936C67.128 35.1333 67.0886 36.3962 67.0787 37.641C67.0507 41.062 66.8366 46.468 62.798 47.615C61.648 47.9416 60.4609 48.0301 59.28 48.1786C57.6172 48.3876 55.9496 48.506 54.2744 48.5476C52.5936 48.5895 50.9049 48.6127 49.2239 48.5723C47.7312 48.5361 46.1918 48.4287 44.7753 47.9179C40.6644 46.4351 38.1864 41.3525 36.0781 37.3974C35.6085 38.3263 35.1842 39.3048 34.816 40.3396C34.816 40.3396 37.4183 52.3294 45.6705 52.3294C45.6705 52.3294 58.8799 52.5002 64.0275 52.2937C67.9509 52.1364 73.8191 50.0872 74.2411 39.9796C72.4467 35.0483 69.423 31.3769 65.7724 28.9885Z" fill="#6ABDDF"/>
<path d="M57.5681 54.2724C57.5681 54.487 57.3938 54.6613 57.1784 54.6613H52.1641C51.9497 54.6613 51.7752 54.487 51.7752 54.2724V49.6041C51.7752 49.3892 51.9495 49.215 52.1641 49.215H57.1784C57.3936 49.215 57.5681 49.3892 57.5681 49.6041V54.2724Z" fill="#173E80"/>
<path d="M57.1784 49.215H56.4841C56.4076 49.8756 56.3174 50.535 56.2685 51.2001C56.2206 51.8495 56.2057 52.7126 55.6769 53.1852C54.9622 53.8247 54.0204 53.6457 53.1423 53.6307C52.7151 53.6232 52.2344 53.7085 51.7755 53.7028V54.2726C51.7755 54.4873 51.9497 54.6615 52.1644 54.6615H57.1787C57.3938 54.6615 57.5683 54.4873 57.5683 54.2726V49.6044C57.5681 49.3892 57.3938 49.215 57.1784 49.215Z" fill="#67B0CE"/>
<path d="M69.9073 79.6264C69.9073 80.2 69.4421 80.6652 68.8687 80.6652H40.4748C39.9012 80.6652 39.436 80.2 39.436 79.6264V59.6422C39.436 59.0686 39.9012 58.6034 40.4748 58.6034H68.8687C69.4421 58.6034 69.9073 59.0686 69.9073 59.6422V79.6264Z" fill="#155AA9"/>
<path d="M68.8686 58.6034H65.4769C65.4867 61.2339 65.4944 63.8648 65.4617 66.4941C65.4346 68.7417 65.2805 71.1454 63.8986 73.0231C63.1839 73.9938 62.2174 74.9277 61.1103 75.4355C59.9715 75.9583 58.7412 76.0854 57.4995 76.0737C51.4793 76.0156 45.4576 75.8606 39.4356 75.8222V79.6264C39.4356 80.2 39.9008 80.6652 40.4744 80.6652H68.8683C69.4417 80.6652 69.9069 80.2 69.9069 79.6264V59.6422C69.9071 59.0686 69.442 58.6034 68.8686 58.6034Z" fill="#67B0CE"/>
<path d="M70.7021 65.3685V59.0731C70.7021 58.4583 70.2128 57.96 69.6095 57.96H39.7338C39.1305 57.96 38.6406 58.4583 38.6406 59.0731V65.3685H70.7021Z" fill="#1A4F9A"/>
<path d="M69.6097 57.96H66.4128C66.433 58.5441 66.4354 59.1284 66.3828 59.71C66.3038 60.5753 66.143 61.5663 65.533 62.2334C64.8305 63.0019 63.6957 63.2071 62.701 63.2712C61.3945 63.3549 60.0974 63.2071 58.7918 63.2001C52.0751 63.1635 45.3576 63.1956 38.6409 63.1986V65.3685H70.7024V59.0731C70.7021 58.4583 70.213 57.96 69.6097 57.96Z" fill="#67B0CE"/>
<path d="M41.7381 65.2678C41.7451 64.646 42.2537 64.1479 42.8739 64.1567C43.4949 64.1624 43.9925 64.6712 43.9855 65.2922C43.982 65.6582 43.8015 65.978 43.5266 66.1804L43.5178 67.05C43.5126 67.4708 43.207 67.8098 42.8345 67.8048C42.4606 67.8009 42.1627 67.4561 42.1669 67.035L42.1771 66.1652C41.9081 65.9573 41.7331 65.633 41.7381 65.2678Z" fill="#2D96CB"/>
<path d="M43.0073 64.1666C43.0222 64.9634 43.0407 65.7636 42.9853 66.5536C42.9464 67.1021 42.6181 67.2527 42.213 67.32C42.31 67.6009 42.5496 67.8019 42.8343 67.8049C43.2067 67.8098 43.5126 67.4708 43.5176 67.05L43.5263 66.1804C43.8013 65.9783 43.9818 65.6584 43.9853 65.2922C43.992 64.7166 43.5644 64.2384 43.0073 64.1666Z" fill="#D5E8F2"/>
<path d="M67.9771 30.6535C68.5121 35.4729 68.6023 41.5479 68.4655 46.3892C68.3648 49.9643 68.1875 53.5362 68.0783 57.1109C67.9828 60.251 68.0225 63.3724 68.0778 66.5113C68.1097 68.3371 68.1092 70.1941 67.7804 71.9967C67.5097 73.479 67.0624 75.0187 65.905 76.0595C63.7079 78.0341 60.4644 78.1566 57.6635 78.1498C49.572 78.1296 41.4001 78.695 33.3254 77.9589V84.1119C33.3254 86.3416 33.5535 86.5944 35.6496 86.5944H73.6024C75.3707 86.5944 75.9261 86.5944 75.9261 84.1119V48.4397C75.9261 48.3861 75.9303 48.3327 75.9303 48.2776C75.9306 41.6469 72.9034 35.0827 67.9771 30.6535Z" fill="#D5E8F2"/>
<path d="M49.2728 71.783H28.1625V77.0748H49.2728V71.783Z" fill="#EF5695"/>
<path d="M46.7711 71.7828C46.9436 72.4614 47.086 73.154 47.1336 73.8527C47.1725 74.4281 47.1964 75.1416 46.8741 75.6519C46.4752 76.2821 45.7051 76.2188 45.038 76.2527C43.976 76.307 34.3378 76.2422 28.1625 76.1654V77.0744H49.2728V71.7826H46.7711V71.7828Z" fill="#F8C1D9"/>
<path d="M28.2597 71.783H16.5807V77.0748H28.2597V71.783Z" fill="#EF5695"/>
<path d="M27.5592 72.341H16.5806V76.5164H27.5592V72.341Z" fill="#FEE7DC"/>
<path d="M26.9993 71.783C27.0382 72.7669 27.0691 73.7527 26.9442 74.7281C26.9014 75.0687 26.8635 75.6665 26.5037 75.847C26.0944 76.0524 19.4318 75.8754 16.5803 75.8722V77.075H28.2593V71.7832H26.9993V71.783Z" fill="#F8C1D9"/>
<path d="M45.2133 73.6471H32.1031V75.0656H45.2133V73.6471Z" fill="#FFD145"/>
<path d="M44.2177 73.6471C44.2295 73.8191 44.2262 73.9908 44.1851 74.1614C44.0956 74.5326 43.7324 74.6946 43.4464 74.7245C42.904 74.7816 42.3438 74.6971 41.7993 74.6961C41.1429 74.6951 40.4861 74.6924 39.8299 74.6884C37.2542 74.6727 34.679 74.642 32.1035 74.6395V75.0658H45.2137V73.6473H44.2177V73.6471Z" fill="#FFE5C7"/>
<path d="M30.5196 72.8536H29.5701V76.0036H30.5196V72.8536Z" fill="#FFD145"/>
<path d="M30.377 72.8536C30.374 73.3235 30.4005 74.9329 30.3331 75.2348C30.2441 75.6339 29.9133 75.6611 29.5701 75.6252V76.0036H30.5196V72.8536H30.377Z" fill="#FFE5C7"/>
<path d="M47.4252 72.8536H46.4756V76.0036H47.4252V72.8536Z" fill="#FFD145"/>
<path d="M47.2822 72.8536C47.2794 73.3235 47.3061 74.9329 47.2383 75.2348C47.1493 75.6339 46.8185 75.6611 46.4752 75.6252V76.0036H47.4248V72.8536H47.2822Z" fill="#FFE5C7"/>
<path d="M61.7096 82.3962H40.5998V87.6882H61.7096V82.3962Z" fill="#9078B7"/>
<path d="M59.2089 82.3961C59.3807 83.0749 59.5235 83.7674 59.5709 84.4659C59.61 85.0413 59.6339 85.7548 59.3111 86.2651C58.9125 86.8953 58.1417 86.832 57.4751 86.8659C56.4131 86.9202 46.7751 86.8552 40.6001 86.7786V87.6878H61.7098V82.3958H59.2089V82.3961Z" fill="#E8E1F0"/>
<path d="M58.3848 84.1972H42.4371V85.8804H58.3848V84.1972Z" fill="#FFD145"/>
<path d="M57.1728 84.1972C57.1878 84.4014 57.1835 84.6051 57.1337 84.8075C57.0247 85.248 56.5832 85.4402 56.2352 85.4758C55.5756 85.5436 54.8943 85.4432 54.2316 85.4419C53.4332 85.4404 52.6344 85.4374 51.8362 85.4327C48.703 85.414 45.5704 85.3779 42.4375 85.3746V85.8804H58.3851V84.1972H57.1728Z" fill="#FFE5C7"/>
<path d="M40.697 82.3962H29.018V87.6882H40.697V82.3962Z" fill="#9078B7"/>
<path d="M39.9966 82.9542H29.0179V87.1297H39.9966V82.9542Z" fill="#FEE7DC"/>
<path d="M39.4361 82.3961C39.475 83.3803 39.5059 84.366 39.3815 85.3412C39.3382 85.682 39.3008 86.2796 38.9405 86.4598C38.5317 86.6652 31.8686 86.4882 29.0176 86.4852V87.6878H40.6966V82.3958H39.4361V82.3961Z" fill="#E8E1F0"/>
<path d="M52.8993 77.0746H34.2401V82.3664H52.8993V77.0746Z" fill="#5BB1E3"/>
<path d="M50.3979 77.0746C50.5696 77.7532 50.713 78.446 50.7601 79.1445C50.799 79.7199 50.8229 80.4334 50.5006 80.9437C50.1022 81.5741 49.3316 81.5106 48.6643 81.5447C47.7354 81.5921 40.2361 81.5482 34.2401 81.4851V82.3664H52.8993V77.0746H50.3979Z" fill="#C4D5EE"/>
<path d="M37.7808 77.976H36.729V81.4651H37.7808V77.976Z" fill="#FFD145"/>
<path d="M37.623 77.9758C37.6195 78.4963 37.6492 80.279 37.5744 80.6133C37.4757 81.0551 37.1097 81.0853 36.729 81.0456V81.4647H37.7808V77.9756H37.623V77.9758Z" fill="#FFE5C7"/>
<path d="M39.3808 77.9758H38.3288V81.4649H39.3808V77.9758Z" fill="#FFD145"/>
<path d="M39.2225 77.9758C39.2192 78.4963 39.2484 80.279 39.1741 80.6133C39.0754 81.0553 38.7094 81.0853 38.3288 81.0456V81.4649H39.3808V77.9758H39.2225Z" fill="#FFE5C7"/>
<path d="M40.98 77.9761H39.9285V81.4652H40.98V77.9761Z" fill="#FFD145"/>
<path d="M40.822 77.9761C40.819 78.4963 40.8481 80.2793 40.7736 80.6136C40.6751 81.0556 40.3087 81.0855 39.9285 81.0459V81.4652H40.98V77.9761H40.822Z" fill="#FFE5C7"/>
<path d="M34.536 77.0746H20.8126V82.3664H34.536V77.0746Z" fill="#5BB1E3"/>
<path d="M33.8357 77.6325H20.8126V81.808H33.8357V77.6325Z" fill="#FEE7DC"/>
<path d="M33.2758 77.0746C33.3145 78.0588 33.3454 79.0443 33.2207 80.0198C33.1773 80.3603 33.1011 80.8856 32.4148 81.1895C31.9964 81.3749 23.6638 81.1668 20.8126 81.1635V82.3664H34.536V77.0746H33.2758Z" fill="#C4D5EE"/>
<path d="M88.0239 77.462C88.0239 84.8389 80.9663 89.5239 72.1687 89.5239C63.3701 89.5239 56.2378 83.5431 56.2378 76.1659C56.2378 68.7888 63.3701 62.8085 72.1687 62.8085C76.5673 62.8085 70.9158 71.4677 77.359 72.6088C83.7913 73.7475 88.0239 73.7735 88.0239 77.462Z" fill="#FFD145"/>
<path d="M84.8359 78.2892C85.3975 79.6613 84.5036 81.3261 82.84 82.0074C81.1755 82.6885 79.3721 82.1276 78.8104 80.7554C78.2483 79.3831 79.1417 77.718 80.8055 77.0375C82.4698 76.3564 84.2747 76.9168 84.8359 78.2892Z" fill="#FEE7DC"/>
<path d="M84.8359 78.2892C84.7957 78.1915 84.7489 78.0985 84.697 78.0092C84.4255 79.2265 83.826 80.2948 82.5057 80.8866C81.5058 81.3353 80.3037 81.4617 79.2801 80.994C79.0946 80.9093 78.9333 80.812 78.791 80.7036C78.7975 80.7208 78.8032 80.7382 78.8104 80.7552C79.3721 82.1276 81.1755 82.6882 82.84 82.0072C84.5036 81.3261 85.3975 79.6613 84.8359 78.2892Z" fill="#EBDAC6"/>
<path d="M67.7932 67.6717C68.3608 68.8329 67.6783 70.3322 66.2702 71.0197C64.862 71.7076 63.2603 71.3234 62.6934 70.1614C62.1265 69 62.8083 67.5012 64.2165 66.8132C65.6243 66.1261 67.2263 66.5098 67.7932 67.6717Z" fill="#5BB1E3"/>
<path d="M66.9186 70.2061C66.1897 70.6721 65.0751 71.0101 64.2285 70.6776C63.1398 70.251 63.0181 68.9662 63.609 68.0435C63.9286 67.5439 64.3623 67.1695 64.8415 66.827C64.9958 66.717 65.1648 66.5951 65.3436 66.4887C64.9691 66.5268 64.5862 66.6328 64.2165 66.813C62.8082 67.5011 62.1262 68.9998 62.6933 70.1613C63.26 71.3232 64.8617 71.7074 66.2702 71.0196C67.1427 70.5938 67.7363 69.8561 67.9267 69.0808C67.6772 69.5325 67.3534 69.9284 66.9186 70.2061Z" fill="#B6E4FA"/>
<path d="M61.1594 72.8047C62.4455 72.6805 63.6105 73.8438 63.762 75.4028C63.9129 76.9632 62.993 78.3288 61.7058 78.4532C60.4192 78.5779 59.254 77.4142 59.103 75.8548C58.9519 74.2947 59.8728 72.9296 61.1594 72.8047Z" fill="#EF5695"/>
<path d="M61.6789 77.7306C59.8484 76.8889 60.0249 74.2529 61.0711 72.816C59.8307 72.993 58.9556 74.3304 59.103 75.8549C59.2538 77.4142 60.419 78.5777 61.7058 78.4533C62.1471 78.4109 62.5447 78.2222 62.8713 77.93C62.4615 77.9599 62.0574 77.9043 61.6789 77.7306Z" fill="#F9C5DC"/>
<path d="M62.8556 80.6979C63.5541 79.6099 65.1895 79.4152 66.508 80.2621C67.8265 81.1089 68.3286 82.677 67.6303 83.7649C66.9321 84.8521 65.2962 85.0475 63.9777 84.1999C62.6592 83.3528 62.1573 81.7848 62.8556 80.6979Z" fill="#9078B7"/>
<path d="M66.0548 84.4076C64.929 84.2543 64.0081 83.6291 63.5541 82.573C63.2308 81.8212 63.1418 80.8913 63.4352 80.118C63.2066 80.2686 63.0077 80.4608 62.8556 80.6981C62.1573 81.785 62.6592 83.3531 63.9777 84.2002C64.9457 84.8222 66.0827 84.8803 66.8967 84.4388C66.609 84.4537 66.327 84.4443 66.0548 84.4076Z" fill="#D2ACD1"/>
<path d="M70.2148 84.4021C70.0517 83.1198 71.1793 81.9204 72.7339 81.7222C74.2885 81.5245 75.681 82.4028 75.8443 83.6854C76.0069 84.9673 74.8793 86.1676 73.3252 86.3648C71.7706 86.5633 70.3781 85.6842 70.2148 84.4021Z" fill="#155AA9"/>
<path d="M75.7334 83.2424C75.6848 83.3469 75.6347 83.4501 75.5833 83.5513C75.1954 84.3136 74.718 85.0383 73.8605 85.3125C72.9894 85.5915 71.9723 85.5608 71.1239 85.2141C70.7961 85.08 70.4284 84.8165 70.23 84.4971C70.4481 85.7274 71.8095 86.5583 73.3252 86.3648C74.8793 86.1674 76.0071 84.9673 75.8443 83.6854C75.8251 83.5313 75.7875 83.3835 75.7334 83.2424Z" fill="#249FDA"/>
<path d="M86.5126 74.6644C85.7959 76.0276 84.9396 77.3139 83.9454 78.4849C82.419 80.2823 80.5271 81.8416 78.3537 82.7894C75.7581 83.921 72.6648 84.7078 69.8336 84.1825C67.2202 83.6974 64.7171 82.0847 63.2422 79.8595C61.8981 77.829 61.4852 75.3879 61.8145 72.9976C61.9963 71.6791 62.3478 70.3342 63.05 69.1904C63.7431 68.0619 64.6725 67.1213 65.7113 66.3073C66.9029 65.3727 68.1224 64.4474 69.3505 63.5611C69.7005 63.3081 70.058 63.072 70.4232 62.8484C62.4455 63.5776 56.2378 69.2435 56.2378 76.126C56.2378 83.5032 63.3701 89.484 72.1687 89.484C80.9661 89.484 88.0239 84.799 88.0239 77.4224C88.0239 76.1118 87.4896 75.2642 86.5126 74.6644Z" fill="#DEDFE0"/>
<path d="M59.8686 90.5719C60.8009 90.6011 61.8046 89.9051 61.8327 89.0081C61.8609 88.1121 60.9026 87.3545 59.9703 87.3254C59.7848 87.3191 59.6065 87.3431 59.4375 87.3914V87.3907C59.4375 87.3907 59.4293 87.3947 59.4131 87.3994C59.3727 87.4109 59.3321 87.4243 59.2924 87.4393C58.8158 87.5931 57.2796 88.0431 56.5457 87.7088C56.5457 87.7088 57.6037 90.0015 59.3413 90.4734V90.4729C59.5066 90.5308 59.6833 90.5662 59.8686 90.5719Z" fill="#FFD145"/>
<path d="M59.8686 90.5719C60.6144 90.5951 61.4052 90.1538 61.7059 89.5171C61.206 89.6136 60.6813 89.6321 60.2049 89.6243C59.441 89.6114 58.6124 89.5356 58.0083 89.0126C57.6299 88.6845 57.3858 88.2829 57.2679 87.8287C56.9939 87.8302 56.7417 87.7978 56.546 87.7088C56.546 87.7088 57.604 90.0015 59.3415 90.4734V90.4729C59.5066 90.5308 59.6833 90.5662 59.8686 90.5719Z" fill="#FDDAC6"/>
<path d="M64.7547 90.3872L64.8283 88.0378C64.8283 88.0378 75.4697 87.8279 82.6314 88.8092C84.546 89.0714 84.8581 89.839 84.8581 89.839C84.8581 89.839 84.5859 90.6322 82.6197 90.8451C75.3151 91.6367 64.7547 90.3872 64.7547 90.3872Z" fill="#155AA9"/>
<path d="M82.6197 90.8451C84.5858 90.632 84.8581 89.839 84.8581 89.839C84.8581 89.839 84.8469 89.8108 84.8152 89.7635C83.1202 90.1197 81.4076 90.3969 79.6797 90.5151C77.5974 90.6572 75.5031 90.5649 73.4192 90.4989C72.326 90.4647 71.2329 90.4238 70.1405 90.375C69.3083 90.3373 68.4131 90.3882 67.6096 90.1294C67.0445 89.9474 66.3933 89.6333 66.1961 89.0223C66.0899 88.6932 66.0807 88.3584 66.1057 88.0236C65.2989 88.0291 64.8285 88.0383 64.8285 88.0383L64.755 90.3877C64.7547 90.3872 75.3151 91.6366 82.6197 90.8451Z" fill="#67B0CE"/>
<path d="M61.6189 89.6867L61.659 88.3998L64.829 88.0251L64.7552 90.3822L61.6189 89.6867Z" fill="#FDE1D3"/>
<path d="M64.7717 89.8519C63.5823 89.7881 62.2583 89.4855 62.1484 88.342L61.659 88.3998L61.6189 89.6867L64.7552 90.3822L64.7717 89.8519Z" fill="#FEEDE3"/>
<path d="M87.196 71.6697H84.5113V77.3962H87.196V71.6697Z" fill="#5BB1E3"/>
<path d="M94.4729 64.041C94.4729 68.7527 90.6532 72.5721 85.9418 72.5721C81.2306 72.5721 77.4111 68.7527 77.4111 64.041C77.4111 59.3296 81.2303 55.5101 85.9418 55.5101C90.6532 55.5101 94.4729 59.3293 94.4729 64.041Z" fill="#155AA9"/>
<path d="M92.5899 64.041C92.5899 67.7129 89.6136 70.6892 85.9418 70.6892C82.2704 70.6892 79.2936 67.7129 79.2936 64.041C79.2936 60.3689 82.2704 57.3926 85.9418 57.3926C89.6136 57.3926 92.5899 60.3689 92.5899 64.041Z" fill="#5BB1E3"/>
<path d="M87.4178 73.665H84.3139V88.7573H87.4178V73.665Z" fill="#EF5695"/>
</g>
<defs>
<clipPath id="clip0_22_10877">
<rect width="106" height="106" fill="white"/>
</clipPath>
</defs>
</svg>
