<svg width="426" height="117" viewBox="0 0 426 117" fill="none" xmlns="http://www.w3.org/2000/svg">
<path d="M43.7169 115.793C43.7169 115.793 44.9854 115.774 47.3751 115.756C49.7648 115.738 53.2758 115.719 57.7244 115.682C66.6399 115.627 79.379 115.554 94.6733 115.499C102.32 115.462 110.593 115.425 119.361 115.407C128.111 115.388 137.358 115.351 146.916 115.333C156.475 115.315 166.347 115.296 176.365 115.296C186.402 115.296 196.586 115.278 206.788 115.278C216.972 115.278 227.175 115.296 237.211 115.296C247.248 115.296 257.12 115.333 266.66 115.333C276.219 115.351 285.447 115.37 294.216 115.407C302.966 115.425 311.256 115.462 318.903 115.499C334.198 115.554 346.937 115.627 355.852 115.682C360.319 115.719 363.812 115.738 366.202 115.756C368.591 115.774 369.86 115.793 369.86 115.793C369.86 115.793 368.591 115.793 366.202 115.811C363.812 115.83 360.319 115.848 355.852 115.885C346.918 115.94 334.198 116.014 318.903 116.069C311.256 116.106 302.984 116.142 294.216 116.161C285.447 116.179 276.219 116.216 266.66 116.234C257.101 116.253 247.23 116.271 237.211 116.271C227.175 116.271 216.991 116.29 206.788 116.29C196.586 116.29 186.421 116.271 176.365 116.271C166.328 116.271 156.457 116.234 146.916 116.234C137.358 116.216 128.111 116.198 119.361 116.161C110.593 116.142 102.32 116.106 94.6733 116.069C79.3974 116.014 66.6399 115.94 57.7244 115.885C53.2574 115.848 49.7648 115.83 47.3751 115.811C45.0037 115.793 43.7169 115.793 43.7169 115.793Z" fill="#989898"/>
<path d="M200.777 10.1401H198.479V115.793H200.777V10.1401Z" fill="url(#paint0_linear_175_10136)"/>
<path d="M201.09 15.4377C200.41 15.4377 198.204 15.4377 198.149 15.4377C198.093 15.4377 197.983 15.4377 197.983 15.2354C197.983 14.4077 197.983 11.3911 197.983 11.3175C197.983 11.244 198.002 11.1704 198.149 11.1704C198.277 11.1704 200.52 11.1704 201.108 11.1704C201.274 11.1704 201.274 11.2807 201.274 11.3727C201.274 11.4463 201.274 14.4077 201.274 15.2354C201.274 15.3641 201.255 15.4377 201.09 15.4377Z" fill="url(#paint1_linear_175_10136)"/>
<path d="M199.619 10.6367C200.726 10.6367 201.623 9.76382 201.623 8.68702C201.623 7.61022 200.726 6.7373 199.619 6.7373C198.513 6.7373 197.615 7.61022 197.615 8.68702C197.615 9.76382 198.513 10.6367 199.619 10.6367Z" fill="url(#paint2_radial_175_10136)"/>
<path opacity="0.3" d="M199.619 6.7373C199.582 6.7373 199.546 6.7373 199.491 6.7373C200.41 6.79249 201.127 7.52822 201.127 8.4479C201.127 9.38597 200.336 10.1585 199.38 10.1585C198.461 10.1585 197.707 9.45954 197.634 8.55825C197.634 8.59504 197.634 8.63184 197.634 8.68702C197.634 9.77224 198.535 10.6367 199.638 10.6367C200.74 10.6367 201.641 9.75385 201.641 8.68702C201.623 7.62019 200.74 6.7373 199.619 6.7373Z" fill="url(#paint3_radial_175_10136)"/>
<path d="M200.851 8.44789C200.851 9.2756 200.171 9.93776 199.325 9.93776C198.479 9.93776 197.799 9.2756 197.799 8.44789C197.799 7.62017 198.479 6.95801 199.325 6.95801C200.152 6.95801 200.851 7.62017 200.851 8.44789Z" fill="url(#paint4_radial_175_10136)"/>
<path d="M200.777 15.4375H198.479V18.3437H200.777V15.4375Z" fill="url(#paint5_linear_175_10136)"/>
<path d="M200.777 86.4551H198.479V90.5385H200.777V86.4551Z" fill="url(#paint6_linear_175_10136)"/>
<path d="M200.777 10.3423H198.479V11.17H200.777V10.3423Z" fill="url(#paint7_linear_175_10136)"/>
<path opacity="0.8" d="M199.638 11.1704H198.388V15.4377H199.638V11.1704Z" fill="url(#paint8_linear_175_10136)"/>
<path d="M32.0256 81.7094C32.0256 80.2747 32.0256 26.8782 32.0256 24.5606C32.0256 21.9303 32.8712 20.8818 36.272 20.8818C39.2683 20.8818 380.062 20.8818 381.919 20.8818C383.775 20.8818 385.54 21.2313 385.54 24.6157C385.54 28.0002 385.54 78.6561 385.54 82.2796C385.54 85.9032 382.452 86.1791 380.908 86.1791C379.364 86.1791 39.2867 86.1791 35.9043 86.1791C32.5403 86.1975 32.0256 83.1441 32.0256 81.7094Z" fill="#D2C5DA"/>
<path opacity="0.5" d="M385.559 82.2983C385.559 78.6747 385.559 28.0187 385.559 24.6343C385.559 21.2499 383.794 20.9004 381.937 20.9004C380.081 20.9004 39.2868 20.9004 36.2904 20.9004C32.8897 20.9004 32.044 21.9672 32.044 24.5791C32.044 26.8967 32.044 80.2934 32.044 81.7281C32.044 83.1628 32.5587 86.1977 35.9228 86.1977C39.3051 86.1977 379.382 86.1977 380.926 86.1977C382.47 86.1977 385.559 85.9034 385.559 82.2983ZM36.1433 85.5171C32.8345 85.5171 32.3381 82.5006 32.3381 81.0843C32.3381 79.668 32.3381 27.1174 32.3381 24.8182C32.3381 22.2063 33.1838 21.1579 36.511 21.1579C39.4522 21.1579 379.768 21.1579 381.588 21.1579C383.408 21.1579 385.136 21.5074 385.136 24.8551C385.136 28.2027 385.136 78.0494 385.136 81.6361C385.136 85.2229 382.121 85.4987 380.595 85.4987C379.088 85.5171 39.4522 85.5171 36.1433 85.5171Z" fill="#00A9A2"/>
<path opacity="0.5" d="M33.8455 79.7601V26.4922C33.8455 23.5492 35.0404 22.5376 38.5882 22.5376H379.731C381.79 22.5376 383.647 22.8503 383.647 26.529V80.1832C383.647 81.5627 383.297 82.5743 382.58 83.2549C381.588 84.2114 380.172 84.2113 379.253 84.1929H379.088H38.2573C33.8454 84.2113 33.8455 80.8637 33.8455 79.7601ZM381.717 27.044C381.717 24.6712 381.073 24.6713 379.492 24.6713H38.8271C36.0881 24.6713 35.794 25.1495 35.794 27.0072V79.2635C35.794 81.066 36.2352 82.0961 38.4962 82.0961H379.033C379.805 82.0961 380.65 82.0961 381.165 81.6179C381.533 81.25 381.717 80.6062 381.717 79.6865V27.044Z" fill="#BCBCBC"/>
<path d="M34.3051 79.5945V26.6761C34.3051 23.9171 35.3713 23.0342 38.6985 23.0342H379.639C381.239 23.0342 383.206 23.0342 383.206 26.7129V80.0176C383.206 81.3235 382.893 82.2432 382.25 82.8686C381.349 83.7331 380.081 83.7331 379.161 83.7147H378.996H38.3676C34.7278 83.7331 34.3051 81.3603 34.3051 79.5945ZM382.195 26.7129C382.195 24.0274 381.239 24.0275 379.639 24.0275H38.6985C35.7573 24.0275 35.3161 24.616 35.3161 26.6761V79.5945C35.3161 81.4891 35.8308 82.7398 38.3676 82.7398H379.161C379.952 82.7398 380.926 82.7398 381.533 82.1696C381.974 81.7466 382.195 81.0292 382.195 80.0176V26.7129Z" fill="#232020"/>
<path d="M65.9965 34.6951C69.0848 34.2168 73.2025 33.9409 77.4673 33.9409C84.3607 33.9409 88.6806 35.063 92.2468 37.5277C96.199 40.2499 98.7542 44.738 98.7542 51.3597C98.7542 58.6803 95.9785 63.4259 92.449 66.1481C88.4968 69.2383 82.6328 70.6362 75.5739 70.6362C70.9231 70.6362 67.8348 70.3235 65.9598 69.9924V34.6951H65.9965ZM75.6658 63.0028C76.1437 63.1132 77.0445 63.1132 77.6878 63.1132C83.9379 63.2236 88.5151 59.7472 88.5151 51.6356C88.5151 44.646 84.3423 41.3352 78.5886 41.3352C77.0444 41.3352 76.1253 41.4455 75.6474 41.5559V63.0028H75.6658Z" fill="#80637B"/>
<path d="M126.512 55.6821H113.589V62.3038H128.056V70.213H103.92V34.2168H127.302V42.0708H113.589V47.8832H126.512V55.6821Z" fill="#80637B"/>
<path d="M160.354 69.312C158.957 69.9558 155.611 70.8019 151.273 70.8019C137.817 70.8019 131.898 62.3592 131.898 52.7945C131.898 40.0845 141.181 33.6284 151.916 33.6284C156.089 33.6284 159.435 34.4193 160.942 35.2287L159.067 42.8068C157.468 42.163 155.28 41.5193 152.394 41.5193C146.843 41.5193 142.045 44.775 142.045 52.1508C142.045 58.7173 145.942 62.7823 152.56 62.7823C154.913 62.7823 157.523 62.304 159.012 61.7154L160.354 69.312Z" fill="#80637B"/>
<path d="M188.148 55.6821H175.226V62.3038H189.693V70.213H165.556V34.2168H188.939V42.0708H175.226V47.8832H188.148V55.6821Z" fill="#80637B"/>
<path d="M225.465 57.3375C225.355 53.2173 225.244 48.4166 225.3 42.8066H225.134C224.013 47.5521 222.524 52.9599 221.347 56.9145L217.763 69.459H210.244L207.193 56.9697C206.292 53.0702 205.171 47.7361 204.362 42.8066H204.252C204.031 47.8832 203.829 53.2173 203.663 57.3375L203.13 70.213H194.27L196.457 34.2168H209.435L211.844 43.8918C212.799 47.9016 213.866 52.7024 214.619 57.08H214.84C215.851 52.7024 217.027 47.6257 218.094 43.8366L220.759 34.2168H233.461L235.281 70.213H225.888L225.465 57.3375Z" fill="#80637B"/>
<path d="M241.237 34.6951C243.425 34.3272 248.167 33.9409 252.616 33.9409C257.745 33.9409 260.778 34.2536 263.609 35.7067C266.385 36.9943 268.462 39.6062 268.462 43.0825C268.462 46.1359 266.807 49.0605 262.598 50.6608V50.7711C267.028 52.0035 269.638 55.2591 269.638 59.5264C269.638 62.8925 268.039 65.5596 265.631 67.3805C262.91 69.4038 258.425 70.6362 250.741 70.6362C246.366 70.6362 243.222 70.3235 241.237 69.9924V34.6951ZM250.796 48.0488H252.708C256.826 48.0488 258.793 46.5957 258.793 44.3149C258.793 42.1813 257.193 40.8385 253.94 40.8385C252.34 40.8385 251.421 40.9489 250.796 41.0593V48.0488ZM250.796 63.4259C251.495 63.5362 252.34 63.5363 253.572 63.5363C256.77 63.5363 259.491 62.2487 259.491 59.1034C259.491 56.0501 256.715 54.8913 253.094 54.8913H250.796V63.4259Z" fill="#80637B"/>
<path d="M297.525 55.6821H284.602V62.3038H299.069V70.213H274.951V34.2168H298.333V42.0708H284.62V47.8832H297.543V55.6821H297.525Z" fill="#80637B"/>
<path d="M304.418 34.6951C307.139 34.272 311.256 33.9409 316.054 33.9409C321.551 33.9409 325.503 34.6951 328.223 36.7184C330.521 38.4842 331.79 41.0408 331.79 44.5724C331.79 49.0605 328.426 52.261 325.595 53.2726V53.4933C328.003 54.505 329.271 56.8042 330.19 59.8943C331.312 63.573 332.488 68.8152 333.187 70.2131H323.315C322.782 69.1463 321.881 66.3688 320.815 61.936C319.859 57.6135 318.517 56.6939 315.521 56.6939H313.977V70.2131H304.418V34.6951ZM313.977 49.8146H316.477C320.098 49.8146 322.194 47.9936 322.194 45.3266C322.194 42.6043 320.429 41.1145 317.231 41.0593C315.411 41.0593 314.455 41.1696 313.977 41.28V49.8146Z" fill="#80637B"/>
<path d="M19.3969 101.574C19.3969 101.574 24.8381 116.528 61.5296 115.204C61.5296 115.204 66.015 114.818 64.8936 113.641C63.7723 112.445 55.1325 111.397 54.7097 94.7319L19.3969 101.574Z" fill="#7E351E"/>
<path d="M60.7208 113.695C58.0002 112.629 55.6105 111.212 53.7906 108.858C51.7869 106.283 50.4266 103.138 49.4707 100.029C49.0479 98.6863 48.717 97.3252 48.4964 95.9272L19.4152 101.574C19.4152 101.574 24.8565 116.528 61.548 115.204C61.548 115.204 62.9819 115.075 64.0297 114.762C62.8348 114.523 61.6767 114.082 60.7208 113.695Z" fill="#FBA758"/>
<path d="M6.38201 95.2099C6.34525 95.9089 6.01436 96.4606 5.62832 96.4422C5.24229 96.4238 4.94821 95.8536 4.98498 95.1547C5.00336 94.4557 5.35258 93.9039 5.73861 93.9223C6.12465 93.9407 6.41878 94.5293 6.38201 95.2099Z" fill="#60290C"/>
<path d="M2.08046 92.9474C1.3084 93.2785 0.536309 93.1866 0.334101 92.7267C0.131893 92.2669 0.591508 91.6231 1.36357 91.292C2.13564 90.9609 2.90767 91.0529 3.10988 91.5127C3.31209 91.9542 2.85253 92.5979 2.08046 92.9474Z" fill="#60290C"/>
<path d="M4.72757 95.4122C4.19447 96.1295 3.42242 96.479 3.01801 96.1663C2.61359 95.872 2.72389 95.0259 3.25699 94.3086C3.79008 93.5912 4.56213 93.2417 4.96655 93.5544C5.37097 93.8487 5.26066 94.6948 4.72757 95.4122Z" fill="#60290C"/>
<path d="M2.92603 94.4558C2.24587 95.0444 1.43704 95.2284 1.08777 94.8421C0.756886 94.4558 1.03262 93.6649 1.71277 93.0763C2.39292 92.4877 3.20176 92.3037 3.55102 92.69C3.88191 93.0763 3.60618 93.8672 2.92603 94.4558Z" fill="#60290C"/>
<path d="M13.9556 70.397C10.1504 70.82 5.29746 84.3394 3.60626 89.8942C3.0364 90.0966 2.50328 90.4644 2.13563 90.9979C1.19812 92.3222 2.0437 93.3338 3.33048 94.2535C4.63564 95.1732 5.90404 95.6514 6.84155 94.3271C7.17244 93.8489 7.35628 93.3154 7.37466 92.782C9.21291 91.2922 11.4004 88.5331 12.007 87.7606C13.6247 85.7189 15.1505 83.5852 16.6395 81.4516C17.2277 80.6239 17.7976 79.7778 18.3674 78.9317C21.6763 73.947 17.2644 70.0291 13.9556 70.397Z" fill="#97472B"/>
<path d="M60.831 95.2099C60.8678 95.9089 61.1987 96.4606 61.5847 96.4422C61.9708 96.4238 62.2649 95.8536 62.2281 95.1547C62.1914 94.4557 61.8605 93.9039 61.4744 93.9223C61.0884 93.9407 60.7943 94.5293 60.831 95.2099Z" fill="#60290C"/>
<path d="M65.1142 92.9474C65.8863 93.2785 66.6583 93.1866 66.8605 92.7267C67.0627 92.2669 66.6032 91.6231 65.8311 91.292C65.059 90.9609 64.287 91.0529 64.0848 91.5127C63.901 91.9542 64.3605 92.5979 65.1142 92.9474Z" fill="#60290C"/>
<path d="M62.4855 95.4122C63.0186 96.1295 63.7906 96.479 64.1951 96.1663C64.5995 95.872 64.4892 95.0259 63.9561 94.3086C63.423 93.5912 62.6509 93.2417 62.2465 93.5544C61.8421 93.8487 61.9524 94.6948 62.4855 95.4122Z" fill="#60290C"/>
<path d="M64.2869 94.4558C64.9671 95.0444 65.7759 95.2284 66.1252 94.8421C66.4561 94.4558 66.1803 93.6649 65.5002 93.0763C64.82 92.4877 64.0112 92.3037 63.6619 92.69C63.331 93.0763 63.6068 93.8672 64.2869 94.4558Z" fill="#60290C"/>
<path d="M53.2574 70.397C57.0626 70.82 61.9156 84.3394 63.6252 89.8942C64.1951 90.0966 64.7282 90.4644 65.0958 90.9979C66.0333 92.3222 65.1877 93.3338 63.9009 94.2535C62.5958 95.1732 61.3274 95.6514 60.3899 94.3271C60.059 93.8489 59.8935 93.3154 59.8568 92.782C58.0185 91.2922 55.831 88.5331 55.2244 87.7606C53.6067 85.7189 52.081 83.5852 50.592 81.4516C50.0038 80.6239 49.4339 79.7778 48.8641 78.9317C45.5368 73.947 49.9486 70.0291 53.2574 70.397Z" fill="#97472B"/>
<path d="M20.2976 58.9565C19.7094 60.9614 17.7976 62.0466 16.0145 61.4028C14.2314 60.7591 13.2571 58.607 13.8453 56.6021C14.4152 54.5972 16.3454 53.4936 18.1101 54.1557C19.8932 54.7995 20.8675 56.9515 20.2976 58.9565Z" fill="#97472B"/>
<path d="M18.2755 59.9865C17.724 61.0533 16.4189 61.3476 15.3527 60.6487C14.2865 59.9497 13.8821 58.5334 14.4336 57.4666C14.985 56.3997 16.2902 56.1055 17.3564 56.8044C18.4042 57.5034 18.827 58.938 18.2755 59.9865Z" fill="#60290C"/>
<path d="M48.092 58.9565C48.6803 60.9614 50.5921 62.0466 52.3568 61.4028C54.1399 60.7591 55.1141 58.607 54.5259 56.6021C53.956 54.5972 52.0259 53.4936 50.2611 54.1557C48.4964 54.7995 47.5222 56.9515 48.092 58.9565Z" fill="#97472B"/>
<path d="M50.1325 59.9865C50.684 61.0533 51.9891 61.3476 53.0553 60.6487C54.1215 59.9497 54.5259 58.5334 53.9744 57.4666C53.423 56.3997 52.1178 56.1055 51.0516 56.8044C49.9854 57.5034 49.581 58.938 50.1325 59.9865Z" fill="#60290C"/>
<path d="M29.4521 97.7487L26.3271 94.0884C21.4373 88.7726 15.1321 89.5268 14.1578 91.5317L17.8895 112.132C16.9887 113.107 16.4373 114.174 16.4373 114.708C16.4373 115.848 18.9189 116.786 21.9888 116.786C25.0587 116.786 27.5403 115.866 27.5403 114.708C27.5403 114.689 27.5403 114.671 27.5403 114.652C27.5403 114.652 29.1396 107.865 29.8014 105.713C30.2426 104.315 32.2463 101.262 29.4521 97.7487Z" fill="#97472B"/>
<path d="M17.4851 115.903C17.4115 115.903 17.3564 115.848 17.338 115.793C17.1174 114.652 18.0733 113.714 18.1285 113.678C18.1836 113.622 18.2755 113.622 18.3307 113.678C18.3858 113.733 18.3858 113.825 18.3307 113.88C18.3307 113.88 17.4483 114.744 17.6321 115.738C17.6505 115.811 17.5953 115.885 17.5218 115.903C17.5034 115.903 17.5035 115.903 17.4851 115.903Z" fill="#60290C"/>
<path d="M19.1395 116.345C19.066 116.345 19.0108 116.289 18.9925 116.234C18.7719 115.094 19.7277 114.156 19.7829 114.119C19.838 114.064 19.9299 114.064 19.9851 114.119C20.0402 114.174 20.0402 114.266 19.9851 114.321C19.9851 114.321 19.1028 115.186 19.2866 116.179C19.305 116.253 19.2498 116.326 19.1762 116.345C19.1579 116.326 19.1395 116.345 19.1395 116.345Z" fill="#60290C"/>
<path d="M21.1983 116.786C21.1248 116.786 21.0696 116.731 21.0513 116.676C20.8674 115.664 21.713 114.818 21.7498 114.781C21.805 114.726 21.8968 114.726 21.952 114.781C22.0071 114.836 22.0071 114.928 21.952 114.983C21.952 114.983 21.1799 115.756 21.3454 116.602C21.3638 116.676 21.3086 116.749 21.2351 116.768C21.2167 116.786 21.2167 116.786 21.1983 116.786Z" fill="#60290C"/>
<path d="M39.7095 97.7487L42.8346 94.0884C47.7243 88.7726 54.0112 89.5268 55.0038 91.5317L51.2538 112.132C52.1545 113.107 52.706 114.174 52.706 114.708C52.706 115.848 50.2243 116.786 47.1544 116.786C44.0846 116.786 41.6029 115.866 41.6029 114.708C41.6029 114.689 41.6029 114.671 41.6029 114.652C41.6029 114.652 40.0036 107.865 39.3419 105.713C38.9191 104.315 36.9154 101.262 39.7095 97.7487Z" fill="#97472B"/>
<path d="M51.6766 115.903C51.7501 115.903 51.8053 115.848 51.8236 115.793C52.0442 114.652 51.0884 113.714 51.0332 113.678C50.9781 113.622 50.8861 113.622 50.831 113.678C50.7758 113.733 50.7758 113.825 50.831 113.88C50.831 113.88 51.7133 114.744 51.5295 115.738C51.5111 115.811 51.5663 115.885 51.6398 115.903C51.6582 115.903 51.6766 115.903 51.6766 115.903Z" fill="#60290C"/>
<path d="M50.0406 116.345C50.1141 116.345 50.1693 116.289 50.1877 116.234C50.4082 115.094 49.4523 114.156 49.3972 114.119C49.342 114.064 49.2501 114.064 49.195 114.119C49.1398 114.174 49.1398 114.266 49.195 114.321C49.195 114.321 50.0774 115.186 49.8935 116.179C49.8751 116.253 49.9303 116.326 50.0038 116.345C50.0222 116.326 50.0222 116.345 50.0406 116.345Z" fill="#60290C"/>
<path d="M47.9633 116.786C48.0369 116.786 48.092 116.731 48.1104 116.676C48.2942 115.664 47.4486 114.818 47.4119 114.781C47.3567 114.726 47.2648 114.726 47.2096 114.781C47.1545 114.836 47.1545 114.928 47.2096 114.983C47.2096 114.983 47.9817 115.756 47.8163 116.602C47.7979 116.676 47.8531 116.749 47.9266 116.768C47.945 116.786 47.9449 116.786 47.9633 116.786Z" fill="#60290C"/>
<path d="M57.3016 82.261C57.3016 98.1899 47.0993 107.074 34.5256 107.074C21.952 107.074 11.7497 98.1899 11.7497 82.261C11.7497 66.3322 21.952 47.2764 34.5256 47.2764C47.0993 47.2764 57.3016 66.3322 57.3016 82.261Z" fill="#A15030"/>
<path d="M53.717 87.7056C53.717 100.14 45.1324 107.074 34.5257 107.074C23.9189 107.074 15.3343 100.14 15.3343 87.7056C15.3343 75.2716 23.9189 60.3911 34.5257 60.3911C45.1324 60.3727 53.717 75.2532 53.717 87.7056Z" fill="#F5BA80"/>
<path d="M30.794 56.1971C30.794 57.2087 29.9668 58.0548 28.9374 58.0548C27.908 58.0548 27.0807 57.2271 27.0807 56.1971C27.0807 55.167 27.908 54.3394 28.9374 54.3394C29.9668 54.3394 30.794 55.167 30.794 56.1971Z" fill="#280E05"/>
<path d="M28.8087 55.6083C28.8087 55.921 28.5514 56.1785 28.2389 56.1785C27.9264 56.1785 27.669 55.921 27.669 55.6083C27.669 55.2956 27.9264 55.0381 28.2389 55.0381C28.5514 55.0381 28.8087 55.2956 28.8087 55.6083Z" fill="white"/>
<path d="M28.1653 56.8224C28.1653 56.9696 28.055 57.08 27.9079 57.08C27.7608 57.08 27.6506 56.9696 27.6506 56.8224C27.6506 56.6753 27.7608 56.5649 27.9079 56.5649C28.055 56.5833 28.1653 56.6937 28.1653 56.8224Z" fill="white"/>
<path d="M41.9522 56.1971C41.9522 57.2087 41.125 58.0548 40.0956 58.0548C39.0661 58.0548 38.239 57.2271 38.239 56.1971C38.239 55.167 39.0661 54.3394 40.0956 54.3394C41.125 54.3394 41.9522 55.167 41.9522 56.1971Z" fill="#280E05"/>
<path d="M39.9669 55.6083C39.9669 55.921 39.7095 56.1785 39.397 56.1785C39.0845 56.1785 38.8271 55.921 38.8271 55.6083C38.8271 55.2956 39.0845 55.0381 39.397 55.0381C39.7095 55.0381 39.9669 55.2956 39.9669 55.6083Z" fill="white"/>
<path d="M39.3235 56.8224C39.3235 56.9696 39.2132 57.08 39.0662 57.08C38.9191 57.08 38.8088 56.9696 38.8088 56.8224C38.8088 56.6753 38.9191 56.5649 39.0662 56.5649C39.2132 56.5833 39.3235 56.6937 39.3235 56.8224Z" fill="white"/>
<path d="M45.7757 62.0279C45.7757 64.9893 40.7389 69.79 34.5256 69.79C28.3123 69.79 23.2571 64.9893 23.2571 62.0279C23.2571 59.0666 28.294 56.6754 34.5256 56.6754C40.7389 56.657 45.7757 59.0666 45.7757 62.0279Z" fill="#FDCB95"/>
<path d="M39.8014 60.3725C39.8014 61.9728 37.4301 63.2787 34.5257 63.2787C31.6028 63.2787 29.2499 61.9728 29.2499 60.3725C29.2499 58.7723 31.6212 57.4663 34.5257 57.4663C37.4301 57.4663 39.8014 58.7723 39.8014 60.3725Z" fill="#60290C"/>
<path d="M33.3676 61.4025C33.3676 62.2302 32.9815 62.8924 32.522 62.8924C32.044 62.8924 31.6764 62.2302 31.6764 61.4025C31.6764 60.5748 32.0624 59.9126 32.522 59.9126C32.9815 59.9126 33.3676 60.5748 33.3676 61.4025Z" fill="#280E05"/>
<path d="M37.375 61.4025C37.375 62.2302 36.9889 62.8924 36.5294 62.8924C36.0698 62.8924 35.6838 62.2302 35.6838 61.4025C35.6838 60.5748 36.0698 59.9126 36.5294 59.9126C37.0073 59.9126 37.375 60.5748 37.375 61.4025Z" fill="#280E05"/>
<path d="M42.5956 65.8356C42.5405 65.7804 42.4485 65.7988 42.4118 65.854C42.375 65.8907 39.6176 69.4039 37.7058 68.613C35.7757 67.8037 34.6911 63.2789 34.6727 63.2421C34.6544 63.1869 34.5992 63.1317 34.544 63.1501C34.4889 63.1501 34.4154 63.1869 34.4154 63.2421C34.397 63.2973 33.3308 67.8037 31.3822 68.613C29.4705 69.4039 26.6947 65.8907 26.6763 65.854C26.6396 65.7988 26.5476 65.7804 26.4925 65.8356C26.4373 65.8724 26.4189 65.9643 26.4741 66.0195C26.5844 66.1482 28.8271 68.9993 30.794 68.9993C31.033 68.9993 31.2719 68.9625 31.4925 68.8705C33.1837 68.1716 34.2132 64.9894 34.5624 63.7755C34.8933 64.9894 35.9227 68.1716 37.6323 68.8705C37.8529 68.9625 38.0919 68.9993 38.3308 68.9993C40.2978 68.9993 42.5405 66.1482 42.6507 66.0195C42.6691 65.9643 42.6508 65.8908 42.5956 65.8356Z" fill="#60290C"/>
<path d="M25.1505 74.6462C25.0586 74.6462 25.0035 74.5727 25.0219 74.4991C25.5182 69.7536 30.0035 66.222 30.0403 66.1852C30.0954 66.13 30.1874 66.1484 30.2241 66.2036C30.2793 66.2588 30.2609 66.3507 30.2057 66.3875C30.169 66.4243 25.7756 69.8823 25.2792 74.5175C25.2792 74.5911 25.2241 74.6462 25.1505 74.6462Z" fill="#60290C"/>
<path d="M20.8308 71.9789C20.8124 71.9789 20.7756 71.9789 20.7572 71.9605C20.7021 71.9237 20.6653 71.8318 20.7205 71.7766C23.1653 67.8219 29.6544 65.3204 29.7279 65.302C29.8014 65.2836 29.8749 65.3021 29.8933 65.3756C29.9301 65.4492 29.8933 65.5227 29.8198 65.5595C29.7646 65.5779 23.3491 68.0427 20.9594 71.9238C20.9226 71.9605 20.8675 71.9789 20.8308 71.9789Z" fill="#60290C"/>
<path d="M18.8822 68.153C18.827 68.153 18.7902 68.1346 18.7719 68.0794C18.7351 68.0059 18.7535 67.9323 18.827 67.8955C22.7425 65.6515 29.1763 64.6398 29.2315 64.6398C29.305 64.6214 29.3786 64.6766 29.3786 64.7502C29.3969 64.8237 29.3418 64.8973 29.2683 64.8973C29.1947 64.9157 22.816 65.909 18.9556 68.1346C18.9373 68.153 18.9005 68.153 18.8822 68.153Z" fill="#60290C"/>
<path d="M25.794 63.9962C23.6616 63.9962 20.941 63.7203 19.452 62.5247C19.3969 62.4695 19.3785 62.3959 19.4336 62.3408C19.4888 62.2856 19.5623 62.2672 19.6175 62.3224C22.1359 64.3825 28.7168 63.5731 28.7903 63.5547C28.8639 63.5547 28.9374 63.5915 28.9374 63.6651C28.9374 63.7387 28.9006 63.8123 28.8271 63.8123C28.7168 63.8491 27.43 63.9962 25.794 63.9962Z" fill="#60290C"/>
<path d="M43.3677 74.6462C43.4596 74.6462 43.5147 74.5727 43.4963 74.4991C43 69.7536 38.5147 66.222 38.4779 66.1852C38.4227 66.13 38.3309 66.1484 38.2941 66.2036C38.239 66.2588 38.2573 66.3507 38.3125 66.3875C38.3492 66.4243 42.7427 69.8823 43.239 74.5175C43.239 74.5911 43.2941 74.6462 43.3677 74.6462Z" fill="#60290C"/>
<path d="M47.6876 71.9789C47.7059 71.9789 47.7427 71.9789 47.7611 71.9605C47.8163 71.9237 47.8346 71.8318 47.7979 71.7766C45.353 67.8219 38.864 65.3204 38.7904 65.302C38.7169 65.2836 38.6434 65.3021 38.6066 65.3756C38.5882 65.4492 38.625 65.5227 38.6801 65.5595C38.7537 65.5779 45.1508 68.0427 47.5405 71.9238C47.5957 71.9605 47.6324 71.9789 47.6876 71.9789Z" fill="#60290C"/>
<path d="M49.6361 68.153C49.6912 68.153 49.728 68.1346 49.7464 68.0794C49.7831 68.0059 49.7648 67.9323 49.6912 67.8955C45.7757 65.6515 39.3419 64.6398 39.2867 64.6398C39.2132 64.6214 39.1397 64.6766 39.1397 64.7502C39.1213 64.8237 39.1764 64.8973 39.25 64.8973C39.3235 64.9157 45.7023 65.909 49.5626 68.1346C49.581 68.153 49.5993 68.153 49.6361 68.153Z" fill="#60290C"/>
<path d="M42.7243 63.9962C44.8567 63.9962 47.5773 63.7203 49.0663 62.5247C49.1214 62.4695 49.1398 62.3959 49.0847 62.3408C49.0295 62.2856 48.956 62.2672 48.9008 62.3224C46.3824 64.3825 39.8015 63.5731 39.728 63.5547C39.6544 63.5547 39.5809 63.5915 39.5809 63.6651C39.5809 63.7387 39.6176 63.8123 39.6912 63.8123C39.8015 63.8491 41.0883 63.9962 42.7243 63.9962Z" fill="#60290C"/>
<path d="M388.775 110.164C383.628 108.637 379.915 106.117 377.691 102.641C374.603 97.8035 375.669 92.9292 375.705 92.7269C375.908 91.8072 376.827 91.2554 377.727 91.4577C378.628 91.6784 379.198 92.5797 378.996 93.481C378.978 93.5546 378.224 97.2701 380.558 100.875C382.654 104.131 386.588 106.375 392.231 107.552C400.761 109.355 406.092 106.099 409.051 103.046C413.261 98.7048 414.603 92.9476 414.235 91.4393C414.015 90.538 414.585 89.6184 415.485 89.3976C416.404 89.1769 417.305 89.7471 417.526 90.6484C417.893 92.1934 417.526 94.6766 416.551 97.3069C415.761 99.4221 414.235 102.549 411.46 105.4C407.912 109.06 401.57 112.96 391.533 110.845C390.577 110.661 389.658 110.421 388.775 110.164Z" fill="#D87C3E"/>
<path d="M418.206 84.1924C418.206 84.1924 413.206 86.3077 413.334 88.5701C413.334 88.5701 413.463 89.3978 414.125 89.968L412.857 89.361C412.857 89.361 411.974 91.2371 415.779 93.9594C415.779 93.9594 419.934 94.6952 420.688 91.2923L418.721 91.4946C418.721 91.4946 420.963 91.09 421.11 88.9563C421.257 86.8411 418.206 84.1924 418.206 84.1924Z" fill="#833817"/>
<path d="M419.989 76.5595C420.357 77.0561 420.963 77.2216 421.349 76.9457C421.735 76.6698 421.735 76.026 421.368 75.5294C421 75.0328 420.393 74.8673 420.007 75.1432C419.621 75.4375 419.621 76.0812 419.989 76.5595Z" fill="#DFA16A"/>
<path d="M423.868 75.051C424.346 75.6764 425.118 75.8972 425.614 75.5293C426.11 75.1614 426.11 74.3521 425.651 73.7267C425.173 73.0829 424.401 72.8806 423.905 73.2485C423.408 73.6164 423.408 74.4257 423.868 75.051Z" fill="#DFA16A"/>
<path d="M421.974 76.4122C422.452 77.056 423.243 77.2767 423.739 76.9088C424.235 76.541 424.254 75.7133 423.776 75.0695C423.298 74.4257 422.507 74.205 422.011 74.5729C421.496 74.9408 421.496 75.7685 421.974 76.4122Z" fill="#DFA16A"/>
<path d="M410.669 47.6632C416.423 48.307 422.857 60.741 424.419 65.6705C424.915 67.2339 427.489 72.844 424.732 74.9961C423.592 75.879 422.195 76.5043 420.798 76.2652C418.555 75.8606 414.051 70.2137 413.059 68.9446C411.073 66.4246 409.198 63.8311 407.379 61.2009C406.662 60.1708 405.963 59.1592 405.265 58.1292C401.202 52.0225 406.625 47.2034 410.669 47.6632Z" fill="#BA5E2A"/>
<path d="M418.776 74.4625C419.088 75.419 420.375 75.8789 421.662 75.4558C422.949 75.0511 423.739 73.9292 423.427 72.9543C423.114 71.9978 421.827 71.538 420.54 71.961C419.254 72.3841 418.463 73.5061 418.776 74.4625Z" fill="#DFA16A"/>
<path d="M342.084 76.5595C341.716 77.0561 341.11 77.2216 340.724 76.9457C340.338 76.6698 340.338 76.026 340.705 75.5294C341.073 75.0328 341.679 74.8673 342.065 75.1432C342.452 75.4375 342.47 76.0812 342.084 76.5595Z" fill="#DFA16A"/>
<path d="M338.205 75.051C337.727 75.6764 336.955 75.8972 336.459 75.5293C335.962 75.1614 335.962 74.3521 336.422 73.7267C336.9 73.0829 337.672 72.8806 338.168 73.2485C338.665 73.6164 338.683 74.4257 338.205 75.051Z" fill="#DFA16A"/>
<path d="M340.099 76.4122C339.621 77.056 338.83 77.2767 338.334 76.9088C337.837 76.541 337.819 75.7133 338.297 75.0695C338.775 74.4257 339.565 74.205 340.062 74.5729C340.576 74.9408 340.576 75.7685 340.099 76.4122Z" fill="#DFA16A"/>
<path d="M351.404 47.6632C345.65 48.307 339.216 60.741 337.654 65.6705C337.157 67.2339 334.584 72.844 337.341 74.9961C338.481 75.879 339.878 76.5043 341.275 76.2652C343.518 75.8606 348.021 70.2137 349.014 68.9446C350.999 66.4246 352.874 63.8311 354.694 61.2009C355.411 60.1708 356.11 59.1592 356.808 58.1292C360.871 52.0225 355.448 47.2034 351.404 47.6632Z" fill="#BA5E2A"/>
<path d="M343.297 74.4625C342.985 75.419 341.698 75.8789 340.411 75.4558C339.124 75.0511 338.334 73.9292 338.646 72.9543C338.959 71.9978 340.246 71.538 341.532 71.961C342.819 72.3841 343.61 73.5061 343.297 74.4625Z" fill="#DFA16A"/>
<path d="M383.187 84.1924H402.47L399.787 109.189C401.037 110.55 401.809 112.022 401.809 112.758C401.809 114.34 398.353 115.627 394.106 115.627C389.86 115.627 386.404 114.34 386.404 112.758C386.404 112.739 386.404 112.703 386.404 112.684L383.187 84.1924Z" fill="#BA5E2A"/>
<path d="M400.356 114.652C400.448 114.652 400.54 114.578 400.559 114.486C400.853 112.905 399.529 111.599 399.474 111.543C399.4 111.47 399.272 111.47 399.198 111.543C399.125 111.617 399.125 111.746 399.198 111.819C399.217 111.838 400.43 113.033 400.173 114.395C400.154 114.505 400.228 114.615 400.338 114.634C400.338 114.652 400.338 114.652 400.356 114.652Z" fill="#1D1D1B"/>
<path d="M398.077 115.241C398.169 115.241 398.261 115.167 398.279 115.075C398.573 113.493 397.25 112.188 397.195 112.132C397.121 112.059 396.992 112.059 396.919 112.132C396.845 112.206 396.845 112.335 396.919 112.408C396.937 112.427 398.15 113.622 397.893 114.983C397.875 115.094 397.948 115.204 398.059 115.222C398.04 115.241 398.059 115.241 398.077 115.241Z" fill="#1D1D1B"/>
<path d="M395.209 115.866C395.301 115.866 395.393 115.793 395.412 115.701C395.669 114.303 394.492 113.144 394.456 113.089C394.382 113.015 394.253 113.015 394.18 113.089C394.106 113.162 394.106 113.291 394.18 113.365C394.198 113.365 395.246 114.432 395.025 115.609C395.007 115.719 395.081 115.83 395.191 115.848C395.172 115.866 395.191 115.866 395.209 115.866Z" fill="#1D1D1B"/>
<path d="M378.886 84.1924H359.602L362.286 109.189C361.036 110.55 360.264 112.022 360.264 112.758C360.264 114.34 363.72 115.627 367.966 115.627C372.213 115.627 375.669 114.34 375.669 112.758C375.669 112.739 375.669 112.703 375.669 112.684L378.886 84.1924Z" fill="#BA5E2A"/>
<path d="M361.716 114.652C361.624 114.652 361.533 114.578 361.514 114.486C361.22 112.905 362.544 111.599 362.599 111.543C362.672 111.47 362.801 111.47 362.874 111.543C362.948 111.617 362.948 111.746 362.874 111.819C362.856 111.838 361.643 113.033 361.9 114.395C361.919 114.505 361.845 114.615 361.735 114.634C361.735 114.652 361.735 114.652 361.716 114.652Z" fill="#1D1D1B"/>
<path d="M363.996 115.241C363.904 115.241 363.812 115.167 363.794 115.075C363.499 113.493 364.823 112.188 364.878 112.132C364.952 112.059 365.08 112.059 365.154 112.132C365.227 112.206 365.227 112.335 365.154 112.408C365.135 112.427 363.922 113.622 364.18 114.983C364.198 115.094 364.124 115.204 364.014 115.222C364.033 115.241 364.014 115.241 363.996 115.241Z" fill="#1D1D1B"/>
<path d="M366.863 115.866C366.772 115.866 366.68 115.793 366.661 115.701C366.404 114.303 367.58 113.144 367.635 113.089C367.709 113.015 367.838 113.015 367.911 113.089C367.985 113.162 367.985 113.291 367.911 113.365C367.893 113.365 366.845 114.432 367.066 115.609C367.084 115.719 367.011 115.83 366.9 115.848C366.9 115.866 366.882 115.866 366.863 115.866Z" fill="#1D1D1B"/>
<path d="M416.276 66.8842C416.276 89.7843 400.504 102.549 381.036 102.549C361.569 102.549 345.797 89.7843 345.797 66.8842C345.797 43.9842 361.569 13.6348 381.036 13.6348C400.504 13.6348 416.276 43.9842 416.276 66.8842Z" fill="#D87C3E"/>
<path d="M406.551 83.2362C406.551 95.6335 395.136 102.549 381.036 102.549C366.937 102.549 355.521 95.6335 355.521 83.2362C355.521 70.8389 366.937 54.395 381.036 54.395C395.136 54.395 406.551 70.8389 406.551 83.2362Z" fill="#DFA16A"/>
<path d="M376.22 25.0206C376.22 26.4369 375.08 27.5773 373.665 27.5773C372.25 27.5773 371.11 26.4369 371.11 25.0206C371.11 23.6043 372.25 22.4639 373.665 22.4639C375.062 22.4639 376.22 23.6043 376.22 25.0206Z" fill="#5A4132"/>
<path d="M373.481 24.2296C373.481 24.671 373.132 25.0389 372.691 25.0389C372.25 25.0389 371.9 24.671 371.9 24.2296C371.9 23.7881 372.25 23.4386 372.691 23.4386C373.114 23.4203 373.481 23.7881 373.481 24.2296Z" fill="white"/>
<path d="M372.58 25.9037C372.58 26.0876 372.415 26.2532 372.231 26.2532C372.047 26.2532 371.882 26.0876 371.882 25.9037C371.882 25.7014 372.029 25.5542 372.231 25.5542C372.415 25.5542 372.58 25.7197 372.58 25.9037Z" fill="white"/>
<path d="M390.981 25.0206C390.981 26.4369 389.842 27.5773 388.426 27.5773C387.011 27.5773 385.871 26.4369 385.871 25.0206C385.871 23.6043 387.011 22.4639 388.426 22.4639C389.842 22.4639 390.981 23.6043 390.981 25.0206Z" fill="#5A4132"/>
<path d="M388.242 24.2296C388.242 24.671 387.893 25.0389 387.452 25.0389C387.011 25.0389 386.661 24.671 386.661 24.2296C386.661 23.7881 387.011 23.4386 387.452 23.4386C387.875 23.4203 388.242 23.7881 388.242 24.2296Z" fill="white"/>
<path d="M387.342 25.9037C387.342 26.0876 387.176 26.2532 386.992 26.2532C386.79 26.2532 386.643 26.0876 386.643 25.9037C386.643 25.7014 386.79 25.5542 386.992 25.5542C387.176 25.5542 387.342 25.7197 387.342 25.9037Z" fill="white"/>
<path d="M389.658 39.2017C389.658 44.8669 385.798 45.7314 381.036 45.7314C376.275 45.7314 372.415 44.8669 372.415 39.2017C372.415 33.5365 376.275 26.0503 381.036 26.0503C385.798 26.0687 389.658 33.5365 389.658 39.2017Z" fill="#DFA16A"/>
<path d="M377.746 45.4369C376.073 45.4369 374.621 43.8183 374.308 41.6111C374.29 41.5191 374.364 41.4272 374.455 41.4272C374.547 41.4088 374.621 41.4824 374.639 41.5743C374.933 43.6344 376.239 45.1243 377.746 45.1243C379.253 45.1243 380.558 43.6344 380.853 41.5743C380.871 41.4824 380.945 41.4272 381.036 41.4272C381.128 41.4455 381.183 41.5191 381.183 41.6111C380.871 43.8183 379.419 45.4369 377.746 45.4369Z" fill="#1D1D1B"/>
<path d="M384.327 45.4369C382.654 45.4369 381.202 43.8183 380.889 41.6111C380.871 41.5191 380.945 41.4272 381.036 41.4272C381.128 41.4088 381.22 41.4824 381.22 41.5743C381.514 43.6344 382.82 45.1243 384.327 45.1243C385.834 45.1243 387.139 43.6344 387.434 41.5743C387.452 41.4824 387.525 41.4272 387.617 41.4272C387.709 41.4455 387.764 41.5191 387.764 41.6111C387.452 43.8183 386.018 45.4369 384.327 45.4369Z" fill="#1D1D1B"/>
<path d="M385.889 39.9924C385.889 38.9624 383.72 38.7969 381.036 38.7969C378.353 38.7969 376.183 38.944 376.183 39.9924C376.183 41.0225 378.353 42.3837 381.036 42.3837C383.72 42.3837 385.889 41.0225 385.889 39.9924Z" fill="#212121"/>
<path d="M418.132 35.8726C417.489 32.5985 416.441 30.7592 415.614 29.7475C418.482 25.2227 416.551 15.4741 409.529 10.8021C404.07 7.17857 399.805 7.38093 397.709 7.84077C392.654 -1.1537 383.224 -0.142064 381.036 0.244202C378.867 -0.12367 369.437 -1.1537 364.363 7.84077C362.268 7.38093 358.003 7.16018 352.543 10.8021C345.521 15.4741 343.573 25.2227 346.459 29.7475C345.632 30.7408 344.602 32.5802 343.94 35.8726C342.874 41.2435 345.576 46.5961 351.257 48.3067C351.165 50.6243 351.496 54.1926 353.793 57.3563C357.047 61.8076 368.444 66.0933 374.584 63.886C375.614 65.9277 378.15 67.3809 381.11 67.3809C384.051 67.3809 386.569 65.9462 387.617 63.9413C393.794 66.0197 405.026 61.7524 408.261 57.3563C410.577 54.1926 410.89 50.6243 410.798 48.3067C416.496 46.5961 419.18 41.2435 418.132 35.8726ZM399.364 40.8573C396.128 43.3956 391.937 45.1982 388.04 46.6881C385.797 47.5526 383.445 48.2883 381.036 48.7297C378.628 48.2883 376.257 47.5526 374.033 46.6881C370.154 45.1982 365.963 43.3956 362.709 40.8573C361.661 40.0295 360.117 38.7604 360.135 37.3441C360.135 36.1669 361.018 35.1185 361.882 34.3275C364.014 32.3043 366.661 30.9247 369.088 29.2509C367.139 29.7659 363.003 30.8511 363.132 30.7224C364.584 29.2141 365.999 27.6875 367.764 26.5103C366.643 26.6574 364.143 27.1356 364.216 26.9885C365.393 24.726 371.937 17.8101 373.757 16.7984C375.926 15.6029 378.518 16.8536 380.595 18.4171C380.595 18.4171 380.908 18.7849 381.073 18.6562C381.239 18.7849 381.551 18.4171 381.551 18.4171C383.628 16.8352 386.22 15.6029 388.389 16.7984C390.209 17.8101 396.753 24.726 397.93 26.9885C398.003 27.154 395.503 26.6758 394.382 26.5103C396.147 27.7059 397.562 29.2141 399.014 30.7224C399.143 30.8695 395.007 29.7659 393.059 29.2509C395.485 30.9247 398.132 32.3043 400.264 34.3275C401.11 35.1369 401.992 36.1669 402.011 37.3441C401.956 38.7788 400.412 40.0295 399.364 40.8573Z" fill="#833817"/>
<path d="M368.169 17.2766C368.334 19.8885 362.874 22.3716 360.834 22.5003C358.775 22.6291 358.15 15.0877 362.985 12.6966C364.823 11.7769 368.003 14.6647 368.169 17.2766Z" fill="#E78316"/>
<path d="M366.937 18.5459C367.066 20.4405 363.095 22.2614 361.588 22.3534C360.099 22.4454 359.639 16.9641 363.15 15.2167C364.51 14.5545 366.827 16.6514 366.937 18.5459Z" fill="#CF600E"/>
<path d="M393.904 17.2766C393.739 19.8885 399.198 22.3716 401.239 22.5003C403.298 22.6291 403.923 15.0877 399.088 12.6966C397.25 11.7769 394.07 14.6647 393.904 17.2766Z" fill="#E78316"/>
<path d="M395.136 18.5459C395.007 20.4405 398.978 22.2614 400.485 22.3534C401.974 22.4454 402.434 16.9641 398.923 15.2167C397.562 14.5545 395.246 16.6514 395.136 18.5459Z" fill="#CF600E"/>
<defs>
<linearGradient id="paint0_linear_175_10136" x1="198.437" y1="62.968" x2="200.765" y2="62.968" gradientUnits="userSpaceOnUse">
<stop stop-color="#383537"/>
<stop offset="0.0449" stop-color="#545152"/>
<stop offset="0.1083" stop-color="#747273"/>
<stop offset="0.1691" stop-color="#8C8A8A"/>
<stop offset="0.2254" stop-color="#9A9898"/>
<stop offset="0.2732" stop-color="#9F9D9D"/>
<stop offset="0.2968" stop-color="#989696"/>
<stop offset="0.4334" stop-color="#767374"/>
<stop offset="0.5721" stop-color="#5B5859"/>
<stop offset="0.7119" stop-color="#474546"/>
<stop offset="0.8536" stop-color="#3C393B"/>
<stop offset="1" stop-color="#383537"/>
</linearGradient>
<linearGradient id="paint1_linear_175_10136" x1="197.925" y1="13.302" x2="201.252" y2="13.302" gradientUnits="userSpaceOnUse">
<stop stop-color="#383537"/>
<stop offset="0.0449" stop-color="#545152"/>
<stop offset="0.1083" stop-color="#747273"/>
<stop offset="0.1691" stop-color="#8C8A8A"/>
<stop offset="0.2254" stop-color="#9A9898"/>
<stop offset="0.2732" stop-color="#9F9D9D"/>
<stop offset="0.2968" stop-color="#989696"/>
<stop offset="0.4334" stop-color="#767374"/>
<stop offset="0.5721" stop-color="#5B5859"/>
<stop offset="0.7119" stop-color="#474546"/>
<stop offset="0.8536" stop-color="#3C393B"/>
<stop offset="1" stop-color="#383537"/>
</linearGradient>
<radialGradient id="paint2_radial_175_10136" cx="0" cy="0" r="1" gradientUnits="userSpaceOnUse" gradientTransform="translate(199.628 8.69188) scale(1.99807 1.9542)">
<stop stop-color="#9F9D9D"/>
<stop offset="0.1421" stop-color="#8C8A8B"/>
<stop offset="0.5298" stop-color="#5F5C5D"/>
<stop offset="0.8284" stop-color="#434041"/>
<stop offset="1" stop-color="#383537"/>
</radialGradient>
<radialGradient id="paint3_radial_175_10136" cx="0" cy="0" r="1" gradientUnits="userSpaceOnUse" gradientTransform="translate(199.628 8.69188) scale(1.99807 1.9542)">
<stop stop-color="#9F9D9D"/>
<stop offset="0.1421" stop-color="#8C8A8B"/>
<stop offset="0.5298" stop-color="#5F5C5D"/>
<stop offset="0.8284" stop-color="#434041"/>
<stop offset="1" stop-color="#383537"/>
</radialGradient>
<radialGradient id="paint4_radial_175_10136" cx="0" cy="0" r="1" gradientUnits="userSpaceOnUse" gradientTransform="translate(199.306 8.44091) scale(1.48671 1.45406)">
<stop stop-color="#878585"/>
<stop offset="0.0118" stop-color="#838282"/>
<stop offset="0.1821" stop-color="#555353"/>
<stop offset="0.3447" stop-color="#302F2F"/>
<stop offset="0.4954" stop-color="#161515"/>
<stop offset="0.6299" stop-color="#060606"/>
<stop offset="0.7346"/>
</radialGradient>
<linearGradient id="paint5_linear_175_10136" x1="199.629" y1="15.4633" x2="199.629" y2="18.3697" gradientUnits="userSpaceOnUse">
<stop stop-color="#505050"/>
<stop offset="0.0277" stop-color="#626262"/>
<stop offset="0.107" stop-color="#929292"/>
<stop offset="0.1861" stop-color="#B9B9B9"/>
<stop offset="0.2637" stop-color="#D8D8D8"/>
<stop offset="0.3394" stop-color="#EDEDED"/>
<stop offset="0.4121" stop-color="#FBFBFB"/>
<stop offset="0.4788" stop-color="white"/>
<stop offset="0.5497" stop-color="#FAFAFA"/>
<stop offset="0.6291" stop-color="#EDEDED"/>
<stop offset="0.7125" stop-color="#D6D6D6"/>
<stop offset="0.7989" stop-color="#B7B7B7"/>
<stop offset="0.8873" stop-color="#8F8F8F"/>
<stop offset="0.9764" stop-color="#5E5E5E"/>
<stop offset="1" stop-color="#505050"/>
</linearGradient>
<linearGradient id="paint6_linear_175_10136" x1="199.635" y1="86.4838" x2="199.635" y2="89.8068" gradientUnits="userSpaceOnUse">
<stop stop-color="#505050"/>
<stop offset="0.2588" stop-color="#8C8C8C"/>
<stop offset="0.5025" stop-color="#BEBEBE"/>
<stop offset="0.7151" stop-color="#E1E1E1"/>
<stop offset="0.8881" stop-color="#F7F7F7"/>
<stop offset="1" stop-color="white"/>
</linearGradient>
<linearGradient id="paint7_linear_175_10136" x1="199.629" y1="11.1566" x2="199.629" y2="10.3355" gradientUnits="userSpaceOnUse">
<stop stop-color="#505050"/>
<stop offset="0.2588" stop-color="#8C8C8C"/>
<stop offset="0.5025" stop-color="#BEBEBE"/>
<stop offset="0.7151" stop-color="#E1E1E1"/>
<stop offset="0.8881" stop-color="#F7F7F7"/>
<stop offset="1" stop-color="white"/>
</linearGradient>
<linearGradient id="paint8_linear_175_10136" x1="198.418" y1="13.3018" x2="199.599" y2="13.3018" gradientUnits="userSpaceOnUse">
<stop offset="0.1147"/>
<stop offset="0.208" stop-color="#242424"/>
<stop offset="0.3287" stop-color="#4C4C4C"/>
<stop offset="0.4244" stop-color="#656565"/>
<stop offset="0.4826" stop-color="#6E6E6E"/>
<stop offset="0.4886" stop-color="#6B6B6B"/>
<stop offset="0.6075" stop-color="#3D3D3D"/>
<stop offset="0.7131" stop-color="#1C1C1C"/>
<stop offset="0.8005" stop-color="#070707"/>
<stop offset="0.8588"/>
</linearGradient>
</defs>
</svg>
