<svg width="225" height="138" viewBox="0 0 225 138" fill="none" xmlns="http://www.w3.org/2000/svg">
<path d="M0.676636 137.471C0.676636 137.471 1.30164 137.453 2.45974 137.453C3.61784 137.434 5.3274 137.416 7.49654 137.379C11.8348 137.324 18.0297 137.251 25.4563 137.195C29.1696 137.159 33.1953 137.122 37.4601 137.103C41.7064 137.085 46.2101 137.048 50.8609 137.03C55.4933 137.011 60.3096 136.993 65.1809 136.993C70.0523 136.993 75.0156 136.975 79.9605 136.975C84.9054 136.975 89.8687 136.993 94.74 136.993C99.6114 136.993 104.409 137.03 109.06 137.03C113.711 137.048 118.196 137.067 122.461 137.103C126.707 137.122 130.733 137.159 134.446 137.195C141.873 137.251 148.068 137.324 152.406 137.379C154.575 137.416 156.266 137.434 157.443 137.453C158.601 137.471 159.226 137.471 159.226 137.471C159.226 137.471 158.601 137.49 157.443 137.508C156.285 137.526 154.575 137.545 152.406 137.582C148.068 137.637 141.873 137.71 134.446 137.766C130.733 137.802 126.707 137.839 122.461 137.858C118.196 137.876 113.711 137.913 109.06 137.931C104.428 137.949 99.6114 137.968 94.74 137.968C89.8687 137.968 84.9054 137.986 79.9605 137.986C75.0156 137.986 70.0523 137.968 65.1809 137.968C60.3096 137.968 55.5117 137.931 50.8609 137.931C46.2101 137.913 41.7248 137.894 37.4601 137.858C33.1953 137.839 29.1879 137.802 25.4563 137.766C18.0297 137.71 11.8348 137.637 7.49654 137.582C5.3274 137.545 3.63623 137.526 2.45974 137.508C1.30164 137.49 0.676636 137.471 0.676636 137.471Z" fill="#989898"/>
<path d="M84.9237 31.8369H82.6259V137.49H84.9237V31.8369Z" fill="url(#paint0_linear_175_10685)"/>
<path d="M85.2363 37.1159C84.5561 37.1159 82.3502 37.1159 82.2951 37.1159C82.2399 37.1159 82.1296 37.1159 82.1296 36.9136C82.1296 36.0859 82.1296 33.0693 82.1296 32.9958C82.1296 32.9222 82.148 32.8486 82.2951 32.8486C82.4238 32.8486 84.6664 32.8486 85.2546 32.8486C85.4201 32.8486 85.4201 32.9406 85.4201 33.0509C85.4201 33.1245 85.4201 36.0859 85.4201 36.9136C85.4385 37.0424 85.4017 37.1159 85.2363 37.1159Z" fill="url(#paint1_linear_175_10685)"/>
<path d="M85.7878 30.3836C85.7878 31.4688 84.887 32.3333 83.7841 32.3333C82.6811 32.3333 81.7804 31.4504 81.7804 30.3836C81.7804 29.2984 82.6811 28.4339 83.7841 28.4339C84.887 28.4155 85.7878 29.2984 85.7878 30.3836Z" fill="url(#paint2_radial_175_10685)"/>
<path opacity="0.3" d="M83.7841 28.4155C83.7473 28.4155 83.6922 28.4155 83.6554 28.4155C84.5745 28.4707 85.2915 29.2064 85.2915 30.1261C85.2915 31.0642 84.501 31.8367 83.5451 31.8367C82.626 31.8367 81.8723 31.1378 81.7988 30.2365C81.7988 30.2733 81.7988 30.3101 81.7988 30.3652C81.7988 31.4505 82.6995 32.315 83.8025 32.315C84.9054 32.315 85.8062 31.4321 85.8062 30.3652C85.7878 29.2984 84.887 28.4155 83.7841 28.4155Z" fill="url(#paint3_radial_175_10685)"/>
<path d="M84.9973 30.1261C84.9973 30.9538 84.3172 31.616 83.4716 31.616C82.626 31.616 81.9458 30.9538 81.9458 30.1261C81.9458 29.2984 82.626 28.6362 83.4716 28.6362C84.3172 28.6362 84.9973 29.2984 84.9973 30.1261Z" fill="url(#paint4_radial_175_10685)"/>
<path d="M84.9237 37.1157H82.6259V40.0219H84.9237V37.1157Z" fill="url(#paint5_linear_175_10685)"/>
<path d="M84.9422 108.133H82.6443V112.217H84.9422V108.133Z" fill="url(#paint6_linear_175_10685)"/>
<path d="M84.9237 32.0205H82.6259V32.8482H84.9237V32.0205Z" fill="url(#paint7_linear_175_10685)"/>
<path opacity="0.8" d="M83.7841 32.8486H82.5341V37.1159H83.7841V32.8486Z" fill="url(#paint8_linear_175_10685)"/>
<path d="M8.10315 103.406C8.10315 101.972 8.10315 48.5935 8.10315 46.2759C8.10315 43.6456 8.94874 42.5972 12.3495 42.5972C15.3459 42.5972 153.932 42.5972 155.788 42.5972C157.645 42.5972 159.41 42.965 159.41 46.3311C159.41 49.7155 159.41 100.371 159.41 103.995C159.41 107.619 156.322 107.894 154.777 107.894C153.233 107.894 15.3643 107.894 11.9819 107.894C8.59948 107.876 8.10315 104.841 8.10315 103.406Z" fill="#CBE57F"/>
<path opacity="0.5" d="M159.41 103.976C159.41 100.353 159.41 49.6969 159.41 46.3125C159.41 42.9281 157.645 42.5786 155.788 42.5786C153.932 42.5786 15.3459 42.5786 12.3495 42.5786C8.94874 42.5786 8.10315 43.6454 8.10315 46.2573C8.10315 48.5749 8.10315 101.972 8.10315 103.388C8.10315 104.823 8.61786 107.858 11.9819 107.858C15.3643 107.858 153.233 107.858 154.777 107.858C156.322 107.876 159.41 107.6 159.41 103.976ZM12.2208 107.195C8.91199 107.195 8.41565 104.179 8.41565 102.762C8.41565 101.346 8.41565 48.7957 8.41565 46.4965C8.41565 43.8846 9.26125 42.8361 12.5885 42.8361C15.5297 42.8361 153.638 42.8361 155.458 42.8361C157.277 42.8361 159.005 43.1856 159.005 46.5332C159.005 49.8809 159.005 99.7276 159.005 103.314C159.005 106.901 155.991 107.177 154.465 107.177C152.939 107.195 15.5297 107.195 12.2208 107.195Z" fill="#00A9A2"/>
<path opacity="0.5" d="M9.9231 101.438V48.1704C9.9231 45.2275 11.118 44.2158 14.6658 44.2158H153.601C155.66 44.2158 157.516 44.5285 157.516 48.2072V101.861C157.516 103.241 157.167 104.253 156.45 104.933C155.458 105.89 154.042 105.89 153.123 105.89H152.958H14.3349C9.92308 105.89 9.9231 102.542 9.9231 101.438ZM155.586 48.7407C155.586 46.3679 154.943 46.3679 153.362 46.3679H14.8864C12.1474 46.3679 11.8532 46.8461 11.8532 48.7039V100.96C11.8532 102.763 12.2944 103.793 14.5555 103.793H152.884C153.656 103.793 154.502 103.793 155.016 103.314C155.384 102.947 155.568 102.303 155.568 101.383V48.7407H155.586Z" fill="#BCBCBC"/>
<path d="M10.3643 101.273V48.3543C10.3643 45.5953 11.4304 44.7124 14.7577 44.7124H153.491C155.09 44.7124 157.057 44.7124 157.057 48.3911V101.696C157.057 103.002 156.744 103.921 156.101 104.547C155.2 105.411 153.932 105.411 153.013 105.393H152.847H14.4268C10.7871 105.411 10.3643 103.057 10.3643 101.273ZM156.046 48.3911C156.046 45.7057 155.09 45.7056 153.491 45.7056H14.7577C11.8165 45.7056 11.3753 46.2942 11.3753 48.3543V101.273C11.3753 103.167 11.89 104.418 14.4268 104.418H153.013C153.803 104.418 154.777 104.418 155.384 103.848C155.825 103.425 156.046 102.707 156.046 101.696V48.3911Z" fill="#232020"/>
<path d="M35.7688 57.8081H45.438V80.0276C45.438 90.4935 40.4196 94.393 31.7798 94.393C29.8129 94.393 27.1842 94.1355 25.3827 93.5469L26.4489 85.8032C27.6254 86.1159 29.1144 86.3918 30.6585 86.3918C33.7468 86.3918 35.7872 84.9939 35.7872 80.0276V57.8081H35.7688Z" fill="#00A45B"/>
<path d="M61.3941 57.8081V78.2066C61.3941 83.6511 63.2691 86.7597 67.0559 86.7597C70.8979 86.7597 72.7729 83.927 72.7729 78.2066V57.8081H82.4421V77.6732C82.4421 88.7829 76.8906 94.393 66.7986 94.393C56.9272 94.393 51.7433 89.0037 51.7433 77.4157V57.8081H61.3941Z" fill="#00A45B"/>
<path d="M89.023 57.8081H98.6922V85.748H112.516V93.8228H89.023V57.8081Z" fill="#00A45B"/>
<path d="M120.751 93.823V79.292L109.372 57.8267H120.42L123.472 65.9382C124.483 68.4582 125.126 70.2608 125.935 72.56H126.045C126.744 70.3711 127.479 68.403 128.343 65.9382L131.34 57.8267H142.167L130.365 78.9241V93.823H120.751Z" fill="#00A45B"/>
<path d="M200.219 105.815C200.219 105.815 204.962 117.017 201.12 125.956C201.12 125.956 208.032 116.686 204.484 105.815H200.219Z" fill="#332F26"/>
<path d="M200.348 129.377C200.348 129.377 204.851 127.612 204.796 125.588C204.796 125.588 204.539 124.466 203.969 123.951L205.237 124.908C205.237 124.908 206.561 123.657 203.252 121.119C203.252 121.119 199.079 119.96 198.307 122.976L200.072 122.848C200.072 122.848 198.05 123.142 197.884 125.055C197.682 126.931 200.348 129.377 200.348 129.377Z" fill="black"/>
<path d="M131.946 47.8202C131.946 47.8202 133.619 49.1262 136.156 50.5057C136.634 50.1194 137.149 49.9907 137.718 49.7332C137.902 49.6412 137.553 50.6712 137.498 51.2047C138.95 51.922 140.604 52.5842 142.351 53.0624C142.645 52.529 142.939 51.9956 143.288 51.499C143.417 51.315 143.711 52.7865 143.711 53.3751C144.41 53.5038 145.108 53.5958 145.807 53.651C146.064 53.1544 146.285 52.621 146.579 52.1243C146.671 51.9588 147.185 53.1728 147.241 53.6878C152.645 53.5406 157.902 50.1378 160.072 38.9177C160.072 38.8993 140.623 34.4113 131.946 47.8202Z" fill="#332F26"/>
<path d="M158.84 40.8306C158.84 40.8306 146.983 38.1083 137.498 46.2751C137.498 46.2567 152.59 58.139 158.84 40.8306Z" fill="#675357"/>
<path d="M223.583 47.8202C223.583 47.8202 221.91 49.1262 219.374 50.5057C218.896 50.1194 218.381 49.9907 217.811 49.7332C217.627 49.6412 217.977 50.6712 218.032 51.2047C216.579 51.922 214.925 52.5842 213.179 53.0624C212.885 52.529 212.59 51.9956 212.241 51.499C212.113 51.315 211.818 52.7865 211.818 53.3751C211.12 53.5038 210.421 53.5958 209.723 53.651C209.447 53.1544 209.245 52.621 208.951 52.1243C208.859 51.9588 208.344 53.1728 208.289 53.6878C202.885 53.5406 197.627 50.1378 195.458 38.9177C195.476 38.8993 214.925 34.4113 223.583 47.8202Z" fill="#332F26"/>
<path d="M196.69 40.8306C196.69 40.8306 208.546 38.1083 218.032 46.2751C218.05 46.2567 202.958 58.139 196.69 40.8306Z" fill="#675357"/>
<path d="M142.479 75.2639C142.479 75.2639 145.035 71.5116 148.472 71.1621C152.222 70.7758 155.586 74.9328 151.818 80.5428C149.465 84.056 141.744 90.9168 139.943 98.2191L136.799 96.0854L133.251 96.3797C133.251 96.3797 136.193 82.2718 142.479 75.2639Z" fill="#1E1D16"/>
<path d="M141.009 95.2209L134.079 93.0688C133.527 95.0738 133.251 96.3797 133.251 96.3797L136.799 96.0854L139.943 98.2191C140.182 97.2074 140.549 96.1958 141.009 95.2209Z" fill="#726F6D"/>
<path d="M215.477 75.2639C215.477 75.2639 212.903 71.5116 209.484 71.1621C205.734 70.7758 202.37 74.9328 206.138 80.5428C208.491 84.056 216.212 90.9168 218.013 98.2191L221.157 96.0854L224.705 96.3797C224.686 96.3797 221.745 82.2718 215.477 75.2639Z" fill="#1E1D16"/>
<path d="M216.947 95.2209L223.877 93.0688C224.429 95.0738 224.705 96.3797 224.705 96.3797L221.157 96.0854L218.013 98.2191C217.756 97.2074 217.388 96.1958 216.947 95.2209Z" fill="#726F6D"/>
<path d="M173.601 131.861L177.002 101.659H156.818L164.171 131.861H173.601Z" fill="#1E1D16"/>
<path d="M173.601 131.861H164.171L165.127 135.411H168.38L168.877 134.399L169.447 135.411H173.252L173.601 131.861Z" fill="#726F6D"/>
<path d="M180.936 101.659L184.337 131.861H193.767L201.12 101.659H180.936Z" fill="#1E1D16"/>
<path d="M184.337 131.861H193.767L192.811 135.411H189.576L189.061 134.399L188.491 135.411H184.686L184.337 131.861Z" fill="#726F6D"/>
<path d="M215.863 86.1161C215.863 110.083 199.355 123.437 178.987 123.437C158.619 123.437 142.112 110.083 142.112 86.1161C142.112 62.1492 158.619 30.4019 178.987 30.4019C199.337 30.4019 215.863 62.1492 215.863 86.1161Z" fill="#332F26"/>
<path d="M205.679 103.241C205.679 116.226 193.73 123.455 178.969 123.455C164.208 123.455 152.259 116.226 152.259 103.241C152.259 90.2547 164.208 73.0566 178.969 73.0566C193.73 73.0566 205.679 90.2547 205.679 103.241Z" fill="#51504E"/>
<path d="M204.484 55.6931C204.484 67.4098 193.105 76.9193 179.097 76.9193C165.09 76.9193 153.711 67.4098 153.711 55.6931C153.711 43.9763 165.09 28.5073 179.097 28.5073C193.105 28.5073 204.484 43.9763 204.484 55.6931Z" fill="#424039"/>
<path d="M169.336 48.0778C169.336 49.2366 168.399 50.1747 167.241 50.1747C166.083 50.1747 165.145 49.2366 165.145 48.0778C165.145 46.919 166.083 45.981 167.241 45.981C168.399 45.981 169.336 46.919 169.336 48.0778Z" fill="black"/>
<path d="M167.094 47.4158C167.094 47.7836 166.8 48.0779 166.432 48.0779C166.064 48.0779 165.789 47.7836 165.789 47.4158C165.789 47.0479 166.083 46.772 166.432 46.772C166.8 46.772 167.094 47.0663 167.094 47.4158Z" fill="white"/>
<path d="M166.358 48.7953C166.358 48.9608 166.23 49.0896 166.083 49.0896C165.917 49.0896 165.789 48.9608 165.789 48.7953C165.789 48.6297 165.917 48.501 166.083 48.501C166.23 48.5194 166.358 48.6481 166.358 48.7953Z" fill="white"/>
<path d="M191.671 48.0778C191.671 49.2366 190.734 50.1747 189.575 50.1747C188.417 50.1747 187.48 49.2366 187.48 48.0778C187.48 46.919 188.417 45.981 189.575 45.981C190.734 45.981 191.671 46.919 191.671 48.0778Z" fill="black"/>
<path d="M189.428 47.4158C189.428 47.7836 189.134 48.0779 188.767 48.0779C188.399 48.0779 188.105 47.7836 188.105 47.4158C188.105 47.0479 188.399 46.772 188.767 46.772C189.134 46.772 189.428 47.0663 189.428 47.4158Z" fill="white"/>
<path d="M188.693 48.7953C188.693 48.9608 188.564 49.0896 188.399 49.0896C188.234 49.0896 188.105 48.9608 188.105 48.7953C188.105 48.6297 188.234 48.501 188.399 48.501C188.564 48.5194 188.693 48.6481 188.693 48.7953Z" fill="white"/>
<path d="M179.079 32.2042C179.116 30.6776 179.392 28.6911 178.362 27.6058C176.671 25.8033 173.619 25.6193 171.34 25.7665C168.197 25.9504 165.219 27.2564 162.112 27.6426C160.347 27.8633 158.472 27.6242 156.873 26.7965C152.976 24.81 153.307 21.0209 153.362 17.2502C153.362 17.2502 153.693 13.2956 150.77 17.986C147.866 22.6212 147.755 29.8866 150.844 34.5034C151.616 35.6622 152.81 36.8578 154.024 37.5384C159.042 40.3894 165.77 41.0883 171.377 39.9479C175.182 39.1938 178.95 36.8578 179.079 32.2042Z" fill="#726F6D"/>
<path d="M179.024 32.2042C178.987 30.6776 178.711 28.6911 179.741 27.6058C181.432 25.8033 184.484 25.6193 186.763 25.7665C189.906 25.9504 192.884 27.2564 195.991 27.6426C197.756 27.8633 199.631 27.6242 201.23 26.7965C205.127 24.81 204.796 21.0209 204.741 17.2502C204.741 17.2502 204.41 13.2956 207.333 17.986C210.237 22.6212 210.348 29.8866 207.26 34.5034C206.487 35.6622 205.293 36.8578 204.079 37.5384C199.061 40.3894 192.333 41.0883 186.726 39.9479C182.921 39.1938 179.153 36.8578 179.024 32.2042Z" fill="#726F6D"/>
<path d="M194.153 68.7523C193.638 69.1202 192.958 69.157 192.462 69.1386C190.678 71.8425 185.274 76.3305 178.877 76.3305C172.48 76.3305 167.075 71.8425 165.292 69.1386C164.796 69.157 164.134 69.1202 163.619 68.7523C162.719 68.1086 163.656 67.5568 164.667 67.3176C164.667 67.3176 175.384 64.3011 192.792 67.2625C192.903 67.2809 193.013 67.2992 193.105 67.3176C194.116 67.5568 195.054 68.1086 194.153 68.7523Z" fill="#5E5A58"/>
<path d="M195.182 67.5934C194.649 66.8576 193.932 66.7656 193.399 66.8208C191.524 61.3947 185.825 55.895 179.079 55.895C172.351 55.895 166.652 61.3763 164.777 66.8208C164.263 66.7656 163.546 66.8576 163.013 67.5934C162.057 68.8809 163.049 69.9845 164.116 70.4628C164.116 70.4628 175.403 76.5143 193.748 70.5547C193.877 70.5363 193.987 70.4995 194.079 70.4628C195.127 69.9845 196.12 68.8809 195.182 67.5934Z" fill="#726F6D"/>
<path d="M169.759 61.9465C170.108 61.9281 169.465 63.234 169.41 63.3628C168.95 64.3561 169.281 65.662 170.384 65.7907C170.77 65.8275 172.939 65.9379 173.307 66.2506C174.134 66.9679 174.153 69.5247 173.233 70.0581C172.425 70.5179 169.594 68.8809 168.417 67.0231C166.597 64.1353 169.649 61.9465 169.759 61.9465Z" fill="#1E1D16"/>
<path d="M188.454 61.9465C188.105 61.9281 188.748 63.234 188.803 63.3628C189.263 64.3561 188.932 65.662 187.829 65.7907C187.443 65.8275 185.274 65.9379 184.906 66.2506C184.079 66.9679 184.061 69.5247 184.98 70.0581C185.789 70.5179 188.62 68.8809 189.796 67.0231C191.616 64.1353 188.564 61.9465 188.454 61.9465Z" fill="#1E1D16"/>
<path d="M20.7871 42.652V38.0352C20.7871 37.5754 20.4195 37.2075 19.9599 37.2075C19.5003 37.2075 19.1327 37.5754 19.1327 38.0352V42.3761C19.3533 43.0751 20.1621 42.9831 20.7871 42.652Z" fill="#E08820"/>
<path d="M18.8018 43.0568C18.7651 42.8545 18.5445 41.8245 17.6437 41.5118C17.0187 41.291 16.357 41.5118 15.6584 42.1556C15.1253 42.6338 14.629 43.1672 14.2246 43.7558C13.8385 44.2892 13.4525 45.025 13.765 45.6871C13.9488 46.0918 14.4635 46.147 14.8128 45.8895C15.1988 45.5952 15.3092 45.025 15.5849 44.6203C15.9158 44.1421 16.3202 43.7374 16.743 43.3511C16.9268 43.1856 17.0371 43.112 17.1106 43.0752C17.1474 43.1488 17.1842 43.2592 17.2025 43.3327C17.2761 43.7742 17.6989 44.0685 18.1401 43.9765C18.5996 43.9213 18.8938 43.4983 18.8018 43.0568Z" fill="#F3A436"/>
<path d="M20.254 42.9833C20.1805 42.7993 19.7209 41.8429 18.7834 41.7509C18.14 41.6773 17.5334 42.0452 17.0003 42.8177C15.787 44.5835 15.7135 45.5584 15.7135 45.7423C15.7135 45.7423 15.6584 46.4045 16.2834 46.4965C16.8349 46.57 17.1106 46.2205 17.3128 45.7607C17.3128 45.7607 17.3128 45.7791 17.3128 45.7975C17.4415 45.0618 17.901 44.3444 18.3238 43.7374C18.4525 43.5351 18.5628 43.4431 18.618 43.3879C18.6731 43.4431 18.7283 43.5351 18.765 43.627C18.9489 44.0317 19.4084 44.2157 19.8128 44.0501C20.2356 43.8662 20.4378 43.3879 20.254 42.9833Z" fill="#FDB73B"/>
<path d="M21.9084 42.9832C21.7981 42.8177 21.1915 41.9532 20.2356 42.0084C19.5739 42.0636 19.0591 42.5234 18.6731 43.3695C17.8459 45.1905 17.8827 46.1653 17.901 46.4228C17.901 46.4228 17.8643 46.9563 18.4341 47.1034C19.004 47.2506 19.5739 46.9011 19.5187 46.0734C19.5371 45.7975 19.6474 45.1353 20.1437 44.0317C20.2356 43.8109 20.3275 43.7006 20.3643 43.6454C20.4194 43.7006 20.5114 43.7742 20.5481 43.8477C20.7871 44.2156 21.2834 44.326 21.6695 44.0868C22.0555 43.8477 22.1474 43.3511 21.9084 42.9832Z" fill="#F3A436"/>
<path d="M25.0519 42.652V38.0352C25.0519 37.5754 25.4195 37.2075 25.8791 37.2075C26.3387 37.2075 26.7063 37.5754 26.7063 38.0352V42.3761C26.5041 43.0751 25.6769 42.9831 25.0519 42.652Z" fill="#E08820"/>
<path d="M27.0373 43.0568C27.074 42.8545 27.2946 41.8245 28.1954 41.5118C28.8204 41.291 29.4821 41.5118 30.1807 42.1556C30.7138 42.6338 31.2101 43.1672 31.6145 43.7558C32.0005 44.2892 32.3866 45.025 32.0741 45.6871C31.8902 46.0918 31.3755 46.147 31.0263 45.8895C30.6402 45.5952 30.5299 45.025 30.2542 44.6203C29.9233 44.1421 29.5189 43.7374 29.0961 43.3511C28.9123 43.1856 28.802 43.112 28.7285 43.0752C28.6917 43.1488 28.6549 43.2592 28.6365 43.3327C28.563 43.7742 28.1402 44.0685 27.699 43.9765C27.2579 43.9213 26.9637 43.4983 27.0373 43.0568Z" fill="#F3A436"/>
<path d="M25.6034 42.9833C25.6769 42.7993 26.1365 41.8429 27.074 41.7509C27.7174 41.6773 28.324 42.0452 28.857 42.8177C30.0703 44.5835 30.1438 45.5584 30.1438 45.7423C30.1438 45.7423 30.199 46.4045 29.574 46.4965C29.0225 46.57 28.7468 46.2205 28.5445 45.7607C28.5445 45.7607 28.5445 45.7791 28.5445 45.7975C28.4159 45.0618 27.9563 44.3444 27.5335 43.7374C27.4049 43.5351 27.2945 43.4431 27.2394 43.3879C27.1843 43.4431 27.1291 43.5351 27.0923 43.627C26.9085 44.0317 26.4489 44.2157 26.0445 44.0501C25.6217 43.8662 25.4195 43.3879 25.6034 42.9833Z" fill="#FDB73B"/>
<path d="M23.9306 42.9832C24.0408 42.8177 24.6475 41.9532 25.6034 42.0084C26.2468 42.0636 26.7798 42.5234 27.1659 43.3695C27.9931 45.1905 27.9563 46.1653 27.9379 46.4228C27.9379 46.4228 27.9747 46.9563 27.4048 47.1034C26.835 47.2506 26.2651 46.9011 26.3203 46.0734C26.3019 45.7975 26.1916 45.1353 25.6953 44.0317C25.6034 43.8109 25.5115 43.7006 25.4563 43.6454C25.4012 43.7006 25.3092 43.7742 25.2725 43.8477C25.0335 44.2156 24.5372 44.326 24.1511 44.0868C23.8019 43.8477 23.6916 43.3511 23.9306 42.9832Z" fill="#F3A436"/>
<path d="M39.5006 38.3847C39.5006 38.3847 35.2542 37.9249 32.8093 33.8047C32.2946 35.0003 31.5042 36.0487 30.7137 37.0972C30.0703 37.9433 29.4085 38.7894 28.6365 39.5435C29.3718 40.5184 30.5115 41.6036 32.2395 42.6888C32.2395 42.6888 31.9086 41.8979 31.7064 41.3093C31.7064 41.3093 33.6365 43.2958 35.2909 43.2774C35.2909 43.2774 34.0777 41.9898 33.6733 41.1621C33.6733 41.1621 35.9895 42.7256 37.3682 41.9347C37.3682 41.9347 36.1733 41.0702 35.6035 40.2976C36.4123 40.3712 37.1476 40.4816 37.6623 40.2424C37.6623 40.2424 36.541 39.7826 35.8424 39.194C35.824 39.1572 38.563 39.6539 39.5006 38.3847Z" fill="#77533E"/>
<path d="M38.8205 25.1412C38.8205 35.4784 31.7064 41.2172 22.9196 41.2172C14.1327 41.2172 7.01868 35.46 7.01868 25.1412C7.01868 14.804 13.9305 2.35156 22.7173 2.35156C31.5042 2.35156 38.8205 14.804 38.8205 25.1412Z" fill="#896751"/>
<path d="M33.8939 31.1926C33.8939 37.6304 28.8387 41.2171 22.6254 41.2171C16.3937 41.2171 11.3569 37.6304 11.3569 31.1926C11.3569 24.7548 16.4121 16.2202 22.6254 16.2202C28.8387 16.2386 33.8939 24.7548 33.8939 31.1926Z" fill="#FDF0D2"/>
<path d="M29.7026 7.99819L30.7504 8.43965C29.4269 3.95161 24.6474 4.48501 24.6474 4.48501L22.9195 4.63216L21.1915 4.48501C21.1915 4.48501 16.412 3.95161 15.0885 8.43965L16.1363 7.99819C16.1363 7.99819 14.5002 9.26734 14.8127 11.8976L15.6584 10.9779C15.6584 10.9779 14.8495 12.0816 15.5113 13.6082C16.1547 15.0797 20.9893 12.3207 22.8275 14.6751H23.0114C24.8496 12.3207 29.6842 15.0797 30.3276 13.6082C30.9894 12.0816 30.1805 10.9779 30.1805 10.9779L31.0262 11.8976C31.3387 9.26734 29.7026 7.99819 29.7026 7.99819Z" fill="#FDF0D2"/>
<path d="M27.6071 3.69433C30.5299 3.32646 31.3387 -0.591396 29.0777 0.806518C26.4122 2.46194 23.5445 2.27802 22.9379 2.36999C22.3313 2.29641 19.4636 2.46194 16.7981 0.806518C14.5371 -0.591396 15.3459 3.34485 18.2687 3.69433C18.2687 3.69433 14.9047 3.63914 15.3459 4.26452C15.732 4.81633 17.9379 5.09223 19.0224 5.03705C18.3055 5.1842 16.8533 5.57047 17.4783 5.95673C18.2687 6.43497 21.835 5.46011 22.9011 8.91811H22.9747C24.0225 5.46011 27.6071 6.45336 28.3975 5.95673C29.0225 5.57047 27.5703 5.2026 26.8534 5.03705C27.9563 5.09223 30.1438 4.81633 30.5299 4.26452C30.9711 3.62075 27.6071 3.69433 27.6071 3.69433Z" fill="#977255"/>
<path d="M20.7504 8.0538C20.7504 8.69757 20.2357 9.2126 19.5923 9.2126C18.9489 9.2126 18.4342 8.69757 18.4342 8.0538C18.4342 7.41002 18.9489 6.89502 19.5923 6.89502C20.2357 6.89502 20.7504 7.42842 20.7504 8.0538Z" fill="#301D13"/>
<path d="M19.5188 7.70429C19.5188 7.90662 19.3533 8.07219 19.1511 8.07219C18.9489 8.07219 18.7834 7.90662 18.7834 7.70429C18.7834 7.50196 18.9489 7.33643 19.1511 7.33643C19.3533 7.33643 19.5188 7.50196 19.5188 7.70429Z" fill="white"/>
<path d="M19.1143 8.4585C19.1143 8.55047 19.0408 8.62404 18.9489 8.62404C18.857 8.62404 18.7834 8.55047 18.7834 8.4585C18.7834 8.36654 18.857 8.29297 18.9489 8.29297C19.0408 8.29297 19.1143 8.36654 19.1143 8.4585Z" fill="white"/>
<path d="M27.4049 8.0538C27.4049 8.69757 26.8902 9.2126 26.2468 9.2126C25.6034 9.2126 25.0887 8.69757 25.0887 8.0538C25.0887 7.41002 25.6034 6.89502 26.2468 6.89502C26.8902 6.89502 27.4049 7.42842 27.4049 8.0538Z" fill="#301D13"/>
<path d="M26.1733 7.70429C26.1733 7.90662 26.0078 8.07219 25.8056 8.07219C25.6034 8.07219 25.438 7.90662 25.438 7.70429C25.438 7.50196 25.6034 7.33643 25.8056 7.33643C26.0078 7.33643 26.1733 7.50196 26.1733 7.70429Z" fill="white"/>
<path d="M25.7689 8.4585C25.7689 8.55047 25.6954 8.62404 25.6035 8.62404C25.5116 8.62404 25.4564 8.55047 25.4564 8.4585C25.4564 8.36654 25.53 8.29297 25.6035 8.29297C25.6954 8.29297 25.7689 8.36654 25.7689 8.4585Z" fill="white"/>
<path d="M13.3422 18.2254C13.3606 16.9379 13.2503 15.3008 12.5518 14.1788C10.787 11.383 8.15833 14.1604 7.037 15.6135C4.84948 18.4645 3.67301 22.9894 4.55538 26.8336C4.90464 28.3603 6.85317 32.7196 8.78334 33.7864C8.83848 33.8048 8.37892 30.402 8.37892 30.2548C8.3973 30.2548 9.79439 34.6877 9.62894 30.8067C9.59218 30.0525 9.51864 28.8201 9.53703 27.9556C9.68409 28.1948 10.1069 29.8502 10.4378 29.9422C10.4929 29.9605 10.5848 25.8036 10.5297 25.4909C10.64 25.6564 11.3937 26.9256 11.4304 26.9072C11.7062 26.6313 11.7981 20.6901 11.7797 20.5798C11.9268 21.2787 12.901 22.787 12.9194 22.7686C13.2871 22.4192 13.3238 19.2003 13.3422 18.2254Z" fill="#977255"/>
<path d="M32.9748 22.8053C32.9932 22.8236 33.9675 21.3154 34.1145 20.6164C34.1145 20.7084 34.1881 26.6679 34.4638 26.9438C34.4822 26.9622 35.2543 25.693 35.3645 25.5275C35.3094 25.8586 35.4013 29.9971 35.4565 29.9787C35.7874 29.8684 36.2101 28.2313 36.3572 27.9922C36.3756 28.8383 36.3021 30.0891 36.2653 30.8432C36.0815 34.7243 37.4969 30.3098 37.5153 30.2914C37.5153 30.4386 37.0557 33.8414 37.1109 33.823C39.041 32.7562 40.9896 28.3969 41.3389 26.8702C42.2212 23.026 41.0447 18.5011 38.8572 15.6501C37.7359 14.197 35.0888 11.4196 33.3425 14.2154C32.6439 15.3374 32.5336 16.9561 32.552 18.262C32.5153 19.2001 32.552 22.419 32.9748 22.8053Z" fill="#977255"/>
<path d="M24.9049 10.555C24.9049 10.555 24.2799 8.75243 22.8644 8.91797C21.449 9.08351 20.9526 10.9965 20.9526 10.9965C20.9526 10.9965 21.5409 13.9026 22.9196 16.0363C22.9196 16.0547 24.5372 13.0933 24.9049 10.555Z" fill="#DA722F"/>
<path d="M24.9049 10.5367C24.9049 10.5367 24.3535 8.47659 22.938 8.62373C21.5226 8.77088 20.9711 10.9229 20.9711 10.9229C20.9711 10.9229 21.5593 13.075 22.938 14.804C22.9196 14.7856 24.5373 12.5968 24.9049 10.5367Z" fill="#F3A436"/>
<defs>
<linearGradient id="paint0_linear_175_10685" x1="82.5914" y1="84.6512" x2="84.9197" y2="84.6512" gradientUnits="userSpaceOnUse">
<stop stop-color="#383537"/>
<stop offset="0.0449" stop-color="#545152"/>
<stop offset="0.1083" stop-color="#747273"/>
<stop offset="0.1691" stop-color="#8C8A8A"/>
<stop offset="0.2254" stop-color="#9A9898"/>
<stop offset="0.2732" stop-color="#9F9D9D"/>
<stop offset="0.2968" stop-color="#989696"/>
<stop offset="0.4334" stop-color="#767374"/>
<stop offset="0.5721" stop-color="#5B5859"/>
<stop offset="0.7119" stop-color="#474546"/>
<stop offset="0.8536" stop-color="#3C393B"/>
<stop offset="1" stop-color="#383537"/>
</linearGradient>
<linearGradient id="paint1_linear_175_10685" x1="82.0796" y1="34.9869" x2="85.406" y2="34.9869" gradientUnits="userSpaceOnUse">
<stop stop-color="#383537"/>
<stop offset="0.0449" stop-color="#545152"/>
<stop offset="0.1083" stop-color="#747273"/>
<stop offset="0.1691" stop-color="#8C8A8A"/>
<stop offset="0.2254" stop-color="#9A9898"/>
<stop offset="0.2732" stop-color="#9F9D9D"/>
<stop offset="0.2968" stop-color="#989696"/>
<stop offset="0.4334" stop-color="#767374"/>
<stop offset="0.5721" stop-color="#5B5859"/>
<stop offset="0.7119" stop-color="#474546"/>
<stop offset="0.8536" stop-color="#3C393B"/>
<stop offset="1" stop-color="#383537"/>
</linearGradient>
<radialGradient id="paint2_radial_175_10685" cx="0" cy="0" r="1" gradientUnits="userSpaceOnUse" gradientTransform="translate(83.7824 30.3774) scale(1.99807 1.9542)">
<stop stop-color="#9F9D9D"/>
<stop offset="0.1421" stop-color="#8C8A8B"/>
<stop offset="0.5298" stop-color="#5F5C5D"/>
<stop offset="0.8284" stop-color="#434041"/>
<stop offset="1" stop-color="#383537"/>
</radialGradient>
<radialGradient id="paint3_radial_175_10685" cx="0" cy="0" r="1" gradientUnits="userSpaceOnUse" gradientTransform="translate(83.7824 30.3774) scale(1.99809 1.9542)">
<stop stop-color="#9F9D9D"/>
<stop offset="0.1421" stop-color="#8C8A8B"/>
<stop offset="0.5298" stop-color="#5F5C5D"/>
<stop offset="0.8284" stop-color="#434041"/>
<stop offset="1" stop-color="#383537"/>
</radialGradient>
<radialGradient id="paint4_radial_175_10685" cx="0" cy="0" r="1" gradientUnits="userSpaceOnUse" gradientTransform="translate(83.4598 30.1256) scale(1.48635 1.45371)">
<stop stop-color="#878585"/>
<stop offset="0.0118" stop-color="#838282"/>
<stop offset="0.1821" stop-color="#555353"/>
<stop offset="0.3447" stop-color="#302F2F"/>
<stop offset="0.4954" stop-color="#161515"/>
<stop offset="0.6299" stop-color="#060606"/>
<stop offset="0.7346"/>
</radialGradient>
<linearGradient id="paint5_linear_175_10685" x1="83.7833" y1="37.1472" x2="83.7833" y2="40.0534" gradientUnits="userSpaceOnUse">
<stop stop-color="#505050"/>
<stop offset="0.0277" stop-color="#626262"/>
<stop offset="0.107" stop-color="#929292"/>
<stop offset="0.1861" stop-color="#B9B9B9"/>
<stop offset="0.2637" stop-color="#D8D8D8"/>
<stop offset="0.3394" stop-color="#EDEDED"/>
<stop offset="0.4121" stop-color="#FBFBFB"/>
<stop offset="0.4788" stop-color="white"/>
<stop offset="0.5497" stop-color="#FAFAFA"/>
<stop offset="0.6291" stop-color="#EDEDED"/>
<stop offset="0.7125" stop-color="#D6D6D6"/>
<stop offset="0.7989" stop-color="#B7B7B7"/>
<stop offset="0.8873" stop-color="#8F8F8F"/>
<stop offset="0.9764" stop-color="#5E5E5E"/>
<stop offset="1" stop-color="#505050"/>
</linearGradient>
<linearGradient id="paint6_linear_175_10685" x1="83.7896" y1="108.169" x2="83.7896" y2="111.492" gradientUnits="userSpaceOnUse">
<stop stop-color="#505050"/>
<stop offset="0.2588" stop-color="#8C8C8C"/>
<stop offset="0.5025" stop-color="#BEBEBE"/>
<stop offset="0.7151" stop-color="#E1E1E1"/>
<stop offset="0.8881" stop-color="#F7F7F7"/>
<stop offset="1" stop-color="white"/>
</linearGradient>
<linearGradient id="paint7_linear_175_10685" x1="83.7831" y1="32.8424" x2="83.7831" y2="32.0211" gradientUnits="userSpaceOnUse">
<stop stop-color="#505050"/>
<stop offset="0.2588" stop-color="#8C8C8C"/>
<stop offset="0.5025" stop-color="#BEBEBE"/>
<stop offset="0.7151" stop-color="#E1E1E1"/>
<stop offset="0.8881" stop-color="#F7F7F7"/>
<stop offset="1" stop-color="white"/>
</linearGradient>
<linearGradient id="paint8_linear_175_10685" x1="82.5721" y1="34.9869" x2="83.753" y2="34.9869" gradientUnits="userSpaceOnUse">
<stop offset="0.1147"/>
<stop offset="0.208" stop-color="#242424"/>
<stop offset="0.3287" stop-color="#4C4C4C"/>
<stop offset="0.4244" stop-color="#656565"/>
<stop offset="0.4826" stop-color="#6E6E6E"/>
<stop offset="0.4886" stop-color="#6B6B6B"/>
<stop offset="0.6075" stop-color="#3D3D3D"/>
<stop offset="0.7131" stop-color="#1C1C1C"/>
<stop offset="0.8005" stop-color="#070707"/>
<stop offset="0.8588"/>
</linearGradient>
</defs>
</svg>
