<svg width="277" height="142" viewBox="0 0 277 142" fill="none" xmlns="http://www.w3.org/2000/svg">
<path d="M21.2981 140.893C21.2981 140.893 21.8864 140.893 23.0077 140.874C24.129 140.856 25.7651 140.837 27.8423 140.801C31.9968 140.745 37.9343 140.672 45.0667 140.617C48.6329 140.58 52.4933 140.543 56.5742 140.525C60.6551 140.506 64.9566 140.47 69.4236 140.451C73.8722 140.433 78.4862 140.414 83.1553 140.414C87.8245 140.414 92.5856 140.396 97.3283 140.396C102.089 140.396 106.832 140.414 111.52 140.414C116.189 140.414 120.803 140.451 125.251 140.451C129.7 140.47 134.02 140.488 138.101 140.525C142.182 140.543 146.042 140.58 149.608 140.617C156.741 140.672 162.678 140.745 166.833 140.801C168.91 140.837 170.546 140.856 171.667 140.874C172.789 140.893 173.377 140.893 173.377 140.893C173.377 140.893 172.789 140.911 171.667 140.929C170.546 140.948 168.928 140.966 166.833 141.003C162.678 141.058 156.741 141.132 149.608 141.187C146.042 141.224 142.182 141.261 138.101 141.279C134.02 141.297 129.718 141.334 125.251 141.352C120.803 141.371 116.189 141.389 111.52 141.389C106.832 141.389 102.089 141.408 97.3283 141.408C92.5856 141.408 87.8245 141.389 83.1553 141.389C78.4862 141.389 73.8722 141.352 69.4236 141.352C64.975 141.334 60.6551 141.316 56.5742 141.279C52.4933 141.261 48.6329 141.224 45.0667 141.187C37.9343 141.132 31.9968 141.058 27.8423 141.003C25.7651 140.966 24.129 140.948 23.0077 140.929C21.9047 140.911 21.2981 140.893 21.2981 140.893Z" fill="#989898"/>
<path d="M98.9091 35.2397H96.6113V140.874H98.9091V35.2397Z" fill="url(#paint0_linear_175_10789)"/>
<path d="M99.2216 40.5373C98.5415 40.5373 96.3356 40.5373 96.2804 40.5373C96.2253 40.5373 96.115 40.5189 96.115 40.335C96.115 39.5073 96.115 36.4907 96.115 36.4172C96.115 36.3436 96.1334 36.27 96.2804 36.27C96.4091 36.27 98.6518 36.27 99.24 36.27C99.4055 36.27 99.4055 36.362 99.4055 36.454C99.4055 36.5275 99.4055 39.5073 99.4055 40.335C99.4055 40.4638 99.3871 40.5373 99.2216 40.5373Z" fill="url(#paint1_linear_175_10789)"/>
<path d="M99.7548 33.7866C99.7548 34.8719 98.854 35.7364 97.7511 35.7364C96.6481 35.7364 95.7474 34.8535 95.7474 33.7866C95.7474 32.7014 96.6481 31.8369 97.7511 31.8369C98.8724 31.8369 99.7548 32.7198 99.7548 33.7866Z" fill="url(#paint2_radial_175_10789)"/>
<path opacity="0.3" d="M97.7694 31.8369C97.7326 31.8369 97.6959 31.8369 97.6408 31.8369C98.5415 31.8921 99.2768 32.6462 99.2768 33.5475C99.2768 34.504 98.4864 35.2581 97.5305 35.2581C96.6114 35.2581 95.8576 34.5592 95.7841 33.6579C95.7841 33.6947 95.7841 33.7315 95.7841 33.7866C95.7841 34.8719 96.6849 35.7364 97.7878 35.7364C98.8908 35.7364 99.7915 34.8535 99.7915 33.7866C99.7547 32.7198 98.8724 31.8369 97.7694 31.8369Z" fill="url(#paint3_radial_175_10789)"/>
<path d="M98.9827 33.5475C98.9827 34.3752 98.3025 35.0374 97.4569 35.0374C96.6113 35.0374 95.9312 34.3752 95.9312 33.5475C95.9312 32.7198 96.6113 32.0576 97.4569 32.0576C98.3025 32.0576 98.9827 32.7198 98.9827 33.5475Z" fill="url(#paint4_radial_175_10789)"/>
<path d="M98.9091 40.5371H96.6113V43.4433H98.9091V40.5371Z" fill="url(#paint5_linear_175_10789)"/>
<path d="M98.9091 111.555H96.6113V115.638H98.9091V111.555Z" fill="url(#paint6_linear_175_10789)"/>
<path d="M98.9091 35.4419H96.6113V36.2696H98.9091V35.4419Z" fill="url(#paint7_linear_175_10789)"/>
<path opacity="0.8" d="M97.7694 36.27H96.5194V40.5373H97.7694V36.27Z" fill="url(#paint8_linear_175_10789)"/>
<path d="M3.68762 106.828C3.68762 105.393 3.68762 51.9963 3.68762 49.6787C3.68762 47.0484 4.53324 46 7.93401 46C10.9304 46 204.664 46 206.52 46C208.377 46 210.142 46.3495 210.142 49.7339C210.142 53.1183 210.142 103.774 210.142 107.398C210.142 111.021 207.054 111.297 205.509 111.297C203.965 111.297 10.9487 111.297 7.56634 111.297C4.20233 111.297 3.68762 108.262 3.68762 106.828Z" fill="#AB93D1"/>
<path opacity="0.5" d="M210.16 107.398C210.16 103.774 210.16 53.1183 210.16 49.7339C210.16 46.3495 208.396 46 206.539 46C204.682 46 10.9488 46 7.95242 46C4.55165 46 3.70605 47.0668 3.70605 49.6787C3.70605 51.9963 3.70605 105.393 3.70605 106.828C3.70605 108.262 4.20238 111.297 7.58477 111.297C10.9672 111.297 203.984 111.297 205.528 111.297C207.072 111.297 210.16 111.003 210.16 107.398ZM7.80535 110.617C4.4965 110.617 4.00018 107.6 4.00018 106.184C4.00018 104.768 4.00018 52.217 4.00018 49.9178C4.00018 47.3059 4.84576 46.2575 8.173 46.2575C11.1142 46.2575 204.37 46.2575 206.19 46.2575C208.01 46.2575 209.737 46.607 209.737 49.9546C209.737 53.3023 209.737 103.149 209.737 106.736C209.737 110.322 206.723 110.598 205.197 110.598C203.671 110.598 11.1326 110.617 7.80535 110.617Z" fill="#91BD4A"/>
<path opacity="0.5" d="M5.52588 104.86V51.5918C5.52588 48.6489 6.72075 47.6372 10.2686 47.6372H204.351C206.41 47.6372 208.267 47.9499 208.267 51.6286V105.283C208.267 106.662 207.918 107.674 207.201 108.354C206.208 109.311 204.793 109.311 203.873 109.293H203.708H9.9377C5.5259 109.311 5.52588 105.963 5.52588 104.86ZM206.337 52.1436C206.337 49.7709 205.693 49.7709 204.112 49.7709H10.4892C7.75019 49.7709 7.45605 50.2491 7.45605 52.1069V104.363C7.45605 106.166 7.89723 107.196 10.1583 107.196H203.634C204.407 107.196 205.252 107.196 205.767 106.717C206.134 106.35 206.318 105.706 206.318 104.786V52.1436H206.337Z" fill="#BCBCBC"/>
<path d="M5.96704 104.694V51.7757C5.96704 49.0167 7.03323 48.1338 10.3605 48.1338H204.241C205.84 48.1338 207.807 48.1338 207.807 51.8125V105.117C207.807 106.423 207.495 107.343 206.851 107.968C205.951 108.833 204.682 108.833 203.763 108.833H203.598H10.0296C6.38985 108.833 5.96704 106.478 5.96704 104.694ZM206.796 51.8125C206.796 49.127 205.84 49.127 204.241 49.127H10.3605C7.41926 49.127 6.97809 49.7156 6.97809 51.7757V104.694C6.97809 106.589 7.4928 107.839 10.0296 107.839H203.763C204.554 107.839 205.528 107.839 206.134 107.269C206.576 106.846 206.796 106.129 206.796 105.117V51.8125Z" fill="#232020"/>
<path d="M39.9013 60.4023H49.5705V82.6218C49.5705 93.0878 44.5521 96.9872 35.9123 96.9872C33.9453 96.9872 31.3166 96.7297 29.5151 96.1411L30.5813 88.3974C31.7578 88.7101 33.2468 88.986 34.7909 88.986C37.8792 88.986 39.9197 87.5881 39.9197 82.6218V60.4023H39.9013Z" fill="#623181"/>
<path d="M65.5449 60.4023V80.8009C65.5449 86.2454 67.4199 89.3539 71.2067 89.3539C75.0486 89.3539 76.9237 86.5213 76.9237 80.8009V60.4023H86.5929V80.2674C86.5929 91.3772 81.0414 96.9872 70.9493 96.9872C61.0779 96.9872 55.894 91.5979 55.894 80.0099V60.4023H65.5449Z" fill="#623181"/>
<path d="M93.1555 96.3985V60.4022H104.516L110.233 71.4567C112.2 75.0435 114.295 79.8442 115.895 84.0564H116.06C115.527 79.3108 115.306 74.2893 115.306 68.8816V60.3838H124.112V96.3801H113.965L107.88 84.4242C105.858 80.58 103.505 75.7792 101.795 71.3832H101.63C101.85 76.2391 101.942 81.6836 101.942 87.5143V96.3801H93.1555V96.3985Z" fill="#623181"/>
<path d="M153.395 81.8677H140.472V88.4894H154.939V96.3986H130.803V60.4023H154.185V68.2564H140.472V74.0872H153.395V81.8677Z" fill="#623181"/>
<path d="M270.308 98.1462C270.308 98.1462 260.381 97.5576 256.613 101.641L257.679 101.807C257.679 101.807 252.128 104.124 250.087 109.55L251.503 109.146C251.503 109.146 250.951 109.955 250.308 111.334C249.995 111.923 249.664 112.493 249.333 113.063C246.87 117.147 243.341 120.016 238.782 121.524C234.407 122.959 228.561 123.309 224.738 120.255C222.201 118.232 220.749 115.271 219.958 112.162C217.072 112.622 209.149 113.891 209.149 113.891C208.561 113.983 209.296 117.036 209.351 117.257C209.995 119.943 210.969 122.665 212.458 125.019C216.613 131.567 225.344 134.253 232.642 135.007C237.55 135.522 242.514 135.301 247.33 134.198C249.683 133.664 251.999 132.947 254.223 132.027C256.705 130.997 259.278 129.765 261.723 128.293L261.245 129.894C261.245 129.894 267.734 126.638 269.665 122.039C269.665 122.039 269.959 123.419 269.609 124.394C269.609 124.394 273.543 119.851 274.426 114.516C274.426 114.516 274.701 117.092 274.426 118.379C274.426 118.379 280.198 104.658 270.308 98.1462Z" fill="#827977"/>
<path d="M270.308 98.1462C270.308 98.1462 260.381 97.5576 256.613 101.641L257.679 101.807C257.679 101.807 252.128 104.124 250.087 109.55L251.503 109.146C251.503 109.146 250.951 109.955 250.308 111.334C249.995 111.923 249.664 112.493 249.333 113.063C248.414 114.59 247.348 115.951 246.117 117.128C247.569 116.54 250.896 115.326 250.712 115.528C248.672 117.938 247.146 120.752 245.05 123.125C247.367 122.113 249.701 121.157 252.091 120.347C252.311 120.274 249.205 125.258 247.495 127.466C251.043 126.84 254.315 125.277 257.661 123.952C257.826 123.879 255.639 129.452 254.315 131.972C256.76 130.96 259.278 129.746 261.687 128.293L261.209 129.894C261.209 129.894 267.698 126.638 269.628 122.039C269.628 122.039 269.922 123.419 269.573 124.394C269.573 124.394 273.507 119.851 274.389 114.516C274.389 114.516 274.665 117.092 274.389 118.379C274.426 118.379 280.198 104.658 270.308 98.1462Z" fill="#EDE5DD"/>
<path d="M213.065 103.021H190.601L193.726 132.138C192.256 133.719 191.373 135.43 191.373 136.295C191.373 138.134 195.381 139.642 200.344 139.642C205.307 139.642 209.315 138.152 209.315 136.295C209.315 136.258 209.315 136.239 209.315 136.203L213.065 103.021Z" fill="#726C68"/>
<path d="M193.083 138.483C192.973 138.483 192.881 138.41 192.862 138.299C192.513 136.46 194.057 134.952 194.131 134.878C194.223 134.786 194.37 134.786 194.462 134.878C194.553 134.97 194.553 135.117 194.462 135.209C194.443 135.228 193.028 136.625 193.34 138.207C193.359 138.336 193.285 138.465 193.156 138.483C193.101 138.483 193.083 138.483 193.083 138.483Z" fill="#56514E"/>
<path d="M195.73 139.182C195.62 139.182 195.528 139.109 195.509 138.998C195.16 137.159 196.704 135.651 196.778 135.577C196.87 135.485 197.017 135.485 197.109 135.577C197.201 135.669 197.201 135.816 197.109 135.908C197.09 135.927 195.675 137.325 195.969 138.907C195.987 139.035 195.914 139.164 195.785 139.182C195.767 139.182 195.748 139.182 195.73 139.182Z" fill="#56514E"/>
<path d="M199.076 139.9C198.965 139.9 198.873 139.826 198.855 139.716C198.542 138.079 199.921 136.736 199.976 136.681C200.068 136.589 200.215 136.589 200.307 136.681C200.399 136.773 200.399 136.92 200.307 137.012C200.289 137.03 199.057 138.244 199.315 139.624C199.333 139.753 199.259 139.881 199.131 139.9C199.112 139.9 199.094 139.9 199.076 139.9Z" fill="#56514E"/>
<path d="M218.157 103.021H240.62L237.495 132.138C238.966 133.719 239.848 135.43 239.848 136.295C239.848 138.134 235.822 139.642 230.877 139.642C225.914 139.642 221.907 138.152 221.907 136.295C221.907 136.258 221.907 136.239 221.907 136.203L218.157 103.021Z" fill="#726C68"/>
<path d="M238.138 138.483C238.249 138.483 238.341 138.41 238.359 138.299C238.708 136.46 237.164 134.952 237.091 134.878C236.999 134.786 236.852 134.786 236.76 134.878C236.668 134.97 236.668 135.117 236.76 135.209C236.778 135.228 238.194 136.625 237.899 138.207C237.881 138.336 237.955 138.465 238.083 138.483C238.12 138.483 238.12 138.483 238.138 138.483Z" fill="#56514E"/>
<path d="M235.491 139.182C235.602 139.182 235.694 139.109 235.712 138.998C236.061 137.159 234.517 135.651 234.444 135.577C234.352 135.485 234.205 135.485 234.113 135.577C234.021 135.669 234.021 135.816 234.113 135.908C234.131 135.927 235.547 137.325 235.252 138.907C235.234 139.035 235.308 139.164 235.436 139.182C235.455 139.182 235.473 139.182 235.491 139.182Z" fill="#56514E"/>
<path d="M232.146 139.9C232.256 139.9 232.348 139.826 232.366 139.716C232.679 138.079 231.3 136.736 231.245 136.681C231.153 136.589 231.006 136.589 230.914 136.681C230.822 136.773 230.822 136.92 230.914 137.012C230.933 137.03 232.164 138.244 231.907 139.624C231.888 139.753 231.962 139.881 232.091 139.9C232.109 139.9 232.127 139.9 232.146 139.9Z" fill="#56514E"/>
<path d="M260.914 93.088C261.337 93.6582 262.054 93.8605 262.495 93.5295C262.937 93.1984 262.955 92.4626 262.514 91.8924C262.091 91.3222 261.374 91.1199 260.933 91.451C260.51 91.7821 260.492 92.5178 260.914 93.088Z" fill="#BFA997"/>
<path d="M265.455 91.3405C266.006 92.0763 266.907 92.3338 267.477 91.9107C268.047 91.4877 268.065 90.5312 267.514 89.7955C266.962 89.0597 266.062 88.8022 265.492 89.2253C264.922 89.6483 264.903 90.6048 265.455 91.3405Z" fill="#BFA997"/>
<path d="M263.231 92.9224C263.782 93.6765 264.701 93.934 265.289 93.4926C265.859 93.0695 265.878 92.1131 265.326 91.3589C264.775 90.6048 263.856 90.3473 263.267 90.7887C262.698 91.2118 262.679 92.1682 263.231 92.9224Z" fill="#BFA997"/>
<path d="M250.069 59.4277C256.778 60.1818 264.26 74.6392 266.08 80.378C266.65 82.1806 269.646 88.7287 266.448 91.2303C265.124 92.2603 263.506 92.996 261.87 92.7017C259.26 92.2419 254.021 85.657 252.863 84.1671C250.565 81.2425 248.378 78.2076 246.245 75.1542C245.418 73.9587 244.591 72.7815 243.782 71.5675C239.058 64.5043 245.381 58.8943 250.069 59.4277Z" fill="#726C68"/>
<path d="M259.517 90.6418C259.885 91.7638 261.392 92.2788 262.881 91.8006C264.37 91.3224 265.29 90.0164 264.922 88.8944C264.554 87.7724 263.047 87.2574 261.558 87.7356C260.069 88.2139 259.15 89.5198 259.517 90.6418Z" fill="#BFA997"/>
<path d="M170.233 93.088C169.811 93.6582 169.094 93.8605 168.653 93.5295C168.211 93.1984 168.193 92.4626 168.634 91.8924C169.057 91.3222 169.774 91.1199 170.215 91.451C170.638 91.7821 170.656 92.5178 170.233 93.088Z" fill="#BFA997"/>
<path d="M165.693 91.3405C165.141 92.0763 164.241 92.3338 163.671 91.9107C163.101 91.4877 163.083 90.5312 163.634 89.7955C164.186 89.0597 165.086 88.8022 165.675 89.2253C166.226 89.6483 166.244 90.6048 165.693 91.3405Z" fill="#BFA997"/>
<path d="M167.917 92.9224C167.366 93.6765 166.428 93.934 165.858 93.4926C165.288 93.0695 165.27 92.1131 165.822 91.3589C166.373 90.6048 167.292 90.3473 167.88 90.7887C168.45 91.2118 168.469 92.1682 167.917 92.9224Z" fill="#BFA997"/>
<path d="M181.061 59.4277C174.351 60.1818 166.869 74.6392 165.05 80.378C164.48 82.1806 161.483 88.7287 164.682 91.2303C166.005 92.2603 167.623 92.996 169.259 92.7017C171.869 92.2419 177.108 85.657 178.267 84.1671C180.564 81.2425 182.752 78.2076 184.884 75.1542C185.711 73.9587 186.539 72.7815 187.348 71.5675C192.09 64.5043 185.767 58.8943 181.061 59.4277Z" fill="#726C68"/>
<path d="M171.63 90.6418C171.263 91.7638 169.774 92.2788 168.266 91.8006C166.777 91.3224 165.858 90.0164 166.208 88.8944C166.575 87.7724 168.083 87.2574 169.572 87.7356C171.079 88.2139 171.998 89.5198 171.63 90.6418Z" fill="#BFA997"/>
<path d="M179.443 56.8525C176.318 65.4791 174.553 74.584 174.553 82.8611C174.553 109.532 192.936 124.394 215.601 124.394C238.267 124.394 256.65 109.532 256.65 82.8611C256.65 74.584 254.867 65.4791 251.76 56.8525H179.443Z" fill="#827977"/>
<path d="M245.289 95.9943C245.289 114.241 231.98 124.412 215.583 124.412C199.168 124.412 185.877 114.241 185.877 95.9943C185.877 77.7478 199.186 53.5786 215.583 53.5786C231.98 53.5786 245.289 77.7478 245.289 95.9943Z" fill="#EDE5DD"/>
<path d="M206.796 29.2622C206.796 29.2622 196.815 7.07956 191.226 11.0526C185.105 15.4119 184.314 44.6761 184.314 44.6761C184.314 44.6761 192.844 38.4774 206.796 29.2622Z" fill="#726C68"/>
<path d="M201.208 33.6214C201.208 33.6214 193.487 15.6508 191.557 15.9635C185.601 16.92 185.234 44.0138 185.234 44.0138C185.234 44.0138 189.995 41.034 201.208 33.6214Z" fill="#AF5A51"/>
<path d="M226.153 29.2622C226.153 29.2622 236.135 7.07956 241.723 11.0526C247.844 15.4119 248.635 44.6761 248.635 44.6761C248.635 44.6761 240.105 38.4774 226.153 29.2622Z" fill="#726C68"/>
<path d="M231.741 33.6214C231.741 33.6214 239.462 15.6508 241.392 15.9635C247.348 16.92 247.716 44.0138 247.716 44.0138C247.716 44.0138 242.955 41.034 231.741 33.6214Z" fill="#AF5A51"/>
<path d="M252.734 51.629L257.697 52.751C255.988 48.686 251.411 46.9018 251.411 46.9018C253.745 46.5891 255.014 44.7314 255.014 44.7314C247.072 44.106 242.109 38.0545 242.109 38.0545C234.958 27.9012 225.694 20.8564 215.583 20.8564C205.454 20.8564 196.19 27.9012 189.039 38.0913V38.0545C189.039 38.0545 184.094 44.106 176.134 44.7314C176.134 44.7314 177.403 46.5891 179.737 46.9018C179.737 46.9018 175.16 48.686 173.45 52.751L178.414 51.629C178.414 51.629 178.064 53.8178 179.682 56.1538C179.664 56.2274 179.627 56.2825 179.608 56.3561C179.608 56.3561 186.116 69.0109 212.182 71.1814H218.69C244.756 69.0109 251.264 56.3561 251.264 56.3561H251.539C251.503 56.2825 251.484 56.209 251.466 56.1354C253.083 53.8178 252.734 51.629 252.734 51.629Z" fill="#E3D5C8"/>
<path d="M204.94 47.104C204.94 47.104 201.962 52.8796 201.815 54.9397L204.94 53.5602C204.94 53.5602 205.381 62.3891 214.443 66.215H216.649C225.712 62.3891 226.153 53.5602 226.153 53.5602L229.278 54.9397C229.131 52.8796 226.153 47.104 226.153 47.104L229.278 48.6123C229.278 46.681 227.808 43.8483 227.808 43.8483C227.808 43.8483 227.826 43.8484 227.863 43.8667C224.866 41.1261 220.473 39.7466 215.565 39.7466C210.675 39.7466 206.282 41.1261 203.285 43.8483C203.285 43.8483 201.815 46.681 201.815 48.6123L204.94 47.104Z" fill="#EDE5DD"/>
<path d="M227.863 43.8485C227.826 43.8301 227.808 43.8301 227.808 43.8301C227.808 43.8301 229.278 46.6627 229.278 48.594L226.153 47.0857C226.153 47.0857 229.131 52.8613 229.278 54.9214L226.153 53.5419C226.153 53.5419 225.712 62.3708 216.649 66.1967H214.443C205.381 62.3708 204.94 53.5419 204.94 53.5419L201.815 54.9214C201.962 52.8613 204.94 47.0857 204.94 47.0857L201.815 48.594C201.815 46.6627 203.285 43.8485 203.285 43.8301C200.767 46.1293 199.241 49.3666 199.241 53.5603C199.241 62.7387 206.539 74.8417 215.565 74.8417C224.572 74.8417 231.87 62.7387 231.87 53.5603C231.888 49.3849 230.363 46.1477 227.863 43.8485Z" fill="#D7C1AE"/>
<path d="M211.649 73.7192C209.646 73.7192 207.918 71.8063 207.55 69.1576C207.532 69.0473 207.605 68.9553 207.715 68.9369C207.826 68.9185 207.918 68.9921 207.936 69.1024C208.285 71.5488 209.829 73.333 211.631 73.333C213.432 73.333 214.995 71.5672 215.326 69.1024C215.344 68.9921 215.436 68.9185 215.546 68.9369C215.657 68.9553 215.73 69.0473 215.712 69.1576C215.363 71.7879 213.653 73.7192 211.649 73.7192Z" fill="#4F342F"/>
<path d="M219.499 73.7192C217.495 73.7192 215.767 71.8063 215.399 69.1576C215.381 69.0473 215.454 68.9553 215.565 68.9369C215.675 68.9185 215.767 68.9921 215.785 69.1024C216.135 71.5488 217.679 73.333 219.48 73.333C221.282 73.333 222.844 71.5672 223.175 69.1024C223.193 68.9921 223.285 68.9185 223.396 68.9369C223.506 68.9553 223.58 69.0473 223.561 69.1576C223.23 71.7879 221.502 73.7192 219.499 73.7192Z" fill="#4F342F"/>
<path d="M220.712 64.817C220.712 62.6281 218.414 62.3154 215.583 62.3154C212.752 62.3154 210.454 62.6465 210.454 64.817C210.454 67.0058 212.752 69.8752 215.583 69.8752C218.414 69.8752 220.712 66.9874 220.712 64.817Z" fill="#614E47"/>
<path d="M252.734 51.629L257.697 52.751C255.988 48.686 251.411 46.9018 251.411 46.9018C253.745 46.5891 255.014 44.7313 255.014 44.7313C247.072 44.106 242.109 38.0545 242.109 38.0545C234.958 27.9012 225.694 20.8564 215.583 20.8564C205.454 20.8564 196.19 27.9012 189.039 38.0913V38.0545C189.039 38.0545 184.094 44.106 176.134 44.7313C176.134 44.7313 177.403 46.5891 179.737 46.9018C179.737 46.9018 175.16 48.686 173.45 52.751L178.414 51.629C178.414 51.629 178.064 53.8178 179.682 56.1538C179.664 56.2274 179.627 56.2825 179.608 56.3561C179.608 56.3561 183.028 63.0146 194.848 67.5026C194.848 67.5026 187.421 60.2004 187.715 55.2341L190.583 54.6087L187.697 51.6657C187.697 51.6657 196.281 41.0158 214.48 39.7467H216.925C235.124 41.0158 243.543 51.6657 243.543 51.6657L240.657 54.6087L243.525 55.2341C243.8 59.667 237.936 65.9392 236.649 67.2635C247.936 62.7755 251.227 56.3745 251.227 56.3745H251.503C251.466 56.3009 251.447 56.2274 251.429 56.1538C253.083 53.8178 252.734 51.629 252.734 51.629Z" fill="#9F9491"/>
<path d="M208.065 38.2752C208.065 39.9306 206.723 41.2549 205.087 41.2549C203.432 41.2549 202.109 39.9122 202.109 38.2752C202.109 36.6197 203.451 35.2954 205.087 35.2954C206.723 35.2954 208.065 36.6197 208.065 38.2752Z" fill="#4D292C"/>
<path d="M204.866 37.3555C204.866 37.8706 204.443 38.2936 203.929 38.2936C203.414 38.2936 203.009 37.8706 203.009 37.3555C203.009 36.8405 203.432 36.4175 203.929 36.4175C204.443 36.4175 204.866 36.8405 204.866 37.3555Z" fill="white"/>
<path d="M203.818 39.3051C203.818 39.5258 203.634 39.7097 203.414 39.7097C203.193 39.7097 203.009 39.5258 203.009 39.3051C203.009 39.0843 203.193 38.9004 203.414 38.9004C203.634 38.9004 203.818 39.0843 203.818 39.3051Z" fill="white"/>
<path d="M229.057 38.2752C229.057 39.9306 227.716 41.2549 226.08 41.2549C224.425 41.2549 223.102 39.9122 223.102 38.2752C223.102 36.6197 224.443 35.2954 226.08 35.2954C227.716 35.2954 229.057 36.6197 229.057 38.2752Z" fill="#4D292C"/>
<path d="M225.859 37.3555C225.859 37.8706 225.436 38.2936 224.921 38.2936C224.407 38.2936 223.984 37.8706 223.984 37.3555C223.984 36.8405 224.407 36.4175 224.921 36.4175C225.436 36.4175 225.859 36.8405 225.859 37.3555Z" fill="white"/>
<path d="M224.811 39.3051C224.811 39.5258 224.627 39.7097 224.407 39.7097C224.186 39.7097 224.002 39.5258 224.002 39.3051C224.002 39.0843 224.186 38.9004 224.407 38.9004C224.627 38.9004 224.811 39.0843 224.811 39.3051Z" fill="white"/>
<path d="M20.8386 49.0904V43.5724C20.8386 43.0205 20.3974 42.5791 19.8459 42.5791C19.2945 42.5791 18.8533 43.0205 18.8533 43.5724V48.7594C19.129 49.5871 20.1033 49.4767 20.8386 49.0904Z" fill="#3A3D4C"/>
<path d="M18.4856 49.5685C18.4489 49.3294 18.1731 48.0971 17.1069 47.7292C16.3716 47.4717 15.5628 47.7292 14.7356 48.4833C14.0922 49.0719 13.5223 49.6973 13.026 50.3963C12.5664 51.04 12.0885 51.9045 12.4745 52.7138C12.6951 53.2105 13.3201 53.2657 13.7245 52.953C14.1841 52.5851 14.3128 51.9229 14.6437 51.4447C15.0297 50.8745 15.526 50.3779 16.0407 49.918C16.2613 49.7341 16.39 49.6421 16.4819 49.6053C16.5187 49.6789 16.5738 49.8261 16.5922 49.918C16.6841 50.433 17.1805 50.7825 17.7136 50.6906C18.2099 50.5986 18.5591 50.102 18.4856 49.5685Z" fill="#4D4F5E"/>
<path d="M20.2136 49.4766C20.1217 49.2559 19.5702 48.097 18.4489 47.9867C17.6768 47.9131 16.9599 48.3362 16.3165 49.2742C14.8643 51.3895 14.7908 52.5667 14.7724 52.769C14.7724 52.769 14.6988 53.5599 15.4709 53.6519C16.1327 53.7439 16.4636 53.3392 16.7025 52.769C16.7025 52.769 16.7025 52.7874 16.7025 52.8058C16.868 51.9229 17.4011 51.0768 17.8974 50.3595C18.0629 50.1203 18.1732 50.01 18.2467 49.9548C18.3202 50.0284 18.3937 50.1387 18.4305 50.2307C18.6327 50.7089 19.2026 50.9481 19.6989 50.7273C20.1768 50.525 20.4158 49.9732 20.2136 49.4766Z" fill="#4D4F5E"/>
<path d="M22.1806 49.4765C22.0519 49.2742 21.3166 48.2441 20.1953 48.3177C19.4232 48.3729 18.7798 48.9247 18.3202 49.9547C17.3276 52.1252 17.3643 53.3024 17.4011 53.6151C17.4011 53.6151 17.3643 54.2589 18.0261 54.4244C18.6879 54.5899 19.3864 54.1853 19.3129 53.192C19.3313 52.8609 19.4599 52.07 20.0666 50.7457C20.1769 50.4882 20.2872 50.3594 20.3423 50.2858C20.4158 50.341 20.5078 50.433 20.5629 50.525C20.857 50.9664 21.4453 51.0952 21.8864 50.8009C22.346 50.525 22.4747 49.918 22.1806 49.4765Z" fill="#4D4F5E"/>
<path d="M25.949 49.0904V43.5724C25.949 43.0205 26.3902 42.5791 26.9416 42.5791C27.4931 42.5791 27.9343 43.0205 27.9343 43.5724V48.7594C27.6586 49.5871 26.7027 49.4767 25.949 49.0904Z" fill="#3A3D4C"/>
<path d="M28.3202 49.5685C28.357 49.3294 28.6327 48.0971 29.6989 47.7292C30.4342 47.4717 31.2247 47.7292 32.0703 48.4833C32.7136 49.0719 33.2835 49.6973 33.7798 50.3963C34.2394 51.04 34.7174 51.9045 34.3313 52.7138C34.0924 53.2105 33.4857 53.2657 33.0813 52.953C32.6217 52.5851 32.4931 51.9229 32.1622 51.4447C31.7761 50.8745 31.2798 50.3779 30.7651 49.918C30.5629 49.7341 30.4158 49.6421 30.3239 49.6053C30.2872 49.6789 30.232 49.8261 30.2136 49.918C30.1217 50.433 29.6254 50.7825 29.0923 50.6906C28.5776 50.5986 28.2283 50.102 28.3202 49.5685Z" fill="#4D4F5E"/>
<path d="M26.5923 49.4766C26.6843 49.2559 27.2357 48.097 28.3571 47.9867C29.1291 47.9131 29.846 48.3362 30.4894 49.2742C31.9417 51.3895 32.0336 52.5667 32.0336 52.769C32.0336 52.769 32.1071 53.5599 31.335 53.6519C30.6733 53.7439 30.3424 53.3392 30.1034 52.769C30.1034 52.769 30.1034 52.7874 30.1034 52.8058C29.938 51.9229 29.4049 51.0768 28.9085 50.3595C28.7431 50.1203 28.6328 50.01 28.5593 49.9548C28.5041 50.0284 28.4122 50.1387 28.3755 50.2307C28.1549 50.7089 27.6034 50.9481 27.1071 50.7273C26.6107 50.525 26.3718 49.9732 26.5923 49.4766Z" fill="#4D4F5E"/>
<path d="M24.607 49.4765C24.7357 49.2742 25.471 48.2441 26.5923 48.3177C27.3644 48.3729 28.0078 48.9247 28.4674 49.9547C29.46 52.1252 29.4233 53.3024 29.3865 53.6151C29.3865 53.6151 29.4233 54.2589 28.7615 54.4244C28.0813 54.6083 27.4012 54.1853 27.4747 53.192C27.4563 52.8609 27.3277 52.07 26.721 50.7457C26.6107 50.4882 26.5004 50.3594 26.4453 50.2858C26.3717 50.341 26.2798 50.433 26.2247 50.525C25.9306 50.9664 25.3423 51.0952 24.9011 50.8009C24.4416 50.525 24.3129 49.918 24.607 49.4765Z" fill="#4D4F5E"/>
<path d="M26.096 33.3456C26.096 33.3456 37.4012 54.1671 40.8572 50.8563C43.1182 48.6858 23.0629 22.5669 26.096 33.3456Z" fill="#992125"/>
<path d="M26.1695 36.16C26.1695 36.16 42.5851 53.2477 45.03 49.1459C46.6293 46.442 20.3974 26.5585 26.1695 36.16Z" fill="#C62126"/>
<path d="M26.6659 38.0358C26.6659 38.0358 46.2065 51.4447 47.7691 46.9199C48.7985 43.9402 19.0739 29.7955 26.6659 38.0358Z" fill="#E62526"/>
<path d="M42.4013 28.1584C42.4013 40.5005 33.8902 47.3797 23.4121 47.3797C12.9157 47.3797 4.42297 40.5005 4.42297 28.1584C4.42297 15.8163 12.6951 0.91748 23.1732 0.91748C33.6512 0.91748 42.4013 15.8163 42.4013 28.1584Z" fill="#E62526"/>
<path d="M35.4711 36.3806C35.4711 43.4437 29.9379 47.3799 23.0996 47.3799C16.2613 47.3799 10.7281 43.4437 10.7281 36.3806C10.7281 29.3174 16.2613 19.9551 23.0996 19.9551C29.9195 19.9551 35.4711 29.3174 35.4711 36.3806Z" fill="#EDBDAB"/>
<path d="M9.7355 23.9463C9.47815 22.5484 9.00019 20.8194 7.97077 19.7893C5.37883 17.1958 3.00748 20.7642 2.05159 22.5852C0.194954 26.1351 -0.154299 31.2669 1.66557 35.2032C2.38249 36.7666 5.52591 40.9972 7.93402 41.7145C7.98917 41.7329 8.20976 35.663 8.04431 34.7433C8.24652 34.9641 8.63255 36.5275 9.01859 36.5643C9.09212 36.5643 9.14726 32.3338 9.01859 32.0027C9.16565 32.1498 9.40462 33.7501 9.423 33.7317C9.82742 33.3086 10.2318 26.5398 9.7355 23.9463Z" fill="#316F9E"/>
<path d="M9.97456 24.112C9.69882 22.6773 9.22088 20.8747 8.13631 19.7895C5.45246 17.0856 2.9708 20.8011 1.99652 22.6956C0.0663549 26.3928 -0.301298 31.7269 1.5921 35.8103C1.77593 36.215 2.10682 36.7667 2.548 37.4105C2.76859 37.6864 3.00758 37.944 3.28332 38.1831C2.86052 36.5644 2.54801 34.909 2.78698 33.2352C2.80537 33.1432 4.62524 37.3186 6.05907 39.0292C6.2429 37.6313 5.98554 36.2149 5.96715 34.817C5.96715 34.7067 7.56642 37.5209 8.28334 38.9004C8.32011 37.337 8.32013 35.7551 8.2466 35.3321C8.46719 35.5528 8.87158 37.4105 9.20247 37.9072C9.23923 37.9623 9.4047 32.8489 9.25764 32.4994C9.42309 32.6466 9.66205 34.3204 9.68043 34.2836C10.0665 33.8422 10.4893 26.8158 9.97456 24.112Z" fill="#125993"/>
<path d="M10.0297 24.02C9.73556 22.4565 9.20247 20.5252 8.04437 19.348C5.13993 16.4234 2.45606 20.4332 1.38987 22.4933C0.121478 24.9213 -0.172639 28.1034 0.158246 30.7888C0.195011 31.0831 1.42666 26.9446 2.82374 24.9581C2.84212 24.9213 3.17299 31.3406 3.87153 33.1432C4.49653 30.9911 5.06638 27.4412 5.61786 26.356C5.67301 26.2456 5.54435 32.0764 7.0701 34.6883C7.82378 31.5981 8.09952 31.4694 8.39364 29.2621C8.41202 29.1334 9.14731 32.9041 9.75393 34.909C10.1767 33.8422 10.5628 26.7974 10.0297 24.02Z" fill="#F9B321"/>
<path d="M37.1623 23.9463C37.4381 22.5484 37.8976 20.8194 38.9271 19.7893C41.519 17.1958 43.8903 20.7642 44.8462 22.5852C46.7029 26.1351 47.0521 31.2669 45.2323 35.2032C44.5153 36.7666 41.3719 40.9972 38.9638 41.7145C38.9087 41.7329 38.6881 35.663 38.8535 34.7433C38.6513 34.9641 38.2653 36.5275 37.8792 36.5643C37.8057 36.5643 37.7506 32.3338 37.8792 32.0027C37.7322 32.1498 37.4932 33.7501 37.4748 33.7317C37.0704 33.3086 36.666 26.5398 37.1623 23.9463Z" fill="#316F9E"/>
<path d="M36.9234 24.112C37.1991 22.6773 37.6954 20.8747 38.7616 19.7895C41.4455 17.0856 43.9271 20.8011 44.9014 22.6956C46.8316 26.3928 47.1992 31.7269 45.3058 35.8103C45.122 36.215 44.7911 36.7667 44.3499 37.4105C44.1293 37.6864 43.8903 37.944 43.6146 38.1831C44.0374 36.5644 44.3499 34.909 44.1109 33.2352C44.0925 33.1432 42.2727 37.3186 40.8388 39.0292C40.6366 37.6313 40.9124 36.2149 40.9308 34.817C40.9308 34.7067 39.3315 37.5209 38.6145 38.9004C38.5778 37.337 38.5778 35.7551 38.6513 35.3321C38.4307 35.5528 38.0263 37.4105 37.6954 37.9072C37.6587 37.9623 37.5116 32.8489 37.6403 32.4994C37.4748 32.6466 37.2359 34.3204 37.2175 34.2836C36.8314 33.8422 36.4086 26.8158 36.9234 24.112Z" fill="#125993"/>
<path d="M36.8682 24.02C37.1623 22.4565 37.6954 20.5252 38.8535 19.348C41.7579 16.4234 44.4418 20.4332 45.5079 22.4933C46.7763 24.9213 47.0705 28.1034 46.7396 30.7888C46.7028 31.0831 45.4712 26.9446 44.0741 24.9581C44.0557 24.9213 43.7249 31.3406 43.0263 33.1432C42.4013 30.9911 41.8315 27.4412 41.28 26.356C41.2248 26.2456 41.3535 32.0764 39.8277 34.6883C39.0741 31.5981 38.7983 31.4694 38.5042 29.2621C38.4858 29.1334 37.7505 32.9041 37.1439 34.909C36.7395 33.8422 36.3351 26.7974 36.8682 24.02Z" fill="#F9B321"/>
<path d="M30.7651 18.2993L33.1364 18.8327C33.0261 17.6555 30.0482 14.731 30.0482 14.731C30.0482 14.731 30.9857 14.1975 32.3827 9.10252C33.21 6.06758 30.4158 4.78002 28.0261 4.24661C27.6952 4.2834 27.3827 4.35698 27.0518 4.46734C26.0592 4.81682 24.0187 5.81007 24.0922 5.69971C24.3312 5.33183 24.5702 4.98236 24.8643 4.66967C23.5224 4.89039 21.0775 6.39867 21.0591 6.3067C21.004 5.75489 21.2797 5.12951 21.6841 4.68807C20.8937 4.96397 19.3128 5.90204 19.3495 5.77328C19.5701 5.01914 20.0481 4.44894 20.6363 3.9707C18.265 4.22821 13.3568 5.25827 14.423 9.13932C15.8201 14.216 16.7576 14.7678 16.7576 14.7678C16.7576 14.7678 13.7796 17.7107 13.6693 18.8695L16.0407 18.3361C16.0407 18.3361 13.559 20.5801 13.6693 21.555L19.5701 18.8695L22.2172 19.5133L22.1069 20.1203L23.4121 19.8076L24.7172 20.1203L24.6069 19.5133L27.254 18.8695L33.1548 21.555C33.2284 20.5617 30.7651 18.2993 30.7651 18.2993Z" fill="#FFFFF1"/>
<path d="M19.6805 7.74134C19.6805 8.49547 19.0555 9.12086 18.3018 9.12086C17.5481 9.12086 16.9231 8.49547 16.9231 7.74134C16.9231 6.96881 17.5481 6.36182 18.3018 6.36182C19.0739 6.36182 19.6805 6.96881 19.6805 7.74134Z" fill="#4D292C"/>
<path d="M18.2099 7.30001C18.2099 7.53913 18.0077 7.72306 17.7871 7.72306C17.5481 7.72306 17.3643 7.52074 17.3643 7.30001C17.3643 7.0609 17.5481 6.87695 17.7871 6.87695C18.0077 6.87695 18.2099 7.07929 18.2099 7.30001Z" fill="white"/>
<path d="M17.7319 8.21949C17.7319 8.32985 17.64 8.40343 17.5481 8.40343C17.4378 8.40343 17.3643 8.31146 17.3643 8.21949C17.3643 8.10913 17.4562 8.03556 17.5481 8.03556C17.64 8.01716 17.7319 8.10913 17.7319 8.21949Z" fill="white"/>
<path d="M29.5519 7.74134C29.5519 8.49547 28.9269 9.12086 28.1732 9.12086C27.4012 9.12086 26.7946 8.49547 26.7946 7.74134C26.7946 6.96881 27.4196 6.36182 28.1732 6.36182C28.9453 6.36182 29.5519 6.96881 29.5519 7.74134Z" fill="#4D292C"/>
<path d="M28.0813 7.30001C28.0813 7.53913 27.8975 7.72306 27.6585 7.72306C27.4195 7.72306 27.2357 7.52074 27.2357 7.30001C27.2357 7.0609 27.4379 6.87695 27.6585 6.87695C27.8791 6.87695 28.0813 7.07929 28.0813 7.30001Z" fill="white"/>
<path d="M27.5851 8.21949C27.5851 8.32985 27.4932 8.40343 27.4012 8.40343C27.2909 8.40343 27.2174 8.31146 27.2174 8.21949C27.2174 8.10913 27.3093 8.03556 27.4012 8.03556C27.5115 8.01716 27.5851 8.10913 27.5851 8.21949Z" fill="white"/>
<path d="M28.8351 15.1359L29.9748 14.8415C29.9748 14.8415 30.177 21.2241 26.5005 21.0954C22.824 20.9482 18.3019 21.0954 18.3019 21.0954C18.3019 21.0954 22.1622 12.6895 28.8351 15.1359Z" fill="#FBAB24"/>
<path d="M27.0703 8.60616C25.7835 7.57611 24.1843 7.09788 22.585 7.41057C22.585 7.41057 15.2136 8.7349 14.8643 13.4988C14.515 18.2628 17.1621 23.413 18.0812 24.7557C18.0812 24.7557 18.6695 20.2861 22.2909 18.6675C25.9306 17.0488 29.938 20.2861 29.8828 14.6025C29.8644 12.1009 28.7247 9.9121 27.0703 8.60616Z" fill="#FDD428"/>
<defs>
<linearGradient id="paint0_linear_175_10789" x1="96.5738" y1="88.07" x2="98.9001" y2="88.07" gradientUnits="userSpaceOnUse">
<stop stop-color="#383537"/>
<stop offset="0.0449" stop-color="#545152"/>
<stop offset="0.1083" stop-color="#747273"/>
<stop offset="0.1691" stop-color="#8C8A8A"/>
<stop offset="0.2254" stop-color="#9A9898"/>
<stop offset="0.2732" stop-color="#9F9D9D"/>
<stop offset="0.2968" stop-color="#989696"/>
<stop offset="0.4334" stop-color="#767374"/>
<stop offset="0.5721" stop-color="#5B5859"/>
<stop offset="0.7119" stop-color="#474546"/>
<stop offset="0.8536" stop-color="#3C393B"/>
<stop offset="1" stop-color="#383537"/>
</linearGradient>
<linearGradient id="paint1_linear_175_10789" x1="96.0619" y1="38.4057" x2="99.3884" y2="38.4057" gradientUnits="userSpaceOnUse">
<stop stop-color="#383537"/>
<stop offset="0.0449" stop-color="#545152"/>
<stop offset="0.1083" stop-color="#747273"/>
<stop offset="0.1691" stop-color="#8C8A8A"/>
<stop offset="0.2254" stop-color="#9A9898"/>
<stop offset="0.2732" stop-color="#9F9D9D"/>
<stop offset="0.2968" stop-color="#989696"/>
<stop offset="0.4334" stop-color="#767374"/>
<stop offset="0.5721" stop-color="#5B5859"/>
<stop offset="0.7119" stop-color="#474546"/>
<stop offset="0.8536" stop-color="#3C393B"/>
<stop offset="1" stop-color="#383537"/>
</linearGradient>
<radialGradient id="paint2_radial_175_10789" cx="0" cy="0" r="1" gradientUnits="userSpaceOnUse" gradientTransform="translate(97.7647 33.7945) scale(1.99843 1.95456)">
<stop stop-color="#9F9D9D"/>
<stop offset="0.1421" stop-color="#8C8A8B"/>
<stop offset="0.5298" stop-color="#5F5C5D"/>
<stop offset="0.8284" stop-color="#434041"/>
<stop offset="1" stop-color="#383537"/>
</radialGradient>
<radialGradient id="paint3_radial_175_10789" cx="0" cy="0" r="1" gradientUnits="userSpaceOnUse" gradientTransform="translate(97.7647 33.7945) scale(1.99843 1.95456)">
<stop stop-color="#9F9D9D"/>
<stop offset="0.1421" stop-color="#8C8A8B"/>
<stop offset="0.5298" stop-color="#5F5C5D"/>
<stop offset="0.8284" stop-color="#434041"/>
<stop offset="1" stop-color="#383537"/>
</radialGradient>
<radialGradient id="paint4_radial_175_10789" cx="0" cy="0" r="1" gradientUnits="userSpaceOnUse" gradientTransform="translate(97.4422 33.5444) scale(1.48671 1.45407)">
<stop stop-color="#878585"/>
<stop offset="0.0118" stop-color="#838282"/>
<stop offset="0.1821" stop-color="#555353"/>
<stop offset="0.3447" stop-color="#302F2F"/>
<stop offset="0.4954" stop-color="#161515"/>
<stop offset="0.6299" stop-color="#060606"/>
<stop offset="0.7346"/>
</radialGradient>
<linearGradient id="paint5_linear_175_10789" x1="97.7646" y1="40.5669" x2="97.7646" y2="43.4733" gradientUnits="userSpaceOnUse">
<stop stop-color="#505050"/>
<stop offset="0.0277" stop-color="#626262"/>
<stop offset="0.107" stop-color="#929292"/>
<stop offset="0.1861" stop-color="#B9B9B9"/>
<stop offset="0.2637" stop-color="#D8D8D8"/>
<stop offset="0.3394" stop-color="#EDEDED"/>
<stop offset="0.4121" stop-color="#FBFBFB"/>
<stop offset="0.4788" stop-color="white"/>
<stop offset="0.5497" stop-color="#FAFAFA"/>
<stop offset="0.6291" stop-color="#EDEDED"/>
<stop offset="0.7125" stop-color="#D6D6D6"/>
<stop offset="0.7989" stop-color="#B7B7B7"/>
<stop offset="0.8873" stop-color="#8F8F8F"/>
<stop offset="0.9764" stop-color="#5E5E5E"/>
<stop offset="1" stop-color="#505050"/>
</linearGradient>
<linearGradient id="paint6_linear_175_10789" x1="97.772" y1="111.587" x2="97.772" y2="114.91" gradientUnits="userSpaceOnUse">
<stop stop-color="#505050"/>
<stop offset="0.2588" stop-color="#8C8C8C"/>
<stop offset="0.5025" stop-color="#BEBEBE"/>
<stop offset="0.7151" stop-color="#E1E1E1"/>
<stop offset="0.8881" stop-color="#F7F7F7"/>
<stop offset="1" stop-color="white"/>
</linearGradient>
<linearGradient id="paint7_linear_175_10789" x1="97.7645" y1="36.2602" x2="97.7645" y2="35.4371" gradientUnits="userSpaceOnUse">
<stop stop-color="#505050"/>
<stop offset="0.2588" stop-color="#8C8C8C"/>
<stop offset="0.5025" stop-color="#BEBEBE"/>
<stop offset="0.7151" stop-color="#E1E1E1"/>
<stop offset="0.8881" stop-color="#F7F7F7"/>
<stop offset="1" stop-color="white"/>
</linearGradient>
<linearGradient id="paint8_linear_175_10789" x1="96.5527" y1="38.4048" x2="97.7352" y2="38.4048" gradientUnits="userSpaceOnUse">
<stop offset="0.1147"/>
<stop offset="0.208" stop-color="#242424"/>
<stop offset="0.3287" stop-color="#4C4C4C"/>
<stop offset="0.4244" stop-color="#656565"/>
<stop offset="0.4826" stop-color="#6E6E6E"/>
<stop offset="0.4886" stop-color="#6B6B6B"/>
<stop offset="0.6075" stop-color="#3D3D3D"/>
<stop offset="0.7131" stop-color="#1C1C1C"/>
<stop offset="0.8005" stop-color="#070707"/>
<stop offset="0.8588"/>
</linearGradient>
</defs>
</svg>
