<svg width="398" height="156" viewBox="0 0 398 156" fill="none" xmlns="http://www.w3.org/2000/svg">
<path d="M13.9516 150.626C13.9516 150.626 15.0913 150.626 17.2237 150.607C19.3744 150.589 22.4994 150.57 26.4884 150.534C34.4481 150.478 45.8453 150.405 59.5035 150.35C66.3234 150.313 73.7316 150.276 81.5626 150.258C89.3935 150.239 97.6289 150.202 106.177 150.184C114.725 150.166 123.548 150.147 132.501 150.147C141.471 150.147 150.571 150.129 159.688 150.129C168.806 150.129 177.905 150.147 186.876 150.147C195.847 150.147 204.67 150.184 213.2 150.184C221.748 150.202 230.001 150.221 237.832 150.258C245.663 150.276 253.053 150.313 259.891 150.35C273.55 150.405 284.929 150.478 292.907 150.534C296.896 150.57 300.021 150.589 302.153 150.607C304.285 150.626 305.425 150.626 305.425 150.626C305.425 150.626 304.285 150.644 302.153 150.662C300.021 150.681 296.896 150.699 292.907 150.736C284.947 150.791 273.55 150.865 259.891 150.92C253.053 150.957 245.663 150.993 237.832 151.012C230.001 151.03 221.748 151.067 213.2 151.085C204.67 151.104 195.847 151.122 186.876 151.122C177.905 151.122 168.806 151.141 159.688 151.141C150.589 151.141 141.471 151.122 132.501 151.122C123.53 151.122 114.706 151.085 106.177 151.085C97.6289 151.067 89.3751 151.049 81.5626 151.012C73.7316 150.993 66.3234 150.957 59.5035 150.92C45.8453 150.865 34.4665 150.791 26.4884 150.736C22.4994 150.699 19.3744 150.681 17.2237 150.662C15.0913 150.626 13.9516 150.626 13.9516 150.626Z" fill="#989898"/>
<path d="M141.379 44.9727H139.081V150.626H141.379V44.9727Z" fill="url(#paint0_linear_175_9770)"/>
<path d="M141.692 50.2702C141.012 50.2702 138.806 50.2702 138.751 50.2702C138.695 50.2702 138.585 50.2519 138.585 50.0679C138.585 49.2402 138.585 46.2237 138.585 46.1501C138.585 46.0765 138.604 46.0029 138.751 46.0029C138.879 46.0029 141.122 46.0029 141.71 46.0029C141.876 46.0029 141.876 46.0949 141.876 46.1869C141.876 46.2604 141.876 49.2218 141.876 50.0679C141.876 50.1967 141.857 50.2702 141.692 50.2702Z" fill="url(#paint1_linear_175_9770)"/>
<path d="M142.225 43.5196C142.225 44.6048 141.324 45.4693 140.221 45.4693C139.118 45.4693 138.217 44.5864 138.217 43.5196C138.217 42.4343 139.118 41.5698 140.221 41.5698C141.324 41.5698 142.225 42.4527 142.225 43.5196Z" fill="url(#paint2_radial_175_9770)"/>
<path opacity="0.3" d="M140.221 41.5698C140.184 41.5698 140.129 41.5698 140.092 41.5698C140.993 41.6434 141.729 42.3791 141.729 43.2804C141.729 44.2369 140.938 44.991 139.982 44.991C139.063 44.991 138.309 44.2921 138.236 43.3908C138.236 43.4276 138.236 43.4644 138.236 43.5012C138.236 44.5864 139.137 45.4509 140.24 45.4509C141.342 45.4509 142.243 44.568 142.243 43.5012C142.225 42.4527 141.324 41.5698 140.221 41.5698Z" fill="url(#paint3_radial_175_9770)"/>
<path d="M141.453 43.2804C141.453 44.1081 140.773 44.7703 139.927 44.7703C139.081 44.7703 138.401 44.1081 138.401 43.2804C138.401 42.4527 139.081 41.7905 139.927 41.7905C140.754 41.7905 141.453 42.4527 141.453 43.2804Z" fill="url(#paint4_radial_175_9770)"/>
<path d="M141.379 50.27H139.081V53.1762H141.379V50.27Z" fill="url(#paint5_linear_175_9770)"/>
<path d="M141.379 121.288H139.081V125.371H141.379V121.288Z" fill="url(#paint6_linear_175_9770)"/>
<path d="M141.379 45.1567H139.081V45.9844H141.379V45.1567Z" fill="url(#paint7_linear_175_9770)"/>
<path opacity="0.8" d="M140.221 46.0029H138.971V50.2702H140.221V46.0029Z" fill="url(#paint8_linear_175_9770)"/>
<path d="M9.3927 116.561C9.3927 115.126 9.3927 61.7292 9.3927 59.4116C9.3927 56.7813 10.2383 55.7329 13.6391 55.7329C16.6354 55.7329 320.664 55.7329 322.521 55.7329C324.377 55.7329 326.142 56.0824 326.142 59.4668C326.142 62.8512 326.142 113.507 326.142 117.131C326.142 120.754 323.054 121.03 321.51 121.03C319.966 121.03 16.6538 121.03 13.2714 121.03C9.889 121.03 9.3927 117.977 9.3927 116.561Z" fill="#FFCA00"/>
<path opacity="0.5" d="M326.142 117.131C326.142 113.507 326.142 62.8512 326.142 59.4668C326.142 56.0824 324.377 55.7329 322.521 55.7329C320.664 55.7329 16.6354 55.7329 13.6391 55.7329C10.2383 55.7329 9.3927 56.7997 9.3927 59.4116C9.3927 61.7292 9.3927 115.126 9.3927 116.561C9.3927 117.995 9.889 121.03 13.2714 121.03C16.6538 121.03 319.966 121.03 321.51 121.03C323.072 121.03 326.142 120.736 326.142 117.131ZM13.5104 120.35C10.2015 120.35 9.70517 117.333 9.70517 115.917C9.70517 114.5 9.70517 61.9499 9.70517 59.6507C9.70517 57.0389 10.5508 55.9904 13.878 55.9904C16.8192 55.9904 320.37 55.9904 322.19 55.9904C324.01 55.9904 325.738 56.3399 325.738 59.6875C325.738 63.0352 325.738 112.882 325.738 116.469C325.738 120.055 322.723 120.331 321.197 120.331C319.69 120.35 16.8192 120.35 13.5104 120.35Z" fill="#91BD4A"/>
<path opacity="0.5" d="M11.2125 114.593V61.3247C11.2125 58.3818 12.4074 57.3701 15.9552 57.3701H320.333C322.392 57.3701 324.249 57.6828 324.249 61.3615V115.016C324.249 116.395 323.899 117.407 323.182 118.087C322.19 119.044 320.774 119.044 319.855 119.025H319.69H15.6243C11.2125 119.044 11.2125 115.696 11.2125 114.593ZM322.319 61.8765C322.319 59.5038 321.675 59.5038 320.094 59.5038H16.1942C13.4552 59.5038 13.1611 59.982 13.1611 61.8398V114.096C13.1611 115.899 13.6023 116.929 15.8633 116.929H319.635C320.407 116.929 321.252 116.929 321.767 116.45C322.135 116.083 322.319 115.439 322.319 114.519V61.8765Z" fill="#BCBCBC"/>
<path d="M11.6721 114.427V61.4901C11.6721 58.731 12.7383 57.8481 16.0656 57.8481H320.241C321.841 57.8481 323.808 57.8481 323.808 61.5269V114.832C323.808 116.137 323.495 117.057 322.852 117.683C321.951 118.547 320.682 118.547 319.763 118.547H319.598H15.7346C12.0949 118.565 11.6721 116.193 11.6721 114.427ZM322.797 61.5453C322.797 58.8598 321.841 58.8598 320.241 58.8598H16.0656C13.1244 58.8598 12.6832 59.4484 12.6832 61.5085V114.427C12.6832 116.321 13.1979 117.572 15.7346 117.572H319.763C320.554 117.572 321.528 117.572 322.135 117.002C322.576 116.579 322.797 115.862 322.797 114.85V61.5453Z" fill="#232020"/>
<path d="M59.1174 88.4919C59.1174 100.08 52.1872 107.456 41.0658 107.456C29.9076 107.456 23.7678 99.0682 23.7678 89.0805C23.7678 78.6145 30.6612 70.2822 41.654 70.2822C53.235 70.2822 59.1174 78.8904 59.1174 88.4919ZM33.9701 88.9333C33.9701 95.6654 36.9113 99.8224 41.5437 99.8224C46.1945 99.8224 48.9151 95.2791 48.9151 88.823C48.9151 82.6243 46.1393 77.934 41.4886 77.934C36.9113 77.934 33.9701 82.3116 33.9701 88.9333Z" fill="#EB8235"/>
<path d="M91.2133 105.966C89.8163 106.61 86.4706 107.456 82.1323 107.456C68.6763 107.456 62.7571 99.013 62.7571 89.4484C62.7571 76.7384 72.0403 70.2822 82.7757 70.2822C86.9485 70.2822 90.2942 71.0732 91.8015 71.8825L89.9265 79.4606C88.3272 78.8169 86.1397 78.1731 83.2537 78.1731C77.7021 78.1731 72.9043 81.4288 72.9043 88.8046C72.9043 95.3711 76.8014 99.4361 83.4191 99.4361C85.7721 99.4361 88.3824 98.9579 89.8714 98.3693L91.2133 105.966Z" fill="#EB8235"/>
<path d="M103.824 78.9456H94.6324V70.8892H122.813V78.9456H113.475V106.885H103.805V78.9456H103.824Z" fill="#EB8235"/>
<path d="M159.523 88.4919C159.523 100.08 152.593 107.456 141.471 107.456C130.313 107.456 124.173 99.0682 124.173 89.0805C124.173 78.6145 131.067 70.2822 142.059 70.2822C153.659 70.2822 159.523 78.8904 159.523 88.4919ZM134.376 88.9333C134.376 95.6654 137.317 99.8224 141.949 99.8224C146.6 99.8224 149.321 95.2791 149.321 88.823C149.321 82.6243 146.545 77.934 141.894 77.934C137.317 77.934 134.376 82.3116 134.376 88.9333Z" fill="#EB8235"/>
<path d="M164.67 71.3489C166.857 70.981 171.6 70.5947 176.049 70.5947C181.177 70.5947 184.211 70.9074 187.041 72.3605C189.817 73.6481 191.894 76.26 191.894 79.7364C191.894 82.7713 190.24 85.7143 186.03 87.3145V87.4249C190.461 88.6572 193.071 91.9129 193.071 96.1802C193.071 99.5463 191.472 102.213 189.064 104.034C186.343 106.058 181.858 107.29 174.174 107.29C169.799 107.29 166.655 106.977 164.67 106.646V71.3489ZM174.229 84.7026H176.159C180.277 84.7026 182.244 83.2495 182.244 80.9687C182.244 78.8351 180.644 77.4923 177.391 77.4923C175.791 77.4923 174.872 77.6027 174.247 77.7131V84.7026H174.229ZM174.229 100.098C174.927 100.208 175.773 100.208 177.005 100.208C180.203 100.208 182.924 98.9209 182.924 95.7756C182.924 92.7222 180.148 91.5634 176.527 91.5634H174.229V100.098Z" fill="#EB8235"/>
<path d="M220.957 92.3543H208.034V98.976H222.501V106.885H198.383V70.8706H221.766V78.7247H208.053V84.5371H220.976V92.3543H220.957Z" fill="#EB8235"/>
<path d="M227.851 71.3489C230.571 70.9258 234.689 70.5947 239.487 70.5947C244.983 70.5947 248.935 71.3489 251.656 73.3722C253.954 75.138 255.222 77.6947 255.222 81.2262C255.222 85.7143 251.858 88.9148 249.027 89.9264V90.1471C251.435 91.1588 252.704 93.458 253.623 96.5481C254.744 100.227 255.921 105.469 256.619 106.867H246.748C246.215 105.8 245.314 103.023 244.248 98.5898C243.292 94.2673 241.95 93.3476 238.954 93.3476H237.41V106.867H227.851V71.3489ZM237.41 86.4684H239.91C243.531 86.4684 245.627 84.6474 245.627 81.9804C245.627 79.2581 243.862 77.7682 240.663 77.7131C238.843 77.7131 237.888 77.8234 237.41 77.9338V86.4684Z" fill="#EB8235"/>
<path d="M395.352 143.048C395.352 143.048 395.352 137.052 393.257 137.695C391.179 138.339 389.47 141.999 389.47 141.999L395.352 143.048Z" fill="#325B23"/>
<path d="M389.654 141.392C389.654 141.392 389.654 133.042 386.749 133.943C383.845 134.844 381.492 139.939 381.492 139.939L389.654 141.392Z" fill="#325B23"/>
<path d="M379.746 140.583C379.746 140.583 380.665 134.44 378.422 134.789C376.179 135.139 373.9 138.615 373.9 138.615L379.746 140.583Z" fill="#325B23"/>
<path d="M373.091 137.438C373.091 137.438 374.323 129.179 371.308 129.657C368.312 130.135 365.223 134.807 365.223 134.807L373.091 137.438Z" fill="#325B23"/>
<path d="M363.716 135.01C363.716 135.01 366.271 127.781 363.79 127.799C361.29 127.818 358.238 131.257 358.238 131.257L363.716 135.01Z" fill="#325B23"/>
<path d="M356.859 129.933C356.859 129.933 361.381 123.514 358.661 122.631C355.94 121.766 351.381 124.378 351.381 124.378L356.859 129.933Z" fill="#325B23"/>
<path d="M290.039 121.527C288.054 122.226 295.793 130.926 296.032 131.147C305.756 140.252 319.212 144.501 332.024 146.874C342.705 148.86 353.918 150.129 364.782 150.387C372.723 150.571 380.701 150.111 388.459 148.327C391.455 147.628 395.205 146.745 397.154 144.078C399.341 141.08 391.933 140.491 390.187 140.307C377.889 139.001 346.859 134.955 344.984 101.957C344.966 101.957 290.039 121.509 290.039 121.527Z" fill="#54882C"/>
<path d="M337.466 121.564C334.543 113.728 331.05 109.829 328.054 107.971C311.914 113.728 290.039 121.509 290.039 121.527C288.054 122.226 295.793 130.926 296.032 131.147C301.951 136.684 309.267 140.436 316.951 143.048C324.91 142.809 337.705 141.337 347.356 134.458C342.723 130.742 339.249 126.346 337.466 121.564Z" fill="#F29F27"/>
<path d="M361.363 142.238C358.661 141.227 356.087 140.031 353.698 138.688C348.679 143.029 342.539 145.862 336.804 147.701C341.822 148.529 346.933 149.173 352.043 149.651C355.352 147.628 358.587 145.181 361.363 142.238Z" fill="#F29F27"/>
<path d="M347.356 134.439C337.705 141.337 324.91 142.79 316.951 143.029C321.896 144.703 327.006 145.935 332.006 146.855C333.587 147.149 335.186 147.425 336.804 147.683C342.539 145.843 348.679 143.029 353.698 138.67C351.418 137.401 349.286 135.985 347.356 134.439Z" fill="#F7BB2C"/>
<path d="M396.143 145.163C390.463 146.285 384.69 146.561 379.121 146.138C378.238 147.517 377.282 148.86 376.29 150.111C380.389 149.798 384.452 149.228 388.459 148.308C390.996 147.738 394.066 147.002 396.143 145.163Z" fill="#F7BB2C"/>
<path d="M369.672 144.722C368.018 146.782 366.198 148.658 364.304 150.369C364.47 150.369 364.617 150.387 364.782 150.387C368.606 150.479 372.466 150.405 376.29 150.129C377.282 148.86 378.238 147.536 379.121 146.156C375.885 145.899 372.723 145.421 369.672 144.722Z" fill="#F29F27"/>
<path d="M369.672 144.721C366.804 144.078 364.01 143.232 361.363 142.238C358.587 145.181 355.352 147.628 352.043 149.633C356.142 150 360.242 150.258 364.304 150.368C366.179 148.658 368.018 146.782 369.672 144.721Z" fill="#F7BB2C"/>
<path d="M345.481 84.6478L358.734 73.7036C358.734 73.7036 377.558 98.6269 377.117 102.011C376.712 105.065 373.514 107.088 370.701 107.198C364.617 107.438 345.591 84.5558 345.481 84.6478Z" fill="#54882C"/>
<path d="M376.051 100.926C375.113 98.6453 377.981 99.1236 379.856 100.227C380.573 101.239 376.639 102.324 376.051 100.926Z" fill="#EAECB7"/>
<path d="M371.529 105.083C373.256 102.6 374.654 105.892 374.764 108.541C374.194 109.939 370.462 106.591 371.529 105.083Z" fill="#EAECB7"/>
<path d="M369.727 105.469C366.859 104.476 367.687 107.952 369.157 110.16C370.444 110.987 371.473 106.076 369.727 105.469Z" fill="#EAECB7"/>
<path d="M374.782 103.483C374.69 100.595 377.632 102.324 379.231 104.292C379.598 105.69 374.819 105.249 374.782 103.483Z" fill="#EAECB7"/>
<path d="M295.02 84.6478L281.767 73.7036C281.767 73.7036 262.943 98.6269 263.384 102.011C263.789 105.065 266.987 107.088 269.8 107.198C275.884 107.438 294.91 84.5558 295.02 84.6478Z" fill="#54882C"/>
<path d="M264.432 100.926C265.369 98.6453 262.502 99.1236 260.627 100.227C259.91 101.239 263.862 102.324 264.432 100.926Z" fill="#EAECB7"/>
<path d="M268.972 105.083C267.244 102.6 265.847 105.892 265.737 108.541C266.307 109.939 270.02 106.591 268.972 105.083Z" fill="#EAECB7"/>
<path d="M270.755 105.469C273.623 104.476 272.796 107.952 271.325 110.16C270.057 110.987 269.009 106.076 270.755 105.469Z" fill="#EAECB7"/>
<path d="M265.719 103.483C265.811 100.595 262.869 102.324 261.27 104.292C260.902 105.69 265.664 105.249 265.719 103.483Z" fill="#EAECB7"/>
<path d="M312.263 110.289L291.859 110.123C291.859 110.123 292.042 126.309 292.153 137.548C292.208 143.305 292.263 147.775 292.245 148.106C292.226 150.221 295.866 151.95 300.37 151.987C304.874 152.024 306.914 151.435 306.932 149.338C306.951 149.301 312.263 110.289 312.263 110.289Z" fill="#54882C"/>
<path d="M293.623 147.738C293.274 144.685 290.443 146.947 289.046 149.283C288.862 150.81 293.826 149.614 293.623 147.738Z" fill="#EAECB7"/>
<path d="M301.068 149.522C297.686 147.867 298.145 152.281 299.634 155.261C301.105 156.438 303.146 150.534 301.068 149.522Z" fill="#EAECB7"/>
<path d="M304.249 149.283C307.226 146.984 307.668 151.398 306.804 154.617C305.627 156.07 302.429 150.681 304.249 149.283Z" fill="#EAECB7"/>
<path d="M296.565 149.761C294.91 146.561 292.759 150.221 292.208 153.348C292.631 155.077 297.576 151.711 296.565 149.761Z" fill="#EAECB7"/>
<path d="M320.407 110.289L340.811 110.123C340.811 110.123 340.627 126.309 340.517 137.548C340.462 143.305 340.407 147.775 340.407 148.106C340.425 150.221 336.786 151.95 332.282 151.987C327.778 152.024 325.738 151.435 325.719 149.338C325.719 149.301 320.407 110.289 320.407 110.289Z" fill="#54882C"/>
<path d="M339.047 147.738C339.396 144.685 342.227 146.947 343.624 149.283C343.808 150.81 338.844 149.614 339.047 147.738Z" fill="#EAECB7"/>
<path d="M331.602 149.522C334.984 147.867 334.524 152.281 333.035 155.261C331.565 156.438 329.524 150.534 331.602 149.522Z" fill="#EAECB7"/>
<path d="M328.422 149.283C325.444 146.984 325.002 151.398 325.866 154.617C327.043 156.07 330.241 150.681 328.422 149.283Z" fill="#EAECB7"/>
<path d="M336.105 149.761C337.76 146.561 339.911 150.221 340.462 153.348C340.039 155.077 335.094 151.711 336.105 149.761Z" fill="#EAECB7"/>
<path d="M362.705 95.6842C362.705 123.9 343.256 139.645 319.267 139.645C295.278 139.645 275.829 123.918 275.829 95.6842C275.829 67.45 295.039 33.4219 319.028 33.4219C343.017 33.4219 362.705 67.4684 362.705 95.6842Z" fill="#66A338"/>
<path d="M346.694 100.338C345.444 97.873 343.955 95.4634 342.227 93.2378C325.223 96.4015 306.693 95.1507 295.848 93.8816C294.101 96.2359 292.594 98.7559 291.381 101.349C301.62 102.802 325.958 105.304 346.694 100.338Z" fill="#F29F27"/>
<path d="M350.003 109.571C349.322 106.499 348.201 103.354 346.675 100.337C325.94 105.304 301.601 102.802 291.362 101.349C289.947 104.347 288.936 107.437 288.348 110.454C302.153 112.146 327.282 114.059 350.003 109.571Z" fill="#F7BB2C"/>
<path d="M342.227 93.2377C336.491 85.8067 328.33 80.2886 319.285 80.2886C309.965 80.2886 301.601 86.1193 295.848 93.8631C306.693 95.1506 325.223 96.4198 342.227 93.2377Z" fill="#F7BB2C"/>
<path d="M350.573 118.529C350.664 117.664 350.72 116.763 350.72 115.844C350.72 113.82 350.462 111.705 350.003 109.571C327.282 114.059 302.153 112.146 288.366 110.454C288.017 112.294 287.833 114.096 287.833 115.844C287.833 117.113 287.943 118.327 288.127 119.504C301.987 121.214 327.576 123.183 350.573 118.529Z" fill="#F29F27"/>
<path d="M292.318 129.05C297.815 135.948 307.833 139.645 319.267 139.645C331.124 139.645 341.436 135.672 346.786 128.296C327.006 131.68 305.885 130.503 292.318 129.05Z" fill="#F29F27"/>
<path d="M288.127 119.504C288.715 123.164 290.167 126.346 292.318 129.05C305.885 130.503 327.006 131.68 346.786 128.296C348.808 125.518 350.131 122.244 350.554 118.529C327.576 123.182 301.987 121.214 288.127 119.504Z" fill="#F7BB2C"/>
<path d="M342.631 62.9251H295.756C295.958 62.594 293.072 65.0588 293.072 65.0588C293.072 65.0588 295.26 98.7191 305.572 105.433C305.572 105.433 309.727 108.468 319.01 108.872V108.891C319.065 108.891 319.138 108.891 319.194 108.891C319.249 108.891 319.322 108.891 319.377 108.891V108.872C328.66 108.486 332.815 105.433 332.815 105.433C343.146 98.7007 345.333 65.0588 345.333 65.0588C345.333 65.0588 342.429 62.594 342.631 62.9251Z" fill="#FAE036"/>
<path d="M298.458 80.105C298.458 80.105 297.962 92.0424 299.818 91.4354C301.657 90.8284 303.918 86.8738 303.918 86.8738L298.458 80.105Z" fill="white"/>
<path d="M339.286 80.105C339.286 80.105 339.782 92.0424 337.925 91.4354C336.087 90.8284 333.826 86.8738 333.826 86.8738L339.286 80.105Z" fill="white"/>
<path d="M337.668 84.9056C333.936 99.694 325.94 103.06 319.598 103.704C319.598 103.704 319.377 103.741 319.285 103.741C319.175 103.741 318.973 103.704 318.973 103.704C312.649 103.06 304.635 99.694 300.903 84.9056C293.899 79.0564 292.429 64.0656 292.429 53.3605C292.429 36.0153 304.359 31.3986 319.285 31.6193C334.212 31.3986 346.142 36.0153 346.142 53.3605C346.142 64.0656 344.653 79.0564 337.668 84.9056Z" fill="#9EC12E"/>
<path d="M312.171 84.7586C313.274 86.3957 313.605 87.9959 312.888 88.327C312.19 88.6581 310.719 87.5912 309.616 85.9542C308.513 84.3172 308.182 82.7169 308.899 82.4043C309.598 82.0548 311.068 83.1216 312.171 84.7586Z" fill="#2D5E25"/>
<path d="M326.381 84.7586C325.278 86.3957 324.947 87.9959 325.664 88.327C326.381 88.6581 327.833 87.5912 328.955 85.9542C330.058 84.3172 330.388 82.7169 329.672 82.4043C328.955 82.0548 327.484 83.1216 326.381 84.7586Z" fill="#2D5E25"/>
<path d="M306.951 83.8018C306.859 83.8018 306.785 83.7467 306.749 83.6547C306.73 83.5995 306.252 82.1464 306.822 81.098C307.061 80.6381 307.484 80.3254 308.035 80.1599C310.168 79.5713 312.704 82.5511 312.815 82.6798C312.888 82.7718 312.87 82.9005 312.796 82.9741C312.705 83.0477 312.576 83.0293 312.502 82.9557C312.484 82.9189 310.021 80.0495 308.146 80.5646C307.704 80.6933 307.392 80.9324 307.19 81.2819C306.712 82.1832 307.153 83.4891 307.153 83.5075C307.19 83.6179 307.135 83.7283 307.024 83.765C306.988 83.8018 306.969 83.8018 306.951 83.8018Z" fill="#2D5E25"/>
<path d="M331.602 83.802C331.583 83.802 331.565 83.802 331.528 83.7836C331.418 83.7468 331.363 83.6365 331.4 83.5261C331.4 83.5077 331.841 82.1833 331.363 81.3004C331.179 80.951 330.848 80.6935 330.407 80.5831C328.532 80.0681 326.087 82.9375 326.05 82.9743C325.977 83.0662 325.848 83.0662 325.756 82.9927C325.664 82.9191 325.664 82.7903 325.738 82.6984C325.848 82.5696 328.385 79.5899 330.517 80.1785C331.069 80.3256 331.473 80.6383 331.73 81.1165C332.282 82.165 331.822 83.618 331.804 83.6732C331.785 83.7468 331.694 83.802 331.602 83.802Z" fill="#2D5E25"/>
<path d="M300.774 47.7872C300.774 49.5346 299.359 50.9509 297.612 50.9509C295.866 50.9509 294.451 49.5346 294.451 47.7872C294.451 46.0398 295.866 44.6235 297.612 44.6235C299.359 44.6235 300.774 46.0582 300.774 47.7872Z" fill="#4D292C"/>
<path d="M297.392 46.8126C297.392 47.3644 296.951 47.8058 296.399 47.8058C295.866 47.8058 295.407 47.3644 295.407 46.8126C295.407 46.2792 295.848 45.8193 296.399 45.8193C296.951 45.8193 297.392 46.2608 297.392 46.8126Z" fill="white"/>
<path d="M296.27 48.8723C296.27 49.1114 296.068 49.2953 295.848 49.2953C295.627 49.2953 295.425 49.093 295.425 48.8723C295.425 48.6515 295.627 48.4492 295.848 48.4492C296.068 48.4492 296.27 48.6515 296.27 48.8723Z" fill="white"/>
<path d="M343.624 47.7872C343.624 49.5346 342.208 50.9509 340.462 50.9509C338.716 50.9509 337.3 49.5346 337.3 47.7872C337.3 46.0398 338.716 44.6235 340.462 44.6235C342.208 44.6235 343.624 46.0582 343.624 47.7872Z" fill="#4D292C"/>
<path d="M340.242 46.8126C340.242 47.3644 339.8 47.8058 339.249 47.8058C338.697 47.8058 338.256 47.3644 338.256 46.8126C338.256 46.2792 338.697 45.8193 339.249 45.8193C339.8 45.8193 340.242 46.2608 340.242 46.8126Z" fill="white"/>
<path d="M339.139 48.8723C339.139 49.1114 338.955 49.2953 338.716 49.2953C338.477 49.2953 338.293 49.093 338.293 48.8723C338.293 48.6515 338.477 48.4492 338.716 48.4492C338.936 48.4492 339.139 48.6515 339.139 48.8723Z" fill="white"/>
<path d="M307.263 66.3278C307.447 64.3413 309.102 62.7778 311.142 62.7778C313.182 62.7778 314.837 64.3413 315.021 66.3278C315.021 66.3278 313.844 64.5436 311.142 64.562C308.458 64.562 307.263 66.3278 307.263 66.3278Z" fill="#45813C"/>
<path d="M309.69 73.7035C309.818 72.1769 311.105 70.9629 312.668 70.9629C314.23 70.9629 315.517 72.1585 315.646 73.7035C315.646 73.7035 314.727 72.324 312.668 72.3424C310.591 72.3424 309.69 73.7035 309.69 73.7035Z" fill="#45813C"/>
<path d="M306.215 51.0244C306.454 48.3389 308.715 46.2236 311.454 46.2236C314.212 46.2236 316.455 48.3389 316.694 51.0244C316.694 51.0244 315.094 48.6148 311.454 48.6148C307.815 48.6332 306.215 51.0244 306.215 51.0244Z" fill="#45813C"/>
<path d="M320.205 51.0244C320.444 48.3389 322.705 46.2236 325.444 46.2236C328.201 46.2236 330.444 48.3389 330.683 51.0244C330.683 51.0244 329.083 48.6148 325.444 48.6148C321.804 48.6332 320.205 51.0244 320.205 51.0244Z" fill="#45813C"/>
<path d="M307.576 58.1613C307.76 56.1748 309.414 54.6113 311.454 54.6113C313.495 54.6113 315.168 56.1748 315.333 58.1613C315.333 58.1613 314.157 56.3771 311.454 56.3771C308.771 56.3771 307.576 58.1613 307.576 58.1613Z" fill="#45813C"/>
<path d="M321.565 66.3278C321.749 64.3413 323.403 62.7778 325.444 62.7778C327.484 62.7778 329.157 64.3413 329.322 66.3278C329.322 66.3278 328.146 64.5436 325.444 64.562C322.741 64.562 321.565 66.3278 321.565 66.3278Z" fill="#45813C"/>
<path d="M322.466 73.7035C322.594 72.1769 323.881 70.9629 325.444 70.9629C327.006 70.9629 328.293 72.1585 328.422 73.7035C328.422 73.7035 327.502 72.324 325.444 72.3424C323.366 72.3424 322.466 73.7035 322.466 73.7035Z" fill="#45813C"/>
<path d="M309.138 93.3298C308.605 92.686 307.226 94.231 305.848 96.2176C306.896 97.6523 308.017 98.8295 309.175 99.7859C309.543 97.2108 309.818 94.1391 309.138 93.3298Z" fill="white"/>
<path d="M328.789 93.3298C328.054 94.1943 328.422 97.5972 328.826 100.227C330.058 99.2894 331.252 98.1306 332.374 96.6591C330.903 94.4702 329.359 92.6309 328.789 93.3298Z" fill="white"/>
<path d="M321.565 58.1613C321.749 56.1748 323.403 54.6113 325.444 54.6113C327.484 54.6113 329.157 56.1748 329.322 58.1613C329.322 58.1613 328.146 56.3771 325.444 56.3771C322.741 56.3771 321.565 58.1613 321.565 58.1613Z" fill="#45813C"/>
<path d="M25.4039 40.3375C25.4039 40.3375 37.2238 58.9702 40.2202 55.6778C42.1871 53.5073 21.9296 30.5153 25.4039 40.3375Z" fill="#DFE0E3"/>
<path d="M27.9039 40.2825C27.9039 40.2825 40.9555 58.0875 43.7128 54.5928C45.5143 52.2936 23.7495 30.6995 27.9039 40.2825Z" fill="#F0F0F0"/>
<path d="M27.6465 40.816C27.6465 40.816 43.8783 55.77 45.9188 51.8154C47.2423 49.2035 21.7457 32.2262 27.6465 40.816Z" fill="#DFE0E3"/>
<path d="M24.2274 36.843C24.2274 36.843 32.7752 57.4622 36.3231 54.7032C38.6577 52.8822 22.4627 26.4506 24.2274 36.843Z" fill="#65452E"/>
<path d="M24.7053 37.6522C24.7053 37.6522 36.1577 56.7999 39.2643 53.5626C41.3232 51.429 21.4516 27.6276 24.7053 37.6522Z" fill="#835B40"/>
<path d="M25.7347 38.7745C25.7347 38.7745 40.8268 55.2 43.2165 51.3926C44.7974 48.8726 20.5141 29.6145 25.7347 38.7745Z" fill="#65452E"/>
<path d="M26.415 38.9764C26.415 38.9764 44.0805 52.6061 45.7901 48.4492C46.9114 45.6901 19.7237 30.8281 26.415 38.9764Z" fill="#835B40"/>
<path d="M11.1022 57.6831C11.1022 57.6831 8.95146 59.4489 10.0544 61.3066C10.0544 61.3066 10.1647 59.596 11.6169 58.6764L11.1022 57.6831Z" fill="#1E1E1E"/>
<path d="M14.1722 59.4302C14.1722 59.4302 13.1427 62.0237 15.0178 63.1089C15.0178 63.1089 14.3008 61.5638 15.1096 60.0556L14.1722 59.4302Z" fill="#1E1E1E"/>
<path d="M18.0141 59.7246C18.0141 59.7246 17.9222 62.5204 20.0362 62.9067C20.0362 62.9067 18.8413 61.6927 19.0986 60.0005L18.0141 59.7246Z" fill="#1E1E1E"/>
<path d="M20.3855 55.7886C20.3855 55.7886 22.6281 56.8738 22.0582 58.7315C22.0582 58.7315 21.5987 57.2785 20.1465 56.7818L20.3855 55.7886Z" fill="#1E1E1E"/>
<path d="M20.2383 56.0276V50.8958C20.2383 50.3807 19.8339 49.9761 19.3192 49.9761C18.8045 49.9761 18.4001 50.3807 18.4001 50.8958V55.7333C18.6391 56.4874 19.5398 56.3954 20.2383 56.0276Z" fill="#F2B225"/>
<path d="M16.9662 56.9842C16.9846 56.7634 17.0398 55.5862 16.1574 54.9976C15.5508 54.593 14.7787 54.6298 13.8412 55.1264C13.1243 55.4943 12.4625 55.9173 11.8375 56.4323C11.286 56.9106 10.6427 57.5727 10.7897 58.3821C10.8816 58.8787 11.4147 59.081 11.8559 58.8971C12.3522 58.6764 12.6279 58.1062 13.0507 57.7567C13.5471 57.3336 14.0986 57.0026 14.6684 56.7083C14.9074 56.5795 15.0545 56.5427 15.1464 56.5243C15.1648 56.6163 15.1831 56.745 15.1647 56.837C15.128 57.3336 15.4956 57.7567 15.992 57.8119C16.4883 57.8487 16.9295 57.4808 16.9662 56.9842Z" fill="#F2B225"/>
<path d="M19.503 56.6347C19.3927 56.3955 18.8045 55.1448 17.5728 55.016C16.7272 54.9241 15.9368 55.4023 15.2383 56.4139C13.6574 58.7315 13.5655 60.0007 13.5655 60.2398C13.5655 60.2398 13.4919 61.1043 14.3191 61.2147C15.0544 61.3066 15.4037 60.8652 15.6794 60.2582C15.6794 60.2766 15.6794 60.2766 15.6794 60.295C15.8633 59.3201 16.4515 58.4188 16.9846 57.6095C17.1685 57.352 17.2971 57.2233 17.3707 57.1681C17.4442 57.2417 17.5177 57.3704 17.5728 57.4808C17.8118 58.0142 18.4184 58.2533 18.9515 58.0326C19.4846 57.7751 19.7236 57.1681 19.503 56.6347Z" fill="#F9D027"/>
<path d="M21.3229 55.9726C21.1575 55.807 20.2935 55.0161 19.2825 55.3288C18.5839 55.5311 18.1244 56.1565 17.9038 57.1865C17.4442 59.3754 17.7015 60.4238 17.8118 60.6997C17.8118 60.6997 17.9038 61.2883 18.5472 61.3251C19.1906 61.3619 19.7237 60.8285 19.4663 59.9456C19.4295 59.6329 19.3744 58.8971 19.6685 57.5728C19.7236 57.3153 19.7788 57.1681 19.8339 57.0946C19.9075 57.1313 20.0178 57.2049 20.0913 57.2785C20.4406 57.628 21.0104 57.6096 21.3597 57.2601C21.6722 56.8738 21.6722 56.3036 21.3229 55.9726Z" fill="#F2B225"/>
<path d="M15.1832 46.4443L18.5288 53.4339L18.7126 52.6062L19.4111 53.4339L19.8891 52.6062L20.2384 53.4339L21.8744 46.9594L15.1832 46.4443Z" fill="#4B2B12"/>
<path d="M35.9371 57.6831C35.9371 57.6831 38.0878 59.4489 36.9849 61.3066C36.9849 61.3066 36.8746 59.596 35.4224 58.6764L35.9371 57.6831Z" fill="#1E1E1E"/>
<path d="M32.8672 59.4302C32.8672 59.4302 33.8966 62.0237 32.0216 63.1089C32.0216 63.1089 32.7385 61.5638 31.9297 60.0556L32.8672 59.4302Z" fill="#1E1E1E"/>
<path d="M29.0252 59.7246C29.0252 59.7246 29.1172 62.5204 26.9848 62.9067C26.9848 62.9067 28.1796 61.6927 27.9223 60.0005L29.0252 59.7246Z" fill="#1E1E1E"/>
<path d="M26.6539 55.7886C26.6539 55.7886 24.4112 56.8738 24.9811 58.7315C24.9811 58.7315 25.4406 57.2785 26.8928 56.7818L26.6539 55.7886Z" fill="#DFE0E3"/>
<path d="M26.7825 56.0276V50.8958C26.7825 50.3807 27.1869 49.9761 27.7017 49.9761C28.2164 49.9761 28.6208 50.3807 28.6208 50.8958V55.7333C28.3818 56.4874 27.4811 56.3954 26.7825 56.0276Z" fill="#F2B225"/>
<path d="M30.0547 56.9842C30.0363 56.7634 29.9812 55.5862 30.8635 54.9976C31.4702 54.593 32.2422 54.6298 33.1797 55.1264C33.8967 55.4943 34.5584 55.9173 35.1834 56.4323C35.7349 56.9106 36.3783 57.5727 36.2313 58.3821C36.1393 58.8787 35.6062 59.081 35.165 58.8971C34.6687 58.6764 34.393 58.1062 33.9702 57.7567C33.4739 57.3336 32.9224 57.0026 32.3525 56.7083C32.1135 56.5795 31.9665 56.5427 31.8746 56.5243C31.8562 56.6163 31.8378 56.745 31.8562 56.837C31.893 57.3336 31.5253 57.7567 31.0474 57.8119C30.5327 57.8487 30.1098 57.4808 30.0547 56.9842Z" fill="#F2B225"/>
<path d="M27.5362 56.6347C27.6465 56.3955 28.2348 55.1448 29.4664 55.016C30.312 54.9241 31.1025 55.4023 31.801 56.4139C33.3819 58.7315 33.4738 60.0007 33.4738 60.2398C33.4738 60.2398 33.5474 61.1043 32.7201 61.2147C31.9848 61.3066 31.6355 60.8652 31.3598 60.2582C31.3598 60.2766 31.3598 60.2766 31.3598 60.295C31.176 59.3201 30.5877 58.4188 30.0546 57.6095C29.8708 57.352 29.7422 57.2233 29.6686 57.1681C29.5951 57.2417 29.5215 57.3704 29.4664 57.4808C29.2458 58.0142 28.6208 58.2533 28.0877 58.0326C27.5546 57.7751 27.2973 57.1681 27.5362 56.6347Z" fill="#F9D027"/>
<path d="M25.7164 55.9726C25.8819 55.807 26.7458 55.0161 27.7569 55.3288C28.4554 55.5311 28.915 56.1565 29.1355 57.1865C29.5951 59.3754 29.3377 60.4238 29.2458 60.6997C29.2458 60.6997 29.1539 61.2883 28.5105 61.3251C27.8672 61.3619 27.3341 60.8285 27.5914 59.9456C27.6282 59.6329 27.6833 58.8971 27.4076 57.5728C27.3524 57.3153 27.2973 57.1681 27.2421 57.0946C27.1686 57.1313 27.0583 57.2049 26.9848 57.2785C26.6356 57.628 26.0657 57.6096 25.7164 57.2601C25.3672 56.8738 25.3672 56.3036 25.7164 55.9726Z" fill="#F2B225"/>
<path d="M31.8561 46.4443L28.5105 53.4339L28.3083 52.6062L27.6281 53.4339L27.1318 52.6062L26.7825 53.4339L25.1649 46.9594L31.8561 46.4443Z" fill="#4B2B12"/>
<path d="M27.812 16.6285V9.85966C27.812 8.11227 26.3965 6.71436 24.6686 6.71436C22.9222 6.71436 21.5252 8.13066 21.5252 9.85966V16.5182C13.6207 18.4311 7.77502 27.6647 7.77502 35.4636C7.77502 44.2189 15.3487 49.0932 24.687 49.0932C34.0253 49.0932 41.5989 44.2189 41.5989 35.4636C41.5989 27.7934 35.5878 18.7254 27.812 16.6285Z" fill="#4B2B12"/>
<path d="M36.1944 41.0916C36.1944 46.2418 31.0289 49.0928 24.6686 49.0928C18.3082 49.0928 13.1428 46.2234 13.1428 41.0916C13.1428 35.9598 18.3082 29.1357 24.6686 29.1357C31.0473 29.1357 36.1944 35.9414 36.1944 41.0916Z" fill="#5A3925"/>
<path d="M13.9515 26.7998C14.117 25.126 14.1537 22.9924 13.3265 21.4473C11.2492 17.603 7.31538 20.8955 5.62418 22.6613C2.31533 26.1193 0.182993 31.8581 0.955059 36.9715C1.24918 38.9948 3.4367 44.8991 5.95511 46.5178C6.02864 46.5546 8.30807 39.6938 8.41836 38.5901C8.58381 38.9028 8.49187 40.8342 8.91467 40.9997C8.9882 41.0365 10.4772 36.2174 10.4405 35.7759C10.5691 35.9966 10.2934 37.9096 10.3302 37.8728C10.9184 37.5417 13.6574 29.9267 13.9515 26.7998Z" fill="#4B2B12"/>
<path d="M14.1721 27.0759C14.3376 25.3286 14.3927 23.1213 13.5103 21.5211C11.3412 17.5297 7.26024 20.9509 5.5139 22.7902C2.07637 26.377 -0.129505 32.3365 0.660944 37.6523C0.734474 38.1673 0.93666 38.9214 1.2124 39.8043C1.37784 40.1906 1.56166 40.5768 1.78225 40.9263C1.85578 38.9398 2.0396 36.9349 2.86681 35.114C2.92196 35.0036 3.60214 40.4113 4.66832 42.8393C5.34848 41.3126 5.5139 39.602 5.97347 38.0017C6.01023 37.873 6.89262 41.6437 7.26027 43.4463C7.83013 41.6621 8.36323 39.8779 8.41838 39.3445C8.58382 39.6756 8.43675 41.938 8.63896 42.6185C8.65734 42.7105 10.5507 36.8797 10.514 36.4383C10.6426 36.659 10.3669 38.6455 10.4037 38.6271C11.0103 38.2409 13.8596 30.35 14.1721 27.0759Z" fill="#65452E"/>
<path d="M35.404 26.7998C35.2385 25.126 35.2018 22.9924 36.029 21.4473C38.1246 17.603 42.0401 20.8955 43.7313 22.6613C47.0401 26.1193 49.1725 31.8581 48.4004 36.9715C48.1063 38.9948 45.9188 44.8991 43.4004 46.5178C43.3269 46.5546 41.0474 39.6938 40.9371 38.5901C40.7717 38.9028 40.8636 40.8342 40.4408 40.9997C40.3672 41.0365 38.8783 36.2174 38.9151 35.7759C38.7864 35.9966 39.0621 37.9096 39.0253 37.8728C38.4371 37.5417 35.6981 29.9267 35.404 26.7998Z" fill="#4B2B12"/>
<path d="M35.1834 27.0759C35.0179 25.3286 34.9812 23.1213 35.8451 21.5211C38.0143 17.5297 42.0952 20.9509 43.8415 22.7902C47.2791 26.377 49.485 32.3365 48.6946 37.6523C48.621 38.1673 48.4188 38.9214 48.1431 39.8043C47.9776 40.1906 47.7938 40.5768 47.5732 40.9263C47.4997 38.9398 47.3159 36.9349 46.4886 35.114C46.4335 35.0036 45.7533 40.4113 44.6871 42.8393C44.007 41.3126 43.8415 39.602 43.382 38.0017C43.3452 37.873 42.4629 41.6437 42.0952 43.4463C41.5254 41.6621 40.9923 39.8779 40.9371 39.3445C40.7717 39.6756 40.9188 41.938 40.7166 42.6185C40.6982 42.7105 38.8047 36.8797 38.8415 36.4383C38.7128 36.659 38.9886 38.6455 38.9518 38.6271C38.3452 38.2409 35.4959 30.35 35.1834 27.0759Z" fill="#65452E"/>
<path d="M32.4076 6.82451C32.4076 2.92506 28.9516 0.11084 24.6685 0.11084C20.606 0.11084 17.2787 2.44684 16.9662 6.25431L16.9478 6.29109C16.9478 6.29109 14.7235 19.7368 15.275 21.1347L17.242 18.9459C17.242 18.9459 16.6721 20.6565 16.9478 22.6614C16.9478 22.6614 19.6133 21.8521 20.0913 20.3254C20.0913 20.3254 20.4957 22.735 21.378 23.5995L22.7751 20.9324C22.7751 20.9324 23.6391 23.3236 24.6869 24.5192C24.6869 24.5192 26.3781 21.8521 26.5803 20.9692L27.9774 23.6547C28.8413 22.7902 29.2642 20.3806 29.2642 20.3806C29.7421 21.9257 32.4076 22.7166 32.4076 22.7166C32.6833 20.7117 32.1134 19.0011 32.1134 19.0011L34.0804 21.1899C34.6135 19.792 32.4076 6.95326 32.4076 6.82451Z" fill="#F0F0F0"/>
<path d="M22.2604 4.39643C22.2604 5.11378 21.6906 5.68399 20.9736 5.68399C20.2567 5.68399 19.6869 5.11378 19.6869 4.39643C19.6869 3.67908 20.2567 3.10889 20.9736 3.10889C21.6906 3.10889 22.2604 3.67908 22.2604 4.39643Z" fill="#201208"/>
<path d="M20.8818 3.99158C20.8818 4.2123 20.6979 4.39624 20.4774 4.39624C20.2568 4.39624 20.0729 4.2123 20.0729 3.99158C20.0729 3.77085 20.2568 3.58691 20.4774 3.58691C20.6979 3.58691 20.8818 3.77085 20.8818 3.99158Z" fill="white"/>
<path d="M20.4406 4.83774C20.4406 4.92971 20.3671 5.02169 20.2568 5.02169C20.1649 5.02169 20.0729 4.9481 20.0729 4.83774C20.0729 4.74577 20.1465 4.65381 20.2568 4.65381C20.3487 4.65381 20.4406 4.72738 20.4406 4.83774Z" fill="white"/>
<path d="M29.6686 4.39643C29.6686 5.11378 29.0987 5.68399 28.3818 5.68399C27.6649 5.68399 27.095 5.11378 27.095 4.39643C27.095 3.67908 27.6649 3.10889 28.3818 3.10889C29.0987 3.10889 29.6686 3.67908 29.6686 4.39643Z" fill="#201208"/>
<path d="M28.2899 3.99158C28.2899 4.2123 28.1061 4.39624 27.8855 4.39624C27.6649 4.39624 27.4811 4.2123 27.4811 3.99158C27.4811 3.77085 27.6649 3.58691 27.8855 3.58691C28.1061 3.58691 28.2899 3.77085 28.2899 3.99158Z" fill="white"/>
<path d="M27.8488 4.83774C27.8488 4.92971 27.7752 5.02169 27.6649 5.02169C27.573 5.02169 27.4811 4.9481 27.4811 4.83774C27.4811 4.74577 27.5546 4.65381 27.6649 4.65381C27.7568 4.65381 27.8488 4.72738 27.8488 4.83774Z" fill="white"/>
<path d="M20.7898 7.08214C20.7898 7.08214 17.2972 5.88656 17.095 7.7811C16.8928 9.69404 19.834 10.8344 21.7274 13.244C23.6575 15.6536 20.7898 7.08214 20.7898 7.08214Z" fill="#F2B225"/>
<path d="M31.4333 8.79283L32.2421 8.44336C32.2421 8.44336 32.5914 10.9449 30.4406 12.3244C28.2899 13.7039 22.5177 14.8627 22.1133 17.2171C22.1133 17.2171 20.1832 14.5684 21.2677 11.8462C22.3523 9.14231 31.4333 8.79283 31.4333 8.79283Z" fill="#F2B225"/>
<path d="M21.7642 15.1571C21.7642 15.1571 21.6906 13.5016 24.9811 12.8211C28.2716 12.1405 29.7238 12.1037 31.5253 9.67578C31.5253 9.67578 21.9664 9.74935 21.7642 15.1571Z" fill="#9F331D"/>
<path d="M32.0767 7.96515C31.7274 7.43174 30.6245 7.24781 29.687 7.19263C29.0436 6.43849 28.1245 5.8315 27.0951 5.48202C25.7899 5.04057 24.3193 4.96699 22.959 5.39005C22.959 5.39005 16.6721 7.2294 17.1133 10.154C17.5545 13.097 20.6796 15.856 21.6906 16.5366C21.6906 16.5366 21.5068 13.7407 24.448 12.2509C25.937 11.4967 27.6281 11.5151 29.1906 11.0001C30.0362 10.761 32.9407 9.2711 32.0767 7.96515Z" fill="#F9D027"/>
<path d="M28.1612 7.13755C28.0877 7.21113 27.8304 7.08238 27.5914 6.86166C27.3524 6.62254 27.2054 6.38342 27.2789 6.30985C27.3524 6.23627 27.6098 6.36503 27.8488 6.58575C28.0877 6.80648 28.2348 7.04558 28.1612 7.13755Z" fill="#BD7F14"/>
<path d="M21.1759 7.13755C21.2494 7.21113 21.5068 7.08238 21.7457 6.86166C21.9847 6.62254 22.1317 6.38342 22.0582 6.30985C21.9847 6.23627 21.7273 6.36503 21.4884 6.58575C21.2494 6.80648 21.1024 7.04558 21.1759 7.13755Z" fill="#BD7F14"/>
<path d="M16.0288 25.0894C16.0288 25.0894 15.7163 27.7748 16.7825 29.1543C16.7825 29.1543 18.6943 28.5106 19.6869 26.9103C19.6869 26.9103 18.0325 28.3082 16.9847 28.4738C16.9847 28.437 16.3413 27.2966 16.0288 25.0894Z" fill="#201208"/>
<path d="M32.6466 25.0894C32.6466 25.0894 32.9591 27.7748 31.8929 29.1543C31.8929 29.1543 29.9812 28.5106 28.9885 26.9103C28.9885 26.9103 30.643 28.3082 31.6908 28.4738C31.6908 28.437 32.3341 27.2966 32.6466 25.0894Z" fill="#201208"/>
<path d="M29.8892 23.2314C29.8892 23.2314 29.4664 25.9169 28.0877 26.9286C28.0877 26.9286 26.4149 25.7882 25.8818 23.9856C25.8818 23.9856 27.0951 25.7882 28.0694 26.2112C28.0694 26.2112 28.9885 25.2731 29.8892 23.2314Z" fill="#201208"/>
<path d="M18.8046 23.2314C18.8046 23.2314 19.2274 25.9169 20.6061 26.9286C20.6061 26.9286 22.2789 25.7882 22.8119 23.9856C22.8119 23.9856 21.5987 25.7882 20.6244 26.2112C20.6244 26.2112 19.6869 25.2731 18.8046 23.2314Z" fill="#201208"/>
<path d="M26.3598 25.5674C26.3598 25.5674 25.6613 27.8666 24.1723 28.7311C24.1723 28.7311 22.6281 27.4251 22.2972 25.5674C22.2972 25.5674 23.3267 27.4803 24.2458 28.0137C24.2458 28.0137 25.2569 27.5171 26.3598 25.5674Z" fill="#201208"/>
<defs>
<linearGradient id="paint0_linear_175_9770" x1="139.037" y1="97.8015" x2="141.363" y2="97.8015" gradientUnits="userSpaceOnUse">
<stop stop-color="#383537"/>
<stop offset="0.0449" stop-color="#545152"/>
<stop offset="0.1083" stop-color="#747273"/>
<stop offset="0.1691" stop-color="#8C8A8A"/>
<stop offset="0.2254" stop-color="#9A9898"/>
<stop offset="0.2732" stop-color="#9F9D9D"/>
<stop offset="0.2968" stop-color="#989696"/>
<stop offset="0.4334" stop-color="#767374"/>
<stop offset="0.5721" stop-color="#5B5859"/>
<stop offset="0.7119" stop-color="#474546"/>
<stop offset="0.8536" stop-color="#3C393B"/>
<stop offset="1" stop-color="#383537"/>
</linearGradient>
<linearGradient id="paint1_linear_175_9770" x1="138.525" y1="48.1371" x2="141.851" y2="48.1371" gradientUnits="userSpaceOnUse">
<stop stop-color="#383537"/>
<stop offset="0.0449" stop-color="#545152"/>
<stop offset="0.1083" stop-color="#747273"/>
<stop offset="0.1691" stop-color="#8C8A8A"/>
<stop offset="0.2254" stop-color="#9A9898"/>
<stop offset="0.2732" stop-color="#9F9D9D"/>
<stop offset="0.2968" stop-color="#989696"/>
<stop offset="0.4334" stop-color="#767374"/>
<stop offset="0.5721" stop-color="#5B5859"/>
<stop offset="0.7119" stop-color="#474546"/>
<stop offset="0.8536" stop-color="#3C393B"/>
<stop offset="1" stop-color="#383537"/>
</linearGradient>
<radialGradient id="paint2_radial_175_9770" cx="0" cy="0" r="1" gradientUnits="userSpaceOnUse" gradientTransform="translate(140.228 43.526) scale(1.999 1.95509)">
<stop stop-color="#9F9D9D"/>
<stop offset="0.1421" stop-color="#8C8A8B"/>
<stop offset="0.5298" stop-color="#5F5C5D"/>
<stop offset="0.8284" stop-color="#434041"/>
<stop offset="1" stop-color="#383537"/>
</radialGradient>
<radialGradient id="paint3_radial_175_9770" cx="0" cy="0" r="1" gradientUnits="userSpaceOnUse" gradientTransform="translate(140.228 43.526) scale(1.99897 1.95509)">
<stop stop-color="#9F9D9D"/>
<stop offset="0.1421" stop-color="#8C8A8B"/>
<stop offset="0.5298" stop-color="#5F5C5D"/>
<stop offset="0.8284" stop-color="#434041"/>
<stop offset="1" stop-color="#383537"/>
</radialGradient>
<radialGradient id="paint4_radial_175_9770" cx="0" cy="0" r="1" gradientUnits="userSpaceOnUse" gradientTransform="translate(139.905 43.2759) scale(1.48635 1.45372)">
<stop stop-color="#878585"/>
<stop offset="0.0118" stop-color="#838282"/>
<stop offset="0.1821" stop-color="#555353"/>
<stop offset="0.3447" stop-color="#302F2F"/>
<stop offset="0.4954" stop-color="#161515"/>
<stop offset="0.6299" stop-color="#060606"/>
<stop offset="0.7346"/>
</radialGradient>
<linearGradient id="paint5_linear_175_9770" x1="140.228" y1="50.2974" x2="140.228" y2="53.2038" gradientUnits="userSpaceOnUse">
<stop stop-color="#505050"/>
<stop offset="0.0277" stop-color="#626262"/>
<stop offset="0.107" stop-color="#929292"/>
<stop offset="0.1861" stop-color="#B9B9B9"/>
<stop offset="0.2637" stop-color="#D8D8D8"/>
<stop offset="0.3394" stop-color="#EDEDED"/>
<stop offset="0.4121" stop-color="#FBFBFB"/>
<stop offset="0.4788" stop-color="white"/>
<stop offset="0.5497" stop-color="#FAFAFA"/>
<stop offset="0.6291" stop-color="#EDEDED"/>
<stop offset="0.7125" stop-color="#D6D6D6"/>
<stop offset="0.7989" stop-color="#B7B7B7"/>
<stop offset="0.8873" stop-color="#8F8F8F"/>
<stop offset="0.9764" stop-color="#5E5E5E"/>
<stop offset="1" stop-color="#505050"/>
</linearGradient>
<linearGradient id="paint6_linear_175_9770" x1="140.235" y1="121.32" x2="140.235" y2="124.643" gradientUnits="userSpaceOnUse">
<stop stop-color="#505050"/>
<stop offset="0.2588" stop-color="#8C8C8C"/>
<stop offset="0.5025" stop-color="#BEBEBE"/>
<stop offset="0.7151" stop-color="#E1E1E1"/>
<stop offset="0.8881" stop-color="#F7F7F7"/>
<stop offset="1" stop-color="white"/>
</linearGradient>
<linearGradient id="paint7_linear_175_9770" x1="140.227" y1="45.9929" x2="140.227" y2="45.168" gradientUnits="userSpaceOnUse">
<stop stop-color="#505050"/>
<stop offset="0.2588" stop-color="#8C8C8C"/>
<stop offset="0.5025" stop-color="#BEBEBE"/>
<stop offset="0.7151" stop-color="#E1E1E1"/>
<stop offset="0.8881" stop-color="#F7F7F7"/>
<stop offset="1" stop-color="white"/>
</linearGradient>
<linearGradient id="paint8_linear_175_9770" x1="139.016" y1="48.1371" x2="140.198" y2="48.1371" gradientUnits="userSpaceOnUse">
<stop offset="0.1147"/>
<stop offset="0.208" stop-color="#242424"/>
<stop offset="0.3287" stop-color="#4C4C4C"/>
<stop offset="0.4244" stop-color="#656565"/>
<stop offset="0.4826" stop-color="#6E6E6E"/>
<stop offset="0.4886" stop-color="#6B6B6B"/>
<stop offset="0.6075" stop-color="#3D3D3D"/>
<stop offset="0.7131" stop-color="#1C1C1C"/>
<stop offset="0.8005" stop-color="#070707"/>
<stop offset="0.8588"/>
</linearGradient>
</defs>
</svg>
