<svg width="123" height="61" viewBox="0 0 123 61" fill="none" xmlns="http://www.w3.org/2000/svg">
<path d="M70.984 17.8599C67.2246 16.3761 62.7721 16.4275 58.9417 17.5824C55.7454 18.547 53.4189 20.6886 51.3253 23.1013C51.3194 23.0581 51.3138 23.0119 51.3081 22.9657C51.2729 22.6638 51.1975 22.3681 51.1282 22.0728C51.0567 17.4814 51.3008 12.7949 50.8569 8.24257C50.5779 5.38811 49.5163 0.807486 46.0912 0.396115C42.9444 0.0179844 40.9184 4.32571 40.4486 6.74502C40.0361 8.85111 40.3704 11.1357 40.565 13.248C40.8305 16.1198 40.9958 42.9151 41.1272 45.5813C41.2389 47.8613 41.1548 50.1479 41.3338 52.427C41.5451 55.1267 43.9337 58.8733 47.1364 57.7015C49.1837 56.9524 49.7918 54.9649 49.9593 52.9502C51.4022 54.7049 53.0888 56.1849 55.3511 57.116C59.0522 58.6443 63.6519 58.7047 67.4844 57.6844C75.8782 55.4545 81.2071 47.195 82.3225 38.9348C83.4313 30.7229 78.8558 20.9643 70.984 17.8599ZM68.4502 56.4994C64.7377 57.7486 60.2278 57.4294 56.5335 56.2558C54.0349 55.4625 52.211 53.8195 50.6495 51.8971C50.307 51.6209 50.0042 51.3049 49.7405 50.9552C49.6906 51.3728 49.6466 51.7939 49.5877 52.2108C49.5812 52.2958 49.5748 52.3808 49.5684 52.4658C49.542 53.0988 49.4702 53.7254 49.3053 54.3725C48.7233 56.6612 46.1669 57.5214 44.3247 56.1213C41.3537 53.8604 42.275 48.6968 42.1594 45.4578C42.0261 41.6434 41.9144 25.862 41.9335 21.7691C41.9514 17.9753 41.7047 14.2073 41.5113 10.422C41.4011 8.2825 41.5079 6.30292 42.4504 4.33456C43.2665 2.62534 44.9432 1.04218 46.9394 1.81886C49.9796 3.0011 50.1632 9.13973 50.2041 11.6709C50.2581 14.9175 50.2196 18.1754 50.3806 21.4209C50.3803 21.424 50.3803 21.424 50.3801 21.427C50.4005 21.8438 50.4242 22.2578 50.4509 22.672C50.4419 22.7507 50.433 22.8294 50.4242 22.905C50.4391 23.2329 50.454 23.5607 50.472 23.8887C50.4929 23.9361 50.5074 23.986 50.5348 24.0278C50.518 24.0479 50.5012 24.068 50.4842 24.0912C50.4926 24.2231 50.5009 24.355 50.5062 24.4867C50.5994 24.5059 50.7071 24.4957 50.8284 24.4652C53.1064 22.1978 55.5821 20.0613 58.604 18.9003C62.2641 17.4944 66.6602 17.744 70.3189 18.9852C77.9693 21.5843 81.4468 30.2769 81.4299 37.7774C81.4203 45.5837 75.9754 53.9657 68.4502 56.4994Z" fill="white"/>
<path d="M70.3252 18.9826C66.6667 17.7384 62.2704 17.4918 58.6103 18.8977C55.5887 20.0556 53.113 22.1921 50.8347 24.4626C50.7134 24.4932 50.6027 24.5031 50.5125 24.4841C50.5042 24.3522 50.4989 24.2205 50.4905 24.0886C50.5073 24.0685 50.5243 24.0453 50.5411 24.0252C50.5137 23.9835 50.4992 23.9335 50.4783 23.8861C50.4603 23.5581 50.4424 23.23 50.4305 22.9024C50.4395 22.8237 50.4485 22.745 50.4573 22.6694C50.4305 22.2552 50.4071 21.8382 50.3864 21.4244C50.3866 21.4214 50.3866 21.4214 50.3869 21.4183C50.2259 18.1728 50.2644 14.9149 50.2104 11.6683C50.1665 9.13692 49.9859 2.99852 46.9457 1.81628C44.9434 1.03914 43.2667 2.6223 42.4506 4.33152C41.5114 6.29708 41.4014 8.27946 41.5115 10.4189C41.7049 14.2043 41.9516 17.9722 41.9337 21.766C41.9146 25.859 42.0264 41.6403 42.1596 45.4547C42.2752 48.6937 41.3507 53.8602 44.3249 56.1183C46.1671 57.5184 48.7205 56.6579 49.3055 54.3694C49.4707 53.7194 49.5424 53.0928 49.5686 52.4627C49.5781 52.3779 49.5815 52.2927 49.5879 52.2077C49.6469 51.7908 49.6907 51.3728 49.7407 50.9522C50.0044 51.3018 50.3072 51.6178 50.6497 51.894C52.2112 53.8164 54.0321 55.4592 56.5338 56.2527C60.2281 57.4263 64.7377 57.7486 68.4504 56.4963C75.9726 53.9624 81.4206 45.5807 81.4366 37.7687C81.4533 30.2713 77.9756 21.5817 70.3252 18.9826ZM72.1172 46.716C70.3664 48.9561 67.7202 50.4386 64.8094 49.9286C61.9709 49.4303 59.3156 47.5566 58.1383 44.8724C57.3857 43.1546 57.184 41.1762 57.4861 39.2785C57.6385 36.6551 59.3265 33.8301 61.7349 32.4244C64.3956 30.8697 67.2135 30.6704 70.0343 32.2116C75.5202 35.2121 75.7979 42.0051 72.1172 46.716Z" fill="#FFC60B"/>
<path d="M81.4364 37.7717C81.4534 30.2712 77.9756 21.5817 70.3254 18.9796C66.667 17.7354 62.2706 17.4888 58.6105 18.8947C55.5889 20.0526 53.1132 22.1891 50.835 24.4596C50.7136 24.4901 50.6029 24.5001 50.5128 24.4811C50.5044 24.3491 50.4991 24.2174 50.4907 24.0855C50.5075 24.0654 50.5245 24.0423 50.5413 24.0222C50.5139 23.9804 50.4994 23.9305 50.4786 23.8831C50.4606 23.555 50.4426 23.227 50.4307 22.8994C50.4397 22.8207 50.4487 22.742 50.4575 22.6663C50.4308 22.2521 50.4073 21.8351 50.3867 21.4214C50.3869 21.4183 50.3869 21.4183 50.3871 21.4153C50.2262 18.1698 50.2646 14.9118 50.2106 11.6652C50.1667 9.13387 49.9862 2.99547 46.9459 1.81323C44.9434 1.03912 43.2667 2.62228 42.4507 4.33151C41.5114 6.29706 41.4014 8.27945 41.5115 10.4189C41.7049 14.2042 41.9516 17.9722 41.9337 21.766C41.9146 25.859 42.0264 41.6403 42.1596 45.4547C42.2752 48.6937 41.3507 53.8602 44.3249 56.1183C46.1671 57.5184 48.7205 56.6579 49.3056 54.3694C49.4707 53.7193 49.5424 53.0927 49.5686 52.4627C49.5781 52.3779 49.5815 52.2927 49.5879 52.2077C49.6469 51.7908 49.6907 51.3728 49.7407 50.9522C50.0044 51.3018 50.3072 51.6178 50.6497 51.894C52.2112 53.8164 54.0321 55.4592 56.5338 56.2527C60.2281 57.4263 64.7377 57.7486 68.4504 56.4963C75.9754 53.9657 81.4204 45.5837 81.4364 37.7717ZM48.3106 48.9878C48.2113 49.4535 47.8094 50.4491 47.2524 51.1947C46.59 52.082 45.7067 52.6198 44.8437 51.5135C43.8666 50.2612 43.7685 48.3272 43.6429 46.8369C43.234 42.0643 43.3568 37.2037 43.2017 32.4259C43.0633 28.1135 43.0525 23.8107 43.1096 19.4978C43.1564 15.8466 42.4687 11.3278 43.364 7.76208C43.6703 6.53645 43.6974 5.04548 44.7822 4.3061C47.1293 2.7003 48.2529 7.2276 48.2977 8.45228C48.7429 20.3446 48.2991 32.2034 48.5406 44.0834C48.5728 45.7193 48.6551 47.3773 48.3106 48.9878ZM72.1172 46.716C70.3664 48.9561 67.7203 50.4386 64.8094 49.9286C61.9709 49.4303 59.3156 47.5566 58.1383 44.8724C57.3857 43.1546 57.184 41.1762 57.4861 39.2785C57.6385 36.6551 59.3266 33.8301 61.7349 32.4244C64.3956 30.8697 67.2135 30.6704 70.0343 32.2116C75.5203 35.212 75.798 42.005 72.1172 46.716ZM76.7793 32.6905C76.6959 32.785 76.5984 32.8631 76.4899 32.9251C75.2197 33.6536 73.9284 31.831 73.1527 31.1068C66.6413 25.0276 58.5699 30.2251 55.606 37.1275C55.0618 38.3901 54.3357 41.3335 53.1955 42.1603C51.3447 43.5013 50.3097 40.1043 50.1922 38.8314C49.342 29.7144 54.9967 17.666 65.8843 19.6089C68.5264 20.0802 72.5722 21.6926 74.4325 23.7017C75.6802 25.0508 77.1411 27.4968 77.2959 29.368C77.369 30.2192 77.4662 31.9241 76.7793 32.6905Z" fill="#FF990B"/>
<path d="M70.031 32.2144C67.2102 30.6732 64.3923 30.8725 61.7316 32.4272C59.3233 33.8329 57.6321 36.6577 57.4828 39.2813C57.1807 41.179 57.3824 43.1574 58.135 44.8752C59.3124 47.5594 61.9676 49.4331 64.8061 49.9315C67.72 50.4416 70.3631 48.9589 72.1139 46.7188C75.7979 42.0051 75.5202 35.212 70.031 32.2144ZM71.8879 46.1125C69.3176 50.0677 63.415 50.0767 60.3935 46.7068C59.6416 45.8683 58.746 44.5886 58.4537 43.4857C58.2037 42.5508 58.158 41.5795 58.2156 40.616C58.3288 38.7529 58.5736 37.1288 59.6308 35.5416C60.1162 34.8149 60.7847 33.9678 61.4955 33.4505C62.326 32.8446 63.5138 32.3175 64.5415 32.1723C66.2728 31.9275 68.0084 32.2326 69.564 33.0218C74.4689 35.5082 74.5892 41.9596 71.8879 46.1125Z" fill="white"/>
<path d="M45.0932 24.0778C45.1545 22.0948 45.187 20.128 45.1231 18.1446C44.997 14.114 44.7559 10.1114 45.0541 6.08227C45.0681 5.89708 44.826 5.94902 44.7795 6.07985C43.4345 9.98103 43.8738 14.2307 44.02 18.2781C44.1591 22.1357 43.677 26.0532 44.2361 29.8875C44.2988 30.3105 44.8198 30.0018 44.8678 29.7306C45.2031 27.8782 45.037 25.9544 45.0932 24.0778Z" fill="white"/>
<path d="M44.9875 33.8859C44.9912 33.877 44.9977 33.8714 45.0042 33.8658C45.0595 33.7814 45.0972 33.6866 45.1106 33.5899C45.1526 33.2755 45.2294 32.9058 44.8983 32.722C44.7665 32.6479 44.5737 32.6944 44.4575 32.7772C44.1349 33.0063 44.1239 33.3535 44.1183 33.7103C44.117 33.7285 44.1221 33.7411 44.124 33.7566C44.1248 33.7871 44.1288 33.8149 44.1328 33.8427C44.1325 33.8457 44.1353 33.849 44.1351 33.852C44.1605 33.9608 44.2234 34.0572 44.3414 34.1119C44.5036 34.1883 44.6649 34.1546 44.7997 34.0671C44.8093 34.0617 44.8219 34.0566 44.8315 34.0512C44.8347 34.0484 44.8413 34.0428 44.8445 34.04L44.8478 34.0372C44.88 34.0152 44.9066 33.9866 44.9364 33.9553C44.9534 33.9322 44.9704 33.909 44.9875 33.8859Z" fill="white"/>
<path d="M70.0391 22.2035C63.1309 17.7003 54.7208 22.4907 52.4219 29.7242C52.3261 30.0222 52.7419 30.0964 52.8639 29.8552C54.205 27.2178 56.3242 24.9506 58.8819 23.4675C60.4082 22.5814 62.138 22.2357 63.8787 22.1504C65.8615 22.0529 67.4891 22.7773 69.2823 23.4928C70.0325 23.7877 70.7667 22.6768 70.0391 22.2035Z" fill="white"/>
<path d="M72.091 23.2134C72.0569 23.22 72.0261 23.2238 71.9922 23.2273C71.9864 23.2238 71.9864 23.2238 71.9805 23.2203C71.6384 23.0204 71.1338 23.5563 71.3531 23.8874C71.4572 24.0448 71.5989 24.1502 71.7701 24.2272C72.0891 24.3704 72.456 24.1203 72.5558 23.8103C72.6485 23.512 72.4381 23.145 72.091 23.2134Z" fill="white"/>
<path d="M38.2964 27.343C38.6313 25.1509 39.2829 22.0942 38.1868 20.0148C37.1365 18.0267 35.057 17.7618 33.139 18.7208C31.5254 19.5277 30.8799 21.1352 30.7612 22.7914C30.4811 22.1247 30.134 21.4883 29.653 20.8794C28.6087 19.5672 26.8611 18.797 25.3206 18.2672C21.5392 16.9672 17.1247 17.1955 13.3433 18.322C6.04251 20.4989 0.900272 28.0432 0.133046 35.4202C-0.29319 39.5121 0.300496 43.8384 1.975 47.6105C3.52163 51.0874 6.46875 53.2825 10.0461 54.3786C16.3696 56.3179 23.4086 55.2706 28.7883 51.5563C28.9284 53.1577 29.7473 55.2067 31.1478 55.8613C32.7432 56.6072 35.1697 56.5098 36.3175 54.9418C37.7819 52.9415 37.31 50.5972 37.0482 48.2895C36.6737 44.9801 36.8838 41.625 37.1669 38.3155C37.4835 34.6651 37.7423 30.9691 38.2964 27.343ZM36.4271 50.2989C36.7194 52.8228 35.9521 55.2524 32.9654 55.1062C30.6333 54.9905 30.274 52.771 29.6438 51.0448C29.6103 50.9717 29.5708 50.9017 29.516 50.8317C29.3546 50.6277 29.1263 50.5912 28.8796 50.6277C28.2098 50.9626 27.5279 51.2762 26.8885 51.5867C22.3187 54.1655 16.9085 54.7683 11.6171 53.6022C8.20414 52.8502 5.2966 51.0783 3.48509 48.0459C1.56703 44.837 0.991608 40.6172 1.07077 36.9455C1.22908 29.7665 5.66194 22.627 12.3173 19.7986C18.2877 17.2625 26.6724 18.1941 30.5146 23.7139C30.7399 23.7383 30.9195 23.6774 31.0626 23.5617C31.5467 21.19 33.7113 18.2733 36.4514 19.9021C38.2842 20.9921 37.8063 24.2254 37.5992 25.9486C37.0969 30.1257 36.5549 34.2815 36.3357 38.486C36.1257 42.4348 35.9734 46.3653 36.4271 50.2989Z" fill="white"/>
<path d="M37.5932 25.9486C37.8002 24.2284 38.2782 20.9921 36.4454 19.9021C33.7053 18.2733 31.5406 21.19 31.0565 23.5617C30.9134 23.6774 30.7368 23.7383 30.5085 23.7139C26.6693 18.1942 18.2846 17.2595 12.3143 19.7986C5.6589 22.627 1.22604 29.7665 1.06773 36.9455C0.985523 40.6172 1.56399 44.837 3.48205 48.0459C5.2966 51.0783 8.2011 52.8502 11.614 53.6022C16.9055 54.7683 22.3156 54.1685 26.8855 51.5867C27.5279 51.2762 28.2068 50.9626 28.8766 50.6277C29.1232 50.5912 29.3516 50.6277 29.5129 50.8317C29.5677 50.9017 29.6073 50.9717 29.6408 51.0448C30.271 52.7711 30.6303 54.9905 32.9624 55.1062C35.9491 55.2524 36.7163 52.8259 36.424 50.2989C35.9704 46.3653 36.1226 42.4348 36.3297 38.486C36.5519 34.2785 37.0938 30.1227 37.5932 25.9486ZM23.0646 38.6474C21.8437 41.5732 19.4964 44.6847 15.9616 44.6239C14.3298 44.5965 12.8927 44.0271 11.745 43.0833C10.4297 42.0969 9.57114 40.7786 9.24233 39.1254C8.41117 36.1539 9.32149 33.0211 11.5501 30.8473C12.0738 30.3358 12.6096 29.8913 13.1576 29.5138C13.3677 29.3615 13.5839 29.2154 13.8061 29.0814C16.5462 27.4526 19.9622 26.798 22.2882 29.4955C24.6264 32.196 24.3829 35.4933 23.0646 38.6474Z" fill="#ED174B"/>
<path d="M37.5931 25.9486C37.8002 24.2284 38.2782 20.9921 36.4454 19.9021C33.7053 18.2733 31.5406 21.19 31.0565 23.5617C30.9134 23.6774 30.7368 23.7383 30.5085 23.7139C26.6693 18.1942 18.2846 17.2595 12.3143 19.7986C5.6589 22.627 1.22604 29.7665 1.06772 36.9455C1.01597 39.2959 1.23517 41.8655 1.90193 44.2555C1.99022 44.3346 2.00544 44.6239 2.0846 44.8735C2.43777 45.9939 2.8975 47.0656 3.48205 48.0459C5.2966 51.0783 8.2011 52.8502 11.614 53.6022C16.9055 54.7683 22.3156 54.1685 26.8855 51.5867C27.5279 51.2762 28.2068 50.9626 28.8766 50.6277C29.1232 50.5912 29.3516 50.6277 29.5129 50.8317C29.5677 50.9017 29.6073 50.9717 29.6408 51.0448C30.271 52.7711 30.6303 54.9905 32.9624 55.1062C35.9491 55.2524 36.7163 52.8259 36.424 50.2989C35.9704 46.3653 36.1226 42.4348 36.3297 38.486C36.5519 34.2785 37.0938 30.1227 37.5931 25.9486ZM17.2038 44.4351C13.7513 45.1901 10.5241 43.3786 9.33976 40.1118C8.87394 38.824 8.73085 37.4326 8.86785 36.0626C8.95919 36.0291 9.05661 35.9347 9.0627 35.8312C9.19971 33.3438 10.7646 31.5506 12.5974 29.9248C12.64 29.9309 13.2764 29.4194 13.3372 29.3829C18.7048 26.1983 22.6231 28.0646 23.7587 32.9419C24.8243 37.5209 22.0081 43.3847 17.2038 44.4351ZM27.5705 26.7371C27.2417 28.2533 25.2536 28.8105 23.9323 28.3964C22.6718 28.0037 21.588 27.2547 20.4189 26.6641C18.8631 25.8786 17.4778 25.6807 15.782 26.2226C12.57 27.2486 9.903 29.736 8.49946 32.7958C8.42944 32.945 8.36246 33.1002 8.29548 33.2586C7.49476 35.8891 7.60436 38.5561 7.72919 41.284C7.78704 42.5414 7.78399 44.1185 6.97719 45.1658C6.05773 46.3562 4.41368 45.041 3.98135 44.1641C-0.692025 34.6408 5.07435 23.6591 12.6948 20.575C17.079 18.8 21.8863 19.1349 25.6037 21.945C26.5293 22.6361 27.8719 25.3549 27.5705 26.7371ZM35.2001 31.4318C34.579 35.0153 33.958 38.7387 34.1406 42.3892C34.2655 44.8705 35.2884 48.2651 34.0645 50.6125C33.1177 52.427 31.8024 50.8591 31.367 49.5043C30.4659 46.6941 30.7794 43.7318 30.7794 40.8303C30.7794 37.4905 30.7551 34.1141 31.2666 30.8047C31.5406 29.0206 31.8176 26.3962 33.3095 25.1357C34.8043 23.8722 35.5868 26.1587 35.6477 27.2973C35.8364 28.6156 35.4376 30.0587 35.2001 31.4318Z" fill="#AE032F"/>
<path d="M13.8091 29.0754C13.5869 29.2093 13.3707 29.3555 13.1606 29.5077C12.6096 29.8883 12.0737 30.3297 11.5531 30.8412C9.3245 33.0181 8.41418 36.1509 9.24534 39.1193C9.57415 40.7725 10.4327 42.0908 11.748 43.0772C12.8957 44.0241 14.3328 44.5904 15.9647 44.6178C19.4994 44.6787 21.8437 41.5671 23.0676 38.6413C24.3859 35.4872 24.6264 32.1899 22.2912 29.4833C19.9652 26.792 16.5492 27.4465 13.8091 29.0754ZM22.3521 37.9228C21.4235 40.8273 19.7429 43.2295 16.5796 43.8079C15.2096 44.0606 14.0009 43.747 12.9871 43.0985C12.7039 42.9007 12.4391 42.6967 12.1894 42.4835C12.1833 42.4775 12.1772 42.4714 12.1711 42.4683C12.1224 42.4257 12.0737 42.3831 12.0281 42.3374C11.3156 41.6463 10.7402 40.7756 10.314 39.847C10.2105 39.576 10.1222 39.2868 10.0461 38.9762C9.28492 35.886 10.9625 32.4335 13.2946 30.4911C15.581 28.5852 18.8204 27.7662 21.2561 29.7726C23.7282 31.8155 23.2107 35.2436 22.3521 37.9228Z" fill="white"/>
<path d="M18.5739 20.6481C16.5675 19.8535 14.007 20.7059 12.0798 21.4123C9.97302 22.1825 8.15847 23.9301 6.76102 25.6442C3.48509 29.6599 2.83051 34.7474 3.63123 39.6948C3.67081 39.9292 3.98744 39.7435 3.99353 39.576C4.30103 31.0696 8.57253 21.4823 18.2816 21.464C18.6652 21.461 19.0366 20.8308 18.5739 20.6481Z" fill="white"/>
<path d="M33.3886 26.2135C31.7293 28.5152 31.6167 31.8459 31.3914 34.5891C31.0656 38.5226 31.0382 42.514 31.5192 46.4354C31.5832 46.9621 32.2134 46.7063 32.2469 46.2892C32.3687 44.8096 32.1495 43.3208 32.0825 41.8412C32.0033 40.051 32.1068 38.2334 32.186 36.4432C32.256 34.8874 32.4204 33.3438 32.5666 31.7942C32.7462 29.8852 32.6792 28.0798 33.5926 26.3292C33.6657 26.1861 33.4799 26.0887 33.3886 26.2135Z" fill="white"/>
<path d="M32.3656 47.6014C32.1799 47.44 31.9029 47.6045 31.8146 47.7871C31.7872 47.845 31.775 47.912 31.778 47.9759C31.775 47.9759 31.772 47.9728 31.772 47.9728C31.775 48.1494 31.7385 48.326 31.8054 48.4935C31.8694 48.6548 32.0064 48.7492 32.186 48.7157C32.3839 48.6761 32.4996 48.5209 32.5605 48.3443C32.6457 48.0764 32.5727 47.7841 32.3656 47.6014Z" fill="white"/>
<path d="M20.0657 20.8185C20.1448 20.8338 20.02 20.7881 20.02 20.7881C19.9621 20.7637 19.8952 20.7576 19.8312 20.7516C19.3989 20.7028 19.1645 21.4914 19.6546 21.5127C19.7338 21.5157 19.8069 21.5553 19.8921 21.5645C20.3123 21.6132 20.5406 20.9038 20.0657 20.8185Z" fill="white"/>
<path d="M121.975 23.8347C121.574 21.4752 120.277 20.163 118.285 19.0822C114.291 16.9115 109.152 15.9311 104.378 16.263C102.183 16.6801 99.9817 17.1093 97.9296 17.971C95.3509 19.0518 93.238 20.8085 91.1433 22.6017C90.2482 23.5394 89.4384 24.5563 88.7168 25.5975C86.9327 28.1671 85.3648 31.4492 84.5854 34.8408C84.6006 34.6703 84.625 34.5028 84.6402 34.3323C83.669 38.3024 83.9034 42.5161 85.0086 46.4679C86.6557 51.7319 90.1082 56.0887 95.019 58.71C96.8366 59.6812 98.8643 60.3754 100.928 60.6007C105.611 61.0543 108.927 59.8304 111.411 58.8349C114.328 57.6657 116.574 56.0034 117.884 52.9558C118.922 50.5476 117.856 47.8775 115.427 46.9642C112.568 45.8894 109.383 48.7452 106.832 50.2127C103.589 51.2083 100.651 51.0804 97.8109 48.7391C95.4727 46.8089 94.2609 43.7552 94.0052 40.802C93.7068 37.3647 95.22 33.9457 97.4608 31.4157C98.3376 30.4262 99.3149 29.6437 100.365 29.0227C100.992 28.706 101.623 28.3985 102.262 28.1123C102.454 28.0484 102.652 27.9875 102.85 27.9358C104.369 27.2112 106.107 27.1777 107.815 27.5126C108.692 27.6313 109.569 27.8505 110.421 28.1367C110.531 28.155 110.638 28.1732 110.75 28.1915C113.216 29.1871 116.51 30.5541 119.092 29.2997C121.275 28.2433 122.383 26.2369 121.975 23.8347Z" fill="white"/>
<path d="M119.796 27.7104C118.276 29.2084 115.978 28.9465 114.099 28.4807C113.122 28.2402 112.199 27.8779 111.286 27.5156C110.068 27.1259 108.853 26.7179 107.587 26.5474C106.421 26.3891 105.282 26.4531 104.165 26.657C104.064 26.6905 103.961 26.7179 103.857 26.7545C101.979 27.1015 100.25 27.9449 98.8004 29.1657C98.161 29.6194 97.546 30.1461 96.9645 30.752C94.4467 33.3672 93.0462 36.972 93.0888 40.5828C93.1284 44.0018 94.6385 47.3965 97.2416 49.5642C102.35 53.8144 108.15 50.3162 108.181 50.2523C109.697 49.5338 111.07 48.5199 112.699 47.9628C114.577 47.3204 116.392 48.0389 117.174 49.8473C117.878 51.4731 117.062 53.449 115.905 54.5725C114.191 56.2348 113.256 57.0447 110.488 58.1437C107.575 59.3007 103.982 59.7269 100.935 59.7178C98.6999 59.4194 96.4987 58.4573 94.5989 57.3613C89.9377 54.6699 87.0393 50.1488 85.5718 45.0705C85.31 44.1632 85.0938 43.2011 84.9203 42.2086C84.5671 36.5275 86.2538 30.9042 89.3836 26.1334C90.8907 23.8378 92.8605 21.9715 95.0982 20.4005C97.5795 18.659 100.712 18.2054 103.617 17.4899C107.627 16.9997 111.661 17.3133 115.475 18.8326C117.625 19.6881 119.744 21.2804 120.66 23.4511C121.306 24.9947 120.974 26.5474 119.796 27.7104Z" fill="#6DC040"/>
<path d="M98.8004 29.1627C100.25 27.9449 101.979 27.0985 103.857 26.7514C103.958 26.7149 104.061 26.6875 104.165 26.654C105.282 26.45 106.421 26.3861 107.587 26.5444C108.85 26.7149 110.065 27.1229 111.286 27.5126C112.199 27.8749 113.122 28.2372 114.099 28.4777C115.978 28.9404 118.276 29.2053 119.796 27.7074C120.974 26.5444 121.309 24.9917 120.657 23.4511C119.741 21.2834 117.622 19.6881 115.472 18.8326C111.658 17.3133 107.623 16.9997 103.614 17.4899C100.709 18.2023 97.5765 18.656 95.0952 20.4005C92.8574 21.9715 90.8876 23.8347 89.3806 26.1334C86.2508 30.9042 84.5641 36.5275 84.9173 42.2086C85.0878 43.2011 85.3039 44.1632 85.5688 45.0705C87.0363 50.1488 89.9347 54.6699 94.5959 57.3613C96.4957 58.4573 98.6969 59.4194 100.932 59.7178C103.979 59.7269 107.572 59.3007 110.485 58.1437C113.253 57.0447 114.191 56.2348 115.902 54.5725C117.059 53.449 117.878 51.4731 117.171 49.8473C116.389 48.0389 114.574 47.3173 112.696 47.9628C111.067 48.5199 109.694 49.5338 108.178 50.2523C108.15 50.3162 102.347 53.8144 97.2385 49.5642C94.6354 47.3965 93.1254 44.0018 93.0858 40.5828C93.0432 36.9689 94.4406 33.3672 96.9615 30.752C97.546 30.143 98.161 29.6194 98.8004 29.1627ZM91.3686 41.0029C91.4235 43.0854 91.8832 44.8391 92.556 46.7754C92.897 47.7527 93.4968 49.2567 92.7265 50.1975C90.8054 52.5509 88.2115 48.2246 87.8796 46.8789C87.1215 43.807 86.3939 40.0013 86.9328 36.8958C87.426 34.0614 88.4824 30.7063 90.0108 28.2432C92.894 23.6034 98.3589 20.1569 103.751 19.2405C106.47 18.7778 110.361 19.3806 112.9 20.6958C114.294 21.4174 116.112 23.2228 114.23 24.5746C111.53 26.5139 107.925 25.2231 104.926 25.0282C101.671 24.812 98.636 26.4287 96.3069 28.6421C92.9853 31.7932 91.2438 36.4422 91.3686 41.0029Z" fill="#009743"/>
<path d="M103.879 20.3548C101.55 20.1691 98.7212 21.3626 96.7514 22.5347C94.7877 23.7038 93.1893 25.4148 91.874 27.2598C88.8021 31.5648 87.7213 37.0633 88.3819 42.239C88.3971 42.3699 88.5555 42.306 88.5616 42.2025C88.9117 37.593 89.9986 32.8009 92.3794 28.7943C93.5059 26.9006 95.0525 25.2778 96.8397 24.0052C99.0043 22.4616 101.604 22.489 103.891 21.39C104.296 21.1951 104.485 20.4035 103.879 20.3548Z" fill="white"/>
<path d="M107.219 20.23C107.173 20.2178 107.127 20.2117 107.082 20.2057C107.082 20.2026 107.082 20.2026 107.085 20.1996C107.075 20.1996 107.066 20.1996 107.054 20.1996C106.954 20.1874 106.856 20.1904 106.756 20.2057C106.567 20.2087 106.375 20.2148 106.186 20.227C105.943 20.2452 105.754 20.3822 105.654 20.574C105.514 20.5923 105.386 20.7902 105.477 20.9089C105.507 20.9485 105.544 20.982 105.584 21.0125C105.584 21.0155 105.584 21.0155 105.584 21.0185C105.614 21.1951 105.8 21.3169 105.967 21.3291C106.247 21.3504 106.53 21.3474 106.811 21.3565C107.078 21.3626 107.319 21.1982 107.435 20.9607C107.556 20.7232 107.526 20.3213 107.219 20.23Z" fill="white"/>
</svg>
