<svg width="22" height="20" viewBox="0 0 22 20" fill="none" xmlns="http://www.w3.org/2000/svg">
<path d="M4.60003 15.759C3.60003 14.899 2.69003 13.839 1.89003 12.589C0.990027 11.179 0.990027 8.809 1.89003 7.399C3.07003 5.549 4.51003 4.099 6.12003 3.129M16.82 3.77C15.07 2.45 13.07 1.73 11 1.73M7.42203 17.53C8.56203 18.01 9.77203 18.27 11.002 18.27C14.532 18.27 17.822 16.19 20.112 12.59C21.012 11.18 21.012 8.81 20.112 7.4C19.782 6.88 19.422 6.39 19.052 5.93M13.532 7.472L8.47203 12.532C8.13978 12.1998 7.87623 11.8053 7.69642 11.3712C7.51661 10.9371 7.42407 10.4719 7.42407 10.002C7.42407 9.53214 7.51661 9.06687 7.69642 8.63278C7.87623 8.19868 8.13978 7.80425 8.47203 7.472C8.80427 7.13976 9.1987 6.87621 9.6328 6.6964C10.0669 6.51659 10.5322 6.42404 11.002 6.42404C11.4719 6.42404 11.9372 6.51659 12.3713 6.6964C12.8054 6.87621 13.1998 7.13976 13.532 7.472V7.472Z" stroke="white" stroke-width="1.5" stroke-linecap="round" stroke-linejoin="round"/>
</svg>
