<svg width="38" height="30" viewBox="0 0 38 30" fill="none" xmlns="http://www.w3.org/2000/svg">
<path fill-rule="evenodd" clip-rule="evenodd" d="M14.0776 22.9087L4.40883 29.5049C2.53739 30.7816 0 29.4408 0 27.1762V2.82574C0 0.559672 2.53696 -0.781903 4.40877 0.495094L22.2581 12.6703C23.899 13.7896 23.899 16.2113 22.2581 17.3278L15.9571 21.6265V27.1737C15.9571 27.9293 16.8028 28.3759 17.4268 27.9501L35.2513 15.7772C35.7992 15.4024 35.7992 14.5974 35.2517 14.224L17.4272 2.05093C16.8028 1.62489 15.9571 2.07141 15.9571 2.82706V3.71041C15.9571 4.22942 15.5364 4.65014 15.0174 4.65014C14.4983 4.65014 14.0776 4.22942 14.0776 3.71041V2.82706C14.0776 0.560903 16.6146 -0.77866 18.4868 0.49859L36.3113 12.6716C37.9519 13.7908 37.9519 16.2072 36.3117 17.3289L18.4864 29.5025C16.6146 30.7795 14.0776 29.4399 14.0776 27.1737V22.9087ZM14.0776 20.6335L3.34963 27.9523C2.72581 28.3779 1.87947 27.9307 1.87947 27.1762V2.82574C1.87947 2.06954 2.72566 1.62202 3.34962 2.04773L21.199 14.2229C21.7458 14.5959 21.7458 15.4032 21.1999 15.7745L15.9571 19.3514V15.9006C15.9571 15.3816 15.5364 14.9609 15.0174 14.9609C14.4983 14.9609 14.0776 15.3816 14.0776 15.9006V20.6335Z" fill="white"/>
</svg>
