<svg width="38" height="30" viewBox="0 0 38 30" fill="none" xmlns="http://www.w3.org/2000/svg">
<path fill-rule="evenodd" clip-rule="evenodd" d="M23.4641 7.09128L33.1329 0.495091C35.0044 -0.781633 37.5417 0.559182 37.5417 2.82385V27.1743C37.5417 29.4403 35.0048 30.7819 33.133 29.5049L15.2836 17.3297C13.6428 16.2104 13.6428 13.7887 15.2836 12.6722L21.5847 8.37355V2.82629C21.5847 2.07065 20.739 1.62409 20.1149 2.04988L2.29048 14.2228C1.74252 14.5976 1.74252 15.4026 2.29001 15.776L20.1145 27.9491C20.739 28.3751 21.5847 27.9286 21.5847 27.1729V26.2896C21.5847 25.7706 22.0054 25.3499 22.5244 25.3499C23.0434 25.3499 23.4641 25.7706 23.4641 26.2896V27.1729C23.4641 29.4391 20.9271 30.7787 19.055 29.5014L1.23046 17.3284C-0.410126 16.2092 -0.410126 13.7928 1.23009 12.6711L19.0554 0.497532C20.9271 -0.779474 23.4641 0.560122 23.4641 2.82629V7.09128ZM23.4641 9.36647L34.1921 2.04772C34.8159 1.62211 35.6623 2.06933 35.6623 2.82385V27.1743C35.6623 27.9305 34.8161 28.378 34.1921 27.9523L16.3427 15.7771C15.796 15.4041 15.796 14.5968 16.3419 14.2255L21.5847 10.6486V14.0994C21.5847 14.6184 22.0054 15.0391 22.5244 15.0391C23.0434 15.0391 23.4641 14.6184 23.4641 14.0994V9.36647Z" fill="white"/>
</svg>
