<svg width="65" height="65" viewBox="0 0 65 65" fill="none" xmlns="http://www.w3.org/2000/svg">
<path d="M55.4444 12.8333C60.3611 17.75 62 25.9444 62 32.5C62 39.0556 60.3611 47.25 55.4444 52.1667M45.6111 22.6666C47.25 24.3055 48.8889 27.5833 48.8889 32.5C48.8889 37.4167 47.25 40.6944 45.6111 42.3333M3 27.5833V37.4167C3 41.0373 4.63889 43.9722 11.1944 45.6111C17.75 47.25 22.6667 62 32.5 62C39.0556 62 39.0556 3 32.5 3C22.6667 3 17.75 17.75 11.1944 19.3889C4.63889 21.0278 3 23.9628 3 27.5833Z" stroke="white" stroke-width="5" stroke-linecap="round" stroke-linejoin="round"/>
</svg>
