<svg width="192" height="177" viewBox="0 0 192 177" fill="none" xmlns="http://www.w3.org/2000/svg">
<path d="M56.0906 167.035C55.4665 166.366 54.5302 165.876 53.7724 165.386C52.9699 164.895 51.9891 164.36 51.0529 164.137C50.6517 163.067 50.2505 161.997 50.0722 160.838C49.7155 158.877 49.5818 156.871 49.5818 154.864C49.4034 154.463 49.3142 154.017 49.1805 153.572C48.4226 152.1 46.7731 151.075 45.2127 150.763C43.9645 150.495 43.2512 151.03 43.0283 151.833L42.9837 151.877C42.9837 151.922 42.9837 151.922 42.9837 151.967C42.9391 152.279 42.8945 152.591 42.9391 152.903C42.9837 155.31 43.697 157.718 44.5441 159.991C45.1682 161.641 46.0153 163.157 46.996 164.583C47.8431 165.876 48.6455 167.169 49.6709 168.283C50.0721 168.774 50.4288 169.443 51.1421 169.443C51.4096 169.443 51.7217 169.398 51.9446 169.264C53.4158 169.22 54.8869 169.621 56.3581 169.799C55.9123 171.36 55.9569 172.964 56.3135 174.525C56.4027 174.971 56.4918 175.862 57.0714 175.818C57.2051 175.818 57.2943 175.684 57.3389 175.55C57.5172 175.951 57.6955 176.308 57.963 176.576C58.1413 176.798 58.4088 176.576 58.4534 176.353C58.5426 176.174 58.5426 175.951 58.5426 175.729C58.6763 175.951 58.8547 176.085 58.9884 176.13C59.0776 176.219 59.2113 176.263 59.345 176.308C59.7463 176.397 59.6571 175.595 59.4342 174.837C59.4342 174.748 59.3896 174.659 59.3896 174.569C59.6125 174.748 59.8354 174.881 60.1475 174.881C60.1921 174.881 60.2367 174.792 60.2367 174.748C60.415 174.213 60.0137 173.633 59.8354 173.143C59.2559 171.85 58.8547 170.468 58.4088 169.086C58.0968 168.239 57.428 165.341 56.0906 167.035Z" fill="#281417"/>
<path d="M58.2305 169.756C58.498 170.603 58.7655 171.45 59.0776 172.252C59.2559 172.653 59.3897 173.055 59.568 173.456C59.7909 173.946 60.2813 175.061 59.4788 174.303C59.2559 174.035 59.0776 173.813 58.9439 173.5C58.7209 173.01 58.5872 172.52 58.4981 172.029C58.4981 171.896 58.3643 172.074 58.3643 172.118C58.4089 172.787 58.5426 173.59 58.9439 174.169C59.033 174.392 59.0776 174.615 59.1222 174.882C59.1668 175.328 59.1668 175.952 58.9439 175.774C58.6318 175.551 58.4535 175.15 58.2752 174.793C57.9185 174.08 57.6956 173.278 57.5173 172.52C57.4727 172.386 57.3835 172.564 57.3835 172.609C57.3835 172.653 57.3835 172.698 57.3835 172.698V172.653C57.3835 172.876 57.4281 173.055 57.4727 173.233C57.5618 173.768 57.7402 174.258 57.9185 174.793C57.9631 174.927 58.0522 175.195 58.186 175.417C58.2306 175.596 58.2306 175.774 58.186 175.997C58.1414 176.175 57.9631 176.264 57.8293 176.131C57.4281 175.774 57.3389 175.195 57.2052 174.704C57.0269 174.08 56.8485 173.456 56.6256 172.876C56.6256 173.679 56.9377 174.481 57.0714 175.373C57.116 175.596 56.804 175.685 56.6702 175.507C56.269 175.016 56.2244 174.125 56.1352 173.545C56.046 172.876 56.0461 172.208 56.1798 171.539C56.2244 170.959 56.269 170.424 56.4028 169.889C56.4473 169.889 56.5365 169.889 56.581 169.889C56.4919 169.711 56.3581 169.577 56.2244 169.399C54.9315 169.087 53.5049 168.909 52.1675 168.953C52.2121 168.909 52.2121 168.819 52.2567 168.73C52.1229 168.775 52.0337 168.819 51.9 168.819C51.5879 168.998 51.2313 169.087 50.8301 168.953C50.5626 168.864 50.3397 168.686 50.1168 168.463V168.418C48.1998 166.011 46.3719 163.247 45.0791 160.394C44.1429 158.254 43.2958 155.802 43.0729 153.439C43.0729 153.439 43.0729 153.439 43.0729 153.394C43.0283 153.038 42.9838 152.681 43.0284 152.324C43.0284 151.165 43.92 151.121 44.6778 151.076C45.302 151.031 45.9707 151.388 46.5057 151.656C47.7986 152.28 48.8685 153.305 49.2697 154.732C49.136 157.897 49.4926 161.107 50.518 164.138C50.8301 164.629 51.1867 165.075 51.4988 165.565C51.365 165.253 51.2759 164.941 51.1421 164.584C52.97 165.342 54.4411 166.546 56.1352 167.527C56.2244 167.571 56.269 167.348 56.2244 167.304C56.1798 167.259 56.1798 167.214 56.1352 167.214C57.4281 165.743 58.0522 169.132 58.2305 169.756Z" fill="#6A4B4F"/>
<path opacity="0.5" d="M55.9569 168.417C56.4473 168.64 56.6256 168.773 56.5364 169.308C56.5364 169.398 56.4918 169.487 56.4918 169.576C56.5364 169.665 56.581 169.71 56.6702 169.799C56.6256 169.799 56.5364 169.799 56.4918 169.799C56.4472 170.066 56.3581 170.334 56.3135 170.557C56.7148 170.155 57.2052 169.933 57.7847 170.022C57.963 170.066 58.1859 170.111 58.3642 170.2C58.3196 170.066 58.2751 169.888 58.2305 169.754C58.0522 169.13 57.428 165.742 56.2243 167.213C56.2689 167.258 56.2689 167.302 56.3135 167.302C56.3581 167.347 56.3135 167.614 56.2243 167.525C54.5303 166.544 53.0591 165.296 51.2313 164.583C51.365 164.895 51.4542 165.207 51.5879 165.564C51.2313 165.118 50.9192 164.627 50.6071 164.137C49.5817 161.105 49.2251 157.896 49.3588 154.73C48.913 153.348 47.843 152.323 46.5948 151.654C46.0598 151.387 45.3911 151.075 44.767 151.075C44.7224 151.075 44.6778 151.075 44.6332 151.075C45.0791 151.387 45.4357 151.788 45.7031 152.234C46.461 153.437 46.8177 154.73 47.0852 156.112C47.4418 157.851 47.843 159.545 48.3334 161.239C48.7792 162.8 49.3143 164.315 50.1167 165.742C50.518 166.455 50.9638 167.302 50.3842 168.06C50.295 168.149 50.2059 168.238 50.0722 168.328C50.1167 168.372 50.1167 168.417 50.1613 168.417V168.461C50.3842 168.684 50.6071 168.863 50.8746 168.952C51.2312 169.041 51.6325 168.996 51.9446 168.818C51.9892 168.818 52.0337 168.818 52.0783 168.773C52.3458 168.372 52.5687 167.971 52.747 167.481C52.7916 167.347 52.9254 167.302 53.0591 167.347C53.9953 167.704 55.0652 167.971 55.9569 168.417Z" fill="#6A4B4F"/>
<path d="M46.1491 161.998C45.3912 160.126 44.7671 158.209 44.1875 156.247C43.7417 154.687 43.6079 153.127 43.2513 151.566C43.1175 151.745 43.073 151.968 43.073 152.324C43.073 152.681 43.073 153.038 43.1176 153.394C43.1176 153.394 43.1176 153.394 43.1176 153.439C43.3405 155.846 44.1876 158.298 45.1238 160.393C45.7033 161.686 46.372 162.935 47.1299 164.138C46.7733 163.47 46.4166 162.756 46.1491 161.998Z" fill="#6A4B4F"/>
<path d="M57.2497 22.9041C56.7593 22.815 56.2244 22.7258 55.734 22.592C54.2182 22.2354 52.7471 21.7896 51.3205 21.1208C48.7793 19.9617 46.684 18.1785 44.767 16.2169C42.6717 14.077 41.2896 11.2238 40.7547 8.32602C40.5317 7.07774 40.5317 5.91866 40.6209 4.80413C40.5763 3.42211 40.7546 2.04003 41.0221 0.568848C40.4872 0.97008 39.9968 1.32677 39.4618 1.72801C39.3727 1.86175 39.2389 1.95092 39.1497 2.08466C37.2773 4.22457 35.6724 6.54275 34.0675 8.86098C32.9083 10.5551 31.8384 12.2492 30.813 14.0324C29.8768 15.5482 28.9406 17.064 28.0936 18.6689C25.4633 23.662 22.7884 28.6551 20.2918 33.782C17.929 38.6413 16.1458 43.7236 14.5409 48.895C13.4263 52.4616 12.4455 56.028 11.7768 59.6391C11.7768 59.9066 11.9551 60.1295 12.2226 60.2632C15.2096 61.3332 17.6615 63.1611 19.6677 65.7468C22.1643 68.9566 23.9475 72.5677 24.9729 76.4908C25.9983 80.2802 26.3549 84.2926 26.2212 88.2157C26.0874 92.1389 25.597 96.3295 24.3488 100.119C24.3488 100.164 24.3041 100.164 24.3041 100.208C24.7054 100.609 25.062 101.1 25.3741 101.59C25.5524 101.858 25.7307 102.17 25.9091 102.482C26.132 102.883 26.3549 103.329 26.5332 103.775V103.819C27.1128 105.112 27.4695 106.539 27.9153 107.921C27.9599 108.01 28.0044 108.01 28.049 108.01C28.1382 108.5 28.2273 108.991 28.2719 109.481C28.5394 111.487 28.5394 113.538 28.7623 115.589C28.8068 115.856 28.8069 116.079 28.8514 116.347C28.8514 116.436 28.8515 116.525 28.8961 116.614C28.8961 116.748 28.9406 116.882 28.9406 117.015C28.9852 117.238 28.9852 117.417 29.0298 117.639C29.3419 120.894 29.2527 124.327 29.1189 127.626C29.0298 130.791 28.5394 133.867 28.0936 137.032C27.9152 137.121 27.9152 137.523 28.1381 137.478C28.5839 137.344 29.0298 137.211 29.4756 137.032C30.7239 136.051 31.7047 134.714 33.1758 134.001C34.7362 133.198 36.5195 133.154 38.2136 133.51C42.4934 134.357 46.7731 136.096 50.6517 138.102C54.2182 139.93 57.2498 142.427 60.6379 144.522C61.6633 145.191 62.8224 145.815 63.9815 146.261C65.3636 146.662 66.7456 146.885 68.3059 146.885C68.4397 146.885 68.5288 146.706 68.4842 146.528C67.5034 145.726 66.6118 144.834 65.854 143.853C65.3636 143.274 64.8732 142.694 64.4719 142.025C63.5357 140.554 62.8225 138.905 62.3321 137.211C61.3067 133.867 61.1729 129.899 62.2429 126.556C63.2682 123.39 65.3636 120.537 67.7264 118.219C68.8855 117.06 70.1784 116.035 71.5158 115.143C72.6303 114.385 74.0123 113.984 75.1714 113.315C75.6618 113.226 76.1077 113.181 76.5981 113.137C76.7318 113.003 76.7764 112.869 76.7764 112.691C73.7003 110.685 70.8025 108.411 68.2168 105.87C67.3697 105.068 66.6118 104.22 65.854 103.329C62.3766 99.7623 59.4788 95.6162 57.6956 90.9798C56.7594 88.5278 55.9123 85.8529 55.7786 83.178C55.6449 80.414 56.0907 77.65 56.7594 74.9751C57.339 72.5677 58.186 70.1158 59.4342 67.9758C60.6379 65.9251 62.332 64.2755 63.8924 62.4923C63.9369 62.4031 64.0261 62.314 64.0707 62.2694C64.1153 62.2249 64.1153 62.2248 64.1598 62.1803C63.9815 62.0465 63.8478 61.9573 63.7141 61.8236L63.6694 61.8682C63.402 61.6007 63.1791 61.3332 62.9562 61.0657C61.6633 59.55 60.6825 57.6775 59.7909 55.8943C58.0522 52.4169 57.0268 48.4492 56.4919 44.6152C55.9569 40.7366 56.0015 36.7243 56.4473 32.8457C56.6702 30.7504 57.116 28.6551 57.651 26.6489C57.8293 25.9802 58.0522 25.4007 58.2751 24.7765C58.2751 24.732 58.2306 24.6428 58.2751 24.5982C58.4089 24.1969 58.5426 23.8403 58.7209 23.4836C58.2305 23.127 57.7401 23.0379 57.2497 22.9041Z" fill="#0B0000"/>
<path d="M55.8232 31.7315C55.2882 36.0113 55.2882 40.4248 55.8677 44.6601C56.4027 48.5832 57.6064 52.551 59.3897 56.0729C60.1476 57.5887 60.9946 59.1044 62.02 60.4419C62.4212 60.9769 62.9116 61.4673 63.3574 61.9131C61.7525 63.4734 60.2368 65.0783 58.9885 66.9062C57.4281 69.2244 56.4919 72.1667 55.8677 74.8416C55.2436 77.5611 54.8869 80.2806 55.0207 83.0892C55.1098 85.1399 55.6894 87.1461 56.4027 89.1076C56.5811 89.6872 56.804 90.2667 57.0269 90.8463C57.7402 92.7187 58.6318 94.502 59.6572 96.1961C60.5488 97.7119 61.5742 99.183 62.6441 100.61C64.6948 103.374 67.1468 105.781 69.7771 108.01C71.6496 109.615 73.7003 111.22 75.8848 112.468C75.7956 112.468 75.7064 112.513 75.6173 112.513C75.5727 112.424 75.5281 112.379 75.4835 112.424C75.3944 112.468 75.3052 112.557 75.2161 112.602C74.8594 112.691 74.4582 112.736 74.1015 112.825C73.2991 113.404 72.3628 113.85 71.4712 114.296H71.4266C71.2483 114.385 71.07 114.519 70.9362 114.608C69.2867 115.678 67.8155 117.016 66.4781 118.398C64.2045 120.76 62.5103 123.703 61.5741 126.823C60.6379 129.989 61.0392 133.644 61.7971 136.854C62.6887 140.555 64.7394 143.363 67.3697 145.993C64.1153 145.726 61.3513 144.344 58.4981 142.739C57.9185 142.382 57.339 142.07 56.7594 141.758C56.7594 141.758 56.7594 141.714 56.7148 141.714C56.4027 141.535 56.0907 141.402 55.8232 141.223C53.3712 139.886 50.8746 138.593 48.3335 137.434C44.0537 135.517 39.3726 134.581 34.8253 134.982C33.8446 135.026 32.8638 135.116 31.883 135.339C31.2143 135.472 30.6348 135.74 30.0106 135.963C29.4756 136.141 28.9852 136.319 28.4502 136.542C29.2081 133.6 29.5202 130.435 29.654 127.403C29.7877 124.461 29.8323 121.34 29.654 118.353C29.654 118.308 29.6093 118.308 29.6093 118.264C29.5202 117.461 29.431 116.614 29.3864 115.767C29.0743 112.959 28.7177 110.105 28.2273 107.297C28.049 106.271 27.7815 105.335 27.4249 104.354C27.0682 103.507 26.7116 102.616 26.2212 101.858C25.9537 101.412 25.6862 101.011 25.4187 100.565C25.2849 100.387 25.1512 100.208 25.0175 100.075C25.0175 100.03 24.9729 100.03 24.9729 99.9855L24.9283 99.9409C26.0874 96.2853 26.5332 92.3175 26.7561 88.5281C26.979 84.4712 26.4887 80.3697 25.5525 76.402C24.5717 72.3451 22.7438 68.6894 20.2919 65.3458C18.1965 62.448 15.5663 60.5311 12.3118 59.5503C12.4456 58.7032 12.6239 57.8562 12.8022 56.9645C13.3818 54.3788 14.2288 51.8822 14.9421 49.3411C16.4133 44.0805 18.3749 38.8645 20.7823 33.9606C22.6547 30.1266 24.6608 26.3372 26.6224 22.5478C27.6478 20.3633 28.9407 18.4017 30.2781 16.3955C31.571 14.0327 32.9529 11.7591 34.4241 9.53002C36.0736 7.07805 37.8123 4.67061 39.7293 2.44154C39.9968 2.12947 40.2643 1.81744 40.5764 1.50537C39.9076 3.51153 39.7739 5.65144 40.1305 7.92509C40.6209 10.9566 42.0921 13.7653 44.0983 16.0835C46.1044 18.3571 48.601 20.2741 51.3205 21.567C52.7917 22.2357 54.3074 22.6815 55.8677 23.0382C56.4473 23.1719 57.0714 23.3056 57.6956 23.3502C56.581 26.1142 56.1352 29.1904 55.8232 31.7315Z" fill="#4D4D4F"/>
<path d="M68.7962 110.016C67.5925 108.991 66.2104 108.233 64.9176 107.386C63.1789 106.271 61.6186 104.889 60.192 103.418C57.6063 100.743 55.1989 97.7116 53.6831 94.2788C52.8807 92.4955 52.212 90.534 51.8107 88.5278C51.8107 90.534 52.0782 92.4956 52.6577 94.4572C54.8868 101.991 61.3957 107.787 68.7962 110.016Z" fill="#4D4D4F"/>
<path d="M51.9001 81.9305C52.0784 80.7713 52.3459 79.6122 52.5688 78.4531C52.3014 79.6122 52.0338 80.7713 51.9001 81.9305Z" fill="#4D4D4F"/>
<path d="M30.9023 126.466C31.3927 123.569 31.2144 120.805 30.6348 117.951C30.1444 115.589 29.5648 113.315 28.7623 111.086C28.9852 112.691 29.2081 114.34 29.3865 115.99C29.431 116.837 29.5202 117.639 29.6094 118.486C29.6094 118.531 29.6094 118.531 29.654 118.576C29.8323 121.563 29.7878 124.639 29.654 127.626C29.6094 129.097 29.4757 130.568 29.2974 132.084C30.189 130.3 30.6348 128.161 30.9023 126.466Z" fill="#4D4D4F"/>
<path d="M27.5142 91.7381C27.7817 88.7511 27.6034 85.7642 27.2022 82.8218C26.8009 79.8349 26.1322 76.8479 24.7947 74.1284C25.0622 74.9309 25.3297 75.7334 25.5081 76.5804C26.4443 80.5036 26.8901 84.6496 26.7118 88.7065C26.5334 91.7826 26.2214 94.9925 25.4635 98.024C26.8009 96.2853 27.3359 93.878 27.5142 91.7381Z" fill="#4D4D4F"/>
<path d="M54.9763 128.65C54.6196 133.287 57.9632 137.165 61.5743 139.662C59.4789 136.318 57.4728 132.707 56.9824 128.784C56.5366 125.396 57.4728 122.453 59.5236 120.135C57.1162 122.453 55.2437 125.44 54.9763 128.65Z" fill="#4D4D4F"/>
<path opacity="0.6" d="M68.4397 116.169C63.7141 118.621 58.9885 122.009 57.8294 127.537C56.4473 134.269 60.7272 140.376 65.854 144.478C63.9816 142.293 62.5104 139.931 61.7971 136.988C61.0392 133.823 60.638 130.167 61.5742 126.958C62.5104 123.792 64.2045 120.894 66.4781 118.532C67.5481 117.417 68.6626 116.392 69.9109 115.456C69.4651 115.678 68.9301 115.901 68.4397 116.169Z" fill="#4D4D4F"/>
<path opacity="0.6" d="M51.0084 108.811C52.6133 109.257 54.1736 109.658 55.8232 110.015C55.9569 110.059 56.0461 110.059 56.1798 110.104C54.8424 109.747 53.5495 109.391 52.2566 108.989C51.8554 108.945 51.4096 108.856 51.0084 108.811Z" fill="#4D4D4F"/>
<path opacity="0.6" d="M60.7716 64.1869C59.5234 65.2123 58.4534 66.4606 57.5618 67.7534C56.0014 69.9825 54.7531 72.3899 53.8615 74.9756C52.1674 79.9241 51.7216 85.2739 53.6386 90.1778C55.6002 95.1263 58.9884 99.4953 62.9115 103.062C65.1406 105.068 67.5926 107.03 70.2675 108.456C70.1337 108.322 69.9554 108.189 69.8216 108.1C67.1913 105.87 64.7393 103.463 62.6886 100.699C61.6186 99.2724 60.6379 97.8012 59.7017 96.2854C58.6763 94.5913 57.7847 92.8081 57.0714 90.9357C56.8485 90.3561 56.6256 89.7766 56.4472 89.197C55.7785 87.2354 55.199 85.1847 55.0652 83.1785C54.9315 80.3699 55.2882 77.6505 55.9123 74.931C56.5364 72.2561 57.4726 69.3138 59.033 66.9955C59.9246 65.7027 60.9499 64.499 62.0645 63.3398C61.6187 63.5628 61.1729 63.8302 60.7716 64.1869Z" fill="#4D4D4F"/>
<path opacity="0.6" d="M55.2884 110.462C49.3591 109.124 43.6972 107.163 38.3029 104.443C38.2583 104.443 38.2584 104.399 38.2138 104.399C36.4305 103.507 34.6473 102.571 33.0423 101.456C32.5074 101.1 31.6157 100.654 31.482 99.9405C31.3036 99.0935 31.5266 98.2019 31.6603 97.3548C32.552 91.2026 34.8256 85.1841 34.8702 78.9427C34.8702 78.9427 34.8702 78.9427 34.8702 78.8982C34.5135 75.4654 33.934 72.0772 32.5074 68.8674C30.7687 64.9442 29.0746 60.2186 25.3298 57.8112C25.1515 57.6775 25.2406 57.41 25.4189 57.3654C28.6733 55.7159 32.1507 54.958 35.7172 54.8688C34.4244 54.5122 33.1315 54.1555 31.7941 53.888C30.1 53.4868 28.4059 53.3976 26.7118 53.2639C26.5335 53.2639 26.3106 53.3085 26.1322 53.3085C24.8394 53.6651 23.5911 53.9772 22.2982 54.2892C22.1199 54.3338 21.9416 54.0663 22.0308 53.9326C25.7756 46.6658 31.2591 40.4245 37.545 35.2085C40.9332 32.3552 44.366 29.4129 48.2891 27.273C50.117 26.2922 52.034 25.4897 53.951 24.6873C55.0209 24.2414 56.2247 23.974 57.3838 23.5727C56.938 23.4836 56.4475 23.3944 56.0017 23.3052C54.4413 22.9486 52.8811 22.5028 51.4544 21.8341C48.735 20.5412 46.1938 18.6242 44.2322 16.3506C42.2261 14.0323 40.7549 11.2683 40.2645 8.19218C39.9078 5.91853 40.0416 3.8232 40.7103 1.77246C40.4428 2.08453 40.1308 2.39663 39.8633 2.7087C39.0608 3.64491 38.3029 4.62564 37.545 5.65101C37.0101 7.25594 36.6089 8.90545 36.4751 10.5995C35.9847 17.4205 41.2007 23.2607 47.0409 26.1584C47.2638 26.2922 47.2192 26.6488 46.9517 26.6934C39.8187 27.273 33.7557 29.9924 28.5397 34.8518C26.0877 37.1254 23.6357 39.4882 21.7633 42.2969C20.3367 44.3922 18.9992 46.8442 16.8147 48.2708C16.6364 48.4046 16.4135 48.2708 16.3689 48.0924C16.2352 47.4683 16.1906 46.7996 16.1461 46.1755C15.7894 47.3346 15.4327 48.4937 15.0761 49.6974C14.3628 52.2385 13.5158 54.7351 12.9362 57.3208C12.8025 57.9895 12.6687 58.6136 12.5349 59.2823C13.1591 58.5245 14.3182 58.1233 15.3436 58.2124C18.063 58.3462 20.0692 61.4668 21.6741 63.3392C25.9985 68.3769 28.8517 74.7075 29.2975 81.3947C29.6542 86.2986 28.8517 91.2026 27.2468 95.7944C27.0239 96.4632 26.3106 98.6477 25.3744 100.297C28.2721 105.781 31.7049 111.353 31.482 117.728C31.3482 121.518 31.2591 125.486 30.1 129.141C29.9216 129.676 29.7434 130.211 29.5204 130.746C29.3421 132.797 29.0301 134.892 28.5397 136.898C28.718 136.809 28.9408 136.765 29.1192 136.676C32.6857 133.733 33.9786 128.473 34.6473 124.148C35.4052 118.932 35.316 113.538 33.1761 108.634C33.0423 108.366 33.399 108.188 33.5773 108.322C34.4243 108.857 35.316 109.392 36.163 109.882C39.1946 110.997 42.1369 112.334 45.3468 112.958C48.8687 113.672 52.4352 113.939 56.0463 113.894C60.6828 113.805 65.3192 113.449 69.8665 112.735C64.8734 112.245 60.0141 111.532 55.2884 110.462Z" fill="#4D4D4F"/>
<path opacity="0.6" d="M52.123 38.9093C51.4097 47.4689 54.9316 56.2514 62.2429 60.7096C62.1538 60.6204 62.0646 60.5313 62.02 60.4421C60.9946 59.1047 60.1476 57.5889 59.3897 56.0731C57.6065 52.5512 56.4028 48.5834 55.8678 44.6603C55.2882 40.3805 55.2437 35.9669 55.8232 31.7317C56.0461 30.0376 56.3136 28.076 56.804 26.2036C54.3075 30.0376 52.5242 34.2729 52.123 38.9093Z" fill="#4D4D4F"/>
<path d="M49.7157 48.4497C50.5181 52.5512 52.4797 57.0093 56.0908 59.3275C53.1484 55.761 51.4989 51.1246 50.5626 46.6665C49.9831 43.947 49.5819 41.1829 49.5819 38.4189C49.5819 38.196 49.5819 37.9285 49.5819 37.7056C48.9578 41.2721 49.0024 44.9278 49.7157 48.4497Z" fill="#4D4D4F"/>
<path d="M49.0914 24.9998C44.8116 23.4394 41.2896 20.4079 39.1052 16.5293C40.8438 20.9874 44.0983 24.5986 49.0914 24.9998Z" fill="#4D4D4F"/>
<path d="M26.6671 54.1108C23.3235 54.0216 20.0245 54.8241 16.8592 55.7157C16.7254 55.7603 16.9038 56.0278 17.0376 55.9832C20.3366 55.3591 23.5464 54.6457 26.9346 54.6903C30.2336 54.7349 33.5326 55.0024 36.787 55.582C39.9969 56.1615 43.2068 56.8302 46.3274 57.7219C49.8048 58.7027 53.3713 59.5943 56.7149 61.0655C56.9378 61.1546 56.8486 60.8872 56.7149 60.798C53.6834 59.2376 50.3844 58.3906 47.1745 57.4098C43.7417 56.3398 40.1752 55.6712 36.6533 54.9579C33.3543 54.3337 30.0553 54.2 26.6671 54.1108Z" fill="#0B0000"/>
<path d="M30.6349 36.0558C27.5588 38.3295 24.7948 40.9598 22.3874 43.9467C19.98 46.8891 17.7509 50.0544 16.9484 53.8438C16.9039 53.9775 17.216 54.245 17.2605 54.1113C18.1967 50.411 20.515 47.3795 22.8778 44.4817C25.196 41.6285 27.8709 39.1319 30.7687 36.9029C33.8002 34.5846 37.0546 32.5785 40.4428 30.8844C43.9647 29.1011 47.665 27.8528 51.3207 26.337C51.4098 26.2925 51.2761 26.1587 51.2315 26.2033C43.8756 27.9866 36.7426 31.5531 30.6349 36.0558Z" fill="#0B0000"/>
<path d="M20.0243 58.6597C24.527 64.4553 27.6031 71.2763 29.3417 78.3647C31.125 85.5869 31.125 94.2357 26.756 100.566C26.6669 100.655 26.9343 100.923 27.0235 100.834C31.8383 94.5477 31.6154 85.899 29.9213 78.543C29.0297 74.7536 27.6476 71.0088 25.909 67.4869C24.3486 64.277 22.2979 61.3793 20.0688 58.5706C20.0688 58.4815 19.9797 58.5706 20.0243 58.6597Z" fill="#0B0000"/>
<path d="M30.5009 102.704C30.3226 102.614 30.3672 102.882 30.5009 102.927C33.4879 104.576 36.3857 106.404 39.551 107.697C42.85 109.034 46.1044 110.282 49.5372 111.129C52.8362 111.932 56.269 112.289 59.6571 112.601C63.1345 112.913 66.4781 113.091 69.9554 112.824C70.1783 112.824 69.9554 112.467 69.8217 112.467C63.0453 112.422 56.046 112.066 49.448 110.505C42.7162 108.945 36.5194 105.958 30.5009 102.704Z" fill="#0B0000"/>
<path d="M27.8706 102.928C30.3225 107.342 32.1504 112.691 32.3287 117.774C32.507 122.722 32.1058 128.072 30.6792 132.842C30.6346 132.976 30.813 133.243 30.9021 133.021C31.7492 130.791 32.1504 128.384 32.4179 126.021C32.6854 123.346 32.9083 120.761 32.8637 118.086C32.6854 112.736 30.9467 107.253 28.0935 102.705C27.9151 102.571 27.826 102.839 27.8706 102.928Z" fill="#0B0000"/>
<path d="M179.269 84.9604C179.046 84.4255 178.868 83.8905 178.689 83.311C178.154 81.6615 177.753 80.0119 177.575 78.2732C177.263 75.1971 177.753 72.1656 178.556 69.1786C179.403 65.9688 181.364 63.0264 183.861 60.8419C184.931 59.9503 186.001 59.237 187.16 58.7466C188.453 57.9441 189.879 57.32 191.44 56.7405C190.771 56.473 190.102 56.1609 189.478 55.8934C189.3 55.8488 189.166 55.8042 188.988 55.8042C185.911 55.2247 182.746 55.0018 179.626 54.7789C177.352 54.6451 175.123 54.6006 172.849 54.6006C170.843 54.556 168.881 54.556 166.875 54.6451C160.589 54.9572 154.303 55.2247 148.017 55.7597C141.999 56.2946 136.159 57.4538 130.274 58.7912C126.217 59.7274 122.249 60.8419 118.415 62.2239C118.148 62.3577 118.059 62.6698 118.059 62.9818C118.727 66.4592 118.371 69.8028 117.033 73.2355C115.384 77.4262 112.932 81.2156 109.767 84.4255C106.735 87.5462 103.079 90.1765 99.29 92.2718C95.456 94.4117 91.1762 96.3287 86.8518 97.2649C86.8072 97.2649 86.7626 97.2649 86.718 97.3095C86.718 97.3095 86.718 97.3095 86.6735 97.3095C86.4951 97.9336 86.2722 98.5577 85.9601 99.0927C85.7818 99.4494 85.6035 99.7614 85.3806 100.118C85.1132 100.564 84.801 101.01 84.489 101.456L84.4444 101.5C83.5082 102.793 82.3937 103.952 81.3237 105.156C81.2791 105.245 81.2791 105.29 81.3237 105.29C80.8779 105.646 80.4766 106.003 80.0308 106.359C78.2476 107.786 76.286 108.945 74.4582 110.283C74.2353 110.461 74.0124 110.595 73.7895 110.773C73.7003 110.818 73.6557 110.907 73.5665 110.951C73.4328 111.041 73.2991 111.13 73.2099 111.219C73.0316 111.353 72.8533 111.486 72.6749 111.62C69.7326 113.805 66.389 115.632 63.2237 117.371C60.1476 119.065 56.8932 120.358 53.6833 121.74C53.505 121.606 53.1037 121.874 53.282 122.052C53.6387 122.409 54.0845 122.765 54.4858 123.077C56.1353 123.702 57.9631 123.924 59.4788 124.861C61.1283 125.886 62.1983 127.58 62.8224 129.408C64.4719 133.955 65.2299 139.082 65.4973 143.897C65.7648 148.355 65.0961 152.679 65.0069 157.093C64.9624 158.475 65.007 159.902 65.2299 161.284C65.6311 162.799 66.2107 164.271 67.0577 165.742C67.1469 165.876 67.3697 165.831 67.5035 165.742C67.7264 164.36 68.0385 162.978 68.5735 161.685C68.841 160.882 69.153 160.08 69.5543 159.277C70.4459 157.539 71.605 155.934 72.9424 154.507C75.5727 151.654 79.273 149.247 83.0624 148.355C86.6735 147.553 90.552 147.909 94.1185 148.845C95.8572 149.291 97.5959 149.96 99.2454 150.718C100.627 151.342 101.742 152.457 103.079 153.17C103.436 153.571 103.748 154.017 104.06 154.418C104.238 154.463 104.461 154.418 104.595 154.329C104.774 150.272 105.264 146.171 106.245 142.247C106.557 140.999 106.913 139.751 107.315 138.547C108.741 133.153 111.104 128.071 114.492 123.702C116.32 121.383 118.371 119.065 120.867 117.46C123.453 115.766 126.306 114.607 129.249 113.715C131.879 112.913 134.732 112.289 137.496 112.289C140.126 112.289 142.668 112.958 145.253 113.448C145.253 113.448 145.253 113.448 145.253 113.492C145.342 113.492 145.476 113.493 145.565 113.537C145.61 113.537 145.655 113.537 145.699 113.582C145.744 113.359 145.744 113.136 145.788 112.913H145.744C145.877 112.512 146.011 112.11 146.1 111.754C146.814 109.614 148.062 107.652 149.266 105.78C151.584 102.124 154.794 98.9144 158.182 96.2395C161.615 93.5646 165.493 91.291 169.416 89.5078C171.556 88.527 173.785 87.769 176.059 87.1449C176.772 86.9666 177.486 86.8329 178.199 86.6991C178.243 86.6545 178.288 86.6099 178.377 86.6099C178.823 86.5208 179.269 86.4316 179.715 86.387C179.581 86.0304 179.403 85.4954 179.269 84.9604Z" fill="#0B0000"/>
<path d="M169.996 88.5715C165.582 90.4439 161.392 93.0296 157.647 95.972C154.214 98.6915 151.093 102.124 148.731 105.824C147.705 107.429 146.725 109.079 146.056 110.862C145.788 111.575 145.565 112.289 145.432 112.957C143.069 112.289 140.617 111.754 138.165 111.62C135.089 111.442 131.745 112.2 128.803 113.136C125.816 114.072 123.052 115.32 120.422 117.014C118.549 118.263 116.9 120.001 115.428 121.74C114.983 122.23 114.537 122.765 114.136 123.345C112.754 125.084 111.55 126.956 110.524 128.918C109.588 130.656 108.741 132.439 107.983 134.267C106.468 137.789 105.576 141.534 104.952 145.323C104.506 148.043 104.149 150.896 104.149 153.705C104.105 153.616 104.016 153.571 103.971 153.482C104.016 153.437 104.06 153.348 103.971 153.304C103.882 153.259 103.748 153.214 103.659 153.125C103.391 152.813 103.079 152.501 102.812 152.189C101.786 151.743 100.85 151.119 99.9141 150.539L99.8696 150.495C99.6912 150.406 99.4683 150.272 99.29 150.183C97.3284 149.247 95.2331 148.578 93.1377 148.088C89.5712 147.285 85.8264 147.285 82.2599 148.177C78.6934 149.068 75.3944 151.52 72.8087 154.061C69.7771 157.004 68.2614 160.57 67.236 164.583C65.6311 161.328 65.3636 157.895 65.319 154.195C65.319 153.437 65.2744 152.724 65.2744 151.966L65.319 151.922C65.319 151.52 65.2744 151.164 65.2744 150.762C65.1852 147.642 65.0069 144.566 64.6503 141.445C64.0261 136.273 62.2875 131.28 59.3005 127.134C58.721 126.198 58.0522 125.351 57.2498 124.504C56.7148 123.969 56.1798 123.523 55.6003 123.077C55.1545 122.676 54.6641 122.275 54.1737 121.918C57.4281 120.937 60.5934 119.466 63.5804 117.861C66.4782 116.301 69.465 114.607 72.2291 112.735C72.2291 112.69 72.2737 112.69 72.3183 112.645C73.0761 112.11 73.7894 111.575 74.5473 111.04C77.0885 109.123 79.585 107.162 81.9924 105.111C82.8394 104.398 83.6419 103.551 84.3552 102.659C84.9793 101.812 85.6035 101.01 86.0493 100.073C86.3168 99.5831 86.5397 99.0481 86.8072 98.5577C86.8964 98.3348 86.9855 98.1119 87.0747 97.889C87.0747 97.8444 87.1193 97.8444 87.1638 97.7998C87.1638 97.7553 87.1638 97.7552 87.1638 97.7107C91.3099 96.7745 95.3668 94.9466 99.1117 92.9404C103.124 90.8451 106.78 88.0811 110.034 84.9158C113.333 81.7059 115.785 77.8274 117.613 73.5922C119.173 69.9365 119.53 66.37 118.638 62.6697C119.53 62.3131 120.466 62.001 121.358 61.689C124.166 60.7973 127.02 60.1732 129.873 59.4153C135.757 57.8104 141.865 56.7404 147.928 56.2946C152.654 55.9379 157.424 55.6705 162.15 55.403C164.78 55.1355 167.455 55.2692 170.13 55.403C173.117 55.2692 176.104 55.3139 179.046 55.4476C182.3 55.6259 185.599 55.938 188.809 56.4729C189.255 56.5621 189.701 56.6513 190.147 56.7404C187.828 57.2754 185.733 58.3008 183.772 59.9503C181.141 62.1348 179.313 65.1663 178.244 68.3761C177.174 71.586 176.772 75.0633 177.129 78.4069C177.307 80.1902 177.753 81.9289 178.288 83.5784C178.511 84.2025 178.734 84.8712 179.001 85.4954C175.792 86.1195 172.626 87.4569 169.996 88.5715Z" fill="#4D4D4F"/>
<path d="M102.5 145.502C102.767 143.808 102.767 142.025 102.812 140.286C102.901 138.012 103.302 135.739 103.926 133.51C104.996 129.497 106.557 125.485 108.964 122.097C110.212 120.314 111.728 118.575 113.378 117.059C111.461 118.218 109.722 119.556 108.162 121.205C102.232 127.58 100.404 137.121 102.5 145.502Z" fill="#4D4D4F"/>
<path d="M119.753 113.36C120.957 112.87 122.205 112.468 123.453 112.022C122.205 112.424 120.957 112.825 119.753 113.36Z" fill="#4D4D4F"/>
<path d="M65.2299 118.575C68.2615 117.416 70.8026 115.677 73.21 113.493C75.1715 111.665 77.044 109.837 78.7381 107.786C77.3115 108.945 75.8849 110.06 74.4137 111.13C73.6558 111.665 72.8979 112.2 72.1846 112.735C72.14 112.779 72.14 112.779 72.0954 112.824C69.3314 114.696 66.3445 116.39 63.4467 117.951C62.0201 118.709 60.5044 119.466 58.9886 120.135C61.1285 120.046 63.4467 119.288 65.2299 118.575Z" fill="#4D4D4F"/>
<path d="M96.526 95.6159C99.513 94.1893 102.277 92.3169 104.863 90.2662C107.493 88.1708 109.945 85.8526 111.817 83.0439C111.193 83.7572 110.569 84.4706 109.9 85.0947C106.646 88.2154 102.99 91.024 98.978 93.1194C95.9464 94.7243 92.692 96.1955 89.3484 97.2208C91.7558 97.4883 94.3416 96.6413 96.526 95.6159Z" fill="#4D4D4F"/>
<path d="M76.8211 142.827C72.1846 145.145 70.4013 150.495 70.0447 155.443C72.0508 151.565 74.4136 147.597 77.8464 144.878C80.8334 142.515 84.1769 141.757 87.5651 142.426C83.954 141.311 80.0309 141.266 76.8211 142.827Z" fill="#4D4D4F"/>
<path opacity="0.6" d="M96.3923 148.622C91.3991 145.501 85.4252 142.871 79.4959 144.921C72.2737 147.418 68.8855 154.997 67.8602 162.219C68.8855 159.187 70.3122 156.423 72.7641 154.105C75.3499 151.564 78.6489 149.112 82.2154 148.22C85.7373 147.329 89.5267 147.329 93.0932 148.131C94.7427 148.532 96.3923 149.023 97.9972 149.692C97.4176 149.29 96.9272 148.978 96.3923 148.622Z" fill="#4D4D4F"/>
<path opacity="0.6" d="M93.5391 127.758C94.0295 129.542 94.5198 131.28 95.1439 133.019C95.1885 133.153 95.2331 133.286 95.2777 133.42C94.8319 131.949 94.4752 130.522 94.1186 129.051C93.8957 128.605 93.7174 128.204 93.5391 127.758Z" fill="#4D4D4F"/>
<path opacity="0.6" d="M141.776 111.754C140.082 111.13 138.299 110.818 136.515 110.684C133.484 110.461 130.497 110.64 127.51 111.264C121.848 112.467 116.454 115.053 112.843 119.69C109.187 124.371 106.958 130.077 105.799 135.873C105.13 139.127 104.684 142.604 104.818 145.993C104.863 145.77 104.907 145.547 104.907 145.324C105.576 141.534 106.468 137.834 107.939 134.268C108.697 132.44 109.544 130.612 110.48 128.918C111.505 126.956 112.709 125.084 114.091 123.345C114.492 122.81 114.938 122.275 115.384 121.74C116.855 120.002 118.505 118.263 120.377 117.015C122.963 115.276 125.771 114.072 128.758 113.136C131.701 112.2 135.044 111.398 138.12 111.62C139.859 111.71 141.598 112.022 143.336 112.423C142.846 112.2 142.311 111.932 141.776 111.754Z" fill="#4D4D4F"/>
<path opacity="0.6" d="M94.386 132.752C92.2906 126.333 90.9532 119.779 90.5074 113.092C90.5074 113.047 90.5074 113.003 90.5074 112.958C90.5074 112.958 90.5074 112.958 90.5074 112.914C90.3291 110.685 90.2399 108.5 90.3737 106.271C90.4182 105.558 90.3291 104.443 90.9086 103.908C91.6219 103.239 92.6027 102.927 93.4943 102.571C99.9141 99.9404 106.913 98.6921 112.932 95.1702C112.932 95.1702 112.932 95.1702 112.976 95.1702C116.052 92.852 118.995 90.4001 121.224 87.1902C123.988 83.3116 127.555 79.0318 127.733 74.0387C127.733 73.7712 128.045 73.7266 128.223 73.8604C131.611 76.0448 134.331 78.9426 136.471 82.2862C136.069 80.8596 135.668 79.3884 135.222 77.9618C134.643 76.134 133.751 74.4399 132.949 72.7458C132.815 72.5675 132.681 72.3892 132.548 72.2109C131.478 71.1855 130.452 70.1601 129.427 69.0902C129.293 68.9119 129.427 68.6444 129.65 68.5998C138.744 68.0202 147.839 69.7589 156.354 72.7905C160.99 74.44 165.761 76.0448 170.04 78.586C172.047 79.7451 173.874 81.1717 175.747 82.5091C176.772 83.267 177.753 84.2924 178.778 85.1841C178.6 84.6937 178.422 84.2033 178.243 83.7129C177.708 82.0188 177.218 80.2801 177.084 78.5414C176.772 75.1978 177.173 71.7205 178.199 68.5106C179.269 65.3008 181.097 62.2692 183.727 60.0847C185.689 58.4352 187.784 57.3653 190.102 56.8749C189.656 56.7857 189.21 56.652 188.765 56.6074C187.383 56.3845 186.001 56.2062 184.619 56.0278C182.746 56.4291 180.963 56.9641 179.269 57.8111C172.448 61.1993 169.818 69.536 170.397 76.7582C170.442 77.0703 170.04 77.2039 169.862 76.981C165.27 70.5167 159.207 66.237 151.584 64.0079C148.017 62.938 144.362 61.9572 140.617 61.7789C137.808 61.6451 134.687 61.7342 132.102 60.3968C131.879 60.3076 131.879 60.0402 132.057 59.8618C132.592 59.3714 133.172 58.9702 133.796 58.569C132.458 58.8811 131.166 59.1931 129.828 59.5498C127.02 60.3077 124.122 60.9318 121.313 61.8234C120.6 62.0463 119.931 62.3138 119.218 62.5813C120.288 62.7596 121.313 63.6512 121.848 64.6766C123.275 67.3515 121.402 71.0517 120.511 73.6374C118.148 80.6367 113.734 86.9227 107.582 91.2025C103.079 94.3232 97.9525 96.3294 92.6027 97.4439C91.8003 97.6222 89.3483 98.1572 87.253 98.2018C83.6865 104.087 80.2537 110.551 74.0123 113.939C70.3121 115.945 66.4781 118.13 62.332 119.11C61.7079 119.244 61.0838 119.378 60.5042 119.467C58.4089 120.448 56.269 121.339 54.0845 122.008C54.2628 122.142 54.4411 122.276 54.6194 122.409C59.4342 124.148 65.2298 122.409 69.7771 120.582C75.216 118.352 80.2983 115.187 83.7756 110.328C83.954 110.06 84.3106 110.283 84.3106 110.551C84.266 111.665 84.266 112.824 84.3106 113.939C84.9793 117.505 85.3805 121.027 86.5842 124.505C87.9217 128.294 89.6604 131.861 91.7557 135.293C94.4751 139.662 97.4175 143.898 100.716 147.865C98.1308 143.006 96.0355 137.924 94.386 132.752Z" fill="#4D4D4F"/>
<path opacity="0.6" d="M161.035 89.1515C152.431 93.2976 146.056 101.723 145.922 111.264C145.967 111.13 146.011 110.996 146.056 110.863C146.725 109.079 147.75 107.43 148.731 105.825C151.094 102.125 154.214 98.6919 157.647 95.9725C161.392 92.9855 165.627 90.4444 169.996 88.5719C171.779 87.8141 173.785 86.967 175.836 86.3874C170.754 86.1645 165.672 86.8779 161.035 89.1515Z" fill="#4D4D4F"/>
<path d="M150.514 92.2276C147.037 95.3483 143.871 99.7173 143.738 104.532C145.476 99.6727 148.954 95.482 152.699 92.0493C154.972 89.9985 157.38 87.9924 160.055 86.432C160.277 86.2983 160.5 86.1645 160.723 86.0308C156.978 87.4574 153.501 89.5973 150.514 92.2276Z" fill="#4D4D4F"/>
<path d="M172.626 78.3176C171.69 73.3691 172.582 68.2422 175.034 63.9624C171.779 68.153 170.174 73.3245 172.626 78.3176Z" fill="#4D4D4F"/>
<path d="M132.057 73.4137C130.23 70.1593 127.599 67.4844 124.969 64.9432C124.835 64.8095 124.701 65.1662 124.791 65.2553C127.287 68.0194 129.784 70.7388 131.656 73.9932C133.484 77.2031 135.089 80.5022 136.426 83.9349C137.719 87.3231 138.878 90.8004 139.815 94.2778C140.84 98.2009 142.044 102.079 142.489 106.092C142.534 106.359 142.757 106.136 142.712 105.958C142.489 102.213 141.419 98.5576 140.528 94.9019C139.592 91.0233 138.254 87.2339 136.872 83.4445C135.624 79.9672 133.885 76.6682 132.057 73.4137Z" fill="#0B0000"/>
<path d="M151.584 66.9494C147.661 65.2998 143.559 64.1408 139.369 63.5166C135.178 62.8925 130.898 62.5358 126.841 63.9179C126.663 63.9624 126.618 64.4083 126.797 64.3637C130.854 63.16 135.089 63.6504 139.19 64.2745C143.247 64.8541 147.126 66.0132 150.915 67.5289C154.838 69.0893 158.628 71.0954 162.194 73.3691C165.894 75.7319 169.238 78.5405 172.715 81.1708C172.805 81.2154 172.849 81.0371 172.805 80.9925C166.786 75.0186 159.341 70.2038 151.584 66.9494Z" fill="#0B0000"/>
<path d="M123.899 69.6257C120.912 77.2045 116.142 84.07 110.346 89.7318C104.462 95.5274 96.1695 100.476 87.6099 99.8964C87.4761 99.8964 87.3424 100.298 87.5207 100.298C96.2586 101.323 104.462 96.1962 110.48 90.4006C113.601 87.3691 116.409 83.9363 118.772 80.2806C120.957 76.937 122.562 73.3705 123.988 69.6257C124.077 69.5811 123.944 69.5365 123.899 69.6257Z" fill="#0B0000"/>
<path d="M87.699 104.666C87.699 104.399 87.4315 104.622 87.4315 104.8C87.5207 108.634 87.4315 112.423 88.0111 116.168C88.5907 120.047 89.2594 123.881 90.3739 127.67C91.4884 131.326 93.0933 134.759 94.7429 138.191C96.3924 141.669 98.1757 145.012 100.36 148.178C100.494 148.356 100.672 147.999 100.628 147.866C96.8382 141.357 93.1825 134.447 90.9089 127.224C88.6798 119.913 88.0111 112.334 87.699 104.666Z" fill="#0B0000"/>
<path d="M86.0048 102.303C83.1961 107.162 79.0946 111.932 74.3244 114.964C69.688 117.951 64.3382 120.581 58.9439 121.963C58.7655 122.008 58.6318 122.32 58.8993 122.275C61.485 121.829 64.0708 120.849 66.4336 119.734C69.153 118.486 71.7833 117.238 74.2799 115.633C79.3175 112.423 83.5528 107.653 86.2722 102.347C86.406 102.125 86.0939 102.169 86.0048 102.303Z" fill="#0B0000"/>
<path d="M72.0065 167.035C71.3823 166.366 70.4461 165.876 69.6882 165.386C68.8858 164.895 67.905 164.36 66.9688 164.137C66.5675 163.067 66.1663 161.997 65.988 160.838C65.6313 158.877 65.4976 156.871 65.4976 154.864C65.3193 154.463 65.2301 154.017 65.0964 153.572C64.3385 152.1 62.689 151.075 61.1286 150.763C59.8804 150.495 59.167 151.03 58.9441 151.833L58.8996 151.877C58.8996 151.922 58.8996 151.922 58.8996 151.967C58.855 152.279 58.8104 152.591 58.8549 152.903C58.8995 155.31 59.6128 157.718 60.4599 159.991C61.084 161.641 61.9311 163.157 62.9119 164.583C63.7589 165.876 64.5614 167.169 65.5868 168.283C65.988 168.774 66.3447 169.443 67.058 169.443C67.3254 169.443 67.6375 169.398 67.8604 169.264C69.3316 169.22 70.8028 169.621 72.274 169.799C71.8281 171.36 71.8727 172.964 72.2293 174.525C72.3185 174.971 72.4077 175.862 72.9873 175.818C73.121 175.818 73.2102 175.684 73.2548 175.55C73.4331 175.951 73.6114 176.308 73.8789 176.576C74.0572 176.798 74.3247 176.576 74.3693 176.353C74.4585 176.174 74.4584 175.951 74.4584 175.729C74.5921 175.951 74.7705 176.085 74.9042 176.13C74.9934 176.219 75.1272 176.263 75.2609 176.308C75.6621 176.397 75.573 175.595 75.3501 174.837C75.3501 174.748 75.3055 174.659 75.3055 174.569C75.5284 174.748 75.7513 174.881 76.0633 174.881C76.1079 174.881 76.1525 174.792 76.1525 174.748C76.3308 174.213 75.9296 173.633 75.7513 173.143C75.1717 171.85 74.7705 170.468 74.3247 169.086C74.0126 168.239 73.3439 165.341 72.0065 167.035Z" fill="#281417"/>
<path d="M74.191 169.756C74.4585 170.603 74.726 171.45 75.0381 172.252C75.2164 172.653 75.3502 173.055 75.5285 173.456C75.7514 173.946 76.2418 175.061 75.4393 174.303C75.2164 174.035 75.0381 173.813 74.9044 173.5C74.6815 173.01 74.5477 172.52 74.4585 172.029C74.4585 171.896 74.3248 172.074 74.3248 172.118C74.3694 172.787 74.5031 173.59 74.9044 174.169C74.9935 174.392 75.0381 174.615 75.0827 174.882C75.0827 175.328 75.0827 175.952 74.9044 175.774C74.5923 175.551 74.414 175.15 74.2357 174.793C73.879 174.08 73.6561 173.278 73.4778 172.52C73.4332 172.386 73.344 172.564 73.344 172.609C73.344 172.653 73.344 172.698 73.344 172.698V172.653C73.344 172.876 73.3886 173.055 73.4332 173.233C73.5223 173.768 73.7007 174.258 73.879 174.793C73.9236 174.927 74.0127 175.195 74.1465 175.417C74.1911 175.596 74.1911 175.774 74.1465 175.997C74.1019 176.175 73.9236 176.264 73.7898 176.131C73.3886 175.774 73.2994 175.195 73.1657 174.704C72.9874 174.08 72.809 173.456 72.5861 172.832C72.5861 173.634 72.8982 174.437 73.032 175.328C73.0765 175.551 72.7645 175.64 72.6307 175.507C72.2295 175.016 72.1849 174.125 72.0957 173.545C72.0066 172.876 72.0066 172.208 72.1403 171.539C72.1849 170.959 72.2295 170.424 72.3633 169.889C72.4078 169.889 72.497 169.889 72.5416 169.889C72.4524 169.711 72.3186 169.577 72.1849 169.399C70.892 169.087 69.4654 168.909 68.128 168.953C68.1726 168.909 68.1726 168.819 68.2172 168.73C68.0834 168.775 67.9497 168.819 67.8605 168.819C67.5484 168.998 67.1918 169.087 66.7906 168.953C66.5231 168.864 66.3002 168.686 66.0773 168.463V168.418C64.1603 166.011 62.3324 163.247 61.0396 160.394C60.1034 158.254 59.2563 155.802 59.0334 153.439C59.0334 153.439 59.0334 153.439 59.0334 153.394C58.9888 153.038 58.9443 152.681 58.9889 152.324C58.9889 151.165 59.8805 151.121 60.6384 151.076C61.2625 151.031 61.9312 151.388 62.4662 151.656C63.7591 152.28 64.829 153.305 65.2302 154.732C65.0965 157.897 65.4531 161.107 66.4785 164.138C66.7906 164.629 67.1472 165.075 67.4593 165.565C67.3255 165.253 67.2364 164.941 67.1026 164.584C68.9305 165.342 70.4016 166.546 72.0957 167.527C72.1849 167.571 72.2295 167.348 72.1849 167.304C72.1403 167.259 72.1403 167.214 72.0957 167.214C73.3886 165.743 74.0127 169.132 74.191 169.756Z" fill="#6A4B4F"/>
<path opacity="0.5" d="M71.8728 168.417C72.3632 168.64 72.5415 168.773 72.4523 169.308C72.4523 169.398 72.4078 169.487 72.4078 169.576C72.4524 169.665 72.4969 169.71 72.5861 169.799C72.5415 169.799 72.4524 169.799 72.4078 169.799C72.3186 170.066 72.274 170.334 72.2294 170.557C72.6306 170.155 73.1211 169.933 73.7006 170.022C73.8789 170.066 74.1019 170.111 74.2802 170.2C74.2356 170.066 74.191 169.888 74.1464 169.754C73.9681 169.13 73.344 165.742 72.1403 167.213C72.1849 167.258 72.1848 167.302 72.2294 167.302C72.274 167.347 72.2295 167.614 72.1403 167.525C70.4462 166.544 68.975 165.296 67.1471 164.583C67.2809 164.895 67.3701 165.207 67.5038 165.564C67.1472 165.118 66.8351 164.627 66.523 164.137C65.4976 161.105 65.141 157.896 65.2747 154.73C64.8289 153.348 63.759 152.323 62.5107 151.654C61.9757 151.387 61.307 151.075 60.6829 151.075C60.6383 151.075 60.5937 151.075 60.5491 151.075C60.9949 151.387 61.3516 151.788 61.6191 152.234C62.377 153.437 62.7336 154.73 63.0011 156.112C63.3578 157.851 63.759 159.545 64.2494 161.239C64.6952 162.8 65.2302 164.315 66.0326 165.742C66.4338 166.455 66.8797 167.302 66.3002 168.06C66.211 168.149 66.1218 168.238 65.9881 168.328C66.0326 168.372 66.0327 168.417 66.0772 168.417V168.461C66.3001 168.684 66.5231 168.863 66.7906 168.952C67.1472 169.041 67.5484 168.996 67.8605 168.818C67.905 168.818 67.9496 168.818 67.9942 168.773C68.2617 168.372 68.4846 167.971 68.663 167.481C68.7075 167.347 68.8413 167.302 68.975 167.347C69.9112 167.704 70.9812 167.971 71.8728 168.417Z" fill="#6A4B4F"/>
<path d="M62.0649 161.998C61.3071 160.126 60.683 158.209 60.1034 156.247C59.6576 154.687 59.5238 153.127 59.1672 151.566C59.0334 151.745 58.9889 151.968 58.9889 152.324C58.9889 152.681 58.9889 153.038 59.0334 153.394C59.0334 153.394 59.0334 153.394 59.0334 153.439C59.2564 155.846 60.1034 158.298 61.0396 160.393C61.6192 161.686 62.2879 162.935 63.0457 164.138C62.6891 163.47 62.377 162.756 62.0649 161.998Z" fill="#6A4B4F"/>
<path d="M72.0506 139.307C72.0506 139.173 72.0952 138.995 72.0952 138.861C72.7639 133.689 72.6302 128.652 70.1782 123.971C68.395 120.582 65.5417 117.774 62.0644 116.258C62.1536 116.303 62.2428 116.303 62.3765 116.347C61.262 115.857 59.9691 115.411 58.6762 115.099C56.6255 114.831 54.5302 114.698 52.4794 114.921C50.8745 114.965 49.3141 115.144 47.7092 115.322C43.0282 114.965 38.2134 116.526 33.9336 118.22C33.042 118.576 32.2841 119.067 31.4371 119.513C30.5454 120.003 29.4755 120.716 28.7176 121.385C27.826 122.232 27.1126 123.168 26.3993 124.194C26.3993 124.238 26.3548 124.238 26.3548 124.283C25.6861 125.174 25.1065 126.111 24.6607 127.136C24.0365 128.562 23.6799 130.123 23.3678 131.639C23.2341 132.397 22.6991 133.779 23.1004 134.536C23.2341 134.804 23.5462 134.447 23.6353 134.313C24.0811 133.556 24.3932 132.619 24.839 131.772C24.0366 134.314 23.9474 136.899 25.2403 139.396C25.374 139.663 25.7307 139.173 25.7307 138.995C25.6861 138.638 25.6861 138.281 25.6861 137.925C26.2657 140.243 28.1827 142.294 30.0105 143.72C30.3671 143.988 30.7237 144.255 31.0804 144.478C32.0612 150.274 35.4939 154.821 40.5316 157.763C44.009 159.769 47.9767 160.438 51.8999 160.081C55.823 159.992 59.7016 158.833 62.9115 156.47C65.5863 154.509 67.6371 152.057 68.9745 149.248C69.3757 148.58 69.777 147.911 70.089 147.197C70.5349 146.172 70.847 145.102 71.159 144.032C71.3373 142.383 71.5602 140.778 72.0506 139.307Z" fill="#68302A"/>
<path d="M67.9048 149.695C67.7711 149.918 67.6373 150.141 67.5036 150.408C67.0132 151.122 66.4782 151.835 65.9878 152.548C64.9624 153.796 63.7588 154.911 62.3767 155.892C60.2814 157.408 58.0077 158.433 55.5112 159.057C54.3075 159.325 53.1038 159.503 51.8555 159.592C50.6073 159.637 49.4036 159.592 48.1553 159.503C45.6141 159.191 43.2513 158.388 40.9777 157.14C36.1629 154.51 32.953 150.141 31.6156 144.88C33.9784 146.307 36.5196 147.109 39.1945 147.466C38.1691 147.154 37.1883 146.708 36.3413 146.218C34.8255 145.772 33.3988 145.148 31.9722 144.256C29.2528 142.607 25.508 139.352 25.9538 135.741C25.8646 135.34 25.8647 134.939 25.8201 134.493C25.4188 135.518 25.1959 136.588 25.1513 137.658C24.438 135.474 24.6609 133.244 25.4634 131.105C25.4634 130.703 25.4634 130.302 25.5971 129.945C25.5526 129.945 25.5525 129.99 25.508 129.99C24.6163 130.926 24.1706 132.174 23.591 133.334C23.6356 132.576 23.9922 131.461 24.0814 131.015C24.3043 129.856 24.6163 128.697 25.0176 127.583C25.9538 124.863 28.0491 122.679 30.2782 120.985C30.3674 120.94 30.4119 120.851 30.4119 120.762C32.0614 119.781 33.5772 118.889 35.405 118.176C37.4112 117.374 39.6848 116.705 41.9585 116.259C44.0092 116.125 46.0154 115.902 48.0661 115.724C48.1998 115.724 48.289 115.724 48.4228 115.724C48.4673 115.724 48.5119 115.724 48.5119 115.679C49.0023 115.635 49.5373 115.59 50.0277 115.59C50.0723 115.635 50.1168 115.635 50.1614 115.635C50.3843 115.59 50.6518 115.59 50.8747 115.546C53.0146 115.457 55.1546 115.412 57.2945 115.635C62.6442 116.17 66.8348 119.736 69.376 124.284C71.8279 128.653 71.9171 133.601 71.3376 138.46C71.293 138.951 71.2038 139.441 71.1146 139.976C70.9363 143.454 69.8664 146.797 67.9048 149.695Z" fill="#C28354"/>
<path opacity="0.6" d="M71.2038 139.976C71.2929 139.486 71.3375 138.995 71.4267 138.46C71.9617 133.601 71.8725 128.653 69.4651 124.284C66.924 119.692 62.7334 116.17 57.3836 115.635C55.2437 115.412 53.1038 115.457 50.9639 115.546C50.741 115.59 50.4735 115.59 50.2506 115.635C50.206 115.635 50.1614 115.635 50.1168 115.59C49.6264 115.635 49.0915 115.635 48.6011 115.679C48.5565 115.724 48.5119 115.724 48.5119 115.724C48.3782 115.724 48.289 115.724 48.1552 115.724C46.1045 115.902 44.0538 116.081 42.0476 116.259C39.774 116.705 37.5449 117.374 35.4942 118.176C33.6663 118.889 32.1505 119.781 30.501 120.762C30.501 120.851 30.4564 120.94 30.3673 120.985C29.654 121.52 28.9853 122.099 28.3166 122.723C32.8639 119.603 38.6594 117.953 43.9646 118.577C46.7286 118.889 49.359 119.825 51.3205 121.876C52.7471 123.347 53.4158 125.131 52.8363 126.959C53.505 126.379 54.1292 125.799 54.6641 125.086C54.8425 124.863 55.1545 124.997 55.1991 125.22C55.4666 127.048 54.6641 128.786 53.505 130.258C53.9954 129.945 54.5304 129.633 55.1099 129.5C55.2882 129.455 55.5557 129.589 55.5111 129.812C54.3966 135.384 48.4673 139.441 42.8947 140.556C44.0984 140.511 45.2575 140.11 46.372 139.664C46.6395 139.575 46.907 139.887 46.7287 140.11C41.9585 146.574 31.036 143.81 26.3104 138.015C27.2021 140.645 29.9215 142.919 32.0614 144.211C33.488 145.058 34.9146 145.683 36.4303 146.173C37.322 146.663 38.2582 147.109 39.2835 147.421C36.6087 147.065 34.023 146.262 31.7047 144.836C33.0867 150.096 36.2966 154.465 41.0668 157.095C43.3405 158.344 45.7033 159.146 48.2444 159.458C49.4927 159.547 50.6964 159.592 51.9447 159.547C53.193 159.458 54.3966 159.28 55.6003 159.012C58.0969 158.388 60.326 157.363 62.4659 155.847C63.8479 154.866 65.0516 153.752 66.0769 152.504C66.5673 151.79 67.1023 151.077 67.5927 150.364C67.7264 150.141 67.8602 149.918 67.9939 149.65C69.8663 146.797 70.9363 143.454 71.2038 139.976Z" fill="#C28354"/>
<path opacity="0.6" d="M71.2036 139.974C71.2928 139.484 71.3374 138.994 71.4266 138.459C71.9615 133.599 71.8724 128.651 69.465 124.282C66.9238 119.69 62.7332 116.168 57.3835 115.633C57.0268 115.589 56.7147 115.589 56.3581 115.544C56.0906 117.238 55.5556 118.888 54.7978 120.403C55.734 119.735 56.4473 118.843 57.0268 117.818C57.1606 117.55 57.5172 117.595 57.6063 117.907C58.0076 119.69 58.2751 121.562 58.1414 123.39C58.0076 125.129 57.2051 126.689 56.8931 128.383C58.3643 127.001 59.2113 125.084 60.0138 123.256C60.1475 122.989 60.5487 123.034 60.5933 123.346C61.0837 126.333 59.9692 129.364 58.5426 131.95C56.9822 134.848 55.1098 137.701 52.8807 140.153C50.7408 142.516 48.3335 144.789 45.614 146.483C49.7601 145.503 53.5049 143.095 55.9123 139.038C56.0906 138.771 56.5364 138.86 56.4918 139.217C56.046 141.624 54.6194 143.496 53.1036 145.324C54.8869 144.388 56.4026 142.739 57.3389 141.089C57.5172 140.777 57.963 140.911 57.9184 141.267C57.7401 143.407 56.7147 145.235 55.4219 146.84C56.4918 146.038 57.3389 144.878 58.3196 143.942C58.498 143.808 58.7655 143.942 58.81 144.165C59.3896 150.941 52.4349 157.049 46.3273 158.431C45.8369 158.52 45.3911 158.609 44.9007 158.699C45.9706 159.011 47.0851 159.278 48.1997 159.412C49.4479 159.501 50.6516 159.546 51.8999 159.501C53.1482 159.412 54.3519 159.234 55.5556 158.966C58.0522 158.342 60.2812 157.317 62.4211 155.801C63.8031 154.82 65.0068 153.706 66.0322 152.457C66.5226 151.744 67.0576 151.031 67.548 150.317C67.6818 150.094 67.8155 149.872 67.9492 149.604C69.8662 146.795 70.9362 143.452 71.2036 139.974Z" fill="#C28354"/>
<path d="M26.9346 136.097C26.7562 133.155 27.5587 130.435 29.9215 128.474C30.1444 128.296 29.8769 128.162 29.6986 128.296C27.4249 129.99 25.3742 133.378 26.4887 136.231C26.5779 136.454 26.9791 136.276 26.9346 136.097Z" fill="#C28354"/>
<path d="M29.1633 138.326C28.1379 136.141 27.5138 133.823 28.8066 131.549C28.9404 131.282 28.4946 131.371 28.4054 131.505C26.9788 133.689 27.0233 136.587 28.7174 138.593C28.8066 138.727 29.2524 138.504 29.1633 138.326Z" fill="#C28354"/>
<path d="M30.5901 139.218C30.3672 138.817 30.0998 138.46 29.9214 137.97C29.7431 137.48 29.6539 136.989 29.6093 136.454C29.5648 136.276 29.2527 136.41 29.2527 136.588C29.3418 137.524 29.431 138.817 30.2335 139.397C30.3226 139.486 30.6347 139.352 30.5901 139.218Z" fill="#C28354"/>
<path d="M32.6853 140.734C32.3286 140.332 32.0166 139.931 31.7045 139.53C31.437 139.173 31.3033 138.727 31.125 138.326C31.0804 138.192 30.7237 138.371 30.7683 138.504C31.0804 139.396 31.5262 140.555 32.4178 141.001C32.5515 141.046 32.819 140.867 32.6853 140.734Z" fill="#C28354"/>
<path d="M36.564 141.714C35.494 141.402 34.3795 141.045 33.7108 140.109C33.6216 139.975 33.2204 140.154 33.3542 140.287C34.0229 141.313 35.1374 141.758 36.2965 141.981C36.4303 142.07 36.7869 141.803 36.564 141.714Z" fill="#C28354"/>
<path d="M53.9952 130.212C53.9952 130.034 53.6385 130.168 53.6385 130.302C53.3711 132.397 51.8107 134.18 50.2504 135.518C50.0721 135.696 50.2504 135.83 50.4287 135.741C52.2565 134.671 53.8615 132.308 53.9952 130.212Z" fill="#C28354"/>
<path d="M52.3458 130.837C52.3904 130.703 52.1229 130.793 52.0783 130.882C51.4096 132.665 50.5625 134.225 49.1805 135.563C49.0022 135.741 49.3142 135.83 49.448 135.697C50.9637 134.448 51.7662 132.665 52.3458 130.837Z" fill="#C28354"/>
<path d="M48.9131 134.449C49.0023 134.27 48.601 134.359 48.5565 134.449C48.3781 134.805 48.1998 135.207 47.9769 135.519C47.7095 135.831 47.3973 136.098 47.0853 136.366C46.8624 136.544 47.1299 136.678 47.3082 136.544C48.1106 136.009 48.5565 135.34 48.9131 134.449Z" fill="#C28354"/>
<path d="M41.4234 154.954C37.9906 153.349 34.8253 150.853 34.0674 146.974C34.0228 146.796 33.7554 146.93 33.7554 147.063C33.9783 149.025 34.7361 150.853 36.1627 152.235C37.411 153.438 39.4618 154.999 41.2004 155.222C41.3342 155.266 41.6463 155.043 41.4234 154.954Z" fill="#C28354"/>
<path d="M39.7292 152.815C38.9713 152.147 38.1243 151.745 37.5001 150.898C37.411 150.764 37.1434 150.943 37.188 151.032C37.7676 151.879 38.4809 152.548 39.4171 153.038C39.5508 153.127 39.8629 152.904 39.7292 152.815Z" fill="#C28354"/>
<path d="M42.1366 153.708C41.5124 153.306 40.7546 153.128 40.3088 152.504C40.2196 152.37 39.9075 152.549 39.9967 152.682C40.3979 153.351 41.1558 153.752 41.9137 153.975C41.9583 153.931 42.2703 153.797 42.1366 153.708Z" fill="#C28354"/>
<path d="M31.4368 125.22C28.7174 127.137 26.3545 129.188 25.9087 132.71C25.8641 132.977 26.3991 132.754 26.4437 132.576C26.8895 131.194 27.4245 129.901 28.227 128.653C29.1186 127.226 30.4114 126.424 31.7043 125.398C31.8826 125.175 31.6151 125.086 31.4368 125.22Z" fill="#C28354"/>
<path d="M6.24878 47.5131C6.29336 48.3155 6.78376 48.9397 7.05124 49.6976C7.05124 49.6976 7.05127 49.653 7.00669 49.653C6.91752 49.5193 6.69461 49.4301 6.65003 49.653C5.98131 53.6208 6.33796 57.9452 6.82836 61.9129C7.27417 65.8806 8.12121 69.67 9.50323 73.4594C10.6178 76.5801 11.9998 79.7454 14.6747 81.8407C17.84 84.2927 21.7631 84.1144 25.5525 83.4902C25.7309 83.4457 25.5971 83.1336 25.4633 83.1336C24.8392 83.1336 24.1705 83.1782 23.5018 83.2228C24.75 82.8215 25.8646 82.0636 26.9345 81.0382C27.8707 80.1466 28.6286 79.1658 29.2527 78.0513C29.2973 78.0067 29.3419 77.9176 29.3419 77.873C29.6986 77.4718 29.9661 76.8922 30.1444 76.2681C30.4119 75.6885 30.6347 75.0643 30.7239 74.4848C30.7239 74.4402 30.7239 74.3956 30.6794 74.351C30.7239 74.1281 30.7685 73.9498 30.8131 73.7715C31.1252 72.2111 30.8576 70.6508 30.3673 69.1796C29.2527 65.8806 27.4249 63.0274 24.973 60.5309C19.5786 55.0028 13.1589 51.1242 6.38252 47.4685C6.33794 47.2902 6.24878 47.3793 6.24878 47.5131Z" fill="#281417"/>
<path d="M6.7392 48.0044C12.4456 51.0805 18.2858 54.3796 22.9668 58.9269C25.4188 61.3343 27.8707 63.8308 29.2527 67.0406C30.0106 68.7793 30.9914 71.0084 30.5902 72.9254C30.5456 73.1037 30.189 74.7086 29.8323 75.9569C29.4757 76.6256 29.0299 77.2498 28.6732 77.8293C28.0937 78.7655 27.3804 79.6126 26.5779 80.3705C25.7754 81.1284 24.8838 81.9308 23.8584 82.4212C22.7885 82.9116 21.6293 83.0453 20.4702 83.1791C18.3303 83.0453 16.2796 82.555 14.541 80.9946C11.8215 78.4981 10.6178 75.1991 9.41407 71.8109C8.21037 68.3781 7.58625 64.7224 7.27418 61.1113C6.91753 57.5894 6.65005 53.9337 7.14045 50.4118C7.58626 51.0805 7.89832 51.7938 8.38872 52.418C8.47788 52.5071 8.52247 52.5517 8.56705 52.5072C8.74537 52.5963 8.92368 52.4625 8.78993 52.195C8.43328 51.5263 8.03206 50.813 7.71999 50.0997C7.40792 49.4756 6.91752 48.6731 6.7392 48.0044Z" fill="#624548"/>
<path d="M29.0297 71.7648C28.7622 67.9308 26.8006 64.3643 24.4378 61.4665C21.6738 58.1229 18.241 55.3589 14.7636 52.8177C13.7383 52.0599 12.6683 51.3466 11.5538 50.6333C15.6553 52.9961 19.623 55.6264 23.0112 58.9254C25.4632 61.3328 27.9152 63.8293 29.2972 67.0392C30.0551 68.7779 31.0359 71.007 30.6346 72.924C30.5901 73.1023 30.2333 74.7072 29.8767 75.9555C29.52 76.6242 29.0743 77.2483 28.7176 77.8279C28.2272 78.6303 27.6477 79.3437 26.9789 80.0124C28.2718 77.4712 29.208 74.5734 29.0297 71.7648Z" fill="#705053"/>
<path d="M11.9108 71.7197C13.0699 73.9042 15.1652 75.6428 17.0822 77.114C18.91 78.496 20.8271 79.4769 23.0115 80.1456C24.0815 78.5407 25.1961 77.0249 25.6864 75.0633C26.3106 72.6113 26.3997 69.8027 25.8647 67.3508C25.3743 65.1217 24.5273 62.8034 23.1453 60.9756C21.6741 59.014 19.7571 57.2754 17.751 55.8488C17.7064 55.8042 17.6618 55.7596 17.6618 55.6704C18.598 56.1608 19.4896 56.7404 20.2921 57.3645C21.4066 58.3453 22.4765 59.4153 23.4128 60.5744C24.9285 62.4468 25.7756 64.9434 26.3551 67.2616C27.6034 72.3439 25.9985 77.6045 22.432 81.3493C22.3428 81.4385 22.2536 81.2155 22.2982 81.1709C22.432 80.948 22.5657 80.7251 22.7441 80.5022C21.7633 80.4577 20.6487 79.9227 19.8462 79.5214C18.6871 78.9865 17.6618 78.1394 16.681 77.3816C15.0761 76.1779 13.5157 74.7512 12.4458 73.0125C12.2675 72.6559 12.0891 72.1655 11.9108 71.7197Z" fill="#281417"/>
<path opacity="0.5" d="M9.01305 55.538C9.90468 58.0791 10.7517 60.6203 11.9554 63.0277C13.8279 66.7725 16.0569 72.0776 20.2029 73.8609C21.6295 74.485 23.1007 74.5296 23.9032 73.0138C24.7948 71.3197 24.5273 68.6895 24.1707 66.8617C23.4574 63.206 21.9416 59.9515 19.668 57.1429C22.2537 59.4165 24.3936 62.4035 25.6865 65.4796C27.3806 69.492 27.1577 73.7272 25.8202 77.7841C25.7311 78.0515 26.1323 78.319 26.3106 78.0961C28.2276 75.9116 29.8771 73.3259 30.5458 70.5619C30.7242 71.3644 30.7688 72.1668 30.635 72.9247C30.5904 73.103 30.2337 74.7079 29.8771 75.9562C29.5204 76.6249 29.0746 77.2491 28.718 77.8286C28.1384 78.7648 27.4251 79.6119 26.6227 80.3698C25.8202 81.1277 24.9286 81.9301 23.9032 82.4205C22.8332 82.9109 21.6742 83.0446 20.515 83.1784C18.3751 83.0446 16.3244 82.5543 14.5857 80.9939C11.8663 78.4974 10.6626 75.1984 9.45886 71.8102C8.25516 68.3774 7.63104 64.7217 7.31897 61.1106C6.96232 57.5887 6.69481 53.9331 7.1852 50.4111C7.31895 50.5895 7.40812 50.7678 7.54186 50.9907C7.94309 52.5065 8.47808 53.9776 9.01305 55.538Z" fill="#6E4E52"/>
<path d="M7.09615 103.64C6.7395 103.863 6.33827 104.131 6.02621 104.487C5.84788 104.666 5.71411 104.844 5.58036 105.022C5.71411 104.71 5.89244 104.443 6.07076 104.131C5.66953 104.398 5.31289 104.665 5.00082 105.022C4.73333 105.691 4.64418 106.404 4.55501 107.117C4.46585 107.43 4.42126 107.742 4.33209 108.054C4.33209 108.098 4.33212 108.187 4.28754 108.232C4.3767 109.034 4.59961 109.837 4.77793 110.506C4.77793 110.283 4.77793 110.104 4.77793 109.926C4.77793 108.722 4.86709 107.608 5.22374 106.404C5.89246 104.398 7.45279 103.462 9.28062 103.061C8.65648 103.15 7.85403 103.328 7.09615 103.64Z" fill="black"/>
<path d="M64.5166 116.124C65.1853 114.118 65.3637 112.067 64.5612 110.284C64.9179 110.73 65.1408 111.22 65.4529 111.71C65.5866 111.889 65.9432 111.8 66.0324 111.577C66.6119 109.927 65.6758 108.278 64.4721 107.163C64.9625 107.341 65.4529 107.52 65.9433 107.698C66.7011 108.01 66.924 108.634 67.5036 109.08C67.5036 109.08 67.5482 109.08 67.5482 109.125C67.5482 108.501 67.5036 107.921 67.3698 107.297C66.7457 106.004 65.7203 104.889 64.4721 103.998C63.9371 98.6927 62.7334 93.5658 59.6573 89.0631C57.9632 86.5665 55.9124 84.3821 53.3713 82.7326C52.0338 81.8855 50.5627 81.1722 49.0915 80.5035C47.7541 79.8793 45.3021 79.2998 44.4996 77.9623C44.4551 77.9177 44.4104 77.9178 44.3658 77.9178C44.2321 77.5165 44.1875 77.0707 44.1875 76.5803C44.1875 75.1983 45.7033 73.5488 46.907 73.0138C46.5949 72.9246 46.2383 72.9247 45.8817 72.9692C44.0538 73.638 42.4935 75.0646 41.5573 76.7587C41.4681 76.8924 41.4235 77.0261 41.3343 77.2044C41.156 75.9562 41.4681 74.6188 42.1368 73.5488C42.2705 73.3259 41.8694 73.3705 41.7802 73.4151C40.0415 74.4404 38.392 75.9562 37.5895 77.8286C35.7617 77.249 33.8892 76.8478 31.9722 76.6695C29.0745 76.402 26.1767 77.2491 23.4573 78.1407C20.8715 78.9431 18.5979 80.6818 16.458 82.2867C14.3181 83.8916 12.4902 85.8978 11.1528 88.1715C9.32494 88.4835 7.09589 87.8594 5.6247 87.1015C5.53554 87.0569 5.17888 87.1461 5.26804 87.2799C5.62469 88.1715 6.42716 89.0185 7.36337 89.4643C6.02593 90.0884 4.77767 91.2921 3.93062 92.0946C2.14737 93.8333 0.899095 96.6419 0.587026 99.0939C0.542444 99.3614 1.03282 99.1831 1.12198 99.0939C2.23651 97.801 3.26191 96.6419 4.59935 95.7057C3.30649 97.2215 2.504 99.0939 2.41484 101.1C2.41484 101.368 2.86067 101.189 2.94983 101.055C3.75229 99.7626 4.51016 98.5589 5.58011 97.5335C4.24267 99.9855 4.19811 103.151 5.35723 105.737C5.44639 105.959 5.84761 105.781 5.93677 105.647C6.338 104.889 6.51633 103.998 6.91756 103.195C7.14047 102.75 7.40795 102.393 7.67544 102.036C7.80918 102.928 8.03209 103.775 8.29957 104.622C7.94292 105.023 7.58629 105.469 7.27422 105.915C6.20427 107.609 6.78382 109.57 7.85377 111.354C8.07667 112.245 7.67544 113.494 7.85377 114.296C8.12126 115.589 9.23577 116.391 10.3057 116.971C10.8853 117.283 11.4649 117.551 12.089 117.818C12.3119 117.952 12.5348 118.13 12.7577 118.308C14.3181 120.582 14.7639 123.257 16.2797 125.531C17.4388 127.314 19.8016 127.804 21.7632 127.849C23.8585 127.893 25.9984 127.046 27.6925 125.843C28.7624 125.04 29.6986 124.059 30.6794 123.168C30.724 123.168 30.7686 123.168 30.8132 123.123C32.8193 121.741 35.8063 122.499 38.2582 123.123C38.5703 123.212 38.9269 123.257 39.239 123.302C41.1114 123.658 43.0284 123.792 44.9454 123.747C45.837 123.747 46.7287 123.658 47.5757 123.48C49.8493 123.391 52.0784 123.034 54.3521 122.722C56.6257 122.41 58.7657 121.251 60.0139 119.378C59.9248 119.601 59.8356 119.824 59.7465 120.003C59.6127 120.27 59.3006 120.805 59.4343 121.162C59.9247 121.072 60.4152 120.983 60.861 120.805C62.6442 119.958 63.9371 117.863 64.5166 116.124Z" fill="#68302A"/>
<path d="M14.0507 118.932C13.9169 118.843 13.8278 118.709 13.694 118.62C14.1844 118.665 14.6748 118.709 15.1652 118.754C15.2098 118.754 15.2543 118.754 15.2543 118.798C15.5664 118.888 15.9231 119.021 16.2351 119.111C17.4388 119.333 18.6872 119.467 19.98 119.512C23.0115 119.601 26.0431 118.665 28.6734 117.193C29.9216 116.48 31.1253 115.722 32.1952 114.786C31.5265 115.945 30.9024 117.149 30.2337 118.263C29.03 120.18 27.7372 122.187 26.1768 123.792C25.5973 124.639 24.5718 125.218 23.5465 125.352C23.2344 125.441 22.9223 125.53 22.5657 125.619C20.6487 126.021 18.91 124.951 17.6618 123.569C16.4135 122.142 15.5218 120.537 14.2735 119.2C14.1844 119.155 14.0953 119.021 14.0507 118.932Z" fill="#F5846E"/>
<path d="M24.973 121.072C22.9668 121.518 20.2028 122.767 19.0436 124.773C20.069 125.486 21.2727 125.887 22.5655 125.62C22.9222 125.531 23.2343 125.441 23.5463 125.352C24.5717 125.219 25.5971 124.639 26.1767 123.792C26.9346 122.989 27.6478 122.098 28.2719 121.206C27.2466 120.894 26.1321 120.805 24.973 121.072Z" fill="#8B2933"/>
<path d="M61.0836 120.18C60.7716 120.447 60.415 120.67 60.1029 120.893C60.1921 120.848 60.3703 120.269 60.4149 120.135C60.7716 119.288 61.0837 118.53 60.9053 117.594C60.8607 117.326 60.3258 117.549 60.2812 117.728C59.3004 121.116 56.2689 122.052 53.1036 122.542C52.0782 122.721 51.0082 122.854 49.9383 122.944C48.3779 123.256 46.7731 123.523 45.1681 123.523C44.5886 123.523 44.0536 123.434 43.5186 123.345C42.4933 123.3 41.5125 123.167 40.6654 123.077C38.9714 122.899 36.9651 122.275 35.0482 122.186C34.5132 122.141 33.9336 122.141 33.3987 122.097C32.9529 122.052 32.3733 122.097 31.8829 122.23C32.3733 121.874 32.9082 121.562 33.4432 121.294C33.1312 121.339 32.8637 121.428 32.5962 121.517C32.2841 121.651 31.9721 121.785 31.66 121.918C31.125 122.319 30.59 122.721 30.0551 123.167C27.6923 125.217 25.7306 127.134 22.4316 127.446C19.5338 127.714 17.171 126.332 15.9674 123.746C15.3432 122.364 14.8082 121.071 14.0949 119.823C15.9228 122.052 17.0373 124.861 19.8905 125.975C21.1388 126.466 22.4762 126.243 23.7691 125.752C24.4824 125.485 25.1511 125.128 25.8199 124.771C26.1765 124.415 26.5777 124.014 26.9344 123.702C26.979 123.657 26.9789 123.657 27.0235 123.612C27.0681 123.568 27.0681 123.568 27.1127 123.523C27.8706 122.721 28.5393 121.829 29.208 120.893C30.3671 119.243 31.3925 117.371 32.3287 115.588C32.6408 114.964 32.9974 114.384 33.3987 113.849C33.7553 113.047 34.1566 112.244 34.6024 111.486C34.5578 111.575 34.4686 111.709 34.3795 111.798C33.9782 112.2 33.6662 112.69 33.3541 113.047C33.2204 113.225 33.0866 113.359 32.9528 113.537C31.5708 114.919 29.8321 116.078 28.2272 116.925C25.1957 118.53 21.9858 119.333 18.5531 118.976C17.7952 118.887 17.0373 118.798 16.2795 118.664C14.1396 118.53 11.9996 117.995 10.3947 116.613C10.3501 116.568 10.3055 116.569 10.261 116.524C9.10184 115.9 8.12106 114.651 8.2548 113.269C8.2548 113.091 8.29936 112.913 8.29936 112.69C8.29936 112.69 8.29937 112.69 8.34395 112.69C8.34395 112.512 8.34396 112.333 8.38854 112.155C8.43312 111.843 8.43312 111.486 8.38854 111.174C7.71982 109.971 7.31858 108.633 7.36316 107.296C7.36316 106.894 7.4969 106.493 7.67523 106.092C7.85355 105.512 8.29937 105.022 8.83435 104.576C9.77056 103.684 10.9297 102.971 11.7767 102.436C13.5154 101.322 15.3878 100.43 17.3048 99.6722C18.1964 99.3156 19.1326 99.048 20.0688 98.7805C19.5784 98.8251 19.088 98.8698 18.5976 98.9143C18.1072 99.0481 17.6614 99.2264 17.2156 99.3601C14.3178 100.385 10.8851 101.901 8.56687 104.219C8.0319 102.882 7.76438 101.455 7.4969 100.073C7.45231 100.564 7.45231 101.054 7.4969 101.545C7.22941 101.812 7.00651 102.08 6.73902 102.347C6.11488 103.105 5.89199 104.041 5.53534 104.933C4.6883 102.57 4.73289 99.7614 5.892 97.5769C5.98116 97.2202 6.02572 96.8636 6.11489 96.5069C6.0703 96.5069 6.07032 96.5515 6.02574 96.5515C4.64372 97.4877 3.70751 98.736 2.86047 100.073C3.12796 98.4685 3.88581 96.9082 4.95576 95.7045C5.13409 95.3478 5.31243 94.9911 5.49075 94.6791H5.44616C3.61833 95.5261 2.37007 96.819 1.07721 98.2456C1.43386 96.5961 2.23632 94.902 3.12795 93.52C3.79667 92.4946 4.73286 91.6476 5.62449 90.8897C6.02572 90.5776 6.60528 90.1763 7.22942 89.8643C7.63065 89.5522 8.07648 89.2847 8.56687 89.0618C8.21022 89.1064 7.89814 89.1956 7.54149 89.3293C6.82819 88.9727 6.15946 88.4377 5.75823 87.769C7.14025 88.4823 9.10184 88.7943 10.7513 88.4823C10.7068 88.5268 10.7067 88.5714 10.6622 88.616C10.6622 88.616 10.6622 88.616 10.6622 88.6606C10.9742 88.4377 11.2863 88.2148 11.643 87.9919C11.5984 88.0364 11.5092 88.0365 11.4647 88.081C12.8913 86.3424 14.1841 84.6483 15.9674 83.2217C18.0627 81.5276 20.4701 79.8335 22.9667 78.8081C27.6923 76.9357 32.507 76.802 37.2772 78.1394C37.2772 78.184 37.2327 78.2286 37.2327 78.2732C36.9206 79.0756 36.9206 80.0118 37.0543 80.9034C37.1435 79.4323 37.6339 77.9611 38.5255 76.8465C39.1942 75.732 40.175 74.7513 41.245 74.038C40.6654 75.2416 40.5317 76.6682 40.9329 77.9165C40.6208 78.8527 40.5317 79.8335 40.71 80.7697C40.7992 80.0118 40.9329 79.2985 41.2004 78.5852C41.3341 77.9611 41.6016 77.3369 42.0028 76.802C42.4932 75.8212 43.162 75.0187 44.009 74.35C44.4549 73.9933 44.856 73.7705 45.3464 73.5476C45.391 73.5476 45.4356 73.5029 45.4802 73.5029C44.6777 74.2162 44.0536 75.1971 43.6969 76.267C43.6524 76.4453 43.6078 76.6682 43.6078 76.8465C43.6969 77.3815 43.7861 78.0057 44.0536 78.5406C44.6777 79.0756 45.6586 79.3877 46.2381 79.6106C47.2635 79.9673 48.2443 80.3684 49.225 80.8143C50.7854 81.5721 52.3011 82.3746 53.594 83.5337C55.1543 84.6928 56.5809 85.9857 57.8292 87.5906C61.6186 92.3163 63.179 97.7998 63.8031 103.64C63.1344 103.194 62.4657 102.837 61.7524 102.525C61.1728 102.303 60.6378 102.169 60.0583 102.08C61.2174 102.525 62.2427 103.239 63.179 104.086C64.7393 105.156 66.0767 106.493 66.8792 108.143C66.6117 107.875 66.3442 107.652 66.0322 107.429C65.2743 106.939 64.2044 106.671 63.3573 106.404C63.2236 106.359 62.7332 106.538 62.9561 106.716C64.2044 107.608 65.4972 109.123 65.4526 110.728C65.2743 110.372 65.0514 110.015 64.7393 109.703C64.2935 109.257 63.7585 108.99 63.2681 108.588C63.5356 109.079 63.714 109.569 63.8477 110.193C63.8923 110.372 63.8922 110.55 63.9368 110.728C64.873 113.136 64.2043 116.034 62.7777 118.307C62.4211 119.065 61.7969 119.645 61.0836 120.18Z" fill="#C28354"/>
<path d="M11.2865 104.665C13.1143 103.372 15.1651 102.302 17.0821 101.5C20.9161 99.8949 24.9284 99.5828 28.9853 99.2262C25.1513 97.8887 20.2028 99.0032 16.7254 100.742C14.7193 101.767 12.8914 103.105 11.2865 104.665Z" fill="#C28354"/>
<path d="M17.3052 99.851C17.8847 99.5835 18.4643 99.3606 19.0884 99.1377C18.5534 99.316 18.0185 99.4944 17.4835 99.6727C15.5665 100.431 13.6941 101.322 11.9554 102.437C11.1084 102.972 9.94927 103.73 9.01306 104.577C8.47809 105.022 8.03226 105.468 7.85394 106.092C7.67561 106.449 7.54187 106.85 7.54187 107.296C7.54187 107.608 7.54188 107.92 7.58646 108.188C9.99385 104.666 13.2929 101.59 17.3052 99.851Z" fill="#C28354"/>
<path opacity="0.6" d="M47.3527 102.481C48.066 100.341 47.6202 98.1568 47.6648 95.9278C47.6648 95.7049 47.2636 93.0746 46.5502 91.8709C46.4165 91.648 46.7286 91.2913 46.9515 91.4696C48.3335 92.4504 49.3143 93.7879 50.4288 95.0362C50.8746 92.1384 48.4227 89.1515 45.6141 88.5273C42.6271 87.8586 39.7739 90.1768 37.9906 92.3167C35.5387 95.2145 34.4687 98.6473 34.2458 102.437C34.1567 103.551 34.2013 104.532 34.4688 105.602C34.6025 106.182 34.8254 106.85 34.7808 107.43C34.7808 107.786 34.6917 108.054 34.6025 108.321C36.6978 107.43 39.1052 106.984 41.3342 107.251C41.5126 107.296 41.7355 107.474 41.6017 107.697C40.1751 109.703 38.7485 112.512 39.1497 115.098C40.9776 112.022 42.5379 108.812 45.4357 106.538C47.5756 104.844 50.2059 103.952 52.7916 103.284C51.0975 102.972 49.4035 102.927 47.6202 102.927C47.4865 102.838 47.3082 102.66 47.3527 102.481Z" fill="#865A37"/>
<path opacity="0.6" d="M16.0119 93.1185C15.8781 93.3414 15.6107 93.2968 15.4769 93.1185C14.8528 92.2714 14.0949 91.8702 13.2925 91.781C15.2986 93.7426 16.1456 97.3091 15.254 99.984C17.2156 99.0032 19.4447 98.3345 21.6292 98.2453C23.992 98.1561 26.2656 98.5574 28.5393 99.0924C27.7814 98.3345 26.8897 97.9779 25.8644 97.4429C25.5523 97.2646 25.1957 97.1308 25.2402 96.685C25.4631 95.1247 26.756 93.6981 27.291 92.2269C28.2718 89.552 28.8513 85.0047 25.7752 83.266C23.5015 82.0177 21.005 83.3106 19.4001 85.0938C20.9159 84.648 22.5208 84.5588 23.9028 85.4951C24.1703 85.6734 24.0811 86.03 23.769 86.0746C19.8013 86.565 17.9735 89.9978 16.0119 93.1185Z" fill="#865A37"/>
<path d="M3.17305 94.902C4.86714 92.7175 7.31911 91.1572 9.86024 90.1318C8.21073 90.1764 6.65037 90.6222 5.17919 91.3801C4.46589 92.0042 3.79718 92.673 3.30678 93.4754C2.59348 94.5454 1.96935 95.7936 1.56812 97.0419C2.10309 96.3286 2.63807 95.6153 3.17305 94.902Z" fill="#C28354"/>
<path d="M8.47815 94.9927C6.73947 96.5084 5.58036 98.8267 5.13455 101.189C5.08997 102.215 5.22372 103.24 5.49121 104.221C5.53579 100.967 6.60573 97.623 8.47815 94.9927Z" fill="#C28354"/>
<path d="M55.9124 105.646C57.5619 108.098 56.7594 111.487 55.2437 114.028C56.4473 113.002 57.3836 111.397 57.6956 109.926C58.0969 108.277 57.2944 106.583 55.9124 105.646Z" fill="#C28354"/>
<path d="M11.3311 88.305C11.8215 88.4388 12.3119 88.6617 12.8023 88.8846C13.2481 87.1459 15.1651 85.7193 16.4134 84.6493C18.4195 82.9552 20.6486 81.707 23.056 80.637C25.3296 79.6117 27.6478 78.7647 30.0998 78.3634C32.3289 78.0068 34.4242 78.2296 36.6533 78.3188C36.3412 78.0959 36.0292 77.9176 35.7171 77.6947C31.5265 76.8476 27.2912 77.1597 23.1451 78.8092C20.6486 79.79 18.2412 81.5287 16.1459 83.2228C14.3627 84.6494 13.0698 86.3434 11.6431 88.0821C11.6877 88.0821 11.7769 88.0375 11.8215 87.9929C11.6432 88.0821 11.5094 88.1713 11.3311 88.305Z" fill="#C28354"/>
<path d="M39.2836 76.9808C39.5956 76.3566 39.9077 75.6879 40.2198 74.9746C38.2582 77.0254 37.1437 79.6111 37.1882 82.5089C37.7232 80.5919 38.3028 78.7194 39.2836 76.9808Z" fill="#C28354"/>
<path d="M42.8056 83.0878C43.0285 79.9225 42.9839 76.7126 44.6334 73.9932C44.4551 74.0823 44.3213 74.2161 44.143 74.3498C43.9647 74.5281 43.7863 74.6619 43.608 74.8402C41.8693 77.2922 41.156 80.4129 42.8056 83.0878Z" fill="#C28354"/>
<path opacity="0.6" d="M64.0262 110.728C63.9816 110.55 63.9816 110.372 63.937 110.193C63.8479 109.569 63.625 109.079 63.3575 108.588C63.8479 108.99 64.4275 109.257 64.8287 109.703C65.1408 110.015 65.3636 110.372 65.542 110.728C65.5865 109.123 64.2937 107.563 63.0454 106.716C62.8225 106.582 63.3575 106.359 63.4467 106.404C64.2937 106.671 65.3637 106.939 66.1215 107.429C66.4336 107.608 66.7011 107.875 66.9686 108.143C66.1661 106.493 64.8287 105.156 63.2683 104.086C62.3321 103.239 61.3068 102.525 60.1477 102.08C60.6826 102.169 61.2622 102.303 61.8418 102.525C62.5551 102.837 63.2683 103.194 63.8925 103.64C63.2683 97.7552 61.6634 92.2717 57.9186 87.5906C56.6257 85.9857 55.2437 84.6483 53.6834 83.5337C52.3905 82.3746 50.8747 81.5721 49.3144 80.8143C48.3336 80.3684 47.3528 79.9673 46.3274 79.6106C45.7479 79.3877 44.7671 79.0756 44.143 78.5406C43.8755 78.0057 43.7863 77.3815 43.6971 76.8465C43.6971 76.6682 43.7417 76.4453 43.7863 76.267C44.143 75.2416 44.7225 74.2608 45.5695 73.5029C45.525 73.5029 45.4804 73.5476 45.4358 73.5476C45.3021 73.5921 45.1683 73.6813 45.0346 73.7258C43.2513 75.5983 42.8501 78.6744 44.455 80.948C46.2828 83.5783 49.3589 84.8712 52.0338 86.3869C56.804 89.0618 60.9947 93.2971 61.0838 99.0926C61.0838 99.3601 60.8164 99.4493 60.6381 99.3601C58.5427 98.4685 56.2691 98.736 54.1292 99.3156C56.6257 99.8951 58.8994 101.233 60.1477 103.551C60.2814 103.774 60.0585 104.086 59.8356 103.997C58.2752 103.372 56.8041 103.417 55.2883 103.818C57.5174 104.532 59.2114 106.627 58.8548 109.168C58.4089 112.2 56.0016 114.741 53.4159 116.167C50.3398 117.861 46.8624 118.619 43.3851 119.02C39.9078 119.422 36.2075 120.224 32.8193 119.065C32.6855 119.02 32.5518 118.842 32.5964 118.708C33.5772 115.944 34.9592 113.314 35.0484 110.372C32.9976 112.824 30.2336 115.677 26.8454 115.142C26.6671 115.097 26.5779 114.919 26.6225 114.785C27.202 112.779 28.6733 110.639 27.5587 108.544C26.8008 107.117 25.5971 106.092 24.2597 105.245C22.5656 104.13 20.7377 103.328 18.7316 102.971C17.4833 102.748 16.1905 102.882 15.0759 102.258C14.8976 102.169 14.8531 101.901 15.0314 101.768C17.8846 99.2264 21.8077 98.513 25.5526 98.1564C22.8777 97.666 19.8907 97.9781 17.3942 98.8697C15.3434 99.6276 13.0252 101.143 10.7961 100.073C9.19117 99.271 7.14046 97.3539 7.72001 95.3032C8.21041 93.6091 9.68163 92.6283 11.0636 91.6921C8.92374 91.6475 6.87296 92.6729 5.13429 93.7874C4.95597 93.9212 4.68848 93.7429 4.68848 93.52C4.6439 92.8067 4.86681 92.0934 5.17888 91.4246C4.46558 92.0488 3.79687 92.7175 3.30647 93.52C2.41485 94.902 1.61239 96.5961 1.25574 98.2456C2.50401 96.819 3.79685 95.5261 5.62469 94.6791H5.66928C5.49095 95.0357 5.31262 95.3924 5.13429 95.7045C4.01976 96.9082 3.26187 98.4685 3.03896 100.073C3.88601 98.736 4.82225 97.4877 6.20427 96.5515C6.20427 96.5515 6.24883 96.5069 6.29341 96.5069C6.20425 96.8636 6.11508 97.2202 6.07049 97.5769C4.91138 99.7614 4.86682 102.57 5.71387 104.933C6.07052 104.041 6.29341 103.105 6.91755 102.347C7.14046 102.035 7.40794 101.812 7.67542 101.545C7.63084 101.054 7.63084 100.564 7.67542 100.073C7.94291 101.5 8.21042 102.882 8.7454 104.219C11.0636 101.901 14.4964 100.385 17.3942 99.3601C17.84 99.1818 18.3304 99.0481 18.7762 98.9143C19.2666 98.8698 19.757 98.8251 20.2474 98.7805C19.3112 99.0034 18.3749 99.3156 17.4833 99.6722C15.5663 100.43 13.6939 101.322 11.9553 102.436C11.1082 102.971 9.94908 103.729 9.01288 104.576C8.4779 105.022 8.03208 105.468 7.85375 106.092C7.67543 106.449 7.54169 106.85 7.54169 107.296C7.4971 108.633 7.89835 109.926 8.56707 111.174C8.61165 111.486 8.61165 111.798 8.56707 112.155C8.56707 112.333 8.52248 112.512 8.52248 112.69C8.52248 112.69 8.52247 112.69 8.47789 112.69C8.47789 112.913 8.47791 113.091 8.43333 113.269C8.34417 114.607 9.32491 115.9 10.4394 116.524C10.484 116.569 10.5287 116.568 10.5733 116.613C12.1782 118.04 14.2735 118.53 16.4579 118.664C17.2158 118.798 17.9737 118.887 18.7316 118.976C22.1643 119.333 25.3742 118.53 28.4058 116.925C30.0107 116.078 31.7494 114.919 33.1314 113.537C33.2651 113.359 33.3989 113.18 33.5326 113.047C33.8001 112.69 34.1567 112.155 34.558 111.798C34.6025 111.709 34.6917 111.575 34.7809 111.486C34.3351 112.244 33.9338 113.047 33.5772 113.849C33.1759 114.429 32.8193 115.008 32.5072 115.588C31.571 117.371 30.5456 119.243 29.3865 120.893C28.7178 121.829 28.0491 122.676 27.2912 123.523C27.2467 123.568 27.2466 123.568 27.2021 123.612C27.1575 123.657 27.1575 123.657 27.1129 123.702C26.7116 124.058 26.355 124.415 25.9983 124.771C25.3296 125.173 24.6609 125.485 23.9476 125.752C22.6548 126.243 21.3173 126.466 20.069 125.975C17.2158 124.861 16.0567 122.052 14.2734 119.823C14.9867 121.071 15.5218 122.364 16.1459 123.746C17.305 126.376 19.7124 127.714 22.6102 127.446C25.9092 127.134 27.8708 125.262 30.2336 123.167C30.724 122.721 31.2589 122.319 31.8385 121.918C32.1506 121.785 32.4627 121.651 32.7747 121.517C33.0422 121.428 33.3543 121.339 33.6218 121.294C33.0868 121.606 32.5518 121.918 32.0614 122.23C32.5518 122.097 33.1313 122.097 33.5772 122.097C34.1567 122.141 34.6917 122.141 35.2267 122.186C37.1437 122.275 39.1498 122.899 40.8439 123.077C41.691 123.167 42.6718 123.3 43.6971 123.345C44.2321 123.434 44.7671 123.523 45.3466 123.523C46.9516 123.523 48.5565 123.3 50.1169 122.944C51.1868 122.81 52.2121 122.676 53.2821 122.542C56.4028 122.052 59.4789 121.116 60.4597 117.728C60.5043 117.549 61.0392 117.326 61.0838 117.594C61.2621 118.53 60.9501 119.288 60.5934 120.135C60.5488 120.269 60.4151 120.804 60.2814 120.893C60.638 120.67 60.9501 120.447 61.2622 120.18C61.9755 119.645 62.5996 119.02 63.09 118.263C64.2937 116.034 65.007 113.136 64.0262 110.728Z" fill="#C28354"/>
<path d="M49.983 102.928C48.5119 103.196 47.1744 103.82 45.9707 104.578C46.2382 103.909 46.4165 103.24 46.6394 102.571C47.1298 101.145 47.1298 99.5398 47.2189 98.0241C47.2635 96.7758 46.996 94.6359 46.1044 93.2539C46.6394 93.7889 47.0852 94.4576 47.3973 95.1263C47.4419 95.2155 47.7094 95.1263 47.6648 95.0371C46.6394 92.2285 44.232 90.8465 41.3342 91.5598C40.6655 91.7381 40.086 92.0056 39.551 92.4069C41.8693 89.8657 45.302 87.8596 47.531 91.5152C47.6202 91.6936 48.0214 91.5152 47.9323 91.3369C46.0598 87.4583 41.3343 89.5091 39.1944 91.9165C35.5833 95.8842 34.335 101.011 35.0483 106.272C35.0483 106.316 35.0483 106.316 35.0929 106.316C35.1375 106.495 35.182 106.673 35.2266 106.851C35.182 106.94 35.2266 107.03 35.3157 107.074C35.3157 107.074 35.3158 107.074 35.3604 107.074H35.4049H35.4495C35.5386 107.074 35.6724 107.074 35.8061 107.03C36.7869 106.45 37.9461 106.628 39.0606 106.673C39.8631 106.717 40.7101 106.539 41.5125 106.405C42.1367 106.316 42.8946 106.182 43.5633 106.004C43.6971 106.049 43.8308 106.093 43.92 106.138C43.9646 106.138 43.9646 106.182 44.0092 106.182C42.4488 107.698 41.1559 109.526 40.2643 111.443C40.0859 111.8 40.8439 111.666 40.933 111.443C41.9584 109.392 43.3404 107.386 45.0791 105.781C45.1236 105.781 45.2128 105.737 45.2128 105.737C45.302 105.648 45.3911 105.558 45.4803 105.425C46.7731 104.355 48.2889 103.508 49.983 103.151C50.1614 103.151 50.2505 102.839 49.983 102.928Z" fill="#281417"/>
<path d="M39.15 106.094C37.9463 106.183 36.8318 105.96 35.7173 106.45C35.5835 105.826 35.4943 105.202 35.4052 104.578C35.4052 102.126 35.7172 99.8079 36.5197 97.5342C37.6342 95.4835 38.4367 93.522 40.5766 92.2291C41.8695 91.4712 43.2069 91.5158 44.366 92.0508C44.366 92.0508 44.366 92.0953 44.4106 92.0953C46.5059 92.9424 46.6842 96.8655 46.5505 98.6488C46.4167 100.7 46.0601 102.706 45.3468 104.578C43.8756 106.005 41.1115 105.96 39.15 106.094Z" fill="white"/>
<path d="M27.3804 98.3797C25.9538 98.0676 24.4826 97.9339 23.0114 97.9785C23.8585 97.2206 24.438 96.1061 24.973 95.2144C26.1767 93.1191 26.8009 90.3996 26.9346 87.9922C27.0238 86.1644 26.2213 83.8016 24.4381 83.0437C23.9922 82.8654 23.5464 82.8654 23.1006 82.9546C22.5656 83.2667 22.0752 83.6233 21.674 84.0691C23.2343 83.0883 24.7946 83.3112 25.7754 85.3619C26.1321 86.1644 26.3104 87.0115 26.355 87.9031C25.6863 86.9223 23.9476 87.0114 22.6993 87.3681C20.5148 87.9922 18.8208 89.7755 17.5725 91.5587C16.9929 92.4058 16.3688 93.3866 15.923 94.4119C15.5664 93.5203 15.0759 92.7624 14.0952 92.1829C15.7447 94.3674 16.5471 96.9085 16.1013 99.4942C16.1459 99.4496 16.1905 99.3605 16.235 99.3159C16.5025 99.4497 16.8146 99.4943 17.0821 99.5388C16.9038 99.628 16.7255 99.7617 16.5471 99.8509C17.0821 99.7171 17.6616 99.6725 18.2412 99.628C18.5978 99.4942 18.9545 99.3605 19.3557 99.2713C19.534 99.2267 19.7124 99.1822 19.8907 99.093C20.5149 98.9147 21.0945 98.8255 21.7186 98.6918C21.7186 98.7364 21.7632 98.7364 21.8523 98.6918C21.8969 98.6918 21.9415 98.6472 22.0306 98.6472C23.4572 98.4242 24.9284 98.3797 26.3996 98.558C26.6671 98.5135 27.0237 98.4243 27.3804 98.3797Z" fill="#281417"/>
<path d="M18.0182 99.0929C17.394 99.1375 16.859 99.0929 16.4132 98.7808C16.6807 97.8446 16.5915 96.7747 16.3686 95.9276C16.324 95.7493 16.2795 95.571 16.1903 95.3927C16.5024 94.5456 16.9036 93.7432 17.1711 93.2528C17.9736 91.737 19.0435 90.3104 20.3363 89.1959C21.8075 87.903 25.8199 86.2089 26.2211 89.3296C26.2211 89.3742 26.2657 89.4188 26.3103 89.4188C26.3103 89.508 26.3103 89.5971 26.3103 89.6863C26.132 91.2466 25.7307 92.807 25.1511 94.2781C24.6607 95.4818 23.7245 97.1313 22.5654 98.023C20.9605 98.1567 19.4448 98.4688 18.0182 99.0929Z" fill="white"/>
<path d="M42.4934 103.552C41.4234 105.29 39.2389 105.915 37.6786 104.934C36.0737 103.953 35.6725 101.724 36.7424 99.9853C37.8124 98.2466 39.9969 97.6225 41.5572 98.6033C43.1621 99.5841 43.6079 101.813 42.4934 103.552Z" fill="#9F460E"/>
<path d="M40.6655 102.393C40.2643 103.017 39.5064 103.24 38.9268 102.883C38.3473 102.527 38.2135 101.724 38.6147 101.1C39.0159 100.476 39.7738 100.253 40.3534 100.61C40.9329 100.966 41.0667 101.769 40.6655 102.393Z" fill="#5E0D00"/>
<path d="M40.3981 100.832C40.0414 101.367 39.3727 101.59 38.8378 101.278C38.3474 100.966 38.2136 100.253 38.5257 99.7179C38.8823 99.1383 39.5511 98.96 40.086 99.2721C40.5764 99.5395 40.7101 100.253 40.3981 100.832Z" fill="white"/>
<mask id="mask0_171_902" style="mask-type:luminance" maskUnits="userSpaceOnUse" x="16" y="87" width="11" height="13">
<path d="M18.0182 99.0929C17.394 99.1375 16.859 99.0929 16.4132 98.7808C16.6807 97.8446 16.5915 96.7747 16.3686 95.9276C16.324 95.7493 16.2795 95.571 16.1903 95.3927C16.5024 94.5456 16.9036 93.7432 17.1711 93.2528C17.9736 91.737 19.0435 90.3104 20.3363 89.1959C21.8075 87.903 25.8199 86.2089 26.2211 89.3296C26.2211 89.3742 26.2657 89.4188 26.3103 89.4188C26.3103 89.508 26.3103 89.5971 26.3103 89.6863C26.132 91.2466 25.7307 92.807 25.1511 94.2781C24.6607 95.4818 23.7245 97.1313 22.5654 98.023C20.9605 98.1567 19.4448 98.4688 18.0182 99.0929Z" fill="white"/>
</mask>
<g mask="url(#mask0_171_902)">
<path d="M21.8968 97.3111C20.8269 99.0498 18.6424 99.6739 17.082 98.6931C15.4771 97.7123 15.0759 95.4832 16.1459 93.7446C17.2158 92.0059 19.4003 91.3818 20.9606 92.3626C22.5209 93.3879 22.9668 95.5724 21.8968 97.3111Z" fill="#9F460E"/>
<path d="M20.0243 96.1952C19.6231 96.8193 18.8652 97.0423 18.2856 96.6856C17.7061 96.3289 17.5723 95.5264 17.9735 94.9023C18.3748 94.2782 19.1327 94.0553 19.7122 94.4119C20.2918 94.7686 20.4255 95.5711 20.0243 96.1952Z" fill="#5E0D00"/>
<path d="M19.7571 94.5912C19.4004 95.1708 18.7317 95.3491 18.1967 95.037C17.7063 94.7249 17.5726 94.0117 17.8847 93.4767C18.2413 92.8971 18.91 92.7188 19.445 93.0308C19.98 93.3429 20.1137 94.0562 19.7571 94.5912Z" fill="white"/>
</g>
<path d="M25.4191 112.647C25.9095 110.908 25.0625 109.348 23.9926 108.055C21.3623 105.068 16.592 102.705 12.6243 102.527C11.5989 102.482 10.6181 102.527 9.68192 102.794C9.2361 103.017 8.74572 103.106 8.29991 103.195C6.20459 104.176 4.33218 105.603 4.5105 108.099C4.59967 109.437 4.77801 110.685 5.22382 111.933C5.58047 112.914 5.93711 113.315 6.73957 113.449C6.73957 113.449 6.78416 113.449 6.78416 113.494C7.00707 113.449 7.22998 113.405 7.45289 113.405C7.72037 113.405 7.94326 113.494 8.16617 113.583C9.72652 113.806 10.7965 114.787 12.0893 115.812C12.8026 116.392 13.6051 116.837 14.4967 117.239C16.9487 118.086 19.4007 118.309 21.808 117.016C21.8972 116.971 21.9418 116.882 21.8972 116.837C22.0755 116.748 22.2539 116.659 22.4768 116.525C23.9034 115.767 24.9733 114.296 25.4191 112.647Z" fill="black"/>
<path d="M22.1199 116.347C19.5342 118.085 16.5472 117.149 13.8723 116.124C13.6494 115.856 13.6048 115.544 13.6494 115.232C13.8723 114.92 14.0506 114.564 14.2735 114.118C14.8531 113.092 15.2989 110.863 16.9484 111.086C17.84 111.22 18.91 111.666 19.3112 112.335C19.3558 112.379 19.3558 112.379 19.4004 112.424C19.3112 112.959 18.9546 113.583 18.7763 113.806C18.6425 113.984 18.5534 114.118 18.3751 114.251C18.063 114.474 17.7509 114.385 17.4388 114.296C17.3942 114.296 17.3497 114.296 17.3051 114.296C16.8147 114.029 16.4134 113.538 16.8592 113.003C17.1267 112.647 16.5026 112.647 16.3243 112.736C16.2797 112.78 16.2351 112.825 16.1905 112.869C15.2989 114.474 18.5087 116.035 19.7124 114.162C20.292 113.271 20.4257 112.468 20.2028 111.8C20.2028 111.8 20.2029 111.8 20.1583 111.8L20.1137 111.755C19.2667 110.685 16.8147 109.927 15.5219 110.417C14.8531 110.685 14.4965 111.175 14.1844 111.8C13.694 112.825 13.5602 114.876 12.4903 115.5C11.777 115.009 11.1083 114.43 10.3504 113.984C10.2612 113.895 10.1721 113.85 10.0829 113.761C9.63711 113.449 9.23587 113.182 8.74547 113.003C8.65631 112.959 8.61171 112.959 8.52255 112.959C8.92378 112.424 9.01294 111.666 9.14669 111.086C9.36959 109.927 10.0383 108.59 8.96836 107.698C8.3888 107.252 7.54176 107.118 6.91762 107.52C6.87304 107.564 6.73929 107.653 6.73929 107.743C6.73929 107.787 6.7393 107.832 6.78388 107.876C6.65014 108.055 6.60554 108.322 6.56096 108.545C6.42722 109.258 6.5164 110.774 7.58635 110.417C7.63093 109.883 7.22969 109.392 7.22969 108.768C7.22969 108.501 7.31884 108.322 7.49717 108.188C7.85382 107.832 8.38882 108.367 8.56714 108.634C9.10212 109.303 8.70087 110.507 8.47796 111.309C8.3888 111.755 8.29965 112.156 8.21048 112.513C8.07674 112.691 7.85384 112.825 7.63094 112.825C7.45261 112.914 7.27429 113.003 7.0068 113.003C5.08981 113.182 4.77773 108.278 4.91147 107.074C5.17896 105.112 6.96219 103.909 8.79003 103.329C8.83461 103.284 8.87918 103.284 8.92377 103.24C10.6179 102.437 12.7132 102.75 14.4519 103.106C17.6171 103.819 20.827 105.647 23.1452 107.876C25.9093 110.685 25.1514 114.296 22.1199 116.347Z" fill="#50373A"/>
<path opacity="0.5" d="M23.19 108.01C22.2537 107.074 21.1392 106.227 19.9355 105.514C21.0055 106.94 21.5405 108.634 21.1393 110.373C21.0947 110.551 20.8717 110.64 20.6934 110.551C18.9102 109.615 16.5474 108.099 14.4521 108.857C13.3821 109.259 12.8471 110.551 11.688 110.819C10.841 110.997 10.4843 109.66 10.5289 109.08C10.6626 107.163 8.5673 106.182 6.87321 106.851C5.58035 107.386 6.29366 108.991 6.4274 110.016C6.47199 110.328 6.02619 110.418 5.84786 110.15C5.35747 109.348 5.04539 108.545 4.86707 107.743C4.86707 109.481 5.31288 113.182 6.96239 113.048C7.22988 113.048 7.4082 112.959 7.58653 112.87C7.80944 112.825 7.98775 112.736 8.16607 112.558C8.25524 112.201 8.34442 111.8 8.43358 111.354C8.70107 110.551 9.05771 109.348 8.52273 108.679C8.29983 108.411 7.80944 107.921 7.45279 108.233C7.27446 108.411 7.18528 108.545 7.18528 108.813C7.18528 109.437 7.58652 109.883 7.54194 110.462C6.47199 110.819 6.38284 109.259 6.51659 108.59C6.56117 108.367 6.60573 108.144 6.73947 107.921C6.73947 107.876 6.69488 107.832 6.69488 107.787C6.69488 107.698 6.78405 107.609 6.87321 107.564C7.49735 107.163 8.34439 107.297 8.92395 107.743C10.0385 108.634 9.32518 109.972 9.10228 111.131C8.96853 111.71 8.87937 112.468 8.47814 113.003C8.5673 113.003 8.6119 113.003 8.70106 113.048C9.23604 113.226 9.63725 113.494 10.0385 113.806C10.1276 113.85 10.2168 113.94 10.306 114.029C11.0638 114.475 11.7326 115.054 12.4459 115.544C13.4713 114.92 13.6496 112.87 14.14 111.844C14.452 111.22 14.8087 110.73 15.4774 110.462C16.7703 109.972 19.2222 110.73 20.0693 111.8L20.1139 111.844C20.1139 111.844 20.1139 111.844 20.1585 111.844C20.4259 112.513 20.2476 113.315 19.6681 114.207C18.4644 116.079 15.2545 114.519 16.1462 112.914C16.1907 112.87 16.2353 112.825 16.2799 112.78C16.4582 112.647 17.0823 112.691 16.8149 113.048C16.369 113.583 16.7257 114.029 17.2607 114.341C17.3053 114.341 17.3499 114.341 17.3944 114.341C17.7511 114.385 18.0185 114.519 18.3306 114.296C18.5089 114.162 18.5981 114.029 18.7318 113.85C18.9101 113.627 19.2668 112.959 19.356 112.468C19.3114 112.424 19.3114 112.379 19.2668 112.379C18.8656 111.71 17.7957 111.22 16.904 111.131C15.2545 110.908 14.8087 113.137 14.2291 114.162C14.0062 114.608 13.8279 114.965 13.605 115.277C13.5604 115.589 13.605 115.901 13.8279 116.169C16.5028 117.194 19.4897 118.086 22.0754 116.392C25.1515 114.296 25.9094 110.685 23.19 108.01Z" fill="#50373A"/>
<path d="M30.8578 117.148C31.3036 116.346 31.7494 115.543 32.1952 114.741C31.1253 115.677 29.8771 116.435 28.6734 117.148C26.0431 118.619 23.0115 119.6 19.98 119.466C18.6872 119.422 17.4388 119.288 16.2351 119.065C15.9231 118.976 15.5664 118.887 15.2543 118.753C15.2098 118.753 15.2098 118.753 15.1652 118.708C14.6748 118.664 14.1844 118.619 13.694 118.575C13.8278 118.664 13.9169 118.798 14.0507 118.887C14.0953 119.021 14.1844 119.11 14.2735 119.154C14.9868 119.868 15.5665 120.715 16.146 121.562C18.063 121.963 21.0945 122.23 24.0369 120.759L24.349 120.536C25.0623 120.403 25.8647 122.186 26.5334 122.23L26.6672 119.778C26.6672 119.778 28.8071 119.065 30.8578 117.148Z" fill="white"/>
<path d="M87.1195 69.8026C79.4515 69.2676 71.9618 69.1339 64.4721 70.9617C61.084 71.8088 58.0079 73.2354 55.2884 75.4199C54.0847 76.4007 53.0147 77.5597 52.4798 79.0755C52.4352 79.2538 52.346 79.4322 52.2568 79.6551C52.2123 79.6997 52.1677 79.6997 52.1231 79.7443C51.9002 80.2792 51.7218 80.9033 51.6773 81.5721C51.5435 82.1962 51.4544 82.8204 51.5435 83.3553C51.5435 83.4445 51.5435 83.4891 51.5435 83.5783C51.4544 84.8711 51.5881 86.1194 51.9002 87.3676C52.2568 88.7942 52.7918 90.0426 53.6388 91.0233C53.1039 90.6667 52.5689 90.2655 52.0339 89.9088C51.9002 89.8196 51.6327 90.0425 51.7664 90.1763C54.6196 92.7174 57.8295 94.9911 61.8419 94.5899C65.23 94.2332 68.0386 92.3162 70.6689 90.2655C73.8342 87.8135 76.5537 85.0494 79.0503 81.9287C81.5468 78.808 84.1771 75.3753 85.6928 71.6304C85.782 71.4075 85.5591 71.363 85.4254 71.4521C85.4254 71.4521 85.3808 71.4521 85.3808 71.4967C86.0049 71.0509 86.7628 70.7388 87.2086 70.1147C87.3423 69.9809 87.2978 69.8472 87.1195 69.8026Z" fill="#281417"/>
<path d="M84.6674 71.4976C83.9987 71.9434 83.33 72.3001 82.6613 72.7013C82.3938 72.835 82.483 73.0579 82.6613 73.0579C82.6613 73.1025 82.7504 73.1471 82.8841 73.1025C83.5974 72.835 84.3107 72.3892 84.9795 72.0772C83.5083 75.3316 81.3238 78.274 79.1393 81.0826C76.9102 83.9804 74.4583 86.7444 71.6051 89.0181C68.7964 91.2471 65.9879 93.4316 62.3768 94.0557C60.1031 94.4569 58.0969 93.7882 56.2245 92.7183C55.2883 92.005 54.3521 91.2917 53.728 90.2663C53.1484 89.3301 52.7918 88.171 52.5243 87.101C52.2568 86.0311 52.0785 84.9165 52.0785 83.802C52.0785 83.1333 52.0785 82.3754 52.123 81.6176C52.4797 80.3693 53.0147 78.8089 53.1038 78.6306C53.8171 76.8028 55.8233 75.4207 57.3837 74.3508C60.2815 72.3892 63.6696 71.5422 67.0132 70.8289C73.3883 69.4469 80.0755 69.8035 86.5844 70.2047C86.0494 70.6951 85.2024 71.1409 84.6674 71.4976Z" fill="#624548"/>
<path d="M55.0655 78.4965C57.2946 75.4204 60.8611 73.4142 64.4722 72.2106C68.5736 70.8285 72.9426 70.3382 77.267 70.0707C78.5598 69.9815 79.8527 69.9369 81.1455 69.9369C76.4199 69.7586 71.6497 69.8477 67.0579 70.8731C63.7143 71.5864 60.3261 72.4335 57.4283 74.3951C55.8679 75.465 53.8618 76.847 53.1485 78.6748C53.1039 78.8532 52.5243 80.4135 52.1677 81.6618C52.1231 82.4197 52.1677 83.1776 52.1231 83.8463C52.1231 84.7825 52.2123 85.7187 52.4352 86.6549C52.6581 83.7126 53.416 80.7702 55.0655 78.4965Z" fill="#705053"/>
<path d="M69.5545 87.5468C67.4146 88.7951 64.6951 89.1517 62.2877 89.3746C59.9695 89.5529 57.8742 89.3746 55.6451 88.7951C55.6005 86.8335 55.4668 84.9611 56.0909 83.0441C56.8934 80.6367 58.2754 78.2293 60.0586 76.4015C61.6636 74.752 63.6251 73.2808 65.765 72.4783C68.0387 71.5867 70.6244 71.1409 73.0318 71.0071C73.0764 71.0071 73.1209 70.9625 73.2101 70.9179C72.1402 70.8734 71.1148 70.8734 70.0449 70.9626C68.5737 71.1855 67.1025 71.5421 65.7205 72.0325C63.4022 72.8349 61.3961 74.4845 59.6574 76.134C55.868 79.7451 54.4414 85.0949 55.4668 90.1325C55.5113 90.2663 55.6897 90.1325 55.6897 90.0434C55.6897 89.7759 55.6897 89.5084 55.6897 89.2409C56.5367 89.7313 57.7404 89.865 58.6766 89.9542C59.9249 90.0879 61.2623 89.9096 62.5106 89.8204C64.5168 89.6421 66.5675 89.2409 68.4399 88.3939C68.7966 88.171 69.1978 87.8589 69.5545 87.5468Z" fill="#281417"/>
<path opacity="0.5" d="M80.6551 75.376C78.5597 77.0255 76.509 78.7642 74.1908 80.1462C70.6243 82.3307 65.8987 85.6297 61.4405 84.9164C59.9248 84.6935 58.6319 83.9356 58.7657 82.2415C58.8994 80.3245 60.5489 78.2292 61.7972 76.8918C64.3383 74.1723 67.3699 72.2107 70.7581 71.0962C67.3699 71.6312 63.9817 73.0578 61.2622 74.9302C57.6957 77.4267 55.6004 81.127 54.575 85.273C54.4859 85.5405 54.04 85.5405 53.9955 85.273C53.5496 82.3752 53.5051 79.3437 54.4413 76.6689C53.8617 77.2484 53.3713 77.9171 53.1038 78.6304C53.0593 78.8088 52.4797 80.3691 52.123 81.6174C52.0785 82.3753 52.1231 83.1331 52.0785 83.8018C52.0785 84.9164 52.2122 86.0309 52.5243 87.1009C52.7918 88.1708 53.1484 89.33 53.728 90.2662C54.3521 91.247 55.2883 92.0048 56.2245 92.7181C58.0969 93.7435 60.1031 94.4568 62.3768 94.0555C66.0324 93.4314 68.7964 91.247 71.6051 89.0179C74.4583 86.7443 76.9102 83.9802 79.1393 81.0824C81.3238 78.2738 83.5083 75.3314 84.9795 72.077C84.7565 72.1661 84.5782 72.2553 84.3553 72.389C83.1962 73.4144 81.9033 74.3952 80.6551 75.376Z" fill="#6E4E52"/>
<path d="M29.5649 82.5097C29.119 80.8602 27.4249 80.1023 25.9983 80.9493C25.8646 81.0385 25.8646 81.0831 25.8646 81.1722C25.82 81.2168 25.7755 81.306 25.82 81.3952C27.2912 83.6242 28.5395 86.5666 28.0491 89.2861C28.0045 89.6873 28.7624 89.4198 28.8515 89.1969C29.654 87.0124 30.1444 84.7387 29.5649 82.5097Z" fill="#281417"/>
<path d="M37.9908 89.5976C37.8125 89.8205 38.0353 90.5784 38.3028 90.3555C40.4427 88.5722 43.5635 88.1264 46.2384 88.2601C46.3275 88.2601 46.3721 88.2156 46.4167 88.1264C46.4612 88.1264 46.5504 88.0373 46.5504 87.9036C46.5504 86.254 45.0347 85.184 43.3852 85.6299C41.1561 86.254 39.4174 87.8143 37.9908 89.5976Z" fill="#281417"/>
<path d="M12.758 104.353C12.758 104.309 12.758 104.309 12.758 104.264C12.446 103.729 11.5544 103.506 10.9748 103.372C10.4398 103.239 9.77109 103.462 9.2807 103.684C8.03242 104.219 7.80952 105.379 9.01322 106.136C9.99401 106.805 12.223 106.939 13.0255 105.869C13.4713 105.245 13.2484 104.754 12.758 104.353Z" fill="white"/>
<path d="M16.0123 104.845C16.0123 104.845 15.9678 104.845 15.9232 104.8C15.5665 104.578 15.1653 104.533 14.8086 104.8C14.5857 104.979 14.5411 105.246 14.5857 105.514C14.5857 105.692 14.6749 105.826 14.8086 105.915C15.1653 106.227 15.8786 106.227 16.2352 105.96C16.7256 105.648 16.3689 105.068 16.0123 104.845Z" fill="white"/>
</svg>
