<svg width="136" height="179" viewBox="0 0 136 179" fill="none" xmlns="http://www.w3.org/2000/svg">
<path d="M132.288 63.2749C128.766 66.9306 126.359 71.5224 125.467 76.6939C123.907 85.7439 127.83 95.2843 129.078 104.156C130.505 114.633 128.186 124.307 119.805 131.217C116.372 134.07 112.271 135.898 107.991 137.102C103.667 138.305 98.3615 139.152 94.7059 135.898C94.9733 130.949 93.8142 125.822 91.6297 121.186C89.4007 116.505 86.1908 112.359 83.1593 108.168C79.6374 103.264 75.2238 97.3796 75.0901 91.1382C75.4467 90.9153 75.848 90.6924 76.2492 90.4695C76.3384 90.4249 76.3829 90.3357 76.4275 90.2912C77.0517 90.4249 77.7204 90.5586 78.3445 90.6032C80.3507 90.7815 82.2677 90.9599 84.2738 90.9599C87.4391 90.9599 91.0056 90.737 93.6805 88.9091C96.0433 89.2212 98.7182 88.0175 100.68 86.9476C100.814 86.903 100.903 86.6801 100.814 86.5909C101.616 86.1451 102.329 85.5656 102.909 84.8077C102.909 84.8077 102.909 84.8076 102.909 84.8522C102.909 84.8968 102.953 84.9414 103.043 84.9414C103.578 85.0752 104.113 85.2089 104.648 85.2535C105.272 85.2981 105.896 84.8968 106.431 84.451C108.036 84.2281 109.819 84.5848 111.112 83.3811C112.137 82.4449 112.85 81.152 113.029 79.77C113.296 79.5916 113.608 79.2796 113.92 78.9229C115.347 80.4833 116.863 76.6938 116.997 75.6239C117.086 74.5985 116.997 73.3948 116.506 72.4586C116.105 71.6562 115.08 71.9682 114.678 72.5924C113.876 71.8345 112.672 71.5224 111.424 72.2357C110.532 71.6116 109.373 71.4333 108.08 71.8345C105.807 72.5478 102.909 74.866 102.24 77.2288C102.24 77.2288 102.196 77.1843 102.151 77.1843C98.7182 76.8722 95.2854 80.2604 92.4322 82.4894C89.0886 82.4003 86.3692 81.8653 83.2931 80.7953C80.4844 79.8146 77.7204 78.8338 74.8226 78.2542C73.3514 77.9867 71.7911 77.8975 70.4091 78.165C70.3645 78.0313 70.1861 77.9421 70.097 77.8976C69.8741 77.7192 69.6958 77.5409 69.4729 77.3626C69.2499 77.1843 69.027 77.0059 68.8487 76.783C68.7596 76.6939 68.715 76.5601 68.6258 76.471C68.6704 76.471 68.715 76.3818 68.6258 76.3818C68.5812 76.3818 68.5366 76.3818 68.5366 76.4264C70.7211 74.7323 72.9056 72.8153 74.5551 70.6308C79.3253 73.5286 84.4076 75.6685 90.2031 75.9806C97.1132 76.3818 103.979 73.7961 109.507 69.7838C119.27 62.6507 124.352 50.2126 123.505 38.3094C122.658 26.0495 114.678 15.35 103.31 10.8473C92.2093 6.4337 78.9687 9.01942 69.7403 16.4199C67.645 18.114 65.9063 20.2093 64.5243 22.5276C63.276 24.6675 62.7856 27.0303 62.6073 29.3931C62.5627 29.3931 62.5182 29.3485 62.4736 29.3485C62.429 29.3039 62.3844 29.2593 62.3398 29.2148H62.2953L62.2507 29.1702C57.7034 27.1194 52.1307 26.5845 46.7809 27.164C46.8255 27.1194 46.8255 27.0303 46.9147 26.8965C46.9593 26.8074 46.7809 26.8074 46.7364 26.8965C47.1376 26.2278 47.7617 25.6483 48.163 24.8012C48.6979 23.6421 48.8763 22.3938 49.01 21.1901C49.3221 18.3815 48.475 15.5283 47.4497 12.9872C45.6664 8.52904 42.1891 4.82878 37.9093 2.73346C29.0822 -1.59093 18.1151 1.61892 10.7592 7.32533C3.13582 13.2101 -0.787336 22.5276 0.238035 32.068C0.77301 36.749 2.86835 41.118 6.52402 44.0604C10.893 47.5823 15.8415 46.0219 20.0322 43.2133C19.943 43.3916 19.8984 43.5699 19.8093 43.7928C19.7647 43.9266 19.8092 44.0603 19.8538 44.1941C19.8538 44.1941 19.8093 44.1941 19.8093 44.2387C19.7201 44.3278 19.6755 44.3724 19.6755 44.4616C16.644 45.9773 13.9245 48.0281 12.275 50.7476C11.9629 50.7921 11.6954 50.7921 11.428 50.8813C10.0014 51.1488 9.33264 51.9512 8.44101 53.0212C8.30727 53.1549 8.441 53.2887 8.53016 53.2441C7.59395 54.6261 8.12895 56.4539 9.60014 57.7914C9.91221 58.1034 10.3134 58.371 10.7147 58.5493C10.358 60.6446 10.8038 62.9628 11.8738 65.1473C10.8038 64.4786 9.02058 64.6569 7.86147 64.7015C7.77231 64.7015 7.68314 64.8798 7.81688 64.8798C8.53018 64.8798 9.24346 64.9244 9.95676 65.0136C10.4917 65.1027 10.9822 65.2811 11.4725 65.504C10.6255 65.6377 9.77845 66.0389 9.06515 66.4847C8.88682 66.6185 8.88681 66.9305 9.1543 66.7522C10.0459 66.2618 10.9376 65.9052 11.9629 65.816C12.0075 65.816 12.0967 65.7715 12.1413 65.7269C12.2304 65.9052 12.3196 66.0835 12.4087 66.2173C11.5171 66.886 11.0713 68.0005 10.1351 68.6246C10.0459 68.6692 10.0905 68.803 10.1797 68.7138C11.1159 68.1343 11.6509 67.1089 12.5425 66.4402C14.5932 69.8729 17.9814 72.6815 21.5925 73.3057C25.2036 78.7446 31.1775 81.4641 37.4189 82.7123C42.0107 83.6486 46.3797 83.604 50.7041 82.8461C46.3797 84.7185 42.3674 87.6163 37.5972 87.9729C32.5595 88.3742 27.076 88.0621 22.5733 85.5655C22.707 85.521 22.8854 85.3426 22.7516 85.2535C20.9684 84.2281 20.6117 82.5786 20.2105 80.7508C20.0767 80.2158 19.8984 78.6554 19.0068 78.9229C18.2935 79.1458 17.8477 80.7954 17.9368 81.9545C17.9368 81.9099 17.8923 81.8653 17.8477 81.8207C17.6248 81.1966 17.6248 80.4833 17.4019 79.8591C17.2235 79.3688 16.5994 78.7 16.0198 79.0121C15.4403 79.3687 15.3957 80.2604 15.3511 80.8399C15.3066 81.2858 15.3065 81.9099 15.3957 82.4449C15.3511 82.4003 15.3511 82.3557 15.3065 82.3111C14.9499 81.7315 14.5932 81.2412 14.1028 80.8399C13.4341 80.2604 12.9437 81.2857 12.81 81.7761C12.2304 84.1835 14.6824 87.0813 16.6886 88.2404C16.0198 88.4633 15.3511 88.7754 14.8161 89.3104C14.3257 89.8008 13.7908 90.9153 14.192 91.584C14.6824 92.4311 15.574 92.0744 16.2873 91.7178C17.0452 91.2719 17.5356 90.6478 18.3381 90.3357C19.1851 90.0237 20.2105 90.1128 21.1021 90.3357C20.9683 90.3803 20.8792 90.5141 21.0129 90.6032C25.5157 93.2781 30.91 95.106 36.0814 95.8193C38.3105 96.1313 40.5396 96.4434 42.7241 95.9084C45.7556 95.1505 48.163 93.0998 51.3728 92.8323C51.1945 93.0998 51.0162 93.3673 50.8824 93.6348C49.9462 95.2843 48.8317 96.7554 47.7171 98.2266C45.9785 98.9845 44.2844 99.8316 42.6795 100.946C39.5142 103.086 36.8393 105.939 34.5211 108.971C30.7317 113.964 28.2351 120.473 27.7893 126.892C24.1336 129.166 23.4203 133.58 23.777 137.637C24.0445 140.757 25.2482 143.833 26.7639 146.553C28.3243 149.406 30.8208 151.145 33.0053 153.329C33.0053 154.399 32.5149 155.38 31.4895 155.826C30.91 155.202 30.3304 154.577 29.7509 153.909C27.611 151.457 25.8723 148.826 24.5349 145.884C23.1974 142.986 22.2612 139.821 21.1021 136.789C20.6563 135.63 20.1659 134.382 19.4972 133.268C19.5417 133.268 19.5418 133.223 19.5418 133.178C19.3634 131.306 19.2743 129.255 19.8093 127.427C20.0322 126.625 20.3442 125.689 20.2551 124.842C20.0767 123.37 18.7839 122.167 17.2235 122.479C15.9753 122.746 15.0391 123.415 14.3703 124.396C14.192 124.039 13.657 124.173 13.1666 124.351C12.5871 124.574 12.275 125.287 12.0967 125.867C10.8038 126.179 10.3134 127.517 10.4026 128.899C9.33265 128.988 8.08436 129.523 8.26268 130.816C8.53017 132.822 10.4026 133.624 12.2304 133.892C11.2942 136.121 11.8292 139.241 12.3642 141.337C13.1666 144.324 15.1282 146.865 17.0898 149.183C19.4972 152.036 21.6371 154.934 23.6878 158.055C23.8216 158.902 24.1336 159.793 24.2228 160.195C24.8024 162.647 25.4265 164.876 26.9423 166.926C28.0122 168.398 30.2859 170.582 32.3366 169.735C34.5657 168.843 35.0115 166.882 35.0115 164.787C35.1006 164.831 35.2344 164.742 35.279 164.653C35.6356 163.137 36.6164 161.889 37.5972 160.73C37.7755 161.22 38.0876 161.621 38.7117 161.8C39.0684 161.889 39.3804 161.398 39.4696 161.175C39.6034 160.908 39.6479 160.462 39.6925 160.195C40.0938 157.832 42.3228 157.297 44.2398 156.896C44.2844 156.896 44.329 156.851 44.3735 156.807C45.2652 156.807 46.2014 156.673 46.9593 156.628C48.6979 156.45 50.392 156.093 51.8632 155.112C56.678 156.227 61.6711 156.405 66.3521 155.692C67.8233 159.793 73.0839 164.162 77.4529 164.385C80.7073 164.519 83.1147 163.405 85.21 161.532C85.2546 161.621 85.3884 161.577 85.4775 161.532C85.5221 161.532 85.5221 161.532 85.5667 161.488C85.8788 161.131 86.6812 160.908 87.0825 160.64C87.9741 160.15 88.8657 159.704 89.7127 159.169C90.2477 158.813 90.6936 158.411 91.1394 157.921C91.9864 159.526 92.2985 161.265 92.566 163.048C92.9226 165.366 93.7251 168.219 92.2539 170.27C92.2093 170.315 92.2093 170.359 92.2093 170.359C89.4453 169.913 86.8596 169.066 84.5413 171.251C83.6943 172.053 83.0701 173.346 83.5605 174.505C83.9172 175.397 85.4775 175.709 86.4583 175.843C86.1017 177.448 88.8657 177.804 89.8911 177.225C89.9802 177.18 90.0248 177.091 90.0694 177.002C90.5152 177.893 92.1647 177.893 93.1009 177.448C93.3684 177.804 93.8588 178.027 94.483 178.161C96.4 178.518 98.6736 177.537 100.1 176.333C101.215 175.397 101.348 174.55 101.393 173.48C101.571 173.391 101.705 173.257 101.794 173.123C101.839 173.123 101.839 173.079 101.883 173.079C106.654 167.907 101.215 158.813 99.4761 153.507C98.8965 151.724 99.4761 146.597 97.1133 145.884C95.2408 145.349 93.8588 146.909 92.9226 148.381C92.878 148.336 92.8334 148.336 92.7889 148.381C92.8334 148.291 92.7889 148.202 92.6997 148.247C92.2539 148.291 91.8527 148.693 91.4514 148.96C91.0056 149.272 90.5152 149.584 90.0248 149.852C90.0694 149.317 90.1586 148.782 90.2031 148.202C90.2923 148.202 90.4261 148.158 90.4706 148.069C91.2731 146.954 91.9864 145.795 92.566 144.636C101.438 146.82 111.335 142.942 118.958 138.528C126.403 134.159 131.084 127.695 132.957 119.269C135.186 109.06 132.823 99.252 130.46 89.3549C128.499 81.0182 127.339 70.4525 132.734 63.4086C133.402 62.2495 134.249 61.2687 135.275 60.3771C135.319 60.2879 135.409 60.2434 135.453 60.1542C134.16 61.135 133.135 62.1604 132.288 63.2749Z" fill="#7C4A22"/>
<path d="M33.897 156.093C34.2982 156.004 34.4765 155.959 33.897 156.093V156.093Z" fill="white"/>
<path d="M110.621 83.3808C109.507 84.2724 108.036 83.6929 106.787 84.1387C106.832 84.0941 106.921 84.0049 106.966 83.9604C107.634 83.2916 107.946 82.2663 108.08 81.4192C108.169 80.8843 108.303 80.3493 108.392 79.8589C108.526 80.9734 108.972 82.1325 110.042 81.8205C111.023 81.553 111.691 80.7951 112.182 79.8589C112.271 79.9035 112.36 79.948 112.449 79.948C112.405 81.3301 111.691 82.5338 110.621 83.3808Z" fill="#FFD7AD"/>
<path d="M114.946 72.8611C115.837 72.5044 116.06 72.8611 116.283 73.7081C116.461 74.3322 116.506 75.001 116.506 75.6251C116.551 76.7842 115.436 79.7712 114.054 78.7904C114.767 77.8542 115.391 76.6951 115.525 76.4276C116.016 75.1793 115.704 73.7973 114.946 72.8611Z" fill="#FFD7AD"/>
<path d="M115.124 76.2469C114.901 76.9156 114.545 77.5397 114.188 78.1193C113.876 78.6543 113.564 79.0555 113.074 79.2338C113.074 79.1892 113.074 79.1892 113.074 79.1892C113.074 78.8771 112.583 79.0555 112.539 79.323H112.494C112.94 78.2084 113.118 76.9601 113.118 75.9348C113.163 74.419 112.539 73.1708 111.602 72.4129C114.01 71.3429 115.882 74.0624 115.124 76.2469Z" fill="#FFD7AD"/>
<path d="M101.839 77.7188C101.883 77.7188 101.928 77.6742 101.973 77.6297C102.017 77.6297 102.106 77.5405 102.195 77.4513C102.195 77.4959 102.151 77.5405 102.151 77.6297C102.106 77.808 102.418 77.6742 102.463 77.5851C102.998 75.6235 104.737 74.3306 106.342 73.2607C108.883 71.522 111.602 71.8341 112.405 75.0439C112.85 76.7826 112.182 78.7888 111.424 80.3491C110.755 81.6866 109.239 81.5082 108.883 80.1262C108.749 79.5912 108.793 79.1009 108.838 78.6105C109.15 77.8526 109.641 77.1392 110.309 76.4259C111.29 75.4452 110.844 74.2415 109.373 74.6427C106.609 75.4006 106.475 77.5851 104.826 79.6358C104.692 79.7696 104.87 79.8587 105.004 79.7695C106.119 79.0117 106.431 77.808 107.055 76.6489C107.545 75.7127 108.392 75.356 109.373 75.0885C110.265 75.6681 110.354 76.203 109.73 76.6043C109.507 76.8272 109.328 77.0055 109.15 77.273C108.348 78.3875 108.08 79.3238 107.902 80.6612C107.768 81.6866 107.545 82.6674 107.01 83.559C106.342 84.7181 104.335 85.476 103.176 84.5843C103.355 84.3168 103.533 84.0494 103.667 83.7373C103.756 83.6035 103.533 83.559 103.444 83.6035C102.374 84.1385 101.304 84.4506 100.145 84.5843C101.393 83.6035 102.418 82.3107 102.686 80.7503C102.73 80.5274 102.418 80.5274 102.285 80.6166C101.661 80.8841 101.126 81.1962 100.501 81.5528C100.234 81.6866 99.9218 81.7757 99.6097 81.8203C100.68 80.8841 101.393 79.5021 102.597 78.6996C102.775 78.5659 102.775 78.2092 102.508 78.2984C102.418 78.343 102.285 78.3875 102.195 78.4321C101.883 78.2984 101.348 78.4767 101.081 78.6105C100.724 78.7442 100.412 78.9225 100.056 79.1454C100.501 78.3875 101.081 77.8526 101.839 77.7188Z" fill="#FFD7AD"/>
<path d="M4.29512 41.0296C1.66482 37.8643 0.684029 33.5399 0.461122 29.5276C0.0153089 20.6113 4.56261 12.4529 11.4727 7.05858C18.5611 1.57508 28.8148 -0.653977 37.0624 3.35834C45.5328 7.5044 50.5705 18.4268 46.3353 27.1202C44.0617 27.3877 41.8326 27.8335 39.7372 28.4576C44.7749 20.2101 42.1892 6.52361 31.8018 3.80415C26.987 2.55587 21.6818 3.98248 17.3574 6.16697C13.4789 8.17313 9.19905 11.2046 7.72786 15.529C7.68328 15.6628 7.86161 15.5736 7.90619 15.529C11.4727 7.19233 23.0193 2.42213 31.5789 4.16081C36.1708 5.09701 39.7373 10.0901 41.2084 14.2808C42.8579 18.9172 42.0109 24.4453 39.3806 28.5468C38.1769 28.9034 37.0178 29.3046 35.9478 29.795C32.0247 31.4891 28.2799 33.7628 24.9363 36.5268C23.6434 37.5968 22.4397 38.8005 21.5035 40.1379C21.0577 40.8066 20.5673 41.4754 20.2106 42.2332C20.1215 42.367 20.0769 42.5453 19.9877 42.679C14.5042 46.6022 8.70867 46.4239 4.29512 41.0296Z" fill="#D69655"/>
<path d="M10.715 58.1927C8.30766 56.9445 6.83646 53.7346 9.86799 52.0851C9.91258 52.0405 9.91258 51.9513 9.86799 51.9959C9.82341 52.0405 9.77884 52.0405 9.73426 52.0851C9.91258 51.9513 10.0909 51.8176 10.2692 51.7284C11.2054 51.1935 12.632 51.3718 13.6574 51.3718C15.1286 51.3718 16.5106 51.7284 17.7589 52.4417C19.8988 53.5563 19.7205 56.2311 18.0264 57.6577C16.1094 59.2627 13.167 59.3518 10.9379 58.3265C10.9379 58.2819 10.9379 58.1927 10.9825 58.1481C10.9825 57.9698 10.7596 58.059 10.715 58.1927Z" fill="#683707"/>
<path d="M10.715 58.1927C8.30766 56.9445 6.83646 53.7346 9.86799 52.0851C9.91258 52.0405 9.91258 51.9513 9.86799 51.9959C9.82341 52.0405 9.77884 52.0405 9.73426 52.0851C9.91258 51.9513 10.0909 51.8176 10.2692 51.7284C11.2054 51.1935 12.632 51.3718 13.6574 51.3718C15.1286 51.3718 16.5106 51.7284 17.7589 52.4417C19.8988 53.5563 19.7205 56.2311 18.0264 57.6577C16.1094 59.2627 13.167 59.3518 10.9379 58.3265C10.9379 58.2819 10.9379 58.1927 10.9825 58.1481C10.9825 57.9698 10.7596 58.059 10.715 58.1927Z" fill="#683707"/>
<path d="M17.5804 90.2469C17.2684 90.4698 17.0009 90.6481 16.6888 90.9156C16.4213 91.1385 16.1538 91.3614 15.8417 91.4952C14.6826 91.4506 14.2814 91.0939 14.5935 90.2914C14.9501 88.8648 16.6442 88.6865 17.8033 88.2407C17.9817 88.1515 18.0708 87.7949 17.7587 87.884C17.5804 87.9286 17.4021 88.0178 17.2238 88.0624C15.3514 87.1262 13.8802 85.1646 13.256 83.203C13.1223 82.7126 13.0777 82.2222 13.1223 81.7318C13.3006 79.904 14.5935 81.821 14.861 82.1776C15.6634 83.2922 16.1538 84.4067 17.4021 85.1646C17.5359 85.2538 17.8033 85.0308 17.625 84.8971C17.0009 84.4067 16.5105 83.9163 16.0201 83.3368C16.1092 83.2922 16.1538 83.203 16.1538 83.1138C15.9309 82.1776 15.5297 80.2161 16.1984 79.4136C16.243 79.3245 16.778 79.9932 16.8225 80.0378C17.1346 80.439 17.1346 81.1968 17.2683 81.6872C17.4912 82.7572 18.3829 83.6043 19.0962 84.4513C19.1854 84.5405 19.3637 84.4067 19.3191 84.273C19.0516 83.9163 18.7841 83.5151 18.5166 83.1138C18.5612 83.1138 18.5612 83.0693 18.5612 83.0693C18.5612 82.4006 18.2937 81.7764 18.3383 81.0631C18.3383 80.6173 18.4275 80.2161 18.6058 79.7702C19.007 78.5665 19.5866 79.904 19.7203 80.3498C20.2107 82.1331 20.2999 84.0946 21.9048 85.2092C21.8602 85.2538 21.8602 85.2984 21.8602 85.2984C21.994 85.3875 22.1277 85.4321 22.2169 85.5212C22.3952 85.9225 22.4844 86.0562 22.9748 86.4574C22.3506 86.502 21.8156 86.2791 21.4144 85.8333C21.1023 85.5212 20.7457 85.2538 20.3445 84.9863C20.2553 84.8971 20.0324 85.0754 20.077 85.2092C20.2999 86.2791 20.7457 86.9033 21.459 87.7057C22.4844 88.8649 23.1977 89.3107 20.6119 88.7311C20.4782 88.6865 20.2553 88.8648 20.3445 88.9986C20.8794 89.6227 23.376 90.2469 22.0831 90.2914C22.1277 90.2023 22.1277 90.1577 21.994 90.1131C20.6565 89.6673 18.8287 89.3998 17.5804 90.2469Z" fill="#FFD7AD"/>
<path d="M45.5772 91.9867C47.628 91.6747 49.2775 91.9421 51.1499 92.6554C48.8762 93.1013 46.8255 94.2158 44.5964 94.8845C41.1637 95.9545 38.0876 95.5086 34.6102 95.0628C31.8908 94.7062 29.3942 93.5025 26.8085 92.6554C25.3819 92.2096 23.242 90.7385 21.7262 90.6493C22.3058 90.6939 22.7962 90.4264 23.2866 90.1589C23.3757 90.1143 23.554 89.8914 23.3311 89.8468C22.5287 89.6685 21.7262 89.3564 20.9683 89.1781C21.6816 89.3118 22.4841 89.1335 23.1974 89.0444C23.2866 89.0444 23.5095 88.866 23.3757 88.7769C22.9299 88.5094 19.3188 84.8091 21.0575 86.1912C21.9937 86.9045 22.5287 87.2165 23.6432 86.9936C23.7324 86.9936 23.9107 86.7707 23.777 86.6816C23.3757 86.5032 23.0637 86.2357 22.7962 85.9682C26.9868 88.2865 31.6678 88.4648 36.438 88.4202C42.4565 88.3756 47.0484 84.4971 52.5319 82.6246C52.6211 82.5801 52.7102 82.4909 52.7994 82.4018C53.156 82.3126 53.5127 82.2234 53.8694 82.1343C53.8248 82.1789 53.7802 82.2234 53.7802 82.268C53.4235 83.9621 53.8248 85.5225 53.8248 87.2165C53.8694 88.9998 52.7102 90.7384 51.6849 92.3434C49.8124 91.318 47.628 91.3626 45.5772 91.7192C45.4881 91.7192 45.3543 92.0313 45.5772 91.9867Z" fill="#D69655"/>
<path d="M9.24324 132.375C8.70826 131.84 8.44078 130.949 8.6191 130.236C8.79743 129.478 9.73364 129.299 10.4024 129.299C10.6253 130.949 11.606 132.598 13.0326 132.777C12.7652 133.089 12.5422 133.401 12.3639 133.757C11.2048 133.401 10.0903 133.222 9.24324 132.375Z" fill="#FFD7AD"/>
<path d="M35.0114 164.653C35.0114 164.207 34.9668 163.716 34.9222 163.271C34.9222 163.048 34.4318 163.271 34.4764 163.493C34.6547 165.633 35.056 167.907 32.6931 169.378C31.222 170.314 29.4387 168.977 28.4133 168.041C27.1205 166.882 26.0951 165.321 25.5156 163.716C25.2481 163.048 24.3118 160.462 23.9552 158.5V158.456V158.411C23.7769 157.386 23.7323 156.539 24.089 156.271C24.1335 156.227 24.0889 156.182 24.0444 156.227C23.5986 156.494 23.5094 157.163 23.5986 157.876C20.9683 153.552 17.803 149.852 14.9944 145.706C12.9436 142.719 10.4916 136.031 13.4786 132.777C13.5232 132.777 13.5232 132.777 13.5678 132.777C13.6569 132.777 13.7907 132.599 13.7015 132.554C13.9244 132.376 14.1027 132.197 14.3702 132.019C14.4594 131.93 14.4148 131.796 14.281 131.885C13.9244 132.064 13.5677 132.242 13.3003 132.509C12.0966 132.287 11.3833 131.35 10.9374 130.191C10.8483 129.924 10.7591 129.612 10.7146 129.3C10.8037 129.21 10.8483 129.077 10.7146 129.077C10.7146 129.077 10.7146 129.077 10.67 129.077C10.5362 127.918 10.8037 126.625 12.0074 126.313C12.0074 126.357 12.0074 126.402 11.9628 126.446C11.6062 128.453 12.3195 131.885 14.9498 131.752C14.9944 131.752 15.2173 131.573 15.0835 131.529C13.4786 130.905 12.7207 130.057 12.364 128.363C12.2303 127.784 12.2749 127.204 12.364 126.625C12.4086 126.179 12.587 125.733 12.7653 125.332C12.899 125.109 13.7906 124.485 14.1027 125.02C13.969 125.287 13.8352 125.51 13.7015 125.778C12.7653 127.962 14.5486 130.414 15.9752 131.885C16.0643 131.974 16.3318 131.796 16.2426 131.707C15.3956 130.548 14.5931 129.523 14.1919 128.141C13.3003 124.886 18.3825 120.918 19.72 124.886C20.1212 126.134 19.3187 127.739 19.185 128.988C19.0067 130.414 19.1404 131.841 19.3633 133.267C18.8729 132.509 18.2488 131.796 17.4018 131.306C17.3572 131.261 17.2234 131.35 17.3126 131.395C19.72 133.044 20.5224 136.433 21.5032 139.063C22.5732 142.005 23.554 144.992 24.8914 147.845C27.1205 152.66 31.2219 156.048 33.986 160.507C34.0751 160.64 34.3427 160.462 34.2981 160.328C33.8077 158.902 32.9606 157.698 31.9798 156.539C32.0244 156.539 32.1136 156.583 32.2473 156.628C32.6485 156.762 34.1197 156.271 32.8714 157.029C32.7823 157.074 32.604 157.252 32.7377 157.341C33.451 157.876 34.521 158.099 35.368 157.787C36.5717 157.386 35.7693 159.214 35.9922 160.239C36.0367 160.417 36.2597 160.328 36.3488 160.284C37.285 159.526 37.1513 158.812 37.3742 160.239C37.3742 160.328 37.4188 160.417 37.4188 160.507C36.3934 161.621 35.368 163.048 35.0114 164.653Z" fill="#FFD7AD"/>
<path d="M47.093 156.271C46.6026 156.316 42.1445 156.762 42.3228 155.915C42.3228 155.825 42.2337 155.87 42.1891 155.915C42.1445 156.004 42.0999 156.048 42.0554 156.138C42.0108 156.182 42.0108 156.227 42.0554 156.271C42.3228 156.494 42.6795 156.628 42.9916 156.717C41.6987 157.029 40.6287 157.698 39.7371 158.812C39.5142 159.08 39.2021 159.615 39.1576 160.016C39.0238 160.596 38.9347 162.602 38.043 160.373C37.8201 159.838 37.7755 159.214 37.731 158.679C37.731 158.411 37.4189 158.545 37.2852 158.634C36.126 159.793 36.3489 157.609 36.4381 156.985C36.4827 156.762 36.1706 156.851 36.0814 156.895C35.1452 157.52 32.8716 157.653 33.9416 156.227C34.0307 156.093 33.9416 156.048 33.8078 156.048C33.2283 156.138 32.2029 156.316 31.8016 156.227C31.7571 156.182 31.7125 156.093 31.6679 156.048C31.7125 155.959 31.8462 155.825 32.1137 155.692C32.3812 155.513 32.7824 155.29 32.9608 155.023C33.2728 154.533 33.3174 154.087 33.3174 153.596C33.4957 153.775 33.6741 153.953 33.8078 154.131C34.0307 154.354 34.6103 153.908 34.3874 153.686C33.9861 153.24 33.5403 152.838 33.0945 152.437C33.0945 152.393 33.0945 152.348 33.0499 152.304C33.0499 152.259 32.9608 152.259 32.9162 152.304C31.7125 151.234 30.4196 150.208 29.3051 149.094C27.1652 146.954 25.8723 143.922 24.9807 141.069C23.5987 136.566 23.3312 130.147 27.7002 127.16C27.611 128.408 27.6556 129.656 27.7448 130.904C28.7701 143.788 39.3805 152.125 51.2837 154.978C49.9462 155.647 48.6534 156.093 47.093 156.271Z" fill="#D69655"/>
<path d="M92.7887 149.182C92.8778 149.182 92.967 149.093 93.0116 149.004C93.3236 148.424 93.7249 147.889 94.1707 147.399C96.4889 146.686 97.7372 147.087 97.9601 148.692C98.2276 149.673 98.2276 150.698 98.3167 151.723C98.5396 153.997 99.565 156.226 100.367 158.366C102.106 162.958 104.068 168.486 101.393 173.033C101.348 173.078 101.304 173.078 101.304 173.122C101.304 172.81 101.304 172.454 101.348 172.097C101.348 171.919 101.036 172.053 101.036 172.186C100.992 172.632 100.992 173.078 100.992 173.479C100.947 173.568 100.947 173.613 100.992 173.657C100.992 173.97 100.992 174.237 100.992 174.549C100.858 176.199 98.4505 177.224 97.1576 177.625C96.5781 177.804 93.9923 178.205 93.4128 177.269C93.4574 177.179 93.4128 177.135 93.3682 177.135C93.2791 176.912 93.3236 176.6 93.502 176.199C94.2153 174.772 96.1769 174.192 97.648 174.192C97.8709 174.192 98.2276 173.702 97.9155 173.702C96.2214 173.568 94.4828 174.371 93.3682 175.664C92.8333 176.288 92.6995 176.823 92.8332 177.269C92.2537 177.402 91.6295 177.581 91.0054 177.313C90.2921 177.001 90.2475 176.243 90.5596 175.619C91.4512 173.836 93.5911 173.88 95.196 173.345C95.2852 173.301 95.3298 173.167 95.196 173.212C94.0815 173.435 93.0115 173.39 91.9416 173.88C91.05 174.326 90.2029 175.173 89.8909 176.109C89.8017 176.466 89.8017 176.778 89.8463 177.001C89.8017 177.001 89.7571 177.001 89.7125 177.001C89.0438 177.135 88.5088 177.224 87.8401 177.09C87.1714 176.912 86.8147 176.466 86.8593 175.887C86.9931 175.797 87.0377 175.664 86.9039 175.619C86.9485 175.485 86.9931 175.352 87.0377 175.262C87.9739 173.613 90.2921 173.301 91.9862 173.167C92.0754 173.167 92.2537 172.944 92.1199 172.9C90.0246 172.766 87.4835 173.479 86.4581 175.485C86.0569 175.352 85.6556 175.262 85.2544 175.173C82.1337 174.326 84.8978 171.161 86.5919 170.581C87.751 170.18 89.3113 170.76 90.4704 170.938C91.4512 171.116 92.432 170.983 93.4128 170.849C93.4574 170.849 93.5465 170.715 93.4574 170.715C93.1453 170.715 92.7887 170.671 92.4766 170.626L92.5212 170.581C93.502 168.798 93.3682 166.926 93.0561 164.964C92.6549 162.557 92.3874 160.06 91.05 157.92C91.9862 156.806 92.6549 155.424 93.2791 154.086C93.6803 153.507 94.0369 152.927 94.4382 152.392C94.4828 152.303 94.4827 152.125 94.349 152.125C93.6357 152.08 93.0561 152.258 92.432 152.526C92.8778 151.679 93.3682 150.876 93.6357 149.985C93.7249 149.717 93.4128 149.762 93.2791 149.851C92.8778 150.119 92.4766 150.431 92.0754 150.698C92.4766 150.163 92.6995 149.717 92.7887 149.182Z" fill="#FFD7AD"/>
<path d="M49.2773 35.5022C50.1243 34.8335 52.3088 33.4961 53.9137 33.6298C52.933 32.649 51.5064 32.2478 49.8123 32.8273C45.8445 34.1648 42.8576 37.9542 41.5201 41.8328C42.7238 42.1003 43.9275 42.4123 45.1312 42.769C45.3987 39.9604 47.0928 37.3301 49.2773 35.5022Z" fill="white"/>
<path d="M121.098 30.1071C116.774 18.2039 105.45 9.51052 92.6106 9.28761C86.1909 9.19845 79.5037 10.848 73.9756 14.147C70.9441 15.9748 68.0017 18.2485 65.9956 21.28C63.6773 24.8019 63.1424 28.5913 62.652 32.6928C62.652 32.8265 62.3399 32.9603 62.3399 32.782C62.3845 31.8458 62.4291 30.865 62.5182 29.9287C62.4736 29.9287 62.4291 29.9733 62.4291 29.9733C62.3845 29.9733 62.3845 29.9733 62.3845 29.9733C62.3399 29.9733 62.3399 29.9733 62.2953 29.9733C62.0724 29.9288 61.9387 29.8396 61.7604 29.7059C61.7604 29.7059 61.7603 29.6613 61.7158 29.6613C53.6465 27.343 44.9532 26.8526 36.9732 29.9733C29.8847 32.7374 23.1975 37.2401 19.8539 44.2394C21.7709 43.3032 23.8217 42.5899 25.8278 42.1441C25.0254 39.915 28.0123 35.9918 29.5726 34.7881C31.1776 33.4953 33.0054 32.6036 35.0116 32.247C36.4382 31.9795 38.3552 32.247 39.0239 33.7627C40.0938 36.3485 38.9347 39.0679 37.731 41.3861C38.8901 41.5199 40.0938 41.6982 41.253 41.9211C42.3675 37.8642 47.2714 31.2662 52.1308 32.247C58.4168 33.4507 55.0286 41.5199 51.8633 44.5514C53.6911 44.2394 55.519 44.5514 56.901 45.7551C57.1685 45.978 56.6781 46.4239 56.4552 46.2455C53.2007 43.8381 47.9401 45.3985 45.8002 48.6975C45.7111 48.8313 45.399 48.8312 45.5328 48.6529C46.4244 47.1372 48.1185 45.8443 50.0355 45.0864C43.6604 42.7682 36.6611 41.1187 29.8847 42.0549C23.7325 42.9019 16.2428 45.4431 12.5426 50.7482C14.1029 50.6591 15.8416 50.8374 17.1345 51.4615C20.4335 52.9773 20.6118 56.1871 17.8478 58.2825C16.0199 59.6645 13.0776 59.7537 10.9377 58.7729C10.6256 61.1803 11.3389 63.766 12.7209 66.1288C12.8547 66.0842 12.8992 66.218 12.8547 66.3071C15.4849 70.6315 20.3889 73.886 24.9808 72.9052C22.1276 72.1027 19.5419 70.5869 17.6694 67.9566C17.6694 67.9121 17.714 67.9121 17.714 67.9121C21.9493 72.5931 27.7448 73.0835 33.6741 73.0835H33.7187C34.0754 73.0835 34.4766 73.0835 34.8332 73.0835C42.5904 72.9943 51.9079 68.3133 51.3729 59.397C50.4813 59.2187 49.6342 58.6837 49.0547 57.6583C49.0101 57.6138 49.1438 57.5246 49.1884 57.5692C49.9909 58.55 50.8825 58.9512 51.8187 58.9958C51.9079 58.9512 51.997 58.9512 52.0416 58.9958C53.0224 58.9512 54.0478 58.4608 55.0732 57.8813C55.3406 57.7029 55.4298 58.0596 55.2069 58.1933C54.2707 58.9958 53.1562 59.4416 52.1308 59.4862C52.1308 66.7529 45.1315 72.281 38.266 73.1726C36.7948 73.351 35.2791 73.5293 33.7633 73.6185C33.2283 77.0958 25.6495 76.2933 24.4904 73.351C23.6879 73.5293 22.8855 73.5739 22.1276 73.4847C25.8724 78.4778 31.5788 81.2419 37.6419 82.3564C40.8963 82.9359 44.2399 83.2926 47.5389 83.0697C49.0993 82.9805 50.615 82.713 52.1308 82.3564C52.3091 82.3118 52.4428 82.2226 52.6212 82.1781C52.7103 82.1335 52.7995 82.1335 52.8441 82.1781C55.1623 81.5985 57.436 80.8406 59.7542 80.0827C59.9771 79.9936 59.888 80.3057 59.7542 80.3502C57.8818 81.0635 56.054 81.6877 54.1815 82.1781C54.1815 82.1781 54.2261 82.2227 54.2261 82.2672C53.8695 84.1842 54.5382 86.0566 54.2707 87.9736C54.0924 89.4002 53.1116 91.0052 52.3537 92.2089C52.2645 92.3426 52.1754 92.4764 52.0862 92.6101C52.2645 92.7438 52.0416 92.9668 51.8633 92.9668C50.8825 94.6163 49.9017 96.2658 48.8318 97.8707C48.7872 97.8707 48.7426 97.9153 48.698 97.9153C48.6535 97.9598 48.6089 98.0044 48.5643 98.0044C50.303 97.2911 52.0862 96.7116 53.8695 96.0874C45.7111 99.2527 38.3552 103.666 33.7187 111.334C29.7956 117.799 27.3882 125.779 28.7256 133.357C31.5788 149.986 51.0163 157.966 66.2631 155.47C66.2631 155.425 66.2185 155.425 66.2185 155.381C64.569 149.719 65.3269 143.567 67.5559 138.217C69.2054 134.249 71.4791 130.058 75.536 128.186C75.6252 128.141 75.6251 128.231 75.5806 128.275C67.6005 133.09 64.4798 144.949 66.4414 153.597C67.4222 158.055 71.3008 162.692 75.8481 163.896C81.1532 165.278 84.9427 162.291 88.1079 158.412C88.1079 158.368 88.1971 158.412 88.1525 158.412C87.3946 159.393 86.6367 160.329 85.7897 161.132C85.7897 161.132 85.7897 161.132 85.8343 161.132C86.5922 160.552 87.7958 160.151 88.5091 159.705C90.2924 158.68 91.3178 157.298 92.2094 155.693C92.0757 155.782 91.8973 155.737 91.9865 155.559C92.3431 154.846 92.7889 154.221 93.2348 153.597C93.2348 153.553 93.2794 153.553 93.3239 153.508C93.3239 153.464 93.3685 153.464 93.3685 153.464C93.6806 153.062 94.2156 152.394 93.1456 152.795C92.8335 152.929 92.4769 153.062 92.1648 153.196C92.0311 153.241 91.7636 153.241 91.8527 153.018C92.254 152.215 92.6998 151.413 93.0564 150.61C92.566 150.922 92.1202 151.279 91.5853 151.502C91.3624 151.591 91.2286 151.413 91.4069 151.235C91.9865 150.521 92.3877 149.852 92.4769 148.916C92.1202 149.273 91.5407 149.54 91.1395 149.808C90.7382 150.075 90.2924 150.254 89.8912 150.432C89.7574 151.324 89.6237 152.171 89.4454 153.062C89.4008 153.285 88.9104 153.553 88.9549 153.196C89.1779 148.738 90.0695 144.681 89.0887 140.178C89.0887 140.089 89.267 139.955 89.3116 140.089C90.0695 142.586 90.2924 145.261 90.1587 147.891C96.8459 138.395 93.9926 125.957 88.1971 116.818C85.3439 112.315 81.9111 108.169 79.2362 103.577C77.0517 99.7877 74.7781 95.9983 74.8227 91.4956C72.2815 93.2342 70.9441 95.7308 70.1416 98.9406C70.097 99.119 69.6958 99.2527 69.7404 99.0298C70.4537 95.4633 72.1924 91.6739 75.8035 90.3364C74.8227 90.1135 73.8419 89.9798 72.8165 90.0244C72.5936 90.0244 72.7719 89.7569 72.9057 89.7569C76.1155 89.3557 79.5037 90.6039 82.7136 90.6039C86.4138 90.6039 89.7128 90.2918 93.1456 88.999C92.6552 88.8652 92.1648 88.6869 91.719 88.3749C91.5407 88.2857 91.8527 88.0182 91.9865 88.0628C94.7505 89.534 97.5146 87.929 100.145 86.9483C100.145 86.9037 100.189 86.9037 100.234 86.8591C101.081 86.5025 101.839 85.9675 102.419 85.2542C102.597 85.0313 102.731 84.8529 102.864 84.7192C103.221 84.2288 102.864 84.4071 102.106 84.7192C101.215 85.0758 100.279 85.2096 99.3424 85.2542C99.0749 85.2542 99.1641 84.9421 99.2978 84.8529C100.502 84.0059 101.571 82.8914 101.928 81.4202C101.349 81.7322 100.769 82.0443 100.189 82.3118C99.6099 82.5347 98.8966 82.4455 98.2725 82.6239C97.7821 82.7576 98.005 82.1781 98.317 82.0443C99.8328 81.6877 100.412 79.949 101.527 78.9236C101.259 78.9682 101.036 79.0128 100.769 79.1465C100.368 79.3694 99.9666 79.5923 99.5653 79.8153C99.4316 79.8598 99.2532 79.7707 99.3424 79.6369C99.7882 79.0128 100.279 78.3887 100.858 77.9874C97.782 78.7453 95.4638 81.0635 92.8335 82.8468C92.789 82.9359 92.6998 83.0697 92.5661 83.0697H92.5215C92.0311 83.3818 91.5407 83.6938 91.0057 83.9613C90.8274 84.0505 90.7828 83.8721 90.9165 83.783C91.2732 83.5601 91.5852 83.2926 91.9419 83.0251C87.4838 82.8468 83.9618 81.5539 79.682 80.2611C75.8926 79.1019 68.0017 76.3379 66.7089 82.0889C66.6643 82.2672 66.1739 82.4901 66.2631 82.2226C66.7089 80.1273 68.0018 79.0128 69.6067 78.4778C69.5175 78.3887 69.4283 78.2995 69.3838 78.2549C69.1163 78.032 68.8488 77.7645 68.6705 77.497C68.5367 77.3187 68.2692 76.9175 68.3584 76.6946C67.9126 77.0512 67.4668 77.3633 67.021 77.6754C66.8426 77.8091 66.6643 77.6754 66.798 77.497C67.868 76.2042 69.3392 75.268 70.632 74.2426C71.9695 73.1726 73.2177 72.0135 74.2877 70.6761C72.8165 69.7845 71.3453 68.8037 69.9187 67.7783C69.6513 67.6 70.1416 67.1096 70.3646 67.2879C77.0963 71.6569 83.9619 75.9813 92.3431 75.58C100.234 75.1788 107.724 71.7906 113.118 66.0396C121.945 56.4992 125.556 42.3669 121.098 30.1071Z" fill="#D69655"/>
<path d="M29.5282 75.4008C29.3053 75.4008 28.6812 74.5538 28.057 73.6622C27.8787 73.6176 29.2161 75.4008 29.0378 75.4008C26.8979 75.2671 25.2038 74.1971 24.6688 73.1718C24.8917 73.1272 25.1146 73.038 25.293 72.9934C25.3375 72.9934 25.3821 72.9489 25.3821 72.9043C27.8787 73.5284 30.6427 73.6176 33.3176 73.4838C33.1839 74.9996 31.4452 75.5346 29.5282 75.4008Z" fill="white"/>
<path d="M30.0184 41.3407C29.3943 41.4298 28.7702 41.519 28.146 41.6081C27.4773 41.6973 26.8532 41.8756 26.1844 42.0094C26.8977 39.7357 27.3882 37.7741 29.0377 35.8125C30.1968 34.4305 31.9355 33.5835 33.585 33.0039C34.967 32.5135 36.6611 32.2906 37.8648 33.1823C35.1007 32.6473 29.9739 38.4874 30.0184 41.3407Z" fill="white"/>
<path d="M38.5333 34.4297C38.5778 34.5189 38.667 34.5189 38.8007 34.4743C39.6032 36.5251 38.1766 39.3783 37.285 41.2507C35.0113 41.0278 32.6931 41.0724 30.3749 41.2953C30.4195 38.3975 36.6163 31.2645 38.5333 34.4297Z" fill="#683707"/>
<path d="M45.2208 42.8571C45.5329 42.6342 45.5775 42.3221 45.6666 41.9655C45.9787 40.7172 46.5583 39.5581 47.2716 38.4435C48.1632 37.0169 49.456 35.7686 50.9272 34.9216C51.8634 34.342 53.9142 33.8962 54.7612 34.877C55.0287 35.4566 55.1624 36.1253 55.207 36.794C55.3408 39.1568 52.978 42.9462 51.2393 44.4174C51.1947 44.462 51.1501 44.5066 51.1056 44.5512C50.8381 44.6403 50.5706 44.6849 50.3031 44.7741C48.6536 44.0608 46.9595 43.392 45.2208 42.8571Z" fill="#683707"/>
<path d="M128.187 77.0959C128.008 87.7062 132.778 97.6924 133.091 108.258C133.403 118.467 131.084 128.454 122.971 135.23C119.003 138.573 114.144 140.803 109.284 142.586C103.934 144.503 98.228 145.707 92.6107 144.369C93.7253 141.962 94.394 139.376 94.6169 136.79C96.9797 138.618 99.9667 139.064 103.043 138.752C103.043 138.796 102.998 138.841 103.043 138.886C103.221 139.51 103.31 140.178 103.31 140.847C103.31 141.471 103.087 142.095 103.132 142.72C103.132 142.942 103.444 142.764 103.489 142.675C104.024 141.427 103.934 140 103.622 138.707C105.138 138.529 106.654 138.172 108.125 137.726C108.259 138.217 108.348 138.707 108.348 139.242C108.348 139.421 108.615 139.287 108.615 139.153C108.615 138.618 108.482 138.128 108.393 137.637C110.22 137.058 112.004 136.344 113.519 135.676C113.653 135.631 113.787 135.542 113.965 135.453C114.277 135.943 114.322 136.478 114.5 137.013C114.545 137.236 114.901 137.013 114.901 136.835C114.812 136.255 114.723 135.72 114.411 135.274C121.544 131.797 127.161 125.467 129.212 117.754C131.619 108.704 128.722 98.7178 126.849 89.8461C126.805 89.534 126.715 89.222 126.671 88.9099C126.715 88.8653 126.805 88.8207 126.805 88.7762C126.938 88.2858 127.518 88.1966 127.964 88.1074C128.053 88.0629 128.231 87.8845 128.053 87.7954C127.518 87.6616 126.894 87.9737 126.537 88.4195C125.958 85.388 125.601 82.401 125.735 79.4141L125.779 79.3695C125.958 79.102 126.359 79.1466 126.671 79.0574C126.805 79.0129 126.983 78.7454 126.805 78.7008C126.403 78.6116 126.091 78.7008 125.779 78.8791C125.913 76.4271 126.403 74.0198 127.295 71.6124C128.231 69.1604 129.569 66.9313 131.218 64.9697C129.078 68.4917 128.231 72.816 128.187 77.0959Z" fill="#FFD7AD"/>
<path d="M84.0511 15.1706C78.2556 17.3105 73.3962 21.2783 70.4093 26.7172C67.5115 32.0224 66.2632 39.4674 69.2502 44.9955C69.2947 45.0847 69.5177 44.9509 69.4731 44.8618C69.161 44.1485 68.8935 43.4798 68.7152 42.7665L68.7598 42.7219C68.8489 42.5881 68.8489 42.5881 68.8935 42.4098C68.8935 42.3652 68.8935 42.3652 68.8935 42.3652C68.9827 42.276 69.0718 42.1869 69.0718 42.0086C69.2501 41.5182 69.5622 41.0724 69.8297 40.6265C70.2755 39.9132 70.8105 39.2891 71.3901 38.7095C72.5938 37.4613 74.1095 36.6588 75.8036 36.3467C75.9819 36.3022 76.1602 35.9455 75.8928 35.9455C72.5937 36.1238 69.5622 39.3337 68.6706 42.4098C67.4223 37.7288 68.3585 32.6911 70.2309 28.2775C72.8612 22.1253 78.211 18.113 84.0957 15.3935C84.1403 15.3044 84.1849 15.126 84.0511 15.1706Z" fill="#7C4A22"/>
<path d="M100.323 67.8667C94.8397 70.0957 89.8021 71.2103 83.9173 69.9174C78.523 68.7583 73.7528 65.4147 70.8104 60.7783C70.7658 60.7337 70.6767 60.8228 70.7213 60.8674C76.1602 70.497 91.0503 74.7322 100.502 68.2679C100.724 68.045 100.635 67.7775 100.323 67.8667Z" fill="#7C4A22"/>
<path d="M38.4444 21.1013C37.5973 19.8084 36.3937 18.7384 34.9225 18.248C34.8333 18.2035 34.655 18.4264 34.7441 18.4709C36.2153 19.0505 37.1961 20.1205 38.0432 21.4133C38.489 22.082 38.8456 22.8399 39.0685 23.6424C39.336 24.534 39.2023 25.4256 39.5589 26.3173C39.6481 26.5402 39.9601 26.3173 39.9156 26.1389C39.6481 24.2219 39.4697 22.6616 38.4444 21.1013Z" fill="#1F0001"/>
<path d="M39.6481 57.5237C35.7695 57.9249 31.5343 60.9565 29.2161 63.988C28.9932 64.3001 29.4836 64.3001 29.6619 64.0772C31.891 61.0902 35.8587 58.1924 39.6035 57.702C39.6481 57.6574 39.7819 57.4791 39.6481 57.5237Z" fill="#7C4A22"/>
<path d="M39.0685 60.6459C35.7695 60.5567 32.9608 62.2954 30.1968 63.9003C29.7955 64.1232 29.9739 64.6136 30.4197 64.3461C33.0054 62.6966 35.8141 60.735 39.0685 60.6459Z" fill="#7C4A22"/>
<path d="M33.8524 56.7659C31.8463 58.3708 29.5726 60.3324 28.9485 62.9627C28.8593 63.4085 29.4835 63.1856 29.5726 62.8736C30.1076 60.4662 32.1138 58.3263 33.8524 56.7659C33.897 56.7659 33.897 56.7213 33.8524 56.7659Z" fill="#7C4A22"/>
<path d="M15.2174 40.8502C10.1797 41.0731 5.142 39.3344 3.62623 33.9847C3.58165 33.8955 3.44791 33.9847 3.49249 34.0738C4.65161 39.0224 10.1351 42.366 15.1728 41.1623C15.262 41.0731 15.4403 40.8056 15.2174 40.8502Z" fill="#7C4A22"/>
<mask id="mask0_171_1624" style="mask-type:luminance" maskUnits="userSpaceOnUse" x="30" y="33" width="10" height="9">
<path d="M38.5333 34.4297C38.5778 34.5189 38.667 34.5189 38.8007 34.4743C39.6032 36.5251 38.1766 39.3783 37.285 41.2507C35.0113 41.0278 32.6931 41.0724 30.3749 41.2953C30.4195 38.3975 36.6163 31.2645 38.5333 34.4297Z" fill="white"/>
</mask>
<g mask="url(#mask0_171_1624)">
<path d="M36.9286 41.5633C35.4128 43.8369 33.1838 45.0407 31.9355 44.1936C30.6872 43.3911 30.9101 40.85 32.4259 38.5764C33.9416 36.3027 36.1707 35.099 37.419 35.9461C38.6673 36.7485 38.4444 39.2896 36.9286 41.5633Z" fill="#4B2301"/>
<path d="M38.6673 36.9714C38.7119 37.6847 38.3999 38.2643 37.9095 38.3089C37.4191 38.3534 37.0178 37.8185 36.9287 37.1052C36.8841 36.3919 37.1961 35.8123 37.6865 35.7677C38.1769 35.7232 38.6228 36.2581 38.6673 36.9714Z" fill="white"/>
</g>
<mask id="mask1_171_1624" style="mask-type:luminance" maskUnits="userSpaceOnUse" x="45" y="34" width="11" height="11">
<path d="M45.2208 42.8571C45.5329 42.6342 45.5775 42.3221 45.6666 41.9655C45.9787 40.7172 46.5583 39.5581 47.2716 38.4435C48.1632 37.0169 49.456 35.7686 50.9272 34.9216C51.8634 34.342 53.9142 33.8962 54.7612 34.877C55.0287 35.4566 55.1624 36.1253 55.207 36.794C55.3408 39.1568 52.978 42.9462 51.2393 44.4174C51.1947 44.462 51.1501 44.5066 51.1056 44.5512C50.8381 44.6403 50.5706 44.6849 50.3031 44.7741C48.6536 44.0608 46.9595 43.392 45.2208 42.8571Z" fill="white"/>
</mask>
<g mask="url(#mask1_171_1624)">
<path d="M52.3092 42.9461C50.8826 45.5318 48.5644 47.0029 47.1378 46.2005C45.7112 45.398 45.7557 42.6786 47.1824 40.0929C48.609 37.5071 50.9272 36.0359 52.3538 36.8384C53.7804 37.6409 53.7804 40.3603 52.3092 42.9461Z" fill="#4B2301"/>
<path d="M53.8251 37.8623C53.9588 38.6202 53.6468 39.2889 53.1118 39.3781C52.6214 39.4673 52.0864 38.9323 51.9527 38.1744C51.819 37.4165 52.131 36.7478 52.6214 36.6586C53.2009 36.5695 53.6914 37.1045 53.8251 37.8623Z" fill="white"/>
</g>
<path opacity="0.5" d="M37.1071 3.40155C28.8596 -0.655352 18.6059 1.6183 11.5174 7.10181C4.56274 12.4516 0.0154444 20.6545 0.505839 29.5708C0.728745 33.5831 1.70954 37.9075 4.33983 41.0727C8.75339 46.4671 14.5935 46.6454 20.1662 42.7223C20.2553 42.5885 20.2999 42.4102 20.3891 42.2765C20.7458 41.5186 21.1916 40.8499 21.682 40.1811C22.6182 38.8437 23.8664 37.5954 25.1147 36.5701C28.4137 33.8506 32.1586 31.5324 36.1263 29.8383C37.1963 29.3925 38.3554 28.9466 39.5591 28.59C42.1893 24.4885 42.9918 18.9604 41.3869 14.324C39.9157 10.1779 36.3492 5.14022 31.7573 4.20401C23.1977 2.46534 11.6512 7.19098 8.08465 15.5723C8.04007 15.6614 7.86174 15.706 7.90632 15.5723C9.3775 11.2479 13.6573 8.2609 17.5359 6.21016C21.8603 3.98109 27.1655 2.5545 31.9802 3.84735C42.3677 6.56681 44.9088 20.2533 39.9157 28.5008C42.011 27.8767 44.2401 27.4309 46.5138 27.1634C50.6152 18.47 45.5775 7.54761 37.1071 3.40155ZM42.6798 24.0873C46.8704 9.59835 33.9418 3.13406 31.2224 3.00032C25.7834 2.73283 27.6113 1.88578 29.9741 2.01952C42.6798 2.73282 47.0041 13.2095 47.5837 20.0304C48.1187 26.8513 41.4315 28.4117 42.6798 24.0873Z" fill="#D69655"/>
<path opacity="0.5" d="M121.098 30.1071C116.774 18.2039 105.45 9.51052 92.6106 9.28761C86.1909 9.19845 79.5037 10.848 73.9756 14.147C70.9441 15.9748 68.0017 18.2485 65.9956 21.28C63.6773 24.8019 63.1424 28.5913 62.652 32.6928C62.652 32.8265 62.3399 32.9603 62.3399 32.782C62.3845 31.8458 62.4291 30.865 62.5182 29.9287C62.4737 29.9287 62.4291 29.9733 62.4291 29.9733C62.3845 29.9733 62.3845 29.9733 62.3845 29.9733C62.3399 29.9733 62.3399 29.9733 62.2953 29.9733C62.0724 29.9288 61.9387 29.8396 61.7604 29.7059C61.7604 29.7059 61.7604 29.6613 61.7158 29.6613C53.6466 27.343 44.9532 26.8526 36.9732 29.9733C29.8847 32.7374 23.1975 37.2401 19.8539 44.2394C21.7709 43.3032 23.8217 42.5899 25.8278 42.1441C25.0254 39.915 28.0123 35.9918 29.5726 34.7881C31.1776 33.4953 33.0054 32.6036 35.0116 32.247C36.4382 31.9795 38.3552 32.247 39.0239 33.7627C40.0939 36.3485 38.9347 39.0679 37.731 41.3861C38.8902 41.5199 40.0939 41.6982 41.253 41.9211C42.3675 37.8642 47.2715 31.2662 52.1308 32.247C58.4168 33.4507 55.0286 41.5199 51.8633 44.5514C53.6911 44.2394 55.519 44.5514 56.901 45.7551C57.1685 45.978 56.6781 46.4239 56.4552 46.2455C53.2007 43.8381 47.9401 45.3985 45.8002 48.6975C45.7111 48.8313 45.399 48.8312 45.5328 48.6529C46.4244 47.1372 48.1185 45.8443 50.0355 45.0864C43.6604 42.7682 36.6611 41.1187 29.8847 42.0549C23.7325 42.9019 16.2428 45.4431 12.5426 50.7482C14.1029 50.6591 15.8416 50.8374 17.1345 51.4615C20.4335 52.9773 20.6118 56.1871 17.8478 58.2825C16.0199 59.6645 13.0776 59.7537 10.9377 58.7729C10.6256 61.1803 11.3389 63.766 12.7209 66.1288C12.8547 66.0842 12.8992 66.218 12.8547 66.3071C15.485 70.6315 20.3889 73.886 24.9808 72.9052C22.1276 72.1027 19.5419 70.5869 17.6694 67.9566C17.6694 67.9121 17.714 67.9121 17.714 67.9121C21.9493 72.5931 27.7448 73.0835 33.6741 73.0835H33.7187C34.0754 73.0835 34.4766 73.0835 34.8332 73.0835C42.5904 72.9943 51.9079 68.3133 51.3729 59.397C50.4813 59.2187 49.6343 58.6837 49.0547 57.6583C49.0101 57.6138 49.1439 57.5246 49.1884 57.5692C49.9909 58.55 50.8825 58.9512 51.8187 58.9958C51.9079 58.9512 51.9971 58.9512 52.0416 58.9958C53.0224 58.9512 54.0478 58.4608 55.0732 57.8813C55.3407 57.7029 55.4298 58.0596 55.2069 58.1933C54.2707 58.9958 53.1562 59.4416 52.1308 59.4862C52.1308 66.7529 45.1315 72.281 38.266 73.1726C36.7948 73.351 35.2791 73.5293 33.7633 73.6185C33.2283 77.0958 25.6495 76.2933 24.4904 73.351C23.6879 73.5293 22.8855 73.5739 22.1276 73.4847C25.8724 78.4778 31.5788 81.2419 37.6419 82.3564C40.8963 82.9359 44.2399 83.2926 47.5389 83.0697C49.0993 82.9805 50.6151 82.713 52.1308 82.3564C52.3091 82.3118 52.4429 82.2226 52.6212 82.1781C52.7103 82.1335 52.7995 82.1335 52.8441 82.1781C55.1623 81.5985 57.436 80.8406 59.7542 80.0827C59.9771 79.9936 59.888 80.3057 59.7542 80.3502C57.8818 81.0635 56.054 81.6877 54.1816 82.1781C54.1816 82.1781 54.2261 82.2227 54.2261 82.2672C53.8695 84.1842 54.5382 86.0566 54.2707 87.9736C54.0924 89.4002 53.1116 91.0052 52.3537 92.2089C52.2645 92.3426 52.1754 92.4764 52.0862 92.6101C52.2645 92.7438 52.0416 92.9668 51.8633 92.9668C50.8825 94.6163 49.9017 96.2658 48.8318 97.8707C48.7872 97.8707 48.7426 97.9153 48.698 97.9153C48.6535 97.9598 48.6089 98.0044 48.5643 98.0044C50.303 97.2911 52.0862 96.7116 53.8695 96.0874C45.7111 99.2527 38.3552 103.666 33.7187 111.334C29.7956 117.799 27.3882 125.779 28.7256 133.357C31.5788 149.986 51.0163 157.966 66.2631 155.47C66.2631 155.425 66.2185 155.425 66.2185 155.381C64.569 149.719 65.3269 143.567 67.5559 138.217C69.2055 134.249 71.4791 130.058 75.536 128.186C75.6252 128.141 75.6251 128.231 75.5806 128.275C67.6005 133.09 64.4798 144.949 66.4414 153.597C67.4222 158.055 71.3008 162.692 75.8481 163.896C81.1533 165.278 84.9427 162.291 88.1079 158.412C88.1079 158.368 88.1971 158.412 88.1525 158.412C87.3946 159.393 86.6367 160.329 85.7897 161.132C85.7897 161.132 85.7897 161.132 85.8343 161.132C86.5922 160.552 87.7959 160.151 88.5092 159.705C90.2924 158.68 91.3178 157.298 92.2094 155.693C92.0757 155.782 91.8973 155.737 91.9865 155.559C92.3431 154.846 92.7889 154.221 93.2348 153.597C93.2348 153.553 93.2794 153.553 93.3239 153.508C93.3239 153.464 93.3685 153.464 93.3685 153.464C93.6806 153.062 94.2156 152.394 93.1456 152.795C92.8335 152.929 92.4769 153.062 92.1648 153.196C92.0311 153.241 91.7636 153.241 91.8528 153.018C92.254 152.215 92.6998 151.413 93.0564 150.61C92.566 150.922 92.1203 151.279 91.5853 151.502C91.3624 151.591 91.2286 151.413 91.4069 151.235C91.9865 150.521 92.3877 149.852 92.4769 148.916C92.1202 149.273 91.5407 149.54 91.1395 149.808C90.7382 150.075 90.2924 150.254 89.8912 150.432C89.7574 151.324 89.6237 152.171 89.4454 153.062C89.4008 153.285 88.9104 153.553 88.955 153.196C89.1779 148.738 90.0695 144.681 89.0887 140.178C89.0887 140.089 89.267 139.955 89.3116 140.089C90.0695 142.586 90.2924 145.261 90.1587 147.891C96.8459 138.395 93.9927 125.957 88.1971 116.818C85.3439 112.315 81.9111 108.169 79.2362 103.577C77.0517 99.7877 74.7781 95.9983 74.8227 91.4956C72.2816 93.2342 70.9441 95.7308 70.1416 98.9406C70.0971 99.119 69.6958 99.2527 69.7404 99.0298C70.4537 95.4633 72.1924 91.6739 75.8035 90.3364C74.8227 90.1135 73.8419 89.9798 72.8165 90.0244C72.5936 90.0244 72.7719 89.7569 72.9057 89.7569C76.1155 89.3557 79.5037 90.6039 82.7136 90.6039C86.4138 90.6039 89.7129 90.2918 93.1456 88.999C92.6552 88.8652 92.1648 88.6869 91.719 88.3749C91.5407 88.2857 91.8527 88.0182 91.9865 88.0628C94.7505 89.534 97.5146 87.929 100.145 86.9483C100.145 86.9037 100.189 86.9037 100.234 86.8591C101.081 86.5025 101.839 85.9675 102.419 85.2542C102.597 85.0313 102.731 84.8529 102.864 84.7192C103.221 84.2288 102.864 84.4071 102.106 84.7192C101.215 85.0758 100.279 85.2096 99.3424 85.2542C99.0749 85.2542 99.1641 84.9421 99.2978 84.8529C100.502 84.0059 101.571 82.8914 101.928 81.4202C101.349 81.7322 100.769 82.0443 100.189 82.3118C99.6099 82.5347 98.8966 82.4455 98.2725 82.6239C97.7821 82.7576 98.005 82.1781 98.317 82.0443C99.8328 81.6877 100.412 79.949 101.527 78.9236C101.259 78.9682 101.037 79.0128 100.769 79.1465C100.368 79.3694 99.9666 79.5923 99.5653 79.8153C99.4316 79.8598 99.2533 79.7707 99.3424 79.6369C99.7882 79.0128 100.279 78.3887 100.858 77.9874C99.2532 78.3887 97.8712 79.1911 96.5338 80.1719C97.5592 79.6369 97.9604 79.7261 96.9796 80.6623C95.1518 82.4901 95.9988 82.7576 97.3808 83.1589C98.7628 83.5601 95.2855 87.3495 91.9419 86.7699C88.5983 86.1904 90.2478 90.8269 79.5037 89.2665C68.7596 87.7507 68.4475 90.7823 71.2562 90.381C74.0648 89.9798 68.7151 93.0559 68.3138 97.7815C67.9126 102.552 70.1416 101.972 71.2562 98.1828C72.3707 94.3934 76.0264 104.736 81.3316 110.487C86.6367 116.194 93.324 129.345 92.0757 138.44C90.8274 147.534 91.6744 141.516 88.2862 137.726C84.9426 133.937 90.9165 144.726 87.573 152.795C84.2293 160.909 80.7074 163.004 74.154 161.577C67.6005 160.195 64.3461 136.656 76.7843 127.918C79.5929 125.957 71.2116 126.091 66.4414 137.86C61.6712 149.585 46.3798 151.101 37.3744 143.567C28.0123 135.765 23.5542 111.379 52.755 97.6032C57.7926 95.2404 53.602 95.5079 51.6404 96.0874C49.6788 96.667 50.2584 95.82 51.2392 94.3934C53.2453 91.4956 55.6527 91.0943 54.7165 84.7638C54.1369 80.9744 55.9648 83.248 59.4867 81.2864C62.964 79.3249 66.7535 77.8091 65.9064 81.1527C65.0594 84.4963 66.4414 84.8084 67.2884 82.401C68.1355 80.0382 69.785 77.6308 76.071 79.5924C82.3569 81.5539 87.1271 83.6493 88.3754 83.5155C89.6237 83.3818 89.2225 85.9675 92.5215 82.9805H92.4769C91.9865 83.2926 91.4961 83.6047 90.9611 83.8722C90.7828 83.9613 90.7382 83.783 90.872 83.6938C91.2286 83.4709 91.5407 83.2035 91.8973 82.936C87.4392 82.7576 83.9173 81.4648 79.6375 80.1719C75.8481 79.0128 67.9572 76.2487 66.6643 81.9997C66.6197 82.178 66.1293 82.401 66.2185 82.1335C66.6643 80.0382 67.9572 78.9236 69.5621 78.3887C69.4729 78.2995 69.3838 78.2103 69.3392 78.1657C69.0717 77.9428 68.8042 77.6753 68.6259 77.4079C68.4921 77.2295 68.2247 76.8283 68.3138 76.6054C67.868 76.962 67.4222 77.2741 66.9764 77.5862C66.798 77.7199 66.6197 77.5862 66.7535 77.4079C67.8234 76.115 69.2946 75.1788 70.5875 74.1534C71.9249 73.0835 73.1732 71.9244 74.2431 70.5869C72.772 69.6953 71.3008 68.7145 69.8742 67.6891C69.6067 67.5108 70.0971 67.0204 70.32 67.1987C77.0517 71.5677 83.9173 75.8921 92.2986 75.4909C100.189 75.0896 107.679 71.7015 113.073 65.9505C121.945 56.4992 125.556 42.3669 121.098 30.1071ZM68.2246 65.0143C66.7089 63.1864 68.6259 68.2241 70.0525 69.3386C71.4345 70.4532 65.416 81.019 42.947 81.7768C30.1076 82.1781 26.2291 77.3633 32.203 76.7391C33.585 76.6054 34.7441 74.0643 39.6034 73.7968C44.5074 73.5293 51.9079 68.3579 52.4429 60.9574C52.5766 59.1295 55.9202 60.1103 55.7865 57.6138C55.6527 55.1172 52.5766 58.5946 49.0993 55.7859C48.386 55.2064 47.851 58.4608 49.6342 59.2633C51.4621 60.1103 44.552 72.9497 30.7764 71.3002C19.319 69.9182 19.1852 66.2625 17.9369 66.9758C16.6886 67.6891 17.5357 68.4916 19.319 69.9182C21.1468 71.3002 12.6763 68.5362 11.651 61.6707C11.3835 59.8428 12.8992 61.9381 17.3574 59.5753C21.8155 57.2125 21.4589 51.1049 16.2428 50.347C14.2813 50.0795 14.7271 49.0987 15.9754 47.8505C20.5672 43.2586 35.0116 40.6283 43.7941 43.9273C47.1377 45.1756 42.7687 50.1687 45.0424 49.0987C47.4052 47.9842 51.8633 42.1886 57.2131 46.8697C59.4422 48.8312 58.4613 45.6214 56.6781 44.3731C54.8503 43.1248 61.27 36.2593 56.4106 32.6482C51.5067 29.0371 45.6219 32.8711 41.8771 38.9342C40.7626 40.762 39.0685 40.1825 40.6288 35.7243C42.1446 31.2662 36.7057 30.4192 34.2091 31.8012C31.7126 33.1832 44.0616 24.4007 58.1047 29.8396C60.6012 30.8204 64.1232 32.5145 63.5436 43.3923C63.0086 54.2702 69.6958 61.6707 72.0586 64.0781C74.3769 66.3963 69.785 66.7975 68.2246 65.0143ZM105.673 70.3194C99.1195 74.1089 96.4446 71.434 105.539 65.148C114.634 58.862 121.588 45.5768 115.748 28.5467C109.106 9.28761 86.8151 11.0709 75.536 18.9172C69.6513 22.9741 68.9826 16.2423 77.7651 12.4975C83.5161 10.0455 104.648 4.56198 117.977 24.3561C122.881 31.6228 127.919 57.5246 105.673 70.3194Z" fill="#D69655"/>
<path opacity="0.5" d="M53.8248 82.2216C53.8248 82.177 53.8693 82.1325 53.9139 82.0879C53.5573 82.1771 53.2006 82.2662 52.844 82.3554C52.7994 82.4445 52.7102 82.5337 52.5765 82.5783C47.093 84.4061 42.4565 88.3293 36.4826 88.3738C31.7124 88.4184 27.0314 88.2401 22.8407 85.9219C23.1082 86.234 23.4203 86.4568 23.8215 86.6352C23.9553 86.7243 23.7769 86.9027 23.6878 86.9472C22.5733 87.1701 21.9937 86.9027 21.1021 86.1448C19.3634 84.7628 22.9745 88.463 23.4203 88.7305C23.5541 88.8197 23.3311 88.998 23.242 88.998C22.5733 89.0871 21.7262 89.3101 21.0129 89.1317C21.8154 89.3101 22.6178 89.5775 23.3757 89.8004C23.554 89.845 23.4203 90.0679 23.3311 90.1125C22.8407 90.38 22.3503 90.6475 21.7708 90.6029C23.2866 90.6921 25.4265 92.1633 26.8531 92.6091C29.4388 93.4561 31.9353 94.6598 34.6548 95.0165C38.1321 95.4623 41.2083 95.9081 44.641 94.8381C46.8701 94.1248 48.9208 93.0103 51.1944 92.6091C49.322 91.9404 47.6725 91.6283 45.6218 91.9404C46.6472 91.9404 50.5703 92.4753 44.5518 93.4561C38.5334 94.4369 30.5979 93.0549 26.8085 90.5138C23.0191 88.0172 23.8661 86.9027 25.1144 87.4376C28.6809 88.998 36.438 89.9342 42.1444 87.8389C47.8954 85.7436 51.5065 83.3808 52.2198 84.3615C52.9331 85.3423 51.5065 90.5138 47.8954 90.2463C44.3289 89.9788 44.5518 91.8512 45.5326 91.9404C45.4435 91.8958 45.5326 91.6729 45.6664 91.6283C47.7171 91.2271 49.9016 91.2271 51.774 92.2524C52.7994 90.6475 53.9139 88.9088 53.9139 87.1256C53.8247 85.4761 53.4681 83.9157 53.8248 82.2216Z" fill="#D69655"/>
<path opacity="0.4" d="M54.1371 99.6092C57.4361 96.8452 30.9994 106.519 32.6935 129.612C33.4514 139.688 41.6544 144.503 49.4561 142.095C57.2578 139.688 35.8588 142.274 39.0241 121.409C40.629 111.022 50.6152 102.596 54.1371 99.6092Z" fill="#D69655"/>
<path opacity="0.4" d="M77.2299 129.97C70.1415 135.186 67.3329 148.962 72.9501 157.343C75.9371 161.801 82.4459 160.33 85.6112 155.471C88.7765 150.611 73.708 158.591 74.0647 142.631C74.243 133.893 79.4144 128.365 77.2299 129.97Z" fill="#D69655"/>
<path opacity="0.4" d="M68.849 82.6685C70.766 79.0574 71.9251 78.7899 85.2549 83.248C89.1335 84.4963 67.5562 85.0758 68.849 82.6685Z" fill="#D69655"/>
<path opacity="0.5" d="M27.8339 130.994C27.7448 129.746 27.7448 128.497 27.7893 127.249C23.4204 130.191 23.6433 136.611 25.0699 141.158C25.9615 144.012 27.2544 146.999 29.3943 149.183C30.5534 150.342 31.8017 151.323 33.0054 152.393C33.05 152.348 33.0945 152.348 33.1391 152.393C33.1391 152.437 33.1391 152.482 33.1837 152.527C33.6295 152.928 34.0753 153.329 34.4765 153.775C34.6994 153.998 34.1199 154.444 33.897 154.221C33.7187 154.042 33.5403 153.864 33.4066 153.686C33.4512 154.176 33.362 154.622 33.0499 155.112C32.8716 155.38 32.4704 155.603 32.2029 155.781C31.9354 155.959 31.8017 156.049 31.7571 156.138C31.8017 156.182 31.8463 156.227 31.8908 156.316C32.2921 156.405 33.362 156.227 33.897 156.138C34.0307 156.093 34.1199 156.182 34.0307 156.316C32.9608 157.743 35.2344 157.609 36.1706 156.985C36.2598 156.94 36.5273 156.851 36.5273 157.074C36.4381 157.698 36.2152 159.883 37.3743 158.723C37.5081 158.59 37.8201 158.501 37.8201 158.768C37.8647 159.303 37.9093 159.927 38.1322 160.462C39.0238 162.691 39.113 160.685 39.2467 160.105C39.3359 159.704 39.6034 159.169 39.8263 158.902C40.7179 157.787 41.7879 157.119 43.0807 156.806C42.7241 156.717 42.412 156.584 42.1445 156.361C42.0999 156.316 42.0999 156.271 42.1445 156.227C42.1891 156.138 42.2337 156.093 42.2783 156.004C42.3228 155.959 42.412 155.915 42.412 156.004C42.1891 156.851 46.6918 156.405 47.1822 156.361C48.7426 156.182 50.0354 155.736 51.462 155.157C39.4697 152.215 28.8593 143.878 27.8339 130.994ZM32.9162 150.075C26.5857 145.795 23.5987 136.299 26.229 130.325C28.8593 124.351 22.3059 138.706 36.661 148.96C50.9716 159.214 37.1068 152.928 32.9162 150.075Z" fill="#D69655"/>
<path opacity="0.4" d="M32.3366 90.5597C27.3435 89.5789 37.2406 90.9609 47.5834 86.6365C50.5258 85.4328 45.0423 93.1008 32.3366 90.5597Z" fill="#D69655"/>
<path opacity="0.4" d="M17.9371 47.4037C22.0831 44.8626 31.3561 41.9648 40.1386 44.5951C46.692 46.5566 37.7758 44.8626 28.6812 45.9771C19.6312 47.1362 14.0585 49.7665 17.9371 47.4037Z" fill="#D69655"/>
<path d="M9.37742 55.7418C8.35205 54.0923 9.10992 51.8633 12.8548 51.8633C16.5996 51.8633 15.4405 54.8056 12.5873 56.2322C9.77865 57.6588 9.37742 55.7418 9.37742 55.7418Z" fill="#D69655"/>
<path opacity="0.5" d="M57.8374 48.6968C58.2386 50.4801 55.9204 52.5308 52.6214 53.2887C49.3223 54.0466 46.3354 53.2441 45.9342 51.4609C45.5329 49.6776 47.8512 47.6269 51.1502 46.869C54.4046 46.1111 57.3916 46.9136 57.8374 48.6968Z" fill="#D69655"/>
<path opacity="0.7" d="M69.4727 44.8191C69.4727 44.8191 63.6325 31.8905 76.6057 19.8981C89.5788 7.90575 115.926 17.2233 114.901 42.813C113.786 70.1859 80.5288 79.5034 71.6126 59.9767C69.2052 54.8053 76.8732 49.3664 69.4727 44.8191Z" fill="#D69655"/>
<path opacity="0.7" d="M35.4574 29.7494C36.9286 29.9277 38.0431 28.4565 39.0239 27.8324C42.2338 25.7817 44.9086 9.95527 32.6042 4.91758C18.6057 -0.788827 -2.2584 18.5149 5.23126 35.9462C7.32658 40.8501 17.8478 42.3659 24.2229 36.5257C31.2222 30.0614 26.764 28.6794 35.4574 29.7494Z" fill="#D69655"/>
<path opacity="0.8" d="M126.715 78.6551C126.894 78.6996 126.849 78.8334 126.715 78.9226C126.76 79.3238 126.804 79.725 126.894 80.0817C130.193 92.9657 137.236 115.568 123.818 131.618C117.264 139.464 109.685 141.827 103.622 142.183C103.578 142.362 103.533 142.496 103.444 142.674C103.399 142.808 103.087 142.941 103.087 142.718C103.087 142.54 103.087 142.362 103.087 142.183C98.8966 142.362 95.4638 141.559 93.7697 141.069C93.4577 142.183 93.0564 143.298 92.566 144.368C98.1833 145.705 103.89 144.502 109.239 142.585C114.099 140.846 118.914 138.572 122.926 135.229C131.04 128.452 133.358 118.422 133.046 108.257C132.689 97.6467 127.964 87.7051 128.142 77.0947C128.186 73.2607 128.9 69.3822 130.549 66.0386C128.097 70.3184 126.537 75.2669 126.715 78.6551Z" fill="#FFD7AD"/>
<path d="M100.814 140.445C100.814 140.445 114.768 141.426 122.748 131.35C130.728 121.275 120.073 135.675 108.482 138.483C100.1 140.489 91.9867 139.732 100.814 140.445Z" fill="#FFD7AD"/>
<path d="M37.4188 160.106C37.1514 158.635 37.3297 159.392 36.3935 160.15C36.3043 160.195 36.0814 160.284 36.0368 160.106C35.8585 159.08 36.6164 157.253 35.4127 157.654C34.5657 157.966 33.4957 157.698 32.7824 157.208C32.6486 157.119 32.7824 156.94 32.9161 156.896C34.209 156.138 32.6932 156.584 32.292 156.495C32.2028 156.45 32.1137 156.45 32.0245 156.405C33.0053 157.565 33.8523 158.768 34.3427 160.195C34.3873 160.329 34.1198 160.507 34.0307 160.373C31.2666 155.915 27.1206 152.527 24.9361 147.712C23.6432 144.859 22.6624 141.872 21.5479 138.93C20.5671 136.344 19.7646 132.911 17.3573 131.262C17.3127 131.217 17.4018 131.128 17.4464 131.172C18.2489 131.663 18.873 132.376 19.408 133.134C19.1851 131.707 19.0513 130.281 19.2297 128.854C19.3634 127.561 20.1659 126.001 19.7647 124.753C18.4718 120.785 13.345 124.753 14.2366 128.007C14.6378 129.389 15.4403 130.459 16.2873 131.574C16.3765 131.707 16.109 131.886 16.0198 131.752C14.6378 130.281 12.81 127.873 13.7462 125.644C13.8799 125.377 14.0137 125.109 14.1474 124.886C13.8353 124.352 12.9437 124.976 12.8099 125.199C12.587 125.6 12.4533 126.046 12.4087 126.491C12.3196 127.071 12.275 127.651 12.4087 128.23C12.7654 129.924 13.5233 130.816 15.1282 131.395C15.2619 131.44 15.039 131.618 14.9945 131.618C12.3642 131.752 11.6509 128.319 12.0075 126.313C12.0075 126.269 12.0075 126.224 12.0521 126.179C10.8484 126.536 10.5809 127.784 10.7146 128.943C10.7146 128.943 10.7146 128.943 10.7592 128.943C10.9375 128.943 10.8484 129.122 10.7592 129.166C10.8038 129.478 10.893 129.79 10.9821 130.058C11.4279 131.217 12.1412 132.153 13.3449 132.376C13.6124 132.153 13.9245 131.93 14.3257 131.752C14.4595 131.707 14.504 131.841 14.4149 131.886C14.1474 132.064 13.9691 132.242 13.7462 132.421C13.8353 132.465 13.7016 132.599 13.6124 132.644C13.5678 132.644 13.5678 132.644 13.5233 132.644C12.4533 133.758 12.0967 135.319 12.1413 137.013L12.1858 136.968C12.1858 136.968 12.0075 133.714 14.5932 133.624C17.2235 133.535 18.9622 137.815 23.6432 148.158C28.2797 158.501 32.6932 159.036 32.9607 163.806C33.139 167.239 33.8078 169.067 30.1967 169.2C30.9991 169.646 31.9353 169.824 32.7378 169.289C35.1006 167.818 34.6994 165.545 34.5211 163.405C34.5211 163.182 34.9669 162.959 34.9669 163.182C35.0114 163.628 35.0115 164.118 35.056 164.564C35.4127 162.959 36.438 161.532 37.508 160.284C37.4634 160.284 37.4188 160.195 37.4188 160.106ZM15.1282 129.033C14.0582 127.026 13.9245 125.511 16.3319 123.817C18.7393 122.122 18.8285 125.511 18.2043 126.893C17.5356 128.275 16.3319 131.262 15.1282 129.033Z" fill="#FFD7AD"/>
<path d="M10.4024 129.255C9.73364 129.3 8.79743 129.478 8.6191 130.192C8.44078 130.905 8.70826 131.796 9.24324 132.331C10.0903 133.179 11.2048 133.357 12.3194 133.669C12.4977 133.312 12.7206 133 12.9881 132.688C11.606 132.554 10.6253 130.905 10.4024 129.255ZM9.33239 132.153C8.79741 131.351 8.35162 130.281 9.1095 129.746C9.86738 129.211 10.1348 131.618 11.3831 132.287C12.6314 133 10.0457 133.223 9.33239 132.153Z" fill="#FFD7AD"/>
<path opacity="0.6" d="M15.485 145.349C12.498 141.738 12.1413 136.522 14.0138 136.21C15.8862 135.942 18.1152 139.375 22.3059 148.692C26.452 158.01 21.1468 152.214 15.485 145.349Z" fill="#FFD7AD"/>
<path opacity="0.6" d="M27.6112 165.991C25.6051 164.074 24.1339 158.59 25.9171 158.59C27.745 158.59 27.4329 166.57 31.3561 167.105C35.2792 167.685 29.8403 168.086 27.6112 165.991Z" fill="#FFD7AD"/>
<path d="M100.323 168.976C102.195 166.658 100.501 160.862 97.6036 153.997C95.3745 148.647 94.3491 148.068 92.5659 149.94C92.4767 150.163 92.343 150.43 92.2092 150.653C92.6105 150.386 93.0117 150.074 93.4129 149.806C93.5466 149.717 93.8587 149.673 93.7696 149.94C93.5021 150.876 93.0117 151.634 92.5659 152.481C93.19 152.214 93.7696 152.035 94.4829 152.08C94.6166 152.08 94.6166 152.258 94.572 152.347C94.1708 152.882 93.8141 153.462 93.4129 154.042C92.7888 155.334 92.12 156.761 91.1838 157.875C92.5213 160.015 92.7888 162.467 93.19 164.919C93.4575 166.613 93.5912 168.218 93.0117 169.779L93.8142 170.002C95.8649 170.67 98.4506 171.294 100.323 168.976Z" fill="#FFD7AD"/>
<path d="M100.412 158.366C99.6099 156.226 98.5845 154.042 98.3616 151.724C98.2724 150.743 98.2724 149.673 98.0049 148.692C97.782 147.087 96.5337 146.641 94.2155 147.399C93.7697 147.89 93.3685 148.425 93.0564 149.004C93.0118 149.093 92.9227 149.138 92.8335 149.183C92.7889 149.45 92.6997 149.718 92.6106 149.94C94.4384 148.068 95.4192 148.648 97.6483 153.997C100.546 160.907 102.196 166.658 100.368 168.977C98.4953 171.295 95.9096 170.671 93.8589 170.002L93.0564 169.779C92.9672 170.047 92.8335 170.27 92.6998 170.537C92.6998 170.582 92.6552 170.582 92.6552 170.582C92.9672 170.626 93.3239 170.671 93.636 170.671C93.7251 170.671 93.636 170.805 93.5914 170.805C92.6106 170.938 91.6298 171.072 90.649 170.894C89.4899 170.715 87.9296 170.136 86.7704 170.537C85.0764 171.117 82.3123 174.237 85.433 175.129C85.8342 175.263 86.2355 175.307 86.6367 175.441C87.6621 173.435 90.2032 172.722 92.2985 172.855C92.4768 172.855 92.2985 173.078 92.1648 173.123C90.4707 173.256 88.197 173.569 87.2162 175.218C87.1271 175.352 87.0825 175.486 87.0825 175.575C87.2163 175.619 87.1271 175.753 87.0379 175.842C86.9933 176.377 87.35 176.868 88.0187 177.046C88.6874 177.224 89.2224 177.09 89.8911 176.957C89.9357 176.957 89.9803 176.957 90.0249 176.957C89.9357 176.734 89.9357 176.422 90.0695 176.065C90.3815 175.084 91.2286 174.282 92.1202 173.836C93.1901 173.346 94.2601 173.39 95.3746 173.167C95.5084 173.123 95.4638 173.301 95.3746 173.301C93.7697 173.881 91.6298 173.836 90.7382 175.575C90.4261 176.199 90.4707 176.957 91.184 177.269C91.8081 177.536 92.3877 177.358 93.0118 177.224C92.8781 176.778 93.0118 176.243 93.5468 175.619C94.6613 174.326 96.4 173.524 98.0941 173.658C98.4062 173.702 98.0495 174.148 97.8266 174.148C96.3554 174.148 94.3939 174.728 93.6806 176.154C93.5022 176.555 93.4576 176.868 93.5468 177.09C93.636 177.09 93.636 177.135 93.5914 177.224C94.1264 178.116 96.7121 177.759 97.3362 177.581C98.6737 177.18 101.036 176.154 101.17 174.505C101.215 174.193 101.215 173.925 101.17 173.613C101.126 173.569 101.126 173.524 101.17 173.435C101.17 172.989 101.17 172.543 101.215 172.142C101.215 172.008 101.571 171.83 101.527 172.053C101.482 172.409 101.482 172.766 101.482 173.078C101.527 173.034 101.527 173.034 101.571 172.989C104.113 168.486 102.151 162.958 100.412 158.366ZM87.7512 173.479C85.8788 174.46 83.6943 174.46 84.1847 173.39C84.8534 171.964 86.6367 169.779 89.9357 171.161C93.1901 172.588 89.6237 172.499 87.7512 173.479ZM89.3562 175.931C89.4899 176.778 87.0379 176.645 87.2608 175.575C87.4392 174.594 88.4645 173.836 90.8273 173.569C93.1901 173.256 89.2224 175.084 89.3562 175.931ZM92.566 176.288C92.4769 177.269 90.3369 177.046 90.8273 175.931C91.2731 174.906 93.0118 174.104 93.9034 174.059C94.7951 173.97 92.6106 175.307 92.566 176.288ZM93.6806 177.046C92.9673 176.154 94.9288 174.951 97.0242 174.817C99.1195 174.683 94.7951 178.428 93.6806 177.046Z" fill="#FFD7AD"/>
<path opacity="0.6" d="M93.8143 166.08C93.9034 168.041 95.33 169.111 96.9795 167.908C99.2086 166.214 93.1455 154.845 92.2093 157.164C91.2731 159.437 93.413 158.189 93.8143 166.08Z" fill="#FFD7AD"/>
<g opacity="0.5">
<path opacity="0.7" d="M102.953 50.6132C94.7503 51.9061 102.418 64.7901 88.0632 63.8538C73.708 62.9176 64.0338 28.4563 81.7326 20.4317C99.4314 12.407 105.004 44.461 112.85 38.6654C113.653 38.0413 114.232 37.2834 114.634 36.4364C111.513 15.7061 88.5535 8.88511 76.6949 19.8521C63.7217 31.8445 69.5619 44.7731 69.5619 44.7731C76.9624 49.3203 69.2944 54.7593 71.6572 59.9307C77.7203 73.0822 94.8395 73.1268 105.673 63.3189C110.042 57.3896 109.239 49.5879 102.953 50.6132Z" fill="#D69655"/>
</g>
<g opacity="0.5">
<path opacity="0.7" d="M36.438 15.2163C39.0683 22.3048 28.3688 30.1065 20.4333 33.4501C6.43479 39.3794 10.5808 25.2917 3.75989 30.1957C3.93821 32.1126 4.42862 34.0296 5.23108 35.9466C7.3264 40.8506 17.8476 42.3663 24.2227 36.5262C31.222 30.1065 26.7193 28.7245 35.4572 29.7498C36.9284 29.9282 38.0429 28.457 39.0237 27.8328C42.2336 25.7821 44.9084 9.95572 32.604 4.91804C29.6171 3.66976 26.2735 3.62517 22.9745 4.42764C22.8853 4.69513 22.8407 5.0072 22.8407 5.31927C22.0828 13.1656 33.8523 8.1279 36.438 15.2163Z" fill="#D69655"/>
</g>
<path opacity="0.4" d="M56.3662 87.4823C55.8758 84.852 56.6337 82.1771 58.3277 85.6544C60.0218 89.1318 58.3277 93.1887 53.29 94.8828C48.2523 96.5769 57.3469 92.6537 56.3662 87.4823Z" fill="#D69655"/>
</svg>
