<svg width="236" height="175" viewBox="0 0 236 175" fill="none" xmlns="http://www.w3.org/2000/svg">
<path d="M197.883 68.51C197.883 68.51 203.946 66.7267 207.423 59.5937C210.901 52.4607 213.709 65.1664 207.423 73.5031C207.423 73.5031 199.8 72.1211 197.883 68.51Z" fill="#C9C57D"/>
<path d="M207.423 73.7705C207.379 73.7705 207.379 73.7705 207.423 73.7705C207.067 73.7259 199.622 72.2993 197.66 68.6436C197.616 68.5991 197.616 68.5099 197.66 68.4207C197.705 68.3316 197.749 68.287 197.794 68.287C197.838 68.287 203.812 66.4591 207.201 59.5045C207.914 58.0333 208.672 57.2754 209.385 57.2754C209.742 57.2754 210.232 57.4537 210.678 58.3008C212.06 61.0648 211.569 68.4207 207.602 73.6813C207.557 73.7259 207.468 73.7705 207.423 73.7705ZM198.24 68.6436C200.112 71.6306 206.264 73.0126 207.29 73.2355C211.347 67.752 211.347 60.7527 210.232 58.4791C210.054 58.1224 209.786 57.7212 209.385 57.7212C209.073 57.7212 208.449 57.9887 207.646 59.6828C204.615 65.9688 199.488 68.1978 198.24 68.6436Z" fill="#9B954B"/>
<path opacity="0.5" d="M197.883 68.51C197.883 68.51 203.946 66.7267 207.423 59.5937C210.901 52.4607 213.709 65.1664 207.423 73.5031C207.423 73.5031 199.8 72.1211 197.883 68.51Z" fill="#C9C57D"/>
<path d="M203.991 66.1026C201.985 67.7076 202.118 69.2679 204.838 69.2679C207.557 69.2679 210.232 64.1856 209.653 60.53C209.028 56.8297 207.557 63.2494 203.991 66.1026Z" fill="#C9C57D"/>
<path d="M82.2393 104.8C71.5398 102.438 61.3306 106.495 55.5351 118.219C49.7395 129.9 49.7395 151.522 58.8341 158.833C67.9287 166.144 99.0465 154.821 95.2125 148.133C91.958 142.427 76.7112 120.538 92.1363 114.296C107.606 108.01 82.2393 104.8 82.2393 104.8Z" fill="#C9C57D"/>
<path d="M67.9285 161.419C63.9161 161.419 60.7063 160.617 58.7002 159.012C54.4203 155.579 51.8346 148.892 51.3888 140.198C50.943 132.218 52.4588 123.971 55.312 118.131C60.7955 106.985 70.6479 102.037 82.2836 104.578C83.0415 104.667 96.8618 106.45 97.3521 110.151C97.5305 111.577 95.881 113.004 92.2253 114.475C89.1046 115.723 87.0539 117.774 86.1623 120.493C83.532 128.34 90.7987 140.288 94.276 145.994C94.7664 146.796 95.1677 147.465 95.4797 147.955C96.1039 149.025 96.2376 150.764 93.429 153.172C89.907 156.158 83.1753 159.012 76.176 160.483C73.1445 161.107 70.3804 161.419 67.9285 161.419ZM76.4881 104.4C67.6164 104.4 60.2605 109.259 55.8024 118.309C49.9177 130.212 50.2743 151.567 59.0568 158.61C65.8778 164.094 86.1177 158.789 93.1169 152.815C94.5435 151.611 96.0147 149.828 95.0785 148.223C94.7665 147.688 94.3652 147.019 93.9194 146.261C90.3974 140.466 83.0861 128.429 85.761 120.36C86.6972 117.506 88.8371 115.367 92.1361 114.029C95.4352 112.692 97.0847 111.399 96.9509 110.24C96.5943 107.476 86.2514 105.559 82.2836 105.068C80.2329 104.622 78.316 104.4 76.4881 104.4Z" fill="#9B954B"/>
<path opacity="0.5" d="M82.2393 104.8C71.5398 102.438 61.3306 106.495 55.5351 118.219C49.7395 129.9 49.7395 151.522 58.8341 158.833C67.9287 166.144 99.0465 154.821 95.2125 148.133C91.958 142.427 76.7112 120.538 92.1363 114.296C107.606 108.01 82.2393 104.8 82.2393 104.8Z" fill="#C9C57D"/>
<path d="M92.4038 146.173C87.4999 142.518 54.7772 146.129 57.2737 157.319C57.7641 157.853 58.2991 158.388 58.8787 158.834C66.5467 164.986 89.9073 157.898 94.7221 151.523C95.0787 149.829 94.7666 147.912 92.4038 146.173Z" fill="#A88F00"/>
<path d="M67.8395 161.419C64.4959 161.419 61.0185 160.84 58.7003 159.012C58.1207 158.566 57.5858 158.031 57.0954 157.451C57.0508 157.407 57.0508 157.362 57.0508 157.362C56.4267 154.598 57.8087 152.146 61.0631 150.006C64.8525 147.554 71.406 145.637 78.5836 144.879C85.2262 144.166 90.7097 144.612 92.5821 145.949C94.6329 147.51 95.4353 149.382 94.9449 151.522C94.9449 151.567 94.9003 151.567 94.9003 151.611C91.9133 155.624 81.6151 159.948 72.3867 161.107C71.0047 161.33 69.4444 161.419 67.8395 161.419ZM57.4966 157.184C57.987 157.719 58.4773 158.209 59.0123 158.611C61.5535 160.661 66.2791 161.375 72.2976 160.617C81.3476 159.458 91.4676 155.222 94.4545 151.344C94.8558 149.427 94.1425 147.733 92.2255 146.306C88.6144 143.631 69.6673 144.969 61.286 150.363C58.2545 152.414 56.9616 154.687 57.4966 157.184Z" fill="#9B954B"/>
<path opacity="0.5" d="M92.1804 114.252C107.606 108.01 82.2833 104.8 82.2833 104.8C71.5838 102.438 61.3747 106.495 55.5792 118.219C49.7836 129.9 49.7835 151.522 58.8781 158.833C67.9727 166.144 99.0905 154.821 95.2565 148.133C92.0021 142.427 76.7552 120.493 92.1804 114.252ZM67.8836 143.408C67.0365 142.784 63.0688 138.727 60.6614 142.427C58.254 146.172 56.872 140.555 54.9996 147.108C54.9996 147.108 53.6622 148.713 52.9934 144.077C52.2801 139.44 51.8789 127.359 56.4708 118.041C59.0119 112.914 65.3871 104.711 72.5201 109.169C79.6531 113.628 70.5585 118.576 75.9974 131.728C81.4363 144.879 68.7306 144.032 67.8836 143.408Z" fill="#C9C57D"/>
<path d="M55.3566 149.961C53.9746 148.802 52.2805 147.732 52.2805 149.961C52.2805 152.19 53.5734 156.47 56.9616 157.005C60.3497 157.54 55.3566 149.961 55.3566 149.961Z" fill="#CCE3A7"/>
<path d="M57.2734 157.317C57.1842 157.317 57.0506 157.317 56.9168 157.273C53.2611 156.693 52.0574 152.012 52.0574 149.961C52.0574 149.159 52.2357 148.713 52.6815 148.49C53.2611 148.223 54.1973 148.624 55.5347 149.738L55.5794 149.783C55.936 150.362 59.1459 155.311 58.2096 156.827C58.0313 157.139 57.7192 157.317 57.2734 157.317ZM53.0828 148.936C52.9937 148.936 52.9491 148.936 52.8599 148.98C52.5924 149.114 52.5478 149.605 52.5478 150.006C52.5478 151.923 53.6623 156.292 57.0059 156.827C57.6301 156.916 57.7638 156.693 57.8084 156.648C58.388 155.757 56.5156 152.235 55.2227 150.184C54.019 149.159 53.3949 148.936 53.0828 148.936Z" fill="#BFB660"/>
<path d="M55.8911 145.459C54.8658 147.465 54.5983 151.032 55.8911 153.528C57.184 156.025 62.0434 157.006 62.4 150.898C62.7567 144.835 56.8273 143.676 55.8911 145.459Z" fill="#CCE3A7"/>
<path d="M59.0565 155.712C57.7191 155.712 56.2924 154.865 55.6683 153.662C54.3308 151.076 54.6429 147.42 55.6683 145.369C56.0695 144.567 57.3624 144.255 58.7444 144.612C60.706 145.147 62.8905 147.108 62.6676 150.942C62.4447 154.553 60.7506 155.445 59.7252 155.668C59.5023 155.668 59.2794 155.712 59.0565 155.712ZM56.1141 145.592C55.1333 147.509 54.8658 150.987 56.1141 153.439C56.7828 154.687 58.2986 155.489 59.6361 155.177C61.1518 154.865 62.0434 153.35 62.1772 150.898C62.4001 147.376 60.4831 145.592 58.6106 145.057C57.4515 144.745 56.4262 144.968 56.1141 145.592Z" fill="#BFB660"/>
<path d="M61.7761 141.312C60.1711 142.026 58.8337 145.815 61.7761 149.114C64.7184 152.413 67.9728 149.337 67.2595 146.172C66.5462 143.006 64.228 140.198 61.7761 141.312Z" fill="#CCE3A7"/>
<path d="M64.451 150.764C63.4702 150.764 62.4895 150.274 61.6425 149.248C60.1713 147.599 59.5471 145.548 59.9929 143.675C60.2604 142.427 60.9291 141.446 61.7316 141.09C62.5786 140.733 63.4257 140.733 64.2727 141.179C65.7439 141.892 67.0368 143.854 67.5718 146.127C67.973 147.911 67.2151 149.694 65.7885 150.452C65.2981 150.63 64.8968 150.764 64.451 150.764ZM62.8907 141.313C62.5787 141.313 62.222 141.402 61.9099 141.536C61.2412 141.848 60.6616 142.695 60.4387 143.765C60.0821 145.503 60.6171 147.376 61.9991 148.936C63.1136 150.184 64.4065 150.586 65.521 150.006C66.7247 149.382 67.3934 147.732 67.0368 146.217C66.5464 144.077 65.3427 142.249 64.0053 141.58C63.6486 141.402 63.2474 141.313 62.8907 141.313Z" fill="#BFB660"/>
<g opacity="0.72">
<path opacity="0.52" d="M63.2029 122.009C62.8017 121.875 62.7126 120.984 62.9801 120.047C63.2476 119.067 63.8271 118.398 64.2283 118.487C64.6296 118.621 64.7187 119.512 64.4512 120.449C64.1391 121.429 63.6041 122.143 63.2029 122.009Z" fill="#91884A"/>
<path opacity="0.72" d="M58.4323 123.971C57.9865 123.838 57.7636 123.213 57.9419 122.589C58.1203 121.965 58.6552 121.564 59.101 121.698C59.5468 121.831 59.7697 122.456 59.5914 123.08C59.4131 123.704 58.8781 124.105 58.4323 123.971Z" fill="#91884A"/>
<path opacity="0.49" d="M59.993 127.582C59.7701 127.492 59.6809 127.047 59.8593 126.556C59.993 126.066 60.3051 125.709 60.528 125.754C60.7509 125.843 60.8401 126.289 60.6618 126.779C60.528 127.314 60.2159 127.671 59.993 127.582Z" fill="#91884A"/>
<path opacity="0.72" d="M66.3233 111.31C66.1003 111.22 66.0111 110.775 66.1894 110.284C66.3232 109.794 66.6353 109.437 66.9028 109.482C67.1257 109.571 67.2148 110.017 67.0365 110.507C66.8582 111.042 66.5462 111.399 66.3233 111.31Z" fill="#91884A"/>
<path opacity="0.64" d="M55.5794 126.066C55.4456 126.021 55.3565 125.799 55.4456 125.531C55.5348 125.264 55.7131 125.13 55.8468 125.174C55.9806 125.219 56.0697 125.442 55.9806 125.709C55.936 125.977 55.7577 126.111 55.5794 126.066Z" fill="#91884A"/>
<path opacity="0.76" d="M59.4581 118.531C59.1906 118.442 59.0569 118.175 59.146 117.952C59.2352 117.684 59.4581 117.551 59.7256 117.64C59.993 117.729 60.1268 117.996 60.0377 118.219C59.9931 118.442 59.7256 118.576 59.4581 118.531Z" fill="#91884A"/>
<path opacity="0.23" d="M56.6492 120.449C56.5154 120.404 56.4263 120.226 56.5154 120.048C56.56 119.869 56.6938 119.78 56.8275 119.78C56.9613 119.825 57.0504 120.003 56.9613 120.182C56.9167 120.404 56.7829 120.494 56.6492 120.449Z" fill="#91884A"/>
<path opacity="0.39" d="M62.4451 116.435C62.1776 116.346 62.0439 116.034 62.1331 115.678C62.2223 115.321 62.5343 115.143 62.8018 115.232C63.0693 115.321 63.2031 115.633 63.1139 115.99C63.0247 116.302 62.7126 116.525 62.4451 116.435Z" fill="#91884A"/>
<path d="M59.2795 113.45C59.1012 113.405 59.012 113.182 59.1011 112.959C59.1457 112.736 59.3686 112.603 59.5023 112.647C59.6807 112.692 59.7699 112.915 59.6807 113.138C59.6361 113.361 59.4578 113.494 59.2795 113.45Z" fill="#91884A"/>
<path opacity="0.33" d="M63.6931 125.041C63.4702 124.997 63.3365 124.774 63.3811 124.551C63.4257 124.373 63.6486 124.239 63.8715 124.328C64.0944 124.373 64.2281 124.596 64.1835 124.819C64.139 124.997 63.916 125.086 63.6931 125.041Z" fill="#91884A"/>
<path opacity="0.77" d="M66.9476 116.838C66.7246 116.749 66.6354 116.348 66.7692 115.902C66.9029 115.456 67.215 115.144 67.438 115.234C67.6609 115.323 67.75 115.724 67.6162 116.17C67.4825 116.616 67.1705 116.928 66.9476 116.838Z" fill="#91884A"/>
<path opacity="0.77" d="M55.8021 131.06C55.5346 130.971 55.4454 130.659 55.5345 130.347C55.6237 130.035 55.8912 129.812 56.1587 129.856C56.4261 129.945 56.5154 130.258 56.4262 130.57C56.337 130.926 56.0696 131.105 55.8021 131.06Z" fill="#91884A"/>
<path d="M63.827 112.069C63.6932 112.024 63.6487 111.846 63.7379 111.623C63.7825 111.4 63.9607 111.266 64.0499 111.311C64.1836 111.355 64.2282 111.534 64.1391 111.757C64.0945 111.98 63.9607 112.113 63.827 112.069Z" fill="#91884A"/>
<path opacity="0.39" d="M59.9038 131.727C59.7701 131.683 59.7255 131.504 59.8146 131.282C59.8592 131.059 60.0375 130.925 60.1267 130.969C60.2604 131.014 60.305 131.192 60.2158 131.415C60.1713 131.638 59.993 131.772 59.9038 131.727Z" fill="#91884A"/>
<path opacity="0.23" d="M69.9792 112.201C69.8454 112.156 69.8008 111.978 69.89 111.755C69.9346 111.532 70.1129 111.399 70.2021 111.443C70.3359 111.488 70.3805 111.666 70.2913 111.889C70.2467 112.112 70.1129 112.246 69.9792 112.201Z" fill="#91884A"/>
<path d="M53.1274 129.366C52.9936 129.321 52.949 129.143 53.0382 128.92C53.0828 128.697 53.2611 128.563 53.3503 128.608C53.484 128.652 53.5286 128.831 53.4394 129.053C53.3948 129.232 53.2165 129.366 53.1274 129.366Z" fill="#91884A"/>
<path opacity="0.27" d="M65.3873 107.476C65.2535 107.432 65.2089 107.253 65.2981 107.03C65.3427 106.852 65.521 106.674 65.6102 106.718C65.7439 106.763 65.7885 106.941 65.6993 107.164C65.6547 107.387 65.521 107.521 65.3873 107.476Z" fill="#91884A"/>
<path opacity="0.27" d="M67.1259 122.009C66.8584 121.92 66.7247 121.608 66.8138 121.296C66.903 120.984 67.2151 120.761 67.4826 120.85C67.7501 120.939 67.8838 121.251 67.7946 121.563C67.6609 121.92 67.3934 122.098 67.1259 122.009Z" fill="#91884A"/>
</g>
<path opacity="0.2" d="M57.1394 118.087C53.1717 125.577 54.9996 134.181 58.5661 134.092C62.1326 134.003 66.1895 122.501 69.3102 118.934C75.507 111.98 65.7882 101.77 57.1394 118.087Z" fill="#C9C57D"/>
<path opacity="0.5" d="M94.4546 148.936C95.0787 151.923 89.1493 155.623 81.2585 157.272C73.3676 158.922 66.4129 157.852 65.8334 154.865C65.2092 151.878 71.1385 148.178 79.0294 146.528C86.9203 144.923 93.8304 145.993 94.4546 148.936Z" fill="#C9C57D"/>
<path d="M66.1009 144.79C65.3876 142.516 63.3368 140.777 61.7319 142.427C60.127 144.076 61.2415 146.796 63.8272 145.949C65.4767 145.369 66.6359 146.573 66.1009 144.79Z" fill="#C9C57D"/>
<path d="M59.8594 147.866C59.6364 146.083 57.6303 144.433 56.6941 145.77C55.7579 147.108 56.07 149.248 58.4773 149.382C60.7064 149.56 60.1268 149.872 59.8594 147.866Z" fill="#C9C57D"/>
<path d="M54.6875 152.369C55.1779 150.407 53.4837 148.758 53.2608 149.694C53.0379 150.63 54.1525 154.553 54.6875 152.369Z" fill="#C9C57D"/>
<path d="M123.432 126.421C123.432 126.421 119.91 131.592 119.776 141.044C119.776 141.044 123.655 148.578 136.94 146.616C136.94 146.616 139.125 128.204 142.647 124.816C146.213 121.428 128.069 118.04 123.432 126.421Z" fill="#C9C57D"/>
<path d="M132.794 147.196C128.247 147.196 125.171 145.948 123.254 144.789C120.579 143.139 119.598 141.267 119.554 141.178C119.554 141.133 119.509 141.089 119.509 141.044C119.643 131.816 123.031 126.555 123.209 126.288C125.706 121.785 131.858 120.581 136.762 120.982C140.195 121.25 142.825 122.275 143.271 123.524C143.405 123.88 143.405 124.415 142.825 124.995C139.392 128.294 137.208 146.483 137.163 146.661C137.163 146.75 137.074 146.84 136.94 146.884C135.469 147.107 134.042 147.196 132.794 147.196ZM119.999 140.999C120.356 141.624 124.502 148.132 136.717 146.438C136.985 144.388 139.08 127.982 142.513 124.683C142.87 124.371 142.959 124.058 142.87 123.746C142.513 122.721 139.927 121.785 136.762 121.517C129.451 120.938 125.215 123.746 123.655 126.555C123.61 126.6 120.133 131.771 119.999 140.999Z" fill="#9B954B"/>
<path opacity="0.5" d="M123.432 126.421C123.432 126.421 119.91 131.592 119.776 141.044C119.776 141.044 123.655 148.578 136.94 146.616C136.94 146.616 139.125 128.204 142.647 124.816C146.213 121.428 128.069 118.04 123.432 126.421Z" fill="#C9C57D"/>
<path opacity="0.5" d="M123.432 126.421C123.432 126.421 119.91 131.592 119.776 141.044C119.776 141.044 123.655 148.578 136.94 146.616C136.94 146.616 139.125 128.204 142.647 124.816C146.213 121.428 128.069 118.04 123.432 126.421Z" fill="#C9C57D"/>
<path opacity="0.5" d="M133.508 121.25C132.349 125.173 129.852 134.758 129.272 137.433C128.425 141.133 128.425 136.006 124.993 137.433C124.993 137.433 123.834 134.312 120 137.254C119.866 138.458 119.777 139.706 119.732 141.088C119.732 141.088 123.611 148.623 136.896 146.661C136.896 146.661 139.08 128.249 142.602 124.861C144.742 122.81 139.303 120.804 133.508 121.25Z" fill="#C9C57D"/>
<path d="M121.738 144.788C120.356 144.967 118.038 143.362 118.796 139.84C119.509 136.318 124.368 134 123.566 139.082C122.719 144.12 121.738 144.788 121.738 144.788Z" fill="#CCE3A7"/>
<path d="M121.56 145.011C120.846 145.011 119.999 144.61 119.42 143.986C118.885 143.407 118.038 142.069 118.528 139.751C119.018 137.388 121.203 135.605 122.585 135.872C123.075 135.961 124.19 136.452 123.744 139.082C122.942 144.12 121.961 144.878 121.872 144.967C121.827 144.967 121.782 145.011 121.782 145.011C121.693 145.011 121.649 145.011 121.56 145.011ZM122.318 136.363C121.158 136.363 119.42 137.923 119.018 139.885C118.706 141.445 118.974 142.782 119.776 143.674C120.311 144.254 121.025 144.566 121.649 144.521C121.827 144.343 122.63 143.228 123.298 138.993C123.566 137.433 123.254 136.496 122.54 136.363C122.451 136.363 122.407 136.363 122.318 136.363Z" fill="#BFB660"/>
<path d="M126.33 137.88C124.725 137.211 122.674 139.173 121.738 141.892C120.802 144.656 121.381 146.172 123.61 146.974C125.839 147.732 126.686 145.548 126.909 143.987C127.177 142.382 128.068 138.593 126.33 137.88Z" fill="#CCE3A7"/>
<path d="M124.502 147.375C124.19 147.375 123.878 147.33 123.566 147.196C121.203 146.349 120.579 144.7 121.515 141.847C122.184 139.885 123.388 138.325 124.68 137.745C125.305 137.478 125.929 137.433 126.464 137.656C128.158 138.369 127.623 141.534 127.311 143.451C127.266 143.674 127.266 143.853 127.222 143.986C127.088 144.833 126.687 146.394 125.617 147.063C125.26 147.285 124.903 147.375 124.502 147.375ZM125.661 137.968C125.394 137.968 125.126 138.013 124.859 138.146C123.7 138.681 122.585 140.152 121.961 141.98C121.069 144.566 121.604 145.993 123.7 146.75C124.324 146.973 124.859 146.929 125.305 146.661C126.241 146.082 126.597 144.566 126.687 143.942C126.731 143.764 126.731 143.585 126.776 143.362C127.043 141.713 127.578 138.681 126.241 138.102C126.062 138.013 125.884 137.968 125.661 137.968Z" fill="#BFB660"/>
<path d="M131.457 139.082C129.183 138.235 127.445 140.821 126.954 143.986C126.464 147.151 127.133 147.909 128.738 147.865C130.342 147.82 131.546 148.355 132.349 144.788C133.106 141.222 132.705 139.528 131.457 139.082Z" fill="#CCE3A7"/>
<path d="M129.674 148.131C129.54 148.131 129.406 148.131 129.272 148.131C129.094 148.131 128.916 148.131 128.693 148.131C127.89 148.131 127.355 147.953 126.999 147.552C126.464 146.972 126.375 145.858 126.642 143.941C126.999 141.623 127.979 139.795 129.228 139.037C129.941 138.636 130.699 138.546 131.457 138.859C132.928 139.394 133.285 141.311 132.482 144.877C131.903 147.864 130.877 148.131 129.674 148.131ZM128.871 147.597C129.005 147.597 129.183 147.597 129.317 147.597C130.61 147.641 131.457 147.641 132.081 144.699C132.794 141.489 132.571 139.706 131.368 139.26C130.744 139.037 130.119 139.081 129.54 139.394C128.425 140.062 127.534 141.801 127.222 143.941C126.954 145.68 127.043 146.705 127.444 147.151C127.712 147.418 128.113 147.552 128.737 147.552C128.782 147.596 128.827 147.597 128.871 147.597Z" fill="#BFB660"/>
<path d="M92.4034 108.812C92.4034 108.812 75.4179 108.812 69.3994 102.793C63.3809 96.7746 76.2203 62.7145 87.0982 62.6253C97.976 62.5362 98.4219 65.746 96.2374 73.8598C94.0975 82.0182 92.4034 108.812 92.4034 108.812Z" fill="#C9C57D"/>
<path d="M92.4034 109.036C91.6901 109.036 75.2396 108.947 69.2211 102.973C65.9221 99.6738 68.1511 89.0189 71.6285 80.5484C75.0166 72.2117 81.1243 62.4484 87.0982 62.4038C92.4034 62.3592 95.2566 63.0725 96.594 64.8112C98.0206 66.6836 97.664 69.5814 96.4603 73.9504C94.3204 81.975 92.6263 108.545 92.5817 108.813C92.6709 108.947 92.5371 109.036 92.4034 109.036ZM87.5886 62.8496C87.4548 62.8496 87.2765 62.8496 87.0982 62.8496C81.3918 62.8942 75.4179 72.4792 72.0743 80.6821C67.9728 90.7129 66.9028 99.9413 69.5331 102.616C75.0166 108.1 90.0851 108.501 92.1359 108.545C92.3142 105.915 93.9637 81.4846 96.0144 73.8166C97.129 69.5814 97.5302 66.8174 96.2374 65.0787C95.0782 63.5629 92.4034 62.8496 87.5886 62.8496Z" fill="#9B954B"/>
<path opacity="0.5" d="M92.4034 108.812C92.4034 108.812 75.4179 108.812 69.3994 102.793C63.3809 96.7746 76.2203 62.7145 87.0982 62.6253C97.976 62.5362 98.4219 65.746 96.2374 73.8598C94.0975 82.0182 92.4034 108.812 92.4034 108.812Z" fill="#C9C57D"/>
<path opacity="0.49" d="M92.4034 108.812C92.4034 108.812 75.4179 108.812 69.3994 102.793C63.3809 96.7746 76.2203 62.7145 87.0982 62.6253C97.976 62.5362 98.4219 65.746 96.2374 73.8598C94.0975 82.0182 92.4034 108.812 92.4034 108.812Z" fill="#C9C57D"/>
<path opacity="0.49" d="M87.1433 62.6253C78.2716 62.7145 68.107 85.3172 67.9286 96.953C69.3107 95.3035 71.3615 94.3227 74.393 95.348C81.6597 97.8446 82.2839 103.462 72.0302 104.666C79.2969 108.767 92.4484 108.767 92.4484 108.767C92.4484 108.767 94.1425 81.9736 96.327 73.8598C98.4669 65.746 98.0211 62.5362 87.1433 62.6253Z" fill="#C9C57D"/>
<path d="M190.26 86.9693C189.591 91.6057 189.948 96.2868 179.56 101.324C169.173 106.362 163.823 103.776 159.588 101.012C155.353 98.2483 151.786 95.1723 143.182 96.0193C134.578 96.8663 130.209 102.84 127.935 106.54C125.661 110.285 122.496 115.59 117.369 116.482C111.975 117.418 104.084 117.507 93.6075 112.782C89.1048 110.731 86.5191 107.655 85.137 104.401C79.921 102.305 75.1954 103.241 73.1893 103.821C72.8326 103.955 72.476 104.088 72.1193 104.178C70.559 104.668 69.1769 104.891 67.9286 104.936C79.3415 112.113 100.25 137.123 149.022 126.691C195.654 116.705 203.679 82.3774 204.838 74.9323C192.088 73.1491 190.884 82.422 190.26 86.9693Z" fill="#E2DCB2"/>
<path d="M126.553 129.454C99.5812 129.454 84.0223 117.417 73.8578 109.571C71.5396 107.788 69.5334 106.227 67.7947 105.113C67.7056 105.068 67.661 104.934 67.7056 104.845C67.7502 104.756 67.8393 104.667 67.9285 104.667C69.1767 104.667 70.5588 104.399 72.0746 103.909C72.4312 103.82 72.7433 103.686 73.0999 103.552C74.9723 103.017 79.8763 101.947 85.226 104.132C85.2706 104.177 85.3152 104.221 85.3598 104.266C86.8755 107.921 89.6842 110.73 93.6965 112.558C102.078 116.347 109.835 117.551 117.325 116.258C122.273 115.366 125.349 110.284 127.623 106.584L127.712 106.406C129.183 103.998 133.641 96.6868 143.182 95.7506C151.073 94.9927 154.684 97.4447 158.562 100.03C158.964 100.298 159.365 100.565 159.721 100.833C163.912 103.597 169.262 106.093 179.471 101.145C188.878 96.5977 189.368 92.4962 189.903 88.1718C189.948 87.7706 189.992 87.3693 190.037 87.0127V86.8789C190.438 84.0257 191.107 79.2555 194.673 76.5807C197.081 74.7528 200.513 74.1287 204.882 74.7528C204.927 74.7528 205.016 74.7974 205.061 74.842C205.105 74.8866 205.105 74.9757 205.105 75.0203C203.991 81.9304 196.055 116.927 149.111 126.958C140.774 128.696 133.285 129.454 126.553 129.454ZM68.6864 105.113C70.2913 106.183 72.1191 107.565 74.1699 109.17C86.7864 118.888 107.873 135.205 148.977 126.423C168.682 122.187 183.751 113.227 193.782 99.6738C201.494 89.2418 203.857 79.211 204.57 75.1095C200.469 74.5745 197.259 75.1541 194.985 76.8927C191.552 79.4785 190.928 84.1149 190.527 86.8789V87.0127C190.482 87.4139 190.438 87.7706 190.393 88.1718C189.858 92.4516 189.323 96.8652 179.694 101.546C169.262 106.584 163.778 104.043 159.499 101.19C159.097 100.922 158.696 100.655 158.295 100.387C154.505 97.8459 150.939 95.4386 143.226 96.1965C133.953 97.0881 129.584 104.266 128.158 106.628L128.069 106.807C125.75 110.596 122.585 115.812 117.458 116.704C109.879 118.041 102.033 116.838 93.5627 112.959C89.4612 111.087 86.608 108.278 85.0031 104.533C79.8317 102.482 75.1061 103.463 73.2783 103.998C72.9216 104.132 72.5649 104.266 72.2083 104.355C70.9154 104.801 69.7564 105.024 68.6864 105.113Z" fill="#CEC784"/>
<path d="M98.868 118.8C90.8879 118.8 84.6466 117.284 84.5574 117.239C84.4236 117.195 84.3344 117.061 84.379 116.927C84.4236 116.793 84.5574 116.704 84.6911 116.749C84.8249 116.793 98.8234 120.182 111.529 116.749C111.663 116.704 111.797 116.793 111.841 116.927C111.886 117.061 111.797 117.195 111.663 117.239C107.294 118.398 102.88 118.8 98.868 118.8Z" fill="#CEC784"/>
<path d="M117.191 128.918C117.102 128.918 116.968 128.829 116.968 128.74C116.923 128.606 117.013 128.472 117.146 128.427C117.458 128.338 146.347 120.269 150.538 96.3735C150.582 96.2397 150.671 96.1506 150.805 96.1952C150.939 96.2398 151.028 96.3289 150.983 96.4627C146.748 120.67 117.548 128.829 117.235 128.918H117.191Z" fill="#CEC784"/>
<path d="M151.786 126.289C151.697 126.289 151.608 126.245 151.563 126.155C151.474 126.022 151.518 125.888 151.652 125.843C151.786 125.754 165.16 117.774 168.861 104.132C168.905 103.999 169.039 103.909 169.173 103.954C169.306 103.999 169.396 104.132 169.351 104.266C165.606 118.086 152.053 126.2 151.92 126.245C151.831 126.289 151.786 126.289 151.786 126.289Z" fill="#CEC784"/>
<path d="M181.343 112.781C181.299 112.781 181.254 112.781 181.209 112.736C181.12 112.647 181.076 112.513 181.165 112.38C181.21 112.29 187.629 104.132 187.451 95.3495C187.451 95.2158 187.54 95.082 187.674 95.082C187.808 95.082 187.897 95.1712 187.897 95.3049C188.075 104.266 181.566 112.558 181.522 112.647C181.477 112.736 181.432 112.781 181.343 112.781Z" fill="#CEC784"/>
<g opacity="0.62">
<path d="M190.26 86.969C189.591 91.6054 189.948 96.2865 179.56 101.324C169.173 106.362 163.823 103.776 159.588 101.012C155.353 98.248 151.786 95.1719 143.182 96.019C134.578 96.866 130.209 102.84 127.935 106.54C125.661 110.285 122.496 115.59 117.369 116.482C111.975 117.418 104.084 117.507 93.6075 112.782C89.1048 110.731 86.5191 107.655 85.137 104.4C79.921 102.305 75.1954 103.241 73.1893 103.821C72.8326 103.954 72.476 104.088 72.1193 104.177C70.559 104.668 69.1769 104.891 67.9286 104.935C68.954 105.604 70.0686 106.406 71.2722 107.298C75.7304 107.343 81.6151 107.788 84.6021 109.705C89.5952 112.915 101.855 118.889 84.7358 117.106C85.2708 117.463 85.8058 117.775 86.3854 118.131C90.1302 119.201 96.327 120.494 103.192 119.959C114.07 119.157 137.832 116.348 117.726 128.742C118.261 128.786 118.841 128.831 119.376 128.92C123.12 127.85 129.228 125.933 133.954 123.57C138.635 121.252 138.902 125.086 136.272 128.742C140.284 128.34 144.519 127.672 148.978 126.736C156.779 125.086 163.511 122.723 169.307 119.915C168.504 118.533 168.772 115.813 176.306 107.253C184.776 97.6685 183.082 106.005 180.942 112.915C181.834 112.247 182.681 111.578 183.528 110.909C185.757 106.941 187.986 102.751 188.61 101.28C189.725 98.6047 192.979 91.8729 196.145 96.7769C202.386 87.1919 204.303 78.3648 204.838 75.0212C192.088 73.1488 190.884 82.4217 190.26 86.969Z" fill="#E2DCB2"/>
</g>
<path d="M94.9 57.2296C107.695 65.0313 100.383 83.1759 97.129 90.3535C93.8746 97.5311 90.2635 107.874 102.702 110.95C115.14 113.982 117.458 110.593 127.444 98.7794C137.431 86.9653 154.505 90.8439 161.549 95.837C168.593 100.83 169.707 99.6264 177.732 96.8178C185.757 94.0092 182.948 85.4941 185.757 78.4057C188.432 71.6294 195.565 69.3557 201.494 69.8015C193.425 63.783 180.095 47.0205 172.338 41.537C163.422 35.2064 149.913 30.1687 129.941 34.0473C113.802 37.2126 98.8232 48.4917 91.0214 56.0705C92.4034 56.1597 93.6963 56.5163 94.9 57.2296Z" fill="#156302"/>
<path d="M109.835 112.244C107.829 112.244 105.51 111.887 102.702 111.174C98.6895 110.193 96.0146 108.366 94.7218 105.735C92.5373 101.233 94.7664 95.0803 96.9509 90.2655C104.262 74.1271 103.549 62.7589 94.811 57.4537C93.6964 56.7404 92.4036 56.3838 91.1107 56.3838C91.0216 56.3838 90.9324 56.3391 90.8878 56.25C90.8432 56.1608 90.8878 56.0717 90.9324 55.9825C95.3013 51.7473 111.083 37.5704 129.986 33.8702C146.614 30.6157 160.97 33.1569 172.561 41.3598C176.528 44.1685 182.012 50.0086 187.362 55.6258C192.489 61.0648 197.794 66.682 201.761 69.6244C201.851 69.669 201.895 69.8027 201.851 69.8919C201.806 69.981 201.717 70.0702 201.583 70.0702C196.144 69.669 188.788 71.6305 186.069 78.5406C185.133 80.8589 184.821 83.3554 184.553 85.7628C183.974 90.5776 183.394 95.1249 177.911 97.0419C177.108 97.3094 176.395 97.5769 175.726 97.7998C169.618 99.9843 167.969 100.608 161.505 96.0165C154.684 91.2018 137.743 87.0557 127.712 98.9143L126.642 100.163C119.643 108.41 116.388 112.244 109.835 112.244ZM95.0338 57.0524C106.357 63.9625 102.524 79.031 97.3521 90.4884C95.2122 95.2141 93.0277 101.188 95.123 105.557C96.3267 108.053 98.9124 109.792 102.791 110.773C114.605 113.671 117.057 110.773 126.196 99.9397L127.266 98.6914C137.475 86.6099 154.728 90.8005 161.683 95.7045C167.969 100.118 169.395 99.6276 175.459 97.4431C176.127 97.2202 176.841 96.9527 177.643 96.6852C182.859 94.8574 183.394 90.6668 183.974 85.8074C184.286 83.3554 184.598 80.8589 185.534 78.4515C188.253 71.6306 195.208 69.4906 200.736 69.669C196.813 66.5929 191.82 61.2431 186.916 56.1162C181.611 50.499 176.127 44.7034 172.204 41.8948C160.702 33.7364 146.525 31.2399 129.986 34.4497C115.318 37.3029 100.607 47.3783 91.6011 56.0271C92.8494 56.0271 94.0085 56.3837 95.0338 57.0524Z" fill="#204400"/>
<path d="M149.022 34.0042C136.539 31.7752 118.083 36.7237 108.453 45.0158C98.8234 53.2634 100.785 56.072 103.059 62.2242C105.332 68.3765 108.275 73.9491 102.39 93.4312C96.5498 112.869 115.229 111.977 123.521 99.6725C131.814 87.3681 145.901 86.0752 161.817 90.1321C177.732 94.189 180.987 90.3996 184.509 79.388C188.031 68.3319 198.284 70.5163 188.61 60.5747C180.318 52.0151 173.051 38.2841 149.022 34.0042Z" fill="#238208"/>
<path opacity="0.5" d="M136.896 62.8934C128.871 62.8934 121.292 62.2246 115.853 60.8872C105.154 58.3015 101.364 54.7796 100.116 52.283C99.0461 50.1877 99.6257 48.6274 99.6703 48.5828C99.7149 48.449 99.8486 48.4044 99.9823 48.449C100.116 48.4936 100.161 48.6273 100.116 48.7611C100.116 48.7611 99.5811 50.1877 100.562 52.1047C101.81 54.4675 105.466 57.8557 115.987 60.4414C123.923 62.3584 136.985 62.9379 149.245 61.868C163.02 60.6643 173.274 57.6774 177.42 53.665C179.159 51.971 179.827 50.0539 179.382 48.0032C179.337 47.8695 179.426 47.7357 179.56 47.7357C179.694 47.6911 179.827 47.7803 179.827 47.914C180.318 50.1431 179.605 52.1938 177.688 54.0217C171.446 60.0847 153.212 62.8934 136.896 62.8934Z" fill="#204400"/>
<path opacity="0.5" d="M135.603 42.608C127.623 42.608 124.146 40.9139 122.674 39.3535C121.426 38.0607 121.56 36.9015 121.56 36.8124C121.56 36.6786 121.694 36.5895 121.827 36.5895C121.961 36.5895 122.05 36.7232 122.05 36.857C122.05 36.9015 121.961 37.8824 123.076 38.9969C124.725 40.691 128.96 42.608 139.704 41.9392C149.914 41.3151 153.48 38.9077 154.728 36.9907C155.709 35.4304 155.219 34.1375 155.174 34.0929C155.13 33.9592 155.174 33.8255 155.308 33.7809C155.442 33.7363 155.575 33.7809 155.62 33.9146C155.665 33.9592 156.244 35.475 155.13 37.2582C153.881 39.2644 150.181 41.8055 139.749 42.4742C138.189 42.5634 136.851 42.608 135.603 42.608Z" fill="#204400"/>
<path opacity="0.5" d="M126.464 91.2456C105.511 91.2456 99.715 84.6921 99.4475 84.3355C99.3584 84.2463 99.3583 84.068 99.4921 83.9788C99.5812 83.8897 99.7596 83.8897 99.8487 84.0234C99.9379 84.1126 108.275 93.5638 140.685 89.9081C168.816 86.7429 187.674 70.9611 191.062 63.6052C191.686 62.3123 191.775 61.287 191.374 60.6628C191.285 60.5291 191.33 60.3953 191.463 60.3062C191.553 60.217 191.731 60.2616 191.82 60.3953C192.31 61.1532 192.221 62.3569 191.553 63.8281C188.075 71.2286 169.084 87.1887 140.774 90.3985C135.336 90.9781 130.61 91.2456 126.464 91.2456Z" fill="#204400"/>
<path opacity="0.5" d="M158.384 61.1992C158.295 61.1992 158.161 61.11 158.161 61.0208C156.066 52.4166 149.557 40.7809 149.512 40.6918C149.467 40.558 149.468 40.4243 149.601 40.3797C149.735 40.3351 149.869 40.3351 149.913 40.4689C149.958 40.6026 156.511 52.2829 158.651 60.9317C158.696 61.0654 158.607 61.1992 158.473 61.2437C158.428 61.1992 158.428 61.1992 158.384 61.1992Z" fill="#204400"/>
<path opacity="0.5" d="M115.853 60.886C115.809 60.886 115.809 60.886 115.764 60.886C115.63 60.8414 115.541 60.7077 115.586 60.574C118.662 50.6769 125.215 40.869 125.26 40.7353C125.349 40.6461 125.483 40.6015 125.617 40.6907C125.706 40.7799 125.75 40.9136 125.661 41.0473C125.617 41.1365 119.063 50.8998 116.032 60.7523C116.076 60.8414 115.987 60.886 115.853 60.886Z" fill="#204400"/>
<path opacity="0.5" d="M107.249 112.067C107.115 112.067 107.026 111.977 107.026 111.844C106.536 102.927 109.389 89.1518 109.434 89.0181C109.478 88.8843 109.612 88.7951 109.701 88.8397C109.835 88.8843 109.924 89.018 109.88 89.1072C109.835 89.2409 107.026 102.927 107.517 111.799C107.517 111.933 107.428 112.067 107.249 112.067C107.294 112.067 107.294 112.067 107.249 112.067Z" fill="#204400"/>
<path opacity="0.5" d="M176.305 97.5773C176.172 97.5773 176.083 97.4882 176.083 97.3544C175.236 92.4059 170.332 81.3497 170.287 81.216C170.242 81.0822 170.287 80.9485 170.421 80.9039C170.554 80.8593 170.688 80.9039 170.733 81.0377C170.777 81.1714 175.681 92.2722 176.573 97.2653C176.573 97.4436 176.484 97.5327 176.305 97.5773Z" fill="#204400"/>
<path opacity="0.5" d="M136.361 90.8006C136.227 90.8006 136.138 90.7114 136.138 90.5777C134.889 78.1395 135.424 62.7589 135.469 62.6252C135.469 62.4914 135.603 62.3577 135.737 62.4023C135.87 62.4023 135.959 62.536 135.959 62.6698C135.959 62.8035 135.38 78.1841 136.628 90.5777C136.628 90.6669 136.539 90.8006 136.361 90.8006Z" fill="#204400"/>
<path opacity="0.5" d="M188.61 67.9301C188.521 67.9301 188.387 67.8409 188.387 67.7518C186.158 58.7909 178.891 52.2821 178.802 52.2375C178.713 52.1483 178.713 52.0146 178.802 51.8808C178.891 51.7917 179.025 51.7917 179.159 51.8808C179.248 51.9254 186.604 58.568 188.878 67.6626C188.922 67.7964 188.833 67.9301 188.699 67.9747C188.655 67.9301 188.61 67.9301 188.61 67.9301Z" fill="#204400"/>
<path opacity="0.5" d="M97.3076 59.281C97.263 59.281 97.2184 59.281 97.1738 59.2364C97.0401 59.1473 97.0401 59.0135 97.0846 58.8798C98.8233 56.2049 101.32 53.7975 101.32 53.7529C101.409 53.6637 101.587 53.6637 101.677 53.7529C101.766 53.8421 101.766 54.0204 101.677 54.1096C101.632 54.1541 99.2245 56.5169 97.4859 59.1472C97.4859 59.2364 97.3967 59.281 97.3076 59.281Z" fill="#204400"/>
<path opacity="0.15" d="M137.654 79.5216C137.52 72.8344 137.163 64.6315 141.711 64.1411C146.258 63.6507 162.53 64.364 173.408 58.2118C184.33 52.0595 189.68 65.8351 183.171 71.3632C176.662 76.8913 157.715 84.916 142.156 86.5655C138.456 86.9667 137.698 83.5339 137.654 79.5216Z" fill="#FAFF8D"/>
<path opacity="0.15" d="M106.625 66.9038C105.466 62.6686 104.441 59.3696 110.593 60.93C116.745 62.4903 121.872 63.7386 125.527 64.0506C129.183 64.3627 134.132 64.6748 133.953 75.731C133.82 86.7871 129.451 89.5512 117.191 87.6787C104.931 85.8063 108.23 83.3098 107.918 78.495C107.606 73.7248 107.561 70.292 106.625 66.9038Z" fill="#FAFF8D"/>
<path opacity="0.15" d="M138.278 44.2575C132.705 44.6141 126.018 41.4934 121.738 49.7855C117.458 58.0777 115.408 61.4213 135.514 60.9755C155.62 60.5297 156.021 58.3897 153.168 50.7663C150.359 43.0984 144.519 43.8562 138.278 44.2575Z" fill="#FAFF8D"/>
<path opacity="0.15" d="M156.288 39.6207C153.614 41.8944 155.887 53.4855 160.122 57.0966C164.358 60.7077 175.458 54.2434 176.306 51.7468C177.197 49.2057 160.702 35.8759 156.288 39.6207Z" fill="#FAFF8D"/>
<path opacity="0.15" d="M115.229 42.3406C109.79 46.353 103.103 52.416 107.205 55.2692C111.306 58.1224 114.873 57.4537 120.668 47.5566C126.508 37.6596 118.35 40.0224 115.229 42.3406Z" fill="#FAFF8D"/>
<path opacity="0.15" d="M140.551 34.0038C131.947 34.093 122.764 40.7802 136.361 40.9139C149.958 41.0031 160.791 33.7363 140.551 34.0038Z" fill="#FAFF8D"/>
<path opacity="0.15" d="M121.738 92.1378C115.586 92.004 110.414 93.3414 109.657 99.2262C108.899 105.111 112.866 106.225 118.216 101.946C123.566 97.6658 129.272 92.2715 121.738 92.1378Z" fill="#FAFF8D"/>
<path opacity="0.15" d="M180.095 77.113C176.172 80.0554 172.873 81.9724 174.344 85.1377C175.815 88.303 177.732 88.303 180.675 81.7941C183.572 75.3298 184.464 73.8586 180.095 77.113Z" fill="#FAFF8D"/>
<path opacity="0.15" d="M172.16 88.5268C171.223 86.7881 170.154 82.9095 161.951 85.7181C153.748 88.5267 163.021 89.7305 166.453 90.1317C169.841 90.4883 173.319 90.7113 172.16 88.5268Z" fill="#FAFF8D"/>
<path opacity="0.15" d="M105.956 100.03C107.428 93.7436 107.65 90.8458 105.733 90.9795C103.816 91.1133 104.039 108.143 105.956 100.03Z" fill="#FAFF8D"/>
<path opacity="0.36" d="M193.737 62.6703C184.419 74.3952 152.856 87.8588 119.866 73.5036C99.5811 64.6765 101.543 47.9585 108.72 42.6533C101.409 47.0223 95.2567 52.1045 91.1107 56.1169C92.4481 56.1169 93.741 56.4735 94.9447 57.2314C107.739 65.0331 100.428 83.1777 97.1737 90.3553C93.9193 97.5329 90.3082 107.876 102.746 110.952C115.185 113.983 117.503 110.595 127.489 98.7812C137.475 86.9671 154.55 90.8457 161.594 95.8388C168.638 100.832 169.752 99.6283 177.777 96.8196C185.801 94.011 182.993 85.496 185.801 78.4075C188.476 71.6312 195.609 69.3575 201.539 69.8033C199.265 68.1538 196.59 65.6127 193.737 62.6703Z" fill="#156302"/>
<path opacity="0.32" d="M167.3 40.3341C159.275 35.7423 142.022 31.7299 124.279 37.6593C106.536 43.6332 133.819 55.1797 154.282 57.275C174.745 59.3704 186.158 51.1674 167.3 40.3341Z" fill="#FAFF8D"/>
<path d="M188.61 89.0622C188.61 89.0622 207.869 95.8386 198.195 136.318C196.902 141.757 202.252 147.419 213.932 147.419C225.613 147.419 235.688 137.344 235.51 129.408C235.332 121.473 232.924 84.7379 202.698 73.5479C202.743 73.5479 187.986 71.8093 188.61 89.0622Z" fill="#C9C57D"/>
<path d="M213.977 147.687C207.334 147.687 202.074 145.814 199.443 142.515C197.972 140.643 197.482 138.459 197.972 136.319C200.736 124.817 202.742 108.812 196.858 97.7112C193.336 91.1132 188.61 89.3745 188.521 89.3299C188.432 89.2853 188.343 89.1962 188.343 89.107C188.12 83.4898 189.502 79.2545 192.444 76.5351C196.679 72.6565 202.653 73.3252 202.742 73.3252H202.787C233.28 84.6489 235.599 122.053 235.733 129.409C235.822 132.975 233.905 136.987 230.516 140.42C226.147 144.967 219.906 147.687 213.977 147.687ZM188.878 88.9287C189.769 89.2853 194.004 91.2915 197.303 97.4437C203.322 108.678 201.271 124.861 198.463 136.408C197.972 138.414 198.463 140.465 199.845 142.203C202.341 145.369 207.513 147.196 213.977 147.196C219.817 147.196 225.88 144.522 230.249 140.108C233.548 136.764 235.376 132.841 235.331 129.453C235.198 122.142 232.924 85.0501 202.698 73.8156C202.252 73.771 196.724 73.3252 192.801 76.8917C190.037 79.4774 188.699 83.5343 188.878 88.9287Z" fill="#9B954B"/>
<path opacity="0.5" d="M230.517 134.713C228.555 129.765 228.421 132.752 222.269 134.223C216.117 135.694 220.575 135.07 215.359 134.134C210.143 133.198 209.251 147.107 208.583 121.116C207.914 95.1698 192.979 89.7309 193.336 82.2858C193.648 74.7961 202.743 73.5033 202.743 73.5033C202.743 73.5033 187.986 71.72 188.61 89.0176C188.61 89.0176 207.869 95.7939 198.195 136.274C196.902 141.713 202.252 147.375 213.932 147.375C222.626 147.375 230.383 141.846 233.771 135.739C232.523 136.853 231.364 136.898 230.517 134.713Z" fill="#C9C57D"/>
<g opacity="0.72">
<path opacity="0.52" d="M214.958 103.062C215.448 102.839 216.34 103.731 216.875 105.024C217.454 106.316 217.499 107.565 216.964 107.788C216.473 108.011 215.582 107.119 215.047 105.826C214.467 104.533 214.423 103.285 214.958 103.062Z" fill="#91884A"/>
<path opacity="0.72" d="M217.9 96.8652C218.479 96.5977 219.237 97.1327 219.594 97.9798C219.951 98.8268 219.817 99.7185 219.237 99.9859C218.658 100.253 217.9 99.7185 217.543 98.8714C217.187 98.0244 217.365 97.1327 217.9 96.8652Z" fill="#91884A"/>
<path opacity="0.49" d="M213.263 94.2351C213.531 94.1013 214.021 94.5471 214.333 95.2604C214.645 95.9291 214.645 96.5979 214.333 96.7316C214.066 96.8654 213.575 96.4196 213.263 95.7063C212.996 94.993 212.996 94.3688 213.263 94.2351Z" fill="#91884A"/>
<path opacity="0.72" d="M221.154 117.462C221.422 117.328 221.912 117.774 222.224 118.488C222.536 119.156 222.536 119.825 222.224 119.959C221.957 120.092 221.466 119.647 221.154 118.933C220.842 118.265 220.842 117.596 221.154 117.462Z" fill="#91884A"/>
<path opacity="0.64" d="M218.881 92.1393C219.059 92.0501 219.326 92.273 219.505 92.6297C219.639 92.9863 219.639 93.2984 219.416 93.3876C219.237 93.4767 218.97 93.2538 218.792 92.8972C218.658 92.5851 218.702 92.2285 218.881 92.1393Z" fill="#91884A"/>
<path opacity="0.76" d="M221.645 103.73C221.957 103.596 222.313 103.775 222.447 104.131C222.581 104.488 222.447 104.844 222.18 104.978C221.868 105.112 221.511 104.934 221.377 104.577C221.199 104.265 221.333 103.864 221.645 103.73Z" fill="#91884A"/>
<path opacity="0.23" d="M222.715 99.2287C222.893 99.1395 223.116 99.2733 223.205 99.5408C223.294 99.7637 223.25 100.031 223.071 100.076C222.893 100.165 222.67 100.031 222.581 99.7637C222.492 99.5408 222.536 99.3178 222.715 99.2287Z" fill="#91884A"/>
<path opacity="0.39" d="M220.486 108.546C220.842 108.412 221.243 108.635 221.466 109.125C221.645 109.571 221.556 110.061 221.199 110.195C220.842 110.329 220.441 110.106 220.218 109.615C220.04 109.214 220.174 108.724 220.486 108.546Z" fill="#91884A"/>
<path d="M226.192 109.17C226.415 109.081 226.682 109.259 226.772 109.527C226.905 109.794 226.816 110.106 226.638 110.196C226.415 110.285 226.147 110.106 226.058 109.839C225.925 109.571 225.969 109.259 226.192 109.17Z" fill="#91884A"/>
<path opacity="0.33" d="M211.837 100.209C212.104 100.075 212.416 100.209 212.55 100.477C212.684 100.744 212.55 101.056 212.238 101.145C211.971 101.279 211.659 101.145 211.525 100.878C211.436 100.655 211.569 100.343 211.837 100.209Z" fill="#91884A"/>
<path opacity="0.77" d="M215.76 111.978C216.072 111.845 216.518 112.246 216.741 112.826C217.008 113.405 216.964 114.029 216.696 114.118C216.384 114.252 215.938 113.851 215.715 113.271C215.448 112.692 215.448 112.068 215.76 111.978Z" fill="#91884A"/>
<path opacity="0.77" d="M214.378 86.8773C214.69 86.7436 215.091 87.0111 215.27 87.4569C215.448 87.9027 215.359 88.3931 215.047 88.4823C214.735 88.616 214.333 88.3485 214.155 87.9027C213.977 87.5015 214.066 87.0111 214.378 86.8773Z" fill="#91884A"/>
<path d="M222.938 114.519C223.071 114.475 223.294 114.608 223.428 114.876C223.562 115.143 223.517 115.411 223.383 115.5C223.25 115.545 223.027 115.411 222.893 115.143C222.759 114.876 222.804 114.608 222.938 114.519Z" fill="#91884A"/>
<path opacity="0.39" d="M209.786 89.6422C209.92 89.5977 210.143 89.7314 210.277 89.9989C210.41 90.2664 210.366 90.5339 210.232 90.623C210.098 90.6676 209.875 90.5339 209.742 90.2664C209.608 89.9543 209.608 89.6868 209.786 89.6422Z" fill="#91884A"/>
<path opacity="0.23" d="M216.785 119.646C216.919 119.601 217.142 119.735 217.276 120.002C217.409 120.27 217.365 120.537 217.231 120.626C217.097 120.671 216.874 120.537 216.741 120.27C216.607 119.958 216.652 119.69 216.785 119.646Z" fill="#91884A"/>
<path d="M218.479 86.4777C218.613 86.4331 218.836 86.5668 218.97 86.8343C219.104 87.1018 219.059 87.3693 218.925 87.4584C218.791 87.503 218.569 87.3693 218.435 87.1018C218.301 86.7898 218.346 86.5223 218.479 86.4777Z" fill="#91884A"/>
<path opacity="0.27" d="M225.39 120.938C225.523 120.894 225.746 121.027 225.88 121.295C226.014 121.562 225.969 121.83 225.835 121.919C225.702 121.964 225.479 121.83 225.345 121.562C225.211 121.25 225.211 120.983 225.39 120.938Z" fill="#91884A"/>
<path opacity="0.27" d="M211.079 106.406C211.391 106.272 211.837 106.495 212.015 106.941C212.194 107.387 212.104 107.833 211.748 107.967C211.436 108.1 210.99 107.877 210.812 107.432C210.633 107.03 210.767 106.585 211.079 106.406Z" fill="#91884A"/>
</g>
<path opacity="0.5" d="M207.423 141.892C203.812 144.478 200.959 146.618 202.43 121.207C203.901 95.7954 190.081 87.4141 190.081 87.4141C189.502 85.8092 189.948 82.3318 190.572 79.3003C189.279 81.5739 188.476 84.6946 188.61 89.019C188.61 89.019 207.869 95.7954 198.195 136.275C196.902 141.714 202.252 147.376 213.932 147.376C215.582 147.376 217.187 147.198 218.747 146.796C214.601 143.72 209.43 140.466 207.423 141.892Z" fill="#C9C57D"/>
<path d="M228.421 132.753C231.007 133.511 230.784 146.039 223.027 145.414C215.27 144.835 224.275 131.55 228.421 132.753Z" fill="#CCE3A7"/>
<path d="M223.562 145.726C223.384 145.726 223.205 145.726 223.027 145.681C221.467 145.547 220.441 144.923 219.995 143.809C219.104 141.535 220.976 137.746 223.294 135.205C225.211 133.109 227.173 132.128 228.51 132.53C230.026 132.975 230.472 136.364 229.937 139.217C229.179 143.318 226.816 145.726 223.562 145.726ZM227.842 132.931C226.683 132.931 225.122 133.867 223.607 135.561C221.422 137.924 219.594 141.58 220.397 143.63C220.753 144.567 221.645 145.102 223.027 145.191C227.842 145.547 229.135 140.643 229.447 139.128C230.026 136.007 229.313 133.243 228.332 132.975C228.198 132.931 228.02 132.931 227.842 132.931Z" fill="#BFB660"/>
<path d="M223.384 134.267C225.969 135.114 225.746 149.113 218.034 148.4C210.321 147.686 219.282 132.885 223.384 134.267Z" fill="#CCE3A7"/>
<path d="M218.524 148.667C218.346 148.667 218.168 148.667 218.034 148.622C216.518 148.488 215.493 147.775 215.047 146.616C214.021 143.897 216.34 138.993 219.104 136.095C220.753 134.356 222.314 133.643 223.473 134C225.078 134.535 225.479 138.681 224.766 142.069C223.606 147.82 220.307 148.667 218.524 148.667ZM222.804 134.401C221.868 134.401 220.664 135.114 219.416 136.407C216.786 139.126 214.512 143.897 215.448 146.393C215.805 147.418 216.696 147.998 218.034 148.087C222.447 148.488 223.874 143.897 224.275 141.935C225.033 138.324 224.364 134.802 223.294 134.445C223.161 134.445 222.982 134.401 222.804 134.401Z" fill="#BFB660"/>
<path d="M216.384 134.804C219.416 135.651 219.148 149.783 210.098 149.07C201.093 148.356 211.569 133.422 216.384 134.804Z" fill="#CCE3A7"/>
<path d="M210.633 149.337C210.41 149.337 210.232 149.337 210.098 149.337C208.27 149.203 207.067 148.49 206.576 147.241C205.551 144.7 207.691 140.643 210.098 137.969C212.416 135.383 214.779 134.135 216.429 134.625C217.989 135.071 218.747 138.414 218.123 141.981C216.964 148.534 212.595 149.337 210.633 149.337ZM215.715 134.937C214.289 134.937 212.327 136.141 210.455 138.236C208.047 140.911 206.086 144.745 207.022 147.019C207.468 148.088 208.493 148.713 210.143 148.846C215.894 149.292 217.365 143.586 217.677 141.847C218.301 138.37 217.499 135.383 216.34 135.071C216.161 134.982 215.938 134.937 215.715 134.937Z" fill="#BFB660"/>
<path opacity="0.2" d="M223.161 90.9793C219.014 82.0631 208.716 77.2929 204.838 80.5473C200.959 83.8018 211.436 88.8394 215.359 100.029C219.327 111.219 233.28 117.149 229.892 105.736C226.504 94.2784 225.3 95.6158 223.161 90.9793Z" fill="#C9C57D"/>
<path d="M217.008 141.67C217.543 138.014 216.652 134.537 214.557 135.83C212.461 137.123 211.614 139.753 213.085 142.561C214.512 145.37 216.161 147.064 217.008 141.67Z" fill="#C9C57D"/>
<path d="M223.963 139.885C224.141 136.72 223.606 133.599 220.931 136.051C218.702 138.102 220.931 147.464 222.403 145.458C223.294 144.299 223.874 141.936 223.963 139.885Z" fill="#C9C57D"/>
<path d="M228.867 138.592C229.224 135.872 229.045 132.885 226.727 133.732C223.428 134.936 225.925 143.54 227.173 142.515C227.931 141.891 228.778 139.528 228.867 138.592Z" fill="#C9C57D"/>
<path d="M117.324 116.481C122.451 115.59 125.617 110.24 127.89 106.54C130.164 102.795 134.533 96.8211 143.137 96.0187C151.741 95.1716 155.308 98.2923 159.543 101.012C163.778 103.776 169.128 106.362 179.515 101.324C189.903 96.2862 189.591 91.6497 190.215 86.9687C190.884 82.3322 192.087 72.7472 205.462 75.0209C208.404 75.5113 208.404 70.6519 202.296 69.894C196.189 69.1807 188.521 71.3652 185.712 78.409C182.904 85.4529 185.712 94.0125 177.687 96.8212C169.663 99.6298 168.548 100.833 161.504 95.8404C154.461 90.8472 137.386 86.9687 127.4 98.7827C117.414 110.597 115.095 114.03 102.657 110.953C90.219 107.922 93.83 97.5344 97.0845 90.3568C100.339 83.1792 107.65 65.0347 94.8554 57.2329C82.0606 49.4312 60.8845 84.7842 60.5278 94.3246C60.1712 103.865 65.0305 106.941 73.5455 103.642C73.5455 103.642 66.8583 102.394 71.9406 89.064C77.0675 75.7342 83.5317 63.2068 90.0852 65.2576C96.6832 67.3083 86.9199 86.2108 84.8692 91.9172C82.8184 97.6236 83.0413 108.011 93.518 112.737C104.039 117.551 111.975 117.462 117.324 116.481Z" fill="#B1C441"/>
<path d="M111.395 117.238C105.689 117.238 99.7594 115.812 93.518 113.003C82.3727 107.965 82.9076 96.9539 84.7355 91.8717C85.1367 90.8017 85.7609 89.3305 86.5188 87.5473C89.1936 81.3505 93.6072 70.963 91.7793 66.9507C91.4227 66.1928 90.8877 65.7024 90.1298 65.4795C84.8693 63.83 79.0291 71.5426 72.2973 89.1522C69.6224 96.0623 70.2466 99.6288 71.2273 101.367C72.2081 103.106 73.6793 103.374 73.6793 103.418C73.7685 103.418 73.8576 103.507 73.8576 103.641C73.8576 103.73 73.813 103.864 73.7239 103.909C69.3103 105.603 65.8776 105.647 63.5593 103.998C61.2411 102.348 60.1712 99.0938 60.3495 94.3682C60.617 86.834 73.3227 63.9637 85.2705 57.544C89.0153 55.5379 92.3143 55.3595 95.0784 57.0536C106.402 63.9637 102.568 79.0322 97.3966 90.4896C95.2567 95.2152 93.0722 101.189 95.1675 105.558C96.3712 108.055 98.9569 109.793 102.835 110.774C114.65 113.672 117.102 110.774 126.241 99.9409L127.311 98.6926C132.928 92.0054 140.373 90.7571 145.634 90.8463C152.588 90.98 158.651 93.5657 161.727 95.7502C168.013 100.164 169.44 99.6734 175.503 97.4889C176.172 97.266 176.885 96.9985 177.688 96.731C182.904 94.9032 183.439 90.7125 184.018 85.8531C184.33 83.4012 184.642 80.9046 185.578 78.4973C188.387 71.4534 196.055 69.046 202.386 69.8039C204.927 70.116 206.844 71.2305 207.468 72.7463C207.78 73.5041 207.735 74.262 207.29 74.797C206.888 75.2874 206.264 75.5103 205.462 75.3765C200.959 74.6187 197.482 75.1536 195.03 76.9369C191.552 79.5226 190.884 84.2036 190.482 86.9677V87.1015C190.438 87.5027 190.393 87.8593 190.349 88.2605C189.814 92.5403 189.279 96.9539 179.649 101.635C169.217 106.673 163.734 104.132 159.454 101.278C159.053 101.011 158.651 100.743 158.25 100.476C154.461 97.9347 150.894 95.5273 143.182 96.2852C133.909 97.1768 129.54 104.354 128.113 106.717L128.024 106.896C125.706 110.685 122.54 115.901 117.414 116.793C115.407 117.06 113.401 117.238 111.395 117.238ZM88.7032 64.8108C89.2382 64.8108 89.7286 64.8999 90.219 65.0337C91.1106 65.3012 91.7793 65.8807 92.1805 66.7724C94.0975 70.963 89.7732 81.0829 86.92 87.7701C86.1621 89.5088 85.538 91.0246 85.1813 92.05C83.3981 96.9985 82.8631 107.653 93.6964 112.557C102.078 116.347 109.835 117.55 117.324 116.258C122.273 115.366 125.349 110.284 127.623 106.583L127.712 106.405C129.183 103.998 133.641 96.6864 143.182 95.7502C151.072 94.9923 154.684 97.4443 158.562 100.03C158.963 100.297 159.365 100.565 159.721 100.832C163.912 103.597 169.262 106.093 179.471 101.145C188.877 96.5972 189.368 92.4958 189.903 88.1714C189.947 87.7702 189.992 87.3689 190.037 87.0123V86.8785C190.438 84.0253 191.107 79.2105 194.762 76.4911C197.303 74.6187 200.959 74.0391 205.551 74.8416C206.13 74.9308 206.621 74.797 206.933 74.4403C207.245 74.0391 207.29 73.4596 207.022 72.88C206.799 72.345 205.863 70.6509 202.341 70.2051C196.189 69.4472 188.744 71.7655 186.024 78.5864C185.088 80.9046 184.776 83.4012 184.508 85.8086C183.929 90.6234 183.349 95.1707 177.866 97.0877C177.063 97.3551 176.35 97.6226 175.681 97.8455C169.574 100.03 167.924 100.654 161.46 96.0623C158.428 93.9224 152.499 91.3813 145.634 91.2475C140.507 91.1584 133.195 92.4066 127.667 98.9155L126.597 100.164C117.547 110.908 114.783 114.162 102.702 111.175C98.6894 110.195 96.0146 108.367 94.7217 105.736C92.5372 101.234 94.7663 95.0815 96.9508 90.2667C104.262 74.1283 103.549 62.76 94.8109 57.4549C92.2252 55.8499 89.0599 56.0283 85.4934 57.9453C73.9022 64.1421 61.1074 87.1014 60.8399 94.3236C60.6616 98.8709 61.6869 101.992 63.8268 103.552C65.8776 105.023 68.9537 105.068 72.8768 103.641C72.2973 103.374 71.4057 102.794 70.7369 101.59C69.2212 98.9155 69.5778 94.6803 71.7623 88.9739C78.0483 72.7463 83.5764 64.8108 88.7032 64.8108Z" fill="#847D3A"/>
<path d="M85.8501 58.4352C82.8632 60.0847 81.5258 63.3391 84.6019 62.2246C87.678 61.1101 93.4735 60.1293 94.5435 67.396C95.6134 74.6628 90.13 88.1263 88.7033 92.7628C87.2767 97.3993 86.7864 105.825 93.3398 109.169C99.8933 112.512 95.881 109.793 94.3652 107.876C92.8494 105.959 91.9132 102.392 93.6965 96.4185C95.4798 90.4446 103.237 75.599 100.785 66.7273C98.3329 57.8111 91.512 55.2699 85.8501 58.4352Z" fill="#D4E24D"/>
<path d="M118.662 110.998C118.662 110.998 122.362 109.081 126.82 101.769C131.234 94.4578 141.086 91.8275 145.009 92.095C148.888 92.3625 156.155 93.165 163.912 99.1835C171.669 105.202 160.524 98.8714 154.728 96.3748C148.932 93.8783 137.163 92.4517 129.049 103.017C120.935 113.583 114.293 115.411 118.662 110.998Z" fill="#D4E24D"/>
<path d="M194.183 71.6312C190.349 73.0133 186.604 77.4268 186.024 83.1778C185.445 88.8842 185.623 92.0049 183.126 94.234C180.674 96.463 187.54 95.1702 188.61 88.2601C189.68 81.35 190.17 75.599 198.953 73.5482C207.691 71.4529 197.482 70.4721 194.183 71.6312Z" fill="#D4E24D"/>
<path d="M62.5342 90.3551C61.6872 93.7432 60.2159 101.411 65.0753 102.214C69.9347 103.016 66.0561 101.5 65.7441 99.1822C65.432 96.9085 66.1007 94.8132 66.6802 92.7625C67.2598 90.7117 63.3813 86.9223 62.5342 90.3551Z" fill="#D4E24D"/>
<path d="M91.066 58.1239C91.066 58.1239 96.9062 57.5443 99.4028 66.1485C101.944 74.7527 92.0023 95.7059 92.0023 95.7059C92.0023 95.7059 106.357 64.187 91.066 58.1239Z" fill="#FAFF8D"/>
<path d="M124.814 106.361C124.814 106.361 136.093 81.8413 161.193 98.4256C161.193 98.4256 139.214 84.3824 124.814 106.361Z" fill="#FAFF8D"/>
<path d="M186.871 87.2359C186.871 87.2359 185.355 75.511 194.673 72.3457C194.673 72.3903 188.476 74.9314 186.871 87.2359Z" fill="#FAFF8D"/>
<path d="M163.644 108.499C165.026 107.296 166.275 105.825 167.345 104.086C164.09 103.729 161.683 102.392 159.543 100.965C155.308 98.2012 151.741 95.1251 143.137 95.9721C134.533 96.8192 130.164 102.793 127.89 106.493C126.954 108.054 125.839 109.881 124.502 111.531C126.107 111.353 128.247 111.486 130.966 112.111C132.928 112.601 135.424 113.091 138.144 113.493C139.125 116.123 139.749 119.912 139.258 125.396C137.787 141.846 130.743 146.483 128.158 150.629C125.617 154.775 129.852 174.391 154.728 172.295C160.568 171.805 169.797 155.845 170.421 141.4C170.911 131.058 168.682 117.639 163.644 108.499Z" fill="#C9C57D"/>
<path d="M151.162 172.742C138.278 172.742 132.393 166.456 129.986 162.533C127.088 157.808 126.686 152.636 127.979 150.541C128.514 149.649 129.272 148.758 130.119 147.732C133.195 143.987 137.876 138.326 139.036 125.442C139.437 120.716 139.125 116.793 138.01 113.806C135.736 113.494 133.374 113.048 130.966 112.424C128.559 111.844 126.419 111.666 124.591 111.844C124.502 111.844 124.413 111.8 124.368 111.711C124.324 111.621 124.324 111.532 124.413 111.443C125.706 109.838 126.776 108.055 127.712 106.539L127.756 106.45C129.228 104.043 133.686 96.7312 143.226 95.795C151.117 95.0371 154.728 97.4891 158.607 100.075C159.008 100.342 159.409 100.61 159.766 100.877C161.906 102.259 164.313 103.597 167.478 103.953C167.568 103.953 167.612 103.998 167.657 104.087C167.701 104.176 167.701 104.265 167.657 104.31C166.676 105.915 165.428 107.386 164.046 108.634C168.638 117.105 171.268 129.989 170.733 141.535C170.421 148.223 168.281 155.801 164.804 162.31C161.549 168.463 157.715 172.386 154.817 172.653C153.48 172.698 152.276 172.742 151.162 172.742ZM125.929 111.265C127.444 111.265 129.183 111.488 131.055 111.933C133.507 112.513 135.915 113.003 138.233 113.315C138.322 113.315 138.411 113.405 138.411 113.449C139.571 116.525 139.972 120.582 139.526 125.442C138.367 138.504 133.641 144.21 130.52 148C129.673 149.025 128.96 149.917 128.425 150.764C127.355 152.458 127.489 157.406 130.431 162.221C132.794 166.1 138.545 172.207 151.206 172.207C152.321 172.207 153.524 172.163 154.728 172.074C160.568 171.583 169.574 155.623 170.198 141.402C170.644 131.95 168.682 118.13 163.466 108.59C163.422 108.501 163.421 108.367 163.511 108.278C164.848 107.119 166.007 105.737 166.988 104.265C163.912 103.864 161.549 102.527 159.454 101.189C159.053 100.922 158.651 100.654 158.25 100.387C154.461 97.8458 150.894 95.4384 143.182 96.1963C133.909 97.0879 129.54 104.265 128.113 106.628L128.069 106.717C127.221 108.144 126.241 109.749 125.082 111.22C125.349 111.265 125.617 111.265 125.929 111.265Z" fill="#9B954B"/>
<path d="M151.162 172.742C138.278 172.742 132.393 166.456 129.986 162.533C127.088 157.807 126.686 152.636 127.979 150.54C128.514 149.649 129.272 148.757 130.119 147.732C133.195 143.987 137.876 138.325 139.036 125.441C140.462 109.436 132.616 108.054 132.527 108.054C132.393 108.054 132.304 107.921 132.304 107.787C132.304 107.653 132.437 107.564 132.571 107.564C132.928 107.609 140.953 108.991 139.481 125.486C138.322 138.548 133.597 144.254 130.476 148.044C129.629 149.069 128.916 149.961 128.381 150.808C127.311 152.502 127.444 157.45 130.387 162.265C132.972 166.5 139.571 173.366 154.684 172.118C160.524 171.627 169.529 155.667 170.153 141.446C170.822 126.11 165.829 106.583 156.288 100.431C156.155 100.342 156.155 100.208 156.199 100.074C156.288 99.9406 156.422 99.9406 156.556 99.9852C166.275 106.227 171.312 125.976 170.644 141.446C169.975 155.89 160.747 172.073 154.728 172.564C153.48 172.697 152.276 172.742 151.162 172.742Z" fill="#9B954B"/>
<path opacity="0.5" d="M163.644 108.499C165.026 107.296 166.275 105.825 167.345 104.086C164.09 103.729 161.683 102.392 159.543 100.965C155.308 98.2012 151.741 95.1251 143.137 95.9721C134.533 96.8192 130.164 102.793 127.89 106.493C126.954 108.054 125.839 109.881 124.502 111.531C126.107 111.353 128.247 111.486 130.966 112.111C132.928 112.601 135.424 113.091 138.144 113.493C139.125 116.123 139.749 119.912 139.258 125.396C137.787 141.846 130.743 146.483 128.158 150.629C125.617 154.775 129.852 174.391 154.728 172.295C160.568 171.805 169.797 155.845 170.421 141.4C170.911 131.058 168.682 117.639 163.644 108.499ZM160.435 163.334C159.097 158.832 153.614 160.303 153.614 160.303C151.429 156.157 145.901 159.01 145.901 159.01C144.519 154.641 139.348 159.813 143.092 152.501C146.837 145.19 147.863 130.701 147.016 122.543C146.124 114.384 138.634 101.456 148.977 100.207C159.32 98.9591 165.695 111.843 167.969 124.014C173.006 151.164 161.772 167.837 160.435 163.334Z" fill="#C9C57D"/>
<path opacity="0.5" d="M139.66 158.966C139.66 158.966 134.042 163.022 132.705 160.883C128.693 154.507 134.355 151.164 139.66 132.663C144.965 114.161 136.494 108.277 136.361 102.748C136.227 97.2204 146.302 96.4179 146.302 96.4179C160.301 98.3349 163.644 108.499 163.644 108.499C165.026 107.296 166.275 105.825 167.345 104.086C164.09 103.729 161.683 102.392 159.543 100.965C155.308 98.2012 151.741 95.1251 143.137 95.9721C134.533 96.8192 130.164 102.793 127.89 106.493C126.954 108.054 125.839 109.881 124.502 111.531C126.107 111.353 128.247 111.486 130.966 112.111C132.928 112.601 135.424 113.091 138.144 113.493C139.125 116.123 139.749 119.912 139.258 125.396C137.787 141.846 130.743 146.483 128.158 150.629C125.617 154.775 129.852 174.391 154.728 172.295C155.531 172.206 156.422 171.85 157.358 171.225C157.403 170.958 157.403 170.646 157.448 170.289C158.072 164.494 139.66 158.966 139.66 158.966Z" fill="#C9C57D"/>
<path d="M158.384 161.195C160.702 162.176 160.39 168.328 156.244 171.939C152.053 175.55 148.353 174.436 147.506 170.914C146.704 167.347 154.015 159.278 158.384 161.195Z" fill="#CCE3A7"/>
<path d="M151.296 174.391C150.85 174.391 150.404 174.347 150.003 174.169C148.621 173.723 147.64 172.564 147.283 170.914C146.793 168.685 149.156 165.163 151.741 162.979C154.238 160.928 156.69 160.17 158.473 160.928C159.276 161.285 159.811 162.132 159.989 163.38C160.346 165.743 159.365 169.488 156.378 172.073C154.639 173.589 152.856 174.391 151.296 174.391ZM156.957 161.151C155.531 161.151 153.792 161.909 152.053 163.38C149.289 165.698 147.328 169.042 147.774 170.825C148.13 172.296 148.977 173.322 150.181 173.723C151.831 174.258 154.015 173.544 156.11 171.761C158.964 169.309 159.9 165.743 159.543 163.514C159.365 162.444 158.964 161.73 158.339 161.463C157.894 161.24 157.403 161.151 156.957 161.151Z" fill="#BFB660"/>
<path d="M152.053 159.545C154.594 161.372 154.238 167.346 150.359 170.735C146.481 174.123 142.914 175.951 140.73 170.735C138.545 165.518 148.041 156.647 152.053 159.545Z" fill="#CCE3A7"/>
<path d="M144.385 174.257C144.118 174.257 143.895 174.212 143.627 174.168C142.335 173.856 141.309 172.786 140.462 170.824C139.169 167.703 141.755 163.468 144.965 160.927C147.729 158.743 150.493 158.118 152.143 159.367C153.168 160.125 153.792 161.507 153.837 163.201C153.926 165.43 153.079 168.64 150.448 170.958C148.576 172.607 146.392 174.257 144.385 174.257ZM150.136 159.233C148.576 159.233 146.748 160.214 145.322 161.328C142.29 163.736 139.749 167.793 140.953 170.69C141.71 172.474 142.602 173.499 143.761 173.766C145.723 174.212 148.219 172.34 150.181 170.601C152.722 168.372 153.525 165.341 153.435 163.245C153.346 161.685 152.811 160.437 151.92 159.768C151.385 159.367 150.805 159.233 150.136 159.233Z" fill="#BFB660"/>
<path d="M144.653 158.12C146.882 159.279 145.946 164.941 143.895 168.819C141.844 172.743 139.749 174.169 135.603 170.647C131.457 167.125 133.597 163.826 136.361 161.196C139.125 158.566 142.335 156.872 144.653 158.12Z" fill="#CCE3A7"/>
<path d="M139.66 172.877C138.456 172.877 137.074 172.209 135.424 170.827C133.864 169.489 133.062 168.107 133.017 166.636C132.972 164.897 133.998 163.114 136.182 161.019C139.481 157.898 142.602 156.739 144.742 157.898C147.238 159.191 146.035 165.209 144.073 168.954C142.78 171.406 141.621 172.61 140.239 172.877C140.061 172.877 139.883 172.877 139.66 172.877ZM142.959 157.943C141.175 157.943 138.902 159.146 136.539 161.375C134.444 163.337 133.507 165.031 133.552 166.636C133.597 167.973 134.354 169.266 135.781 170.47C137.564 171.986 138.991 172.61 140.195 172.387C141.398 172.164 142.513 171.005 143.717 168.731C145.767 164.808 146.614 159.414 144.608 158.344C144.073 158.076 143.538 157.943 142.959 157.943Z" fill="#BFB660"/>
<path d="M143.895 158.966C142.112 158.075 142.023 160.259 141.8 164.048C141.577 167.838 142.78 169.175 143.895 166.5C144.965 163.826 146.124 160.081 143.895 158.966Z" fill="#C9C57D"/>
<path d="M150.76 160.304C149.646 160.616 148.933 161.329 149.022 163.38C149.111 165.431 148.398 168.73 148.264 169.8C148.13 170.914 151.964 168.952 152.633 165.208C153.346 161.418 151.83 159.947 150.76 160.304Z" fill="#C9C57D"/>
<path d="M157.76 162.132C155.977 161.597 155.62 163.336 155.531 165.788C155.442 168.24 154.149 171.896 155.531 170.915C156.913 169.889 160.524 162.935 157.76 162.132Z" fill="#C9C57D"/>
<path opacity="0.2" d="M163.6 113.45C159.81 106.897 154.817 103.375 152.811 107.476C150.805 111.578 157.982 122.143 156.065 133.467C154.104 144.791 165.784 149.873 167.389 140.422C168.994 131.015 166.408 118.354 163.6 113.45Z" fill="#C9C57D"/>
<g opacity="0.72">
<path opacity="0.52" d="M156.066 124.281C156.601 124.192 157.225 125.306 157.403 126.688C157.626 128.115 157.314 129.319 156.779 129.408C156.244 129.497 155.62 128.382 155.442 127C155.219 125.574 155.486 124.37 156.066 124.281Z" fill="#91884A"/>
<path opacity="0.72" d="M160.569 119.066C161.193 118.976 161.772 119.645 161.906 120.581C162.04 121.518 161.638 122.32 161.014 122.409C160.39 122.498 159.811 121.83 159.677 120.893C159.543 120.002 159.944 119.155 160.569 119.066Z" fill="#91884A"/>
<path opacity="0.49" d="M156.734 115.32C157.046 115.276 157.403 115.855 157.492 116.569C157.581 117.282 157.448 117.951 157.136 117.995C156.824 118.04 156.467 117.46 156.378 116.747C156.289 115.989 156.422 115.365 156.734 115.32Z" fill="#91884A"/>
<path opacity="0.72" d="M158.25 139.797C158.562 139.752 158.919 140.332 159.008 141.045C159.097 141.758 158.964 142.427 158.651 142.472C158.339 142.516 157.983 141.937 157.894 141.223C157.804 140.466 157.938 139.841 158.25 139.797Z" fill="#91884A"/>
<path opacity="0.64" d="M162.708 114.786C162.931 114.741 163.11 115.009 163.154 115.41C163.199 115.766 163.065 116.078 162.887 116.123C162.664 116.168 162.486 115.856 162.441 115.499C162.352 115.142 162.486 114.786 162.708 114.786Z" fill="#91884A"/>
<path opacity="0.76" d="M162.307 126.688C162.619 126.643 162.931 126.911 162.976 127.268C163.021 127.624 162.798 127.981 162.486 128.025C162.173 128.07 161.861 127.802 161.817 127.446C161.772 127.045 161.995 126.733 162.307 126.688Z" fill="#91884A"/>
<path opacity="0.23" d="M164.536 122.588C164.715 122.544 164.893 122.767 164.938 122.989C164.982 123.257 164.848 123.48 164.67 123.48C164.492 123.524 164.313 123.302 164.269 123.079C164.269 122.856 164.358 122.633 164.536 122.588Z" fill="#91884A"/>
<path opacity="0.39" d="M159.989 131.058C160.345 131.013 160.702 131.37 160.791 131.86C160.88 132.351 160.613 132.797 160.256 132.841C159.9 132.886 159.543 132.529 159.454 132.039C159.365 131.548 159.588 131.103 159.989 131.058Z" fill="#91884A"/>
<path d="M165.339 133.109C165.562 133.064 165.785 133.287 165.829 133.599C165.874 133.911 165.74 134.179 165.517 134.223C165.294 134.268 165.071 134.045 165.027 133.733C164.938 133.421 165.116 133.153 165.339 133.109Z" fill="#91884A"/>
<path opacity="0.33" d="M153.792 120.715C154.104 120.67 154.372 120.849 154.416 121.161C154.461 121.428 154.238 121.696 153.97 121.74C153.658 121.785 153.391 121.606 153.346 121.294C153.302 121.027 153.48 120.759 153.792 120.715Z" fill="#91884A"/>
<path opacity="0.77" d="M154.505 133.064C154.818 133.02 155.13 133.51 155.263 134.134C155.353 134.803 155.174 135.338 154.862 135.383C154.55 135.427 154.238 134.937 154.104 134.313C154.015 133.688 154.193 133.109 154.505 133.064Z" fill="#91884A"/>
<path opacity="0.77" d="M159.721 108.499C160.034 108.455 160.39 108.811 160.435 109.302C160.524 109.792 160.301 110.193 159.944 110.238C159.632 110.283 159.276 109.926 159.231 109.436C159.187 108.99 159.409 108.544 159.721 108.499Z" fill="#91884A"/>
<path d="M160.791 137.433C160.97 137.433 161.103 137.611 161.148 137.923C161.192 138.235 161.103 138.458 160.925 138.503C160.791 138.503 160.613 138.324 160.568 138.012C160.524 137.7 160.613 137.433 160.791 137.433Z" fill="#91884A"/>
<path opacity="0.39" d="M154.55 109.972C154.684 109.972 154.862 110.15 154.907 110.463C154.951 110.775 154.862 110.998 154.684 111.042C154.505 111.042 154.372 110.864 154.327 110.552C154.327 110.24 154.416 109.972 154.55 109.972Z" fill="#91884A"/>
<path opacity="0.23" d="M153.48 140.777C153.614 140.733 153.792 140.955 153.837 141.268C153.881 141.58 153.792 141.803 153.614 141.847C153.48 141.892 153.302 141.669 153.257 141.357C153.257 141.045 153.346 140.777 153.48 140.777Z" fill="#91884A"/>
<path d="M163.778 109.169C163.957 109.169 164.09 109.347 164.135 109.659C164.179 109.971 164.09 110.194 163.912 110.239C163.734 110.283 163.6 110.061 163.555 109.748C163.555 109.436 163.644 109.214 163.778 109.169Z" fill="#91884A"/>
<path opacity="0.27" d="M161.46 144.254C161.594 144.209 161.772 144.432 161.817 144.744C161.861 145.056 161.772 145.279 161.594 145.324C161.46 145.368 161.282 145.145 161.237 144.833C161.193 144.521 161.282 144.254 161.46 144.254Z" fill="#91884A"/>
<path opacity="0.27" d="M151.474 126.511C151.831 126.466 152.187 126.779 152.232 127.269C152.276 127.715 152.053 128.161 151.697 128.205C151.34 128.25 150.983 127.938 150.939 127.447C150.85 127.001 151.117 126.556 151.474 126.511Z" fill="#91884A"/>
</g>
<path opacity="0.51" d="M121.337 137.433C119.955 138.325 118.885 142.114 120.089 142.426C121.292 142.738 123.566 135.962 121.337 137.433Z" fill="#C9C57D"/>
<path opacity="0.51" d="M124.368 139.083C122.942 140.465 121.961 142.828 122.63 143.809C123.254 144.789 126.776 136.72 124.368 139.083Z" fill="#C9C57D"/>
<path opacity="0.51" d="M129.272 140.376C128.069 141.535 127.712 144.344 128.202 145.191C128.693 146.082 131.189 138.503 129.272 140.376Z" fill="#C9C57D"/>
<path d="M58.0317 75.2424C57.9425 75.2424 57.8979 75.1978 57.8533 75.1533C57.7641 75.0641 57.7641 74.8858 57.8978 74.7966C67.572 66.6828 66.8141 57.4099 66.8141 57.3207C66.8141 57.187 66.9033 57.0532 67.037 57.0532C67.1708 57.0532 67.3045 57.1424 67.3045 57.2761C67.3045 57.3653 68.107 66.9057 58.2099 75.1978C58.1654 75.2424 58.0762 75.2424 58.0317 75.2424Z" fill="#9B954B"/>
<path d="M92.4033 69.3573C87.7223 70.2489 76.4432 70.561 76.5769 53.0851C76.5769 53.0851 85.8499 49.0282 85.4932 38.7745C85.1811 28.5654 72.8322 24.6422 63.2472 25.9351C53.6622 27.2279 47.3316 9.35083 24.3277 29.3233C19.1117 33.8706 14.921 40.6915 8.81336 41.8506C2.70572 43.0097 0.521254 44.9713 0.788742 49.8307C1.01165 54.69 10.3291 61.511 18.0863 62.358C20.2708 62.5809 20.8949 62.5809 22.8565 66.0137C24.7735 69.4018 34.4031 87.5464 58.6553 74.5733C58.6553 74.5733 63.2025 95.0361 84.2449 94.6349C84.4233 93.6095 84.6907 92.6733 85.0028 91.8263C86.5186 87.6356 92.4479 75.777 92.4033 69.3573Z" fill="#C9C57D"/>
<path d="M83.621 94.9913C64.5848 94.9913 59.1905 77.6046 58.4772 75.0634C48.4464 80.3686 39.753 80.9927 32.5754 76.9358C26.8244 73.726 23.8821 68.4208 22.723 66.4592L22.5892 66.2363C20.7614 63.0265 20.2264 62.9373 18.1756 62.7144H18.0419C10.2848 61.8674 0.788932 54.9127 0.521444 49.9196C0.298538 45.0602 2.43847 42.8757 8.76901 41.672C12.9151 40.8696 16.1249 37.4368 19.5577 33.7811C21.0289 32.2208 22.5446 30.5713 24.1941 29.1447C40.2434 15.1907 48.3572 19.6043 54.8661 23.0816C57.8084 24.6866 60.3942 26.0686 63.2474 25.6673C70.1129 24.7311 77.2459 26.4698 81.4811 30.0363C84.2006 32.3545 85.6272 35.2523 85.7609 38.7296C86.073 48.3146 78.0037 52.5945 76.8446 53.174C76.8 59.6829 78.405 64.3193 81.5257 66.905C85.0922 69.892 89.8624 69.5353 92.4035 69.0449C92.4927 69.0449 92.5373 69.045 92.5819 69.0895C92.6265 69.1341 92.671 69.2233 92.671 69.2679C92.7156 74.1718 89.2383 82.2856 86.9201 87.6799C86.1622 89.4186 85.538 90.8898 85.1814 91.9597C84.8693 92.8068 84.6464 93.743 84.4681 94.7238C84.4681 94.8575 84.3343 94.9021 84.2451 94.9467C84.0222 94.9913 83.7993 94.9913 83.621 94.9913ZM58.6109 74.4393C58.6555 74.4393 58.7001 74.4393 58.7001 74.4393C58.7892 74.4839 58.8338 74.5285 58.8338 74.6176C58.8784 74.7959 63.5149 94.5009 83.5765 94.5009C83.7102 94.5009 83.8439 94.5009 83.9777 94.5009C84.156 93.5647 84.3789 92.6731 84.691 91.8706C85.0922 90.8006 85.7163 89.3295 86.4742 87.5908C88.7033 82.3748 92.0469 74.5285 92.1806 69.6691C89.5057 70.1149 84.7802 70.3824 81.2136 67.3954C77.9592 64.676 76.3097 59.8612 76.3543 53.1294C76.3543 53.0403 76.3989 52.9511 76.488 52.9065C76.5772 52.8619 85.5826 48.805 85.2706 38.8634C85.1814 35.5644 83.7993 32.7558 81.169 30.5267C77.023 27.0494 70.0237 25.3553 63.2919 26.2915C60.2604 26.6927 57.4964 25.2215 54.5986 23.6612C48.2235 20.2284 40.2434 15.9486 24.4616 29.6351C22.8567 31.0171 21.3409 32.6666 19.8698 34.227C16.3924 37.9272 13.138 41.4045 8.85816 42.2516C2.75052 43.4107 0.788935 45.3723 1.01184 50.0087C1.23475 54.8235 10.5077 61.4661 18.0865 62.3132H18.2202C20.3601 62.5361 21.0734 62.6252 23.035 66.058L23.1688 66.2809C30.8813 79.9228 43.0966 82.776 58.5218 74.5285C58.5664 74.4839 58.5663 74.4393 58.6109 74.4393Z" fill="#9B954B"/>
<path opacity="0.66" d="M76.5774 53.0851C76.5774 53.0851 85.8503 49.0282 85.4936 38.7745C85.1816 28.5654 72.8326 24.6422 63.2476 25.9351C53.6626 27.2279 47.3321 9.35083 24.3281 29.3233C23.1244 30.3486 21.9653 31.5523 20.8508 32.7114C22.5003 34.7622 25.2197 36.4563 29.7224 35.8321C39.3966 34.4055 36.1867 24.1072 40.9569 23.0373C45.7271 21.9673 47.1983 23.0373 47.1983 23.0373C47.1983 23.0373 46.0392 36.9466 60.5727 35.5646C66.19 35.0296 69.3552 32.3548 70.1131 30.7053C70.1131 30.7053 78.539 32.5777 77.6474 39.0865C76.8003 45.5954 62.1777 46.8437 59.4136 45.5954C56.6496 44.3917 56.2038 42.0735 56.2038 42.0735C56.2038 42.0735 54.8663 44.3917 57.6303 45.9967C57.6303 45.9967 53.5735 59.3711 23.704 58.3903C15.5456 58.1228 4.17735 55.8491 6.62933 45.9967C6.62933 45.9967 6.0052 44.8376 4.62318 46.9775C3.77614 48.2703 1.68081 48.5824 0.922924 47.2895C0.744599 48.0474 0.700013 48.939 0.744595 49.9198C0.967501 54.7792 10.285 61.6001 18.0421 62.4472C20.2266 62.6701 20.8508 62.6701 22.8123 66.1029C24.7293 69.491 34.3589 87.6356 58.6111 74.6625C58.6111 74.6625 63.1584 95.1253 84.2008 94.7241C84.3791 93.6987 84.6466 92.7625 84.9587 91.9154C86.519 87.591 92.4929 75.7324 92.4483 69.3127C87.7227 70.2489 76.4436 70.6055 76.5774 53.0851Z" fill="#C9C57D"/>
<path d="M51.2993 8.05854C51.2993 8.05854 53.8404 3.02084 58.1648 3.02084C62.4892 3.02084 64.7628 8.90559 64.7628 8.90559C64.7628 8.90559 63.9158 1.19302 58.1648 1.14844C52.9934 1.14844 51.2993 8.05854 51.2993 8.05854Z" fill="#7A7E36"/>
<path d="M64.7631 9.1281C64.6739 9.1281 64.5847 9.08352 64.5401 8.99436C64.5401 8.94978 62.2665 3.28796 58.165 3.28796C54.019 3.28796 51.5224 8.14731 51.5224 8.1919C51.4778 8.28106 51.3441 8.37021 51.2103 8.32563C51.0766 8.28105 51.032 8.14732 51.0766 8.05816C51.0766 7.96899 52.9044 0.969727 58.165 0.969727C58.165 0.969727 58.165 0.969727 58.2096 0.969727C64.0943 1.01431 65.0305 8.86061 65.0751 8.94977C65.0751 9.08351 65.0305 9.1727 64.8968 9.21728C64.8076 9.12812 64.8076 9.1281 64.7631 9.1281ZM58.165 2.75299C61.1074 2.75299 63.069 5.24955 64.1389 7.03281C63.9606 6.45325 63.7377 5.78452 63.4256 5.07122C62.2219 2.61924 60.4832 1.32639 58.2096 1.32639C58.2096 1.32639 58.2096 1.32639 58.165 1.32639C54.9998 1.32639 53.1719 4.09043 52.2803 6.09658C53.3948 4.66998 55.4456 2.75299 58.165 2.75299Z" fill="#4C4E04"/>
<path d="M25.9329 10.3752C25.9329 10.3752 28.1173 7.2099 31.4609 7.4328C34.8045 7.65571 36.2757 11.668 36.2757 11.668C36.2757 11.668 35.9636 6.54117 31.5501 6.22911C27.5823 5.87246 25.9329 10.3752 25.9329 10.3752Z" fill="#7A7E36"/>
<path d="M36.2758 11.8474C36.1867 11.8474 36.0975 11.8028 36.0529 11.669C36.0529 11.6244 34.5817 7.83505 31.461 7.61214C28.2958 7.38923 26.2004 10.4208 26.1558 10.4653C26.0667 10.5545 25.9329 10.5991 25.8438 10.5545C25.7546 10.5099 25.6655 10.3762 25.71 10.2424C25.71 10.1978 27.4487 5.60598 31.5502 5.91805C36.1421 6.23011 36.4987 11.5353 36.4987 11.5799C36.4987 11.7136 36.4095 11.8028 36.3204 11.8474H36.2758ZM31.1044 7.16633C31.2381 7.16633 31.3273 7.16633 31.461 7.16633C33.5118 7.30008 34.8938 8.81584 35.6962 10.0195C35.2504 8.54835 34.1359 6.63134 31.5056 6.45302C29.3657 6.31927 27.9391 7.61215 27.092 8.77126C28.0283 7.9688 29.4103 7.16633 31.1044 7.16633Z" fill="#4C4E04"/>
<path d="M19.0226 46.666C18.8443 47.5131 18.3539 48.0926 17.9081 48.0035C17.4623 47.9143 17.2394 47.1564 17.4177 46.3094C17.596 45.4623 18.0864 44.8828 18.5322 44.9719C18.978 45.0611 19.201 45.819 19.0226 46.666Z" fill="#AAA566"/>
<path d="M17.9974 48.2265C17.9528 48.2265 17.9082 48.2265 17.8636 48.2265C17.284 48.0927 16.972 47.2457 17.1949 46.2649C17.3287 45.6408 17.6407 45.1058 17.9974 44.8829C18.1757 44.7491 18.3986 44.7046 18.6215 44.7491C19.2011 44.8829 19.5131 45.7299 19.2902 46.7107C19.1565 47.3348 18.8444 47.8698 18.4877 48.0927C18.3094 48.1819 18.1757 48.2265 17.9974 48.2265ZM18.4432 45.1949C18.3986 45.1949 18.3094 45.195 18.2649 45.2395C17.9974 45.4179 17.7745 45.8191 17.6853 46.3095C17.5516 47.0228 17.7299 47.6469 17.9974 47.6915C18.0865 47.6915 18.1311 47.6915 18.2203 47.6469C18.4878 47.4686 18.7107 47.0674 18.7998 46.577C18.9336 45.8637 18.7552 45.2395 18.4877 45.1949H18.4432Z" fill="#9B954B"/>
<path opacity="0.5" d="M19.0226 46.666C18.8443 47.5131 18.3539 48.0926 17.9081 48.0035C17.4623 47.9143 17.2394 47.1564 17.4177 46.3094C17.596 45.4623 18.0864 44.8828 18.5322 44.9719C18.978 45.0611 19.201 45.819 19.0226 46.666Z" fill="#C9C57D"/>
<path d="M26.6462 46.4873C26.6462 47.2898 26.2895 47.9585 25.8437 47.9585C25.3979 47.9585 24.9967 47.2898 24.9967 46.4873C24.9967 45.6848 25.3534 45.0161 25.7992 45.0161C26.245 45.0161 26.6462 45.6848 26.6462 46.4873Z" fill="#AAA566"/>
<path d="M25.8436 48.1803C25.2641 48.1803 24.7737 47.4224 24.7737 46.4862C24.7737 45.8621 24.952 45.3271 25.2195 45.015C25.3978 44.8367 25.5762 44.7476 25.7991 44.7476C26.3786 44.7476 26.869 45.5054 26.869 46.4416C26.869 47.0658 26.6907 47.6008 26.4232 47.9128C26.2449 48.0912 26.0665 48.1803 25.8436 48.1803ZM25.7991 45.238C25.7099 45.238 25.6653 45.2825 25.5761 45.3717C25.3532 45.5946 25.2195 45.9958 25.2641 46.4862C25.2641 47.1995 25.5761 47.6899 25.8436 47.6899C25.8882 47.6899 25.9774 47.6453 26.0665 47.6008C26.2895 47.3779 26.4232 46.932 26.3786 46.4862C26.3786 45.7729 26.0666 45.238 25.7991 45.238Z" fill="#9B954B"/>
<path opacity="0.5" d="M26.6462 46.4873C26.6462 47.2898 26.2895 47.9585 25.8437 47.9585C25.3979 47.9585 24.9967 47.2898 24.9967 46.4873C24.9967 45.6848 25.3534 45.0161 25.7992 45.0161C26.245 45.0161 26.6462 45.6848 26.6462 46.4873Z" fill="#C9C57D"/>
<path opacity="0.24" d="M57.5856 42.1637C57.4519 40.6925 59.9485 37.2597 63.8716 36.9031C67.8393 36.5464 71.7625 39.355 71.8963 40.8262C72.03 42.2974 68.9539 43.8132 64.9861 44.1698C61.063 44.5265 57.764 43.6348 57.5856 42.1637Z" fill="#FF5124"/>
<path opacity="0.58" d="M60.2158 39.5781C60.3496 40.2469 61.5087 40.5589 62.8461 40.336C64.1835 40.1131 65.1643 39.3552 65.0752 38.7311C64.9414 38.0624 63.7823 37.7503 62.4449 37.9732C61.0629 38.1961 60.0821 38.954 60.2158 39.5781Z" fill="white"/>
<path d="M57.3628 9.43886C51.2998 9.30512 44.1222 19.0239 47.0646 28.7872C49.9624 38.5951 67.4828 38.3721 67.9732 27.4497C68.4636 16.4827 63.8271 9.57261 57.3628 9.43886Z" fill="white"/>
<path d="M57.7193 36.1441C51.9683 36.1441 47.956 32.6668 46.8415 28.8328C45.3257 23.7059 46.3956 18.0441 49.6947 13.6751C51.9237 10.7773 54.777 9.08323 57.4073 9.12781C59.9038 9.17239 62.1775 10.2423 64.0053 12.1593C67.0368 15.4138 68.5526 20.8081 68.2405 27.3616C68.0622 31.0173 65.6994 35.2079 59.5472 35.9658C58.8784 36.0995 58.2989 36.1441 57.7193 36.1441ZM57.2289 9.6628C54.8215 9.6628 52.1466 11.2677 50.0513 13.9872C47.5548 17.2416 45.504 22.8143 47.2873 28.699C48.491 32.7113 53.0383 36.3224 59.458 35.5645C63.292 35.0741 67.4826 32.7114 67.7055 27.4062C67.973 20.9865 66.5464 15.6813 63.6041 12.5606C61.91 10.7328 59.7255 9.70738 57.3626 9.6628C57.3181 9.6628 57.2735 9.6628 57.2289 9.6628Z" fill="#C4C4C4"/>
<path d="M58.2096 15.1917C54.9552 15.1471 51.032 20.8535 52.5923 26.6045C54.1081 32.3555 63.5594 32.1326 63.8714 25.7129C64.1389 19.2931 61.6869 15.2808 58.2096 15.1917Z" fill="#5B6311"/>
<path d="M61.9546 23.3921C61.7317 25.9779 60.0376 27.9394 58.2098 27.8057C56.3819 27.6274 55.0445 25.3983 55.2674 22.8126C55.4903 20.2269 57.1844 18.2653 59.0122 18.399C60.8846 18.5774 62.1775 20.8064 61.9546 23.3921Z" fill="#231F20"/>
<path d="M60.0373 16.5722C59.1011 16.7951 58.5216 19.2471 59.5469 21.3424C60.5723 23.4377 63.2917 22.7244 62.7122 20.2279C62.1772 17.7313 61.0627 16.3493 60.0373 16.5722Z" fill="white"/>
<path opacity="0.24" d="M57.3628 9.43947C55.7133 9.39489 53.9747 10.1082 52.3697 11.3565C54.0638 10.8215 56.1591 10.5094 58.4328 11.1781C64.05 12.7385 66.2345 20.5848 65.8333 26.9154C65.4767 32.2206 57.7195 36.5449 50.0961 33.3351C56.0254 38.1498 67.5719 36.322 67.9286 27.4503C68.4635 16.4833 63.8271 9.57322 57.3628 9.43947Z" fill="#C4C4C4"/>
<path opacity="0.81" d="M23.7037 44.0798C23.7037 44.0798 24.3724 42.7423 26.0219 42.876C27.4486 43.0098 29.7222 46.0859 29.7222 46.0859C29.7222 46.0859 28.5631 42.4303 26.2894 42.1628C23.9712 41.9399 23.7037 44.0798 23.7037 44.0798Z" fill="#C9C57D"/>
<path opacity="0.81" d="M20.3154 44.4821C20.3154 44.4821 19.7359 42.8772 18.4876 42.8326C17.2393 42.788 14.5198 44.9725 14.074 46.1316C14.074 46.1316 15.8573 42.2084 18.2647 42.1193C20.6721 42.0747 20.3154 44.4821 20.3154 44.4821Z" fill="#C9C57D"/>
<path d="M37.2124 63.2048C39.8427 64.0519 51.7013 63.7398 58.7006 55.1356C60.261 49.1617 58.7006 46.041 58.7006 46.041C58.7006 46.041 54.5991 58.3454 32.6205 59.46C33.8242 60.9311 35.5629 62.7144 37.2124 63.2048Z" fill="white"/>
<path d="M40.0654 63.7392C38.7279 63.7392 37.658 63.6055 37.123 63.4271C35.4289 62.8922 33.6457 61.0198 32.442 59.5932C32.3974 59.504 32.3528 59.4148 32.3974 59.3257C32.442 59.2365 32.5311 59.1919 32.6203 59.1919C54.1976 58.122 58.4329 46.085 58.4774 45.9513C58.522 45.8621 58.6112 45.7729 58.7004 45.7729C58.7895 45.7729 58.8787 45.8175 58.9233 45.9067C58.9679 46.0404 60.5282 49.2057 58.9233 55.1796C58.9233 55.2242 58.8787 55.2242 58.8787 55.2688C53.306 62.1789 44.7464 63.7392 40.0654 63.7392ZM37.2568 62.9813C39.6196 63.7392 51.389 63.6501 58.4329 55.0459C59.592 50.6769 59.0124 47.8237 58.6558 46.7092C57.4967 49.1611 51.8348 58.5678 33.1107 59.6823C34.2698 60.9752 35.8301 62.5355 37.2568 62.9813Z" fill="#C4C4C4"/>
<path opacity="0.24" d="M58.7006 46.041C58.7006 46.041 54.5991 58.3454 32.6205 59.46C32.7989 59.6829 33.0218 59.9504 33.2447 60.1733C35.34 60.1287 39.174 59.8612 43.7213 58.7912C50.5422 57.2309 52.8605 54.4223 54.3762 54.6006C55.6245 54.7344 54.1087 60.1287 45.1479 62.9819C49.606 62.0903 54.8666 59.8612 58.7006 55.1356C60.261 49.1617 58.7006 46.041 58.7006 46.041Z" fill="#C4C4C4"/>
<path d="M35.6071 69.3116C39.2628 71.0503 43.3643 71.5853 48.0007 69.4008C50.3635 68.2863 52.2805 66.7705 53.7963 64.9873C43.7209 64.274 38.1928 67.1717 35.6071 69.3116Z" fill="#FC9956"/>
<path d="M37.2123 63.205C35.6073 62.67 33.8687 60.8868 32.6204 59.4156C31.7734 59.4602 30.8817 59.5047 29.9455 59.5047C27.1815 59.5047 24.6849 59.4156 22.4559 59.1927C26.379 62.3579 30.6142 66.9498 35.6073 69.268C38.1931 67.1727 43.7212 64.2749 53.8411 64.9437C56.3377 62.0459 57.8088 58.4793 58.7005 55.1357C51.7012 63.7399 39.8426 64.052 37.2123 63.205Z" fill="#7A1010"/>
<path opacity="0.34" d="M45.014 66.371C45.1477 66.8169 43.7657 67.6639 41.9378 68.2435C40.0654 68.823 38.4605 68.9122 38.3268 68.4218C38.193 67.976 39.575 67.1289 41.4029 66.5494C43.2307 65.9698 44.8356 65.8807 45.014 66.371Z" fill="white"/>
<path d="M41.9378 71.0499C39.7979 71.0499 37.7026 70.5595 35.5181 69.5342C31.907 67.8401 28.7863 65.0314 25.7548 62.3566C24.5511 61.2866 23.4365 60.3058 22.322 59.4142C22.2328 59.325 22.1882 59.2359 22.2328 59.1467C22.2774 59.0575 22.3666 58.9684 22.5003 59.013C24.8185 59.2359 27.3597 59.325 29.99 59.325C30.7924 59.325 31.6395 59.2805 32.6203 59.2359C54.1976 58.1659 58.4328 46.129 58.4774 45.9952C58.522 45.9061 58.6112 45.8169 58.7003 45.8169C58.7895 45.8169 58.8787 45.8615 58.9233 45.9506C58.9678 46.0844 60.5282 49.2497 58.9233 55.2236C57.8533 59.2359 56.2038 62.5349 54.0193 65.1206C52.3698 67.0376 50.3636 68.5534 48.1346 69.6233C46.0392 70.5595 43.9885 71.0499 41.9378 71.0499ZM23.2136 59.5034C24.1498 60.2612 25.086 61.1083 26.0668 61.9553C29.0984 64.6302 32.1745 67.3942 35.741 69.0438C39.887 71.0053 43.8547 71.0053 47.9562 69.1329C50.1407 68.1075 52.0577 66.6364 53.6626 64.764C55.8471 62.2228 57.4521 58.9684 58.4774 55.0452C59.6365 50.6317 59.057 47.7785 58.7003 46.664C57.5412 49.1159 51.7902 58.7009 32.6648 59.6371C31.684 59.6817 30.837 59.7263 29.99 59.7263C27.5826 59.7709 25.3535 59.6817 23.2136 59.5034Z" fill="#9B954B"/>
<path d="M30.4356 12.4737C25.71 11.4929 18.1758 18.8043 18.5324 27.6314C18.8891 36.4585 32.6647 38.7767 35.2058 29.4592C37.747 20.1417 35.4733 13.5437 30.4356 12.4737Z" fill="white"/>
<path d="M27.2704 35.6995C26.9137 35.6995 26.5571 35.6995 26.2004 35.6549C22.5002 35.2537 18.4433 32.5788 18.265 27.6749C18.0421 21.8347 21.1182 17.0645 24.0605 14.568C26.245 12.6955 28.6078 11.8931 30.4802 12.2943C32.3081 12.6955 33.8239 13.7655 34.8492 15.4596C36.8108 18.6695 37.0337 23.6625 35.4288 29.5473C34.1805 34.0946 30.4802 35.6995 27.2704 35.6995ZM29.544 12.651C27.9837 12.651 26.1559 13.4534 24.4172 14.9246C21.564 17.332 18.5325 21.9685 18.7554 27.6303C18.9337 32.2222 22.7677 34.7633 26.245 35.1645C29.4549 35.5212 33.6455 34.2283 34.9384 29.4135C36.4987 23.7517 36.2758 18.7586 34.448 15.6825C33.4672 14.1221 32.0852 13.0968 30.3911 12.7401C30.1236 12.651 29.8561 12.651 29.544 12.651Z" fill="#C4C4C4"/>
<path d="M29.9451 17.5996C27.4039 17.0647 23.2133 21.4336 23.2579 26.6051C23.3024 31.7765 30.7475 32.9356 32.2633 27.4521C33.779 21.924 32.6645 18.1346 29.9451 17.5996Z" fill="#5B6311"/>
<path d="M31.2828 25.1338C30.5695 27.3182 28.8754 28.7894 27.4488 28.3882C26.0222 27.9869 25.4426 25.8916 26.1559 23.7072C26.8692 21.5227 28.5633 20.0515 29.9899 20.4527C31.3719 20.8539 31.9515 22.9493 31.2828 25.1338Z" fill="#231F20"/>
<path d="M31.1045 18.9805C30.302 19.0251 29.4104 21.0758 29.7671 23.0374C30.1683 24.999 32.442 24.7761 32.4865 22.547C32.5757 20.3179 31.9515 18.9805 31.1045 18.9805Z" fill="white"/>
<path opacity="0.24" d="M30.4355 12.4721C28.8306 12.16 26.9582 12.7396 25.1304 14.0324C26.7799 13.4083 28.786 13.0516 30.4355 13.9432C34.002 15.8157 35.7407 21.8342 33.8683 28.5214C32.4863 33.4253 26.8245 35.7435 22.0543 33.9157C26.4232 36.8135 33.4225 35.8772 35.2057 29.5021C37.7469 20.14 35.4732 13.542 30.4355 12.4721Z" fill="#C4C4C4"/>
<path d="M25.086 59.6393C15.2781 59.2381 9.08131 57.009 6.62933 53.1305C4.71234 50.0098 5.96062 47.0228 6.0052 46.9337C6.04978 46.7999 6.18352 46.7553 6.31727 46.7999C6.45101 46.8445 6.49559 46.9782 6.45101 47.112C6.45101 47.1566 5.2473 50.0098 7.03055 52.863C8.63548 55.4487 13.0936 58.614 25.0414 59.1489C25.1751 59.1489 25.2643 59.2827 25.2643 59.4164C25.3089 59.5502 25.2197 59.6393 25.086 59.6393Z" fill="#9B954B"/>
<path d="M62.4002 46.7553C59.6807 46.7553 58.1649 46.1312 57.2733 45.4625C56.0696 44.5708 55.9359 43.5455 55.9359 43.5009C55.9359 43.3671 56.025 43.2334 56.1588 43.2334C56.2925 43.2334 56.4263 43.3226 56.4263 43.4563C56.4263 43.5009 56.56 44.3479 57.5854 45.1058C58.7891 45.9974 61.4194 46.8445 66.9921 45.8191C67.1258 45.7745 67.2595 45.8637 67.2595 45.9975C67.3041 46.1312 67.215 46.2649 67.0812 46.2649C65.2088 46.6216 63.693 46.7553 62.4002 46.7553Z" fill="#9B954B"/>
<path d="M72.7432 54.2005C72.6095 54.2005 72.5204 54.1113 72.5204 53.9776C72.5204 53.8438 72.6095 53.7101 72.7432 53.7101C72.7432 53.7101 74.7494 53.4872 78.3605 51.7931C78.4943 51.7485 78.628 51.7931 78.6726 51.9269C78.7171 52.0606 78.6726 52.1943 78.5388 52.2389C74.8832 53.9776 72.877 54.2005 72.7432 54.2005Z" fill="#9B954B"/>
<path opacity="0.5" d="M32.9318 70.8283C32.9318 70.8283 38.4599 76.3118 47.5099 73.5478C51.2547 72.3886 56.9166 67.8859 58.6553 63.5615C58.6553 63.5615 56.1587 71.7645 48.357 74.7069C38.9949 78.2734 32.9318 70.8283 32.9318 70.8283Z" fill="#C9C57D"/>
<path opacity="0.5" d="M76.5769 53.0859C76.5769 53.0859 76.6661 53.0413 76.7998 52.9521L73.59 53.9329C74.437 53.9329 74.9274 55.627 75.1057 57.2765C75.7299 63.4288 78.3602 68.1544 81.8821 69.581C85.404 70.963 90.0851 72.5679 88.8368 75.6441C85.0028 85.4074 72.3417 82.6433 68.9536 76.4465C65.5208 70.2943 67.0365 58.614 67.0365 58.614C65.6991 69.1352 58.6107 74.4849 58.6107 74.4849C58.6107 74.4849 58.6107 74.5741 58.5661 74.7078C58.5661 74.7078 58.6107 74.7078 58.6107 74.6633C58.6107 74.6633 63.158 95.1261 84.2004 94.7249C84.3787 93.6995 84.6462 92.7633 84.9582 91.9162C86.5186 87.5918 92.4924 75.7332 92.4479 69.3135C87.7222 70.2497 76.4432 70.6063 76.5769 53.0859Z" fill="#C9C57D"/>
</svg>
