<svg width="72" height="80" viewBox="0 0 72 80" fill="none" xmlns="http://www.w3.org/2000/svg">
<g clip-path="url(#clip0_48_7916)">
<path d="M26.0432 39.3481C26.0432 39.3481 21.7032 44.1865 19.1176 45.2098C19.1176 45.2098 5.45704 52.1563 0.196966 58.3604H5.18001C5.18001 58.3604 -1.18773 65.6753 0.196966 65.1199C1.58082 64.5645 5.18001 62.8979 5.18001 62.8979C5.18001 62.8979 3.79574 65.1802 5.18001 65.1501C6.56428 65.1199 10.8442 65.1505 10.8442 65.1505C10.8442 65.1505 7.67196 69.5639 9.60986 69.0085C11.5478 68.4531 15.1885 67.6198 15.1885 67.6198C15.1885 67.6198 12.7384 71.508 15.1885 71.508C17.6385 71.508 20.6557 71.508 20.6557 71.508C20.6557 71.508 20.6684 74.8412 21.6452 74.2858C22.6219 73.73 24.8695 72.3417 24.8695 72.3417C24.8695 72.3417 24.4035 75.5216 26.1432 74.3483C27.8824 73.175 31.2881 70.6751 31.2881 70.6751C31.2881 70.6751 29.1155 78.1745 31.9599 78.4519C34.8042 78.7299 39.0422 74.5633 39.0422 74.5633C39.0422 74.5633 40.4959 78.452 41.5265 77.3407C42.5558 76.2304 45.3553 74.0079 45.3553 74.0079C45.3553 74.0079 48.2462 77.8961 48.8621 76.5074C49.4776 75.1187 51.4456 72.0634 51.4456 72.0634C51.4456 72.0634 53.0501 75.3962 53.4784 74.2854C53.907 73.1746 55.2816 69.5639 55.2816 69.5639C55.2816 69.5639 58.1928 81.5068 59.6491 79.8407C61.1054 78.174 62.9056 71.2305 62.9056 71.2305C62.9056 71.2305 65.9584 76.7853 66.1622 75.3966C66.3655 74.0079 66.1622 71.2305 66.1622 71.2305C66.1622 71.2305 69.6881 76.5079 69.6881 74.2858C69.6881 72.0638 69.6881 68.7306 69.6881 68.7306C69.6881 68.7306 71.903 72.0634 71.903 70.1193C71.903 68.1752 71.626 65.1199 71.903 62.8979C72.18 60.6759 71.903 55.9544 70.5187 52.3437C69.1345 48.7334 64.7334 42.7069 63.1649 39.9741L26.0432 39.3481Z" fill="#472C2D"/>
<path d="M59.65 70.5323C59.6157 73.8273 61.2672 71.0499 61.1795 68.8288C61.0923 66.6068 60.3048 58.3608 60.3048 58.3608C60.3048 58.3608 61.9522 63.2744 62.9065 64.5704C63.6384 65.5648 66.0652 72.3235 65.6644 75.4247C65.9292 75.6699 66.1177 75.7077 66.1634 75.3966C66.3668 74.0079 66.1634 71.2305 66.1634 71.2305C66.1634 71.2305 69.6893 76.5079 69.6893 74.2858C69.6893 72.0638 69.6893 68.7306 69.6893 68.7306C69.6893 68.7306 71.9043 72.0634 71.9043 70.1193C71.9043 68.1752 71.6272 65.1199 71.9043 62.8979C72.1813 60.6759 71.9043 55.9544 70.52 52.3437C69.1357 48.7334 64.7347 42.7069 63.1661 39.9741L26.0441 39.3481C26.0441 39.3481 21.704 44.1865 19.1185 45.2098C19.1185 45.2098 5.45788 52.1563 0.197815 58.3604H0.473992C1.8553 57.2109 4.24686 55.5728 7.57199 54.572C13.1087 52.9058 21.1411 50.7824 21.6464 50.5479C21.6464 50.5479 13.8381 54.1688 12.3661 55.1109C12.3661 55.1109 20.9746 54.5933 21.6164 54.3982C21.0212 54.68 13.6847 58.3778 10.3643 59.6743C6.83368 61.0524 5.18086 62.8979 5.18086 62.8979C5.18086 62.8979 11.7341 61.6078 15.1893 60.8671C18.6453 60.1268 24.9529 57.2079 26.0437 56.7231C27.1344 56.2382 22.5554 60.6822 22.5554 60.6822C22.5554 60.6822 27.8799 60.3937 29.9292 59.0624C28.6775 60.2824 25.8581 62.7827 22.6351 64.0146C22.6351 64.0146 28.1175 64.7553 30.8556 62.719C33.5936 60.6822 36.7231 58.3608 36.7231 58.3608L37.7329 61.6082C37.7329 61.6082 38.6105 56.9793 37.763 54.5725C37.763 54.5725 41.9234 63.1664 44.218 64.1464L42.6181 59.6747C42.6181 59.6747 46.0453 63.6449 47.5706 65.3111C49.0955 66.9773 49.9207 69.9396 50.4307 70.495C50.9411 71.0503 50.0435 65.3111 48.2776 62.5341C46.5121 59.7567 46.5121 59.7567 46.5121 59.7567C46.5121 59.7567 51.3045 61.9787 53.0607 64.0146C54.8169 66.0514 55.2815 69.5643 55.2815 69.5643V62.719C55.282 62.7186 59.6839 67.2374 59.65 70.5323Z" fill="#2E151A"/>
<path d="M20.6561 9.57477C20.6561 9.57477 20.7213 9.01937 21.9785 8.37134C23.2361 7.72331 24.0325 6.42724 24.387 6.05669C24.7411 5.68657 25.0952 4.57535 26.6879 3.83511C28.281 3.09444 31.3791 2.44641 33.0607 1.98365C34.7424 1.52089 36.2474 0.0395476 38.1942 0.224821C38.1942 0.224821 39.6102 -0.269809 40.4951 0.208674C40.4951 0.208674 44.2125 0.224821 45.4519 1.05813C45.4519 1.05813 47.5761 1.05813 48.6381 1.89143C49.7004 2.72432 49.7004 3.00223 51.116 3.27971C52.5321 3.55762 54.5682 4.0735 55.9843 4.7874C57.4003 5.5013 57.754 6.61251 58.6397 7.53803C59.5246 8.46398 60.1443 9.48936 60.9406 10.0872C61.737 10.6851 63.242 12.0704 63.242 12.8591L62.2682 12.3518C62.2682 12.3518 64.3043 14.714 64.3924 16.6802L63.3305 15.8596C63.3305 15.8596 64.3043 17.3244 64.3924 19.7444C64.3924 19.7444 65.1892 22.0718 65.1892 23.0904L64.3924 22.0578C64.3924 22.0578 65.1892 24.2994 65.1892 25.8236C65.1892 27.3483 64.5699 28.8296 65.1892 29.4777C65.8085 30.1257 66.1626 31.1439 66.1626 31.1439L64.2154 29.8478C64.2154 29.8478 65.8085 35.0321 65.4544 37.5311L64.3039 35.9571C64.3039 35.9571 65.0117 41.3267 64.392 44.2885C64.392 44.2885 64.392 46.2326 64.5691 46.8806C64.5691 46.8806 63.5952 45.7699 63.1526 44.7517C63.1526 44.7517 63.2411 47.0655 62.9755 48.6399C62.7099 50.2139 62.6214 52.0653 62.6214 52.0653C62.6214 52.0653 59.8774 50.3991 59.3467 49.8433C58.8155 49.2884 59.6123 51.4173 59.6123 52.5281C59.6123 53.6389 59.7008 54.5215 59.7008 54.5215C59.7008 54.5215 54.9211 52.2506 54.4789 51.7874L54.9215 53.8242C54.9215 53.8242 53.4174 52.3428 52.7091 51.6026C52.7091 51.6026 53.059 52.3488 53.1941 54.5215C53.3284 56.6938 53.594 58.3604 53.594 58.3604C53.594 58.3604 48.4606 56.237 47.3097 54.5215L49.7881 57.2496C49.7881 57.2496 45.5395 55.7742 44.3006 54.5215C44.3006 54.5215 44.7428 55.9535 44.8313 56.3237C44.9198 56.6938 41.2906 54.4722 39.6979 52.158L40.0016 54.1365C40.0016 54.1365 36.948 50.5262 36.1516 48.583L36.0191 51.4985C36.0191 51.4985 34.6915 49.5544 34.426 48.4436C34.426 48.4436 35.2223 55.9416 35.7535 56.636C36.2842 57.3303 31.0267 54.1365 31.1995 50.1098C31.1995 50.1098 30.2765 52.4703 29.9614 53.7201C29.9614 53.7201 26.9912 49.5548 28.7169 44.1394C28.7169 44.1394 27.2343 46.361 25.9183 47.7497C24.6018 49.1379 23.705 50.6656 23.705 50.6656C23.705 50.6656 24.0706 46.7778 25.2651 44.6952L23.2056 47.6111C23.2056 47.6111 23.8558 44.1398 25.8217 41.5013L22.9655 44.9727C22.9655 44.9727 23.5093 40.5784 24.7695 37.1963C27.1683 30.7589 27.9523 26.9212 27.1064 25.81C27.1064 25.81 26.7714 25.3604 25.1783 23.5557C25.1783 23.5557 25.7442 24.5301 25.7442 26.0578C25.7442 26.0578 23.8122 21.5419 20.6552 19.7444V9.57477H20.6561Z" fill="#F7E9CE"/>
<path d="M36.6117 27.4286C37.8333 26.8732 42.4033 26.2252 42.4033 26.2252C41.5727 25.855 38.1586 26.2252 35.8513 26.2252C33.5445 26.2252 31.3296 25.5771 29.2074 24.2811C27.0848 22.985 27.6384 21.632 27.6384 21.632C28.838 21.7603 33.0828 22.1517 34.2658 22.0578C35.4489 21.9639 37.1428 22.5694 37.1428 22.5694C35.9432 21.3205 28.7457 20.4855 28.0997 19.7444C27.4538 19.0033 32.8909 18.657 33.1692 18.0196C33.4471 17.3826 29.5759 14.4594 27.5461 14.4594C26.787 14.4594 26.1618 14.0978 26.0432 12.8587C25.9238 11.62 26.801 11.2987 28.0929 11.3633C29.3849 11.4283 30.7526 13.7863 31.951 14.6515C33.3517 15.6633 35.2896 15.2923 36.5816 14.4594C37.8735 13.6261 40.2807 11.4462 41.8493 10.3358C43.4182 9.22501 46.094 10.3358 46.094 10.3358C44.9868 9.68777 40.2803 8.34836 40.2803 8.34836C40.7416 8.02753 42.5872 8.34836 42.5872 8.34836C41.4799 7.37907 38.8037 6.5071 36.2203 7.02935C34.4937 7.37822 32.3398 7.29961 31.0525 6.87254C29.3917 6.32182 28.561 6.70342 27.3127 7.46534C25.7738 8.40488 25.3312 9.28748 25.3312 9.28748L23.8355 8.72868L21.8841 8.4206C20.7175 9.04696 20.6552 9.57431 20.6552 9.57431V19.7444C23.8122 21.5419 25.7442 26.0577 25.7442 26.0577C25.7442 24.5301 25.1783 23.5557 25.1783 23.5557C26.7714 25.3604 27.1064 25.81 27.1064 25.81C27.6431 26.5145 27.5232 28.3163 26.7532 31.1808C27.5109 32.8793 28.2442 34.4116 28.1912 34.0933C28.0989 33.5379 28.6529 31.1311 28.6529 31.1311C28.7448 31.9644 29.7602 35.1119 29.7602 35.1119C29.7602 33.0752 30.3579 30.2982 30.3579 30.2982L32.067 32.5521C32.067 32.5521 31.4206 30.9462 31.6485 31.3164C31.876 31.6869 34.265 32.057 34.265 32.057V31.2237C35.4481 31.5012 36.9573 33.3531 36.6104 32.1492C36.2639 30.9458 31.6485 27.4282 31.6485 27.4282C32.2462 27.6139 35.39 27.984 36.6117 27.4286Z" fill="#C9B491"/>
<path d="M30.8687 9.2879C30.8687 9.2879 29.5149 10.4616 30.0071 11.201C30.4993 11.9399 32.7138 14.6349 33.8215 14.4603C34.9288 14.2852 39.4772 13.1132 38.3102 8.88548C38.3102 8.88506 34.6208 8.42527 30.8687 9.2879Z" fill="#FCDD2C"/>
<path d="M32.4677 10.1174C33.3293 9.62364 35.6666 9.28751 35.6666 9.28751L35.0008 8.77673C33.7745 8.8171 32.3267 8.95266 30.8687 9.28751C30.8687 9.28751 29.5149 10.4612 30.0071 11.2006C30.0588 11.2779 30.13 11.3774 30.2164 11.4921C30.2007 11.1781 30.1977 10.7565 30.2537 10.3728C30.2537 10.3728 30.346 11.4772 30.4998 11.6149C30.4998 11.6149 30.4074 10.0554 30.7145 9.96317C31.0225 9.87053 30.961 10.1484 30.9301 10.6418C30.8992 11.1356 31.1445 12.9462 32.6524 13.1519C32.652 13.1519 31.6066 10.6112 32.4677 10.1174Z" fill="#8E795B"/>
<path d="M31.754 9.30448C31.754 9.30448 31.1445 10.4735 31.4287 11.4606C31.6057 12.0755 33.0247 13.9316 35.2193 13.0176C37.5296 12.0551 37.5986 9.98353 36.5871 8.87274L31.754 9.30448Z" fill="#F99B2B"/>
<path d="M36.9276 9.64656C36.9768 9.61894 37.0009 9.57687 37.0073 9.5246C36.9031 9.28578 36.7616 9.06481 36.5867 8.87274L31.754 9.30448C31.754 9.30448 31.1445 10.4735 31.4287 11.4606C31.5418 11.8537 32.1636 12.7529 33.1696 13.1124C33.1683 13.1115 31.2025 11.0348 31.945 10.1918C31.945 10.1918 32.4025 9.22927 34.2807 9.28748C36.1584 9.34612 36.5587 9.85393 36.9276 9.64656Z" fill="#2E2519"/>
<path d="M37.1691 10.8955C36.8755 9.81398 35.2062 10.0847 34.1998 11.201C33.3081 12.1902 34.334 12.8922 34.8292 13.154C34.9563 13.1179 35.0863 13.0733 35.2189 13.018C36.4261 12.5149 37.02 11.7088 37.1691 10.8955Z" fill="#A96826"/>
<path d="M24.1151 20.4583C20.9047 20.1167 14.5798 20.0257 14.5798 20.0257C13.5958 20.3958 12.6292 21.8232 12.2424 22.1853C11.3194 23.0492 11.0119 22.1853 11.0119 22.1853C10.4583 19.9637 11.2576 14.1633 13.7182 12.0645C16.2063 9.94318 19.5628 10.0894 19.5628 10.0894C20.2393 9.27135 23.6224 9.2875 23.6224 9.2875C23.6224 9.2875 24.4222 10.1514 24.4836 11.2622C24.5454 12.373 23.561 14.533 24.4836 14.9035C25.4066 15.2736 27.4987 15.0272 27.6829 15.0272C27.6829 15.0272 26.8832 15.4589 27.1907 15.4589C27.4987 15.4589 28.4826 15.1504 28.4826 15.1504C28.4826 15.1504 27.8058 16.0275 28.0523 15.8048C28.298 15.5826 29.3442 15.2736 29.3442 15.2736C29.3442 15.2736 28.9749 15.8422 29.3442 15.8048C29.7136 15.7674 34.3273 17.3724 34.2654 17.9894C34.204 18.6069 33.4043 18.668 32.2356 18.668C31.0669 18.668 26.0835 18.1126 26.022 18.8533C25.9784 19.379 27.8676 20.5195 27.5601 20.7048C27.2521 20.8901 24.1151 20.4583 24.1151 20.4583Z" fill="#FCDD2C"/>
<path d="M17.6554 11.5702C17.6554 11.5702 16.6109 11.5018 15.4405 11.5702C15.4405 11.5702 16.4863 10.7068 19.501 10.4599C19.501 10.4599 19.5306 10.3044 19.5336 10.0889C19.2091 10.0804 16.0754 10.0558 13.7182 12.0649C11.5596 13.9061 10.679 18.5966 10.8696 21.2198C11.0056 21.5789 11.1623 21.7764 11.319 21.5066C11.7498 20.7664 11.3423 13.3839 17.6554 11.5702Z" fill="#FDEDA0"/>
<path d="M23.3153 9.65717C23.3153 9.65717 24.1761 10.0273 23.6843 10.5215C23.1921 11.0153 21.1004 10.83 21.1004 10.83C21.1004 10.83 20.7925 9.99967 20.7311 10.261C20.6696 10.5219 20.4854 11.4474 20.424 11.1389C20.3621 10.8304 20.0296 10.6367 20.424 10.0876C20.8179 9.53819 22.555 9.65717 23.3153 9.65717Z" fill="#FDEDA0"/>
<path d="M32.2356 18.6685C33.4043 18.6685 34.204 18.6069 34.2654 17.9899C34.3268 17.3728 29.7136 15.7683 29.3442 15.8052C28.9749 15.8426 29.3442 15.2741 29.3442 15.2741C29.3442 15.2741 28.2984 15.5826 28.0523 15.8052C27.8058 16.0279 28.4826 15.1508 28.4826 15.1508C28.4826 15.1508 27.4987 15.4593 27.1907 15.4593C26.8836 15.4593 27.6829 15.0276 27.6829 15.0276C27.4987 15.0276 25.407 15.2745 24.4836 14.9039C23.561 14.5338 24.5454 12.3738 24.4836 11.2626C24.4662 10.9401 24.3849 10.6392 24.2803 10.3732C24.3252 11.2308 24.2862 12.3297 23.8359 12.6199C23.0692 13.1137 20.6591 12.1877 20.2338 12.6199C19.8085 13.0516 21.4698 15.2736 21.1004 15.4585C20.7315 15.6438 19.5332 13.6593 19.5332 13.6593C19.5332 13.6593 14.764 14.4705 13.9029 15.8592C13.0413 17.2479 12.7596 17.2322 13.5594 17.5407C14.3591 17.8496 19.8847 16.6147 20.1978 16.9853C20.5108 17.3558 18.6661 17.5908 18.6661 17.5908C18.6661 17.5908 11.71 19.1079 11.8667 22.4653C11.9785 22.405 12.1027 22.3149 12.2416 22.1849C12.6283 21.8228 13.5949 20.3954 14.5789 20.0253C14.5789 20.0253 20.9043 20.1162 24.1142 20.4579C24.1142 20.4579 27.2513 20.8896 27.5592 20.7048C27.8668 20.5195 25.9776 19.3786 26.0212 18.8533C26.083 18.1127 31.0665 18.6685 32.2356 18.6685Z" fill="#F99B2B"/>
<path d="M21.6545 13.1752C21.6545 13.1752 20.8547 12.6815 20.6701 12.9288C20.4854 13.1752 22.2259 15.0267 22.555 14.2865C22.8846 13.5454 22.1158 13.4068 21.6545 13.1752Z" fill="#683626"/>
<path d="M33.1696 17.6669C33.1696 17.6669 30.8204 16.8166 29.3438 16.6929C27.8676 16.5693 20.0076 17.3648 19.118 18.1989L33.1696 17.6669Z" fill="#FCDD2C"/>
<path d="M31.6498 17.5088C31.6498 17.5088 30.1054 16.9551 29.3209 16.9551C28.5364 16.9551 21.5871 17.4416 20.4362 18.02L31.6498 17.5088Z" fill="#FFF5CD"/>
<path d="M32.2356 18.6685C33.4043 18.6685 34.204 18.6068 34.2654 17.9898C34.2692 17.9524 34.2557 17.9116 34.2277 17.8683C29.9296 16.8153 19.7043 17.9006 16.5482 18.668C13.8732 19.3186 12.7918 20.992 12.3653 22.0578C12.8096 21.5657 13.6873 20.3614 14.5793 20.0257C14.5793 20.0257 20.9047 20.1167 24.1146 20.4583C24.1146 20.4583 27.2517 20.89 27.5597 20.7052C27.8672 20.5199 25.978 19.379 26.0216 18.8537C26.083 18.1126 31.0665 18.6685 32.2356 18.6685Z" fill="#DC7B27"/>
<path d="M16.5482 18.668C13.8732 19.3186 12.7918 20.992 12.3653 22.0578C12.8096 21.5657 13.6873 20.3614 14.5793 20.0257C14.5793 20.0257 16.5808 20.0546 18.9033 20.14L16.7943 19.4083C16.7943 19.4083 18.4577 18.9145 19.5332 18.7909C20.6082 18.6676 25.9979 17.5284 27.9477 18.4679C29.5022 18.4722 31.5409 18.6676 32.2352 18.6676C33.4039 18.6676 34.2036 18.606 34.265 17.989C34.2688 17.9516 34.2553 17.9108 34.2273 17.8675C29.9292 16.8149 19.7043 17.9002 16.5482 18.668Z" fill="#AB5C25"/>
<path d="M27.7308 8.4512C27.7308 8.4512 28.8342 9.74216 30.3587 9.64613C31.8832 9.55009 38.4348 8.2349 40.7725 9.28748C40.7725 9.28748 38.7427 7.55585 34.7441 8.4512C34.7441 8.4512 35.6056 7.6795 36.7743 7.55585C36.7743 7.55585 34.0672 7.6795 32.4063 8.11124C30.7454 8.54341 29.6378 9.28408 27.7308 8.4512Z" fill="#8E795B"/>
<path d="M33.1128 10.7369C33.1128 11.3395 33.5995 11.8273 34.1998 11.8273C34.8004 11.8273 35.2871 11.3391 35.2871 10.7369C35.2871 10.1344 34.8004 9.64612 34.1998 9.64612C33.5995 9.64654 33.1128 10.1344 33.1128 10.7369Z" fill="#2E2519"/>
<path d="M32.7375 10.1917C32.7375 10.4926 32.9807 10.7369 33.281 10.7369C33.5809 10.7369 33.8245 10.4926 33.8245 10.1917C33.8245 9.89046 33.5809 9.64612 33.281 9.64612C32.9807 9.64654 32.7375 9.89046 32.7375 10.1917Z" fill="#F7E9CE"/>
<path d="M30.3587 9.64658C31.8209 9.55479 37.9053 8.34159 40.4642 9.17065C39.8567 8.79713 38.6347 8.68112 37.7583 8.60378C36.6815 8.50987 34.0058 8.82135 33.8478 8.69514C33.6898 8.56851 34.6517 8.05008 34.6517 8.05008C34.1841 7.92643 31.8527 8.94501 30.5608 9.28751C29.2688 9.63001 27.7308 8.45123 27.7308 8.45123C27.7308 8.45123 28.8342 9.74219 30.3587 9.64658Z" fill="#2E2519"/>
<path d="M30.1948 9.34615C30.1948 9.34615 29.6077 10.4365 29.9118 10.9647C29.9118 10.9647 30.088 10.0329 30.3587 9.82803C30.3587 9.82803 30.1609 10.5734 30.3257 10.9932C30.3257 10.9932 30.4066 9.60282 30.8678 9.65211C31.3291 9.7014 30.9314 10.8589 30.9314 10.8589C30.9314 10.8589 30.9551 11.3446 31.0911 11.688C31.0911 11.688 31.1872 10.1595 31.6494 9.79404C32.1115 9.42859 31.7536 9.30536 31.7536 9.30536L30.1948 9.34615Z" fill="#2E2519"/>
<path d="M36.7226 8.77673C36.7226 8.77673 37.9807 9.7116 37.2085 11.8278C37.2085 11.8278 38.0967 10.6112 37.6969 9.16088C37.6969 9.16088 38.1395 9.73667 37.8002 11.2286C37.8002 11.2286 38.6093 10.1582 38.1992 8.87277L38.3102 8.88509C38.3102 8.88509 38.8791 11.2104 37.8803 12.2153C37.8803 12.2153 39.0807 11.1224 38.7427 8.846L36.7226 8.77673Z" fill="#2E2519"/>
<path d="M28.6538 22.4662C28.6538 22.4662 31.1453 25.5771 35.6662 25.3923C40.188 25.207 48.8621 25.855 51.4456 27.3364C51.4456 27.3364 49.6924 25.207 47.1089 24.3741L49.6924 24.0962C49.6924 24.0962 46.0771 22.7075 43.4093 22.9854C43.4093 22.9854 45.7242 22.1491 47.3855 22.0582C47.3855 22.0582 41.5693 21.4845 38.802 22.4666C36.036 23.4482 31.1453 23.1507 28.6538 22.4662Z" fill="#FFFEFD"/>
<path d="M24.8699 8.03988C24.8699 8.03988 25.2393 3.91542 28.6538 3.54487C32.0679 3.17475 33.3598 3.45223 35.6662 2.89684C37.9735 2.34144 43.6025 2.2488 44.3404 2.89684L38.8024 3.26696C38.8024 3.26696 45.6323 3.14415 48.0315 5.24208L43.4093 4.65566C43.4093 4.65566 48.1238 5.14349 48.8621 6.61209C48.8621 6.61209 41.3876 6.13615 39.4497 5.76646L35.2863 5.24208C35.2863 5.24208 37.3661 6.04394 37.7621 6.04394C37.7621 6.04394 34.2366 6.69197 31.3524 5.85867C28.4695 5.02621 24.8699 8.03988 24.8699 8.03988Z" fill="#FFFEFD"/>
<path d="M33.3755 16.4197C33.3755 16.4197 37.9714 15.2307 40.4642 12.8591L38.8024 15.4869C38.8024 15.4869 42.1818 14.4981 43.4098 12.2153C43.4098 12.2153 43.1412 14.2835 42.5876 15.0242C42.5876 15.0242 44.1646 13.1646 44.7102 11.6153C44.7102 11.6153 44.2489 15.7857 41.4803 17.4875L42.0335 15.86C42.0335 15.86 39.6737 17.7765 37.7625 18.0204L39.0422 16.681C39.0426 16.6802 36.3918 17.3817 33.3755 16.4197Z" fill="#FFFEFD"/>
<path d="M42.9565 6.61249C42.9565 6.61249 53.5686 8.20686 56.7056 11.6153L52.4609 10.1922C52.4609 10.1922 56.8899 13.358 58.3669 15.4869C59.8436 17.6163 61.2278 19.7448 61.2278 19.7448C61.2278 19.7448 59.3823 18.5626 58.0903 17.4875C56.798 16.4124 55.0448 15.3021 55.0448 15.3021C55.0448 15.3021 56.6137 16.4685 57.6291 18.1993C58.6435 19.9305 61.5964 22.5698 61.5964 22.5698C61.5964 22.5698 58.6435 22.6119 57.721 22.0582C57.721 22.0582 60.3968 23.2799 61.1355 24.6138C61.8738 25.9477 63.1653 28.3545 63.1653 28.3545L61.3198 26.5957L62.427 29.1802C62.427 29.1802 60.1202 26.781 58.9201 26.1329C58.9201 26.1329 59.9355 27.2437 60.3963 28.5398C60.8576 29.8359 62.2419 33.8167 62.5189 33.9089C62.7959 34.0016 57.9006 29.2805 56.1961 26.0403C54.4903 22.8001 49.7843 20.1145 48.0311 19.7448C48.0311 19.7448 52.3681 20.3134 53.0603 20.8624C53.752 21.4119 50.7992 19.1894 50.7992 19.1894C50.7992 19.1894 56.3359 20.9614 57.3512 20.8624C57.3512 20.8624 54.6754 20.2637 52.2758 18.1989C49.8766 16.135 47.754 14.4679 47.754 14.4679L53.0603 16.4197L49.8766 14.4679L52.4601 14.8176C52.4601 14.8176 50.5226 13.202 48.8613 12.2153C48.8613 12.2153 54.3056 13.4502 54.675 13.7277C55.0439 14.0056 50.0914 10.895 47.8464 10.496L49.7843 10.21L42.9565 6.61249Z" fill="#FFFEFD"/>
<path d="M48.4009 20.8624C48.4009 20.8624 53.4762 23.8183 54.5835 25.9473C55.6907 28.0766 59.1048 33.5384 59.1048 33.5384L55.2295 29.1802C55.2295 29.1802 61.4117 37.0565 61.5959 37.2417C61.781 37.4266 57.3516 34.0967 56.7056 33.9106L59.2895 37.2494C59.2895 37.2494 48.8621 29.1883 45.3553 27.9844L51.4456 29.9285C51.4456 29.9285 49.3234 27.9844 47.5702 27.3364C47.5702 27.3364 53.2907 28.3545 54.5831 30.1138L50.892 25.4849L53.4784 26.9663L48.4009 20.8624Z" fill="#FFFEFD"/>
<path d="M50.4311 7.06251C50.4311 7.06251 58.1827 10.5534 60.3048 13.1124C60.3048 13.1124 58.3627 9.20208 56.1969 8.03987C54.0303 6.87723 53.4792 7.06251 53.4792 7.06251L56.1969 7.55629C56.1965 7.55629 52.7379 5.39632 50.4311 7.06251Z" fill="#FFFEFD"/>
<path d="M45.3557 13.1536C45.3557 13.1536 43.2336 19.9292 36.313 19.7444C36.313 19.7444 38.7122 20.7264 42.6795 18.1989L40.0499 20.2611C40.0499 20.2611 42.6795 19.56 43.7872 18.7266L42.9565 19.7444C42.9565 19.7444 45.8174 18.238 46.74 16.9551L44.7102 17.4875C44.7102 17.4875 45.5408 16.2777 46.094 14.8176L44.7102 16.4201C44.7102 16.4197 45.5404 15.079 45.3557 13.1536Z" fill="#FFFEFD"/>
<path d="M61.1795 10.2733L62.2681 12.3517L63.242 12.8591C63.242 12.1439 62.0043 10.9379 61.1795 10.2733Z" fill="#C9B491"/>
<path d="M59.3475 49.8437C59.8783 50.3991 62.6223 52.0657 62.6223 52.0657C62.6223 52.0657 62.7108 50.2143 62.9764 48.6403C63.242 47.0663 63.1534 44.7521 63.1534 44.7521C63.5961 45.7703 64.5699 46.881 64.5699 46.881C64.3929 46.233 64.3928 44.2889 64.3928 44.2889C65.0126 41.3267 64.3047 35.9575 64.3047 35.9575L64.8766 36.7399L63.0145 32.0596C63.0145 32.0596 63.2212 37.7525 63.1657 39.9741C63.1657 39.9741 61.8721 35.5993 60.8957 33.3089C60.8957 33.3089 61.8941 39.0022 61.6031 41.9177L60.3053 39.9736C60.3053 39.9736 61.4426 46.369 61.0343 48.5825C61.0343 48.5825 56.7616 44.2779 55.3684 42.1948L57.0204 46.4994L53.4792 40.5286C53.4792 40.5286 56.3278 48.86 56.8814 50.1097L51.446 46.7774L53.4788 49.4154C53.4788 49.4154 50.0994 47.3328 48.1615 44.5558C48.1615 44.5558 50.163 50.8045 51.446 53.5819L48.1615 48.9994L50.4307 53.5819C50.4307 53.5819 44.1794 48.3054 40.7721 42.89L42.3483 47.8886C42.3483 47.8886 38.4424 43.3064 36.8658 40.113C36.8658 40.113 37.9506 46.6393 39.0418 48.7219L35.2863 43.029L37.0064 46.9167C37.0064 46.9167 34.0596 43.029 32.7367 40.3909C32.7367 40.3909 32.2132 45.3899 32.7825 48.5834L31.3524 43.3069L31.6489 48.8608C31.6489 48.8608 29.4971 41.2791 29.337 37.2485L27.7299 42.335V38.4473L26.8459 41.6407V35.8092C26.8459 35.8092 25.5154 37.314 24.088 39.3422C23.3103 42.1859 22.9655 44.9731 22.9655 44.9731L25.8217 41.5017C23.8558 44.1402 23.2056 47.6115 23.2056 47.6115L25.2651 44.6956C24.0706 46.7782 23.705 50.666 23.705 50.666C23.705 50.666 24.6014 49.1383 25.9183 47.75C27.2344 46.3613 28.7169 44.1398 28.7169 44.1398C26.9908 49.5552 29.9614 53.7204 29.9614 53.7204C30.2765 52.4707 31.1995 50.1102 31.1995 50.1102C31.0267 54.1369 36.2842 57.3307 35.7535 56.6364C35.2219 55.942 34.426 48.444 34.426 48.444C34.6916 49.5548 36.0191 51.4989 36.0191 51.4989L36.1516 48.5834C36.948 50.5266 40.0016 54.1369 40.0016 54.1369L39.6979 52.1584C41.291 54.4726 44.9203 56.6942 44.8313 56.3241C44.7428 55.9539 44.3006 54.5219 44.3006 54.5219C45.5395 55.7746 49.7881 57.25 49.7881 57.25L47.8926 55.1635C49.6369 56.7239 53.5936 58.3608 53.5936 58.3608C53.5936 58.3608 53.328 56.6942 53.1937 54.5219C53.0586 52.3492 52.7087 51.603 52.7087 51.603C53.4169 52.3436 54.9211 53.8246 54.9211 53.8246L54.4784 51.7878C54.9211 52.2506 59.7004 54.5219 59.7004 54.5219C59.7004 54.5219 59.6119 53.6393 59.6119 52.5285C59.6131 51.4173 58.8164 49.2883 59.3475 49.8437Z" fill="#C9B491"/>
<path d="M62.2682 12.3517L60.3048 10.496L63.3305 15.8596L64.3924 16.6802C64.3043 14.714 62.2682 12.3517 62.2682 12.3517Z" fill="#C9B491"/>
<path d="M63.3305 20.8624L61.6027 19.7448C61.6027 19.7448 63.2407 23.4545 64.079 25.9502C64.9168 28.4459 64.9249 30.2285 66.163 31.1442C66.163 31.1442 65.8089 30.1261 65.1896 29.4781C64.5703 28.83 65.1896 27.3487 65.1896 25.824C65.1896 24.2997 64.3929 22.0582 64.3929 22.0582L65.1896 23.0908C65.1896 22.0722 64.3929 19.7448 64.3929 19.7448C64.3047 17.3248 63.3309 15.86 63.3309 15.86L59.6504 14.4603C59.65 14.4598 62.5825 18.2741 63.3305 20.8624Z" fill="#C9B491"/>
<path d="M65.495 37.1083C65.6047 35.171 64.8507 32.1212 64.4517 30.6696C63.6516 30.322 62.9065 29.9769 62.9065 29.9769C62.9065 29.9769 64.5233 33.8379 65.495 37.1083Z" fill="#C9B491"/>
<path d="M47.6625 15.9285C47.6625 15.9285 46.7396 19.0802 43.6639 20.2612C43.6643 20.2612 47.5393 20.166 47.6625 15.9285Z" fill="#C9B491"/>
<path d="M48.278 17.4875C48.278 17.4875 46.8014 20.8994 42.6181 20.8624C42.6181 20.8624 47.164 22.4304 48.278 17.4875Z" fill="#C9B491"/>
<path d="M38.3119 6.43143C38.3119 6.43143 41.4617 6.38299 44.218 7.55582L38.3119 6.43143Z" fill="#C9B491"/>
<path d="M34.1998 2.44469C34.1998 2.44469 38.3738 1.19919 41.2647 1.44651C41.2647 1.44651 37.7774 0.0488809 34.1998 2.44469Z" fill="#C9B491"/>
<path d="M31.8857 19.2927C31.8857 19.2927 35.3676 20.8377 37.7625 20.862C37.7625 20.8624 34.4514 21.6311 31.8857 19.2927Z" fill="#C9B491"/>
<path d="M54.3683 24.6138C54.3683 24.6138 55.1947 26.3182 56.1965 27.984C56.1965 27.984 56.1961 25.5015 54.3683 24.6138Z" fill="#C9B491"/>
<path d="M58.4284 18.5418L61.1795 21.6273C61.1795 21.6273 60.5819 19.1588 58.4284 18.5418Z" fill="#C9B491"/>
<path d="M44.7102 28.6014C44.7102 28.6014 49.5081 30.144 51.0466 32.9214L48.8316 31.1439C48.8316 31.1439 52.2453 34.6492 53.0611 36.5627L47.6625 31.5637L49.6309 32.5818C49.6314 32.5818 45.8788 28.9716 44.7102 28.6014Z" fill="#C9B491"/>
<path d="M34.0977 28.1076C34.0977 28.1076 37.6969 28.6626 40.7725 27.3359C40.7725 27.3359 40.1033 28.5836 38.5004 29.0552C38.5004 29.0552 41.2652 28.7246 42.6181 27.6755C42.6181 27.6755 39.517 30.206 37.0073 30.5145L38.5004 29.6506C38.5004 29.6506 36.1576 29.589 34.0977 28.1076Z" fill="#C9B491"/>
<path d="M54.3683 35.1119C54.3683 35.1119 57.1153 37.1402 58.4288 42.1953L56.1969 39.5572L57.0204 42.7507L54.3683 37.1079L55.368 37.2481L54.3683 35.1119Z" fill="#C9B491"/>
<path d="M49.5458 35.1119C49.5458 35.1119 53.0154 38.8599 53.4788 43.584L49.5458 35.1119Z" fill="#C9B491"/>
<path d="M42.9565 29.9769C42.9565 29.9769 47.9019 33.7066 48.8626 36.5626L45.9093 33.9102C45.9093 33.9102 50.163 39.6961 51.446 42.751C52.7295 45.8059 54.3683 46.7778 54.3683 46.7778L47.1928 39.3481L48.8626 43.5839L44.7102 38.9313L46.74 46.7773C46.74 46.7773 42.0988 40.5176 40.7725 35.1115L42.9565 38.3767L41.5265 34.5582L45.6632 37.2481C45.6637 37.2489 43.5644 30.5319 42.9565 29.9769Z" fill="#FFFEFD"/>
<path d="M35.5082 33.5426C35.5082 33.5426 37.3974 33.4283 39.0422 36.5627C40.6874 39.6966 40.4637 44.1398 40.4637 44.1398C40.4637 44.1398 36.8137 37.5711 35.5082 33.5426Z" fill="#FFFEFD"/>
<path d="M34.0977 33.9102C34.0977 33.9102 36.0902 37.8914 36.313 40.1134L34.8245 37.2489L36.313 42.751C36.313 42.751 34.3374 40.3714 32.7375 36.5626L33.8478 37.2485L34.0977 33.9102Z" fill="#FFFEFD"/>
<path d="M30.8551 32.0596C30.8551 32.0596 30.069 35.4854 31.3529 41.5017L31.8857 35.1119C31.8857 35.1119 32.3724 33.8643 30.8551 32.0596Z" fill="#FFFEFD"/>
<path d="M61.6027 56.6088C61.6027 56.6088 62.3783 61.5147 63.1653 61.2368C63.9523 60.9597 61.6027 56.6088 61.6027 56.6088Z" fill="#472C2D"/>
<path d="M64.206 59.6743C64.206 59.6743 64.752 62.8112 65.5056 63.8293C66.2592 64.8475 65.5056 60.7744 65.5056 60.7744C65.5056 60.7744 68.289 67.2548 68.1971 65.7734C68.1047 64.2925 67.3668 61.7004 67.3668 61.7004C67.3668 61.7004 66.4125 59.2009 65.5056 58.0901L64.8762 59.6747L64.206 57.4841V59.6743Z" fill="#472C2D"/>
<path d="M55.5552 58.9285C55.5552 58.9285 58.0721 65.0324 58.4284 64.0142C58.7854 62.9965 55.5552 58.9285 55.5552 58.9285Z" fill="#472C2D"/>
<path d="M49.5458 59.6743C49.5458 59.6743 51.3105 61.0362 52.3258 61.7386C53.3403 62.441 53.4788 62.9964 53.4788 62.9964C53.4788 62.9964 53.7791 61.0727 49.5458 59.6743Z" fill="#472C2D"/>
<path d="M41.4367 56.6088L44.7097 60.4039C44.7102 60.4039 43.9282 57.8122 41.4367 56.6088Z" fill="#472C2D"/>
<path d="M30.6171 54.9421C30.6171 54.9421 25.2884 59.1193 26.3037 58.9285C27.3182 58.7377 29.8551 56.701 30.6171 54.9421Z" fill="#472C2D"/>
<path d="M31.8857 58.3604C31.8857 58.3604 29.0714 61.1288 28.0569 61.7386C28.0569 61.7386 29.6708 62.0934 30.6171 61.2487C31.5634 60.4039 31.8857 58.3604 31.8857 58.3604Z" fill="#472C2D"/>
<path d="M20.0288 56.6088L16.7994 58.3604C16.7994 58.3604 17.6296 58.8303 20.0288 56.6088Z" fill="#472C2D"/>
<path d="M62.9065 68.1298C62.1313 70.062 60.1697 75.3083 58.4563 76.4195C57.8925 76.7845 57.3855 76.2835 56.9598 75.4464C57.8612 78.1775 58.932 80.6617 59.65 79.8407C61.1063 78.1741 62.9065 71.2305 62.9065 71.2305C62.9065 71.2305 62.9277 71.2692 62.9662 71.3389C62.9874 69.4433 62.9065 68.1298 62.9065 68.1298Z" fill="#2E151A"/>
<path d="M43.3653 67.4299C43.3856 67.3725 43.4013 67.3198 43.4098 67.2739C43.4098 67.2739 43.3932 67.33 43.3653 67.4299Z" fill="#2E151A"/>
<path d="M46.493 64.6592C46.5028 64.4842 46.5095 64.3082 46.5095 64.1293C46.5091 64.1293 46.5023 64.3261 46.493 64.6592Z" fill="#2E151A"/>
<path d="M48.8626 76.5074C49.478 75.1187 51.446 72.0634 51.446 72.0634C51.446 72.0634 53.0505 75.3962 53.4788 74.2854C53.5207 74.1775 53.5711 74.0458 53.6287 73.8962C53.4233 70.803 51.5146 65.9931 51.5146 65.9931C52.6447 70.1087 51.5121 70.4941 51.5121 70.4941L50.2748 68.0724C50.5302 69.1679 50.3879 73.7598 48.8626 74.3823C47.3368 75.0048 48.278 70.3093 48.278 70.3093C48.278 70.3093 47.2504 72.5313 46.74 72.3456C46.3096 72.1892 46.4414 66.4521 46.493 64.6588C46.2668 68.7659 43.5212 71.8208 42.6181 72.5308C41.7679 73.2001 43.101 68.3656 43.3653 67.4294C43.001 68.4497 40.7725 71.2348 40.7725 71.2348L41.2647 67.2735C40.631 69.4224 35.6234 75.6784 33.8478 75.6185C32.0721 75.5585 37.5618 67.7167 37.5618 67.7167L34.8241 69.198C38.9164 61.029 37.2085 58.9281 37.2085 58.9281C36.654 63.2846 33.4089 66.6059 31.9603 67.3466C30.5116 68.0873 33.1129 64.1285 33.1129 64.1285C33.1129 64.1285 28.4259 69.1976 27.7308 69.9387C27.0357 70.6794 28.3958 66.4559 28.3958 66.4559C28.3958 66.4559 24.5505 70.4937 23.065 71.0491C21.5803 71.6045 24.8699 67.3462 24.8699 67.3462C24.8699 67.3462 21.2283 69.1976 20.6561 69.753C20.0847 70.3084 18.4598 69.753 16.7994 69.753C15.1385 69.753 17.9066 67.3462 19.1181 67.0177C20.3287 66.6892 17.9066 67.3457 16.7994 67.0177C15.6921 66.6892 21.646 61.8113 21.646 61.8113C21.646 61.8113 12.3699 66.6055 10.8446 66.9756C9.3197 67.3457 10.8446 65.1492 10.8446 65.1492C10.8446 65.1492 7.67238 69.5626 9.61028 69.0072C11.5482 68.4519 15.1889 67.6185 15.1889 67.6185C15.1889 67.6185 12.7389 71.5067 15.1889 71.5067C17.6389 71.5067 20.6561 71.5067 20.6561 71.5067C20.6561 71.5067 20.6688 74.84 21.6456 74.2846C22.6224 73.7288 24.8699 72.3405 24.8699 72.3405C24.8699 72.3405 24.404 75.5203 26.1436 74.347C27.8829 73.1738 31.2885 70.6739 31.2885 70.6739C31.2885 70.6739 29.1159 78.1732 31.9603 78.4507C34.8046 78.7286 39.0426 74.5621 39.0426 74.5621C39.0426 74.5621 40.4963 78.4507 41.5269 77.3395C42.5562 76.2291 45.3557 74.0067 45.3557 74.0067C45.3557 74.0067 48.2467 77.8961 48.8626 76.5074Z" fill="#2E151A"/>
<path d="M8.98295 62.9964C7.62621 62.719 14.0304 58.9353 14.0304 58.9353C14.0304 58.9353 6.80361 61.5478 5.18001 61.2491C3.55641 60.9504 5.18001 58.3612 5.18001 58.3612C5.18001 58.3612 -1.18731 65.6757 0.196968 65.1199C1.58082 64.5645 5.18001 62.8979 5.18001 62.8979C5.18001 62.8979 3.79574 65.1802 5.18001 65.15C6.4118 65.1233 9.93644 65.1441 10.698 65.1492C13.1658 63.4635 15.1885 61.8126 15.1885 61.8126C15.1885 61.8126 10.3397 63.2739 8.98295 62.9964Z" fill="#2E151A"/>
</g>
<defs>
<clipPath id="clip0_48_7916">
<rect width="72" height="80" fill="white"/>
</clipPath>
</defs>
</svg>
