<svg width="97" height="71" viewBox="0 0 97 71" fill="none" xmlns="http://www.w3.org/2000/svg">
<path d="M89.1524 47.7088C90.3695 47.3896 91.5388 46.8792 92.5736 46.1599C93.1194 45.7804 93.6259 45.3448 94.0828 44.862C94.4299 44.4951 94.7777 43.627 95.3308 43.693C95.859 43.7559 96.3426 44.1118 96.56 44.5973C96.8575 45.2625 96.5951 45.8174 96.2301 46.3689C94.5046 48.9789 91.9077 50.7192 88.9049 51.5C86.3575 52.1625 83.7952 51.9294 81.2112 52.4706C78.5406 53.0298 75.9966 54.1156 73.6929 55.5703C69.1252 58.4545 65.4416 62.7922 63.149 67.6223C62.9899 67.9572 62.8359 68.2985 62.6131 68.5953C61.7973 69.6811 59.9296 70.378 58.6072 70.2792C56.8188 70.1457 55.2047 68.9576 54.3153 67.4007C54.178 67.1608 54.0536 66.9026 54.0403 66.6264C54.0262 66.3347 54.1375 66.0532 54.2508 65.7835C57.1125 58.956 62.3515 53.5389 68.8064 50.0537C75.4516 46.4658 83.6983 47.4975 90.1128 43.344C90.4198 43.3741 90.5754 43.7704 90.4747 44.0622C90.3744 44.354 90.1109 44.5538 89.8576 44.73C87.7721 46.1794 85.4142 47.2358 82.9447 47.8278C83.7216 47.6336 84.9627 48.1505 85.7892 48.1604C86.9063 48.1737 88.0738 47.9914 89.1524 47.7088Z" fill="#B59A72"/>
<path opacity="0.54" d="M89.1524 47.7088C90.3694 47.3896 91.5388 46.8793 92.5736 46.16C93.1194 45.7805 93.6259 45.3449 94.0828 44.862C94.4299 44.4951 94.7777 43.627 95.3308 43.693C95.859 43.756 96.3426 44.1118 96.56 44.5973C96.8575 45.2625 96.5951 45.8175 96.2301 46.369C94.5046 48.9789 91.9077 50.7193 88.9049 51.5C86.3575 52.1625 83.7952 51.9295 81.2112 52.4707C78.5406 53.0298 75.9966 54.1157 73.6929 55.5704C69.1252 58.4545 65.4416 62.7922 63.149 67.6224C62.9899 67.9572 62.8358 68.2986 62.6131 68.5953C61.7973 69.6812 59.9295 70.378 58.6072 70.2792C57.7071 70.2121 57.2315 69.6968 56.5408 69.1602C58.9814 68.5724 60.5989 66.3351 62.0936 64.3182C63.0597 63.0146 64.1986 61.7998 64.8134 60.2719C65.011 59.7814 65.1437 59.1662 64.7963 58.7677C64.5045 58.4324 64.0003 58.4038 63.5563 58.4252C61.2873 58.5327 59.0531 59.2959 57.1922 60.5988C57.9646 58.8233 59.5623 57.4278 61.4254 56.9011C62.4255 56.6184 63.4831 56.5757 64.4778 56.2752C65.4729 55.9746 66.4588 55.3247 66.7391 54.3239C66.8124 54.0623 66.8032 53.7224 66.566 53.5893C66.439 53.518 66.283 53.5298 66.138 53.5493C64.7047 53.7419 63.3496 54.47 62.3976 55.5585C62.1726 55.1428 62.2977 54.6077 62.5792 54.2282C62.861 53.8487 63.2729 53.5909 63.6749 53.3426C64.437 52.8712 65.1994 52.3997 65.9615 51.9287C66.3219 51.706 66.6938 51.4783 67.1114 51.4062C67.698 51.3051 68.2857 51.5217 68.8529 51.7025C72.0475 52.7193 74.8551 52.4566 77.965 51.5092C81.7764 50.3482 85.8662 50.326 89.6646 49.1242C91.159 48.6513 92.5957 47.9987 93.9348 47.184C94.5634 46.8015 95.1912 46.3621 95.56 45.7255C95.9292 45.089 95.9689 44.2072 95.4696 43.6663C92.0404 47.5155 86.3239 49.1513 81.3774 47.6985C83.5042 46.8839 85.6309 46.0696 87.7572 45.2549C88.7645 44.8693 89.8843 44.3719 90.2432 43.3551C90.035 43.9448 90.8092 44.0676 89.8561 44.7301C87.7706 46.1794 85.4127 47.2359 82.9431 47.8278C83.72 47.6337 84.9611 48.1505 85.7876 48.1604C86.9063 48.1738 88.0738 47.9915 89.1524 47.7088Z" fill="#8A553A"/>
<path opacity="0.34" d="M62.2481 67.1574C62.2923 67.2203 62.3332 67.2855 62.3705 67.3534C63.4869 69.3779 60.0604 70.3879 58.6068 70.2796C56.8184 70.1461 55.2043 68.958 54.3149 67.4011C54.0941 67.0147 53.8702 66.4075 54.215 66.0166C54.3755 65.8343 54.6078 65.7336 54.8359 65.6497C56.8688 64.9014 59.23 65.1043 61.1054 66.189C61.541 66.4403 61.9613 66.7489 62.2481 67.1574Z" fill="#8A553A"/>
<path d="M69.5531 51.4618C69.9067 51.6869 70.277 51.8932 70.6451 52.0118C71.0986 52.1579 71.5902 52.1407 72.0685 52.122C72.9904 52.0862 73.9118 52.05 74.8337 52.0141C75.064 52.005 75.3055 51.9981 75.5122 52.0953C75.7426 52.2037 75.8902 52.4233 75.9989 52.6446C76.5763 53.8212 76.2777 55.3331 75.2906 56.2305C75.5179 55.6634 75.656 55.0642 75.6987 54.4589C75.0881 54.727 74.3054 54.0333 74.5442 53.4356C73.6075 53.1431 72.6601 53.375 71.7069 53.3669C70.6867 53.3586 69.6676 53.0828 68.788 52.5637C67.9665 52.0786 67.0103 51.2296 66.0926 51.9947C65.7742 52.2601 65.5449 52.6144 65.2696 52.9245C64.9942 53.2342 64.6406 53.5134 64.2272 53.5435C63.7905 53.5756 63.2832 53.3433 62.9522 53.6297C62.784 53.7754 62.7298 54.0096 62.6852 54.2278C62.6131 54.579 62.5498 54.9757 62.7554 55.2694C62.3835 55.1161 62.237 54.6649 62.2119 54.2632C62.1859 53.854 62.2542 53.4089 62.5402 53.1148C62.9312 52.7132 63.5697 52.7292 64.0964 52.5378C64.6166 52.3486 65.0148 51.9458 65.252 51.4519C65.3131 51.3245 65.3642 51.1903 65.3806 51.0499C65.4809 50.1959 64.3431 49.5334 63.7916 49.0464C63.3748 48.6783 62.9449 48.3252 62.5227 47.9632C62.3556 47.8198 61.451 46.822 61.2869 46.8484C61.8297 46.761 62.3511 46.5547 62.7981 46.2496C62.8541 46.2114 62.9209 46.1695 62.9865 46.1893C63.0273 46.2019 63.0559 46.2354 63.0826 46.2671C64.6551 48.1509 66.7121 49.559 68.7629 50.9324C69.0096 51.0984 69.2762 51.2856 69.5531 51.4618Z" fill="#544B35"/>
<path d="M60.9239 56.4987C61.1752 56.0646 61.2099 55.5669 60.7976 55.1309C58.4203 52.6194 56.0426 50.1079 53.6653 47.5967C54.7058 47.5189 55.7467 47.4411 56.7871 47.3636C58.2918 49.4446 59.8186 51.511 61.3667 53.563C61.9598 54.3491 62.5601 55.1374 63.2889 55.8129C63.6059 56.1062 64.019 56.3964 64.4503 56.3026C64.6582 56.2576 64.8332 56.1279 64.9984 55.999C65.5774 55.5471 67.6694 53.6614 68.4581 54.6191C68.4989 54.6683 68.531 54.7259 68.5836 54.7637C68.6317 54.798 68.6915 54.8129 68.7472 54.8346C68.9257 54.9048 69.0657 55.0585 69.1126 55.2366C68.9631 55.118 68.7938 55.0108 68.6012 54.9818C68.2621 54.9303 67.7048 55.3503 67.3681 55.4731C66.9703 55.618 66.521 55.7755 66.3562 56.1867C67.1995 56.4029 68.0767 56.0448 68.8578 55.6737C69.6424 55.3007 71.3503 54.4211 72.1032 55.2469C72.3191 55.4837 72.5342 55.7423 72.6296 56.0425C72.7371 56.38 72.5842 56.6287 72.5914 56.9369C72.5811 56.5112 72.3744 56.0932 72.0357 55.814C71.5322 56.1501 70.9346 55.7877 70.3968 55.933C69.8514 56.0806 69.4738 56.6024 68.9692 56.7531C69.9742 56.4537 71.2172 56.4403 71.8503 57.3812C71.914 57.4758 71.9701 57.5834 71.9587 57.6951C71.9476 57.8069 71.8442 57.9163 71.7271 57.9011C71.9003 57.9938 71.9644 58.21 71.9289 58.3954C71.837 58.8721 71.5258 58.9988 71.2943 59.3455C71.4869 59.0571 71.6882 58.7238 71.5963 58.3939C71.5254 58.1383 71.2904 57.9518 71.0414 57.8343C69.3544 57.0376 67.3284 58.7531 65.527 58.2291C64.8767 58.0399 64.3542 57.5735 63.6951 57.4079C62.5116 57.1108 61.6935 57.6242 60.6923 58.109C60.1359 58.3782 59.5809 58.5003 58.9817 58.6071C58.4665 58.699 58.1404 59.3321 57.5782 59.2631C57.5347 59.2577 57.484 59.2494 57.4519 59.278C57.4298 59.2974 57.4245 59.3283 57.421 59.3565C57.3837 59.643 57.3223 60.4634 57.6342 60.6518C57.1098 60.3352 56.8547 59.6666 57.0431 59.104C57.0766 59.0037 57.1232 58.9053 57.1342 58.8004C57.1438 58.7093 57.1258 58.6158 57.1476 58.5266C57.1949 58.3298 57.4104 58.2177 57.6083 58.1437C58.3547 57.8645 59.1717 57.7634 59.8887 57.422C60.2968 57.2268 60.6977 56.8885 60.9239 56.4987Z" fill="#544B35"/>
<g opacity="0.31">
<path d="M63.6532 56.1687C63.6532 56.1687 64.0304 56.2774 64.6025 56.3987C64.8874 56.4651 65.2246 56.5188 65.5846 56.5772C65.9454 56.6321 66.3326 56.6733 66.7208 56.6996C67.1087 56.7275 67.4977 56.7397 67.8627 56.7347C68.2274 56.7252 68.5683 56.7179 68.8594 56.6885C69.4425 56.6428 69.8297 56.5802 69.8297 56.5802C69.8297 56.5802 69.7343 56.6016 69.5669 56.639C69.3994 56.6744 69.1595 56.7282 68.8674 56.7641C68.2846 56.8506 67.4962 56.8838 66.7113 56.8339C65.9271 56.774 65.151 56.6329 64.5846 56.4719C64.3 56.3983 64.0682 56.3144 63.9068 56.2591C63.7451 56.2019 63.6532 56.1687 63.6532 56.1687Z" fill="#544B35"/>
</g>
<path d="M32.259 34.1491C23.2087 39.5704 14.1309 44.9467 5.47068 50.9492C3.69829 52.1777 1.93963 53.4237 0.195089 54.6877C0.106984 54.7514 0.0112509 54.8277 0.000952962 54.9326C-0.0120148 55.0619 0.109655 55.1652 0.226364 55.2331C1.38812 55.9082 2.87941 55.3514 4.10525 54.7884C3.38592 55.343 2.91069 56.1748 2.81305 57.0501C3.31689 56.9994 3.81004 56.8568 4.25819 56.6325C3.97138 56.8923 4.23531 57.4148 4.62701 57.4712C5.01871 57.5277 5.3902 57.2489 5.57442 56.9155C5.58967 57.0696 5.60493 57.2237 5.62019 57.3774C5.8517 57.4811 6.11449 57.3301 6.32045 57.1855C8.63176 55.5608 10.9293 53.9181 13.212 52.2578C15.2472 50.7776 17.0013 49.0857 19.0803 47.6459C22.2647 45.4501 25.7603 43.4207 29.6662 42.9717C28.8229 44.6301 28.6692 46.5947 29.2444 48.3534C33.663 47.1424 37.2089 43.6041 41.7674 43.0263C44.2702 46.6443 49.0099 48.2828 53.5395 48.7538C57.6171 49.178 61.7965 48.7515 65.691 47.5303C69.6977 46.2739 73.4347 44.1503 76.3143 41.2001C77.7453 39.734 79.1893 38.1119 80.0025 36.2655C80.9594 34.0926 81.411 31.7542 81.8138 29.4418C82.2833 26.7468 82.7002 23.9637 82.0312 21.3068C81.6509 19.7964 82.4816 19.3033 83.1701 18.0649C83.5206 17.4344 83.7639 16.7502 83.8901 16.0476C84.1941 14.3553 84.2399 12.6199 84.0618 10.9124C83.8234 8.62587 83.3363 6.41754 81.9633 4.48344C80.8202 2.87353 79.1386 1.67057 77.2594 0.931792C75.7868 0.352819 74.1971 0.049224 72.6055 0.00498107C71.1653 -0.0350664 69.7213 0.186149 68.3643 0.644597C68.6591 0.894036 68.9543 1.14348 69.2492 1.39292C67.4882 1.19992 65.6655 1.55233 64.1242 2.38456C64.3016 2.67977 64.6052 2.90441 64.95 2.99595C63.7909 3.03142 62.6436 3.36744 61.6645 3.95785C61.483 4.0677 61.2946 4.20157 61.2378 4.39876C61.0688 4.9865 62.1142 5.26493 62.2397 5.86259C59.2628 6.43394 58.6255 9.41003 58.4032 11.8625C58.3787 12.1325 55.6155 13.2943 55.2482 13.5029C54.1768 14.112 53.1314 14.7611 52.1119 15.4461C50.0702 16.8181 48.1369 18.3334 46.3153 19.9608C44.5364 21.5501 43.0413 23.289 41.3612 24.9572C39.6335 26.6728 37.6849 28.1713 35.6905 29.5951C34.8098 30.2237 33.9181 30.8381 33.0264 31.4522C32.6465 31.7138 32.2533 31.9903 32.0382 32.3866C31.8231 32.7829 31.8498 33.3359 32.2251 33.6037C32.4715 33.7795 32.801 33.7951 33.1088 33.8043C32.9024 33.7986 32.5859 33.9534 32.259 34.1491Z" fill="#88948D"/>
<path d="M39.8978 30.2572C36.7806 31.1459 34.2549 32.718 31.6163 34.5255C28.7939 36.4592 25.6977 38.0733 22.7723 39.8495C16.9147 43.4054 11.1036 47.0451 5.47068 50.9495C3.69829 52.178 1.93963 53.4241 0.195089 54.6881C0.106984 54.7518 0.0112509 54.828 0.000952962 54.9329C-0.0120148 55.0622 0.109655 55.1656 0.226364 55.2335C1.38812 55.9086 2.87941 55.3517 4.10525 54.7888C3.38592 55.3433 2.91069 56.1752 2.81305 57.0505C3.31689 56.9998 3.81004 56.8571 4.25819 56.6329C3.97138 56.8926 4.23531 57.4151 4.62701 57.4716C5.01871 57.528 5.3902 57.2492 5.57442 56.9159C5.58967 57.0699 5.60493 57.224 5.62019 57.3777C5.8517 57.4815 6.11449 57.3304 6.32045 57.1859C8.63176 55.5611 10.9293 53.9184 13.212 52.2581C15.2472 50.7779 17.0013 49.086 19.0803 47.6462C21.4065 46.0348 23.8757 44.5317 26.5829 43.6556C28.9377 42.8935 31.2151 43.5636 32.722 41.1917C33.8624 39.3968 34.4719 37.3231 35.6032 35.5255C36.7989 33.6258 38.5724 32.0864 39.8978 30.2572Z" fill="#B59A72"/>
<path d="M33.4879 35.6149C32.2662 36.5367 31.1739 37.6134 30.2498 38.8076C30.5652 38.676 30.8974 38.5792 31.2365 38.5204C30.3958 39.6032 29.313 40.5152 28.0811 41.1788C28.2123 40.7833 28.3435 40.3878 28.4747 39.9923C27.7844 40.7139 27.0936 41.4355 26.4033 42.1575C26.8221 41.5163 27.1749 40.8359 27.4541 40.1292C26.3789 41.1071 25.3979 42.1789 24.5279 43.3261C24.9181 42.7803 25.0299 42.0633 24.8231 41.4336C24.0584 42.3268 23.3544 43.267 22.7159 44.2457C23.0744 43.5618 23.1999 42.7697 23.0683 42.0156C21.844 43.1511 20.7532 44.4166 19.8222 45.7805C20.1322 44.9551 20.445 44.0565 20.1681 43.2209C19.2546 44.2323 18.4205 45.3079 17.6741 46.4365C17.8801 45.8686 17.9243 45.2484 17.8003 44.6595C16.3697 45.9128 15.3395 47.5185 14.0401 48.895C12.4706 50.5575 10.5025 51.8787 8.32891 52.7289C8.84266 52.0919 9.3568 51.455 9.87055 50.818C8.71108 51.6011 7.38074 52.1545 5.989 52.4337C6.31472 51.8162 6.95128 51.4127 7.55314 51.0251C10.8344 48.9129 13.8677 46.4532 16.5783 43.706C15.682 44.013 14.8406 44.7568 14.0538 45.2583C13.0732 45.8838 12.0957 46.5139 11.1227 47.1501C9.2214 48.3927 7.33535 49.6574 5.47105 50.9496C3.69866 52.1781 1.94 53.4242 0.195459 54.6882C0.107354 54.7519 0.0116209 54.8281 0.00132299 54.933C-0.0116448 55.0623 0.110025 55.1657 0.226734 55.2336C1.38849 55.9087 2.87978 55.3518 4.10562 54.7889C3.38629 55.3434 2.91106 56.1753 2.81342 57.0506C3.31726 56.9999 3.81041 56.8572 4.25856 56.6329C3.97175 56.8927 4.23568 57.4152 4.62738 57.4717C5.01909 57.5281 5.39057 57.2493 5.57479 56.9159C5.59005 57.07 5.6053 57.2241 5.62056 57.3778C5.85207 57.4816 6.11486 57.3305 6.32082 57.186C8.63213 55.5612 10.9297 53.9185 13.2124 52.2582C15.2476 50.778 17.0017 49.0861 19.0807 47.6463C21.1727 46.1973 23.3795 44.8372 25.7969 43.9314C28.0388 43.0912 30.8066 43.4207 32.2266 41.3146C33.3937 39.5834 33.743 37.4624 33.7701 35.4062C33.6755 35.4749 33.5813 35.5447 33.4879 35.6149Z" fill="#544B35"/>
<path d="M35.7832 30.5006C35.8629 30.6535 35.9994 30.8084 36.2081 30.9636C36.4403 31.1364 36.7252 31.2443 37.0189 31.2707C36.9518 32.2188 36.6764 33.1529 36.2161 33.9962C35.6745 34.9882 34.8533 35.9554 34.9548 37.0688C34.9799 37.3434 35.0623 37.6126 35.0707 37.888C35.0867 38.4048 34.8438 38.893 34.6069 39.3579C34.2408 40.0761 33.8743 40.7943 33.5081 41.5129C33.3597 41.8035 33.2079 42.1216 33.2785 42.4374C33.4002 42.9805 34.0836 43.2037 34.6649 43.2609C37.9149 43.5809 41.0298 41.7486 43.1748 39.4071C43.5482 38.9994 43.9071 38.5696 44.3716 38.258C44.8362 37.9464 45.4365 37.7644 45.9804 37.9216C46.5243 38.0787 46.9442 38.6531 46.7734 39.1688C46.6544 39.5281 46.3584 40.0407 46.7303 40.1707C46.863 40.2173 47.0094 40.16 47.1349 40.0975C48.3459 39.4926 49.148 38.3274 50.3162 37.6504C50.4459 37.5753 50.5966 37.5039 50.7442 37.539C51.0245 37.6058 51.0607 37.9773 50.9711 38.2385C50.8815 38.4998 50.7278 38.7797 50.841 39.0322C52.3388 38.6867 53.1257 37.0924 54.4892 36.4093C54.7497 36.2789 55.091 36.1908 55.3214 36.3655C55.5785 36.5604 55.548 36.9768 55.8126 37.1626C56.0396 37.3216 56.3706 37.2248 56.5888 37.0558C56.807 36.8868 56.9679 36.6549 57.1987 36.5012C57.5606 36.2606 58.034 36.2491 58.4516 36.1122C58.8795 35.9718 59.2449 35.7014 59.5954 35.4287C61.5208 33.9325 63.2752 32.2371 64.8176 30.3831C65.1265 30.0116 65.469 29.6081 65.9569 29.512C66.4447 29.4159 67.0408 29.8633 66.8452 30.2988C67.2281 30.2878 67.4764 29.9189 67.632 29.5864C68.4688 27.7968 68.8777 25.1682 67.9226 23.3412C67.7174 22.9484 66.9085 21.6997 66.4191 22.0941C66.0316 22.4064 65.6441 22.7188 65.2566 23.0315C65.0735 22.5632 64.9812 22.0632 64.9858 21.5639C64.5781 21.8049 64.1704 22.046 63.7626 22.2874C63.5674 22.0018 63.4949 21.6425 63.5658 21.3087C63.3099 21.6375 62.9575 21.898 62.5589 22.0521C62.5353 21.6512 62.6238 21.2447 62.8126 20.8858C62.3408 21.0833 62.0406 21.5261 61.6264 21.8175C61.2122 22.1093 60.5051 22.1757 60.2751 21.7374C60.1523 21.5036 60.2225 21.2233 60.3029 20.9735C60.4868 20.4002 60.7114 19.8392 60.975 19.2949C60.528 19.7637 59.9665 20.1332 59.3479 20.3667C59.5672 19.4498 59.7865 18.5325 60.0054 17.6156C59.5901 18.0161 59.119 18.3647 58.608 18.6488C58.6942 17.8135 58.8994 16.9897 59.2163 16.2063C58.8826 16.643 58.5492 17.0797 58.2155 17.5168C58.2353 16.8158 58.2548 16.1148 58.2742 15.4137C57.8154 15.8676 57.3566 16.3211 56.8977 16.775C56.6464 17.0237 56.2753 17.2926 55.9599 17.1221C55.6887 16.9752 55.6803 16.6129 55.707 16.3173C55.7573 15.754 55.8081 15.1903 55.8584 14.6269C55.3786 15.0857 54.8984 15.545 54.4186 16.0038C54.689 15.1986 54.9594 14.3939 55.2299 13.5891C54.1726 14.1967 53.1218 14.7688 52.1111 15.4481C50.0695 16.82 48.1361 18.3353 46.3145 19.9628C44.5357 21.5521 43.0406 23.2909 41.3605 24.9592C40.0816 26.2292 38.675 27.4913 37.1677 28.5158C36.5059 28.9651 35.3694 29.7054 35.7832 30.5006Z" fill="#686343"/>
<path d="M35.7832 30.5006C35.8629 30.6535 35.9994 30.8084 36.2081 30.9636C36.4403 31.1364 36.7252 31.2443 37.0189 31.2707C36.9518 32.2188 36.6764 33.1529 36.2161 33.9962C35.6745 34.9882 34.8533 35.9555 34.9548 37.0688C34.9799 37.3434 35.0623 37.6127 35.0707 37.888C35.0867 38.4048 34.8438 38.893 34.6069 39.358C34.2408 40.0761 33.8743 40.7943 33.5081 41.5129C33.3597 41.8035 33.2079 42.1216 33.2785 42.4374C33.4002 42.9805 34.0836 43.2037 34.6649 43.2609C37.9149 43.5809 41.0298 41.7486 43.1748 39.4072C43.5482 38.9994 43.9071 38.5696 44.3716 38.258C44.8362 37.9464 45.4365 37.7645 45.9804 37.9216C46.5243 38.0787 46.9442 38.6531 46.7734 39.1688C46.6544 39.5281 46.3584 40.0407 46.7303 40.1707C46.863 40.2173 47.0094 40.1601 47.1349 40.0975C48.3459 39.4926 49.148 38.3274 50.3162 37.6504C50.4459 37.5753 50.5966 37.504 50.7442 37.539C51.0245 37.6058 51.0607 37.9773 50.9711 38.2385C50.8815 38.4998 50.7278 38.7797 50.841 39.0322C52.3388 38.6867 53.1257 37.0924 54.4892 36.4093C54.7497 36.2789 55.091 36.1908 55.3214 36.3655C55.5785 36.5604 55.548 36.9769 55.8126 37.1626C56.0396 37.3216 56.3706 37.2248 56.5888 37.0558C56.807 36.8868 56.9679 36.6549 57.1987 36.5012C57.5606 36.2606 58.034 36.2491 58.4516 36.1122C58.8795 35.9719 59.2449 35.7014 59.5954 35.4287C61.5208 33.9325 63.2752 32.2371 64.8176 30.3831C65.1265 30.0116 65.469 29.6081 65.9569 29.512C66.4447 29.4159 67.0408 29.8633 66.8452 30.2988C67.2281 30.2878 67.4764 29.919 67.632 29.5864C68.0855 28.6165 68.3654 27.5508 68.449 26.4833C68.4894 25.9669 68.5024 25.4195 68.4085 24.9077C68.3384 24.524 68.0531 24.0781 68.0679 23.691C68.0187 24.9531 67.349 26.1762 66.3123 26.8979C66.2067 26.9715 66.074 27.0428 65.9553 26.9928C65.8699 26.957 65.8207 26.8693 65.7566 26.8021C65.3981 26.4276 64.7844 26.7903 64.4065 27.145C63.4964 27.9986 62.562 28.8259 61.6047 29.6264C61.3297 29.8564 60.9502 30.0956 60.6408 29.914C60.187 29.6474 60.5066 28.9185 60.293 28.4372C58.9268 29.5669 57.5606 30.6967 56.1944 31.8264C55.9976 31.9892 55.6498 32.1269 55.5365 31.8977C55.4961 31.8157 55.5121 31.7188 55.5289 31.6292C55.6197 31.1456 55.7108 30.6623 55.8016 30.1787C54.2127 30.7741 53.0337 32.138 51.5203 32.905C51.3559 32.9881 51.1629 33.0652 50.9932 32.9935C50.6866 32.8638 50.7388 32.4175 50.8479 32.1029C51.3693 30.599 51.9772 29.1253 52.668 27.6908C52.3167 27.6797 51.9944 27.8693 51.6961 28.0543C49.611 29.3476 47.5873 30.7397 45.6333 32.2242C45.2306 32.5301 44.7454 32.8581 44.2603 32.7166C44.6447 31.318 45.3576 30.0105 46.3248 28.9296C45.0151 29.1676 44.0383 30.2462 42.843 30.8324C42.5722 30.9652 42.1999 31.0536 42.0054 30.8229C41.862 30.6528 41.9002 30.3995 41.9539 30.1837C42.6714 27.288 44.7019 24.7486 44.8778 21.7706C43.4494 22.292 42.4078 23.9195 41.3612 24.9584C40.0824 26.2285 38.6758 27.4906 37.1684 28.515C36.5059 28.9651 35.3694 29.7054 35.7832 30.5006Z" fill="#544B35"/>
<path d="M32.0385 32.3873C31.677 33.054 32.0794 33.9152 32.9318 33.8393C33.2415 33.8115 33.5295 33.6811 33.8056 33.5449C34.6695 33.1185 35.4906 32.6146 36.255 32.0418C35.4742 32.6269 34.8781 33.6383 34.2762 34.3813C33.5962 35.2208 32.8994 36.0328 32.2903 36.923C32.9081 36.7826 33.4959 36.5233 34.007 36.1644C33.5211 36.6846 32.9371 37.1129 32.4222 37.6069C31.9073 38.1012 31.4497 38.6874 31.3108 39.3705C31.6224 39.4853 31.9653 39.3297 32.2594 39.1783C32.7361 38.9326 33.2125 38.6874 33.6893 38.4418C33.0905 39.25 32.209 39.6809 31.5389 40.3831C30.8718 41.0818 30.3253 42.022 29.8828 42.8611C28.974 44.5847 28.6337 46.484 29.2451 48.3537C29.3481 48.668 34.3735 45.7826 34.753 45.5374C36.4834 44.4195 38.323 43.4546 40.2407 42.6589C42.0859 41.8935 44.9239 40.7271 45.2008 38.4917C45.1196 39.1477 45.1146 39.8125 45.1863 40.4697C45.2123 40.7058 45.2554 40.9571 45.4258 41.1307C45.7684 41.48 46.3782 41.3172 46.8248 41.0979C48.1556 40.4445 49.3269 39.4998 50.2213 38.3579C50.5496 38.7957 49.9196 39.6397 50.4409 39.8491C50.6175 39.9201 50.8178 39.8388 50.9886 39.7557C52.3537 39.0924 53.6161 38.2392 54.723 37.2316C54.6661 37.5455 54.6097 37.8719 54.7008 38.1786C54.7924 38.4852 55.0777 38.7644 55.4125 38.7495C55.628 38.74 55.8165 38.6164 55.9915 38.4971C59.6076 36.0385 63.3252 33.4774 65.6128 29.8544C65.7276 30.3758 65.8421 30.8972 65.9569 31.4186C65.9858 31.5505 67.1625 30.3701 67.241 30.2381C67.6286 29.5901 67.7586 28.8437 67.5748 28.1095C65.8245 27.857 64.2779 29.1793 63.2043 30.5165C62.5059 31.3865 61.8793 32.3084 61.3316 33.2711C61.4536 32.8618 61.3804 32.4041 61.1363 32.0475C60.2068 33.051 59.2773 34.0545 58.3478 35.0579C58.2178 34.4763 58.0877 33.8943 57.9577 33.3126C57.4775 33.821 57.064 34.3863 56.7292 34.9908C56.7723 34.6189 56.7147 34.2368 56.5629 33.8916C56.2188 34.3828 55.8748 34.8745 55.5308 35.3657C55.5342 34.9454 55.4396 34.5247 55.255 34.1429C55.2123 34.0548 55.1578 33.9622 55.0636 33.9248C54.9167 33.8668 54.7573 33.969 54.6413 34.0728C53.216 35.3489 52.941 37.7076 51.1416 38.4429C51.3605 37.5077 51.3514 36.5248 51.1153 35.5934C50.1156 36.9825 48.9031 38.2331 47.5278 39.2934C48.069 38.1244 48.6224 36.8585 48.3478 35.6083C48.2868 35.3299 48.0625 34.9958 47.7787 35.0869C47.6506 35.1281 47.5705 35.246 47.5007 35.3562C47.0049 36.1365 46.5094 36.9165 46.0136 37.6969C45.7859 37.1522 45.3316 36.4935 44.7405 36.661C44.5353 36.719 44.3774 36.8711 44.229 37.0176C43.4979 37.7388 42.835 38.489 42.0874 39.2015C42.0497 39.0356 42.1347 38.8701 42.1736 38.7045C42.2125 38.539 42.1736 38.322 42.0031 38.2716C41.8883 38.2377 41.7682 38.2964 41.6648 38.354C40.4504 39.0326 39.3371 39.8629 38.1349 40.5601C36.9327 41.2573 35.6058 41.8286 34.2 41.9095C35.5208 41.2451 36.8008 40.5059 38.109 39.8266C38.6658 39.5375 39.1941 39.221 39.7017 38.8438C40.0679 38.5714 40.8151 37.6019 41.2174 37.5065C40.0141 37.7915 38.8104 38.076 37.6071 38.3609C38.9103 37.4356 40.2601 36.4581 40.9783 35.0713C39.2986 35.675 37.6189 36.2788 35.9392 36.883C36.8149 36.3227 37.702 35.7525 38.3866 34.9893C37.8126 35.0122 37.2424 35.1254 36.7069 35.3234C38.1101 34.5106 39.2746 33.3302 40.0377 31.9472C39.1643 32.4609 38.2905 32.9751 37.4171 33.4888C38.4839 32.763 39.3882 31.8221 40.0515 30.7465C39.2311 31.0955 38.4111 31.4449 37.5907 31.7939C38.1979 31.1993 38.8054 30.605 39.4126 30.0104C38.8249 30.2263 37.8897 30.8098 37.276 30.8343C37.1883 30.8377 37.0891 30.827 37.0342 30.7618C36.964 30.679 37.0021 30.5566 37.0494 30.4601C37.3225 29.9033 37.7909 29.4593 38.2192 28.9993C39.2513 27.8913 40.0919 26.6358 40.8986 25.3699C39.2013 26.8085 37.6029 28.3834 35.6894 29.5955C34.8087 30.224 33.917 30.8385 33.0252 31.4525C32.6469 31.7145 32.2537 31.9907 32.0385 32.3873Z" fill="#212D35"/>
<path d="M57.3211 13.5124C58.0732 13.5975 58.8612 13.2924 59.3361 12.7317C58.9299 13.3583 58.6198 14.0407 58.4184 14.7516C59.3178 14.6548 60.1786 14.2611 60.8193 13.6539C60.4185 14.2196 60.1462 14.8668 60.026 15.5392C60.8617 15.3504 61.6497 14.9725 62.3061 14.4461C62.2103 14.8146 62.115 15.183 62.0193 15.5514C61.9773 15.7131 61.9433 15.9061 62.0639 16.0267C62.2355 16.1979 62.5345 16.0675 62.7382 15.9313C63.5201 15.4076 64.3016 14.8844 65.0835 14.3607C64.9664 14.8214 64.9168 15.4328 65.363 15.6449C65.5869 15.7513 65.8562 15.7036 66.0949 15.6315C66.7037 15.4485 67.264 15.1208 67.7106 14.6872C67.8521 15.0297 67.9936 15.3726 68.1355 15.7151C68.1881 15.8428 68.2571 15.9855 68.3948 16.0267C68.4863 16.0541 68.5863 16.0282 68.6736 15.99C69.5055 15.6292 69.5913 14.3595 70.4605 14.0903C70.7206 14.0098 71.0021 14.0407 71.2748 14.0624C73.5968 14.2482 75.9783 13.6886 77.9414 12.4952C79.9045 11.3022 81.4377 9.48252 82.2337 7.40158C82.6723 6.25432 82.6662 5.47358 81.9629 4.48307C80.8198 2.87316 79.1382 1.67021 77.259 0.931425C75.7864 0.352453 74.1967 0.0488578 72.6051 0.00461486C71.1649 -0.0354326 69.721 0.185783 68.3639 0.644231C68.6587 0.89367 68.954 1.14311 69.2488 1.39255C67.4878 1.19956 65.6651 1.55198 64.1238 2.3842C64.3012 2.67941 64.6048 2.90406 64.9496 2.99559C63.7905 3.03106 62.6432 3.36708 61.6642 3.9575C61.4826 4.06734 61.2942 4.20121 61.2374 4.39839C61.0684 4.98614 62.1138 5.26457 62.2393 5.86223C60.5364 6.18909 59.4867 7.43857 58.9608 8.94322C58.7087 9.6656 58.5439 10.4425 58.4726 11.2004C58.4344 11.6073 58.4287 11.8709 58.2617 12.2393C58.1934 12.3934 57.466 13.5288 57.3211 13.5124Z" fill="#565956"/>
<path opacity="0.49" d="M41.7678 43.0263C44.2706 46.6443 49.0103 48.2828 53.5399 48.7539C57.6175 49.178 61.7969 48.7516 65.6914 47.5303C69.6981 46.274 73.4351 44.1503 76.3147 41.2002C77.7457 39.734 79.1897 38.1119 80.0029 36.2655C80.9598 34.0927 81.4114 31.7543 81.8141 29.4418C82.2837 26.7468 82.7005 23.9637 82.0316 21.3068C81.6513 19.7965 82.482 19.3033 83.1704 18.0649C83.8772 16.7937 84.2044 15.4111 83.6495 14.0209C83.4191 14.5518 82.4793 16.6125 81.5819 16.1632C81.2653 16.0046 81.1047 15.5434 80.7485 15.574C80.443 16.3883 79.4681 16.833 78.5585 16.8322C77.6488 16.8314 76.7849 16.4806 75.9508 16.1354C76.0816 16.479 76.124 16.8528 76.0732 17.2148C75.5416 16.9619 75.0099 16.7086 74.4782 16.4558C74.4042 16.5515 74.4015 16.6922 74.4717 16.7906C73.895 16.7002 73.3184 16.6102 72.7417 16.5198C72.8759 16.6617 73.0106 16.8036 73.1448 16.9451C70.8835 16.6522 68.5874 16.8097 66.3112 16.9672C67.9005 17.3456 69.4967 17.7045 71.0807 18.103C72.3141 18.4135 73.6811 18.555 74.8154 19.1447C75.2471 19.3693 75.7418 19.6546 76.1953 19.4727C76.5138 19.3449 76.8094 18.9959 77.1229 19.1344C77.272 19.2004 77.3471 19.3563 77.4303 19.491C77.6023 19.7698 77.8838 20.0127 78.2225 20.0421C78.5612 20.0715 78.9288 19.8114 78.9048 19.4891C81.1337 23.535 80.295 29.2412 78.4204 33.2643C78.4677 32.8421 78.4036 32.4088 78.235 32.0155C78.0264 32.6948 77.8178 33.3737 77.6088 34.053C77.4974 33.2753 77.0977 31.7959 76.2151 31.5186C76.2594 32.8741 76.0164 34.2376 75.5046 35.5039C75.6102 34.7586 75.3352 33.9729 74.7807 33.4359C74.5861 34.603 74.3893 35.7789 73.9599 36.8876C73.5304 37.9964 72.8473 39.0471 71.8431 39.7443C71.7557 39.2439 71.4766 38.7756 71.0696 38.4472C70.5421 39.5815 70.0078 40.7268 69.2305 41.7231C68.555 42.5889 67.0832 43.9783 65.9271 44.1038C65.8768 43.6491 65.9244 43.1705 65.937 42.7097C65.0815 44.6282 63.0273 46.0104 60.8388 46.1401C60.9582 45.555 61.1851 44.9902 61.5063 44.4783C61.0989 45.1279 59.0958 45.6061 58.3734 45.8201C57.3417 46.1256 56.2021 46.3541 55.1185 46.369C55.366 46.0547 55.6136 45.7408 55.8611 45.4265C54.3854 46.1424 52.5867 46.229 51.0428 45.6584C51.2819 45.2999 51.6061 44.9928 51.9841 44.7663C51.1713 45.253 49.3559 44.8372 48.5202 44.6C47.0743 44.1896 45.575 43.2948 44.4655 42.328C45.0258 42.585 45.596 42.8452 46.2104 42.9397C46.9942 43.0603 47.6937 42.786 48.3695 42.4424C48.2463 42.7098 48.3066 43.0072 48.5393 43.2048C48.767 43.3982 49.0877 43.4607 49.3932 43.4672C50.7465 43.4951 51.6618 42.4336 52.6108 41.6819C52.7523 42.2334 52.8934 42.7849 53.0349 43.3364C53.0978 43.5813 53.1928 43.8624 53.4422 43.9486C53.6695 44.0271 53.914 43.9032 54.1169 43.7784C54.9705 43.2536 55.7581 42.6316 56.4572 41.9302C56.6254 42.558 56.8749 43.1663 57.1991 43.7361C57.2677 43.857 57.3493 43.9844 57.484 44.0347C57.7372 44.1293 57.9886 43.9036 58.1549 43.6991C58.878 42.8112 59.5416 41.8798 60.1408 40.9122C60.2785 41.2505 60.4162 41.5888 60.5539 41.9271C60.6183 42.0862 60.7286 42.2746 60.9075 42.2635C61.0497 42.2551 61.1416 42.1212 61.2103 42.0022C61.4712 41.5491 61.7321 41.096 61.9929 40.6429C62.017 40.9736 62.1333 41.2974 62.327 41.5732C62.6882 40.9675 63.049 40.3614 63.4102 39.7558C63.3336 40.4808 63.6318 41.233 64.1929 41.7295C64.6471 40.8092 65.1014 39.8889 65.5556 38.9689C65.757 39.739 66.1369 40.4663 66.6609 41.0834C66.9066 40.0624 67.2006 39.0387 67.5927 38.0593C67.9142 38.8644 68.6294 37.7336 68.7377 37.3758C69.0447 36.3605 69.261 35.3208 69.3838 34.2708C68.9684 35.1801 68.4566 36.0489 67.8578 36.8605C67.7033 36.4681 67.4474 36.1118 67.1186 35.8323C66.8585 36.9383 66.7239 38.0463 66.336 39.1341C66.1014 38.3884 65.855 37.6809 65.5438 36.9692C65.3569 37.7111 65.0259 38.4197 64.5724 39.049C64.3298 38.4407 64.0872 37.8324 63.8446 37.2236C63.7722 38.0707 63.3267 38.8835 62.6375 39.4251C62.5097 38.9602 62.2889 38.5181 61.9903 38.1298C61.8083 38.8522 61.4536 39.5349 60.9605 40.1112C60.6824 39.4506 60.2556 38.8469 59.7175 38.3522C59.4452 39.7264 58.7651 41.0259 57.7757 42.0614C57.4237 41.3111 57.0122 40.5857 56.5465 39.8935C56.0953 40.8691 55.5655 41.9241 54.5491 42.3741C54.3614 42.4573 54.1333 42.5141 53.9544 42.4153C53.7847 42.3215 53.7206 42.1228 53.6703 41.9424C53.5216 41.4053 53.3728 40.8683 53.2237 40.3313C52.6165 40.7318 52.0089 41.1323 51.4017 41.5331C51.1393 41.7063 50.8491 41.8867 50.5306 41.8657C50.1797 41.8424 49.8921 41.5686 49.7609 41.2589C49.6297 40.9488 49.6244 40.6059 49.6209 40.2718C48.8192 40.6429 48.0022 41.0186 47.1204 41.1468C45.1829 41.4282 43.6249 39.9263 44.4514 38.0318C42.8865 39.6475 40.8849 40.8779 38.6922 41.572C37.5163 41.9443 36.2721 42.1712 35.2015 42.7651C33.1042 43.9287 32.079 46.2442 30.4153 47.9258C30.5865 47.7531 31.3719 47.5334 31.6457 47.4071C32.0473 47.2218 32.4619 47.0745 32.859 46.8693C33.8464 46.3598 34.8056 45.8026 35.7805 45.2716C37.6483 44.2567 39.6087 43.3002 41.7678 43.0263Z" fill="#565956"/>
<path opacity="0.68" d="M62.1558 5.82445C62.0646 5.95031 61.7744 5.96748 61.5906 6.03956C60.9544 6.28862 60.3781 6.67727 59.9238 7.1689C59.3288 7.81309 58.9455 8.63121 58.8406 9.4825C59.9139 8.35469 61.1809 7.39431 62.5761 6.65057C64.3775 5.69057 66.4596 6.44538 68.3971 6.02545C68.5356 5.99532 68.6805 5.95603 68.7793 5.85878C69.2457 5.39995 67.8773 5.12534 67.6053 5.0994C68.5893 5.17911 69.5821 5.15623 70.5608 5.03075C70.729 5.00939 70.9487 4.91709 70.9071 4.76071C70.8907 4.69931 70.835 4.65506 70.7813 4.6173C70.5452 4.45101 70.2858 4.31485 70.012 4.21378C70.7931 4.32325 71.5788 4.40258 72.3668 4.45216C72.4667 4.45826 72.5784 4.46055 72.654 4.398C72.8061 4.27176 72.6757 4.03681 72.535 3.89912C72.1993 3.57111 71.8168 3.28658 71.4014 3.05507C72.067 3.23967 72.7482 3.37279 73.4362 3.45288C73.5728 3.4689 73.7158 3.48187 73.8436 3.43305C73.971 3.38423 74.0747 3.25302 74.0392 3.12678C74.0163 3.04554 73.9446 2.98642 73.8752 2.93378C73.6311 2.74766 73.376 2.57488 73.1113 2.41583C73.6838 2.4063 74.2559 2.39677 74.8283 2.38724C74.5999 1.80216 74.1098 1.31434 73.5056 1.07024C74.1857 0.941711 74.8871 0.991673 75.5782 1.04202C76.2575 1.0916 76.9368 1.1408 77.616 1.19039C77.2587 0.646886 75.9253 0.475247 75.3177 0.339467C74.4286 0.140755 73.5182 0.0301538 72.6051 0.00498107C71.165 -0.0350664 69.721 0.186149 68.3639 0.644597C68.6587 0.894036 68.954 1.14348 69.2488 1.39292C67.4878 1.19992 65.6651 1.55233 64.1238 2.38456C64.3012 2.67977 64.6048 2.90441 64.9496 2.99595C63.7905 3.03142 62.6432 3.36744 61.6642 3.95785C61.4826 4.0677 61.2942 4.20157 61.2374 4.39876C61.1516 4.69702 61.396 4.92204 61.6047 5.10702C61.782 5.26378 62.0387 5.39155 62.147 5.60705C62.1966 5.70469 62.1924 5.77334 62.1558 5.82445Z" fill="#D1D1CF"/>
<path d="M66.1499 13.4278C67.2586 14.3832 68.6042 14.9702 70.1062 15.1537C71.1321 15.2792 72.1783 15.4825 73.2062 15.4504C75.196 15.3882 77.2064 15.0942 79.0162 14.3058C80.8259 13.5171 82.4278 12.1955 83.241 10.4685C84.1792 8.47643 83.1693 6.18305 81.9629 4.48351C81.1513 3.34044 80.1489 2.41744 78.6973 2.07837C79.0253 2.78511 79.2038 3.5544 79.2191 4.32675C77.4097 3.30153 74.9023 3.55249 73.3576 4.91373C73.6296 5.00526 73.8779 5.16011 74.0743 5.36073C73.9015 5.18414 72.5037 6.02018 72.3137 6.12354C71.8225 6.39053 71.4331 6.64798 71.0707 7.07896C70.4952 7.76358 70.1157 8.70451 69.4353 9.29874C68.7659 9.88343 67.4161 10.0188 66.55 10.0032C66.897 10.9285 67.6057 11.7271 68.5069 12.2085C68.4284 12.1665 67.2227 12.6913 67.0248 12.7299C66.553 12.8218 65.982 12.9789 65.5156 12.8134C65.7177 13.0327 65.929 13.2375 66.1499 13.4278Z" fill="#8C8548"/>
<path d="M77.8456 13.3797C78.8499 13.3031 79.8553 13.2268 80.8625 13.2192C81.3847 13.2154 81.9229 13.2329 82.3996 13.4354C82.8039 13.6074 83.1456 13.9053 83.5682 14.0304C84.1384 14.1994 84.5313 13.966 85.0244 13.7497C85.5222 13.5315 86.063 13.3519 86.579 13.1707C87.6698 12.7878 88.7977 12.5277 89.9655 12.5113C90.7688 12.4998 91.572 12.4888 92.3752 12.4773C91.3988 11.4521 90.0102 10.7908 88.5612 10.6615C87.5528 10.5715 86.481 10.6115 85.5256 10.2461C84.5019 9.85441 83.844 8.84713 83.5427 7.88293C83.5957 9.70567 82.0724 10.7236 80.673 11.655C79.7553 12.2656 78.7755 12.7863 77.8456 13.3797Z" fill="#565956"/>
<path opacity="0.36" d="M77.8643 13.3691C78.0584 13.3344 78.3495 13.3771 78.5123 13.3496C78.7427 13.3107 78.9502 13.2958 79.1889 13.2832C79.7462 13.2485 80.3042 13.223 80.8629 13.2188C81.3851 13.215 81.9232 13.2325 82.4 13.435C82.8043 13.6071 83.146 13.9049 83.5686 14.03C84.1388 14.199 84.5317 13.9656 85.0248 13.7493C85.5225 13.5311 86.0634 13.3515 86.5794 13.1703C87.6702 12.7874 88.798 12.5273 89.9659 12.5109C90.4118 12.504 90.8572 12.4983 91.3031 12.4922C91.6464 12.4872 92.1605 12.5761 92.4664 12.4396C92.2288 12.5448 91.6376 12.173 91.4236 12.0868C90.9282 11.8865 90.3668 11.8568 89.8267 11.8236C88.6054 11.7485 87.3807 11.8286 86.1622 11.9087C85.1701 11.9739 84.1766 12.0387 83.1815 12.0322C82.6769 12.0292 82.1727 12.0074 81.6704 11.9598C81.4381 11.9376 81.1856 11.9285 80.9587 11.8751C80.7752 11.832 80.6345 11.7569 80.4357 11.8099C80.2721 11.8537 80.1295 11.9479 79.9895 12.0399C79.2595 12.5197 78.5123 12.9751 77.7495 13.406C77.7808 13.3889 77.8201 13.3767 77.8643 13.3691Z" fill="#565956"/>
<path d="M72.6685 10.6977C72.7691 10.8819 72.8542 11.0238 72.8958 11.0818C73.3519 11.7145 74.0156 12.2172 74.7822 12.4655C76.124 12.8999 77.7144 12.5353 78.7 11.5669C79.3358 10.9422 79.5124 10.2187 79.3732 9.38033C79.205 8.36617 78.4303 7.47674 77.4364 7.07436C76.4425 6.67236 75.262 6.7471 74.302 7.21776C73.4419 7.63921 72.7768 8.33795 72.0822 8.97795C71.8942 9.15072 72.3572 10.1279 72.6685 10.6977Z" fill="#21394F"/>
<path d="M74.1033 10.0066C74.1784 10.1988 74.2761 10.383 74.3939 10.5543C74.8989 11.2877 75.8009 11.872 76.7247 11.972C78.4071 12.1535 79.6257 10.9532 79.3648 9.37993C79.1966 8.36577 78.4219 7.47634 77.428 7.07396C76.1835 6.5705 74.6273 6.91949 74.0922 8.19834C73.8519 8.77273 73.876 9.4257 74.1033 10.0066Z" fill="#212D35"/>
<path d="M76.0816 9.19689C76.0038 9.32923 75.8799 9.43297 75.7429 9.51115C75.4878 9.65685 75.1811 9.71864 74.8855 9.68432C74.691 9.66181 74.5042 9.59888 74.323 9.52755C73.9709 9.38796 73.6014 9.17438 73.5068 8.82349C73.2253 7.77768 74.4504 7.57706 75.1792 7.81086C75.4893 7.91041 75.7895 8.06907 75.9829 8.31965C76.1762 8.57023 76.2411 8.92571 76.0816 9.19689Z" fill="white"/>
<path d="M78.2854 9.88757C78.2854 9.88757 78.2808 9.95661 78.2541 10.0756C78.227 10.1958 78.1759 10.3655 78.0726 10.5524C77.9711 10.7393 77.822 10.946 77.621 11.1271C77.4219 11.3129 77.1759 11.4666 76.9005 11.5795C76.7811 11.6264 76.621 11.671 76.4878 11.6992C76.3486 11.7305 76.2079 11.7374 76.0736 11.7446C75.804 11.7496 75.5542 11.7115 75.3513 11.6493C75.1472 11.5894 74.9893 11.5097 74.8852 11.446C74.7807 11.3827 74.7273 11.3388 74.7273 11.3388C74.7273 11.3388 74.7948 11.3522 74.9123 11.3751C75.0286 11.3979 75.1945 11.4208 75.3898 11.4338C75.5858 11.4441 75.812 11.4388 76.0485 11.4094C76.1667 11.3937 76.2868 11.367 76.4074 11.3396C76.5332 11.3068 76.6343 11.2774 76.7659 11.2229C76.994 11.1371 77.2163 11.0074 77.4074 10.8689C77.6 10.7293 77.7614 10.5726 77.8933 10.428C78.023 10.2823 78.1203 10.1454 78.1839 10.0474C78.2484 9.94593 78.2854 9.88757 78.2854 9.88757Z" fill="white"/>
</svg>
