<svg width="71" height="78" viewBox="0 0 71 78" fill="none" xmlns="http://www.w3.org/2000/svg">
<path d="M18.9667 54.7661C19.1111 54.7866 19.2556 54.8079 19.4 54.8303C27.5133 56.0888 33.1403 61.6596 39.2504 66.5192C45.5103 71.4978 52.5247 75.7888 60.4004 77.5836C60.8041 75.9568 61.5343 74.4721 62.0945 72.9255C55.8521 72.3025 49.596 69.178 44.7916 65.1892C40.2395 61.4099 35.603 57.6397 30.3861 54.803C24.5451 51.6272 19.8386 50.241 13.1188 50.6192C9.73743 50.8096 6.58068 51.2703 3.27532 51.7162C2.43225 51.8366 1.53559 51.9815 0.902342 52.5512C0.269092 53.1206 0.0923461 54.2727 0.776529 54.7794C6.73386 54.47 13.0321 53.9367 18.9667 54.7661Z" fill="#B59A72"/>
<path opacity="0.42" d="M43.232 67.3122C42.5254 66.7937 41.826 66.2695 41.1323 65.7473C40.9811 65.6336 40.8191 65.5029 40.7834 65.317C40.7412 65.0973 40.8898 64.8924 41.0042 64.7001C41.2878 64.2227 41.3919 63.6415 41.2924 63.0957C40.9111 63.2941 40.3896 63.158 40.1539 62.7988C39.8962 62.4058 40.2657 62.1032 40.176 61.8136C40.0597 61.4377 39.9711 61.4286 39.6123 61.0732C38.9916 60.4582 38.1406 59.9709 37.4332 59.4585C36.89 59.0651 33.3688 57.149 33.3342 56.6214C33.3714 57.1893 33.36 57.7606 33.3 58.3262C31.7062 57.7077 30.231 56.4215 28.7323 55.5796C27.0169 54.6164 25.2141 53.8026 23.3329 53.2214C16.5143 51.1149 9.17186 52.1503 2.11375 53.2043C1.39954 53.3111 0.680002 53.4187 0 53.6612C0.556469 54.4723 0.500596 54.6624 1.44097 54.7441C2.22854 54.8125 3.10277 54.6513 3.893 54.6073C5.54797 54.5149 7.20331 54.4259 8.86017 54.3735C12.2309 54.2671 15.621 54.2986 18.9671 54.7661C19.1115 54.7867 19.256 54.8079 19.4004 54.8304C27.5137 56.0889 33.1407 61.6597 39.2508 66.5193C45.5107 71.4978 52.5251 75.7888 60.4008 77.5836C60.8045 75.9568 61.5347 74.4721 62.0949 72.9255C61.0919 72.8255 59.9774 72.4405 58.9804 72.5055C59.4969 72.8586 59.5867 73.645 59.0043 74.0335C58.5459 74.3391 57.9454 74.2935 57.4007 74.2121C52.1465 73.428 47.5545 70.4837 43.232 67.3122Z" fill="#B59A72"/>
<path d="M38.9806 50.0471C38.0805 51.5873 36.895 52.9599 35.5023 54.0747C35.2761 54.256 35.0389 54.4331 34.7645 54.5266C34.4642 54.6289 34.14 54.6239 33.8256 54.6642C32.1338 54.8813 30.8605 56.4196 30.3853 58.0578C30.1519 58.8625 30.0733 59.7496 30.3941 60.5235C30.7149 61.2978 31.5142 61.912 32.3467 61.817C31.6176 61.3327 31.1128 60.5243 30.9977 59.6569C31.1972 59.7838 31.4785 59.6717 31.6161 59.479C31.7537 59.2863 31.7845 59.04 31.8111 58.8047C32.0091 59.5934 32.1004 60.4026 32.428 61.1556C32.561 61.4612 32.7256 61.7623 32.9757 61.9827C33.2258 62.2032 33.5763 62.3317 33.8994 62.248C33.9754 62.6882 34.2776 63.0827 34.6828 63.2709C35.0879 63.4587 35.5844 63.4347 35.9694 63.2082C35.3692 63.0303 34.8447 62.6103 34.5402 62.0633C34.5026 61.9956 34.4672 61.9219 34.4714 61.8444C34.4779 61.7292 34.5676 61.6391 34.644 61.5528C34.942 61.2149 35.1024 60.7588 35.0815 60.3088C35.0427 59.4759 34.4289 58.7762 34.2692 57.9578C34.2019 57.6127 34.2251 57.2322 34.4254 56.9437C34.6409 56.6335 35.0154 56.4842 35.3624 56.3348C37.9334 55.2276 40.103 53.2138 41.3984 50.7325C40.6686 50.5265 39.9388 50.3208 39.2094 50.1148C39.0976 50.0833 38.9783 50.0471 38.9057 49.9563C38.8331 49.8658 38.8411 49.7031 38.9483 49.6591" fill="#88948D"/>
<path opacity="0.54" d="M38.9806 50.0471C38.6506 50.6116 38.2823 51.1536 37.8794 51.669C37.6126 52.0104 37.394 52.606 36.9991 52.8017C37.3203 52.5421 37.7775 52.4615 38.1683 52.5953C37.6149 53.9591 36.2374 54.7954 34.8785 55.3606C34.4376 55.5442 33.9716 55.7213 33.6515 56.0755C33.1122 56.6727 33.1441 57.5876 33.3281 58.371C33.512 59.154 33.8173 59.9393 33.715 60.7371C33.6869 60.9579 33.6037 61.2031 33.3988 61.2902C33.211 61.3696 32.9856 61.2784 32.8507 61.1256C32.7157 60.9728 32.6523 60.7713 32.5964 60.5756C32.309 59.5641 32.1391 58.5192 32.0912 57.4686C31.1809 57.6112 30.5035 58.5234 30.4891 59.4451C30.4743 60.3711 31.2546 61.942 32.3463 61.8174C31.6172 61.3331 31.1125 60.5246 30.9973 59.6572C31.1968 59.7842 31.4781 59.6721 31.6157 59.4794C31.7533 59.2866 31.7841 59.0403 31.8107 58.8051C32.0087 59.5938 32.1 60.403 32.4276 61.156C32.5607 61.4616 32.7252 61.7626 32.9753 61.9831C33.2254 62.2035 33.5759 62.332 33.899 62.2484C33.975 62.6885 34.2772 63.0831 34.6824 63.2712C35.0876 63.459 35.584 63.4351 35.969 63.2085C35.3688 63.0306 34.8443 62.6106 34.5398 62.0637C34.5022 61.996 34.4669 61.9223 34.471 61.8447C34.4775 61.7296 34.5672 61.6395 34.6436 61.5532C34.9416 61.2153 35.102 60.7592 35.0811 60.3091C35.0423 59.4763 34.4285 58.7765 34.2688 57.9582C34.2016 57.6131 34.2247 57.2326 34.4251 56.9441C34.6406 56.6339 35.015 56.4845 35.362 56.3352C37.933 55.2279 40.1026 53.2141 41.398 50.7328C40.6682 50.5268 39.9384 50.3212 39.209 50.1152C39.0973 50.0836 38.9779 50.0475 38.9053 49.9567C38.8327 49.8662 38.8407 49.7035 38.9479 49.6594" fill="#88948D"/>
<path d="M44.424 51.6451C43.8349 52.8565 42.931 53.8831 42.0092 54.8657C41.2319 55.6943 40.4284 56.5081 39.4994 57.1626C39.3432 57.2729 39.1813 57.3793 39.0015 57.445C38.6773 57.5636 38.3211 57.5412 37.9783 57.583C37.1797 57.6799 36.6939 57.9274 36.1025 58.4888C35.0192 59.517 33.8849 60.6322 33.547 62.0868C33.4893 62.3354 33.457 62.5988 33.5299 62.8433C33.6029 63.0877 33.8025 63.3085 34.0556 63.34C33.9868 63.9961 34.2939 64.6791 34.8306 65.0627C35.2096 65.3333 35.6684 65.4135 36.1226 65.3409C35.9538 65.2094 35.7839 65.0767 35.6479 64.9114C35.3746 64.5788 35.2434 63.9467 35.2465 63.5255C35.4282 63.6004 35.6448 63.5278 35.7877 63.3933C36.0625 63.1344 36.0268 62.7482 36.2731 62.4616C36.1576 63.1462 36.1112 63.8425 36.1351 64.5362C36.1519 65.0174 36.2077 65.5146 36.4487 65.9316C36.6897 66.3486 37.1588 66.6663 37.6354 66.5979C37.5123 66.6154 38.0509 67.5664 38.1128 67.6371C38.3694 67.929 38.7335 68.135 39.0863 68.2897C39.8058 68.6048 40.6876 68.5148 41.3289 68.0609C40.36 68.1909 39.3383 67.6253 38.9338 66.7355C39.1976 66.6454 39.4728 66.4618 39.5006 66.1847C39.5234 65.9582 39.3687 65.7495 39.1877 65.6115C39.0068 65.4736 38.7936 65.3816 38.6176 65.2371C38.1957 64.8901 38.0607 64.2386 38.3101 63.7528C38.1888 64.1006 38.6058 64.3945 38.9654 64.4739C39.2843 64.5446 39.6252 64.5594 39.932 64.4473C40.2391 64.3352 40.5056 64.079 40.5683 63.7585C40.1445 63.9562 39.6446 63.9851 39.2011 63.8372C39.4014 63.6008 39.3276 63.2313 39.157 62.9725C38.9863 62.714 38.7366 62.5148 38.567 62.2556C38.1048 61.549 38.3637 60.5615 38.9156 59.9225C39.4675 59.2836 40.2482 58.9001 40.9814 58.4808C43.3609 57.1208 45.3568 55.2241 46.8787 52.9443C46.8099 53.0476 44.5114 51.6679 44.3146 51.55" fill="#88948D"/>
<path opacity="0.54" d="M44.424 51.6451C44.0948 52.322 43.6646 52.9431 43.1929 53.5277C42.9557 53.8219 42.6938 54.0948 42.4532 54.3856C42.3528 54.5068 42.0799 55.0067 41.934 55.0363C42.07 55.009 42.2061 54.9812 42.3426 54.9538C41.7895 56.0101 40.9415 56.9098 39.9202 57.5245C39.1995 57.9582 38.3675 58.2752 37.8555 58.9426C37.1337 59.8834 37.2724 61.2225 37.6282 62.3537C37.7118 62.6194 37.8049 62.9113 37.6973 63.1686C37.5898 63.4259 37.1724 63.5411 37.0401 63.2959C36.8676 63.9786 36.8357 64.6962 36.947 65.3914C36.4369 65.1531 36.3449 64.4792 36.3316 63.9166C36.3142 63.1781 36.3134 62.4392 36.329 61.7007C36.3487 60.7523 36.4073 59.7633 36.8778 58.9396C36.1583 59.6078 35.5999 60.4482 35.2624 61.3703C35.1184 61.7641 35.0104 62.1792 34.7709 62.5236C34.5315 62.8676 34.1153 63.1317 33.7051 63.0439C33.8686 63.3796 34.2354 63.6053 34.6083 63.6C34.6238 64.5107 35.1127 65.5024 36.1237 65.3413C35.955 65.2098 35.7851 65.0771 35.649 64.9118C35.3757 64.5792 35.2446 63.9471 35.2476 63.5259C35.4293 63.6008 35.6459 63.5282 35.7889 63.3936C36.0637 63.1348 36.0279 62.7486 36.2742 62.462C36.1587 63.1466 36.1123 63.8429 36.1363 64.5366C36.153 65.0178 36.2089 65.515 36.4499 65.9319C36.6908 66.3489 37.1599 66.6667 37.6365 66.5983C37.5134 66.6157 38.052 67.5668 38.1139 67.6375C38.3705 67.9294 38.7346 68.1354 39.0874 68.2901C39.8069 68.6052 40.6887 68.5151 41.33 68.0613C40.3611 68.1913 39.3394 67.6257 38.935 66.7359C39.1987 66.6458 39.4739 66.4622 39.5017 66.1851C39.5245 65.9586 39.3698 65.7499 39.1889 65.6119C39.0079 65.4739 38.7947 65.3819 38.6187 65.2375C38.1968 64.8905 38.0619 64.239 38.3112 63.7532C38.19 64.101 38.6069 64.3948 38.9665 64.4743C39.2854 64.545 39.6264 64.5598 39.9331 64.4476C40.2402 64.3355 40.5067 64.0793 40.5694 63.7589C40.1456 63.9566 39.6457 63.9854 39.2022 63.8376C39.4025 63.6012 39.3287 63.2317 39.1581 62.9729C38.9874 62.7144 38.7377 62.5152 38.5682 62.256C38.106 61.5494 38.3648 60.5619 38.9167 59.9229C39.4686 59.284 40.2494 58.9004 40.9826 58.4812C43.362 57.1212 45.3579 55.2245 46.8798 52.9446C46.811 53.048 44.5126 51.6682 44.3157 51.5504" fill="#88948D"/>
<path d="M60.0219 28.8181C56.7268 22.5076 50.3099 18.593 44.5852 14.3609C43.5365 13.5859 42.4897 12.7778 41.696 11.7432C40.2851 9.90423 39.8069 7.54075 39.2793 5.28409C39.1037 4.53301 38.9102 3.76558 38.4708 3.13157C38.9216 3.00994 38.935 2.30447 38.5887 1.99127C38.2424 1.67807 37.7338 1.64728 37.2678 1.61763C33.127 1.35612 29.4069 -0.288961 25.1798 0.0443883C21.4776 0.336687 18.3266 2.07907 16.2748 5.20883C15.8096 5.91848 14.9802 6.14844 14.5586 6.97136C14.1804 7.7099 14.0755 8.5982 14.3336 9.39261C14.7453 10.6599 15.8369 10.6363 16.8275 11.2498C17.6949 11.7873 18.2821 12.5763 18.6489 13.522C19.08 14.6335 19.6246 15.667 20.779 16.1618C19.9983 15.827 17.4026 19.9906 17.0924 20.5725C16.2509 22.1511 15.6697 23.9938 15.1201 25.6838C13.8239 29.6684 14.8977 35.0183 16.6158 38.6996C18.7474 43.2677 22.7016 46.8452 27.1845 49.0334C30.3222 50.5649 33.8408 50.9134 37.2435 51.4528C40.8678 52.0271 43.4202 52.9941 46.4549 55.1382C50.5653 58.043 54.7126 60.98 58.0925 64.7096C59.2073 65.9396 60.2811 67.2886 61.776 68.0096C63.2714 68.7311 65.3528 68.5809 66.2563 67.1882C66.3791 66.9993 66.4802 66.7891 66.6527 66.6443C66.9606 66.3858 67.4034 66.4003 67.8006 66.3395C69.627 66.0597 70.6963 63.9429 70.4887 62.107C70.2812 60.2711 69.161 58.6831 68.0618 57.198C66.5668 55.1789 65.032 53.1697 63.8217 50.9609C63.2835 49.9784 62.5925 48.8453 62.5077 47.7183C62.4214 46.5692 62.7221 45.2069 62.7434 44.0263C62.8365 38.8573 62.4576 33.4831 60.0219 28.8181Z" fill="#9A3707"/>
<path d="M29.6365 12.4259C30.2918 11.1939 30.616 9.78947 30.6643 8.3907C30.6993 7.3781 30.586 6.32978 30.0972 5.44225C29.3803 4.14002 27.9257 3.35929 26.4517 3.16734C24.9776 2.97539 23.4819 3.30303 22.0752 3.78234C20.6684 4.26203 19.3156 4.89414 17.8986 5.34266C17.615 5.43236 17.2125 5.46087 17.1122 5.18074C17.0631 5.04352 17.1198 4.89338 17.176 4.75882C17.3703 4.2932 17.5645 3.82719 17.7587 3.36157C17.1692 3.98113 16.7169 4.71169 16.146 5.33924C15.6419 5.89305 14.9099 6.24122 14.5586 6.9273C14.1804 7.66584 14.0755 8.55414 14.3336 9.34855C14.8958 11.0784 17.4345 10.9834 18.6626 12.0564C19.4445 12.7394 19.8846 13.7334 20.5958 14.4898C21.7395 15.7073 23.5515 16.1984 25.1916 15.8821C26.8318 15.5659 28.2811 14.5016 29.2188 13.1195C29.3705 12.896 29.5096 12.6642 29.6365 12.4259Z" fill="#212D35"/>
<path d="M62.8304 41.2782C61.941 42.7116 61.2853 44.2897 60.8973 45.9314C60.543 45.1651 60.1891 44.3988 59.8352 43.6325C58.1757 45.852 57.2498 48.6104 57.2342 51.3817C55.8468 50.7458 54.4598 50.1099 53.0725 49.474C52.681 49.2945 52.2043 49.1193 51.844 49.3554C51.6665 49.4713 51.5585 49.6667 51.4722 49.8605C51.126 50.6405 51.0279 51.5284 51.1955 52.3654C50.2293 52.0742 49.192 52.021 48.2011 52.2114C48.4812 52.5592 48.7614 52.907 49.0411 53.2544C48.4759 52.9047 47.8385 52.5406 47.1862 52.6695C46.534 52.7983 46.0718 53.7208 46.5807 54.1484C45.4704 53.4589 44.191 53.0439 42.8873 52.9504C44.069 53.7151 45.3074 54.3279 46.4545 55.1386C50.5649 58.0433 54.7122 60.9804 58.0921 64.71C59.2069 65.94 60.2807 67.2889 61.7757 68.01C63.271 68.7314 65.3524 68.5813 66.2559 67.1886C66.3787 66.9997 66.4798 66.7895 66.6524 66.6447C66.9603 66.3862 67.4031 66.4006 67.8003 66.3398C69.6267 66.0601 70.6959 63.9433 70.4884 62.1074C70.2808 60.2715 69.1607 58.6834 68.0614 57.1984C66.5665 55.1793 65.0316 53.1701 63.8214 50.9613C63.2831 49.9787 62.5921 48.8456 62.5074 47.7186C62.4245 46.6141 62.7179 45.5342 62.7126 44.4357C62.7081 43.3653 62.6396 42.3565 62.8304 41.2782Z" fill="#212D35"/>
<path d="M38.6849 3.93283C38.7042 3.91572 38.7221 3.89634 38.7373 3.87505C38.8874 3.6641 38.586 3.29768 38.4709 3.13157C38.9217 3.00994 38.935 2.30447 38.5887 1.99127C38.2424 1.67807 37.7338 1.64728 37.2678 1.61763C33.127 1.35612 29.4069 -0.288961 25.1798 0.0443883C21.4776 0.336306 18.3266 2.07907 16.2748 5.20883C15.9468 5.70904 15.3694 5.91696 14.8719 6.23434C14.908 6.21116 15.6967 6.65474 15.8233 6.68971C16.2843 6.81628 16.7765 6.78207 17.2353 6.66386C17.8233 6.5122 18.3688 6.23245 18.9253 5.98956C20.5392 5.28485 22.2835 4.88004 24.0426 4.80212C24.745 4.77095 25.4592 4.793 26.1347 4.98913C27.1902 5.29549 28.1116 6.03821 28.635 7.00481C28.9303 7.55026 29.1165 8.17933 29.5742 8.59858C29.9543 8.94675 30.4758 9.10107 30.9882 9.15467C32.8484 9.34852 34.7394 8.25117 35.6189 6.60038C35.8831 6.10435 36.0663 5.56423 36.3795 5.09784C36.9022 4.31901 37.5753 4.29317 38.3983 4.06625C38.5001 4.03774 38.6066 4.00163 38.6849 3.93283Z" fill="#39546A"/>
<path d="M46.6876 53.5624C46.7142 53.4392 46.7624 53.3218 46.8373 53.215C47.125 52.8037 47.7146 52.7011 48.1966 52.8406C48.6789 52.9797 49.0792 53.3096 49.4646 53.6308C49.1077 53.2906 48.8526 52.8444 48.7409 52.3643C49.6029 52.1036 50.5999 52.3533 51.237 52.9899C51.0139 52.446 50.9131 51.8523 50.9451 51.265C50.9553 51.0758 51.0032 50.853 51.1785 50.78C51.3389 50.7131 51.5183 50.8108 51.6547 50.918C51.9417 51.1438 52.1808 51.4312 52.3503 51.7546C52.1709 51.2571 52.4613 50.6409 52.9596 50.4634C53.215 50.3722 54.8035 50.7435 54.9278 50.9678C54.6974 50.5554 54.4557 50.1304 54.076 49.8495C53.6959 49.569 53.1364 49.4732 52.757 49.7545C52.7038 49.1996 52.1211 48.7883 51.565 48.8252C51.0085 48.8624 50.5228 49.2703 50.281 49.7728C50.0393 50.2753 50.0108 50.8564 50.0773 51.4099C49.5071 51.4673 48.9358 51.3536 48.3665 51.2871C47.7974 51.2206 47.1976 51.205 46.6765 51.4429C46.1554 51.6809 45.7411 52.237 45.8346 52.8022C45.7536 52.3145 43.232 52.0941 42.8318 52.0598C41.8462 51.9755 40.8218 52.2104 39.867 52.0804C41.2456 52.1526 42.495 52.8729 43.684 53.5742C43.5947 53.4651 43.4996 53.3389 43.5167 53.1986C43.5597 52.8486 44.4685 53.1553 44.6426 53.2089C45.5286 53.4814 46.3337 54.0124 46.9327 54.7202C46.7313 54.3735 46.6058 53.941 46.6876 53.5624Z" fill="#8C8548"/>
<path d="M29.3902 39.8779C29.4845 39.8627 29.5845 39.8396 29.6498 39.77C29.7167 39.6985 29.7331 39.5948 29.746 39.4978C29.8574 38.6612 29.9684 37.8243 30.0797 36.9877C30.6887 38.1337 31.3265 39.3143 32.347 40.1155C32.2965 39.2595 32.2463 38.4039 32.1958 37.5479C32.8321 38.2587 33.5915 38.8589 34.4304 39.3135C34.541 39.3736 34.6816 39.4298 34.7846 39.3576C34.8759 39.2941 34.8854 39.1637 34.877 39.0527C34.8033 38.0493 34.0583 37.2085 33.888 36.2172C33.8678 36.1005 33.858 35.9728 33.918 35.8705C34.0115 35.7113 34.2244 35.6839 34.4064 35.6539C35.3407 35.5011 36.1332 34.8473 36.6646 34.0635C37.196 33.2801 37.5027 32.3698 37.7996 31.4709C38.098 30.5658 38.3933 29.5829 38.093 28.6782C37.6985 29.4936 37.2971 30.3191 36.7068 31.0064C35.5692 32.3295 33.8173 33.0103 32.0787 33.1581C30.3401 33.3056 28.597 32.9707 26.904 32.5473C23.9555 31.8091 20.9094 30.681 19.0351 28.2883C18.1837 27.2016 17.6284 25.9176 17.0825 24.6495C16.7861 23.9608 16.4831 23.2306 16.5755 22.4864C16.2197 24.1151 16.0255 25.7963 16.2228 27.4517C16.5405 30.1147 17.8735 32.5952 19.6988 34.5596C21.524 36.5243 23.8221 38.0021 26.2438 39.1546C27.2309 39.6244 28.3108 40.0528 29.3902 39.8779Z" fill="white"/>
<path d="M60.0219 28.8182C57.8306 24.6211 54.2044 21.4495 50.4749 18.6443C48.3866 17.0783 46.2534 15.5613 44.1431 14.0246C42.7246 12.9915 40.7773 13.6285 39.5523 14.7111C38.0535 16.0357 37.3344 18.0312 36.9208 19.9884C35.6452 26.0248 36.7885 32.4588 39.6473 37.9262C40.0612 38.7179 40.6032 39.5644 41.4729 39.7708C42.3422 39.9768 43.3879 38.9889 42.8914 38.2462C43.3901 40.2299 44.3001 42.1095 45.5468 43.7314C45.6331 43.4034 45.7198 43.0758 45.8061 42.7477C46.101 43.7246 46.553 44.8554 47.5477 45.0819C47.7602 45.1302 47.989 45.1325 48.179 45.2393C48.4223 45.3761 48.547 45.651 48.6633 45.9049C49.4858 47.6997 50.6801 49.3235 52.1484 50.6436C52.1397 50.2825 52.131 49.9214 52.1222 49.5603C53.6966 51.6497 55.2706 53.7395 56.845 55.8289C57.2171 56.3231 57.6189 56.84 58.1947 57.065C58.7706 57.2904 59.5639 57.0787 59.7387 56.4854C60.5057 58.0187 61.6844 59.3437 63.1182 60.2841C63.0783 58.674 62.4154 57.0875 61.2983 55.9278C62.2181 56.2471 63.2698 56.1627 64.127 55.7009C64.4569 55.5233 64.7728 55.2732 64.9024 54.922C65.0084 54.6343 64.9765 54.3154 64.9263 54.0128C64.5485 51.7467 62.6807 50.018 62.5081 47.7191C62.4218 46.57 62.7225 45.2078 62.7438 44.0272C62.8365 38.8574 62.4576 33.4831 60.0219 28.8182Z" fill="#3E9387"/>
<path opacity="0.32" d="M55.5272 31.7981C54.5856 29.6369 53.364 27.5984 51.9017 25.7492C53.4317 29.1515 54.0212 32.9711 53.5879 36.676C53.261 39.472 51.221 36.5179 50.8682 35.3901C50.0343 32.7218 49.2007 30.0539 48.3668 27.3855C48.8621 29.0207 48.7853 30.8232 48.1536 32.4105C46.8757 29.6186 45.9805 26.6519 45.5004 23.6195C45.9467 26.1232 45.9288 28.7087 45.4484 31.2063C44.4901 30.2811 43.9599 28.9291 44.0344 27.5992C43.7725 28.923 43.5102 30.2469 43.2483 31.5712C42.2167 28.1157 41.758 24.4903 41.8963 20.8869C41.4516 22.9049 41.0073 24.9229 40.5625 26.9408C39.3591 26.5489 39.0482 25.0156 38.9783 23.7518C38.8308 21.0888 38.8585 18.4163 39.0615 15.7571C37.6236 16.7153 37.256 18.4053 36.9212 19.9891C35.6456 26.0255 36.7889 32.4595 39.6476 37.9269C40.0616 38.7186 40.6036 39.5651 41.4733 39.7715C42.3426 39.9775 43.3882 38.9897 42.8918 38.2469C43.3905 40.2307 44.3005 42.1103 45.5472 43.7322C45.6335 43.4042 45.7201 43.0765 45.8064 42.7485C46.1014 43.7253 46.5533 44.8562 47.5481 45.0827C47.7605 45.131 47.9894 45.1332 48.1794 45.2401C48.4227 45.3769 48.5473 45.6517 48.6637 45.9056C49.4862 47.7005 50.6805 49.3243 52.1488 50.6443C52.1401 50.2832 52.1313 49.9221 52.1226 49.5611C53.697 51.6505 55.271 53.7403 56.8453 55.8297C57.2175 56.3238 57.6192 56.8408 58.1951 57.0658C58.7709 57.2912 59.5642 57.0795 59.7391 56.4861C60.5061 58.0195 61.6848 59.3445 63.1185 60.2849C63.0786 58.6748 62.4157 57.0882 61.2986 55.9285C62.2185 56.2478 63.2702 56.1634 64.1273 55.7016C64.4573 55.5241 64.7731 55.274 64.9027 54.9228C65.0088 54.635 64.9769 54.3161 64.9267 54.0136C64.5462 51.7303 62.5875 49.8955 62.3226 47.6035C62.0144 44.939 62.9445 41.9431 62.7647 39.182C62.8464 40.2672 62.716 41.3676 62.3834 42.4037C62.2679 42.7637 62.0877 43.1567 61.7297 43.2784C61.367 43.4019 60.9767 43.1913 60.6844 42.9435C59.2244 41.707 58.9397 39.6107 58.6147 37.7251C58.1027 34.7561 57.2464 31.8468 56.0688 29.0739C56.2524 30.0056 56.0536 31.0075 55.5272 31.7981Z" fill="#3E9387"/>
<path d="M60.2511 52.6144C60.608 52.9602 61.0668 53.3191 61.5503 53.2028C61.9634 53.1032 62.2265 52.6695 62.2648 52.246C62.3032 51.8226 62.1656 51.4053 62.0299 51.0023C61.6419 49.8499 61.2538 48.697 60.8661 47.5446C60.7904 47.9133 61.3534 48.1345 61.6609 47.9178C61.9684 47.7012 62.0478 47.2853 62.0835 46.9105C62.1725 45.9728 62.1432 45.0241 61.9961 44.094C62.4081 47.077 63.263 49.9985 64.5234 52.7329C64.9278 53.6102 65.3714 54.6566 64.8799 55.4883C64.5356 56.071 63.8096 56.339 63.1334 56.3207C62.4572 56.3025 61.8125 56.0467 61.1846 55.7947C62.3063 57.1463 63.5013 58.8302 62.9745 60.5056C61.6156 59.4877 60.4761 58.1787 59.6543 56.6928C59.5741 57.0403 59.4434 57.4443 59.1024 57.5485C58.7675 57.6507 58.4361 57.3979 58.1845 57.1547C56.8663 55.8802 55.7834 54.3628 55.006 52.7022C55.9308 53.7497 56.9404 54.7224 58.0221 55.6069C58.3114 55.8433 58.6619 56.0877 59.0264 56.0068C59.4034 55.9231 59.6277 55.5039 59.6216 55.1177C59.6155 54.7315 59.4361 54.3719 59.2605 54.028C58.0849 51.7234 56.9088 49.4185 55.7328 47.1139C57.1346 49.0319 58.5452 50.9605 60.2511 52.6144Z" fill="#8C8548"/>
<path d="M39.1178 26.5695C39.1699 26.1335 39.1904 25.6941 39.1775 25.2547C39.1144 23.1128 38.6651 21.2036 39.8244 19.2282C40.1893 18.6063 40.7024 18.0195 41.395 17.8184C42.2818 17.5611 43.2164 17.9948 43.9907 18.4984C45.0052 19.1579 45.9277 19.9595 46.7225 20.8717C46.3112 20.2719 46.0068 19.5129 46.0148 18.7724C46.0155 18.7052 46.0201 18.6333 46.0604 18.579C46.1565 18.4486 46.3614 18.5117 46.5043 18.5885C47.1627 18.9427 47.7997 19.3365 48.4109 19.7668C47.7096 19.0758 47.1292 18.2623 46.7043 17.3744C46.6047 17.1661 46.5298 16.878 46.7119 16.7362C46.8434 16.634 47.033 16.6769 47.1912 16.7298C47.9168 16.9719 48.6063 17.322 49.23 17.7648C47.6481 16.6971 46.1307 15.5036 44.5852 14.361C43.5365 13.586 42.4897 12.7779 41.696 11.7432C40.2851 9.90428 39.8069 7.54081 39.2793 5.28415C39.1037 4.53307 38.9103 3.76564 38.4709 3.13163C38.9217 3.01 38.935 2.30453 38.5887 1.99133C38.2633 1.69713 37.7289 1.61084 37.3032 1.61997C36.8387 1.62985 36.4172 1.57778 35.9508 1.49909C35.3822 1.40331 34.8147 1.30068 34.2483 1.19121C33.9651 1.13648 33.6823 1.08022 33.3999 1.02245C33.2878 0.999261 32.7507 0.96125 32.6945 0.874207C33.062 1.44436 33.2718 2.02858 33.7979 2.49382C34.2563 2.89863 34.7972 3.19663 35.3335 3.49083C34.1153 3.76678 33.0464 3.15254 31.8476 3.33309C30.7476 3.49881 29.7205 4.32515 29.5164 5.41832C29.3408 6.35946 29.7631 7.30743 29.7802 8.26453C29.7912 8.87497 29.6362 9.47819 29.4218 10.0499C28.7277 11.904 27.1393 13.8357 25.2144 14.4674C24.268 14.778 23.1931 14.7654 22.3089 14.3062C21.2443 13.7532 20.6346 12.6022 19.5859 12.0477C18.5342 11.4916 17.3471 11.2863 16.2668 10.8473C17.3653 11.2936 18.2331 12.4513 18.6486 13.5225C19.0648 14.5963 19.6475 15.6758 20.7585 16.1524C20.2648 16.206 19.6425 17.1403 19.3065 17.523C18.8257 18.0708 18.3703 18.6424 17.9739 19.2548C17.1825 20.4772 16.6603 21.8402 16.471 23.2861C15.9274 27.4456 17.9986 32.3527 21.7958 34.368C23.098 35.059 24.5458 35.435 26.0005 35.6725C25.4505 34.9484 24.9921 34.1544 24.6397 33.3159C28.3944 35.4148 33.3897 35.0761 36.5019 31.9753C37.9475 30.5358 38.8753 28.5931 39.1178 26.5695Z" fill="#1B499D"/>
<path opacity="0.87" d="M39.1178 26.5694C39.1699 26.1335 39.1904 25.6941 39.1775 25.2547C39.1144 23.1128 38.6651 21.2035 39.8244 19.2281C40.1893 18.6063 40.7024 18.0194 41.395 17.8184C42.2818 17.561 43.2164 17.9947 43.9907 18.4984C45.0052 19.1578 45.9277 19.9595 46.7225 20.8717C46.3112 20.2719 46.0068 19.5128 46.0147 18.7724C46.0155 18.7051 46.0201 18.6333 46.0603 18.5789C46.1565 18.4486 46.3614 18.5117 46.5043 18.5884C47.1626 18.9427 47.7997 19.3365 48.4109 19.7668C47.7096 19.0757 47.1292 18.2623 46.7042 17.3744C46.6047 17.1661 46.5298 16.878 46.7118 16.7362C46.8434 16.634 47.033 16.6769 47.1912 16.7297C47.9168 16.9719 48.6063 17.3219 49.23 17.7648C47.648 16.6971 46.1307 15.5035 44.5852 14.3609C43.5365 13.5859 42.4897 12.7778 41.696 11.7432C40.8214 10.6029 40.3079 9.24934 39.9164 7.87945C39.64 6.91209 38.8772 5.53726 38.8278 4.55432C38.93 6.43316 39.0326 8.31239 39.1349 10.1912C39.1714 10.8583 39.2295 11.5809 39.6731 12.0803C40.3991 12.8976 42.002 12.9629 42.1525 14.0458C42.186 14.288 42.1274 14.5343 42.0438 14.7642C41.5227 16.198 40.1034 17.1201 39.4059 18.4767C38.139 20.9409 39.5405 24.1303 38.3428 26.6287C37.5244 28.3358 35.4627 29.3438 33.6128 28.9413C32.9662 28.8006 32.3581 28.5102 31.7085 28.3844C31.0585 28.2586 30.3105 28.3331 29.8559 28.8139C29.4009 29.2948 29.4784 30.2473 30.1018 30.4697C28.8991 30.0485 27.7699 29.4194 26.7785 28.6189C26.0275 28.0123 25.2946 27.2783 24.3417 27.1221C23.3888 26.9659 22.2363 27.8177 22.5549 28.7296C22.3044 28.2723 22.0394 27.7983 21.6103 27.5022C21.1812 27.2061 20.5373 27.1518 20.1716 27.5235C19.8428 27.858 19.8501 28.3875 19.8789 28.8554C18.446 26.2213 17.6926 23.2215 17.7108 20.2229C16.7575 20.6657 16.593 22.3568 16.4713 23.2865C15.9278 27.4459 17.999 32.3531 21.7962 34.3684C23.0984 35.0594 24.5462 35.4353 26.0009 35.6729C25.4508 34.9488 24.9924 34.1547 24.6401 33.3162C28.3947 35.4152 33.39 35.0765 36.5023 31.9756C37.9475 30.5358 38.8753 28.5931 39.1178 26.5694Z" fill="#21394F"/>
<path d="M25.7511 18.1216C25.5797 18.0361 25.4243 17.919 25.2981 17.7746C25.4729 18.1262 25.6474 18.4782 25.8222 18.8298C25.2087 18.8187 24.6048 18.5386 24.2003 18.0772C24.13 18.4922 24.0601 18.9073 23.9897 19.322C23.6222 19.0681 23.3687 18.6549 23.3097 18.2117C23.0847 18.49 22.9076 18.807 22.7886 19.1445C22.5028 18.7359 22.3869 18.2125 22.4739 17.7218C22.1098 17.8795 21.7753 18.1045 21.4921 18.382C21.5134 17.6883 22.0018 15.8771 20.9398 16.1048C20.3761 16.2257 19.7638 16.8232 19.4635 17.2953C19.0017 18.0213 18.6957 18.8461 18.5718 19.6975C19.0211 19.4995 19.4452 19.2448 19.8311 18.9411C19.137 20.6223 19.2381 22.6125 20.0994 24.2147C20.4354 23.5381 20.7718 22.8611 21.1078 22.1845C21.1318 23.4035 21.5149 24.6134 22.1968 25.6237C22.545 24.8996 22.8168 24.1386 23.006 23.3579C23.2714 24.5818 24.1197 25.6655 25.2441 26.2174C25.3361 25.1231 25.2479 24.014 24.9841 22.9482C25.7352 24.0778 26.9135 24.9156 28.2267 25.2542C28.0561 24.2865 27.7368 23.345 27.2829 22.4734C28.1454 23.1424 29.2781 23.4522 30.3614 23.315C30.4606 23.3024 30.572 23.2781 30.6229 23.1922C30.6784 23.0987 30.6351 22.9797 30.5891 22.8813C30.2223 22.0986 29.7141 21.3829 29.0968 20.7782C29.9992 21.1932 31.0365 21.308 32.0076 21.1001C32.203 21.0583 32.4341 20.9602 32.4493 20.7611C32.4573 20.6558 32.398 20.5581 32.3406 20.4695C31.8381 19.6926 31.3029 18.9366 30.7366 18.2045C32.2832 18.2433 33.8374 17.9597 35.2708 17.3766C34.5296 16.819 33.7884 16.2618 33.0472 15.7042C32.9282 15.6149 32.7967 15.4617 32.8807 15.3389C32.9328 15.2625 33.04 15.2534 33.1323 15.2519C34.8534 15.2253 36.5772 15.3477 38.277 15.6179C36.9782 14.5909 35.6794 13.5642 34.3806 12.5372C34.1419 12.3487 33.8811 12.1156 33.8849 11.8116C35.0579 11.5417 36.2777 11.5124 37.4746 11.6386C36.1572 10.5892 34.9131 9.44772 33.7546 8.22531C34.5391 8.12116 35.324 8.01739 36.1085 7.91324C35.4563 7.57685 34.8743 7.10553 34.4106 6.5369C34.3411 6.45175 34.2707 6.35369 34.278 6.24422C34.2878 6.09332 34.4365 5.99411 34.5725 5.92721C35.3145 5.56079 36.1663 5.42054 36.9866 5.52925C36.3716 5.16701 35.779 4.76562 35.2145 4.32888C35.5836 4.26693 35.9614 4.25476 36.3339 4.29239C35.0477 3.52573 33.4794 3.06505 32.0433 3.49C31.4987 3.65116 30.9772 3.94878 30.6472 4.41137C29.9296 5.41636 30.0946 7.17281 30.4598 8.28917C30.6092 8.74567 30.9391 9.17062 31.4002 9.30556C31.0824 9.56669 30.7647 9.82782 30.4469 10.0889C30.7803 10.1418 31.1072 10.2345 31.4181 10.3645C31.06 10.6625 30.6605 10.9107 30.2348 11.1C30.6077 11.2068 30.9802 11.3133 31.3531 11.4201C31.0349 11.7416 30.6491 11.9959 30.228 12.1613C30.5914 12.3737 30.9547 12.5866 31.3181 12.7991C30.9049 13.1742 30.3739 13.4179 29.8197 13.4863C30.1888 13.7216 30.5579 13.9569 30.927 14.1921C30.3527 14.4742 29.6848 14.5616 29.0573 14.4373C29.3537 14.7163 29.6502 14.9949 29.9467 15.2739C29.4085 15.4575 28.822 15.4982 28.2636 15.3898C28.6722 15.6593 29.0253 16.0128 29.2941 16.4218C28.6665 16.4845 28.0268 16.4249 27.4217 16.247C27.7577 16.5632 28.0363 16.9403 28.2404 17.3538C27.5555 17.5283 26.8272 17.5291 26.1419 17.3557C26.3384 17.6545 26.5349 17.9533 26.7314 18.252C26.4019 18.3231 26.0518 18.271 25.7511 18.1216Z" fill="#3476DB"/>
<path d="M40.1981 32.2911C40.4926 32.2436 40.6979 31.9787 40.8518 31.7236C41.6253 30.4404 41.8861 28.8573 41.5638 27.3939C41.035 27.8215 40.2672 27.9089 39.6363 27.6561C39.0053 27.4034 38.5207 26.8359 38.3207 26.1859C38.339 27.3498 38.4443 28.5125 38.6351 29.6608C38.7552 30.3838 38.9164 31.1193 39.3109 31.7373C39.5101 32.0486 39.8332 32.35 40.1981 32.2911Z" fill="#212D35"/>
<path d="M46.8761 34.1293C47.1938 33.9864 47.2607 33.569 47.2562 33.2208C47.2414 32.0809 46.9221 30.9459 46.3401 29.9653C46.2603 30.4643 45.9642 30.9486 45.5028 31.1542C45.0413 31.3602 44.4214 31.2154 44.1754 30.7741C44.478 31.9065 45.0885 32.9548 45.9239 33.7769C46.1809 34.0301 46.5473 34.2771 46.8761 34.1293Z" fill="#212D35"/>
<path d="M49.7568 34.2042C50.018 34.0764 50.0685 33.7325 50.0852 33.4424C50.1179 32.8711 50.1472 32.2774 49.9313 31.7476C49.807 32.1144 49.6284 32.5332 49.2528 32.6275C48.8636 32.7252 48.5021 32.4173 48.1209 32.2934C48.306 32.8031 48.5546 33.29 48.8587 33.7389C48.9624 33.8917 49.0757 34.0438 49.2308 34.1445C49.3855 34.2441 49.5911 34.2851 49.7568 34.2042Z" fill="#212D35"/>
<path d="M47.607 39.8589C47.4561 39.895 47.3386 39.7327 47.2691 39.594C47.0802 39.2192 46.8913 38.844 46.7023 38.4689C46.5955 38.7441 46.4891 39.0193 46.3823 39.2945C46.2975 39.5134 46.1961 39.751 45.987 39.8578C45.7776 39.9642 45.4484 39.8201 45.4837 39.5879C45.5966 40.106 45.8053 40.6157 46.1672 41.0038C46.529 41.3915 47.06 41.6431 47.5872 41.5853C47.7761 41.5648 47.9673 41.5013 48.1026 41.3675C48.2866 41.1858 48.3356 40.9095 48.3497 40.6514C48.3835 40.0288 48.2638 39.3982 48.0046 38.8315C47.9403 39.077 47.8761 39.3226 47.8119 39.5681C47.7799 39.6886 47.7286 39.8296 47.607 39.8589Z" fill="#212D35"/>
<path d="M49.2354 40.3858C49.3041 41.1627 49.8348 41.8811 50.5573 42.1749C50.8238 41.6226 50.9013 40.9814 50.774 40.3816C50.6121 40.4576 50.6372 40.7047 50.5197 40.8396C50.3711 41.0107 50.0948 40.9232 49.8914 40.8237C49.5972 40.6792 49.2612 40.4747 49.2468 40.1475" fill="#212D35"/>
<path d="M53.2587 41.8203C52.9721 41.7116 52.8022 41.4185 52.6566 41.1475C52.4791 40.8168 52.3016 40.4862 52.1241 40.1555C51.9071 40.6944 51.6893 41.2319 51.4981 41.7789C51.3764 42.127 51.359 42.5448 51.5847 42.8363C51.7797 43.0879 52.1439 43.1929 52.4426 43.083C52.7414 42.9735 52.9512 42.6581 52.9371 42.3399C53.3632 42.9606 53.7893 43.5809 54.2154 44.2016C54.2458 44.2461 54.2808 44.2936 54.3333 44.3066C54.4621 44.3385 54.5252 44.1557 54.5275 44.023C54.5435 43.1396 54.5229 42.2559 54.4659 41.3744C54.7202 41.5485 54.9745 41.7222 55.2288 41.8963C55.3736 41.9952 55.531 42.0982 55.7062 42.0951C56.1087 42.0875 56.2744 41.5789 56.3067 41.1776C56.3778 40.2919 56.4124 39.4922 56.1855 38.6168C56.1786 38.8707 56.6013 38.9167 56.7492 38.7103C56.897 38.5035 56.8461 38.2207 56.7887 37.9733C56.6648 37.4393 56.5409 36.9048 56.417 36.3708C55.6191 37.505 55.5956 38.9855 55.4013 40.3584C55.3736 40.5538 55.3018 40.7918 55.1071 40.8244C54.9289 40.8545 54.7856 40.6853 54.6871 40.5337C54.3644 40.0372 54.0752 39.5196 53.8216 38.9847C53.8821 39.859 53.8186 40.742 53.6343 41.5987C53.6175 41.6766 53.5955 41.761 53.5324 41.8097C53.4602 41.8648 53.3579 41.8557 53.2587 41.8203Z" fill="#212D35"/>
<path d="M22.0752 10.6272C22.1991 10.1456 22.0296 9.6606 21.353 9.52376C20.2568 9.30178 19.1518 9.03039 18.1814 8.4743C17.211 7.91783 16.3786 7.03752 16.108 5.95195C16.0878 5.87136 16.0677 5.78432 16.0042 5.73073C15.9259 5.66421 15.8104 5.67257 15.7085 5.68473C12.3704 6.08004 8.71347 7.31385 6.07709 9.4485C7.3223 9.09615 8.57321 9.20866 9.83781 9.38465C10.9207 9.53517 11.9774 9.82062 13.0558 9.98901C14.0467 10.1441 15.0015 10.4934 15.9658 10.7944C17.2342 11.1905 18.511 11.5889 19.8307 11.7447C20.2564 11.7949 20.6973 11.8184 21.1059 11.6888C21.5731 11.541 21.9574 11.0856 22.0752 10.6272Z" fill="#565956"/>
<path opacity="0.44" d="M20.7771 9.35077C19.8941 9.05581 19.0191 8.90491 18.1917 8.43054C17.2213 7.87407 16.3888 6.99375 16.1186 5.90818C16.0984 5.8276 16.0783 5.74056 16.0148 5.68696C15.9365 5.62045 15.821 5.62881 15.7191 5.64097C12.4453 6.02868 9.00954 7.1055 6.41458 9.19454C8.27404 8.49022 10.2954 8.21768 12.275 8.40431C15.1296 8.67342 17.9579 9.87835 20.7771 9.35077Z" fill="white"/>
<path d="M21.1203 7.36478C21.6844 8.42565 22.8954 9.19421 24.1148 9.08778C25.2334 8.9901 26.2985 8.07025 26.6584 7.02421C27.5471 4.44332 24.7644 2.31513 22.4465 3.53564C21.7787 3.88723 21.253 4.49045 20.9702 5.19022C20.6692 5.93484 20.7703 6.70607 21.1203 7.36478Z" fill="white" stroke="#212D35" stroke-miterlimit="10"/>
<path d="M22.6381 5.75245C22.2428 7.37435 24.9913 7.90611 25.0905 5.85508C25.1642 4.33239 22.9661 4.40689 22.6381 5.75245Z" fill="#212D35"/>
</svg>
