<svg width="98" height="78" viewBox="0 0 98 78" fill="none" xmlns="http://www.w3.org/2000/svg">
<path d="M69.2129 0.0214978C67.9561 0.703749 66.9301 1.73958 65.7461 2.52889C64.3363 3.47259 62.919 4.41131 61.4891 5.32762C58.6494 7.14529 55.574 8.6567 52.6541 10.3648C51.1565 11.2413 49.5912 11.9758 48.0534 12.7826C46.5257 13.5868 45.0708 14.5056 43.5481 15.3199C42.1634 16.0594 40.7636 16.7665 39.4191 17.5683C38.6765 18.0115 37.9942 18.512 37.3094 19.0274C37.1012 19.1843 36.893 19.3412 36.6848 19.498C36.6497 19.4557 36.5844 19.4507 36.4916 19.5229C36.2558 19.7047 35.8344 20.0259 35.5434 20.382C35.4807 20.4019 35.4155 20.4143 35.3402 20.4193C35.285 20.4243 35.2148 20.5563 35.285 20.5563C35.3327 20.5563 35.3753 20.5538 35.418 20.5488C35.2273 20.8351 35.142 21.1389 35.3176 21.4078C35.9498 22.3789 38.1673 21.6394 39.1155 21.6668C40.7461 21.7141 42.1634 21.0592 43.6961 20.621C45.5298 20.0956 47.2833 19.2017 48.9741 18.3726C52.3957 16.6918 55.7421 14.8393 58.9254 12.795C61.602 11.077 64.0503 9.09992 65.6533 6.45557C65.7436 6.30618 65.7385 5.99244 65.4701 6.03975C64.8581 6.14682 64.246 6.34601 63.654 6.60497C64.2008 6.15927 64.7351 5.70609 65.2544 5.24047C66.1725 4.4138 67.0982 3.58464 67.8808 2.64841C68.4754 1.93628 69.386 1.08471 69.4186 0.141016C69.4211 0.0414175 69.3283 -0.0407514 69.2129 0.0214978Z" fill="#6E6461"/>
<path opacity="0.5" d="M64.4567 5.37485C58.6168 9.41357 52.2803 12.7252 45.6001 15.1679C43.9821 15.7605 42.344 16.2859 40.711 16.8337C40.277 17.0727 39.843 17.3142 39.4191 17.5682C38.6765 18.0114 37.9942 18.5119 37.3094 19.0273C37.1012 19.1842 36.893 19.3411 36.6848 19.4979C36.6497 19.4556 36.5844 19.4506 36.4916 19.5228C36.2558 19.7046 35.8344 20.0258 35.5434 20.3819C35.4807 20.4018 35.4155 20.4142 35.3402 20.4192C35.285 20.4242 35.2148 20.5562 35.285 20.5562C35.3327 20.5562 35.3753 20.5537 35.418 20.5487C35.2273 20.8351 35.142 21.1388 35.3176 21.4077C35.9498 22.3788 38.1673 21.6393 39.1155 21.6667C40.7461 21.714 42.1634 21.0592 43.6961 20.6209C45.5298 20.0955 47.2833 19.2016 48.9741 18.3725C52.3957 16.6917 55.7421 14.8392 58.9254 12.7949C61.602 11.0769 64.0503 9.09984 65.6533 6.45549C65.7436 6.3061 65.7385 5.99236 65.4701 6.03967C64.8581 6.14674 64.246 6.34593 63.654 6.60489C64.2008 6.15919 64.7351 5.70601 65.2544 5.24039C66.1725 4.41372 67.0982 3.58456 67.8808 2.64833C67.9586 2.55371 68.0439 2.45661 68.1292 2.3595C67.0254 3.4999 65.7461 4.48344 64.4567 5.37485Z" fill="#7E726F"/>
<path d="M71.912 4.42867C71.1695 3.96553 69.5515 4.77726 68.8742 5.03622C67.3039 5.63879 65.7536 6.32851 64.2209 7.0257C61.2332 8.38772 58.2832 9.84435 55.3281 11.2736C52.2753 12.7501 49.2274 14.2416 46.1896 15.7481C44.6217 16.5274 43.0539 17.3068 41.4936 18.1036C41.1575 18.2754 40.8238 18.4497 40.4902 18.624C40.4501 18.624 40.3999 18.6339 40.3372 18.6663C39.4918 19.0846 38.6665 19.4805 37.9014 20.0184C37.7333 20.108 37.5678 20.2001 37.4047 20.3022C37.2818 20.5363 37.2266 20.5686 37.2341 20.3993C37.2241 20.2624 37.0259 20.4217 37.0184 20.5039C37.0159 20.5412 37.0134 20.5786 37.0109 20.6184C37.0058 20.6707 37.0385 20.7106 37.0911 20.7006C36.5694 21.2758 36.1605 22.1099 37.0962 22.5033C37.8011 22.7996 38.5912 22.7474 39.3338 22.6328C39.9308 22.5407 40.5655 22.5755 41.17 22.4959C41.8824 22.4012 42.5898 22.2494 43.2922 22.1025C45.8108 21.5721 48.2616 20.7927 50.6748 19.9063C55.426 18.1633 60.0116 15.9597 64.1807 13.0913C65.2644 12.3468 74.1195 5.80313 71.912 4.42867Z" fill="#6E6461"/>
<path opacity="0.5" d="M71.9121 4.42863C71.8594 4.39626 71.8042 4.37136 71.744 4.35144C71.9497 4.78718 71.5734 5.40968 71.3376 5.73088C70.1837 7.3145 68.4703 8.35282 66.7545 9.24672C62.4424 11.4902 57.9245 13.4622 53.2687 14.894C53.1733 14.9238 53.063 14.8018 53.1307 14.7147C54.0639 13.4797 51.8689 13.4174 50.9081 13.4249C49.3353 14.1943 47.7624 14.9687 46.1921 15.748C44.6243 16.5274 43.0564 17.3067 41.4961 18.1035C41.16 18.2753 40.8264 18.4496 40.4927 18.6239C40.4526 18.6239 40.4024 18.6339 40.3397 18.6663C39.4943 19.0846 38.669 19.4805 37.9039 20.0183C37.7359 20.108 37.5703 20.2001 37.4072 20.3022C37.2843 20.5362 37.2291 20.5686 37.2367 20.3993C37.2266 20.2623 37.0285 20.4217 37.0209 20.5039C37.0184 20.5412 37.0159 20.5786 37.0134 20.6184C37.0084 20.6707 37.041 20.7105 37.0937 20.7006C36.5719 21.2757 36.163 22.1099 37.0987 22.5033C37.8036 22.7996 38.5938 22.7473 39.3363 22.6328C39.9333 22.5406 40.568 22.5755 41.1725 22.4958C41.885 22.4012 42.5924 22.2493 43.2948 22.1024C45.8133 21.5721 48.2642 20.7927 50.6774 19.9063C55.4285 18.1633 60.0141 15.9597 64.1833 13.0912C65.2644 12.3467 74.1196 5.80309 71.9121 4.42863Z" fill="#7E726F"/>
<path d="M74.1597 9.61028C71.4204 9.86425 68.7011 10.7158 66.0722 11.4902C63.0444 12.3791 60.137 13.5892 57.1443 14.5728C54.2269 15.5314 51.4249 16.6096 48.6304 17.8844C47.1855 18.5443 45.713 19.1518 44.2781 19.8316C43.8893 20.0158 43.518 20.2449 43.1543 20.4815C42.3666 20.9421 41.5614 21.3754 40.7611 21.8136C40.7536 21.8136 40.7436 21.8161 40.7361 21.8161C40.7085 21.8186 40.6809 21.841 40.6558 21.8684C40.5805 21.9082 40.5078 21.9506 40.4325 21.9904C40.2093 22.1149 39.8305 22.7872 40.3247 22.7847C43.6133 22.7673 46.8167 22.1024 50.0327 21.4799C53.2662 20.8525 56.2889 19.8316 59.3343 18.609C62.3245 17.4089 65.3121 16.1066 68.1819 14.645C68.8918 14.2839 69.544 13.8407 70.2263 13.4324C70.8685 13.0489 71.5433 12.7178 72.1328 12.2571C72.6746 11.8338 73.1964 11.3931 73.7433 10.9773C74.097 10.7059 74.3152 10.3324 74.388 9.9016C74.4231 9.74224 74.3303 9.59285 74.1597 9.61028Z" fill="#6E6461"/>
<path opacity="0.5" d="M74.1597 9.61028C74.1547 9.61028 74.1522 9.61028 74.1471 9.61028C73.678 10.5291 71.0566 11.6446 70.6076 11.8512C67.2311 13.4 63.7543 14.7471 60.1897 15.8028C58.3685 16.3431 56.5323 16.8088 54.6534 17.0976C53.1006 17.3366 51.5303 17.4387 49.9875 17.7301C49.3202 17.857 48.6329 18.004 47.9481 18.1857C46.7239 18.731 45.4897 19.2514 44.2806 19.8266C43.8918 20.0109 43.5205 20.2399 43.1568 20.4765C43.0941 20.5138 43.0314 20.5462 42.9661 20.5836C42.6952 20.8201 42.4393 21.0741 42.2035 21.3505C42.1007 21.47 41.9276 21.2982 42.0305 21.1787C42.0706 21.1314 42.1132 21.089 42.1534 21.0442C41.6918 21.3007 41.2277 21.5546 40.7636 21.8086C40.7561 21.8086 40.7461 21.8111 40.7386 21.8111C40.711 21.8136 40.6834 21.836 40.6583 21.8634C40.583 21.9032 40.5103 21.9456 40.435 21.9854C40.2118 22.1099 39.833 22.7822 40.3272 22.7797C43.6158 22.7623 46.8192 22.0975 50.0352 21.475C53.2687 20.8475 56.2914 19.8266 59.3368 18.604C62.327 17.4039 65.3146 16.1016 68.1844 14.64C68.8943 14.279 69.5465 13.8358 70.2288 13.4274C70.871 13.0439 71.5458 12.7128 72.1353 12.2521C72.6771 11.8288 73.1989 11.3881 73.7458 10.9723C74.0995 10.7009 74.3177 10.3274 74.3905 9.89662C74.4231 9.74225 74.3303 9.59285 74.1597 9.61028Z" fill="#7E726F"/>
<path d="M72.2733 15.5688C71.8995 15.5439 71.5132 15.6186 71.152 15.6933C70.6227 15.8029 70.0256 15.7581 69.4838 15.8104C68.1593 15.9374 66.8398 16.2013 65.5278 16.4204C62.9415 16.8537 60.3803 17.4363 57.8342 18.0688C54.9895 18.7759 52.2276 19.7072 49.4682 20.6857C48.8311 20.9123 48.1964 21.1414 47.5617 21.3779C47.5467 21.2958 47.4815 21.246 47.336 21.2858C46.1494 21.5971 44.8851 21.9905 43.7839 22.5333C43.1593 22.8396 42.5372 23.1334 41.8799 23.36C41.5864 23.462 41.318 23.5492 41.0621 23.6787C40.8765 23.7086 40.6959 23.7235 40.5278 23.711C40.4601 23.7061 40.3397 23.8505 40.4325 23.8779C40.5078 23.9003 40.583 23.9152 40.6608 23.9277C40.6608 23.9277 40.6608 23.9277 40.6583 23.9277C40.4601 24.0771 40.2118 24.5676 40.5529 24.6971C45.3542 26.5421 50.3788 26.1786 55.3081 25.0482C60.3276 23.8953 65.2444 21.9033 69.7472 19.4383C70.7807 18.873 71.8644 18.2854 72.7298 17.4836C73.5777 16.6943 73.6203 15.661 72.2733 15.5688Z" fill="#6E6461"/>
<path opacity="0.5" d="M72.2733 15.5688C72.2156 15.5638 72.1554 15.5638 72.0977 15.5638C72.1755 15.7058 72.1855 15.8801 72.0826 16.0593C71.6963 16.7341 70.9262 17.1101 70.2138 17.3516C69.0925 17.7351 67.931 17.9941 66.8022 18.3651C65.415 18.8232 64.0202 19.2714 62.6004 19.61C59.7131 20.2973 56.743 20.4292 53.8256 20.9397C53.7252 20.9571 53.6274 20.86 53.6876 20.7604C53.9836 20.2823 54.252 19.5901 53.9284 19.1793C52.4333 19.6499 50.9508 20.1603 49.4708 20.6857C48.8336 20.9123 48.1989 21.1414 47.5643 21.3779C47.5492 21.2957 47.484 21.2459 47.3385 21.2858C46.152 21.597 44.8877 21.9904 43.7864 22.5333C43.1618 22.8395 42.5397 23.1333 41.8825 23.3599C41.589 23.462 41.3206 23.5492 41.0647 23.6786C40.8791 23.7085 40.6984 23.7235 40.5304 23.711C40.4626 23.706 40.3422 23.8505 40.435 23.8778C40.5103 23.9003 40.5856 23.9152 40.6633 23.9276C40.6633 23.9276 40.6633 23.9276 40.6608 23.9276C40.4626 24.077 40.2143 24.5676 40.5555 24.697C45.3568 26.5421 50.3814 26.1786 55.3106 25.0481C60.3302 23.8953 65.2469 21.9033 69.7497 19.4382C70.7832 18.873 71.8669 18.2854 72.7323 17.4836C73.5777 16.6943 73.6204 15.661 72.2733 15.5688Z" fill="#7E726F"/>
<path d="M57.9295 21.9208C57.4705 21.3382 56.3642 21.2361 55.6944 21.1913C54.4351 21.1066 53.1784 21.2884 51.9417 21.5125C51.7385 21.5473 51.5378 21.5897 51.3371 21.6295C51.3998 21.6021 51.465 21.5747 51.5278 21.5448C52.3154 21.1888 54.385 20.1629 53.6199 18.9976C53.1432 18.2705 52.0395 18.288 51.2794 18.2929C49.9624 18.3054 48.6831 18.6241 47.4388 19.03C46.3175 19.396 45.2113 19.7944 44.1176 20.2227C45.8911 19.2317 47.6797 18.2631 49.4356 17.2372C50.2459 16.7641 51.0662 16.296 51.8363 15.7606C52.195 15.5116 52.6415 15.1357 52.7444 14.6875C52.8798 14.0874 52.496 13.8359 51.9241 13.8185C50.3738 13.7736 48.7307 14.3663 47.2658 14.8867C47.8753 14.4459 48.5275 13.8981 48.821 13.2557C49.1196 12.6083 48.4398 12.2846 47.9054 12.6357C47.8201 12.6905 47.4113 12.7602 47.346 12.7777C46.9672 12.8723 46.5985 13.0142 46.2322 13.1536C45.5901 13.3977 44.9654 13.6915 44.3308 13.9579C43.0815 14.4833 41.8122 14.9165 40.5906 15.5166C38.2978 16.6471 36.0175 18.4274 34.846 20.7406C34.7382 20.9547 34.979 20.9572 35.0693 20.7978C35.1496 20.6609 35.2374 20.5239 35.3277 20.3895C35.0417 21.0369 34.9113 21.7739 34.683 22.4263C34.6629 22.486 34.6428 22.5583 34.6253 22.6429C34.4296 23.0662 34.2766 23.5144 34.1938 23.9975C33.8978 25.7603 35.0668 27.6253 36.4791 28.579C37.9993 29.6049 40.2243 29.3011 41.9452 29.194C44.3233 29.0471 46.6913 28.6861 48.9691 27.9789C50.414 27.5282 60.0793 24.6523 57.9295 21.9208Z" fill="#7E726F"/>
<path opacity="0.5" d="M57.9295 21.9208C57.4704 21.3382 56.3642 21.2361 55.6944 21.1913C54.4351 21.1066 53.1783 21.2884 51.9416 21.5125C51.7384 21.5473 51.5378 21.5897 51.3371 21.6295C51.3998 21.6021 51.465 21.5747 51.5277 21.5448C52.3154 21.1888 54.3849 20.1629 53.6198 18.9976C53.1432 18.2705 52.0395 18.288 51.2794 18.2929C49.9624 18.3054 48.6831 18.6241 47.4388 19.03C46.3175 19.396 45.2113 19.7944 44.1175 20.2227C45.8911 19.2317 47.6796 18.2631 49.4356 17.2372C50.2459 16.7641 51.0662 16.296 51.8363 15.7606C52.195 15.5116 52.6415 15.1357 52.7444 14.6875C52.8798 14.0874 52.496 13.8359 51.9241 13.8185C50.3738 13.7736 48.7307 14.3663 47.2657 14.8867C47.8753 14.4459 48.5275 13.8981 48.821 13.2557C49.1195 12.6083 48.4397 12.2846 47.9054 12.6357C47.8201 12.6905 47.4112 12.7602 47.346 12.7777C46.9672 12.8723 46.5985 13.0142 46.2322 13.1536C45.7807 13.3255 45.3367 13.5222 44.8927 13.7164C45.1209 13.6317 45.3492 13.552 45.5775 13.4798C46.152 13.2956 46.8142 13.0939 47.3937 13.3578C47.4388 13.3777 47.4689 13.4475 47.4514 13.4948C47.1002 14.3762 46.2648 14.9838 45.5022 15.5017C44.6318 16.0943 43.7086 16.6296 42.8583 17.2521C43.799 16.8612 44.6895 16.296 45.6252 15.9026C46.6436 15.4743 47.6897 15.0759 48.7784 14.8543C49.2224 14.7622 50.3738 14.3912 50.7827 14.7547C51.0411 14.9813 50.7551 15.3075 50.5695 15.4793C50.1179 15.8951 49.5962 16.2088 49.0719 16.5226C48.0384 17.1451 46.9873 17.7377 45.9337 18.3278C44.0172 19.3985 42.1007 20.4717 40.282 21.7042C42.2412 21.2535 44.0975 20.4667 45.9989 19.8193C47.045 19.4607 48.1086 19.1296 49.2023 18.9453C50.0251 18.8059 50.9959 18.6141 51.8212 18.8084C53.0253 19.0897 51.7911 20.0558 51.2969 20.3945C49.7392 21.4602 47.9656 22.1947 46.4404 23.3052C47.183 23.1708 47.8904 22.9019 48.6078 22.6628C49.4005 22.3989 50.2133 22.2196 51.0361 22.0802C51.8237 21.9457 52.624 21.8337 53.4217 21.8362C53.9861 21.8386 54.8114 21.7889 55.3281 22.0652C56.3165 22.5981 54.6809 23.6115 54.2495 23.8854C52.8748 24.7544 51.3847 25.4914 49.8897 26.1363C46.6787 27.5158 43.2772 28.5267 39.8505 29.2189C39.6649 29.2563 39.4818 29.2911 39.2961 29.3235C40.2067 29.3459 41.1349 29.2513 41.9477 29.2015C44.3257 29.0546 46.6938 28.6935 48.9715 27.9864C50.4139 27.5282 60.0793 24.6523 57.9295 21.9208Z" fill="#7E726F"/>
<path d="M53.4142 27.0153C53.1081 26.2484 52.3129 25.708 51.6732 25.2424C50.8103 24.615 49.8495 24.1244 48.8712 23.7011C47.9155 23.2878 46.907 22.989 45.9011 22.73C45.6829 22.6753 45.4646 22.6255 45.2464 22.5757C45.6126 22.3864 45.9764 22.1748 46.3025 21.9233C46.4103 21.8386 46.6436 21.4776 46.4455 21.3631C46.0341 21.124 45.5324 21.2012 45.0557 21.1962C45.3718 21.0418 45.6678 20.8875 45.8359 20.4368C45.876 20.3247 45.8785 20.2077 45.7932 20.1206C45.4345 19.7446 44.687 19.8591 44.2179 19.8591C43.2471 19.8591 42.2938 19.8965 41.3281 20.0085C40.43 20.1106 39.5069 20.1828 38.6339 20.4318C38.373 20.5065 38.1071 20.5712 37.8437 20.641C38.087 20.3571 38.2426 20.0459 38.1523 19.6948C38.1347 19.6275 38.1046 19.5379 38.0168 19.5279C37.6255 19.4906 37.2241 19.5678 36.8278 19.7022C36.9356 19.6002 37.046 19.4956 37.1514 19.391C37.5126 19.0349 37.9566 18.8233 38.1372 18.3228C38.1949 18.161 38.1598 17.9418 37.9441 17.9568C35.7416 18.0887 33.5391 19.7446 32.1318 21.3357C31.4043 22.1574 30.9754 23.2231 30.5389 24.2141C29.972 25.5014 29.5932 26.8933 29.2069 28.2428C28.4543 30.8623 27.6716 33.4892 26.8062 36.0738C26.3296 37.4956 25.6974 38.8227 25.0076 40.1523C24.5435 41.0438 22.6496 43.4117 21.4881 42.4033C21.3802 42.3087 21.1821 42.5626 21.2749 42.6647C21.6261 43.0631 22.1679 43.0631 22.6571 42.9112C22.637 43.0382 22.6772 43.1453 22.8151 43.1801C23.801 43.4291 24.7241 43.3221 25.725 43.2822C26.8539 43.2349 27.9802 43.0158 29.094 42.839C31.2789 42.4929 33.4438 41.9152 35.5584 41.2728C39.7703 39.9955 43.6911 38.0682 47.2256 35.4538C48.8411 34.2586 50.3161 32.9314 51.6532 31.435C52.7143 30.2398 54.094 28.7284 53.4142 27.0153Z" fill="#786F7A"/>
<path d="M25.8579 38.7082C26.7911 37.1196 27.481 35.3915 28.1031 33.666C28.4242 32.7746 28.7277 31.8732 29.0036 30.9644C29.5731 29.0894 29.9318 27.1547 30.5589 25.2997C31.181 23.4621 32.1067 21.7739 33.5014 20.4019C34.54 19.381 35.8118 18.4373 37.2442 18.0514C35.2825 18.4423 33.386 19.9164 32.1268 21.3381C31.3993 22.1598 30.9703 23.2255 30.5338 24.2166C29.9669 25.5039 29.5881 26.8958 29.2018 28.2453C28.4493 30.8648 27.6666 33.4917 26.8012 36.0763C26.3872 37.3063 25.8579 38.4691 25.276 39.622C25.5168 39.2833 25.7175 38.9447 25.8579 38.7082Z" fill="#786E6B"/>
<path d="M36.1304 33.504C35.8946 33.6061 35.6789 33.7356 35.5083 33.875C35.1822 34.139 34.7432 34.4228 34.535 34.8088C34.0834 34.9333 33.6394 35.1449 33.3083 35.3093C33.1026 35.4114 32.8693 35.5508 32.641 35.7151C32.4755 35.9243 32.325 36.1459 32.192 36.3775C32.1945 36.375 32.1945 36.3725 32.197 36.3725C32.5332 36.0413 32.9747 35.8396 33.3986 35.6454C34.1738 35.2869 35.0267 35.1624 35.8745 35.1897C35.9598 35.135 36.0426 35.0105 35.9623 34.9482C35.7065 34.7465 35.3879 34.6918 35.0517 34.7167C35.2875 34.5324 35.5635 34.3805 35.7867 34.2336C36.2734 33.9174 36.8855 34.0294 37.3872 33.7505C37.4248 33.7306 37.47 33.6833 37.5051 33.6261C37.1689 33.3571 36.6497 33.3771 36.1304 33.504Z" fill="#5E5553"/>
<path d="M32.6084 33.8578C33.07 32.7597 34.4321 32.0152 35.6337 32.0202C34.9564 31.7612 34.2214 32.0326 33.5943 32.3439C33.3434 32.4684 33.1202 32.685 32.9696 32.9166C32.8141 33.1506 32.7639 33.4718 32.6084 33.6909C32.5658 33.7532 32.5557 33.8428 32.6084 33.8578Z" fill="#5E5553"/>
<path d="M38.5888 29.6397C38.6339 29.575 38.654 29.4953 38.6038 29.4355C38.2777 29.0297 37.2467 29.4704 36.9055 29.7269C36.4515 30.068 35.8344 30.3792 35.7165 30.9818C36.4139 30.1203 37.4975 29.7692 38.5888 29.6397Z" fill="#5E5553"/>
<path d="M35.581 29.0521C35.1771 28.9724 34.6202 29.3509 34.3318 29.6048C34.111 29.7991 33.8827 30.1277 33.8526 30.4365C33.825 30.4714 33.8075 30.5187 33.8376 30.5535C33.8551 30.5734 33.8627 30.5884 33.8903 30.5934C33.9831 30.6083 34.0533 30.5112 34.0709 30.434C34.1261 30.1875 34.4045 29.9485 34.6127 29.8215C34.8937 29.6472 35.1972 29.565 35.4882 29.4231C35.5735 29.3783 35.7641 29.0894 35.581 29.0521Z" fill="#5E5553"/>
<path d="M35.7516 26.49C36.3286 25.855 37.2793 25.2848 38.1824 25.489C38.1748 25.4691 38.1673 25.4516 38.1523 25.4342C37.6631 24.8839 36.5017 25.5039 36.0451 25.85C35.7064 26.109 35.4606 26.4103 35.2399 26.7713C35.1019 27.0004 35.1094 27.2917 34.9965 27.5084C34.9564 27.5831 34.994 27.6403 35.0517 27.6304C35.1019 27.2444 35.6287 26.6269 35.7516 26.49Z" fill="#5E5553"/>
<path d="M36.3712 24.4954C36.0953 24.3535 35.6738 24.6199 35.4531 24.7843C35.3402 24.8689 35.2399 24.9636 35.1521 25.0632C35.0919 25.235 35.0517 25.4142 35.0417 25.591C35.1671 25.3819 35.3302 25.2051 35.5384 25.0706C35.7667 24.9237 36.0376 24.9162 36.2659 24.7843C36.3235 24.7569 36.4866 24.5552 36.3712 24.4954Z" fill="#5E5553"/>
<path d="M37.5603 22.0378C37.1413 21.5622 36.2558 21.9755 35.8118 22.2171C35.4656 22.4038 35.1345 22.6777 34.8711 22.9989C34.6579 23.2753 34.53 23.5542 34.6052 23.7633C34.9363 23.2877 35.3753 22.969 35.872 22.6802C36.3737 22.3889 36.9131 22.593 37.3997 22.3864C37.5126 22.3366 37.6681 22.1598 37.5603 22.0378Z" fill="#5E5553"/>
<path d="M33.8652 26.3031C33.8727 26.2956 33.8802 26.2882 33.8878 26.2807C33.9379 26.2184 33.9856 26.1114 33.9204 26.0441C33.667 25.7852 33.1427 26.0516 32.9094 26.2085C32.8517 26.2483 32.7966 26.2882 32.7439 26.333C32.6636 26.4774 32.5984 26.6318 32.5507 26.7862C32.9195 26.455 33.3735 26.2409 33.8652 26.3031Z" fill="#5E5553"/>
<path d="M40.7285 23.3624C40.3924 23.1881 39.9609 23.3225 39.6523 23.5068C39.2861 23.7259 39.0026 24.1069 38.8295 24.4903C38.7593 24.6472 38.9625 24.5849 39.0152 24.5053C39.2961 24.072 39.7803 23.7284 40.3171 23.8305C40.4726 23.8604 40.6106 23.7981 40.7084 23.6786C40.7611 23.6163 40.8364 23.4171 40.7285 23.3624Z" fill="#5E5553"/>
<path d="M41.6416 25.83C41.4159 25.7877 41.2152 25.962 41.0647 26.1288C41.0622 26.1263 41.0621 26.1263 41.0596 26.1263C40.9969 26.089 40.8891 26.2035 40.9267 26.2658C40.9417 26.2907 40.9442 26.3156 40.9618 26.338C40.9969 26.3853 41.0521 26.3604 41.0897 26.328C41.1449 26.2807 41.2026 26.2384 41.2653 26.201C41.3456 26.1537 41.4485 26.1438 41.5388 26.1239C41.619 26.1039 41.7921 25.8574 41.6416 25.83Z" fill="#5E5553"/>
<path d="M41.8499 31.2531C41.6417 31.3826 41.456 31.5395 41.2729 31.6988C41.16 31.7959 41.0396 32.0748 40.9267 32.1371C40.8515 32.1769 40.7787 32.3736 40.8816 32.3736C41.4635 31.5743 42.7203 31.0465 43.7012 30.9693C43.7313 30.8747 43.7162 30.79 43.5908 30.8C43.2045 30.8298 42.8332 30.8697 42.477 30.9768C41.9703 30.6057 40.9945 30.6406 40.4426 30.8025C40.0839 30.9045 39.67 31.0166 39.3739 31.2531C39.3714 31.2556 39.3664 31.2606 39.3639 31.2631C39.2159 31.4225 39.1156 31.5992 39.093 31.7885C39.4768 31.2407 40.4275 31.1411 41.0346 31.1237C41.3206 31.1137 41.584 31.1884 41.8499 31.2531Z" fill="#5E5553"/>
<path d="M45.6202 28.0561C45.6277 27.9963 45.6076 27.944 45.5374 27.9241C45.1762 27.822 44.7046 27.9191 44.3634 28.0586C44.0047 28.203 43.8742 28.4221 43.6886 28.701C43.6861 28.6985 43.6811 28.701 43.6786 28.701C43.661 28.7508 43.6535 28.8031 43.6485 28.8553C44.1226 28.3325 44.8977 28.1582 45.6202 28.0561Z" fill="#5E5553"/>
<path d="M47.6094 26.0715C47.3235 26.0093 47.0475 26.2359 46.754 26.2135C46.6712 26.206 46.5308 26.3878 46.6411 26.4127C46.9171 26.4749 47.2507 26.3952 47.5191 26.328C47.5894 26.3081 47.7399 26.0989 47.6094 26.0715Z" fill="#5E5553"/>
<path opacity="0.3" d="M53.4142 27.0153C53.1081 26.2484 52.3129 25.708 51.6733 25.2424C50.8103 24.615 49.8496 24.1244 48.8712 23.7011C47.9155 23.2878 46.907 22.989 45.9011 22.73C45.6829 22.6753 45.4646 22.6255 45.2464 22.5757C45.6126 22.3864 45.9764 22.1748 46.3025 21.9233C46.4104 21.8386 46.6437 21.4776 46.4455 21.3631C46.0341 21.124 45.5324 21.2012 45.0558 21.1962C45.3718 21.0418 45.6678 20.8875 45.8359 20.4368C45.876 20.3247 45.8786 20.2077 45.7933 20.1206C45.4345 19.7446 44.687 19.8591 44.2179 19.8591C43.2471 19.8591 42.2939 19.8965 41.3281 20.0085C40.43 20.1106 39.5069 20.1828 38.6339 20.4318C38.373 20.5065 38.1071 20.5712 37.8437 20.641C38.0871 20.3571 38.2426 20.0459 38.1523 19.6948C38.1347 19.6275 38.1046 19.5379 38.0168 19.5279C37.6255 19.4906 37.2241 19.5678 36.8278 19.7022C36.9356 19.6002 37.046 19.4956 37.1514 19.391C37.5126 19.0349 37.9566 18.8233 38.1372 18.3228C38.1949 18.161 38.1598 17.9418 37.9441 17.9568C36.745 18.029 35.5484 18.5544 34.4773 19.2715C34.979 19.0648 36.2659 18.5967 36.1254 19.4508C36.0602 19.8417 35.8344 20.2027 35.5911 20.5289C36.0903 20.2451 36.6171 20.0608 37.1464 20.0733C37.2392 20.0757 37.3019 20.1753 37.2517 20.2575C36.8679 20.8999 36.2558 21.3481 35.7115 21.8461C35.4406 22.0926 35.1722 22.3416 34.9037 22.5881C36.8303 21.4104 38.9826 20.5588 41.2202 20.255C41.737 20.1853 44.7021 19.6599 44.5691 20.5762C44.5089 20.9871 44.0172 21.2983 43.7012 21.5075C43.656 21.5374 43.6083 21.5647 43.5632 21.5921C44.1075 21.5125 44.7924 21.4427 45.1912 21.8959C45.2263 21.9333 45.2439 21.998 45.2113 22.0428C44.7873 22.6255 44.0649 22.8122 43.4177 23.0513C42.5246 23.3799 41.6391 23.7783 40.7737 24.1917C42.1684 24.0423 43.5858 24.0796 44.983 24.2166C46.5408 24.3684 48.4247 24.5851 49.6338 25.6782C49.7342 25.7703 49.6238 25.8973 49.5134 25.8823C48.4147 25.728 47.3159 26.0218 46.2824 26.4301C46.9898 26.2608 47.7273 26.1737 48.1237 26.6766C48.1638 26.7264 48.1789 26.8011 48.1237 26.8485C47.479 27.4087 46.5759 27.3713 45.7832 27.5506C44.8877 27.7523 43.9294 28.1532 43.1819 28.7259C44.1151 28.4918 45.121 27.8793 46.004 28.4445C46.0617 28.4819 46.0817 28.5516 46.0491 28.6113C45.7607 29.1168 45.1787 29.3733 44.6795 29.6248C44.1201 29.9086 43.666 30.3269 43.1217 30.6282C42.4971 30.9743 42.0229 30.8324 41.3456 30.7428C40.4802 30.6257 39.6524 30.9793 39.0604 31.5819C39.1281 31.557 39.1983 31.5346 39.2661 31.5122C39.2937 31.5022 39.3238 31.4922 39.3539 31.4848C39.4191 31.4649 39.4843 31.4449 39.5495 31.4275C39.5646 31.4225 39.5796 31.42 39.5947 31.4151C40.1666 31.2557 40.7612 31.1685 41.3757 31.176C41.4635 31.176 41.5363 31.2806 41.4811 31.3603C40.0964 33.3921 38.1523 35.0778 36.2032 36.5668C34.1462 38.138 31.9086 39.3655 29.4527 40.2096C28.522 40.5283 25.3111 41.8879 25.0578 40.0577C25.0578 40.0527 25.0578 40.0478 25.0553 40.0428C25.0377 40.0777 25.0176 40.115 25.0001 40.1523C24.536 41.0438 22.6421 43.4117 21.4806 42.4033C21.3727 42.3087 21.1746 42.5626 21.2674 42.6647C21.6186 43.0631 22.1604 43.0631 22.6496 42.9112C22.6295 43.0382 22.6696 43.1453 22.8076 43.1801C23.7935 43.4291 24.7166 43.3221 25.7175 43.2822C26.8463 43.2349 27.9727 43.0158 29.0865 42.839C31.2714 42.4929 33.4362 41.9152 35.5509 41.2728C39.7628 39.9955 43.6836 38.0682 47.2181 35.4538C48.8336 34.2586 50.3086 32.9314 51.6457 31.435C52.7143 30.2398 54.094 28.7284 53.4142 27.0153Z" fill="#786F7A"/>
<g opacity="0.3">
<path d="M36.5819 33.1555C36.1229 33.3148 35.6337 33.5339 35.2925 33.8925C35.0617 34.139 34.851 34.4029 34.6027 34.632C34.0834 35.1076 33.2581 35.0777 32.7313 35.5832C32.335 35.9641 32.039 36.4024 31.8759 36.8929C32.937 36.0139 34.2389 35.5085 35.6312 35.2869C35.877 35.247 36.1504 35.2047 36.4389 35.1723C36.1956 34.9731 35.9146 34.8362 35.5785 34.8088C35.4706 34.7988 35.4154 34.6818 35.4907 34.6021C36.1806 33.8477 37.3872 33.3945 38.5687 33.2999C37.934 33.0509 37.2693 32.9164 36.5819 33.1555Z" fill="#786F7A"/>
<path d="M34.0182 32.4782C35.0141 31.9204 36.0275 31.9154 37.1137 31.8457C36.2056 31.3353 34.6855 31.2257 33.8627 31.8084C33.2431 32.2466 32.6084 33.1455 32.4629 34.012C32.8367 33.377 33.3886 32.8317 34.0182 32.4782Z" fill="#786F7A"/>
<path d="M36.5343 30.5261C36.8177 30.312 37.0912 30.1203 37.4173 29.9634C38.2526 29.565 39.1256 29.3359 40.0261 29.1567C38.521 28.7159 36.2483 29.4654 35.7717 30.9918C35.7742 30.9918 35.7767 30.9918 35.7792 30.9918C35.9648 31.0416 36.3963 30.6282 36.5343 30.5261Z" fill="#786F7A"/>
<path d="M34.4672 29.8586C35.1019 29.3706 35.8444 29.1515 36.607 28.9498C35.882 28.4966 34.9213 28.4792 34.3092 29.154C33.9906 29.5051 33.3785 30.2645 33.6143 30.7899C33.6545 30.4338 34.2766 30.008 34.4672 29.8586Z" fill="#786F7A"/>
<path d="M35.9698 22.5033C36.6471 22.1771 37.3244 22.1522 38.0494 22.0551C37.7057 21.5098 36.6898 21.6592 36.1755 21.8484C35.719 22.0153 35.2399 22.2892 35.0316 22.7473C34.9464 22.9341 34.841 23.1731 34.7908 23.4072C35.1119 23.0287 35.5133 22.7224 35.9698 22.5033Z" fill="#786F7A"/>
<path d="M34.1035 26.1313C33.4463 25.5785 32.345 25.8125 31.9111 26.5645C31.7154 26.9056 31.5172 27.5057 31.595 27.9838C32.0591 27.0276 33.075 26.3803 34.1035 26.1313Z" fill="#786F7A"/>
<path d="M39.2937 24.1492C39.8832 23.6686 40.5128 23.4221 41.3205 23.4146C40.8339 22.4336 39.1883 23.0984 39.2937 24.1492Z" fill="#786F7A"/>
<path d="M38.6891 25.2771C38.1021 24.6969 36.9984 24.7691 36.3361 25.2447C35.8168 25.6182 35.4832 26.1685 35.3728 26.7661C36.1003 25.7303 37.4976 25.0082 38.6891 25.2771Z" fill="#786F7A"/>
</g>
<path d="M84.9012 56.4715C81.1158 56.2922 77.2928 56.7628 73.535 57.1961C71.6035 57.4202 69.6819 57.7015 67.7579 57.9854C66.1575 58.2195 64.4642 58.4137 62.8888 58.8594C62.8688 58.8419 62.8462 58.8245 62.8261 58.8071C62.7835 58.7697 62.7158 58.8419 62.7133 58.8967C62.6229 58.9191 62.5326 58.954 62.4448 58.9938C62.3897 59.0113 62.3345 59.0262 62.2818 59.0436C62.2592 59.0511 62.2391 59.0735 62.2241 59.1009C62.1915 59.1158 62.1564 59.1308 62.1212 59.1457C61.6145 59.3524 61.0978 59.5142 60.591 59.7334C59.6729 60.1342 58.7372 60.5003 57.8392 60.9509C56.8784 61.4315 55.9653 62.0017 55.0296 62.5321C54.3147 62.9379 53.5571 63.3289 52.8773 63.797C52.8698 63.802 52.8598 63.8069 52.8522 63.8144C52.7694 63.8717 52.6892 63.9289 52.6114 63.9887C52.481 64.0858 52.358 64.3323 52.4885 64.4718C52.8146 64.8179 53.5722 65.1565 54.0312 64.9523C54.1416 65.0245 54.252 65.0943 54.3523 65.164C55.2353 65.7715 56.1334 66.3567 57.0139 66.9717C58.672 68.127 60.5108 68.9487 62.3545 69.7605C62.8186 69.9646 65.6357 71.0652 65.573 69.6982C65.5579 69.3795 65.3121 69.0807 65.0462 68.8317C66.5011 69.3322 68.0389 69.7007 69.5365 69.743C69.9654 69.7555 70.6628 69.631 70.8308 69.1604C71.1018 68.4009 70.3668 67.9303 69.8375 67.5344C69.5063 67.2904 69.1602 67.0563 68.804 66.8298C69.6017 67.0962 70.4019 67.3551 71.2096 67.5892C72.9455 68.0947 74.7065 68.5229 76.4851 68.8566C77.5763 69.0633 79.4326 69.7131 80.4159 68.8516C82.064 67.4049 77.2025 65.8886 76.5302 65.657C75.9508 65.4578 75.3663 65.2735 74.7768 65.1017C74.9323 65.1117 75.0903 65.1216 75.2459 65.1316C77.0344 65.2412 78.8004 65.4976 80.579 65.7068C81.8709 65.8587 83.4136 65.8537 84.397 64.8901C86.4214 62.9056 79.3047 61.5884 78.3966 61.4166C77.7343 61.2896 77.0645 61.1626 76.3923 61.0356C76.771 61.0232 77.1498 61.0107 77.5286 60.9908C79.3473 60.9086 81.166 60.804 82.9345 60.3509C84.2941 60.0023 85.6788 59.452 86.607 58.3664C87.7132 57.0815 85.9021 56.5188 84.9012 56.4715Z" fill="#202843"/>
<path opacity="0.5" d="M86.5518 56.9596C81.5724 59.5168 75.5569 57.9083 70.1636 58.0452C70.0181 58.0477 70.0031 57.8485 70.131 57.8062C70.432 57.7041 70.733 57.6095 71.0366 57.5149C69.9429 57.6643 68.8516 57.8236 67.7604 57.9855C66.16 58.2195 64.4667 58.4137 62.8914 58.8594L62.8287 58.8071C62.786 58.7698 62.7183 58.842 62.7158 58.8968C62.6255 58.9192 62.5352 58.9541 62.4474 58.9939C62.3922 59.0113 62.337 59.0263 62.2843 59.0437C62.2617 59.0512 62.2417 59.0736 62.2266 59.101C62.194 59.1159 62.1589 59.1308 62.1238 59.1458C61.6171 59.3525 61.1003 59.5143 60.5936 59.7334C59.6755 60.1343 58.7398 60.5003 57.8417 60.951C56.881 61.4316 55.9678 62.0018 55.0322 62.5321C54.3172 62.938 53.5597 63.3289 52.8798 63.797C52.8723 63.802 52.8623 63.807 52.8548 63.8145C52.772 63.8717 52.6917 63.929 52.6139 63.9888C52.4835 64.0859 52.3606 64.3324 52.491 64.4718C52.8171 64.8179 53.5747 65.1566 54.0338 64.9524C54.1441 65.0246 54.2545 65.0943 54.3549 65.164C55.2379 65.7716 56.1359 66.3567 57.0164 66.9718C58.6745 68.1271 60.5133 68.9488 62.3571 69.7605C62.8211 69.9647 65.6382 71.0653 65.5755 69.6983C65.5605 69.3796 65.3146 69.0808 65.0487 68.8318C66.5037 69.3322 68.0414 69.7008 69.539 69.7431C69.9679 69.7555 70.6653 69.631 70.8334 69.1604C71.1043 68.401 70.3693 67.9304 69.84 67.5345C69.5089 67.2905 69.1627 67.0564 68.8065 66.8298C69.6042 67.0963 70.4044 67.3552 71.2122 67.5893C72.9481 68.0947 74.7091 68.523 76.4876 68.8567C77.3832 69.026 78.793 69.4941 79.8139 69.1779C79.1968 69.0011 78.6098 68.7795 78.1081 68.5828C76.1665 67.8183 74.0267 66.8622 72.9054 65.0246C72.8452 64.9275 72.9431 64.8254 73.0434 64.8453C73.8562 64.9997 74.6689 65.1591 75.4817 65.3134C75.2459 65.2412 75.0126 65.169 74.7768 65.0993C74.9323 65.1093 75.0904 65.1192 75.2459 65.1292C77.0345 65.2387 78.8005 65.4952 80.579 65.7044C81.8709 65.8562 83.4137 65.8513 84.397 64.8877C84.8209 64.4743 84.8435 64.0884 84.6077 63.7373C83.4112 63.7771 82.2045 63.6676 81.0406 63.4659C78.9761 63.1123 76.899 62.4848 75.1255 61.3519C75.0151 61.2822 75.0703 61.1403 75.1882 61.1253C76.026 61.0182 76.8639 60.9834 77.7068 60.9809C79.4677 60.8987 81.2262 60.7867 82.937 60.3484C84.2967 59.9998 85.6814 59.4496 86.6095 58.3639C87.1614 57.729 86.9883 57.2684 86.5518 56.9596Z" fill="#5E5553"/>
<path d="M71.8243 60.8937C71.9998 60.8788 72.1754 60.8638 72.3485 60.8489C73.51 60.7368 75.1681 60.7941 76.0035 59.8529C76.1189 59.7209 76.2393 59.447 76.0787 59.3026C75.883 59.1258 75.6171 59.1059 75.3613 59.0934C74.7617 59.0661 74.1221 58.9565 73.525 58.8768C72.1428 58.6901 70.7556 58.4635 69.3609 58.4062C67.8156 58.344 66.2754 58.217 64.7452 57.9979C63.9224 57.8808 63.1021 57.6692 62.2743 57.5273C61.9406 57.3505 61.612 57.1587 61.2508 57.0318C60.9724 56.9346 60.7039 57.3355 60.6638 57.5522C60.576 58.0277 60.7591 58.4759 61.0551 58.8669C60.2925 58.8893 59.53 58.9465 58.7874 59.081C57.7439 59.2702 56.7656 59.7184 55.8274 60.1965C54.7562 60.7443 53.7654 61.439 52.7745 62.1138C52.1624 62.5321 51.5202 62.9579 51.1239 63.5953C50.6598 64.3423 51.4399 64.9299 51.9893 65.2735C52.4609 65.5674 52.925 65.8612 53.3841 66.16C54.6032 67.4448 55.8725 68.6823 57.2522 69.8003C58.1176 70.5 59.0132 71.1051 59.9865 71.6504C60.5559 71.9691 61.8127 72.6165 62.4173 72.0512C63.6063 70.9407 61.1003 69.1031 60.4054 68.4607C59.851 67.9478 59.2691 67.4697 58.6771 67.0091C58.7799 67.0588 58.8802 67.1111 58.9831 67.1634C59.7959 67.5693 60.6036 67.9876 61.4339 68.3561C61.9181 68.5703 62.5603 68.884 63.1121 68.7944C64.557 68.5603 62.781 66.9169 62.4273 66.6256C61.9657 66.2471 61.4665 65.9184 60.9523 65.6072C61.607 65.906 62.2693 66.1874 62.9516 66.4289C64.0127 66.8049 65.0939 67.0738 66.1901 67.3153C66.747 67.4373 67.5547 67.6564 68.0464 67.2257C69.1326 66.2695 66.7169 64.9673 66.0998 64.6386C66.007 64.5888 65.9142 64.544 65.8213 64.4942C66.5438 64.7531 67.2663 65.0121 67.9887 65.2611C69.3559 65.7367 70.7355 66.1849 72.1303 66.5658C72.8277 66.7551 73.5326 66.9244 74.2375 67.0788C74.5435 67.146 74.9825 67.2979 75.2935 67.1883C75.8881 66.9767 75.858 66.4314 75.4265 66.0952C74.4507 65.3333 73.2792 64.8079 72.1654 64.2751C70.713 63.5804 69.2204 62.9902 67.7153 62.4176C68.7036 62.5993 69.692 62.7711 70.6829 62.9404C71.9472 63.1571 73.214 63.3364 74.4758 63.5679C75.3763 63.7323 76.3195 63.8966 77.2402 63.8493C77.6967 63.8269 78.0755 63.548 78.1483 63.0948C78.2059 62.7836 75.2333 61.8224 71.8243 60.8937Z" fill="#515972"/>
<path d="M61.1028 71.892C60.1069 71.4936 59.1612 70.8238 58.3158 70.1814C57.3049 69.4145 56.4319 68.5056 55.4711 67.6814C54.9845 67.2631 54.4727 66.8573 53.951 66.4887C53.7152 66.3219 53.4718 66.1651 53.2109 66.0455C53.2711 66.0829 53.3313 66.1227 53.389 66.1601C54.6082 67.4449 55.8775 68.6824 57.2572 69.8004C58.1226 70.5001 59.0182 71.1051 59.9915 71.6505C60.5108 71.9418 61.5995 72.5045 62.2467 72.1709C61.8503 72.1534 61.4389 72.0264 61.1028 71.892Z" fill="#515972"/>
<path d="M60.7139 67.8657C59.5073 67.293 58.4588 66.4837 57.5005 65.5649C57.6962 66.2596 58.3108 66.7776 58.9329 67.2083C58.8476 67.1411 58.7648 67.0763 58.6795 67.0091C58.7824 67.0589 58.8827 67.1112 58.9856 67.1635C59.7983 67.5694 60.6061 67.9877 61.4364 68.3562C61.9205 68.5703 62.5627 68.8841 63.1146 68.7944C63.1397 68.7894 63.1648 68.7845 63.1874 68.7795C62.3244 68.6874 61.464 68.2217 60.7139 67.8657Z" fill="#515972"/>
<path d="M67.1835 67.4822C67.1609 67.4797 67.1383 67.4772 67.1182 67.4747C66.4058 67.3926 65.7084 67.1635 65.0311 66.9344C64.2109 66.653 63.3855 66.3891 62.5929 66.038C61.7274 65.6546 60.8871 65.2213 60.0567 64.7706C60.4581 65.1466 60.8971 65.4853 61.3637 65.7915C61.8854 66.0206 62.4147 66.2397 62.9566 66.4314C64.0177 66.8074 65.0989 67.0763 66.1951 67.3179C66.4836 67.3826 66.8398 67.4698 67.1835 67.4822Z" fill="#515972"/>
<path d="M76.0059 59.8529C76.0586 59.7932 76.1088 59.706 76.1389 59.6139C75.7726 60.0646 75.0728 60.3136 74.5234 60.4281C73.9113 60.5551 73.2942 60.5551 72.6721 60.5277C72.0299 60.5003 71.3877 60.4406 70.7581 60.3136C71.2949 60.5626 71.8719 60.7418 72.4589 60.839C73.6103 60.7394 75.1957 60.7643 76.0059 59.8529Z" fill="#515972"/>
<path d="M76.9918 63.7223C76.0938 63.7422 75.1932 63.5629 74.3202 63.3712C71.9497 62.8508 69.5064 62.6267 67.2286 61.7627C67.7027 62.1237 68.2345 62.3951 68.7939 62.6143C69.4261 62.7263 70.0607 62.8384 70.6929 62.9454C71.9572 63.1621 73.224 63.3413 74.4858 63.5729C75.3863 63.7372 76.3296 63.9016 77.2502 63.8543C77.5587 63.8393 77.8296 63.7049 77.9977 63.4808C77.7168 63.66 77.3254 63.7148 76.9918 63.7223Z" fill="#515972"/>
<path d="M73.7132 66.8198C72.7449 66.4762 71.7364 66.2496 70.7506 65.9583C69.0047 65.4429 67.2512 64.8303 65.6181 64.0161C66.0521 64.3398 66.5062 64.6386 66.9778 64.9075C67.3164 65.027 67.6551 65.1466 67.9962 65.2661C69.3634 65.7417 70.7431 66.1898 72.1378 66.5708C72.8352 66.7601 73.5401 66.9294 74.245 67.0838C74.4958 67.1385 74.8345 67.2481 75.1204 67.2282C74.6363 67.1535 74.1572 66.9767 73.7132 66.8198Z" fill="#515972"/>
<path opacity="0.5" d="M65.6884 61.0356C67.5924 60.0695 69.8751 61.0057 71.8167 61.3568C73.9364 61.7403 76.026 62.2532 78.0529 62.9653C77.5061 62.562 74.8345 61.7154 71.8243 60.8937C71.9321 60.8862 72.04 60.8763 72.1478 60.8663C70.8409 60.5924 69.5616 60.1193 68.4252 59.584C68.3173 59.5342 68.3675 59.3972 68.4553 59.3599C69.8576 58.7971 71.4906 59.1233 72.9631 59.0387C73.3645 59.0163 73.7659 58.9889 74.1672 58.9665C73.949 58.9366 73.7332 58.9042 73.525 58.8768C72.1428 58.6901 70.7556 58.4635 69.3609 58.4062C67.8156 58.344 66.2754 58.217 64.7452 57.9979C63.9224 57.8808 63.1021 57.6692 62.2743 57.5273C61.9406 57.3505 61.612 57.1587 61.2508 57.0318C60.9724 56.9346 60.7039 57.3355 60.6638 57.5522C60.576 58.0277 60.7591 58.4759 61.0551 58.8669C60.2925 58.8893 59.53 58.9465 58.7874 59.081C57.7439 59.2702 56.7656 59.7184 55.8274 60.1965C54.7562 60.7443 53.7654 61.439 52.7745 62.1138C52.1624 62.5321 51.5202 62.9579 51.1239 63.5953C50.6598 64.3423 51.4399 64.9299 51.9893 65.2735C52.4609 65.5674 52.925 65.8612 53.3841 66.16C53.9711 66.7775 54.5706 67.385 55.1877 67.9752C54.9318 67.2929 54.8942 66.3542 55.8851 66.4787C56.4645 66.5509 57.0014 66.9244 57.5006 67.1958C58.3384 67.6515 59.1562 68.1345 59.9313 68.6898C60.857 69.3496 61.735 70.0642 62.5929 70.8038C62.1664 69.8725 60.8745 68.8964 60.4054 68.4632C59.851 67.9503 59.2691 67.4722 58.6771 67.0115C58.6996 67.0215 58.7247 67.0339 58.7473 67.0464C58.2657 66.6331 57.8417 66.165 57.5934 65.5823C57.5658 65.5151 57.5808 65.4229 57.6661 65.403C58.968 65.1266 60.2976 65.7093 61.4088 66.3343C62.0661 66.7053 62.6932 67.1211 63.3128 67.5469C63.0043 67.136 62.5778 66.7501 62.4248 66.6256C61.9632 66.2471 61.464 65.9184 60.9498 65.6072C61.4866 65.8512 62.031 66.0853 62.5878 66.2944C61.6647 65.7516 60.7792 65.0843 60.275 64.1406C60.2424 64.0784 60.2624 64.0136 60.3176 63.9738C60.877 63.5829 61.6145 63.6476 62.2542 63.7821C63.1046 63.9613 63.945 64.2303 64.7803 64.4618C65.5178 64.666 66.2503 64.8901 66.9703 65.149C66.614 64.9175 66.2779 64.7382 66.0973 64.6411C66.0045 64.5913 65.9117 64.5465 65.8188 64.4967C66.461 64.7282 67.1057 64.9573 67.7529 65.1814C67.5873 65.0992 67.4218 65.0171 67.2562 64.9324C66.5187 64.5564 65.7762 64.2004 65.0287 63.8443C64.4542 63.5704 63.8973 63.2691 63.4784 62.7811C63.4056 62.6964 63.4558 62.5819 63.5662 62.5744C64.6674 62.4823 65.7536 62.7711 66.7972 63.0923C67.8984 63.431 69.0172 63.7347 70.1084 64.1082C72.0149 64.7581 73.8562 65.5624 75.6824 66.4015C75.6272 66.2944 75.5444 66.1923 75.4315 66.1027C74.4557 65.3408 73.2842 64.8154 72.1704 64.2825C70.718 63.5878 69.2254 62.9977 67.7203 62.425C67.8683 62.4524 68.0163 62.4773 68.1643 62.5047C67.2387 62.2333 66.2854 61.8971 65.6608 61.2323C65.6106 61.1726 65.6156 61.073 65.6884 61.0356Z" fill="#5E5553"/>
<path d="M43.2746 72.6913C43.1542 72.6315 42.7579 72.7685 42.7529 72.8556C43.1517 73.3163 43.5707 73.8466 44.0673 74.1529C44.4336 74.3795 44.8274 74.4965 45.2363 74.5563C44.5665 73.9387 43.8265 73.4034 43.2746 72.6913Z" fill="#2B0F10"/>
<path d="M42.2035 75.3653C42.0756 75.3006 41.6441 75.4475 41.6366 75.5396C42.0656 76.0376 42.5221 76.6128 43.0589 76.944C43.4553 77.188 43.8817 77.3175 44.3257 77.3822C43.6033 76.7124 42.8031 76.1347 42.2035 75.3653Z" fill="#2B0F10"/>
<path d="M49.398 66.8871C49.1195 66.4912 48.3921 66.6879 47.9757 66.7178C47.05 66.7825 46.1319 66.897 45.2163 67.0489C43.7939 67.283 42.1107 67.4548 41.007 68.4757C39.9183 69.4816 39.8079 70.9607 40.0863 72.3177C40.4124 73.9013 41.6391 75.3106 42.5547 76.6054C42.8056 76.959 43.3499 76.3315 43.2195 76.0203C42.8106 75.0616 42.2913 74.1926 41.7997 73.2738C41.5789 72.863 41.4635 72.3525 41.3632 71.8695C41.5839 72.121 41.8448 72.355 42.048 72.5941C42.6099 73.2539 43.3675 73.8017 44.0975 74.2673C44.3157 74.4068 44.6268 73.9959 44.4737 73.8067C43.7011 72.8505 42.8031 72.0214 42.186 70.9482C42.0856 70.7714 41.7871 69.8277 41.4961 69.89C41.9828 69.7829 42.5321 69.8252 43.0339 69.7381C44.9052 69.4094 46.907 69.2202 48.4046 68.0325C48.816 67.8482 49.1647 67.5942 49.3578 67.2282C49.398 67.1435 49.4657 66.9842 49.398 66.8871ZM40.9468 69.5488C40.9568 69.5513 40.9643 69.5513 40.9743 69.5538C40.8941 69.6783 40.8414 69.8128 40.8238 69.9522C40.7962 69.9746 40.7737 69.9995 40.7511 70.0219C40.8038 69.8626 40.8665 69.7032 40.9468 69.5488Z" fill="#3A1213"/>
<path d="M48.9113 66.6107C48.7658 66.2895 48.4924 65.9982 48.2365 65.804C48.2315 65.799 48.224 65.7965 48.219 65.794C48.1939 65.7691 48.1713 65.7417 48.1462 65.7168C48.096 65.6645 47.9957 65.7492 47.9706 65.8289C47.8251 65.9335 47.7173 66.1551 47.7775 66.2821C47.8979 66.5286 48.4924 67.2332 48.1161 67.3577C47.5291 67.5544 46.902 67.6416 46.2974 67.7735C45.1285 68.03 43.9469 68.0499 42.7604 68.1819C42.7504 68.1844 42.7403 68.1844 42.7303 68.1844C41.5187 68.1744 40.2142 68.3736 39.4592 69.2177C38.4909 70.3009 38.7167 71.6479 39.0879 72.9228C39.1531 73.9263 39.3664 74.9272 40.0662 75.6817C40.129 75.7489 40.2519 75.592 40.2368 75.5298C40.0612 74.8077 39.9132 74.0781 39.8003 73.3461C39.8229 73.4009 39.8455 73.4581 39.8706 73.5104C39.8982 73.6275 40.3497 75.0716 40.6507 75.6219C40.9593 76.1896 41.7595 76.5681 42.3139 76.8445C42.4418 76.9092 42.65 76.7026 42.5748 76.5731C42.1132 75.7539 41.3732 75.1438 40.9819 74.2649C40.5529 73.3087 40.43 72.2455 40.3196 71.2047C40.3196 71.1076 40.3196 71.008 40.3246 70.9109C40.4225 71.2719 40.5705 71.6181 40.7285 71.9069C41.1725 72.7161 41.9501 73.854 42.8633 74.1653C42.9536 74.1952 43.1116 74.0184 43.0489 73.9362C42.5873 73.3237 42.2286 72.5418 41.8348 71.877C41.3481 71.0578 41.2026 70.2461 41.012 69.3671C41.318 69.3621 41.6215 69.3746 41.9401 69.3522C43.365 69.2576 44.8149 69.0907 46.2322 68.8965C47.0701 68.7795 48.3494 68.6475 48.969 67.9902C49.3754 67.5619 49.2199 67.0639 48.9113 66.6107Z" fill="#9A3538"/>
<path d="M48.9113 66.6107C48.7658 66.2895 48.4924 65.9982 48.2365 65.804C48.2315 65.799 48.224 65.7965 48.219 65.794C48.1939 65.7691 48.1713 65.7417 48.1462 65.7168C48.0961 65.6645 47.9957 65.7492 47.9706 65.8289C47.8251 65.9335 47.7173 66.1551 47.7775 66.2821C47.8979 66.5286 48.4924 67.2332 48.1161 67.3577C47.6345 67.5196 47.1253 67.6067 46.6261 67.7063C46.6838 67.7312 46.739 67.7586 46.7941 67.791C46.8669 67.8333 46.8694 67.9229 46.8192 67.9827C46.4781 68.3761 45.9187 68.406 45.427 68.4334C44.5164 68.4882 43.6008 68.6301 42.6952 68.7471C42.2336 68.8069 41.4761 68.7795 41.0622 69.0459C40.7034 69.2775 40.8339 69.7132 40.9267 70.0544C41.1575 70.9009 41.614 71.6728 41.7369 72.5518C41.752 72.6638 41.6266 72.7659 41.5312 72.6688C40.8464 71.9617 40.6081 71.008 40.2996 70.1017C40.124 70.9781 40.1591 71.9417 40.3547 72.7983C40.4802 73.3511 40.6257 73.9287 40.879 74.4417C41.0596 74.8027 41.2503 75.1463 41.3155 75.5472C41.3306 75.6394 41.2327 75.7564 41.1349 75.6842C40.8063 75.4476 40.5454 75.1513 40.3071 74.8301C40.4225 75.1414 40.5454 75.4377 40.6482 75.6269C40.9568 76.1946 41.757 76.5731 42.3114 76.8495C42.4393 76.9142 42.6475 76.7075 42.5723 76.5781C42.1107 75.7589 41.3707 75.1488 40.9794 74.2699C40.5504 73.3137 40.4275 72.2505 40.3171 71.2097C40.3171 71.1126 40.3171 71.013 40.3221 70.9159C40.42 71.2769 40.568 71.623 40.726 71.9119C41.17 72.7211 41.9477 73.859 42.8608 74.1703C42.9511 74.2001 43.1091 74.0234 43.0464 73.9412C42.5848 73.3287 42.2261 72.5468 41.8323 71.882C41.3456 71.0628 41.2001 70.2511 41.0095 69.3721C41.3155 69.3671 41.619 69.3796 41.9376 69.3572C43.3625 69.2625 44.8124 69.0957 46.2297 68.9015C47.0676 68.7845 48.3469 68.6525 48.9665 67.9951C49.3754 67.5619 49.2199 67.0639 48.9113 66.6107Z" fill="#9A2327"/>
<path d="M39.5144 72.1309C39.4843 72.6662 39.4893 73.2065 39.6122 73.7195C39.7677 74.3569 39.9709 74.9769 40.0386 75.6318C40.0386 75.6367 40.0386 75.6417 40.0386 75.6467C40.0487 75.6591 40.0587 75.6716 40.0713 75.6816C40.134 75.7488 40.2569 75.5919 40.2418 75.5297C40.1089 74.9844 39.9935 74.4366 39.8957 73.8863C39.715 73.3161 39.6473 72.716 39.5144 72.1309Z" fill="#9A2327"/>
<path d="M42.3139 76.1995C42.3114 76.197 42.3089 76.197 42.3064 76.1945C42.0329 76.1771 41.767 76.2045 41.5237 76.3165C41.5739 76.7149 42.0906 77.1382 42.3515 77.3673C42.8758 77.8279 43.6058 77.9649 44.2856 77.9997C44.3408 78.0022 44.4085 77.945 44.4461 77.8777C43.5958 77.4893 42.9134 76.9141 42.3139 76.1995Z" fill="#2B0F10"/>
<path d="M42.7403 73.6299C42.6199 73.5701 42.2236 73.7071 42.2186 73.7917C42.6149 74.2524 43.0363 74.7827 43.533 75.089C43.8993 75.3156 44.2931 75.4326 44.702 75.4924C44.0347 74.8774 43.2947 74.342 42.7403 73.6299Z" fill="#2B0F10"/>
<path d="M40.0663 74.967C39.9057 74.9944 39.7126 75.0044 39.5947 75.1289C39.6122 75.4177 39.9584 75.724 40.0964 75.9058C40.1942 76.0377 40.3046 76.1498 40.4225 76.2494C40.4451 76.2718 40.4701 76.2917 40.4927 76.3116C40.4977 76.3141 40.5028 76.3191 40.5078 76.3216C40.7486 76.456 40.9994 76.5233 41.2553 76.583C40.7486 76.1174 40.3798 75.5696 40.0663 74.967Z" fill="#2B0F10"/>
<path d="M65.9743 58.2644C65.7335 58.0577 65.2193 58.0229 64.838 57.978C64.9057 57.9307 64.9709 57.8784 65.0311 57.8187C65.1791 57.6743 65.4225 57.2883 65.1215 57.1663C64.3313 56.8451 63.526 56.997 62.6957 56.9845C61.8704 56.9721 61.1078 56.5837 60.2775 56.5189C60.2875 56.4417 60.2674 56.372 60.2022 56.3347C58.3309 55.2714 56.3667 54.39 54.6483 53.0828C52.7394 51.6311 51.016 49.913 49.1898 48.3593C47.4188 46.8529 45.565 45.6029 43.5105 44.5123C42.6124 44.0367 41.6868 43.6109 40.736 43.2449C39.6223 42.8166 38.521 42.6622 37.342 42.5278C36.3612 42.4157 35.3828 42.2639 34.3995 42.1916C33.2155 42.1045 32.0641 42.4108 30.875 42.2464C29.8766 42.1095 28.8858 42.2489 27.8823 42.1817C26.6256 42.0945 25.3688 42.0273 24.117 41.8854C21.9146 41.6364 20.4997 41.3625 18.4427 40.5433C17.6501 40.2271 11.5844 35.0429 6.54982 38.5115C4.34733 40.0279 2.92248 42.3958 3.78291 45.1945C4.60821 47.8737 7.41024 49.415 10.1897 49.5445C13.3906 49.6939 24.0468 57.9457 26.4249 60.4556C27.5989 61.698 28.956 62.7463 30.3984 63.6651C33.1176 65.3907 36.0652 66.6033 39.2761 67.0067C39.5671 67.0863 39.8631 67.161 40.1641 67.2009C40.9769 67.3129 41.7896 67.41 42.6049 67.4997C44.1677 67.6715 45.6954 67.7686 47.2682 67.7686C48.5752 67.7686 50.0703 67.7661 51.2719 67.2233C51.3521 67.1859 51.4926 67.0589 51.5854 66.917C52.3405 66.9569 53.3264 66.8498 53.8682 66.4838C54.0187 66.3817 54.3222 65.9858 54.0212 65.8687C53.9184 65.8289 53.813 65.794 53.7051 65.7642C54.2721 65.5924 54.8315 65.3284 55.3808 65.179C55.5389 65.1367 55.732 64.813 55.7095 64.6437C55.8123 64.6188 55.9151 64.5964 56.0155 64.574C56.9738 64.3523 57.8618 63.8867 58.7272 63.436C59.2189 63.1796 60.2248 62.6044 60.6964 61.9296C61.015 61.8599 61.3361 61.7976 61.6697 61.7628C62.5226 61.6756 64.103 61.2498 64.3112 60.2588C64.3313 60.1617 64.2886 60.0372 64.1833 60.0123C63.8772 59.9401 63.5662 59.8853 63.2576 59.8355C63.378 59.8181 63.4959 59.7957 63.6138 59.7733C64.3112 59.6264 65.721 59.2902 66.007 58.5258C66.0421 58.4461 66.0496 58.3291 65.9743 58.2644Z" fill="#858BA2"/>
<path opacity="0.4" d="M65.9744 58.2643C65.7336 58.0577 65.2193 58.0228 64.838 57.978C64.9057 57.9307 64.971 57.8784 65.0312 57.8186C65.1792 57.6742 65.4225 57.2883 65.1215 57.1663C64.3313 56.845 63.5261 56.9969 62.6957 56.9845C61.8704 56.972 61.1078 56.5836 60.2775 56.5189C60.2875 56.4417 60.2675 56.372 60.2023 56.3346C58.3309 55.2714 56.3667 54.3899 54.6484 53.0827C52.7394 51.6311 51.016 49.913 49.1898 48.3592C47.4188 46.8528 45.565 45.6028 43.5105 44.5122C42.6124 44.0367 41.6868 43.6109 40.7361 43.2448C39.6223 42.8166 38.521 42.6622 37.342 42.5277C36.3612 42.4157 35.3829 42.2638 34.3995 42.1916C33.2155 42.1044 32.0641 42.4107 30.875 42.2464C29.8766 42.1094 28.8858 42.2489 27.8824 42.1816C26.6256 42.0945 25.3688 42.0273 24.1171 41.8853C23.4648 41.8106 22.8829 41.7359 22.331 41.6438C22.8578 43.5984 24.7693 45.1796 26.5102 46.0436C28.0178 46.7906 29.6032 47.2836 31.2062 47.7716C32.5984 48.1949 33.9655 48.7029 35.2825 49.3229C37.4825 50.3612 39.4266 51.7531 41.4736 53.0429C43.6685 54.4248 45.9538 55.6797 48.3545 56.6732C50.6724 57.6319 53.058 58.2021 55.5088 58.7225C57.8769 59.2255 60.2574 59.7459 62.4725 60.7493C62.5427 60.7817 62.5151 60.8788 62.4524 60.9012C61.3336 61.2722 60.1922 61.2996 59.0358 61.2971C59.3142 61.3594 59.5801 61.449 59.8084 61.6507C59.8435 61.6831 59.8385 61.7353 59.8084 61.7702C58.2682 63.5132 55.8224 63.6252 53.6349 63.4459C54.2269 63.69 54.8491 63.8419 55.4687 64.0162C55.5238 64.0311 55.559 64.1158 55.5063 64.1556C53.9661 65.3483 51.6933 65.3084 49.8019 65.1989C50.3187 65.4877 50.8831 65.6919 51.4099 65.9658C51.4701 65.9982 51.4625 66.1077 51.3898 66.1177C50.6297 66.2272 49.8997 66.1426 49.1773 65.9533C49.5611 66.1376 49.9574 66.292 50.3488 66.4638C50.4165 66.4937 50.3939 66.6007 50.3287 66.6157C45.5926 67.7113 40.6683 66.8721 36.1379 65.3184C33.9681 64.5739 31.743 63.7398 29.7939 62.5222C28.4368 61.6756 27.1725 60.6746 25.8028 59.8479C26.0461 60.077 26.2568 60.2812 26.4224 60.458C27.5964 61.7005 28.9535 62.7488 30.3959 63.6676C33.1152 65.3931 36.0627 66.6057 39.2736 67.0091C39.5646 67.0888 39.8606 67.1635 40.1616 67.2033C40.9744 67.3154 41.7871 67.4125 42.6024 67.5021C44.1652 67.6739 45.6929 67.771 47.2658 67.771C48.5727 67.771 50.0678 67.7685 51.2694 67.2257C51.3497 67.1884 51.4901 67.0614 51.583 66.9195C52.338 66.9593 53.3239 66.8522 53.8657 66.4862C54.0162 66.3841 54.3198 65.9882 54.0187 65.8712C53.9159 65.8313 53.8105 65.7965 53.7027 65.7666C54.2696 65.5948 54.829 65.3309 55.3783 65.1815C55.5364 65.1391 55.7295 64.8154 55.707 64.6461C55.8098 64.6212 55.9127 64.5988 56.013 64.5764C56.9713 64.3548 57.8593 63.8892 58.7247 63.4385C59.2164 63.182 60.2223 62.6068 60.6939 61.932C61.0125 61.8623 61.3336 61.8001 61.6672 61.7652C62.5201 61.6781 64.1005 61.2523 64.3087 60.2613C64.3288 60.1642 64.2861 60.0397 64.1808 60.0148C63.8747 59.9426 63.5637 59.8878 63.2551 59.838C63.3755 59.8206 63.4934 59.7982 63.6113 59.7757C64.3087 59.6288 65.7185 59.2927 66.0045 58.5283C66.0421 58.4461 66.0496 58.3291 65.9744 58.2643Z" fill="#858BA2"/>
<path opacity="0.4" d="M65.9744 58.2642C65.7335 58.0575 65.2193 58.0227 64.838 57.9779C64.9057 57.9306 64.9709 57.8783 65.0312 57.8185C65.1792 57.6741 65.4225 57.2881 65.1215 57.1661C64.3313 56.8449 63.526 56.9968 62.6957 56.9844C61.8704 56.9719 61.1078 56.5835 60.2775 56.5187C60.2875 56.4416 60.2675 56.3718 60.2022 56.3345C58.3309 55.2713 56.3667 54.3898 54.6484 53.0826C54.0814 52.6518 53.5346 52.1987 52.9952 51.733C53.088 51.8675 53.1834 51.9995 53.2787 52.1314C53.7779 52.8137 54.2721 53.486 54.9168 54.0437C55.6367 54.6637 56.4294 55.1941 57.2923 55.6024C58.0299 55.9535 58.8376 56.1677 59.5249 56.6109C59.5851 56.6507 59.5701 56.7329 59.5074 56.7553C59.1085 56.8972 58.6971 56.8898 58.2832 56.8549C59.2013 57.1238 60.122 57.3803 61.0501 57.6143C61.6898 57.7762 62.3194 57.8882 62.9742 57.9629C63.3856 58.0102 63.8195 57.9604 64.2109 58.1223C64.2736 58.1497 64.2911 58.2269 64.2309 58.2667C62.9491 59.1233 61.0476 59.3075 59.5149 58.7996C60.1496 59.2129 60.8795 59.5017 61.5819 59.676C61.8629 59.7457 63.7317 60.0321 63.4834 60.6048C63.2677 61.1078 62.204 61.2447 61.74 61.3368C61.2759 61.429 60.8193 61.5311 60.3603 61.6331C60.0994 62.0241 59.8235 62.3776 59.407 62.649C58.7674 63.0674 58.0876 63.411 57.4002 63.7421C56.8408 64.0111 56.1259 64.3721 55.4385 64.4792C54.9995 65.149 53.9861 65.3606 53.216 65.4179C52.9877 65.4353 52.7544 65.4428 52.5211 65.4453C52.5713 65.4652 52.619 65.4851 52.6691 65.505C52.8723 65.5947 53.527 65.8885 53.1432 66.1848C52.7469 66.4911 52.1047 66.5035 51.6256 66.5309C51.5002 66.5384 51.3647 66.5508 51.2242 66.5583C50.8128 67.1409 50.2158 67.4721 49.551 67.6713C50.1556 67.5966 50.7451 67.4622 51.2769 67.2231C51.3572 67.1858 51.4976 67.0588 51.5905 66.9169C52.3455 66.9567 53.3314 66.8496 53.8732 66.4836C54.0237 66.3815 54.3273 65.9856 54.0262 65.8686C53.9234 65.8287 53.818 65.7939 53.7102 65.764C54.2771 65.5922 54.8365 65.3282 55.3859 65.1789C55.5439 65.1365 55.7371 64.8128 55.7145 64.6435C55.8173 64.6186 55.9202 64.5962 56.0205 64.5738C56.9788 64.3522 57.8668 63.8866 58.7322 63.4359C59.2239 63.1794 60.2298 62.6042 60.7014 61.9294C61.02 61.8597 61.3411 61.7975 61.6747 61.7626C62.5276 61.6755 64.108 61.2497 64.3162 60.2587C64.3363 60.1616 64.2936 60.0371 64.1883 60.0122C63.8823 59.94 63.5712 59.8852 63.2626 59.8354C63.3831 59.818 63.501 59.7955 63.6189 59.7731C64.3162 59.6262 65.726 59.2901 66.012 58.5257C66.0421 58.446 66.0496 58.329 65.9744 58.2642Z" fill="#5A5F6F"/>
<path d="M22.5016 56.4864C22.4263 56.4092 22.5442 56.2922 22.6195 56.3693C22.9857 56.7329 23.3545 57.0914 23.801 57.3554C23.7032 56.7254 23.2366 56.2125 22.8377 55.7369C22.7775 55.6672 22.8528 55.5576 22.9381 55.6074C23.2893 55.8091 23.6405 55.9685 24.0493 55.9386C23.7985 54.9152 22.9105 54.1757 22.489 53.227C22.4564 53.1548 22.5242 53.0677 22.6044 53.1125C23.5978 53.6901 24.5962 54.2678 25.7351 54.4844C25.3212 53.8918 24.8119 53.3839 24.2626 52.9108C24.1948 52.851 24.2676 52.7564 24.3454 52.7713C24.7417 52.8485 25.138 52.9108 25.5419 52.9282C25.2835 52.2958 24.5736 51.9297 24.1672 51.3969C24.1271 51.3446 24.1823 51.2699 24.24 51.2724C25.3312 51.2873 26.4023 51.5513 27.4961 51.5239C26.5027 50.4133 24.98 49.8506 24.1698 48.5683C24.1271 48.5011 24.1974 48.4338 24.2651 48.4463C25.2534 48.6081 26.1966 48.9592 27.1925 49.0812C26.6883 48.633 26.0286 48.3766 25.6097 47.8362C25.557 47.769 25.6046 47.6819 25.6899 47.6968C26.1013 47.7715 26.5102 47.8935 26.9266 47.9333C26.5905 47.4752 26.0185 47.2237 25.6097 46.8378C25.5469 46.7805 25.6122 46.6784 25.6899 46.6983C27.3932 47.1714 29.3072 47.3183 31.0356 46.895C31.896 46.6834 32.7665 46.3348 33.4112 45.7098C33.4789 45.6451 31.5047 44.3104 31.299 44.1909C30.0623 43.4614 28.7478 42.8389 27.476 42.1566C26.3572 42.0819 25.2409 42.0147 24.1271 41.8877C21.9246 41.6387 20.5098 41.3648 18.4528 40.5456C17.6601 40.2294 11.5945 35.0453 6.55989 38.5138C4.3574 40.0302 2.93255 42.3981 3.79298 45.1969C4.61829 47.8761 7.42031 49.4174 10.1998 49.5468C12.7911 49.6688 20.274 55.102 24.2877 58.4983C23.801 57.7488 23.1212 57.1014 22.5016 56.4864Z" fill="#434B5F"/>
<path d="M3.93342 45.2219C3.86569 44.6616 3.77287 44.1213 3.81301 43.5536C3.87572 42.6572 4.05634 41.7633 4.58313 41.0138C5.4862 39.7216 6.95118 38.7853 8.55162 38.8028C8.16782 38.6583 7.23464 38.5687 7.28482 38.5338C8.97807 37.3262 11.888 37.6723 12.9591 37.8516C13.2827 37.9064 13.6063 37.9736 13.9274 38.0508C11.7124 37.1918 9.00817 36.8232 6.54982 38.5164C4.34733 40.0328 2.92248 42.4008 3.78291 45.1995C3.87572 45.4983 3.99363 45.7821 4.13159 46.0535C4.07641 45.7747 3.96854 45.5033 3.93342 45.2219Z" fill="#434B5F"/>
<path opacity="0.5" d="M9.7206 40.3167C8.37101 41.0263 7.85676 42.4879 8.24307 43.8798C9.52493 44.0939 11.1655 43.9022 12.0234 42.8838C12.5778 42.224 13.0494 41.3276 13.9324 41.1209C12.8763 40.0702 11.0903 39.5946 9.7206 40.3167Z" fill="#434B5F"/>
<path opacity="0.5" d="M13.0193 41.081C12.4875 40.6976 11.903 40.4013 11.2634 40.2817C10.4932 40.1373 9.79839 40.2892 9.21892 40.6453C8.24811 41.4222 7.90695 42.6771 8.24059 43.8797C9.52245 44.0939 11.163 43.9022 12.0209 42.8838C12.2216 42.6447 12.4123 42.3758 12.613 42.1193C12.7384 41.7683 12.8563 41.4147 13.0193 41.081Z" fill="#434B5F"/>
<path opacity="0.5" d="M31.2915 44.1885C30.0548 43.459 28.7403 42.8365 27.4685 42.1542C26.3497 42.0795 25.2334 42.0123 24.1196 41.8853C22.9682 41.7558 22.0325 41.6164 21.1068 41.3998C21.4982 41.6836 21.897 41.955 22.3686 42.0522C22.4865 42.0771 22.4865 42.2638 22.3686 42.2862C22.3536 42.2887 22.341 42.2937 22.326 42.2962C22.5543 42.5327 22.7875 42.7593 23.0384 42.9709C23.1212 43.0407 23.0534 43.1801 22.9506 43.1776C22.8427 43.1776 22.7399 43.1701 22.637 43.1602C23.3419 44.4799 24.536 45.4534 25.8605 46.1407C25.9709 46.1979 25.9182 46.3673 25.7978 46.3673C24.5837 46.3523 23.3921 46.1232 22.3385 45.5356C22.8478 46.3449 23.4297 47.0968 24.1522 47.7417C24.245 47.8239 24.1472 47.9783 24.0318 47.9459C23.4573 47.7766 22.908 47.5176 22.3937 47.1964C22.6345 47.5674 22.8879 47.931 23.1412 48.297C23.648 49.0265 24.2927 49.6291 24.8119 50.3437C24.8721 50.4259 24.7894 50.518 24.7066 50.528C23.964 50.6027 23.2441 50.2466 22.5768 49.9702C22.5442 49.9553 22.5116 49.9429 22.4765 49.9279C22.9807 50.6351 23.357 51.4244 23.5401 52.2037C23.5652 52.3083 23.4573 52.393 23.3595 52.3407C22.9406 52.1116 22.5668 51.8253 22.1955 51.5315C22.4765 51.8875 22.7574 52.2411 22.9682 52.6445C23.0158 52.7316 22.9381 52.8611 22.8302 52.8237C22.2181 52.6171 21.6386 52.3009 21.1093 51.9199C21.3903 52.5025 21.6437 53.0976 21.9221 53.6878C21.9873 53.8247 22.8452 55.1593 22.3084 55.2365C21.453 55.361 20.5876 54.502 20.0231 53.9741C19.8626 53.8247 19.6995 53.6753 19.534 53.5259C19.5942 53.6081 19.6494 53.6927 19.6995 53.7824C19.7497 53.8745 19.6669 53.994 19.5616 53.9617C18.3575 53.6006 17.3039 52.5648 16.3657 51.7705C15.2143 50.7969 14.0629 49.6366 12.6882 48.9767C11.8905 48.5933 11.1129 48.5485 10.2474 48.4613C9.77079 48.414 9.29668 48.2696 8.91789 47.9708C8.2155 47.4155 8.04743 46.6362 8.18038 45.8244C7.96716 46.0734 7.81916 46.3548 7.72634 46.6959C7.69373 46.8204 7.53068 46.803 7.49054 46.6959C7.37515 46.3822 7.38267 46.071 7.42281 45.7547C7.29487 45.9639 7.21209 46.1955 7.13934 46.4445C7.10924 46.554 6.97629 46.5565 6.91609 46.4718C6.67025 46.1357 6.65269 45.7921 6.66272 45.3862C6.68028 44.6766 6.3918 44.0068 5.59911 43.8997C4.89421 43.8026 4.1542 44.1014 3.62991 44.6019C3.66754 44.7961 3.71771 44.9928 3.77792 45.1945C4.60322 47.8737 7.40525 49.415 10.1847 49.5445C12.776 49.6665 20.2589 55.0996 24.2726 58.4959C23.7935 57.7439 23.1137 57.0965 22.4915 56.4815C22.4163 56.4043 22.5342 56.2873 22.6094 56.3645C22.9757 56.728 23.3444 57.0866 23.791 57.3505C23.6931 56.7205 23.2265 56.2076 22.8277 55.732C22.7675 55.6623 22.8427 55.5528 22.928 55.6026C23.2792 55.8042 23.6304 55.9636 24.0393 55.9337C23.7884 54.9103 22.9004 54.1708 22.479 53.2221C22.4464 53.1499 22.5141 53.0628 22.5944 53.1076C23.5878 53.6853 24.5862 54.2629 25.725 54.4796C25.3111 53.887 24.8019 53.379 24.2525 52.9059C24.1848 52.8462 24.2575 52.7515 24.3353 52.7665C24.7317 52.8437 25.128 52.9059 25.5319 52.9233C25.2735 52.2909 24.5636 51.9249 24.1572 51.392C24.1171 51.3397 24.1723 51.265 24.2299 51.2675C25.3212 51.2825 26.3923 51.5464 27.486 51.519C26.4926 50.4085 24.97 49.8457 24.1597 48.5634C24.1171 48.4962 24.1873 48.429 24.255 48.4414C25.2434 48.6033 26.1866 48.9543 27.1825 49.0763C26.6783 48.6282 26.0185 48.3717 25.5996 47.8314C25.5469 47.7641 25.5946 47.677 25.6799 47.6919C26.0913 47.7666 26.5002 47.8886 26.9166 47.9285C26.5804 47.4703 26.0085 47.2188 25.5996 46.8329C25.5369 46.7756 25.6021 46.6735 25.6799 46.6934C27.3832 47.1665 29.2972 47.3135 31.0256 46.8902C31.886 46.6785 32.7564 46.3299 33.4011 45.7049C33.4714 45.6452 31.4972 44.3106 31.2915 44.1885Z" fill="#434B5F"/>
<path d="M6.52473 46.1655C6.12337 45.0924 5.29054 44.2507 4.23946 44.7363C1.67324 45.9265 0.0477124 49.268 5.03746e-05 51.9572C-0.00496668 52.2361 0.366296 51.9846 0.431517 51.8825C0.918172 51.1255 1.52774 50.3885 2.3079 49.9154C3.52202 49.1759 6.39931 49.2506 7.2221 47.9135C7.58584 47.3234 6.85084 47.042 6.52473 46.1655Z" fill="#353522"/>
<path d="M1.3672 47.8164C1.88647 47.0071 2.50357 46.3 3.22602 45.6576C3.67505 45.2567 4.21438 44.9629 4.69853 44.6068C4.55053 44.6242 4.39751 44.6641 4.23947 44.7363C2.0144 45.7671 0.496744 48.419 0.102905 50.8591C0.336198 49.7785 0.777699 48.7377 1.3672 47.8164Z" fill="#353522"/>
<path d="M6.52476 46.1655C6.12339 45.0924 5.29056 44.2507 4.23949 44.7363C2.92502 45.3463 1.85638 46.5216 1.12138 47.8861C1.72594 46.9424 2.55626 45.919 3.67256 45.6028C3.77792 45.5729 3.86321 45.6899 3.81053 45.7821C3.52455 46.2925 3.14577 46.7482 2.87485 47.2636C3.64998 46.7233 4.62078 46.0062 5.55145 46.2676C6.51221 46.539 5.57653 47.418 5.14757 47.7492C4.16423 48.5061 2.86983 48.7202 1.95422 49.5942C1.39983 50.1221 0.990941 50.7496 0.737579 51.4343C1.16905 50.8417 1.68079 50.2914 2.30792 49.9104C3.52205 49.1709 6.39933 49.2456 7.22213 47.9085C7.58586 47.3234 6.85086 47.042 6.52476 46.1655Z" fill="#353522"/>
<path d="M6.36417 45.2143C6.33407 44.4623 5.38334 44.2283 4.77377 44.4026C4.70102 44.4225 4.62075 44.4548 4.54298 44.4947C4.44515 44.5071 4.35735 44.5246 4.29464 44.5445C4.01117 44.6316 3.7829 44.903 3.7829 45.1993C3.7829 45.538 4.20935 45.7222 4.48278 45.782C4.90923 45.8741 5.37331 45.9065 5.79976 45.8019C6.04559 45.7397 6.37672 45.5006 6.36417 45.2143Z" fill="#7D422B"/>
<path d="M5.46865 45.0799C5.45109 44.6317 4.88165 44.4898 4.51792 44.5944C4.47527 44.6068 4.42761 44.6267 4.37995 44.6492C4.31974 44.6566 4.26957 44.6666 4.23194 44.679C4.06136 44.7313 3.9259 44.8932 3.9259 45.07C3.9259 45.2716 4.18177 45.3812 4.34483 45.4161C4.6007 45.4708 4.87664 45.4908 5.13251 45.4285C5.278 45.3961 5.47617 45.2517 5.46865 45.0799Z" fill="#8C4C31"/>
<path d="M12.623 41.3301C12.6155 41.3226 12.6079 41.3177 12.6004 41.3102C12.5929 41.3052 12.5879 41.3002 12.5803 41.3002C11.7325 40.6927 10.556 40.2744 9.55255 40.7599C8.70467 41.1683 8.21801 42.0323 8.24811 42.9536C8.23808 43.2972 8.22303 43.8002 8.58175 43.8251C9.52245 43.8898 10.3327 43.6806 11.1731 43.2972C11.5744 43.1154 12.1037 42.6921 12.342 42.3186C12.4524 42.1443 12.5101 41.9402 12.5578 41.741C12.5778 41.6563 12.6104 41.5642 12.6029 41.4795C12.6405 41.4322 12.6606 41.365 12.623 41.3301Z" fill="#482619"/>
<path d="M11.5845 42.0846C11.5845 42.849 10.9598 43.469 10.1897 43.469C9.41961 43.469 8.79498 42.849 8.79498 42.0846C8.79498 41.3202 9.41961 40.7026 10.1897 40.7026C10.9624 40.7002 11.5845 41.3202 11.5845 42.0846Z" fill="#7D422B"/>
<path d="M10.9624 42.0846C10.9624 42.5054 10.6187 42.849 10.1922 42.849C9.7683 42.849 9.42212 42.5079 9.42212 42.0846C9.42212 41.6638 9.76579 41.3202 10.1922 41.3202C10.6162 41.3202 10.9624 41.6613 10.9624 42.0846Z" fill="#361D13"/>
<path d="M10.5058 41.4669C10.5058 41.7707 10.26 42.0172 9.95894 42.0172C9.65791 42.0172 9.41208 41.7707 9.41208 41.4669C9.41208 41.1631 9.65791 40.9166 9.95894 40.9166C10.26 40.9166 10.5058 41.1606 10.5058 41.4669Z" fill="#999A44"/>
<path d="M97.5015 6.52284C97.4815 6.31866 97.2607 6.34356 97.1278 6.41826C90.9894 9.96398 84.688 13.2184 78.1508 15.9822C74.9624 17.3318 71.7063 18.5245 68.4804 19.772C65.6457 20.8675 62.6832 21.7092 59.8937 22.9218C59.994 22.8271 60.0969 22.73 60.2022 22.6304C60.5384 22.3092 60.9071 22.13 61.0752 21.6743C61.1279 21.5274 61.1003 21.2759 60.882 21.3083C59.3117 21.5423 57.8166 22.4238 56.442 23.1757C54.8541 24.0447 53.2937 25.0034 51.7936 26.0143C48.6279 28.1432 45.5549 30.439 42.5899 32.8343C39.6072 35.2446 36.4766 37.4831 33.1954 39.48C31.6025 40.4486 29.8917 41.3575 28.0906 41.8754C27.0972 42.1617 26.0612 42.2887 25.0352 42.4107C24.3779 42.4879 23.7307 42.6199 23.0785 42.6871C24.2701 43.469 25.6146 44.0093 27.0495 44.1662C28.5471 44.328 30.0497 44.1413 31.5022 43.7703C35.2725 42.8091 38.7292 40.8196 42.5773 40.125C44.7096 39.739 46.7891 39.9706 48.9088 40.3391C51.6281 40.8097 54.3072 41.2429 57.0791 41.1409C62.0912 40.9516 67.1509 39.9432 71.9346 38.4666C72.7022 38.2301 73.4673 37.9761 74.2274 37.7122C74.8671 37.4682 75.4967 37.2092 76.1189 36.9278C77.4208 36.3402 78.7252 35.7277 79.8867 34.8935C80.6668 34.3333 81.615 33.5714 81.9963 32.665C82.039 32.5654 82.0264 32.4334 81.9136 32.3936C81.8533 32.3737 81.7906 32.3612 81.7279 32.3513C82.5708 31.9031 83.4086 31.4399 84.2139 30.9419C85.6462 30.0555 86.9883 28.94 88.3028 27.8917C89.5671 26.8833 90.6708 25.7255 91.3331 24.2265C91.3958 24.0846 91.3456 23.8655 91.1525 23.8854C89.8154 24.0248 88.4382 24.5627 87.1539 24.9386C85.6086 25.3918 84.1035 25.9819 82.5858 26.5173C81.5348 26.8858 80.4737 27.2244 79.4125 27.5631C80.3758 27.09 81.3266 26.5945 82.2698 26.0865C84.5676 24.8465 86.8754 23.6015 89.0302 22.13C89.9459 21.505 90.8314 20.8426 91.6893 20.1405C92.3791 19.5752 93.2897 19.0275 93.7086 18.2107C93.7588 18.1136 93.8165 17.9543 93.7112 17.8696C93.4478 17.6505 93.1543 17.7875 92.8507 17.8572C92.1182 18.029 91.3958 18.2705 90.6859 18.522C89.1406 19.0698 87.6004 19.63 86.0652 20.2077C87.8763 19.0449 89.6373 17.8148 91.3155 16.4678C92.1107 15.8303 92.8056 15.158 93.4979 14.416C93.8416 14.045 94.3157 13.7637 94.243 13.1935C94.2329 13.1038 94.1527 13.0217 94.0523 13.0416C93.7638 13.0988 93.4979 13.2009 93.2671 13.3902C93.1041 13.5246 92.7228 13.5894 92.5246 13.669C92.1835 13.806 91.8398 13.9355 91.4986 14.0774C90.2494 14.6028 89.0704 15.29 87.8663 15.9075C87.7634 15.9598 87.6606 16.0121 87.5577 16.0644C88.1171 15.6585 88.674 15.2427 89.2234 14.8194C91.2478 13.2607 93.2847 11.809 95.0056 9.89924C95.6001 9.2394 96.1269 8.52727 96.7139 7.86244C96.9998 7.52879 97.5517 7.01835 97.5015 6.52284Z" fill="#5E5553"/>
<path opacity="0.4" d="M97.5015 6.52284C97.4815 6.31866 97.2607 6.34356 97.1278 6.41826C95.8835 7.13786 94.6293 7.84501 93.37 8.53723C92.4694 9.88928 90.9844 10.8678 89.6649 11.7543C87.7183 13.059 85.8068 14.4061 83.8075 15.6336C81.6527 16.9583 79.4627 18.2257 77.2351 19.4234C76.154 20.0035 75.0627 20.5638 73.9766 21.1365C73.0108 21.6469 72.04 22.1524 70.9764 22.4362C70.866 22.4661 70.7581 22.3142 70.8585 22.232C72.4765 20.9173 74.4532 20.0409 75.9483 18.5818C73.3419 19.6201 70.9011 21.0717 68.1994 21.871C65.6934 22.6105 63.0419 23.7559 60.3853 23.6613C60.285 23.6563 60.2148 23.5268 60.2976 23.4521C60.8143 22.9965 61.3436 22.5508 61.8829 22.12C61.2107 22.3715 60.5459 22.6354 59.8887 22.9218C59.989 22.8271 60.0919 22.73 60.1972 22.6304C60.2976 22.5333 60.4029 22.4487 60.5033 22.3665C60.1872 22.5134 59.8761 22.6703 59.5651 22.8321C56.3291 24.5328 53.527 26.9057 50.6899 29.1815C47.7825 31.5171 44.8826 33.8701 41.8172 36.0016C38.8873 38.0384 35.8494 40.0254 32.5206 41.365C30.7922 42.0597 28.956 42.6473 27.1097 42.9461C26.1941 43.093 25.1781 43.2922 24.1898 43.3196C25.0828 43.7553 26.0411 44.0566 27.042 44.1637C28.5396 44.3255 30.0422 44.1388 31.4946 43.7678C35.2649 42.8066 38.7217 40.8172 42.5698 40.1225C44.702 39.7365 46.7816 39.9681 48.9013 40.3366C51.6205 40.8072 54.2997 41.2405 57.0716 41.1384C62.0836 40.9491 67.1433 39.9407 71.9271 38.4641C72.6947 38.2276 73.4598 37.9736 74.2199 37.7097C74.8596 37.4657 75.4892 37.2067 76.1113 36.9253C77.4132 36.3377 78.7177 35.7252 79.8791 34.891C80.6593 34.3308 81.6075 33.5689 81.9888 32.6625C82.0314 32.5629 82.0189 32.4309 81.906 32.3911C81.8458 32.3712 81.7831 32.3587 81.7204 32.3488C82.5632 31.9006 83.4011 31.4375 84.2063 30.9395C85.6387 30.053 86.9808 28.9375 88.2952 27.8892C88.9525 27.3639 89.5646 26.8011 90.0938 26.1687C89.4466 26.6119 88.7142 26.9605 87.9867 27.3041C86.6321 27.944 84.9539 28.8155 83.4212 28.315C83.3133 28.2802 83.3083 28.1557 83.3911 28.0934C85.5183 26.4899 88.1297 25.6358 90.2444 24.0348C89.1958 24.2589 88.1422 24.6473 87.1438 24.9386C85.5986 25.3918 84.0934 25.9819 82.5758 26.5173C81.5247 26.8858 80.4636 27.2244 79.4025 27.5631C80.3658 27.09 81.3165 26.5945 82.2597 26.0865C84.5575 24.8465 86.8654 23.6015 89.0202 22.13C89.9358 21.505 90.8213 20.8426 91.6792 20.1405C92.3691 19.5752 93.2797 19.0275 93.6986 18.2107C93.7412 18.1286 93.7864 18.0066 93.7387 17.9169C92.7479 18.7237 91.609 19.3586 90.4927 19.9712C89.0378 20.7679 87.6179 22.0304 85.9121 22.2196C85.8018 22.232 85.7541 22.0802 85.8243 22.0129C87.1037 20.7928 88.5034 19.6773 90.0186 18.7585C88.6941 19.2316 87.3696 19.7122 86.0526 20.2077C87.8638 19.0449 89.6248 17.8148 91.303 16.4678C92.0982 15.8303 92.793 15.158 93.4854 14.416C93.8265 14.05 94.2906 13.7711 94.2304 13.2134C92.9962 14.5854 91.3883 15.6859 89.8305 16.6022C87.8111 17.7899 85.6212 19.0474 83.2631 19.3885C83.1452 19.4059 83.0549 19.2814 83.1427 19.1843C84.3242 17.9169 86.0275 17.0952 87.485 16.1839C87.8537 15.9548 88.2275 15.7332 88.6013 15.5141C88.3504 15.6461 88.1021 15.778 87.8512 15.9075C87.7484 15.9598 87.6455 16.0121 87.5427 16.0644C88.1021 15.6585 88.659 15.2427 89.2083 14.8194C91.2327 13.2607 93.2697 11.809 94.9905 9.89924C95.585 9.2394 96.1118 8.52727 96.6988 7.86244C96.9998 7.52879 97.5517 7.01835 97.5015 6.52284Z" fill="#726866"/>
<path d="M88.6163 22.6129C87.4775 22.7324 86.3687 23.1333 85.275 23.4446C84.0257 23.8006 82.7865 24.194 81.5398 24.5576C81.2764 24.6348 81.0105 24.7095 80.7446 24.7842C81.9512 24.0795 83.1377 23.3275 84.2941 22.5955C85.1847 22.0328 86.0451 21.3729 86.8403 20.6832C87.3019 20.2823 87.8487 19.8167 87.796 19.1568C87.7885 19.0448 87.6907 18.9726 87.5803 18.985C86.5267 19.0797 85.4129 19.5179 84.4371 19.9063C83.1954 20.4018 81.9286 20.8226 80.6793 21.2982C78.0981 22.2818 75.6272 23.5018 73.0835 24.5725C70.6126 25.6108 68.1141 26.5844 65.6683 27.675C64.4341 28.2253 63.2676 28.9001 62.036 29.4603C61.8579 29.54 61.6772 29.6197 61.4966 29.6969C60.4506 29.8911 59.5224 30.3144 58.6319 30.8273C58.4613 30.8696 58.2807 30.902 58.0875 30.917C58.0022 30.9244 57.8894 31.1211 58.0148 31.1186C58.0599 31.1186 58.1026 31.1162 58.1452 31.1137C57.2848 31.639 56.447 32.2192 55.5539 32.7172C54.4552 33.3297 53.3238 33.8725 52.2201 34.4751C51.5353 34.8486 50.6497 35.1972 50.4992 36.0488C50.3939 36.6364 51.3948 37.0946 51.8137 37.2514C53.0253 37.7046 54.267 38.0059 55.5439 38.2101C58.0048 38.6035 60.5258 38.5487 63.0042 38.4242C67.6224 38.1902 72.3962 37.6971 76.8664 36.492C77.6892 36.2704 79.3975 36.0189 79.8515 35.1723C80.4937 33.9721 76.7134 34.3954 76.2292 34.4029C76.0411 34.4054 75.8529 34.4104 75.6673 34.4154C77.9074 33.875 80.1074 33.1754 82.2472 32.2989C83.1678 31.9204 84.0734 31.4697 84.9539 31.0066C85.6889 30.6231 86.5995 30.1749 87.1338 29.5226C87.3947 29.2039 87.5452 28.6586 87.0334 28.5291C86.8102 28.4718 86.5393 28.5465 86.321 28.5863C85.8469 28.6735 85.3527 28.676 84.8736 28.7283C82.5457 28.9872 80.2353 29.5276 77.9275 29.926C77.7795 29.9508 77.634 29.9757 77.4885 30.0006C78.9585 29.4802 80.4109 28.9125 81.8358 28.2776C84.0082 27.309 86.1504 26.201 88.067 24.7891C88.5636 24.4231 89.3313 23.955 89.5846 23.3524C89.8932 22.6254 89.1632 22.5556 88.6163 22.6129Z" fill="#7E726F"/>
<path opacity="0.5" d="M83.8627 25.9844C82.2597 26.455 80.6819 26.9579 79.0338 27.2592C77.4333 27.5505 75.8153 27.7298 74.1873 27.7672C74.0619 27.7697 74.0242 27.6028 74.1246 27.5406C74.8345 27.1123 75.6071 26.821 76.3873 26.5396C77.2828 26.2184 78.1458 25.8374 79.0137 25.4515C79.7713 25.1154 80.5314 24.7842 81.294 24.458C82.3099 23.8505 83.3108 23.2205 84.2916 22.6005C85.1822 22.0378 86.0426 21.3779 86.8378 20.6882C87.2994 20.2873 87.8462 19.8217 87.7936 19.1618C87.786 19.0498 87.6882 18.9776 87.5778 18.99C87.5302 18.995 87.4825 19.0025 87.4373 19.0075C87.4875 19.0423 87.5101 19.1096 87.475 19.1693C86.8704 20.1802 85.6036 20.6035 84.5877 21.0866C82.9947 21.8435 81.3993 22.593 79.8039 23.3425C76.7987 24.7543 73.8737 26.3105 70.8209 27.6178C67.7329 28.9399 64.5972 30.1625 61.4114 31.2307C59.8586 31.7511 58.2757 32.1545 56.6903 32.5678C56.1886 32.6998 55.6794 32.8268 55.1701 32.9314C54.1918 33.4592 53.1959 33.9498 52.2226 34.4801C51.5378 34.8536 50.6523 35.2022 50.5018 36.0538C50.3964 36.6414 51.3973 37.0996 51.8162 37.2564C53.0279 37.7096 54.2696 38.0109 55.5464 38.2151C58.0073 38.6085 60.5284 38.5537 63.0068 38.4292C67.625 38.1952 72.3987 37.7021 76.8689 36.497C77.5312 36.3177 78.7679 36.1185 79.4627 35.6081C78.8833 35.6753 78.2988 35.6952 77.7318 35.7002C76.9818 35.7077 76.2192 35.7176 75.4717 35.6305C74.9524 35.5707 74.4306 35.4836 74.0418 35.1126C73.9691 35.0429 74.0142 34.9408 74.097 34.9084C74.9399 34.5847 75.8203 34.3307 76.7184 34.1539C78.5973 33.6559 80.4436 33.0459 82.2472 32.3039C83.1678 31.9254 84.0734 31.4747 84.9539 31.0116C85.6889 30.6281 86.5995 30.18 87.1338 29.5276C87.3245 29.2935 87.4549 28.9399 87.3119 28.7159C86.2784 29.291 85.2524 29.8886 84.1687 30.3642C82.9998 30.8747 81.7706 31.2183 80.5615 31.6216C78.2637 32.3886 75.5795 33.3845 73.1488 32.6475C73.071 32.6226 73.0183 32.5031 73.0961 32.4458C74.5134 31.3577 76.1013 30.5808 77.7594 29.9633C77.6691 29.9783 77.5813 29.9932 77.4935 30.0081C78.9635 29.4877 80.416 28.92 81.8408 28.2851C84.0132 27.3165 86.1555 26.2085 88.072 24.7966C88.5687 24.4306 89.3363 23.9625 89.5897 23.3599C89.6198 23.2902 89.6373 23.228 89.6474 23.1682C88.1573 24.7195 85.8946 25.3868 83.8627 25.9844Z" fill="#7E726F"/>
<path d="M76.6682 37.0223C75.1731 36.3774 73.6078 35.9243 72.0375 35.4985C70.3768 35.0503 68.7112 34.6245 67.0631 34.134C66.175 33.87 65.3046 33.5563 64.4417 33.2251C63.7644 32.9637 63.0871 32.64 62.3922 32.4059C62.1062 32.259 61.7826 32.1669 61.4364 32.0673C60.6613 31.8432 59.8285 31.6565 59.0232 31.5992C57.1494 31.4672 55.3056 31.9428 53.5195 32.4607C50.1054 33.4467 46.8719 35.0005 43.8366 36.8231C40.9694 38.5462 37.8939 40.5631 35.7591 43.1651C34.9313 44.1735 34.382 45.3762 35.0166 46.6137C35.6663 47.8786 37.3119 48.897 38.5461 49.5021C38.5963 49.527 38.654 49.5245 38.7117 49.5021C40.6458 51.2749 42.7755 52.7888 45.0156 54.2181C46.458 55.1368 48.0434 55.8266 49.6564 56.3918C51.0787 56.8898 52.7043 57.5073 54.2269 57.5471C55.1551 57.5695 56.1409 56.9396 55.9754 55.9361C55.7872 54.8082 54.1818 53.989 53.2185 53.4686C53.66 53.6503 54.099 53.8346 54.538 54.0213C55.3959 54.3874 56.2965 54.6239 57.1594 54.9675C57.9972 55.3037 59.4371 55.3634 59.8084 54.3152C60.1119 53.4636 58.9229 52.8187 58.3409 52.4651C57.6661 52.0543 56.9662 51.6858 56.2563 51.3372C56.6702 51.499 57.0892 51.6509 57.5106 51.7903C58.8476 52.236 60.6638 52.622 62.0034 52.0468C62.6531 51.7679 63.4984 50.7097 62.7158 50.0922C61.5192 49.1485 59.994 48.6928 58.5943 48.1376C58.3284 48.0305 58.0625 47.9234 57.7966 47.8139C57.917 47.8537 58.0374 47.896 58.1578 47.9334C59.7658 48.4438 61.3787 48.7177 63.0569 48.8771C64.1808 48.9841 65.4426 49.146 66.3807 48.3517C67.191 47.6669 66.8273 47.149 66.0446 46.6411C65.4727 46.2701 64.833 45.9887 64.1783 45.7397C64.6524 45.8169 65.124 45.8891 65.5956 45.9538C66.308 46.051 67.0355 46.0435 67.7529 46.1057C68.2772 46.1506 68.7839 46.168 69.2731 45.9638C69.835 45.7273 70.3041 44.9404 69.9579 44.3503C69.6293 43.795 69.0473 43.439 68.4302 43.1601C68.8968 43.2124 69.3659 43.2547 69.8375 43.2796C70.8535 43.3344 72.1052 43.2722 72.9807 42.687C74.1221 41.9226 73.0986 41.1034 71.9321 40.5008C72.4991 40.5382 73.066 40.5456 73.6354 40.5432C74.4708 40.5407 75.4416 40.5954 76.2518 40.3614C77.0646 40.1273 78.4719 39.6567 78.4117 38.5686C78.359 37.7046 77.3606 37.3186 76.6682 37.0223Z" fill="#635A59"/>
<path opacity="0.5" d="M75.5695 40.222C74.4933 40.3241 73.4046 40.339 72.3235 40.2693C71.6737 40.2295 70.9613 40.2046 70.3392 39.9905C70.2389 39.9556 70.2188 39.8286 70.3091 39.7688C70.9287 39.368 71.6411 39.1389 72.2607 38.738C72.5743 38.5338 73.5752 37.8167 72.78 37.4532C72.4815 37.3162 72.1654 37.239 71.8468 37.1643C71.734 37.1369 71.7239 36.9477 71.8468 36.9303C73.209 36.7286 74.6539 36.9378 76.0085 37.1394C76.4851 37.2116 76.9768 37.2863 77.4609 37.3934C77.195 37.249 76.9116 37.132 76.6657 37.0249C75.1706 36.38 73.6053 35.9268 72.035 35.501C70.3743 35.0528 68.7087 34.6271 67.0606 34.1365C66.1725 33.8726 65.3021 33.5589 64.4392 33.2277C63.7619 32.9663 63.0846 32.6426 62.3897 32.4085C62.1037 32.2616 61.7801 32.1695 61.4339 32.0699C60.6588 31.8458 59.826 31.659 59.0207 31.6018C57.1469 31.4698 55.3031 31.9454 53.517 32.4633C50.1029 33.4493 46.8694 35.003 43.8341 36.8257C40.9669 38.5488 37.8914 40.5656 35.7566 43.1676C34.9288 44.1761 34.3795 45.3787 35.0141 46.6163C35.6638 47.8812 37.3094 48.8996 38.5436 49.5046C38.5938 49.5295 38.6515 49.527 38.7092 49.5046C39.3413 50.0848 39.9986 50.6351 40.6708 51.1679C43.7889 52.9159 47.3059 54.0289 50.7827 54.7784C51.8213 55.0025 52.8874 55.1195 53.9109 55.4058C54.5004 55.5702 55.1601 55.7171 55.6016 56.1703C55.7471 56.3197 55.8123 56.5413 55.8173 56.7803C55.9603 56.5438 56.0281 56.2599 55.9754 55.9387C55.875 55.3262 55.3533 54.8058 54.7462 54.375C53.0956 53.5757 51.6156 52.4029 50.1079 51.3771C49.9976 51.3024 50.0628 51.1131 50.2033 51.1555C51.9141 51.6609 53.645 52.0992 55.3884 52.4851C56.2689 52.6818 57.1117 52.8686 57.9471 53.2097C58.3836 53.3865 59.2841 53.7724 59.821 54.2629C60.0542 53.4388 58.9078 52.8138 58.3384 52.4702C57.6636 52.0593 56.9637 51.6908 56.2538 51.3422C56.6677 51.5041 57.0867 51.6559 57.5081 51.7954C58.2531 52.0444 59.1512 52.2735 60.0292 52.3282C59.2264 52.1664 58.5341 51.8601 57.8869 51.3571C57.473 51.0359 57.0014 50.7197 56.6677 50.3139C56.3792 49.9603 56.1435 49.5694 55.7647 49.298C55.6794 49.2357 55.6869 49.1087 55.7948 49.0763C56.1936 48.9518 56.605 49.0041 57.0114 49.0739C57.5859 49.1734 58.1653 49.2232 58.7423 49.3104C59.6454 49.4449 60.5334 49.6391 61.3813 49.9827C61.9532 50.2143 62.7334 50.6226 62.929 51.1355C63.0896 50.7795 63.0795 50.391 62.7133 50.1022C61.5167 49.1585 59.9915 48.7028 58.5918 48.1476C58.3259 48.0405 58.06 47.9334 57.7941 47.8239C57.9145 47.8637 58.0349 47.9061 58.1553 47.9434C59.7633 48.4538 61.3762 48.7277 63.0544 48.8871C63.6239 48.9419 64.2259 49.0091 64.8054 48.9593C64.7477 48.9543 64.6875 48.9469 64.6323 48.9419C63.4257 48.8174 62.2818 48.5933 61.1756 48.0853C60.7692 47.8986 59.1261 47.0396 60.2549 46.5938C61.2684 46.1955 62.5427 46.2029 63.6113 46.2627C64.3288 46.3025 65.0437 46.3847 65.7536 46.4768C65.2569 46.188 64.7226 45.9539 64.1733 45.7448C64.6474 45.822 65.119 45.8942 65.5906 45.9589C66.303 46.056 67.0305 46.0485 67.7479 46.1108C68.2722 46.1556 68.7789 46.173 69.2681 45.9689C69.5089 45.8668 69.7321 45.6651 69.8827 45.4211C69.529 45.4908 69.1803 45.5182 68.9971 45.5356C67.3114 45.68 65.6608 45.2916 64.0002 45.0725C63.8898 45.0575 63.8195 44.9081 63.9375 44.8459C65.4501 44.0466 67.2236 43.3843 68.962 43.444C68.7889 43.3419 68.6083 43.2498 68.4227 43.1652C68.8893 43.2175 69.3584 43.2598 69.83 43.2847C70.8459 43.3395 72.0977 43.2772 72.9732 42.6921C73.0735 42.6248 73.1563 42.5576 73.224 42.4904C72.622 42.7966 71.7114 42.8713 71.2523 42.9112C69.7472 43.0456 67.8934 43.0158 66.7621 41.8729C66.7094 41.8206 66.7144 41.716 66.7871 41.6811C68.2822 40.959 70.3618 40.4337 72.2056 40.6578C72.1127 40.6055 72.0174 40.5557 71.9221 40.5059C72.489 40.5432 73.056 40.5507 73.6254 40.5482C74.4607 40.5457 75.4315 40.6005 76.2418 40.3664C76.593 40.2643 77.0545 40.1199 77.4609 39.9008C76.7811 40.1025 76.026 40.1797 75.5695 40.222Z" fill="#5E5553"/>
<path d="M74.7969 24.112C73.6505 23.9227 72.2683 24.3485 71.1595 24.6075C69.7497 24.9362 68.2822 25.2499 66.8574 25.6483C66.8449 25.5761 66.7922 25.5338 66.6768 25.5537C65.9995 25.6807 65.3924 25.9396 64.7703 26.226C63.95 26.602 63.0595 26.7538 62.2367 27.1248C60.6262 27.8544 59.1236 28.7707 57.5608 29.5849C54.3022 31.2831 51.1038 33.0933 48.0309 35.1102C46.6637 36.0066 45.422 37.1171 44.0975 38.0782C42.6501 39.1315 41.2077 40.1947 39.7051 41.1707C38.1473 42.1817 36.4967 43.0507 34.7633 43.7279C33.9054 44.0616 33.0324 44.3554 32.172 44.6791C31.4044 44.9679 30.5615 45.0974 29.8265 45.4435C29.6961 45.5058 29.252 45.9341 29.528 46.081C31.0155 46.8653 32.4178 47.4405 34.1161 47.6272C35.5685 47.7866 37.1389 47.9733 38.5637 47.57C39.1005 47.4181 40.3046 46.7607 39.6348 46.066C39.6323 46.0635 39.6298 46.061 39.6273 46.0586C40.3698 45.9839 41.1099 45.7971 41.8047 45.573C43.799 44.9331 45.8761 44.6119 47.8754 44.0118C48.7082 43.7628 51.0336 43.0258 50.5745 41.8132C50.4867 41.5791 50.1807 41.4372 49.827 41.3475C50.7251 41.1483 51.6658 40.862 52.3857 40.374C52.629 40.2071 52.7971 39.8511 52.8347 39.5672C52.8924 39.1439 52.3405 38.9746 52.0445 38.8725C52.0044 38.8576 51.9618 38.8476 51.9216 38.8352C52.2277 38.7854 52.5362 38.7381 52.8473 38.7082C54.5907 38.5314 56.4495 38.3247 57.9496 37.3437C58.1904 37.1868 58.4839 36.7809 58.2958 36.4821C58.2105 36.3452 58.0926 36.2506 57.9546 36.1809C60.3453 35.7053 62.6882 34.9707 64.9635 34.0644C65.3322 33.9175 68.2647 32.4185 66.8248 31.7836C66.1174 31.4723 65.3172 31.44 64.5445 31.4748C65.0588 31.2781 65.5655 31.0739 66.0547 30.8822C67.7529 30.2124 69.6519 29.7816 71.1871 28.7533C71.7641 28.3673 72.8553 27.2195 71.734 26.7787C71.5483 26.7065 71.3301 26.6692 71.1018 26.6542C71.9547 26.3654 72.7926 26.0442 73.6053 25.6807C74.082 25.4665 74.8496 25.1876 75.118 24.717C75.3111 24.3884 75.1431 24.1693 74.7969 24.112Z" fill="#827874"/>
<path d="M28.2586 42.0571C30.0121 41.569 31.7605 41.0511 33.3986 40.2394C36.6848 38.6134 39.7126 36.3227 42.64 34.139C45.7531 31.8183 48.7809 29.3881 51.8463 27.0052C54.3373 25.068 56.9361 22.6577 60.0743 21.8684C60.1847 21.841 60.2574 21.9531 60.2123 22.0477C59.7482 23.0163 58.9856 23.7433 58.2054 24.458C60.1521 23.4595 62.1313 22.5581 64.2033 21.7763C67.2236 20.6384 70.2338 19.488 73.2391 18.3127C76.0787 17.2022 78.808 15.8975 81.5172 14.5081C80.4009 15.0135 79.2796 15.5065 78.1508 15.9846C74.9624 17.3342 71.7063 18.5269 68.4804 19.7743C65.6457 20.8699 62.6832 21.7115 59.8937 22.9241C59.994 22.8295 60.0969 22.7324 60.2022 22.6328C60.5384 22.3116 60.9071 22.1323 61.0752 21.6767C61.1279 21.5298 61.1003 21.2783 60.882 21.3106C59.3117 21.5447 57.8166 22.4262 56.4419 23.1781C54.854 24.0471 53.2937 25.0058 51.7936 26.0167C48.6279 28.1456 45.5549 30.4414 42.5899 32.8367C39.6072 35.247 36.4766 37.4855 33.1954 39.4824C31.6025 40.451 29.8917 41.3599 28.0906 41.8778C27.0972 42.1641 26.0612 42.2911 25.0352 42.4131C24.7392 42.448 24.4457 42.4928 24.1497 42.5401C25.5193 42.7094 26.9316 42.4281 28.2586 42.0571Z" fill="#786E6B"/>
<path d="M76.3246 29.1018C76.1966 28.8503 75.9583 28.4943 75.6999 28.3822C75.2986 28.2129 74.4256 28.5814 74.0067 28.6462C73.1463 28.7781 72.3184 29.0172 71.4856 29.2612C69.8024 29.7542 68.1167 30.2895 66.461 30.8672C65.8289 31.0863 65.2093 31.3353 64.5897 31.5893C63.6966 31.8557 62.8111 32.1719 61.9356 32.4558C60.2499 33.0011 58.5542 33.5215 56.8935 34.1315C53.4142 35.4064 50.0126 36.9004 46.6662 38.4815C43.4879 39.983 40.3322 41.594 37.3245 43.4117C36.592 43.8549 35.8695 44.3155 35.1521 44.7836C34.7507 45.0451 34.2766 45.3688 34.0258 45.7846C33.9204 45.9589 33.8577 46.1183 33.8251 46.2676C33.7122 46.1954 33.5968 46.1282 33.4864 46.056C33.3861 45.9913 33.2255 46.1905 33.3083 46.2726C33.4864 46.4469 33.6696 46.6162 33.8577 46.7831C33.9982 47.1416 34.377 47.3981 34.8385 47.5848C37.1263 49.3129 39.8731 50.5031 42.487 51.5812C44.258 52.3108 46.0843 52.8835 47.9255 53.4064C48.8386 53.6653 49.7618 53.8919 50.6824 54.1135C51.1665 54.2306 51.8213 54.4522 52.2728 54.1459C52.3982 54.0588 52.5437 53.8944 52.5161 53.7276C52.4459 53.3143 52.0169 53.1449 51.6833 52.9408C51.0035 52.5274 50.3312 52.1041 49.6464 51.7032C48.2943 50.9114 46.9296 50.1395 45.575 49.3527C45.0056 49.0216 44.4387 48.6829 43.8717 48.3468C44.0825 48.4289 44.2932 48.5111 44.5039 48.5908C46.0165 49.1709 47.5944 49.6142 49.1572 50.0375C50.6272 50.4359 52.0972 50.777 53.6249 50.8417C54.1291 50.8616 55.5264 50.8741 55.4561 50.015C55.4185 49.5469 54.8792 49.4 54.5029 49.2207C53.9761 48.9718 53.4292 48.7576 52.8849 48.541C54.3097 48.6207 55.7647 48.5559 57.1318 48.3717C57.8543 48.2746 60.4105 47.3035 59.3719 46.1432C59.1913 45.9415 58.9856 45.7871 58.7599 45.6651C60.6989 45.5331 62.6556 45.1995 64.3689 44.3977C65.0237 44.0889 66.0572 43.5038 66.165 42.702C66.3005 41.716 64.7653 41.6811 64.083 41.6537C65.6859 41.3375 67.2588 40.8769 68.7137 40.1996C69.549 39.8112 70.8585 39.2385 71.1971 38.2873C71.6562 36.9925 69.7046 37.1569 68.957 37.1668C68.8742 37.1693 68.7889 37.1743 68.7037 37.1768C70.2916 36.634 71.8293 35.9642 73.204 35.0852C73.5802 34.8437 75.0527 33.8103 74.2325 33.2999C73.8762 33.0783 73.1839 33.2103 72.8176 33.265C72.0902 33.3746 71.3602 33.5688 70.6427 33.7356C70.422 33.7879 70.2013 33.8402 69.9805 33.895C70.0031 33.8527 70.0206 33.8103 70.0382 33.768C71.0065 33.2401 71.9597 32.6849 72.908 32.1271C73.6179 31.7088 74.3102 31.2681 74.985 30.8025C75.3437 30.556 75.8003 30.2845 76.0687 29.9384C76.2443 29.7193 76.4701 29.3907 76.3246 29.1018Z" fill="#978F8B"/>
<path d="M43.0464 51.1654C41.2177 50.4732 39.4241 49.6988 37.6506 48.8796C36.3411 48.272 35.0567 47.6097 33.8677 46.798C34.0107 47.1491 34.387 47.403 34.841 47.5898C37.1288 49.3178 39.8756 50.508 42.4895 51.5862C44.2605 52.3157 46.0867 52.8884 47.928 53.4113C48.8411 53.6703 49.7643 53.8969 50.6849 54.1185C51.1264 54.2255 51.7059 54.4173 52.1474 54.2206C49.0142 53.5981 46.0065 52.2834 43.0464 51.1654Z" fill="#978F8B"/>
<path d="M55.2329 48.3442C53.4017 48.1276 51.6607 47.5424 49.8747 47.1266C50.863 47.7491 51.9643 48.3267 53.1132 48.6305C53.0379 48.6006 52.9652 48.5708 52.8924 48.5409C54.232 48.6156 55.5991 48.5633 56.8935 48.4014C56.3391 48.4363 55.7772 48.4089 55.2329 48.3442Z" fill="#978F8B"/>
<path d="M68.0063 35.3142C68.9319 35.0129 69.8199 34.6121 70.6829 34.1614C70.2664 34.3108 69.845 34.4577 69.4236 34.5946C67.4795 35.2221 65.5328 35.8471 63.5787 36.4422C65.1014 36.6165 66.604 35.7699 68.0063 35.3142Z" fill="#978F8B"/>
<path d="M69.0925 30.4264C70.4471 29.9035 71.8067 29.3856 73.1438 28.8154C73.1162 28.8229 73.0886 28.8279 73.061 28.8353C69.7196 30.033 66.3181 31.0763 63.0871 32.5603C65.1541 32.0574 67.1158 31.1909 69.0925 30.4264Z" fill="#978F8B"/>
<path d="M59.2064 39.9158C60.9799 39.8884 62.7308 39.7713 64.4943 39.5199C65.6959 39.348 66.9301 39.1887 68.1066 38.8525C66.6542 38.87 65.2017 38.9496 63.7618 39.1215C62.2367 39.3057 60.7341 39.7564 59.2064 39.9158Z" fill="#978F8B"/>
<path d="M59.0533 42.7269C60.3728 42.712 61.6923 42.6148 62.9993 42.4231C59.8887 42.3783 56.7806 42.2588 53.67 42.1716C55.426 42.5999 57.2522 42.7468 59.0533 42.7269Z" fill="#978F8B"/>
<path d="M45.3618 48.902C46.6111 49.3352 47.8904 49.6938 49.1647 50.0399C50.6347 50.4383 52.1047 50.7794 53.6324 50.8442C54.0714 50.8616 55.1852 50.8715 55.421 50.3088C52.032 50.513 48.6179 49.8482 45.3618 48.902Z" fill="#978F8B"/>
<path opacity="0.5" d="M76.3245 29.1018C76.307 29.0695 76.2894 29.0346 76.2694 28.9998C74.0317 30.9942 71.1193 31.9105 68.2596 32.7347C66.3331 33.29 64.3814 33.6809 62.4298 34.139C60.8419 34.5101 59.244 35.0628 57.5909 34.9757C57.4805 34.9707 57.4077 34.8014 57.5281 34.7491C59.7858 33.788 62.1062 32.9115 64.2359 31.7014C63.4608 31.9429 62.6932 32.2118 61.9331 32.4583C60.2474 33.0036 58.5516 33.524 56.891 34.1341C53.4116 35.4089 50.0101 36.9029 46.6637 38.484C43.4854 39.9855 40.3297 41.5965 37.3219 43.4142C36.5895 43.8574 35.867 44.318 35.1496 44.7861C34.7482 45.0476 34.2741 45.3713 34.0232 45.7871C33.9179 45.9614 33.8552 46.1208 33.8225 46.2702C33.7097 46.198 33.5943 46.1307 33.4839 46.0585C33.3836 45.9938 33.223 46.193 33.3058 46.2752C33.4839 46.4494 33.667 46.6188 33.8552 46.7856C33.9906 47.1292 34.3493 47.3807 34.7858 47.565C34.7457 47.2786 34.831 46.9972 35.122 46.7806C35.8093 46.2727 36.7901 46.4096 37.5728 46.5889C38.664 46.8379 39.69 47.2637 40.7461 47.6197C42.0982 48.0779 43.4327 48.556 44.7271 49.1585C47.3636 50.3836 49.8395 51.9025 52.3355 53.3815C52.1624 53.1973 51.904 53.0777 51.6858 52.9433C51.006 52.5299 50.3337 52.1067 49.6489 51.7058C48.2968 50.914 46.9321 50.1421 45.5775 49.3552C45.0081 49.0241 44.4411 48.6854 43.8742 48.3493C44.0849 48.4315 44.2957 48.5136 44.5064 48.5933C44.7572 48.6879 45.0081 48.7801 45.2614 48.8697C44.534 48.5261 43.824 48.1501 43.1392 47.7467C42.6651 47.4678 39.7803 45.7373 41.2327 45.0526C42.1057 44.6417 43.1593 44.8185 44.0548 45.0675C45.2163 45.3912 46.32 45.8743 47.4263 46.3498C50.1129 47.5027 52.9626 48.4165 55.4561 49.9777C55.3909 49.542 54.8741 49.3976 54.5079 49.2258C53.9811 48.9768 53.4342 48.7626 52.8899 48.546C53.0178 48.5535 53.1457 48.5584 53.2737 48.5634C51.9141 47.8737 50.5569 47.184 49.1722 46.5391C48.2566 46.1133 47.3535 45.563 46.3978 45.2343C45.8208 45.0376 45.2088 44.8658 44.7647 44.4276C44.6995 44.3653 44.7271 44.2458 44.8199 44.2234C47.9255 43.4839 50.9834 44.6467 53.9911 45.2642C55.7722 45.6302 57.8317 45.7846 59.5876 46.4918C59.55 46.3797 59.4848 46.2652 59.3794 46.1482C59.1988 45.9465 58.9931 45.7921 58.7674 45.6701C60.7064 45.5381 62.6631 45.2045 64.3764 44.4027C65.0312 44.0939 66.0647 43.5088 66.1725 42.707C66.1851 42.6174 66.1826 42.5327 66.17 42.458C65.5028 43.1428 64.542 43.5461 63.5988 43.7727C62.0535 44.1487 60.423 44.2209 58.8376 44.1139C57.6711 44.0367 56.5022 43.8723 55.3432 43.7204C54.0488 43.5486 52.6992 43.3494 51.4675 42.9037C50.2158 42.4506 48.2014 41.9575 47.8051 40.4885C47.78 40.3914 47.8678 40.3266 47.9556 40.3391C49.5711 40.5681 51.1715 40.8893 52.787 41.1259C54.4251 41.3649 56.0506 41.4272 57.7012 41.4944C59.3669 41.5616 61.0652 41.716 62.7308 41.6114C63.7643 41.5467 64.8104 41.2379 65.8489 41.2429C66.8373 40.969 67.8006 40.6304 68.7187 40.2046C69.0398 40.0552 69.4336 39.8784 69.8124 39.6618C69.6042 39.739 69.4035 39.8112 69.2179 39.8759C67.0831 40.6304 64.9082 41.0885 62.6455 41.2479C60.1696 41.4222 57.6862 41.2703 55.2379 40.8744C53.2185 40.5457 50.9734 40.3391 49.3428 38.992C49.255 38.9198 49.3303 38.7878 49.4306 38.7853C53.1432 38.6807 56.8559 38.9173 60.5584 38.5388C62.4097 38.3496 64.2686 38.1628 66.0897 37.7744C67.2713 37.5229 68.4252 37.1544 69.5967 36.8581C70.866 36.375 72.0901 35.8023 73.2064 35.0877C73.2942 35.0329 73.4397 34.9333 73.6003 34.8088C73.3469 34.9259 73.0986 35.0305 72.8778 35.1276C70.9989 35.9443 69.1251 36.6838 67.1182 37.1419C64.8129 37.6673 62.4524 37.6947 60.1019 37.8117C58.0098 37.9138 55.7095 38.3297 53.6976 37.5827C53.6023 37.5478 53.5697 37.4158 53.6675 37.3611C54.7311 36.751 56.171 36.9677 57.345 36.8232C59.3418 36.5742 61.3286 36.1609 63.3078 35.7974C65.3397 35.4239 67.2888 34.7441 69.248 34.1067C69.4963 34.027 69.7447 33.9473 69.9955 33.8701C70.0106 33.8378 70.0256 33.8054 70.0382 33.7755C71.0065 33.2476 71.9597 32.6924 72.9079 32.1346C73.6178 31.7163 74.3102 31.2756 74.985 30.81C75.3437 30.5635 75.8003 30.292 76.0687 29.9459C76.2443 29.7194 76.47 29.3907 76.3245 29.1018Z" fill="#978F8B"/>
<path d="M73.1914 22.9641C73.1513 22.4362 71.7766 22.5707 71.4831 22.5782C70.3141 22.6056 69.11 23.0064 67.9812 23.2754C65.4977 23.868 62.9867 24.4083 60.5409 25.1428C55.9377 26.5297 52.0119 29.4455 48.1789 32.2243C44.0373 35.2272 39.7527 38.0035 35.3628 40.6329C33.5893 41.6936 31.753 42.5676 29.6935 42.8988C28.6901 43.0606 27.6716 43.0606 26.6607 43.0283C26.0687 43.0108 25.4717 42.9585 24.8822 42.9063C24.5761 42.8789 24.0844 42.9386 23.8461 42.7593C23.7483 42.6871 23.5577 42.8963 23.6279 42.9859C23.6856 43.0606 23.7608 43.1254 23.8486 43.1802C23.7659 43.2549 23.7006 43.3445 23.6856 43.4267C23.6229 43.7703 23.959 44.0591 24.1798 44.2832C24.7643 44.8708 25.3889 45.3091 26.169 45.6079C27.8773 46.2627 29.7061 46.5192 31.5247 46.4072C32.478 46.3474 33.4438 46.2702 34.3895 46.1656C34.8887 46.1108 35.7717 45.9863 36.148 45.6178C36.4741 45.2991 36.5719 45.0128 36.5242 44.7613C38.95 45.0974 41.5689 44.6268 43.7513 43.6806C44.2154 43.4789 45.4998 42.6149 44.8751 41.9576C44.4261 41.482 43.809 41.2181 43.1468 41.0612C43.7764 40.9467 44.401 40.8122 45.0231 40.6628C45.708 40.4985 46.3752 40.2569 47.04 40.0254C47.4213 39.8909 47.8051 39.612 48.0334 39.2834C48.3519 38.8177 48.1212 38.5638 47.7499 38.4368C47.8979 38.3994 48.0459 38.3621 48.1939 38.3247C50.2685 37.8018 52.3556 37.3013 54.3072 36.405C54.8164 36.1709 56.8258 35.2496 56.1735 34.4852C56.9637 34.3308 57.7489 34.164 58.5291 33.9698C59.7281 33.6735 60.8344 33.1904 61.9983 32.802C62.6982 32.5679 63.378 32.294 63.9425 31.811C64.1833 31.6043 64.6423 31.0017 64.1256 30.805C63.358 30.5112 62.3119 30.7054 61.5167 30.7975C61.2809 30.8249 61.0451 30.8623 60.8118 30.9021C61.0877 30.8175 61.3612 30.7303 61.6321 30.6407C63.7217 29.9634 65.7887 29.0795 67.63 27.8743C68.0464 27.6004 68.7889 27.1323 68.8567 26.582C68.9169 26.104 68.6234 25.9645 68.2596 25.9471C68.4528 25.8749 68.6485 25.8027 68.8416 25.728C69.8801 25.3246 70.9638 24.9586 71.9422 24.4232C72.4614 24.1419 73.2416 23.6364 73.1914 22.9641Z" fill="#6E6462"/>
<path opacity="0.5" d="M73.1914 22.9641C73.1513 22.4362 71.7766 22.5707 71.4831 22.5782C70.8635 22.5931 70.2364 22.7126 69.6142 22.862C70.0005 22.8421 70.3894 22.8396 70.7782 22.862C70.8635 22.867 70.9412 22.9641 70.8835 23.0463C69.8852 24.488 67.6651 24.859 66.1173 25.4068C65.3121 25.6906 64.5219 26.0093 63.7342 26.333C64.4291 26.1587 65.129 26.0317 65.8414 26.0044C66.1725 25.9894 66.8122 25.9595 66.8774 26.4052C66.9552 26.9207 66.175 27.4734 65.8138 27.715C64.2359 28.7608 62.3345 29.1517 60.5961 29.8439C58.6444 30.6208 56.6727 31.3404 54.6433 31.8782C55.8499 31.7388 57.0565 31.5246 58.2456 31.3653C59.259 31.2283 60.709 30.8897 61.617 31.5321C61.6772 31.5744 61.7048 31.6665 61.6421 31.7238C60.1571 33.041 57.784 33.0833 55.9327 33.4917C54.5781 33.7905 53.226 34.1092 51.8614 34.3507C51.9115 34.3458 51.9617 34.3433 52.0119 34.3383C52.634 34.2885 53.2787 34.2038 53.9008 34.271C54.1441 34.2984 54.6935 34.3607 54.6258 34.7317C54.5229 35.3168 53.5371 35.7451 53.0705 35.9518C52.0746 36.395 51.016 36.6714 49.9549 36.9154C48.8812 37.1619 47.8226 37.4482 46.7515 37.7022C45.9688 37.889 45.1812 38.0458 44.391 38.1927C45.432 38.255 46.3025 38.4293 46.1093 38.8949C45.9312 39.3207 45.4245 39.5946 45.0231 39.7639C44.2655 40.0826 43.4628 40.2744 42.6576 40.4312C40.9292 40.7649 39.2033 41.106 37.475 41.4471C38.1247 41.4546 38.7744 41.4695 39.4216 41.5218C40.0989 41.5766 40.8113 41.6264 41.4435 41.8953C41.7771 42.0373 42.1709 42.2414 42.1007 42.6573C42.0204 43.1328 41.1274 43.3868 40.7536 43.5188C39.0202 44.1288 37.1463 44.2757 35.3427 44.582C34.9188 44.7961 34.4998 45.0227 34.0483 45.1721C33.3359 45.4037 32.5507 45.4809 31.8057 45.5357C30.5163 45.6278 29.237 45.5655 27.9626 45.339C26.7309 45.1223 25.3211 44.8036 24.0995 44.211C24.1271 44.2384 24.1547 44.2633 24.1798 44.2907C24.7642 44.8783 25.3889 45.3165 26.169 45.6153C27.8773 46.2702 29.706 46.5267 31.5247 46.4146C32.478 46.3549 33.4438 46.2777 34.3895 46.1731C34.8887 46.1183 35.7717 45.9938 36.148 45.6253C36.4741 45.3066 36.5719 45.0202 36.5242 44.7688C38.95 45.1049 41.5689 44.6343 43.7513 43.6881C44.2154 43.4864 45.4997 42.6224 44.8751 41.965C44.4261 41.4895 43.809 41.2255 43.1467 41.0687C43.7764 40.9541 44.401 40.8197 45.0231 40.6703C45.708 40.5059 46.3752 40.2644 47.04 40.0328C47.4213 39.8984 47.8051 39.6195 48.0334 39.2908C48.3519 38.8252 48.1212 38.5712 47.7499 38.4442C47.8979 38.4069 48.0459 38.3695 48.1939 38.3322C50.2685 37.8093 52.3556 37.3088 54.3072 36.4124C54.8164 36.1784 56.8258 35.2571 56.1735 34.4927C56.9637 34.3383 57.7489 34.1715 58.529 33.9772C59.7281 33.6809 60.8344 33.1979 61.9983 32.8094C62.6982 32.5754 63.378 32.3015 63.9424 31.8184C64.1833 31.6118 64.6423 31.0092 64.1256 30.8125C63.358 30.5187 62.3119 30.7129 61.5167 30.805C61.2809 30.8324 61.0451 30.8698 60.8118 30.9096C61.0877 30.8249 61.3612 30.7378 61.6321 30.6481C63.7217 29.9709 65.7887 29.0869 67.63 27.8818C68.0464 27.6079 68.7889 27.1398 68.8567 26.5895C68.9169 26.1114 68.6234 25.972 68.2596 25.9546C68.4528 25.8824 68.6484 25.8101 68.8416 25.7354C69.8801 25.3321 70.9638 24.966 71.9422 24.4307C72.4614 24.1419 73.2416 23.6364 73.1914 22.9641Z" fill="#5E5553"/>
<path opacity="0.6" d="M32.8693 62.0466C31.4971 61.4515 30.0974 60.956 28.7603 60.2763C27.5713 59.6687 26.4324 58.8694 25.439 57.983C25.3813 57.9307 25.2634 58.0677 25.3036 58.1249C26.0411 59.218 27.2251 60.102 28.3289 60.8066C29.6007 61.6208 31.0807 62.2234 32.5256 62.6517C32.789 62.7289 33.1753 62.1786 32.8693 62.0466Z" fill="#858BA2"/>
<path opacity="0.6" d="M29.7738 60.2265C28.6174 59.594 27.4785 59.0412 26.4926 58.1523C26.445 58.11 26.3572 58.222 26.3973 58.2693C27.2929 59.2404 28.3489 59.9277 29.5204 60.5352C29.6709 60.6124 29.9118 60.3012 29.7738 60.2265Z" fill="#858BA2"/>
<path opacity="0.6" d="M28.9109 59.2653C28.364 58.9665 27.7895 58.7 27.3455 58.2543C27.2653 58.1747 27.0947 58.3838 27.1699 58.471C27.5813 58.9441 28.1307 59.2453 28.655 59.5815C28.8055 59.6736 29.0488 59.34 28.9109 59.2653Z" fill="#858BA2"/>
<path opacity="0.6" d="M28.4267 58.2868C27.9777 58.0677 27.5587 57.8237 27.1448 57.5473C27.0495 57.4826 26.8789 57.6892 26.9692 57.7639C27.3581 58.0851 27.7569 58.4387 28.2285 58.6379C28.374 58.7001 28.5998 58.3715 28.4267 58.2868Z" fill="#858BA2"/>
<path opacity="0.6" d="M28.068 57.4849C27.787 57.3255 27.496 57.1985 27.2301 57.0093C27.1499 56.952 27.0069 57.1263 27.0821 57.1911C27.3255 57.4002 27.5989 57.6069 27.8949 57.7364C27.9952 57.7812 28.1708 57.5422 28.068 57.4849Z" fill="#858BA2"/>
<path opacity="0.6" d="M27.8874 56.8251C27.7569 56.7877 27.6441 56.7379 27.5412 56.6483C27.4609 56.5786 27.3054 56.7703 27.3781 56.8475C27.481 56.9546 27.6064 57.0218 27.7444 57.0741C27.8548 57.1139 28.0153 56.8624 27.8874 56.8251Z" fill="#858BA2"/>
<path opacity="0.6" d="M27.8999 56.2997C27.7519 56.2574 27.6265 56.1652 27.4785 56.1254C27.3756 56.0955 27.2251 56.3097 27.343 56.3619C27.4835 56.4217 27.5939 56.5288 27.7343 56.591C27.8598 56.6433 28.0504 56.342 27.8999 56.2997Z" fill="#858BA2"/>
<path opacity="0.6" d="M44.9705 65.9783C42.7303 65.8737 40.558 65.7118 38.4382 64.9374C38.3755 64.915 38.2626 65.057 38.3279 65.0993C40.124 66.2248 42.7479 66.4538 44.825 66.3866C45.0006 66.3816 45.2238 65.9907 44.9705 65.9783Z" fill="#858BA2"/>
<path opacity="0.6" d="M42.5849 65.4455C41.9979 65.2513 41.3356 65.2438 40.7336 65.0819C40.6508 65.0595 40.5304 65.2338 40.6282 65.2687C41.1976 65.4803 41.8524 65.6995 42.4644 65.7144C42.5598 65.7144 42.7178 65.4878 42.5849 65.4455Z" fill="#858BA2"/>
<path opacity="0.6" d="M41.7997 64.666C41.6768 64.6685 41.5589 64.6312 41.4385 64.6337C41.3782 64.6337 41.3206 64.6934 41.293 64.7432C41.2729 64.7781 41.2403 64.8951 41.3155 64.9001C41.4435 64.9101 41.5639 64.9623 41.6918 64.9698C41.8298 64.9848 41.9828 64.6611 41.7997 64.666Z" fill="#858BA2"/>
</svg>
