<svg width="216" height="153" viewBox="0 0 216 153" fill="none" xmlns="http://www.w3.org/2000/svg">
<path d="M214.967 47.6074C213.986 45.1554 212.158 43.1939 210.107 41.5889C208.413 40.2961 206.808 39.5382 205.159 39.8503C205.426 38.602 205.337 37.3091 204.535 35.8825C202.974 33.1631 199.274 31.7365 196.376 31.2461C193.3 30.7557 191.205 32.0039 189.02 33.7872C187.505 31.6919 184.027 30.934 181.843 32.4943C179.168 34.4113 176.85 37.3091 174.532 39.6273C171.723 42.436 169.048 45.2892 166.373 48.187C157.189 58.1286 147.961 68.3823 139.535 79.0818C138.332 80.2409 136.816 81.7567 136.415 83.1387C136.147 83.4954 135.88 83.8074 135.612 84.1641C135.523 84.2978 135.612 84.5207 135.746 84.3424C135.924 84.1195 136.102 83.8966 136.281 83.6737C136.281 83.8074 136.281 83.9858 136.281 84.1195C136.727 87.0619 141.363 87.7752 143.77 87.686C147.827 87.5969 152.152 86.0365 156.075 85.0111C160.979 83.7183 165.838 82.47 170.698 81.088C180.55 78.3685 190.402 75.7382 199.809 71.6813C203.376 70.1655 207.878 68.6052 210.598 65.752C212.559 63.7012 213.317 60.3131 213.362 57.549C213.362 57.5045 213.362 57.5044 213.317 57.5044C215.992 54.9633 216.527 51.4414 214.967 47.6074Z" fill="#0A2520"/>
<path d="M205.293 68.6506C202.038 70.1218 198.828 71.6376 195.529 72.9304C188.575 75.6499 181.352 77.5669 174.175 79.5285C167.443 81.3563 160.756 83.2287 153.979 84.9228C150.68 85.7699 147.381 86.5723 143.993 87.0182C141.853 87.3302 139.936 86.3494 138.064 85.5024C136.504 84.7891 136.905 83.2733 137.886 81.7576C138.822 80.5984 139.758 79.4393 140.694 78.3248C140.694 78.3248 140.694 78.2802 140.739 78.2802C147.292 70.4339 154.069 62.7213 160.845 55.1425C165.08 50.3723 169.449 45.6913 173.907 41.144C176.136 38.8703 178.41 36.6858 180.728 34.5459C182.824 32.6289 183.849 32.4506 186.345 33.1639C187.148 33.3868 187.817 33.788 188.352 34.3676C184.874 37.2654 181.62 40.609 178.321 43.6851C164.857 56.257 152.642 70.4785 141.185 84.8336C141.095 84.9674 141.185 85.2349 141.318 85.0566C150.636 74.0004 160.132 63.078 170.118 52.646C175.022 47.5191 180.282 42.7043 185.543 37.9341C186.658 36.9088 187.728 35.8388 188.797 34.9472C188.797 34.9472 188.797 34.9917 188.842 34.9917C188.931 34.9026 188.976 34.8134 189.065 34.7689C189.199 34.6797 189.288 34.5905 189.422 34.5014V34.4568C189.734 34.2339 190.001 34.011 190.313 33.8326C190.358 33.8326 190.358 33.7881 190.402 33.7881C190.492 33.6989 190.581 33.6543 190.625 33.6543C192.186 32.6735 193.924 32.094 196.109 32.2723C197.892 32.4061 199.452 33.1639 200.968 34.011C203.554 35.4376 204.758 37.5775 204.49 40.1186C204.044 40.2969 203.554 40.5198 203.108 40.8319C196.51 45.5575 189.823 50.194 183.225 54.9196C169.806 64.5492 156.164 74.2679 144.261 85.7253C143.815 85.859 143.414 85.9928 142.968 86.1265C142.79 86.1711 142.656 86.6615 142.923 86.6169C150.903 84.5662 158.839 82.4263 166.551 79.5731C174.621 76.6307 182.422 73.0642 190.224 69.4977C197.268 66.2878 204.713 63.3455 211.356 59.2886C212.024 58.8873 212.559 58.4415 213.05 57.9957C212.693 63.2117 210.018 66.5107 205.293 68.6506Z" fill="#065387"/>
<path d="M213.496 56.7915C211.133 59.511 206.809 61.0267 203.644 62.5425C197.046 65.7523 190.269 68.6947 183.582 71.7262C177.251 74.5794 170.832 77.2543 164.323 79.5725C157.903 81.8907 151.26 83.5403 144.707 85.5018C155.005 76.2289 166.106 67.9368 177.296 59.7784C182.824 55.7661 188.441 51.7984 194.059 47.8752C196.823 45.9582 199.587 44.0412 202.306 42.0351C203.019 41.5447 203.688 41.1434 204.357 40.9205C204.357 40.9205 204.357 40.9205 204.357 40.9651C204.535 40.876 204.713 40.8314 204.936 40.8314C205.873 40.6531 206.898 40.7868 208.146 41.3663C209.929 42.1688 211.356 43.5954 212.604 45.0666C215.324 48.2764 216.617 53.1804 213.496 56.7915Z" fill="#065387"/>
<path d="M150.502 68.3361C155.317 63.2093 159.998 57.9487 164.323 52.376C166.284 49.8795 168.29 47.3384 170.297 44.8418C167.087 48.23 163.921 51.6627 160.801 55.1401C154.024 62.7635 147.248 70.4315 140.695 78.2778C140.695 78.2778 140.695 78.3223 140.65 78.3223C139.892 79.214 139.179 80.1056 138.421 80.9972C142.79 77.1187 146.535 72.6159 150.502 68.3361Z" fill="#065387"/>
<path d="M188.843 34.9455C189.69 34.3214 190.581 33.7418 191.473 33.1177C191.161 33.2514 190.893 33.4297 190.581 33.6081C190.492 33.6527 190.403 33.6972 190.358 33.7418C190.314 33.7418 190.314 33.7864 190.269 33.7864C189.957 33.9647 189.645 34.1876 189.378 34.4105V34.4551C189.244 34.5443 189.155 34.6334 189.021 34.7226C188.976 34.8118 188.932 34.8564 188.843 34.9455Z" fill="#7A787C"/>
<path d="M168.736 54.7833C170.43 52.7772 172.124 50.771 173.863 48.854C172.57 50.1023 171.322 51.3952 170.118 52.6434C161.871 61.2031 153.98 70.1639 146.267 79.2139C155.005 72.393 161.648 63.2538 168.736 54.7833Z" fill="#065387"/>
<path d="M166.551 79.4808C164.367 80.2833 162.182 80.9966 159.998 81.7099C170.296 79.6591 180.327 76.1818 190.046 72.3032C197.58 69.3163 205.025 65.9281 212.158 62.0495C212.648 60.8013 212.961 59.4192 213.05 57.8589C212.559 58.3047 211.98 58.7505 211.356 59.1517C204.713 63.2086 197.312 66.151 190.224 69.3609C182.422 72.972 174.576 76.5385 166.551 79.4808Z" fill="#065387"/>
<path d="M164.634 70.6992C169.85 67.0435 175.156 63.3879 180.282 59.5539C185.231 55.8536 189.912 51.7967 194.504 47.6507C194.593 47.5615 194.638 47.5169 194.727 47.4277C194.504 47.6061 194.281 47.7398 194.058 47.9181C188.441 51.8413 182.868 55.8091 177.295 59.8214C169.717 65.3495 162.182 70.9667 154.871 76.8514C158.259 74.979 161.469 72.8837 164.634 70.6992Z" fill="#065387"/>
<path opacity="0.4" d="M199.096 70.6566C192.409 73.0194 185.32 76.5414 178.098 76.363C177.741 76.363 177.563 75.7835 177.92 75.6497C190.09 70.9687 201.28 64.1923 213.317 59.1546C213.317 58.9763 213.362 58.8426 213.362 58.6642C206.63 61.9187 199.497 64.3706 192.453 66.778C186.479 68.7842 180.461 70.7458 174.487 72.7074C171.634 73.6436 168.781 74.5798 165.927 75.6051C163.565 76.4967 161.202 77.2992 158.661 77.0317C158.438 76.9871 158.215 76.7643 158.304 76.5414C159.374 73.3315 163.431 71.0579 165.972 69.0517C170.475 65.4852 175.111 62.0078 179.658 58.5305C188.263 51.9325 197.134 45.7357 206.229 39.8955C205.872 39.8509 205.516 39.8955 205.159 39.9401C205.382 38.9593 205.382 38.0231 204.981 36.9531C196.376 41.5896 188.218 46.8948 180.283 52.5566C175.289 56.1231 170.43 59.9125 165.66 63.7911C163.609 65.4406 161.558 67.0455 159.552 68.7396C158.17 69.8987 156.744 71.1916 154.916 71.5482C154.648 71.5928 154.381 71.3699 154.47 71.0578C155.451 67.5805 158.705 64.4152 160.979 61.6958C164.278 57.7726 167.755 54.0724 171.322 50.3721C175.067 46.4935 178.856 42.6595 182.868 39.0039C178.009 42.8379 173.239 46.7164 168.825 51.0408C164.902 54.9194 160.979 58.8426 157.234 62.8995C154.158 66.2876 151.661 70.2108 147.917 72.8857C147.604 73.1086 147.248 72.7073 147.337 72.4398C148.139 69.7204 149.611 67.2684 151.26 64.9948C147.248 69.6312 143.28 74.3568 139.535 79.127C138.332 80.2862 136.816 81.8019 136.415 83.184C136.147 83.5406 135.88 83.8527 135.612 84.2093C135.523 84.3431 135.612 84.566 135.746 84.3876C135.924 84.1647 136.102 83.9418 136.281 83.7189C136.281 83.8527 136.281 84.031 136.281 84.1648C136.727 87.1071 141.363 87.8204 143.77 87.7312C147.827 87.6421 152.152 86.0817 156.075 85.0564C160.979 83.7635 165.838 82.5152 170.698 81.1332C180.55 78.4138 190.402 75.7835 199.809 71.7266C203.019 70.3445 206.942 69.0071 209.662 66.6443C206.184 68.0709 202.618 69.4083 199.096 70.6566Z" fill="#7E8189"/>
<path d="M173.284 44.1743C173.685 43.9514 174.086 44.4863 173.729 44.7984C170.163 48.0083 167.131 51.6193 164.278 55.4533C169.405 50.2819 174.755 45.1105 180.862 41.2765C183.314 38.9137 185.766 36.5508 188.352 34.3664C187.817 33.7868 187.148 33.3856 186.346 33.1627C183.849 32.494 182.824 32.6277 180.729 34.5447C178.41 36.6846 176.137 38.9137 173.908 41.1427C171.322 43.8176 168.736 46.4925 166.195 49.2119C168.38 47.3395 170.698 45.6009 173.284 44.1743Z" fill="#065387"/>
<path d="M183.627 39.6712C185.9 38.4675 188.263 37.3976 190.804 36.6397C191.161 36.5059 191.428 37.0409 191.161 37.3084C187.327 40.6966 183.136 43.6389 179.347 47.1163C184.652 43.4606 189.645 39.1808 196.02 37.6205C196.332 37.5313 196.644 37.9325 196.421 38.2C195.352 39.7158 194.014 40.9195 192.587 42.0786C193.925 41.2761 195.307 40.4737 196.689 39.7604C197.001 39.5821 197.447 39.9833 197.224 40.2954C194.415 44.3523 191.25 48.0525 187.817 51.5744C192.9 47.9633 197.982 44.3968 203.064 40.7857C203.554 40.4291 204 40.2062 204.446 40.0725C204.714 37.5313 203.51 35.3914 200.924 33.9648C199.408 33.1178 197.848 32.3599 196.065 32.2261C193.836 32.0924 192.097 32.6719 190.581 33.6082C190.492 33.6527 190.403 33.6973 190.358 33.7419C190.314 33.7419 190.314 33.7865 190.269 33.7865C189.957 33.9648 189.645 34.1877 189.378 34.4106V34.4552C189.244 34.5444 189.155 34.6335 189.021 34.7227C188.932 34.7673 188.843 34.8564 188.798 34.9456C188.798 34.9456 188.798 34.901 188.753 34.901C187.639 35.8372 186.614 36.8626 185.499 37.888C184.875 38.5121 184.251 39.0917 183.627 39.6712Z" fill="#065387"/>
<path d="M211.312 59.2427C204.669 63.2996 197.269 66.242 190.18 69.4518C189.066 69.9868 187.951 70.4772 186.792 71.0122C186.212 71.3688 185.633 71.77 185.053 72.1267C188.397 70.923 191.785 69.8976 195.262 68.8723C198.695 67.8915 203.02 66.0191 206.541 67.3565C206.764 67.4457 206.853 67.6686 206.764 67.8469C210.509 65.707 212.694 62.5863 212.961 57.9053C212.515 58.3957 211.98 58.8415 211.312 59.2427Z" fill="#065387"/>
<path d="M212.56 45.0207C211.311 43.5495 209.885 42.1675 208.101 41.3205C206.853 40.7409 205.872 40.6071 204.892 40.7855C204.713 40.8301 204.49 40.8746 204.312 40.9192C204.312 40.9192 204.312 40.9192 204.312 40.8747C203.643 41.0976 202.975 41.4988 202.261 41.9892C199.542 43.9508 196.778 45.9123 194.014 47.8293C191.205 49.7909 188.396 51.7971 185.588 53.8032C185.142 54.249 184.652 54.6949 184.161 55.1853C185.454 54.472 186.792 53.7587 188.129 53.1345C190.759 51.8862 193.434 50.6825 196.154 49.568C198.026 48.8101 199.943 47.7401 201.949 47.4281C202.261 47.3835 202.618 47.6956 202.35 48.0077C198.828 52.5995 193.746 55.7202 189.377 59.3759C189.154 59.5542 188.976 59.7325 188.753 59.9109C192.32 57.7264 195.931 55.7648 199.898 54.3828C200.3 54.249 200.478 54.784 200.255 55.0515C196.689 58.9301 192.141 61.6049 188.129 64.9931C190.626 63.834 193.078 62.7195 195.529 61.5158C197.981 60.3121 200.433 58.9301 203.197 58.7517C203.599 58.7072 203.643 59.1976 203.465 59.4205C201.682 61.5604 199.051 63.0316 196.778 64.5473C194.727 65.8848 192.632 67.2222 190.581 68.5151C194.95 66.5535 199.274 64.5473 203.599 62.4966C206.764 60.9808 211.088 59.4651 213.451 56.7456C216.616 53.1791 215.324 48.2751 212.56 45.0207Z" fill="#065387"/>
<path d="M212.56 45.0207C211.312 43.5495 209.885 42.1675 208.102 41.3205C206.853 40.7409 205.873 40.6071 204.892 40.7855C204.714 40.8301 204.491 40.8746 204.312 40.9192C204.312 40.9192 204.312 40.9192 204.312 40.8747C203.644 41.0976 202.975 41.4988 202.262 41.9892C199.542 43.9508 196.778 45.9123 194.014 47.8293C193.256 48.3643 192.454 48.9438 191.696 49.4788C193.791 48.4534 195.886 47.5173 198.026 46.6702C202.395 44.9761 207.745 44.0399 210.197 49.033C212.56 53.8924 208.28 59.1084 204.535 62.0508C207.567 60.6688 211.312 59.1976 213.496 56.701C216.617 53.1791 215.324 48.2751 212.56 45.0207Z" fill="#FEE6A7"/>
<path d="M181.085 35.6147C182.467 35.0351 185.276 34.7676 184.652 37.1304C184.563 37.3979 184.474 37.71 184.34 37.9775C185.677 36.7292 187.015 35.5255 188.397 34.3664C187.862 33.7868 187.193 33.3856 186.391 33.1627C183.894 32.494 182.869 32.6277 180.773 34.5447C179.391 35.8375 178.009 37.175 176.627 38.5124C177.965 37.4425 179.48 36.2834 181.085 35.6147Z" fill="#FEE6A7"/>
<path d="M189.957 36.5076C192.364 35.7051 197.001 34.5014 198.472 37.4438C200.211 40.9657 194.905 45.2009 192.765 47.1625C191.205 48.6337 189.6 50.0157 187.995 51.4423C193.033 47.8758 198.071 44.3539 203.064 40.7428C203.554 40.3861 204 40.1632 204.446 40.0295C204.713 37.4884 203.51 35.3484 200.924 33.9218C199.408 33.0748 197.848 32.3169 196.064 32.1832C193.835 32.0494 192.097 32.629 190.581 33.5652C190.492 33.6098 190.403 33.6544 190.358 33.699C190.313 33.699 190.313 33.7435 190.269 33.7435C189.957 33.9218 189.645 34.1447 189.377 34.3677V34.4122C189.244 34.5014 189.154 34.5906 189.021 34.6797C188.931 34.7243 188.842 34.8135 188.798 34.9026C188.798 34.9026 188.798 34.858 188.753 34.858C187.639 35.7943 186.613 36.8197 185.499 37.845C184.652 38.6475 183.76 39.4054 182.913 40.2078C185.142 38.6921 187.46 37.3546 189.957 36.5076Z" fill="#FEE6A7"/>
<path d="M211.312 59.2419C208.414 61.0252 205.338 62.5855 202.217 64.0567C203.956 63.8338 206.408 64.8146 205.293 66.9099C204.669 68.0244 203.733 69.0052 202.663 69.8969C203.554 69.4956 204.446 69.0944 205.293 68.6932C210.019 66.5533 212.694 63.2542 213.05 57.9937C212.515 58.3949 211.98 58.8407 211.312 59.2419Z" fill="#FEE6A7"/>
<path d="M91.8335 138.24C90.6744 136.412 88.267 135.922 86.3054 135.476C85.2801 135.253 84.2101 135.164 83.1402 135.03C81.669 134.763 81.6244 133.782 81.2677 132.757C81.2677 132.445 81.2677 132.222 81.2677 132.044C81.2677 127.273 80.5544 122.548 80.7328 117.733C80.8219 115.682 81.0448 113.631 81.4906 111.67C81.669 110.778 81.8473 109.53 80.599 109.441C78.1916 109.262 76.3192 109.976 76.453 112.651C76.4975 113.944 76.7204 115.281 76.9434 116.574C77.0771 117.376 77.2108 118.179 77.3 118.981C77.6567 121.745 77.6121 124.465 77.7012 127.229C77.835 130.037 77.9687 132.846 78.1025 135.655C78.1025 135.655 78.1025 135.655 78.1025 135.699C76.5421 136.903 73.9564 136.814 72.1286 137.26C70.2562 137.705 68.3392 138.196 66.6005 138.954C63.881 140.113 61.964 142.476 61.2953 145.329C61.2507 145.507 61.4291 145.552 61.5628 145.552C62.2761 145.373 62.6328 144.66 63.1231 144.125C64.4606 142.788 65.8872 141.673 67.5813 140.826C70.3007 139.399 73.0648 138.998 75.9626 138.597C74.1793 139.533 72.4406 140.559 71.1478 141.985C69.8549 143.412 68.3392 145.775 68.6066 147.825C68.8296 149.341 72.2177 145.061 72.2177 145.061C73.8672 143.323 75.5168 141.673 77.4338 140.246C78.7712 139.266 80.2424 138.642 81.7581 138.062C81.5352 139.087 80.5544 140.559 80.4207 140.826C79.9749 141.629 79.7074 142.476 79.3953 143.323C78.7712 145.017 78.1916 147.29 78.4591 149.074C78.4591 149.163 78.5483 149.252 78.6374 149.207C79.9303 148.984 80.3315 145.908 80.6436 144.928C81.1786 143.233 84.3884 137.973 85.9488 137.839C86.1271 137.884 86.2608 137.884 86.4392 137.928C88.1333 138.285 89.6936 138.864 91.4769 138.731C91.6552 138.775 91.9673 138.419 91.8335 138.24Z" fill="#FAE686"/>
<path d="M78.5927 149.654C78.3252 149.654 78.1023 149.431 78.0577 149.164C77.7902 147.202 78.4144 144.884 78.9939 143.234L79.0831 143.011C79.3506 142.209 79.6626 141.406 80.0639 140.693C80.1084 140.649 80.153 140.559 80.2422 140.426C80.4651 140.069 80.8663 139.4 81.1338 138.776C79.9747 139.222 78.771 139.802 77.7011 140.604C76.0516 141.852 74.4466 143.279 72.5296 145.374C71.5934 146.578 69.8102 148.584 68.9185 148.584C68.6511 148.584 68.2944 148.406 68.2498 147.915C67.8932 145.374 69.9439 142.744 70.8801 141.719C71.7717 140.738 72.8417 139.935 73.9562 139.267C71.8609 139.623 69.8547 140.069 67.8486 141.139C66.3328 141.941 64.9062 143.011 63.4796 144.393C63.3459 144.527 63.2121 144.705 63.0784 144.839C62.7217 145.24 62.3651 145.731 61.6964 145.909C61.6518 145.909 61.5626 145.909 61.518 145.909C61.3397 145.909 61.1614 145.82 61.0722 145.686C60.9831 145.553 60.9385 145.374 60.9831 145.196C61.7409 142.164 63.7471 139.757 66.5111 138.553C68.339 137.795 70.3006 137.26 72.1284 136.815C72.708 136.681 73.3321 136.592 74.0008 136.503C75.3828 136.324 76.8094 136.101 77.7902 135.433C77.6565 132.669 77.5227 129.904 77.389 127.14C77.3444 126.293 77.3444 125.491 77.2998 124.688C77.2552 122.816 77.2107 120.854 76.9432 118.937C76.854 118.402 76.8094 117.868 76.7203 117.333L76.5865 116.53C76.3636 115.193 76.1407 113.855 76.0961 112.562C76.0515 111.448 76.319 110.601 76.8986 109.977C77.6565 109.174 78.9493 108.862 80.6434 108.951C81.1338 108.996 81.4905 109.174 81.7134 109.486C82.1592 110.066 82.0254 110.957 81.8917 111.671C81.4459 113.632 81.223 115.683 81.1338 117.689C81.0447 120.364 81.223 123.084 81.4013 125.669C81.5351 127.72 81.6688 129.86 81.6688 131.955C81.6688 132.134 81.6688 132.356 81.6688 132.624C81.7134 132.758 81.758 132.891 81.8025 132.981C82.0254 133.828 82.2038 134.407 83.2291 134.586C83.6304 134.675 84.0762 134.719 84.4774 134.764C85.1016 134.853 85.7703 134.942 86.3944 135.076L86.5282 135.121C88.4897 135.566 90.9417 136.101 92.19 138.018C92.3237 138.197 92.3237 138.419 92.19 138.642C92.0562 138.865 91.7888 139.133 91.5213 139.133C90.0947 139.222 88.7572 138.91 87.5089 138.598C87.1523 138.509 86.7511 138.419 86.3944 138.33C86.2607 138.286 86.1269 138.286 86.0378 138.241H85.9932C84.7003 138.42 81.6242 143.323 81.0447 145.062C81.0001 145.24 80.9109 145.508 80.8663 145.82C80.5543 147.247 80.0193 149.387 78.7264 149.609C78.6818 149.654 78.6373 149.654 78.5927 149.654ZM81.758 137.706C81.8471 137.706 81.9363 137.751 82.0254 137.795C82.1146 137.885 82.1592 138.018 82.1592 138.152C81.9363 139.044 81.2676 140.203 80.9109 140.782C80.8217 140.916 80.7772 141.005 80.7772 141.05C80.4205 141.763 80.1084 142.521 79.841 143.279L79.7518 143.502C79.2168 144.973 78.6373 147.068 78.8156 148.807C79.4397 148.361 79.8855 146.622 80.0639 145.731C80.153 145.374 80.1976 145.107 80.2868 144.928C80.8218 143.234 84.0762 137.706 85.9486 137.572C85.9932 137.572 85.9932 137.572 86.0378 137.572H86.1269C86.2607 137.572 86.3944 137.617 86.5282 137.662C86.9294 137.751 87.286 137.84 87.6873 137.929C88.9356 138.241 90.1392 138.553 91.4321 138.42C91.4321 138.42 91.4321 138.42 91.4321 138.375C90.3622 136.77 88.2223 136.324 86.3498 135.923L86.2161 135.878C85.6365 135.745 84.9678 135.655 84.3883 135.611C83.9424 135.566 83.5412 135.522 83.0954 135.433C81.5796 135.165 81.3121 134.184 81.0447 133.293C81.0001 133.159 80.9555 133.025 80.9109 132.891C80.9109 132.847 80.9109 132.802 80.9109 132.758C80.9109 132.446 80.9109 132.223 80.9109 132.044C80.9109 129.949 80.7772 127.854 80.6434 125.803C80.4651 123.173 80.2868 120.453 80.3759 117.734C80.4651 115.683 80.7326 113.588 81.1338 111.582C81.1784 111.314 81.4013 110.422 81.0892 110.066C81.0447 110.021 80.9555 109.887 80.5988 109.843C79.1722 109.754 78.0577 110.021 77.4781 110.601C77.0323 111.047 76.854 111.715 76.854 112.607C76.8986 113.9 77.1215 115.148 77.3444 116.486L77.4781 117.288C77.5673 117.823 77.6565 118.358 77.7011 118.937C77.9685 120.899 78.0131 122.861 78.0577 124.733C78.0577 125.536 78.1023 126.383 78.1469 127.185C78.2806 129.994 78.4144 132.802 78.5481 135.611C78.5481 135.745 78.5035 135.878 78.4144 135.968C77.2552 136.859 75.5612 137.082 74.09 137.305C73.4658 137.394 72.8417 137.483 72.3067 137.617C70.4789 138.063 68.6065 138.553 66.8232 139.311C64.4158 140.336 62.588 142.432 61.8301 145.018C62.053 144.884 62.2313 144.616 62.4542 144.393C62.588 144.215 62.7663 144.037 62.9001 143.858C64.3712 142.432 65.8424 141.317 67.4474 140.47C70.2114 138.999 72.9309 138.642 75.8286 138.241H75.9178C76.0961 138.197 76.2745 138.33 76.3636 138.509C76.4082 138.687 76.3636 138.865 76.1853 138.955C74.5804 139.802 72.7525 140.827 71.4597 142.254C70.791 142.967 68.7402 145.508 69.0077 147.782C69.4535 147.603 70.568 146.578 71.9501 144.884C73.9116 142.744 75.5612 141.273 77.2552 140.024C78.6818 138.954 80.2422 138.33 81.6688 137.795C81.6688 137.706 81.7134 137.706 81.758 137.706Z" fill="#AC9356"/>
<path d="M77.2554 118.446C77.7012 117.911 78.2807 117.555 78.8603 117.733C79.4844 117.911 79.6182 118.758 79.6628 119.338C79.7519 121.21 79.7073 123.083 79.7073 124.955C79.7073 126.649 79.7519 128.388 79.7073 130.082C79.7073 131.375 79.529 133.693 80.6436 134.585C81.7135 135.432 83.0509 135.432 84.4776 135.209C84.0317 135.164 83.5859 135.12 83.1401 135.03C81.6689 134.763 81.6243 133.782 81.2677 132.757C81.2677 132.445 81.2677 132.222 81.2677 132.044C81.2677 127.273 80.5544 122.548 80.7327 117.733C80.8219 115.682 81.0448 113.631 81.4906 111.67C81.6689 110.778 81.8473 109.53 80.599 109.441C78.1916 109.262 76.3192 109.976 76.4529 112.651C76.4975 113.944 76.7204 115.281 76.9433 116.574C77.0771 117.153 77.1662 117.822 77.2554 118.446Z" fill="#FAE686"/>
<path d="M76.8543 137.839C74.0902 137.393 70.4346 138.33 67.9826 139.266C64.9956 140.425 62.9003 142.52 61.7412 145.418C62.3208 145.15 62.6328 144.526 63.0786 144.08C64.4161 142.743 65.8427 141.629 67.5368 140.781C70.1225 139.444 72.7082 138.998 75.4277 138.642C75.9181 138.374 76.3639 138.107 76.8543 137.839Z" fill="#FAE686"/>
<path d="M84.7448 137.617C81.1783 139.979 80.0638 144.705 79.3059 148.806C80.0638 147.87 80.3759 145.775 80.5988 144.972C81.1337 143.278 84.3436 138.018 85.9039 137.884C86.0823 137.929 86.216 137.929 86.3943 137.973C87.7318 138.285 88.9801 138.686 90.3175 138.776C88.7571 137.929 86.5727 136.413 84.7448 137.617Z" fill="#FAE686"/>
<path d="M82.0704 137.304C79.5739 137.438 77.0773 138.998 75.1157 140.425C72.6638 142.208 70.4347 144.259 68.9189 146.934C68.8298 147.067 68.696 147.112 68.5177 147.112C68.5177 147.335 68.5177 147.558 68.5623 147.825C68.7852 149.341 72.1734 145.061 72.1734 145.061C73.8229 143.323 75.4724 141.673 77.3894 140.247C78.4148 139.489 79.5293 138.954 80.6438 138.508C81.0896 138.151 81.6246 137.705 82.0704 137.304Z" fill="#FAE686"/>
<path d="M116.042 141.006C114.882 139.178 112.475 138.688 110.513 138.242C109.488 138.019 108.418 137.93 107.348 137.752C105.877 137.529 105.832 136.503 105.476 135.478C105.476 135.166 105.476 134.943 105.476 134.765C105.476 129.995 104.762 125.269 104.941 120.454C105.03 118.403 105.253 116.353 105.699 114.391C105.877 113.499 106.055 112.251 104.807 112.162C102.4 111.984 100.527 112.697 100.661 115.372C100.706 116.665 100.928 118.002 101.151 119.295C101.285 120.097 101.419 120.9 101.508 121.702C101.865 124.466 101.82 127.186 101.909 129.95C102.043 132.759 102.177 135.567 102.31 138.376C102.31 138.376 102.31 138.376 102.31 138.42C100.75 139.624 98.1644 139.535 96.3366 139.981C94.4642 140.427 92.5472 140.917 90.8085 141.675C88.089 142.834 86.172 145.197 85.5033 148.05C85.4587 148.228 85.6371 148.273 85.7708 148.273C86.4841 148.095 86.8408 147.381 87.3312 146.846C88.6686 145.509 90.0952 144.394 91.7893 143.547C94.5087 142.121 97.2728 141.719 100.171 141.318C98.3873 142.254 96.6486 143.28 95.3558 144.706C94.0629 146.133 92.5472 148.496 92.8147 150.547C93.0376 152.062 96.4257 147.782 96.4257 147.782C98.0752 146.044 99.7248 144.394 101.642 142.968C102.979 141.987 104.45 141.363 105.966 140.783C105.743 141.809 104.762 143.28 104.629 143.547C104.183 144.35 103.915 145.197 103.603 146.044C102.979 147.738 102.4 150.012 102.667 151.795C102.667 151.884 102.756 151.973 102.845 151.929C104.138 151.706 104.54 148.63 104.852 147.649C105.387 145.955 108.596 140.694 110.157 140.56C110.335 140.605 110.469 140.605 110.647 140.649C112.341 141.006 113.902 141.586 115.685 141.452C115.863 141.541 116.175 141.184 116.042 141.006Z" fill="#FAE686"/>
<path d="M102.801 152.418C102.533 152.418 102.31 152.195 102.266 151.928C101.998 150.011 102.622 147.648 103.202 145.999L103.291 145.776C103.558 144.973 103.871 144.171 104.272 143.458C104.316 143.413 104.361 143.324 104.45 143.19C104.673 142.833 105.074 142.165 105.342 141.541C104.183 141.986 103.024 142.566 101.909 143.368C100.259 144.617 98.6545 146.043 96.7375 148.139C95.8013 149.342 94.0181 151.348 93.1264 151.348C92.859 151.348 92.5023 151.17 92.4577 150.68C92.1011 148.139 94.1518 145.508 95.088 144.527C95.9797 143.547 97.0496 142.744 98.1641 142.075C96.0688 142.432 94.0627 142.878 92.0565 143.948C90.5407 144.75 89.1141 145.82 87.6875 147.202C87.5538 147.336 87.42 147.514 87.2863 147.648C86.9296 148.049 86.573 148.54 85.9043 148.718C85.8597 148.718 85.7705 148.718 85.7259 148.718C85.5476 148.718 85.3693 148.629 85.2356 148.495C85.1464 148.361 85.1018 148.183 85.1464 148.005C85.9043 144.973 87.9104 142.566 90.6745 141.362C92.5023 140.56 94.4639 140.069 96.2917 139.624C96.8713 139.49 97.4954 139.401 98.1641 139.311C99.5462 139.133 100.973 138.91 101.954 138.241C101.82 135.477 101.686 132.713 101.552 129.994C101.508 129.147 101.508 128.344 101.463 127.542C101.419 125.67 101.374 123.708 101.107 121.791C101.017 121.256 100.973 120.721 100.884 120.186L100.75 119.384C100.527 118.046 100.304 116.709 100.259 115.416C100.215 114.301 100.482 113.454 101.062 112.83C101.82 112.028 103.113 111.716 104.807 111.805C105.297 111.849 105.654 112.028 105.877 112.34C106.323 112.919 106.189 113.811 106.055 114.524C105.609 116.486 105.386 118.537 105.297 120.543C105.208 123.218 105.386 125.937 105.565 128.523C105.698 130.574 105.832 132.713 105.832 134.809C105.832 134.987 105.832 135.21 105.832 135.477C105.877 135.611 105.921 135.745 105.966 135.834C106.233 136.726 106.367 137.261 107.392 137.439C107.794 137.528 108.24 137.573 108.641 137.617C109.265 137.707 109.934 137.796 110.558 137.929L110.691 137.974C112.653 138.42 115.105 138.955 116.353 140.872C116.487 141.05 116.487 141.273 116.353 141.496C116.22 141.719 115.952 141.986 115.685 141.986C114.213 142.12 112.921 141.763 111.672 141.451C111.316 141.362 110.914 141.273 110.558 141.184C110.424 141.139 110.335 141.139 110.201 141.139H110.112C108.819 141.318 105.743 146.222 105.163 147.96C105.119 148.139 105.03 148.406 104.985 148.718C104.673 150.145 104.138 152.285 102.845 152.508C102.89 152.418 102.845 152.418 102.801 152.418ZM105.966 140.426C106.055 140.426 106.144 140.471 106.233 140.515C106.323 140.604 106.367 140.738 106.367 140.872C106.144 141.763 105.475 142.923 105.119 143.502C105.03 143.636 104.985 143.725 104.985 143.77C104.628 144.483 104.316 145.241 104.049 145.999L103.96 146.222C103.425 147.693 102.845 149.788 103.024 151.527C103.648 151.081 104.093 149.342 104.272 148.451C104.361 148.094 104.406 147.826 104.495 147.648C105.03 145.954 108.284 140.426 110.157 140.292C110.201 140.292 110.201 140.292 110.246 140.292H110.379C110.513 140.292 110.647 140.337 110.781 140.381C111.182 140.471 111.539 140.56 111.94 140.649C113.188 140.961 114.392 141.273 115.685 141.139C115.685 141.139 115.685 141.139 115.685 141.095C114.615 139.49 112.475 139.044 110.602 138.643L110.469 138.598C109.889 138.464 109.22 138.375 108.641 138.331C108.195 138.286 107.794 138.242 107.348 138.152C105.832 137.885 105.565 136.904 105.297 136.012C105.253 135.879 105.208 135.745 105.163 135.611C105.163 135.567 105.163 135.522 105.163 135.477C105.163 135.21 105.163 134.942 105.163 134.764C105.163 132.669 105.03 130.574 104.896 128.523C104.718 125.892 104.539 123.173 104.628 120.454C104.718 118.403 104.985 116.307 105.386 114.301C105.431 114.034 105.654 113.142 105.342 112.786C105.297 112.741 105.208 112.607 104.851 112.563C103.425 112.473 102.31 112.741 101.731 113.321C101.285 113.766 101.107 114.435 101.107 115.327C101.151 116.575 101.374 117.868 101.597 119.205L101.731 120.008C101.82 120.543 101.909 121.078 101.954 121.657C102.221 123.619 102.266 125.58 102.31 127.453C102.31 128.255 102.355 129.102 102.399 129.905C102.533 132.713 102.667 135.522 102.801 138.331C102.801 138.464 102.756 138.598 102.667 138.687C101.508 139.579 99.8136 139.846 98.3425 140.025C97.7183 140.114 97.0942 140.203 96.5592 140.337C94.7314 140.783 92.859 141.273 91.0757 142.031C88.6683 143.056 86.8405 145.152 86.0826 147.737C86.3055 147.604 86.4838 147.336 86.7067 147.113C86.8405 146.935 87.0188 146.757 87.1525 146.578C88.6237 145.152 90.0949 144.037 91.6998 143.19C94.4639 141.763 97.1834 141.362 100.081 140.961H100.215C100.393 140.916 100.572 141.05 100.661 141.228C100.705 141.407 100.661 141.585 100.482 141.674C98.8774 142.521 97.0496 143.547 95.7567 144.973C95.088 145.687 93.0373 148.228 93.3048 150.501C93.7506 150.368 94.8651 149.298 96.2471 147.604C98.2087 145.464 99.8582 143.992 101.552 142.744C102.979 141.674 104.539 141.05 105.966 140.515C105.877 140.471 105.921 140.426 105.966 140.426Z" fill="#AC9356"/>
<path d="M101.463 121.21C101.909 120.675 102.489 120.319 103.068 120.497C103.692 120.675 103.826 121.522 103.871 122.102C103.96 123.974 103.915 125.847 103.915 127.719C103.915 129.413 103.96 131.152 103.915 132.846C103.915 134.139 103.737 136.457 104.852 137.349C105.922 138.196 107.259 138.196 108.686 137.973C108.24 137.928 107.794 137.884 107.348 137.795C105.877 137.572 105.832 136.546 105.476 135.521C105.476 135.209 105.476 134.986 105.476 134.808C105.476 130.037 104.762 125.312 104.941 120.497C105.03 118.446 105.253 116.396 105.699 114.434C105.877 113.542 106.055 112.294 104.807 112.205C102.4 112.027 100.527 112.74 100.661 115.415C100.705 116.708 100.928 118.045 101.151 119.338C101.24 119.918 101.374 120.542 101.463 121.21Z" fill="#FAE686"/>
<path d="M101.062 140.604C98.2981 140.158 94.6425 141.094 92.1905 142.03C89.2035 143.189 87.1082 145.285 85.9491 148.183C86.5287 147.915 86.8407 147.291 87.2865 146.845C88.624 145.508 90.0506 144.393 91.7447 143.546C94.3304 142.209 96.9161 141.763 99.6356 141.406C100.126 141.139 100.572 140.871 101.062 140.604Z" fill="#FAE686"/>
<path d="M108.953 140.382C105.386 142.745 104.272 147.47 103.514 151.572C104.272 150.635 104.584 148.54 104.807 147.738C105.342 146.044 108.552 140.783 110.112 140.649C110.29 140.694 110.424 140.694 110.602 140.738C111.94 141.05 113.188 141.452 114.526 141.541C112.921 140.649 110.781 139.178 108.953 140.382Z" fill="#FAE686"/>
<path d="M106.278 140.069C103.782 140.203 101.285 141.763 99.3235 143.19C96.8715 144.973 94.6425 147.024 93.1267 149.698C93.0375 149.832 92.9038 149.877 92.7255 149.877C92.7255 150.1 92.7255 150.323 92.77 150.59C92.993 152.106 96.3811 147.826 96.3811 147.826C98.0306 146.087 99.6802 144.438 101.597 143.011C102.623 142.253 103.737 141.718 104.852 141.228C105.297 140.871 105.832 140.47 106.278 140.069Z" fill="#FAE686"/>
<path d="M152.821 77.8342C152.286 77.21 150.369 77.8342 148.853 77.9679C144.439 78.3246 140.516 74.1339 137.44 71.5482C134.097 68.7396 130.887 65.7081 127.721 62.6765L126.473 61.4728C120.232 55.5435 113.054 50.1937 105.163 45.5127C97.4953 41.01 90.3623 37.8447 83.4522 35.9277C81.8473 35.4819 80.1977 35.0807 78.4145 34.6794C73.1093 33.4312 67.6704 32.1383 63.4352 29.0622C63.7472 26.4765 63.5243 23.8016 62.811 21.1267C62.0977 18.4073 60.6711 15.9107 59.2891 13.5479C57.0155 9.58017 54.831 5.83533 55.8563 1.10971C55.9009 0.975968 55.8563 0.797659 55.7672 0.708496C52.8694 2.17968 48.9017 1.64468 45.781 1.55552C43.0615 1.46636 40.3866 1.51096 37.7563 1.6447C34.1452 2.00135 30.8462 2.53634 27.6364 3.29422C23.6686 4.23043 20.5034 5.47868 17.4273 7.30651C16.6694 7.75233 15.9115 8.33189 15.1982 8.95603C13.3704 10.1151 11.7654 11.5418 10.5171 13.1467C2.00212 19.8339 0.263448 35.0361 6.90606 44.4428C9.49178 48.0984 12.7908 50.9962 16.8031 53.0024C19.7455 54.4735 23.5349 55.4098 25.1398 58.575C26.9231 62.0524 26.0314 67.0901 25.4073 70.7457C24.6494 74.981 23.2674 79.2162 23.9361 83.5406C25.1844 91.6098 32.5849 98.5199 38.96 102.933C42.7049 105.564 46.7618 107.793 50.8632 109.799C55.0985 111.939 59.7349 113.678 64.3268 114.703C70.9694 116.219 76.8096 117.021 82.2039 117.11H82.7835C85.28 117.11 87.8657 116.887 90.3623 116.62L91.4768 116.531C92.5022 116.442 93.795 116.308 94.9542 115.951C98.0749 115.015 99.5906 115.907 100.349 119.384C100.393 119.696 100.661 119.874 100.928 119.874C101.196 119.874 101.418 119.696 101.508 119.562C101.686 119.384 101.775 119.116 101.731 118.938V118.849C101.731 118.804 101.775 118.76 101.775 118.76C101.864 118.894 102.043 118.938 102.176 118.938C102.533 118.938 102.89 118.581 102.979 118.359C103.246 117.645 103.558 117.021 103.87 116.397C103.87 116.932 103.87 117.422 103.915 117.779C103.96 118.136 104.182 118.359 104.495 118.359C104.807 118.359 105.163 118.091 105.297 117.824C109.086 109.665 117.691 104.271 124.601 99.9465C133.027 94.6859 142.968 91.2977 149.789 83.7189C150.815 82.7827 154.247 79.5282 152.821 77.8342Z" fill="#4088B5"/>
<path d="M100.928 120.365C100.438 120.365 100.081 120.052 99.9474 119.562C99.4124 117.066 98.5654 116.085 96.9605 116.085C96.4255 116.085 95.8014 116.174 95.0435 116.441C93.8398 116.798 92.5469 116.932 91.5216 117.021L90.4516 117.066C87.955 117.288 85.4139 117.556 82.8728 117.556H82.2932C76.8989 117.467 71.0141 116.664 64.3269 115.149C59.8688 114.123 55.1878 112.429 50.7742 110.2C45.7811 107.703 42.0809 105.564 38.8264 103.29C32.6296 98.9655 24.9616 92.0108 23.6688 83.6295C23.1338 80.2414 23.8471 76.9423 24.5604 73.6879C24.7833 72.7071 25.0062 71.6817 25.1846 70.701C25.8087 67.0899 26.7003 62.1413 24.9616 58.7532C23.7579 56.3904 21.2614 55.3204 18.8094 54.2505C18.1407 53.9384 17.4274 53.6709 16.8033 53.3142C12.7909 51.3081 9.40277 48.4103 6.72789 44.6655C-0.0484695 35.1251 1.73478 19.6999 10.3836 12.879C11.6764 11.2295 13.2813 9.75831 15.1092 8.64377C15.7779 8.01964 16.5358 7.48465 17.3382 6.99425C20.4589 5.16642 23.6688 3.91816 27.6365 2.93737C30.891 2.17949 34.2346 1.59991 37.8011 1.24326C40.5651 1.10952 43.24 1.06495 45.8703 1.15411C46.4053 1.15411 46.9402 1.19868 47.4752 1.24326C48.4114 1.28784 49.3922 1.33244 50.3284 1.33244C52.6466 1.33244 54.3407 1.02037 55.6336 0.351647C55.8119 0.262484 56.0348 0.30707 56.1686 0.529976C56.3023 0.752883 56.3469 0.975796 56.2577 1.1987C55.2769 5.746 57.3723 9.44625 59.6459 13.3248C61.0279 15.7322 62.4545 18.2287 63.2124 20.9928C63.9257 23.6231 64.1486 26.298 63.8811 28.8391C68.0272 31.7815 73.377 33.0297 78.5484 34.2334C80.3316 34.6347 81.9811 35.0359 83.5861 35.4817C90.5408 37.4433 97.7183 40.564 105.431 45.1113C113.366 49.7923 120.544 55.1421 126.83 61.116L128.301 62.5426C131.333 65.4404 134.498 68.4273 137.797 71.1914C138.243 71.548 138.689 71.9493 139.179 72.3951C141.898 74.8025 145.331 77.7894 148.942 77.5219C149.388 77.4773 149.878 77.3882 150.324 77.299C150.948 77.2098 151.528 77.0761 152.063 77.0761C152.643 77.0761 152.999 77.2099 153.267 77.4773C154.738 79.216 151.974 82.1584 150.681 83.5404C150.547 83.6741 150.413 83.8079 150.324 83.9416C145.599 89.1576 139.357 92.4121 133.339 95.5773C130.575 97.0485 127.722 98.5197 125.047 100.214C118.181 104.538 109.577 109.888 105.877 117.913C105.698 118.269 105.208 118.67 104.718 118.67C104.272 118.67 103.871 118.358 103.737 117.913C103.648 118.091 103.603 118.269 103.514 118.448C103.38 118.804 102.845 119.295 102.31 119.25C102.266 119.428 102.176 119.651 101.998 119.785C101.552 120.186 101.24 120.365 100.928 120.365ZM97.0051 115.282C99.0112 115.282 100.17 116.531 100.75 119.384C100.794 119.517 100.839 119.562 100.973 119.562C101.107 119.562 101.24 119.473 101.285 119.384C101.374 119.295 101.419 119.161 101.419 119.027V118.938C101.419 118.893 101.419 118.804 101.419 118.76L101.463 118.67C101.508 118.537 101.597 118.448 101.731 118.403C101.864 118.358 101.998 118.403 102.087 118.537C102.221 118.67 102.578 118.403 102.622 118.269C102.89 117.6 103.202 116.932 103.559 116.263C103.648 116.085 103.826 116.04 104.004 116.085C104.183 116.129 104.316 116.308 104.272 116.486C104.272 116.976 104.272 117.422 104.316 117.823C104.316 117.957 104.406 118.046 104.539 118.046C104.718 118.046 104.941 117.868 104.985 117.734C108.819 109.487 117.468 104.048 124.467 99.6788C127.142 97.9847 130.04 96.5135 132.804 95.0424C138.778 91.9217 144.975 88.6673 149.611 83.5404C149.7 83.4067 149.834 83.2729 149.968 83.1392C151.038 81.98 153.579 79.3498 152.553 78.1015C152.509 78.0569 152.375 77.9677 151.974 77.9677C151.528 77.9677 150.993 78.0569 150.369 78.146C149.878 78.2352 149.388 78.3244 148.898 78.3689C144.975 78.681 141.408 75.5603 138.555 73.0638C138.064 72.6625 137.619 72.2613 137.173 71.9047C133.874 69.1406 130.709 66.1091 127.677 63.2113L126.206 61.7847C119.964 55.9 112.831 50.5502 104.941 45.9138C97.2725 41.411 90.2287 38.2904 83.3186 36.3734C81.7137 35.9275 80.0641 35.5263 78.3255 35.1251C72.9757 33.8768 67.4922 32.5839 63.2124 29.4632C63.0787 29.3741 63.0341 29.2403 63.0341 29.1066C63.3016 26.5654 63.1232 23.9352 62.41 21.3049C61.6966 18.63 60.27 16.178 58.9326 13.8152C56.659 9.84745 54.4745 6.10265 55.4107 1.37703C53.672 2.09033 51.7104 2.1795 50.2838 2.1795C49.303 2.1795 48.3223 2.1349 47.386 2.09032C46.8511 2.04573 46.3161 2.04575 45.7811 2.00117C43.1508 1.91201 40.5205 1.95657 37.7565 2.09032C34.2346 2.44697 30.9355 2.98195 27.6811 3.73984C23.758 4.67604 20.6373 5.87974 17.6057 7.70757C16.8478 8.15338 16.1345 8.68836 15.4658 9.3125C13.638 10.4716 12.0776 11.8982 10.8294 13.4586C10.8294 13.5031 10.7848 13.5031 10.7402 13.5477C2.35892 20.1012 0.664832 35.0805 7.21828 44.3088C9.804 47.9645 13.103 50.7731 16.9816 52.7347C17.6057 53.0468 18.2745 53.3142 18.9878 53.6263C21.5289 54.7408 24.1592 55.8554 25.4966 58.4857C27.369 62.0968 26.4328 67.179 25.8087 70.9239C25.6304 71.9492 25.4075 72.9746 25.1846 73.9554C24.5158 77.1207 23.8025 80.3751 24.3375 83.585C25.5858 91.6988 33.12 98.4751 39.1831 102.71C42.3929 104.939 46.0486 107.079 51.0417 109.576C55.4107 111.76 60.0471 113.454 64.4607 114.48C71.1033 115.996 76.8989 116.798 82.2486 116.843H82.8282C85.3247 116.843 87.8659 116.62 90.3624 116.352L91.477 116.263C92.5023 116.174 93.7506 116.04 94.8652 115.728C95.6676 115.371 96.3809 115.282 97.0051 115.282Z" fill="#154673"/>
<path d="M95.6675 114.034C91.8335 113.766 87.9549 113.989 84.1209 113.543C77.612 112.785 70.8357 110.958 65.0401 107.748C59.9578 104.939 54.5189 100.347 53.2706 94.3288C51.8886 87.5525 55.1876 80.1074 50.9524 73.9997C50.6849 73.5985 51.2645 73.2419 51.5765 73.5094C52.914 74.7131 54.2068 76.0059 55.3214 77.3879C55.0539 74.4456 53.9839 71.414 51.6211 69.5416C51.2645 69.2741 51.7103 68.6946 52.1115 68.9175C53.4044 69.6753 54.6081 70.5224 55.6334 71.5478C54.3852 66.8222 52.1561 62.4532 48.5004 59.065C44.9785 55.8106 40.7879 53.4923 36.4189 51.5753C35.9285 51.6199 34.4127 51.1295 34.6802 50.862C39.7179 45.8689 51.9332 37.7551 43.0615 30.5775C42.7049 30.31 46.8064 31.915 48.1438 33.297C47.8763 30.3992 44.0869 25.2278 44.4881 25.2724C46.5834 25.3615 48.1884 26.164 49.8825 27.2785C48.2775 22.2854 37.4889 17.961 37.8901 17.7381C39.8517 16.7128 41.8578 15.9994 43.9531 15.4199C39.0046 13.4583 27.4581 18.9418 27.5918 18.6297C28.1268 17.4706 28.8401 16.3561 29.6425 15.3307C23.4012 18.3177 18.0068 22.9095 15.0199 29.4184C14.9307 29.6413 14.5741 29.6859 14.3957 29.5076C11.5871 26.0303 10.9184 20.9926 11.8546 16.6236C10.428 18.1839 8.10977 22.5083 8.06519 22.0625C7.66396 19.4322 8.10977 16.8465 9.00139 14.3945C1.77922 21.6167 0.620107 35.5706 6.86149 44.3977C9.44721 48.0534 12.7462 50.9512 16.7585 52.9574C19.7009 54.4286 23.4903 55.3648 25.0953 58.53C26.8785 62.0074 25.9869 67.0451 25.3627 70.7007C24.6049 74.9359 23.2228 79.1712 23.8916 83.4956C25.1398 91.5648 32.5403 98.4749 38.9155 102.888C42.6603 105.519 46.7172 107.748 50.8187 109.754C55.0539 111.894 59.6904 113.633 64.2822 114.658C70.9248 116.174 76.765 116.976 82.1593 117.065H82.7389C85.2354 117.065 87.8212 116.842 90.3177 116.575L91.4323 116.486C92.4576 116.397 93.7505 116.263 94.9096 115.906C97.1387 115.237 98.5653 115.505 99.4569 116.976C98.9665 115.416 97.9857 114.168 95.6675 114.034Z" fill="white"/>
<path d="M21.8409 49.2121C24.0699 47.3396 25.3182 44.7985 23.7579 41.9899C23.0446 40.6971 21.9746 39.5825 20.6372 38.8692C16.1345 36.4172 9.26894 36.9076 6.05908 41.1874C6.54948 42.1682 7.08445 43.1044 7.70859 43.9961C9.98224 47.4734 13.4596 50.3712 17.5611 52.3328C19.1214 51.352 20.548 50.282 21.8409 49.2121Z" fill="#E0E0E0"/>
<path d="M12.2561 36.285C11.6766 34.4572 8.91251 34.056 7.39675 34.5464C6.50512 34.8584 5.74724 35.3042 5.03394 35.8838C7.44133 35.3934 9.84872 35.7946 12.2561 36.285Z" fill="#E0E0E0"/>
<path d="M27.6812 36.4617C30.4452 36.3725 33.343 35.8376 35.7504 37.1304C33.9671 34.6784 29.5981 34.0543 27.6812 36.4617Z" fill="#E0E0E0"/>
<path opacity="0.3" d="M18.9878 8.46584C15.8225 10.2491 12.5235 13.8602 11.7656 17.605C14.7971 13.8156 17.9624 10.2045 22.5097 8.15378C27.5474 5.88013 32.9417 3.69564 38.559 3.82938C39.0048 3.82938 39.094 4.45351 38.6481 4.58726C35.2154 5.70179 32.0947 7.57422 29.4198 9.89244C29.4644 9.89244 29.4644 9.84785 29.509 9.84785C33.1201 7.61879 37.3107 5.256 41.4568 4.23063C43.2846 3.78482 46.2716 2.98233 47.8319 4.58726C48.8127 5.56805 49.0356 6.95007 48.9464 8.28751C48.9018 9.13456 48.8127 9.93705 48.6344 10.7841C49.3031 9.62498 49.9272 8.46585 50.5068 7.21757C50.6405 6.9055 51.1309 7.03923 51.2201 7.30672C51.7551 8.82248 51.6659 10.4274 51.4876 11.9878C51.5767 11.542 51.7105 11.0516 51.8442 10.6058C51.9334 10.2937 52.29 10.2491 52.5129 10.4274C54.207 11.8986 55.1878 14.0385 56.659 15.7326C57.9073 17.2038 59.3339 18.5858 60.3592 20.2353C62.0979 22.9548 63.0341 25.8525 63.4354 28.9732C63.7028 26.4321 63.4799 23.8018 62.7666 21.2161C62.0533 18.4966 60.6267 16.0001 59.2447 13.6373C56.9711 9.66955 54.7866 5.92472 55.812 1.1991C55.8565 1.06536 55.812 0.887014 55.7228 0.797852C52.825 2.26903 48.8573 1.73407 45.7366 1.64491C43.0171 1.55574 40.3422 1.60031 37.7119 1.73406C34.1009 2.09071 30.8018 2.62569 27.592 3.38358C23.6242 4.31978 20.459 5.56807 17.3829 7.3959C16.625 7.84171 15.8671 8.42125 15.1538 9.04539C13.638 9.9816 12.3006 11.1407 11.1415 12.4782C13.326 10.5166 15.8671 8.95625 18.6311 7.8863C19.1215 7.61881 19.389 8.28752 18.9878 8.46584Z" fill="#605E61"/>
<path d="M5.56838 19.6547C6.59375 17.6486 7.88661 15.8207 9.35779 14.2158C5.65754 17.7377 3.47306 22.9983 2.98267 28.5264C3.42848 25.4057 4.14178 22.4188 5.56838 19.6547Z" fill="#716E72"/>
<path opacity="0.4" d="M152.821 77.8341C152.286 77.21 150.369 77.8342 148.853 77.9679C144.439 78.3246 140.516 74.1339 137.44 71.5482C134.097 68.7396 130.887 65.7081 127.721 62.6765L126.473 61.4728C120.232 55.5435 113.054 50.1937 105.163 45.5127C97.4953 41.01 90.3623 37.8447 83.4522 35.9277C81.8473 35.4819 80.1978 35.0807 78.4145 34.6794C73.1093 33.4312 67.6704 32.1383 63.4352 29.0622C63.7472 26.4765 63.5243 23.8016 62.811 21.1267C62.0977 18.4073 60.6711 15.9107 59.2891 13.5479C57.0155 9.58016 54.831 5.83533 55.8563 1.10971C55.9009 0.975968 55.8564 0.797659 55.7672 0.708496C55.4997 0.84224 55.1876 0.975992 54.9201 1.06515C54.6081 1.86762 54.3852 2.67006 54.2514 3.51711C53.761 6.99445 55.1876 9.53558 56.6588 12.5671C58.7096 16.8469 58.9325 22.4642 55.8118 26.2982C55.678 26.4765 55.2768 26.4319 55.1876 26.209C52.8694 20.8593 47.7426 19.2543 42.4374 18.229C42.0361 18.1398 42.0807 17.5602 42.4374 17.4711C45.0677 16.7578 47.7871 16.5349 50.5066 16.4457C48.8125 15.6878 47.163 15.0191 45.246 15.1082C44.8448 15.1082 44.711 14.5733 45.0677 14.395C46.5389 13.6371 48.01 12.9238 49.4812 12.255C44.5327 10.2935 38.2467 11.7647 33.6103 13.9046C33.209 14.0829 32.8078 13.6371 33.1199 13.2804C34.5911 11.8538 36.0622 10.4272 37.6226 9.13436C28.1714 12.0321 20.325 17.7831 14.4849 25.8524C14.262 26.1198 13.9053 26.0752 13.7716 25.7632C11.9883 21.0821 13.3258 16.4011 15.4657 12.1213C12.88 13.9491 10.7401 16.4011 9.31346 19.2097C9.13514 19.5664 8.60016 19.3881 8.60016 19.0314C8.60016 17.2927 8.95681 15.5986 9.53637 13.9937C6.63859 16.6686 4.63243 20.4134 3.60706 24.5149C4.36494 23.222 5.1674 22.0183 6.10361 20.993C6.3711 20.7255 6.72775 20.9484 6.77233 21.2605C7.03982 23.1775 7.26272 25.0945 7.61937 26.9669C8.02061 25.0053 8.68933 23.0883 9.80386 21.4388C10.0268 21.0822 10.4726 21.2605 10.5172 21.6171C10.7846 24.4257 11.4534 27.1006 13.0583 29.4634C13.4149 30.043 13.9499 30.8455 14.5295 31.5588C16.3127 26.1644 19.7455 21.305 25.1844 19.5664C25.4965 19.4772 25.8085 19.8785 25.6302 20.146C25.1398 20.9038 24.6049 21.6617 24.1145 22.4642C27.1906 19.6555 31.2029 17.6494 35.1706 16.8469C35.5273 16.7577 35.8393 17.2036 35.5719 17.5156C35.0369 18.006 33.9223 18.8085 32.9416 19.7001C33.6549 19.611 34.3682 19.611 35.0815 19.6556C37.2214 19.7893 39.495 20.3688 40.9662 22.0184C42.482 23.8016 43.5073 25.8969 44.399 28.0368C44.5327 28.3489 44.0869 28.661 43.8194 28.4826C42.3482 27.5464 40.7879 27.0115 39.1384 26.5211C41.3228 29.7309 42.4374 33.6987 41.412 37.4435C40.4758 40.9208 37.9347 43.6403 35.4827 46.1368C33.1645 48.4996 30.6679 50.6396 27.4581 51.6649C21.2613 53.6265 14.5295 51.6649 9.67011 47.4743C8.86765 46.761 8.15435 46.0477 7.44105 45.2452C9.9376 48.4997 13.0137 51.13 16.7585 52.9578C19.7009 54.429 23.4903 55.3652 25.0952 58.5305C25.9423 60.18 26.1652 62.1415 26.1652 64.1477C26.4773 63.5235 26.8339 62.8994 27.2797 62.2753C27.5472 61.9186 28.0822 62.1415 27.993 62.5873C27.9039 63.0332 27.8593 63.4344 27.8147 63.8802C28.2159 62.7211 28.7955 61.6957 29.6871 61.027C31.6487 59.5558 38.1576 63.1223 39.2721 63.6127C38.3359 62.4536 37.1322 61.5174 35.7056 60.9379C35.3935 60.8041 35.3044 60.2691 35.7056 60.18C41.2783 58.8425 47.2967 62.1416 49.3029 67.4467C49.4366 67.8034 48.9908 68.0263 48.7233 67.8925C48.0546 67.5359 47.4751 67.1346 46.8509 66.7334C47.8763 68.2046 48.6788 69.8095 49.0354 71.6373C49.1246 72.0832 48.5896 72.3061 48.3221 71.9494C47.698 71.1024 46.9847 70.3891 46.1822 69.8095C53.761 81.6236 46.628 99.5007 59.8687 108.194C60.1807 108.417 47.2076 106.545 41.5457 103.87C39.8071 103.067 38.113 102.176 36.4189 101.195C37.2214 101.819 38.0684 102.443 38.8709 102.978C42.6157 105.608 46.6726 107.837 50.7741 109.844C55.0093 111.983 59.6458 113.722 64.2376 114.748C70.8803 116.263 76.7204 117.066 82.1148 117.155H82.6943C85.1909 117.155 87.7766 116.932 90.2731 116.664L91.3877 116.575C92.413 116.486 93.7059 116.352 94.865 115.996C97.9857 115.06 99.5015 115.951 100.259 119.429C100.304 119.741 100.571 119.919 100.839 119.919C101.106 119.919 101.329 119.741 101.418 119.607C101.597 119.429 101.686 119.161 101.641 118.983V118.894C101.641 118.849 101.686 118.804 101.686 118.804C101.775 118.938 101.953 118.983 102.087 118.983C102.444 118.983 102.8 118.626 102.89 118.403C103.157 117.69 103.469 117.066 103.781 116.442C103.781 116.977 103.781 117.467 103.826 117.824C103.87 118.18 104.093 118.403 104.405 118.403C104.717 118.403 105.074 118.136 105.208 117.868C108.997 109.71 117.601 104.315 124.512 99.9911C132.937 94.7305 142.879 91.3423 149.7 83.7635C150.815 82.7827 154.247 79.5282 152.821 77.8341ZM119.296 86.3492C118.404 87.6866 115.907 87.4192 114.57 87.1963C112.118 86.795 109.711 86.0371 107.348 85.2347C104.45 84.2539 101.508 83.0947 98.699 81.6681C98.7882 81.7573 98.9219 81.891 99.0111 81.9802C101.285 84.1647 103.826 86.2155 105.52 88.9349C105.654 89.2024 105.475 89.5145 105.163 89.5145C100.438 89.5145 95.8904 86.0817 92.101 83.6297C89.3815 81.8465 86.5729 79.9741 84.0763 77.7896C86.2608 81.1332 88.8465 84.2093 92.2347 86.4383C92.6359 86.7058 92.3685 87.1962 91.9226 87.1517C85.4584 86.2155 79.7965 81.6681 75.6059 76.8979C73.5997 74.6243 71.6827 72.0832 70.167 69.4083C70.3899 70.2999 70.6573 71.147 70.8803 72.0386C70.9694 72.3952 70.479 72.7073 70.2115 72.3953C66.8679 68.7396 64.5943 63.8356 63.5243 58.8425C63.5243 59.1992 63.5243 59.5558 63.4798 59.9125C63.4352 60.3137 62.9894 60.4029 62.7665 60.0908C61.429 58.3521 60.9386 55.9002 60.7157 53.7603C60.582 52.6012 60.4928 51.3529 60.582 50.1046C60.0916 50.8179 59.6903 51.6204 59.4229 52.4674C59.2891 52.8686 58.665 52.824 58.665 52.3782C58.7096 47.8309 59.1554 42.3028 62.5435 38.8701C66.2438 35.0807 71.7719 35.2144 76.6312 36.1952C89.1586 38.7364 99.3231 47.5634 106.545 57.7726C106.813 58.1738 106.233 58.4859 105.921 58.263C102.8 55.7218 99.9473 52.8241 96.6037 50.5504C100.482 54.6965 104.807 59.0654 106.456 64.6381C106.545 64.9501 106.278 65.1731 105.966 65.1285C104.049 64.6381 102.667 63.0332 101.196 61.8295C100.17 60.9824 99.0556 60.2245 97.9411 59.5112C103.023 63.8356 108.106 68.1154 111.226 74.1785C111.405 74.5351 111.048 74.8472 110.691 74.7135C109.577 74.2231 108.551 73.5544 107.526 72.8411C109.265 74.3122 110.959 75.7834 112.653 77.2992C114.525 78.9933 116.71 80.6874 118.27 82.6935C119.162 83.7189 120.143 85.0563 119.296 86.3492Z" fill="#7E8189"/>
<path opacity="0.4" d="M61.3845 24.2023C60.8495 29.1509 58.4421 33.0294 55.5443 36.7743C59.1108 34.3669 62.9894 32.6282 67.4475 32.7174C69.1416 32.762 70.8357 32.9403 72.5298 33.1632C69.2308 32.227 66.0655 30.9787 63.3906 29.0617C63.7027 26.476 63.4798 23.8011 62.7665 21.1263C62.1869 18.9864 61.2061 17.0248 60.1808 15.1523C61.0278 18.1393 61.7411 21.1262 61.3845 24.2023Z" fill="#7E8189"/>
<path opacity="0.4" d="M46.4495 41.3218C43.2843 46.4486 38.5141 50.1935 33.298 53.1358C30.534 54.6516 27.0121 56.4348 23.6239 56.6132C24.248 57.1481 24.783 57.8168 25.1842 58.5747C25.4072 59.0205 25.5855 59.4664 25.7192 59.9568C30.4003 58.8422 34.5463 56.0336 38.3357 53.0467C42.1251 50.1043 45.8254 46.1811 46.4495 41.3218Z" fill="#7E8189"/>
<path opacity="0.4" d="M146.044 80.4202C141.274 81.3119 136.905 80.4648 132.937 77.5224C127.944 73.8222 124.601 68.2495 120.811 63.4348C117.958 59.7791 114.837 56.3018 111.672 52.9136C115.64 57.6392 118.983 62.9444 121.391 68.6062C121.569 68.9628 121.079 69.4532 120.767 69.0966C118.761 66.5554 116.442 64.3264 113.946 62.2756C117.958 67.135 121.034 72.7077 124.289 78.1912C124.467 78.4587 124.199 78.9045 123.843 78.7708C120.99 77.6116 118.983 75.1597 116.487 73.4656C116.219 73.2872 115.952 73.1089 115.684 72.9306C116.754 74.4018 117.78 75.8729 118.805 77.3441C121.569 81.2673 125.671 84.7892 127.231 89.4257C127.276 89.5594 127.186 89.7823 127.053 89.8715C122.416 91.8331 117.066 91.1198 112.385 89.6486C108.863 88.534 105.431 87.0183 102.221 85.1458C103.469 86.3495 104.628 87.6424 105.52 89.1136C105.654 89.3811 105.475 89.6932 105.163 89.6932C100.438 89.6932 95.8903 86.2604 92.1009 83.8084C89.3814 82.0252 86.5728 80.1528 84.0763 77.9683C86.2608 81.3119 88.8465 84.388 92.2347 86.617C92.6359 86.8845 92.3684 87.3749 91.9226 87.3304C85.4583 86.3941 79.7965 81.8468 75.6058 77.0766C73.5997 74.803 71.6827 72.2619 70.1669 69.587C70.3898 70.4786 70.6573 71.3257 70.8802 72.2173C70.9694 72.5739 70.479 72.886 70.2115 72.5739C67.0462 69.0966 64.8617 64.5939 63.7472 59.9128C63.7918 65.7084 65.6196 71.4148 68.6066 76.4079C71.4152 81.0444 74.9817 85.9037 79.841 88.5786C78.6373 86.3496 77.2107 84.2542 76.4529 81.7577C76.3191 81.3119 76.8987 81.1336 77.1662 81.4456C80.2423 85.5025 84.3883 88.2666 89.0248 90.2281C93.1263 91.9668 97.5844 93.0368 101.508 95.0875C104.272 96.5587 106.545 98.8323 106.857 102.131C107.169 105.653 105.787 109.041 104.316 112.162C104.182 112.474 103.647 112.385 103.603 112.073C103.246 110.067 103.112 108.105 102.399 106.233C102.355 108.373 102.756 110.513 101.998 112.563C101.909 112.831 101.552 112.965 101.329 112.742C98.8327 110.29 95.5782 110.869 92.4576 111.449C89.6044 111.984 86.7066 112.34 83.8088 112.296C80.7773 112.251 77.5228 112.028 74.625 111.003C72.0839 110.156 69.6765 108.908 67.1354 108.15C71.2369 113.232 78.8157 113.722 84.5667 115.952C84.8787 116.085 84.9679 116.487 84.6558 116.665C84.2546 116.888 83.8534 117.111 83.4521 117.334C85.7258 117.289 88.044 117.066 90.3177 116.888L91.4322 116.799C92.4576 116.709 93.7504 116.576 94.9095 116.219C98.0302 115.283 99.546 116.174 100.304 119.652C100.348 119.964 100.616 120.142 100.883 120.142C101.151 120.142 101.374 119.964 101.463 119.83C101.641 119.652 101.73 119.384 101.686 119.206V119.117C101.686 119.072 101.73 119.028 101.73 119.028C101.82 119.161 101.998 119.206 102.132 119.206C102.488 119.206 102.845 118.849 102.934 118.626C103.202 117.913 103.514 117.289 103.826 116.665C103.826 117.2 103.826 117.69 103.87 118.047C103.915 118.404 104.138 118.626 104.45 118.626C104.762 118.626 105.119 118.359 105.252 118.091C109.042 109.933 117.646 104.539 124.556 100.214C132.982 94.9538 142.924 91.5656 149.745 83.9868C150.681 82.9614 154.069 79.7515 152.731 78.0574C150.859 79.3057 148.095 80.019 146.044 80.4202Z" fill="#7E8189"/>
<path opacity="0.4" d="M60.5375 65.7081C60.4929 65.619 60.3592 65.7527 60.4037 65.8419C62.4991 71.6374 63.3907 76.5859 61.4737 82.6044C61.3845 82.8719 61.7412 82.7382 61.7858 82.5598C64.2377 76.6305 62.9449 71.3254 60.5375 65.7081Z" fill="#7E8189"/>
<path opacity="0.4" d="M61.2512 75.695C61.2512 75.5613 61.0283 75.695 61.0283 75.8288C60.9837 78.5037 61.0283 81.8918 59.468 84.2101C59.3342 84.433 59.5125 84.5667 59.6909 84.3884C61.5633 82.2485 61.2958 78.3253 61.2512 75.695Z" fill="#7E8189"/>
<path opacity="0.4" d="M58.4425 81.6678C58.3088 82.6931 58.175 83.7631 57.7292 84.6548C57.328 85.5018 56.7038 86.2151 56.1243 86.973C55.9459 87.1959 56.1689 87.3742 56.3472 87.1513C57.0159 86.438 57.5955 85.6355 58.0413 84.7439C58.5317 83.8077 58.5762 82.604 58.6654 81.5786C58.71 81.4003 58.4871 81.534 58.4425 81.6678Z" fill="#7E8189"/>
<g opacity="0.4">
<path d="M96.4699 63.2544C96.782 62.8085 96.5145 62.229 96.3362 61.6494C95.9796 60.7132 95.4892 59.8662 94.9542 59.0637C94.6421 58.7962 94.33 58.4842 94.018 58.2167C94.4638 58.93 94.9096 59.5987 95.3108 60.3566C95.4 60.5349 96.2025 62.1844 96.247 62.8085C96.2025 62.7194 96.1579 62.6748 96.1133 62.5856C95.6229 61.7832 95.0433 60.9361 94.4192 60.1782C94.9988 61.3819 95.5783 62.5856 96.247 63.7448C96.2916 63.7893 96.2916 63.8339 96.2916 63.8785C96.6483 64.4135 97.9857 66.5534 96.5591 66.2859C95.9796 66.1967 95.4 65.9292 94.8204 65.6618C94.5084 65.6172 94.1963 65.6172 93.8842 65.5726C94.5529 66.0184 95.4892 66.5534 96.2916 66.7763C96.782 67.6679 97.6291 69.4512 95.6229 69.2728C94.5975 69.1837 93.5276 68.6041 92.5914 68.2029C91.1202 67.5787 89.6936 66.7763 88.3561 65.9292C87.8658 65.7955 87.3754 65.6172 86.885 65.3943C87.3308 65.7063 87.732 66.0184 88.1778 66.2859C88.6236 67.2667 89.0695 68.6933 87.3308 68.3366C86.7066 68.2029 86.0825 67.98 85.5029 67.7571C84.1209 67.2221 82.8726 66.2859 81.7135 65.3497C81.6244 65.2605 81.5798 65.1268 81.4906 65.0376C81.7581 64.7701 81.9364 64.3243 81.8473 63.6556C81.8473 63.5218 81.6244 63.7002 81.6244 63.7893C81.4015 66.3751 77.4783 63.3435 76.6758 62.6748C75.2938 61.5603 74.0455 60.0891 73.1539 58.6179C73.1093 58.5287 72.931 58.7071 72.9756 58.7516C73.5997 60.0445 74.4022 61.2036 75.3384 62.2736C74.5359 62.9423 72.3069 60.7132 71.8611 60.2674C71.6382 60.0445 71.3707 59.8216 71.1478 59.5541C70.0778 58.5733 69.1416 57.5034 68.2946 56.3442C69.2753 58.4396 70.8803 60.312 72.6189 61.7832C73.3768 62.4073 74.9818 63.4772 75.6059 62.541C76.5867 63.5664 77.7458 64.458 79.0387 65.0822C79.7965 65.4388 80.5544 65.528 81.0894 65.3497C81.1786 65.4388 81.3123 65.528 81.4015 65.6172C82.0256 66.7763 84.2992 70.5211 82.4268 70.3428C81.134 70.209 79.8411 69.5403 78.7266 68.7824C78.9049 69.0945 79.1278 69.362 79.3507 69.6295C80.599 70.5211 82.1593 71.3236 83.2739 70.6103C85.3246 72.2152 87.197 73.9985 89.7827 74.7563C91.1202 75.1576 90.9864 73.8647 90.5852 73.0622C90.5406 72.9731 90.4069 73.1068 90.4069 73.196C90.8973 75.3359 88.0887 73.508 87.197 73.0622C85.8596 72.3489 84.7451 71.279 83.4968 70.3874C83.7643 69.9861 83.6305 69.3174 83.5414 68.9162C83.363 68.1137 83.0064 67.3558 82.5606 66.6871C84.1209 67.8908 85.815 68.8716 87.8657 69.0499C89.5153 69.1837 89.0249 67.5787 88.5345 66.598C89.2032 67.0438 89.8719 67.445 90.5852 67.8462C91.9672 68.6041 93.8396 69.7186 95.4446 69.7632C97.6291 69.897 97.4507 68.292 96.6929 66.91C97.317 66.9992 97.7628 66.8208 97.852 66.063C97.8966 65.1713 97.0941 64.1014 96.4699 63.2544Z" fill="#7E8189"/>
<path d="M78.7263 53.1344C78.6817 53.0452 78.548 53.179 78.5925 53.2681C78.9046 54.0706 79.2613 54.8285 79.4396 55.6755C79.7962 57.1913 78.1021 56.79 77.2997 56.2551C76.8984 55.9876 76.5418 55.7201 76.1851 55.408C75.6948 55.1405 75.2489 54.8285 74.7585 54.5164C75.2489 55.096 75.7839 55.6755 76.3635 56.2105C76.9876 56.7454 77.9684 57.5925 78.9046 57.2804C80.9553 56.6563 79.3058 54.2489 78.7263 53.1344Z" fill="#7E8189"/>
<path d="M89.2031 52.2431C89.114 52.1539 88.9802 52.3322 89.0248 52.4214C89.1139 52.5997 91.0309 55.7204 89.8272 55.5866C89.1139 55.4975 88.4007 55.0517 87.7765 54.7396C86.974 54.2938 86.1716 53.7588 85.4583 53.1793C85.0571 53.0009 84.7004 52.8226 84.3438 52.6443C85.3245 53.6697 86.4391 54.695 87.6873 55.3638C87.9994 55.9879 88.4452 56.612 88.8019 57.2362C88.9802 57.5037 89.0694 57.8157 89.2031 58.1278C89.4706 58.9302 88.3115 58.5736 88.044 58.529C87.0632 58.2615 86.1716 57.7711 85.28 57.2362C85.8595 57.7711 86.4837 58.3061 87.1078 58.7519C87.7319 59.0194 88.579 59.3315 89.1139 59.0194C90.3176 58.3061 89.2477 56.7012 88.4006 55.7204C88.891 55.9433 89.3814 56.0771 89.9164 56.1216C92.0563 56.3 89.4706 52.5997 89.2031 52.2431Z" fill="#7E8189"/>
</g>
<path d="M34.0563 28.0362C33.8334 27.9025 33.6105 27.8133 33.3876 27.7241C32.0056 27.3229 30.5344 28.3929 29.7319 29.552C28.5728 31.2461 28.127 33.6981 29.509 35.303C30.7127 36.7296 32.8972 36.4621 34.1009 35.0355C35.6613 33.2076 36.33 29.3737 34.0563 28.0362Z" fill="url(#paint0_linear_171_369)"/>
<path d="M34.0563 28.0362C33.8334 27.9025 33.6105 27.8133 33.3876 27.7241C32.0056 27.3229 30.5344 28.3929 29.7319 29.552C28.5728 31.2461 28.127 33.6981 29.509 35.303C30.7127 36.7296 32.8972 36.4621 34.1009 35.0355C35.6613 33.2076 36.33 29.3737 34.0563 28.0362ZM33.7888 34.5005C32.7635 35.7042 30.9356 35.9271 29.9103 34.7234C28.7512 33.386 29.1524 31.2907 30.0886 29.8641C30.7573 28.8833 32.0056 27.947 33.1647 28.3037C33.3876 28.3483 33.5659 28.4375 33.7443 28.5712C35.6613 29.6857 35.0817 32.8956 33.7888 34.5005Z" fill="#A06476"/>
<path d="M35.0372 30.712C34.9927 31.3807 34.636 31.8711 34.2348 31.8711C33.8336 31.8711 33.5215 31.3361 33.5215 30.6674C33.5661 29.9987 33.9227 29.5083 34.3239 29.5083C34.7698 29.5529 35.0818 30.0878 35.0372 30.712Z" fill="white"/>
<path d="M34.3684 32.8951C34.2793 33.0734 34.1009 33.2072 33.9672 33.118C33.8335 33.0734 33.8335 32.8505 33.9226 32.6722C34.0118 32.4939 34.1901 32.3601 34.3238 32.4493C34.413 32.4939 34.4576 32.7168 34.3684 32.8951Z" fill="white"/>
<path d="M9.18006 27.1439C8.95715 27.0993 8.73424 27.0547 8.51134 27.0547C7.1739 27.0547 6.14853 28.3921 5.7473 29.6404C5.16774 31.4237 5.39064 33.7865 7.04015 34.8564C8.51134 35.7926 10.3838 34.9902 11.0525 33.4298C11.8995 31.3345 11.5429 27.768 9.18006 27.1439Z" fill="url(#paint1_linear_171_369)"/>
<path d="M9.18006 27.1439C8.95715 27.0993 8.73424 27.0547 8.51134 27.0547C7.1739 27.0547 6.14853 28.3921 5.7473 29.6404C5.16774 31.4237 5.39064 33.7865 7.04015 34.8564C8.51134 35.7926 10.3838 34.9902 11.0525 33.4298C11.8995 31.3345 11.5429 27.768 9.18006 27.1439ZM10.5621 32.984C9.98252 34.3215 8.37759 34.9902 7.1739 34.1877C5.79188 33.2961 5.61355 31.2899 6.10395 29.7742C6.4606 28.7488 7.30764 27.5897 8.46676 27.5897C8.68966 27.5897 8.86799 27.6342 9.04631 27.6788C11.0525 28.2138 11.3645 31.2453 10.5621 32.984Z" fill="#A06476"/>
<path d="M10.7405 29.2844C10.8742 29.8639 10.6959 30.4435 10.3393 30.5327C9.9826 30.6218 9.53679 30.2206 9.40305 29.641C9.2693 29.0615 9.44763 28.4819 9.80428 28.3928C10.2055 28.3036 10.6067 28.7048 10.7405 29.2844Z" fill="white"/>
<path d="M10.6956 31.4253C10.651 31.6036 10.5173 31.7819 10.3835 31.7373C10.2498 31.6928 10.1606 31.5144 10.2052 31.3361C10.2498 31.1578 10.3835 30.9794 10.5173 31.024C10.651 31.024 10.7402 31.2024 10.6956 31.4253Z" fill="white"/>
<path opacity="0.4" d="M129.638 87.42C129.059 86.7067 128.524 85.9934 127.944 85.3247C128.123 84.7451 127.766 84.0764 127.588 83.4077C126.963 81.2232 125.983 78.905 124.913 76.8988C124.556 76.1855 124.155 75.5168 123.798 74.8035C123.219 73.9118 122.639 72.9756 121.926 72.1286C121.747 71.9057 121.569 71.6828 121.391 71.4599C122.059 72.619 122.684 73.8227 123.308 75.071C124.199 76.8097 125.046 78.4592 125.715 80.287C126.072 81.2678 127.365 83.3185 127.543 84.7451C125.626 82.2931 123.664 79.8412 121.346 77.6567C121.614 78.2808 121.881 78.9049 122.149 79.5737C123.887 81.4907 125.626 83.3631 127.186 85.3693C127.721 86.038 128.123 86.7959 128.658 87.4646C128.613 87.42 130.797 89.8274 129.549 90.0503C127.81 90.3624 125.938 90.3624 124.199 90.5853C117.913 91.2986 111.092 89.872 105.609 86.573C105.564 86.5284 105.52 86.4838 105.52 86.4392C104.94 86.2609 104.316 86.0826 103.737 85.9042C104.45 86.6621 105.163 87.4646 105.876 88.3116C106.456 88.9804 107.036 89.6045 107.615 90.2732C107.793 90.4961 108.551 91.254 108.908 91.8781C106.634 91.6998 104.361 90.719 102.31 89.872C99.7688 88.8466 97.2723 87.3308 94.954 85.8596C92.5912 84.3885 90.273 82.6944 88.1331 80.822C87.286 80.287 86.3944 79.7074 85.5474 79.1725C88.0885 81.9811 91.0309 84.4776 94.1961 86.573C94.6865 87.1525 95.1769 87.7321 95.6228 88.3562C96.4252 89.5599 94.5974 89.2478 94.0178 89.1141C93.1708 88.9358 92.3683 88.7129 91.5659 88.4454C88.0439 87.2417 84.8341 85.0572 81.8917 82.8281C77.7902 79.7074 74.09 75.5614 71.3705 70.9695C70.5681 69.8996 69.8102 68.8742 69.0523 67.8042C70.0777 70.3453 71.4151 72.7973 73.02 75.0264C73.1092 75.2047 73.1984 75.4276 73.2875 75.6059C73.3321 75.6951 74.4466 78.6375 73.2875 77.6121C71.3705 75.8734 69.8102 73.6889 68.5173 71.4599C67.269 69.32 66.2882 67.0018 65.4412 64.6835C65.0846 63.7027 64.6833 62.7219 64.3712 61.7857C63.9254 60.8495 63.5242 59.9133 63.123 58.9771C63.435 60.8941 64.0592 62.722 64.6833 64.5944C62.7663 61.3399 61.4735 57.9963 60.4927 54.3853C60.5373 55.2323 60.5373 56.0348 60.6264 56.8818C60.8493 57.818 61.1168 58.7096 61.4289 59.6459C62.1868 61.8749 63.4796 64.6835 65.2183 66.2885H65.2629C65.2629 66.333 65.3075 66.4222 65.3075 66.4668C66.5112 69.8995 68.2052 73.1986 70.4789 76.0518C70.9247 76.5868 73.555 80.3316 74.5804 78.6821C74.937 78.1471 74.6695 77.6121 74.4912 77.0325C74.4912 76.988 74.4912 76.988 74.4466 76.9434C77.5673 80.822 81.4905 84.1656 85.6811 86.7067C87.4198 87.7767 89.2476 88.6237 91.1646 89.2924C92.19 89.649 94.6865 90.6299 95.8011 90.0057C96.8264 89.4262 96.6481 88.6237 96.1131 87.8212C97.941 88.9358 99.9026 89.9611 101.82 90.8528C104.093 91.8781 106.857 92.9927 109.398 92.9035C109.666 92.9035 109.933 92.5469 109.978 92.2794C110.067 91.0311 108.596 89.872 107.838 89.0249C107.526 88.6683 107.214 88.3116 106.857 87.9104C109.131 89.2032 111.583 90.0949 114.258 90.719C119.073 91.8335 123.664 91.3877 128.524 90.8528C129.282 90.7636 130.218 90.8973 130.664 90.1395C131.109 89.2032 130.129 88.0887 129.638 87.42Z" fill="#7E8189"/>
<path d="M23.847 45.1567C23.6687 42.0805 20.4143 39.3165 17.1598 38.4695C13.9054 37.5778 10.7401 38.1574 8.24358 39.8069C7.84235 39.9852 7.4857 40.2081 7.12905 40.5202C1.64555 45.4687 -0.316031 53.315 0.0406199 59.5118C0.0406199 59.6456 0.308108 59.5118 0.352689 59.4673C0.441852 59.3781 0.486433 59.2889 0.575596 59.1997C2.67092 57.5502 5.83619 56.3466 8.42191 55.1429C11.1414 53.8946 13.7271 52.5126 16.402 51.2197C19.0323 49.9714 22.4204 48.5448 23.535 46.3157C23.535 46.3603 23.5796 46.3603 23.6241 46.3157C23.7579 46.0037 23.847 45.6471 23.8916 45.335C23.8916 45.2904 23.847 45.2012 23.847 45.1567Z" fill="#8E380E"/>
<path d="M17.7841 50.1499C15.4659 51.309 13.1031 52.4681 10.7403 53.6273C7.66417 55.1876 3.83018 56.5251 1.11072 58.4866C4.67722 54.6526 9.93782 52.379 15.243 49.9716C17.6058 48.9016 19.9686 47.8763 22.2868 46.7172C22.5543 46.5834 22.8218 46.4497 23.0447 46.3159C22.1531 48.0546 19.7903 49.1691 17.7841 50.1499Z" fill="#C44D13"/>
<path d="M23.4457 45.2456C23.4457 45.3793 23.4012 45.5131 23.3566 45.6022C22.1975 47.0734 18.0514 48.5446 16.4911 49.1242C13.8608 50.105 11.2305 51.3978 8.82308 52.6461C6.99524 53.6269 5.16741 54.6968 3.65165 55.9451C2.71544 56.703 1.82381 57.5055 1.02135 58.3079C-0.360672 59.7791 0.441792 56.5692 0.530955 55.9005C1.06593 50.9074 2.93835 45.201 6.95066 41.0549C7.03983 40.9658 7.12899 40.9212 7.17357 40.832C7.3519 40.6983 7.53022 40.5645 7.70855 40.4308C8.02062 40.2525 8.37727 40.0741 8.73392 39.9404C9.13515 39.7175 9.53638 39.5392 9.93761 39.3609C9.75929 39.3609 9.62554 39.4054 9.44722 39.4054C11.8546 38.3355 14.6632 38.1572 17.6502 38.9596C19.7009 39.4946 21.7962 41.2779 22.8662 43.1949C23.2228 43.6852 23.4903 44.2648 23.4012 44.8444C23.4457 44.889 23.4903 44.9335 23.5349 45.0227C23.4903 45.1564 23.4457 45.201 23.4457 45.2456Z" fill="#F89219"/>
<path opacity="0.3" d="M7.21798 40.9209C7.12882 40.9655 7.03965 41.0101 6.95049 41.0546C6.95049 41.0546 6.95049 41.0546 6.90591 41.0992C3.3394 44.7549 1.46699 49.6143 0.709106 54.1616C2.35862 49.6588 5.7468 45.4682 7.21798 40.9209Z" fill="white"/>
<path opacity="0.4" d="M23.4015 44.9343C23.4907 44.3547 23.2232 43.7752 22.8666 43.2848C21.7966 41.3678 19.7013 39.5845 17.6505 39.0496C14.6636 38.2471 11.8996 38.3808 9.49217 39.4508C11.3646 39.0941 13.3262 38.9158 15.1986 39.4062C17.4722 39.9858 19.8796 42.9282 17.8735 44.8452C16.6698 46.0488 14.8865 46.5392 13.3707 47.3863C11.2308 48.6791 9.09093 49.972 7.08477 51.3986C4.27615 53.4047 1.82418 55.6784 0.620483 58.6208C0.709646 58.5762 0.84339 58.487 0.977134 58.3087C1.7796 57.4616 2.62664 56.7038 3.60743 55.9459C5.16778 54.6976 6.95103 53.6277 8.77886 52.6469C11.1863 51.3986 13.8166 50.1057 16.4469 49.125C18.0072 48.5454 22.1533 47.0742 23.3124 45.603C23.357 45.4693 23.357 45.3355 23.4015 45.2464C23.4015 45.2018 23.4461 45.1572 23.4907 45.1126C23.4907 45.0235 23.4461 44.9789 23.4015 44.9343Z" fill="#AC6007"/>
<path opacity="0.4" d="M28.8403 90.9859C26.1208 88.3556 25.2292 84.2096 25.4521 80.6431C25.4521 80.4648 25.2292 80.5985 25.2292 80.7322C24.9171 82.9167 24.8725 84.7 25.6304 86.7953C26.21 88.3556 27.1016 90.451 28.7065 91.2088C28.7511 91.2088 28.8848 91.0305 28.8403 90.9859Z" fill="#7E8189"/>
<path opacity="0.4" d="M31.9609 90.4946C30.5343 89.915 29.4643 89.2909 28.5281 88.0426C27.5919 86.8389 27.0569 85.7244 26.7894 84.2532C26.7449 84.1194 26.5665 84.2977 26.5665 84.3869C26.834 87.3293 28.5727 90.3608 31.738 90.8066C31.9163 90.8512 32.1392 90.5837 31.9609 90.4946Z" fill="#7E8189"/>
<path opacity="0.4" d="M33.6103 89.7374C32.4066 89.2916 31.292 88.5783 30.5787 87.4638C30.5341 87.3746 30.3558 87.5529 30.4004 87.6421C31.0245 88.7566 32.1391 89.782 33.4319 90.0495C33.5657 90.0941 33.7886 89.8266 33.6103 89.7374Z" fill="#7E8189"/>
<path opacity="0.4" d="M43.7751 71.9482C43.6859 71.859 43.463 72.082 43.5522 72.2157C45.6475 75.0689 46.227 78.6354 45.7366 82.1128C45.6921 82.3803 46.0487 82.1573 46.0933 82.0236C46.9403 78.5463 46.0487 74.6677 43.7751 71.9482Z" fill="#7E8189"/>
<path opacity="0.4" d="M43.7303 74.3117C43.6857 74.178 43.4628 74.4009 43.5074 74.49C44.4882 77.3432 44.934 80.1964 43.4182 82.9159C43.3291 83.0942 43.5074 83.1388 43.5965 83.0051C45.7364 80.5085 45.0232 77.0758 43.7303 74.3117Z" fill="#7E8189"/>
<path opacity="0.4" d="M43.0615 78.5473C43.0615 78.4136 42.8831 78.5473 42.8831 78.6365C42.8386 80.0185 42.7494 81.4897 42.3927 82.8271C41.9915 84.2537 40.9661 85.4574 39.9854 86.5274C39.8962 86.6165 39.9854 86.7948 40.1191 86.6611C42.5711 84.5658 43.106 81.7126 43.0615 78.5473Z" fill="#7E8189"/>
<path opacity="0.4" d="M40.6985 79.3494C40.6539 79.2156 40.4756 79.3939 40.5202 79.4831C40.7431 81.2218 40.0298 83.4508 39.1381 84.922C39.049 85.1004 39.2273 85.1449 39.361 85.0112C40.431 83.6292 41.0551 81.088 40.6985 79.3494Z" fill="#7E8189"/>
<path opacity="0.4" d="M48.4559 75.3378C48.4114 75.1595 48.1885 75.3824 48.1885 75.5162C48.4559 77.4778 48.1439 79.1719 47.2077 80.9551C47.0739 81.178 47.2968 81.2672 47.4752 81.0888C48.8126 79.4839 48.9018 77.2103 48.4559 75.3378Z" fill="#7E8189"/>
<path d="M72.3962 59.0649C70.3454 56.0334 68.6068 52.8681 67.1802 49.4799C67.091 49.3016 66.8681 49.6137 66.9127 49.7474C67.9826 53.2694 68.9634 57.1034 72.0395 59.4662C72.1733 59.5553 72.4854 59.1987 72.3962 59.0649Z" fill="#716E72"/>
<path d="M79.9303 63.6118C78.4591 62.2298 76.8096 61.2044 75.4722 59.6886C73.7335 57.8162 72.9756 55.8547 72.0394 53.5364C71.9949 53.3581 71.6828 53.6256 71.7274 53.7594C72.2178 55.8101 72.5744 57.8162 73.9564 59.5103C75.5614 61.4719 77.2555 63.0322 79.6183 64.013C79.7966 64.1022 80.0641 63.7456 79.9303 63.6118Z" fill="#716E72"/>
<path d="M82.0257 69.0962C80.9557 68.4275 79.7074 68.1154 78.7266 67.313C77.6567 66.4659 76.7651 65.708 75.8734 64.6381C75.7843 64.5043 75.5168 64.8164 75.5614 64.9502C75.918 65.4851 76.1855 66.1093 76.5867 66.5997C77.0326 67.1792 77.6121 67.5359 78.1025 68.0263C78.9941 68.9179 80.4207 69.3192 81.5798 69.6758C81.8473 69.7204 82.2931 69.23 82.0257 69.0962Z" fill="#716E72"/>
<path d="M84.0762 81.5776C79.2169 78.1895 74.0008 73.6868 71.1922 68.3816C71.1031 68.2478 70.9247 68.4707 70.9693 68.6045C73.555 74.4892 78.3698 78.6799 83.8087 81.8897C83.9871 81.9789 84.21 81.6668 84.0762 81.5776Z" fill="#716E72"/>
<path d="M69.8105 69.0963C67.4922 65.7527 65.1294 61.4729 64.5944 57.3714C64.5944 57.1931 64.3715 57.416 64.3715 57.5052C64.327 61.7404 66.4669 66.5106 69.4984 69.4084C69.6321 69.5421 69.8996 69.23 69.8105 69.0963Z" fill="#716E72"/>
<path d="M102.355 87.0172C99.1002 85.4123 95.8903 83.7182 93.4384 80.9541C93.3492 80.8204 93.0371 81.1325 93.1263 81.2662C93.6167 81.9349 94.1517 82.5591 94.6866 83.1386C90.5852 81.0433 86.4391 78.1455 83.7642 74.4453C83.6305 74.2669 83.363 74.579 83.4522 74.7127C86.0379 79.26 90.9864 82.6928 95.9349 84.3423C97.6736 85.8135 99.6798 86.928 101.909 87.6859C102.265 87.8197 102.711 87.1955 102.355 87.0172Z" fill="#716E72"/>
<defs>
<linearGradient id="paint0_linear_171_369" x1="29.833" y1="37.7159" x2="32.0183" y2="32.2233" gradientUnits="userSpaceOnUse">
<stop stop-color="#C0E7F7"/>
<stop offset="0.0632" stop-color="#B6D4DE"/>
<stop offset="0.1967" stop-color="#9CA39E"/>
<stop offset="0.3132" stop-color="#837562"/>
<stop offset="0.4503" stop-color="#7E715E"/>
<stop offset="0.6132" stop-color="#706454"/>
<stop offset="0.7891" stop-color="#584E43"/>
<stop offset="0.9732" stop-color="#36312B"/>
<stop offset="1" stop-color="#312C27"/>
</linearGradient>
<linearGradient id="paint1_linear_171_369" x1="7.88337" y1="36.8805" x2="8.42465" y2="31.406" gradientUnits="userSpaceOnUse">
<stop stop-color="#C0E7F7"/>
<stop offset="0.0632" stop-color="#B6D4DE"/>
<stop offset="0.1967" stop-color="#9CA39E"/>
<stop offset="0.3132" stop-color="#837562"/>
<stop offset="0.4503" stop-color="#7E715E"/>
<stop offset="0.6132" stop-color="#706454"/>
<stop offset="0.7891" stop-color="#584E43"/>
<stop offset="0.9732" stop-color="#36312B"/>
<stop offset="1" stop-color="#312C27"/>
</linearGradient>
</defs>
</svg>
