<svg width="170" height="204" viewBox="0 0 170 204" fill="none" xmlns="http://www.w3.org/2000/svg">
<path d="M132.181 191.131C131.78 189.392 130.665 188.054 130.442 186.271C130.442 186.227 130.442 186.227 130.398 186.227C130.264 184.978 130.086 183.73 129.952 182.526C129.774 181.144 129.863 179.762 129.64 178.38C129.328 176.151 129.774 173.833 129.417 171.559C129.462 171.515 129.462 171.47 129.462 171.47C129.372 170.579 128.882 169.464 128.258 168.795C127.589 168.082 126.118 168.439 125.36 168.572C124.691 168.706 123.755 169.018 123.265 169.598C122.73 170.222 123.176 170.712 123.488 171.426C123.488 171.47 123.577 171.426 123.577 171.381C126.029 176.017 125.717 181.546 126.073 186.672C125.494 188.901 122.239 189.08 120.412 189.347C118.673 189.615 116.934 190.016 115.151 190.283C111.986 190.774 108.508 191.844 105.878 193.761C105.834 193.805 105.611 194.028 105.744 194.117C106.19 194.385 106.77 194.34 107.349 194.207C108.598 194.296 109.534 195.366 110.158 196.436C110.559 197.104 111.763 198.709 111.317 199.556C111.183 199.779 111.094 200.002 111.05 200.225C111.05 200.314 111.05 200.359 111.139 200.403C111.807 200.671 112.877 199.913 113.412 199.646C113.591 199.556 113.769 199.467 113.947 199.333C116.756 198.754 119.654 198.219 122.418 199.244C123.532 199.646 124.602 200.181 125.628 200.76C125.628 200.76 125.628 200.76 125.628 200.716C125.717 200.805 125.761 200.894 125.761 200.983C125.761 201.117 125.761 201.206 125.851 201.295C125.672 201.964 125.538 202.722 125.761 203.301C125.94 203.702 126.252 203.925 126.608 203.569C128.169 202.008 129.283 199.913 130.442 198.085C131.289 196.703 132.226 194.742 132.27 192.958L132.315 192.914C132.359 192.29 132.315 191.71 132.181 191.131Z" fill="#D0844B"/>
<path d="M110.604 196.393C109.98 195.323 109.133 194.209 107.974 193.986C108.241 193.897 108.464 193.852 108.687 193.808C110.292 193.585 111.763 193.139 113.368 192.782C116.266 192.158 119.52 191.222 122.552 191.802C120.501 193.139 118.227 194.164 116.177 195.457C114.973 196.215 113.858 197.062 112.789 197.998C112.476 198.266 112.12 198.578 111.763 198.935C111.763 198.043 110.961 196.973 110.604 196.393Z" fill="#F8DC8F"/>
<path d="M126.074 200.583C126.029 200.494 125.985 200.45 125.895 200.405C124.87 199.781 123.756 199.246 122.641 198.8C120.1 197.73 117.291 198.221 114.706 198.889C115.642 198.31 116.578 197.686 117.559 197.106C119.03 196.214 120.501 195.323 122.195 194.832C122.953 194.609 123.756 194.386 124.513 194.208C125.138 194.074 125.762 194.074 126.341 193.941C126.832 193.852 127.322 193.718 127.857 193.718C128.749 195.501 126.609 198.711 126.118 200.405C126.118 200.45 126.074 200.539 126.074 200.583Z" fill="#F8DC8F"/>
<path d="M129.863 198.311C129.284 199.247 128.659 200.094 128.124 201.03C127.812 201.521 127.5 202.011 127.188 202.457C126.921 203.036 126.564 202.947 126.163 202.189C126.163 201.877 126.207 201.61 126.297 201.298C126.609 199.202 127.902 197.375 128.481 195.368C128.57 195.056 128.615 194.789 128.615 194.521C128.615 194.298 128.57 194.075 128.526 193.853C128.303 193.184 127.768 193.006 127.188 192.827V192.872C127.411 193.006 127.545 193.139 127.723 193.273C127.545 193.273 127.367 193.273 127.144 193.273C126.698 193.273 126.297 193.273 125.851 193.318C124.87 193.541 123.845 193.853 122.864 194.075C121.749 194.298 120.724 194.744 119.743 195.279C118.45 195.948 117.202 196.706 115.998 197.508C114.795 198.311 113.457 199.247 112.075 199.648C111.317 199.871 112.788 198.534 112.744 198.534C113.279 197.999 113.858 197.553 114.438 197.107C115.686 196.171 116.979 195.368 118.361 194.61C120.323 193.496 122.329 192.515 124.023 191.044C124.068 190.91 124.068 190.776 124.112 190.598C123.8 190.821 123.488 191.089 123.176 191.311C120.635 190.464 117.425 191.401 114.884 191.936C113.546 192.248 112.298 192.56 111.005 192.961C110.203 193.184 109.311 193.228 108.509 193.362C107.885 193.451 106.993 193.897 106.369 193.719C110.069 191.267 114.616 190.732 118.852 189.929C120.991 189.528 125.137 189.484 126.163 187.076C126.163 187.299 126.207 187.522 126.207 187.7C126.297 187.567 126.386 187.433 126.475 187.299C126.564 184.357 126.386 181.414 126.118 178.472C125.851 175.574 125.227 172.944 123.533 170.581C123.399 169.065 125.36 168.798 126.653 168.709C128.169 168.575 128.749 170.046 129.194 171.294C129.462 173.702 128.971 176.243 129.194 178.65C129.417 181.593 129.506 184.535 130.443 187.344C130.576 188.325 130.933 189.127 131.423 190.108C131.78 190.866 132.003 191.668 132.092 192.426C131.78 194.61 130.978 196.572 129.863 198.311Z" fill="#F8DC8F"/>
<path d="M125.895 174.592C125.316 172.897 124.513 171.337 123.622 169.821C123.488 170.044 123.399 170.312 123.443 170.668C125.182 173.031 125.762 175.661 126.029 178.559C126.297 181.457 126.475 184.444 126.386 187.386C126.297 187.52 126.208 187.654 126.118 187.788C126.118 187.565 126.074 187.386 126.074 187.163C125.762 187.877 125.182 188.367 124.513 188.768C125.271 188.679 126.029 188.456 126.297 187.832C127.055 186.227 126.653 184.087 126.698 182.393C126.743 179.763 126.743 177.088 125.895 174.592Z" fill="#F8DC8F"/>
<path d="M116.266 195.901C116.89 195.634 117.514 195.366 118.138 195.143C120.635 194.073 123.488 192.914 125.271 190.819C124.602 191.042 123.978 191.354 123.354 191.666C121.794 192.87 120.011 193.761 118.272 194.742C117.559 195.099 116.89 195.5 116.266 195.901Z" fill="#F8DC8F"/>
<path d="M128.437 198.175C129.239 196.614 129.284 194.742 128.749 193.048C128.615 193.271 128.481 193.494 128.392 193.672C128.437 193.761 128.437 193.806 128.481 193.895C128.526 194.118 128.57 194.341 128.57 194.564C128.57 194.831 128.526 195.099 128.437 195.411C127.902 197.328 126.698 199.066 126.341 201.028C127.054 200.092 127.902 199.2 128.437 198.175Z" fill="#F8DC8F"/>
<path d="M132.181 191.131C131.78 189.392 130.665 188.054 130.442 186.271C130.442 186.227 130.442 186.227 130.398 186.227C130.264 184.978 130.086 183.73 129.952 182.526C129.774 181.144 129.863 179.762 129.64 178.38C129.328 176.151 129.774 173.833 129.417 171.559C129.462 171.515 129.462 171.47 129.462 171.47C129.372 170.579 128.882 169.464 128.258 168.795C127.589 168.082 126.118 168.439 125.36 168.572C124.691 168.706 123.755 169.018 123.265 169.598C122.73 170.222 123.176 170.712 123.488 171.426C123.488 171.47 123.577 171.426 123.577 171.381C124.112 172.362 124.513 173.432 124.781 174.502C125.271 174.234 125.895 174.279 126.519 174.948C128.303 176.82 127.723 180.03 127.768 182.393C127.768 184.443 127.99 186.316 128.971 188.144C129.595 189.303 130.309 190.462 130.442 191.799C130.754 194.162 129.863 196.792 128.392 198.665C128.213 198.888 127.901 198.62 127.946 198.397C128.124 197.194 128.615 196.034 128.748 194.786C128.837 193.895 128.748 192.914 127.589 192.869C126.876 192.825 126.118 192.914 125.405 193.092C121.749 193.939 118.539 195.678 115.285 197.416C115.017 197.55 114.75 197.238 114.973 197.015C116.488 195.41 118.405 194.385 120.367 193.404C121.348 192.914 122.819 192.379 124.023 191.621C124.023 191.576 124.023 191.576 124.023 191.532C124.513 190.417 120.768 190.818 120.233 190.908C118.985 191.041 117.692 191.309 116.444 191.487C113.992 191.888 111.54 192.2 109.222 193.137C108.286 193.538 106.993 194.117 105.967 193.716C105.923 193.716 105.923 193.761 105.878 193.761C105.834 193.805 105.611 194.028 105.744 194.117C106.19 194.385 106.77 194.34 107.349 194.207C107.528 194.207 107.751 194.251 107.929 194.34C109.311 193.761 110.916 193.672 112.387 193.315C114.126 192.914 115.953 192.513 117.737 192.825C117.96 192.869 118.004 193.137 117.87 193.27C115.953 195.321 113.323 196.347 111.094 197.996C111.362 198.576 111.54 199.155 111.317 199.556C111.183 199.779 111.094 200.002 111.05 200.225C111.05 200.314 111.05 200.359 111.139 200.403C111.807 200.671 112.877 199.913 113.412 199.646C113.591 199.556 113.769 199.467 113.947 199.333C114.126 199.289 114.304 199.244 114.482 199.244C116.578 198.041 118.762 196.881 121.036 196.079C121.972 195.722 124.469 194.207 125.36 195.277C126.341 196.436 124.959 198.353 123.755 199.824C124.424 200.136 125.048 200.448 125.628 200.76C125.628 200.76 125.628 200.76 125.628 200.716C125.717 200.805 125.761 200.894 125.761 200.983C125.761 201.117 125.761 201.206 125.851 201.295C125.672 201.964 125.538 202.722 125.761 203.301C125.94 203.702 126.252 203.925 126.608 203.569C128.169 202.008 129.283 199.913 130.442 198.085C131.289 196.703 132.226 194.742 132.27 192.958L132.315 192.914C132.359 192.29 132.315 191.71 132.181 191.131Z" fill="#D0844B"/>
<path d="M91.9241 185.961C91.5229 184.222 90.4084 182.885 90.1854 181.102C90.1854 181.057 90.1854 181.057 90.1409 181.057C90.0071 179.809 89.8288 178.561 89.6951 177.357C89.5167 175.975 89.6059 174.593 89.383 173.211C89.0709 170.982 89.5167 168.664 89.1601 166.39C89.2047 166.345 89.2047 166.301 89.2047 166.301C89.1155 165.409 88.6251 164.295 88.001 163.626C87.3323 162.913 85.8611 163.269 85.1032 163.403C84.4345 163.537 83.4982 163.849 83.0079 164.428C82.4729 165.052 82.9187 165.543 83.2308 166.256C83.2308 166.301 83.3199 166.256 83.3199 166.212C85.7719 170.848 85.4598 176.376 85.8165 181.503C85.2369 183.732 81.9825 183.91 80.1547 184.178C78.416 184.445 76.6773 184.847 74.8941 185.114C71.7288 185.604 68.2514 186.674 65.6211 188.591C65.5766 188.636 65.3537 188.859 65.4874 188.948C65.9332 189.216 66.5128 189.171 67.0923 189.037C68.3406 189.126 69.2768 190.196 69.901 191.266C70.3022 191.935 71.5059 193.54 71.0601 194.387C70.9263 194.61 70.8372 194.833 70.7926 195.056C70.7926 195.145 70.7926 195.189 70.8817 195.234C71.5505 195.501 72.6204 194.744 73.1554 194.476C73.3337 194.387 73.5121 194.298 73.6904 194.164C76.499 193.584 79.3968 193.049 82.1608 194.075C83.2754 194.476 84.3453 195.011 85.3707 195.591C85.3707 195.591 85.3707 195.591 85.3707 195.546C85.4598 195.635 85.5044 195.724 85.5044 195.814C85.5044 195.947 85.5044 196.036 85.5936 196.126C85.4153 196.794 85.2815 197.552 85.5044 198.132C85.6828 198.533 85.9948 198.756 86.3515 198.399C87.9118 196.839 89.0263 194.744 90.1854 192.916C91.0325 191.534 91.9687 189.572 92.0133 187.789L92.0579 187.744C92.147 187.076 92.0579 186.541 91.9241 185.961Z" fill="#D0844B"/>
<path d="M70.391 191.178C69.7669 190.108 68.9199 188.993 67.7607 188.77C68.0282 188.681 68.2512 188.636 68.4741 188.592C70.079 188.369 71.5502 187.923 73.1551 187.566C76.0529 186.942 79.3073 186.006 82.3388 186.586C80.2881 187.923 78.0144 188.948 75.9637 190.241C74.76 190.999 73.6455 191.846 72.5755 192.782C72.2635 193.05 71.9068 193.362 71.5501 193.719C71.5056 192.872 70.7477 191.802 70.391 191.178Z" fill="#F8DC8F"/>
<path d="M85.8608 195.411C85.8162 195.322 85.7716 195.278 85.6824 195.233C84.6571 194.609 83.5426 194.074 82.428 193.628C79.8869 192.558 77.0783 193.049 74.4926 193.717C75.4288 193.138 76.365 192.514 77.3458 191.934C78.8169 191.042 80.2881 190.151 81.9822 189.66C82.7401 189.438 83.5425 189.215 84.3004 189.036C84.9246 188.903 85.5487 188.902 86.1283 188.769C86.6187 188.68 87.1091 188.546 87.644 188.546C88.5357 190.329 86.3958 193.539 85.9054 195.233C85.8608 195.278 85.8608 195.322 85.8608 195.411Z" fill="#F8DC8F"/>
<path d="M89.6503 193.139C89.0707 194.075 88.4465 194.922 87.9116 195.858C87.5995 196.349 87.2874 196.839 86.9754 197.285C86.7079 197.864 86.3512 197.775 85.95 197.017C85.95 196.705 85.9946 196.438 86.0837 196.126C86.3958 194.03 87.6887 192.203 88.2682 190.196C88.3574 189.884 88.402 189.617 88.402 189.349C88.402 189.126 88.3574 188.904 88.3128 188.681C88.0899 188.012 87.5549 187.834 86.9754 187.655V187.7C87.1983 187.834 87.332 187.967 87.5103 188.101C87.332 188.101 87.1537 188.101 86.9308 188.101C86.485 188.101 86.0837 188.101 85.6379 188.146C84.6571 188.369 83.6317 188.681 82.651 188.904C81.5364 189.127 80.5111 189.572 79.5303 190.107C78.2374 190.776 76.9892 191.534 75.7855 192.336C74.5818 193.139 73.2443 194.075 71.8623 194.476C71.1044 194.699 72.5756 193.362 72.531 193.362C73.066 192.827 73.6455 192.381 74.2251 191.935C75.4734 190.999 76.7662 190.196 78.1483 189.439C80.1098 188.324 82.116 187.343 83.8101 185.872C83.8547 185.738 83.8547 185.605 83.8993 185.426C83.5872 185.649 83.2751 185.917 82.9631 186.14C80.4219 185.292 77.2121 186.229 74.6709 186.764C73.3335 187.076 72.0852 187.388 70.7923 187.789C69.9899 188.012 69.0983 188.057 68.2958 188.19C67.6717 188.279 66.78 188.725 66.1559 188.547C69.8561 186.095 74.4034 185.56 78.6387 184.757C80.7786 184.356 84.9246 184.312 85.95 181.904C85.95 182.127 85.9946 182.35 85.9946 182.528C86.0837 182.395 86.1729 182.261 86.2621 182.127C86.3512 179.185 86.1729 176.243 85.9054 173.3C85.6379 170.402 85.0138 167.772 83.3197 165.409C83.1859 163.893 85.1475 163.626 86.4404 163.537C87.9562 163.403 88.5357 164.874 88.9815 166.123C89.249 168.53 88.7586 171.071 88.9815 173.478C89.2044 176.421 89.2936 179.363 90.2298 182.172C90.3635 183.153 90.7202 183.955 91.2106 184.936C91.5672 185.694 91.7902 186.496 91.8793 187.254C91.5227 189.439 90.7202 191.4 89.6503 193.139Z" fill="#F8DC8F"/>
<path d="M85.6828 169.378C85.1032 167.684 84.3008 166.124 83.4092 164.608C83.2754 164.831 83.1863 165.098 83.2308 165.455C84.9695 167.818 85.5491 170.448 85.8166 173.346C86.084 176.244 86.2623 179.231 86.1732 182.173C86.084 182.307 85.9949 182.44 85.9057 182.574C85.9057 182.351 85.8611 182.173 85.8611 181.95C85.549 182.663 85.0141 183.154 84.3008 183.555C85.0587 183.466 85.8165 183.243 86.084 182.619C86.8419 181.014 86.4407 178.874 86.4853 177.18C86.5298 174.594 86.5298 171.875 85.6828 169.378Z" fill="#F8DC8F"/>
<path d="M76.0087 190.688C76.6328 190.42 77.2569 190.153 77.8811 189.93C80.3776 188.86 83.2309 187.701 85.0141 185.605C84.3454 185.828 83.7213 186.14 83.0971 186.453C81.5368 187.656 79.7535 188.548 78.0148 189.529C77.3461 189.885 76.6774 190.287 76.0087 190.688Z" fill="#F8DC8F"/>
<path d="M88.1793 193.007C88.9818 191.446 89.0264 189.574 88.4914 187.88C88.3576 188.103 88.2239 188.326 88.1347 188.504C88.1793 188.593 88.1793 188.638 88.2239 188.727C88.2685 188.95 88.3131 189.173 88.3131 189.396C88.3131 189.663 88.2685 189.931 88.1793 190.243C87.6443 192.16 86.4406 193.898 86.084 195.86C86.7973 194.924 87.6443 194.032 88.1793 193.007Z" fill="#F8DC8F"/>
<path d="M91.9241 185.961C91.5229 184.222 90.4084 182.885 90.1854 181.102C90.1854 181.057 90.1854 181.057 90.1409 181.057C90.0071 179.809 89.8288 178.561 89.6951 177.357C89.5167 175.975 89.6059 174.593 89.383 173.211C89.0709 170.982 89.5167 168.664 89.1601 166.39C89.2047 166.345 89.2047 166.301 89.2047 166.301C89.1155 165.409 88.6251 164.295 88.001 163.626C87.3323 162.913 85.8611 163.269 85.1032 163.403C84.4345 163.537 83.4982 163.849 83.0079 164.428C82.4729 165.052 82.9187 165.543 83.2308 166.256C83.2308 166.301 83.3199 166.256 83.3199 166.212C83.8549 167.192 84.2561 168.262 84.5236 169.332C85.014 169.065 85.6382 169.109 86.2623 169.778C88.0456 171.65 87.466 174.86 87.5106 177.223C87.5106 179.274 87.7335 181.146 88.7143 182.974C89.3384 184.133 90.0517 185.292 90.1854 186.63C90.4975 188.993 89.6059 191.623 88.1347 193.495C87.9564 193.718 87.6443 193.451 87.6889 193.228C87.8672 192.024 88.3576 190.865 88.4914 189.617C88.5805 188.725 88.4914 187.744 87.3322 187.7C86.6189 187.655 85.8611 187.744 85.1478 187.923C81.4921 188.77 78.2822 190.508 75.0278 192.247C74.7603 192.381 74.4928 192.069 74.7157 191.846C76.2315 190.241 78.1485 189.215 80.1101 188.235C81.0908 187.744 82.562 187.209 83.7657 186.451C83.7657 186.407 83.7657 186.407 83.7657 186.362C84.2561 185.248 80.5113 185.649 79.9763 185.738C78.728 185.872 77.4352 186.139 76.1869 186.318C73.7349 186.719 71.283 187.031 68.9647 187.967C68.0285 188.368 66.7357 188.948 65.7103 188.547C65.6657 188.547 65.6657 188.591 65.6211 188.591C65.5766 188.636 65.3537 188.859 65.4874 188.948C65.9332 189.216 66.5128 189.171 67.0923 189.037C67.2707 189.037 67.4936 189.082 67.6719 189.171C69.0539 188.591 70.6589 188.502 72.13 188.146C73.8687 187.744 75.6965 187.343 77.4798 187.655C77.7027 187.7 77.7473 187.967 77.6135 188.101C75.6965 190.152 73.0662 191.177 70.8372 192.827C71.1047 193.406 71.283 193.986 71.0601 194.387C70.9263 194.61 70.8372 194.833 70.7926 195.056C70.7926 195.145 70.7926 195.189 70.8817 195.234C71.5505 195.501 72.6204 194.744 73.1554 194.476C73.3337 194.387 73.5121 194.298 73.6904 194.164C73.8687 194.119 74.047 194.075 74.2253 194.075C76.3207 192.871 78.5051 191.712 80.7788 190.91C81.715 190.553 84.2116 189.037 85.1032 190.107C86.084 191.266 84.7019 193.183 83.4983 194.654C84.167 194.922 84.7911 195.279 85.3707 195.591C85.3707 195.591 85.3707 195.591 85.3707 195.546C85.4598 195.635 85.5044 195.724 85.5044 195.814C85.5044 195.947 85.5044 196.036 85.5936 196.126C85.4153 196.794 85.2815 197.552 85.5044 198.132C85.6828 198.533 85.9948 198.756 86.3515 198.399C87.9118 196.839 89.0263 194.744 90.1854 192.916C91.0325 191.534 91.9687 189.572 92.0133 187.789L92.0579 187.744C92.147 187.076 92.0579 186.541 91.9241 185.961Z" fill="#D0844B"/>
<path d="M97.5858 161.309C97.4074 160.64 95.1784 161.755 94.8663 161.844C90.8986 163.137 85.1921 158.857 81.1798 159.838C80.6448 159.972 78.9953 159.883 78.4158 161.443C79.0399 164.341 80.1099 167.06 82.0714 169.468C82.3835 169.869 82.6956 170.27 83.0076 170.716C83.0522 170.76 83.0968 170.805 83.1414 170.894C84.0776 172.053 85.2813 173.747 85.5934 175.308C85.6379 175.441 85.6825 175.575 85.7717 175.664C85.8163 175.664 85.8609 175.62 85.9054 175.531C86.0838 174.996 86.0838 174.416 86.0838 173.836C86.1283 174.327 86.2175 174.862 86.3958 175.263C86.5296 175.531 86.8416 175.352 87.02 175.263C88.0453 174.594 88.8032 173.079 89.249 171.875C89.3828 172.098 89.5165 172.276 89.5611 172.365C89.7394 172.722 89.8286 173.123 90.0515 173.435C90.0961 173.48 90.1852 173.48 90.2298 173.435C91.5227 172.276 92.4143 170.76 93.3059 169.289C94.3759 167.461 95.4013 165.633 96.4712 163.806C96.6941 163.226 97.7641 162.067 97.5858 161.309Z" fill="white"/>
<path d="M85.7273 175.93C85.5935 175.93 85.5044 175.841 85.4598 175.752L85.2815 175.395V175.351C85.014 173.835 83.7657 172.185 82.8741 171.071C82.8741 171.026 82.8295 171.026 82.8295 170.982C82.7849 170.937 82.7849 170.937 82.7403 170.892C82.3837 170.402 82.1162 170.001 81.8041 169.644C80.0209 167.46 78.8618 164.874 78.1039 161.486C78.1039 161.441 78.1039 161.397 78.1039 161.307C78.6834 159.881 80.0209 159.703 80.7342 159.613C80.8679 159.613 80.9571 159.569 81.0463 159.569C81.4921 159.48 81.9379 159.435 82.4283 159.435C84.1224 159.435 86.0394 160.059 87.8672 160.639C89.6505 161.218 91.5229 161.842 93.1278 161.842C93.7074 161.842 94.2423 161.753 94.7327 161.619C94.7773 161.619 94.8665 161.575 95.0002 161.53C95.5352 161.307 96.5159 160.862 97.1401 160.862C97.6305 160.862 97.7642 161.129 97.8088 161.263C97.9871 161.932 97.363 162.779 96.9172 163.447C96.7835 163.626 96.6497 163.804 96.6051 163.938C96.0702 164.829 95.5352 165.766 95.0448 166.657C94.5098 167.593 93.9748 168.53 93.4399 169.421C92.5482 170.892 91.6566 172.453 90.3192 173.656C90.23 173.701 90.1408 173.746 90.0517 173.746C89.9179 173.746 89.8288 173.701 89.7396 173.567C89.6059 173.344 89.5167 173.121 89.4275 172.854C89.383 172.72 89.3384 172.587 89.2492 172.453C88.6251 173.969 87.9118 174.994 87.1093 175.484C87.0201 175.573 86.7972 175.663 86.5743 175.663C86.396 175.663 86.2623 175.573 86.1285 175.44C86.1285 175.484 86.0839 175.529 86.0839 175.573C86.0394 175.841 85.861 175.93 85.7273 175.93ZM86.0394 173.567C86.1731 173.567 86.3069 173.656 86.3069 173.79C86.3514 174.325 86.4406 174.771 86.6189 175.128C86.6635 175.128 86.7972 175.038 86.8418 174.994C87.5997 174.504 88.3576 173.389 88.9371 171.739C88.9817 171.65 89.0709 171.561 89.1601 171.561C89.2492 171.561 89.383 171.606 89.4275 171.695L89.4721 171.784C89.6059 171.962 89.695 172.141 89.7396 172.23C89.8288 172.364 89.8734 172.497 89.9179 172.676C89.9625 172.809 90.0517 172.988 90.0963 173.121C91.3 172.007 92.147 170.58 92.9495 169.154C93.4844 168.218 94.0194 167.326 94.5544 166.39C95.0894 165.498 95.5798 164.562 96.1147 163.67C96.2039 163.537 96.3377 163.358 96.4714 163.135C96.828 162.6 97.4076 161.842 97.3184 161.397C97.3184 161.397 97.2738 161.397 97.1847 161.397C96.6943 161.397 95.7581 161.798 95.2677 162.021C95.1339 162.065 95.0002 162.11 94.9556 162.155C94.4206 162.333 93.8411 162.422 93.1724 162.422C91.4783 162.422 89.5613 161.798 87.7335 161.218C85.9502 160.639 84.0778 160.015 82.4729 160.015C82.0271 160.015 81.6258 160.059 81.2246 160.148C81.1354 160.193 81.0017 160.193 80.8233 160.193C80.1546 160.282 79.1293 160.416 78.6389 161.486C79.3522 164.74 80.5113 167.237 82.2054 169.332C82.5174 169.689 82.7849 170.09 83.1416 170.58L83.1861 170.625C83.2307 170.67 83.2307 170.67 83.2753 170.714C84.1224 171.784 85.2815 173.3 85.6827 174.816C85.7273 174.504 85.7273 174.147 85.7273 173.835C85.7719 173.701 85.861 173.567 86.0394 173.567Z" fill="#B5B5B5"/>
<path opacity="0.5" d="M97.5862 161.307C97.4079 160.638 95.1788 161.752 94.8668 161.842C90.899 163.134 85.1926 158.855 81.1803 159.835C80.6453 159.969 78.9958 159.88 78.4163 161.44C78.6837 162.6 78.9958 163.759 79.4416 164.829C81.8045 166.3 85.1926 166.389 86.753 168.841C87.8229 170.49 87.9121 172.407 87.9567 174.369C88.4916 173.656 88.9374 172.719 89.2049 171.917C89.3387 172.14 89.4724 172.318 89.517 172.407C89.6953 172.764 89.7845 173.165 90.0074 173.477C90.052 173.522 90.1411 173.522 90.1857 173.477C91.4786 172.318 92.3702 170.802 93.2618 169.331C94.3318 167.503 95.3572 165.676 96.4271 163.848C96.6946 163.224 97.7646 162.065 97.5862 161.307Z" fill="#B5B5B5"/>
<path d="M114.26 163.759C114.304 164.517 115.642 165.364 116.088 165.765C117.648 167.236 119.119 168.707 120.68 170.179C121.928 171.382 123.221 172.586 124.781 173.344C124.826 173.389 124.915 173.344 124.915 173.299C125.049 172.943 125.004 172.541 125.093 172.14C125.093 172.051 125.182 171.828 125.227 171.605C125.985 172.631 127.099 173.923 128.303 174.236C128.526 174.28 128.838 174.369 128.883 174.057C128.972 173.567 128.883 173.076 128.793 172.586C128.927 173.121 129.105 173.656 129.418 174.146C129.507 174.325 129.685 174.236 129.64 174.057C129.418 172.452 130.175 170.357 130.755 168.93C131.335 167.504 132.182 166.345 133.073 165.186C133.608 164.784 134.143 164.249 133.608 163.67C132.939 162.912 130.309 163.313 129.418 163.358C125.271 163.536 121.081 163.714 116.935 163.536C116.712 163.491 114.26 163.046 114.26 163.759Z" fill="white"/>
<path d="M128.615 174.549C128.481 174.549 128.347 174.504 128.258 174.504C127.367 174.236 126.386 173.479 125.36 172.186C125.316 172.319 125.316 172.453 125.316 172.587C125.271 172.854 125.271 173.077 125.182 173.345C125.137 173.479 125.004 173.612 124.825 173.612C124.781 173.612 124.692 173.612 124.647 173.568C123.042 172.81 121.749 171.562 120.501 170.358C119.743 169.645 118.941 168.887 118.183 168.129C117.425 167.415 116.667 166.658 115.909 165.944C115.82 165.855 115.642 165.721 115.463 165.588C114.795 165.097 113.992 164.429 113.992 163.715C113.992 163.581 114.037 163.448 114.126 163.314C114.304 163.136 114.661 163.047 115.24 163.047C115.775 163.047 116.355 163.136 116.712 163.18C116.845 163.18 116.935 163.225 116.979 163.225C118.094 163.269 119.253 163.269 120.501 163.269C123.443 163.269 126.297 163.136 129.462 163.002C129.64 163.002 129.819 162.957 130.086 162.957C130.576 162.913 131.201 162.868 131.78 162.868C132.85 162.868 133.519 163.047 133.831 163.448C134.054 163.671 134.143 163.938 134.098 164.206C134.054 164.696 133.653 165.053 133.296 165.365C132.493 166.435 131.646 167.594 131.022 169.02C130.443 170.402 129.685 172.453 129.908 174.013C129.908 174.147 129.908 174.281 129.819 174.37C129.64 174.548 129.328 174.504 129.194 174.281C129.15 174.236 129.15 174.192 129.105 174.147C129.105 174.415 128.882 174.549 128.615 174.549ZM125.271 171.294C125.36 171.294 125.45 171.339 125.494 171.383C126.52 172.81 127.545 173.701 128.437 173.924C128.526 173.924 128.704 173.969 128.704 173.969C128.749 173.568 128.704 173.122 128.615 172.587C128.57 172.453 128.659 172.319 128.838 172.275C128.971 172.23 129.105 172.319 129.15 172.453C129.239 172.765 129.328 173.033 129.462 173.345C129.462 171.784 130.131 170.001 130.666 168.753C131.29 167.237 132.181 166.033 133.028 164.919L133.073 164.874C133.296 164.696 133.697 164.384 133.742 164.072C133.742 163.983 133.697 163.849 133.608 163.715C133.474 163.537 133.073 163.359 131.958 163.359C131.379 163.359 130.799 163.403 130.309 163.448C130.041 163.492 129.819 163.492 129.685 163.492C126.52 163.626 123.666 163.76 120.724 163.76C119.476 163.76 118.317 163.76 117.157 163.715C117.113 163.715 116.979 163.715 116.845 163.671C116.489 163.626 115.954 163.537 115.463 163.537C114.839 163.537 114.705 163.671 114.705 163.671C114.705 164.116 115.463 164.696 115.998 165.097C116.177 165.231 116.355 165.365 116.489 165.499C117.247 166.212 118.005 166.97 118.762 167.683C119.52 168.441 120.278 169.154 121.081 169.912C122.24 171.027 123.488 172.186 124.915 172.944C124.959 172.81 124.959 172.631 124.959 172.498C124.959 172.364 125.004 172.186 125.004 172.052C125.004 171.963 125.093 171.784 125.138 171.606L125.182 171.517C125.227 171.428 125.316 171.339 125.405 171.339C125.227 171.294 125.227 171.294 125.271 171.294Z" fill="#B5B5B5"/>
<path opacity="0.5" d="M133.697 163.624C133.028 162.866 130.398 163.268 129.506 163.312C125.36 163.491 121.17 163.669 117.024 163.491C116.711 163.491 114.259 163.045 114.304 163.714C114.349 164.471 115.686 165.318 116.132 165.72C117.202 166.745 118.272 167.77 119.342 168.796C120.545 168.528 121.705 168.172 122.908 167.993C123.889 167.86 125.271 167.681 125.984 168.573C127.143 170.044 127.456 172.006 127.768 173.878C127.946 173.967 128.169 174.056 128.347 174.101C128.57 174.146 128.882 174.235 128.927 173.923C129.016 173.432 128.927 172.942 128.838 172.451C128.971 172.986 129.15 173.521 129.462 174.012C129.551 174.19 129.729 174.101 129.685 173.923C129.462 172.318 130.22 170.222 130.799 168.796C131.379 167.369 132.226 166.21 133.117 165.051C133.652 164.739 134.187 164.248 133.697 163.624Z" fill="#B5B5B5"/>
<path d="M169.808 83.0226C169.852 82.8889 169.763 82.7551 169.629 82.7997C168.961 83.0226 168.693 83.8697 168.158 84.2709C167.891 84.4938 167.623 84.9842 167.445 85.2517C166.821 86.1879 166.197 87.1687 165.572 88.1494C164.904 89.0856 164.503 90.4231 164.101 91.5822C164.146 90.3339 164.19 89.1302 164.324 87.882C164.725 83.5576 166.286 79.7681 168.871 76.2908C168.961 76.1571 169.005 75.8896 168.782 75.9341C167.579 76.2908 166.464 77.4499 165.662 78.3861C164.369 79.8127 163.522 81.5514 162.63 83.2009C162.006 84.36 161.56 85.5637 161.159 86.812C161.293 84.3154 160.936 81.7743 160.356 79.3224C159.955 77.7174 159.465 76.1125 158.841 74.5521C158.395 73.393 157.86 71.7881 156.879 70.9411C156.835 70.8965 156.745 70.9411 156.701 70.9411C156.255 71.2531 156.3 71.6989 156.3 72.1893C156.389 73.6159 156.656 75.0425 156.79 76.5137C156.879 77.762 156.968 79.0103 156.968 80.2585C156.656 79.1886 156.3 78.2078 155.809 77.227C155.23 76.0233 154.383 74.8642 153.446 73.8834C152.555 72.9472 151.44 71.8327 150.147 71.4314C149.969 71.3869 149.791 71.6544 149.791 71.7881C150.058 73.1701 150.593 74.5967 150.95 75.9788C151.44 77.7174 151.886 79.4561 152.243 81.2393C152.599 83.0672 152.688 84.895 152.688 86.7674C152.688 86.8566 152.688 86.9903 152.688 87.0795C152.688 87.0349 152.644 86.9458 152.644 86.9012C152.064 84.7613 150.816 82.0864 148.676 81.1056C148.542 81.061 148.32 81.3285 148.364 81.4622C149.211 84.6275 149.746 87.8374 149.3 91.0918C149.077 92.6968 148.542 94.257 147.963 95.7728C147.874 95.9511 147.785 96.1741 147.695 96.3524C142.39 98.2248 136.773 98.1803 131.156 97.779C121.794 97.1549 112.342 97.2886 103.069 98.6261C96.9172 99.5177 90.8988 101.212 84.9695 103.129C81.5367 104.243 77.5244 106.651 73.8241 105.224C70.0347 103.753 68.7419 98.8936 67.6273 95.4162C64.9079 86.9903 65.4874 77.762 66.6465 69.1132C67.7611 60.5982 70.0793 52.3061 71.7288 43.9248C72.5758 39.645 72.9325 35.3652 73.2 31.0408C73.4229 27.3405 73.0662 23.239 72.0409 19.6725C71.818 18.9147 71.5059 18.2014 71.1938 17.4881C70.7034 15.7048 69.9455 13.9661 68.8756 12.4058C67.2707 10.0876 64.9079 8.3043 62.4113 7.05602C60.3606 5.62942 57.6411 5.22819 55.2337 4.69322C53.4059 4.29199 51.4889 4.06908 49.6165 3.75702C47.8778 3.62327 46.2283 3.22203 44.98 2.28582C44.8463 2.19666 44.7125 2.06292 44.5788 1.97376C44.5342 1.92917 44.5342 1.92919 44.5342 1.88461C44.133 1.48338 43.7763 1.03756 43.4643 0.458008C43.1522 1.4388 43.3305 2.64248 43.6871 3.57869C44.0438 4.38115 44.5788 5.0053 45.2475 5.40654C44.6233 5.36196 44.0438 5.31736 43.5088 5.18362C42.4389 4.96071 41.8593 4.29199 41.0123 3.75702C40.9231 4.29199 40.9677 4.87156 41.0569 5.40654C41.4581 6.11984 41.9931 6.61022 42.6618 6.96688C42.3051 7.10062 41.9931 7.23436 41.6364 7.41268C40.299 8.0814 39.0953 8.88387 37.9807 9.82008C34.1467 12.3166 31.4719 16.1952 29.9561 20.475C29.1982 22.6595 29.1091 25.1115 29.2428 27.4297C29.332 29.2575 29.0199 31.0408 28.9753 32.824C28.7524 39.2883 31.249 45.8863 37.0891 49.1853C41.7702 51.8602 51.0876 51.5928 52.6034 51.6373C53.0046 52.4844 53.3613 53.376 53.6288 54.3568C54.1192 56.363 54.1192 58.5029 54.2529 60.5536C54.565 65.0563 53.5842 69.5144 52.5143 73.8388C50.4635 82.0418 47.1645 89.8435 45.1583 98.0465C43.2413 105.937 42.4389 114.14 43.4643 122.21C44.3559 129.209 46.4958 136.609 51.4889 141.781C53.5842 143.965 56.0808 144.946 58.5327 146.551C61.0739 148.201 62.3221 150.697 64.2837 152.882C69.8564 159.034 77.3015 163.358 85.1924 165.766C96.0256 169.065 107.84 169.733 118.985 167.861C136.149 164.963 155.096 157.741 162.853 140.889C165.528 135.049 167.267 127.827 167.668 121.407C168.069 115.121 167.267 108.88 166.776 102.594C166.553 99.2948 166.375 95.9512 166.821 92.6968C167.311 89.3532 168.515 86.1433 169.808 83.0226Z" fill="white"/>
<path d="M106.547 169.198C99.1464 169.198 91.9243 168.128 85.1033 166.077C76.6775 163.492 69.3661 159.034 64.0609 153.149C63.3922 152.436 62.8127 151.633 62.2777 150.92C61.1186 149.404 60.0486 147.977 58.3991 146.907C57.6858 146.417 56.928 146.016 56.2147 145.615C54.476 144.634 52.8264 143.653 51.3107 142.137C47.0309 137.679 44.3114 131.036 43.1969 122.388C42.2607 114.898 42.8403 106.74 44.891 98.1355C45.9164 93.9449 47.2984 89.7988 48.6358 85.7865C49.9287 81.9079 51.2661 77.9401 52.2469 73.9278C53.3168 69.6926 54.2977 65.1899 53.9856 60.7318C53.941 60.286 53.941 59.7956 53.8964 59.3052C53.8072 57.7448 53.7181 56.0953 53.3614 54.5796C53.1385 53.7771 52.871 52.9746 52.4252 52.083C52.2915 52.083 52.1577 52.083 51.9794 52.083C49.3491 52.083 41.2799 52.083 37.0001 49.631C31.6057 46.5549 28.5296 40.3581 28.7525 33.0468C28.7971 32.378 28.8417 31.6647 28.8863 30.996C28.9754 29.8815 29.0646 28.7669 29.02 27.6524C28.8863 25.6462 28.8863 23.016 29.7333 20.6086C31.3383 16.0167 34.2361 12.1827 37.8471 9.8199C39.0063 8.8837 40.2545 8.03665 41.5474 7.41251C41.7257 7.32335 41.904 7.23419 42.0823 7.14503C41.5474 6.78838 41.1461 6.29796 40.8341 5.76299C40.8341 5.71841 40.7895 5.71842 40.7895 5.67384C40.7003 5.09428 40.7003 4.51473 40.7449 3.93517C40.7449 3.84601 40.8341 3.75683 40.8787 3.71225C40.9678 3.66767 41.057 3.66767 41.1461 3.71225C41.3691 3.846 41.592 4.02432 41.8149 4.20265C42.3498 4.60388 42.8402 4.96052 43.509 5.09426C43.7764 5.13884 44.0439 5.18345 44.3114 5.22803C43.9102 4.8268 43.5535 4.33638 43.3306 3.84599C42.8848 2.82062 42.7957 1.52777 43.0631 0.546982C43.1077 0.457819 43.1969 0.368652 43.2861 0.368652C43.3752 0.368652 43.509 0.413228 43.5535 0.502391C43.821 0.992785 44.1777 1.43861 44.5789 1.83984C44.5789 1.83984 44.6235 1.88441 44.6235 1.92899C44.7572 2.01815 44.891 2.1519 45.0247 2.24106C46.0947 3.04352 47.5659 3.53392 49.5275 3.66766C50.3299 3.8014 51.0878 3.93516 51.8457 4.02432C52.9602 4.20264 54.1193 4.38099 55.1893 4.6039C55.5013 4.69306 55.858 4.73762 56.1701 4.82678C58.3545 5.2726 60.6282 5.7184 62.456 7.01126C65.3092 8.43786 67.5383 10.2657 69.0095 12.4502C70.0794 13.966 70.8819 15.7046 71.3723 17.6216C71.7289 18.3795 72.041 19.1374 72.2193 19.8061C73.2001 23.1497 73.6014 27.2066 73.3785 31.2635C73.2001 34.7855 72.8435 39.4665 71.9073 44.1475C71.3277 47.2237 70.6144 50.2997 69.9457 53.2867C68.7866 58.5027 67.5383 63.9416 66.825 69.336C65.755 77.4498 64.9972 86.901 67.7612 95.5052L67.9841 96.263C69.0541 99.6512 70.3915 103.842 73.7797 105.179C74.493 105.447 75.2954 105.581 76.1425 105.581C78.1932 105.581 80.3331 104.734 82.3393 103.976C83.1863 103.664 83.9442 103.352 84.7021 103.084C89.9627 101.39 96.2487 99.5175 102.847 98.5813C108.375 97.7788 114.304 97.3776 120.456 97.3776C123.8 97.3776 127.366 97.5113 130.978 97.7342C133.073 97.868 134.767 97.9126 136.327 97.9126C140.652 97.9126 144.174 97.4222 147.294 96.3077C147.383 96.1739 147.428 95.9956 147.473 95.8618C147.963 94.6135 148.543 92.9641 148.81 91.2254C149.211 88.4614 148.944 85.519 147.918 81.685C147.874 81.5067 147.963 81.2837 148.052 81.2392C148.186 81.1054 148.32 81.0162 148.453 81.0162C148.498 81.0162 148.587 81.0163 148.632 81.0609C150.46 81.9079 151.574 83.8249 152.243 85.4744C152.198 84.1369 152.109 82.7995 151.842 81.5066C151.485 79.8125 151.084 78.1185 150.593 76.2461C150.46 75.8003 150.326 75.3099 150.192 74.8641C149.925 73.9279 149.612 72.9471 149.434 72.0109C149.39 71.8771 149.479 71.6988 149.568 71.565C149.702 71.4313 149.835 71.3421 149.969 71.3421C150.014 71.3421 150.058 71.3421 150.103 71.3421C151.351 71.6988 152.51 72.7687 153.491 73.8386C154.472 74.9086 155.319 76.0677 155.898 77.2714C156.121 77.7172 156.3 78.1631 156.478 78.6089C156.433 77.9847 156.389 77.316 156.344 76.6918C156.3 76.0231 156.211 75.3099 156.121 74.6411C156.032 73.9278 155.943 73.1254 155.854 72.4121C155.809 71.9217 155.765 71.3421 156.344 70.8963C156.478 70.8072 156.701 70.7626 156.835 70.8963C157.682 71.6542 158.217 72.9917 158.663 74.1062C158.752 74.2845 158.796 74.4628 158.885 74.5965C159.465 76.0231 160 77.6281 160.401 79.3668C160.936 81.4621 161.204 83.3791 161.248 85.2515C161.516 84.4936 161.828 83.8249 162.184 83.2008L162.318 82.8886C163.165 81.2837 164.012 79.6788 165.216 78.2968C166.152 77.2268 167.267 76.1123 168.47 75.8002C168.693 75.7557 168.872 75.8003 168.961 75.9786C169.05 76.2015 168.961 76.4244 168.872 76.5581C166.241 80.1246 164.77 83.8695 164.369 88.0155C164.324 88.5951 164.28 89.2192 164.235 89.8879C164.503 89.2192 164.77 88.5951 165.127 88.1047C165.483 87.5697 165.885 86.9901 166.197 86.4552C166.464 86.0539 166.732 85.6527 166.999 85.2069C167.044 85.1177 167.088 85.0286 167.178 84.9394C167.356 84.6719 167.534 84.3153 167.802 84.137C167.98 84.0032 168.158 83.7803 168.337 83.5574C168.604 83.2008 168.872 82.7995 169.362 82.6212C169.54 82.5766 169.719 82.6212 169.808 82.7549C169.897 82.8886 169.897 83.0224 169.852 83.1562C168.649 86.1877 167.4 89.4421 166.955 92.7857C166.509 96.1739 166.687 99.6513 166.91 102.638C166.999 104.109 167.133 105.536 167.267 107.007C167.668 111.733 168.114 116.637 167.802 121.496C167.4 128.05 165.573 135.361 162.942 141.067C154.829 158.721 134.499 165.587 118.896 168.217C114.973 168.841 110.782 169.198 106.547 169.198ZM41.3691 5.45092C41.7257 6.07506 42.2161 6.52087 42.8403 6.87752C42.9294 6.9221 42.974 7.01129 42.974 7.14503C42.974 7.23419 42.8848 7.32334 42.7957 7.36792C42.3944 7.54624 42.0824 7.67998 41.8149 7.81372C40.5666 8.43786 39.3183 9.24036 38.2038 10.1766C34.6819 12.4948 31.8286 16.2396 30.2683 20.6977C29.4658 23.016 29.4659 25.5571 29.5996 27.5187C29.6888 28.6778 29.555 29.8369 29.4659 30.9514C29.4213 31.6202 29.3321 32.2889 29.3321 32.9576C29.0646 40.0906 32.0516 46.1091 37.3122 49.0514C41.5028 51.4143 49.4383 51.4589 52.0686 51.4589C52.3361 51.4589 52.559 51.4589 52.6927 51.4589C52.7819 51.4589 52.871 51.5034 52.9156 51.5926C53.3614 52.5734 53.7181 53.465 53.941 54.3566C54.3422 55.917 54.4314 57.5665 54.5205 59.1714C54.5651 59.6618 54.5651 60.1076 54.6097 60.5534C54.9218 65.1007 53.8964 69.648 52.8711 73.9278C51.8457 77.9401 50.5082 81.9525 49.2154 85.831C47.8779 89.8433 46.4959 93.9449 45.4705 98.1355C43.3752 106.651 42.8403 114.764 43.7765 122.209C44.8464 130.724 47.5213 137.278 51.7119 141.647C53.1385 143.163 54.7435 144.054 56.4821 145.035C57.1954 145.436 57.9533 145.882 58.7112 146.372C60.4499 147.487 61.5644 148.958 62.7681 150.519C63.3031 151.232 63.8826 152.034 64.5513 152.748C69.8119 158.588 76.9895 163.001 85.3262 165.542C92.1026 167.593 99.2802 168.663 106.636 168.663C110.827 168.663 114.973 168.307 119.03 167.638C134.544 165.007 154.695 158.231 162.675 140.8C165.261 135.138 167.044 127.916 167.49 121.407C167.802 116.592 167.4 111.733 166.955 107.007C166.821 105.536 166.687 104.109 166.598 102.638C166.375 99.6067 166.197 96.1294 166.643 92.6966C167.088 89.3976 168.292 86.2323 169.451 83.2453C169.273 83.3791 169.139 83.602 168.961 83.8249C168.782 84.0924 168.604 84.3599 168.337 84.5382C168.158 84.6719 167.98 84.9394 167.846 85.1623C167.802 85.2515 167.713 85.3407 167.668 85.4298C167.4 85.831 167.133 86.2323 166.865 86.6335C166.509 87.1685 166.152 87.748 165.751 88.283C165.171 89.0855 164.815 90.2 164.458 91.27L164.324 91.6712C164.28 91.8049 164.146 91.8495 164.012 91.8495C163.879 91.805 163.789 91.7158 163.789 91.5821C163.834 90.2 163.923 88.9963 164.012 87.8818C164.413 83.6912 165.84 79.9018 168.47 76.3353C167.49 76.7365 166.598 77.6727 165.796 78.5643C164.636 79.9018 163.789 81.5067 162.942 83.067L162.809 83.379C162.274 84.4044 161.828 85.5635 161.382 86.9456C161.337 87.0793 161.204 87.1685 161.07 87.1239C160.936 87.0793 160.847 86.9901 160.847 86.8564C160.981 84.5827 160.713 82.1308 160.045 79.4559C159.599 77.7173 159.108 76.1569 158.529 74.7303C158.484 74.552 158.395 74.3736 158.306 74.1953C157.905 73.2145 157.414 71.9663 156.701 71.2975C156.478 71.4759 156.478 71.7879 156.523 72.2783C156.567 72.9916 156.656 73.7495 156.79 74.5074C156.879 75.1761 156.968 75.8894 157.013 76.6027C157.102 77.851 157.191 79.1438 157.191 80.3921C157.191 80.5258 157.102 80.6596 156.968 80.6596C156.835 80.6596 156.701 80.615 156.656 80.4813C156.344 79.4113 155.988 78.386 155.542 77.4943C155.007 76.3352 154.204 75.2207 153.224 74.1953C152.287 73.1699 151.217 72.1891 150.103 71.8325L150.058 71.8771C150.237 72.7688 150.504 73.7049 150.816 74.6411C150.95 75.1315 151.084 75.5773 151.217 76.0232C151.752 77.8956 152.154 79.6343 152.51 81.3283C152.867 83.1562 152.956 84.984 152.956 86.901V87.213C152.956 87.3468 152.867 87.4806 152.733 87.4806C152.599 87.4806 152.466 87.436 152.421 87.3022L152.377 87.1239C152.02 85.8311 150.905 82.6658 148.632 81.5513C148.632 81.5513 148.632 81.5512 148.632 81.5958C149.657 85.4298 149.969 88.4613 149.523 91.3145C149.256 93.0978 148.676 94.7919 148.186 96.0402C148.141 96.2185 148.052 96.3523 147.963 96.5306L147.918 96.6197C147.874 96.7089 147.829 96.7534 147.74 96.7534C144.486 97.868 140.919 98.403 136.461 98.403C134.901 98.403 133.207 98.3584 131.067 98.2246C127.456 98.0017 123.934 97.868 120.59 97.868C114.438 97.868 108.553 98.2692 103.07 99.0717C96.5161 100.008 90.2748 101.88 85.0142 103.574C84.2563 103.797 83.4984 104.109 82.6513 104.421C80.556 105.224 78.4161 106.071 76.2317 106.071C75.2954 106.071 74.493 105.937 73.6905 105.625C70.0349 104.199 68.6974 99.8742 67.5829 96.3969L67.36 95.6389C64.5514 86.9455 65.3092 77.4052 66.3792 69.2022C67.0925 63.7633 68.3408 58.369 69.4999 53.1084C70.1686 50.1214 70.8819 47.0453 71.4615 43.9692C72.3531 39.2881 72.7097 34.6517 72.9326 31.1297C73.1556 27.162 72.7543 23.1943 71.7735 19.8507C71.5952 19.182 71.2831 18.4687 70.9265 17.6662C70.3915 15.7492 69.6336 14.0997 68.6083 12.6285C67.1817 10.5332 64.9972 8.74994 62.2331 7.36792C60.4499 6.11964 58.2654 5.67385 56.1255 5.22803C55.7688 5.13887 55.4568 5.09428 55.1001 5.00511C54.0302 4.78221 52.8711 4.60389 51.7565 4.42557C50.9986 4.29182 50.2407 4.20265 49.4383 4.06891C47.4321 3.89058 45.8718 3.40017 44.7127 2.55313C44.5789 2.46396 44.4452 2.33025 44.2669 2.1965C44.2669 2.1965 44.2223 2.1519 44.1777 2.10732C43.9102 1.83983 43.6427 1.57236 43.4198 1.21571C43.3306 1.92901 43.4644 2.77606 43.7765 3.48937C44.0885 4.20267 44.5789 4.78222 45.2476 5.22803C45.3368 5.27261 45.3814 5.40636 45.3368 5.5401C45.2922 5.67385 45.2031 5.71843 45.0693 5.71843C44.4452 5.67385 43.8656 5.62925 43.2861 5.49551C42.4836 5.31719 41.904 4.91595 41.3691 4.51472C41.2799 4.47013 41.1907 4.38097 41.1016 4.33639C41.2799 4.73762 41.3245 5.09427 41.3691 5.45092Z" fill="#B5B5B5"/>
<path opacity="0.5" d="M41.2351 3.97998C41.993 6.69944 46.3173 8.17064 48.9031 7.23443C47.521 6.69946 45.7378 6.25366 44.4004 5.40662C44.0883 5.36203 43.8208 5.31742 43.5533 5.27284C42.5725 5.04994 41.993 4.47037 41.2351 3.97998Z" fill="#B5B5B5"/>
<path opacity="0.5" d="M65.3092 113.383C64.9971 112.759 64.6405 112.135 64.2393 111.511C64.5513 112.135 64.908 112.759 65.3092 113.383Z" fill="#B5B5B5"/>
<path opacity="0.5" d="M169.629 82.8442C169.094 83.0225 168.827 83.5575 168.47 84.0033C167.4 85.6082 166.598 87.4806 165.974 89.1747C164.681 92.8304 163.878 96.6198 163.254 100.409C163.21 100.721 162.719 100.632 162.719 100.32C162.675 97.0656 163.254 93.9004 164.057 90.7351C164.101 89.7989 164.146 88.8181 164.235 87.8819C164.636 83.5575 166.197 79.7681 168.782 76.2907C168.871 76.157 168.916 75.8895 168.693 75.9341C168.158 76.0678 167.623 76.4245 167.133 76.8257C165.885 78.5198 164.859 80.4368 164.101 82.3538C162.318 86.8119 161.382 91.7159 161.649 96.5307C161.649 96.8428 161.159 96.8873 161.114 96.6198C160.579 93.187 160.758 89.8434 161.114 86.4553C161.204 84.0925 160.847 81.6851 160.267 79.3669C159.866 77.7619 159.376 76.157 158.752 74.5966C158.306 73.4821 157.771 71.8772 156.835 71.0302C160 76.6474 159.197 83.9141 158.529 90.0663C158.484 90.423 157.994 90.423 157.994 90.0663C158.083 85.5636 157.057 81.1947 155.586 77.004C155.007 75.8895 154.249 74.8195 153.402 73.9279C152.822 73.3038 152.153 72.635 151.351 72.1001C153.803 74.5966 154.962 78.5644 155.497 81.7742C156.21 85.8757 156.567 91.0026 154.427 94.792C154.293 95.0595 153.937 94.9257 153.937 94.6582C153.714 91.9388 153.357 89.2193 152.688 86.6336C152.688 86.6782 152.688 86.7673 152.688 86.8119C152.688 86.9011 152.688 87.0349 152.688 87.124C152.688 87.0794 152.644 86.9902 152.644 86.9457C152.064 84.8058 150.816 82.1309 148.676 81.1501C148.632 81.1055 148.542 81.1501 148.453 81.2393C152.555 85.4299 151.306 92.7412 149.033 97.6006C148.899 97.8681 148.542 97.6898 148.542 97.4669C148.498 96.709 148.319 95.9957 148.097 95.2824C148.052 95.4607 147.963 95.639 147.918 95.8174C147.829 95.9957 147.74 96.2186 147.651 96.3969C142.346 98.2694 136.728 98.2247 131.111 97.8235C121.749 97.1994 112.298 97.3331 103.025 98.6706C96.8727 99.5622 90.8542 101.256 84.9249 103.173C81.4921 104.288 77.4798 106.695 73.7795 105.269C69.9901 103.797 68.6973 98.938 67.5827 95.4607C64.8633 87.0348 65.4428 77.8065 66.6019 69.1578C67.7165 60.6427 70.0347 52.3506 71.6842 43.9693C72.5312 39.6895 72.8879 35.4097 73.1554 31.0853C73.3783 27.385 73.0216 23.2836 71.9963 19.7171C71.7734 18.9592 71.4613 18.2459 71.1492 17.5326C70.6589 15.7493 69.901 14.0106 68.831 12.4503C67.2261 10.1321 64.8633 8.34882 62.3667 7.10055C60.316 5.67394 57.5965 5.27272 55.1891 4.73774C53.3613 4.33651 51.4443 4.11361 49.5719 3.80154C48.4573 3.71238 47.3428 3.48946 46.362 3.13281C48.2344 4.51483 50.5973 5.45103 52.648 5.94142C55.4566 6.65472 58.4436 7.23429 60.8955 8.83922C62.7234 10.0429 64.3283 11.5587 65.4874 13.4311C67.3598 16.4626 68.3852 20.2966 68.5189 23.8631C68.5635 24.8439 68.6081 26.5826 67.6273 27.2067C67.0923 27.5634 66.5128 27.1175 66.0224 26.7609C64.8633 25.9138 63.615 25.7801 62.233 25.7801C62.0547 25.7801 61.9209 25.6018 61.9655 25.4234C62.545 23.1944 63.08 20.7424 62.6788 18.4242C62.3221 16.4626 60.6726 12.8961 58.0423 13.9215C56.0808 14.7239 54.4758 16.953 53.7625 18.9146C52.6926 21.8124 53.5396 24.5764 55.6795 26.7163C55.8133 26.8501 55.7687 27.073 55.6349 27.1175C54.2529 27.7863 52.8709 28.455 51.8009 29.525C55.1891 28.455 58.9785 27.9646 62.3221 29.3466C64.9524 30.4611 66.2899 33.9385 66.1561 36.6134C65.9778 39.8232 64.0162 41.9631 61.4305 43.5681C59.4244 44.8609 56.7049 46.555 54.2083 46.1983C53.9408 46.1538 53.9854 45.8417 54.1637 45.7079C55.1891 44.9501 56.3928 44.2813 57.2399 43.3451C58.399 42.0077 57.4628 40.8932 56.2591 39.957C56.0807 39.8232 56.2145 39.4666 56.4374 39.5111C57.2399 39.6003 57.9978 39.4666 58.7556 39.3329C55.1891 38.2183 52.2914 36.0338 50.2852 32.7794C49.0815 30.8624 48.0561 28.7225 47.4765 26.538C47.2091 25.4234 46.897 24.2643 46.9861 23.1052C47.0307 22.2582 47.3874 21.4112 47.3874 20.5195C44.3113 21.1437 41.0568 22.8824 38.5603 24.7102C36.5541 26.1368 34.6371 28.455 32.096 28.9008C31.9623 28.9454 31.7839 28.8562 31.7839 28.7225C31.4273 27.1175 32.0514 25.6018 31.9177 24.0414C31.7839 22.6148 30.9369 21.4557 29.5549 22.0799C29.1982 23.8185 29.1982 25.691 29.2874 27.4742C29.3766 29.302 29.0645 31.0853 29.0199 32.8686C28.797 39.3329 31.2935 45.9309 37.1337 49.2299C41.8147 51.9048 51.1322 51.6372 52.648 51.6818C53.0492 52.5289 53.4059 53.4205 53.6733 54.4013C54.1637 56.4074 54.1638 58.5473 54.2975 60.5981C54.3421 61.356 54.3421 62.1139 54.3421 62.8272C54.4312 62.6934 54.5204 62.6043 54.6096 62.4706C55.6795 61.044 56.9278 59.3053 58.6219 58.5474C61.4751 57.2545 61.6088 62.203 61.6088 63.7634C61.6088 67.6865 60.9401 71.6097 60.6281 75.5329C59.781 86.2324 58.8448 98.2693 62.9017 108.478C63.7933 109.86 64.8187 111.153 65.5766 112.625C66.9586 115.344 67.0923 118.197 66.9586 121.184C66.7803 124.171 66.4236 127.247 65.4428 130.1C65.3537 130.279 65.0416 130.412 64.9524 130.145C64.3729 128.897 64.1945 127.604 63.9271 126.266C64.2391 129.833 64.0608 133.622 61.8763 136.386C61.7426 136.565 61.4305 136.431 61.4305 136.208C61.4305 133.489 61.3859 130.769 60.8955 128.094C60.851 130.858 60.5389 133.845 58.9785 136.074C57.017 138.838 53.2721 137.813 50.9093 136.208C48.3236 134.469 46.4066 131.973 44.9354 129.253C46.1837 133.89 48.279 138.348 51.5781 141.825C53.6734 144.01 56.1699 144.991 58.6219 146.595C61.163 148.245 62.4113 150.742 64.3729 152.926C69.9455 159.078 77.3906 163.403 85.2815 165.81C96.1148 169.109 107.929 169.778 119.074 167.905C136.238 165.008 155.185 157.785 162.942 140.934C165.617 135.093 167.356 127.871 167.757 121.452C168.158 115.166 167.356 108.924 166.865 102.638C166.642 99.3393 166.464 95.9957 166.91 92.7412C167.356 89.3976 168.604 86.1878 169.852 83.0671C169.852 82.8888 169.763 82.7996 169.629 82.8442ZM143.728 112.981C139.804 121.897 131.646 130.502 121.704 132.196C123.532 132.151 125.36 131.839 127.099 131.438C129.729 130.858 132.315 130.1 134.767 128.941C135.034 128.808 135.302 129.12 135.079 129.343C132.315 132.24 128.704 134.336 125.003 135.762C122.641 136.698 120.144 137.456 117.603 137.768C123.8 138.303 130.353 136.877 136.238 134.781C136.505 134.692 136.639 135.049 136.505 135.227C131.245 141.914 121.437 145.526 113.1 145.347C106.056 145.213 99.6813 142.628 94.6436 138.08C94.8219 138.348 94.9557 138.615 95.134 138.883C96.6497 141.201 98.433 143.475 100.707 145.124C102.668 146.551 104.764 147.844 106.547 149.538C106.681 149.627 106.636 149.895 106.502 149.939C104.496 150.786 102.178 150.43 100.172 149.895C97.8088 149.226 95.4906 148.29 93.3953 147.041C90.3192 145.258 87.9118 142.895 86.0394 140.131C86.5298 141.335 87.0648 142.539 87.6443 143.698C87.7781 143.965 87.466 144.233 87.2431 144.01C81.0463 138.705 76.1869 132.463 73.7795 124.795C73.9133 128.183 74.8049 131.527 76.0086 134.781C76.0978 135.049 75.7411 135.227 75.5628 135.049C70.4805 130.368 67.449 120.248 72.13 114.319C74.5374 111.287 78.3714 109.593 82.1162 108.701C81.6704 108.657 81.18 108.612 80.7342 108.568C80.5113 108.568 80.333 108.166 80.6005 108.077C82.5175 107.23 84.702 106.829 86.7081 106.428C88.8926 106.027 91.1217 105.714 93.3507 105.536C97.8089 105.269 102.312 105.447 106.725 106.116C111.406 106.829 115.998 108.389 120.724 108.523C123.131 108.612 125.717 108.389 127.99 107.631C129.774 107.052 131.379 105.848 133.251 105.625C133.474 105.581 133.697 105.804 133.563 106.026C131.245 110.351 126.519 113.204 121.927 114.943C125.449 114.586 128.927 113.427 132.003 111.733C132.27 111.599 132.493 111.911 132.315 112.134C129.729 115.389 125.806 117.484 121.927 118.643C121.125 118.91 120.278 119.133 119.431 119.312C122.373 119.089 125.36 118.42 128.169 117.707C133.296 116.369 138.824 115.166 143.46 112.535C143.594 112.491 143.817 112.758 143.728 112.981Z" fill="#B5B5B5"/>
<path d="M59.0679 16.5965C58.8004 16.5073 58.4883 16.4627 58.1763 16.4627C56.393 16.4182 55.0556 18.2014 54.5206 19.8063C53.7181 22.1691 54.0302 25.2452 56.1701 26.6718C58.0871 27.9201 60.5391 26.8947 61.4753 24.7994C62.6344 22.1245 62.1886 17.4435 59.0679 16.5965Z" fill="url(#paint0_linear_171_1236)"/>
<path d="M59.0679 16.5965C58.8004 16.5073 58.4883 16.4627 58.1763 16.4627C56.393 16.4182 55.0556 18.2014 54.5206 19.8063C53.7181 22.1691 54.0302 25.2452 56.1701 26.6718C58.0871 27.9201 60.5391 26.8947 61.4753 24.7994C62.6344 22.1245 62.1886 17.4435 59.0679 16.5965ZM60.8511 24.309C60.0487 26.0477 57.998 26.9393 56.3484 25.8694C54.5206 24.6657 54.2977 22.08 54.9664 20.0738C55.4122 18.6918 56.5713 17.2206 58.0871 17.2206C58.3546 17.2206 58.6221 17.2652 58.845 17.3098C61.4753 18.0231 61.8765 21.9908 60.8511 24.309Z" fill="#A06476"/>
<path d="M61.1187 19.4499C61.297 20.2078 61.0741 20.9657 60.5837 21.0549C60.0933 21.1886 59.5583 20.6536 59.3354 19.8512C59.1571 19.0933 59.38 18.3354 59.8704 18.2463C60.3608 18.1571 60.9403 18.6475 61.1187 19.4499Z" fill="white"/>
<path d="M61.0294 22.2127C60.9848 22.4802 60.8065 22.6585 60.6282 22.6139C60.4499 22.5693 60.3607 22.3465 60.4053 22.079C60.4499 21.8115 60.6282 21.6331 60.8065 21.6777C60.9403 21.7223 61.074 21.9452 61.0294 22.2127Z" fill="white"/>
<path d="M68.2518 31.3073C68.0735 30.9061 67.7168 30.5941 67.4047 30.282L67.3602 30.2374C67.8506 30.4157 68.2964 30.5941 68.6976 30.9061C68.8313 30.9953 69.0097 30.7724 68.9651 30.6386C67.7614 27.9638 63.7491 27.5179 61.2525 27.2504C60.0934 27.1167 58.6668 27.3396 57.5969 27.6071C56.7498 27.7854 55.9473 28.0083 55.1895 28.365C54.5207 28.677 53.9412 29.3012 53.2279 29.5687C53.1387 29.6133 53.0496 29.8362 53.1833 29.7916C54.2533 29.4795 55.1003 28.7217 56.2149 28.4096C57.686 27.9638 59.1572 27.9192 60.6284 27.83C62.7683 27.6963 66.5131 28.4096 68.1626 30.1928C67.7168 29.9699 67.1818 29.8362 66.6915 29.8362C66.6023 29.8362 66.4686 30.0145 66.5577 30.0591C67.0035 30.4603 67.4048 30.7278 67.806 31.2182C68.1181 31.6194 68.6084 32.5556 68.6976 33.2243C68.0289 32.4664 67.5385 31.8423 66.6469 31.3073C66.5131 31.2182 66.2456 31.5302 66.3794 31.6194C68.9651 33.8039 68.1626 38.0837 67.0035 40.8032C66.9144 41.0261 67.1818 40.9369 67.271 40.8032C68.4301 38.5741 69.0542 35.2751 67.8951 32.8677C68.1626 33.1798 68.4301 33.4918 68.7422 33.8484C68.8314 33.9376 69.0097 33.7593 69.0097 33.6701C69.2326 32.9123 68.6084 31.9761 68.2518 31.3073Z" fill="#B5B5B5"/>
<path d="M65.1757 45.6177C63.7046 47.8913 61.7876 49.3625 59.1573 50.1204C58.1765 50.3879 57.1957 50.6108 56.1703 50.8783C54.9666 51.1904 53.54 51.5916 52.3363 51.5024C52.2918 51.5024 52.158 51.6362 52.2472 51.6362C53.3617 51.9482 54.5208 51.6362 55.6799 51.4579C57.1511 51.235 58.4885 50.8783 59.9151 50.3879C62.3671 49.5854 64.1058 47.8467 65.3095 45.6177C65.3541 45.5285 65.2203 45.5285 65.1757 45.6177Z" fill="#B5B5B5"/>
<path opacity="0.5" d="M53.6291 54.4463C53.7628 54.9367 53.852 55.3825 53.8966 55.8729C54.6099 54.9367 55.5015 54.1788 56.616 53.6438C60.0042 52.0835 63.9274 54.58 65.0865 57.8345C65.7998 59.8406 65.8889 61.9806 65.9781 64.1205C66.0673 66.4387 66.2456 68.7569 66.4685 71.0306C66.5577 70.4064 66.6022 69.7823 66.6914 69.2027C67.8059 60.6877 70.1242 52.3956 71.7737 44.0143C72.6207 39.7345 72.9774 35.4546 73.2449 31.1302C73.4678 27.43 73.1111 23.3285 72.0857 19.762C71.8628 19.0042 71.5508 18.2909 71.2387 17.5776C70.7483 15.7943 69.9904 14.0556 68.9205 12.4953C68.2072 11.4253 67.2709 10.4891 66.2902 9.64209C67.8951 11.6928 69.2771 13.9665 70.2579 16.5076C72.3086 21.902 72.5316 28.0096 71.2833 33.6269C70.2133 38.6645 67.9397 44.0143 63.437 46.9121C59.5138 49.4086 54.8328 50.1665 50.2409 49.9882C50.018 49.9882 49.9288 49.7653 50.018 49.587C50.8204 48.1604 52.1133 47.1795 53.317 46.1096C54.4761 45.0842 56.081 43.6131 55.5906 41.8298C54.7882 39.1549 52.1579 38.0404 50.018 36.6584C48.1456 35.4547 46.5852 33.9389 44.9357 32.4677C45.3815 34.563 45.7828 36.703 45.5153 38.8429C45.2478 41.0274 44.4453 43.0335 43.2416 44.9059C41.9934 46.8229 40.5222 48.517 38.9172 50.1219C43.8658 51.9498 51.3554 51.7268 52.6483 51.7714C53.0495 52.6185 53.4062 53.5101 53.6291 54.4463Z" fill="#B5B5B5"/>
<path opacity="0.5" d="M60.4053 27.251C61.921 27.2064 63.3477 27.4739 64.6405 28.2764C68.9203 30.8621 68.6083 35.7661 67.8058 40.0905C69.7674 35.989 71.5952 29.703 66.825 27.3848C64.8634 26.4486 62.5898 26.5377 60.4053 27.251Z" fill="#B5B5B5"/>
<path d="M152.109 102.193C151.752 101.658 150.237 102.683 149.88 102.772C148.186 103.307 146.492 103.842 144.753 104.288C142.836 104.734 140.696 105.224 138.735 105.358C138.601 105.358 138.423 105.67 138.646 105.67C141.276 105.581 143.995 104.957 146.536 104.288C147.74 103.976 148.988 103.575 150.192 103.174C150.549 103.04 151.931 102.193 151.574 102.906C151.396 103.263 151.128 103.619 150.905 103.932C150.014 105.091 148.988 106.205 147.963 107.231C145.556 109.593 142.524 111.956 139.448 113.383C139.314 113.427 139.18 113.784 139.403 113.695C142.658 112.58 145.689 109.905 148.141 107.587C148.632 107.097 149.122 106.606 149.568 106.116C149.568 106.205 149.523 106.294 149.523 106.384C149.479 106.428 149.568 106.428 149.613 106.428C149.613 107.052 149.3 107.632 149.078 108.211C148.721 109.281 148.275 110.262 147.829 111.287C147.071 112.848 146.447 114.319 145.422 115.746C143.282 118.643 140.384 121.229 137.486 123.235C137.353 123.324 137.308 123.636 137.531 123.503C140.072 121.987 142.48 119.936 144.486 117.618C144.887 117.261 145.288 116.86 145.734 116.593C146.626 116.058 146.358 116.949 146.18 117.529C145.645 119.178 144.307 120.739 143.237 122.076C142.212 123.369 141.187 124.662 140.028 125.776C138.69 127.069 137.13 128.139 135.614 129.254C135.48 129.343 135.436 129.7 135.659 129.521C137.531 128.273 139.359 127.025 140.875 125.42C141.142 125.152 141.365 124.885 141.632 124.573C141.677 124.617 141.722 124.662 141.766 124.796C141.588 125.152 141.365 125.464 141.097 125.821C140.696 126.401 140.25 126.936 139.849 127.515C138.913 128.808 137.486 129.922 136.238 130.948C133.697 132.999 130.13 134.648 126.921 135.183C126.831 135.183 126.698 135.406 126.831 135.406C128.169 135.54 129.685 134.826 130.933 134.336C132.716 133.623 134.41 132.731 135.971 131.572C137.576 130.368 139.359 128.853 140.696 127.114C141.855 126.401 143.059 125.643 144.263 125.019C144.976 124.617 145.779 124.305 146.536 123.949C148.097 123.28 148.32 124.573 148.186 125.643C147.74 128.763 145.466 131.706 143.371 133.935C141.276 136.119 138.779 137.947 136.283 139.597C133.563 141.38 130.621 143.074 127.5 143.921C127.411 143.966 127.233 144.233 127.411 144.233C129.15 144.055 130.71 143.208 132.226 142.405C134.054 141.424 135.837 140.399 137.576 139.24C139.76 137.724 141.855 136.075 143.728 134.158C143.906 134.024 144.084 133.935 144.263 133.846C144.842 133.266 145.333 133.4 145.779 134.158C145.511 134.871 145.154 135.451 144.664 136.075C143.683 137.278 142.524 138.348 141.365 139.374C139.27 141.335 137.041 143.163 134.767 144.857C132.493 146.596 130.086 148.201 127.589 149.627C126.609 150.207 125.583 150.697 124.558 151.188C124.781 151.009 125.048 150.831 125.271 150.653C124.959 150.831 124.647 151.009 124.29 151.143C123.666 151.455 122.953 151.812 122.24 152.079C121.036 152.748 119.832 153.328 118.539 153.773C115.017 154.977 111.139 155.066 107.439 154.799C100.93 154.308 93.128 151.634 89.294 146.105C89.2048 145.927 88.8928 146.239 88.9819 146.373C89.5169 147.265 90.141 148.067 90.8543 148.825C91.211 149.271 91.5676 149.672 91.9689 150.118C92.5039 150.742 92.9497 151.544 93.5738 152.124C93.7521 152.302 93.975 152.525 94.1979 152.793C93.5738 152.391 93.0834 151.856 92.4593 151.455C91.4785 150.831 90.5869 150.118 89.6507 149.449C88.7145 148.825 88.0457 147.933 87.2878 147.175C86.3962 146.284 85.5492 145.526 84.7913 144.501C83.4538 142.673 81.8489 141.112 80.5561 139.24C79.9319 138.304 79.174 137.323 78.7282 136.298C78.3716 135.451 78.0149 134.648 77.3908 133.979C77.3462 133.935 77.257 134.069 77.3016 134.113C78.1041 135.049 78.2824 136.164 78.9065 137.189C79.5307 138.215 80.0211 139.284 80.6452 140.354C81.2248 141.335 81.8935 142.093 82.6068 142.94C83.0526 143.475 83.4984 144.055 83.8997 144.59C83.008 144.01 82.1164 143.475 81.2248 142.806C79.9765 141.87 78.862 140.667 77.792 139.507C75.4738 137.011 73.6014 134.113 72.0856 131.082C70.659 128.228 69.6782 125.152 69.5445 121.942C69.4553 120.07 69.8565 118.198 70.659 116.459C71.4615 114.765 72.7543 112.803 74.7605 112.625C74.8496 112.625 74.9834 112.402 74.8496 112.402C72.2193 112.536 70.6144 115.478 69.812 117.663C68.5637 121.006 69.1878 124.751 70.2578 128.05C71.4615 131.661 73.5122 135.094 75.8304 138.081C78.2824 141.246 81.1356 143.654 84.6575 145.481C84.7021 145.526 84.7467 145.615 84.7913 145.66C85.5046 146.507 86.3071 147.22 87.0649 147.978C87.8674 148.78 88.5361 149.583 89.4723 150.207C90.4531 150.876 91.3447 151.589 92.3255 152.213C93.128 152.703 93.6184 153.372 94.5546 153.64C94.7775 153.684 94.9558 153.417 95.0004 153.239C95.0896 152.391 93.7521 151.366 93.2617 150.787C93.2172 150.742 93.1726 150.697 93.1726 150.653C94.2425 151.411 95.4016 152.035 96.5607 152.57C100.038 154.219 103.828 155.2 107.617 155.423C111.273 155.646 114.928 155.468 118.45 154.308C119.52 153.952 120.501 153.506 121.482 153.016C122.73 152.57 123.889 151.901 125.093 151.366C126.564 150.742 127.946 149.984 129.283 149.137C132.36 147.22 135.391 145.08 138.111 142.717C140.652 140.533 143.683 138.259 145.511 135.406C145.957 134.737 146.581 133.801 146.18 132.954C145.957 132.508 145.021 132.999 144.352 133.444C144.798 132.954 145.244 132.419 145.689 131.884C146.67 130.591 147.473 129.165 148.097 127.693C148.498 126.713 149.167 125.063 148.765 123.993C148.364 122.879 147.25 123.191 146.358 123.636C144.53 124.528 142.836 125.554 141.142 126.623C141.722 125.821 142.212 124.929 142.524 124.038C142.569 123.949 142.524 123.859 142.39 123.859C142.346 123.859 142.346 123.904 142.301 123.904C143.416 122.611 144.441 121.229 145.377 119.847C145.912 119.045 147.294 117.217 146.893 116.102C146.715 115.567 146.18 115.835 145.645 116.281C145.912 115.924 146.224 115.523 146.447 115.166C147.473 113.695 148.141 111.956 148.855 110.307C149.3 109.326 149.568 108.3 149.925 107.275C150.147 106.651 150.237 106.339 150.014 105.759C150.682 105.001 151.307 104.244 151.842 103.441C151.797 103.263 152.332 102.55 152.109 102.193Z" fill="#B5B5B5"/>
<path opacity="0.5" d="M166.866 92.6957C167.311 89.3967 168.515 86.2314 169.763 83.1553C169.273 83.9132 168.827 84.671 168.783 84.8048C168.069 86.0976 167.311 87.4797 166.821 88.8617C165.528 92.6511 164.592 96.5296 164.235 100.542C163.879 104.777 163.923 109.057 163.656 113.292C163.21 120.916 162.095 128.584 158.886 135.583C153.268 147.843 142.435 156.536 129.908 160.95C116.533 165.675 101.955 166.299 88.0013 164.07C82.9636 163.268 77.7476 162.02 72.8436 160.058C76.6776 162.51 80.8683 164.427 85.2372 165.72C96.0705 169.019 107.885 169.688 119.03 167.815C136.194 164.917 155.141 157.695 162.898 140.843C165.573 135.003 167.311 127.781 167.713 121.361C168.114 115.075 167.311 108.834 166.821 102.548C166.554 99.3382 166.42 95.9947 166.866 92.6957Z" fill="#B5B5B5"/>
<path opacity="0.5" d="M56.8831 142.895C59.9146 143.875 63.2136 143.697 66.1114 141.423C69.6333 138.704 70.2575 134.692 69.7225 130.679C69.5442 134.246 68.5634 137.589 66.156 140.086C63.5257 142.805 60.1375 143.474 56.8831 142.895Z" fill="#B5B5B5"/>
<path opacity="0.5" d="M150.906 106.071C150.861 106.071 150.772 106.116 150.727 106.116C150.46 106.205 150.281 105.848 150.46 105.67C151.753 104.198 152.332 102.415 152.823 100.587C150.059 101.212 147.607 102.816 144.843 103.396C142.078 103.976 139.225 104.199 136.461 104.956C140.072 106.026 144.04 105.268 147.473 103.886C147.651 103.797 147.874 104.02 147.785 104.199C146.314 108.389 142.703 111.644 138.913 114.185C141.544 112.758 143.906 110.886 146.804 109.95C147.072 109.86 147.205 110.128 147.116 110.351C145.155 114.675 142.346 118.509 139.047 121.853C139.136 121.764 139.27 121.719 139.359 121.63C140.741 120.694 142.123 119.713 143.505 118.732C143.728 118.554 143.995 118.866 143.862 119.089C142.123 122.254 139.404 124.929 136.595 127.202C136.328 127.425 136.06 127.648 135.748 127.827C136.952 127.292 138.111 126.757 139.359 126.355C139.627 126.266 139.76 126.534 139.671 126.757C139.047 128.228 138.066 129.565 136.907 130.814C139.404 129.253 141.9 127.827 144.753 127.069C144.976 127.024 145.11 127.202 145.065 127.381C144.53 129.744 142.792 131.705 141.053 133.355C139.225 135.093 137.219 136.609 135.213 138.125C132.003 140.532 128.882 142.851 125.271 144.099C126.921 144.366 129.016 143.653 130.354 143.207C132.494 142.538 134.589 141.691 136.55 140.621C136.818 140.488 137.085 140.8 136.862 141.023C133.073 145.481 127.768 148.646 122.329 150.786C116.801 152.97 110.782 154.397 104.808 153.684C97.8984 152.837 92.192 149.003 88.1351 143.742C88.8484 145.659 89.7846 147.532 90.8545 149.315C91.0329 149.582 90.6762 149.805 90.4533 149.627C84.3011 144.545 78.0597 138.482 74.627 131.126C74.8499 131.884 75.0727 132.641 75.3402 133.444C76.0981 135.093 76.7669 136.832 77.5247 138.482C78.9513 141.558 80.9575 144.5 83.1866 147.086C86.9314 151.455 91.8799 156.047 97.5417 157.696C96.7393 156.047 95.491 154.62 94.5548 153.015C94.4211 152.792 94.6885 152.525 94.9114 152.658C104.006 157.429 114.839 157.295 124.469 154.263C124.513 154.263 124.558 154.219 124.603 154.219C128.615 152.658 132.449 150.429 135.703 147.799C138.512 145.525 140.875 142.895 142.926 139.908C144.753 137.144 147.205 134.469 148.186 131.259C147.517 131.527 146.893 131.839 146.314 132.285C146.091 132.463 145.779 132.151 145.957 131.928C147.428 129.833 148.721 126.668 148.543 124.037C148.454 122.566 147.428 122.923 146.403 123.368C145.69 123.681 144.976 123.993 144.218 124.26C143.995 124.349 143.817 124.082 143.906 123.859C147.295 118.331 150.95 112.58 150.906 106.071Z" fill="#B5B5B5"/>
<path opacity="0.5" d="M123.711 143.743C123.042 143.966 122.329 144.188 121.615 144.367C122.329 144.278 123.042 144.144 123.711 143.966C123.711 143.921 123.711 143.832 123.711 143.743Z" fill="#B5B5B5"/>
<path opacity="0.5" d="M49.26 132.018C47.5213 129.12 45.3814 126.891 44.6236 123.458C44.579 123.28 44.3561 123.503 44.3561 123.592C44.7127 126.713 46.0948 130.591 48.7251 132.508C48.9926 132.687 49.3938 132.241 49.26 132.018Z" fill="#B5B5B5"/>
<path opacity="0.5" d="M52.9159 131.884C51.7122 131.215 50.6422 130.635 49.5723 129.699C48.6806 128.852 47.8336 127.916 47.2541 126.846C47.1649 126.712 46.942 126.935 46.9865 127.069C47.8782 129.521 49.8398 131.928 52.5146 132.463C52.7376 132.508 53.1834 132.017 52.9159 131.884Z" fill="#B5B5B5"/>
<path opacity="0.5" d="M53.317 130.413C52.7374 129.878 51.9795 129.611 51.4 129.12C51.2662 128.986 50.9542 129.343 51.0879 129.521C51.6229 130.056 52.2916 130.547 52.9603 130.903C53.1387 130.948 53.4953 130.591 53.317 130.413Z" fill="#B5B5B5"/>
<path opacity="0.5" d="M50.3299 86.1438C49.6612 88.8187 48.6359 91.4044 47.7442 94.0346C46.9864 96.2637 46.6297 98.7157 46.1839 100.989C45.2031 105.626 44.4898 110.129 45.0694 114.899C45.1139 115.255 45.6489 114.854 45.6489 114.631C45.7827 109.816 46.3176 105.358 47.2093 100.633C48.1455 95.7288 49.6167 90.9586 50.5974 86.0546C50.5974 85.9209 50.3299 86.0546 50.3299 86.1438Z" fill="#B5B5B5"/>
<path opacity="0.5" d="M89.6059 140.844C85.1478 137.367 81.6258 133.8 79.9318 128.228C79.8872 128.049 79.5751 128.317 79.6197 128.451C79.9318 130.1 80.4221 131.705 81.1354 133.176C78.7726 130.546 76.8556 127.693 76.1869 124.037C76.1423 123.859 75.9194 124.082 75.9194 124.215C76.2761 128.852 78.6389 133.176 82.3837 135.896C82.4729 135.94 82.562 135.94 82.6512 135.896C84.2561 138.258 86.4406 140.22 89.2492 141.379C89.4276 141.513 89.8288 141.023 89.6059 140.844Z" fill="#B5B5B5"/>
<path opacity="0.5" d="M95.3122 143.297C93.9302 142.494 92.5481 141.825 91.2999 140.8C90.007 139.775 89.0262 138.526 88.0008 137.278C87.9117 137.189 87.6888 137.457 87.7334 137.546C89.5612 140.265 91.4782 143.118 94.8664 143.965C95.0893 144.055 95.5797 143.475 95.3122 143.297Z" fill="#B5B5B5"/>
<path opacity="0.5" d="M117.603 142.361C109.935 142.852 101.108 141.559 95.2232 135.942C95.134 135.853 94.9111 136.12 95.0003 136.209C100.35 142.317 109.623 144.412 117.336 143.075C117.648 143.075 118.049 142.361 117.603 142.361Z" fill="#B5B5B5"/>
<path opacity="0.5" d="M115.062 140.756C113.502 140.889 111.808 140.934 110.337 140.488C110.158 140.444 109.935 140.8 110.114 140.889C110.916 141.201 111.719 141.246 112.566 141.335C113.368 141.424 114.171 141.514 114.929 141.291C115.107 141.246 115.374 140.756 115.062 140.756Z" fill="#B5B5B5"/>
<path opacity="0.5" d="M141.008 115.256C138.824 119.179 135.614 121.497 132.226 124.35C131.914 124.618 131.914 125.242 132.404 124.974C136.684 122.79 139.448 119.58 141.365 115.256C141.499 114.988 141.097 115.077 141.008 115.256Z" fill="#B5B5B5"/>
<path opacity="0.5" d="M135.703 119.268C135.213 119.892 134.499 120.204 133.92 120.694C133.742 120.828 133.742 121.274 134.009 121.051C134.722 120.605 135.391 120.07 135.882 119.402C136.015 119.223 135.837 119.089 135.703 119.268Z" fill="#B5B5B5"/>
<path opacity="0.5" d="M127.367 109.102C122.463 111.51 115.553 112.803 110.738 109.325C110.649 109.281 110.515 109.459 110.559 109.548C114.928 113.65 122.819 113.249 127.456 109.949C127.857 109.682 128.124 108.746 127.367 109.102Z" fill="#B5B5B5"/>
<path opacity="0.5" d="M125.093 111.956C124.335 112.67 123.443 113.115 122.418 113.383C122.239 113.428 122.061 113.873 122.329 113.829C123.443 113.65 124.468 113.16 125.271 112.358C125.538 112.09 125.405 111.644 125.093 111.956Z" fill="#B5B5B5"/>
<path d="M52.2465 45.2182C51.979 43.1675 44.9351 45.2182 43.8206 45.4857C39.8974 46.4219 36.108 48.0714 32.4969 49.8101C26.4785 52.7079 20.995 56.5419 15.0657 59.6626C11.8558 61.3567 8.37845 62.4713 4.99027 63.8533C3.38534 64.4774 2.31541 65.3244 2.04792 66.6619V66.6173C2.04792 66.5727 1.95874 66.6173 1.95874 66.6619C1.95874 66.751 2.00333 66.8848 2.00333 66.974C1.95875 67.3752 2.00332 67.821 2.09248 68.356C2.13706 68.5343 2.31538 68.4005 2.40455 68.2668C2.71662 68.9355 3.11787 69.5597 3.78659 70.0946C5.21319 71.2092 7.21936 71.4767 8.91345 71.7887C12.4354 72.3683 15.9573 72.2791 19.3901 71.2092C22.7782 70.1838 26.2556 68.1776 28.5292 65.5473C35.9743 57.0323 44.7122 49.8993 45.8268 49.3643C47.298 48.6956 48.8583 48.0715 50.2403 47.269C50.909 46.9124 52.3802 46.199 52.2465 45.2182Z" fill="#F8DC8F"/>
<path d="M13.1043 72.3687C11.7223 72.3687 10.2957 72.235 8.86912 72.0121L8.60165 71.9674C6.90756 71.7 4.99055 71.3879 3.60853 70.2734C3.02897 69.8276 2.58314 69.2926 2.27107 68.6685C2.09275 68.7131 1.86985 68.6238 1.82527 68.4009C1.7361 67.9105 1.69154 67.4202 1.73612 66.9744V66.9298C1.73612 66.8406 1.69153 66.796 1.69153 66.7069C1.69153 66.6177 1.73609 66.484 1.78068 66.4394C1.82526 66.3948 1.82528 66.3948 1.86986 66.3502C2.18193 65.1465 3.16273 64.2995 4.94598 63.5862C5.88219 63.185 6.86295 62.8283 7.84374 62.4717C10.2511 61.58 12.7031 60.6438 15.0213 59.4401C17.6516 58.0581 20.1928 56.5423 22.6893 55.0265C25.81 53.1541 29.0645 51.1926 32.4526 49.5877C35.7962 47.9828 39.764 46.1994 43.8209 45.2187C43.91 45.1741 44.0883 45.1295 44.3113 45.0849C45.5149 44.7729 48.4127 44.0596 50.3743 44.0596C51.7563 44.0596 52.5142 44.4608 52.6034 45.1741C52.7371 46.2441 51.4443 46.9574 50.6418 47.4032L50.5081 47.4924C49.3044 48.1611 48.0561 48.7406 46.8078 49.2756L46.0499 49.5877C44.98 50.0781 36.3758 57.0327 28.8415 65.6815C26.657 68.178 23.2689 70.2734 19.5686 71.3879C17.4287 72.0567 15.2888 72.3687 13.1043 72.3687ZM2.36025 67.9997C2.494 67.9997 2.58315 68.0443 2.62773 68.1335C2.9398 68.8022 3.34104 69.3818 3.92059 69.8276C5.21345 70.8529 7.04128 71.1204 8.6462 71.3879L8.91371 71.4325C10.3403 71.6554 11.7223 71.7892 13.0598 71.7892C15.1997 71.7892 17.295 71.4771 19.2566 70.8975C22.8677 69.783 26.1667 67.7768 28.3066 65.3249C35.5733 57.0328 44.4004 49.6768 45.6933 49.0973L46.4512 48.7852C47.6549 48.2502 48.9477 47.7152 50.1068 47.0465L50.2852 46.9573C50.9093 46.6007 52.0684 45.9766 51.9792 45.2633C51.8901 44.7283 50.9985 44.5945 50.2852 44.5945C48.4128 44.5945 45.5595 45.3078 44.3558 45.6199C44.1329 45.6645 43.9546 45.7091 43.8654 45.7537C39.8531 46.6899 35.93 48.4731 32.5864 50.078C29.2428 51.6829 25.9883 53.6445 22.8677 55.5169C20.3711 57.0327 17.7854 58.5485 15.1551 59.9305C12.8368 61.1342 10.3403 62.115 7.93292 63.0066C6.95213 63.3633 6.01592 63.7199 5.03513 64.1212C3.34104 64.7899 2.44942 65.5924 2.22652 66.7069C2.22652 66.7515 2.18193 66.796 2.18193 66.8406V66.9298C2.18193 66.9744 2.18193 66.9743 2.18193 67.0189C2.13734 67.331 2.18194 67.6877 2.22652 68.0443C2.31568 67.9998 2.31567 67.9997 2.36025 67.9997Z" fill="#D0844B"/>
<path d="M55.1896 42.0527C54.6546 39.6007 52.158 38.3524 50.464 36.7475C46.9866 33.4485 46.5408 28.6783 45.7829 24.2201C45.6492 23.4623 45.4708 22.4369 44.49 22.8381C42.8851 23.5068 41.3694 24.443 39.9428 25.4684C38.3824 26.583 37.0004 27.9204 35.3955 28.9458C34.4147 29.5699 32.1856 31.8881 31.2494 30.1048C30.4023 28.4108 31.4723 26.3155 30.8928 24.5768C30.6699 23.9081 29.8228 24.5322 29.5999 24.7997C28.5299 26.0925 27.8612 27.6529 27.1479 29.2132C25.4538 32.9135 24.5176 36.9704 22.2886 40.4031C21.0403 42.3201 19.3016 44.0142 17.7413 45.6638C14.7097 48.829 11.6336 51.9497 8.55751 55.0258C6.01638 57.5669 3.1186 59.8406 1.11244 62.8275C-0.804555 65.6807 1.51366 67.999 4.05479 69.3364C10.4745 72.7246 18.6775 71.298 24.5622 67.3748C28.2624 64.9229 31.1156 61.5347 34.1026 58.3248C37.0895 55.115 40.2548 52.4401 44.1334 50.3448C46.5854 49.0074 49.1265 47.9374 51.5785 46.6445C52.7822 46.0204 54.2534 45.2179 54.9221 43.9696C55.2342 43.3009 55.3233 42.6768 55.1896 42.0527Z" fill="#F8DC8F"/>
<path d="M12.0792 71.4766C9.09221 71.4766 6.32816 70.8079 3.92077 69.5597C2.76165 68.9355 0.710904 67.6427 0.22051 65.7257C-0.0469783 64.7003 0.175935 63.6749 0.889236 62.6495C2.36042 60.4651 4.32201 58.6818 6.19442 56.8986C6.90772 56.2299 7.71019 55.5166 8.42349 54.8033C10.9646 52.2621 14.3082 48.8739 17.6072 45.4412C17.9193 45.1291 18.2314 44.817 18.5434 44.5049C19.8363 43.1675 21.1737 41.7855 22.1545 40.2697C23.4919 38.1298 24.3836 35.7224 25.2752 33.4042C25.8102 31.9776 26.3452 30.5064 27.0139 29.0798L27.2814 28.5002C27.9055 27.1628 28.5297 25.7808 29.4659 24.6217C29.6442 24.4434 30.1346 23.9976 30.5804 23.9976C30.8925 23.9976 31.1154 24.1759 31.2045 24.488C31.472 25.335 31.3829 26.2712 31.2937 27.1628C31.2045 28.1882 31.1154 29.169 31.5166 30.016C31.7395 30.4618 32.0516 30.551 32.2299 30.551C32.8986 30.551 33.8794 29.8377 34.5481 29.3027C34.8156 29.0798 35.0385 28.9015 35.2168 28.8123C36.153 28.1882 37.0447 27.4749 37.8917 26.8062C38.4713 26.3158 39.0954 25.8254 39.7196 25.335C41.2353 24.2205 42.7957 23.3288 44.3114 22.6601C44.4898 22.5709 44.6681 22.5264 44.8464 22.5264C45.738 22.5264 45.9164 23.6409 46.0055 24.2205C46.0947 24.6217 46.1393 25.0229 46.1839 25.4241C46.8526 29.481 47.5213 33.6717 50.5974 36.6141C51.0432 37.0153 51.5336 37.4165 52.024 37.8177C53.4506 38.9768 54.9664 40.1806 55.3676 42.053C55.5014 42.7663 55.4122 43.435 55.0555 44.1037C54.3422 45.3966 52.8265 46.1991 51.6228 46.8678C50.3745 47.5365 49.1262 48.1161 47.9225 48.7402C46.6743 49.3198 45.3814 49.9439 44.1331 50.6126C40.522 52.5742 37.3568 55.0708 34.1915 58.5035C33.7903 58.9493 33.3444 59.3951 32.9432 59.8409C30.4021 62.6049 27.8164 65.4582 24.6065 67.5981C20.9062 70.0946 16.4035 71.4766 12.0792 71.4766ZM30.5358 24.5325C30.3129 24.5325 29.9562 24.8 29.8225 24.9784C28.8863 26.0929 28.3068 27.4303 27.6826 28.7232L27.4151 29.3027C26.791 30.6848 26.256 32.1559 25.721 33.5825C24.8294 35.9453 23.9378 38.3973 22.5558 40.5372C21.5304 42.0975 20.1929 43.5241 18.8555 44.8616C18.5434 45.1736 18.2314 45.4857 17.9193 45.7978C14.6203 49.2306 11.2767 52.6188 8.73556 55.1599C8.02226 55.8732 7.26437 56.5865 6.50649 57.2998C4.63408 59.0385 2.71705 60.8217 1.29045 62.917C0.710895 63.8087 0.488 64.7003 0.710907 65.5473C1.11214 67.2414 3.02915 68.4451 4.14369 69.0246C6.5065 70.2729 9.13678 70.8971 12.0346 70.8971C16.2252 70.8971 20.6834 69.5151 24.339 67.1077C27.5043 65.0124 30.09 62.1591 32.5866 59.4397C32.9878 58.9939 33.4336 58.548 33.8348 58.1022C37.0893 54.6249 40.2991 52.0392 43.9548 50.0776C45.2031 49.4089 46.4959 48.7848 47.7442 48.1606C48.9479 47.5811 50.1962 47.0015 51.3999 46.3328C52.6482 45.6641 53.9856 44.9508 54.6097 43.7917C54.9218 43.2121 55.011 42.6771 54.8772 42.0976C54.5206 40.4035 53.094 39.2443 51.7119 38.1744C51.2215 37.7732 50.6866 37.3719 50.2408 36.9261C47.0309 33.85 46.3176 29.5702 45.6489 25.4688C45.6043 25.0675 45.5151 24.6663 45.4706 24.265C45.3368 23.5072 45.2031 23.0168 44.8464 23.0168C44.7573 23.0168 44.6681 23.0613 44.5343 23.1059C43.0632 23.7301 41.5474 24.6217 40.0762 25.6917C39.4521 26.1375 38.8279 26.6278 38.2484 27.1182C37.4013 27.8315 36.4651 28.5449 35.5289 29.169C35.3506 29.2582 35.1277 29.4365 34.8602 29.6594C34.0578 30.2835 33.0769 31.0414 32.1853 31.0414C31.8287 31.0414 31.2937 30.9076 30.9816 30.2389C30.4912 29.2581 30.5804 28.1436 30.7141 27.1182C30.8033 26.2266 30.8925 25.4241 30.625 24.6663C30.5804 24.5325 30.5804 24.5325 30.5358 24.5325Z" fill="#D0844B"/>
<path d="M18.722 45.976C22.1102 42.5878 24.785 38.7538 26.5683 34.2511C27.8612 31.0413 28.619 27.6976 29.8673 24.4878C29.7336 24.577 29.6444 24.6661 29.5998 24.7553C28.5299 26.0481 27.8611 27.6085 27.1478 29.1688C25.4538 32.8691 24.5176 36.926 22.2885 40.3587C21.0402 42.2757 19.3015 43.9698 17.7412 45.6193C15.1555 48.3388 12.5698 50.9691 9.93945 53.6439C12.971 51.2366 15.9579 48.74 18.722 45.976Z" fill="#F8DC8F"/>
<path d="M55.1895 42.0527C54.6545 39.6007 52.158 38.3524 50.4639 36.7475C46.9865 33.4485 46.5407 28.6783 45.7828 24.2201C45.6491 23.4623 45.4707 22.4369 44.49 22.8381C42.885 23.5068 41.3693 24.443 39.9427 25.4684C38.3823 26.583 37.0003 27.9204 35.3954 28.9458C34.4146 29.5699 32.1855 31.8881 31.2493 30.1048C30.4023 28.4108 31.4722 26.3155 30.8927 24.5768C30.6698 23.9081 29.8227 24.5322 29.5998 24.7997C29.1094 25.3792 28.7082 26.0479 28.3069 26.7612C29.0202 26.4938 29.8227 26.4938 30.0902 27.43C30.4469 28.5 30.001 30.1494 31.2047 30.8182C32.2747 31.4423 33.7458 30.9519 34.7266 30.3723C35.7966 29.7928 36.6882 28.9457 37.669 28.2324C38.739 27.43 42.7959 24.0864 44.1333 26.0926C44.4008 26.4938 44.2671 27.3408 44.2225 27.7866C44.1333 28.6336 43.955 29.4362 43.955 30.2832C43.9104 32.646 45.5599 35.3654 47.1203 37.0595C48.5023 38.4861 48.8589 43.613 47.1203 44.4155C43.5092 46.1096 37.134 51.7714 34.5037 54.6246C32.2301 57.1211 29.9564 59.6177 27.4153 61.8468C22.7343 65.9483 16.9833 69.1581 10.5636 68.8906C7.66579 68.7568 4.50052 68.1327 2.49436 65.8591C1.51358 64.7445 1.37985 63.4517 1.60275 62.1143C1.42443 62.3818 1.24609 62.6047 1.06776 62.8721C-0.849233 65.7253 1.46898 68.0435 4.01011 69.381C10.4298 72.7692 18.6328 71.3426 24.5175 67.4195C28.2178 64.9675 31.071 61.5792 34.0579 58.3694C37.0449 55.1595 40.2102 52.4847 44.0887 50.3894C46.5407 49.0519 49.0818 47.982 51.5338 46.6891C52.7375 46.065 54.2087 45.2625 54.8774 44.0143C55.2341 43.301 55.3232 42.6768 55.1895 42.0527Z" fill="#F8DC8F"/>
<path d="M55.1893 42.0539C54.6543 39.6019 52.1578 38.3536 50.4637 36.7487C46.9864 33.4497 46.5405 28.6795 45.7827 24.2213C45.7381 24.043 45.6935 23.8201 45.6489 23.5972C45.5152 28.0999 46.5405 32.6026 48.8588 36.4812C49.9287 38.2645 51.6674 39.9139 51.9795 42.0092C52.2469 43.8371 50.5083 44.9516 49.1708 45.8432C46.8526 47.359 44.4006 48.6073 42.127 50.1231C39.7196 51.728 37.5797 53.6896 35.5735 55.7849C33.3445 58.1477 30.9816 60.6888 29.1538 63.4975C30.8479 61.848 32.4083 60.0647 34.0578 58.326C37.0447 55.1162 40.21 52.4413 44.0886 50.346C46.5406 49.0086 49.0817 47.9386 51.5336 46.6457C52.7373 46.0216 54.2085 45.2191 54.8772 43.9708C55.2339 43.3021 55.3231 42.678 55.1893 42.0539Z" fill="#F8DC8F"/>
<path d="M36.4652 40.8482C36.4652 40.8036 36.376 40.759 36.3314 40.8036C35.2169 41.0711 34.4144 42.3194 33.7457 43.211C33.1216 44.0135 32.3637 44.9051 32.007 45.8859C31.9625 46.0642 32.0962 46.1534 32.2299 46.0642C33.2999 45.3955 34.459 44.7268 35.306 43.7906C35.841 43.1664 36.8218 41.6506 36.4652 40.8482Z" fill="#D0844B"/>
<path d="M23.8932 39.8695C23.1799 40.8948 22.9124 42.1877 22.5112 43.3468C22.4666 43.5251 22.6004 43.6143 22.7341 43.5252C23.5812 42.9456 24.2053 42.0094 24.8294 41.2069C25.5427 40.3599 26.5235 39.2899 26.4344 38.1308C26.4344 38.0862 26.3898 38.0416 26.3452 38.0416C25.4981 37.8633 24.339 39.2007 23.8932 39.8695Z" fill="#D0844B"/>
<path d="M24.2947 37.7725C24.0718 37.7725 23.8489 38.2183 24.1164 38.2183C24.3393 38.2183 24.5622 37.7725 24.2947 37.7725Z" fill="#F2429E"/>
<path d="M27.326 37.551C27.1477 37.0606 27.1031 36.9269 26.5681 36.8823C26.1223 36.8823 25.6319 37.0161 25.2307 37.239C24.4282 37.6848 23.5366 38.5318 23.0462 39.3343C23.0016 39.4235 23.0016 39.5126 23.1353 39.468C23.3137 39.4235 23.3137 39.3343 23.4474 39.2006V39.1559C23.8486 38.7547 24.2945 38.3981 24.6957 38.0414C25.409 37.4173 26.3452 37.0161 27.1031 37.7739C27.1922 37.9077 27.3706 37.6402 27.326 37.551Z" fill="#F8DC8F"/>
<path d="M37.446 40.2688C37.1339 39.823 36.5543 39.5556 36.0194 39.5556C35.529 39.511 35.1723 39.823 34.8157 40.0905C34.7265 40.1797 34.7265 40.4472 34.8603 40.3134C35.2169 40.0459 35.529 39.8676 36.0194 39.9568C36.4652 40.0013 36.9556 40.4025 37.1785 40.7592C37.6243 41.4725 37.3568 42.1859 37.0893 42.8992C37.0448 43.0775 37.2231 43.0329 37.2677 42.9437C37.981 42.1412 38.0255 41.0713 37.446 40.2688Z" fill="#F8DC8F"/>
<defs>
<linearGradient id="paint0_linear_171_1236" x1="57.2941" y1="29.4007" x2="58.0433" y2="22.2144" gradientUnits="userSpaceOnUse">
<stop stop-color="#C0E7F7"/>
<stop offset="0.0632" stop-color="#B6D4DE"/>
<stop offset="0.1967" stop-color="#9CA39E"/>
<stop offset="0.3132" stop-color="#837562"/>
<stop offset="0.4503" stop-color="#7E715E"/>
<stop offset="0.6132" stop-color="#706454"/>
<stop offset="0.7891" stop-color="#584E43"/>
<stop offset="0.9732" stop-color="#36312B"/>
<stop offset="1" stop-color="#312C27"/>
</linearGradient>
</defs>
</svg>
