<svg width="204" height="192" viewBox="0 0 204 192" fill="none" xmlns="http://www.w3.org/2000/svg">
<path d="M71.4822 171.543C43.1425 153.779 22.1927 125.674 9.31458 94.8044C0.92418 74.6951 -4.07694 51.0736 5.6631 31.5825C11.9297 19.041 23.8046 9.79228 37.025 5.1265C50.2454 0.459343 64.7119 0.097781 78.5519 2.33062C106.595 6.85426 132.459 21.9073 151.927 42.5921C178.378 70.6958 219.656 143.927 182.992 178.627C175.82 185.415 166.069 188.966 156.285 190.305C141.509 192.326 125.696 190.859 111.161 187.718C97.135 184.688 83.6386 179.164 71.4822 171.543Z" fill="#FFF7EE"/>
<path d="M95.5121 179.124C92.2388 165.176 82.5663 153.621 72.1101 143.826C61.6538 134.032 50.0439 125.337 41.0794 114.16C32.1163 102.984 25.927 88.4743 28.7174 74.4204C21.8795 89.4251 17.6581 106.358 21.2861 122.443C24.9141 138.528 35.0847 153.332 49.5719 161.206C64.1654 169.138 81.8501 169.678 95.5121 179.124Z" fill="#5FC5A9"/>
<path d="M71.7181 160.517C68.6131 158.253 65.3536 156.103 62.2016 154.024C58.1417 151.347 53.9451 148.579 50.0521 145.546C40.0099 137.724 32.1756 128.196 27.3939 117.995C23.8611 110.456 21.965 102.441 21.7732 94.6152C21.5441 95.6378 21.3343 96.6618 21.1453 97.6899C21.7014 104.641 23.5603 111.671 26.6804 118.329C31.5146 128.643 39.4289 138.269 49.5677 146.167C53.4856 149.218 57.6959 151.996 61.7683 154.681C64.9133 156.755 68.1646 158.9 71.2545 161.153C76.9069 165.275 81.247 169.286 84.5466 173.426C85.0379 173.619 85.5223 173.831 86.0094 174.036C82.5718 169.446 77.9254 165.044 71.7181 160.517Z" fill="#33896E"/>
<path d="M57.3441 157.897C53.4276 155.552 49.3773 153.129 45.7065 150.406C32.5524 140.652 23.4168 125.85 19.9654 109.869C19.9599 111.104 19.9888 112.336 20.0592 113.568C24.0736 128.366 32.907 141.896 45.2373 151.038C48.9399 153.784 53.0067 156.219 56.9397 158.572C62.4487 161.868 68.0708 165.265 72.7876 169.566C73.3548 169.73 73.9206 169.9 74.4864 170.067C69.495 165.183 63.3457 161.489 57.3441 157.897Z" fill="#33896E"/>
<path d="M74.4271 156.547C71.093 153.859 67.6141 151.237 64.2496 148.7C57.8892 143.908 51.3135 138.951 45.4761 133.363C35.0419 123.38 28.7974 112.896 26.9137 102.2C25.5351 94.3683 26.4956 86.3671 28.1681 78.6432C28.273 77.2329 28.44 75.8239 28.7188 74.4204C28.4345 75.0442 28.1612 75.6762 27.8866 76.3069C25.9091 84.7746 24.6091 93.6411 26.1396 102.336C28.0522 113.201 34.3754 123.831 44.9324 133.933C50.8043 139.552 57.3993 144.523 63.7763 149.33C67.1366 151.862 70.61 154.48 73.9345 157.161C83.0383 164.501 89.4429 171.183 93.9086 178.094C94.4261 178.42 94.9464 178.736 95.4528 179.084C90.9126 171.59 84.2182 164.441 74.4271 156.547Z" fill="#33896E"/>
<path d="M73.8116 148.907C71.9652 147.427 70.0994 145.961 68.2337 144.491C58.8731 137.126 49.1924 129.51 41.7459 120.064C35.1109 111.647 31.1006 102.506 29.9649 93.6826C29.5164 92.2032 29.1424 90.7087 28.8457 89.2031C29.0099 99.5462 33.2507 110.56 41.1277 120.551C48.6321 130.072 58.3501 137.717 67.7465 145.11C69.6109 146.577 71.4739 148.042 73.319 149.522C78.643 153.789 83.967 158.323 88.7543 163.328C88.0532 162.202 87.3273 161.089 86.5601 159.999C82.5001 156.05 78.1559 152.389 73.8116 148.907Z" fill="#33896E"/>
<path opacity="0.5" d="M63.3319 159.967C62.475 158.156 60.71 155.817 60.2394 155.355C54.5593 149.775 48.8889 145.265 44.5722 138.385C42.0123 134.304 39.8002 130.014 37.7882 125.639C36.7366 123.352 35.7389 121.041 34.7756 118.716C33.9766 116.789 33.3252 114.611 31.6416 113.251C28.4925 110.703 25.0149 112.962 24.4242 116.525C23.7066 120.863 25.0908 125.487 26.6792 129.477C29.5923 136.792 34.0953 143.433 39.7864 148.874C46.1951 155 53.9852 159.557 62.5081 162.06C64.1227 162.529 64.0192 161.418 63.3319 159.967Z" fill="white"/>
<path d="M97.2937 176.125C91.368 161.522 90.2254 145.022 94.0839 129.742C97.9423 114.461 106.781 100.481 118.929 90.4434C115.208 107.635 120.801 125.526 117.741 142.847C115.475 155.677 107.46 167.977 97.2937 176.125Z" fill="#5FC5A9"/>
<path d="M111.308 97.7461C110.771 98.3381 110.244 98.937 109.726 99.5456C101.445 120.592 96.1111 142.548 93.7954 165.056C93.9734 165.82 94.1652 166.582 94.3667 167.341C96.6189 143.387 102.3 120.047 111.308 97.7461Z" fill="#33896E"/>
<path d="M92.098 154.064C92.185 155.134 92.2954 156.202 92.4278 157.267C94.7628 141.125 97.3917 124.659 102.818 109.087C102.135 110.205 101.478 111.34 100.853 112.49C96.5361 126.03 94.1487 140.14 92.098 154.064Z" fill="#33896E"/>
<path d="M118.782 91.2479C118.836 90.9802 118.871 90.7111 118.929 90.4434C118.564 90.7456 118.21 91.063 117.852 91.3721C116.396 94.3322 115.107 97.5007 113.76 101.123C105.397 123.61 99.8661 148.762 97.2606 176.038C97.2717 176.067 97.2827 176.096 97.2937 176.125C97.5697 175.903 97.8388 175.667 98.1121 175.439C100.738 148.492 106.229 123.635 114.498 101.396C115.907 97.6083 117.243 94.3115 118.782 91.2479Z" fill="#33896E"/>
<path d="M106.795 146.031C107.399 142.796 108.004 139.56 108.647 136.335C110.696 126.044 113.245 115.319 117.614 105.168C117.61 104.541 117.602 103.915 117.61 103.29C112.73 114.132 109.941 125.814 107.876 136.182C107.232 139.41 106.628 142.649 106.022 145.886C104.283 155.193 102.485 164.778 99.7639 174.01C100.138 173.674 100.512 173.34 100.878 172.992C103.41 164.109 105.131 154.943 106.795 146.031Z" fill="#33896E"/>
<path d="M118.493 136.607C118.554 135.756 118.591 134.904 118.623 134.051C115.395 142.269 113.012 150.784 111.517 159.498C111.938 158.77 112.343 158.032 112.73 157.286C114.074 150.239 115.998 143.328 118.493 136.607Z" fill="#33896E"/>
<path d="M106.944 166.28C110.059 150.12 113.825 134.012 118.183 118.132C118.132 117.327 118.083 116.523 118.034 115.718C113.273 132.819 109.191 150.198 105.876 167.626C106.24 167.184 106.594 166.733 106.944 166.28Z" fill="#33896E"/>
<path d="M153.904 12.3837C135.318 0.81102 110.822 -0.528958 91.2176 8.93784C71.616 18.3839 57.3731 38.209 54.8987 59.7329C53.6057 70.5038 55.0271 81.4803 57.9927 91.9573C60.9625 102.465 65.4088 112.539 70.4665 122.288C75.5325 132.057 81.1546 141.585 86.4359 151.37C91.713 161.148 96.6699 171.23 100.25 181.919C100.631 183.057 100.018 184.288 98.8807 184.668C97.7436 185.049 96.5126 184.437 96.1318 183.299L96.1248 183.277C92.7742 172.918 88.0353 162.994 82.9044 153.253C77.7708 143.503 72.2343 133.897 67.2069 123.958C62.1796 114.019 57.736 103.687 54.7897 92.8432C51.8489 82.0323 50.4717 70.6087 51.9386 59.3644C54.7911 36.8138 69.8 16.463 90.2295 6.85818C110.692 -2.74524 135.808 -1.05336 154.772 11.0106C155.15 11.2507 155.262 11.753 155.022 12.1325C154.78 12.5065 154.282 12.6183 153.904 12.3837Z" fill="#33896E"/>
<path d="M72.0991 19.645C74.9419 16.9333 78.2773 14.9448 81.7411 13.3605C85.216 11.7873 88.8661 10.6405 92.6142 9.97952C96.3526 9.3323 100.225 9.1046 104.023 9.86774C105.91 10.2583 107.782 10.9248 109.429 12.0233C111.059 13.1425 112.384 14.7529 113.099 16.6021C113.213 16.8975 113.066 17.23 112.77 17.3446C112.481 17.4564 112.156 17.3184 112.035 17.0341L112.032 17.0272C111.348 15.4167 110.168 14.0698 108.705 13.1204C107.219 12.193 105.505 11.6314 103.745 11.3223C100.206 10.7164 96.5127 11.0325 92.9578 11.7597C89.3919 12.498 85.917 13.7055 82.6575 15.3008C79.4089 16.9002 76.3205 18.8888 73.8406 21.4059L73.8365 21.4101C73.3576 21.8972 72.5738 21.9027 72.0867 21.4225C71.5995 20.9436 71.594 20.1598 72.0742 19.6726C72.0784 19.6644 72.0908 19.6519 72.0991 19.645Z" fill="#33896E"/>
<path d="M78.1144 57.0624C77.4203 54.6612 75.8843 52.5126 73.922 50.9325C71.961 49.3386 69.5295 48.3491 67.0551 48.0993C64.5753 47.8923 62.0719 48.5189 60.024 49.8464C57.9719 51.1698 56.3615 53.1129 55.4107 55.3043C55.1015 56.0178 54.2708 56.3462 53.5573 56.0357C52.8439 55.7266 52.5154 54.8958 52.8245 54.1824C52.8604 54.101 52.9018 54.0251 52.9501 53.9547L52.9681 53.9285C54.5716 51.5825 56.6734 49.5966 59.1615 48.3381C61.6331 47.0643 64.4828 46.5441 67.1848 46.9664C69.8965 47.3155 72.415 48.5285 74.503 50.2135C76.5895 51.9068 78.2414 54.1451 79.2032 56.6981C79.3164 56.9948 79.1674 57.3274 78.8707 57.4392C78.574 57.5523 78.2414 57.4033 78.1296 57.1066C78.1241 57.0942 78.1186 57.0776 78.1144 57.0624Z" fill="#33896E"/>
<path d="M101.427 79.4037C100.632 81.671 97.8015 80.2413 96.5098 79.3195C96.398 79.1111 96.1993 78.9524 95.8861 78.951C91.655 78.9262 87.4225 79.0159 83.197 79.2312C80.5529 79.3664 75.9216 79.1608 75.1378 82.3707C75.077 82.4659 75.0315 82.5763 75.0136 82.7088C74.7431 84.7788 72.7462 86.0042 70.7728 85.4412C70.1063 85.2507 69.546 85.9476 69.8524 86.5617C71.5746 90.0103 75.8471 90.9391 78.8927 88.8208C80.9627 91.1088 84.4293 91.1778 86.5642 88.9312C89.418 90.7293 93.2061 89.2472 93.9817 85.9766C98.2279 87.26 102.64 84.1867 102.957 79.6603C103.021 78.7578 101.712 78.5895 101.427 79.4037Z" fill="#383D84"/>
<path d="M90.856 78.9537C89.752 78.6252 88.5472 78.5645 87.4046 78.4679C86.1447 78.363 84.8764 78.312 83.6137 78.4017C81.2263 78.5714 78.948 79.2449 77.0077 80.6552C76.7013 80.6552 76.3867 80.8001 76.2294 81.1451C75.1599 83.5008 76.5937 86.3105 79.137 86.7921C80.201 86.9936 81.207 86.7396 82.0309 86.2083C82.5967 87.0777 83.5668 87.7139 84.7357 87.7167C86.055 87.7194 87.2956 86.8997 87.9124 85.7474C88.3444 86.1849 88.8715 86.5257 89.5519 86.6831C91.5957 87.1536 92.9812 85.4079 93.4545 83.6222C94.0245 81.4667 93.0102 79.594 90.856 78.9537Z" fill="#FFB552"/>
<path d="M90.3067 81.6062C89.5891 79.837 87.693 79.1912 85.9321 79.0518C84.8668 78.9676 83.7959 79.0352 82.7374 79.1677C81.7618 79.2891 80.7254 79.434 79.7939 79.7597C78.8265 80.0978 78.1337 80.8527 78.2221 81.9291C78.2428 82.1747 78.3118 82.3941 78.3946 82.6053C78.5119 84.2613 79.7801 85.7199 81.4554 85.9504C82.7567 86.1298 84.065 85.4633 84.8074 84.4089C85.75 85.3032 86.9837 85.8593 88.3264 85.5129C90.0914 85.0575 90.994 83.298 90.3067 81.6062Z" fill="#F78721"/>
<path d="M97.658 72.8968C97.0715 72.5228 96.336 73.0844 96.4795 73.7427C96.6782 74.6549 96.7541 75.6913 96.3249 76.5551C95.7771 77.6591 94.5185 77.764 93.5304 77.1872C91.2148 75.8375 91.851 72.371 91.9172 70.174C92.0373 66.1858 90.5124 62.1314 87.3522 59.588C84.4155 57.2255 80.3073 56.737 76.8835 58.3157C72.9905 60.1124 71.5319 64.3283 71.8907 68.3855C72.1363 71.1593 73.1037 73.7744 73.9579 76.4033C74.2836 77.408 75.6305 81.9068 73.054 81.1561C72.4371 80.9767 71.0461 78.0869 70.5065 78.9743C69.0216 81.4196 70.6321 84.457 73.3479 84.969C75.8844 85.4479 78.0289 83.9105 79.1564 81.7853C82.4104 85.8467 85.9156 82.3111 85.9156 82.3111C85.9156 82.3111 88.0919 83.4496 89.3559 83.0218C90.1149 82.7651 90.7428 82.2421 91.1679 81.5825C93.3055 83.3696 96.7362 83.5462 98.7772 81.4183C101.119 78.9784 100.459 74.6825 97.658 72.8968Z" fill="#6265CE"/>
<path d="M86.5407 76.634C86.5697 76.0351 86.5987 75.4362 86.6194 74.84C86.7408 71.4935 86.6677 67.5895 85.1938 63.996C83.9988 61.0787 81.9025 58.7686 79.4586 57.5376C79.0294 57.6066 78.6043 57.6991 78.1848 57.8246C80.851 58.7989 83.1956 61.1822 84.468 64.2927C85.8866 67.7482 85.9542 71.5501 85.8355 74.8124C85.8148 75.4058 85.7859 76.002 85.7569 76.5968C85.663 78.5329 85.5927 80.5105 85.7458 82.4673C85.8535 82.3735 85.9128 82.3141 85.9128 82.3141C85.9128 82.3141 86.1681 82.4438 86.538 82.597C86.3682 80.6222 86.4455 78.6074 86.5407 76.634Z" fill="#4D52A8"/>
<path d="M90.1563 77.513C89.7202 75.254 89.6263 72.8969 89.5325 70.6199C89.4966 69.7188 89.4594 68.8176 89.4028 67.9192C89.2455 65.4325 88.8936 62.8505 87.3921 60.8136C86.2605 59.2763 84.6653 58.3034 82.8492 57.5789C81.926 57.4161 80.9862 57.3802 80.0505 57.4754C82.7857 58.2358 85.2559 59.2322 86.7629 61.2787C88.1442 63.1514 88.4727 65.6009 88.6217 67.9689C88.6783 68.8618 88.7142 69.7574 88.7514 70.653C88.8439 72.9604 88.9419 75.345 89.3862 77.662C89.6388 78.9744 90.0693 80.5366 90.8021 82.0642C90.936 81.9152 91.0602 81.7565 91.1678 81.5881C91.2989 81.6985 91.4493 81.7827 91.5901 81.8807C90.8463 80.3737 90.4061 78.8157 90.1563 77.513Z" fill="#4D52A8"/>
<path d="M79.3799 78.5163C79.3165 77.7835 79.253 77.0507 79.155 76.3345C78.7879 73.6449 77.8909 71.0491 77.0257 68.5375C76.6972 67.5881 76.3702 66.6373 76.0693 65.6823C75.5201 63.9352 74.9805 61.8721 74.8246 59.7207C74.5665 59.9567 74.3236 60.2051 74.1014 60.47C74.3181 62.4407 74.8177 64.3092 75.3214 65.9169C75.625 66.8802 75.9548 67.8379 76.286 68.7942C77.1402 71.2699 78.0234 73.8298 78.3808 76.4422C78.4774 77.146 78.5395 77.865 78.6016 78.5853C78.701 79.7197 78.8031 80.8733 79.0363 81.9856C79.075 81.918 79.1205 81.8573 79.1564 81.7883C79.4407 82.143 79.7277 82.4217 80.0134 82.6687C79.6283 81.3522 79.5028 79.9198 79.3799 78.5163Z" fill="#4D52A8"/>
<path d="M84.341 83.3545C83.84 80.9768 83.5737 78.5259 83.3308 76.1413C83.1307 74.1955 82.9265 72.1848 82.5884 70.2211C81.6679 64.9067 79.7621 60.913 76.9373 58.2979C76.9207 58.3061 76.9014 58.3103 76.8848 58.3172C76.6433 58.429 76.4391 58.5752 76.2169 58.7049C79.0169 61.1931 80.9089 65.0944 81.817 70.3535C82.1509 72.2897 82.3552 74.2865 82.5525 76.2199C82.8009 78.657 83.0728 81.1631 83.5958 83.6112C83.8607 83.5436 84.1105 83.4566 84.341 83.3545Z" fill="#4D52A8"/>
<path d="M75.1184 73.1924C74.721 72.2968 74.3098 71.3708 73.9648 70.4421C73.1064 68.1264 72.6275 65.6935 72.5254 63.2412C72.2549 63.9919 72.0576 64.7744 71.9541 65.5817C72.1956 67.3274 72.6151 69.051 73.232 70.7139C73.5853 71.6647 74.002 72.6018 74.4036 73.5098C74.7624 74.3157 75.1336 75.1492 75.4538 75.9814C76.2652 78.0859 76.5881 79.8026 76.4722 81.3813C76.3701 82.7682 75.8747 84.0254 75.1157 84.979C75.5393 84.9031 75.9395 84.7595 76.3218 84.5788C76.8338 83.6569 77.1677 82.586 77.2533 81.4379C77.3775 79.7391 77.038 77.9161 76.1852 75.6999C75.8567 74.8512 75.4814 74.008 75.1184 73.1924Z" fill="#4D52A8"/>
<path opacity="0.5" d="M80.3169 61.749C80.0768 60.9058 79.4985 60.1427 78.6526 59.8405C77.7142 59.5051 76.7454 59.8763 75.9947 60.4532C74.6147 61.5144 73.6901 63.2656 73.2982 64.9368C72.9642 66.3623 72.8539 67.9121 73.1892 69.3473C73.3465 70.018 73.6239 70.8915 74.1483 71.3759C74.4215 71.6284 75.0149 71.9224 75.3116 71.5415C75.4179 71.4049 75.4593 71.2296 75.5034 71.0612C75.9533 69.3583 77.1001 68.0818 78.2193 66.7763C79.3826 65.4239 80.8675 63.6796 80.3169 61.749Z" fill="white"/>
<path d="M84.7371 57.5166C84.6943 57.4959 84.6529 57.4766 84.6143 57.46C82.6906 56.6141 80.8524 55.9614 78.7355 56.4154C77.8661 56.6017 77.0298 56.9412 76.2777 57.4173C75.6263 57.8313 75.0536 58.3584 74.5637 58.9518C74.3181 59.2485 74.0945 59.5632 73.8875 59.8888C73.7675 60.0793 73.3438 60.583 73.5246 60.8107C73.6488 60.9666 73.9386 60.9114 74.1001 60.8728C75.9603 60.4188 77.9116 60.2311 79.8257 59.933C80.8303 59.7757 81.7756 59.5093 82.7775 59.3368C83.5682 59.2002 84.9137 58.8028 85.8204 58.5778C86.4828 58.4136 85.187 57.7319 84.7371 57.5166Z" fill="#33896E"/>
<path d="M134.569 52.7448C132.74 55.36 129.63 52.5185 128.308 50.875C128.24 50.5686 128.042 50.294 127.643 50.1808C122.237 48.6338 116.792 47.2331 111.308 45.9953C107.877 45.2211 102.024 43.2988 99.873 47.1255C99.7612 47.2262 99.6632 47.3518 99.5942 47.5146C98.5067 50.0663 95.5135 50.9191 93.1896 49.4922C92.4044 49.0106 91.4384 49.7006 91.6095 50.5962C92.5769 55.6249 97.7119 58.3435 102.367 56.7248C104.196 60.3928 108.604 61.7231 112.141 59.6145C115.148 62.9375 120.526 62.398 122.688 58.4912C127.662 61.6541 134.406 59.3026 136.433 53.6253C136.839 52.4896 135.226 51.8064 134.569 52.7448Z" fill="#383D84"/>
<path d="M121.205 48.3822C119.911 47.5667 118.39 47.0574 116.963 46.5261C115.388 45.9396 113.785 45.4208 112.137 45.0827C109.022 44.4437 105.865 44.4906 102.879 45.6002C102.487 45.4898 102.031 45.5629 101.707 45.9493C99.4948 48.581 100.321 52.6892 103.404 54.2155C104.693 54.8544 106.072 54.8903 107.315 54.5053C107.728 55.8204 108.739 56.9824 110.234 57.4047C111.922 57.8808 113.803 57.275 115.003 56.0233C115.399 56.7381 115.953 57.3633 116.766 57.8076C119.212 59.1421 121.611 57.4047 122.855 55.2891C124.36 52.7334 123.732 49.9734 121.205 48.3822Z" fill="#FFB552"/>
<path d="M119.553 51.5815C119.269 49.0616 117.075 47.5546 114.871 46.7459C113.539 46.2574 112.143 45.9607 110.742 45.751C109.45 45.5578 108.073 45.3715 106.765 45.4543C105.407 45.5412 104.249 46.2574 103.976 47.6664C103.914 47.9879 103.923 48.2943 103.954 48.5938C103.509 50.7549 104.61 53.076 106.672 53.9702C108.273 54.6658 110.184 54.2821 111.513 53.1988C112.398 54.681 113.778 55.8346 115.62 55.8719C118.042 55.9188 119.826 53.991 119.553 51.5815Z" fill="#F78721"/>
<path d="M132.077 43.0709C131.46 42.3823 130.32 42.8377 130.266 43.732C130.193 44.9712 129.92 46.3236 129.061 47.2758C127.964 48.493 126.318 48.1756 125.259 47.084C122.78 44.5268 124.836 40.3206 125.707 37.533C127.288 32.4725 126.79 26.7386 123.657 22.3558C120.747 18.282 115.664 16.1844 110.718 16.9793C105.095 17.8832 101.718 22.7546 100.723 28.0731C100.043 31.7094 100.345 35.4023 100.495 39.0717C100.553 40.4738 100.664 46.7128 97.636 44.8291C96.9115 44.3778 96.1663 40.1826 95.1575 41.1251C92.381 43.7223 93.3553 48.1838 96.6466 49.8122C99.7212 51.333 103.014 50.1352 105.219 47.8195C107.927 54.1813 113.679 50.9135 113.679 50.9135C113.679 50.9135 116.055 53.1505 117.825 53.0552C118.888 52.9987 119.879 52.5529 120.659 51.8629C122.753 54.9155 127.08 56.3686 130.452 54.3773C134.327 52.092 135.02 46.3595 132.077 43.0709Z" fill="#6265CE"/>
<path d="M116.516 43.8712C116.767 43.115 117.018 42.3601 117.258 41.6039C118.612 37.3659 119.917 32.3455 119.32 27.2188C118.836 23.0581 116.981 19.3514 114.295 16.9019C113.723 16.837 113.144 16.8025 112.563 16.8136C115.626 19.0147 117.77 22.9035 118.285 27.3388C118.862 32.2682 117.588 37.1561 116.267 41.2865C116.029 42.0386 115.778 42.7907 115.528 43.5414C114.715 45.9854 113.916 48.4887 113.412 51.0472C113.583 50.9672 113.681 50.912 113.681 50.912C113.681 50.912 113.96 51.1687 114.38 51.4971C114.867 48.911 115.688 46.3607 116.516 43.8712Z" fill="#4D52A8"/>
<path d="M120.826 46.2902C121.078 43.2445 121.801 40.1947 122.497 37.247C122.773 36.0809 123.049 34.9148 123.3 33.7446C123.99 30.5057 124.465 27.0764 123.272 23.9342C122.374 21.5633 120.683 19.7459 118.619 18.1685C117.497 17.629 116.307 17.2467 115.075 17.0342C118.303 18.9869 121.104 21.1466 122.299 24.3026C123.395 27.1937 122.938 30.445 122.281 33.5279C122.034 34.6899 121.76 35.8491 121.487 37.0069C120.779 39.9919 120.05 43.0789 119.789 46.2019C119.643 47.9724 119.633 50.1252 120.024 52.3401C120.249 52.198 120.464 52.0379 120.663 51.8612C120.791 52.0489 120.952 52.2104 121.097 52.3856C120.683 50.197 120.679 48.0469 120.826 46.2902Z" fill="#4D52A8"/>
<path d="M106.681 43.7141C106.863 42.7536 107.043 41.7945 107.173 40.8423C107.667 37.2709 107.449 33.6277 107.241 30.1032C107.161 28.7701 107.082 27.4384 107.041 26.1067C106.963 23.6737 107.013 20.842 107.583 18.0337C107.168 18.2435 106.769 18.4739 106.389 18.732C105.962 21.3305 105.931 23.9001 106 26.137C106.043 27.4784 106.123 28.8211 106.203 30.1639C106.409 33.6373 106.621 37.2281 106.144 40.6988C106.015 41.6331 105.837 42.577 105.658 43.5195C105.378 45.0072 105.096 46.5196 104.997 48.0252C105.07 47.9535 105.15 47.8914 105.222 47.8168C105.459 48.373 105.726 48.8325 106.003 49.2493C105.982 47.4305 106.334 45.5523 106.681 43.7141Z" fill="#4D52A8"/>
<path d="M111.294 51.6809C111.505 48.4586 112.042 45.228 112.586 42.0899C113.027 39.53 113.485 36.8831 113.756 34.2487C114.482 27.1196 113.474 21.3278 110.796 16.9697C110.771 16.9739 110.746 16.9725 110.721 16.9766C110.372 17.0332 110.059 17.1477 109.726 17.2333C112.417 21.4202 113.44 27.0879 112.719 34.1424C112.454 36.7396 111.999 39.3685 111.559 41.9105C111.004 45.1162 110.455 48.4213 110.246 51.7388C110.612 51.7512 110.963 51.7292 111.294 51.6809Z" fill="#4D52A8"/>
<path d="M103.134 35.3759C102.946 34.087 102.75 32.7553 102.643 31.4443C102.374 28.1737 102.633 24.8907 103.38 21.7153C102.765 22.5792 102.233 23.508 101.81 24.5057C101.493 26.8269 101.413 29.1811 101.606 31.5299C101.717 32.874 101.915 34.2223 102.104 35.5264C102.276 36.6856 102.451 37.8862 102.563 39.0647C102.847 42.0469 102.645 44.3598 101.932 46.3387C101.305 48.0761 100.219 49.5072 98.9083 50.4552C99.4783 50.509 100.04 50.469 100.595 50.3766C101.58 49.3802 102.39 48.1313 102.91 46.692C103.678 44.5626 103.897 42.109 103.599 38.9681C103.484 37.762 103.306 36.5489 103.134 35.3759Z" fill="#4D52A8"/>
<path opacity="0.5" d="M113.884 22.5983C113.879 21.4322 113.412 20.2509 112.439 19.5609C111.36 18.795 109.986 18.9247 108.82 19.3939C106.672 20.2578 104.863 22.1664 103.765 24.1646C102.826 25.8689 102.131 27.8106 102.045 29.7674C102.005 30.681 102.048 31.8995 102.546 32.7068C102.805 33.1277 103.458 33.717 103.976 33.3347C104.161 33.1981 104.277 32.9883 104.394 32.7896C105.579 30.772 107.503 29.5494 109.403 28.2811C111.373 26.9646 113.897 25.2658 113.884 22.5983Z" fill="white"/>
<path d="M118.874 17.6511C118.824 17.6194 118.776 17.589 118.731 17.5628C116.49 16.2325 114.326 15.1519 111.651 15.3907C110.553 15.4886 109.472 15.7798 108.476 16.2545C107.612 16.6658 106.827 17.2288 106.134 17.8857C105.788 18.2141 105.463 18.5674 105.161 18.9373C104.984 19.1539 104.387 19.7101 104.576 20.0178C104.704 20.2289 105.07 20.2041 105.274 20.1806C107.633 19.9019 110.063 19.9654 112.464 19.8867C113.724 19.8453 114.927 19.659 116.187 19.5983C117.181 19.55 118.898 19.2629 120.049 19.1222C120.886 19.0201 119.394 17.9837 118.874 17.6511Z" fill="#33896E"/>
<path d="M200.439 42.3093C199.814 46.5514 194.367 45.0058 191.791 43.8259C191.524 43.4988 191.123 43.2877 190.573 43.3912C183.148 44.7808 175.76 46.3706 168.424 48.1784C163.834 49.31 155.647 50.5175 155.361 56.4087C155.287 56.5964 155.244 56.8062 155.259 57.0435C155.485 60.764 152.4 63.5875 148.751 63.2701C147.517 63.1624 146.771 64.5742 147.516 65.5457C151.702 71.0077 159.507 71.1899 164.128 66.4455C168.532 69.7547 174.63 68.7031 177.614 64.0429C183.225 66.2288 189.364 62.3482 189.616 56.3535C197.494 57.165 204.187 50.2857 203.211 42.243C203.014 40.6367 200.664 40.7871 200.439 42.3093Z" fill="#383D84"/>
<path d="M181.755 45.0996C179.709 44.8981 177.575 45.199 175.541 45.417C173.296 45.6585 171.056 45.9994 168.873 46.5831C164.745 47.6885 160.979 49.6412 158.056 52.7711C157.518 52.8746 157.016 53.2361 156.859 53.8944C155.782 58.3863 159.245 62.8271 163.866 62.8092C165.8 62.8023 167.478 62.0171 168.742 60.8068C170.029 62.1399 171.943 62.9279 173.993 62.5373C176.308 62.0957 178.203 60.2369 178.894 58.0095C179.801 58.6292 180.84 59.0501 182.085 59.0942C185.828 59.2281 187.666 55.698 187.891 52.4067C188.163 48.4323 185.749 45.4929 181.755 45.0996Z" fill="#FFB552"/>
<path d="M181.693 49.9349C179.836 47.0769 176.294 46.5857 173.159 46.9376C171.264 47.1501 169.408 47.6331 167.599 48.2223C165.931 48.7661 164.163 49.3719 162.641 50.2565C161.061 51.1769 160.1 52.7336 160.619 54.591C160.738 55.0161 160.934 55.3763 161.15 55.7185C161.915 58.582 164.633 60.71 167.649 60.5471C169.991 60.4215 172.058 58.8097 173.003 56.7093C174.957 57.9596 177.309 58.5158 179.546 57.4532C182.482 56.058 183.468 52.6673 181.693 49.9349Z" fill="#F78721"/>
<path d="M191.629 32.1801C190.474 31.7233 189.377 32.9556 189.85 34.0624C190.507 35.5956 190.992 37.3854 190.533 39.0456C189.947 41.1666 187.776 41.7752 185.85 41.1004C181.333 39.5175 181.275 33.2261 180.647 29.3525C179.507 22.32 175.461 15.7291 169.061 12.3426C163.113 9.19617 155.745 9.72885 150.279 13.6577C144.063 18.1248 142.933 26.0087 144.934 32.9998C146.303 37.7801 148.885 42.036 151.272 46.3554C152.185 48.0059 156.068 55.4372 151.296 54.9942C150.155 54.888 146.736 50.294 146.092 52.0328C144.316 56.8227 148.169 61.6003 153.102 61.5796C157.711 61.5603 160.949 58.1406 162.206 54.031C169.284 60.0492 174.234 52.6648 174.234 52.6648C174.234 52.6648 178.435 53.9247 180.506 52.7476C181.75 52.0396 182.673 50.9094 183.195 49.6122C187.547 52.0217 193.62 51.1689 196.477 46.7473C199.756 41.6689 197.144 34.3632 191.629 32.1801Z" fill="#6265CE"/>
<path d="M173.406 42.4955C173.254 41.4356 173.101 40.3772 172.937 39.3242C172.018 33.4178 170.567 26.5979 166.768 20.7964C163.685 16.0864 159.228 12.7468 154.529 11.4165C153.802 11.6842 153.086 11.9892 152.394 12.3521C157.398 13.1567 162.314 16.5418 165.597 21.5623C169.252 27.1402 170.66 33.7808 171.556 39.5395C171.72 40.5869 171.872 41.6413 172.023 42.6942C172.515 46.1194 173.06 49.6094 173.993 52.9876C174.15 52.7875 174.234 52.6633 174.234 52.6633C174.234 52.6633 174.724 52.8041 175.425 52.9476C174.454 49.5445 173.908 45.9855 173.406 42.4955Z" fill="#4D52A8"/>
<path d="M180.041 42.8129C178.514 38.9999 177.55 34.9013 176.615 30.9407C176.246 29.3731 175.878 27.8068 175.475 26.2501C174.357 21.9431 172.867 17.5368 169.545 14.476C167.04 12.1658 163.916 10.9984 160.487 10.3442C158.814 10.3705 157.154 10.6258 155.545 11.1101C160.598 11.5172 165.264 12.428 168.598 15.5041C171.654 18.3193 173.059 22.502 174.121 26.6034C174.523 28.149 174.89 29.707 175.257 31.2637C176.201 35.2753 177.181 39.425 178.744 43.3359C179.631 45.5522 180.915 48.1452 182.716 50.574C182.901 50.2676 183.062 49.9475 183.196 49.6135C183.464 49.7612 183.755 49.8592 184.035 49.9834C182.219 47.5932 180.92 45.0112 180.041 42.8129Z" fill="#4D52A8"/>
<path d="M161.491 48.2185C161.133 46.9545 160.774 45.6931 160.357 44.4705C158.804 39.8806 156.352 35.6329 153.983 31.5233C153.086 29.9694 152.19 28.4142 151.34 26.841C149.785 23.9637 148.143 20.5288 147.139 16.8125C146.767 17.3148 146.426 17.8309 146.125 18.3705C147.172 21.7501 148.681 24.8579 150.109 27.5047C150.967 29.0917 151.87 30.6567 152.774 32.223C155.109 36.2733 157.524 40.4616 159.036 44.9203C159.443 46.1209 159.797 47.3616 160.149 48.6036C160.706 50.5604 161.276 52.5462 162.063 54.4175C162.107 54.2878 162.166 54.1636 162.208 54.0325C162.827 54.5583 163.423 54.9502 164.007 55.2855C162.886 53.1051 162.18 50.6363 161.491 48.2185Z" fill="#4D52A8"/>
<path d="M171.825 55.0206C170.141 51.0213 168.845 46.8151 167.613 42.7179C166.604 39.3755 165.564 35.9186 164.307 32.5914C160.894 23.5869 156.2 17.2306 150.363 13.604C150.335 13.6233 150.305 13.6371 150.277 13.6564C149.891 13.9338 149.583 14.2609 149.237 14.5631C154.987 17.9772 159.624 24.1762 162.998 33.0868C164.24 36.3671 165.274 39.8005 166.273 43.1208C167.534 47.3077 168.859 51.6106 170.603 55.723C171.048 55.5146 171.455 55.2772 171.825 55.0206Z" fill="#4D52A8"/>
<path d="M152.218 40.3277C151.217 38.8925 150.182 37.409 149.265 35.8979C146.975 32.1305 145.314 28.0264 144.302 23.7622C144.083 25.1698 144.001 26.6064 144.092 28.0595C145.107 31.0389 146.424 33.9176 148.069 36.6238C149.011 38.1722 150.059 39.6736 151.071 41.1281C151.973 42.4184 152.905 43.7557 153.748 45.1053C155.882 48.5194 157.03 51.4188 157.361 54.2271C157.652 56.6918 157.208 59.064 156.202 60.9932C156.919 60.7159 157.571 60.3295 158.181 59.8837C158.766 58.0938 158.989 56.1053 158.749 54.0629C158.392 51.042 157.179 47.9619 154.934 44.3656C154.072 42.9856 153.131 41.6346 152.218 40.3277Z" fill="#4D52A8"/>
<path opacity="0.5" d="M157.458 18.5099C156.75 17.1119 155.479 15.9721 153.894 15.7278C152.136 15.4573 150.563 16.4371 149.444 17.7026C147.384 20.0306 146.355 23.413 146.235 26.4739C146.133 29.0848 146.463 31.8393 147.538 34.2419C148.04 35.3638 148.823 36.8032 149.906 37.4739C150.471 37.8244 151.61 38.139 152.002 37.369C152.143 37.093 152.156 36.7714 152.176 36.4623C152.389 33.3242 153.966 30.6994 155.487 28.0333C157.063 25.2677 159.075 21.7087 157.458 18.5099Z" fill="white"/>
<path d="M163.289 10.0364C163.199 10.0199 163.113 10.0061 163.032 9.99365C159.054 9.39335 155.331 9.10493 151.643 11.001C150.129 11.7794 148.752 12.8254 147.603 14.0826C146.606 15.1728 145.81 16.4341 145.202 17.7768C144.897 18.4489 144.638 19.1417 144.422 19.8468C144.295 20.2595 143.765 21.4021 144.212 21.7333C144.518 21.9596 145.028 21.7126 145.305 21.5594C148.516 19.7903 152.03 18.4682 155.418 16.9599C157.196 16.1678 158.81 15.2031 160.576 14.382C161.97 13.7348 164.258 12.3258 165.821 11.4578C166.964 10.8244 164.228 10.2089 163.289 10.0364Z" fill="#33896E"/>
</svg>
