<svg width="169" height="235" viewBox="0 0 169 235" fill="none" xmlns="http://www.w3.org/2000/svg">
<path d="M48.5844 35.9271C36.5746 54.8269 30.1664 78.169 29.091 101.641C28.0597 124.161 32.2304 147.917 44.7718 165.11C55.8296 180.27 72.3706 188.912 89.1756 192.515C103.163 195.514 118.51 195.038 130.439 186.026C141.317 177.809 147.839 163.654 151.967 149.346C160.025 121.421 160.469 90.2333 151.439 62.7133C142.857 36.5613 126.409 16.996 105.432 3.92928C85.2407 -8.64689 60.1751 17.6885 48.5844 35.9271Z" fill="white"/>
<path d="M119.634 117.443C125.254 80.3487 137.028 44.5711 154.099 12.6472C154.193 12.4695 154.394 12.4154 154.546 12.5264C154.698 12.6359 154.744 12.8662 154.652 13.044C137.871 45.0632 126.432 80.8179 121.132 117.743C121.062 118.225 120.671 118.551 120.257 118.47C119.843 118.389 119.563 117.934 119.633 117.451L119.634 117.443Z" fill="#33896E"/>
<path d="M133.484 60.7281C132.571 61.3012 131.306 60.9371 130.728 59.9346C130.15 58.9307 130.342 57.4319 131.145 56.6669C130.111 56.3612 129.322 55.1724 129.329 53.9295C129.337 52.6867 130.138 51.5107 131.176 51.2206C130.204 49.9152 130.009 47.9017 130.705 46.3773C131.402 44.8529 132.945 43.9158 134.419 44.122C134.108 43.3243 134.187 42.3388 134.617 41.6207C135.047 40.9026 135.814 40.476 136.565 40.5386C135.565 39.0952 135.406 36.9352 136.182 35.3156C136.957 33.6959 138.618 32.7162 140.199 32.9451C140.321 31.243 141.843 29.8707 143.27 30.2675C142.631 28.699 142.703 26.7651 143.456 25.2663C144.208 23.7675 145.621 22.7465 147.109 22.6256C146.566 21.0316 147.339 19.0038 148.719 18.4037C148.064 16.8424 148.201 14.8715 149.063 13.4523C149.926 12.0346 151.478 11.2283 152.962 11.4288C152.916 9.84896 153.814 8.26202 155.112 7.7956C156.41 7.32919 157.979 8.12264 158.485 9.58872C158.992 11.0548 158.258 12.9617 156.953 13.3997C157.889 13.5775 158.663 14.5643 158.731 15.6649C158.798 16.7656 158.151 17.8705 157.247 18.2018C158.668 19.4859 159.256 21.8862 158.628 23.8486C158 25.8109 156.207 27.1803 154.41 27.0694C155.043 28.4672 154.252 30.4481 152.926 30.7865C153.99 31.8914 154.391 33.7812 153.89 35.3355C153.39 36.8897 152.021 38.0074 150.594 38.0273C150.951 38.6786 150.884 39.6057 150.437 40.1774C149.991 40.7505 149.205 40.9182 148.612 40.5684C149.759 41.4216 150.219 43.3228 149.627 44.7477C149.034 46.1725 147.466 46.9291 146.181 46.4129C146.514 46.9831 146.519 47.7865 146.194 48.3624C145.869 48.9384 145.231 49.2497 144.649 49.1189C145.941 50.6661 146.041 53.3579 144.868 55.0288C143.695 56.6996 141.409 57.1234 139.848 55.9602C140.352 57.8984 138.709 60.1181 136.988 59.8266C137.803 61.1035 137.199 63.2351 135.891 63.6973C134.585 64.1594 133.416 62.3165 133.484 60.7281Z" fill="#FFB552"/>
<path d="M139.064 52.0567C139.021 52.7037 139.412 53.3479 139.946 53.537C140.48 53.7261 141.102 53.4588 141.416 52.9227C141.689 52.4577 141.72 51.8036 141.456 51.3315C140.849 50.2479 139.147 50.7741 139.064 52.0567Z" fill="#F78721"/>
<path d="M137.774 37.6475C137.732 38.2946 138.123 38.9387 138.656 39.1278C139.188 39.317 139.812 39.0496 140.126 38.5135C140.398 38.0485 140.43 37.3944 140.166 36.9223C139.561 35.8388 137.859 36.3649 137.774 37.6475Z" fill="#F78721"/>
<path d="M152.808 21.8409C152.765 22.4879 153.156 23.1321 153.69 23.3212C154.223 23.5117 154.846 23.243 155.16 22.7069C155.432 22.2419 155.464 21.5878 155.2 21.1157C154.594 20.0321 152.892 20.5583 152.808 21.8409Z" fill="#F78721"/>
<path d="M142.149 50.5638C142.246 50.8652 142.557 51.0487 142.824 50.9606C143.09 50.8724 143.272 50.5254 143.219 50.2097C143.187 50.0277 143.085 49.8628 142.946 49.7718C142.501 49.4788 141.97 50.0049 142.149 50.5638Z" fill="#F78721"/>
<path d="M146.457 25.5521C146.553 25.8536 146.865 26.037 147.133 25.9488C147.399 25.8607 147.581 25.5137 147.527 25.198C147.497 25.016 147.394 24.851 147.255 24.76C146.81 24.4671 146.277 24.9933 146.457 25.5521Z" fill="#F78721"/>
<path d="M155.418 17.094C155.514 17.3955 155.826 17.5789 156.094 17.4907C156.361 17.4026 156.542 17.0556 156.488 16.7399C156.458 16.5579 156.355 16.3929 156.216 16.3005C155.771 16.009 155.238 16.5337 155.418 17.094Z" fill="#F78721"/>
<path d="M149.561 33.6487C149.657 33.9502 149.969 34.1336 150.235 34.0454C150.502 33.9572 150.684 33.6103 150.63 33.2946C150.599 33.1126 150.497 32.9476 150.357 32.8552C149.914 32.5637 149.381 33.0884 149.561 33.6487Z" fill="#F78721"/>
<path d="M142.149 36.7459C142.246 37.0473 142.557 37.2307 142.824 37.1426C143.09 37.0544 143.272 36.7074 143.219 36.3917C143.187 36.2097 143.085 36.0448 142.946 35.9524C142.501 35.6608 141.97 36.1856 142.149 36.7459Z" fill="#F78721"/>
<path d="M135.164 51.8592C135.261 52.1607 135.572 52.3441 135.84 52.256C136.106 52.1678 136.289 51.8209 136.235 51.5052C136.203 51.3232 136.102 51.1582 135.962 51.0672C135.517 50.7742 134.986 51.3004 135.164 51.8592Z" fill="#F78721"/>
<path d="M141.01 49.2468C140.926 49.3677 140.904 49.5625 140.998 49.6748C141.051 49.7374 141.13 49.763 141.205 49.7573C141.351 49.7473 141.487 49.6193 141.527 49.4544C141.56 49.3193 141.524 49.0634 141.387 49.0164C141.266 48.9738 141.08 49.1458 141.01 49.2468Z" fill="#F78721"/>
<path d="M149.855 26.8148C149.771 26.9371 149.749 27.1305 149.843 27.2428C149.896 27.3054 149.975 27.331 150.05 27.3253C150.196 27.3153 150.332 27.1873 150.372 27.0224C150.405 26.8873 150.368 26.6314 150.232 26.5844C150.111 26.5432 149.925 26.7138 149.855 26.8148Z" fill="#F78721"/>
<path d="M151.193 17.3758C151.109 17.4981 151.087 17.6915 151.181 17.8038C151.234 17.8664 151.313 17.892 151.388 17.8863C151.534 17.8764 151.67 17.7484 151.71 17.5834C151.743 17.4483 151.707 17.1924 151.57 17.1455C151.447 17.1042 151.263 17.2749 151.193 17.3758Z" fill="#F78721"/>
<path d="M141.887 39.7636C141.802 39.8844 141.78 40.0793 141.874 40.1902C141.927 40.2528 142.006 40.2783 142.081 40.2726C142.227 40.2627 142.363 40.1347 142.403 39.9698C142.436 39.8347 142.4 39.5787 142.263 39.5318C142.141 39.492 141.955 39.6626 141.887 39.7636Z" fill="#F78721"/>
<path d="M131.132 53.4619C131.047 53.5827 131.025 53.7775 131.12 53.8884C131.172 53.951 131.251 53.9766 131.326 53.9709C131.473 53.961 131.608 53.833 131.649 53.668C131.682 53.5329 131.645 53.277 131.508 53.23C131.387 53.1902 131.201 53.3609 131.132 53.4619Z" fill="#F78721"/>
<path d="M95.4994 140.387C67.5926 123.069 36.8483 112.052 5.46004 108.099C5.28652 108.078 5.13009 108.224 5.11054 108.426C5.09221 108.628 5.21563 108.809 5.38915 108.832C36.665 113.102 67.1918 124.405 94.7955 141.909C95.156 142.138 95.607 141.983 95.8025 141.563C95.9992 141.144 95.866 140.619 95.5055 140.391L95.4994 140.387Z" fill="#33896E"/>
<path d="M49.6646 118.615C50.5946 118.143 51.1152 116.792 50.7999 115.67C50.4846 114.548 49.3787 113.816 48.3889 114.075C48.8092 112.964 48.4989 111.542 47.674 110.8C46.8492 110.058 45.5881 110.067 44.7705 110.821C44.4931 109.164 43.2797 107.777 41.8524 107.481C40.4251 107.186 38.8756 108.003 38.1241 109.447C37.7831 108.688 37.0854 108.165 36.351 108.118C35.6166 108.07 34.8724 108.5 34.4618 109.21C34.1098 107.445 32.7778 106.003 31.2406 105.72C29.7033 105.439 28.0548 106.335 27.2532 107.888C26.0544 106.972 24.2312 107.505 23.6336 109.024C22.9823 107.506 21.6601 106.406 20.2157 106.177C18.7713 105.948 17.245 106.598 16.2686 107.858C15.5428 106.41 13.7366 105.88 12.5073 106.754C11.8707 105.227 10.4849 104.162 9.02703 104.079C7.57041 103.997 6.10157 104.901 5.34026 106.349C4.32356 105.356 2.73251 105.204 1.64249 106.084C0.552464 106.965 0.130882 108.847 0.79565 110.184C1.4592 111.521 3.16268 112.013 4.23804 111.108C3.79201 112.053 3.97775 113.341 4.66329 114.065C5.35005 114.789 6.4694 114.875 7.23315 114.265C7.22582 116.311 8.45881 118.282 10.1342 118.904C11.8108 119.524 13.7953 118.745 14.8047 117.069C15.3472 118.477 17.1326 118.963 18.1554 117.981C18.2446 119.599 19.2528 121.096 20.5811 121.584C21.9094 122.073 23.4735 121.522 24.346 120.256C24.5623 120.969 25.2149 121.466 25.8625 121.411C26.5102 121.357 27.0943 120.755 27.2202 120.014C27.0943 121.554 28.0731 123.113 29.3721 123.44C30.6711 123.767 32.1168 122.82 32.5493 121.358C32.7253 121.999 33.2532 122.489 33.83 122.544C34.4068 122.6 34.997 122.217 35.261 121.618C35.5054 123.707 37.2247 125.418 39.0357 125.375C40.8467 125.333 42.505 123.541 42.676 121.442C43.6536 123.06 46.1111 122.928 46.9555 121.21C47.3087 122.709 49.0806 123.453 50.1743 122.56C51.2692 121.668 50.7547 119.511 49.6646 118.615Z" fill="#FFB552"/>
<path d="M40.5705 118.385C41.0239 118.736 41.2133 119.476 41.0177 120.067C40.8222 120.659 40.2687 121.055 39.7261 121.013C39.2544 120.976 38.8035 120.61 38.6495 120.09C38.2988 118.894 39.6723 117.687 40.5705 118.385Z" fill="#F78721"/>
<path d="M31.821 108.55C32.2744 108.902 32.4638 109.641 32.2682 110.231C32.0727 110.823 31.5192 111.219 30.9766 111.177C30.5049 111.14 30.054 110.774 29.9012 110.254C29.5493 109.059 30.9228 107.852 31.821 108.55Z" fill="#F78721"/>
<path d="M12.3154 112.484C12.7688 112.835 12.9582 113.573 12.7627 114.164C12.5671 114.756 12.0136 115.153 11.471 115.11C10.9993 115.073 10.5484 114.708 10.3957 114.187C10.0437 112.991 11.416 111.785 12.3154 112.484Z" fill="#F78721"/>
<path d="M37.7245 120.248C37.8662 120.516 37.799 120.906 37.5802 121.091C37.3615 121.276 37.0218 121.23 36.8458 120.991C36.7444 120.853 36.6968 120.663 36.72 120.484C36.7945 119.909 37.463 119.75 37.7245 120.248Z" fill="#F78721"/>
<path d="M18.5953 109.034C18.737 109.303 18.6698 109.692 18.4511 109.877C18.2323 110.062 17.8926 110.017 17.7167 109.778C17.6152 109.64 17.5676 109.449 17.5908 109.269C17.6653 108.697 18.3338 108.536 18.5953 109.034Z" fill="#F78721"/>
<path d="M7.60459 111.959C7.74634 112.228 7.67915 112.617 7.46041 112.802C7.24167 112.987 6.90316 112.941 6.72597 112.702C6.62455 112.565 6.57689 112.374 6.60011 112.193C6.67465 111.62 7.34308 111.461 7.60459 111.959Z" fill="#F78721"/>
<path d="M22.0768 116.691C22.2185 116.96 22.1513 117.35 21.9325 117.534C21.7138 117.719 21.3753 117.674 21.1981 117.435C21.0967 117.297 21.0491 117.106 21.0723 116.926C21.1468 116.353 21.8152 116.193 22.0768 116.691Z" fill="#F78721"/>
<path d="M28.59 111.922C28.7317 112.191 28.6646 112.58 28.4458 112.765C28.2271 112.95 27.8874 112.905 27.7114 112.666C27.61 112.528 27.5623 112.337 27.5855 112.157C27.6601 111.584 28.3285 111.424 28.59 111.922Z" fill="#F78721"/>
<path d="M42.7884 114.776C42.9302 115.045 42.863 115.435 42.6442 115.619C42.4255 115.804 42.087 115.759 41.9098 115.52C41.8084 115.382 41.7607 115.191 41.7839 115.012C41.8597 114.439 42.5269 114.278 42.7884 114.776Z" fill="#F78721"/>
<path d="M37.5399 118.435C37.6707 118.433 37.8124 118.53 37.8295 118.681C37.8393 118.766 37.8075 118.851 37.7599 118.915C37.6645 119.04 37.4984 119.086 37.3652 119.022C37.2564 118.969 37.1085 118.783 37.1611 118.632C37.2063 118.499 37.4312 118.436 37.5399 118.435Z" fill="#F78721"/>
<path d="M17.383 112.836C17.5138 112.835 17.6555 112.932 17.6727 113.082C17.6824 113.168 17.6506 113.253 17.603 113.317C17.5077 113.442 17.3415 113.488 17.2083 113.424C17.0995 113.371 16.9517 113.185 17.003 113.034C17.0494 112.902 17.2743 112.839 17.383 112.836Z" fill="#F78721"/>
<path d="M10.337 108.347C10.4678 108.346 10.6095 108.442 10.6266 108.593C10.6364 108.679 10.6058 108.764 10.557 108.828C10.4616 108.953 10.2954 108.998 10.1622 108.934C10.0535 108.882 9.90564 108.696 9.95818 108.545C10.0034 108.413 10.2282 108.35 10.337 108.347Z" fill="#F78721"/>
<path d="M30.7444 113.506C30.8751 113.504 31.0169 113.601 31.034 113.752C31.0438 113.837 31.0132 113.923 30.9644 113.987C30.8691 114.112 30.7028 114.157 30.5696 114.093C30.4609 114.041 30.313 113.854 30.3656 113.704C30.4108 113.57 30.6356 113.507 30.7444 113.506Z" fill="#F78721"/>
<path d="M46.2772 112.132C46.408 112.131 46.5497 112.228 46.5668 112.378C46.5766 112.464 46.5461 112.549 46.4972 112.613C46.4019 112.738 46.2357 112.784 46.1025 112.72C45.9937 112.667 45.8459 112.481 45.8984 112.33C45.9448 112.196 46.1685 112.134 46.2772 112.132Z" fill="#F78721"/>
<path d="M98.4261 149.659C94.9776 143.819 88.644 140.476 82.5975 141.3C81.7446 141.417 80.8733 141.622 80.1597 142.178C79.446 142.734 78.9218 143.713 79.0366 144.705C78.0541 144.633 77.0863 144.396 76.1063 144.298C75.1262 144.2 74.1058 144.248 73.2089 144.72C72.3119 145.192 71.5604 146.156 71.4627 147.296C71.3661 148.435 72.0798 149.662 73.0598 149.761C70.4643 149.591 67.8419 151.246 66.549 153.871C66.2117 154.555 65.9576 155.316 65.9466 156.105C65.9356 156.894 66.1983 157.714 66.7384 158.192C67.5401 158.902 68.6814 158.696 69.6358 158.322C71.6154 157.547 73.424 156.192 74.8476 154.414C74.8366 155.259 75.3596 156.022 76.0061 156.408C76.6525 156.793 77.4028 156.864 78.1299 156.856C80.5727 156.83 83.0057 155.981 85.0587 154.438C85.3092 155.364 86.1841 155.926 87.0175 155.916C87.8509 155.907 88.6342 155.429 89.2892 154.829C89.9442 154.229 90.5039 153.5 91.1369 152.868C93.3658 150.646 96.5283 149.757 99.3829 150.549L98.4261 149.659Z" fill="#33896E"/>
<path d="M85.3605 146.532C84.3401 146.7 83.3271 146.981 82.2969 146.984C81.2668 146.986 80.1829 146.666 79.4631 145.807C78.7433 144.948 78.5295 143.463 79.1833 142.538C78.026 143.394 76.413 143.314 75.3217 142.347C74.2305 141.38 73.7368 139.59 74.1401 138.065C71.1462 137.812 68.1523 137.561 65.1584 137.309C63.7506 137.191 62.0789 136.868 61.5009 135.371C61.1099 134.36 61.4129 133.122 62.0374 132.286C62.6618 131.449 63.5514 130.948 64.4472 130.57C67.7038 129.198 71.3783 129.22 74.6215 130.634C73.8737 129.828 74.338 128.219 75.2558 127.705C76.1735 127.188 77.2733 127.471 78.2154 127.922C80.2562 128.898 82.022 130.634 83.1902 132.812C83.5372 131.27 85.0818 130.371 86.4346 130.633C87.7861 130.894 88.9006 132.079 89.58 133.464C90.2595 134.849 90.5711 136.43 90.8742 137.986C91.4644 137.417 92.3308 137.366 93.053 137.663C93.7752 137.959 94.3776 138.553 94.9214 139.18C96.3731 140.858 97.5768 142.923 98.3222 145.147C98.7731 146.492 99.0346 149.323 97.2688 149.63C96.4684 149.77 95.5373 148.777 94.8627 148.388C93.9096 147.837 92.9124 147.391 91.8872 147.059C89.7719 146.374 87.5368 146.172 85.3605 146.532Z" fill="#5FC5A9"/>
<path d="M100.73 158.454C105.333 153.817 112.187 152.442 117.86 155.018C118.66 155.382 119.458 155.836 120.027 156.584C120.597 157.332 120.893 158.434 120.566 159.358C121.532 159.579 122.52 159.634 123.491 159.826C124.461 160.018 125.437 160.365 126.202 161.086C126.967 161.807 127.486 162.96 127.332 164.091C127.18 165.223 126.222 166.2 125.253 166.008C127.801 166.605 129.979 168.977 130.66 171.898C130.837 172.658 130.919 173.47 130.758 174.237C130.596 175.003 130.164 175.72 129.538 176.023C128.608 176.475 127.549 175.939 126.707 175.296C124.961 173.965 123.504 172.121 122.512 169.984C122.339 170.805 121.667 171.39 120.959 171.572C120.25 171.755 119.508 171.603 118.807 171.381C116.448 170.638 114.278 169.102 112.627 167.007C112.183 167.829 111.216 168.116 110.41 167.862C109.606 167.609 108.952 166.916 108.449 166.143C107.945 165.369 107.562 164.499 107.086 163.703C105.412 160.897 102.545 159.108 99.6102 159.036L100.73 158.454Z" fill="#33896E"/>
<path d="M114.051 159.267C115.001 159.729 115.92 160.3 116.917 160.604C117.915 160.908 119.033 160.917 119.915 160.298C120.797 159.678 121.328 158.306 120.895 157.217C121.829 158.386 123.407 158.782 124.673 158.167C125.939 157.551 126.805 155.965 126.746 154.37C129.698 155.006 132.649 155.641 135.601 156.277C136.988 156.575 138.675 156.755 139.561 155.476C140.159 154.613 140.134 153.328 139.711 152.334C139.289 151.341 138.536 150.593 137.753 149.965C134.899 147.679 131.338 146.623 127.893 147.037C128.792 146.476 128.691 144.784 127.915 144.015C127.139 143.246 126.014 143.196 125.003 143.355C122.817 143.699 120.731 144.861 119.129 146.626C119.128 145.032 117.828 143.708 116.463 143.563C115.098 143.418 113.762 144.237 112.804 145.377C111.846 146.518 111.201 147.957 110.57 149.373C110.123 148.649 109.295 148.346 108.532 148.42C107.768 148.494 107.057 148.892 106.395 149.34C104.625 150.538 103.013 152.182 101.81 154.114C101.081 155.283 100.214 157.946 101.856 158.763C102.6 159.132 103.717 158.445 104.454 158.266C105.495 158.013 106.557 157.875 107.622 157.857C109.816 157.818 112.022 158.28 114.051 159.267Z" fill="#5FC5A9"/>
<path d="M67.7454 60.6843C96.1935 110.724 109.417 172.357 104.414 232.375C104.331 233.378 103.565 234.111 102.703 234.013C101.842 233.917 101.211 233.025 101.295 232.022C101.295 232.017 101.297 232.003 101.298 231.997C106.957 172.923 94.6758 111.568 66.9596 61.2815C66.8191 61.027 66.8826 60.6886 67.1013 60.5265C67.3152 60.3643 67.6036 60.4354 67.7454 60.6843Z" fill="#5FC5A9"/>
<path d="M69.0566 66.5372C63.323 65.1351 57.5209 63.706 52.2602 60.7056C41.3171 54.4644 33.5672 41.2227 32.586 27.0866C32.1986 21.5152 32.8866 15.5983 35.7167 11.0835C42.4707 9.43393 49.8479 10.9 55.8858 14.7906C61.9237 18.6798 66.6981 25.157 69.0822 32.6936C70.793 38.1029 71.2904 43.953 71.1242 49.7135C70.958 55.474 69.8949 60.8563 69.0566 66.5372Z" fill="#383D84"/>
<path d="M68.5238 66.5371C67.5034 56.4437 67.8407 45.837 71.6167 36.6722C74.8195 28.901 80.4639 22.529 87.2375 19.0408C94.011 15.5527 101.859 14.9739 108.956 17.4411C109.826 23.0623 110.782 28.1331 110.767 33.8439C110.752 39.5546 109.797 45.3834 107.244 50.2623C103.655 57.1206 97.2274 61.4477 90.5577 63.5054C83.888 65.5644 75.4244 66.5044 68.5238 66.5371Z" fill="#383D84"/>
<path d="M67.039 58.5454C70.9433 63.6291 74.8879 68.7824 77.5971 74.8273C83.2317 87.4035 82.727 103.412 76.3177 115.474C73.7918 120.227 70.2248 124.519 65.6447 126.203C59.3648 122.872 54.1701 116.603 51.2887 109.305C48.4072 102.007 47.8609 93.4982 49.7807 85.7838C51.1579 80.2465 53.7375 75.1928 56.806 70.668C59.8732 66.1446 63.4696 62.5427 67.039 58.5454Z" fill="#383D84"/>
<path d="M69.4842 66.904C65.1645 75.736 59.4907 84.0476 51.7811 88.8227C45.2422 92.8726 37.452 94.1097 30.2189 92.2483C22.9859 90.3869 16.3725 85.4383 11.9122 78.5559C14.0751 73.4281 15.8885 68.6858 18.8091 64.097C21.7309 59.5082 25.469 55.4711 30.0088 53.304C36.3925 50.2552 43.7734 51.2037 50.1938 54.1487C56.6141 57.0908 63.9095 62.1716 69.4842 66.904Z" fill="#383D84"/>
<path d="M68.0288 65.0582C71.0044 75.3038 78.2655 83.7334 87.0774 87.1732C95.8892 90.6116 106.049 88.9819 113.732 82.8958C112.411 75.8242 109.141 68.9232 104.292 64.3927C99.3511 59.7769 92.8244 57.88 86.4896 58.0193C80.1535 58.1587 73.9726 62.5058 68.0288 65.0582Z" fill="#383D84"/>
<path d="M30.9399 72.9819L30.8373 72.7359C39.83 67.6408 49.8467 64.9788 59.8414 65.0443C50.4528 62.1306 40.2283 62.3254 30.9411 65.6145L30.8727 65.3529C40.4923 61.9472 51.1127 61.8433 60.7787 65.0627C60.8361 65.0812 60.8716 65.1466 60.863 65.2149C60.8545 65.2832 60.7946 65.3258 60.7445 65.3315C50.4785 65.0912 40.1721 67.7503 30.9399 72.9819Z" fill="#252A5E"/>
<path d="M34.7306 80.9124L34.5815 80.7006C42.3424 73.3574 52.0964 68.6477 62.0447 67.439L62.0691 67.7106C52.166 68.9136 42.4561 73.6019 34.7306 80.9124Z" fill="#252A5E"/>
<path d="M65.2378 100.774C63.3352 90.9532 63.4085 80.5925 65.448 70.8105L65.6765 70.8746C63.6443 80.6167 63.5722 90.9347 65.4663 100.714L65.2378 100.774Z" fill="#252A5E"/>
<path d="M67.4753 80.9239C67.0231 78.0074 66.9034 75.0312 67.1221 72.0791L67.3555 72.1033C67.1392 75.0312 67.2565 77.9818 67.7062 80.8756L67.4753 80.9239Z" fill="#252A5E"/>
<path d="M60.3314 96.0399C59.8756 87.9572 61.0036 79.711 63.5942 72.1943L63.8129 72.2953C61.2357 79.775 60.1127 87.9786 60.5661 96.0214L60.3314 96.0399Z" fill="#252A5E"/>
<path d="M97.5304 71.3563C89.5861 66.6424 80.668 64.3771 71.7682 64.8208L71.7584 64.5478C80.7071 64.1056 89.6558 66.3793 97.6367 71.1132L97.5304 71.3563Z" fill="#252A5E"/>
<path d="M87.2448 72.9477C82.0452 69.7127 76.1918 67.6878 70.3176 67.0934L70.3384 66.8218C76.2443 67.419 82.1295 69.4539 87.3572 72.7074L87.2448 72.9477Z" fill="#252A5E"/>
<path d="M73.2065 63.0734L73.1637 62.8047C76.8077 62.0041 80.5348 61.7097 84.2375 61.9273L84.2252 62.2004C80.5434 61.9828 76.8346 62.2757 73.2065 63.0734Z" fill="#252A5E"/>
<path d="M70.4887 57.1066L70.2846 56.973C75.2472 46.6791 82.3641 37.8343 90.8643 31.394L90.9927 31.623C82.5242 38.0405 75.4342 46.8512 70.4887 57.1066Z" fill="#252A5E"/>
<path d="M72.2398 57.3512L72.0602 57.1749C76.1881 51.4897 81.4208 46.7886 87.191 43.5806L87.2925 43.8266C81.5515 47.0204 76.3458 51.6973 72.2398 57.3512Z" fill="#252A5E"/>
<path d="M73.0024 58.6612L72.8753 58.4323C77.4639 54.9782 82.4888 52.4926 87.8093 51.0464L87.8631 51.3123C82.5682 52.7513 77.569 55.2242 73.0024 58.6612Z" fill="#252A5E"/>
<path d="M64.2553 57.5162C62.2133 45.287 57.6443 33.6394 51.0406 23.8347L51.2251 23.6655C57.852 33.5043 62.4382 45.1918 64.4862 57.4636L64.2553 57.5162Z" fill="#252A5E"/>
<path d="M61.9445 56.6828C57.9473 47.073 51.7958 38.8723 44.1534 32.9653L44.2842 32.7378C51.9608 38.6718 58.1416 46.9094 62.1559 56.562L61.9445 56.6828Z" fill="#252A5E"/>
<path d="M65.6288 53.0469C64.6512 45.3084 62.7266 37.7846 59.9086 30.6846L60.1213 30.5708C62.949 37.6936 64.8797 45.243 65.861 53.0086L65.6288 53.0469Z" fill="#252A5E"/>
<path d="M59.1962 53.4505C56.8964 55.6802 55.5449 59.1684 55.6158 62.6509C55.6866 66.1319 57.1751 69.5362 59.5433 71.6664C61.0769 73.0457 62.9795 73.9046 64.9188 73.9274C66.4512 73.9459 67.9751 73.4439 69.3168 72.5836C72.7103 70.4065 74.8293 65.7978 74.503 61.3043C74.0521 55.0972 69.0956 49.7974 63.681 51.0061C62.0423 51.3716 60.4781 52.2077 59.1962 53.4505Z" fill="#162A45"/>
<path d="M59.1486 55.9701C57.6748 57.3992 56.8084 59.6346 56.8549 61.8657C56.9001 64.0968 57.8544 66.2768 59.371 67.6419C60.3534 68.5264 61.573 69.0753 62.8146 69.0895C63.7971 69.1009 64.7734 68.7809 65.6325 68.2277C67.8064 66.8327 69.1641 63.8792 68.9551 61.0011C68.6667 57.0238 65.4895 53.6281 62.0202 54.4031C60.973 54.6377 59.9698 55.1738 59.1486 55.9701Z" fill="#FFB552"/>
<path d="M123.208 108.152C112.405 122.941 104.859 140.857 101.431 159.738L99.3817 159.205C103.265 140.021 111.3 122.068 122.499 107.434L123.208 108.152Z" fill="#5FC5A9"/>
<path d="M124.757 112.471C124.362 101.271 128.207 89.9563 135.079 82.1011C141.95 74.246 151.741 69.9729 161.357 70.6313C163.198 82.222 159.738 94.7939 152.541 103.088C145.345 111.383 134.699 114.725 124.757 112.471Z" fill="#4D52A8"/>
<path d="M124.757 112.471C134.029 109.43 144.378 111.165 152.536 117.125C160.694 123.086 166.533 133.179 168.208 144.218C158.944 148.987 147.634 147.979 139.033 141.754C130.431 135.525 125.174 124.248 124.757 112.471Z" fill="#4D52A8"/>
<path d="M124.757 112.471C129.445 122.263 130.391 134.381 127.297 144.996C124.203 155.611 117.117 164.559 108.275 169.011C102.143 159.629 100.368 146.59 103.582 135.412C106.796 124.233 115.007 115.67 124.757 112.471Z" fill="#4D52A8"/>
<path d="M124.757 112.471C117.655 120.046 107.744 123.922 98.1536 122.877C88.5621 121.832 79.4423 115.881 73.6732 106.904C80.0973 97.7901 90.5857 92.7605 100.676 93.8114C110.765 94.8608 119.823 102.174 124.757 112.471Z" fill="#4D52A8"/>
<path d="M124.757 112.471C115.61 108.955 107.865 100.78 103.968 90.5292C100.071 80.278 100.084 68.1099 104.002 57.8701C113.974 59.9477 122.865 68.1455 127 78.9058C131.135 89.6646 130.071 102.436 124.757 112.471Z" fill="#4D52A8"/>
<path d="M119.894 109.391C119.882 109.391 119.869 109.388 119.855 109.383C111.615 106.055 102.717 105.218 94.121 106.966C94.0526 106.982 93.9964 106.928 93.9854 106.855C93.9744 106.781 94.0171 106.71 94.0807 106.697C102.49 104.985 111.19 105.737 119.288 108.87C110.414 100.866 98.2709 98.0046 87.4269 101.409C87.3621 101.43 87.2998 101.386 87.2827 101.312C87.2656 101.24 87.3035 101.164 87.3658 101.144C98.5031 97.6519 110.994 100.718 119.969 109.147C120.013 109.189 120.025 109.261 119.998 109.319C119.976 109.363 119.937 109.391 119.894 109.391Z" fill="#383D84"/>
<path d="M92.4028 110.938C92.3479 110.938 92.2978 110.892 92.2868 110.827C92.2745 110.753 92.3173 110.682 92.3808 110.666C101.067 108.759 109.88 108.724 118.576 110.562C118.639 110.575 118.682 110.647 118.67 110.721C118.658 110.794 118.599 110.845 118.533 110.831C109.865 108.998 101.082 109.032 92.4224 110.935C92.4163 110.936 92.409 110.938 92.4028 110.938Z" fill="#383D84"/>
<path d="M110.264 143.939C110.254 143.939 110.244 143.938 110.234 143.935C110.172 143.917 110.134 143.841 110.15 143.769C112.246 134.395 115.781 125.659 120.655 117.809C120.693 117.747 120.768 117.733 120.819 117.779C120.872 117.823 120.884 117.908 120.845 117.969C115.987 125.793 112.464 134.496 110.377 143.837C110.364 143.898 110.316 143.939 110.264 143.939Z" fill="#383D84"/>
<path d="M117.772 142.358C117.768 142.358 117.765 142.358 117.762 142.358C117.697 142.352 117.649 142.285 117.654 142.21C118.214 134.305 119.745 126.547 122.205 119.151C122.228 119.08 122.297 119.046 122.357 119.073C122.416 119.1 122.447 119.179 122.424 119.249C119.971 126.622 118.445 134.355 117.888 142.233C117.884 142.304 117.833 142.358 117.772 142.358Z" fill="#383D84"/>
<path d="M108.425 129.941C108.401 129.941 108.378 129.933 108.359 129.917C108.305 129.874 108.291 129.789 108.328 129.726C110.988 125.237 114.53 121.402 118.568 118.635C118.625 118.598 118.697 118.619 118.73 118.683C118.763 118.749 118.744 118.832 118.688 118.871C114.677 121.618 111.163 125.425 108.522 129.881C108.499 129.92 108.462 129.941 108.425 129.941Z" fill="#383D84"/>
<path d="M144.147 128.044C144.118 128.044 144.087 128.031 144.064 128.004C139.339 122.507 133.114 118.724 126.536 117.351C126.472 117.338 126.429 117.267 126.44 117.193C126.451 117.117 126.51 117.066 126.576 117.082C133.201 118.464 139.471 122.275 144.229 127.811C144.276 127.865 144.276 127.95 144.229 128.004C144.207 128.03 144.178 128.044 144.147 128.044Z" fill="#383D84"/>
<path d="M138.151 116.175C138.145 116.175 138.14 116.175 138.135 116.173C134.674 115.609 131.151 115.451 127.664 115.704C127.6 115.7 127.544 115.652 127.539 115.576C127.535 115.501 127.584 115.435 127.649 115.431C131.152 115.178 134.69 115.337 138.168 115.903C138.233 115.915 138.277 115.983 138.268 116.058C138.258 116.125 138.208 116.175 138.151 116.175Z" fill="#383D84"/>
<path d="M146.823 123.968C146.801 123.968 146.779 123.961 146.76 123.946C141.428 119.956 135.274 117.496 128.961 116.832C128.897 116.825 128.849 116.76 128.855 116.684C128.86 116.609 128.909 116.552 128.982 116.56C135.333 117.229 141.524 119.703 146.886 123.717C146.941 123.759 146.957 123.843 146.921 123.906C146.899 123.945 146.863 123.968 146.823 123.968Z" fill="#383D84"/>
<path d="M127.859 108.709C127.845 108.709 127.831 108.707 127.816 108.701C127.757 108.672 127.726 108.594 127.749 108.523C130.83 99.3 135.788 90.9131 142.088 84.2667C142.136 84.2155 142.21 84.2212 142.254 84.2766C142.298 84.3321 142.295 84.4188 142.246 84.47C135.972 91.088 131.035 99.4408 127.968 108.624C127.951 108.675 127.906 108.709 127.859 108.709Z" fill="#383D84"/>
<path d="M128.718 110.137C128.693 110.137 128.666 110.127 128.644 110.106C128.594 110.057 128.586 109.972 128.627 109.914C132.746 104.065 137.451 98.7694 142.611 94.1721C142.664 94.1251 142.737 94.1379 142.776 94.1976C142.815 94.2588 142.805 94.3441 142.754 94.3896C137.608 98.9741 132.916 104.257 128.809 110.088C128.785 110.12 128.751 110.137 128.718 110.137Z" fill="#383D84"/>
<path d="M128.645 107.869C128.624 107.869 128.603 107.863 128.585 107.851C128.53 107.812 128.511 107.728 128.545 107.663C131.892 101.098 136.488 95.2887 141.833 90.862C141.884 90.8179 141.959 90.8321 141.997 90.8947C142.034 90.9558 142.022 91.0411 141.968 91.0852C136.649 95.4892 132.078 101.27 128.746 107.802C128.724 107.845 128.685 107.869 128.645 107.869Z" fill="#383D84"/>
<path d="M122.932 105.363C122.869 105.363 122.816 105.305 122.815 105.23C122.581 95.0525 120.428 84.8369 116.591 75.6891C116.563 75.6209 116.587 75.5398 116.645 75.5071C116.702 75.473 116.773 75.5015 116.801 75.5697C120.653 84.753 122.815 95.007 123.049 105.223C123.051 105.298 122.999 105.361 122.935 105.363H122.932Z" fill="#383D84"/>
<path d="M120.315 105.302C120.262 105.302 120.216 105.261 120.201 105.201C118.552 97.9578 116.123 90.9715 112.976 84.4332C112.348 83.1278 111.651 81.7783 110.625 80.8753C110.574 80.8298 110.564 80.7445 110.603 80.6833C110.642 80.6236 110.716 80.6123 110.768 80.6578C111.829 81.592 112.541 82.9699 113.182 84.2995C116.338 90.8577 118.776 97.8668 120.428 105.132C120.445 105.204 120.407 105.28 120.345 105.298C120.334 105.301 120.324 105.302 120.315 105.302Z" fill="#383D84"/>
<path d="M124.311 104.113C124.308 104.113 124.304 104.113 124.302 104.113C124.237 104.109 124.188 104.044 124.193 103.967C124.645 96.3124 124.749 88.5425 124.502 80.8751C124.5 80.7998 124.55 80.7358 124.615 80.7329H124.62C124.682 80.7329 124.735 80.7912 124.737 80.8637C124.984 88.5411 124.88 96.3209 124.428 103.985C124.424 104.058 124.373 104.113 124.311 104.113Z" fill="#383D84"/>
<path d="M121.589 102.305C120.195 102.405 118.789 102.798 117.618 103.684C115.705 105.129 114.613 107.79 114.505 110.439C114.398 113.089 115.187 115.712 116.396 117.961C116.889 118.88 117.481 119.776 118.302 120.283C119.383 120.952 120.684 120.852 121.899 120.689C123.3 120.499 124.709 120.246 126.016 119.632C127.324 119.019 128.535 118.014 129.252 116.602C130.075 114.982 130.174 113.004 130.089 111.126C130.011 109.385 129.785 107.622 129.128 106.056C127.651 102.535 124.655 102.085 121.589 102.305Z" fill="#162A45"/>
<path d="M122.574 104.532C121.695 104.594 120.811 104.843 120.073 105.4C118.868 106.31 118.181 107.986 118.112 109.655C118.045 111.324 118.541 112.975 119.303 114.392C119.613 114.97 119.986 115.534 120.504 115.855C121.185 116.276 122.003 116.213 122.77 116.111C123.652 115.993 124.539 115.832 125.363 115.445C126.186 115.059 126.949 114.426 127.4 113.537C127.918 112.517 127.98 111.272 127.926 110.089C127.878 108.992 127.735 107.882 127.32 106.896C126.392 104.677 124.505 104.394 122.574 104.532Z" fill="#FFB552"/>
</svg>
