<svg width="112" height="240" viewBox="0 0 112 240" fill="none" xmlns="http://www.w3.org/2000/svg">
<path d="M13.1647 37.2367C4.44202 54.2154 1.70474 74.4376 0.7418 94.1864C-0.488754 119.427 2.00901 147.686 18.1895 164.555C27.6136 174.381 40.3407 178.747 52.8479 180.975C66.3644 183.384 81.1934 183.296 92.4651 174.289C105.323 164.015 110.36 144.687 111.6 126.595C113.804 94.4708 106.593 61.5714 91.4374 34.5989C83.2561 20.0405 69.1396 4.4397 52.9627 6.60825C36.423 8.828 21.6123 20.7941 13.1647 37.2367Z" fill="white"/>
<path d="M64.4203 201.775C55.6598 194.898 50.1449 183.501 47.2121 171.687C44.2793 159.874 43.645 147.484 42.7371 135.234C41.8291 122.983 40.5913 110.571 36.5587 99.2061C31.0462 83.6693 20.3745 70.1219 19.2955 53.3594C25.7574 65.6298 38.7509 71.3733 45.5294 83.4091C51.7506 94.4566 51.5563 108.574 53.839 121.514C55.6879 131.995 59.2549 141.95 61.716 152.258C65.6068 168.556 66.2093 184.99 64.4203 201.775Z" fill="#33896E"/>
<path d="M61.5901 73.5628C72.494 127.269 71.8805 184.167 59.7424 237.713C59.4858 238.848 58.4874 239.523 57.5122 239.224C56.5383 238.926 55.9567 237.764 56.2133 236.629C56.2145 236.624 56.2181 236.606 56.2194 236.601C68.8353 183.94 70.1587 127.559 59.9575 73.9979C59.8573 73.4732 60.142 72.9528 60.5929 72.8362C61.0414 72.721 61.485 73.0466 61.5901 73.5628Z" fill="#33896E"/>
<path d="M61.1294 83.0662C58.0939 69.1434 55.0059 55.1253 49.7269 42.141C44.4466 29.1568 36.7749 17.1224 26.2853 9.54883C22.6975 24.1371 24.0906 40.4375 30.0038 53.9622C35.9159 67.4854 48.8837 77.8517 61.1294 83.0662Z" fill="#6B1A18"/>
<path d="M62.2231 83.6793C58.7148 70.7988 55.1844 57.789 54.1848 44.3269C53.1852 30.8648 54.918 16.7201 61.2431 5.38965C66.7079 8.40287 69.9046 15.092 71.6618 21.8251C77.1926 43.0073 73.6684 65.9953 62.2231 83.6793Z" fill="#6B1A18"/>
<path d="M62.1486 84.2462C54.0822 79.9888 46.4776 74.2936 40.4862 66.7016C34.4947 59.1109 30.1823 49.5281 29.1582 39.2897C28.1354 29.0513 30.6124 18.1972 36.5623 10.561C43.7098 11.3033 49.9017 15.9746 54.1213 22.7291C58.3408 29.4836 60.5685 37.6657 61.8638 45.8792C63.8948 58.7412 64.3848 71.4312 62.1486 84.2462Z" fill="#A32D2B"/>
<path d="M62.1021 84.2551C51.6846 86.6583 40.5155 84.3305 31.4629 77.8703C22.4103 71.4102 15.5622 60.8817 12.6795 48.9881C9.79684 37.0945 10.9052 23.9538 15.7235 12.9404C25.0963 15.5455 34.6157 20.5823 41.4308 28.5085C48.2458 36.4361 53.129 46.5892 55.3701 57.4959C57.1579 66.1915 59.5176 75.8355 62.1021 84.2551Z" fill="#D35D57"/>
<path opacity="0.5" d="M36.5696 30.5529C37.2491 31.6763 37.8515 32.8992 38.0715 34.2487C38.2914 35.5982 38.0788 37.0984 37.2906 38.1194C36.1725 39.5656 34.1709 39.6836 32.6519 38.8731C31.1317 38.0625 30.0026 36.521 29.0055 34.9583C28.0083 33.3969 27.0698 31.7403 25.7562 30.5373C24.7065 29.576 23.4649 28.9489 22.3382 28.1156C20.7337 26.9297 18.66 24.2279 20.1044 21.8972C21.1749 20.1681 23.2608 20.9516 24.7541 21.3768C29.4808 22.7234 33.7505 25.893 36.5696 30.5529Z" fill="white"/>
<path d="M81.1641 0.391113C86.8195 13.8432 89.382 29.0373 88.5168 43.9783C87.9816 53.2099 86.079 62.5439 81.6492 70.2269C77.2195 77.91 69.9864 83.7431 62.0471 84.2465C63.9057 70.1672 60.1652 55.9344 61.21 41.7415C62.377 25.8862 70.1563 9.83177 81.1641 0.391113Z" fill="#D35D57"/>
<path d="M54.6003 84.249C54.5929 84.249 54.5844 84.2476 54.5771 84.2448C38.9623 78.0747 25.7586 63.8633 19.2588 46.2276C19.2429 46.1836 19.26 46.1338 19.2967 46.1153C19.3334 46.0968 19.3773 46.1167 19.3932 46.1608C25.7598 63.4324 38.5737 77.4135 53.7803 83.7414C42.8825 76.7011 33.8507 65.7346 28.2833 52.7574C28.2649 52.7148 28.2796 52.6636 28.3163 52.6423C28.3517 52.6224 28.3969 52.638 28.4152 52.6807C34.1024 65.9365 43.4141 77.0893 54.6357 84.0884C54.6687 84.1097 54.6834 84.1566 54.6687 84.1979C54.6553 84.2292 54.6284 84.249 54.6003 84.249Z" fill="#A32D2B"/>
<path d="M55.4911 83.2198C55.4752 83.2198 55.4593 83.2141 55.4459 83.2028C43.5558 72.6444 34.4336 57.7248 29.7594 41.1912C29.7472 41.1471 29.768 41.0988 29.8059 41.0831C29.8462 41.0703 29.8865 41.0931 29.8987 41.1386C34.5643 57.638 43.6682 72.5292 55.5351 83.0662C55.5681 83.0947 55.5742 83.1487 55.5497 83.1871C55.5351 83.2085 55.5131 83.2198 55.4911 83.2198Z" fill="#A32D2B"/>
<path d="M57.1677 82.6311C57.1481 82.6311 57.1274 82.6211 57.1127 82.6026C51.9351 75.8979 47.5909 68.3869 44.2023 60.2787C44.184 60.236 44.1998 60.1848 44.2365 60.1649C44.2719 60.1436 44.3172 60.1606 44.3343 60.2047C47.7168 68.2987 52.0536 75.797 57.2215 82.4889C57.2483 82.5244 57.2459 82.5785 57.2166 82.6098C57.2031 82.624 57.186 82.6311 57.1677 82.6311Z" fill="#A32D2B"/>
<path d="M64.353 81.3728C64.3481 81.3728 64.342 81.3728 64.3371 81.3713C64.298 81.3614 64.2724 81.3159 64.2809 81.269C66.0638 72.0914 66.8141 62.6721 66.5135 53.2698C66.5123 53.2229 66.5441 53.183 66.5844 53.1802H66.5869C66.626 53.1802 66.6589 53.2157 66.6602 53.2627C66.9608 62.6792 66.2093 72.1156 64.4239 81.3059C64.4166 81.3458 64.3872 81.3728 64.353 81.3728Z" fill="#A32D2B"/>
<path d="M66.9083 80.8308C66.9009 80.8308 66.8936 80.8294 66.8863 80.8265C66.8496 80.8137 66.8276 80.7682 66.8374 80.7242C69.9694 65.5628 71.3527 49.9705 70.9494 34.3826C70.9482 34.3356 70.98 34.2959 71.0203 34.2944H71.0227C71.0618 34.2944 71.0948 34.3314 71.0961 34.3769C71.4895 49.5838 70.1845 64.7935 67.2162 79.6064C70.4423 69.9838 72.5576 60.5318 73.5046 51.4935C73.5095 51.448 73.5437 51.4082 73.5865 51.4196C73.6268 51.4253 73.6549 51.4679 73.65 51.5148C72.6639 60.9128 70.4191 70.7573 66.9767 80.7753C66.9657 80.8094 66.9376 80.8308 66.9083 80.8308Z" fill="#A32D2B"/>
<path d="M68.7913 80.5193C68.7791 80.5193 68.7669 80.5165 68.7547 80.5079C68.7192 80.4852 68.707 80.4326 68.7278 80.3913C75.2276 67.1596 79.1197 52.1262 79.9812 36.9165C79.9836 36.871 80.0166 36.8354 80.0545 36.8354H80.0594C80.0997 36.8383 80.1303 36.8795 80.129 36.9265C79.2663 52.1618 75.3681 67.2208 68.8561 80.4766C68.8414 80.5037 68.8158 80.5193 68.7913 80.5193Z" fill="#A32D2B"/>
<path d="M70.8113 81.3612C70.7954 81.3612 70.7807 81.3555 70.7673 81.3441C70.7343 81.3157 70.7282 81.2616 70.7526 81.2247C74.8659 74.8854 77.9258 67.4654 79.6036 59.7653C79.6134 59.7198 79.6525 59.6885 79.6928 59.7027C79.7319 59.7141 79.7564 59.761 79.7466 59.8065C78.0639 67.5279 74.9942 74.9693 70.87 81.327C70.8553 81.3484 70.8333 81.3612 70.8113 81.3612Z" fill="#A32D2B"/>
<path d="M62.2719 85.566C60.5477 87.1373 58.3188 87.9393 56.1326 87.7772C53.9465 87.6151 51.8238 86.4875 50.2853 84.6744C53.2682 81.8745 57.6137 81.0554 61.1709 82.7135C62.5872 80.7241 64.6658 79.3775 66.8593 78.9864C69.054 78.5968 71.366 79.1756 73.2272 80.5819C72.1567 82.658 70.5058 84.4241 68.5616 85.2859C66.6174 86.1476 64.2577 86.2884 62.2719 85.566Z" fill="#33896E"/>
<path d="M67.3213 190.551C60.3986 183.008 57.9155 171.158 58.7685 160.165C59.6215 149.175 63.395 138.804 67.3909 128.796C71.3869 118.788 75.692 108.809 77.729 98.0312C79.4814 88.7597 79.5009 79.1683 80.6814 69.7746C81.8606 60.3809 84.4183 50.7653 90.2228 44.0947C87.0847 63.542 97.9446 83.0362 94.5315 102.421C92.7963 112.278 87.3792 120.686 84.4549 130.154C81.362 140.171 81.1518 151.023 79.8272 161.555C78.5025 172.086 74.1865 183.516 67.3213 190.551Z" fill="#5FC5A9"/>
</svg>
