<svg width="175" height="232" viewBox="0 0 175 232" fill="none" xmlns="http://www.w3.org/2000/svg">
<path d="M37.2048 75.7832C26.4218 91.1053 20.4756 110.695 19.4882 130.466C18.7183 145.876 21.177 162.248 29.7005 174.075C36.386 183.35 46.2097 188.973 56.3095 191.874C66.4105 194.776 76.8965 195.191 87.2933 195.645C103.866 196.367 121.229 197.041 136.142 188.596C151.839 179.706 162.806 161.041 165.521 140.972C168.236 120.903 163.067 99.8591 152.707 83.5075C125.404 40.4152 67.167 33.2071 37.2048 75.7832Z" fill="white"/>
<path d="M87.3679 228.462C89.796 206.14 92.2204 183.651 96.8029 161.623C97.9589 156.115 99.1858 150.662 100.672 145.224C102.181 139.811 104.14 134.325 107.439 129.803C110.671 125.347 115.305 121.837 120.538 121.524C123.127 121.386 125.711 122.125 127.957 123.576C130.197 125.02 132.111 127.304 133.071 130.135C133.211 130.549 133.036 131.017 132.68 131.18C132.331 131.34 131.935 131.142 131.788 130.745C129.979 125.879 125.082 123.226 120.637 123.618C116.106 124.035 111.995 127.28 109.15 131.451C106.258 135.65 104.522 140.834 103.194 146.13C101.879 151.465 100.789 156.949 99.7858 162.41C95.7984 184.321 93.9447 206.682 92.0726 229.074C91.9467 230.59 90.7895 231.699 89.488 231.552C88.1854 231.406 87.2322 230.059 87.3581 228.545C87.3618 228.521 87.3654 228.484 87.3679 228.462Z" fill="#33896E"/>
<path d="M164.585 123.517C167.668 124.382 170.791 125.774 172.904 128.52C175.017 131.266 175.791 135.658 173.959 138.642C172.86 140.431 171.015 141.489 170.013 143.353C168.801 145.61 169.011 148.704 167.521 150.723C165.892 152.931 162.956 152.923 160.483 152.391C152.626 150.702 145.481 145.301 140.703 137.909C139.497 136.044 138.44 134.049 137.561 131.954C137.207 131.108 136.381 129.646 136.398 128.692C136.421 127.398 137.425 127.065 138.339 126.57C142.142 124.509 146.244 123.176 150.416 122.589C155.133 121.925 159.957 122.219 164.585 123.517Z" fill="#A32D2B"/>
<path d="M150.936 170.581C154.189 167.517 153.499 161.212 156.345 157.647C158.173 155.357 161.224 154.535 162.611 151.861C163.892 149.392 163.25 146.057 161.702 143.785C160.154 141.514 157.877 140.089 155.629 138.831C149.752 135.54 143.592 132.934 137.273 131.061L134.665 131.188C134.658 140.007 135.633 148.806 137.163 157.453C137.643 160.172 138.188 162.907 139.255 165.395C140.322 167.884 141.967 170.133 144.148 171.287C146.332 172.441 149.084 172.326 150.936 170.581Z" fill="#6B1A18"/>
<path d="M123.884 161.667C123.841 164.655 123.934 167.678 124.603 170.569C125.273 173.46 126.562 176.231 128.574 178.115C131.609 180.956 135.763 181.4 139.647 181.726C141.407 181.874 143.285 181.992 144.812 180.978C146.383 179.934 147.268 177.831 147.435 175.738C147.603 173.644 147.146 171.548 146.558 169.556C144.419 162.301 140.497 155.683 139.581 148.097C139.239 145.263 139.332 142.379 138.968 139.549C138.428 135.354 134.151 126.923 129.766 131.488C128.28 133.035 127.655 135.644 127.104 137.782C126.198 141.288 125.473 144.867 124.942 148.476C124.303 152.832 123.947 157.244 123.884 161.667Z" fill="#A32D2B"/>
<path d="M139.9 123.65C144.108 122.566 148.445 122.354 152.755 122.145C157.357 121.922 162.098 121.723 166.434 123.554C167.951 124.196 169.435 125.118 170.443 126.582C171.451 128.045 171.894 130.134 171.225 131.829C170.391 133.949 168.245 134.795 166.445 135.837C162.528 138.106 159.571 142.107 157.159 146.336C154.747 150.565 152.768 155.124 150.175 159.208C147.582 163.292 144.242 166.968 140.074 168.529C137.258 169.584 133.937 169.522 131.576 167.434C129.645 165.727 128.652 162.968 127.961 160.273C126.457 154.405 126.015 148.19 126.61 142.123C127.069 137.447 127.649 130.28 131.345 127.56C133.943 125.649 136.903 124.42 139.9 123.65Z" fill="#D35D57"/>
<path opacity="0.5" d="M146.516 126.009C145.93 126.303 145.347 126.656 144.923 127.21C144.499 127.765 144.262 128.564 144.463 129.269C144.666 129.976 145.266 130.448 145.889 130.619C146.513 130.79 147.164 130.71 147.799 130.63C150.004 130.352 152.208 130.074 154.413 129.796C156.531 129.528 158.65 129.261 160.767 128.994C161.233 128.935 161.73 128.861 162.083 128.503C162.982 127.594 162.302 126.107 161.546 125.45C160.792 124.794 160.076 124.556 159.155 124.5C156.438 124.337 153.714 124.157 151.007 124.597C149.467 124.846 147.946 125.289 146.516 126.009Z" fill="white"/>
<path d="M96.4571 182.826C96.0746 170.358 100.793 157.807 108.921 149.671C112.652 145.936 117.187 142.898 119.427 137.8C120.824 143.583 119.466 149.851 117.225 155.263C114.984 160.676 111.563 165.304 107.943 169.586C104.322 173.866 99.8274 178.276 96.4571 182.826Z" fill="#33896E"/>
<path d="M124.189 43.6476C117.143 57.3642 111.622 72.0976 107.349 87.2746C103.072 102.462 100.022 118.098 97.8501 133.882C93.5047 165.493 92.6175 197.583 91.7365 229.627C91.712 230.531 91.0619 231.241 90.2847 231.212C89.5076 231.184 88.8978 230.426 88.9222 229.521V229.507C90.0428 197.474 91.1683 165.256 95.7776 133.485C98.0811 117.619 101.269 101.9 105.695 86.6347C110.117 71.3795 115.795 56.5764 123.004 42.8143C123.203 42.4346 123.629 42.3138 123.956 42.5456C124.281 42.7759 124.385 43.2679 124.189 43.6476Z" fill="#5FC5A9"/>
<path d="M99.9251 23.4723C99.6441 20.1974 99.5854 16.8316 100.386 13.6747C101.186 10.5179 102.952 7.56723 105.522 6.19216C109.519 4.05347 114.348 6.09973 118.547 4.5725C120.606 3.82311 122.372 2.26317 124.352 1.26919C128.236 -0.681791 132.937 -0.262296 136.52 2.35703C140.103 4.97635 142.469 9.72157 142.645 14.6417C142.83 19.8035 140.783 24.6753 138.786 29.2897C135.615 36.6173 132.445 43.9463 129.274 51.2752C128.382 53.3371 127.465 55.4374 126.055 57.0599C124.223 59.1659 121.601 60.3049 119.032 60.1101C114.709 59.7831 110.891 56.3091 108.634 52.2635C105.572 46.776 103.233 40.7439 101.712 34.4445C100.844 30.8568 100.243 27.1809 99.9251 23.4723Z" fill="#D35D57"/>
<path d="M103.295 37.4293C99.3874 36.6316 95.356 36.8008 91.4566 37.6569C87.4509 38.5357 83.5087 40.1695 80.224 42.9794C76.9393 45.7893 74.3511 49.8548 73.5042 54.4948C72.2419 61.4142 75.3091 69.0745 80.6395 72.476C83.8961 74.5549 87.6904 75.0924 91.3797 75.593C95.6713 76.1746 100.052 76.7519 104.283 75.7295C108.497 74.7099 112.343 72.1375 115.679 68.9693C118.188 66.5875 120.436 63.8657 122.609 61.08C123.381 60.0903 124.661 59.0039 124.59 57.5464C124.524 56.1798 123.434 54.445 122.846 53.2974C120.159 48.0517 116.209 43.6947 111.592 40.8023C109.001 39.1812 106.195 38.0209 103.295 37.4293Z" fill="#A32D2B"/>
<path d="M140.339 26.5338C143.276 24.4079 146.422 22.4782 149.851 21.9549C153.28 21.4302 157.062 22.5408 159.273 25.6351C160.941 27.97 161.525 31.097 161.785 34.1173C162.044 37.1391 162.038 40.2205 162.754 43.1413C163.918 47.8851 166.878 51.7828 168.256 56.4498C170.362 63.5868 168.17 72.1501 163.051 76.783C159.135 80.3266 153.885 81.5225 148.965 80.7746C144.045 80.0266 139.432 77.4741 135.35 74.1935C131.268 70.913 127.662 66.9058 124.075 62.9171C120.957 59.4488 116.814 53.812 119.56 48.5791C122.462 43.0461 127.324 38.0776 131.549 33.9524C134.326 31.2435 137.263 28.7606 140.339 26.5338Z" fill="#A32D2B"/>
<path d="M110.136 79.0809C109.029 82.6359 108.083 86.3046 107.897 90.0801C107.712 93.8555 108.34 97.7759 110.163 100.906C111.987 104.036 115.118 106.247 118.365 106.09C121.638 105.934 124.518 103.532 127.73 102.787C132.058 101.782 136.683 103.841 140.89 102.295C144.149 101.099 146.66 97.7859 147.724 94.0076C148.786 90.2279 148.507 86.0558 147.411 82.2889C146.315 78.5235 144.44 75.1235 142.337 71.9894C138.43 66.1706 133.666 61.1338 128.313 57.1664C126.627 55.9165 124.726 54.7661 122.676 54.7789C120.797 54.7917 120.315 55.8767 119.338 57.6215C116.938 61.9031 114.809 66.3895 112.974 71.0338C111.932 73.6688 110.985 76.3535 110.136 79.0809Z" fill="#D35D57"/>
<path d="M123.208 50.7886C123.148 50.7829 123.091 50.7502 123.048 50.6934C122.962 50.5768 122.973 50.4018 123.073 50.3023C128.74 44.6228 135.565 40.4806 142.811 38.3248C142.936 38.2864 143.068 38.376 143.101 38.5253C143.134 38.6732 143.057 38.8253 142.929 38.8623C135.754 40.9982 128.995 45.0978 123.384 50.7232C123.335 50.773 123.27 50.7943 123.208 50.7886Z" fill="#6B1A18"/>
<path d="M123.486 50.8642C123.394 50.8543 123.311 50.7818 123.28 50.6723C123.241 50.5258 123.311 50.3694 123.435 50.3239C129.931 47.942 136.65 46.2299 143.404 45.236C143.538 45.2175 143.653 45.3241 143.67 45.4763C143.687 45.6284 143.595 45.7664 143.464 45.7863C136.739 46.776 130.049 48.481 123.579 50.8529C123.549 50.8643 123.517 50.8685 123.486 50.8642Z" fill="#6B1A18"/>
<path d="M125.052 52.4228C124.937 52.4114 124.843 52.3019 124.836 52.164C124.827 52.0104 124.927 51.8796 125.058 51.8696C133.215 51.2795 141.449 51.6947 149.53 53.0982C149.661 53.121 149.75 53.2617 149.73 53.4139C149.711 53.5646 149.59 53.6741 149.459 53.6471C141.408 52.2464 133.21 51.8341 125.087 52.4228C125.075 52.4242 125.064 52.4242 125.052 52.4228Z" fill="#6B1A18"/>
<path d="M137.139 55.17C137.136 55.17 137.134 55.17 137.131 55.17L125.767 53.5617C125.636 53.5432 125.543 53.4038 125.559 53.2531C125.575 53.101 125.687 53.0071 125.824 53.0114L137.189 54.6196C137.32 54.6381 137.412 54.7775 137.397 54.9282C137.381 55.0761 137.266 55.1828 137.139 55.17Z" fill="#6B1A18"/>
<path d="M124.886 71.0535C124.77 71.0421 124.677 70.9326 124.669 70.7932C124.506 67.3847 123.714 63.9776 122.379 60.9374C122.319 60.8008 122.366 60.633 122.483 60.5634C122.602 60.4937 122.745 60.5492 122.805 60.6842C124.17 63.7927 124.979 67.2766 125.147 70.762C125.155 70.9155 125.054 71.0464 124.922 71.0549C124.91 71.0549 124.898 71.0549 124.886 71.0535Z" fill="#6B1A18"/>
<path d="M132.537 77.6745C132.441 77.6646 132.356 77.5878 132.329 77.474C130.86 71.4789 128.55 65.8577 125.466 60.7655C125.39 60.6404 125.416 60.4669 125.524 60.3787C125.631 60.292 125.78 60.3219 125.856 60.4456C128.971 65.5889 131.302 71.267 132.787 77.3219C132.823 77.4698 132.75 77.6233 132.623 77.6646C132.594 77.6745 132.565 77.6774 132.537 77.6745Z" fill="#6B1A18"/>
<path d="M120.664 83.8319C120.656 83.8319 120.649 83.8305 120.64 83.8291C120.511 83.8006 120.425 83.657 120.45 83.5063C121.569 76.4361 121.861 69.2223 121.319 62.0625C121.306 61.9104 121.404 61.7753 121.535 61.7611C121.664 61.7497 121.782 61.8606 121.794 62.0128C122.34 69.2223 122.046 76.4873 120.919 83.6058C120.896 83.748 120.785 83.8433 120.664 83.8319Z" fill="#6B1A18"/>
<path d="M124.64 75.0522C124.511 75.0394 124.414 74.9072 124.424 74.755L124.599 72.0233C124.608 71.8712 124.723 71.756 124.854 71.7674H124.858C124.987 71.7802 125.084 71.9124 125.074 72.0646L124.899 74.7962C124.889 74.9498 124.775 75.0636 124.644 75.0522H124.64Z" fill="#6B1A18"/>
<path d="M101.18 60.8366C101.079 60.8267 100.991 60.7399 100.969 60.6176C100.942 60.4683 101.024 60.3205 101.152 60.2892C106.358 59.0023 111.695 58.4121 117.017 58.533C117.144 58.5287 117.253 58.6624 117.251 58.816C117.248 58.9695 117.139 59.0904 117.007 59.0876C111.722 58.9667 106.421 59.554 101.25 60.8309C101.227 60.8366 101.203 60.8381 101.18 60.8366Z" fill="#6B1A18"/>
<path d="M108.747 55.5694C108.629 55.558 108.535 55.4456 108.53 55.3049C108.526 55.1527 108.627 55.0233 108.759 55.0162C110.984 54.9095 113.222 55.0987 115.412 55.575C115.541 55.6035 115.627 55.7485 115.602 55.8993C115.578 56.05 115.446 56.1495 115.324 56.1211C113.168 55.6518 110.967 55.4655 108.779 55.5708C108.769 55.5708 108.758 55.5708 108.747 55.5694Z" fill="#6B1A18"/>
<path d="M115.638 53.833C115.625 53.8316 115.614 53.8302 115.602 53.8259C109.642 52.1479 103.517 51.1298 97.3919 50.7956C97.2465 50.7629 97.1585 50.6577 97.1646 50.5055C97.1707 50.3519 97.2831 50.2339 97.4139 50.241C103.567 50.5738 109.726 51.599 115.715 53.2869C115.843 53.3225 115.921 53.4732 115.891 53.6211C115.862 53.7562 115.754 53.8444 115.638 53.833Z" fill="#6B1A18"/>
<path d="M116.418 51.8381C116.393 51.8353 116.367 51.8282 116.343 51.8154C111.32 49.2202 105.998 47.6645 100.513 47.1867H100.509C100.38 47.1725 100.283 47.0417 100.293 46.8895C100.303 46.7374 100.418 46.6222 100.548 46.6336C106.072 47.1185 111.463 48.687 116.536 51.3077C116.657 51.3703 116.71 51.5338 116.657 51.6732C116.614 51.7855 116.516 51.8481 116.418 51.8381Z" fill="#6B1A18"/>
<path d="M103.152 55.7372C103.031 55.7244 102.936 55.605 102.936 55.4614C102.936 55.3092 103.042 55.1841 103.174 55.1841L105.945 55.1855C106.063 55.1898 106.183 55.3092 106.183 55.4628C106.183 55.6149 106.077 55.7401 105.945 55.7401L103.174 55.7387C103.166 55.7372 103.16 55.7372 103.152 55.7372Z" fill="#6B1A18"/>
<path d="M102.616 55.8413C102.505 55.8299 102.413 55.729 102.401 55.5953C102.386 55.4431 102.48 55.3066 102.612 55.2896L102.818 55.264C102.943 55.2469 103.066 55.3564 103.08 55.51C103.095 55.6621 103.001 55.7986 102.869 55.8157L102.664 55.8413C102.648 55.8427 102.632 55.8427 102.616 55.8413Z" fill="#6B1A18"/>
<path d="M119.208 48.1935C119.115 48.1836 119.032 48.1111 119.002 48.0016C116.708 39.6786 115.396 31.03 115.102 22.2947C115.097 22.1411 115.2 22.0131 115.332 22.0074C115.463 21.9974 115.574 22.1197 115.579 22.2747C115.871 30.9589 117.176 39.5577 119.456 47.8338C119.497 47.9802 119.428 48.1367 119.302 48.1822C119.272 48.1921 119.24 48.1964 119.208 48.1935Z" fill="#6B1A18"/>
<path d="M120.366 47.0758C120.256 47.0644 120.164 46.9635 120.15 46.8298C119.676 41.9054 119.762 36.9256 120.402 32.0296C120.422 31.8789 120.526 31.7609 120.673 31.7979C120.803 31.8206 120.893 31.9628 120.874 32.1135C120.24 36.9626 120.155 41.8926 120.625 46.7687C120.639 46.9208 120.545 47.0573 120.414 47.0758C120.399 47.0772 120.381 47.0772 120.366 47.0758Z" fill="#6B1A18"/>
<path d="M120.944 28.8219C120.813 28.8077 120.715 28.674 120.727 28.5204L120.776 27.8862C120.787 27.734 120.903 27.6203 121.035 27.6345C121.166 27.6487 121.264 27.7824 121.251 27.936L121.203 28.5702C121.19 28.7238 121.074 28.8361 120.944 28.8219Z" fill="#6B1A18"/>
<path d="M116.9 47.6177C116.824 47.6092 116.752 47.5594 116.713 47.4755C114.425 42.6777 112.602 37.5698 111.293 32.2971C111.257 32.1506 111.33 31.9956 111.456 31.9544C111.582 31.9117 111.715 31.997 111.75 32.1435C113.049 37.3764 114.859 42.4444 117.13 47.2067C117.193 47.3404 117.152 47.5096 117.037 47.5836C116.993 47.6106 116.945 47.622 116.9 47.6177Z" fill="#6B1A18"/>
<path d="M121.37 46.2182C121.245 46.2054 121.15 46.0817 121.152 45.9352C121.239 42.2409 121.738 38.5707 122.637 35.0271C122.675 34.8792 122.809 34.7967 122.933 34.8393C123.059 34.8834 123.131 35.037 123.094 35.1835C122.207 38.6802 121.713 42.3034 121.628 45.948C121.624 46.1016 121.514 46.2225 121.383 46.2182C121.38 46.2196 121.375 46.2182 121.37 46.2182Z" fill="#6B1A18"/>
<path d="M123.501 31.0556C123.37 31.0414 123.271 30.9305 123.282 30.7783L123.286 30.7314C123.298 30.5793 123.413 30.4655 123.545 30.4797C123.676 30.4939 123.774 30.6276 123.761 30.7812C123.75 30.9333 123.633 31.0684 123.501 31.0556Z" fill="#6B1A18"/>
<path d="M117.504 45.9755C115.52 47.0818 114.069 49.2887 113.438 51.7417C112.807 54.1946 112.954 56.8637 113.615 59.3039C114.117 61.1596 114.961 62.974 116.338 64.0775C117.512 65.0189 118.975 65.363 120.402 65.39C123.439 65.4469 126.478 64.1088 128.723 61.7284C129.474 60.932 130.156 59.9878 130.443 58.8531C130.811 57.4027 130.491 55.8413 130.078 54.4079C129.3 51.7004 128.189 49.4039 126.084 47.8312C123.502 45.9001 120.496 44.306 117.504 45.9755Z" fill="#162A45"/>
<path opacity="0.5" d="M85.6228 43.1245C84.1283 43.9891 82.657 45.074 81.7552 46.7079C81.176 47.7588 80.8643 49.1054 81.2566 50.2672C81.6208 51.3479 82.5458 52.0831 83.5222 52.3191C84.4986 52.5552 85.5202 52.3533 86.4672 51.9892C87.4143 51.6252 88.3112 51.1033 89.2387 50.6782C91.3809 49.6955 93.6953 49.2306 95.9964 49.3201C97.475 49.3784 99.0795 49.6287 100.33 48.7073C101.304 47.9906 101.864 46.6269 101.852 45.2859C101.84 43.9279 101.24 42.2585 100.24 41.5034C99.1626 40.6886 97.8807 40.2592 96.6098 40.1084C94.0448 39.8055 91.4298 40.5606 89.0322 41.4878C87.8652 41.94 86.7238 42.486 85.6228 43.1245Z" fill="white"/>
<path d="M54.1759 98.1985C59.7714 97.5529 65.4366 99.3062 70.2611 102.557C75.1136 105.815 79.1316 110.631 82.0961 116.109C85.0778 121.596 87.1381 127.694 88.4774 133.942C89.829 140.194 90.5182 146.582 90.9532 152.928C91.7414 165.613 92.1434 178.25 92.3059 190.937C92.4526 203.614 92.3121 216.301 91.8831 228.978C91.833 230.456 90.7638 231.606 89.4941 231.548C88.2245 231.49 87.2359 230.245 87.286 228.768C87.286 228.751 87.2884 228.718 87.2884 228.701C87.9813 216.135 88.3882 203.543 88.5092 190.944C88.6155 178.355 88.4799 165.714 87.9666 153.164C87.6709 146.909 87.1296 140.691 85.9564 134.642C84.798 128.604 82.9503 122.732 80.2326 117.448C77.5259 112.167 73.8537 107.548 69.3458 104.344C64.861 101.149 59.5649 99.3503 54.2969 99.8039C53.9156 99.8395 53.582 99.5082 53.5514 99.0645C53.5233 98.628 53.8032 98.244 54.1759 98.1985Z" fill="#33896E"/>
<path d="M45.9812 61.9203C43.6374 58.5032 40.7314 55.2838 37.14 53.8234C32.5257 51.9464 28.5053 54.3751 25.5481 58.5843C23.5318 61.4553 21.9163 64.7671 19.4491 67.1148C16.9697 69.4739 13.845 70.6556 10.8951 72.1075C7.94518 73.5593 4.95984 75.4876 3.36146 78.7169C1.04211 83.4067 2.43641 89.6862 5.60872 93.6422C8.78103 97.5982 13.3403 99.6274 17.858 100.904C27.1342 103.527 36.7893 103.495 46.2879 104.599C49.9172 105.02 53.8631 105.53 56.9584 103.286C62.2167 99.4739 58.2647 90.8736 56.7739 85.9108C54.2846 77.6234 51.039 69.5578 46.4186 62.5744C46.2769 62.3554 46.1302 62.1378 45.9812 61.9203Z" fill="#A32D2B"/>
<path d="M12.8906 105.645C9.08896 107.746 5.34231 110.383 2.93253 114.398C0.523966 118.412 -0.244672 124.084 2.02458 128.207C3.5032 130.893 6.02296 132.587 7.66289 135.143C10.6727 139.833 10.2706 146.626 13.2792 151.317C15.9016 155.407 20.7701 157.007 25.0764 156.045C29.3827 155.084 33.1355 151.904 36.0023 148.044C38.8691 144.183 40.9612 139.642 43.0447 135.152C45.127 130.661 47.2508 126.136 50.1677 122.325C52.5702 119.187 55.4871 116.568 57.5523 113.122C59.2447 110.298 61.1376 104.796 59.015 101.625C57.1466 98.8354 51.8321 98.8681 49.0972 98.5311C41.1518 97.5527 33.0585 98.2196 25.3086 100.476C21.0389 101.719 16.8694 103.445 12.8906 105.645Z" fill="#D35D57"/>
<path d="M55.2537 76.2513C56.1714 69.9234 58.0558 63.496 62.037 59.0551C66.0183 54.6127 72.4973 52.7556 77.2045 56.1001C78.8725 57.2861 80.2179 59.0181 81.8945 60.187C84.8774 62.2645 88.5337 62.3385 91.9773 62.9001C95.4208 63.4618 99.1663 64.8938 100.805 68.4616C102.081 71.243 101.718 74.7525 100.438 77.5325C99.1589 80.3111 97.0791 82.4711 94.9125 84.3638C90.3667 88.334 85.2819 91.3743 80.2241 94.396C76.0057 96.9158 71.7886 99.4356 67.5702 101.955C63.0403 104.661 56.9914 105.907 55.4859 98.7829C53.9657 91.5918 54.2028 83.4964 55.2537 76.2513Z" fill="#D35D57"/>
<path d="M53.0101 144.746C54.2101 149.287 55.9942 154.174 59.7042 156.155C62.5759 157.688 66.0342 157.055 68.8203 155.323C71.6065 153.591 73.8403 150.881 75.9385 148.133C78.0366 145.385 80.0774 142.524 82.6289 140.355C85.5532 137.869 89.0114 136.408 92.2131 134.437C95.4147 132.467 98.5259 129.757 99.8664 125.842C101.46 121.188 100.146 115.695 97.4689 111.773C94.7915 107.851 90.9458 105.253 87.0416 103.143C81.6892 100.249 75.9812 98.0776 70.0936 97.5856C64.2659 97.0978 54.0085 97.6965 51.8736 105.279C49.5946 113.37 49.3526 122.092 50.2948 130.484C50.8386 135.318 51.7795 140.088 53.0101 144.746Z" fill="#A32D2B"/>
<path d="M25.8976 115.476C25.8206 115.467 25.7461 115.423 25.6947 115.346C25.597 115.2 25.619 114.99 25.7461 114.876C32.2679 108.982 39.4557 104.174 47.1103 100.585C47.2569 100.516 47.4256 100.597 47.4854 100.771C47.5453 100.943 47.4732 101.139 47.3254 101.208C39.7209 104.772 32.5795 109.549 26.1004 115.405C26.0406 115.46 25.9672 115.483 25.8976 115.476Z" fill="#6B1A18"/>
<path d="M35.4267 113.189C35.3571 113.182 35.2886 113.145 35.2373 113.078C35.131 112.94 35.1408 112.728 35.2593 112.603C38.8667 108.835 42.8992 105.66 47.2496 103.164C47.3901 103.08 47.5648 103.15 47.6369 103.316C47.7066 103.483 47.6492 103.685 47.505 103.766C43.2035 106.234 39.2125 109.375 35.6455 113.104C35.5831 113.169 35.5037 113.198 35.4267 113.189Z" fill="#6B1A18"/>
<path d="M31.327 123.485C31.272 123.479 31.2182 123.455 31.173 123.412C31.0483 123.297 31.0276 123.085 31.1266 122.94C35.7201 116.22 41.1628 110.401 47.3022 105.643C47.4341 105.539 47.615 105.582 47.703 105.735C47.7922 105.89 47.7555 106.099 47.6223 106.2C41.5331 110.921 36.1355 116.695 31.5787 123.36C31.5164 123.451 31.4198 123.495 31.327 123.485Z" fill="#6B1A18"/>
<path d="M57.738 123.395C57.6378 123.385 57.5449 123.314 57.5009 123.199C55.6594 118.496 54.1869 113.568 53.1262 108.551C53.0883 108.372 53.1824 108.188 53.3376 108.144C53.4879 108.1 53.648 108.209 53.6871 108.39C54.7404 113.367 56.1995 118.256 58.0264 122.921C58.0936 123.089 58.0288 123.288 57.8834 123.367C57.837 123.391 57.7869 123.399 57.738 123.395Z" fill="#6B1A18"/>
<path d="M58.5311 126.033C58.426 126.021 58.3307 125.945 58.2891 125.821L57.903 124.693C57.8443 124.521 57.9164 124.325 58.0643 124.257C58.2097 124.191 58.3796 124.271 58.4394 124.446L58.8244 125.573C58.883 125.745 58.8109 125.942 58.6631 126.01C58.6203 126.028 58.5738 126.037 58.5311 126.033Z" fill="#6B1A18"/>
<path d="M63.4167 122.633C63.3433 122.626 63.2725 122.585 63.2212 122.515C60.0232 118.104 57.3739 113.198 55.3502 107.932C55.2855 107.763 55.3502 107.564 55.4957 107.489C55.6399 107.41 55.8122 107.487 55.8769 107.658C57.8798 112.865 60.4985 117.719 63.6623 122.08C63.7649 122.222 63.749 122.435 63.6268 122.553C63.567 122.613 63.4912 122.64 63.4167 122.633Z" fill="#6B1A18"/>
<path d="M68.7226 121.999C68.6407 121.99 68.5625 121.94 68.5124 121.856C65.0554 116.136 61.2207 110.643 57.1136 105.538C57.0048 105.402 57.0109 105.191 57.127 105.063C57.2431 104.937 57.4252 104.942 57.5352 105.078C61.6594 110.206 65.5112 115.722 68.9841 121.47C69.0757 121.622 69.044 121.832 68.9144 121.937C68.8558 121.986 68.7886 122.006 68.7226 121.999Z" fill="#6B1A18"/>
<path d="M69.6208 123.581C69.5303 123.571 69.446 123.513 69.3971 123.413L69.1772 122.967C69.0977 122.805 69.1454 122.6 69.2835 122.506C69.4191 122.414 69.5975 122.469 69.677 122.628L69.8969 123.075C69.9764 123.237 69.9287 123.442 69.7906 123.536C69.7381 123.573 69.6782 123.587 69.6208 123.581Z" fill="#6B1A18"/>
<path d="M71.2802 110.46C71.2362 110.456 71.1922 110.439 71.1519 110.409C67.3148 107.612 63.2761 105.094 59.1457 102.922C59.0003 102.845 58.9356 102.646 59.0016 102.477C59.0663 102.306 59.2362 102.231 59.384 102.308C63.5376 104.493 67.6008 107.026 71.4586 109.84C71.5943 109.938 71.6346 110.146 71.5503 110.304C71.4916 110.415 71.3853 110.472 71.2802 110.46Z" fill="#6B1A18"/>
<path d="M73.9686 112.965C73.9112 112.959 73.8538 112.932 73.8061 112.885L73.1328 112.21C73.0118 112.087 72.9996 111.877 73.1035 111.736C73.2098 111.595 73.3906 111.582 73.5104 111.702L74.1813 112.373C74.3022 112.494 74.3169 112.706 74.2118 112.847C74.1507 112.935 74.0591 112.975 73.9686 112.965Z" fill="#6B1A18"/>
<path d="M57.0085 98.1247C56.9841 98.1218 56.9584 98.1161 56.934 98.1048C56.7849 98.0408 56.7079 97.8474 56.7629 97.6725C58.9393 90.8071 62.4635 84.4706 66.9556 79.3528C67.0705 79.222 67.2538 79.2263 67.3637 79.3571C67.4762 79.4894 67.4737 79.7027 67.3601 79.8321C62.9279 84.8816 59.4525 91.1313 57.3042 97.9057C57.259 98.0521 57.1356 98.1375 57.0085 98.1247Z" fill="#6B1A18"/>
<path d="M67.7596 78.7257C67.6936 78.7186 67.6313 78.6873 67.5812 78.629C67.4688 78.4982 67.4688 78.2849 67.5812 78.1541L67.9771 77.6919C68.0896 77.5611 68.2729 77.5597 68.3865 77.6919C68.4989 77.8227 68.4989 78.036 68.3865 78.1683L67.9906 78.6304C67.927 78.703 67.8415 78.7342 67.7596 78.7257Z" fill="#6B1A18"/>
<path d="M58.9881 97.0963C58.9319 97.0906 58.8769 97.0665 58.8293 97.0209C58.7071 96.9029 58.6899 96.691 58.7902 96.5474C61.5287 92.7038 64.6863 89.2824 68.1751 86.3759C68.3034 86.2692 68.4843 86.3019 68.5784 86.4541C68.6712 86.6048 68.6407 86.8153 68.5112 86.9233C65.0639 89.7958 61.9429 93.1787 59.2362 96.9769C59.1739 97.065 59.0798 97.1048 58.9881 97.0963Z" fill="#6B1A18"/>
<path d="M69.8786 85.8229L69.7051 85.5627C69.545 85.2655 69.7931 85.0678 70.0546 84.8588L70.2831 84.6768L70.6252 85.1858L70.1181 85.6636L69.8786 85.8229Z" fill="#6B1A18"/>
<path d="M55.5616 96.0457C55.5457 96.0443 55.5311 96.0415 55.5164 96.0372C55.3612 95.9917 55.2671 95.8097 55.3062 95.6305C56.7066 89.105 59.0749 82.9832 62.3462 77.4374C62.4354 77.2825 62.6162 77.2455 62.747 77.3507C62.879 77.4559 62.9119 77.665 62.8215 77.8171C59.5905 83.2961 57.2504 89.3439 55.8671 95.7926C55.8317 95.9547 55.7009 96.06 55.5616 96.0457Z" fill="#6B1A18"/>
<path d="M50.2948 97.4477C50.2178 97.4392 50.1421 97.3951 50.092 97.3169C44.8826 89.4319 38.8544 82.2835 32.175 76.0708C32.0504 75.9556 32.0308 75.7437 32.1298 75.5987C32.2288 75.4537 32.4108 75.4295 32.5355 75.5461C39.2504 81.7915 45.3115 88.9797 50.549 96.9074C50.6467 97.0538 50.6223 97.2657 50.4964 97.378C50.4366 97.4335 50.3645 97.4548 50.2948 97.4477Z" fill="#6B1A18"/>
<path d="M49.8158 92.4738C49.7095 92.4624 49.6129 92.3842 49.5714 92.2605C48.2455 88.2704 46.4687 84.4978 44.2923 81.0452C44.1982 80.8959 44.2251 80.6854 44.3547 80.5759C44.483 80.4664 44.6638 80.4977 44.7579 80.6484C46.9649 84.148 48.7661 87.9732 50.1115 92.0173C50.1689 92.1908 50.0944 92.3856 49.9465 92.4525C49.9025 92.471 49.8586 92.4781 49.8158 92.4738Z" fill="#6B1A18"/>
<path d="M43.404 79.2104C43.3197 79.2019 43.239 79.1493 43.1889 79.0611L42.3702 77.6292C42.281 77.4742 42.3176 77.2665 42.4508 77.1627C42.5828 77.0604 42.7636 77.103 42.8504 77.2566L43.6704 78.6885C43.7596 78.8435 43.7229 79.0526 43.5897 79.155C43.5323 79.199 43.4675 79.2161 43.404 79.2104Z" fill="#6B1A18"/>
<path d="M46.9783 96.2047C46.9185 96.199 46.861 96.1706 46.8134 96.1223C42.7453 91.9359 38.2154 88.3908 33.3506 85.5824C33.2076 85.4999 33.149 85.298 33.2198 85.1316C33.2907 84.9638 33.4642 84.8984 33.6072 84.9795C38.5184 87.8135 43.0899 91.3927 47.1959 95.6174C47.3156 95.7412 47.3266 95.953 47.2215 96.0924C47.1568 96.1763 47.0663 96.2133 46.9783 96.2047Z" fill="#6B1A18"/>
<path d="M31.5787 84.6571C31.5579 84.6542 31.5359 84.65 31.5151 84.6414L30.1013 84.111L30.221 83.4526C30.2882 83.474 30.3518 83.4925 30.3713 83.501L31.6935 84.003C31.8451 84.0613 31.9282 84.2504 31.878 84.4267C31.8365 84.5774 31.7094 84.6699 31.5787 84.6571Z" fill="#6B1A18"/>
<path d="M52.0496 91.5793C51.9347 91.5679 51.8321 91.4741 51.7979 91.3376L51.0561 88.3371C51.0121 88.1594 51.1001 87.9717 51.2541 87.9219C51.4081 87.8679 51.5681 87.9731 51.6109 88.1523L52.3514 91.1527C52.3954 91.3319 52.3074 91.5167 52.1535 91.5679C52.1193 91.5793 52.0838 91.5836 52.0496 91.5793Z" fill="#6B1A18"/>
<path d="M42.7942 100.445C42.5156 104.052 44.0308 107.829 46.6924 109.708C49.1058 111.41 52.217 111.465 54.8541 110.292C57.2602 109.221 59.3486 107.148 60.5327 104.486C61.7168 101.824 61.9576 98.5863 61.0741 95.7693C60.1906 92.9538 58.1657 90.6245 55.6997 89.7571C51.4129 88.2484 46.2708 91.6555 44.0809 95.9229C43.3771 97.298 42.9176 98.8479 42.7942 100.445Z" fill="#162A45"/>
<path d="M62.6785 115.558C65.3217 119.235 66.4178 124.109 66.815 128.881C67.2134 133.653 66.991 138.472 67.3734 143.246C68.0785 152.051 70.8843 160.616 75.3947 167.734C78.2994 172.319 81.8713 176.28 84.8652 180.788C87.8591 185.294 90.3214 190.586 90.4558 196.281C91.8208 187.661 90.1124 177.936 87.4424 169.741C84.7723 161.546 81.2823 153.699 79.1829 145.282C77.6358 139.077 76.8342 132.535 74.2606 126.809C71.8851 121.521 67.2867 118.175 62.6785 115.558Z" fill="#33896E"/>
</svg>
