<svg width="153" height="214" viewBox="0 0 153 214" fill="none" xmlns="http://www.w3.org/2000/svg">
<path d="M28.4574 159.932C11.9567 134.772 9.38025 98.7761 24.0069 71.9185C44.3412 34.5812 94.8478 32.3663 125.223 58.4552C159.878 88.2191 161.797 151.525 128.676 183.449C102.459 208.717 64.6161 196.924 40.7877 174.646C36.0929 170.256 31.975 165.295 28.4574 159.932Z" fill="#FFF7EE"/>
<path d="M116.468 128.813C112.672 127.683 108.791 126.943 104.862 126.568C105.21 126.447 105.536 126.288 105.904 126.2C106.894 125.959 106.794 124.363 105.798 124.216C100.263 123.408 94.638 123.757 89.274 125.223C89.3513 125.18 89.4202 125.13 89.4975 125.09C90.5008 124.567 89.8025 123.234 88.8876 123.199C81.4328 122.911 76.2495 129.618 72.5649 135.219C70.2838 138.686 68.378 142.399 66.8918 146.274C66.3356 147.725 65.6097 149.321 65.7822 150.911C65.9616 152.566 67.154 153.668 68.3242 154.723C70.5074 156.692 72.7816 158.616 75.3374 160.021C78.9502 162.362 83.0791 163.894 87.4275 164.333C88.2238 164.413 89.0766 163.555 88.5012 162.774C88.1589 162.309 87.8153 161.844 87.4731 161.379C90.3697 161.848 93.3394 161.638 96.1726 160.758C97.0585 160.482 97.0751 159.299 96.3258 158.866C95.8924 158.616 95.4964 158.33 95.1196 158.021C98.1915 157.444 101.134 156.411 103.89 154.884C104.581 154.501 104.468 153.439 103.805 153.105C103.3 152.85 102.873 152.531 102.481 152.17C104.092 151.585 106.009 151.724 107.225 150.246C107.842 149.497 107.994 148.441 107.705 147.552C110.178 146.853 112.651 146.152 115.124 145.452C115.752 145.274 116.035 144.457 115.675 143.922C115.435 143.564 115.195 143.207 114.954 142.851C120.294 141.228 125.758 140.11 131.318 139.563C132.349 139.463 132.616 138.139 131.73 137.623C126.853 134.789 121.668 132.563 116.29 130.896C116.385 130.864 116.482 130.831 116.577 130.798C117.598 130.45 117.422 129.098 116.468 128.813Z" fill="#5FC5A9"/>
<path d="M81.0421 143.605C80.9828 143.689 80.9703 143.779 80.991 143.861C78.2255 144.898 75.4973 146.034 72.8339 147.311C77.2706 138.542 82.8913 130.584 89.5719 123.497C89.3952 123.34 89.18 123.232 88.9426 123.208C82.3669 130.214 76.8165 138.067 72.4102 146.669C72.2377 147.007 72.0652 147.348 71.8954 147.689C71.8789 147.722 71.8927 147.755 71.8886 147.789C69.8255 148.805 67.7982 149.893 65.8069 151.045C65.8428 151.286 65.9007 151.514 65.9753 151.733C66.6446 151.344 67.3042 150.937 67.9804 150.562C75.2157 155.29 83.2018 158.998 91.5066 161.576C92.06 161.547 92.6093 161.479 93.1599 161.4C84.4976 158.864 76.1583 155.074 68.6235 150.189C70.8315 148.987 73.0988 147.898 75.3924 146.869C75.4007 146.875 75.4007 146.887 75.4089 146.892C83.0003 151.459 91.4694 154.747 100.173 156.583C100.537 156.445 100.898 156.3 101.256 156.147C92.434 154.397 83.8338 151.124 76.1224 146.546C78.8327 145.357 81.5885 144.276 84.3927 143.329C90.5806 147.007 97.3827 149.832 104.394 151.682C104.821 151.589 105.243 151.482 105.643 151.331C98.5005 149.553 91.5591 146.745 85.2387 143.057C88.6003 141.955 92.0186 141.027 95.4769 140.278C100.576 142.844 105.885 144.926 111.332 146.52C111.733 146.407 112.135 146.292 112.536 146.179C107.037 144.635 101.676 142.592 96.5243 140.057C99.6942 139.405 102.893 138.904 106.111 138.554C109.538 140.132 113.061 141.385 116.73 142.351C117.154 142.232 117.576 142.109 118.003 141.996C114.343 141.096 110.835 139.914 107.426 138.417C115.644 137.63 123.95 137.83 132.106 139.069C132.224 138.876 132.277 138.65 132.254 138.425C123.628 137.111 114.831 136.959 106.148 137.895C106.085 137.887 106.026 137.885 105.969 137.914C104.905 138.03 103.844 138.152 102.783 138.301C108.029 134.849 114.148 132.771 120.402 132.299C119.915 132.118 119.42 131.962 118.929 131.791C112.629 132.506 106.513 134.787 101.336 138.462C101.312 138.48 101.309 138.512 101.291 138.535C99.3437 138.839 97.4061 139.198 95.4797 139.612C95.4231 139.61 95.3748 139.617 95.3265 139.643C94.0776 139.914 92.8342 140.205 91.595 140.522C95.205 137.569 98.9324 134.564 102.923 132.04C105.941 130.131 108.841 128.667 111.685 127.619C111.297 127.538 110.912 127.45 110.524 127.375C107.936 128.406 105.302 129.761 102.573 131.486C98.2493 134.219 94.2432 137.502 90.3681 140.678C90.306 140.729 90.2757 140.801 90.2633 140.874C87.4412 141.637 84.6508 142.511 81.906 143.511C86.983 135.99 93.3793 129.292 100.641 123.808C100.282 123.801 99.9233 123.787 99.5645 123.791C92.3747 129.335 86.0529 136.07 81.0421 143.605Z" fill="#33896E"/>
<path opacity="0.6" d="M108.777 131.412C103.961 128.936 98.1487 129.611 93.0068 130.435C89.2284 131.04 85.5369 132.136 81.9847 133.551C79.0108 134.735 75.4049 135.989 73.4288 138.665C72.126 140.429 72.2627 143.042 74.6542 143.778C77.0706 144.52 79.7947 142.374 81.8992 141.426C84.9504 140.05 88.1078 138.902 91.3191 137.962C94.2626 137.1 97.2586 136.417 100.286 135.92C103.09 135.461 106.331 135.6 108.777 133.973C109.65 133.392 109.825 131.95 108.777 131.412Z" fill="white"/>
<path d="M16.9412 141.225C17.024 141.28 17.1068 141.334 17.1896 141.389C11.671 141.632 6.19656 142.453 0.862861 143.93C-0.105899 144.198 -0.18316 145.52 0.77042 145.873C5.90954 147.776 10.8182 150.197 15.4812 153.066C15.1638 153.344 14.8478 153.623 14.5304 153.903C14.0556 154.321 14.1192 155.167 14.6712 155.493C16.8433 156.774 19.0168 158.053 21.1889 159.334C20.6948 160.105 20.5762 161.144 20.9736 162.009C21.7588 163.715 23.6122 164.06 24.9963 165.016C24.534 165.262 24.0483 165.458 23.5059 165.574C22.7938 165.727 22.4212 166.705 22.9829 167.241C25.2185 169.376 27.7536 171.088 30.5246 172.402C30.0899 172.601 29.6428 172.773 29.1694 172.903C28.3511 173.127 28.0723 174.254 28.8437 174.737C31.3139 176.279 34.0795 177.217 36.9457 177.493C36.5041 177.849 36.0639 178.205 35.6223 178.561C34.8826 179.159 35.4788 180.185 36.2543 180.308C40.4909 180.975 44.7897 180.548 48.8027 179.226C51.5779 178.529 54.215 177.271 56.7777 175.945C58.1508 175.234 59.557 174.486 60.1394 172.96C60.6997 171.494 60.4071 169.798 60.2415 168.283C59.7958 164.235 58.9112 160.237 57.6098 156.379C55.5081 150.145 52.2582 142.489 45.1126 140.908C44.2349 140.713 43.2413 141.805 44.0624 142.55C44.1259 142.608 44.1797 142.673 44.2418 142.732C39.5153 140.005 34.2644 138.273 28.8093 137.663C27.8281 137.554 27.3354 139.045 28.2145 139.519C28.5415 139.696 28.8106 139.928 29.1115 140.129C25.2889 139.507 21.4221 139.245 17.5388 139.372C16.5618 139.401 16.058 140.641 16.9412 141.225Z" fill="#5FC5A9"/>
<path d="M47.4751 162.228C47.5096 162.323 47.4986 162.411 47.4599 162.483C49.8266 164.157 52.1326 165.914 54.342 167.789C52.3134 158.362 48.9614 149.412 44.3853 141.023C44.5923 140.916 44.8241 140.868 45.0546 140.905C49.5506 149.192 52.8626 158.027 54.9023 167.287C54.9823 167.65 55.061 168.017 55.1369 168.382C55.1438 168.417 55.1231 168.446 55.1189 168.48C56.8232 169.958 58.4779 171.494 60.08 173.084C59.9862 173.304 59.8744 173.506 59.7488 173.695C59.2106 173.159 58.6862 172.609 58.137 172.084C50.093 174.769 41.5908 176.299 33.0679 176.678C32.5504 176.512 32.0453 176.311 31.543 176.099C40.3957 175.848 49.2525 174.329 57.6195 171.569C55.8227 169.878 53.9432 168.28 52.0222 166.732C52.0125 166.736 52.0098 166.747 52.0001 166.75C43.658 169.194 34.8026 170.205 26.0851 169.78C25.7746 169.56 25.4682 169.332 25.166 169.097C33.9746 169.633 42.9515 168.668 51.4095 166.243C49.1339 164.44 46.7879 162.729 44.3618 161.132C37.575 163.082 30.4156 164.069 23.3003 164.08C22.918 163.884 22.5454 163.678 22.2018 163.434C29.422 163.525 36.7097 162.589 43.6263 160.663C40.7104 158.779 37.6978 157.048 34.6011 155.477C29.1225 156.641 23.5666 157.296 17.9997 157.453C17.6464 157.244 17.2945 157.037 16.9412 156.829C22.5454 156.732 28.1413 156.129 33.6613 155.006C30.8144 153.598 27.904 152.326 24.9383 151.193C21.2938 151.838 17.6381 152.15 13.9163 152.152C13.5437 151.934 13.1725 151.712 12.7971 151.5C16.4955 151.557 20.118 151.308 23.7253 150.735C16.1229 147.943 8.1893 146.065 0.141137 145.209C0.0790366 144.997 0.0831449 144.768 0.160425 144.561C8.67502 145.461 17.0599 147.509 25.0667 150.557C25.1301 150.565 25.1853 150.579 25.2323 150.619C26.2134 150.994 27.1905 151.374 28.1592 151.78C24.0386 147.198 18.749 143.703 12.9309 141.697C13.4374 141.646 13.948 141.623 14.4559 141.583C20.256 143.829 25.4917 147.517 29.4909 152.293C29.5103 152.316 29.5047 152.347 29.5158 152.374C31.2891 153.147 33.0376 153.97 34.7626 154.843C34.8164 154.857 34.8605 154.874 34.9006 154.912C36.0184 155.479 37.1265 156.066 38.2222 156.676C35.5312 152.975 32.7422 149.194 29.5834 145.806C27.1946 143.243 24.8072 141.132 22.3688 139.429C22.7566 139.448 23.1443 139.459 23.5321 139.487C25.7318 141.109 27.8943 143.051 30.054 145.368C33.4764 149.038 36.4613 153.151 39.3483 157.13C39.3952 157.193 39.4049 157.269 39.3994 157.342C41.8875 158.769 44.3177 160.293 46.6747 161.925C43.7284 153.523 39.3262 145.575 33.8007 138.562C34.1429 138.646 34.4865 138.721 34.826 138.813C40.2729 145.864 44.5951 153.829 47.4751 162.228Z" fill="#33896E"/>
<path opacity="0.6" d="M49.5437 151.225C45.9102 147.5 41.0167 145.168 35.999 143.976C31.9059 143.003 27.679 142.805 23.4866 142.856C21.5339 142.88 13.131 142.086 12.4727 144.206C11.6378 146.893 21.2344 147.613 22.8724 148.052C28.5567 149.572 33.9925 151.869 39.1937 154.603C41.7922 155.969 44.2266 157.835 46.89 159.04C48.844 159.924 51.2149 159.466 51.9477 157.235C52.7191 154.886 51.0879 152.808 49.5437 151.225Z" fill="white"/>
<path d="M83.3455 54.5984C87.4386 67.8298 87.7518 82.0162 85.4721 95.5982C84.3336 102.403 82.5368 109.099 80.2695 115.597C78.0132 122.101 75.3829 128.442 72.8037 134.767C67.6894 147.379 62.5862 160.174 61.5981 173.599C61.0875 180.272 61.4794 187.022 63.1519 193.431C64.0255 196.617 65.175 199.719 66.6958 202.625C68.2607 205.506 70.1596 208.18 72.3524 210.595L72.3869 210.632C73.0383 211.35 72.9845 212.459 72.2669 213.111C71.5493 213.762 70.4397 213.708 69.7884 212.991C69.7856 212.988 69.776 212.977 69.776 212.977C67.3968 210.298 65.3572 207.342 63.6971 204.19C62.0825 201.014 60.8874 197.657 59.9987 194.242C58.2999 187.378 57.9907 180.289 58.6076 173.347C58.9167 169.873 59.5005 166.434 60.2333 163.035C60.9992 159.634 61.9817 156.32 63.0443 153.032C65.2123 146.473 67.8384 140.116 70.4991 133.813C73.1611 127.511 75.8507 121.244 78.1553 114.853C80.4709 108.469 82.3105 101.934 83.5125 95.2615C85.915 81.9541 85.7771 68.0465 81.9269 55.0303C81.8109 54.637 82.0345 54.2258 82.4278 54.1099C82.8156 53.9912 83.2255 54.2106 83.3455 54.5984Z" fill="#33896E"/>
<path d="M139.11 41.5352C132.196 39.8668 125.26 40.1952 118.429 41.4924C122.03 38.9877 125.067 35.8055 127.005 31.5564C127.49 30.4911 126.697 29.5596 125.584 29.71C121.371 30.2799 117.259 31.3619 113.311 32.8592C116.562 29.3871 119.514 25.628 122.115 21.6149C122.699 20.7138 121.726 19.4235 120.695 19.7685C114.493 21.8371 108.711 24.9324 103.575 28.8696C105.631 25.4003 107.409 21.7736 108.718 17.9C109.051 16.9174 107.756 15.8258 106.872 16.4799C102.603 19.636 98.818 23.3261 95.5405 27.4178C96.6238 22.0551 96.8156 16.5089 96.0208 11.0276C95.8841 10.0878 94.5069 9.82972 93.919 10.4728C91.0776 13.5875 88.6888 17.0568 86.7637 20.7566C87.0452 14.3092 86.8051 7.837 85.9881 1.4131C85.8336 0.202838 84.3832 -0.33122 83.6449 0.7783C79.8347 6.51634 78.1153 12.9113 77.4915 19.5132C76.7228 16.2081 75.8672 12.9223 74.8308 9.68758C74.3244 8.10748 73.7172 5.83185 71.7521 5.57931C69.5786 5.30055 69.1315 7.59274 69.1108 9.23218C69.0694 12.707 69.297 16.1901 69.7124 19.6484C68.0799 16.5117 66.2003 13.4964 64.0227 10.6743C63.3078 9.7483 61.6891 9.94701 61.6794 11.3091C61.6656 13.5171 61.8657 15.7044 62.1666 17.8751C60.098 16.2205 57.8927 14.7315 55.5122 13.5323C54.5504 13.0493 53.3718 13.8483 53.6658 14.9523C54.5338 18.2201 55.5867 21.5018 56.855 24.6909C53.8769 22.5795 50.7443 20.6807 47.442 19.0799C46.2828 18.5182 45.1705 19.6457 45.7211 20.8007C47.8739 25.3106 50.5746 29.514 53.6906 33.378C48.8247 30.5918 43.7463 28.1713 38.4734 26.18C37.4411 25.7894 36.4917 27.1446 37.0533 28.0264C39.9251 32.5293 43.676 36.1546 47.8698 39.2361C43.1212 38.0259 38.2677 37.2117 33.3508 36.8584C32.2164 36.777 31.7555 38.2632 32.4621 39.0043C37.2286 44.0109 43.1944 47.7038 49.6886 49.847C43.0398 50.0843 36.4171 50.9316 29.9063 52.4013C28.6684 52.6815 28.7499 54.5017 29.9063 54.826C36.6379 56.7166 43.5366 57.9172 50.4918 58.4347C44.5357 59.8285 38.7797 61.875 33.7082 65.4492C32.647 66.1972 33.0914 67.6531 34.343 67.7925C40.8939 68.5211 47.3895 67.7359 53.8024 66.4346C48.1306 69.8252 43.1902 74.2081 41.1023 80.8183C40.8111 81.7401 41.7509 82.6151 42.6492 82.3653C47.7539 80.9439 52.5756 78.7041 56.9653 75.8034C53.6961 81.311 51.4771 87.4313 50.5732 93.8179C50.4269 94.8515 51.3833 95.8341 52.4197 95.2379C57.2759 92.4476 61.4821 88.7354 64.9086 84.3966C63.6694 89.7607 63.1036 95.2766 63.3051 100.826C63.3451 101.916 64.6506 102.483 65.451 101.714C68.4801 98.8107 71.0414 95.5029 73.1224 91.9259C73.1031 95.7761 73.4991 99.6346 74.3189 103.43C74.5521 104.512 76.0894 104.623 76.6166 103.73C78.9571 99.7616 80.8283 95.5581 82.2663 91.2166C82.6458 95.2697 83.3896 99.2937 84.5433 103.234C84.9131 104.496 86.5429 104.354 86.968 103.234C88.8185 98.3664 89.9543 93.2866 90.4138 88.1475C91.5661 91.6844 92.9682 95.1427 94.6421 98.4947C95.0989 99.411 96.7701 99.2606 96.9398 98.1939C97.7623 93.0492 97.7913 87.8439 97.0764 82.7379C100.154 87.7983 104.005 92.3013 109.307 95.2434C110.359 95.8272 111.296 94.8681 111.154 93.8234C110.589 89.6379 109.427 85.5793 107.791 81.7263C111.09 84.467 114.649 86.9 118.461 88.9355C119.617 89.5523 120.717 88.3352 120.182 87.2146C118.367 83.4251 116.163 79.862 113.652 76.5375C118.577 79.1526 123.873 81.0708 129.381 82.1514C130.34 82.3391 131.503 81.2709 130.801 80.3049C127.41 75.6419 122.994 72.2043 118.128 69.425C123.004 70.1854 127.957 70.4697 132.926 70.1992C134.027 70.1399 134.568 68.8744 133.815 68.0533C130.253 64.1658 125.934 61.5811 121.246 59.7857C125.881 59.1965 130.448 58.0248 134.813 56.2695C135.929 55.821 136.077 54.2423 134.813 53.8448C130.195 52.3944 125.452 51.4202 120.659 50.9123C127.228 49.473 133.622 47.4113 139.409 43.8357C140.298 43.2851 140.192 41.7974 139.11 41.5352Z" fill="#FFB552"/>
<path d="M89.2214 55.4788L124.845 51.4878C123.455 51.2601 122.06 51.0586 120.659 50.911C121.816 50.6571 122.964 50.3755 124.108 50.0788C115 51.0987 105.892 52.1199 96.7838 53.1397C94.1452 53.435 91.5066 53.7317 88.8681 54.027L123.495 40.7293C121.802 40.9156 120.113 41.1751 118.43 41.4939C118.827 41.2192 119.212 40.9322 119.592 40.6396C111.594 43.7115 103.595 46.7834 95.5956 49.8553C93.1171 50.8075 90.6386 51.7597 88.1588 52.7105L117.999 31.326C116.418 31.7759 114.853 32.2741 113.319 32.8551C106.751 37.5622 100.183 42.268 93.6153 46.9752C91.457 48.5222 89.2987 50.0692 87.1404 51.6148L109.266 25.0167C107.809 25.8861 106.391 26.8189 105.015 27.8084C100.334 33.4347 95.6535 39.0623 90.9726 44.6899C89.2752 46.731 87.5764 48.772 85.879 50.8144L98.4218 24.0852C97.4241 25.1657 96.4567 26.2711 95.5376 27.4179C95.6108 27.0535 95.6701 26.6865 95.7363 26.3194C93.1047 31.9277 90.473 37.536 87.8414 43.1443C86.7139 45.5483 85.5851 47.9523 84.4576 50.3562L91.2679 13.6841C90.5476 14.6294 89.8672 15.6009 89.22 16.5931C87.6206 25.2085 86.0198 33.8238 84.4204 42.4392C84.1485 43.9061 83.8752 45.3744 83.6034 46.8414L84.5197 7.69628C84.5777 5.18882 84.637 2.68136 84.6963 0.173898C84.3168 0.169758 83.9291 0.350538 83.6448 0.776958C83.4792 1.02674 83.3398 1.28342 83.1811 1.53596C82.8623 15.1745 82.5422 28.8117 82.2234 42.4502C82.1613 45.1039 82.0992 47.7591 82.0371 50.4142L72.2598 8.9783C71.9921 7.8467 71.7257 6.71372 71.458 5.58212C70.8563 5.57246 70.3954 5.76428 70.0587 6.10238C72.9746 18.4644 75.8919 30.8251 78.8093 43.1857C79.4192 45.7705 80.0292 48.3538 80.6391 50.9386L61.9098 15.5609C61.9857 16.3337 62.0588 17.1079 62.1665 17.8765C61.7759 17.5647 61.3757 17.2638 60.9755 16.9644C65.88 26.2311 70.7846 35.4964 75.6905 44.7631C76.9325 47.1091 78.1745 49.4565 79.4179 51.8038L51.3238 21.1582C50.0528 20.4268 48.7639 19.7244 47.4405 19.0827C47.4267 19.0758 47.4129 19.0758 47.3991 19.0689C55.9565 28.4032 64.5139 37.7389 73.0712 47.0732C74.8652 49.03 76.6592 50.9883 78.4546 52.9451L42.696 29.8384C40.9241 28.693 39.1522 27.549 37.3803 26.4036C36.9553 26.7693 36.751 27.4082 37.0104 27.9298C48.3789 35.277 59.7487 42.6227 71.1171 49.9698C73.3472 51.4105 75.5773 52.8526 77.8074 54.2934L37.3762 40.9584C35.9051 40.4727 34.434 39.9883 32.9629 39.5025C33.7978 40.3498 34.6686 41.1558 35.5711 41.923C47.0334 45.7042 58.4971 49.4841 69.9593 53.2653C72.4806 54.0974 75.0032 54.9282 77.5245 55.7603L35.0371 53.061C33.1506 52.941 31.2641 52.8209 29.3777 52.7008C28.9885 53.0748 28.925 53.6848 29.1582 54.1719C42.6629 55.0303 56.1676 55.8886 69.6709 56.747C72.3205 56.9154 74.9701 57.0837 77.6211 57.2521L35.8278 65.3623C34.9957 65.5238 34.1635 65.6853 33.3327 65.8467C33.0071 66.3366 33.0788 66.9286 33.4418 67.3357C45.7182 64.9539 57.9947 62.572 70.2712 60.1887C72.878 59.6823 75.4849 59.1772 78.0917 58.6707L44.0485 74.9809C43.5241 75.7192 43.048 76.4976 42.6146 77.3118C52.316 72.6639 62.0174 68.0161 71.7188 63.3682C74.1131 62.2215 76.5088 61.0733 78.9031 59.9265L54.4785 80.5782C54.0286 81.5622 53.6146 82.5613 53.231 83.5742C60.1282 77.7423 67.0255 71.9104 73.9213 66.0786C75.9485 64.3646 77.9771 62.6493 80.0043 60.9353L59.3292 90.281C61.3647 88.4925 63.2304 86.5219 64.9071 84.3981C64.8492 84.6465 64.8133 84.899 64.7581 85.1474C68.7518 79.4797 72.7442 73.8121 76.7379 68.1444C78.2669 65.9737 79.796 63.8029 81.325 61.6322L66.835 100.287C67.8065 99.2662 68.7435 98.2174 69.6074 97.1134C73.0657 87.8867 76.5254 78.66 79.9837 69.432C80.9152 66.9452 81.848 64.4598 82.7795 61.9731L78.8852 99.4663C79.5848 98.0352 80.2362 96.5848 80.8282 95.1096C81.7031 86.693 82.5767 78.2764 83.4516 69.8611C83.7262 67.2198 84.0008 64.5785 84.2754 61.9386L89.3442 95.1151C89.6754 93.5737 89.9293 92.0198 90.1322 90.459C89.0599 83.4403 87.9876 76.4203 86.9154 69.4016C86.5152 66.7768 86.1136 64.1521 85.712 61.5273L97.5455 88.999C97.5165 87.5348 97.4241 86.0748 97.2723 84.6189C94.8973 79.1058 92.5237 73.594 90.1487 68.0809C89.0986 65.6425 88.0484 63.204 86.9968 60.7656L110.705 91.1959C110.478 90.0367 110.215 88.8872 109.901 87.7515C104.25 80.4968 98.5971 73.2421 92.9446 65.9875C91.3121 63.8926 89.6809 61.7978 88.0484 59.7043L117.516 82.2825C116.761 81.0198 115.963 79.7861 115.124 78.5827C108.457 73.474 101.789 68.3652 95.1223 63.2565C93.015 61.6419 90.9064 60.0273 88.7991 58.4113L123.709 73.1166C121.944 71.7586 120.075 70.5346 118.128 69.4223C118.432 69.4692 118.737 69.4982 119.04 69.541C111.54 66.3808 104.04 63.222 96.5381 60.0618C94.0914 59.0309 91.6447 58 89.1965 56.9692L126.731 62.3953C125.359 61.5963 123.934 60.8967 122.468 60.2812C114.013 59.0585 105.559 57.8372 97.1039 56.6145C94.4778 56.2378 91.8503 55.8583 89.2214 55.4788Z" fill="#F99F3D"/>
<path d="M114.625 65.4423C113.042 62.3925 110.629 59.9775 107.762 58.2498C110.451 57.1748 112.648 55.3035 112.683 51.9625C112.702 50.0567 111.804 48.2931 110.084 47.3961C109.016 46.8386 107.854 46.8372 106.695 46.8689C108.213 45.827 109.721 44.7713 111.17 43.6494C112.825 42.3687 114.132 40.2504 112.749 38.2591C111.575 36.57 109.226 36.5382 107.407 36.8791C105.478 37.2407 103.56 37.7471 101.647 38.2729C102.333 37.0171 102.968 35.7337 103.522 34.4158C104.277 32.6218 104.552 30.2648 102.442 29.2643C100.502 28.3452 98.3889 29.6231 96.7232 30.549C95.7089 31.1135 94.736 31.7386 93.7741 32.3803C94.3454 28.8296 94.3758 24.6813 91.217 24.386C89.0462 24.1831 87.5931 26.2158 86.4573 27.7573C86.2227 28.0761 86.0544 28.428 85.8377 28.7564C85.7342 27.9422 85.6804 27.1225 85.5093 26.3152C85.0553 24.1734 84.4495 20.9718 82.0662 20.1356C80.0238 19.4193 78.4699 20.9594 77.8337 22.7548C77.0126 25.0732 76.571 27.6152 76.0936 30.0867C74.9164 28.3548 73.5488 26.7554 71.9549 25.3133C71.1283 24.5654 69.3246 24.7089 69.1425 26.0558C68.7023 29.296 68.8154 32.4562 69.3647 35.5571C67.51 33.8528 65.5573 32.2547 63.4776 30.7988C62.1473 29.8673 60.7866 31.4005 61.006 32.6991C61.5884 36.1463 62.5116 39.4901 63.6915 42.7524C60.9218 41.084 58.0017 39.6957 54.8788 38.6759C53.3235 38.168 52.4583 39.9179 52.9786 41.1474C54.1985 44.0275 55.9497 46.5626 58.0473 48.7926C55.3246 48.6229 52.588 48.8037 49.8708 49.4233C48.6729 49.6965 48.1955 51.4077 49.1284 52.2357C51.5779 54.412 54.2799 56.1812 57.1682 57.615C54.2992 58.5285 51.6124 59.9154 49.1891 61.8875C48.2148 62.6796 48.7668 64.446 49.9315 64.6999C53.1552 65.4037 56.3789 66.1075 59.6025 66.8113C57.2731 68.6412 55.5757 71.1928 54.8553 74.2012C54.5697 75.3921 55.6571 76.6824 56.9253 76.2712C60.305 75.1755 63.6832 74.0798 67.0628 72.984C65.7932 76.2395 65.077 79.6632 64.9666 83.2112C64.9238 84.5912 66.4032 85.1681 67.4989 84.6644C70.4604 83.3023 72.9844 81.2516 75.0282 78.7814C75.3373 81.0833 75.9141 83.3423 76.8291 85.5158C77.4045 86.882 79.0095 87.1649 79.9051 85.9174C81.1416 84.1952 82.1697 82.3611 83.0211 80.4498C83.5773 82.3929 84.3114 84.2876 85.2788 86.112C85.8902 87.2629 87.5448 87.1442 88.1851 86.112C89.5886 83.8502 90.5877 81.4379 91.2805 78.9305C92.2975 80.5961 93.5285 82.1307 94.9816 83.5038C95.8524 84.3263 97.5208 84.0475 97.794 82.7613C98.3695 80.0565 98.5144 77.3504 98.3115 74.6511C101.752 76.9253 105.862 78.068 110.064 77.803C111.077 77.7395 112.074 76.768 111.687 75.6723C110.704 72.8957 109.255 70.4186 107.453 68.2148C109.477 68.4135 111.535 68.3348 113.621 67.9139C114.736 67.6876 115.091 66.3407 114.625 65.4423Z" fill="#F99F3D"/>
<path d="M106.536 62.4917C105.343 60.1926 103.524 58.371 101.36 57.0669C103.389 56.2554 105.046 54.8451 105.072 52.3252C105.087 50.8873 104.41 49.5583 103.113 48.8807C102.307 48.4612 101.43 48.4584 100.557 48.4833C101.702 47.6967 102.839 46.9018 103.932 46.0559C105.18 45.0899 106.167 43.4918 105.123 41.9918C104.237 40.718 102.467 40.6946 101.094 40.9512C99.6392 41.2231 98.1915 41.6054 96.7494 42.0028C97.2669 41.0561 97.7458 40.0874 98.1639 39.0938C98.7339 37.74 98.9408 35.9639 97.3483 35.2091C95.8855 34.5163 94.2917 35.4795 93.0345 36.1778C92.2686 36.6029 91.5358 37.0748 90.8113 37.5592C91.2418 34.882 91.2653 31.7536 88.8821 31.5314C87.2454 31.3782 86.1496 32.9114 85.2927 34.0733C85.116 34.3134 84.9891 34.5798 84.8249 34.8268C84.7476 34.2127 84.7062 33.5945 84.5765 32.9859C84.2342 31.3713 83.7774 28.9563 81.9807 28.3256C80.4406 27.7847 79.269 28.9466 78.7887 30.3004C78.1705 32.0489 77.8365 33.9657 77.4763 35.8301C76.589 34.5246 75.5568 33.3185 74.3562 32.2296C73.7338 31.6652 72.3731 31.7742 72.2351 32.7899C71.9039 35.2325 71.9881 37.6158 72.4021 39.9549C71.0028 38.6687 69.5303 37.464 67.9613 36.3669C66.958 35.6645 65.9313 36.8209 66.0969 37.8007C66.5357 40.4006 67.2326 42.9219 68.1213 45.3824C66.0334 44.1239 63.8309 43.0778 61.4752 42.3078C60.3022 41.9241 59.6495 43.2448 60.0428 44.1722C60.9633 46.3443 62.2825 48.2556 63.8654 49.9378C61.8119 49.8095 59.7489 49.9461 57.6996 50.4139C56.7957 50.6195 56.4369 51.9098 57.1393 52.535C58.9857 54.1758 61.0254 55.5102 63.203 56.5922C61.0392 57.2808 59.0133 58.3268 57.1862 59.8145C56.452 60.412 56.8674 61.7437 57.7465 61.9355C60.178 62.4668 62.6082 62.9967 65.0398 63.528C63.283 64.908 62.0038 66.8318 61.4601 69.1005C61.2448 69.9989 62.0645 70.9718 63.0208 70.6613C65.5697 69.8346 68.1172 69.008 70.666 68.1814C69.7083 70.6364 69.1687 73.2184 69.0846 75.8942C69.0528 76.9347 70.1679 77.3695 70.9945 76.99C73.2273 75.9632 75.1317 74.4162 76.6732 72.5532C76.9064 74.2893 77.3411 75.9922 78.0311 77.6316C78.4658 78.6625 79.6761 78.875 80.3509 77.9352C81.2824 76.6367 82.058 75.2525 82.701 73.8118C83.1206 75.2774 83.6739 76.7057 84.404 78.0815C84.8649 78.9495 86.1124 78.8598 86.5954 78.0815C87.6538 76.3758 88.4073 74.557 88.9304 72.665C89.6976 73.9208 90.625 75.0787 91.7221 76.1137C92.379 76.7333 93.6375 76.5235 93.8432 75.5534C94.2765 73.5137 94.3855 71.4727 94.2323 69.4372C96.8267 71.1525 99.9262 72.015 103.095 71.8136C103.859 71.7653 104.611 71.0339 104.319 70.2073C103.578 68.1138 102.485 66.2453 101.125 64.5837C102.653 64.7342 104.204 64.6748 105.777 64.356C106.622 64.1863 106.89 63.1706 106.536 62.4917Z" fill="#F78721"/>
<path d="M96.9094 58.9799C96.178 57.5723 95.0658 56.4586 93.7423 55.661C94.983 55.1642 95.9973 54.3017 96.0138 52.7588C96.0235 51.8798 95.6081 51.0656 94.8146 50.6516C94.3219 50.3949 93.7851 50.3935 93.251 50.4087C93.9521 49.9271 94.6476 49.4413 95.3169 48.9224C96.08 48.3318 96.6845 47.3534 96.0455 46.4357C95.5032 45.656 94.4199 45.6422 93.5795 45.7995C92.6894 45.9665 91.8034 46.1997 90.9216 46.4426C91.2376 45.863 91.5315 45.271 91.7868 44.6624C92.136 43.8344 92.2616 42.7469 91.2887 42.2846C90.3931 41.861 89.4188 42.4502 88.6487 42.878C88.1809 43.1389 87.7324 43.4273 87.2881 43.7226C87.5517 42.0845 87.5654 40.1705 86.1082 40.0339C85.1063 39.94 84.4356 40.8784 83.9112 41.5891C83.8035 41.7354 83.7249 41.8982 83.6255 42.05C83.5772 41.6747 83.5524 41.2966 83.4737 40.924C83.264 39.9359 82.9838 38.4579 81.8854 38.0729C80.9428 37.7417 80.2252 38.4524 79.9327 39.2818C79.5545 40.3513 79.3503 41.5243 79.1295 42.6655C78.5858 41.8665 77.9551 41.1282 77.2196 40.463C76.8387 40.118 76.0065 40.1843 75.9224 40.8053C75.7195 42.2998 75.7706 43.7585 76.0245 45.1895C75.1689 44.4029 74.2678 43.666 73.3073 42.994C72.6932 42.5648 72.0653 43.2713 72.166 43.8703C72.4351 45.4614 72.8616 47.0042 73.4053 48.5098C72.1274 47.7398 70.7791 47.0994 69.3384 46.6289C68.6208 46.3943 68.2206 47.2016 68.4621 47.7701C69.0252 49.0991 69.8324 50.2693 70.8012 51.2988C69.544 51.2201 68.2813 51.3043 67.0283 51.59C66.4749 51.7156 66.2555 52.5049 66.686 52.8872C67.8163 53.8918 69.0638 54.7074 70.3968 55.3698C69.0734 55.7921 67.8328 56.431 66.715 57.3404C66.2651 57.7061 66.5204 58.5203 67.0573 58.639C68.5449 58.9633 70.0326 59.289 71.5202 59.6133C70.4452 60.4579 69.6627 61.635 69.3287 63.0233C69.1976 63.5725 69.6986 64.1687 70.2837 63.9782C71.8431 63.4732 73.4025 62.9667 74.9619 62.4616C74.3754 63.9644 74.0456 65.5445 73.9945 67.1812C73.9752 67.8174 74.6569 68.0837 75.1634 67.8519C76.5296 67.224 77.6943 66.2773 78.6382 65.1374C78.7804 66.2 79.0467 67.2419 79.469 68.2452C79.7339 68.8758 80.475 69.007 80.889 68.4301C81.4589 67.6352 81.9337 66.7893 82.327 65.9061C82.5837 66.8031 82.9218 67.6766 83.3689 68.5184C83.6504 69.0497 84.4149 68.9945 84.7102 68.5184C85.3574 67.4752 85.8197 66.3615 86.1385 65.2037C86.6077 65.9723 87.1763 66.6803 87.847 67.3137C88.2486 67.6932 89.0186 67.5649 89.1455 66.9715C89.4105 65.7226 89.4781 64.475 89.3843 63.2289C90.9727 64.2791 92.8688 64.8062 94.8077 64.6834C95.2755 64.6544 95.7351 64.2059 95.557 63.7008C95.1044 62.4202 94.4351 61.2762 93.6029 60.2591C94.5372 60.3502 95.4866 60.3143 96.4499 60.1197C96.9618 60.0176 97.1247 59.3953 96.9094 58.9799Z" fill="#5B310E"/>
</svg>
