<svg width="51" height="102" viewBox="0 0 51 102" fill="none" xmlns="http://www.w3.org/2000/svg">
<path d="M40.2032 26.2743C39.8903 22.8628 38.7864 19.9328 36.4802 17.1752C35.5503 16.0633 34.4849 15.0514 33.7335 13.8121C32.1449 11.1915 32.1439 7.87977 30.7612 5.14501C29.5522 2.75366 27.2715 0.93022 24.6727 0.27692C21.2508 -0.583063 16.2048 0.570852 15.3435 4.53454C14.8261 6.91552 16.0266 9.19515 16.6373 11.4208C16.8581 12.2254 17.0392 13.0572 16.9674 13.8885C16.8983 14.687 16.5995 15.4451 16.3136 16.1939C15.3214 18.7927 14.4385 21.469 14.2209 24.2423C13.8116 29.465 15.9348 34.8284 19.8083 38.3553C21.3038 39.717 23.8465 41.6213 25.9311 41.8224C26.1328 41.8418 26.3687 41.8644 26.4754 42.0368C26.5376 42.1373 26.5366 42.2631 26.5334 42.3812C26.328 49.7226 24.8751 57.0398 25.4177 64.3641C25.4521 64.8278 25.518 65.3395 25.8689 65.6446C26.2197 65.9497 26.9302 65.7973 26.9361 65.3324C26.9361 67.4112 26.997 69.4897 27.1183 71.565C27.3835 76.1062 27.8666 80.6402 28.6914 85.1154C29.4942 89.4707 30.7987 93.6828 31.9715 97.933C32.229 98.8661 32.5838 99.7896 33.2076 100.543C33.3856 100.758 33.5901 100.962 33.8471 101.071C34.1038 101.181 34.4224 101.179 34.6424 101.007C34.8142 100.873 34.9015 100.659 34.9768 100.454C35.3705 99.3797 35.6274 98.2554 35.7391 97.1163C36.2384 98.578 36.8555 100.18 38.2356 100.874C38.388 100.951 38.5577 101.016 38.7255 100.985C39.1134 100.913 39.2317 100.42 39.2442 100.026C39.3328 97.2579 38.5399 94.3582 38.2231 91.6072C38.0533 90.1349 37.9121 88.6591 37.8222 87.1796C37.7341 85.7331 37.9251 84.1634 37.7259 82.7392C38.2353 86.3805 38.8995 90.0003 39.7159 93.5854C40.0406 95.0123 40.3918 96.4402 40.9514 97.7923C41.2845 98.5969 41.7423 99.4239 42.5275 99.8003C44.0498 100.53 44.7412 99.0616 44.8489 97.83C45.1955 98.3719 45.2968 99.0345 45.5865 99.6088C45.8762 100.183 46.4981 100.698 47.1134 100.511C47.6523 100.347 47.909 99.7386 48.03 99.1882C48.3346 97.8021 48.2215 96.3622 48.0888 94.9492C47.539 89.0908 46.6811 83.2654 45.6599 77.4716C44.5605 71.2336 43.272 65.031 41.9718 58.8324C41.3214 55.7313 40.6673 52.6311 40.0324 49.5266C39.4658 46.7569 38.6117 43.865 38.5798 41.0252C38.5704 40.2104 38.7261 39.4039 38.8809 38.604C39.6334 34.7137 40.5716 30.2936 40.2032 26.2743Z" fill="#C4641C"/>
<path d="M34.2844 38.8898C34.465 41.8799 35.3226 44.7873 35.6016 47.7931C35.8525 50.4946 35.5697 53.3568 34.1054 55.6407C34.0439 55.7367 33.9742 55.8365 33.8689 55.8798C33.5726 56.0016 33.3313 55.6191 33.2395 55.3122C32.9201 54.242 32.6416 53.1599 32.4048 52.0685C32.2277 52.7266 32.0505 53.3847 31.8731 54.0428C31.7957 54.3301 31.676 54.6623 31.3895 54.7421C31.0514 54.8366 30.7514 54.5131 30.5606 54.2181C29.3498 52.3449 28.7178 50.1456 28.4294 47.9341C28.1411 45.7225 28.1818 43.4828 28.2228 41.2527C28.0504 41.5756 27.878 41.8985 27.7056 42.2212C27.358 42.1783 27.0595 41.3718 26.8691 41.1042C26.8904 41.1343 26.7555 42.1951 26.755 42.2986C26.7515 42.8311 26.7472 43.3636 26.7414 43.8962C26.7294 45.0105 26.7119 46.1245 26.6879 47.2385C26.64 49.4652 26.5666 51.6914 26.4602 53.9162C26.3025 57.2133 26.0679 60.6064 27.0643 63.8051C27.2359 64.3559 27.4428 64.8959 27.6008 65.4508C27.7748 66.0626 27.8887 66.6898 28.0068 67.3149C28.5821 70.3628 29.2676 73.3971 30.2787 76.3292C30.6553 77.4217 31.0895 78.5205 31.8332 79.405C32.5769 80.2894 33.6862 80.9371 34.839 80.8613C36.3597 80.7611 37.6456 79.4627 39.1685 79.5186C39.6629 79.5366 40.162 79.7 40.644 79.5877C41.5635 79.3736 41.9678 78.3093 42.1668 77.3866C42.7307 74.772 42.8465 72.0782 42.7621 69.4047C42.507 61.3094 40.4461 53.3935 38.3976 45.5576C37.9172 43.7198 37.4365 41.882 36.9561 40.0439C36.6335 40.5919 36.3108 41.1401 35.9884 41.6881C36.1166 41.4708 34.4815 39.1805 34.2844 38.8898Z" fill="#D1D1CF"/>
<path d="M25.4172 64.3637C25.4516 64.8274 25.5175 65.3392 25.8684 65.6443C26.2192 65.9494 26.9297 65.797 26.9356 65.332C26.9356 67.4108 26.9965 69.4893 27.1178 71.5647C27.383 76.1058 27.866 80.6398 28.6909 85.115C29.4937 89.4703 30.7982 93.6824 31.971 97.9326C32.2285 98.8657 32.5833 99.7893 33.2071 100.543C33.385 100.758 33.5896 100.962 33.8466 101.071C34.1033 101.18 34.4219 101.178 34.6419 101.006C34.8137 100.872 34.901 100.659 34.9763 100.454C35.3699 99.3794 35.6269 98.255 35.7386 97.116C36.2379 98.5776 36.855 100.18 38.2351 100.874C38.3875 100.95 38.5572 101.015 38.725 100.984C39.1129 100.913 39.2312 100.42 39.2437 100.025C39.3323 97.2575 38.5394 94.3578 38.2226 91.6068C38.0528 90.1345 37.9116 88.6587 37.8217 87.1792C37.7336 85.7327 37.9246 84.163 37.7254 82.7388C38.2348 86.3801 38.899 89.9999 39.7154 93.5851C40.0401 95.0119 40.3913 96.4398 40.9509 97.7919C41.284 98.5965 41.7418 99.4235 42.527 99.7999C44.0493 100.53 44.7407 99.0612 44.8484 97.8296C45.195 98.3715 45.2963 99.0341 45.586 99.6084C45.8757 100.183 46.4976 100.697 47.1129 100.51C47.6518 100.347 47.9085 99.7382 48.0295 99.1878C48.3341 97.8017 48.221 96.3618 48.0883 94.9488C47.5385 89.0904 46.6806 83.265 45.6594 77.4712C44.56 71.2332 43.2715 65.0306 41.9713 58.832C41.3209 55.7309 40.6668 52.6307 40.0319 49.5262C39.4653 46.7566 38.6112 43.8646 38.5793 41.0248C38.57 40.21 38.7256 39.4035 38.8804 38.6036C39.6334 34.7136 40.5713 30.2932 40.2029 26.2739C39.8901 22.8625 38.7862 19.9325 36.48 17.1748C35.55 16.0629 34.4847 15.0511 33.7332 13.8118C32.1447 11.1911 32.1436 7.87941 30.7609 5.14465C29.552 2.75329 27.2713 0.929853 24.6724 0.276554C21.2506 -0.583429 16.2045 0.570486 15.3432 4.53417C14.8259 6.91515 16.0263 9.19478 16.6371 11.4204C16.8578 12.2251 17.039 13.0569 16.9672 13.8881C16.898 14.6866 16.5993 15.4448 16.3133 16.1935C15.29 18.8732 13.876 21.7647 15.3557 24.551C15.4377 24.7056 15.5747 24.8796 15.7457 24.8428C15.8481 24.821 15.9178 24.7287 15.975 24.641C16.3357 24.0877 16.5719 23.4538 16.6618 22.7994C16.7086 23.7506 17.0198 24.6875 17.5518 25.4778C17.7109 25.714 18.0022 25.9622 18.2445 25.8127C18.3461 25.7499 18.3993 25.6337 18.4448 25.5233C18.851 24.5404 19.1032 23.494 19.1888 22.4337C19.3106 23.0295 19.6086 23.5881 20.0352 24.0214C20.2491 23.5902 20.4627 23.1588 20.6766 22.7276C20.7899 23.6863 21.0971 24.6215 21.5749 25.4605C21.6584 25.6071 21.7714 25.7669 21.9395 25.7808C22.1382 25.7973 22.284 25.6033 22.3814 25.4294C22.7902 24.6976 23.0852 23.9023 23.2525 23.0806C23.3395 23.4921 23.5494 23.8767 23.8484 24.1725C23.9284 24.2518 24.0378 24.3297 24.1444 24.2941C24.2402 24.2619 24.2841 24.1542 24.3157 24.0584C24.5855 23.2423 24.8033 22.4089 24.968 21.5654C25.0874 21.9253 25.2066 22.2852 25.326 22.6454C25.3877 22.8313 25.5196 23.0596 25.7098 23.013C25.8013 22.9907 25.8636 22.9077 25.9147 22.8284C26.1706 22.4299 26.3405 21.9764 26.4097 21.508C26.3999 21.7527 26.5233 21.9988 26.7252 22.1371C26.8925 21.8713 27.0598 21.6056 27.2274 21.3401C27.1449 22.1714 27.2284 23.0189 27.4713 23.8182C27.516 23.9653 27.586 24.1308 27.7338 24.1733C27.9315 24.2302 28.1031 24.0307 28.2028 23.8509C28.626 23.0864 28.8388 22.207 28.8122 21.3338C28.8082 21.8737 29.0846 22.4081 29.5278 22.7167C29.777 22.26 29.8911 21.7306 29.852 21.2117C29.9167 21.575 30.1404 21.907 30.4529 22.1033C30.6963 21.7998 30.8447 21.4213 30.8724 21.0332C30.8684 21.3867 31.3408 21.5846 31.6653 21.4444C31.9899 21.3042 32.1761 20.9643 32.3104 20.6371C32.4447 20.3102 32.5615 19.9577 32.8233 19.7199C32.4352 21.3242 32.9844 23.0128 33.7585 24.4704C34.5328 25.9281 35.5378 27.2659 36.1706 28.7906C36.7162 30.1049 36.971 31.5389 36.9114 32.9607C36.784 36.0027 34.9436 39.3349 35.9251 42.3444C35.9458 42.408 35.9879 42.4843 36.0538 42.475C36.1129 42.4668 36.1371 42.396 36.1488 42.3378C36.248 41.852 36.347 41.3666 36.4462 40.8809C37.3022 43.2621 37.8914 45.6878 38.6998 48.0916C40.2508 52.7044 41.0847 57.4203 41.6606 62.2381C42.1689 66.3963 42.0562 70.6025 41.9426 74.7902C41.8681 74.3114 41.6915 73.8485 41.4276 73.4421C41.572 74.8298 41.601 76.2295 41.5146 77.622C41.1839 76.1348 40.6144 74.7008 39.8351 73.3918C39.8087 74.2574 39.7824 75.1232 39.7563 75.9888C39.5839 74.9072 39.4118 73.8257 39.2395 72.7441C38.4673 74.8016 39.5071 77.189 38.8099 79.2731C38.6021 78.1732 38.3944 77.0733 38.1864 75.9734C38.168 77.1416 38.0664 78.4818 37.1301 79.1805C37.0263 79.258 36.8965 79.3276 36.7726 79.2904C36.6585 79.2561 36.5893 79.1433 36.5332 79.0382C36.1645 78.3474 35.9009 77.601 35.7541 76.832C35.7511 77.2209 35.7482 77.6095 35.7453 77.9984C35.7442 78.1344 35.7402 78.2799 35.6615 78.3905C35.4064 78.7483 34.8656 78.3424 34.6597 77.954C34.1453 76.985 33.7676 75.9433 33.5415 74.8697C33.4795 75.9391 33.4175 77.0081 33.3555 78.0774C33.2098 77.6742 33.064 77.2712 32.9179 76.8679C32.9977 77.106 33.0776 77.3667 32.9911 77.6024C32.9047 77.838 32.5687 77.9867 32.3945 77.8059C32.3224 77.7311 32.2979 77.6239 32.2771 77.5223C32.0859 76.5873 31.9635 75.6382 31.9111 74.6854C31.9611 75.3366 31.8428 76.0002 31.5707 76.5942C31.2421 75.688 31.3124 74.6942 31.3225 73.7302C31.3485 71.2588 30.9466 68.7833 30.1401 66.4473C30.2377 67.4103 30.0904 68.3969 29.7158 69.2893C29.5206 67.8896 29.5421 66.4598 29.7794 65.0665C29.6602 65.8369 29.4977 66.6835 28.8824 67.1618C28.5616 65.4652 28.5135 63.7174 28.7407 62.0056C28.538 62.734 28.3087 63.5056 27.7384 64.0014C27.2271 61.0406 26.955 58.0385 26.9255 55.034C26.9159 54.0503 26.9321 53.0669 26.9585 52.0835C27.043 48.9346 27.3497 45.6958 26.989 42.5569C26.9659 42.3548 26.9374 42.1401 26.8074 41.9834C26.6177 41.7552 26.2679 41.7278 25.9854 41.8183C26.166 41.8095 26.3751 41.8542 26.4597 42.0138C26.5057 42.101 26.5044 42.2045 26.502 42.3032C26.4655 43.7218 26.4113 45.1497 26.3028 46.5669C26.1482 48.5899 25.9442 50.6083 25.7614 52.6288C25.4095 56.5268 25.1276 60.4509 25.4172 64.3637Z" fill="#212D35"/>
<path d="M25.4281 64.4624C25.4625 64.926 25.5284 65.4378 25.8793 65.7432C26.2301 66.0483 26.9406 65.8959 26.9465 65.4309C26.9465 67.5097 27.0074 69.5882 27.1287 71.6636C27.3939 76.2047 27.877 80.7387 28.7018 85.2139C29.5046 89.5692 30.8091 93.7813 31.9819 98.0315C32.2394 98.9646 32.5942 99.8882 33.218 100.642C33.396 100.857 33.6005 101.06 33.8575 101.17C34.1142 101.279 34.4328 101.277 34.6528 101.105C34.8246 100.971 34.9119 100.758 34.9869 100.553C35.3806 99.4785 35.6375 98.3539 35.7493 97.2149C36.2485 98.6765 36.8657 100.279 38.2457 100.973C38.3981 101.049 38.5678 101.114 38.7357 101.083C39.1235 101.012 39.2419 100.519 39.2544 100.125C39.3429 97.3566 38.55 94.457 38.2332 91.706C38.0635 90.2337 37.9222 88.7579 37.8323 87.2784C37.7443 85.8319 37.9353 84.2622 37.736 82.838C38.2454 86.4793 38.9096 90.0991 39.726 93.6842C40.0508 95.1111 40.4019 96.539 40.9616 97.891C41.2946 98.6957 41.7524 99.5227 42.5376 99.8991C44.0599 100.629 44.7513 99.1607 44.8593 97.9288C45.2059 98.4707 45.3072 99.1333 45.5969 99.7076C45.8866 100.282 46.5085 100.797 47.1237 100.61C47.6627 100.446 47.9194 99.8374 48.0404 99.287C48.345 97.9009 48.2319 96.461 48.0992 95.048C47.5494 89.1896 46.6915 83.3642 45.6703 77.5704C44.5709 71.3324 43.2827 65.1298 41.9825 58.9311C41.4143 56.2222 40.4825 53.3451 40.267 50.596C40.4003 52.5365 40.4413 54.4985 40.7927 56.4121C41.1533 58.3763 41.435 60.3543 41.6721 62.3368C42.1804 66.4949 42.0676 70.7012 41.954 74.8888C41.8795 74.41 41.7029 73.9472 41.439 73.5407C41.5835 74.9285 41.6125 76.3282 41.526 77.721C41.1954 76.2337 40.6259 74.7997 39.8465 73.4907C39.8202 74.3563 39.7938 75.2221 39.7677 76.0877C39.5954 75.0061 39.4233 73.9246 39.2509 72.843C38.4787 74.9005 39.5188 77.2879 38.8213 79.372C38.6136 78.2721 38.4058 77.1722 38.1978 76.0723C38.1795 77.2406 38.0778 78.5807 37.1415 79.2794C37.0378 79.3569 36.908 79.4266 36.784 79.3893C36.6699 79.355 36.6007 79.2422 36.5446 79.1371C36.1759 78.4463 35.9123 77.6999 35.7655 76.9309C35.7626 77.3198 35.7596 77.7085 35.7567 78.0973C35.7557 78.2333 35.7517 78.3788 35.6729 78.4894C35.4178 78.8472 34.877 78.4413 34.6712 78.0529C34.1567 77.0839 33.779 76.0422 33.5529 74.9689C33.4909 76.0382 33.4289 77.1073 33.367 78.1766C33.2212 77.7733 33.0754 77.3701 32.9294 76.9671C33.0092 77.2052 33.089 77.4659 33.0025 77.7015C32.9161 77.9372 32.5801 78.0859 32.4059 77.905C32.3338 77.8303 32.3093 77.7231 32.2886 77.6215C32.0973 76.6865 31.975 75.7374 31.9226 74.7846C31.9726 75.4357 31.8542 76.0994 31.5821 76.6931C31.2536 75.7868 31.3238 74.7931 31.3339 73.8291C31.36 71.3577 30.958 68.8823 30.1515 66.5462C30.2492 67.5092 30.1018 68.4958 29.7273 69.3882C29.532 67.9885 29.5536 66.5587 29.7908 65.1654C29.6717 65.9358 29.5091 66.7824 28.8939 67.2607C28.5731 65.5642 28.5249 63.8163 28.7521 62.1043C28.5494 62.8326 28.3201 63.6043 27.7498 64.1001C27.2386 61.1392 26.9664 58.1371 26.9369 55.1326C26.9273 54.1492 26.9436 53.1656 26.9699 52.1822C27.0545 49.0332 27.3612 45.7944 27.0005 42.6556C26.9773 42.4534 26.9489 42.2388 26.8188 42.0821C26.6291 41.8539 26.2793 41.8265 25.9969 41.9169C26.1775 41.9081 26.3865 41.9528 26.4711 42.1124C26.5172 42.1997 26.5158 42.3031 26.5134 42.4018C26.477 43.8204 26.4227 45.2483 26.3142 46.6656C26.1596 48.6885 25.9556 50.7069 25.7729 52.7275C25.4204 56.6254 25.1385 60.5495 25.4281 64.4624Z" fill="#21394F"/>
<path opacity="0.59" d="M37.9148 77.4056C37.2006 82.8086 38.5202 88.338 39.7148 93.5849C40.0396 95.0117 40.3907 96.4396 40.9504 97.7917C41.2834 98.5964 41.7412 99.4234 42.5265 99.7998C44.0488 100.53 44.7401 99.0611 44.8478 97.8295C45.1944 98.3713 45.2958 99.0339 45.5855 99.6082C45.8751 100.183 46.4971 100.697 47.1123 100.51C48.0428 100.227 48.3748 98.4618 48.0109 97.6904C48.0766 98.3721 47.9976 99.2744 47.3326 99.4391C46.8117 99.5678 46.3404 99.1089 46.0382 98.6655C44.4308 96.3074 44.1863 93.3128 43.9131 90.4719C43.5168 86.3515 42.9561 82.2471 42.2323 78.1717C42.137 82.9752 42.8643 87.7525 43.5894 92.5017C42.7696 89.4012 41.9479 86.2903 41.5369 83.1098C41.2217 80.6705 41.1217 78.1063 39.9039 75.9695C39.2078 76.8662 38.7764 77.9661 38.6769 79.0969C38.3425 78.5742 38.085 78.0025 37.9148 77.4056Z" fill="#21394F"/>
<path opacity="0.59" d="M25.4172 64.3637C25.4515 64.8273 25.5175 65.3391 25.8684 65.6442C26.2192 65.9493 26.9297 65.7969 26.9356 65.3319C26.9356 67.4107 26.9965 69.4892 27.1178 71.5646C27.383 76.1058 27.866 80.6397 28.6909 85.115C29.4937 89.4702 30.7982 93.6823 31.971 97.9325C32.2285 98.8656 32.5833 99.7892 33.2071 100.543C33.385 100.758 33.5896 100.961 33.8466 101.071C34.1033 101.18 34.4219 101.178 34.6419 101.006C34.8137 100.872 34.901 100.659 34.9763 100.454C35.3699 99.3793 35.6269 98.2549 35.7386 97.1159C35.6325 98.1974 37.0971 100.242 37.9925 100.738C38.9479 101.267 39.7656 100.212 39.0112 99.4157C38.1473 98.5033 37.5541 97.338 37.3248 96.1024C37.5496 97.0204 37.5325 97.9966 37.2756 98.9063C36.0099 97.3734 35.4716 95.3704 35.1667 93.406C34.8616 91.4415 34.7528 89.4356 34.1913 87.5287C34.1389 87.351 33.9851 87.1302 33.8229 87.2198C33.8045 87.3911 33.7862 87.5624 33.7678 87.7337C33.3686 85.5379 32.9693 83.3418 32.57 81.146C32.0489 78.2793 31.5257 75.4096 30.8165 72.5823C30.1388 69.88 29.3971 66.8258 27.9751 64.4083C27.6147 64.847 27.0319 65.1255 26.5866 65.4894C26.2445 62.3716 25.9022 59.254 25.5601 56.1362C25.2611 58.8667 25.2143 61.6201 25.4172 64.3637Z" fill="#21394F"/>
<path d="M40.0885 26.7462C40.017 25.9343 40.0965 25.2042 39.9369 24.3814C39.7669 23.5055 39.5297 22.6426 39.2166 21.8068C38.5827 20.115 37.6379 18.5592 36.4805 17.1752C35.5506 16.0633 34.4852 15.0514 33.7338 13.8121C32.1452 11.1915 32.1441 7.87976 30.7615 5.145C29.5525 2.75365 27.2718 0.930207 24.673 0.276907C22.9067 -0.167049 20.9543 -0.0728846 19.2364 0.528545C18.3408 0.84216 17.4579 1.3215 16.7443 1.95059C16.3745 2.27644 16.1008 2.61825 15.8707 3.04891C15.7382 3.29656 15.3932 4.5441 15.9976 3.86606C16.4987 3.30374 17.0001 2.74114 17.5016 2.17882C17.4087 2.48977 17.4529 2.98267 17.7755 2.94756C17.8599 2.93825 17.9327 2.88745 18.0016 2.83797C18.3783 2.56771 18.7547 2.29745 19.1314 2.0272C19.017 2.26048 18.9207 2.50254 18.843 2.75045C18.8071 2.8651 18.7874 3.01646 18.8882 3.08163C18.9505 3.12206 19.0324 3.10823 19.104 3.08854C19.8966 2.87069 20.4467 2.15328 21.1817 1.78487C22.2547 1.24701 23.6353 1.5601 24.511 2.38098C25.3866 3.20186 25.7899 4.44302 25.7718 5.64322C25.289 5.34397 24.5924 5.59853 24.3157 6.09489C24.0391 6.59125 24.133 7.23444 24.4389 7.71324C24.2154 7.34882 23.5728 7.54939 23.4552 7.96036C23.3376 8.37133 23.5887 8.80252 23.9042 9.09086C23.8529 9.04405 22.5904 9.05416 22.3236 8.97781C21.6209 8.77725 20.9747 8.49742 20.3252 8.16199C19.9623 7.97446 19.3862 7.86486 19.2593 8.25323C19.1611 8.55407 19.475 8.90679 19.3101 9.17678C18.0314 8.66633 17.3619 7.13549 16.0598 6.68807C16.0026 6.66839 15.9383 6.65137 15.8829 6.67637C15.8167 6.70616 15.7893 6.7841 15.7707 6.85433C15.356 8.4224 16.2325 9.9442 16.6376 11.4208C16.8584 12.2254 17.0395 13.0572 16.9677 13.8885C16.8427 15.3337 16.0255 16.5674 15.875 18.0298C16.0585 17.4909 16.3439 16.9869 16.7118 16.5525C16.4274 17.5614 16.3431 18.626 16.4647 19.6671C16.6065 19.4644 16.748 19.2617 16.8898 19.0587C16.8791 19.4655 17.0337 19.8738 17.3111 20.1714C17.6489 19.2793 17.9865 18.3871 18.3243 17.4946C18.0809 18.5975 18.0485 19.7466 18.2296 20.8617C18.8975 19.8865 19.4003 18.7983 19.7099 17.6574C19.5325 18.4219 19.5838 19.2383 19.8559 19.9743C20.2869 18.9946 20.5896 17.9586 20.7542 16.9012C20.6875 18.0309 20.7811 19.1699 21.0314 20.2736C21.0764 20.4709 21.1921 20.7159 21.3926 20.6891C21.5371 20.6696 21.6169 20.5151 21.669 20.3792C22.005 19.5054 22.2098 18.5813 22.2744 17.6476C22.151 18.3083 22.2534 19.0093 22.5609 19.607C22.908 19.1699 23.1155 18.6233 23.1456 18.0658C23.0067 18.7063 23.0206 19.3793 23.1855 20.0134C23.2427 20.2334 23.3235 20.4576 23.4879 20.6148C23.6523 20.7718 23.921 20.8399 24.112 20.7167C24.3024 20.5936 24.3506 20.3401 24.3729 20.1142C24.4551 19.2936 24.4288 18.4621 24.2952 17.6481C24.3851 18.0934 24.6003 18.5126 24.9097 18.8451C25.3888 17.5726 25.5875 16.1955 25.4869 14.8394C25.6508 15.8755 25.8144 16.9116 25.9782 17.9474C26.0761 18.5661 26.2522 19.2886 26.8337 19.5218C27.175 18.4222 27.2561 17.2427 27.0686 16.1067C27.0805 16.4966 27.2244 16.8815 27.4716 17.1837C27.7208 16.6972 27.8384 16.1439 27.8083 15.5978C27.9065 15.7404 28.0049 15.8829 28.1031 16.0258C28.4066 15.7606 28.5848 15.3576 28.5763 14.9546C28.502 15.901 28.6186 16.8618 28.9167 17.7633C28.9803 17.9559 29.1035 18.1817 29.3062 18.1714C29.5262 18.1599 29.6161 17.887 29.6443 17.6686C29.7637 16.7504 29.8004 15.8215 29.7539 14.8969C29.8012 15.4286 29.9321 15.9529 30.1404 16.4445C30.2579 16.7219 30.5827 17.0313 30.8051 16.8275C30.8985 16.7419 30.9126 16.6022 30.9203 16.4759C30.94 16.1617 30.9596 15.8473 30.9793 15.5332C31.0126 16.4293 31.5456 17.2906 32.333 17.7205C32.346 16.7746 32.2348 15.8274 32.0032 14.9102C32.5873 16.1891 33.293 17.5114 34.5105 18.2152C34.3251 17.1488 33.9963 16.1075 33.5356 15.1278C34.1213 15.8276 34.7214 16.5533 34.9848 17.4271C35.2572 18.331 35.1417 19.3 35.2109 20.2416C35.28 21.1833 35.616 22.2114 36.4518 22.6503C36.5337 22.1534 36.6156 21.6565 36.6976 21.1596C36.6773 22.4582 37.041 23.7603 37.731 24.8605C38.1265 24.3945 38.3707 23.8018 38.418 23.1924C38.6497 24.4955 39.2325 25.7351 40.0885 26.7462Z" fill="#21394F"/>
<path d="M12.2861 45.6892C14.3659 45.7738 16.3602 45.9629 18.4413 45.7844C20.5345 45.6051 22.6104 45.2708 24.6918 44.993C32.9576 43.8899 41.7739 43.0153 49.8338 45.6075C49.9809 45.6549 50.1383 45.711 50.2245 45.8395C50.2892 45.9358 50.3019 46.0568 50.3123 46.1722C50.399 47.1346 50.4493 48.1002 50.4636 49.0663C47.2538 47.7786 43.5721 47.7164 40.1447 47.6094C36.5778 47.498 33.0031 47.6461 29.4578 48.0539C25.8239 48.4718 22.2239 49.1584 18.5783 49.4797C15.207 49.7768 11.7067 49.0325 8.40538 49.676C6.87986 49.9734 5.37668 50.6158 4.31534 51.7513C3.90011 51.2603 3.92299 50.5054 4.22171 49.9356C4.52043 49.3661 5.04339 48.9496 5.58044 48.5952C6.43644 48.0305 7.36664 47.5791 8.33994 47.2559C5.65918 47.2408 2.97629 47.7595 0.494231 48.7721C0.183541 48.2896 0.0103741 47.7196 0 47.1458C2.22856 46.0113 4.78536 45.7142 7.28444 45.6272C8.95147 45.5695 10.6182 45.6213 12.2861 45.6892Z" fill="#8A553A"/>
<path opacity="0.34" d="M12.0685 46.8611C13.4184 47.1098 14.7546 47.4455 16.055 47.8341C16.4636 46.6757 17.5923 45.8069 18.8169 45.708C18.6807 46.6299 18.9975 47.6083 19.6484 48.2754C19.1375 47.7253 19.0611 46.8204 19.4726 46.1924C19.8841 45.5643 20.7444 45.2731 21.4527 45.522C20.9925 45.9987 21.3176 46.8648 21.9017 47.1774C22.4859 47.4897 23.1924 47.4157 23.8497 47.3332C25.539 47.1212 27.2284 46.9092 28.9178 46.6972C29.1067 46.6736 29.3051 46.6462 29.4575 46.5318C29.6969 46.3522 29.748 46.0229 29.8453 45.7399C30.2239 44.6373 31.6653 44.0519 32.7057 44.5783C33.1366 44.1101 33.8644 43.9433 34.4562 44.1774C35.0481 44.4112 35.4652 45.0307 35.4596 45.667C35.513 45.2778 35.4782 44.877 35.3582 44.503C35.7804 44.9023 36.0988 45.4101 36.2743 45.9639C36.3281 46.1336 39.7728 46.061 40.1409 46.0775C41.4795 46.1376 42.8172 46.2272 44.1485 46.3815C45.4716 46.5347 46.7888 46.7494 48.0848 47.0595C48.6567 47.1963 49.5084 47.2846 50.009 47.5974C50.5916 47.9613 50.453 48.3331 50.4639 49.067C47.2541 47.7793 43.5723 47.7171 40.1449 47.6102C36.5781 47.4987 33.0033 47.6469 29.458 48.0546C25.8242 48.4725 22.2241 49.1591 18.5786 49.4804C15.2073 49.7775 11.707 49.0333 8.40563 49.6767C7.53181 49.847 6.67051 50.126 5.88766 50.5537C5.54399 50.7413 3.65538 52.3833 4.07672 51.0628C4.15306 50.8232 4.33581 50.6346 4.51802 50.4612C5.93873 49.1088 7.69993 48.1172 9.59306 47.6032C9.66568 47.5836 9.75772 47.5327 9.73511 47.4609C9.72367 47.4245 9.68562 47.4043 9.65078 47.3886C8.42212 46.8297 6.73673 47.2694 5.43838 47.4482C3.88706 47.662 1.90163 48.1076 0.500072 48.7782C0.300038 48.588 -0.00480311 48.2818 0.178472 47.9855C0.289394 47.8065 0.493947 47.7115 0.688394 47.6309C4.26106 46.1477 8.22103 46.1519 12.0685 46.8611Z" fill="#8A553A"/>
<path d="M23.0535 45.2609C23.443 45.1587 23.8481 45.1159 24.2503 45.1345C23.988 44.6496 23.3198 44.323 22.8003 44.2221C22.2731 44.1197 21.7286 44.1716 21.1982 44.2559C21.0559 44.2785 20.8827 44.2921 20.7954 44.1775C20.7401 44.1048 20.7417 44.0051 20.7513 43.9141C20.8388 43.089 21.6328 42.4421 22.135 41.8462C22.5968 41.2985 22.9961 40.6394 23.2525 39.9478C23.3898 39.578 23.4903 39.1952 23.5587 38.8072C23.6204 38.4568 23.4959 37.9857 23.6204 37.6673C23.5893 37.7471 23.5581 37.8267 23.527 37.9065C23.5177 37.9304 23.506 37.9567 23.4821 37.9655C23.4368 37.9825 23.4004 37.927 23.3839 37.8815C23.3525 37.7947 23.3211 37.7078 23.2895 37.6211C23.3022 37.857 23.294 38.0943 23.2655 38.3289C23.0557 38.1985 22.9304 38.0057 22.8415 37.7809C22.8298 37.7511 22.7221 37.1611 22.658 37.2197C22.3079 37.5399 22.3194 38.081 22.2869 38.5542C22.1805 40.1138 21.3301 41.0729 20.3573 42.1846C19.7743 42.8509 19.1909 43.5175 18.6078 44.1838C18.3203 44.5123 18.032 44.8419 17.7064 45.1332C17.305 45.4923 16.8506 45.7897 16.4575 46.1578C16.0643 46.526 15.7255 46.9872 15.6467 47.52C15.5627 48.0879 15.8537 48.7612 16.4431 48.9112C16.3405 49.2355 16.4578 49.5754 16.7014 49.8058C16.9435 50.0345 17.2667 50.1529 17.58 50.2652C17.2151 50.1348 16.6485 49.3155 16.9775 48.961C17.0634 48.8684 17.1802 48.7782 17.1768 48.6521C17.1746 48.575 17.126 48.5085 17.0839 48.4439C16.9789 48.2824 16.9036 48.0965 16.8999 47.9036C16.8953 47.6613 17.0031 47.4309 17.1307 47.225C17.4529 46.7055 18.1354 45.9658 18.7613 45.8631C18.5243 46.9234 18.1157 48.226 18.9478 49.1466C19.1095 49.3256 19.3085 49.469 19.4638 49.6536C19.6681 49.8962 19.7876 50.1984 19.969 50.4585C20.1501 50.719 20.4313 50.9496 20.7476 50.9275C20.3693 50.6107 20.1831 50.0803 20.2805 49.5967C20.3097 49.4512 20.3629 49.3057 20.3448 49.1583C20.3249 48.9963 20.2227 48.8585 20.1334 48.7218C19.7142 48.0805 19.5242 47.2921 19.6056 46.5302C19.6354 46.252 19.7048 45.9674 19.8791 45.7485C20.2414 45.2931 20.7699 45.354 21.2838 45.3178C21.7959 45.2816 22.3779 45.4715 22.8495 45.3205C22.9171 45.2986 22.9852 45.2787 23.0535 45.2609Z" fill="#B59A72"/>
<path d="M35.1539 47.8912C35.3457 47.5036 35.5394 47.1107 35.6279 46.6875C35.7152 46.2707 35.6968 45.8379 35.6309 45.4171C35.554 44.9271 35.4082 44.4379 35.1225 44.0326C34.7983 43.5724 34.3184 43.251 33.8832 42.8938C33.7601 42.7927 33.6372 42.685 33.559 42.5459C33.46 42.37 33.4419 42.1618 33.426 41.9607C33.3613 41.1478 33.297 40.3351 33.2323 39.5222C33.161 38.6258 33.0852 37.7102 32.7261 36.8856C32.6389 36.6851 32.5128 36.4725 32.3016 36.4151C32.0292 36.3409 31.752 36.5797 31.676 36.8516C31.5999 37.1234 31.6669 37.4123 31.7278 37.6882C32.038 39.0937 32.1819 40.536 32.1556 41.975C32.1518 42.1761 32.1425 42.386 32.0452 42.5621C31.9561 42.723 31.8034 42.8377 31.6526 42.9427C31.1091 43.3221 30.5205 43.6567 30.0869 44.1581C29.6028 44.718 29.465 45.4195 29.6192 46.1353C29.4142 46.4877 29.3538 46.9216 29.4551 47.3166C29.5565 47.7116 29.8182 48.0627 30.1675 48.2729C29.8953 47.9289 29.7783 47.4669 29.8536 47.0349C29.8821 46.8716 29.9517 46.6955 30.1036 46.6293C30.1858 46.5933 30.2808 46.5955 30.3622 46.5577C30.6787 46.4106 30.551 45.8706 30.6005 45.5956C30.6316 45.4216 30.7205 45.2636 30.816 45.1146C31.2411 44.4523 31.8316 43.8974 32.5187 43.5141C32.3971 43.5819 32.3346 44.1602 32.3101 44.2946C32.2535 44.6045 32.2282 44.9181 32.2269 45.233C32.2247 45.8044 32.2633 46.3332 32.4479 46.8841C32.5059 47.0567 32.5907 47.244 32.7605 47.3102C32.7267 47.6813 32.7429 48.0638 32.8762 48.4117C33.0092 48.7597 33.2709 49.0701 33.6196 49.201C33.3028 48.8062 33.1547 48.2803 33.2193 47.7781C33.2281 47.709 33.2414 47.6387 33.2749 47.5776C33.3124 47.5089 33.3725 47.4563 33.422 47.3959C33.709 47.0461 33.5949 46.5253 33.4297 46.1042C33.119 45.3123 33.1541 44.6741 33.4587 43.8775C34.3224 44.3853 34.8515 45.4126 34.7632 46.4109C34.7379 46.6976 34.7073 47.0668 34.9669 47.1911C34.8222 47.6395 34.7116 48.0986 34.6355 48.5636C34.8853 48.4213 35.0265 48.1489 35.1539 47.8912Z" fill="#B59A72"/>
<path d="M24.0867 5.24177C24.1697 4.8715 24.15 4.47223 24.0308 4.09184C23.6513 2.87914 22.2103 2.60277 21.1947 3.19622C20.1664 3.79685 19.9858 5.4011 20.8566 6.21879C21.5025 6.82528 22.5771 6.87715 23.3137 6.38451C23.7292 6.10601 23.9851 5.69557 24.0867 5.24177Z" fill="#D1D1CF" stroke="#212D35" stroke-width="0.4394" stroke-miterlimit="10"/>
<path d="M22.608 3.38241C22.1403 3.2675 21.6254 3.41087 21.2413 3.74258C20.8329 4.09476 20.6694 4.70444 20.8462 5.21383C20.992 5.63358 21.3596 5.9472 21.7698 6.09669C22.259 6.27491 22.6641 6.21054 23.1025 5.92991C23.8686 5.43993 23.8276 4.29001 23.1956 3.70188C23.02 3.53882 22.8187 3.43428 22.608 3.38241Z" fill="#212D35"/>
<path d="M22.4979 3.24283C22.4005 3.27316 22.3103 3.32742 22.2422 3.4035C22.1095 3.55193 22.0768 3.78308 22.167 3.96051C22.2273 4.07941 22.3348 4.16932 22.4537 4.2297C22.5734 4.29035 22.7101 4.32413 22.8426 4.30285C23.044 4.27066 23.215 4.10468 23.261 3.90598C23.3068 3.70727 23.2288 3.48702 23.0732 3.35535C22.9179 3.22342 22.6926 3.18219 22.4979 3.24283Z" fill="white"/>
<path d="M15.8005 4.9828C15.6028 4.79102 15.3323 4.31408 15.5047 4.03052C15.3549 4.2771 15.1424 4.33615 14.8734 4.36674C13.9597 4.47075 13.0367 4.41755 12.1174 4.39467C11.7594 4.3859 11.4008 4.38164 11.0441 4.41329C9.95082 4.51038 8.9472 4.89848 7.99066 5.41665C7.7204 5.56295 7.46796 5.77043 7.23867 5.97313C7.4419 5.90556 7.65922 5.89279 7.87361 5.89279C8.81233 5.892 9.7593 6.09868 10.6592 6.34766C12.901 6.96717 15.1275 7.74629 16.3027 9.91473C16.5905 9.59793 16.7929 9.21356 16.7371 8.77758C16.6945 8.44561 16.5884 7.9942 16.4163 7.7032C17.305 7.93781 18.3355 7.77449 19.2207 7.57711C19.761 7.45662 20.3126 7.276 20.7077 6.88817C20.6842 6.91105 20.1365 6.75544 20.0836 6.7448C19.3162 6.58839 18.5459 6.43118 17.8085 6.16757C17.0709 5.90397 16.3625 5.5281 15.8005 4.9828Z" fill="#D1D1CF"/>
<path opacity="0.26" d="M15.5206 6.10111C13.3955 5.56777 11.1827 5.3853 8.99881 5.56378C8.36306 5.61565 7.74408 5.63374 7.1908 5.99284C7.29294 5.92661 7.50814 5.92395 7.62757 5.90852C8.09094 5.84867 8.55139 5.91464 9.00918 5.98406C9.28423 6.02583 9.54677 6.09685 9.81756 6.15005C10.1003 6.20564 10.3812 6.27081 10.6589 6.34769C12.9008 6.96721 15.1272 7.74632 16.3024 9.91477C16.5902 9.59796 16.7926 9.21359 16.7368 8.77761C16.6942 8.44564 16.5881 7.99424 16.416 7.70323C17.3047 7.93785 18.3352 7.77452 19.2204 7.57715C19.508 7.51304 19.7865 7.43484 20.0597 7.32737C20.2951 7.2348 20.5042 7.05658 20.6949 6.89352C20.5039 7.00445 20.2711 7.00737 20.0501 7.00711C19.9158 7.00684 19.7817 7.00684 19.6474 7.00657C19.1784 7.00604 18.66 6.89352 18.1987 6.79803C17.3124 6.61502 16.45 6.33705 15.5736 6.11441C15.556 6.11015 15.5385 6.10563 15.5206 6.10111Z" fill="#212D35"/>
</svg>
