<svg width="136" height="82" viewBox="0 0 136 82" fill="none" xmlns="http://www.w3.org/2000/svg">
<path d="M93.7523 41.7531C94.8331 40.9076 95.8134 39.9421 96.7184 38.9128C97.3581 38.1849 98.1359 36.5378 98.9652 36.0891C99.9755 35.5432 102.363 36.042 103.517 36.0424C105.076 36.0429 106.633 36.0253 108.191 35.9891C114.518 35.8414 120.838 35.3884 127.121 34.6316C127.658 34.5668 128.238 34.4786 128.614 34.09C128.989 33.7013 128.956 32.9087 128.44 32.7467C130.48 32.6629 132.472 31.7303 133.842 30.217C132.402 30.1412 130.962 30.0655 129.522 29.9898C132.179 29.7511 134.618 27.872 135.528 25.3646C135.428 25.6376 129.248 25.4428 128.584 25.4699C120.24 25.8095 111.994 26.9656 103.637 27.33C95.2008 27.6977 86.7546 27.6439 78.3137 27.8158C76.0301 27.8625 74.0967 27.802 72.0733 26.786C69.9279 25.709 67.7635 24.6954 65.6448 23.556C59.4045 20.1989 53.3928 16.4169 47.664 12.2462C45.45 10.6343 43.3123 8.95141 41.1393 7.30666C38.9763 5.66905 36.6513 4.24484 34.2102 3.06069C30.9845 1.49548 27.4783 -0.0235168 23.8368 0.000775803C21.3556 0.0174472 18.8372 0.777187 16.6523 1.92561C14.1083 3.26265 12.4288 5.1046 10.9302 7.52529C10.8483 7.65771 10.765 7.79442 10.7402 7.9478C10.7202 8.0745 10.7416 8.20358 10.7635 8.3298C11.1041 10.3199 11.6609 12.0594 12.5126 13.9C12.9332 14.8088 13.3914 15.7 13.8158 16.6069C14.1507 17.3219 14.8976 18.4803 14.8976 19.2805C15.6078 21.5059 15.9336 23.8318 16.367 26.1272C18.028 34.9269 21.6781 42.6977 28.2318 49.0056C30.8192 51.4959 33.8406 53.6974 37.3387 54.511C37.081 53.8742 36.6928 53.2902 36.206 52.8058C38.5724 55.1593 42.9631 55.7623 46.1126 56.3911C49.9566 57.1584 53.882 57.5209 57.8016 57.4633C57.5011 57.8782 57.201 58.293 56.9004 58.7079C58.9296 59.3343 61.1645 58.9275 63.0912 58.0353C65.018 57.1432 66.6932 55.7971 68.3465 54.4653C68.3327 54.8444 68.3194 55.2236 68.3056 55.6027C75.0604 53.5298 82.2876 55.5308 89.2601 56.6759C91.1278 56.9827 93.104 57.2161 94.8636 56.5192C95.1856 56.3915 95.5171 56.2129 95.6676 55.9014C95.993 55.2269 95.299 54.5248 94.6778 54.1061C92.1824 52.4242 89.5573 50.9348 86.8332 49.6553C88.2703 49.8459 89.7259 49.8968 91.1725 49.8078C91.4631 49.7897 91.7856 49.7506 91.9742 49.5291C92.3957 49.0337 91.7537 48.3483 91.1902 48.0235C89.3639 46.9712 87.5377 45.919 85.711 44.8664C88.6366 44.8135 91.4493 43.556 93.7523 41.7531Z" fill="#D1D1CF"/>
<path opacity="0.26" d="M83.7328 46.231C83.3579 45.5732 82.9569 44.924 82.6015 44.3176C80.9239 41.4525 78.5251 39.0104 75.7577 37.1865C70.4976 33.7198 64.143 32.3066 57.8755 31.6674C51.608 31.0281 45.2767 31.0939 39.0325 30.2603C34.2554 29.6225 29.5489 28.4579 25.0252 26.795C21.4456 25.4789 17.9437 23.6522 16.0631 20.1846C16.8543 21.644 16.5028 24.9488 16.7862 26.655C17.1734 28.9823 17.7141 31.2896 18.4986 33.5169C19.8518 37.359 20.7592 41.0495 24.1783 43.6736C24.195 43.1911 24.2121 42.7086 24.2288 42.2261C25.7097 43.6189 27.372 44.8187 29.1607 45.7847C29.7875 46.1234 30.6997 46.3739 31.1031 45.7866C31.3403 45.4413 31.2536 44.9768 31.1574 44.5691C30.7268 42.7448 30.2957 40.92 29.8651 39.0957C30.4043 39.9697 31.1364 40.7242 31.9943 41.2896C32.212 41.4335 32.4678 41.5702 32.7221 41.5116C33.6676 41.2949 32.6669 39.4734 33.4762 38.9389C34.2321 39.9116 35.1195 40.7823 36.1064 41.5192C36.5518 41.8517 37.0681 42.1708 37.6211 42.116C38.1742 42.0613 38.6776 41.4349 38.4076 40.949C41.015 43.1906 44.3235 44.6034 47.7454 44.9373C47.6192 43.8008 47.4111 42.6733 47.1234 41.5668C47.8279 42.3485 48.6305 43.1821 49.6765 43.2926C50.723 43.4031 51.8671 42.2685 51.3441 41.3558C51.677 41.4373 52.0095 41.5182 52.3425 41.5992C52.3229 40.9609 52.4082 40.3193 52.594 39.7077C53.2927 40.266 53.9915 40.8242 54.6903 41.3825C54.9504 41.5902 55.2428 41.8093 55.5748 41.7936C55.9073 41.7783 56.215 41.3777 56.0173 41.11C57.9779 43.1859 60.5558 44.6711 63.3346 45.3265C64.1758 45.5251 65.179 45.6061 65.7896 44.9945C66.5937 44.1895 66.1569 42.8348 65.6729 41.8055C66.3169 42.319 66.9609 42.8324 67.6054 43.3459C67.8035 43.5036 68.016 43.6679 68.2675 43.6955C69.1353 43.7913 69.2763 42.4761 69.0501 41.6326C70.1828 42.641 71.5074 43.4326 72.9316 43.9532C73.4909 44.1576 74.1068 44.321 74.6755 44.1433C75.2442 43.9656 75.6991 43.3183 75.4686 42.7691C79.0872 45.6551 82.2795 49.0747 84.9098 52.8834C84.4278 52.1856 85.1265 49.2314 84.665 48.0925C84.4187 47.4833 84.0877 46.8531 83.7328 46.231Z" fill="#212D35"/>
<path opacity="0.26" d="M89.2787 56.6749C90.6538 56.9007 92.0156 56.9221 93.3741 57.1179C89.9908 56.6316 86.8304 55.2002 83.5999 54.0828C78.2803 52.2423 72.7145 51.2396 67.1743 50.2436C67.5968 50.7899 68.0931 51.2796 68.6452 51.695C66.7004 52.0408 65.0666 51.1167 63.2227 50.7633C62.0481 50.5384 59.8975 51.4573 60.9664 52.9529C61.0359 53.0501 61.1226 53.1487 61.1202 53.2683C61.115 53.5479 60.7029 53.5693 60.4352 53.4864C59.5398 53.2097 58.6724 52.842 57.8507 52.3913C57.5768 52.2413 57.2953 52.0779 56.9838 52.0593C56.6723 52.0408 56.3227 52.2213 56.2688 52.529C56.1926 52.9663 56.7009 53.4816 56.3836 53.7917C56.1764 53.9946 55.8316 53.8518 55.5839 53.7008C54.2454 52.8858 52.9074 52.0708 51.5689 51.2558C50.8187 50.799 49.9913 50.3241 49.1197 50.4346C48.248 50.5451 47.4773 51.5721 47.9541 52.3099C46.5637 52.821 45.2276 51.5378 43.8434 51.0105C43.7153 50.9614 43.5771 50.9185 43.4423 50.9447C42.9327 51.0438 43.0713 51.8121 43.3361 52.2584C42.9179 52.6066 42.2934 52.318 41.8352 52.0241C40.2429 51.0019 38.651 49.9797 37.0586 48.9575C37.0524 49.5915 37.0691 50.226 37.1082 50.859C32.9755 48.4488 30.2305 44.2028 27.6159 40.326C24.5884 35.8362 21.5823 31.161 20.4277 25.8705C18.6915 30.4442 19.1826 35.8062 21.7214 39.9883C22.302 40.4256 22.4021 41.2401 22.7169 41.895C23.0318 42.55 23.9644 43.0773 24.4393 42.5266C24.6556 43.7656 25.2538 44.9349 26.1322 45.8352C26.368 45.7118 26.548 45.486 26.6161 45.2288C27.091 46.7783 28.0961 48.1597 29.4241 49.0885C29.5474 48.7694 29.5212 48.3954 29.3545 48.0968C29.9061 49.0023 30.6058 49.8173 31.4175 50.4994C31.7404 50.7709 32.4597 50.8052 32.3587 50.3955C32.9746 51.3206 33.7905 52.1117 34.7337 52.6986C34.8127 52.3532 34.8918 52.0084 34.9709 51.663C37.734 54.983 42.1496 55.5956 46.1302 56.3901C49.9747 57.1575 53.8996 57.5199 57.8193 57.4623C57.5187 57.8772 57.2186 58.2921 56.9181 58.7069C58.9472 59.3333 61.1821 58.9265 63.1089 58.0344C65.0356 57.1422 66.7104 55.7961 68.3642 54.4643C68.3504 54.8435 68.337 55.2226 68.3232 55.6018C75.0794 53.5288 82.3062 55.5298 89.2787 56.6749Z" fill="#212D35"/>
<path d="M93.7523 41.7531C95.4476 40.4832 96.7727 38.8466 98.3384 37.439C99.8202 36.1072 102.626 36.5435 104.518 36.6207C110.593 36.8684 116.686 36.6769 122.734 36.0486C124.668 35.8476 126.613 35.5985 128.45 34.965C128.848 34.8278 129.262 34.6568 129.511 34.3172C129.759 33.9776 129.757 33.4222 129.401 33.1973C131.282 32.9258 133.02 31.7922 134.026 30.1808C132.514 30.1531 131.058 29.8511 129.523 29.9893C132.179 29.7506 134.619 27.8715 135.528 25.3642C135.429 25.6371 129.248 25.4423 128.585 25.4694C120.24 25.809 111.995 26.9651 103.638 27.3295C95.2013 27.6972 86.7551 27.6434 78.3141 27.8153C76.0306 27.862 74.0972 27.8015 72.0738 26.7855C69.9284 25.7085 67.764 24.6949 65.6453 23.5555C59.405 20.1984 53.3932 16.4164 47.6645 12.2457C45.4505 10.6338 43.3128 8.95093 41.1398 7.30618C38.9768 5.66857 36.6518 4.24435 34.2107 3.06021C30.985 1.495 27.4787 -0.0240051 23.8372 0.000287521C21.3561 0.0169589 18.8377 0.776699 16.6528 1.92512C14.1088 3.26217 12.4292 5.10412 10.9307 7.52481C10.8488 7.65723 10.7654 7.79393 10.7407 7.94731C10.7207 8.07401 10.7421 8.2031 10.764 8.32932C11.1046 10.3194 11.6614 12.059 12.5131 13.8995C12.9337 14.8083 13.3919 15.6995 13.8163 16.6064C14.1512 17.3214 14.898 18.4798 14.898 19.2801C15.6082 21.5054 15.934 23.8313 16.3675 26.1268C16.7195 27.992 17.1663 29.8402 17.7236 31.655C18.1914 33.1787 18.4619 34.8907 19.4274 36.1934C19.5155 35.8705 19.6041 35.547 19.6923 35.2241C20.0443 36.6321 20.7978 37.9372 21.841 38.9461C22.0267 38.5288 22.212 38.1111 22.3978 37.6938C22.4678 39.1247 23.2514 40.5027 24.445 41.2949C24.5684 40.7757 24.6922 40.257 24.8156 39.7378C25.2586 41.4378 26.2089 43.002 27.514 44.1786C27.8269 44.4605 28.3614 44.7044 28.6157 44.3686C28.7167 44.2352 28.7243 44.0552 28.7239 43.888C28.7229 42.4371 28.4686 40.9872 27.977 39.6225C28.1999 39.6554 28.4233 39.6887 28.6462 39.7216C28.499 38.3555 28.0451 37.0232 27.3273 35.8514C27.3844 36.7164 28.8663 36.6721 29.2335 35.8867C29.6008 35.1017 29.2269 34.1867 28.8563 33.4031C29.6255 34.0018 30.4477 34.6235 31.4156 34.7373C32.384 34.8511 33.5086 34.2286 33.5624 33.2554C34.2164 34.693 35.2324 35.9648 36.4904 36.9193C36.7009 37.0789 36.93 37.2347 37.192 37.2656C37.6755 37.3228 38.1175 36.9213 38.2761 36.4611C38.4347 36.001 38.3785 35.498 38.3204 35.015C39.6198 36.7512 41.5289 38.0216 43.6324 38.5498C44.1768 38.6865 44.7727 38.7708 45.2833 38.5374C45.7939 38.3045 46.1402 37.6434 45.8578 37.158C46.7728 38.1021 47.8541 38.8847 49.0368 39.4596C49.2583 39.5672 49.5302 39.6658 49.7384 39.5344C49.9708 39.3881 49.9742 39.0547 49.9389 38.7823C49.8508 38.1035 49.6893 37.4347 49.4588 36.7903C49.9713 37.4257 50.6992 37.8839 51.4937 38.0711C51.5542 37.5852 51.4694 37.0822 51.2536 36.6426C51.4279 37.0837 51.8757 37.4423 52.3468 37.3885C52.8178 37.3347 53.1865 36.7574 52.9445 36.3492C54.4921 38.406 56.5842 40.0493 58.9491 41.0653C59.3202 41.2248 59.8308 41.3339 60.0628 41.0029C60.2271 40.768 60.1409 40.447 60.0404 40.1784C59.776 39.472 59.4555 38.7865 59.083 38.1306C59.6927 38.9251 60.5548 39.5225 61.5122 39.8144C61.2117 38.9837 60.9116 38.1535 60.611 37.3228C61.5746 38.4517 62.8412 39.32 64.2416 39.8125C64.5402 39.9173 64.9079 39.9931 65.1433 39.7816C65.2952 39.6449 65.3409 39.4277 65.369 39.2252C65.46 38.5708 65.4557 37.903 65.3571 37.2494C66.1916 38.6641 67.4225 39.8421 68.8724 40.6137C69.3335 40.859 69.8627 41.0686 70.3681 40.9362C70.8734 40.8038 71.2621 40.1784 70.9787 39.7392C71.6284 40.4985 72.2786 41.2577 72.9283 42.017C73.1751 42.3052 73.4851 42.621 73.8629 42.5829C74.5745 42.5119 74.5493 41.4635 74.3097 40.7895C77.491 42.6267 80.2847 45.1322 82.4563 48.0959C79.7431 48.0554 77.0247 48.3816 74.3987 49.0633C75.3128 49.5539 76.2264 50.0445 77.1405 50.5351C75.7806 50.748 74.4206 50.961 73.0603 51.1739C75.7948 52.0012 78.5294 52.8286 81.2645 53.656C79.1572 53.5993 77.0471 53.6369 74.9432 53.7675C79.674 55.024 84.4254 55.8795 89.262 56.674C91.1297 56.9808 93.106 57.2141 94.8655 56.5173C95.1875 56.3896 95.519 56.211 95.6695 55.8995C95.9949 55.225 95.3009 54.5229 94.6797 54.1042C92.1843 52.4223 89.5592 50.9328 86.8351 49.6534C88.2722 49.844 89.7278 49.8949 91.1744 49.8059C91.465 49.7878 91.7875 49.7487 91.9761 49.5272C92.3977 49.0318 91.7556 48.3464 91.1921 48.0215C89.3658 46.9693 87.5396 45.9171 85.7129 44.8645C88.6971 44.8125 91.405 43.5117 93.7523 41.7531Z" fill="#212D35"/>
<path d="M12.0996 5.913C11.4566 6.43981 10.1905 6.68417 9.56653 6.81754C8.43192 7.05951 7.27302 7.15192 6.12555 7.30863C3.95255 7.6049 1.70858 8.09742 0 9.47258C2.27636 9.46353 4.63894 9.47258 6.7 10.4386C7.27111 10.7063 7.8065 11.0425 8.34046 11.3779C10.0171 12.431 11.7095 13.4961 13.1109 14.8941C13.3771 13.378 12.9656 11.7556 12.0086 10.55C12.5721 9.91175 13.5448 9.90318 14.396 9.91985C15.2472 9.93652 16.236 9.86221 16.7243 9.16487C15.7021 9.17011 14.6799 9.02198 13.7006 8.73094C13.2814 8.60662 11.3423 8.26414 11.3589 7.65921C11.3613 7.57252 11.4018 7.49249 11.4418 7.41532C11.7629 6.79515 12.0839 6.1745 12.405 5.55432C12.3359 5.68626 12.2306 5.80582 12.0996 5.913Z" fill="#FFCB6B"/>
<path d="M11.5114 8.85801C7.66122 8.39931 3.75487 8.0997 0.0219059 9.4396C2.18204 9.39483 4.72372 9.50963 6.70476 10.438C7.27587 10.7057 7.81126 11.042 8.34522 11.3773C10.0219 12.4305 11.7143 13.4955 13.1156 14.8935C13.3819 13.3774 12.9703 11.755 12.0134 10.5494C12.5769 9.91117 13.5496 9.90259 14.4007 9.91927C15.2915 9.93689 16.1793 9.94117 16.7857 9.18715C16.0336 9.47676 15.099 9.29242 14.3141 9.20002C13.3857 9.09141 12.4502 8.96995 11.5114 8.85801Z" fill="#FFCB6B"/>
<path d="M64.7779 29.251C62.4825 27.8544 60.0642 26.6422 57.5268 25.75C55.4753 25.0289 52.4387 23.9023 50.2519 24.3001C50.844 24.8707 51.5456 25.3589 52.1924 25.8724C52.5454 26.153 53.6714 27.3833 54.0939 27.3833C52.5373 27.5962 50.9449 27.3305 49.4536 26.837C46.5704 25.8834 43.7538 24.4816 41.0093 23.1831C38.3361 21.9184 35.4215 20.6343 32.3935 21.142C31.7423 21.2511 31.0955 21.4474 30.5458 21.8127C30.6368 22.1247 30.8045 22.4138 31.0298 22.6477C29.1073 22.3043 27.1225 22.3114 25.2024 22.6682C26.8367 23.0578 28.4133 23.7313 29.9985 24.2944C29.4474 24.0986 29.838 25.4623 29.8756 25.5452C30.1452 26.142 30.7302 26.6074 31.2989 26.8994C33.9311 28.2517 36.9943 27.1052 39.7732 27.1109C42.6054 27.1171 45.8278 28.749 47.4954 31.0548C47.1529 29.9969 46.6275 28.9986 45.9497 28.1174C48.7729 30.4118 52.2143 31.7841 55.5972 33.1226C56.4979 33.4789 57.3987 33.8352 58.2994 34.1919C59.6889 34.7416 61.0873 35.2941 62.5535 35.5809C62.23 34.0204 61.2702 33.0287 60.0956 32.0504C63.2041 32.1537 66.2779 33.1512 68.8548 34.8936C71.2302 36.4997 73.1565 38.6961 75.5095 40.3351C77.8626 41.9741 80.9396 43.0268 83.5971 41.9503C82.0662 41.524 80.8134 40.4513 79.5907 39.4358C74.9308 35.569 69.9289 32.3833 64.7779 29.251Z" fill="white"/>
<path d="M64.8598 31.0562C65.2561 31.3811 65.652 31.7064 66.0483 32.0313C63.2065 30.8576 60.0651 30.4175 57.0105 30.7652C57.7664 31.3678 58.5223 31.9703 59.2787 32.5733C53.3856 31.8746 48.5552 27.7677 43.2094 25.1903C41.8428 24.5311 40.3067 23.9576 38.8367 24.3334C37.967 24.5554 37.2125 25.0907 36.3756 25.4156C34.8804 25.9958 33.1232 25.8538 31.74 25.0412C31.4861 24.8921 31.2313 24.7054 31.1274 24.4296C31.0236 24.1543 31.146 23.7785 31.4332 23.7132C29.4836 23.1645 27.4564 22.8901 25.4306 22.9025C26.9929 22.9473 28.5505 23.7813 29.998 24.2953C29.4469 24.0995 29.8375 25.4632 29.8752 25.5461C30.1448 26.143 30.7297 26.6083 31.2984 26.9003C33.9306 28.2526 36.9938 27.1061 39.7727 27.1118C42.605 27.118 45.8273 28.7499 47.4949 31.0558C47.1524 29.9979 46.6271 28.9995 45.9492 28.1183C48.7724 30.4127 52.2139 31.785 55.5967 33.1235C56.4975 33.4798 57.3982 33.8361 58.2989 34.1929C59.6884 34.7425 61.0869 35.2951 62.553 35.5818C62.2296 34.0214 61.2698 33.0297 60.0952 32.0513C63.2037 32.1547 66.2774 33.1521 68.8543 34.8945C71.2297 36.5007 73.156 38.697 75.5091 40.336C77.7402 41.8903 80.1008 42.5305 82.784 42.3113C79.2206 41.8912 76.3336 39.3243 73.7452 36.8393C71.1569 34.3548 68.388 31.7088 64.8598 31.0562Z" fill="#D1D1CF"/>
<path d="M84.7883 35.4084C87.6625 35.1626 90.4943 34.4248 93.1226 33.2358C91.1244 34.1399 87.3777 33.7465 85.2337 33.595C82.8335 33.4254 80.5738 32.7991 78.4618 31.613C90.1623 30.5065 101.894 29.893 113.641 28.8903C117.192 28.5874 120.763 28.284 124.314 28.5883C122.958 29.198 121.603 29.8073 120.247 30.4165C122.7 30.0002 125.195 29.8339 127.681 29.9216C126.353 30.8109 124.913 31.5301 123.404 32.0565C125.024 32.3361 126.176 32.0908 127.701 31.804C128.83 31.5916 131.663 32.0431 132.538 31.3329C131.928 31.8278 131.194 32.1313 130.445 32.3442C129.827 32.5195 128.948 32.8372 128.299 32.7157C128.676 32.7857 128.905 33.2254 128.831 33.6012C128.757 33.977 128.448 34.2728 128.1 34.4319C127.752 34.591 127.364 34.6362 126.983 34.6791C124.406 34.9706 121.845 35.2336 119.261 35.4489C116.193 35.7047 113.117 35.8747 110.039 35.9595C108.5 36.0019 106.96 36.0228 105.42 36.0219C104.04 36.0214 102.518 36.0952 101.175 35.7266C102.959 35.3927 104.757 35.2069 106.576 35.1312C111.817 34.9139 117.059 34.6963 122.3 34.4791C124.175 34.4014 126.182 34.2785 127.673 33.1401C124.538 33.1506 121.403 33.2001 118.269 33.2863C115.775 33.3554 113.548 34.1533 111.042 34.0723C108.138 33.9789 105.167 33.8341 102.39 34.692C98.5985 35.8637 95.3447 38.8532 91.3783 38.9951C88.6647 39.0923 85.9439 37.6962 84.4406 35.435C84.5569 35.4274 84.6726 35.4184 84.7883 35.4084Z" fill="#D1D1CF"/>
<path d="M27.3106 8.54324C26.8319 10.3438 24.8647 11.7446 23.0099 11.7384C21.649 11.7337 20.2872 11.1606 19.3793 10.147C18.3509 8.99908 18.0375 7.26478 18.6596 5.8258C19.3345 4.26488 20.8497 3.33605 22.5378 3.22363C23.9363 3.13027 25.3906 3.62041 26.3542 4.63784C27.333 5.67099 27.6669 7.20381 27.3106 8.54324Z" fill="#D1D1CF" stroke="#212D35" stroke-miterlimit="10"/>
<path d="M19.425 7.50771C19.4169 7.35338 19.4212 7.19858 19.4379 7.04425C19.6589 5.00129 21.8948 3.72569 23.8068 4.23631C25.1919 4.60641 26.3418 5.83867 26.3565 7.31385C26.3718 8.80236 25.3715 10.2594 23.8844 10.5633C22.8527 10.7744 21.3665 10.4957 20.5549 9.79693C19.8942 9.22772 19.4693 8.37939 19.425 7.50771Z" fill="#212D35"/>
<path d="M22.4559 7.43054C23.0613 8.0088 24.0778 8.09359 24.7713 7.62393C25.0962 7.40387 25.3558 7.05567 25.3781 6.66413C25.4034 6.21639 25.1133 5.79912 24.7465 5.54095C24.5389 5.39472 24.3036 5.28707 24.0559 5.23182C23.4505 5.09607 22.7803 5.2966 22.3487 5.74292C22.2244 5.87105 22.1182 6.02014 22.061 6.18924C21.9143 6.62317 22.1244 7.11379 22.4559 7.43054Z" fill="white"/>
<path d="M55.5162 73.2211C58.2908 73.6136 62.0305 74.5781 64.2887 76.2867C65.8206 77.4456 67.1395 78.8846 68.1608 80.5108C68.3713 80.8456 68.5771 81.1981 68.8938 81.4348C69.3968 81.8107 70.0885 81.8245 70.7015 81.6892C71.5727 81.4963 72.3815 81.0295 72.9836 80.3707C73.146 80.193 73.3013 79.9816 73.3013 79.7405C73.3013 79.61 73.2546 79.4843 73.2089 79.3623C72.5768 77.6719 71.4274 76.2434 70.198 74.9196C66.6342 71.12 61.808 67.5928 56.4722 67.4018C54.3192 67.3246 52.3144 67.86 50.1833 68.0186C47.7093 68.2025 45.24 68.455 42.7798 68.7746C39.3197 69.2242 35.9102 69.974 32.5021 70.708C29.254 71.4072 26.0746 72.4737 22.7003 72.3989C19.4765 72.3275 16.1193 71.1495 14.1621 68.5874C11.8572 65.5703 11.9667 61.2434 13.4276 57.7391C12.4154 57.6519 11.4028 57.5652 10.3906 57.478C9.7623 59.3576 9.63179 61.3163 9.67751 63.2844C9.708 64.5996 9.30884 66.8807 9.75135 68.0748C9.26359 66.7588 8.77535 65.4422 8.2876 64.1261C7.62598 64.3147 6.85862 64.6077 6.69476 65.276C6.62617 65.5556 6.68333 65.8495 6.74763 66.1305C7.1849 68.0539 7.93702 69.9239 9.10974 71.5101C11.7729 75.1126 16.639 76.6292 20.9202 77.0469C27.6493 77.7038 34.5617 75.6927 41.1669 74.671C44.3845 74.1732 47.6116 73.3773 50.854 73.0925C52.4077 72.9548 53.9734 73.0029 55.5162 73.2211Z" fill="#8A553A"/>
<path opacity="0.37" d="M55.5162 73.221C58.2908 73.6135 62.0305 74.5781 64.2887 76.2867C65.8206 77.4456 67.1395 78.8846 68.1608 80.5107C68.3713 80.8456 68.5771 81.1981 68.8939 81.4348C69.3969 81.8106 70.0885 81.8244 70.7015 81.6892C71.5727 81.4963 72.3815 81.0295 72.9841 80.3702C73.7038 79.5824 72.7092 78.1129 72.3129 77.4037C72.6706 78.0438 72.2081 78.9184 71.5179 79.1651C70.8277 79.4123 70.0413 79.1565 69.4578 78.7121C68.8748 78.2677 68.4466 77.6566 67.9931 77.0802C65.078 73.3759 60.7125 70.8442 56.0488 70.154C58.1465 69.0932 61.8118 68.3068 63.9353 69.8987C61.8471 68.333 59.0644 67.4947 56.4713 67.4018C54.3183 67.3246 52.3134 67.86 50.1824 68.0186C47.7083 68.2025 45.239 68.4549 42.7788 68.7746C39.3188 69.2242 35.9093 69.9739 32.5011 70.708C30.3191 71.1776 24.9423 71.3696 24.5489 74.3304C24.8528 73.7917 25.5568 73.6274 26.1751 73.6502C26.7933 73.6731 27.4183 73.8265 28.0237 73.6983C28.5595 73.585 29.0225 73.2625 29.4903 72.9777C33.9958 70.2293 39.6675 70.6117 44.9237 71.0843C43.4966 70.9561 41.8552 71.6968 40.4091 71.7578C38.6276 71.833 36.8657 72.2041 35.1224 72.6075C31.4637 73.454 28.148 74.8972 24.3722 75.2021C20.5425 75.5112 16.2903 74.9473 13.6715 72.136C11.9901 70.3307 11.227 67.8224 11.0884 65.3593C10.9498 62.8962 11.3813 60.4408 11.8105 58.0115C9.85185 55.4131 9.65465 62.3599 9.67609 63.2839C9.70276 64.43 9.46269 65.5808 9.54319 66.7259C9.57701 67.2065 9.58178 69.6272 9.83852 69.8196C8.30427 68.6731 7.88034 66.593 7.56739 64.7039C6.70858 64.7639 6.58426 65.4193 6.74573 66.1305C7.183 68.0539 7.93512 69.9234 9.10736 71.5096C11.7705 75.1121 16.6366 76.6287 20.9179 77.0464C27.6469 77.7033 34.5593 75.6922 41.1646 74.6705C44.3821 74.1727 47.6092 73.3768 50.8516 73.092C52.4077 72.9548 53.9734 73.0029 55.5162 73.221Z" fill="#8A553A"/>
<path d="M48.2842 61.373C48.3099 61.2248 48.3185 61.0714 48.3328 60.9214C48.4242 59.5524 49.2992 58.2678 50.3786 57.4699C51.5175 56.6278 53.2313 56.583 54.5893 56.2196C53.8639 55.7213 53.1379 55.2236 52.412 54.7254C52.2787 54.6339 52.1391 54.5401 51.9786 54.5182C51.8447 54.5001 51.709 54.5353 51.5813 54.5796C50.8416 54.8359 50.2257 55.4279 49.9404 56.1567C49.8561 55.8662 49.7713 55.5756 49.687 55.2855C48.77 55.1269 47.8988 55.8157 47.4339 56.6221C46.969 57.428 46.778 58.3626 46.3798 59.2033C45.8025 60.4232 44.8508 61.071 43.8701 61.9102C42.8927 62.7471 41.9867 63.6974 41.0326 64.5667C39.0368 66.3844 36.9014 68.1844 34.3445 69.1494C32.5878 69.8125 30.6511 69.7067 28.7839 69.8992C28.1289 69.9668 27.4583 70.0792 26.8962 70.4227C26.3346 70.7666 25.9016 71.3915 25.9593 72.0474C25.1543 72.4771 24.5879 73.3263 24.5008 74.2347C25.1429 73.7341 25.7849 73.2339 26.4275 72.7333C26.8867 73.0086 27.4883 72.88 27.9551 72.6176C28.4214 72.3551 28.8129 71.9736 29.2797 71.7116C29.9052 71.361 30.6301 71.2434 31.3379 71.1319C35.8473 70.4198 40.5906 69.601 45.1604 69.9568C46.1769 70.0359 47.3311 70.1345 48.0832 69.4462C48.4571 69.9473 48.6214 70.6003 48.5285 71.2191C48.9601 70.6394 49.0706 69.8354 48.8115 69.1604C48.7229 68.9294 48.5924 68.7074 48.5728 68.4602C48.5633 68.3392 48.5809 68.2163 48.5643 68.0958C48.5209 67.7824 48.247 67.5409 47.9474 67.4399C47.474 67.2808 46.8876 67.3713 46.4008 67.4351C45.2657 67.5838 44.244 68.1749 43.167 68.5631C42.09 68.9508 40.8054 69.1104 39.8661 68.4564C42.2777 66.4977 44.1454 63.6612 47.0791 62.4647C47.4963 62.2946 47.9636 62.1213 48.1727 61.7216C48.2304 61.6116 48.2632 61.4939 48.2842 61.373Z" fill="#212D35"/>
<path d="M61.4836 55.8457C59.3588 58.5541 57.9079 61.8988 55.9102 64.7391C55.8292 64.8539 55.7458 64.9706 55.631 65.0511C55.1118 65.4136 54.2082 65.3698 53.6119 65.587C52.8359 65.8699 52.1191 66.3096 51.5013 66.8555C50.2266 67.981 49.3526 69.5901 49.2487 71.3005C49.1901 72.2637 49.3731 73.2897 50.0028 74.0204C49.8437 75.0797 50.3357 76.2105 51.2198 76.8159C50.8463 76.0104 50.5115 74.9516 51.1426 74.3276C51.3536 74.119 51.6428 74.0032 51.8538 73.7941C52.1067 73.5436 52.2229 73.1625 52.1529 72.8134C52.1043 72.5699 51.9738 72.3518 51.8871 72.1193C51.5165 71.1267 51.9995 69.9778 52.7802 69.2604C53.6405 68.4702 54.7489 67.9586 55.872 67.6686C57.2062 67.3242 58.2175 67.6614 59.5164 68.0363C61.0821 68.4402 62.8297 68.9937 64.1606 69.9116C63.1065 67.8062 61.2783 65.9628 58.9772 65.4636C59.7027 62.992 60.6096 60.9819 62.2062 58.9266C63.2246 57.6157 64.676 56.6083 65.5491 55.2265C64.6169 55.1941 63.64 55.5913 62.9102 56.1629C62.5458 56.4482 62.1748 56.8102 61.7118 56.8031C61.6356 56.4844 61.5594 56.1653 61.4836 55.8457Z" fill="#212D35"/>
</svg>
