<svg width="79" height="114" viewBox="0 0 79 114" fill="none" xmlns="http://www.w3.org/2000/svg">
<path fill-rule="evenodd" clip-rule="evenodd" d="M77.8181 43.7454C76.9671 40.8354 76.5861 37.0184 75.6141 34.4634C74.7441 32.1744 73.11 28.9494 71.554 27.7344C70.005 28.2814 70.2061 27.3264 69.5811 26.3424C69.2281 25.7874 68.2981 25.0754 67.8401 24.3694C67.6361 24.0564 67.6501 23.7594 67.4921 23.5564C67.2451 23.2424 66.8381 23.1644 66.5641 22.8604C65.9121 22.1394 65.3351 21.2064 64.7081 20.4244C63.3091 18.6814 61.8861 17.3634 60.0661 16.3644C60.1371 16.0854 60.2331 15.8344 60.1821 15.4354C59.5971 14.1144 58.5671 12.7984 57.7451 11.8374C57.4861 11.5334 57.4061 11.1474 57.1651 10.9094C56.1911 9.95039 54.6421 9.40938 53.4521 8.58938C52.5051 7.93638 51.4351 6.58539 49.7391 7.19739C48.2511 5.07539 46.5911 3.4064 43.8221 2.4414C42.1761 1.8664 41.5721 1.55439 40.3421 2.55539C39.1491 1.56939 37.6381 0.561407 35.8171 0.700407C34.2681 0.819407 32.9881 2.14841 31.6401 2.32541C29.5331 4.16241 27.1311 5.70539 25.8381 8.35739C22.6681 9.23539 20.3211 11.1834 18.0651 12.8824C13.3951 16.3984 10.5521 22.3704 9.59506 28.8934C6.89106 32.0384 3.49206 35.5664 4.02606 41.1914C3.53806 41.4384 3.01706 41.6534 2.63406 42.0054C1.61906 46.1214 0.495064 51.0344 0.893064 55.5794C1.05806 57.4684 1.49505 58.5094 2.05305 59.9884C2.36405 60.8154 2.51606 61.7974 2.86606 62.5414C3.84306 64.6254 5.82406 67.3154 7.15806 68.9234C7.93506 69.8594 9.11905 70.3104 9.82705 71.1274C9.09805 74.6484 11.4841 77.7784 13.8881 79.7134C14.6841 80.3544 15.7561 81.1794 16.6721 81.6864C18.6191 82.7624 20.9901 82.8334 22.7061 84.0064C22.6561 84.7624 22.7801 85.5714 22.9381 85.9794C24.6531 90.4064 27.2591 92.5484 31.1761 94.5644C31.6041 94.7864 32.0091 95.1434 32.4521 95.3774C33.9741 96.1814 35.6521 95.9844 36.861 96.6544C37.3111 97.6744 37.3901 100.508 37.4421 100.946C38.0601 104.611 37.9171 109.312 38.7181 112.317C38.6091 112.517 38.8561 113.881 39.5311 113.942C39.6771 113.689 39.8561 113.472 40.0341 113.254C41.8801 113.321 49.9271 113.748 51.3471 112.473C51.5091 112.729 51.6781 112.979 52.0611 113.014C52.2781 111.872 51.8401 110.75 51.7121 109.533C51.6261 108.714 51.7181 107.83 51.5961 106.98C51.548 106.639 51.278 106.295 51.2491 105.936C51.1971 105.319 51.4741 104.698 51.4801 104.079C51.4961 102.422 50.9561 100.835 51.2491 98.9744C52.6781 97.5174 55.3661 96.9224 56.5851 95.3774C58.7101 92.6844 60.0141 89.5934 58.9061 85.2834C58.0281 84.7044 57.4081 85.6874 56.7011 86.2114C55.0451 87.4384 53.1691 88.5384 50.6671 88.3004C50.4611 87.5664 51.6981 87.3394 52.1761 86.9074C52.4001 86.7844 52.3381 86.3734 52.5241 86.2114C54.1801 85.0814 55.715 83.8324 56.4691 81.8024C56.4971 81.3104 56.1661 81.1784 56.2371 80.6424C59.4501 80.3614 61.5 78.3834 63.779 76.8144C66.398 75.0104 69 72.9984 70.856 70.5484C71.569 69.6084 71.7521 69.0374 72.2501 68.1114C72.4021 67.8264 72.7831 67.5934 72.9451 67.2984C75.0131 63.5444 76.5041 58.7474 76.3101 53.2594C79.1431 51.8954 77.6111 47.0574 77.8181 43.7454Z" fill="#C9DB8F"/>
<path fill-rule="evenodd" clip-rule="evenodd" d="M17.717 26.1104C17.833 26.1104 17.949 26.1104 18.065 26.1104C18.237 27.6024 18.366 29.5224 17.021 29.8234C16.921 29.1934 16.903 28.4324 17.253 27.9674C17.409 28.0424 17.469 28.2144 17.485 28.4314C17.94 28.0344 17.623 26.8674 17.717 26.1104Z" fill="#604C3F"/>
<path fill-rule="evenodd" clip-rule="evenodd" d="M70.973 43.8613C71.706 44.4053 72.332 45.0553 72.714 45.9503C72.049 45.3393 71.42 44.6913 70.973 43.8613Z" fill="#604C3F"/>
<path fill-rule="evenodd" clip-rule="evenodd" d="M65.172 51.7529C65.79 52.1969 65.376 54.0509 65.056 54.6529C64.621 54.1179 65.2 52.6469 65.172 51.7529Z" fill="#604C3F"/>
<path fill-rule="evenodd" clip-rule="evenodd" d="M33.845 54.6523C34.326 55.4243 34.98 57.0764 34.541 58.0174C34.081 57.1914 33.982 55.4193 33.845 54.6523Z" fill="#604C3F"/>
<path fill-rule="evenodd" clip-rule="evenodd" d="M10.176 61.7295C10.292 61.7295 10.408 61.7295 10.524 61.7295C10.199 62.4115 10.699 63.9165 10.06 64.2815C9.996 63.3305 10.265 62.7085 10.176 61.7295Z" fill="#604C3F"/>
<path fill-rule="evenodd" clip-rule="evenodd" d="M52.293 65.3276C52.257 64.6726 52.499 64.2955 52.409 63.5865C52.64 63.3945 52.557 63.5975 52.873 63.5865C52.869 63.0795 52.974 62.6825 53.105 62.3105C53.536 63.2595 53.393 65.0256 52.293 65.3276Z" fill="#604C3F"/>
<path fill-rule="evenodd" clip-rule="evenodd" d="M68.885 63.0073C69.153 62.9713 69.014 63.3413 69.234 63.3563C69.294 64.6823 68.915 65.6053 68.653 66.7203C68.574 67.0553 68.922 67.7103 68.305 67.7633C68.25 66.3523 69.219 64.6833 68.885 63.0073Z" fill="#604C3F"/>
<path fill-rule="evenodd" clip-rule="evenodd" d="M65.521 66.1396C65.637 66.1396 65.753 66.1396 65.869 66.1396C65.748 66.4456 65.73 66.8517 65.753 67.2997C65.071 67.2637 65.633 66.6216 65.521 66.1396Z" fill="#604C3F"/>
<path fill-rule="evenodd" clip-rule="evenodd" d="M67.956 67.2998C68.262 67.5378 67.911 68.0978 67.608 68.1128C67.706 67.8218 67.927 67.6568 67.956 67.2998Z" fill="#604C3F"/>
<path fill-rule="evenodd" clip-rule="evenodd" d="M24.6791 85.0527C24.8871 85.5457 24.8271 86.3677 24.7951 86.7917C24.3821 86.6257 24.5401 85.3987 24.6791 85.0527Z" fill="#604C3F"/>
<path fill-rule="evenodd" clip-rule="evenodd" d="M41.154 89.3447C41.232 89.3447 41.309 89.3447 41.386 89.3447C42.199 90.4307 42.014 92.4487 41.966 94.3347C41.816 100.303 42.257 107.274 41.618 113.246C40.737 112.817 41.321 111.657 41.386 110.926C41.463 110.067 41.515 109.101 41.502 108.373C41.393 102.362 41.754 96.2217 41.038 89.6927C41.1 89.6007 41.16 89.5037 41.154 89.3447Z" fill="#604C3F"/>
<path fill-rule="evenodd" clip-rule="evenodd" d="M42.315 89.3447C42.408 89.4067 42.503 89.4657 42.663 89.4617C43.116 96.9327 43.17 103.288 43.476 110.23C43.516 111.166 43.846 112.331 43.36 113.247C42.834 112.768 42.749 111.539 43.128 110.927C42.322 103.192 42.843 96.7488 42.083 89.5778C42.111 89.4508 42.314 89.4987 42.315 89.3447Z" fill="#604C3F"/>
<path fill-rule="evenodd" clip-rule="evenodd" d="M36.9771 91.7812C37.3451 92.0633 38.2991 92.2702 37.9061 92.9402C37.5131 92.6382 37.0651 92.3892 36.9771 91.7812Z" fill="#604C3F"/>
<path fill-rule="evenodd" clip-rule="evenodd" d="M47.7681 93.5215C48.1791 93.6695 47.6071 94.7175 47.6521 95.2605C47.9651 95.3415 47.8761 95.0225 48.0001 94.9125C47.9131 95.4465 47.8461 97.0005 46.9561 97.1175C47.0131 96.1585 47.5861 94.7395 47.7681 93.5215Z" fill="#604C3F"/>
<path fill-rule="evenodd" clip-rule="evenodd" d="M46.724 94.2188C46.969 95.0447 46.8441 96.5027 46.3761 97.0027C45.8351 96.2937 46.842 95.2637 46.724 94.2188Z" fill="#604C3F"/>
<path fill-rule="evenodd" clip-rule="evenodd" d="M48.929 95.3779C49.006 96.2299 48.4 97.4019 47.536 97.6989C47.619 96.9919 48.613 96.2349 48.929 95.3779Z" fill="#604C3F"/>
<path fill-rule="evenodd" clip-rule="evenodd" d="M49.509 95.4941C49.354 96.4231 49.03 98.1851 47.885 98.5111C48.385 97.4631 48.998 96.5311 49.509 95.4941Z" fill="#604C3F"/>
<path fill-rule="evenodd" clip-rule="evenodd" d="M40.343 2.55654C41.573 1.55554 42.177 1.86653 43.823 2.44253C46.592 3.40753 48.252 5.07654 49.74 7.19854C51.436 6.58754 52.506 7.93754 53.453 8.59054C54.642 9.41054 56.192 9.95154 57.166 10.9105C57.407 11.1475 57.487 11.5346 57.746 11.8386C58.568 12.7996 59.598 14.1145 60.183 15.4365C60.234 15.8345 60.138 16.0855 60.067 16.3655C61.887 17.3645 63.31 18.6825 64.709 20.4255C65.335 21.2065 65.913 22.1405 66.565 22.8615C66.839 23.1665 67.247 23.2435 67.493 23.5575C67.651 23.7595 67.638 24.0565 67.841 24.3705C68.298 25.0765 69.228 25.7885 69.582 26.3435C70.207 27.3265 70.006 28.2825 71.555 27.7355C73.111 28.9515 74.745 32.1755 75.615 34.4645C76.587 37.0205 76.969 40.8365 77.819 43.7465C77.612 47.0585 79.144 51.8955 76.312 53.2615C76.505 58.7495 75.015 63.5465 72.947 67.3005C72.785 67.5955 72.404 67.8275 72.252 68.1135C71.755 69.0395 71.571 69.6105 70.858 70.5505C69.002 73.0005 66.4 75.0125 63.781 76.8165C61.502 78.3855 59.452 80.3635 56.239 80.6445C56.168 81.1805 56.499 81.3126 56.471 81.8046C55.717 83.8346 54.181 85.0836 52.526 86.2136C52.34 86.3756 52.403 86.7865 52.178 86.9095C51.7 87.3415 50.463 87.5675 50.669 88.3025C53.171 88.5405 55.047 87.4406 56.703 86.2136C57.41 85.6906 58.029 84.7065 58.908 85.2855C60.016 89.5955 58.712 92.6856 56.587 95.3796C55.368 96.9246 52.679 97.5196 51.251 98.9766C50.958 100.838 51.498 102.425 51.482 104.082C51.476 104.701 51.199 105.322 51.251 105.939C51.28 106.298 51.549 106.642 51.598 106.983C51.72 107.833 51.628 108.716 51.714 109.536C51.842 110.753 52.279 111.875 52.063 113.017C51.39 112.955 51.378 112.232 50.902 111.973C50.476 108.476 50.542 103.633 50.09 100.486C49.517 100.764 49.589 101.688 49.162 102.111C49.35 105.088 49.444 109.125 49.394 112.437C48.225 112.075 48.897 110.764 48.931 109.769C49.019 107.112 48.477 104.172 48.582 101.878C48.238 101.72 48.078 101.946 47.538 101.878C47.643 105.212 47.766 109.601 47.654 112.669C46.538 112.23 47.264 110.994 47.306 110C47.355 108.801 46.9 107.486 46.957 106.171C47.011 104.936 47.471 102.949 46.724 101.878C46.351 101.853 46.233 102.083 45.796 101.993C45.886 106.432 45.973 109.397 45.796 113.364C44.691 110.301 45.896 105.602 45.1 102.11C44.94 101.844 44.292 102.066 43.939 101.993C43.552 97.6975 43.945 93.4346 43.243 89.1146C41.985 88.8646 40.327 89.0125 39.065 88.7665C39.57 90.1025 41.363 92.4635 39.53 93.9875C40.971 99.7675 39.854 106.179 40.458 112.669C40.188 113.135 39.799 113.479 39.53 113.945C38.855 113.884 38.608 112.52 38.717 112.32C37.916 109.315 38.059 104.614 37.441 100.949C37.389 100.511 37.31 97.6765 36.86 96.6565C35.651 95.9865 33.973 96.1826 32.451 95.3796C32.008 95.1466 31.603 94.7885 31.175 94.5665C27.258 92.5505 24.652 90.4086 22.937 85.9816C22.779 85.5746 22.654 84.7645 22.705 84.0085C20.99 82.8355 18.618 82.7645 16.671 81.6885C15.755 81.1815 14.683 80.3566 13.887 79.7156C11.483 77.7806 9.09602 74.6506 9.82602 71.1296C9.11902 70.3126 7.93402 69.8615 7.15702 68.9255C5.82302 67.3185 3.84202 64.6276 2.86502 62.5436C2.51602 61.7996 2.36402 60.8175 2.05202 59.9905C1.49402 58.5115 1.05702 57.4695 0.892016 55.5815C0.494016 51.0365 1.61701 46.1236 2.63301 42.0076C3.01501 41.6556 3.53701 41.4415 4.02501 41.1935C3.49201 35.5685 6.89101 32.0406 9.59401 28.8956C10.551 22.3726 13.394 16.3995 18.064 12.8845C20.321 11.1855 22.667 9.23755 25.837 8.35955C27.13 5.70755 29.532 4.16454 31.639 2.32754C32.987 2.15054 34.267 0.821536 35.816 0.702536C37.639 0.562536 39.15 1.57054 40.343 2.55654ZM53.918 12.1876C54.674 12.6656 55.753 12.3155 56.47 12.6515C55.822 11.2505 53.541 11.4805 52.757 10.2155C53.373 10.4915 54.315 11.0536 54.962 10.9116C53.431 10.1226 52.548 8.68354 50.553 8.35854C50.019 9.60354 49.311 10.6745 49.277 12.4195C49.958 12.6675 50.009 13.5445 50.669 13.8115C50.795 13.5155 50.17 13.4055 50.553 13.2315C51.943 13.9305 52.704 15.8765 53.918 16.3655C53.649 15.5505 52.569 14.9305 52.641 14.1595C53.12 14.6475 53.662 15.0745 54.15 15.5525C54.471 15.3795 53.948 15.0775 54.265 14.9735C54.81 15.6275 55.322 16.3136 56.122 16.7136C55.997 15.9366 54.766 14.6746 54.614 13.9285C54.929 13.8575 55.157 14.4535 55.31 14.1605C54.817 13.8405 54.104 13.1265 54.034 12.7675C54.938 13.7985 56.517 14.1526 57.166 15.4376C56.95 15.6646 56.742 15.4726 56.47 15.4376C56.346 15.8706 56.758 15.7675 56.702 16.1325C57.407 15.8305 58.518 16.0865 58.79 15.9025C58.371 15.3905 57.419 14.7995 57.281 14.3935C57.775 14.6735 58.127 15.0946 58.674 15.3216C58.274 14.5616 58.02 13.6555 57.165 13.3485C56.956 13.4995 57.42 14.0846 56.817 14.0456C56.362 12.9166 54.601 13.0896 53.918 12.1876ZM30.48 4.99355C29.258 5.99255 28.312 7.37654 27.695 8.35854C28.86 8.58654 29.374 9.46554 30.016 10.2155C30.136 9.67854 30.101 8.98553 30.48 8.70653C30.716 8.74253 30.789 8.93953 30.944 9.05553C31.49 7.55253 31.629 5.64254 32.684 4.64654C33.004 5.56954 32.018 6.13055 32.104 7.19955C32.647 7.20255 32.417 6.42954 32.8 6.27154C33.311 6.12254 33.276 6.82653 33.612 6.50353C33.612 6.23353 33.612 5.96155 33.612 5.69155C33.301 5.28955 33.098 6.33654 32.8 5.92354C33.198 4.89154 34.131 4.39355 34.424 3.25555C34.699 3.36755 34.994 3.45955 34.889 3.95055C35.796 3.94455 34.854 2.79853 35.585 2.67553C36.063 2.74053 35.772 3.57154 36.281 3.60354C36.537 3.43454 36.213 2.68453 36.629 2.67553C37.334 3.01353 37.016 2.58555 37.789 2.55855C37.923 2.69755 37.92 2.96955 37.906 3.25555C37.528 3.34255 37.187 3.46554 36.861 3.60354C36.861 3.79554 36.861 3.99055 36.861 4.18355C37.158 4.27155 37.782 3.82853 38.37 3.83553C38.171 3.34953 38.208 3.31753 38.254 2.67553C35.765 1.21353 32.606 3.25555 30.48 4.99355ZM41.039 4.06554C41.261 4.30854 41.413 4.62055 41.503 4.99355C41.696 4.99355 41.889 4.99355 42.083 4.99355C42.519 4.44755 41.884 3.97554 42.2 3.25454C41.465 3.17754 41.311 3.68054 41.039 4.06554ZM42.895 4.52953C45.019 5.30553 45.149 8.07754 46.144 9.98254C46.571 9.70454 46.736 9.88453 47.189 10.0985C46.901 11.3535 47.987 11.2356 48.001 12.1876C47.717 12.5466 47.143 11.8946 47.189 12.5366C47.275 12.7986 47.839 12.5815 48.117 12.6515C48.869 10.0525 46.5 9.23754 46.376 7.54754C46.918 7.93354 47.179 8.60054 47.768 8.93954C47.822 8.34454 47.21 8.41553 47.305 7.77953C47.464 7.77453 47.559 7.83453 47.653 7.89553C47.749 7.59253 47.302 7.25854 47.653 7.08254C48.129 7.61254 48.292 8.45453 48.93 8.82253C47.802 6.00553 45.806 4.05654 42.548 3.37054C42.429 3.99054 42.975 3.94753 42.895 4.52953ZM38.95 4.18154C39.462 4.28054 39.362 3.42953 38.95 3.48653C38.723 3.70253 38.915 3.91154 38.95 4.18154ZM34.89 4.99355C35.048 4.83855 35.111 4.18455 34.773 4.18255C34.615 4.33755 34.552 4.99255 34.89 4.99355ZM39.878 6.15453C40.469 6.14353 41.026 6.65455 41.386 6.50255C41.003 5.91955 41.175 4.77953 40.458 4.52953C40.274 5.13153 39.492 5.31253 39.878 6.15453ZM36.398 5.92153C36.328 5.71453 36.737 5.43954 36.398 5.34154C36.146 5.44454 35.813 5.91753 36.398 5.92153ZM36.746 6.15453C36.901 6.26753 37.741 6.67853 37.79 6.15453C37.178 6.57253 37.378 5.79654 36.977 5.69054C36.917 5.86254 36.806 5.98153 36.746 6.15453ZM43.359 8.12755C43.523 9.06956 43.383 7.41054 43.591 7.31454C43.354 7.28054 43.364 7.00154 43.127 6.96654C43.101 7.45754 43.306 7.71555 43.359 8.12755ZM42.779 7.77856C42.777 7.47056 42.843 7.09454 42.547 7.08254C42.394 7.23354 42.521 7.69756 42.779 7.77856ZM44.171 8.01055C44.076 7.71955 44.397 7.01153 43.939 7.08153C43.92 7.48953 43.97 7.82555 44.171 8.01055ZM37.558 9.17055C37.17 9.03655 37.264 8.20054 36.398 8.24154C36.359 7.97154 36.258 7.76253 36.166 7.54653C35.767 7.26853 35.252 7.09454 34.658 7.31454C32.925 9.70454 31.532 12.1565 29.901 14.5075C28.463 16.5815 26.345 18.5336 26.188 21.7006C27.521 21.4096 27.164 19.4275 27.812 18.4525C27.923 18.8765 27.616 20.3235 28.044 20.7725C28.3 20.4875 28.197 19.8425 28.741 19.8435C28.731 20.2595 28.56 20.5145 28.509 20.8885C29.782 20.8335 28.434 18.7995 29.553 18.6845C29.582 19.6025 29.546 20.4555 29.437 21.2365C30.218 20.6515 29.462 19.1835 29.901 18.6845C30.418 19.2105 30.204 20.4695 30.249 21.4685C31.077 21.4055 30.457 19.8965 30.946 19.4955C31.48 19.3485 31.131 20.0845 31.409 20.1905C31.389 19.9385 31.504 19.8225 31.757 19.8426C32.182 20.1926 32.073 21.0746 32.453 21.4676C32.563 20.9646 32.284 20.2516 32.453 20.0756C33.093 20.3636 32.571 21.8125 33.497 21.8145C33.465 21.4215 33.313 21.1485 33.381 20.6545C33.864 20.7655 33.954 20.5985 34.425 20.7705C34.388 21.0395 34.444 21.2155 34.542 21.3505C35.998 20.8735 35.155 23.2505 35.934 23.7885C36.037 22.9865 35.676 22.2455 35.702 21.6985C36.37 22.1905 36.765 23.6665 36.283 24.5995C36.601 24.9775 36.628 25.6475 37.095 25.8745C37.145 25.0425 36.879 24.5715 36.979 24.0175C37.531 24.2405 37.268 25.2775 37.792 25.5265C38.008 24.5985 37.745 23.9085 37.792 22.8575C38.149 22.9445 38.015 22.5405 38.372 22.6255C38.392 23.2245 38.3 23.9355 38.488 24.3655C39.525 24.2555 38.734 22.7815 39.067 22.1605C39.237 22.1595 39.436 22.6505 39.416 22.1605C39.489 21.8085 39.268 21.1625 39.533 21.0005C39.93 21.3385 39.735 22.2685 40.113 22.6255C40.405 21.8905 40.012 21.1735 40.229 20.5375C40.597 20.6725 40.473 21.2985 40.809 21.4655C41.326 20.7175 40.114 19.2125 40.809 19.0295C41.075 19.4595 41.08 20.1495 41.389 20.5385C41.574 19.6555 41.017 18.9025 41.273 18.3335C41.733 18.5705 41.529 19.4716 41.969 19.7266C42.191 18.9546 41.757 18.6375 41.969 18.1025C42.283 18.1365 42.177 18.5895 42.434 18.6825C42.546 18.0245 41.983 17.4345 42.318 16.9415C42.697 17.3355 42.539 18.2675 43.13 18.4495C43.586 16.9345 42.622 15.8975 43.246 14.7375C43.499 14.9485 43.752 15.1595 43.71 15.6655C44.745 15.2245 43.865 13.4776 44.29 12.8816C44.554 13.0056 44.712 13.2335 44.754 13.5775C45.093 13.6075 45.111 13.3145 45.451 13.3455C44.661 11.8345 42.832 9.46655 41.506 8.58855C41.359 8.49055 41.049 8.57653 40.925 8.47253C40.517 8.12953 40.584 7.63255 40.114 7.54455C39.731 7.47255 39.282 7.70454 38.953 7.89254C38.965 8.36954 38.972 8.83954 38.721 9.05254C38.31 8.54554 37.811 9.25755 37.558 9.17055ZM30.132 10.9116C30.639 10.7046 31.542 9.93653 31.756 9.05553C31.048 9.50553 30.664 10.2826 30.132 10.9116ZM45.795 10.9116C45.924 10.1226 45.351 9.42755 44.983 9.51955C45.108 10.1296 45.269 10.7046 45.795 10.9116ZM19.109 28.1985C19.735 27.5455 19.567 25.8225 20.037 24.7185C20.211 25.2035 20.413 25.1325 20.85 25.1825C20.958 24.7875 21.005 24.3325 21.082 23.9055C21.973 24.4235 21.108 22.4605 21.894 22.5135C21.933 23.1485 22.015 23.8806 22.011 24.8346C22.777 24.7876 22.282 23.4806 22.823 23.2096C23.144 23.1586 22.932 23.6415 23.172 23.6735C23.416 22.6475 23.172 21.7486 23.056 20.7736C23.788 21.1635 23.763 22.3096 23.984 23.2096C24.602 23.2086 24.697 22.6845 24.797 22.1645C24.45 22.1395 24.402 22.5945 24.1 22.2815C24.064 21.4125 24.454 20.5505 24.216 19.8435C24.959 19.9685 24.335 18.7256 25.029 18.7996C24.843 18.1326 25.025 17.9895 25.492 17.7555C25.577 17.4005 25.292 17.4145 25.377 17.0595C26.174 16.8525 26.131 15.8045 26.305 14.9725C26.653 15.0885 26.535 15.6705 26.653 16.0165C27.108 15.9295 27.277 15.5575 27.466 15.2035C26.899 14.6765 27.221 12.3795 27.582 11.7235C27.687 12.6245 28.14 13.1775 28.395 13.9275C29.064 13.0325 27.775 11.5265 28.279 10.0985C25.577 8.33653 24.067 11.9246 21.897 12.5366C21.649 13.7546 20.754 14.0545 20.041 14.7405C18.356 16.3605 17.289 18.3965 14.936 19.1486C14.742 19.1486 14.549 19.1486 14.355 19.1486C14.139 19.4746 13.899 19.7765 13.775 20.1925C15.578 19.4835 16.894 18.2855 18.416 17.2935C19.159 17.7725 19.738 16.5525 20.04 16.5975C19.032 19.4945 15.94 20.3095 14.239 22.5145C15.362 22.0135 16.298 21.3245 17.372 20.7745C15.364 22.9825 13.248 25.0815 11.106 27.1555C12.026 26.7455 14.489 26.0045 15.98 26.8075C17.059 27.6995 16.242 30.4915 17.256 31.4485C17.308 30.1085 17.893 29.3016 18.764 28.7806C18.887 28.2716 18.372 28.3995 18.416 27.9695C18.88 27.3505 18.108 25.4955 19.229 25.5315C19.62 26.4865 19.04 27.6195 19.109 28.1985ZM29.32 12.7665C29.385 12.2845 28.864 11.4676 28.624 10.9116C28.661 11.7256 28.787 12.4505 29.32 12.7665ZM46.491 12.0716C46.305 11.6886 46.895 11.2516 46.376 11.2606C46.408 11.6056 46.052 11.9656 46.491 12.0716ZM20.386 13.1165C20.694 12.8435 21.046 12.6155 21.43 12.4195C21.436 12.2205 21.341 12.1226 21.198 12.0716C21.01 12.4286 20.123 12.6935 20.386 13.1165ZM20.502 13.6955C20.777 13.6235 21.042 13.5405 21.082 13.2315C20.807 13.3035 20.541 13.3875 20.502 13.6955ZM17.137 15.9015C17.973 15.0345 19.918 14.6605 20.27 13.6955C19.192 14.3205 17.345 14.7925 17.137 15.9015ZM48.929 36.5525C49.132 35.0495 51.234 36.0296 52.641 36.0886C52.632 34.9006 52.063 34.2165 52.177 33.1885C52.497 33.7575 52.7 34.4435 53.105 34.9285C53.105 34.4605 52.546 33.9475 52.873 33.5355C53.176 34.0465 53.383 34.6495 53.686 35.1595C53.69 33.7155 52.866 32.5105 52.758 31.5635C53.095 31.5815 53.087 32.5396 53.454 32.1426C53.192 31.5916 52.896 31.0765 52.758 30.4025C53.612 30.1585 52.6 29.1035 52.642 28.5475C52.78 28.5635 52.906 28.7525 52.991 28.5475C52.763 28.6035 52.617 28.0146 52.874 27.9676C53.196 28.4576 53.41 29.0555 53.803 29.4755C54.738 28.2225 53.108 26.8565 53.222 25.7615C53.478 25.8535 53.372 26.3076 53.686 26.3426C53.832 25.1586 52.603 24.2205 53.106 23.4415C53.687 23.7895 53.39 25.0145 54.151 25.1825C54.15 24.1765 53.263 23.4415 53.454 22.6295C53.964 22.9715 54.148 23.6385 54.498 24.1385C54.193 22.3905 53.473 20.7465 53.222 19.1486C53.869 19.6646 54.002 20.6895 54.498 21.3535C54.984 20.0225 53.809 18.6406 53.222 17.6406C52.025 16.7886 50.796 15.9685 49.857 14.8565C48.863 14.9075 48.203 13.8355 47.537 14.2755C47.739 14.6195 48.12 15.3895 47.885 15.7845C47.509 15.4005 46.927 15.4115 46.377 15.6685C46.239 15.3425 45.88 15.2375 45.681 14.9735C45.22 16.3375 44.948 17.5445 44.405 18.6855C42.969 21.7015 40.918 23.9475 38.835 26.3426C39.034 27.3925 39.334 28.6565 40.228 28.6625C40.92 30.1755 41.806 31.4946 42.549 32.9556C42.633 32.6926 42.339 32.0506 42.781 32.1426C43.204 32.4826 42.818 33.2916 43.012 33.7676C43.802 33.4476 42.947 31.9655 43.477 31.5635C44.018 32.5735 43.27 34.1825 44.173 35.0425C44.236 34.3385 43.875 33.7055 44.289 33.3025C44.418 33.5235 44.437 33.8515 44.521 34.1155C45.85 34.4825 44.712 36.8206 45.797 37.2496C46.143 36.1606 45.522 35.3515 45.913 34.5795C46.754 35.7665 45.518 38.0775 46.609 38.6415C47.281 37.8915 47.977 36.2955 48.929 36.5525ZM55.426 17.6406C55.414 16.9156 54.85 16.1315 54.498 16.1325C54.973 16.6215 54.59 17.8456 55.426 17.6406ZM15.281 18.2215C16.214 17.9545 16.849 17.3916 17.486 16.8295C16.386 16.9286 15.801 17.5415 15.281 18.2215ZM66.797 35.2765C66.51 33.9765 66.403 32.4986 65.984 31.3306C66.767 31.3126 66.408 30.6785 66.68 30.0555C67.42 31.0255 67.523 32.4985 67.26 33.6525C68.475 31.7345 67.586 29.6766 66.099 28.6636C66.471 28.7176 66.508 29.1046 66.912 29.1276C66.887 28.3956 67.432 29.2485 67.608 28.8965C67.241 26.9815 64.912 26.4105 64.011 25.4155C64.622 25.5275 65.37 26.3825 65.983 25.7635C65.313 24.7325 64.003 24.3395 63.083 23.5595C63.957 23.5185 64.351 24.0466 64.939 24.0236C64.028 23.2715 63.23 22.6105 62.851 21.5875C63.271 21.7075 63.548 21.9725 63.894 22.1665C63.026 20.2505 60.412 19.4626 59.485 17.9896C60.096 18.1156 60.54 19.0205 61.225 18.6865C60.606 18.2605 59.916 17.9075 59.137 17.6415C59.282 18.4875 58.595 18.1255 58.093 18.1065C58.122 18.6215 58.911 18.9845 58.673 19.3825C57.867 19.1825 58.003 18.0395 57.164 17.8735C56.277 18.3575 56.582 19.4425 56.352 20.3105C56.13 21.1495 55.586 21.8595 55.539 22.7465C55.477 23.9325 55.729 25.6015 55.656 27.2705C55.518 30.3755 54.965 33.9175 55.539 37.3655C56.365 37.8545 57.105 38.4305 57.628 39.2215C59.901 40.5835 62.081 42.0396 63.778 43.9786C64.212 43.9016 64.549 44.5895 64.706 44.0945C64.68 43.3055 64.063 42.4966 64.241 41.8906C64.643 42.3776 64.702 43.2085 65.169 43.6305C65.204 42.7045 64.518 41.8856 64.706 41.1926C65 41.3636 64.931 41.8975 65.286 42.0065C65.522 41.2465 64.591 40.0865 64.822 39.3365C65.061 39.3685 64.931 39.7706 65.17 39.8016C65.366 39.0586 64.407 38.5155 64.938 38.1775C66.209 38.9675 65.519 41.3135 65.982 42.7015C66.227 41.0935 66.284 39.9446 66.446 38.6406C66.348 38.3676 66.161 38.9595 65.751 38.7555C65.664 36.9765 65.352 36.2085 65.402 34.8115C65.976 35.8105 66.244 36.9635 66.446 38.0605C66.513 37.4725 66.43 36.6455 66.562 35.8555C66.389 35.8365 66.134 35.8975 66.098 35.7405C66.188 34.7615 65.428 33.6575 65.867 33.0715C66.042 33.9415 66.41 34.6195 66.797 35.2765ZM12.612 23.3256C13.047 23.1816 12.862 22.7645 12.96 22.5125C13.272 22.3605 13.578 22.2005 13.889 22.0485C14.731 19.9895 17.393 19.7515 18.646 18.1045C16.644 19.3985 12.546 20.5786 12.612 23.3256ZM41.619 43.1666C41.502 43.1666 41.481 43.0715 41.387 43.0505C41.572 42.1515 41.386 40.8826 41.619 40.0336C41.934 40.3596 41.908 40.1246 42.316 40.0336C42.385 40.6216 42.397 41.2666 42.78 41.5416C42.755 40.9096 42.86 40.1465 42.664 39.6855C43.391 39.9865 42.877 39.0465 43.36 39.1055C43.279 39.9975 43.766 40.3236 43.708 41.1926C44.715 40.6826 43.246 38.3835 44.52 38.7565C44.261 39.2925 45.038 39.6775 44.984 40.3815C45.361 40.2875 45.318 39.8565 45.796 40.1495C44.398 36.5575 41.532 34.4346 39.647 31.3306C38.69 30.4756 37.753 29.6686 36.862 28.4316C35.212 26.1406 34.899 22.7275 31.177 22.8615C30.824 23.6325 30.988 24.9155 30.133 25.1825C29.189 24.5405 29.882 22.2616 28.277 22.2826C28.161 22.5916 27.808 22.6655 27.581 22.8615C27.57 22.6795 27.597 22.4605 27.349 22.5135C26.459 22.8615 25.909 23.5485 25.492 24.3695C25.343 24.5295 24.988 24.4845 24.681 24.4855C22.303 27.5775 18.144 29.3195 17.835 34.1155C18.698 35.3065 17.708 37.1205 18.648 38.0605C18.751 37.2665 18.767 36.3306 18.996 35.9715C20.133 37.3926 18.592 40.3945 19.809 41.4255C20.003 40.6925 19.795 39.5555 20.04 38.8715C20.218 39.7475 20.62 40.8695 20.736 42.0055C20.805 42.6805 20.43 43.6756 21.084 44.0936C21.197 43.4336 20.833 42.2955 21.316 42.0055C21.346 43.5225 21.517 44.8985 22.244 45.7175C22.551 45.0885 22.107 44.2006 22.244 43.6296C22.789 44.1286 23.117 44.8455 23.288 45.7175C23.877 45.3375 23.964 45.7855 24.681 45.8335C24.776 45.5425 24.455 44.8345 24.913 44.9045C25.258 45.4485 25.469 46.1286 25.841 46.6456C25.92 46.0596 25.395 45.4725 25.725 45.0215C26.002 46.0205 26.332 46.9665 26.537 48.0375C26.882 47.5495 26.46 47.0025 26.421 46.5295C26.824 46.7325 26.861 46.6315 27.234 46.7606C27.222 47.1206 27.376 47.3155 27.466 47.5735C27.904 47.6945 28.029 47.8755 28.394 47.5735C29.386 48.5105 28.347 50.7786 29.322 51.2866C29.504 50.3276 28.802 48.9525 29.09 47.9225C29.721 49.1265 30.487 50.6595 29.67 52.0995C30.393 52.5375 30.669 53.4215 31.41 53.8395C31.32 52.9825 30.79 52.6966 30.366 52.4476C30.979 51.6046 29.754 49.7385 30.714 49.3155C31.135 49.5895 31.091 50.3295 31.41 50.7085C31.266 49.3285 31.794 49.6805 32.339 49.3155C32.279 50.1085 32.545 50.5796 32.455 51.4036C33.602 50.8686 33.04 49.2296 33.383 47.8066C33.945 48.0186 33.602 49.1346 33.963 49.5466C34.162 48.4916 34.158 47.2865 34.312 45.9495C34.856 46.4965 34.796 47.6985 34.66 48.6175C35.511 48.3545 34.604 46.6615 35.124 46.2985C35.326 46.7155 35.463 47.1966 35.472 47.8066C36.299 47.0036 35.43 46.0126 35.82 44.9056C36.262 45.4306 35.897 46.7636 36.284 47.3436C37.535 47.0956 36.465 44.7776 36.632 44.2106C36.974 44.5646 37.133 45.1016 37.212 45.7186C37.717 45.6826 37.658 45.0825 37.676 44.5585C37.896 44.5335 37.932 44.6896 38.14 44.6746C38.426 44.3256 37.965 43.8325 38.372 43.7455C38.83 44.0225 38.358 45.2296 38.836 45.4866C39.518 44.8776 39.471 43.6515 39.416 42.5865C39.855 42.7545 39.639 42.2675 39.997 42.3545C39.833 42.8635 40.257 43.4836 40.113 44.3276C41.035 43.9616 40.023 42.4555 40.693 41.5425C41.024 42.2495 41.041 43.0945 40.809 43.8625C41.804 43.7095 42.618 42.2285 41.969 41.1935C41.723 41.9455 42.136 42.6606 41.619 43.1666ZM11.8 24.9495C12.819 24.4225 14.097 23.5355 14.468 22.7455C13.425 23.3255 12.041 23.5665 11.8 24.9495ZM64.708 23.2096C64.596 23.0116 64.344 22.9555 64.127 22.8605C64.06 23.1735 64.605 23.4526 64.708 23.2096ZM67.609 25.9945C67.291 25.3065 66.883 24.7085 66.332 24.2535C66.442 25.1495 66.958 25.6405 67.609 25.9945ZM54.15 25.7615C54.183 26.3085 54.342 26.7295 54.497 27.1545C54.753 26.8235 54.606 26.0015 54.381 25.6475C54.356 25.7365 54.285 25.7805 54.15 25.7615ZM38.138 27.9676C38.408 28.0455 38.448 28.3526 38.718 28.4316C38.72 27.7526 38.837 27.6385 38.718 27.0385C38.603 27.0385 38.487 27.0385 38.37 27.0385C38.469 27.5235 38.145 27.5856 38.138 27.9676ZM8.20401 32.9556C10.034 32.0016 11.52 30.7025 12.96 29.3595C12.66 28.9365 13.392 28.5565 13.308 27.9665C10.724 28.7465 9.92701 31.3146 8.20401 32.9556ZM13.657 29.4755C12.61 30.2075 11.533 30.9095 10.988 32.1435C11.509 32.2715 11.664 31.4345 12.032 31.7955C9.68802 33.8205 7.74802 36.2525 6.46302 39.3365C6.16802 39.5865 5.30602 39.8766 5.76702 40.4976C7.38202 38.7486 9.19901 36.5815 10.872 35.2765C9.14201 37.4515 7.35602 39.5716 5.41902 41.5416C5.73802 42.0736 5.85302 42.8105 6.46302 43.0505C6.54402 42.2305 6.11103 41.8516 6.69503 41.4266C6.74003 41.7296 6.75502 42.0625 6.92702 42.2375C6.91002 41.9495 6.90502 41.6745 7.15802 41.6575C7.76002 42.8655 6.99902 44.3475 7.85402 45.1395C8.11202 44.5065 7.99502 43.5005 8.20302 42.8195C8.73702 43.5575 8.61902 45.1976 8.08702 45.8356C8.42802 46.1506 8.60401 46.6335 9.13101 46.7635C9.25601 45.9795 8.83502 45.1295 9.01502 44.6755C9.60502 45.4265 9.72602 46.9905 9.59502 47.8085C10.447 47.6225 9.41602 46.1856 9.94402 45.6036C10.776 46.0096 10.051 47.9705 10.64 48.6205C11.348 47.9425 10.348 46.6526 10.988 46.1846C11.694 47.4016 10.72 48.9715 11.684 49.6645C12.148 49.0455 11.276 47.3685 11.684 46.8805C12.477 47.2705 11.891 49.5676 12.612 50.3596C12.816 49.7406 12.312 48.7415 12.845 48.2715C13.447 48.9495 13.019 49.8015 13.077 50.7095C13.442 50.6525 13.339 51.0655 13.773 50.9415C13.848 50.3985 13.621 49.5515 13.889 49.2015C14.33 49.6485 14.382 50.4876 14.353 51.4056C16.253 49.4386 17.003 46.3205 20.271 45.7205C19.581 43.5955 18.143 41.5356 17.486 39.2236C16.915 37.2146 16.588 34.7945 15.978 33.0745C15.383 31.3955 15.732 29.5695 14.934 27.9705C13.88 27.8425 13.981 28.8715 13.657 29.4755ZM76.659 47.2275C76.763 46.6975 76.466 46.5705 76.427 46.1835C76.867 46.4165 76.887 45.6555 76.659 45.6025C76.542 45.7575 76.549 46.0356 76.311 46.0676C75.814 44.7026 75.299 42.7545 74.223 42.3545C74.992 44.0215 75.649 45.8005 76.659 47.2275ZM73.294 32.4916C72.962 32.5546 71.93 31.5956 72.483 31.0986C71.682 30.8176 71.708 29.7065 70.858 29.4745C69.637 30.9955 68.22 33.1545 67.726 35.7405C67.397 37.4605 67.667 39.3016 67.494 41.1926C67.293 43.3866 66.401 45.4045 66.798 47.3425C67.015 48.4055 67.907 48.9995 68.19 50.0106C68.418 50.8286 68.117 51.8165 69.003 52.2165C70.236 50.9745 72.158 50.4195 73.412 49.1985C73.222 48.6525 72.821 48.3196 72.716 47.6896C73.44 48.3476 73.701 49.5866 74.92 49.4296C74.393 48.1396 73.347 47.3675 72.831 46.0655C73.253 45.9245 73.205 46.8406 73.528 46.4136C73.341 46.4636 73.138 45.9805 73.412 45.9495C73.821 46.5855 74.191 47.2596 74.804 47.6896C74.668 46.7056 73.925 46.3275 73.645 45.4855C73.877 45.4685 74.185 46.2735 74.225 45.7175C74.07 44.1315 72.343 43.5006 72.253 42.2366C72.796 43.2396 73.829 43.7556 74.804 44.3256C74.593 43.4566 73.843 42.6305 74.109 41.6565C73.28 40.4355 72.052 39.6125 71.208 38.4075C73.049 39.6995 74.624 41.2575 75.85 43.1655C75.647 42.3995 74.44 41.0186 74.342 40.1486C74.752 40.2406 74.767 40.7286 75.154 40.8436C74.424 39.2536 73.306 38.0506 72.369 36.6666C72.97 36.8786 73.317 37.9595 73.878 37.8265C73.18 36.7445 71.786 35.7426 71.558 34.5776C72.393 35.4056 72.823 36.6395 73.878 37.2476C73.127 35.5606 71.67 34.5825 70.86 32.9535C71.73 33.2845 71.861 34.3505 72.717 34.6935C73.242 35.2925 73.708 36.5626 74.341 36.6666C73.98 35.4406 72.539 34.6786 72.6 33.4186C73.433 33.6316 73.722 35.0016 74.341 35.0416C74.164 34.6396 74.155 34.0685 73.877 33.7665C74.024 33.5925 74.492 33.5586 74.225 33.3016C73.926 32.9926 74.102 33.5686 73.645 33.4186C73.484 32.9196 73.347 32.9246 73.294 32.4916ZM53.918 30.1716C54.462 30.2076 54.229 29.6346 53.918 29.5906C53.986 29.9616 53.7 29.9496 53.918 30.1716ZM68.769 30.5195C68.822 30.1855 69.18 30.1565 69.118 29.7075C68.981 29.5735 68.708 29.5756 68.422 29.5906C68.575 30.1016 68.305 30.3185 68.769 30.5195ZM53.686 31.6805C53.801 32.0685 53.788 32.5825 54.151 32.7245C53.917 32.2925 54.336 31.9266 54.034 31.5646C54.014 31.6986 53.851 31.6895 53.686 31.6805ZM7.73902 33.4205C7.35002 34.0355 6.84903 34.5416 6.69503 35.3926C7.55103 34.8556 8.55301 33.8495 8.90001 33.1885C8.60001 33.6965 8.01402 33.3545 7.73902 33.4205ZM9.01502 33.8845C7.71502 35.1745 6.43602 36.4885 5.41802 38.0615C5.97302 37.8925 5.70602 38.5465 5.76702 38.8735C6.82602 37.8305 7.14301 36.4106 8.20401 35.3926C8.63801 34.9756 9.26302 34.6806 9.36402 33.9996C9.21502 33.9936 9.20302 33.8515 9.01502 33.8845ZM57.746 60.3386C57.391 60.4216 57.405 60.1385 57.051 60.2225C56.891 60.3715 56.936 60.7266 56.935 61.0336C57.576 60.7856 58.013 60.3315 58.443 59.8735C58.387 59.4015 58.326 59.0146 58.443 58.7136C58.756 58.3896 58.651 58.9965 58.907 59.0615C59.098 58.5185 58.97 57.6566 59.37 57.3226C59.484 57.4416 59.6 57.5565 59.719 57.6705C59.721 57.3245 59.708 56.9635 60.067 56.9745C60.303 58.5255 59.508 59.0465 58.675 59.5275C59.344 59.8075 59.798 58.8745 60.415 58.7145C60.429 57.7535 60.199 56.1486 60.764 55.6976C60.883 56.0426 60.764 56.6246 61.112 56.7416C61.162 56.3666 60.96 55.7396 61.344 55.6976C61.55 55.9956 61.43 56.6175 61.692 56.8575C61.939 55.7895 62.385 54.9215 62.853 54.0745C62.972 54.8655 62.83 55.5845 62.853 56.5095C63.636 55.5525 63.262 53.4385 64.361 52.7975C64.75 53.5245 64.2 54.8576 64.477 55.4656C65.98 54.5276 66.451 53.3996 66.566 51.2886C66.718 51.7796 67.077 51.3425 67.262 51.7535C67.097 52.2325 67.237 52.7975 67.262 53.2615C68.38 52.5275 67.263 50.9925 67.03 50.3605C66.102 47.8365 64.043 45.6575 62.389 43.8635C60.57 42.9355 59.005 41.7565 57.747 40.2665C56.16 39.6255 55.539 37.6136 53.686 37.5986C52.689 38.1486 51.98 38.9865 51.597 40.1515C50.678 39.6775 50.876 38.0886 49.973 37.5986C50.267 37.5866 50.267 37.1445 49.973 37.1345C48.438 37.8615 47.066 40.2615 46.028 41.5425C44.907 42.9265 43.46 43.7095 42.083 44.6755C40.033 46.1135 38.186 48.0215 36.282 49.0845C35.148 50.6565 33.494 51.7105 32.917 53.8415C33.467 54.9595 34.246 56.4066 33.73 57.9036C34.416 58.3776 34.847 59.1055 35.354 59.7585C35.386 58.5665 34.646 57.5295 35.006 56.3945C35.257 56.9555 35.365 57.6605 35.47 58.3675C35.663 58.3675 35.857 58.3675 36.051 58.3675C36.36 59.8365 36.129 61.8465 37.326 62.4285C37.532 61.6435 36.682 60.9375 37.21 60.5715C37.422 60.8245 37.322 61.3895 37.674 61.5015C37.981 61.2805 37.234 60.7055 37.79 60.5715C38.151 62.6085 39.194 63.9646 39.298 66.2576C39.472 65.2076 39.242 63.7605 39.646 63.2405C40.096 64.1175 39.609 65.3395 39.762 66.6045C39.57 66.6045 39.376 66.6045 39.182 66.6045C39.364 66.9715 39.118 67.1146 39.065 67.5336C39.353 67.3566 39.965 67.5056 40.226 67.3016C40.434 66.0666 40.025 64.8275 40.226 63.9365C40.425 64.3185 40.493 64.8315 40.575 65.3295C40.796 65.5475 40.785 65.2605 41.154 65.3295C41.514 65.9755 41.53 66.9645 41.851 67.6495C41.915 67.4425 41.911 67.1665 42.082 67.0695C42.345 67.1275 42.336 67.6375 42.663 67.3005C43.073 67.1745 42.253 66.7315 42.663 66.6045C43.551 67.0555 44.109 67.1256 44.983 67.5336C45.192 66.8606 44.51 67.0785 44.403 66.7225C44.49 66.4225 44.773 66.3186 45.215 66.3726C45.455 66.7525 45.416 67.4095 45.795 67.6495C45.837 67.1775 45.305 66.6755 45.679 66.2565C46.059 67.1925 46.761 68.0246 46.723 69.0416C47.433 68.6596 46.882 67.6925 46.607 67.1855C47.056 67.0905 47.032 66.5266 47.42 66.3726C47.539 66.7966 47.826 67.0506 47.884 67.5336C48.175 67.6856 48.247 67.0746 48.348 67.4186C48.863 68.3736 48.307 70.0435 49.276 70.6655C48.864 69.9745 48.956 68.8425 49.16 67.8815C49.351 67.8835 49.225 68.2035 49.392 68.2305C49.593 68.1605 49.383 67.6806 49.624 67.6506C49.804 67.8196 49.727 68.2445 49.74 68.5785C50.45 68.1245 50.01 66.5915 50.205 65.9105C50.417 65.9035 50.597 66.5046 50.785 66.1426C50.77 66.1936 50.622 65.1355 51.017 65.2145C50.892 65.6855 51.062 65.8506 51.017 66.4896C51.717 66.3776 51.003 64.8515 51.597 64.6345C51.838 65.2145 51.724 65.7555 51.713 66.3735C52.637 65.9045 52.921 64.7975 53.802 64.2845C53.989 63.6225 53.571 62.3526 54.382 62.3126C54.454 62.9076 54.454 62.8785 54.382 63.4725C54.871 63.2665 55.198 62.8965 55.542 62.5445C55.292 62.5645 55.49 62.1336 55.426 61.9636C54.968 61.9716 55.312 62.7785 54.614 62.5445C54.759 61.8805 54.789 61.0116 55.194 60.3406C55.355 60.5276 55.292 60.9385 55.542 61.0355C55.552 60.6585 55.603 60.3225 55.774 60.1075C56.193 60.3295 55.62 61.5705 56.007 62.0795C56.513 61.5165 56.392 60.5976 56.47 59.4116C57.254 59.4996 56.835 58.3846 57.282 58.1356C57.489 58.4706 57.259 59.2406 57.63 59.4116C57.923 59.2026 57.484 58.2605 58.094 58.3675C57.983 59.0265 58.116 59.9346 57.746 60.3386ZM3.67801 45.4866C4.38501 45.7756 4.39202 44.4446 4.83902 44.0936C4.82302 44.3016 4.95401 44.3655 5.18701 44.3265C5.46801 43.7275 4.96202 43.2456 4.37502 43.1666C4.20602 44.0036 3.83301 44.6366 3.67801 45.4866ZM6.69503 43.7455C7.00103 43.7805 7.07602 43.5855 7.04302 43.2825C6.88802 43.2825 6.73401 43.2825 6.57901 43.2825C6.55301 43.5015 6.70903 43.5385 6.69503 43.7455ZM3.91002 48.0386C4.60602 47.8066 4.37801 46.6506 4.95401 46.2996C5.29101 46.8716 4.66402 47.4756 4.60602 48.0386C5.45102 47.5306 5.90402 46.6305 6.46202 45.8345C6.12002 45.4415 6.11901 44.7075 5.53401 44.5585C4.60401 45.3295 4.46802 46.8966 3.91002 48.0386ZM74.802 46.2996C74.865 45.8896 74.704 45.7005 74.455 45.6025C74.392 46.0135 74.553 46.2006 74.802 46.2996ZM3.44602 52.2175C3.71002 51.3985 3.78902 50.3935 4.49002 50.0115C3.91802 51.0645 4.26903 53.0395 3.09803 53.4925C3.29403 55.1975 1.70602 56.3015 2.63402 57.6695C2.78202 57.1215 2.71702 56.3605 2.86602 55.8135C3.00002 55.7155 3.17702 55.6616 3.44602 55.6976C3.69602 54.1686 4.16201 52.8546 4.60701 51.5206C4.55001 53.6296 3.94002 55.1855 3.44602 56.8575C4.35402 57.8445 2.82402 60.8835 4.02602 61.8475C3.60402 59.3445 5.15202 56.9895 5.76702 54.7695C5.57202 56.0045 5.33502 57.2005 4.83902 58.1335C5.13302 59.6905 4.79802 61.5565 4.14202 62.5425C4.47702 62.7095 4.32402 63.3666 4.83902 63.3566C5.24802 62.4506 4.84302 60.7295 5.41902 59.9905C5.66902 60.0885 5.37602 60.7295 5.65102 60.8035C5.88102 59.4465 5.92502 57.9055 6.46402 56.8585C6.20002 59.7015 6.05002 62.2355 6.46402 64.9805C6.59902 64.9605 6.59002 64.7976 6.58002 64.6326C6.61602 63.7566 6.68502 63.0285 6.58002 62.0785C7.11702 61.6875 6.79001 60.4335 7.27701 59.9905C6.74101 62.2755 7.65502 64.4285 7.62502 66.7205C7.38402 66.7855 7.25002 67.0516 7.04502 66.8356C7.22902 67.2316 7.43201 67.6075 7.85701 67.7635C8.20801 66.3185 7.59502 64.9676 7.74102 63.8205C8.11702 63.6755 7.83001 64.1946 8.20601 64.0516C8.50601 63.1536 8.17602 61.6236 8.67002 60.9186C8.46002 63.4906 8.46201 67.8206 10.062 69.6196C10.513 67.8486 9.82501 66.2095 10.178 64.3986C10.256 65.3246 10.48 66.7126 10.642 67.7626C10.729 68.3266 10.424 69.4855 11.454 69.2715C10.659 63.2915 11.212 57.1105 13.543 52.7955C10.619 51.2325 8.96001 48.4065 6.58101 46.2985C5.93801 48.5535 2.50902 49.4985 3.44602 52.2175ZM17.485 49.5475C16.061 51.4935 14.156 53.6835 13.424 56.3935C12.587 59.4945 12.368 62.1395 12.38 65.4435C13.12 66.0955 13.271 67.3386 13.773 68.2286C13.92 67.7406 13.469 67.2586 13.889 67.1846C14.282 67.2556 14.036 67.9646 14.237 68.2286C14.604 68.3886 14.625 68.2536 15.049 68.2286C15.175 67.6866 14.586 67.4735 14.933 67.0685C15.499 67.1585 15.136 68.1795 15.977 67.9965C16.122 67.1725 14.947 66.6366 15.513 66.1406C16.141 66.7116 16.157 67.8945 17.137 68.1135C17.37 67.3685 16.238 67.5315 16.673 66.9535C17.577 67.0935 17.357 68.3576 18.181 68.5776C18.186 68.0566 17.367 67.4315 17.833 67.1855C18.604 68.1545 19.292 69.2066 20.385 69.8536C20.458 69.2346 19.574 69.1006 19.921 68.5776C20.784 68.9146 20.535 70.3615 21.545 70.5505C21.66 70.0315 20.926 69.5816 21.429 69.3906C21.914 70.4526 22.315 71.5995 23.517 71.9445C23.484 70.6225 22.323 69.8116 22.241 68.9266C23.506 69.8466 23.576 71.9736 24.678 72.7546C24.991 71.8436 23.812 70.8505 23.981 70.0865C24.537 71.0025 25.411 72.0795 25.258 73.3345C25.813 73.5155 26.157 73.9046 26.766 74.0306C26.815 73.5186 26.651 73.2166 26.418 72.9866C26.391 73.4306 26.073 73.5005 25.722 73.3345C25.964 72.3945 25.144 71.9045 25.374 71.3625C25.829 71.5745 25.772 71.9765 26.302 71.5945C27.33 72.5375 27.291 74.5485 28.739 75.0735C28.795 74.6005 28.226 74.3685 28.507 74.0295C29.156 74.3865 29.239 75.3096 29.783 75.7706C29.979 75.2566 29.37 74.9565 29.667 74.7255C30.253 74.9135 30.062 75.8775 30.48 76.2346C30.454 75.6395 30.019 74.8415 30.248 74.3785C31.012 74.8525 30.756 76.3456 31.292 77.0466C31.553 75.7266 30.969 73.9696 31.292 73.1016C31.829 73.3006 31.235 74.6286 31.872 74.7266C32.156 73.6426 31.47 72.4045 31.872 71.7085C31.976 71.9925 32.143 72.2125 32.104 72.6385C32.476 72.6105 32.643 72.7816 33.032 72.9866C33.27 71.7386 33.713 70.3985 33.96 69.5055C34.284 69.7766 34.016 70.2106 34.424 70.5496C34.525 70.3786 34.598 70.1816 34.889 70.2006C35.081 69.5786 34.567 69.0585 34.772 68.8075C35.271 68.6975 34.976 69.3785 35.352 69.3885C35.675 68.8215 36.204 68.4605 36.397 67.7635C36.669 67.8005 36.832 67.9486 37.209 67.8796C37.366 67.3306 36.926 66.7776 37.093 66.6036C37.741 66.5366 37.676 67.1815 37.674 67.7635C38.029 67.8485 38.015 67.5636 38.37 67.6486C38.269 67.1866 38.224 67.0195 38.834 67.0685C38.065 64.6655 36.027 63.5315 35.353 61.0345C34.077 60.2615 33.482 58.8056 32.453 57.7866C30.095 53.7626 27.159 50.3176 23.983 47.1116C23.341 47.0496 22.979 47.2675 22.591 47.4595C21.88 48.6835 22.041 50.7775 20.967 51.6365C20.185 50.4685 20.696 48.5096 21.083 47.2286C19.629 46.5296 18.289 48.4495 17.485 49.5475ZM75.15 48.1545C75.573 48.2305 75.768 48.0765 75.963 47.9235C75.835 47.5865 75.819 47.1395 75.383 47.1105C75.404 47.5135 75.793 47.5505 75.847 47.9235C75.644 48.0295 75.267 47.9635 75.15 48.1545ZM26.999 48.7355C27.121 49.3085 27.572 49.5546 27.927 49.8956C27.914 49.0966 27.948 48.2495 27.463 47.9225C27.573 48.4585 27.378 48.6895 26.999 48.7355ZM76.774 49.4316C76.856 49.0416 76.536 49.0515 76.426 48.8525C76.404 49.1835 76.412 49.4846 76.774 49.4316ZM31.988 51.5206C32.057 51.1606 32.355 49.9336 31.872 49.7806C31.892 50.1996 31.501 51.1276 31.988 51.5206ZM74.338 50.5925C74.231 50.3895 74.342 49.9695 73.99 50.0115C74.003 50.3085 74.012 50.6085 74.338 50.5925ZM66.216 70.5485C67.072 70.2055 66.885 68.8196 67.609 68.3436C67.181 69.6166 66.614 70.7525 66.216 72.0575C67.691 71.4045 67.686 69.2726 68.421 67.8796C68.49 68.1196 68.278 68.6426 68.537 68.6926C69.687 66.9976 69.317 64.2296 70.161 62.4266C70.118 63.3686 69.565 65.0635 69.929 66.3705C71.023 64.8015 70.946 61.5565 71.322 59.6415C71.456 60.9015 71.251 62.4975 71.089 63.8195C71.465 63.9625 71.178 63.4425 71.554 63.5865C71.508 64.4995 70.529 65.4815 70.973 66.1395C71.37 65.2755 72.264 63.7496 71.901 62.8906C71.79 62.9876 71.664 63.6426 71.554 63.3566C72.753 61.2636 72.062 57.9775 72.365 55.5815C72.626 58.3145 72.793 60.4315 72.482 63.1235C73.964 62.0125 73.139 58.8945 73.41 56.6265C73.664 57.3375 73.574 58.3965 73.874 59.0615C74.719 57.4475 74.289 54.9865 74.106 53.3765C74.497 53.8365 74.216 54.9686 74.918 55.1166C75.223 54.4676 74.834 53.8105 74.918 53.0275C74.294 53.0725 74.021 52.7645 73.874 52.3315C73.884 52.1495 74.17 52.2415 74.106 51.9835C73.657 51.8515 73.792 51.1365 73.758 50.5915C70.569 52.1145 67.707 54.2536 64.94 56.3926C60.858 59.5466 56.394 62.5096 52.989 66.3696C51.741 67.7856 50.95 69.6625 50.204 71.4745C50.681 71.4505 50.456 70.7225 51.015 70.7795C51.111 71.1065 50.852 71.0806 50.899 71.3596C51.105 71.4286 51.38 71.0196 51.479 71.3596C51.3 71.9055 50.636 72.1335 51.131 72.7515C51.751 72.5585 52.025 71.4045 52.755 71.7065C52.56 72.3645 51.625 72.2775 51.594 73.0995C52.095 73.4425 52.372 72.0545 52.755 72.2875C52.636 72.7495 52.292 72.9835 52.291 73.5635C52.496 73.8615 52.751 74.1085 52.988 74.3765C53.794 74.0225 54.166 73.2335 54.844 72.7515C54.783 73.8905 53.725 74.0306 53.336 74.8406C53.572 74.8746 53.563 75.1535 53.8 75.1885C54.19 74.6145 55.394 73.7396 55.888 74.0286C55.297 74.5596 54.838 75.2215 54.032 75.5366C54.151 76.0756 54.396 76.4875 54.728 76.8135C54.887 76.4695 55.357 76.4375 55.424 76.0005C55.423 75.6745 55.108 76.2765 55.192 75.7695C55.463 75.3795 56.335 74.9826 56.701 75.0726C56.304 76.0296 55.384 76.4636 54.96 77.3926C55.489 77.9856 55.284 79.3126 56.236 79.4816C56.552 79.1686 55.936 79.1926 56.004 78.7866C56.458 78.0816 57.902 78.3655 57.859 77.1625C56.95 77.1715 56.161 78.7945 55.538 77.9745C56.398 77.3835 58.484 76.8465 57.859 75.5366C57.362 76.4326 56.253 77.3326 55.306 77.3935C56.207 76.5165 57.204 75.7355 58.091 74.8415C58.34 73.8475 57.743 72.4206 57.859 71.3616C57.975 72.3296 58.456 72.9315 58.44 74.0295C58.932 74.3625 59.252 73.0185 59.6 73.2165C59.276 74.0915 58.276 74.2905 58.44 75.6545C59.923 74.1215 61.113 72.2935 61.805 69.9695C61.724 70.5575 61.843 71.0135 62.152 70.8975C61.787 71.2665 61.595 71.8105 61.456 72.4065C61.883 72.4785 62.034 71.6775 62.268 71.9435C61.625 72.4995 60.944 73.6345 61.108 74.6105C62.784 73.1955 63.986 70.8095 64.124 68.2295C64.502 69.4635 63.522 71.2295 63.661 72.5215C64.354 71.4755 64.442 69.8225 65.053 68.6935C64.931 69.9635 64.441 70.8655 64.241 72.0585C64.716 71.9115 64.975 70.9395 65.285 71.0135C65.086 71.8605 64.088 72.5216 64.241 73.3335C64.503 72.6275 65.129 71.6705 65.518 71.4775C65.195 72.1995 64.561 72.6105 64.473 73.5665C65.939 73.1275 65.632 71.1566 66.214 70.0856C65.689 70.0626 65.889 70.7655 65.401 70.7815C66.827 69.4156 66.763 66.2275 67.258 64.2825C67.265 66.7245 66.955 68.8505 66.216 70.5485ZM33.381 56.9736C33.635 56.4836 33.341 55.5475 33.033 55.2325C33.158 56.0215 32.767 56.8676 33.381 56.9736ZM61.575 57.6695C61.915 57.6615 62.006 57.4035 62.155 57.2045C61.998 57.1685 61.934 57.0395 61.691 57.0895C61.594 57.2245 61.539 57.3995 61.575 57.6695ZM3.09803 59.6426C3.15303 59.3686 3.63903 58.4866 3.09803 58.3666C3.09403 58.7156 2.78603 59.3586 3.09803 59.6426ZM5.76702 64.9795C5.92102 63.9495 5.95201 62.8155 5.65001 62.1955C5.51701 62.8876 4.91802 64.4885 5.76702 64.9795ZM38.022 63.7026C38.03 63.2696 37.974 62.9006 37.79 62.6586C37.432 63.0316 37.655 63.4696 38.022 63.7026ZM72.366 65.5605C72.826 65.2265 73.556 63.9886 72.946 63.3566C72.761 64.0976 72.24 64.5045 72.366 65.5605ZM38.602 64.8625C38.846 64.6045 38.48 64.3025 38.602 63.8195C38.447 63.8195 38.292 63.8195 38.138 63.8195C38.164 64.2955 38.384 64.5795 38.602 64.8625ZM7.04302 66.7205C7.11602 66.0675 6.79002 65.8125 6.34702 65.6755C6.28102 66.3205 6.75102 66.4315 7.04302 66.7205ZM41.154 68.2286C41.254 67.3186 41.389 66.2846 40.69 65.9086C40.675 66.8856 40.143 68.0706 41.154 68.2286ZM13.077 69.0405C13.173 68.0535 13.098 66.7555 12.38 66.2555C12.606 67.1895 12.285 68.6715 13.077 69.0405ZM69.813 69.7366C69.739 69.2736 70.12 69.2686 70.044 68.8066C69.293 69.1766 68.926 69.9316 68.768 70.8956C68.603 70.8696 68.573 70.7056 68.42 70.6636C68.208 71.1096 67.747 71.3065 67.84 72.0575C69.843 70.9256 71.141 68.4765 71.901 66.4875C71.785 66.4875 71.669 66.4875 71.554 66.4875C70.996 67.5935 70.755 69.0146 69.813 69.7366ZM69.697 67.1846C69.566 67.5976 69.188 68.3726 69.465 68.8075C69.709 68.3156 70.583 67.8405 70.16 67.0685C70.139 67.2385 69.881 67.1746 69.697 67.1846ZM8.78302 68.8075C8.69502 68.2005 8.72602 67.4736 8.31902 67.1846C8.38402 68.0726 8.19402 68.5295 8.78302 68.8075ZM39.298 83.7745C40.191 84.7425 40.708 86.3376 41.966 86.5596C41.114 85.4016 40.761 83.7425 39.994 82.4985C41.197 83.4225 41.231 85.5145 42.779 86.0955C42.503 85.0165 41.172 84.3776 41.154 83.4266C41.833 84.4036 42.495 85.0705 43.591 85.3995C43.203 84.4705 42.098 83.6436 42.082 82.7316C42.661 83.3126 43.09 84.3296 43.707 85.0516C44.273 85.7146 45.431 86.8055 45.795 86.6746C45.191 85.8866 44.858 84.8275 44.055 84.2375C44.308 84.2595 44.425 84.1425 44.404 83.8895C44.089 83.2765 43.395 82.4246 43.36 81.9166C44.871 83.1966 45.247 86.8275 47.653 86.4415C47.136 85.4515 46.275 84.8025 45.68 83.8885C45.817 83.8325 45.943 83.7645 46.028 83.6575C45.884 83.5205 45.454 83.0825 45.796 82.8445C46.413 83.8145 46.846 84.9655 48.001 85.3975C48.1 84.9595 47.616 84.8526 47.885 84.5856C48.033 84.5916 48.045 84.7336 48.233 84.7006C48.243 83.7996 47.327 83.2115 47.537 82.4965C48.007 83.3395 48.323 84.3406 48.93 85.0496C48.841 84.3996 48.326 83.5665 48.465 83.0765C48.872 83.4025 48.797 84.2136 49.278 84.4686C49.564 84.1846 49.192 83.9655 49.278 83.5405C49.443 83.4955 49.473 83.4005 49.626 83.5405C49.722 83.2365 49.275 82.9036 49.626 82.7286C50.091 83.2686 49.815 84.5495 50.438 84.9325C50.493 83.6105 50.689 82.7856 51.018 81.5676C51.097 82.5386 50.95 83.0225 51.367 83.6565C51.615 83.0715 51.711 82.0765 51.715 81.2195C51.977 81.8855 51.946 82.8435 52.179 83.5395C52.972 82.9785 52.488 81.1415 53.34 80.6385C53.314 81.8505 52.96 82.7356 52.875 83.8876C54.228 82.9806 54.697 81.3116 54.848 79.4786C54.023 76.3196 52.022 74.3365 49.742 72.6335C49.521 72.6835 49.533 72.9645 49.163 72.8655C48.722 72.6745 48.647 72.2235 48.814 71.7045C47.367 70.3305 45.825 69.0485 43.593 68.4565C43.556 69.3875 42.87 69.6675 42.433 70.1965C40.939 68.9855 38.35 67.8205 36.515 69.3845C34.928 72.7465 32.525 75.2955 31.41 79.1305C31.167 80.0505 31.135 81.4845 32.339 81.7985C32.608 80.9675 31.604 80.0675 32.455 79.5945C32.323 80.4785 32.621 81.8915 33.151 82.4955C33.236 82.2305 32.942 81.5905 33.383 81.6825C33.383 81.9146 33.383 82.1465 33.383 82.3785C33.454 82.5385 33.83 82.3965 33.847 82.6105C34.529 84.0595 35.816 85.0515 36.863 85.5115C36.495 84.5265 35.38 83.6695 35.123 82.9585C36.032 83.6746 36.62 84.7106 37.56 85.3956C37.192 84.0996 36.048 82.9625 35.935 81.7975C37.002 83.7095 37.856 85.8335 39.997 86.6705C39.774 86.0025 38.737 85.5345 39.068 84.6985C39.246 85.2945 39.549 85.7645 40.113 85.9745C39.78 84.2945 37.999 83.4466 37.676 82.1456C38.008 82.8526 38.733 83.1625 39.298 83.7745ZM49.856 69.5046C50.01 69.2596 50.231 68.8615 49.74 68.8075C49.808 69.0116 49.601 69.4896 49.856 69.5046ZM47.536 69.6196C48.016 69.7206 47.89 69.0405 47.536 69.0405C47.536 69.2325 47.536 69.4266 47.536 69.6196ZM68.189 70.3155C68.423 70.1205 68.993 69.1665 68.538 69.0405C68.428 69.3995 67.902 69.9465 68.189 70.3155ZM20.038 71.3605C18.703 70.5005 17.127 68.8746 14.817 69.7366C14.513 70.8466 12.958 70.7066 12.033 70.8956C11.759 70.8076 11.231 70.6666 10.989 70.8956C11.262 72.2376 11.231 73.6995 12.265 74.4935C12.213 73.2075 11.6 72.0335 11.917 71.1285C12.522 72.2645 12.322 74.2035 13.309 74.9575C13.47 74.7275 13.257 73.7515 13.658 73.4485C13.335 75.0825 13.84 76.6955 14.934 77.2775C14.769 76.0105 14.313 74.4185 14.585 73.0995C14.907 75.0595 15.268 76.9815 16.673 77.8575C16.605 76.9585 16.163 75.8166 16.325 75.0726C16.632 77.0876 17.647 78.3925 18.994 79.3655C18.753 78.1365 17.96 76.8425 17.949 75.7695C18.837 77.0085 18.997 78.9756 20.27 79.8306C20.202 78.8346 18.914 78.0185 19.458 77.1625C19.963 78.3585 20.368 79.6555 21.314 80.4105C21.441 80.1155 20.918 79.8136 21.43 79.8306C21.766 80.0356 21.656 80.6865 22.242 80.6415C22.308 80.1465 21.612 79.8096 21.894 79.4816C22.347 79.7246 22.344 80.4245 22.822 80.6415C22.862 79.4665 24.184 78.9225 23.635 77.8575C24.111 77.2475 24.204 78.2676 24.563 77.9736C24.31 77.7626 24.057 77.5526 24.099 77.0445C24.902 76.7315 25.261 76.8225 25.839 76.8135C26.6 77.9895 27.463 79.1366 28.972 79.2496C29.351 78.6276 28.736 78.4396 28.624 77.9736C29.323 78.0406 29.476 77.7966 30.132 78.2056C28.067 75.0896 23.623 74.3485 20.966 71.8245C20.57 71.7365 20.818 72.2965 20.385 72.1725C20.087 72.0835 19.982 71.8035 20.038 71.3605ZM10.988 72.7526C10.903 72.4886 11.197 71.8485 10.756 71.9415C10.737 72.3075 10.752 72.6416 10.988 72.7526ZM63.2 74.0286C63.377 73.7416 64.047 72.8395 63.548 72.6365C63.347 72.9425 62.872 73.5796 63.2 74.0286ZM59.487 75.1896C60.115 74.7606 61.058 73.4516 60.764 72.8696C60.473 73.7766 59.759 74.2626 59.487 75.1896ZM66.1 73.9125C66.318 73.6995 66.974 73.3225 66.681 72.9846C66.583 73.3176 65.73 73.4975 66.1 73.9125ZM63.432 75.6536C64.472 75.3936 65.796 74.2576 65.289 73.2156C64.498 73.8576 63.737 74.5286 63.432 75.6536ZM60.647 76.8146C61.601 76.1446 62.523 75.4416 62.62 73.9136C61.719 74.0966 60.778 75.8606 60.647 76.8146ZM13.424 76.6976C13.574 76.3056 13.073 75.6906 12.844 75.3046C12.839 75.9686 13.004 76.4606 13.424 76.6976ZM58.791 78.0906C59.203 77.9226 59.331 77.4706 59.834 77.3935C59.727 76.8395 60.202 76.7865 59.951 76.3505C59.872 77.1625 58.663 77.4566 58.791 78.0906ZM12.96 77.2775C12.917 76.9335 12.759 76.7045 12.497 76.5815C12.457 77.0075 12.674 77.1765 12.96 77.2775ZM60.996 77.5095C61.342 77.2375 61.798 77.0745 61.924 76.5815C61.336 76.5395 60.828 77.1835 60.996 77.5095ZM15.745 78.5546C15.709 78.2026 15.874 77.6525 15.513 77.6255C15.549 77.9775 15.384 78.5286 15.745 78.5546ZM25.839 78.7866C25.992 78.9035 26.267 78.8995 26.419 79.0185C26.328 78.4525 26.241 77.8815 25.839 77.6255C25.859 78.2415 25.915 78.2176 25.839 78.7866ZM14.352 78.6716C14.322 78.2356 14.17 77.9256 13.888 77.7416C13.847 78.2486 14.099 78.4586 14.352 78.6716ZM58.326 78.7866C58.834 78.4426 59.783 78.5406 59.834 77.7416C59.211 77.9686 58.665 78.2736 58.326 78.7866ZM18.065 79.4816C17.925 78.8476 17.595 78.4056 17.253 77.9736C17.264 78.7376 17.617 79.1576 18.065 79.4816ZM30.364 79.2505C30.209 78.7875 29.981 78.3956 29.436 78.3226C29.539 78.8386 30.087 78.9085 30.364 79.2505ZM56.586 79.1345C57.054 79.0225 57.672 79.0605 57.63 78.4385C57.141 78.5285 56.806 78.7735 56.586 79.1345ZM27.464 79.8306C27.475 79.3556 27.448 78.9185 27 78.9015C26.915 79.4515 27.067 79.7626 27.464 79.8306ZM15.861 79.5986C15.534 79.5776 15.716 79.0475 15.281 79.1345C15.235 79.4595 15.774 79.7896 15.861 79.5986ZM30.48 92.4786C30.13 92.6876 30.81 92.8325 30.596 93.2905C31.217 93.5975 31.742 94.0005 32.452 94.2195C32.023 93.4085 31.15 93.0456 30.48 92.4786ZM38.138 93.6376C38.518 93.6306 38.581 93.3086 39.065 93.4056C38.996 92.2766 38.238 91.8365 37.906 90.9695C38.491 91.0805 38.494 91.7725 39.181 91.7825C38.266 88.5185 35.336 87.2725 33.148 85.2845C32.497 85.3935 32.361 84.9885 31.872 84.9365C31.877 84.5825 31.627 84.4846 31.524 84.2396C29.17 82.8816 27.4 80.9366 25.026 79.5986C23.835 79.8076 23.595 81.4315 23.866 82.7325C24.425 82.8275 24.093 82.0305 24.562 82.0355C24.164 82.7245 24.904 82.9136 24.91 83.5445C24.127 84.2085 24.556 85.9655 24.214 86.7925C24.472 87.0815 24.528 87.0295 24.795 87.1415C24.738 88.0875 25.106 88.6085 25.607 88.9985C25.612 87.9855 25.087 86.8906 25.143 86.2136C25.569 86.3686 25.524 86.9926 25.723 87.3746C26.011 87.3566 26.286 87.3515 26.303 87.6055C26.501 89.3025 27.022 90.6766 28.043 91.5496C28.161 91.1156 27.562 90.8045 27.811 90.6215C28.793 91.0715 28.612 92.6825 29.899 92.8265C29.903 92.2025 29.228 92.2616 29.319 91.5496C30.424 92.8046 32.952 92.6345 33.38 94.5665C33.75 94.5905 34.462 94.8695 34.772 94.5665C34.257 94.0385 33.502 93.7495 33.148 93.0585C33.651 93.1365 33.771 93.5955 34.309 93.6385C34.11 92.5615 32.568 92.8265 32.22 91.8995C33.79 92.4165 35.208 93.7065 36.629 93.9875C36.008 93.3315 35.179 92.8835 34.772 92.0145C35.764 92.6875 36.782 93.3306 37.673 94.1036C37.166 93.1026 36.236 92.5226 35.7 91.5496C36.623 92.1356 37.504 92.7636 38.138 93.6376ZM55.078 81.5705C55.274 81.1585 55.418 80.5295 54.962 80.2955C54.917 80.8195 54.769 81.1995 55.078 81.5705ZM29.9 81.5705C30.052 81.2336 29.994 80.9036 29.668 80.7576C29.648 80.9316 29.709 81.1865 29.552 81.2225C29.246 81.1405 29.307 80.6945 28.972 80.6415C29.232 81.0015 29.236 81.6155 29.9 81.5705ZM31.988 82.3835C31.842 81.8335 31.409 81.5695 31.176 81.1075C30.877 81.6365 31.605 82.2105 31.059 82.7325C31.494 82.8395 31.669 83.2045 32.104 83.3115C32.071 82.7995 31.249 82.4696 31.64 81.9195C31.757 82.0735 31.832 82.2695 31.988 82.3835ZM22.358 82.3835C22.06 82.1015 21.868 81.7115 21.545 81.4545C21.609 81.8985 21.813 82.8065 22.358 82.3835ZM35.121 85.3995C35.154 84.7095 34.553 84.6516 34.425 84.1226C34.052 84.0206 34.267 84.5066 33.961 84.4715C33.668 84.2616 34.107 83.3205 33.497 83.4275C33.355 84.7685 34.492 84.8305 35.121 85.3995ZM23.867 85.7476C24.223 85.9256 24.223 84.9895 23.867 85.1675C23.867 85.3605 23.867 85.5555 23.867 85.7476ZM44.055 86.4435C43.791 86.4275 43.605 85.7445 43.359 86.0955C43.515 86.2195 43.774 86.8295 44.055 86.4435ZM56.818 88.3005C57.135 87.8815 57.364 87.3765 57.63 86.9075C57.054 87.0665 56.889 87.6355 56.238 87.7205C55.487 89.4485 53.298 89.2215 51.365 89.6935C49.548 90.1355 47.939 91.2605 46.608 92.2465C44.725 94.8835 44.435 97.1936 44.752 100.948C46.165 101.246 47.414 100.848 48.696 100.833C49.136 99.4925 50.239 98.8155 50.669 97.4675C49.693 97.7295 49.716 98.9885 48.93 99.4405C48.796 98.9585 49.173 98.9885 49.162 98.6285C48.897 98.4685 48.726 98.9265 48.697 98.6285C49.102 97.8325 49.706 97.2386 50.322 96.6556C50.469 97.0086 49.926 97.2455 50.206 97.3505C50.238 97.1125 50.515 97.1206 50.669 97.0026C50.742 96.6496 50.521 96.0025 50.785 95.8425C50.951 95.9855 51.006 96.2406 51.017 96.5386C51.749 96.5356 51.537 95.5876 52.178 95.4946C52.179 95.6476 52.382 95.5995 52.41 95.7255C52.122 96.1335 51.894 96.6015 51.83 97.2335C52.742 97.2055 52.522 94.9806 53.222 95.4946C53.424 95.1156 53.335 94.4456 53.686 94.2186C53.959 94.4266 53.418 95.1966 53.802 95.4946C53.743 95.0106 54.14 94.9815 54.034 94.4495C55.039 94.6035 54.562 93.2755 55.078 92.9405C55.339 93.1915 54.982 93.3365 55.078 93.7535C56.079 93.8275 55.508 92.3276 56.238 92.1296C56.334 92.4326 55.887 92.7665 56.238 92.9415C57.119 92.3155 57.334 91.0215 57.746 89.9255C58.093 90.1855 57.524 90.6895 57.978 90.7375C57.802 89.2385 58.818 87.7225 58.21 86.5605C58.248 87.6045 57.967 88.3286 57.397 88.7656C57.364 87.9556 57.528 88.4895 56.818 88.3005ZM42.315 86.9075C42.395 86.9985 42.962 87.1665 43.01 86.9075C42.859 86.7445 42.397 86.4905 42.315 86.9075ZM49.277 88.9965C49.563 89.0125 49.836 89.0145 49.973 88.8805C49.958 88.5085 49.71 88.3696 49.277 88.4166C49.277 88.6096 49.277 88.8035 49.277 88.9965ZM47.536 88.8805C47.454 89.3115 47.735 89.3796 47.652 89.8096C48.077 89.7706 48.12 89.3485 48.696 89.4615C48.827 89.1365 48.827 88.5615 48.349 88.5325C48.15 88.7205 47.926 88.8835 47.536 88.8805ZM44.171 88.8805C43.933 89.9795 44.057 92.5945 44.519 93.7535C45.332 92.5805 45.386 90.5845 44.983 88.9965C44.617 89.0535 44.574 88.7875 44.171 88.8805ZM45.795 91.2006C46.553 91.1266 47.119 90.2665 46.956 89.1125C46.736 88.9065 46.19 89.0275 45.795 88.9965C45.795 89.7315 45.795 90.4656 45.795 91.2006ZM26.419 90.1565C26.43 89.6815 26.403 89.2446 25.955 89.2286C25.697 89.5706 25.989 90.1395 26.419 90.1565ZM55.774 94.4495C56.142 94.6735 56.447 94.0105 56.587 93.6365C56.113 93.7065 55.842 93.9765 55.774 94.4495ZM37.674 95.3776C38.997 99.1846 38.753 105.328 39.298 109.881C39.407 110.79 39.226 111.739 39.762 112.319C39.571 105.779 40.434 100.383 38.95 94.6825C38.3 94.6896 38.074 95.1206 37.674 95.3776ZM51.133 97.6985C51.613 97.5985 51.477 96.8836 51.713 96.5386C51.186 96.5926 51.068 97.0535 51.133 97.6985Z" fill="#604C3F"/>
</svg>
