<svg width="134" height="313" viewBox="0 0 134 313" fill="none" xmlns="http://www.w3.org/2000/svg">
<path d="M128.544 34.0654C128.787 33.7674 128.795 33.2163 129.062 32.8573C130.165 31.3723 131.994 30.0784 132.685 28.5444C133 27.8454 133.795 25.1614 133.547 24.0604C133.157 22.3204 130.285 21.1464 128.891 21.4714C125.499 22.2614 122.531 24.1954 120.954 26.3024C119.943 27.6544 119.618 30.3913 117.848 30.7853C117.026 30.9703 115.931 30.4294 115.09 30.6144C113.727 30.9114 111.844 32.3734 110.949 33.0284C109.02 34.4434 107.178 35.4744 105.257 36.8254C103.787 37.8564 102.073 38.7484 100.944 39.7574C98.477 41.9604 96.743 45.3443 93.871 47.0033C92.682 49.3793 90.755 51.9354 89.214 53.3854C89.072 52.2664 89.83 52.0474 89.73 50.9714C90.399 51.0774 90.44 51.1153 90.937 50.7973C91.042 50.3853 91.186 50.0114 91.11 49.4184C95.911 45.9034 89.042 40.1754 91.801 35.7894C91.255 34.5564 92.055 33.3913 91.973 32.1673C91.763 29.0293 88.953 26.9433 87.833 24.5763C88.075 19.6243 88.174 15.9954 85.072 13.1904C83.855 12.0904 81.851 11.3414 80.932 9.39537C79.842 7.08837 80.237 4.19337 78.517 1.97637C77.061 1.91137 77.31 0.477343 75.927 1.11534C73.457 2.25534 76.33 6.86638 75.238 9.74138C74.706 11.1444 73.792 10.7783 72.995 11.9833C72.193 15.0863 74.607 15.9973 74.375 19.0553C73.619 21.1983 71.433 22.9193 71.787 25.4383C72.003 26.9703 73.84 27.9454 74.03 29.4064C74.516 33.1144 71.568 34.2363 70.752 37.8583C71.669 40.1063 73.426 41.5093 73.339 44.7593C72.006 47.2453 69.883 49.0484 70.407 52.0044C70.638 53.3014 71.886 54.1063 72.65 55.1103C73.665 56.4423 74.964 58.0124 75.066 59.9404C75.14 61.3314 74.268 62.4794 74.375 64.0804C74.555 66.7454 77.171 68.8884 77.653 71.8434C77.98 73.8574 77.936 75.4463 77.653 77.7093C77.787 78.1483 78.511 78.0024 78.516 78.5704C76.541 82.1114 74.22 85.5494 72.133 88.7494C71.42 89.8434 70.932 91.3273 69.717 92.0273C69.438 89.9183 68.722 87.9084 69.027 85.6434C69.236 84.0964 70.05 82.7174 70.234 81.1584C70.557 78.4494 69.654 76.3034 69.717 73.7414C66.897 71.3104 68.725 66.2964 67.302 62.7004C65.363 60.1044 63.174 56.6953 62.817 52.6943C62.662 50.9573 62.862 49.4054 61.781 48.0364C60.424 45.8354 57.633 45.4474 56.26 43.5524C54.831 41.5754 55.142 37.7064 52.983 35.7884C50.234 33.3484 44.382 33.4314 41.769 30.9584C41.401 30.6084 41.36 29.9924 40.907 29.5784C40.08 28.8214 38.12 27.5594 37.112 27.1634C32.889 25.5034 29.013 28.2924 24.002 28.0254C21.092 27.8714 18.667 27.0163 15.548 27.6803C14.289 27.9493 12.306 29.3673 11.235 29.9233C10.603 30.2483 9.74098 30.4814 9.33698 30.7834C7.32198 32.3014 7.40797 36.3374 5.36997 37.8564C4.47397 38.5244 3.14497 38.5793 2.26497 39.2383C0.160973 40.8103 -0.500027 44.0834 1.05697 45.9654C3.49397 48.9134 8.02797 45.5134 9.50997 43.5514C10.424 43.1994 11.147 43.3404 12.27 43.5514C13.388 44.9214 13.478 49.1434 15.375 49.5884C17.844 50.1664 21.424 46.3633 24.001 48.2093C24.869 48.8303 24.453 49.8183 24.691 50.9693C24.962 52.2793 25.962 53.4293 25.898 54.9363C28.148 55.2283 30.788 55.2254 31.764 57.1794C31.897 58.9654 31.913 62.0294 32.108 63.7344C32.671 66.3094 35.81 65.3773 37.111 67.1853C38.915 69.6913 37.701 73.9673 39.699 76.6723C44.571 76.3443 44.205 81.2503 45.564 84.4363C47.357 85.5763 50.203 85.6633 52.464 86.3343C53.146 89.9763 53.092 92.7743 55.397 94.2693C58.048 95.9883 61.873 93.2933 64.196 94.9593C66.121 96.3403 65.634 98.7904 66.61 101.341C61.124 110.749 59.799 124.318 56.605 136.016C56.09 135.554 55.704 134.962 55.571 134.119C53.138 130.022 50.63 126.545 47.29 123.596C44.841 121.435 41.828 119.095 40.045 116.523C37.702 114.841 34.689 113.829 34.525 109.968C35.567 108.709 37.799 108.642 38.147 106.69C37.358 106.032 37.924 105.384 37.457 104.793C36.445 103.514 33.179 103.259 32.799 101.343C32.369 99.1724 35.198 97.3293 34.352 94.9613C33.756 93.2924 31.64 92.0383 29.349 92.5453C29.171 92.0913 28.665 91.9653 28.486 91.5113C28.843 89.2793 30.561 88.4113 30.557 85.8183C29.082 83.3103 23.067 84.5893 23.483 80.9874C23.672 79.3543 27.017 78.6293 25.554 75.4673C24.444 74.4783 22.424 73.4133 22.621 71.8443C22.783 70.5633 24.554 70.3234 25.554 69.4294C27.138 66.1304 23.391 64.4304 23.311 61.4944C23.252 59.3324 24.306 58.5833 25.726 56.4903C24.086 55.0953 20.729 53.6994 18.826 55.8024C18.175 58.5424 16.935 60.6954 15.204 62.3564C13.592 63.5054 11.1 63.7733 10.028 65.4613C9.89297 66.8604 10.277 67.7434 10.201 69.0834C8.79497 71.5344 5.05597 72.1343 4.67997 75.4673C4.51297 76.9363 5.25698 78.0654 5.02498 80.1254C4.24598 81.6514 2.53797 82.3444 2.09197 83.7474C1.04197 87.0574 3.99697 89.2994 4.33397 91.8544C4.62097 94.0234 3.21797 96.4394 3.64397 98.7544C4.06497 101.04 5.57698 103.007 6.92098 104.276C7.97598 105.27 9.72898 105.489 10.372 106.69C10.942 107.756 10.649 109.556 11.235 110.313C12.628 110.861 13.054 112.127 14.686 112.729C16.515 113.402 18.838 112.859 20.551 113.591C21.311 113.916 21.767 114.811 22.448 115.143C23.65 115.729 25.599 116.311 26.761 116.352C29.05 116.43 29.258 116.676 31.074 117.73C32.074 118.313 33.173 118.82 34.007 119.284C38.55 121.814 41.168 124.647 44.185 128.427C47.938 133.131 52.706 137.573 54.363 143.953C54.736 144.454 55.436 143.558 55.571 144.298C54.504 149.726 53.796 155.512 52.77 160.981C56.614 161.885 59.937 162.652 61.35 162.792C63.607 163.018 76.263 164.699 84.308 164.49C83.657 164.405 82.995 164.339 82.309 164.31C81.861 156.513 80.312 149.264 78.168 142.747C77.474 140.631 76.364 138.681 75.754 136.536C75.069 134.129 75.212 131.426 75.065 129.118C74.178 125.978 73.99 122.14 73.856 118.25C78.785 107.519 84.737 97.4103 85.977 83.7953C86.056 83.1223 86.128 82.4744 86.199 81.8794C87.762 81.6364 89.71 82.6043 91.453 82.5403C93.133 82.4773 95.597 81.7063 96.455 80.4693C97.077 79.5763 96.534 78.3374 97.664 77.3664C101.48 78.3784 106.285 79.5083 108.531 76.3313C109.232 75.3393 109.508 73.6704 109.394 72.0174C110.243 68.9794 113.794 69.7004 116.811 68.9134C120.138 66.7934 120.366 61.7704 120.263 61.3224C119.378 56.9804 122.765 56.2794 125.438 54.7674C126.424 54.2084 128.596 52.9243 128.889 52.1803C129.302 51.1203 128.631 50.5994 128.369 49.2474C128.156 48.1374 128.54 47.0204 128.542 46.1424C128.546 44.2004 127.397 41.8974 127.162 39.9314C127.002 38.5884 126.675 37.9644 126.645 37.1714C126.575 35.3154 127.792 34.9854 128.544 34.0654ZM60.74 142.92C61.178 137.962 62.326 133.309 63.405 128.44C64.372 124.078 67.416 118.781 66.027 114.208C65.384 112.094 67.973 111.197 68.612 113.3C69.832 117.316 68.86 121.723 67.676 125.492C65.924 131.074 64.669 137.122 64.157 142.92C63.965 145.098 60.547 145.117 60.74 142.92ZM70.383 148.141C69.306 151.169 69.473 154.417 68.821 157.508C68.524 158.922 66.362 158.323 66.659 156.912C67.305 153.849 67.524 150.632 68.221 147.545C69.021 144.001 69.384 140.466 69.33 136.839C69.309 135.394 71.551 135.395 71.573 136.839C71.626 140.476 71.619 144.669 70.383 148.141ZM76.79 99.7903C74.751 102.351 74.322 106.522 72.305 109.106C72.026 106.854 71.174 105.177 70.752 103.068C73.489 97.3523 76.169 91.5773 80.413 87.3703C80.581 87.3753 80.547 87.5804 80.585 87.7154C80.575 92.1914 77.483 95.9953 76.79 99.7903Z" fill="#52982A"/>
<path d="M61.3519 162.792C59.9389 162.652 56.6159 161.886 52.7719 160.981C52.7259 161.226 52.6869 161.478 52.6399 161.722C44.8459 163.187 36.0209 163.618 30.2129 167.07C29.4269 167.096 24.9489 170.431 22.9669 172.072C22.6339 172.002 22.4199 172.143 22.2779 172.761C18.4589 176.188 14.9739 179.949 13.6529 185.872C13.4259 186.047 13.0379 187.004 12.9619 187.598C10.7989 191.064 12.2359 195.618 12.4449 199.674C12.5709 202.128 12.4129 204.635 12.7899 206.746C12.9939 207.888 13.7049 208.937 13.9979 210.023C15.1069 214.15 15.9209 216.369 17.7929 219.339C20.6619 223.889 23.7679 227.973 27.4529 231.069C26.2739 232.708 25.1489 234.401 24.0029 236.073C25.9369 235.015 26.7289 232.816 28.1429 231.241C30.0109 232.996 32.4149 234.215 34.6979 235.554C34.6489 237.576 33.3759 238.372 32.9729 240.039C34.8329 239.6 35.0529 237.519 35.9059 236.073C38.1979 237.575 41.2799 238.289 43.4969 239.867C43.0309 241.241 42.2349 242.286 42.1169 244.008C43.5279 243.349 43.5149 241.265 44.7039 240.385C45.3179 240.678 46.3919 240.839 47.1199 241.247C48.0159 241.75 51.4469 244.166 51.6049 245.043C51.9309 246.86 49.4119 248.178 49.8799 250.218C50.7919 248.831 51.7489 247.487 52.4669 245.904C53.6729 247.067 54.8719 248.788 55.5729 250.218C56.4769 252.065 53.4639 253.817 54.5379 255.911C55.3099 254.785 55.5009 253.079 56.6069 252.288C56.7669 254.632 59.1489 256.058 59.3669 258.153C59.5129 259.543 58.2769 260.729 59.0229 262.466C59.5019 261.45 59.5689 260.021 60.2299 259.188C61.1399 260.439 62.9889 261.424 63.3349 263.328C63.6609 265.117 62.6899 267.007 62.8179 269.194C64.0879 268.393 63.4549 265.692 64.3699 264.535C65.5429 265.721 66.6009 267.02 67.6469 268.332C68.1369 269.451 67.8679 271.332 68.5099 272.299C68.6219 271.491 68.2839 270.234 68.6829 269.711C69.6679 270.721 70.5409 272.082 71.6149 273.508C72.5249 274.714 74.0879 276.071 74.3759 277.475C74.7449 279.272 74.0739 281.749 74.3759 283.686C74.8909 282.474 74.7039 280.562 75.0669 279.201C76.1499 281.02 78.2399 283.171 77.9989 285.756C77.8449 287.406 76.3709 288.417 76.7909 290.07C77.5399 289.207 77.7519 287.809 78.6899 287.136C79.7169 289.478 79.5519 292.778 78.8609 295.244C77.7739 296.686 75.7569 297.201 74.5479 298.522C75.7249 298.73 76.5839 297.863 77.3089 298.176C76.4019 300.12 75.2789 302.77 72.8249 303.178C71.7139 303.363 70.4129 302.628 69.5459 303.352C70.1809 303.923 71.5879 303.722 72.1329 304.386C71.1589 305.426 69.9479 306.227 68.5099 306.8C67.2519 305.985 66.0189 307.9 64.1979 306.975C64.1439 307.833 65.3769 307.404 65.4049 308.182C64.1219 308.752 62.7009 309.692 61.2639 310.251C60.6159 310.504 59.1549 310.367 59.3659 311.632C60.7389 313.046 62.3339 311.469 63.5069 310.942C66.7699 309.471 70.7349 308.237 73.5129 306.285C74.5479 304.314 76.7989 303.684 77.8249 301.8C78.1149 301.269 78.0389 300.592 78.3439 300.075C79.5179 298.075 81.8749 296.659 82.4839 294.209C83.4039 295.242 83.3369 297.266 84.0359 298.522C83.7729 294.253 82.3619 289.962 83.1729 286.446C84.4559 287.234 84.4139 289.346 85.5889 290.241C84.5709 287.29 83.6619 284.232 81.6209 282.305C81.7299 279.896 80.2589 278.147 80.2409 276.44C81.0039 277.058 81.4719 277.969 82.3109 278.51C79.7829 274.081 76.1579 269.827 73.8579 265.744C75.7129 266.13 76.4949 267.593 77.9979 268.332C76.4619 266.533 74.8319 264.826 72.4779 263.846C71.6369 261.641 69.7979 259.511 69.1999 257.636C70.1249 257.917 70.6599 258.591 71.6149 258.844C70.9979 257.411 68.6269 257.007 67.4749 255.567C66.7359 254.64 64.7029 251.303 65.7499 251.253C63.9259 249.629 64.2749 245.298 64.3699 242.281C65.5109 241.181 66.4149 239.843 67.6469 238.833C68.6919 240.26 68.5909 242.834 69.7169 244.181C69.5409 241.883 68.7829 240.169 68.3369 238.142C69.8419 237.107 72.4979 236.334 74.2029 236.074C75.3529 237.165 74.9489 239.812 75.9269 241.075C76.3229 239.308 75.2859 237.769 75.4119 235.728C77.0679 235.543 78.5409 235.178 80.0679 234.865C80.9309 236.246 81.2869 238.133 82.1399 239.523C82.1079 237.484 81.0399 236.481 80.9319 234.52C83.1869 233.786 85.3699 232.977 87.6599 232.277C88.6059 233.228 88.9389 234.794 90.0749 235.554C89.8449 234 88.6299 233.435 88.5219 231.759C91.2099 230.998 93.2829 229.619 95.7679 228.654C96.9619 229.301 97.7699 231.251 98.8729 231.415C97.8669 230.581 97.1069 229.501 96.4569 228.309C97.9819 227.362 99.2469 226.153 100.943 225.376C102.004 226.327 102.7 227.645 103.703 228.653C103.226 227.061 101.96 226.257 101.46 224.686C107.436 220.828 111.342 214.899 115.09 208.815C115.779 206.039 117.442 200.879 115.952 195.359C115.684 194.37 113.956 189.716 113.536 188.804C113.214 188.103 110.101 182.166 108.533 180.006C107.179 178.138 105.797 176.125 104.394 174.656C100.873 170.976 97.4309 169.574 92.1949 166.97C89.7599 165.759 87.1889 164.863 84.3099 164.488C76.2649 164.699 63.6089 163.018 61.3519 162.792Z" fill="#A00D59"/>
<path fill-rule="evenodd" clip-rule="evenodd" d="M109.223 40.7917C108.645 41.8987 107.665 42.0207 106.808 42.6897C104.453 44.5297 104.128 47.8937 101.978 49.9357C102.446 51.7897 101.103 52.8447 101.115 54.7657C100.601 54.7267 100.529 55.4027 100.079 54.9377C100.017 53.6527 101.011 52.4447 101.286 51.1427C101.365 50.7817 101.173 50.2607 101.286 49.9357C101.716 48.7037 103.202 47.6227 103.702 46.3127C104.71 43.6687 106.417 41.7737 108.705 40.6207C108.985 40.5717 109.002 40.7827 109.223 40.7917Z" fill="#604C3F"/>
<path fill-rule="evenodd" clip-rule="evenodd" d="M41.943 48.2112C38.499 46.3732 34.024 43.0602 29.35 45.4502C27.341 44.7522 25.324 46.9222 23.83 46.1402C25.249 44.8562 28.589 45.4932 30.212 44.4132C31.825 44.7132 33.14 43.9512 34.525 44.0692C36.425 44.2292 37.893 45.6792 39.527 46.4832C40.53 46.9792 41.934 46.8612 41.943 48.2112Z" fill="#604C3F"/>
<path fill-rule="evenodd" clip-rule="evenodd" d="M33.49 45.4499C32.322 46.1789 30.963 46.7168 29.869 47.5188C30.311 46.2548 32.216 44.7489 33.49 45.4499Z" fill="#604C3F"/>
<path fill-rule="evenodd" clip-rule="evenodd" d="M75.582 49.0732C76.418 48.9852 76.238 49.9123 76.617 50.2803C78.545 50.4923 78.772 51.4622 80.24 53.0392C80.837 53.6822 81.928 54.2772 82.139 54.7662C82.663 55.9882 82.506 57.7992 81.103 58.3892C81.09 57.2392 81.775 56.2122 81.447 55.2822C78.918 54.4772 76.209 53.8512 74.374 52.3492C76.649 52.6062 77.573 54.2113 80.239 54.0753C79.751 51.3463 76.284 51.5942 75.582 49.0732Z" fill="#604C3F"/>
<path fill-rule="evenodd" clip-rule="evenodd" d="M49.189 57.0086C45.506 56.7456 41.347 58.6107 39.011 60.8047C39.848 59.2027 42.308 57.4327 44.876 56.8357C46.709 56.4107 48.1 55.6176 49.189 57.0086Z" fill="#604C3F"/>
<path fill-rule="evenodd" clip-rule="evenodd" d="M101.115 62.7012C101.459 62.7012 101.804 62.7012 102.15 62.7012C102.876 63.3752 102.949 64.2552 103.529 64.9432C105.008 66.6992 107.699 67.3912 108.705 69.6012C106.277 67.8892 103.397 66.6282 102.15 63.7352C101.71 63.4862 100.841 63.6662 101.115 62.7012Z" fill="#604C3F"/>
<path fill-rule="evenodd" clip-rule="evenodd" d="M20.38 97.0315C20.265 97.0315 20.15 97.0315 20.035 97.0315C19.346 96.5985 19.266 95.3995 19.172 94.6155C18.642 90.1365 20.007 85.5275 22.623 84.4375C22.174 85.9735 19.866 87.9515 19.518 90.4755C19.215 92.6605 20.365 94.6495 20.38 97.0315Z" fill="#604C3F"/>
<path fill-rule="evenodd" clip-rule="evenodd" d="M78.344 102.032C78.775 102.309 78.225 103.051 77.825 103.068C77.99 102.716 78.178 102.386 78.344 102.032Z" fill="#604C3F"/>
<path fill-rule="evenodd" clip-rule="evenodd" d="M59.195 135.674C59.719 135.571 59.291 137.178 58.849 137.227C58.69 136.435 59.281 136.394 59.195 135.674Z" fill="#604C3F"/>
<path fill-rule="evenodd" clip-rule="evenodd" d="M58.332 144.126C58.759 144.565 58.167 145.446 58.16 146.023C57.669 145.523 58.429 144.806 58.332 144.126Z" fill="#604C3F"/>
<path fill-rule="evenodd" clip-rule="evenodd" d="M57.642 147.403C58.253 147.627 57.512 149.292 56.952 149.473C57.165 148.767 57.59 148.271 57.642 147.403Z" fill="#604C3F"/>
<path fill-rule="evenodd" clip-rule="evenodd" d="M64.715 158.271C65.098 159.176 64.296 160.378 63.335 160.513C63.711 159.683 64.511 159.275 64.715 158.271Z" fill="#604C3F"/>
<path fill-rule="evenodd" clip-rule="evenodd" d="M65.7501 159.307C65.9511 159.28 66.0571 159.346 66.0951 159.481C65.4441 160.44 65.0241 161.629 63.6801 161.896C64.1171 160.78 65.2531 160.364 65.7501 159.307Z" fill="#604C3F"/>
<path fill-rule="evenodd" clip-rule="evenodd" d="M45.394 221.93C43.628 225.463 41.838 229.666 40.736 233.316C41.231 229.324 42.557 224.67 44.877 221.93C45.049 221.93 45.222 221.93 45.394 221.93Z" fill="#604C3F"/>
<path fill-rule="evenodd" clip-rule="evenodd" d="M49.0171 227.104C49.1901 227.104 49.3621 227.104 49.5351 227.104C50.2801 229.948 49.3361 233.701 49.1901 236.764C48.4481 234.012 49.5251 229.829 49.0171 227.104Z" fill="#604C3F"/>
<path fill-rule="evenodd" clip-rule="evenodd" d="M65.75 229.863C65.865 229.863 65.98 229.863 66.095 229.863C67.556 230.817 67.864 232.926 68.338 234.866C67.32 233.354 66.758 231.386 65.75 229.863Z" fill="#604C3F"/>
<path fill-rule="evenodd" clip-rule="evenodd" d="M56.952 232.452C57.067 232.452 57.182 232.452 57.297 232.452C59.255 234.326 58.294 240.006 56.952 241.767C57.116 239.532 58.116 235.007 56.952 232.452Z" fill="#604C3F"/>
<path fill-rule="evenodd" clip-rule="evenodd" d="M52.984 235.902C53.262 235.853 53.28 236.065 53.502 236.076C53.842 238.065 53.977 242.14 51.776 241.596C53.332 240.282 53.151 238.316 52.984 235.902Z" fill="#604C3F"/>
<path fill-rule="evenodd" clip-rule="evenodd" d="M61.092 237.108C63.642 238.717 63.221 243.089 62.128 245.906C62.053 243.273 62.741 239.326 61.092 237.108Z" fill="#604C3F"/>
<path fill-rule="evenodd" clip-rule="evenodd" d="M68.165 261.261C69.377 262.364 69.943 264.592 69.546 266.782C69.174 264.853 68.688 263.04 68.165 261.261Z" fill="#604C3F"/>
<path fill-rule="evenodd" clip-rule="evenodd" d="M76.446 272.819C77.276 274.23 77.684 276.066 77.998 277.994C77.159 276.591 76.747 274.761 76.446 272.819Z" fill="#604C3F"/>
<path d="M133.546 24.0604C133.156 22.3204 130.284 21.1464 128.89 21.4714C125.498 22.2614 122.53 24.1954 120.953 26.3024C119.942 27.6544 119.617 30.3913 117.847 30.7853C117.025 30.9703 115.93 30.4294 115.089 30.6144C113.726 30.9114 111.843 32.3734 110.948 33.0284C109.019 34.4434 107.177 35.4744 105.256 36.8254C103.786 37.8564 102.072 38.7484 100.943 39.7574C98.476 41.9604 96.742 45.3443 93.87 47.0033C92.681 49.3793 90.754 51.9354 89.213 53.3854C89.071 52.2664 89.829 52.0474 89.729 50.9714C90.398 51.0774 90.439 51.1153 90.936 50.7973C91.041 50.3853 91.185 50.0114 91.109 49.4184C95.91 45.9034 89.041 40.1754 91.8 35.7894C91.254 34.5564 92.054 33.3913 91.972 32.1673C91.762 29.0293 88.952 26.9433 87.832 24.5763C88.074 19.6243 88.173 15.9954 85.071 13.1904C83.854 12.0904 81.85 11.3414 80.931 9.39537C79.841 7.08837 80.236 4.19337 78.516 1.97637C77.06 1.91137 77.309 0.477343 75.926 1.11534C73.456 2.25534 76.329 6.86638 75.237 9.74138C74.705 11.1444 73.791 10.7783 72.994 11.9833C72.192 15.0863 74.606 15.9973 74.374 19.0553C73.618 21.1983 71.432 22.9193 71.786 25.4383C72.002 26.9703 73.839 27.9454 74.029 29.4064C74.515 33.1144 71.567 34.2363 70.751 37.8583C71.668 40.1063 73.425 41.5093 73.338 44.7593C72.005 47.2453 69.882 49.0484 70.406 52.0044C70.637 53.3014 71.885 54.1063 72.649 55.1103C73.664 56.4423 74.963 58.0124 75.065 59.9404C75.139 61.3314 74.267 62.4794 74.374 64.0804C74.554 66.7454 77.17 68.8884 77.652 71.8434C77.979 73.8574 77.935 75.4463 77.652 77.7093C77.786 78.1483 78.51 78.0024 78.515 78.5704C76.54 82.1114 74.219 85.5494 72.132 88.7494C71.419 89.8434 70.931 91.3273 69.716 92.0273C69.437 89.9183 68.721 87.9084 69.026 85.6434C69.235 84.0964 70.049 82.7174 70.233 81.1584C70.556 78.4494 69.653 76.3034 69.716 73.7414C66.896 71.3104 68.724 66.2964 67.301 62.7004C65.362 60.1044 63.173 56.6953 62.816 52.6943C62.661 50.9573 62.861 49.4054 61.78 48.0364C60.423 45.8354 57.632 45.4474 56.259 43.5524C54.83 41.5754 55.141 37.7064 52.982 35.7884C50.233 33.3484 44.381 33.4314 41.768 30.9584C41.4 30.6084 41.359 29.9924 40.906 29.5784C40.079 28.8214 38.119 27.5594 37.111 27.1634C32.888 25.5034 29.012 28.2924 24.001 28.0254C21.091 27.8714 18.666 27.0163 15.547 27.6803C14.288 27.9493 12.305 29.3673 11.234 29.9233C10.602 30.2483 9.74 30.4814 9.336 30.7834C7.321 32.3014 7.407 36.3374 5.369 37.8564C4.473 38.5244 3.144 38.5793 2.264 39.2383C0.159997 40.8103 -0.501004 44.0834 1.056 45.9654C3.493 48.9134 8.027 45.5134 9.509 43.5514C10.423 43.1994 11.146 43.3404 12.269 43.5514C13.387 44.9214 13.477 49.1434 15.374 49.5884C17.843 50.1664 21.423 46.3633 24 48.2093C24.868 48.8303 24.452 49.8183 24.69 50.9693C24.961 52.2793 25.961 53.4293 25.897 54.9363C28.147 55.2283 30.787 55.2254 31.763 57.1794C31.896 58.9654 31.912 62.0294 32.107 63.7344C32.67 66.3094 35.809 65.3773 37.11 67.1853C38.914 69.6913 37.7 73.9673 39.698 76.6723C44.57 76.3443 44.204 81.2503 45.563 84.4363C47.356 85.5763 50.202 85.6633 52.463 86.3343C53.145 89.9763 53.091 92.7743 55.396 94.2693C58.047 95.9883 61.872 93.2933 64.195 94.9593C66.12 96.3403 65.633 98.7904 66.609 101.341C61.123 110.749 59.798 124.318 56.604 136.016C56.089 135.554 55.703 134.962 55.57 134.119C53.137 130.022 50.629 126.545 47.289 123.596C44.84 121.435 41.827 119.095 40.044 116.523C37.701 114.841 34.688 113.829 34.524 109.968C35.566 108.709 37.798 108.642 38.146 106.69C37.357 106.032 37.923 105.384 37.456 104.793C36.444 103.514 33.178 103.259 32.798 101.343C32.368 99.1724 35.197 97.3293 34.351 94.9613C33.755 93.2924 31.639 92.0383 29.348 92.5453C29.17 92.0913 28.664 91.9653 28.485 91.5113C28.842 89.2793 30.56 88.4113 30.556 85.8183C29.081 83.3103 23.066 84.5893 23.482 80.9874C23.671 79.3543 27.016 78.6293 25.553 75.4673C24.443 74.4783 22.423 73.4133 22.62 71.8443C22.782 70.5633 24.553 70.3234 25.553 69.4294C27.137 66.1304 23.39 64.4304 23.31 61.4944C23.251 59.3324 24.305 58.5833 25.725 56.4903C24.085 55.0953 20.728 53.6994 18.825 55.8024C18.174 58.5424 16.934 60.6954 15.203 62.3564C13.591 63.5054 11.099 63.7733 10.027 65.4613C9.892 66.8604 10.276 67.7434 10.2 69.0834C8.794 71.5344 5.055 72.1343 4.679 75.4673C4.512 76.9363 5.25599 78.0654 5.02399 80.1254C4.245 81.6514 2.537 82.3444 2.091 83.7474C1.041 87.0574 3.996 89.2994 4.333 91.8544C4.62 94.0234 3.217 96.4394 3.643 98.7544C4.064 101.04 5.57599 103.007 6.91999 104.276C7.97499 105.27 9.728 105.489 10.371 106.69C10.941 107.756 10.648 109.556 11.234 110.313C12.627 110.861 13.053 112.127 14.685 112.729C16.514 113.402 18.837 112.859 20.55 113.591C21.31 113.916 21.766 114.811 22.447 115.143C23.649 115.729 25.598 116.311 26.76 116.352C29.049 116.43 29.257 116.676 31.073 117.73C32.073 118.313 33.172 118.82 34.006 119.284C38.549 121.814 41.167 124.647 44.184 128.427C47.937 133.131 52.705 137.573 54.362 143.953C54.735 144.454 55.435 143.558 55.57 144.298C54.455 149.968 53.74 156.04 52.637 161.723C44.843 163.188 36.018 163.619 30.21 167.071C29.424 167.097 24.946 170.432 22.964 172.073C22.631 172.003 22.417 172.144 22.275 172.762C18.456 176.189 14.971 179.95 13.65 185.873C13.423 186.048 13.035 187.005 12.959 187.599C10.796 191.065 12.233 195.619 12.442 199.675C12.568 202.129 12.41 204.636 12.787 206.747C12.991 207.889 13.702 208.938 13.995 210.024C15.104 214.151 15.918 216.37 17.79 219.34C20.659 223.89 23.765 227.974 27.45 231.07C26.271 232.709 25.146 234.402 24 236.074C25.934 235.016 26.726 232.817 28.14 231.242C30.008 232.997 32.412 234.216 34.695 235.555C34.646 237.577 33.373 238.373 32.97 240.04C34.83 239.601 35.05 237.52 35.903 236.074C38.195 237.576 41.277 238.29 43.494 239.868C43.028 241.242 42.232 242.287 42.114 244.009C43.525 243.35 43.512 241.266 44.701 240.386C45.315 240.679 46.389 240.84 47.117 241.248C48.013 241.751 51.444 244.167 51.602 245.044C51.928 246.861 49.409 248.179 49.877 250.219C50.789 248.832 51.746 247.488 52.464 245.905C53.67 247.068 54.869 248.789 55.57 250.219C56.474 252.066 53.461 253.818 54.535 255.912C55.307 254.786 55.498 253.08 56.604 252.289C56.764 254.633 59.146 256.059 59.364 258.154C59.51 259.544 58.274 260.73 59.02 262.467C59.499 261.451 59.566 260.022 60.227 259.189C61.137 260.44 62.986 261.425 63.332 263.329C63.658 265.118 62.687 267.008 62.815 269.195C64.085 268.394 63.452 265.693 64.367 264.536C65.54 265.722 66.598 267.021 67.644 268.333C68.134 269.452 67.865 271.333 68.507 272.3C68.619 271.492 68.281 270.235 68.68 269.712C69.665 270.722 70.538 272.083 71.612 273.509C72.522 274.715 74.085 276.072 74.373 277.476C74.742 279.273 74.071 281.75 74.373 283.687C74.888 282.475 74.701 280.563 75.064 279.202C76.147 281.021 78.237 283.172 77.996 285.757C77.842 287.407 76.368 288.418 76.788 290.071C77.537 289.208 77.749 287.81 78.687 287.137C79.714 289.479 79.549 292.779 78.858 295.245C77.771 296.687 75.754 297.202 74.545 298.523C75.722 298.731 76.581 297.864 77.306 298.177C76.399 300.121 75.276 302.771 72.822 303.179C71.711 303.364 70.41 302.629 69.543 303.353C70.178 303.924 71.585 303.723 72.13 304.387C71.156 305.427 69.945 306.228 68.507 306.801C67.249 305.986 66.016 307.901 64.195 306.976C64.141 307.834 65.374 307.405 65.402 308.183C64.119 308.753 62.698 309.693 61.261 310.252C60.613 310.505 59.152 310.368 59.363 311.633C60.736 313.047 62.331 311.47 63.504 310.943C66.767 309.472 70.732 308.238 73.51 306.286C74.545 304.315 76.796 303.685 77.822 301.801C78.112 301.27 78.036 300.593 78.341 300.076C79.515 298.076 81.872 296.66 82.481 294.21C83.401 295.243 83.334 297.267 84.033 298.523C83.77 294.254 82.359 289.963 83.17 286.447C84.453 287.235 84.411 289.347 85.586 290.242C84.568 287.291 83.659 284.233 81.618 282.306C81.727 279.897 80.256 278.148 80.238 276.441C81.001 277.059 81.469 277.97 82.308 278.511C79.78 274.082 76.155 269.828 73.855 265.745C75.71 266.131 76.492 267.594 77.995 268.333C76.459 266.534 74.829 264.827 72.475 263.847C71.634 261.642 69.795 259.512 69.197 257.637C70.122 257.918 70.657 258.592 71.612 258.845C70.995 257.412 68.624 257.008 67.472 255.568C66.733 254.641 64.7 251.304 65.747 251.254C63.923 249.63 64.272 245.299 64.367 242.282C65.508 241.182 66.412 239.844 67.644 238.834C68.689 240.261 68.588 242.835 69.714 244.182C69.538 241.884 68.78 240.17 68.334 238.143C69.839 237.108 72.495 236.335 74.2 236.075C75.35 237.166 74.946 239.813 75.924 241.076C76.32 239.309 75.283 237.77 75.409 235.729C77.065 235.544 78.538 235.179 80.065 234.866C80.928 236.247 81.284 238.134 82.137 239.524C82.105 237.485 81.037 236.482 80.929 234.521C83.184 233.787 85.367 232.978 87.657 232.278C88.603 233.229 88.936 234.795 90.072 235.555C89.842 234.001 88.627 233.436 88.519 231.76C91.207 230.999 93.28 229.62 95.765 228.655C96.959 229.302 97.767 231.252 98.87 231.416C97.864 230.582 97.104 229.502 96.454 228.31C97.979 227.363 99.244 226.154 100.94 225.377C102.001 226.328 102.697 227.646 103.7 228.654C103.223 227.062 101.957 226.258 101.457 224.687C107.433 220.829 111.339 214.9 115.087 208.816C115.776 206.04 117.439 200.88 115.949 195.36C115.681 194.371 113.953 189.717 113.533 188.805C113.211 188.104 110.098 182.167 108.53 180.007C107.176 178.139 105.794 176.126 104.391 174.657C100.87 170.977 97.428 169.575 92.192 166.971C89.206 165.486 86.025 164.46 82.309 164.309C81.861 156.512 80.312 149.263 78.168 142.746C77.474 140.63 76.364 138.68 75.754 136.535C75.069 134.128 75.212 131.425 75.065 129.117C74.178 125.977 73.99 122.139 73.856 118.249C78.957 107.144 85.169 96.7174 86.104 82.3664C84.737 84.0674 85.27 87.0004 84.897 88.5774C83.128 91.0544 83.006 95.3393 81.273 97.3754C81.245 97.1163 81.335 96.7383 81.102 96.6863C80.603 98.3153 79.318 100.076 79.032 101.342C79.738 100.608 80.161 98.6794 80.929 98.5834C80.561 100.744 79.212 101.925 78.687 103.93C77.767 103.708 77.329 104.865 77.651 105.311C77.889 105.205 77.676 104.647 77.995 104.621C76.752 108.267 75.472 111.873 73.337 114.627C72.502 112.786 73.39 111.681 73.855 110.659C74.482 109.287 74.921 107.591 75.58 106.001C76.416 103.987 77.125 102.014 77.651 99.9623C79.387 97.1013 80.618 93.5204 82.308 90.4764C82.99 89.2474 84.127 87.7404 83.688 86.3354C83.326 87.6984 82.845 88.9423 81.964 89.7853C81.689 86.4103 84.352 85.2324 84.551 82.8854C86.174 80.6864 89.015 82.6303 91.451 82.5403C93.131 82.4773 95.595 81.7063 96.453 80.4693C97.075 79.5763 96.532 78.3374 97.662 77.3664C101.478 78.3784 106.283 79.5083 108.529 76.3313C109.23 75.3393 109.506 73.6704 109.392 72.0174C110.241 68.9794 113.792 69.7004 116.809 68.9134C120.136 66.7934 120.364 61.7704 120.261 61.3224C119.376 56.9804 122.763 56.2794 125.436 54.7674C126.422 54.2084 128.594 52.9243 128.887 52.1803C129.3 51.1203 128.629 50.5994 128.367 49.2474C128.154 48.1374 128.538 47.0204 128.54 46.1424C128.544 44.2004 127.395 41.8974 127.16 39.9314C127 38.5884 126.673 37.9644 126.643 37.1714C126.571 35.3174 127.788 34.9863 128.539 34.0663C128.782 33.7683 128.79 33.2173 129.057 32.8583C130.16 31.3733 131.989 30.0793 132.68 28.5453C133 27.8453 133.795 25.1614 133.546 24.0604ZM53.33 135.673C53.26 136.489 53.638 136.861 53.503 137.742C52.135 137.441 51.932 135.977 51.26 134.982C48.581 131.968 46.135 128.72 43.669 125.495C42.123 124.05 40.639 122.545 39.356 120.837C37.404 119.834 35.483 118.381 33.146 117.215C31.636 116.461 29.999 114.992 27.97 114.798C26.464 114.657 24.911 115.05 23.485 114.282C22.736 113.878 22.165 112.83 21.415 112.384C18.083 111.797 13.845 112.449 12.618 109.623C12.169 108.591 12.725 107.118 12.1 106.001C11.195 104.38 7.386 103.768 6.062 101.343C5.128 99.6304 5.277 97.7324 5.373 95.3074C8.352 90.9474 0.795997 86.9313 4.854 83.0583C6.208 84.5793 7.268 86.3943 7.959 88.5793C10.254 89.7923 11.559 91.9934 14.515 92.5464C15.875 94.4624 16.56 96.8814 17.793 98.9314C19.007 100.949 20.65 102.527 21.588 104.278C19.455 103.305 16.937 102.717 14.86 101.69C15.185 102.803 17.214 103.705 18.311 104.623C18.959 104.435 18.891 104.187 19.001 103.761C20.409 104.193 21.309 105.134 22.795 105.486C24.847 107.094 26.681 108.96 28.833 110.662C29.541 111.222 30.483 111.527 31.076 112.041C34.202 114.751 36.513 118.252 40.046 120.494C40.186 120.527 40.217 120.668 40.391 120.667C36.427 116.639 32.61 112.462 28.143 108.938C28.467 107.69 28.411 106.227 28.832 104.969C29.402 103.27 30.743 101.836 30.385 100.483C29.523 100.518 29.578 101.666 29.349 102.21C28.667 103.838 27.697 105.877 27.28 108.075C24.636 106.586 21.444 103.386 20.551 100.657C19.954 98.8303 21.182 97.2863 21.931 95.6543C22.98 93.3693 25.306 91.0213 24.519 88.4093C23.326 92.6783 20.609 95.4254 19.516 99.7944C17.195 96.2314 14.114 91.8114 12.788 86.8564C11.457 81.8834 19.247 80.3403 19.516 75.9883C18.124 77.0213 17.4 79.6094 15.548 79.6114C16.366 76.6334 18.034 74.5053 20.033 72.7113C18.306 73.3833 17.172 74.7823 16.066 76.5063C15.619 77.2023 14.966 78.0794 14.858 78.5754C14.721 79.2084 15.046 79.8783 14.858 80.4723C14.488 81.6433 13.057 82.8093 12.271 83.2333C11.785 74.1373 17.556 69.9183 19.344 62.5323C20.168 61.1263 22.551 58.8654 21.414 57.1844C20.261 57.9274 20.367 59.9333 19.171 60.6343C17.326 68.8383 10.201 73.7463 11.408 83.0613C11.68 85.1613 11.885 87.9393 12.616 89.9613C12.912 90.6983 14.057 90.5893 13.996 91.6863C11.737 91.1853 10.701 89.4603 8.821 88.5823C8.059 86.3543 6.83 84.5923 5.543 82.8893C5.896 81.7403 6.767 81.5664 6.922 80.4734C7.146 78.9164 6.048 77.0014 6.405 75.4714C7.094 72.5144 11.088 72.6204 11.925 69.6064C11.522 68.6584 11.561 67.9194 11.408 66.4994C12.649 64.9324 14.954 64.6524 16.41 63.3954C17.349 62.5854 17.828 61.5703 18.653 60.8083C18.521 59.0813 19.786 58.7363 19.861 56.8393C20.828 56.2273 22.412 55.8454 23.484 56.6664C22.918 58.6214 22.336 59.4044 22.277 60.9814C22.128 64.8674 26.651 66.5643 23.312 69.2613C22.717 69.7423 21.778 70.1823 21.587 70.6413C20.457 73.3493 24.594 75.2543 24.347 77.3703C24.214 78.5063 22.78 79.0014 22.277 79.9584C22.127 82.0054 23.28 82.7493 23.657 84.2693C25.081 85.5873 28.576 84.6324 29.005 86.5124C29.369 88.1074 27.315 89.2024 26.935 90.8254C27.265 94.6214 32.584 92.7604 32.973 95.8284C33.26 98.0904 30.426 99.3463 31.593 102.383C32.601 104.078 34.664 104.717 36.251 105.834C36.309 107.847 34.175 107.668 33.318 108.767C32.387 113.869 36.411 115.371 39.183 117.736C41.038 119.322 42.568 121.434 44.185 122.913C45.74 124.335 47.688 125.294 49.015 126.881C50.053 128.122 51.09 129.507 51.948 130.849C52.762 132.123 53.886 133.575 54.017 135.334C54.099 136.144 53.869 135.584 53.33 135.673ZM92.489 51.8334C93.633 50.2474 94.447 48.4394 95.593 47.1744C96.131 46.5844 96.895 46.2123 97.491 45.6233C99.023 44.1113 100.204 42.1064 101.632 40.7914C104.567 38.0914 108.974 36.8843 111.465 33.7193C113.382 32.6123 115.736 31.0334 118.364 32.5134C120.622 31.1644 120.927 28.3174 122.332 26.4744C124.022 24.2594 126.286 23.6774 129.06 22.8514C129.475 22.7284 129.867 22.3964 130.612 22.8514C129.397 24.9714 127.514 26.7744 125.782 28.5444C121.385 33.0374 116.703 37.5053 112.498 42.3443C111.647 43.3253 111.088 44.3883 110.257 45.4513C108.313 47.9303 105.736 50.6523 103.527 53.2143C100.81 56.3673 97.599 59.9853 93.867 62.3573C93.509 59.0073 94.432 55.6054 95.421 53.0414C96.193 52.3544 97.258 51.1183 96.799 49.7643C94.419 52.9673 92.608 58.1993 93.176 63.0473C90.732 66.5564 87.909 69.7333 85.241 73.2273C83.844 75.0553 82.464 76.9003 80.583 78.4023C79.074 70.5553 84.065 68.5774 85.069 62.5314C86.09 61.0814 86.842 59.3594 87.83 57.8744C88.158 57.5514 88.262 57.8554 88.692 57.8744C89.074 55.3394 90.974 53.9344 92.489 51.8334ZM81.275 66.1504C81.628 66.2014 81.615 66.6174 81.966 66.6684C81.663 66.9994 81.762 67.7314 81.103 67.7034C81.138 67.1644 80.987 66.4384 81.275 66.1504ZM82.14 66.4953C82.279 63.6073 83.963 60.1733 83.864 57.0083C84.447 59.6063 83.719 64.4483 82.14 66.4953ZM86.279 55.1114C87.139 55.7914 86.198 57.5214 86.106 58.3884C85.798 57.6164 86.3 56.1704 86.279 55.1114ZM87.141 56.4903C87.443 54.8363 87.562 53.0013 88.004 51.4883C89.098 52.8493 88.513 55.9893 87.141 56.4903ZM90.936 47.3484C90.338 47.4294 90.838 46.4113 90.42 46.3133C89.063 46.2213 89.87 48.2924 88.522 48.2113C88.468 49.0414 88.327 49.0183 88.349 50.1073C87.079 49.7843 87.596 51.6823 86.452 50.9703C85.391 53.9163 86.065 58.0553 84.555 60.8033C84.593 59.0583 84.825 56.0134 85.072 53.9034C84.87 53.9304 84.765 53.8653 84.727 53.7303C83.721 53.6433 84.424 55.2673 83.691 55.4563C83.731 52.1623 83.297 48.4934 84.554 45.4504C86.34 43.8434 88.182 42.2924 90.247 40.9654C91.412 42.5864 92.272 45.5604 90.936 47.3484ZM87.832 41.3103C88.273 39.9674 88.853 38.7663 89.212 37.3423C89.674 38.0863 89.581 39.3873 90.074 40.1023C89.343 40.4443 88.691 41.6544 87.832 41.3103ZM77.998 3.18535C78.223 5.15035 79.459 6.81633 79.379 8.53233C80.435 12.6283 86.365 13.0923 86.796 18.0213C86.95 19.7713 85.834 21.6403 86.106 23.5423C86.338 25.1723 88.026 26.2554 89.039 27.8534C89.839 29.1184 90.889 31.2963 90.936 32.8573C91.055 36.6463 86.955 38.1523 86.97 42.3443C86.107 43.0933 85.299 43.8924 84.209 44.4144C84.55 36.0934 83.786 29.5363 81.967 23.1963C81.198 20.5153 80.548 17.7094 79.724 15.2604C78.762 12.3994 76.183 6.39637 76.274 7.15337C75.016 5.52537 75.667 0.55635 77.998 3.18535ZM73.169 25.0943C73.042 22.8593 75.082 21.5244 75.756 19.2284C75.614 16.7764 74.958 15.3023 74.031 13.3633C74.752 12.0133 76.15 11.3423 76.446 9.56835C78.813 13.9253 80.752 21.5054 82.139 27.8534C82.835 31.0484 83.887 35.1884 83.346 39.5854C81.95 36.4964 80.695 33.2673 77.48 31.9953C76.742 30.8693 75.537 29.6953 75.065 28.5453C74.546 27.2763 73.229 26.1713 73.169 25.0943ZM78.17 68.9114C77.024 68.1454 76.91 67.3374 76.274 65.8064C76.035 65.2294 75.463 64.6254 75.412 64.2544C75.152 62.3774 76.468 60.5704 76.274 59.0784C75.786 55.3334 70.3 52.9874 71.961 49.0733C72.617 47.5253 74.771 46.3494 74.894 44.7604C74.99 43.5254 73.526 42.2033 73.169 40.6203C72.839 39.1673 72.562 38.1744 72.478 36.6514C74.304 35.3734 74.886 32.8483 75.238 30.0953C77.324 32.7253 80.561 34.2034 81.793 37.6874C79.655 37.5244 78.841 36.0394 76.962 35.6174C78.253 36.8004 79.238 38.2864 81.966 38.0314C82.483 39.5104 82.301 41.2783 82.483 42.3443C83.269 42.6273 83.028 41.5074 83.518 42.0004C82.313 50.8454 83.56 58.0444 81.62 65.8064C80.875 64.3704 82.185 61.9614 81.274 60.4584C80.137 63.1094 81.53 68.5794 79.722 70.9814C79.343 68.3684 80.167 65.0214 80.239 61.8384C79.422 62.2854 79.295 62.5214 78.515 62.3564C77.95 64.7224 78.848 67.0234 78.17 68.9114ZM78.689 71.1543C78.652 69.7393 78.684 68.3893 78.86 67.1863C79.522 67.8863 79.327 70.6153 78.689 71.1543ZM66.612 67.3583C66.164 67.8233 66.092 67.1473 65.578 67.1863C65.868 69.0873 65.054 69.8813 63.852 70.2903C63.415 67.4183 65.058 65.3433 64.887 62.1833C66.146 63.2013 66.929 65.3043 66.612 67.3583ZM8.305 36.9974C8.979 35.3914 8.837 33.0993 10.03 32.1673C13.646 30.2563 16.084 28.5723 21.244 28.8893C22.292 28.9523 23.284 29.5383 24.348 29.5793C26.81 29.6743 30.341 28.2234 33.319 28.0264C37.17 27.7724 39.121 30.7854 41.599 32.5124C43.836 34.0674 46.644 34.2724 48.845 35.0993C49.714 35.4244 51.698 36.3664 52.295 36.9974C54.385 39.2044 54.074 43.4524 56.436 45.4504C57.928 46.7114 59.224 46.8193 60.231 48.7273C58.522 50.3583 58.174 54.2524 56.091 54.9374C56.67 50.5244 54.016 47.9554 53.158 44.4144C51.615 46.2994 54.293 47.9583 54.883 49.9353C55.434 51.7853 55.597 54.3043 55.055 56.4903C55.872 57.5553 55.231 59.6344 54.711 60.4584C52.107 57.7344 50.421 53.5934 47.81 50.2804C46.969 49.2124 45.612 48.2833 45.223 47.3473C44.84 46.4283 45.099 45.3504 44.878 44.4134C43.987 40.6504 41.362 37.8544 39.013 35.6164C36.529 33.2484 33.503 31.5934 30.56 29.5784C30.61 30.6984 32.071 31.1634 32.974 31.8204C33.89 32.4874 34.622 33.4633 35.562 34.0633C36.951 34.9503 38.56 35.5753 39.529 36.9963C36.736 37.5453 35.073 35.4734 32.456 35.2704C34.724 36.5684 37.5 37.3583 39.874 38.5483C40.266 39.1653 40.391 37.9004 40.565 38.3754C42.624 40.0924 43.916 43.1683 44.187 46.1393C40.645 44.0013 36.583 41.0933 30.73 40.4463C22.906 39.5823 14.803 33.7894 7.096 38.8934C6.758 38.2114 7.914 37.9244 8.305 36.9974ZM4.854 39.7574C4.449 40.2724 3.978 40.7214 3.129 40.7914C3.386 40.1294 4.213 40.0374 4.854 39.7574ZM66.44 104.966C67.575 108.573 64.603 111.783 62.989 114.282C63.707 110.717 64.978 108.079 66.44 104.966ZM69.2 127.393C69.214 126.544 69.913 126.381 69.89 125.496C70.622 126.414 70.109 127.899 70.581 129.291C69.606 130.732 69.029 132.57 68.337 134.294C69.027 134.004 69.465 131.972 70.063 131.016C70.183 132.404 68.989 133.966 68.51 135.33C68.776 135.751 69.006 134.69 69.2 134.467C68.667 140.26 67.076 146.489 66.44 152.753C63.688 150.052 66.017 147.16 67.13 144.3C65.427 144.224 65.87 147.742 64.37 148.441C63.656 142.349 66.073 137.098 66.957 131.534C68.442 131.122 68 128.782 69.2 128.086C68.932 129.944 68.083 131.224 67.647 132.916C68.359 131.502 70.351 128.983 69.2 127.393ZM69.718 167.932C68.528 167.345 68.224 163.882 70.408 164.828C70.563 166.248 69.848 166.798 69.718 167.932ZM71.098 165.518C71.39 166.332 70.902 167.848 70.408 168.451C70.398 167.232 71.108 166.733 71.098 165.518ZM69.2 169.313C68.89 169.29 68.836 169.525 68.51 169.485C68.427 169.092 68.169 168.605 68.51 168.278C69.062 168.301 69.269 168.668 69.2 169.313ZM67.992 158.271C67.348 157.592 67.886 155.733 67.302 154.994C68.684 148.486 68.926 142.578 70.581 136.19C71.337 143.545 69.143 151.866 67.992 158.271ZM67.13 169.83C65.891 168.611 67.31 167.483 67.992 166.725C68.285 167.085 68.15 168.487 67.302 168.278C67.532 169.027 67.4 169.24 67.13 169.83ZM67.82 169.83C68.487 170.033 68.135 171.442 67.302 171.211C67.182 170.458 67.801 170.443 67.82 169.83ZM66.268 167.242C66.099 165.98 66.723 165.512 66.958 164.655C67.49 164.682 67.934 164.247 68.338 164.655C67.757 165.626 67.348 166.771 66.268 167.242ZM51.087 175.005C49.109 175.753 48.045 178.258 45.394 177.766C45.215 176.61 46.315 176.731 46.773 176.213C46.435 176.222 45.455 176.551 45.048 175.867C43.919 175.889 43.849 176.969 42.806 177.076C42.955 176.408 42.384 176.462 42.287 176.041C41.334 175.95 40.661 176.139 39.872 176.213C39.434 174.465 37.855 173.859 37.284 172.244C38.474 170.732 39.672 169.227 41.08 167.931C42.05 168.169 41.895 169.533 43.15 169.484C42.131 170.938 40.888 172.167 39.7 173.453C42.11 172.125 43.382 169.659 46.083 168.623C46.039 169.64 46.656 170.13 47.462 170.693C46.937 171.777 45.768 172.216 45.047 173.107C46.847 172.547 48.371 170.221 50.568 169.484C50.229 170.338 50.786 170.279 51.603 170.347C51.386 171.855 50.121 172.315 49.533 173.452C50.934 173.069 51.375 170.233 53.501 170.002C53.676 170.228 53.669 170.638 53.845 170.864C53.074 172.277 52.032 173.421 51.085 174.658C53.002 173.184 54.166 170.955 57.468 170.864C57.186 172.365 56.525 173.485 56.433 175.177C55.155 174.496 54.697 176.467 53.328 175.695C52.631 176.148 52.561 177.229 51.43 177.248C51.592 176.358 51.761 175.437 51.087 175.005ZM35.215 173.797C35.993 171.987 37.641 172.456 38.148 174.143C37.726 175.101 36.933 175.687 35.905 176.041C35.675 175.507 36.235 173.954 35.215 173.797ZM36.079 169.313C37.274 169.586 38.323 167.925 39.356 168.105C39.201 169.906 37.897 170.557 36.941 171.555C36.389 171.139 35.903 169.898 36.079 169.313ZM39.701 176.387C39.293 176.597 38.5 176.997 38.148 176.731C38.24 175.976 39.538 175.125 39.701 176.387ZM62.128 157.755C61.861 156.583 61.83 155.176 61.782 153.787C62.6 154.116 63.624 153.381 63.162 152.061C62.321 151.852 62.583 152.747 61.955 152.75C61.45 151.202 61.971 149.064 61.609 147.23C61.578 147.083 61.676 147.068 61.782 147.058C64.367 151.43 66.792 155.964 66.784 162.928C64.725 163.624 63.075 162.831 61.782 161.894C61.963 158.51 64.047 157.028 65.405 154.822C63.578 155.065 63.518 157.074 62.128 157.755ZM61.782 166.38C61.322 167.875 60.139 168.647 58.677 169.141C58.617 168.217 58.984 167.721 59.195 167.071C59.887 166.669 60.768 166.458 61.782 166.38ZM57.815 165.344C57.316 165.269 57.028 164.982 56.952 164.482C57.793 164.345 58.392 163.967 58.505 163.102H59.195C58.931 164.046 58.572 164.894 57.815 165.344ZM58.332 170.865C58.718 171.338 57.906 171.717 57.814 172.244C57.152 172.047 57.751 170.884 58.332 170.865ZM57.297 167.588C57.55 167.181 58.629 167.392 58.333 168.105C57.665 168.255 57.719 167.683 57.297 167.588ZM54.364 168.623C54.78 168.692 54.739 168.308 55.226 168.45C55.196 168.994 55.105 169.479 54.537 169.484C54.679 168.998 54.294 169.038 54.364 168.623ZM53.674 168.104C53.853 166.644 55.733 165.092 56.779 166.551C56.045 167.37 54.954 167.832 53.674 168.104ZM57.125 170.175C56.598 170.05 56.496 170.352 56.09 170.348C56.052 169.988 57.13 169.415 57.125 170.175ZM51.95 165.861C51.978 165.662 51.912 165.555 51.777 165.517C53.101 164.187 55.653 163.193 57.47 162.928C56.06 164.231 53.659 165.434 51.95 165.861ZM52.467 168.277C52.687 168.857 51.593 168.989 51.432 168.623C51.269 167.999 52.111 168.381 52.467 168.277ZM59.195 171.037C59.937 171.007 59.79 172.516 59.539 172.935C61.29 173.591 62.855 172.572 64.198 172.244C64.29 173.028 63.85 173.278 63.68 173.797C62.077 172.704 61.683 175.053 60.576 175.524C59.935 175.473 60.109 174.611 59.367 174.66C57.914 174.762 57.689 176.087 56.952 176.903C55.695 174.82 57.731 172.067 59.195 171.037ZM60.92 171.555C60.05 167.675 63.311 166.952 65.405 165.518C65.698 165.454 65.73 165.653 65.75 165.862C64.457 168.077 63.246 170.374 60.92 171.555ZM65.405 167.588C66.427 168.221 64.704 168.905 64.542 169.484C64.243 168.948 65.241 168.234 65.405 167.588ZM65.75 169.141C66.409 169.06 66.422 170.144 66.268 170.348C65.713 169.958 65.124 170.5 64.715 170.175C65.004 169.774 65.477 169.558 65.75 169.141ZM67.13 130.843C67.203 129.362 68.048 128.656 68.337 127.393C68.418 128.339 67.951 130.224 67.13 130.843ZM67.992 126.875C67.73 126.032 68.495 124.734 68.855 123.942C69.554 124.569 68.24 126.055 67.992 126.875ZM66.785 125.149C65.932 128.216 65.765 131.753 64.888 134.982C63.985 138.309 63.155 141.418 62.472 144.297C61.571 142.488 61.924 139.774 62.299 137.915C63.078 134.067 64.632 130.453 65.06 126.357C65.57 121.478 67.097 117.489 67.475 112.728C70.173 116.86 67.97 120.89 66.785 125.149ZM56.435 138.606C56.375 139.236 56.417 139.969 55.746 139.985C55.596 139.214 55.327 138.565 55.4 137.572C55.817 137.843 56.162 138.188 56.435 138.606ZM54.537 138.088C55.203 139.304 55.641 141.527 55.572 142.918C54.808 141.727 54.759 139.82 54.537 138.088ZM56.952 150.164C56.392 149.841 56.427 151.588 55.745 151.717C57.242 143.088 58.06 133.885 60.575 125.495C60.573 125.037 60.64 124.51 60.402 124.287C60.566 123.703 60.991 123.381 61.264 122.907C61.299 117.874 63.713 113.746 65.922 110.313C65.941 114.875 65.033 120.003 63.162 123.252C63.223 123.493 63.466 123.266 63.507 123.078C63.706 124.832 63.148 127.319 62.299 128.599C62.148 129.154 62.867 128.835 62.818 129.289C62.177 133.943 59.898 136.416 60.402 141.882C60.39 142.653 60.007 142.103 59.712 142.401C59.851 143.125 60.182 143.656 60.402 144.297C60.025 150.156 60.535 155.815 59.885 161.548C57.854 161.415 56.318 161.776 54.364 161.722C55.069 157.711 55.104 153.031 56.952 150.164ZM53.33 163.273C51.347 165.03 48.156 165.575 46.085 167.242C44.262 166.714 43.944 168.512 42.635 167.931C43.035 166.702 44.498 166.789 45.567 166.379C47.436 165.66 48.756 164.579 51.088 164.136C51.498 163.513 52.072 163.052 53.33 163.273ZM47.637 164.31C46.182 165.556 43.902 165.979 42.116 166.896C41.554 166.826 41.211 166.538 40.908 166.206C39.312 166.727 36.728 168.706 35.387 166.896C38.609 165.173 43.294 164.912 47.637 164.31ZM34.698 168.45C34.762 168.973 34.136 168.808 33.836 168.967C33.864 169.17 34.151 169.113 34.353 169.141C33.968 170.249 32.494 170.271 31.938 171.211C32.752 170.986 34.189 169.898 35.561 169.657C35.818 170.55 36.528 170.99 36.423 172.244C35.208 173.043 34.05 173.896 32.8 174.659C31.115 173.471 29.493 172.216 29.35 169.484C30.751 168.556 33 167.098 34.698 168.45ZM34.353 176.041C33.739 176.079 33.451 175.792 33.49 175.178C33.853 175.049 34.163 175.05 34.526 175.178C34.597 175.594 34.211 175.553 34.353 176.041ZM31.938 175.35C31.07 175.472 30.8 174.993 30.903 174.143C31.684 174.109 31.887 174.654 31.938 175.35ZM28.66 169.657C29.148 170.031 29.357 170.685 29.523 171.383C29.319 171.184 28.913 171.188 28.487 171.211C28.863 171.984 30.162 171.836 30.04 173.108C29.419 173.062 29.209 173.427 28.66 173.454C28.226 172.623 27.797 171.787 27.281 171.038C27.58 170.417 28.262 170.179 28.66 169.657ZM27.281 171.727C27.04 172.348 26.343 173.24 25.556 172.761C25.698 171.963 26.697 171.049 27.281 171.727ZM59.712 255.568C58.905 255.109 58.78 253.969 58.505 252.98C59.321 253.142 59.357 254.082 60.058 254.359C60.538 254.861 59.491 254.808 59.712 255.568ZM93.869 174.833C95.385 174.104 95.33 171.808 97.665 171.9C97.673 171.374 97.508 171.021 97.147 170.865C98.91 171.224 100.691 172.829 101.998 174.294C102.246 174.435 102.47 174.64 102.644 174.928C102.699 175.021 102.763 175.108 102.821 175.199C102.827 175.193 102.834 175.182 102.841 175.178C103.737 176.07 105.518 177.331 105.339 178.655C105.415 178.75 105.49 178.845 105.567 178.94C105.655 178.797 105.778 178.691 106.117 178.801C107.302 180.956 109.121 182.475 109.955 184.979C110.023 185.104 110.101 185.22 110.164 185.347C110.553 186.103 110.908 186.862 111.242 187.627C111.26 187.618 111.273 187.606 111.293 187.599C111.316 187.686 111.324 187.77 111.341 187.855C111.562 188.373 111.77 188.894 111.971 189.418C112.278 189.625 112.348 189.922 112.282 190.239C112.331 190.376 112.378 190.513 112.426 190.651C112.451 190.611 112.477 190.571 112.501 190.532C113.561 192.111 114.92 195.042 114.318 197.347C114.352 197.521 114.386 197.699 114.417 197.877C114.459 197.774 114.504 197.68 114.573 197.606C114.753 197.999 114.7 198.33 114.542 198.631C114.571 198.816 114.595 199.001 114.619 199.189C114.717 199.129 114.816 199.105 114.917 199.157C114.892 199.498 114.814 199.786 114.71 200.048C114.745 200.455 114.773 200.861 114.782 201.269C114.826 201.253 114.869 201.235 114.917 201.23C114.965 201.933 114.874 202.567 114.703 203.16C114.615 203.94 114.441 204.685 114.177 205.373C114.251 205.314 114.32 205.252 114.4 205.198C113.768 209.144 111.498 213.448 108.707 216.582C106.587 218.965 105.057 220.053 102.497 222.103C101.612 222.812 100.66 223.889 100.043 223.434C99.939 223.547 99.826 223.643 99.7 223.72C99.783 223.893 99.854 224.097 99.91 224.346C98.387 225.239 97.044 226.311 95.425 227.108C94.677 226.777 94.279 226.096 93.855 225.445C93.662 225.354 93.476 225.224 93.299 225.038C93.194 224.926 92.51 224.06 92.382 224.102C92.371 224.105 92.361 224.106 92.352 224.108C92.485 224.335 92.549 224.581 92.492 224.866C93.253 225.714 94.388 226.19 94.563 227.625C91.815 228.157 90.08 229.699 87.49 230.387C86.519 230.149 86.576 228.884 85.419 228.834C84.909 229.704 86.427 229.843 86.455 230.73C84.621 231.714 82.457 232.368 80.071 232.8C79.048 230.497 78.192 228.029 76.693 226.2C76.667 226.419 76.591 226.629 76.484 226.824C77.228 228.003 78.031 229.124 78.865 230.212C78.107 231.413 79.106 232.046 79.383 233.146C78.322 233.868 76.243 233.572 74.898 234.009C74.74 233.532 74.581 233.059 74.035 232.973C73.28 233.123 74.127 233.871 73.688 234.18C71.763 234.9 69.57 235.351 67.996 236.423C67.249 236.48 67.573 235.468 66.788 235.56C65.972 235.873 67.137 236.232 66.961 236.941C65.05 239.37 62.559 241.262 63.338 245.565C62.895 246.025 63.092 245.235 62.648 245.221C62.414 245.926 63.046 246.764 62.821 247.981C61.901 247.986 61.725 246.502 60.75 247.119C60.933 248.203 62.265 248.134 62.648 249.017C62.755 250.102 62.152 250.476 62.131 251.432C62.754 251.48 62.526 250.675 62.821 250.397C63.196 251.262 63.388 252.737 63.393 254.191C63.486 254.207 63.579 254.225 63.669 254.262C63.736 254.289 63.79 254.323 63.853 254.353C63.866 252.963 63.683 251.488 63.51 250.051C64.417 251.57 65.224 254.074 65.753 255.4C65.266 255.368 65.538 254.581 64.891 254.71C64.923 254.888 64.955 255.065 64.986 255.242C65.108 255.417 65.217 255.61 65.31 255.842C65.446 256.182 65.466 256.566 65.422 256.936C65.595 257.108 65.762 257.285 65.931 257.46C65.862 257.071 65.794 256.681 65.754 256.264C67.769 256.985 68.877 259.568 70.067 261.61C70.654 262.621 71.311 263.659 71.964 264.717C73.353 266.965 74.76 269.519 74.897 273.169C75.308 272.177 74.629 270.795 74.724 269.546C78.781 275.372 82.592 283.841 81.452 293.18C80.513 292.304 81.061 290.446 80.935 289.385C80.308 284.114 76.887 280.352 75.242 276.101C75.186 275.467 75.389 274.575 75.071 274.205C74.411 273.853 74.402 275.005 74.208 274.549C72.242 271.628 69.322 269.661 68.17 265.924C65.931 265.403 65.201 263.373 64.376 261.44C62.718 260.508 62.026 258.614 60.581 257.472V255.402C61.311 255.418 61.383 256.099 60.926 256.436C61.199 256.696 61.466 256.981 61.732 257.268C61.749 257.183 61.771 257.102 61.801 257.02C61.49 256.639 61.344 256.154 61.471 255.594C60.347 253.883 59.445 251.953 57.649 250.916C57.72 250.501 57.334 250.54 57.477 250.053C56.974 249.407 56.399 248.83 55.752 248.328C55.553 246.366 53.108 245.841 53.336 244.015C54.225 243.747 54.553 245.409 55.406 245.741C55.167 244.884 53.867 243.6 53.164 242.634C52.555 242.774 52.721 243.688 51.956 243.669C50.159 241.786 48.209 240.056 45.4 239.184C45.517 238.522 46.127 237.749 45.228 237.458C44.462 237.44 44.628 238.354 44.02 238.494C41.269 237.392 38.407 236.402 36.43 234.526C36.591 234.399 36.691 234.213 36.776 234.009C37.804 234.01 37.971 234.908 38.845 234.18C38.184 233.404 37.517 232.632 36.085 232.627C35.81 233.101 35.713 233.751 35.395 234.18C32.77 233.299 30.461 232.098 29.012 230.04C29.054 230.031 29.097 230.033 29.138 230.029C28.605 229.498 28.074 229.001 27.55 228.524C25.202 227.436 23.285 225.918 22.284 223.485C22.388 223.546 22.491 223.621 22.595 223.689C22.126 223.096 21.7 222.464 21.328 221.772C18.38 218.882 16.436 214.987 15.384 210.202C15.509 210.111 15.624 210.095 15.735 210.106C15.611 209.726 15.499 209.342 15.396 208.957C14.499 207.678 13.974 206.025 14.177 203.645C14.231 203.69 14.285 203.736 14.339 203.78C14.255 203.333 14.176 202.882 14.103 202.422C14.013 202.313 13.918 202.203 13.832 202.092C13.893 201.638 13.891 201.167 13.854 200.684C13.804 200.277 13.758 199.869 13.717 199.459C13.567 198.341 13.383 197.154 13.487 195.882C13.491 195.886 13.494 195.89 13.499 195.895C13.494 195.646 13.494 195.397 13.492 195.149C13.433 195.105 13.378 195.058 13.315 195.02C13.174 193.519 13.118 191.752 13.487 190.017C13.579 190.157 13.671 190.296 13.763 190.435C14.011 188.453 14.438 186.53 15.092 184.744C15.476 183.695 16.134 182.561 16.924 181.461C16.929 181.439 16.93 181.416 16.937 181.393C16.946 181.398 16.954 181.404 16.963 181.409C17.331 180.9 17.728 180.402 18.14 179.919C18.143 179.833 18.132 179.757 18.145 179.669C18.262 178.842 18.998 178.416 19.698 177.942C19.768 177.976 19.829 178.018 19.897 178.052C20.157 177.805 20.412 177.571 20.665 177.353C20.565 177.206 20.471 177.054 20.388 176.907C20.501 176.273 21.024 176.048 21.423 175.7C21.704 175.875 21.97 176.064 22.227 176.263C22.417 176.167 22.609 176.078 22.807 176.001C22.578 175.649 22.394 175.269 22.286 174.838C22.693 174.785 22.606 174.238 23.148 174.32C23.454 174.767 23.771 175.203 24.084 175.642C24.31 175.603 24.538 175.577 24.767 175.558C24.762 175.382 24.788 175.202 24.873 175.01C25.062 175.187 25.259 175.355 25.45 175.53C26.142 175.531 26.837 175.611 27.509 175.776C27.53 175.781 27.549 175.791 27.571 175.797C27.796 175.336 28.324 175.179 28.67 174.839C29.275 174.808 29.238 175.421 29.706 175.529C29.776 175.113 29.391 175.154 29.533 174.665C30.602 175.36 29.516 176.338 30.913 176.908C30.83 176.241 32.055 176.335 32.639 175.873C33.869 176.483 34.671 177.521 35.744 178.288C36.341 177.774 34.643 177.437 35.226 176.908C37.184 177.349 39.049 178.295 40.919 177.082C41.32 177.55 40.516 178.28 40.574 178.978C40.803 179.567 42.697 179.425 42.988 178.633C45.433 179.751 48.116 178.317 50.233 177.253C50.121 177.997 50.531 178.22 50.751 178.633C53.323 179.077 53.222 176.847 55.409 176.907C55.809 177.311 55.615 178.311 56.271 178.461C57.922 178.329 57.811 176.435 58.859 175.7C60.325 176.594 57.97 177.586 59.032 178.633C61.17 178.93 61.026 176.947 62.137 176.218C63.099 176.347 62.444 178.097 63.344 178.287C64.694 178.086 64.786 176.623 65.759 176.046C66.154 176.399 65.709 177.59 66.104 177.942C67.75 178.037 67.939 176.671 69.209 176.391C69.521 177.112 69.195 178.472 69.555 179.15C70.168 179.189 70.589 179.034 70.761 178.632C71.142 178.769 70.986 179.444 71.452 179.493C73.365 179.108 73.996 177.44 75.765 176.906C76.427 180.509 79.221 176.472 80.25 175.699C80.771 175.524 80.557 176.083 80.595 176.39C82.152 175.875 83.095 174.747 84.564 174.146C84.803 174.367 84.67 174.96 84.909 175.181C87.516 175.776 87.254 173.501 88.703 172.939C88.869 173.464 89.052 173.97 89.222 174.491C90.876 174.651 90.669 172.949 91.464 172.248C92.277 172.185 92.145 173.064 92.671 173.284C93.71 172.885 94.014 171.752 94.569 170.869C96.419 171.634 94.56 173.995 93.869 174.833ZM94.387 169.313C94.348 169.965 93.844 170.15 93.697 170.694C93.057 170.108 93.013 170.671 92.317 170.866C91.832 169.345 93.134 167.909 94.387 169.313ZM89.212 167.588C89.238 168.017 88.94 168.121 88.866 168.45C87.933 168.004 87.034 167.521 86.623 166.552C87.737 166.646 88.68 166.91 89.212 167.588ZM87.314 168.795C86.31 168.4 84.758 167.109 84.036 165.861C85.491 166.479 86.65 167.389 87.314 168.795ZM81.621 165.861C82.56 166.589 82.809 168.009 84.036 168.45C83.92 167.645 83.04 167.606 83.173 166.552C84.039 167.872 85.755 168.341 86.796 169.485C86.633 170.701 85.651 171.1 85.244 172.073C86.378 171.254 87.177 170.095 87.832 168.796C89.083 169.246 87.48 170.539 87.314 171.212C88.036 170.84 88.103 169.816 88.866 169.485C89.798 169.646 90.094 170.444 91.109 170.52C90.457 170.08 89.943 169.501 89.213 169.141C89.116 168.353 89.863 168.411 89.729 167.588C90.643 167.823 91.417 168.199 92.317 168.45C92.182 170.673 90.563 171.41 89.729 172.935C89.829 171.858 89.196 171.512 88.522 171.21C87.497 172.024 87.556 173.924 85.762 173.97C85.717 173.465 86.152 173.44 86.107 172.935C86.036 172.546 85.163 172.96 85.245 172.418V172.072C83.692 172.589 83.472 174.439 81.622 174.659C81.732 174.264 81.963 173.62 81.622 173.28C79.327 173.919 79.12 176.642 76.791 177.248C76.666 176.259 77.691 175.696 77.137 174.833C75.313 175.482 74.406 177.046 72.825 177.937C72.204 177.923 72.686 176.809 72.305 176.557C71.258 176.372 71.13 177.107 70.235 177.076C70.218 176.197 70.596 175.712 70.582 174.833C70.484 174.585 70.312 174.411 70.064 174.315C68.58 174.328 68.308 175.55 67.476 176.213C66.876 175.895 67.195 174.653 66.613 174.315C64.601 174.028 65 176.152 63.681 176.558C63.141 175.123 64.986 174.665 65.061 173.281C66.48 173.233 67.73 173.353 68.165 174.66C68.622 174.194 67.571 173.769 67.821 172.936C68.29 172.428 68.497 171.658 69.028 171.211C70.005 171.211 70.223 171.969 70.926 172.244C70.71 171.483 69.913 171.304 69.891 170.348C70.565 170.306 70.514 170.989 70.753 171.383C73.969 171.849 75.952 173.545 79.206 173.971C77.077 172.65 74.509 171.767 72.825 170.003C72.867 169.472 73.199 169.227 73.34 168.795C73.603 169.224 73.674 169.842 73.684 170.52C74.741 170.415 73.56 168.938 74.203 168.278C75.09 168.542 75.288 169.493 75.756 170.176C76.236 170.255 75.62 169.237 76.101 169.314C78.066 169.994 78.864 171.84 81.275 172.074C79.823 170.928 75.39 168.855 78.17 166.726C78.227 167.417 78.64 167.751 78.861 168.279C79.42 168.493 78.993 167.721 79.55 167.933C81.136 169.224 81.682 171.553 84.036 172.074C83.169 170.002 80.068 169.266 80.413 166.553C81.572 166.66 81.626 167.871 82.484 168.278C82.75 167.602 81.568 166.896 81.621 165.861ZM72.478 164.827C72.616 164.918 72.758 165.007 72.995 165C73.47 166.692 72.901 168.495 71.788 169.141C70.484 168.316 72.319 166.3 72.478 164.827ZM73.684 165.172C74.412 164.974 74.549 166.252 74.203 166.552C73.625 166.499 73.72 165.771 73.684 165.172ZM76.101 165.344C76.462 164.969 76.594 165.431 77.136 165.344C77.14 165.982 77.06 166.534 76.446 166.552C76.475 166.007 75.988 165.976 76.101 165.344ZM80.068 163.273C79.941 163.804 80.542 163.605 80.413 164.136C79.369 163.936 78.848 164.236 77.998 163.79C77.865 162.022 80.683 161.645 79.55 159.995C79.631 159.443 80.208 159.388 80.241 158.788C80.635 159.704 81.373 162.822 80.068 163.273ZM77.309 152.062C76.834 150.855 76.91 148.427 77.481 147.231C78.635 148.446 78.473 151.051 77.309 152.062ZM76.79 144.989C77.306 145.105 77.368 145.674 77.309 146.367C76.56 146.483 76.844 145.567 76.79 144.989ZM78.517 151.199H79.034C79.713 153.565 77.722 154.393 77.137 156.028C77.17 156.169 77.31 156.201 77.31 156.374C78.795 156.193 78.323 154.053 79.724 153.787C80.01 155.11 80.14 156.591 80.413 157.926C78.957 157.957 78.533 160.38 76.962 160.859C77.188 161.844 78.133 160.91 78.516 161.205C78.266 161.76 77.872 162.172 77.653 162.759C77.236 162.828 77.277 162.443 76.79 162.585C76.28 162.837 77.018 163.259 76.79 163.792H75.926C75.947 159.438 76.316 153.946 78.517 151.199ZM75.927 167.07C75.132 166.886 74.807 166.236 74.894 165.172C75.475 165.569 75.684 166.337 75.927 167.07ZM73.684 132.223C74.925 140.742 76.37 147.942 75.238 156.893C74.954 159.136 73.878 160.984 73.858 163.448C72.24 163.611 70.172 163.639 68.51 163.102C70.406 153.869 73.29 142.557 72.305 131.361C71.515 122.379 68.701 113.124 68.164 106.173C67.965 103.588 68.358 101.682 67.82 99.6183C67.356 97.8433 66.528 95.5673 65.922 94.6153C63.896 91.4273 59.182 94.1223 56.434 93.0633C53.883 92.0803 54.523 88.3744 53.673 85.2994C51.967 84.0164 48.457 84.5344 46.773 83.2294C45.269 80.1334 45.564 75.2394 40.908 75.2934C39.141 72.6894 39.771 67.6894 37.631 65.4604C36.501 65.0374 35.341 64.6433 34.181 64.2533C32.55 62.3893 33.868 59.2063 33.145 56.8343C32.398 54.3863 30.324 53.6463 27.107 53.5583C25.876 51.7993 26.532 48.1523 24.864 46.8293C21.513 45.7803 18.628 47.2523 15.894 47.8653C14.169 46.7153 14.75 43.2593 12.961 42.1723C8.035 40.6443 7.499 46.0144 2.439 45.4504C-0.326004 43.2494 3.334 41.8943 5.543 40.6203C9.605 38.2753 13.688 36.7223 19.689 38.2043C21.538 38.6613 23.335 39.6163 25.381 40.1023C29.674 41.1203 33.434 41.4314 36.939 43.0364C42.522 45.5904 47.359 50.3523 50.049 54.9383C47.7 54.8983 44.524 54.7563 41.423 54.9383C40.489 54.9933 38.879 54.2563 38.836 55.6283C41.433 54.8893 45.666 55.7203 48.669 55.4573C49.435 55.7263 50.005 56.1903 50.911 56.3193C54.331 63.0003 59.9 68.1274 60.917 76.6744C57.732 74.2814 56.032 70.4033 51.257 69.6023C50.133 69.1053 49.275 67.7804 47.978 67.3594C46.998 67.0414 45.67 67.5743 45.046 66.4963C44.64 66.9143 45.587 67.4433 45.736 67.8783H47.634C50.128 69.8683 54.057 70.4254 55.914 73.0524C53.288 74.3574 48.755 72.2604 46.77 74.4344C49.083 73.1454 54.226 75.0224 56.603 73.5704C59.006 74.7334 60.075 77.2304 61.606 79.2634C61.991 84.1074 63.857 87.6934 65.747 91.1664C66.686 92.8954 66.772 94.8143 67.989 96.5143C67.654 89.7773 62.495 86.9433 62.986 79.9543C61.38 77.1823 61.536 73.8773 60.572 70.9823C59.304 67.1803 56.495 64.3333 54.879 61.1493C56.119 60.4343 56.168 58.5284 56.258 56.6634C58.4 54.9524 58.887 51.5874 60.571 49.4194C61.949 50.8974 61.364 52.2794 61.605 54.2494C61.939 56.9694 64.215 58.9444 64.538 60.9784C64.867 63.0384 63.46 65.2834 63.158 67.7054C62.873 69.9944 63.523 72.1754 61.433 73.3984C62.472 73.9214 62.411 72.0013 63.848 72.3633C63.868 71.0923 64.908 69.8824 66.436 69.6034C67.32 72.5144 68.582 75.0473 69.196 78.2273C68.787 80.5173 67.896 82.6493 67.643 84.9563C67.295 88.1413 68.197 91.6304 68.506 94.7894C68.563 95.3633 68.962 95.9193 69.023 96.5143C69.176 98.0133 68.664 99.5854 68.85 101.172C69.07 103.028 70.092 104.878 70.576 106.864C72.4 114.352 72.441 123.673 73.684 132.223ZM76.79 99.7903C74.751 102.351 74.322 106.522 72.305 109.106C72.026 106.854 71.174 105.177 70.752 103.068C73.489 97.3523 76.169 91.5773 80.413 87.3703C80.581 87.3753 80.547 87.5804 80.585 87.7154C80.575 92.1914 77.483 95.9953 76.79 99.7903ZM82.14 86.5083C82.273 85.8373 82.375 85.1343 82.829 84.7823C83.246 85.3233 82.732 86.4044 82.14 86.5083ZM129.234 31.1313C127.736 33.0003 125.874 34.0244 125.611 36.1354C125.21 39.3554 126.728 42.3163 127.163 45.2773C127.473 47.3843 128.191 50.3793 126.991 51.6603C126.995 51.6563 125.394 52.7903 125.266 52.8683C123.167 54.1403 120.393 54.7104 119.4 56.8354C118.944 58.7734 119.602 60.9143 119.053 62.8733C118.534 64.7333 116.382 67.2584 115.088 67.7034C113.541 68.2364 111.623 67.5244 110.258 68.3934C108.397 69.5784 109.134 72.6063 107.668 74.7773C107.082 75.6443 105.599 76.6744 104.219 76.8464C101.024 77.2444 99.761 74.7474 96.455 75.9844C95.86 76.8284 95.562 77.9634 95.248 79.0884C94.126 79.7084 93.496 80.3454 91.799 80.4684C89.33 80.6504 87.608 78.9314 85.243 80.1244C84.947 80.2724 84.63 80.6014 84.381 80.8144C80.172 84.4054 75.571 89.5383 73.168 94.6153C71.553 94.5543 71.712 96.2644 70.407 96.5124C70.518 94.6084 72.979 93.8104 71.96 91.8544C76.757 84.6904 81.899 77.8744 87.486 71.5004C88.153 71.7344 89.162 71.3614 90.246 71.5004C90.693 73.5234 92.062 74.6284 93.005 76.1564C93.189 74.4204 91.227 73.3363 90.935 71.5004C93.589 71.6064 94.859 73.0963 97.146 73.5683C95.223 71.5813 91.978 70.9174 88.176 70.8094C91.399 67.0554 93.797 61.2384 100.252 61.6644C102.464 61.8124 104.303 63.7314 106.98 63.7344C108.146 63.7374 109.311 63.5773 110.775 63.5633C109.288 62.4503 107.761 63.2464 106.116 63.0434C102.82 62.6394 100.622 59.9584 96.628 61.6634C96.487 60.9064 97.584 60.3623 98.18 59.7663C100.279 57.6673 102.533 54.9064 104.909 53.0384C105.103 52.5434 105.271 52.0223 105.6 51.6593C107.235 50.9943 108.51 49.9674 110.775 49.9344C111.575 50.8024 113.23 50.8144 114.398 51.3144C115.581 52.5474 116.417 54.1274 118.365 54.5904C117.765 53.3944 115.521 52.3854 114.915 50.6244C117.502 50.2184 120.126 49.8543 121.644 48.3813C119.682 48.1013 115.242 51.3634 112.155 49.4164C110.202 49.1874 108.991 49.7023 107.499 49.9333C114.147 39.9073 123.261 32.3443 131.478 23.8833H131.649C132.958 26.3093 130.828 29.1443 129.234 31.1313Z" fill="#604C3F"/>
<path fill-rule="evenodd" clip-rule="evenodd" d="M82.6569 90.4766C83.1669 92.2266 81.1989 94.3995 80.5859 96.1675C80.6239 94.3085 82.3009 92.5936 82.6569 90.4766Z" fill="#604C3F"/>
<path fill-rule="evenodd" clip-rule="evenodd" d="M62.128 121.01C62.309 121.148 62.048 122.302 61.438 122.218C61.598 121.747 61.967 121.482 62.128 121.01Z" fill="#604C3F"/>
<path fill-rule="evenodd" clip-rule="evenodd" d="M62.128 125.149C62.219 125.477 61.919 126.891 61.265 127.047C61.433 126.295 61.863 125.805 62.128 125.149Z" fill="#604C3F"/>
<path fill-rule="evenodd" clip-rule="evenodd" d="M61.955 129.29C62.321 130.408 61.165 131.488 60.92 132.567C60.7 131.597 61.821 130.481 61.955 129.29Z" fill="#604C3F"/>
<path fill-rule="evenodd" clip-rule="evenodd" d="M60.2291 133.431C60.5941 133.921 59.6661 134.587 59.7111 135.329C59.2291 134.723 60.1331 134.031 60.2291 133.431Z" fill="#604C3F"/>
<path fill-rule="evenodd" clip-rule="evenodd" d="M67.82 138.261C67.085 139.999 66.073 141.459 65.405 143.265C65.745 144.301 65.482 145.9 64.715 146.368C64.802 145.554 65.664 144.196 64.888 143.608C65.806 141.769 66.545 139.746 67.82 138.261Z" fill="#604C3F"/>
<path fill-rule="evenodd" clip-rule="evenodd" d="M57.47 151.89C57.807 152.463 56.973 153.343 56.78 153.96C56.636 153.58 57.331 152.561 57.47 151.89Z" fill="#604C3F"/>
<path fill-rule="evenodd" clip-rule="evenodd" d="M32.973 217.615C30.879 218.614 29.974 220.806 27.819 221.745C27.674 221.852 27.522 221.951 27.362 222.034C27.391 222.057 27.424 222.076 27.452 222.099C27.416 222.377 27.154 222.429 27.014 222.604C27.072 222.705 27.129 222.8 27.187 222.892C27.574 222.747 27.739 222.379 28.182 222.289C28.313 222.109 28.48 221.947 28.701 221.818C28.745 221.793 28.788 221.777 28.832 221.755C28.832 221.755 28.831 221.755 28.831 221.753C29.855 221.336 30.482 220.07 31.527 219.71C31.534 219.695 31.541 219.683 31.548 219.669C31.687 219.376 31.897 219.182 32.131 219.039C32.245 218.398 33.086 218.483 32.973 217.615Z" fill="#604C3F"/>
<path fill-rule="evenodd" clip-rule="evenodd" d="M74.548 219.342C78.332 220.446 79.989 223.677 82.828 225.724C82.319 226.03 81.927 225.429 81.62 225.207C79.866 223.934 77.922 222.028 76.272 220.549C75.499 220.345 74.692 220.175 74.548 219.342Z" fill="#604C3F"/>
<path fill-rule="evenodd" clip-rule="evenodd" d="M65.2319 221.238C66.8339 221.508 67.6549 223.415 68.6829 224.688C69.7939 226.064 71.0509 227.323 71.9599 228.655C69.9459 227.331 67.2679 223.691 65.2319 221.238Z" fill="#604C3F"/>
<path fill-rule="evenodd" clip-rule="evenodd" d="M59.1949 224.861C61.3049 226.889 61.85 230.485 63.507 232.968C61.835 231.302 60.0399 227.356 59.1949 224.861Z" fill="#604C3F"/>
<path fill-rule="evenodd" clip-rule="evenodd" d="M55.572 246.082C56.264 245.911 56.739 247.44 57.642 247.633C56.946 247.808 56.232 246.517 55.572 246.082Z" fill="#604C3F"/>
<path fill-rule="evenodd" clip-rule="evenodd" d="M70.235 263.158C71.689 264.177 71.487 266.851 72.133 268.677C71.212 267.126 70.833 265.033 70.235 263.158Z" fill="#604C3F"/>
</svg>
