<svg width="88" height="158" viewBox="0 0 88 158" fill="none" xmlns="http://www.w3.org/2000/svg">
<path fill-rule="evenodd" clip-rule="evenodd" d="M87.083 33.5847C87.293 29.1237 87.172 25.0757 85.774 21.2187C85.269 19.8237 84.932 18.2387 84.465 17.2907C83.408 15.1547 81.518 13.7387 80.682 11.7627C80.637 11.1837 81.018 11.0317 80.973 10.4527C79.935 7.05774 77.141 4.12874 74.572 2.30674C74.078 1.95574 73.693 1.39674 73.263 1.14274C71.072 -0.14826 69.377 0.472737 67.589 1.72474C69.153 3.66474 71.997 4.59374 74.135 6.08874C75.6301 7.13374 76.4491 8.80974 77.191 10.1617C72.025 9.17474 68.477 10.5317 64.534 12.0537C57.173 14.8937 53.753 20.8397 50.568 27.3287C49.859 28.7727 49.463 30.6657 48.532 31.8377C48.093 32.3907 47.084 32.7337 46.786 33.4387C46.278 34.6387 46.639 36.0747 46.35 37.2217C45.992 38.6437 45.031 40.4117 44.313 42.0217C43.774 43.2297 42.95 45.7427 42.131 46.6777C41.604 47.2797 40.547 47.4837 40.094 48.2777C39.213 49.8237 39.608 52.5377 39.075 53.9507C38.454 55.6017 37.377 57.4357 36.457 59.1887C34.65 62.6297 33.067 66.2737 30.928 69.3717C29.86 70.9197 29.008 73.3347 27.873 74.3187C27.355 74.7677 26.564 74.8517 26.128 75.3367C25.074 76.5087 24.939 78.3867 24.527 80.2827C24.077 80.7547 23.734 81.3327 23.655 82.1737C20.189 86.5737 16.288 92.0147 13.18 97.0127C12.1 98.7487 10.7941 100.362 9.83405 102.104C8.56905 104.4 7.64004 107.077 6.48804 109.524C4.05504 114.691 1.47202 120.37 1.10602 127.272C0.926024 130.642 0.903039 134.431 1.39704 137.892C1.64404 139.624 3.92605 147.34 4.74305 148.803C5.07305 149.394 7.07202 151.743 7.50702 152.295C9.39402 154.689 13.179 156.951 16.381 156.805C20.193 158.68 25.892 157.143 30.202 156.077C32.365 155.542 34.131 154.325 35.585 153.604C36.984 152.909 38.17 152.485 39.367 151.567C41.159 150.195 42.806 148.545 44.313 147.057C45.071 146.308 46.208 145.266 46.641 144.583C47.741 142.848 48.884 140.764 50.133 138.764C50.723 137.819 51.295 136.785 51.879 135.854C52.508 134.852 53.45 134.099 53.916 133.235C54.155 132.792 54.104 132.215 54.352 131.78C55.456 129.846 56.947 128.146 57.989 126.252C59.128 124.181 59.784 121.915 60.898 119.997C61.621 118.753 63.732 118.413 64.39 117.378C64.906 115.575 64.1031 113.847 64.39 112.141C65.1821 107.424 67.768 102.543 68.754 98.0287C69.223 97.5277 71.574 91.0407 72.682 87.6997C74.023 83.6537 73.8781 78.4857 77.3381 77.2247C77.9201 75.7047 77.282 73.8407 77.628 72.4247C78.137 70.3467 78.983 68.1787 79.665 66.0237C81.761 59.3917 83.1581 52.4667 85.484 46.5297C87.712 45.6047 86.603 43.8097 86.357 42.0197C86.095 40.1267 87.02 38.2427 87.229 36.2007C87.313 35.4017 87.044 34.4217 87.083 33.5847Z" fill="#007636"/>
<path fill-rule="evenodd" clip-rule="evenodd" d="M59.297 32.8575C60.308 34.0225 60.129 34.9065 59.879 36.2035C59.638 36.7415 59.285 36.9625 58.715 37.0765C57.663 37.2065 57.104 36.8455 56.533 36.4945C55.953 34.9445 55.967 34.1305 57.261 33.1485C57.824 32.7935 58.232 32.5205 59.297 32.8575ZM57.406 35.9125C58.227 36.5195 59.335 34.8215 58.665 34.1305C57.875 33.6265 56.917 35.4145 57.406 35.9125Z" fill="#604C3F"/>
<path fill-rule="evenodd" clip-rule="evenodd" d="M68.753 35.9126C67.801 36.1206 67.049 37.7796 67.19 38.7696C67.239 38.9566 67.289 39.1426 67.331 39.3326C67.367 39.3066 67.624 40.1286 68.317 40.2766C69.659 40.2766 71.042 38.3456 70.354 36.0576C70.102 35.6786 69.372 35.6786 68.753 35.9126ZM68.31 39.0846C67.905 38.4346 68.853 36.9176 69.19 37.5136C69.526 38.0016 68.846 39.6956 68.31 39.0846Z" fill="#604C3F"/>
<path fill-rule="evenodd" clip-rule="evenodd" d="M80.1011 40.2766C78.1871 39.4726 76.264 42.1066 77.434 43.9336C77.506 43.9626 77.778 44.4566 78.262 44.4336C78.806 44.5266 79.1931 44.3496 79.8081 43.7676C80.7191 42.8006 80.4481 41.7916 80.5361 41.0036C80.5371 40.7666 80.4291 40.4156 80.1011 40.2766ZM78.063 43.0416C77.446 42.2936 78.4401 41.0766 79.3031 41.4086C80.0361 41.9726 78.95 43.8856 78.063 43.0416Z" fill="#604C3F"/>
<path fill-rule="evenodd" clip-rule="evenodd" d="M55.389 49.4827C55.539 49.5057 56.696 49.3737 56.851 49.1527C57.78 48.2237 58.119 48.3937 57.988 46.9687C57.938 46.4237 57.349 45.5117 56.678 45.2227C54.904 45.2227 54.08 46.7757 54.496 48.7137C54.762 49.0027 55.037 49.4397 55.389 49.4827ZM56.342 46.5647C56.971 46.6067 57.07 49.1477 55.502 48.3347C54.701 48.1717 55.148 46.4317 56.342 46.5647Z" fill="#604C3F"/>
<path fill-rule="evenodd" clip-rule="evenodd" d="M41.0451 57.1669C41.5281 54.5679 41.8941 51.8519 42.7131 49.5879C42.5051 49.5529 42.4671 49.3479 42.2761 49.2959C41.6581 51.6689 40.9601 54.6709 40.9701 57.2889C40.9951 57.2489 41.0201 57.2069 41.0451 57.1669Z" fill="#604C3F"/>
<path fill-rule="evenodd" clip-rule="evenodd" d="M68.026 54.6793C68.212 56.9503 67.194 58.0173 65.262 58.1703C64.545 57.9653 64.098 57.2043 64.098 56.5703C64.39 54.6473 66.417 52.8093 68.026 54.6793ZM65.407 56.8613C66.562 57.5143 67.381 56.0343 66.862 55.2603C66.022 54.3843 64.915 55.9653 65.407 56.8613Z" fill="#604C3F"/>
<path fill-rule="evenodd" clip-rule="evenodd" d="M40.6051 63.6518C40.7931 62.8058 40.957 61.8428 41.097 60.8658C40.949 60.7208 40.82 60.5608 40.715 60.3828C40.564 61.6108 40.357 62.7808 40.516 63.8788C40.546 63.8038 40.5741 63.7268 40.6051 63.6518Z" fill="#604C3F"/>
<path fill-rule="evenodd" clip-rule="evenodd" d="M34.583 70.4485C34.591 69.8285 34.617 69.2235 34.71 68.6455C34.968 67.0495 35.739 65.7775 36.019 64.7175C35.834 64.7095 35.818 64.5305 35.583 64.5715C34.581 66.6665 34.17 69.3515 33.892 72.1705C34.129 71.5975 34.353 71.0215 34.583 70.4485Z" fill="#604C3F"/>
<path fill-rule="evenodd" clip-rule="evenodd" d="M57.115 69.0827C54.806 66.7507 59.629 63.5047 60.17 66.6087C60.438 68.1457 58.961 69.5117 57.115 69.0827ZM57.551 67.9187C58.271 68.1697 59.052 67.5737 58.86 66.4637C57.993 66.5177 57.486 66.9317 57.551 67.9187Z" fill="#604C3F"/>
<path fill-rule="evenodd" clip-rule="evenodd" d="M58.424 87.2682C60.433 89.1712 57.646 92.3342 55.223 91.6322C52.464 89.6832 55.575 86.1682 58.424 87.2682ZM54.933 90.1772C55.103 90.3872 55.298 90.4902 55.661 90.4682C56.74 90.4532 57.803 89.1042 57.261 88.4312C56.222 87.7842 54.767 88.7082 54.933 90.1772Z" fill="#604C3F"/>
<path fill-rule="evenodd" clip-rule="evenodd" d="M36.166 93.9593C36.955 94.8663 36.25 98.4823 34.274 98.7603C33.677 98.7743 33.0821 98.7893 32.6741 98.6143C30.7301 96.2513 33.195 92.1813 36.166 93.9593ZM33.2561 97.5963C34.7641 98.3623 36.01 94.9713 34.711 94.5413C33.23 94.4883 32.2731 96.8913 33.2561 97.5963Z" fill="#604C3F"/>
<path fill-rule="evenodd" clip-rule="evenodd" d="M47.659 109.234C49.041 111.536 45.377 114.386 43.585 112.289C42.294 110.43 45.705 107.824 47.659 109.234ZM44.603 112.145C46.217 112.352 47.249 110.43 46.494 109.817C45.192 109.434 43.665 111.204 44.603 112.145Z" fill="#604C3F"/>
<path fill-rule="evenodd" clip-rule="evenodd" d="M3.92004 124.503C3.86504 124.35 3.80402 124.202 3.72302 124.074C3.73702 125.237 3.79103 125.948 3.91003 126.909C3.93003 126.103 3.91904 125.301 3.92004 124.503Z" fill="#604C3F"/>
<path d="M18.879 94.2298C19.009 93.8418 19.144 93.4588 19.291 93.0858C19.308 93.2308 19.321 93.3649 19.337 93.5069C19.548 93.1889 19.768 92.8758 19.994 92.5658C20.036 92.3448 20.09 92.1288 20.163 91.9218C20.176 91.4238 19.277 91.8388 19.29 91.3398C18.807 92.9328 18.328 94.5308 17.89 96.1698C18.168 95.4988 18.502 94.8548 18.879 94.2298Z" fill="#604C3F"/>
<path d="M46.378 65.1054C46.266 64.8294 45.929 64.3714 45.683 64.3074C44.971 64.1064 44.012 64.5754 43.997 64.6594C43.347 65.0274 43.264 65.5604 42.857 66.1724C42.827 67.3184 42.741 68.5194 43.584 68.7914C43.575 68.8314 44.466 68.7244 44.612 68.7184C44.622 68.6924 47.493 67.8674 46.378 65.1054ZM44.895 65.8814C45.724 65.9424 45.635 67.2914 44.604 67.3364C43.445 67.4684 44.02 65.7214 44.895 65.8814Z" fill="#604C3F"/>
<path d="M87.083 33.5847C87.293 29.1237 87.172 25.0757 85.774 21.2187C85.269 19.8237 84.932 18.2387 84.465 17.2907C83.408 15.1547 81.518 13.7387 80.682 11.7627C80.637 11.1837 81.018 11.0317 80.973 10.4527C79.935 7.05774 77.141 4.12874 74.572 2.30674C74.078 1.95574 73.693 1.39674 73.263 1.14274C71.072 -0.14826 69.377 0.472737 67.589 1.72474C69.153 3.66474 71.997 4.59374 74.135 6.08874C75.6301 7.13374 76.4491 8.80974 77.191 10.1617C72.025 9.17474 68.477 10.5317 64.534 12.0537C57.173 14.8937 53.753 20.8397 50.568 27.3287C49.859 28.7727 49.463 30.6657 48.532 31.8377C48.093 32.3907 47.084 32.7337 46.786 33.4387C46.278 34.6387 46.639 36.0747 46.35 37.2217C45.992 38.6437 45.031 40.4117 44.313 42.0217C43.774 43.2297 42.95 45.7427 42.131 46.6777C41.604 47.2797 40.547 47.4837 40.094 48.2777C39.213 49.8237 39.608 52.5377 39.075 53.9507C38.454 55.6017 37.377 57.4357 36.457 59.1887C34.65 62.6297 33.067 66.2737 30.928 69.3717C29.86 70.9197 29.008 73.3347 27.873 74.3187C27.355 74.7677 26.564 74.8517 26.128 75.3367C25.074 76.5087 24.939 78.3867 24.527 80.2827C24.077 80.7547 23.734 81.3327 23.655 82.1737C20.189 86.5737 16.288 92.0147 13.18 97.0127C12.1 98.7487 10.7941 100.362 9.83405 102.104C8.56905 104.4 7.64004 107.077 6.48804 109.524C4.05504 114.691 1.47202 120.37 1.10602 127.272C0.926024 130.642 0.903039 134.431 1.39704 137.892C1.64404 139.624 3.92605 147.34 4.74305 148.803C5.07305 149.394 7.07202 151.743 7.50702 152.295C9.39402 154.689 13.179 156.951 16.381 156.805C20.193 158.68 25.892 157.143 30.202 156.077C32.365 155.542 34.131 154.325 35.585 153.604C36.984 152.909 38.17 152.485 39.367 151.567C41.159 150.195 42.806 148.545 44.313 147.057C45.071 146.308 46.208 145.266 46.641 144.583C47.741 142.848 48.884 140.764 50.133 138.764C50.723 137.819 51.295 136.785 51.879 135.854C52.508 134.852 53.45 134.099 53.916 133.235C54.155 132.792 54.104 132.215 54.352 131.78C55.456 129.846 56.947 128.146 57.989 126.252C59.128 124.181 59.784 121.915 60.898 119.997C61.621 118.753 63.732 118.413 64.39 117.378C64.906 115.575 64.1031 113.847 64.39 112.141C65.1821 107.424 67.768 102.543 68.754 98.0287C69.223 97.5277 71.574 91.0407 72.682 87.6997C74.023 83.6537 73.8781 78.4857 77.3381 77.2247C77.9201 75.7047 77.282 73.8407 77.628 72.4247C78.137 70.3467 78.983 68.1787 79.665 66.0237C81.761 59.3917 83.1581 52.4667 85.484 46.5297C87.712 45.6047 86.603 43.8097 86.357 42.0197C86.095 40.1267 87.02 38.2427 87.229 36.2007C87.313 35.4017 87.044 34.4217 87.083 33.5847ZM75.736 6.08974C73.764 4.66674 71.466 3.57074 69.917 1.72574C69.894 1.55674 69.949 1.46674 70.063 1.43374C71.179 0.975737 73.81 2.91274 75.009 3.90674C77.368 5.86274 79.616 8.16074 79.52 11.3267C78.76 11.3107 78.675 10.6197 77.919 10.5987C77.521 10.2057 78.758 9.52474 75.736 6.08974ZM59.442 16.5647C59.702 16.7877 59.363 17.6407 58.86 17.5827C58.996 17.1847 59.307 16.9617 59.442 16.5647ZM57.988 18.0197C58.344 18.7197 57.428 19.3957 57.406 20.2017C56.8 19.7237 57.546 18.3867 57.988 18.0197ZM27.437 76.0647C28.896 76.1177 28.9061 74.7207 29.7651 74.1727C29.5841 76.0287 28.992 77.4727 28.165 78.6827C27.825 77.8727 28.305 76.9757 28.456 76.2097C27.408 77.2967 27.206 80.4867 26.274 82.1737C25.828 79.7717 26.057 77.5777 27.437 76.0647ZM22.927 84.6487C23.31 85.9547 22.335 87.1587 22.199 88.4307C21.432 87.1117 22.172 85.3507 22.927 84.6487ZM13.907 98.1787C13.866 100.563 12.635 103.015 12.161 105.453C11.866 103.298 12.365 99.4597 13.907 98.1787ZM66.425 98.3227C66.654 97.6787 67.137 97.2887 67.88 97.1597C67.872 98.0237 67.261 98.2857 66.425 98.3227ZM79.5191 62.9717C78.2701 64.6327 77.477 66.7487 75.736 67.9177C76.927 65.7727 78.213 62.1037 80.1 59.4797C80.511 60.1097 79.5281 61.7997 79.5191 62.9717ZM86.356 33.1487C86.051 33.2107 85.971 33.0487 85.774 33.0027C84.904 36.4497 82.617 38.4777 80.973 41.1497C82.828 39.5607 84.2331 36.2627 86.2091 34.3127C86.034 37.9687 84.7261 40.4917 82.8641 42.4597C83.1241 42.4787 83.17 42.2817 83.444 42.3147C82.959 43.3807 82.2221 44.1947 81.7001 45.2237C82.9 44.2907 84.01 42.0077 85.046 40.4227C85.635 41.1147 84.701 42.4277 85.628 42.7507C84.166 44.7327 82.539 46.5477 80.828 48.2787C82.523 46.7257 84.346 45.2997 85.482 43.1877C86.555 45.0017 83.5741 45.2467 84.0281 47.4057C83.7381 47.6487 83.843 47.3927 83.444 47.4057C83.061 49.2527 81.862 50.2827 80.681 51.3337C80.798 50.3357 81.578 49.9997 81.554 48.8607C80.877 50.0477 80.287 51.3207 79.578 52.4747C79.591 52.5307 79.611 52.5827 79.622 52.6417C79.648 52.7727 79.645 52.9017 79.626 53.0267C80.646 51.6757 81.923 50.5817 83.154 49.4427C82.551 53.6417 77.129 58.8127 76.607 59.4807C76.417 59.7227 75.8491 60.5887 75.8511 60.8017C77.5891 58.5987 79.76 56.8267 81.699 54.8247C81.639 55.6867 81.138 56.1077 81.116 57.0067C80.668 57.1087 80.837 57.1087 80.389 57.0067V58.1707C80.26 58.2837 80.061 58.3277 79.806 58.3167C79.034 60.8407 77.3601 62.4627 75.5881 63.9887C75.5461 64.1887 75.5001 64.3847 75.4461 64.5727C75.938 64.1447 76.426 63.7117 76.898 63.2627C76.722 64.3487 75.428 65.5747 74.716 66.6087C75.623 66.3027 76.234 64.4427 77.335 63.8447C76.182 66.1627 74.671 68.1217 73.116 70.0397C73.24 70.2477 73.304 70.5007 73.257 70.7937C73.244 70.8747 73.227 70.9567 73.214 71.0387C74.859 69.1067 76.586 67.2557 78.5 65.5917C78.291 68.0517 77.167 69.5937 76.753 71.8477H76.1701C75.0421 73.5797 73.753 75.1517 72.388 76.6477C73.703 75.9257 75.023 73.9487 76.1701 72.5747C76.2501 73.6987 77.057 76.1477 75.734 76.5027C75.206 76.6427 75.612 75.8497 75.151 75.9207C75.147 76.2477 74.762 76.0737 74.57 76.2117C73.784 76.7747 73.768 78.0387 73.115 78.9757C72.262 80.2007 70.926 80.6947 70.035 81.5577C70.023 81.6747 69.997 81.7977 69.978 81.9167C70.794 81.5227 71.199 80.3427 71.951 80.4297C71.1 82.2197 69.968 83.7267 68.669 85.0677C68.716 85.1287 68.755 85.1947 68.798 85.2587C69.058 84.9187 69.324 84.5617 69.623 84.2117C70.616 83.0477 72.119 82.2937 72.533 80.8657C72.801 79.9397 72.943 78.9877 73.988 78.6837C73.467 81.7507 72.261 84.1337 70.206 85.6667C71.002 85.2017 71.382 84.3207 72.388 84.0667C72.16 86.4617 70.713 87.6357 69.302 88.8467C69.25 89.0847 69.1821 89.3177 69.105 89.5457C69.301 89.3267 69.48 89.1367 69.625 89.0127C69.955 88.7307 70.369 88.5497 70.643 88.4307C70.048 89.9217 69.057 91.2587 67.826 92.2417C67.78 92.5087 67.752 92.7837 67.735 93.0687C67.877 93.0227 68.0191 92.9777 68.1701 92.9407C68.0281 93.2037 67.865 93.4447 67.694 93.6787C67.684 93.8087 67.673 93.9397 67.6571 94.0687C68.284 93.4157 68.899 92.8147 69.479 92.5037C69.05 95.2767 67.458 96.8877 65.753 98.3867C65.63 98.6107 65.5181 98.8397 65.3901 99.0617C65.3421 99.1447 65.293 99.2287 65.244 99.3117C65.88 98.9827 66.581 98.7187 67.441 98.6137C66.719 101.286 65.251 103.213 62.931 104.288C63.027 104.724 63.242 104.148 63.513 104.288C63.581 104.744 63.121 104.672 63.076 105.015C63.974 104.941 64.55 103.289 65.986 103.269C65.772 104.024 65.442 104.664 65.259 105.452C64.553 106.015 63.777 106.457 62.96 106.836C62.984 106.91 63.005 106.985 63.023 107.063C63.612 106.87 64.211 106.714 64.823 106.616C64.626 107.971 63.492 108.388 62.786 109.234C63.08 109.472 63.516 108.612 64.096 108.652C63.256 110.971 63.038 113.63 63.077 116.508C62.483 117.077 61.898 117.656 61.041 117.963C60.103 120.662 58.585 122.781 57.549 125.382C55.899 126.351 54.716 127.786 52.748 128.438C53.897 128.519 55.107 127.404 56.239 126.982C55.209 128.922 53.134 129.816 51.447 131.099C51.355 131.367 51.259 131.633 51.158 131.899C52.456 131.084 53.797 129.857 55.076 129.019C53.408 131.958 52.022 135.179 49.111 136.875C49.486 137.24 49.821 136.331 50.421 136.438C44.703 147.16 36.06 155.731 20.598 156.224C21.693 155.427 23.585 155.428 24.817 154.769C22.677 154.29 19.323 155.172 19.143 155.642C18.761 156.158 17.705 155.898 17.688 155.205C18.338 155.03 19.067 154.935 19.434 154.478C19.494 154.459 19.549 154.437 19.609 154.418C19.007 154.403 18.407 154.354 17.811 154.265C17.547 154.5 17.259 154.713 16.816 154.769C16.824 154.56 16.842 154.331 16.865 154.092C16.725 154.062 16.586 154.027 16.448 153.993C16.308 154.217 16.101 154.361 15.798 154.332C15.768 154.132 15.774 153.968 15.793 153.817C15.501 153.731 14.769 154.032 14.489 154.187C14.1221 153.928 12.85 152.643 12.419 152.402C12.349 152.38 12.286 152.35 12.218 152.325C12.393 152.806 12.569 153.285 12.744 153.751C12.013 153.803 11.475 153.662 10.998 153.46C11.005 152.789 9.20804 150.415 8.23404 149.937C8.86704 150.801 9.50005 151.7 9.83405 152.733C8.95505 152.06 8.17103 151.292 7.79703 150.114C5.73503 148.781 4.81704 146.305 4.59604 143.13C3.80004 142.23 3.66705 140.732 3.28605 139.493C2.97105 138.465 2.85005 137.777 2.70405 136.147C2.01305 128.388 2.63405 119.338 5.76005 114.034C5.95905 114.743 6.04803 115.526 6.08603 116.351C6.17403 116.201 6.26303 116.052 6.35303 115.903C6.37103 113.342 6.53603 110.945 7.79703 109.671C8.01203 110.505 8.11603 111.449 8.18403 112.429C8.30103 112.129 8.41103 111.825 8.49903 111.511C8.50303 111.496 8.51103 111.485 8.51603 111.469C8.51603 108.399 8.77804 105.597 10.561 103.851C10.59 106.238 10.041 108.047 9.66105 110.023C9.75805 109.972 9.85804 109.932 9.96204 109.896C10.607 107.307 10.797 104.264 11.58 101.814C11.959 103.979 11.528 107.193 11.222 109.78C11.452 109.813 11.6751 109.875 11.8901 109.962C12.0831 104.959 13.915 99.6827 15.654 95.5577C15.763 97.6087 15.973 99.8008 16.001 101.891C16.145 101.868 16.293 101.858 16.442 101.849C16.446 101.838 16.446 101.827 16.45 101.815C16.461 101.785 16.467 101.754 16.477 101.725C15.646 99.8197 16.962 96.1617 16.09 94.8307C18.236 92.5157 19.18 88.9977 21.473 86.8297C21.558 88.4257 21.4561 89.7097 21.2651 90.9207C21.8341 90.2147 22.416 89.5147 22.983 88.8047C22.672 88.6267 22.742 89.4287 22.2 89.3027C22.521 88.2177 22.815 87.1057 23.219 86.1027C23.451 86.5717 23.655 87.1347 23.819 87.7307C23.923 87.5937 24.024 87.4567 24.125 87.3177C23.65 85.2277 23.499 82.2757 25.4 81.7377C26.019 82.8597 25.811 84.0157 25.523 85.1667C25.733 84.7897 25.931 84.4067 26.109 84.0137C26.215 83.7787 26.34 83.5617 26.456 83.3367C26.599 81.9667 26.944 80.7027 27.728 79.7007C27.871 80.9657 27.29 81.5087 27.006 82.3467C27.409 81.6847 27.844 81.0527 28.303 80.4467C28.389 79.3207 28.976 78.1187 29.328 77.3737C29.594 77.7887 29.718 78.2087 29.748 78.6287C29.813 78.5497 29.877 78.4707 29.941 78.3927C29.886 76.6357 30.044 74.9567 30.782 73.8817C30.7561 73.4717 30.091 73.6997 30.2 73.1537C30.542 72.2827 31.187 71.7157 31.509 70.8267C31.678 70.8027 31.768 70.8587 31.8 70.9717C31.776 72.8857 31.732 74.6137 31.604 76.2627C31.762 76.0467 31.917 75.8267 32.068 75.6037C32.016 73.1257 31.959 70.7157 32.818 68.7907C34.017 66.1037 35.762 63.3407 36.891 61.0807C37.314 62.5847 37.406 64.1367 37.428 65.7827C37.537 65.7087 37.648 65.6397 37.763 65.5897C37.747 64.4587 37.796 63.3927 38.199 62.6817C37.216 61.2827 37.638 58.6177 38.781 57.4437C39.132 59.6057 38.544 62.6357 38.879 65.4457C38.91 65.4497 38.94 65.4507 38.971 65.4557C39.32 62.2957 39.02 58.7637 39.655 55.6987C39.924 54.3997 40.703 53.1387 40.819 51.6257C40.869 50.9687 40.646 50.0287 40.819 49.4437C41.199 48.1547 42.895 47.9907 43.437 47.1157C43.083 49.5097 43.005 51.8157 42.88 54.0847C42.965 53.7867 43.059 53.4917 43.148 53.1947C43.02 52.3657 43.568 51.5567 43.437 50.6077C43.674 50.8177 43.664 51.2957 43.585 51.8327C43.716 51.4957 43.87 51.1737 44.039 50.8637C44.083 50.4897 44.125 50.1137 44.165 49.7357C44.151 49.3617 43.597 49.5267 43.583 49.1537C43.593 48.0307 44.108 46.9737 44.311 45.9537C44.419 45.4097 43.994 44.2957 44.893 44.2067C44.83 45.4237 44.462 47.0487 44.602 47.9897C45.311 45.2557 44.894 41.3947 46.93 39.9877C46.747 41.5987 46.593 43.2397 46.493 44.9337C47.237 41.7017 47.446 37.9327 48.385 34.8957C48.213 34.5107 48.259 34.4437 47.802 34.6047C48.105 33.6467 48.889 33.1697 49.694 32.7137C49.454 35.3347 48.84 37.5817 48.822 40.4237C49.492 37.7477 49.454 34.3647 50.567 32.1317C50.163 28.8077 52.817 26.1807 53.913 23.4027C53.83 24.4847 53.555 26.6327 52.458 27.1857C51.538 30.0027 51.248 33.1257 50.87 36.2117C50.871 36.2077 50.872 36.2047 50.873 36.2007C50.946 35.9097 51.098 35.7097 51.285 35.5847C51.332 34.4887 51.392 33.3827 51.585 32.2767C51.841 32.1487 51.826 31.6317 52.167 31.9857C52.766 28.2687 53.606 24.7937 55.368 22.2377C54.658 21.1677 55.942 20.2807 56.532 19.6187C55.795 22.2627 54.747 24.5947 54.099 27.3267C54.277 27.0037 54.491 26.6807 54.731 26.3627C55.309 24.2867 55.938 22.2607 57.114 20.7837C56.831 21.9557 56.318 22.8967 56.096 24.1297C58.434 20.0667 59.56 14.7917 64.534 13.3637C63.986 13.9487 63.366 15.6227 62.497 14.9647C62.175 16.5777 60.585 18.0017 60.441 19.3797C60.678 19.2127 60.922 19.0737 61.167 18.9827C61.252 18.8677 61.34 18.7537 61.426 18.6397C61.459 18.5517 61.489 18.4607 61.53 18.3817C61.721 18.0207 61.925 17.7197 62.145 17.4397C62.209 17.2607 62.289 17.0897 62.386 16.9257C62.408 16.6947 62.496 16.4597 62.667 16.2507C62.829 16.0527 62.999 15.8857 63.176 15.7467C64.278 14.1217 65.951 12.7797 67.733 11.9087C67.659 12.6057 66.986 12.7207 66.569 13.0727C65.816 13.7067 65.145 14.4257 64.503 15.1767C64.648 15.1537 64.794 15.1357 64.944 15.1297C65.087 15.0727 65.2321 15.0327 65.3771 15.0007C65.4821 14.9387 65.5881 14.8757 65.6961 14.8197C65.674 14.8677 65.647 14.9117 65.624 14.9607C65.667 14.9547 65.71 14.9437 65.753 14.9397C65.836 14.5727 66.105 14.2607 66.5451 14.1617C66.549 14.0077 66.522 13.8447 66.424 13.6557C67.7281 12.7287 68.994 11.7637 70.789 11.3277C70.071 12.2587 69.26 13.0957 68.373 13.8557C69.177 13.6417 69.952 13.3317 70.735 13.0487C71.568 11.6917 73.3441 11.0247 75.1531 11.1817C74.4731 11.6037 73.783 12.0147 73.087 12.4207C73.422 12.3787 73.762 12.3587 74.113 12.3737C74.293 12.3817 74.461 12.4517 74.616 12.5477C74.946 12.2437 75.315 11.9777 75.735 11.7627C75.777 11.3797 75.17 11.6487 75.298 11.1807C75.942 10.8657 76.125 11.7687 77.044 11.3267C77.062 11.5877 76.8651 11.6337 76.898 11.9087C77.3661 12.0367 77.097 11.4297 77.479 11.4717C77.841 11.4487 77.93 11.7007 78.207 11.7627C77.936 12.6557 76.66 12.5427 76.026 13.0717C76.231 12.6947 76.517 12.4007 76.753 12.0537C76.232 12.3587 75.797 12.7507 75.391 13.1697C75.89 13.2327 76.3741 13.3427 76.8511 13.5007C77.4181 12.8477 78.1501 12.4227 79.2261 12.4907C79.1451 13.2267 78.829 13.7307 78.507 14.2267C78.601 14.2777 78.693 14.3267 78.788 14.3807C79.084 13.9487 79.35 13.4867 79.517 12.9267C79.838 13.6697 79.829 14.3607 79.663 15.0187C79.944 15.4267 79.89 15.9827 79.612 16.3517C79.623 16.3637 79.632 16.3757 79.642 16.3877C79.975 15.6097 80.317 14.8387 80.68 14.0897C81.182 14.5867 80.84 15.5157 80.68 15.9807C80.542 16.3817 80.375 16.7787 80.195 17.1747C80.21 17.2037 80.222 17.2337 80.236 17.2627C80.524 16.5867 80.813 15.9127 81.116 15.2527C81.718 16.2377 80.881 17.6197 80.61 18.8297C80.611 18.9657 80.604 19.1017 80.589 19.2377C81.235 18.2827 81.327 16.7727 81.844 15.6897C83.509 17.0707 82.344 19.3637 81.37 21.0397C81.449 21.1137 81.525 21.1887 81.597 21.2717C81.945 20.6957 82.278 20.1047 82.572 19.4727C82.487 20.2387 82.238 20.9837 81.91 21.7177C81.976 21.8327 82.034 21.9507 82.085 22.0727C82.473 21.3337 82.838 20.5727 83.154 19.7637C83.11 20.6917 82.691 21.5577 82.202 22.4147C82.246 22.5837 82.273 22.7557 82.283 22.9297C82.918 21.8767 83.513 20.6677 83.882 19.4727C84.947 20.6337 84.238 22.7577 83.735 24.1287C83.213 25.5557 81.896 26.8917 81.263 27.7657C81.313 28.8337 80.7601 29.2997 80.3901 29.9477C81.1951 29.4427 81.902 27.5817 82.573 26.4567C82.606 27.9007 81.787 29.6667 80.911 30.7157C81.159 30.7197 81.404 30.7577 81.639 30.8287C82.2 29.6157 82.829 28.4687 83.59 27.4747C83.237 27.4177 82.912 28.6357 82.281 28.7837C83.113 26.4147 83.759 23.8597 85.191 22.0927C86.0871 24.1957 84.291 25.7467 83.589 27.1847C84.641 26.5857 85.022 25.3177 85.6271 24.2747C86.1501 24.6237 86.075 25.5717 86.063 26.4567C85.524 26.4617 85.901 25.5527 85.336 25.5837C85.549 28.0157 84.102 29.9477 83.154 31.6937C84.384 30.8877 85.0571 28.2637 86.062 26.7477C86.257 29.5097 85.7 31.6297 84.172 33.0027C84.293 32.5917 84.341 32.1047 84.4631 31.6937C83.662 32.0027 83.952 32.9497 83.734 33.5847C83.626 33.9047 83.48 34.2047 83.315 34.4897C83.284 34.8577 83.233 35.2097 83.158 35.5437C84.143 33.8397 85.141 32.1507 86.354 30.6757C86.194 31.3517 86.098 32.4927 86.356 33.1487ZM70.208 90.3227C69.937 91.2657 69.012 92.3247 68.171 92.2127C68.786 91.5187 69.344 90.7677 70.208 90.3227Z" fill="#604C3F"/>
<path d="M16.767 103.985C16.624 103.983 16.01 104.157 15.905 104.198C15.051 104.583 14.638 104.978 14.344 105.742C13.813 107.117 14.302 108.54 15.326 108.949C15.779 109.07 17.561 108.826 17.921 107.756C18.188 106.137 18.724 104.818 16.767 103.985ZM16.162 107.97C15.288 108.24 14.89 106.109 15.944 105.743C17.457 105.143 17.268 107.709 16.162 107.97Z" fill="#604C3F"/>
<path d="M50.951 41.8762C50.912 41.8912 50.3691 41.5652 49.9071 41.7632C47.8041 42.0972 46.6541 45.1052 48.5321 45.6602C48.5271 45.6892 49.463 45.3922 49.971 44.9542C50.276 44.6592 51.271 44.0352 51.15 42.3142C51.173 42.0792 51.078 41.9612 50.951 41.8762ZM48.823 44.3512C48.439 43.8952 48.891 43.3422 49.113 43.0422C49.551 42.6282 50.259 42.4732 50.215 43.1372C50.033 43.5852 49.43 44.3282 48.823 44.3512Z" fill="#604C3F"/>
<path d="M78.041 53.8575C77.908 53.7775 77.789 53.6825 77.668 53.5895C76.552 52.8685 74.769 53.8995 74.897 54.7715C74.895 54.8085 74.883 55.4415 74.881 55.4785C74.881 56.6295 74.887 57.2155 76.171 57.2975C76.724 57.1375 77.6 57.0495 77.918 56.5705C78.167 55.5545 78.395 54.0695 78.041 53.8575ZM76.028 56.1345C75.146 55.4355 76.286 54.3445 77.046 54.8245C77.624 55.3225 76.805 56.4965 76.028 56.1345Z" fill="#604C3F"/>
<path d="M65.116 18.6012C64.637 19.2862 64.836 20.2622 65.098 20.6012C65.455 21.0112 66.231 21.1092 66.628 21.1362C68.309 20.9012 69.636 19.0282 67.735 17.7292C66.747 17.3392 65.744 17.5112 65.116 18.6012ZM66.571 20.3472C65.5 20.1712 65.403 18.7072 66.835 18.4462C67.152 18.3582 67.624 18.5122 67.589 19.0382C67.401 19.6252 67.139 20.1392 66.571 20.3472Z" fill="#604C3F"/>
<path d="M76.3961 17.1689C74.8151 17.1689 73.9741 18.7349 74.0041 19.7429C74.0241 20.3689 74.2871 20.7289 74.8141 21.0909C75.4151 21.2109 76.6901 21.1509 77.2451 20.0209C77.6431 19.0069 77.6301 18.5789 77.4631 18.0379C77.3351 17.7759 76.8921 17.1689 76.3961 17.1689ZM75.7501 19.8899C74.2831 19.6549 75.2661 17.9409 76.4741 18.2609C77.1301 18.5759 76.2961 19.8629 75.7501 19.8899Z" fill="#604C3F"/>
<path d="M68.317 25.1481C68.381 24.9911 67.137 25.7901 67.137 26.6781C67.447 28.0911 67.977 28.2511 68.462 28.4941C68.669 28.6441 69.507 28.5611 70.256 27.9581C70.961 27.3361 70.935 27.0071 70.935 26.1661C70.799 25.5751 69.902 24.2851 68.317 25.1481ZM68.774 27.7141C67.977 27.4651 67.978 25.7011 69.261 25.7231C70.349 25.9661 69.68 27.9881 68.774 27.7141Z" fill="#604C3F"/>
<path d="M77.794 27.1602C75.499 27.4712 75.278 29.9052 76.031 31.0972C76.252 31.3632 76.583 31.5192 77.181 31.5862C79.435 31.9672 80.358 29.2792 78.936 27.6212C79.004 27.4902 77.95 27.1892 77.794 27.1602ZM77.191 30.6762C76.052 29.8382 77.181 28.5591 77.918 29.0751C78.836 29.1831 77.884 31.2652 77.191 30.6762Z" fill="#604C3F"/>
<path d="M65.262 73.3019C65.277 74.0279 66.181 75.2619 67.153 74.9019C67.916 74.6209 68.861 73.9729 69.129 73.0989C69.204 72.4639 69.327 70.8549 68.317 70.5369C66.992 70.1209 65.231 71.7409 65.262 73.3019ZM68.026 71.8469C68.553 72.5359 67.219 74.5039 66.28 73.8839C65.611 73.2879 67.004 71.0749 68.026 71.8469Z" fill="#604C3F"/>
<path fill-rule="evenodd" clip-rule="evenodd" d="M82.428 43.042C82.572 43.433 81.82 44.175 81.265 44.351C81.634 43.896 82.096 43.532 82.428 43.042Z" fill="#604C3F"/>
<path fill-rule="evenodd" clip-rule="evenodd" d="M80.829 52.498C80.531 54.19 78.99 55.896 77.918 57.298C78.888 55.698 79.785 54.025 80.829 52.498Z" fill="#604C3F"/>
<path fill-rule="evenodd" clip-rule="evenodd" d="M76.463 69.2275C75.889 71.8175 73.971 73.5075 72.41 75.1125C72.405 75.1445 72.397 75.1765 72.392 75.2085C72.378 75.2845 72.357 75.3575 72.342 75.4325C72.993 74.8435 73.683 74.2385 74.281 73.5925C75.377 72.4105 76.849 70.9095 76.463 69.2275Z" fill="#604C3F"/>
<path fill-rule="evenodd" clip-rule="evenodd" d="M62.3521 112.727C62.1871 114.702 59.6521 115.549 58.5701 117.091C59.4001 115.787 61.3551 114.349 62.3521 112.727Z" fill="#604C3F"/>
<path fill-rule="evenodd" clip-rule="evenodd" d="M60.461 117.526C60.437 119.491 58.221 120.522 57.26 122.035C57.855 120.642 59.758 119.297 60.461 117.526Z" fill="#604C3F"/>
<path fill-rule="evenodd" clip-rule="evenodd" d="M56.678 122.183C57.012 122.622 56.056 123.009 55.806 123.346C55.583 123.02 56.54 122.632 56.678 122.183Z" fill="#604C3F"/>
</svg>
