<svg width="121" height="148" viewBox="0 0 121 148" fill="none" xmlns="http://www.w3.org/2000/svg">
<path fill-rule="evenodd" clip-rule="evenodd" d="M117.758 101.227C117.404 100.079 117.184 99.4298 117.1 98.4888C116.952 96.8338 115.622 93.0118 115.557 92.6058C115.27 90.8088 113.844 86.9068 113.67 86.4848C113.391 85.8078 112.346 81.9328 111.809 80.5098C111.72 80.0248 108.434 70.8088 108.24 70.1868C107.729 68.5468 105.72 64.9008 105.506 64.3728C104.809 61.8948 103.559 60.5568 102.627 58.5878C101.105 55.3718 99.159 51.7068 97.576 48.3888C96.34 45.7998 90.01 37.5348 89.782 37.1948C89.043 36.0908 87.92 35.4338 87.033 34.5458C86.027 33.5348 85.175 32.5478 84.085 31.6318C83.033 30.7468 81.871 29.9818 81.018 28.8888C78.594 28.2908 76.955 26.5498 74.115 26.5578C73.04 24.5998 72.598 21.1198 72.232 18.0288C73.868 16.5598 74.355 14.6378 75.323 12.7908C76.735 10.0988 78.986 7.6808 80.882 5.4408C81.414 4.8118 82.616 3.72579 81.733 2.72479C80.809 2.49979 80.478 0.754773 78.629 0.592773C76.749 2.55877 75.387 4.88079 73.635 6.93579C73.59 7.41279 73.275 7.70379 73.269 8.20679C70.704 11.1438 68.999 14.7188 67.27 18.0478C66.771 19.0078 66.306 19.9258 65.837 20.8718C64.571 23.4278 62.906 25.7908 62.304 28.5998C61.118 30.2808 60.445 32.3148 59.929 34.4558C57.624 35.0578 54.192 35.1838 52.209 36.6408C51.945 37.0098 51.367 36.5738 50.964 36.4198C48.894 35.8078 47.166 36.0148 45.01 36.7708C31.841 41.3968 17.658 54.3188 14.083 59.0598C12.845 60.7008 11.308 62.2068 10.156 63.8508C7.00599 68.3458 4.85199 73.5418 3.32799 78.9608C2.51399 81.8558 2.60599 84.8978 2.15599 88.0568C1.74399 90.9468 0.62598 93.8278 0.78398 96.8878C2.97298 96.4538 4.45298 94.4948 6.51698 93.7188C6.76598 93.6248 7.16099 93.6648 7.38899 93.5568C10.432 92.1188 13.264 89.5458 16.062 87.5838C18.931 85.5738 29.972 75.0198 30.849 74.0068C34.263 70.0598 41.714 60.0418 42.138 59.4238C43.786 57.0248 45.137 54.2638 46.57 51.6798C46.925 51.0408 47.563 50.5508 47.901 49.9288C49.581 46.8348 50.381 43.2728 51.929 40.0028C54.283 39.2088 56.65 37.7458 59.304 37.5808C57.967 40.2588 57.357 43.4368 56.596 46.5098C56.915 46.7218 56.808 48.8978 55.691 48.9338C55.61 49.4568 55.257 49.6968 54.98 49.9698C52.86 52.0648 50.363 53.8338 48.371 55.7098C46.077 57.8678 44.764 59.8268 43.114 62.2528C40.949 65.4358 39.207 68.7158 37.923 72.3948C35.402 76.0468 34.893 80.9578 33.616 85.6828C31.794 92.4238 31.531 100.727 31.845 108.584C31.935 110.858 32.524 113.183 32.504 115.383C32.482 117.847 32.312 120.294 32.663 122.728C33.979 131.858 37.817 140.266 41.22 147.775C42.777 148.115 43.561 146.504 44.27 145.555C45.99 143.247 47.234 141.71 48.681 139.319C49.342 138.226 50.234 137.155 50.786 136.069C54.086 129.601 54.759 121.57 54.611 113.691C55.051 113.985 54.56 112.562 54.977 112.419C58.473 112.17 65.937 107.982 67.131 102.49C67.781 99.5058 68.26 96.7548 68.766 93.4598C69.094 91.3278 69.848 88.7608 69.189 86.0068C70.38 86.9848 71.976 87.3688 73.102 88.4418C74.915 89.0108 77.303 89.0588 79.353 89.6898C79.701 89.7978 85.443 88.8128 87.882 87.8078C88.11 88.2768 88.274 88.8378 88.47 89.3538C90.074 91.4898 91.626 94.1598 93.1 96.4718C95.454 100.16 98.707 103.215 101.643 106.022C106.204 110.384 111.824 112.984 117.885 114.898C118.505 115.323 119.481 116.101 120.52 115.312C118.824 111.802 119.242 106.034 117.758 101.227ZM60.656 67.5758C59.566 66.9448 58.448 66.3538 57.433 65.6148C58.654 57.6538 59.609 49.5098 61.996 42.3478C63.195 43.8668 64.048 45.8878 64.729 48.1608C60.27 52.6448 59.783 59.7338 60.656 67.5758ZM71.087 45.9288C70.2 45.7208 68.818 45.7408 67.833 46.2318C66.528 43.1938 62.337 38.4958 64.856 35.0458C65.718 30.7308 68.307 27.6018 69.659 23.6228C70.811 24.2868 71.228 26.0198 71.87 27.4258C69.783 32.5658 70.166 39.2998 71.087 45.9288Z" fill="#008457"/>
<path fill-rule="evenodd" clip-rule="evenodd" d="M66.754 47.4821C69.676 44.6861 80.316 47.3981 87.377 56.8221C94.877 66.8331 96.26 79.4141 87.377 86.8721C81.522 91.7881 70.065 86.9351 68.629 84.8671C70.393 92.8071 66.313 113.76 51.976 112.327C37.639 110.893 37.096 92.0081 38.114 84.6461C39.132 77.2851 48.1289 65.8991 53.5199 66.3391C58.7629 66.7671 59.108 67.2891 61.571 69.0961C60.468 61.8191 59.081 54.8231 66.754 47.4821Z" fill="#1D1622"/>
<path fill-rule="evenodd" clip-rule="evenodd" d="M37.9729 52.3721C38.3159 52.5741 37.9249 53.3471 37.9249 53.7361C37.4769 53.4601 38.0199 52.7921 37.9729 52.3721Z" fill="#604C3F"/>
<path fill-rule="evenodd" clip-rule="evenodd" d="M81.405 44.7663C82.274 44.7333 82.331 45.8823 82.537 46.8133C82.008 46.3523 81.728 45.5263 81.405 44.7663Z" fill="#604C3F"/>
<path fill-rule="evenodd" clip-rule="evenodd" d="M35.514 86.9847C35.725 87.4257 35.369 87.4768 35.358 87.7648C35.003 87.7138 35.05 86.8927 35.514 86.9847Z" fill="#604C3F"/>
<path fill-rule="evenodd" clip-rule="evenodd" d="M46.703 137.578C46.754 137.952 46.596 138.181 46.228 138.268C46.178 137.894 46.336 137.664 46.703 137.578Z" fill="#604C3F"/>
<path fill-rule="evenodd" clip-rule="evenodd" d="M117.758 101.227C117.404 100.079 117.184 99.4298 117.1 98.4888C116.952 96.8338 115.622 93.0118 115.557 92.6058C115.27 90.8088 113.844 86.9068 113.67 86.4848C113.391 85.8078 112.346 81.9328 111.809 80.5098C111.72 80.0248 108.434 70.8088 108.24 70.1868C107.729 68.5468 105.72 64.9008 105.506 64.3728C104.809 61.8948 103.559 60.5568 102.627 58.5878C101.105 55.3718 99.159 51.7068 97.576 48.3888C96.34 45.7998 90.01 37.5348 89.782 37.1948C89.043 36.0908 87.92 35.4338 87.033 34.5458C86.027 33.5348 85.175 32.5478 84.085 31.6318C83.033 30.7468 81.871 29.9818 81.018 28.8888C78.594 28.2908 76.955 26.5498 74.115 26.5578C73.04 24.5998 72.598 21.1198 72.232 18.0288C73.868 16.5598 74.355 14.6378 75.323 12.7908C76.735 10.0988 78.986 7.6808 80.882 5.4408C81.414 4.8118 82.616 3.72579 81.733 2.72479C80.809 2.49979 80.478 0.754773 78.629 0.592773C76.749 2.55877 75.387 4.88079 73.635 6.93579C73.59 7.41279 73.275 7.70379 73.269 8.20679C70.704 11.1438 68.999 14.7188 67.27 18.0478C66.771 19.0078 66.306 19.9258 65.837 20.8718C64.571 23.4278 62.906 25.7908 62.304 28.5998C61.118 30.2808 60.445 32.3148 59.929 34.4558C57.624 35.0578 54.192 35.1838 52.209 36.6408C51.945 37.0098 51.367 36.5738 50.964 36.4198C48.894 35.8078 47.166 36.0148 45.01 36.7708C31.841 41.3968 17.658 54.3188 14.083 59.0598C12.845 60.7008 11.308 62.2068 10.156 63.8508C7.00599 68.3458 4.85199 73.5418 3.32799 78.9608C2.51399 81.8558 2.60599 84.8978 2.15599 88.0568C1.74399 90.9468 0.62598 93.8278 0.78398 96.8878C2.97298 96.4538 4.45298 94.4948 6.51698 93.7188C6.76598 93.6248 7.16099 93.6648 7.38899 93.5568C10.432 92.1188 13.264 89.5458 16.062 87.5838C18.931 85.5738 29.972 75.0198 30.849 74.0068C34.263 70.0598 41.714 60.0418 42.138 59.4238C43.786 57.0248 45.137 54.2638 46.57 51.6798C46.925 51.0408 47.563 50.5508 47.901 49.9288C49.581 46.8348 50.381 43.2728 51.929 40.0028C54.283 39.2088 56.65 37.7458 59.304 37.5808C57.967 40.2588 57.357 43.4368 56.596 46.5098C56.915 46.7218 56.808 48.8978 55.691 48.9338C55.61 49.4568 55.257 49.6968 54.98 49.9698C52.86 52.0648 50.363 53.8338 48.371 55.7098C46.077 57.8678 44.764 59.8268 43.114 62.2528C40.949 65.4358 39.207 68.7158 37.923 72.3948C35.402 76.0468 34.893 80.9578 33.616 85.6828C31.794 92.4238 31.531 100.727 31.845 108.584C31.935 110.858 32.524 113.183 32.504 115.383C32.482 117.847 32.312 120.294 32.663 122.728C33.979 131.858 37.817 140.266 41.22 147.775C42.777 148.115 43.561 146.504 44.27 145.555C45.99 143.247 47.234 141.71 48.681 139.319C49.342 138.226 50.234 137.155 50.786 136.069C54.086 129.601 54.759 121.57 54.611 113.691C55.051 113.985 54.56 112.562 54.977 112.419C58.473 112.17 65.937 107.982 67.131 102.49C67.781 99.5058 68.26 96.7548 68.766 93.4598C69.094 91.3278 69.848 88.7608 69.189 86.0068C70.38 86.9848 71.976 87.3688 73.102 88.4418C74.915 89.0108 77.303 89.0588 79.353 89.6898C79.701 89.7978 85.443 88.8128 87.882 87.8078C88.11 88.2768 88.274 88.8378 88.47 89.3538C90.074 91.4898 91.626 94.1598 93.1 96.4718C95.454 100.16 98.707 103.215 101.643 106.022C106.204 110.384 111.824 112.984 117.885 114.898C118.505 115.323 119.481 116.101 120.52 115.312C118.824 111.802 119.242 106.034 117.758 101.227ZM78.753 2.07178C79.093 2.29278 79.096 2.53579 79.061 2.91879C78.688 2.96879 78.458 2.80979 78.371 2.44379C78.464 2.29679 78.753 2.28378 78.753 2.07178ZM78.667 4.0448C78.769 5.1308 78.452 5.92578 77.763 6.46878C77.714 5.42078 77.688 4.3868 78.667 4.0448ZM74.191 10.7428C74.448 10.6758 74.531 10.8648 74.8 10.7808C75.404 8.74079 75.808 6.56378 76.857 4.83078C77.579 7.99278 75.153 10.0928 74.052 12.4238C73.687 12.0828 74.199 11.2608 74.191 10.7428ZM73.146 10.7858C73.587 10.5708 73.479 11.8628 73.044 11.8588C73.088 11.5078 73.036 11.0918 73.146 10.7858ZM72.797 12.9578C73.132 12.9608 73.648 13.1458 73.643 12.6508C73.692 13.2358 73.163 14.5188 72.421 14.9838C72.514 14.2858 72.707 13.6578 72.797 12.9578ZM3.29298 87.6948C3.13998 87.2498 3.61298 87.2378 3.59398 86.8858C3.38498 81.2848 5.20897 77.0788 6.49397 72.5038C8.49197 67.8688 11.635 64.0198 14.562 60.0228C17.565 56.3318 21.64 53.3788 25.207 50.0738C31.168 45.5808 36.454 40.6228 45.598 38.3168C45.243 39.2578 43.692 39.3768 43.422 40.3768C44.958 39.5278 46.118 38.4208 48.416 38.0958C47.133 39.2448 46.054 40.5348 44.193 41.2868C44.448 41.6538 45.506 40.8518 45.464 41.6518C43.273 42.5588 42.447 44.4028 39.931 45.0848C37.976 47.1688 35.052 48.5868 33.494 50.9448C28.073 55.2458 23.306 60.6158 18.951 65.8298C17.505 67.5598 16.324 70.1528 15.003 72.1298C14.019 73.6018 12.689 74.8668 11.722 76.3508C9.18197 80.2498 7.14299 84.4458 4.61799 88.3518C4.25699 87.0028 4.88097 85.2328 4.45497 83.4168C3.91697 85.7128 4.53898 88.8048 3.22298 90.5668C2.66098 89.7108 3.69098 88.8588 3.29298 87.6948ZM48.822 44.3398C48.72 45.8778 47.478 46.6328 47.433 48.2088C45.219 51.5538 43.294 55.0968 41.223 58.5398C39.287 61.0168 36.967 63.2318 35.718 66.1818C35.357 66.1878 35.452 66.5058 35.018 66.4628C34.93 66.6128 34.923 66.8198 34.981 67.0708C31.921 69.8758 29.994 73.4608 26.901 76.2438C26.463 76.9578 25.96 77.6278 25.134 78.0768C24.563 79.4608 22.584 79.8788 22.128 81.3428C20.974 81.8618 20.12 82.5858 19.515 83.4818C17.211 85.1148 14.739 86.6318 12.771 88.4948C10.854 88.8278 9.89099 90.4938 8.53099 90.7878C8.87699 90.0088 9.65998 89.5318 10.125 88.8348C9.07898 89.2588 8.26099 90.9388 6.86699 91.5468C7.55499 90.2828 8.61198 89.2768 9.55498 88.1888C8.19398 88.9448 6.96398 90.8928 5.61198 92.0798C6.25698 90.1958 8.07697 88.0198 8.97697 85.8888C7.24697 87.7448 6.58198 90.3348 4.53898 91.9778C5.68998 89.7218 7.35598 87.8198 8.63298 85.6508C8.97998 85.3498 9.51999 85.6868 9.22499 84.7888C7.96799 85.5278 7.23097 87.1748 6.29997 88.4908C5.34197 89.8478 4.39597 91.2518 3.42897 92.4848C5.06897 88.2138 7.99899 84.3488 10.506 80.3378C13.346 75.7928 15.774 70.9178 19.312 66.9668C18.916 72.1538 17.813 76.8538 18.136 82.5328C18.397 77.0818 19.122 71.2818 19.668 66.4488C20.086 65.7028 20.909 64.6188 21.553 64.4448C20.875 67.5758 20.649 71.0158 20.397 74.4398C20.88 71.0428 21.656 67.1878 21.763 63.9538C25.932 58.9908 30.236 54.1208 35.569 49.9568C35.419 52.1388 34.879 54.0528 34.956 56.3908C35.304 53.8788 35.866 51.5158 36.306 49.0678C37.491 48.5278 38.036 47.5468 39.237 47.0188C39.149 48.8628 38.198 50.1138 38.209 52.0258C38.891 50.1248 39.385 48.0948 40.147 46.2478C42.683 44.9018 44.293 42.9198 47.146 41.7908C47.226 42.3118 46.706 42.4198 46.925 43.0358C47.536 42.5228 47.786 40.6668 49.457 40.4598C49.264 42.1898 48.36 43.4308 47.885 44.9638C48.473 45.0228 48.485 44.0348 48.822 44.3398ZM49.36 39.1238C49.275 38.8978 49.451 38.8478 49.424 38.6608C49.319 38.4428 48.943 38.6218 49.025 38.1328C49.46 38.0548 49.59 38.4188 49.979 38.4078C50.145 38.3518 50.053 38.1188 50.044 37.9438C50.394 37.9278 50.632 38.0718 51.09 37.9008C50.597 38.3668 50.138 38.8548 49.36 39.1238ZM75.318 29.7948C76.32 30.3068 76.545 31.9498 77.603 32.3798C77.174 30.5418 76.17 29.5388 75.22 28.4578C76.298 28.3078 76.497 29.4328 77.026 30.0798C77.445 29.7688 78.082 30.2258 78.761 30.5098C79.368 30.0478 77.699 29.7708 78.572 29.4918C79.376 30.3538 80.343 30.9788 81.595 31.1888C85.401 33.9498 88.69 37.5728 91.809 41.6328C93.981 44.4618 95.483 47.8328 97.453 50.9698C101.654 57.6618 104.707 64.9358 107.826 72.8218C109.278 76.4898 113.346 87.8408 113.72 89.1838C114.379 91.5498 114.503 94.1158 115.242 96.5748C116.478 100.696 117.747 105.817 118.113 111.242C113.022 106.93 110.086 100.469 106.157 94.6488C103.909 91.3188 101.405 88.1048 99.742 84.4018C102.101 85.0938 103.853 86.6698 106.171 87.4228C103.935 86.1198 101.757 84.7328 99.316 83.7288C98.751 82.3958 98.069 81.2318 97.424 80.0158C100.055 80.4988 101.904 82.1178 104.526 82.6118C101.604 80.7678 96.55 80.4258 95.132 75.7758C94.88 72.9368 97.024 71.0678 96.138 68.2168C95.636 69.3538 96.044 71.1138 95.185 72.0048C95.353 70.4338 94.682 68.7498 94.241 66.9128C93.723 64.7578 94.248 62.6148 93.226 60.6318C92.806 61.1528 93.809 61.8708 93.404 62.4038C93.229 62.4118 93.232 62.1608 93.177 61.9938C92.57 63.7368 93.577 65.6168 93.567 67.3388C91.808 64.5788 92.498 61.0978 92.304 58.0928C92.247 57.2168 92.287 55.7948 91.209 55.4378C91.269 57.2328 92.027 59.1318 91.771 60.9008C89.821 58.2948 89.532 55.1248 88.746 51.0778C89.211 50.6798 89.784 51.4698 90.335 51.5358C89.83 50.4228 87.184 50.8268 86.951 48.7028C86.188 48.7388 87.313 49.2798 86.795 49.4838C85.63 49.3928 85.607 47.6388 84.827 46.9898C84.507 47.5808 85.759 48.2608 85.469 48.8278C83.424 48.9958 84.234 46.1388 82.995 45.2228C82.761 45.9398 83.5 46.8228 83.48 47.8418C82.809 47.6478 82.274 47.2558 81.545 47.1468C81.146 45.3558 80.277 44.8068 79.717 42.9728C81.856 44.0468 83.78 45.4338 85.936 46.4838C84.96 45.4268 83.582 44.9928 82.342 44.1408C81.33 43.4448 79.573 42.7308 78.893 41.7708C78.598 41.3548 78.664 40.6318 78.424 40.0518C77.32 37.3838 75.999 35.0378 74.941 31.8198C75.788 31.6418 75.515 30.6928 75.318 29.7948ZM94.214 70.8328C93.886 70.2278 93.872 68.5858 93.966 67.8688C94.518 68.6728 94.495 70.1758 94.214 70.8328ZM87.565 50.3968C89.404 51.3308 88.619 56.3528 89.83 58.5538C89.209 58.4108 88.966 57.7188 88.542 57.2878C89.272 55.1448 87.387 53.0978 87.565 50.3968ZM88.154 56.0058C87.026 55.1658 86.88 51.7408 86.266 49.8848C88.273 50.6018 87.124 54.2398 88.154 56.0058ZM85.696 53.3018C84.322 52.7678 84.981 50.8258 84.278 48.8998C84.754 49.1308 85.42 49.0848 85.631 49.7018C85.423 49.7288 85.215 49.7548 85.222 49.9288C85.319 50.2268 85.572 49.6468 85.831 49.9668C85.885 50.2568 85.939 50.5488 85.993 50.8388C85.686 50.8558 85.756 50.3238 85.449 50.3378C85.16 51.3148 85.891 52.2328 85.696 53.3018ZM84.096 50.1228C83.681 49.6778 82.889 48.7328 82.462 48.0318C83.045 47.9858 83.202 48.5568 83.76 48.5448C83.926 48.9918 83.868 49.7648 84.096 50.1228ZM74.821 27.9298C74.824 28.5248 75.041 29.2668 74.682 29.6118C74.184 29.4748 74.233 28.5418 74.067 27.9208C74.456 27.7248 74.482 28.0558 74.821 27.9298ZM73.685 28.2918C73.473 28.6548 73.785 29.3758 73.836 29.9188C73.507 30.1798 73.357 29.3068 73.227 29.8828C72.963 29.5678 72.836 28.2638 73.685 28.2918ZM72.725 26.3638C72.048 25.9238 72.487 24.9958 72.148 24.0628C72.609 24.3838 72.63 25.5078 72.725 26.3638ZM72.904 32.1988C72.94 32.3928 72.976 32.5868 73.012 32.7808C73.205 32.2368 73.144 31.5178 73.098 30.8088C73.959 31.3428 73.802 33.3558 74.473 34.1648C74.596 33.8538 74.11 32.8538 74.095 32.1288C75.171 33.1068 75.246 34.1948 75.47 35.4858C75.913 38.0468 77.598 40.3948 78.764 42.6998C79.825 44.7978 80.492 46.7318 80.797 48.7918C80.315 48.9388 80.129 48.6558 79.843 48.5178C79.775 47.6258 79.606 45.1798 78.296 45.0438C78.297 44.5458 77.931 43.1578 77.428 42.7968C77.392 43.7598 78.386 46.2938 79.046 47.4618C78.358 47.7878 78.344 47.1288 77.802 47.2418C77.426 45.3858 77.233 43.2658 76.156 42.4298C75.955 43.7238 77.886 45.4308 77.138 46.9128C77.071 45.4828 76.069 44.1128 75.245 43.1998C75.061 42.4208 75.087 41.3368 74.431 41.2448C74.418 42.6088 75.244 43.8258 75.214 45.4628C75.585 45.2518 75.41 44.6668 75.435 44.2178C76.015 44.5438 76.007 45.7248 76.302 46.4648C75.523 46.5528 75.072 46.1628 74.422 46.0618C73.487 44.1388 74.378 41.2618 72.68 39.9138C73.005 41.3548 73.415 44.3958 72.913 46.0398C72.107 44.7968 72.465 42.5248 71.942 40.8028C71.528 39.4378 71.831 37.8178 71.887 36.4488C71.956 34.7498 71.857 33.0068 72.904 32.1988ZM73.376 46.1058C73.278 45.6578 73.425 45.3788 73.478 45.0328C74.024 44.8898 73.764 46.0778 73.376 46.1058ZM71.21 20.6258C71.671 20.3858 71.52 21.0358 71.635 21.2988C71.49 21.3258 71.344 21.3528 71.199 21.3798C70.881 21.1728 71.183 20.9438 71.21 20.6258ZM70.631 14.2618C70.846 14.2568 70.762 14.6868 71.003 14.6438C70.156 16.6428 70.871 19.7158 69.2 21.1478C69.719 18.8828 69.73 16.2668 70.631 14.2618ZM65.849 24.1778C65.967 24.4708 65.82 24.5808 65.811 24.7868C65.647 24.6568 65.266 24.8408 65.293 24.4318C65.403 24.2948 65.593 24.2128 65.849 24.1778ZM65.526 26.4948C66.104 26.9418 65.246 27.4818 65.532 28.1498C67.13 26.1158 66.28 22.4008 67.502 20.1088C67.989 21.6728 66.91 23.2558 67.056 25.0068C68.227 23.8228 68.068 21.7248 68.547 20.0668C69.006 20.2288 68.624 20.8688 68.591 21.1118C68.687 21.4018 69.033 21.3288 69.254 21.4398C68.008 24.4758 66.66 27.4438 65.011 30.2018C65.035 28.8658 65.197 27.6218 65.526 26.4948ZM69.658 23.6228C70.81 24.2868 71.227 26.0198 71.869 27.4258C69.784 32.5668 70.167 39.2998 71.088 45.9288C70.201 45.7208 68.819 45.7408 67.834 46.2318C66.529 43.1938 62.338 38.4958 64.857 35.0458C65.717 30.7308 68.306 27.6018 69.658 23.6228ZM66.405 46.6468C66.044 46.6508 66.138 46.9708 65.704 46.9268C65.66 46.0568 65.465 45.2798 65.445 44.7168C66.045 44.9528 66.271 45.7318 66.405 46.6468ZM60.656 67.5758C59.566 66.9448 58.448 66.3538 57.433 65.6148C58.654 57.6538 59.609 49.5098 61.996 42.3478C63.195 43.8668 64.048 45.8878 64.729 48.1608C60.27 52.6448 59.783 59.7338 60.656 67.5758ZM63.003 38.8508C62.111 38.9578 62.731 40.1028 62.426 40.6128C61.455 39.4828 62.675 37.7648 62.716 36.4958C62.876 37.5458 63.607 39.1038 63.019 39.7508C62.831 39.3248 63.191 39.2758 63.003 38.8508ZM64.411 44.0058C64.612 43.0868 63.936 42.3998 64.006 41.8238C64.352 42.1538 65.524 43.8368 64.411 44.0058ZM63.468 28.3818C63.761 27.3988 64.238 26.5418 64.61 25.6118C65.088 25.5808 64.667 26.9578 64.47 27.2928C64.814 30.7038 63.757 33.1498 62.872 35.7148C62.06 33.1568 64.398 31.0228 63.468 28.3818ZM62.09 31.4958C62.34 31.4568 62.447 31.3178 62.472 31.1238C62.779 31.8148 62.004 33.9218 62.037 35.2678C60.899 34.0928 62.321 32.8538 62.09 31.4958ZM61.349 38.8568C62.14 40.4168 60.596 41.4688 60.596 42.9088C60.041 41.9748 60.874 40.2248 60.73 39.5738C60.879 39.2958 61.472 39.3228 61.349 38.8568ZM52.56 38.5308C52.577 38.1708 53.011 37.8228 53.379 38.0768C53.432 38.4518 52.945 38.4558 52.56 38.5308ZM53.643 37.8788C53.588 37.2058 54.373 37.1108 54.963 36.8808C54.906 37.4398 54.358 38.1778 53.643 37.8788ZM58.918 36.2988C58.769 36.5308 58.268 36.6248 58.045 36.4608C58.864 35.8488 60.602 36.1718 60.765 34.9018C61.503 35.3318 61.032 36.8818 60.96 37.5748C60.681 37.4268 60.401 37.2808 59.888 37.4728C59.635 36.9788 59.307 36.5938 58.918 36.2988ZM58.748 48.3678C58.187 45.6998 59.811 42.9848 59.21 40.3068C59.801 40.0778 59.594 39.3008 59.84 38.8358C60.347 40.5968 59.199 43.7168 60.073 44.9608C59.254 46.6408 58.826 48.5898 58.572 50.6578C57.392 50.4388 57.717 48.5538 58.748 48.3678ZM58.216 51.1758C58.707 52.9208 57.339 55.6208 57.512 57.9268C57.093 58.4428 57.556 59.5638 56.99 59.9788C56.667 59.5408 56.43 58.0748 57.222 57.9808C56.312 55.6598 58.325 53.5128 56.606 52.2258C56.717 51.3688 57.921 51.9738 58.216 51.1758ZM56.455 54.6608C56.074 57.2348 55.625 59.0578 55.713 62.0218C56.243 62.0048 56.44 61.7588 56.505 61.4238C56.724 62.4638 56.118 64.0338 56.015 65.2768C55.591 65.4648 55.458 65.2268 55.116 65.2928C55.792 62.0498 54.36 57.2378 56.455 54.6608ZM54.289 55.9668C54.097 56.6788 54.514 57.8128 53.967 58.2838C53.647 58.1748 54 57.4688 53.724 56.9738C52.812 58.0818 53.027 59.9638 52.415 61.2798C52.497 61.4678 52.803 61.3318 53.024 61.3158C53.086 61.9908 52.663 61.9548 52.087 61.9418C52.129 62.4698 52.767 63.5308 51.855 63.9408C51.76 63.5258 51.758 62.9738 51.494 62.8038C51.23 63.0038 51.383 63.4898 50.874 63.5208C50.718 63.0758 51.042 62.9588 50.831 62.4758C49.882 63.3468 50.627 65.3808 49.905 66.4088C49.007 65.1038 49.805 63.6948 50.421 62.7018C51.113 61.1758 51.727 59.3388 52.522 57.7978C52.879 57.1048 53.439 55.9578 54.289 55.9668ZM53.418 64.2528C52.766 62.5598 53.84 61.1158 53.891 59.5008C54.581 60.8788 54.321 63.1688 53.418 64.2528ZM51.665 54.7978C51.409 55.2138 50.973 55.5058 50.491 55.7668C50.686 55.3098 51.183 55.0588 51.665 54.7978ZM42.714 132.298C42.689 133.184 42.54 134.818 42.634 135.925C42.318 135.919 42.267 136.096 42.078 136.177C42.422 138.272 42.506 140.395 42.166 142.33C41.881 140.566 41.197 137.863 40.742 136.275C40.785 138.891 41.518 140.299 41.401 143.074C41.136 142.167 40.739 141.452 40.242 140.881C39.853 141.376 40.458 142.026 40.475 142.945C38.854 139.776 37.132 136.735 36.231 133.049C35.581 130.388 34.554 127.804 34.02 125.183C32.923 119.797 33.315 114.123 33.088 108.803C32.995 106.613 32.634 104.394 32.747 102.095C32.846 100.073 32.732 97.1758 32.934 94.9878C33.043 93.7988 33.585 92.7008 33.795 91.5168C34.24 89.0128 34.233 86.5558 34.855 84.2488C35.15 83.1558 35.698 82.1278 35.916 81.0418C37.043 75.4348 39.616 70.4678 42.227 65.5758C43.139 63.8678 44.406 62.0828 45.637 60.4298C46.571 59.1768 48.277 57.1988 49.025 56.7918C49.344 56.6198 50.335 56.3828 50.679 56.7858C50.873 56.6658 50.992 56.4938 51.035 56.2688C51.127 57.2218 49.769 58.2748 49.51 59.4108C50.239 58.9378 50.665 58.2588 51.476 57.8418C50.503 61.3618 48.402 64.1068 47.594 67.7408C47.303 67.7338 47.374 67.1978 46.931 67.4128C46.888 66.5368 47.57 66.1588 47.426 65.2138C46.213 65.4378 47.177 67.1588 45.859 67.3108C45.908 67.9358 46.374 68.8508 45.719 68.9918C45.181 69.2818 45.223 68.7298 45.148 68.3458C44.133 69.0458 44.533 70.7158 44.142 71.8428C43.695 72.0008 43.954 71.1318 43.452 71.3688C43.336 71.9528 43.729 72.6928 43.194 73.2218C42.748 73.3798 42.631 73.0548 42.149 73.2668C42.423 72.0578 42.632 70.8048 42.811 69.5308C41.969 69.6818 42.328 70.6358 42.208 71.1478C41.913 72.4018 41.395 73.7948 41.282 75.0818C40.952 74.7628 41.27 73.8088 41.249 73.2818C40.305 73.7458 40.448 76.0238 40.205 77.3888C39.651 77.6398 39.686 77.0348 39.132 77.2858C39.763 78.5348 39.676 79.9038 38.653 80.3838C38.321 78.7898 39.363 77.5018 38.943 76.2668C37.531 78.0478 38.024 81.1368 37.938 83.8268C37.502 83.7828 37.418 83.2268 36.93 83.2618C36.712 82.4348 36.837 81.8438 36.843 81.1708C35.74 82.1898 37.158 84.9418 36.596 86.3328C36.427 85.5388 36.29 84.7688 36.337 84.1248C35.555 84.5598 36.593 86.2468 36.268 86.9968C36.452 87.5278 37.003 86.6218 36.984 87.6158C37.034 88.3858 36.632 87.3308 36.348 87.4328C36.005 88.0108 36.768 89.2028 36.37 89.9878C36.452 90.1768 36.757 90.0408 36.979 90.0238C36.914 91.0668 37.05 91.9098 37.201 92.8428C35.621 92.1788 36.307 89.4278 35.346 88.5208C34.918 89.8368 35.799 91.1578 35.784 92.5028C35.777 93.1208 35.324 93.6428 35.353 94.2378C35.418 95.5368 36.198 96.7008 36.491 97.9388C37.218 101.016 37.681 103.914 37.673 106.748C38.185 105.357 38.132 103.811 37.764 102.367C38.82 103.574 38.41 105.931 38.363 107.222C39.167 106.801 38.749 105.541 39.122 104.825C40.318 105.526 39.903 108.172 39.786 109.217C39.787 109.482 40.649 109.325 40.341 108.963C41.074 109.724 40.475 110.646 40.708 111.755C41.423 111.738 41.167 111.054 41.074 110.484C41.215 110.285 41.558 110.223 41.92 110.176C41.753 109.419 41.429 108.155 41.526 107.238C43.021 108.696 42.451 111.866 42.449 113.84C43.64 113.431 42.286 111.274 43.219 110.688C43.881 112.251 43.158 113.407 43.156 115.214C43.153 120.337 42.867 126.851 42.714 132.298ZM49.141 67.1528C48.968 67.1608 48.889 67.2328 48.877 67.3518C48.427 67.2348 48.87 66.6848 48.861 66.4528C49.374 66.4948 48.983 66.7098 49.141 67.1528ZM47.056 68.8938C46.535 69.1138 46.62 68.0468 46.721 67.9028C47.172 67.6338 47.26 68.8208 47.056 68.8938ZM45.046 69.4178C45.716 69.3338 45.339 70.3688 45.262 70.5818C44.785 70.4058 45.203 69.7908 45.046 69.4178ZM42.483 74.2568C42.365 74.3448 42.247 74.4318 42.246 74.6018C41.783 74.4468 41.969 74.0898 42.084 73.7288C42.297 73.7888 42.413 73.9888 42.483 74.2568ZM37.425 99.7228C36.7 99.3018 36.82 97.5118 36.713 96.6948C36.99 97.0918 37.527 97.1118 37.893 97.3788C37.878 97.8328 37.556 97.2978 37.311 97.4868C37.501 98.3358 37.511 99.0618 37.425 99.7228ZM36.508 94.7758C37.048 94.7898 36.778 95.8148 36.778 96.2308C36.271 95.9558 36.712 95.2638 36.508 94.7758ZM37.039 83.8438C37.53 84.4698 37.49 85.3188 37.47 86.1708C36.753 85.8888 37.034 84.4398 37.039 83.8438ZM52.056 128.308C51.034 130.568 50.07 132.868 49.634 135.529C47.092 137.534 46.966 140.437 44.776 142.6C44.377 141.351 46.085 140.454 45.728 138.811C46.002 139.165 46.18 138.948 46.283 138.557C45.98 138.44 45.833 138.819 45.885 138.03C44.725 139.645 44.749 142.073 43.112 143.36C43.467 134.112 43.534 124.037 43.741 115.104C45.491 114.574 44.283 112.008 44.704 110.562C45.854 111.375 45.467 113.473 46.451 114.301C46.39 114.894 46.065 115.305 45.993 115.89C47.405 115.706 46.269 112.704 47.183 111.757C48.155 114.13 48.79 116.453 47.987 118.53C49.305 117.235 48.716 114.631 48.827 112.506C49.708 114.356 50.22 117.234 49.814 118.642C51.104 117.567 49.742 114.336 50.642 113.373C50.646 113.325 50.64 113.294 50.636 113.259C50.579 113.181 50.515 113.115 50.452 113.047C50.281 113.004 50.061 113.032 50.071 112.727C50.21 112.808 50.335 112.922 50.452 113.047C50.546 113.071 50.619 113.124 50.636 113.259C51.129 113.932 51.403 114.958 51.537 115.764C51.784 117.241 51.271 118.969 51.329 120.318C52.311 118.834 51.45 116.084 52.195 114.439C53.064 114.954 52.669 117.663 52.713 118.857C52.729 119.327 53.175 119.169 53.284 119.504C53.456 122.839 52.305 125.264 52.056 128.308ZM67.261 96.0888C67.247 96.2098 67.236 96.3328 67.215 96.4548C67.129 96.9848 66.984 97.4808 66.798 97.9528C66.796 97.9598 66.793 97.9678 66.791 97.9738C66.756 98.6748 66.657 99.3798 66.452 100.081C66.342 100.458 66.189 100.799 66.004 101.105C65.653 102.209 64.993 103.256 64.092 104.173C62.843 106.153 61.274 107.839 59.36 109.041C58.324 109.782 57.086 110.383 55.753 110.92C55.625 110.982 55.548 110.969 55.495 110.921C54.584 111.342 53.581 111.583 52.527 111.572C50.829 111.555 48.867 111.169 47.548 110.141C47.212 110.001 46.883 109.851 46.571 109.68C42.974 108.367 40.87 103.775 39.407 99.0528C39.477 99.0938 39.544 99.1408 39.611 99.1858C39.396 98.5268 39.3 97.8538 39.232 97.1608C38.731 95.5528 38.46 93.7568 38.407 92.0798C37.94 89.1028 38.183 85.8448 39.217 83.0828C40.571 79.4628 42.193 76.4088 44.535 74.3058C44.536 74.2108 44.535 74.1168 44.546 74.0218C45.368 73.6618 45.42 72.3048 46.512 71.7758C46.924 71.2268 47.35 70.6828 47.8 70.1628C47.869 70.0718 47.948 69.9888 48.027 69.9058C48.657 69.2068 49.34 68.5628 50.119 68.0488C51.049 67.4358 51.947 67.0238 52.811 66.7858C52.818 66.7808 52.823 66.7738 52.829 66.7678C52.829 66.7718 52.827 66.7768 52.826 66.7808C53.208 66.6768 53.58 66.6178 53.949 66.5798C54.183 66.3748 54.454 66.3308 54.783 66.5458C57.784 66.6188 60.322 68.7888 62.338 71.7378C63.039 72.4678 63.552 73.5388 64.012 74.5688C64.893 76.2798 65.628 78.0868 66.209 79.8128C66.216 79.8028 66.221 79.7918 66.228 79.7818C66.834 81.0618 67.336 83.2918 67.609 84.7918C67.591 84.8328 67.569 84.8698 67.551 84.9088C67.567 84.9988 67.586 85.0938 67.6 85.1818C68.147 88.4378 68.063 92.3278 67.261 96.0888ZM64.218 68.1188C63.254 68.1618 63.771 67.0848 63.403 66.1638C62.999 66.2668 62.83 66.5308 62.956 66.9988C62.627 66.8618 62.376 66.6128 62.212 66.2348C62.4 65.8978 62.64 65.5978 62.605 65.1088C63.806 65.5098 64.379 66.6098 64.218 68.1188ZM64.057 71.3088C62.832 70.9728 63.27 69.7058 63.426 68.7168C64.696 68.8738 64.161 70.3918 64.057 71.3088ZM62.644 68.5618C61.982 68.6628 62.09 67.6428 61.911 67.0418C62.124 67.6108 63.234 67.9328 62.644 68.5618ZM64.832 69.8108C65.269 69.5448 65.03 70.2618 65.468 69.9948C65.963 71.3608 65.026 72.2418 65.28 73.0388C64.139 72.6618 65.035 70.7708 64.832 69.8108ZM66.515 74.0128C65.977 73.9948 65.808 73.4418 65.454 73.1578C66.118 72.6828 66.267 71.8548 66.24 70.9048C66.404 70.8508 66.505 70.8888 66.558 70.9958C66.691 72.0748 65.833 72.9598 66.515 74.0128ZM66.267 75.1128C65.75 75.1878 65.731 74.5368 65.496 74.2018C65.892 74.4318 66.46 74.5228 66.267 75.1128ZM67.366 75.3598C67.73 76.0278 67.862 77.5358 66.898 77.7038C66.401 76.7198 66.409 75.6838 67.366 75.3598ZM68.337 80.5978C67.805 80.6318 67.788 79.9188 67.658 79.3688C68.027 79.3258 68.072 79.0618 68.159 78.8248C68.769 79.2928 67.979 79.8798 68.337 80.5978ZM68.288 77.8978C67.837 77.4308 68.25 76.6548 68.428 76.2168C69.203 76.1958 68.667 77.5648 68.288 77.8978ZM68.984 80.0258C68.867 79.6058 69.23 79.5178 69.113 79.0988C69.471 79.0098 69.606 79.2428 69.894 79.2558C69.464 79.4248 69.409 79.8528 68.984 80.0258ZM69.798 81.9808C70.175 81.8018 70.145 82.2158 70.434 82.1638C70.565 82.8888 70.267 83.3188 69.977 83.7538C69.6 83.9338 69.631 83.5198 69.341 83.5698C69.457 83.0168 69.732 82.5708 69.798 81.9808ZM69.357 84.4698C69.711 84.2098 70.554 84.8158 71.092 84.9008C70.822 85.9598 69.946 84.6178 69.357 84.4698ZM88.449 85.2778C85.282 87.9238 81.168 87.4358 77.378 87.8998C76.652 87.9888 76.024 87.7398 75.518 87.3198C75.129 87.2328 74.77 87.1248 74.422 86.9938C74.394 86.9978 74.376 87.0088 74.341 87.0078C74.286 86.9738 74.235 86.9338 74.181 86.8988C73.368 86.5588 72.603 86.0728 71.673 85.3518C71.25 85.0238 70.989 84.5698 70.851 84.0698C70.828 84.0658 70.809 84.0558 70.784 84.0548C70.791 83.9938 70.801 83.9228 70.811 83.8528C70.699 83.2828 70.737 82.6728 70.924 82.1058C70.88 81.8838 70.84 81.6578 70.813 81.4218C70.68 81.5368 70.526 81.6168 70.297 81.4358C69.989 80.9968 70.584 80.2378 70.729 79.7018H70.742C70.742 79.6838 70.741 79.6658 70.742 79.6468C70.754 79.1058 70.777 78.5658 70.795 78.0278C70.042 78.0488 70.286 78.8118 69.613 78.5538C69.34 77.9888 69.271 76.7978 70.162 76.6468C69.763 75.9948 68.875 76.0548 68.555 75.2888C68.788 74.7808 69.14 73.6958 68.496 73.3438C67.736 73.5828 68.516 74.8808 67.602 75.0138C66.51 74.4018 67.077 72.3998 67.245 71.4698C68.007 71.7768 68.566 72.3788 69.287 72.7448C68.132 71.7088 66.239 69.8248 64.842 69.0558C64.603 68.3418 64.917 68.0088 65.009 67.5198C66.173 67.9808 66.824 69.1888 67.967 69.6808C66.734 67.7178 63.72 66.7468 63.035 63.3708C62.726 63.2048 62.678 62.6598 62.173 62.7778C61.837 63.4348 62.662 64.9838 61.786 65.5588C61.95 64.0418 61.447 61.7768 61.493 60.3188C61.356 59.9098 61.286 59.4878 61.323 59.0828C61.356 58.7208 61.36 58.3428 61.486 58.0008C61.539 57.8568 61.584 57.7408 61.627 57.6358C61.699 57.3358 61.772 57.0378 61.841 56.7368C61.843 55.1968 62.234 53.6548 63.214 52.1538C63.225 52.1368 63.239 52.1208 63.251 52.1038C63.226 52.0398 63.205 51.9768 63.167 51.9108C63.731 51.5228 63.517 50.5988 64.459 50.4688C64.52 50.3128 64.59 50.1558 64.682 49.9988C65.389 48.7918 66.733 48.1008 68.049 47.7868C68.429 47.6958 68.81 47.6228 69.191 47.5588C69.206 47.5568 69.22 47.5538 69.235 47.5518C70.771 47.3008 72.299 47.3268 73.705 47.9658C73.826 47.9868 73.947 48.0058 74.068 48.0268C74.053 47.9998 74.034 47.9708 74.019 47.9438C75.127 47.8078 75.766 48.3588 76.681 48.5028C76.698 48.5738 76.708 48.6528 76.72 48.7308C77.391 48.9718 78.052 49.2548 78.702 49.5808C78.692 49.5498 78.678 49.5198 78.669 49.4898C79.618 49.8948 80.334 50.6378 81.347 50.9488C81.407 51.0538 81.455 51.1728 81.511 51.2818C84.563 53.4688 87.15 56.4678 88.753 59.6798C89.035 59.9708 89.279 60.3168 89.48 60.7258C89.544 60.8348 89.558 60.9088 89.552 60.9698C89.992 61.4898 90.249 62.0928 90.432 62.7398C91.314 64.3248 91.879 66.0038 92.086 67.6508C92.442 68.5148 92.667 69.3568 92.8 70.2038C92.819 70.1478 92.84 70.0848 92.86 70.0308C93.369 71.7258 93.256 73.0348 92.827 74.1818C92.779 74.6068 92.719 75.0428 92.647 75.4938C92.569 75.9828 92.475 76.5028 92.367 77.0358C92.301 78.4138 91.928 79.7198 91.282 80.8938C90.625 82.6218 89.718 84.2188 88.449 85.2778ZM91.809 83.0148C91.453 84.7598 90.535 86.1178 89.973 87.7188C90.265 86.4388 90.239 83.8408 91.809 83.0148ZM89.138 87.2728C88.908 86.5228 89.039 86.0198 89.623 85.8298C89.49 86.3298 89.585 86.9878 89.138 87.2728ZM104.731 107.253C103.742 106.452 102.796 105.326 101.782 104.339C97.533 100.202 92.697 94.9958 89.897 88.9358C92.325 84.8508 92.945 79.5218 94.161 74.6038C94.134 74.4578 94.107 74.3128 94.08 74.1668C94.245 74.1118 94.346 74.1508 94.398 74.2578C95.013 74.2198 94.58 75.4178 94.178 75.5018C94.128 80.2068 92.377 83.7428 91.336 87.7668C93.172 84.6698 94.034 80.9048 94.593 76.9308C95.927 78.8968 93.911 81.6538 93.425 83.6178C94.711 82.3428 95.279 80.5768 95.498 78.5688C97.418 80.4048 98.098 83.0158 99.293 85.2378C100.218 86.9588 101.396 88.4388 102.446 90.0708C106.696 96.6748 110.636 103.754 115.378 109.491C115.825 110.033 116.089 110.677 116.601 111.221C117.326 111.99 118.055 112.365 118.541 113.57C113.557 112.065 108.612 110.401 104.731 107.253Z" fill="#604C3F"/>
<path fill-rule="evenodd" clip-rule="evenodd" d="M106.605 83.2807C106.21 83.0987 107.4 83.3567 107.559 83.5547C108.309 83.7027 106.702 83.6217 106.605 83.2807Z" fill="#604C3F"/>
</svg>
