<svg width="101" height="128" viewBox="0 0 101 128" fill="none" xmlns="http://www.w3.org/2000/svg">
<path d="M99.982 25.6413C99.831 24.3243 99.787 23.1073 99.033 21.8433C97.132 18.6563 93.032 17.1063 89.732 17.8633C88.465 18.1543 87.476 19.1684 86.668 18.1964C85.625 16.9414 86.494 14.7843 84.951 13.3543C84.59 13.0193 83.761 12.7763 83.297 12.6133C82.035 12.1683 81.203 12.1903 79.815 13.4083C77.704 10.6333 75.49 7.32736 74.198 4.01536C73.934 3.33736 73.932 2.68234 73.595 2.24534C72.439 0.761337 69.197 0.579353 67.322 1.56235C64.793 2.88735 64.949 5.98535 63.271 7.28235C62.985 7.50335 62.545 7.60735 62.23 7.79035C61.898 7.98135 61.653 8.34135 61.392 8.45835C59.933 9.10535 58.198 9.01835 56.657 9.86335C54.558 11.0173 53.357 12.2054 52.314 13.6614C49.296 17.8714 47.966 24.4543 49.355 29.8203C50.342 33.6363 54.18 38.6233 51.892 41.1033C51.427 41.6063 50.619 41.7753 50.064 42.3823C48.844 43.7153 48.842 45.5223 49.964 47.2063C50.761 47.3163 51.351 48.0684 52.39 48.4764C53.551 48.9294 55.726 48.7393 56.216 49.9653C56.612 50.9563 55.392 52.5343 53.902 53.1593C53.345 53.3933 52.453 53.2903 51.926 53.6073C51.136 54.0823 50.407 55.5083 50.447 56.3953C50.505 57.7033 51.98 58.9103 52.23 59.7843C52.495 60.7203 51.4 62.1304 50.897 63.4024C49.482 66.9874 48.16 71.2893 46.798 74.0503C44.873 69.4603 41.982 65.3393 43.177 62.1343C43.467 61.3583 44.26 60.7613 44.598 60.0203C45.29 58.5093 45.252 57.0733 44.28 55.4003C43.017 54.9543 40.991 56.7213 39.652 56.4963C37.884 55.1423 37.95 53.1633 38.505 51.7633C38.962 50.6083 40.155 49.2863 40.982 47.8443C42.156 45.7933 43.415 44.0474 43.891 42.1654C44.035 40.3084 43.453 38.6703 41.967 37.1663C39.111 35.9553 34.523 40.8674 32.523 37.1264C32.082 36.2994 32.631 33.7784 32.924 33.1874C33.455 32.5694 34.202 31.9743 34.655 31.1803C35.036 30.5173 35.971 27.8623 36.04 27.6643C36.139 27.3833 36.529 25.4533 36.584 25.0763C37.155 21.0383 35.199 16.9203 32.289 13.1003C31.847 12.5413 28.435 11.1413 27.432 11.0823C25.784 10.9833 24.37 12.1223 22.54 12.4353C21.625 12.5923 20.122 11.5323 19.18 11.1063C16.58 9.92733 14.262 8.90935 11.04 10.2994C9.13698 11.1224 6.72298 13.3183 6.06098 15.4403C5.66298 16.7133 5.988 18.2533 5.865 19.5383C5.805 20.1693 5.68402 21.0254 5.48102 21.6614C4.69602 24.1214 2.37299 25.4093 1.63599 27.5393C0.842992 29.8313 0.384034 32.9913 1.50403 35.7353C2.72703 38.7253 4.93399 39.8823 6.85499 40.6123C7.92199 41.0173 9.36999 41.1073 10.688 41.3243C13.382 41.7673 15.834 42.1854 18.514 42.2824C20.009 42.3364 21.478 42.0123 22.561 42.3733C23.549 42.7023 25.43 44.4914 25.902 45.7784C26.715 48.0004 23.792 48.9664 22.12 50.4623C20.835 51.6103 20.396 52.2243 20.221 53.7123C20.592 55.5123 22.094 56.9524 23.868 57.4844C25.357 57.9294 27.345 57.0953 28.906 56.9623C30.66 56.8123 32.96 56.8153 33.828 57.7883C35.937 60.1513 32.453 60.8933 32.12 62.7514C32.054 63.8074 33.622 65.2364 34.684 65.8904C35.641 66.4794 37.109 66.3194 38.198 67.2734C39.938 68.7934 42.669 73.2384 42.377 75.3044C41.684 75.6754 41.339 74.9644 40.927 74.9784C40.759 74.9844 40.669 75.1313 40.532 75.2193C44.255 76.4273 48.842 77.2763 52.387 77.4223C51.199 76.8993 50.356 76.4313 50.513 76.3683C51.1 74.5113 53.037 73.3744 54.551 71.9454C56.168 70.4193 58.08 68.2603 60.254 66.9663C62.207 65.8063 63.36 66.3124 64.985 66.0794C67.411 65.7314 69.067 64.2913 69.842 62.8053C69.41 61.2193 67.477 59.2874 68.849 58.1274C69.942 57.2044 72.023 57.4523 73.421 57.4443C74.922 57.4363 76.505 57.5493 77.991 57.0213C81.845 55.6533 83.422 52.8264 83.925 49.8684C83.747 49.2684 83.441 48.7834 83.163 48.0454C82.962 47.5084 82.341 46.8273 82.293 46.7913C81.849 46.4503 81.061 45.5383 80.649 45.0113C80.157 44.3793 79.402 43.4453 79.217 42.8693C78.347 40.1443 83.188 40.7854 84.166 40.8424C86.56 40.9834 89.394 40.6223 92.332 38.7943C97.041 35.8653 100.55 30.5883 99.982 25.6413Z" fill="#52982A"/>
<path d="M40.299 75.2861C39.219 75.2031 38.193 74.682 37.14 74.633C36.221 74.59 35.035 74.6961 33.974 74.7571C28.806 75.0561 23.613 78.7951 21.497 82.2651C20.69 83.5891 19.595 84.998 19.177 86.237C18.537 88.133 18.181 90.896 18.118 93.594C18.032 97.423 18.327 101.353 20.961 105.503C23.334 109.242 25.83 111.789 29.033 113.312C32.047 114.745 35.51 114.735 38.816 115.897C40.643 116.54 42.734 117.332 44.137 118.336C48.455 121.431 44.471 125.116 40.011 126.285C37.924 125.189 36.352 122.577 34.194 121.508C33.727 121.277 33.122 121.11 32.592 120.87C32.125 120.657 31.298 120.141 30.881 120.802C31.286 122.244 33.551 121.77 34.078 122.856C32.006 123.494 29.579 122.659 28.227 121.45C27.635 120.922 27.301 119.762 26.217 119.978C26.305 121.517 28.141 122.037 28.937 123.169C30.752 123.444 32.925 125.072 34.958 123.072C36.124 124.223 37.701 125.52 38.555 126.738C36.312 126.367 34.398 125.036 32.14 124.704C25.43 127.055 22.733 117.75 16.207 119.569C17.376 120.145 17.682 120.48 18.739 120.527C20.198 120.593 21.672 121.562 22.2 122.326C20.246 122.622 18.129 123.396 16.006 124.185C16.023 124.586 17.747 124.034 18.054 124.293C19.492 123.151 20.43 123.86 22.19 123.362C23.18 123.828 24.151 123.726 25.14 124.117C26.619 124.701 27.672 126.079 29.167 126.283C30.333 126.442 31.331 125.778 32.544 125.797C32.782 125.801 33.662 126.01 34.15 126.176C35.988 126.802 38.095 128.525 39.899 127.374C43.294 127.418 49.268 125.426 50.484 122.08C50.572 121.127 50.435 120.097 50.771 119.228C56.494 118.002 60.842 115.316 64.073 111.834C65.599 110.188 67.341 108.333 68.068 106.528C68.925 104.403 69.299 102.963 69.685 100.318C69.404 97.658 69.539 94.292 68.32 91.172C67.75 89.712 67.136 87.909 66.291 86.482C65.473 85.104 62.776 81.228 57.336 78.977C56.058 78.876 53.93 78.102 52.387 77.422C48.842 77.276 44.254 76.427 40.532 75.219C40.467 75.263 40.396 75.2941 40.299 75.2861Z" fill="#EA7082"/>
<path fill-rule="evenodd" clip-rule="evenodd" d="M22.452 32.1009C22.612 28.3059 23.252 24.4409 22.878 20.2759C22.762 18.9819 22.139 17.7229 22.397 16.3799C23.388 19.4109 23.313 22.0749 23.405 24.7949C25.273 23.1219 26.715 20.5569 27.723 18.2999C27.577 17.9309 27.743 17.6709 27.474 17.2599C28.342 18.4209 27.478 20.0739 26.916 21.1459C26.143 22.6289 24.761 23.9799 23.918 25.3199C22.591 27.4319 23.542 30.5279 23.22 33.1469C24.679 35.2799 26.072 37.4979 27.568 39.6749C29.466 42.4399 31.146 45.3199 32.884 47.9249C34.343 45.7369 34.583 43.1299 36.686 41.1639C36.926 41.7749 36.275 42.0759 36.051 42.5069C35.863 42.8639 35.888 43.3349 35.673 43.8529C35.438 44.4259 34.895 44.9999 34.619 45.6579C34.282 46.4609 33.402 48.3509 33.498 48.9159C33.708 50.1599 34.715 51.8039 35.172 52.8759C35.616 53.9199 36.686 55.0519 36.074 56.0509C34.559 54.0049 34.023 51.3129 32.462 48.6479C31.35 46.7479 30.054 44.6379 28.989 42.8549C27.432 40.2439 24.761 38.5129 22.609 37.1889C21.33 36.4019 19.774 35.9489 18.419 35.7489C17.16 36.3089 15.216 36.1459 13.533 36.5829C12.981 36.7279 12.47 37.1309 11.918 37.2419C11.202 37.3859 10.179 37.2129 9.42798 37.1659C8.57498 37.1119 7.75101 37.1649 7.09601 36.8839C8.23801 36.1209 9.78099 36.7569 10.886 36.7119C12.518 36.6479 14.206 35.6519 16.192 35.4159C15.447 34.7239 14.448 34.7679 13.554 34.5079C11.587 33.4159 9.66601 32.1899 7.93701 30.4059C9.10301 30.3789 9.94901 31.3139 10.726 31.8849C11.558 32.4979 12.434 33.2369 13.407 33.6749C15.337 34.5469 17.55 34.5289 19.516 35.0839C21.861 35.7459 23.864 37.4019 26.071 38.7279C21.798 31.5659 16.459 25.3159 10.881 21.0949C10.935 20.9689 11.063 20.8679 11.248 20.7859C15.519 23.5089 18.796 27.5799 22.452 32.1009Z" fill="#604C3F"/>
<path fill-rule="evenodd" clip-rule="evenodd" d="M67.647 10.6959C67.751 10.6499 67.791 10.7849 67.854 10.8539C67.506 11.8879 67.411 13.1519 66.938 14.2689C66.666 14.9129 66.047 15.3489 65.987 16.0249C65.964 16.2949 66.203 16.5759 66.135 16.8559C65.948 17.6289 65.231 18.2379 64.973 18.9709C65.514 16.0919 66.857 13.4899 67.647 10.6959Z" fill="#604C3F"/>
<path fill-rule="evenodd" clip-rule="evenodd" d="M61.149 22.7744C58.611 22.6254 57.731 19.0424 55.858 17.2234C57.03 16.8714 58.326 19.6084 58.935 20.8844C59.648 21.5884 60.532 21.7934 61.149 22.7744Z" fill="#604C3F"/>
<path fill-rule="evenodd" clip-rule="evenodd" d="M54.821 33.3496C55.703 33.5896 55.766 34.7856 56.044 35.5926C56.331 36.4246 56.505 37.3686 56.797 38.1946C57.268 39.5246 58.151 40.7236 58.628 41.9476C58.974 42.8326 59.776 44.4316 58.911 44.9076C58.402 45.0676 58.819 44.2326 58.712 43.9726C57.087 40.5316 55.786 36.9876 54.611 33.4526C54.681 33.4176 54.75 33.3836 54.821 33.3496Z" fill="#604C3F"/>
<path fill-rule="evenodd" clip-rule="evenodd" d="M73.773 37.0098C73.822 37.4598 73.242 37.6948 72.986 38.0388C73.002 37.6118 73.373 37.3058 73.773 37.0098Z" fill="#604C3F"/>
<path fill-rule="evenodd" clip-rule="evenodd" d="M62.462 53.2444C62.831 53.2304 63.268 53.0174 63.504 52.7344C63.447 53.1484 63.146 53.4784 62.561 53.7124C62.41 53.5144 62.498 53.4004 62.462 53.2444Z" fill="#604C3F"/>
<path fill-rule="evenodd" clip-rule="evenodd" d="M55.415 57.584C55.686 57.74 55.767 58.57 55.352 58.778C55.105 58.288 55.419 57.991 55.415 57.584Z" fill="#604C3F"/>
<path fill-rule="evenodd" clip-rule="evenodd" d="M64.813 57.0028C64.951 56.9358 65.091 56.8668 65.23 56.7988C65.215 56.9098 65.203 57.0228 65.279 57.1628C65.174 57.2138 65.069 57.2658 64.966 57.3148C64.914 57.2108 64.864 57.1058 64.813 57.0028Z" fill="#604C3F"/>
<path fill-rule="evenodd" clip-rule="evenodd" d="M60.126 64.0645C59.244 65.7855 57.331 67.1515 55.774 68.6395C56.368 66.8755 58.882 65.3155 60.126 64.0645Z" fill="#604C3F"/>
<path d="M99.982 25.6413C99.831 24.3243 99.787 23.1073 99.033 21.8433C97.132 18.6563 93.032 17.1063 89.732 17.8633C88.465 18.1543 87.476 19.1684 86.668 18.1964C85.625 16.9414 86.494 14.7843 84.951 13.3543C84.59 13.0193 83.761 12.7763 83.297 12.6133C82.035 12.1683 81.203 12.1903 79.815 13.4083C77.704 10.6333 75.49 7.32736 74.198 4.01536C73.934 3.33736 73.932 2.68234 73.595 2.24534C72.439 0.761337 69.197 0.579353 67.322 1.56235C64.793 2.88735 64.949 5.98535 63.271 7.28235C62.985 7.50335 62.545 7.60735 62.23 7.79035C61.898 7.98135 61.653 8.34135 61.392 8.45835C59.933 9.10535 58.198 9.01835 56.657 9.86335C54.558 11.0173 53.357 12.2054 52.314 13.6614C49.296 17.8714 47.966 24.4543 49.355 29.8203C50.342 33.6363 54.18 38.6233 51.892 41.1033C51.427 41.6063 50.619 41.7753 50.064 42.3823C48.844 43.7153 48.842 45.5223 49.964 47.2063C50.761 47.3163 51.351 48.0684 52.39 48.4764C53.551 48.9294 55.726 48.7393 56.216 49.9653C56.612 50.9563 55.392 52.5343 53.902 53.1593C53.345 53.3933 52.453 53.2903 51.926 53.6073C51.136 54.0823 50.407 55.5083 50.447 56.3953C50.505 57.7033 51.98 58.9103 52.23 59.7843C52.495 60.7203 51.4 62.1304 50.897 63.4024C49.482 66.9874 48.16 71.2893 46.798 74.0503C44.873 69.4603 41.982 65.3393 43.177 62.1343C43.467 61.3583 44.26 60.7613 44.598 60.0203C45.29 58.5093 45.252 57.0733 44.28 55.4003C43.017 54.9543 40.991 56.7213 39.652 56.4963C37.884 55.1423 37.95 53.1633 38.505 51.7633C38.962 50.6083 40.155 49.2863 40.982 47.8443C42.156 45.7933 43.415 44.0474 43.891 42.1654C44.035 40.3084 43.453 38.6703 41.967 37.1663C39.111 35.9553 34.523 40.8674 32.523 37.1264C32.082 36.2994 32.631 33.7784 32.924 33.1874C33.455 32.5694 34.202 31.9743 34.655 31.1803C35.036 30.5173 35.971 27.8623 36.04 27.6643C36.139 27.3833 36.529 25.4533 36.584 25.0763C37.155 21.0383 35.199 16.9203 32.289 13.1003C31.847 12.5413 28.435 11.1413 27.432 11.0823C25.784 10.9833 24.37 12.1223 22.54 12.4353C21.625 12.5923 20.122 11.5323 19.18 11.1063C16.58 9.92733 14.262 8.90935 11.04 10.2994C9.13698 11.1224 6.72298 13.3183 6.06098 15.4403C5.66298 16.7133 5.988 18.2533 5.865 19.5383C5.805 20.1693 5.68402 21.0254 5.48102 21.6614C4.69602 24.1214 2.37299 25.4093 1.63599 27.5393C0.842992 29.8313 0.384034 32.9913 1.50403 35.7353C2.72703 38.7253 4.93399 39.8823 6.85499 40.6123C7.92199 41.0173 9.36999 41.1073 10.688 41.3243C13.382 41.7673 15.834 42.1854 18.514 42.2824C20.009 42.3364 21.478 42.0123 22.561 42.3733C23.549 42.7023 25.43 44.4914 25.902 45.7784C26.715 48.0004 23.792 48.9664 22.12 50.4623C20.835 51.6103 20.396 52.2243 20.221 53.7123C20.592 55.5123 22.094 56.9524 23.868 57.4844C25.357 57.9294 27.345 57.0953 28.906 56.9623C30.66 56.8123 32.96 56.8153 33.828 57.7883C35.937 60.1513 32.453 60.8933 32.12 62.7514C32.054 63.8074 33.622 65.2364 34.684 65.8904C35.641 66.4794 37.109 66.3194 38.198 67.2734C39.938 68.7934 42.669 73.2384 42.377 75.3044C41.684 75.6754 41.339 74.9644 40.927 74.9784C40.681 74.9874 40.61 75.3073 40.301 75.2843C39.221 75.2013 38.195 74.6803 37.142 74.6313C36.223 74.5883 35.037 74.6944 33.976 74.7553C28.808 75.0544 23.615 78.7933 21.499 82.2633C20.692 83.5873 19.597 84.9963 19.179 86.2353C18.539 88.1313 18.183 90.8943 18.12 93.5923C18.034 97.4213 18.329 101.351 20.963 105.501C23.336 109.24 25.832 111.787 29.035 113.31C32.049 114.743 35.512 114.733 38.818 115.895C40.645 116.538 42.736 117.33 44.139 118.334C48.457 121.429 44.473 125.114 40.013 126.283C37.926 125.187 36.354 122.575 34.196 121.506C33.729 121.275 33.124 121.108 32.594 120.868C32.127 120.655 31.3 120.139 30.883 120.8C31.288 122.242 33.553 121.768 34.08 122.854C32.008 123.492 29.581 122.657 28.229 121.448C27.637 120.92 27.303 119.76 26.219 119.976C26.307 121.515 28.143 122.035 28.939 123.167C30.754 123.442 32.927 125.07 34.96 123.07C36.126 124.221 37.703 125.518 38.557 126.736C36.314 126.365 34.4 125.034 32.142 124.702C25.432 127.053 22.735 117.748 16.209 119.567C17.378 120.143 17.684 120.478 18.741 120.525C20.2 120.591 21.674 121.56 22.202 122.324C20.248 122.62 18.131 123.394 16.008 124.183C16.025 124.584 17.749 124.032 18.056 124.291C19.494 123.149 20.432 123.858 22.192 123.36C23.182 123.826 24.153 123.724 25.142 124.115C26.621 124.699 27.674 126.077 29.169 126.281C30.335 126.44 31.333 125.776 32.546 125.795C32.784 125.799 33.664 126.008 34.152 126.174C35.99 126.8 38.097 128.523 39.901 127.372C43.296 127.416 49.27 125.424 50.486 122.078C50.574 121.125 50.437 120.095 50.773 119.226C56.496 118 60.844 115.314 64.075 111.832C65.601 110.186 67.343 108.331 68.07 106.526C68.927 104.401 69.301 102.961 69.687 100.316C69.406 97.6563 69.541 94.2903 68.322 91.1703C67.752 89.7103 67.138 87.9073 66.293 86.4803C65.475 85.1023 62.778 81.2263 57.338 78.9753C55.075 78.7963 50.152 76.5103 50.515 76.3673C51.102 74.5103 53.039 73.3733 54.553 71.9443C56.17 70.4183 58.082 68.2593 60.256 66.9653C62.209 65.8053 63.362 66.3113 64.987 66.0783C67.413 65.7303 69.069 64.2903 69.844 62.8043C69.412 61.2183 67.479 59.2864 68.851 58.1264C69.944 57.2034 72.025 57.4513 73.423 57.4433C74.924 57.4353 76.507 57.5483 77.993 57.0203C81.847 55.6523 83.424 52.8253 83.927 49.8673C83.749 49.2673 83.443 48.7823 83.165 48.0443C82.964 47.5074 82.343 46.8264 82.295 46.7904C81.851 46.4494 81.063 45.5374 80.651 45.0104C80.159 44.3784 79.404 43.4444 79.219 42.8684C78.349 40.1434 83.19 40.7843 84.168 40.8413C86.562 40.9823 89.396 40.6213 92.334 38.7933C97.041 35.8653 100.55 30.5883 99.982 25.6413ZM47.777 74.7364C48.977 69.5964 51.708 64.9843 53.522 60.0563C53.188 58.5873 51.362 57.6793 51.384 55.9363C51.578 54.9953 52.674 54.7864 53.734 54.4034C55.46 53.7784 58.169 51.8074 57.411 49.7683C56.511 47.3493 51.608 48.2153 50.341 45.8613C49.658 44.5943 50.489 43.6643 51.823 42.8143C53.158 41.9643 53.947 40.2273 53.886 38.8393C53.813 37.1993 52.263 35.0293 51.553 33.2663C49.339 27.7613 49.411 21.7363 51.287 17.9063C51.295 17.9593 51.295 18.0093 51.3 18.0613C51.442 17.7673 51.6 17.4753 51.766 17.1843C51.881 16.6923 52.054 16.2313 52.346 15.8403C52.356 15.8723 52.359 15.9043 52.366 15.9353C52.38 15.8923 52.389 15.8484 52.411 15.8084C52.593 15.4774 52.738 15.3273 52.993 15.1303C53.201 13.4383 55.646 12.0273 57.373 11.0643C57.516 10.9533 57.584 10.9733 57.615 11.0393C57.943 10.8113 58.321 10.6624 58.716 10.5454C59.282 10.2864 59.913 10.1363 60.392 10.1073C60.392 10.1093 60.392 10.1124 60.392 10.1144C60.673 10.0554 60.968 10.0254 61.271 10.0154C61.421 9.96836 61.57 9.92333 61.721 9.87333C62.252 9.37633 62.988 8.91534 63.624 8.53034C63.628 8.57234 63.622 8.61135 63.624 8.65235C63.755 8.40035 63.946 8.20334 64.192 8.06934C64.366 7.61734 64.727 7.15035 65.073 6.67835C65.3 6.26235 65.528 5.84533 65.737 5.44333C65.742 5.43233 65.749 5.42535 65.754 5.41535C65.765 5.37135 65.777 5.32635 65.782 5.28235C65.788 5.30435 65.789 5.32835 65.794 5.35135C66.002 4.96735 66.239 4.64033 66.499 4.35233C66.522 4.23233 66.552 4.11435 66.573 3.99235C66.963 3.54835 67.636 2.93734 68.383 2.79734C68.419 2.78234 68.449 2.76334 68.486 2.75034C68.726 2.66834 68.971 2.62034 69.217 2.59534C69.223 2.58534 69.227 2.57434 69.233 2.56534C69.727 2.47134 70.233 2.34836 70.633 2.52836C70.649 2.58036 70.651 2.62834 70.656 2.67634C70.715 2.67334 70.771 2.66634 70.831 2.66434C70.932 2.66134 71.019 2.68533 71.102 2.71833C71.688 2.60133 72.142 2.86335 72.546 3.27335C72.538 3.30635 72.523 3.33835 72.514 3.37235C72.674 3.49535 72.802 3.62333 72.888 3.75733C72.894 3.75333 72.898 3.74833 72.905 3.74433C74.156 5.16633 74.312 7.23134 75.449 8.95734C76.736 10.9143 78.475 12.9743 79.49 14.8594C79.722 15.2914 79.719 16.1213 79.992 16.6803C80.15 17.0043 80.499 16.9763 80.761 17.7253C81.367 19.4653 81.621 21.3264 81.397 21.6744C80.448 25.2934 79.084 29.8193 75.325 32.5113C73.708 33.6703 70.77 34.3633 69.377 35.9293C68.77 36.6143 68.742 37.5483 68.264 38.4093C68.469 38.9133 68.442 39.3374 68.563 39.8124C69.317 40.4524 70.864 39.9353 71.143 41.1343C71.372 41.2303 71.711 40.9933 71.921 41.1423C73.078 42.4173 72.833 43.8573 72.765 44.9903C71.356 48.6513 65.789 46.5983 63.352 47.3883C62.762 47.5803 61.958 48.1903 61.628 48.6163C60.645 49.8923 59.451 53.9783 62.086 54.8473C62.701 56.1603 63.522 57.3463 62.309 58.7413C60.172 59.8343 57.989 59.8863 56.472 61.3283C55.605 62.1543 55.268 63.5274 54.623 64.6834C54.313 65.2414 53.758 65.5743 53.469 66.0213C53.1 66.5933 52.784 67.3053 52.465 67.9313C52.145 68.5563 52.038 69.2573 51.719 69.8433C51.473 70.2973 50.951 70.6664 50.669 71.1303C49.653 72.8003 48.957 75.1313 47.607 76.4963C47.384 75.9853 47.336 75.5363 47.154 75.0403C47.359 74.9403 47.569 74.8374 47.777 74.7364ZM68.005 48.7313C67.341 49.6013 66.603 50.4463 65.439 51.1453C66.75 50.7313 67.261 50.2364 68.463 49.6693C68.405 51.4413 67.538 53.0093 67.015 54.6363C66.445 56.4063 65.554 58.0693 64.888 59.8043C64.759 59.8463 64.714 59.9173 64.732 60.0093C63.63 60.9953 63.242 61.8073 61.544 62.4703C61.627 61.6893 62.738 61.2613 63.066 60.5653C63.003 60.2433 62.756 60.4563 62.654 60.2493C62.019 60.4643 62.019 60.8983 61.556 61.1723C61.708 61.4833 62.256 60.6483 62.333 61.1793C61.439 61.9133 60.55 62.6493 59.976 63.4923C59.285 63.2303 58.736 64.4493 57.84 64.4053C57.637 63.9603 58.23 63.7873 58.574 63.5303C58.011 62.4123 59.247 61.9124 59.118 60.9414C61.498 60.4244 63.989 59.3513 64.911 57.4703C64.589 57.3643 64.491 58.0744 63.97 58.1874C63.834 57.6214 64.492 57.3264 64.761 56.8984C64.669 56.6634 64.368 57.0323 64.189 57.0483C64.117 56.6173 63.954 56.1573 64.253 55.8563C64.031 55.7263 63.453 55.3354 64.001 55.0754C63.298 54.7864 62.745 54.0383 61.94 53.4993C61.732 53.1963 62.059 53.0773 62.153 52.8783C62.051 52.5893 61.709 52.9934 61.637 52.6144C61.752 52.2774 62.041 52.0013 62.217 51.6853C62.026 51.4793 61.858 52.1913 61.591 51.9913C61.501 51.5553 61.477 51.1413 61.965 50.9053C62.115 51.1333 62.379 51.2363 62.27 51.5303C62.685 51.2973 62.704 50.9274 63.161 50.7094C63.246 50.8834 63.331 51.0563 63.415 51.2293C63.661 50.9673 63.753 50.6523 63.891 50.3533C63.779 50.2633 63.427 50.6783 63.111 50.6043C63.347 50.0493 63.921 49.6103 64.318 49.1113C63.799 49.2673 63.449 49.7693 62.81 49.4603C62.546 49.7163 62.292 49.9774 62.025 50.2304C61.569 49.5564 63.239 48.5783 64.22 48.3843C64.495 48.5063 64.277 48.5213 64.424 48.8013C64.89 48.5003 65.347 48.0834 65.831 48.2434C65.697 48.8334 64.774 49.1523 64.622 49.7363C65.041 49.5593 65.806 48.7573 66.09 48.2463C66.342 48.1033 66.493 48.2524 66.714 48.2004C66.819 48.8734 66.126 49.2703 65.661 49.7463C66.643 49.0843 67.794 47.8423 69.203 48.2753C69.226 48.8803 68.284 49.5553 67.685 49.6623C67.783 49.3483 68.14 49.1253 68.005 48.7313ZM57.802 63.0043C57.304 64.1053 56 64.9294 54.919 65.8294C55.753 64.7954 55.856 62.8983 57.802 63.0043ZM57.341 62.3243C57.282 61.8703 57.777 61.6064 58.129 61.2954C58.485 61.8254 57.894 62.3833 57.341 62.3243ZM62.071 50.8533C62.126 50.4963 62.339 50.1943 62.805 49.9783C63.007 50.4063 62.474 50.9073 62.071 50.8533ZM38.107 65.7703C36.543 65.1903 34.39 64.9763 33.567 63.0803C33.659 62.3853 34.482 61.5913 35.192 61.3843C36.396 59.1743 34.654 56.3323 32.546 55.9643C32.299 55.9213 31.064 55.8913 30.834 55.8963C28.498 55.9463 25.951 56.5673 23.874 56.4513C23.16 55.7603 21.86 55.6053 21.453 54.6633C20.482 52.4133 25.466 50.4184 26.702 48.4883C27.209 47.6983 26.97 47.0893 27.19 46.3143C25.933 43.6673 24.744 42.1843 22.982 41.3963C21.749 40.8443 20.149 41.2793 18.521 41.2493C16.77 41.2173 14.623 40.9633 12.508 40.5683C10.469 40.1863 8.27602 40.0013 6.76002 39.3713C4.72302 38.5253 2.31303 36.6903 1.93903 33.4613C1.71903 31.5673 2.14398 29.4873 2.82398 27.8663C3.62598 25.9563 5.43302 24.7023 6.35102 22.6603C7.40502 20.3183 6.161 17.1384 8.141 14.6874C8.989 13.6374 10.939 11.6653 12.791 11.2553C16.175 10.5103 18.073 12.1643 20.35 13.2483C20.874 13.4983 21.876 13.9993 22.522 13.9963C24.27 13.9853 25.754 12.1853 27.831 12.4393C27.85 12.4823 27.858 12.5233 27.872 12.5653C28.286 12.4283 28.72 12.4743 29.154 12.7193C30.13 12.9463 31.056 13.3173 31.848 14.0743C31.976 14.1063 32.098 14.1573 32.187 14.2463C32.289 14.3493 32.371 14.4604 32.442 14.5754C32.456 14.5704 32.464 14.5594 32.48 14.5584C32.906 14.9354 33.105 15.3434 33.196 15.7604C33.258 15.8424 33.312 15.9243 33.357 16.0073C33.438 16.0823 33.522 16.1543 33.6 16.2333C33.681 16.3143 33.729 16.4073 33.762 16.5043C33.78 16.5023 33.79 16.4903 33.81 16.4903C34.025 16.8263 34.155 17.1553 34.232 17.4813C34.409 17.8023 34.556 18.1353 34.666 18.4833C34.689 18.4453 34.7 18.4043 34.726 18.3673C35.486 19.7473 35.728 20.9503 35.713 22.0633C35.805 22.8773 35.759 23.7683 35.684 24.7623C35.671 24.9373 35.601 25.1393 35.496 25.3363C35.489 26.5873 33.973 31.1893 32.201 32.5073C30.358 34.6973 31.945 40.2053 35.292 40.1643C37.815 39.6183 40.224 37.1963 41.899 38.6193C42.959 39.5193 43.323 41.2833 43.056 42.3143C42.706 43.6683 41.575 45.4873 40.622 47.1163C39.06 49.7893 36.292 52.1874 37.685 55.6484C37.825 55.9964 38.244 57.0063 38.706 57.4743C39.912 58.7003 41.623 57.2283 43.639 57.0033C44.63 58.8163 43.402 59.6103 42.719 60.9363C40.347 65.5434 44.781 71.7903 46.564 76.4873C45.603 76.2533 44.721 75.7913 43.771 75.5263C43.016 71.9253 40.583 67.8553 38.107 65.7703ZM23.79 108.124C23.905 108.126 24.021 108.125 24.1 108.231C26.045 110.227 28.407 111.016 30.385 112.91C27.896 112.162 25.693 110.577 23.79 108.124ZM33.499 112.94C34.209 112.814 35.32 113.7 36.135 114.106C35.364 114.409 34.339 113.276 33.499 112.94ZM36.971 113.44C38.036 113.706 39.029 114.186 39.808 115.284C38.839 114.737 37.574 115.051 36.971 113.44ZM40.685 115.76C40.657 115.028 40.089 115.181 39.815 114.506C42.568 114.966 44.076 116.636 45.354 116.863C45.629 117.555 46.294 118.2 46.258 118.978C44.543 117.493 42.709 116.35 40.685 115.76ZM43.633 125.839C44.45 125.227 45.979 124.123 46.699 122.548C46.825 121.001 47.026 119.706 46.217 117.836C46.707 117.675 46.922 118.308 47.248 118.625C47.153 118.646 47.093 118.571 46.988 118.623C47.725 120.003 47.737 121.136 47.422 122.154C47.451 122.297 47.898 122.368 47.785 122.106C48.208 122.257 47.736 122.837 47.774 123.144C48.78 122.391 48.304 121.128 48.944 120.249C50.029 122.644 45.964 125.438 43.633 125.839ZM47.822 118.216C47.926 118.164 48.031 118.113 48.135 118.064C48.764 119.582 48.522 120.798 47.942 121.901C47.945 120.687 47.75 119.404 47.822 118.216ZM49.453 121.292C49.268 120.419 49.138 119.565 48.959 118.693C49.16 118.557 49.48 118.289 49.793 118.286C49.857 119.35 50.271 120.533 49.453 121.292ZM55.833 116.113C55.923 115.739 56.504 115.534 56.982 115.295C57.087 115.913 56.21 115.896 55.833 116.113ZM61.94 112.229C60.356 113.148 59.323 115.022 57.346 115.247C58.026 114.051 59.856 114.291 60.69 112.84C60.147 112.714 61.926 110.615 62.626 111.251C62.296 111.392 62.157 111.785 61.792 111.658C61.764 111.821 61.79 112.004 61.94 112.229ZM51.902 79.5564C52.03 79.8654 51.852 80.7893 51.574 80.8783C51.674 80.8763 51.77 80.8774 51.869 80.8774C51.886 80.8664 51.906 80.8573 51.921 80.8473C51.929 80.8583 53.112 79.9363 53.114 79.7743C53.425 79.8603 54.55 81.2953 54.795 81.3783C54.603 81.0693 54.687 80.5213 54.573 80.1993C55.239 80.1433 55.147 81.5663 54.88 81.9623C55.042 81.9683 54.88 81.9623 55.913 81.2983C56.28 81.2103 56.388 80.5033 56.473 80.8003C57.148 81.1203 57.241 82.5544 57.829 83.0443C57.911 82.4404 57.946 81.8194 57.729 81.1114C59.409 81.4724 59.854 84.9263 60.006 85.0823C60.012 84.8603 59.998 84.6323 59.979 84.4013C60.133 84.6003 60.811 85.9253 61.105 86.2583C60.938 85.4213 60.678 84.5533 60.557 83.7333C61.71 84.5233 62.096 87.4503 62.254 87.6573C62.387 86.7923 62.481 85.9143 62.309 84.9443C62.926 85.7833 63.354 89.2543 63.514 89.5293C63.335 88.6183 63.461 87.5253 63.848 86.7743C64.464 88.1143 63.694 88.9764 63.971 90.2004C64.503 89.9204 63.844 88.4803 64.563 87.9743C65.397 89.1863 64.888 90.7843 64.793 91.6753C65.5 91.3803 65.983 90.3653 65.795 91.2633C65.882 91.6153 65.157 94.2273 65.252 94.5973C65.461 93.8713 65.699 93.1944 66.074 92.6584C66.296 93.3704 65.97 97.7853 66.031 98.2643C66.582 96.7833 66.963 95.2423 66.894 93.5473C67.443 94.3443 65.972 101.218 65.83 101.715C66.451 100.683 66.885 99.1943 67.266 98.0133C67.675 99.1953 67.2 100.822 66.141 101.789C66.059 102.542 67.833 101.49 67.414 102.127C67.332 102.191 65.045 103.869 64.994 103.838C64.944 104.739 66.351 104.255 66.958 103.996C66.961 103.993 66.971 103.984 66.973 103.982C67.369 103.79 67.264 103.865 66.958 103.996C66.703 104.288 62.669 107.349 62.495 107.545C62.935 107.191 64.299 107.057 64.646 106.867C64.647 107.275 63.214 107.677 62.814 107.672C62.672 108.005 64.083 108.094 63.939 108.428C61.505 111.717 58.572 110.923 58.14 111.184C58.159 111.451 59.669 111.682 59.64 111.932C58.798 112.742 58.533 112.403 57.226 113.051C58.075 112.93 59.287 113.198 57.962 113.729C57.549 113.994 56.909 114.229 56.312 114.717C55.675 115.729 54.105 116.771 53.022 116.968C53.204 116.192 54.474 115.79 55.425 115.28C55.127 114.955 54.547 115.202 54.232 115.216C54.408 114.389 55.047 112.493 55.208 112.128C55.086 112.136 51.809 117.459 50.863 117.686C50.929 117.071 51.711 114.115 51.968 113.567C51.843 113.617 50.572 116.761 50.039 117.037C49.99 116.602 50.675 114.368 50.802 113.993C50.734 114.015 49.354 116.906 49.091 117.112C48.923 116.816 48.72 114.751 48.648 114.488C48.58 114.497 48.301 116.885 48.17 117.212C47.941 116.902 46.685 114.473 46.276 114.339C46.395 114.627 47.1 116.657 47.196 116.939C46.642 116.577 44.509 113.997 44.213 114.086C44.895 114.523 45.564 115.922 46 116.863C45.062 116.315 42.84 114.315 42.662 114.318C43.206 114.664 43.713 115.115 44.214 115.586C43.373 115.491 36.136 111.893 35.991 111.864C36.66 112.57 37.57 112.577 38.217 113.348C37.331 113.233 34.177 111.398 33.362 110.971C33.291 110.934 33.223 110.886 33.154 110.843C34.344 111.86 35.668 112.813 36.707 113.955C35.653 113.656 34.72 113.005 33.765 112.423C32.151 112.272 31.084 110.53 29.979 108.901C29.828 108.83 29.675 108.76 29.527 108.683C30.03 109.264 30.549 109.866 30.928 110.58C30.285 110.598 27.787 109.03 27.414 108.937C28.706 110.815 31.18 111.443 32.822 113.14C32.456 113.281 32.295 112.826 31.942 112.924C31.752 113.17 32.327 113.296 32.456 113.447C32.19 113.625 31.242 113.618 31.009 112.863C31.345 112.645 31.474 113.022 31.734 113.025C30.844 112.083 29.165 111.25 27.866 110.654C27.716 110.457 27.803 110.342 27.765 110.185C25.827 108.678 24.15 106.407 22.48 104.116C23.386 104.172 23.91 105.34 24.643 105.9C23.894 104.62 21.796 103.399 21.566 101.449C22.717 103.735 22.037 101.037 21.271 100.213C21.225 100.02 22.601 100.752 22.52 100.536C21.973 99.8804 21.372 99.3064 20.918 98.5644C20.897 98.5424 20.885 98.5304 20.867 98.5124C20.597 98.2434 20.693 98.3654 20.867 98.5124C21.095 98.7064 21.449 98.9333 21.242 98.3283C20.195 96.8043 19.645 96.8813 19.97 95.5293C20.221 96.7093 20.245 95.4233 21.007 96.8553C20.894 96.4153 19.864 94.2613 19.8 93.7923C19.671 93.3543 20.783 94.8553 20.683 94.4103C20.144 92.7863 19.612 93.5953 19.711 92.2613C19.533 92.0353 20.233 92.1753 20.385 92.2373C20.343 91.4823 19.511 90.6493 20.023 90.0823C20.304 90.4633 20.502 90.8683 20.65 91.2923C20.673 90.9913 20.14 89.8504 20.101 89.4374C20.024 89.3664 19.996 89.3184 20.094 89.3484C20.091 89.3694 20.098 89.4074 20.101 89.4374C20.271 89.5944 20.707 89.8744 20.772 89.7604C21.026 89.7854 19.916 88.3203 20.477 88.8473C20.543 88.4013 20.928 89.2843 21.031 88.8503C20.965 88.6023 20.311 87.6694 20.625 87.5514C20.625 87.5614 21.271 87.6903 21.273 87.6983C21.312 87.5573 20.7 87.0424 20.743 86.9034C20.555 86.6884 21.19 87.0714 21.456 86.9314C21.499 86.9934 20.926 85.9633 20.95 86.0193C21.022 85.8213 21.704 86.7103 21.785 86.5163C21.69 86.3083 21.157 85.0574 21.392 84.9894C21.41 85.0254 22.004 85.9643 22.015 85.9983C22.29 85.3983 21.572 84.3923 21.922 83.8413C21.864 83.8703 22.834 84.3303 22.779 84.3503C22.288 83.4573 22.371 82.3023 23.112 82.1213C23.406 82.5353 23.489 83.0233 23.469 83.5143C23.651 83.2663 23.904 81.1923 24.101 80.9563C24.104 80.9293 24.042 82.7303 24.04 82.7013C24.064 82.6943 24.084 82.7014 24.105 82.7024C24.418 82.3324 27.546 77.2303 30.425 77.0053C30.583 77.5753 26.666 80.1533 26.356 80.5763C26.752 80.2793 31.754 77.5263 32.291 77.3863C32.274 77.6013 32.249 77.8133 32.226 78.0263C32.467 77.9813 33.116 76.2663 34.013 76.4173C34.261 76.8693 34.198 77.2113 34.208 77.5813C34.36 77.4233 35.31 76.7524 35.176 76.8174C35.53 76.7844 34.306 77.7774 34.671 77.7674C35.39 77.7484 35.625 76.8164 36.575 76.8174C36.576 76.8074 36.263 77.8843 36.264 77.8753C36.878 77.5593 37.06 76.7663 37.601 76.7563C37.725 76.9373 36.965 77.7734 37.041 77.9374C37.206 77.9434 38.657 77.1463 38.825 77.1543C38.835 77.0293 39.194 77.8394 39.179 78.0284C39.526 77.8184 40.321 77.0053 40.461 77.3163C39.963 77.2673 40.032 78.2013 40.212 78.2173C40.74 77.6573 41.202 77.9854 41.176 77.9063C41.575 77.6743 41.392 77.4923 41.679 77.5823C41.747 77.7213 41.815 77.8593 41.883 77.9983C41.88 78.0043 41.874 78.0094 41.872 78.0154C42.044 78.0384 42.312 78.7493 42.482 78.7773C42.361 78.7053 42.885 77.9453 42.855 77.7823C43.192 77.4013 43.346 77.3734 43.807 77.4474C43.891 77.8364 44.011 78.9193 43.539 78.9643C44.779 79.2043 44.827 77.5003 45.778 78.0323C45.747 77.9383 46.197 79.1333 46.128 79.0263C47.551 78.1613 48.372 80.7154 48.386 80.7444C48.496 80.7504 49.576 80.0404 50.168 79.8954C50.377 80.1994 50.217 80.3754 50.264 80.6224C50.144 80.7004 51.513 79.6544 51.902 79.5564ZM98.93 26.5393C98.93 26.9843 98.903 27.4283 98.851 27.8583C98.903 28.2933 98.827 28.6834 98.642 29.0364C98.563 29.3684 98.471 29.6864 98.366 29.9804C98.366 29.9824 98.364 29.9843 98.363 29.9863C98.415 30.0413 98.46 30.1133 98.486 30.2453C96.565 34.0463 92.198 38.7523 86.719 39.7293C84.269 39.5233 81.645 39.1063 78.983 40.2763C78.981 40.2683 78.981 40.2613 78.979 40.2533C78.819 40.3733 78.682 40.5093 78.567 40.6603C78.473 41.0623 78.381 41.4914 78.082 41.7994C78.058 41.9164 78.037 42.0373 78.022 42.1603C78.196 42.3423 78.211 42.6723 78.056 42.9343C78.147 43.0623 78.216 43.1933 78.262 43.3273C78.268 43.3293 78.274 43.3283 78.279 43.3303C78.942 45.0013 79.823 45.2703 80.677 46.6843C80.753 46.7003 80.826 46.7243 80.891 46.7683C81.464 47.1614 81.853 47.8863 82.161 48.5643C82.316 48.7713 82.433 49.0173 82.449 49.2514C82.55 49.5313 82.596 49.8063 82.582 50.0643C82.997 51.2603 81.709 51.8713 81.819 52.9623C81.048 53.8253 80.205 54.6633 78.838 55.3204C78.748 55.2774 78.692 55.2283 78.657 55.1713C78.494 55.2573 78.323 55.3134 78.149 55.3464C75.071 57.7434 69.617 54.5223 67.336 58.9963C67.52 60.3243 67.928 61.2703 68.652 62.4853C68.644 63.4173 67.72 64.1663 67.125 64.6493C64.83 65.1343 62.141 64.7733 59.639 66.2373C58.292 67.0253 57.178 68.1673 56.03 69.1593C55.788 69.2783 55.544 69.3974 55.302 69.5154C54.896 70.5664 53.715 71.5994 52.734 72.1894C53.356 70.9854 54.051 69.8083 54.895 68.6813C54.249 68.1563 55.46 67.7123 55.275 67.0773C54.466 68.7873 53.58 70.1123 52.117 71.4563C52.013 71.7363 52.39 71.7003 52.269 72.0293C51.979 72.2803 51.829 72.1313 51.645 72.0743C51.905 72.6213 50.773 74.4304 50.06 74.9134C49.7 74.1984 50.798 73.2673 51.381 72.5913C51.894 70.5403 53.269 68.3243 54.343 66.7573C54.759 66.6383 54.525 67.1743 55.014 67.0743C56.083 66.2573 57.089 65.4174 58.204 64.6144C58.419 64.8624 58.099 64.9253 58.198 65.1343C58.738 64.8813 58.917 64.3343 59.35 64.0563C61.206 62.8573 63.966 62.4463 65.038 60.6343C65.505 59.8483 66.056 58.8854 66.411 58.1574C67.277 56.3854 67.52 54.3773 68.173 53.0383C69.095 51.1433 72.478 51.5313 74.051 51.3313C74.936 51.2203 75.705 50.9093 76.547 50.8883C77.37 50.8693 78.065 51.2323 78.778 50.9623C79.032 50.6793 78.49 50.6583 78.473 50.3363C75.485 50.1943 72.308 50.6023 69.073 51.1803C69.088 50.1153 70.043 49.3734 69.829 48.2304C71.703 48.1554 73.164 46.1453 74.321 45.0043C74.023 44.5183 74.106 44.0474 74.388 43.5534C74.383 43.1904 73.707 43.5613 73.976 43.2373C74.063 42.4573 75.174 42.0313 75.033 41.1733C74.532 41.5683 74.542 42.5393 73.774 42.5613C73.609 42.3313 73.854 42.2423 73.625 41.9903C75.544 40.8443 76.192 38.5464 77.772 36.9974C81.807 36.1164 86.069 35.9053 89.775 35.1423C88.616 33.8913 86.668 35.1473 84.635 35.4563C83.317 35.6583 82.852 35.2893 81.416 35.7363C80.432 36.0433 79.266 35.8633 78.35 36.3283C80.522 33.3413 84.473 30.7403 88.541 28.6453C89.458 28.1723 90.443 27.7883 91.669 27.1193C93.367 26.1913 95.23 25.8533 95.376 24.6653C91.424 26.2654 86.724 29.2003 82.812 30.9253C83.809 27.6243 84.649 24.2703 84.469 20.5653C84.371 20.4263 84.139 20.6803 84.054 20.5083C83.537 21.5453 84.068 22.9433 83.088 23.8203C83.215 24.1623 83.26 23.4083 83.451 23.7723C83.789 24.2353 83.414 24.4533 83.752 24.9173C83.029 27.3863 82.523 29.9313 81.396 32.2623C77.941 34.6003 76.336 37.5773 74.417 40.4433C73.824 40.4543 73.869 40.5603 73.375 40.9533C73.187 40.4073 72.795 40.4523 72.607 39.9083C73.4 38.5323 74.948 37.4173 75.913 36.0993C74.272 36.8653 73.723 38.7574 71.728 39.6914C71.39 39.4954 71.014 39.4104 70.747 39.0064C70.976 38.5654 71.692 38.2913 71.693 37.7713C70.965 38.3683 70.12 39.5113 69.452 38.7353C68.821 37.9993 69.45 36.4713 70.983 36.0523C71.058 36.5693 70.14 36.7453 69.987 37.1843C71.077 36.9203 71.43 35.6573 72.446 35.0813C72.497 35.1843 72.548 35.2894 72.598 35.3944C73.022 34.8894 73.818 34.0993 74.634 34.0144C74.628 34.7344 73.648 35.1193 73.114 35.6593C73.68 35.5063 74.786 34.7903 75.46 34.3863C75.267 34.1943 74.825 34.7203 74.736 34.2233C75.175 34.1143 75.032 33.8033 75.053 33.5513C76.36 32.9023 77.21 32.0964 77.775 31.1914C79.628 29.6824 79.819 27.8863 80.994 25.6193C81.747 24.1673 83.182 22.4314 82.802 21.1224C82.433 20.9194 82.505 21.5924 82.173 21.6874C82.028 21.2604 82.479 21.0403 82.443 20.6523C81.482 18.9634 83.325 18.2363 83 16.7663C82.625 16.6683 82.859 17.8883 82.317 17.7443C82.242 17.0403 82.392 16.4143 82.578 15.8003C82.558 15.8153 82.547 15.8393 82.525 15.8523C82.451 15.8953 82.377 15.9124 82.302 15.9284C82.173 16.3634 81.986 16.7813 81.597 17.0633C81.307 16.5163 81.478 16.1273 81.675 15.7483C81.618 15.7003 81.562 15.6494 81.516 15.5884C81.498 15.5654 81.482 15.5413 81.464 15.5173C81.378 15.6703 81.28 15.8193 81.191 15.9713C81.004 15.6094 81.047 15.3273 81.179 15.0763C81.16 15.0403 81.136 15.0083 81.119 14.9703C81.094 14.9153 81.084 14.8573 81.07 14.8003C80.991 14.9173 80.906 15.0333 80.785 15.1373C80.599 14.9173 80.403 14.7343 80.273 14.3533C80.687 13.8303 81.379 13.4044 82.207 13.0234C83.162 13.6284 84.125 13.5824 84.786 14.6054C86.053 16.5694 84.736 20.4863 88.527 19.3623C88.523 19.3793 88.529 19.3973 88.527 19.4143C88.558 19.3913 88.59 19.3653 88.627 19.3503C88.873 19.2433 89.198 19.1433 89.556 19.0653C89.957 18.8523 90.399 18.7493 90.737 18.9253C90.988 18.9223 91.232 18.9403 91.46 18.9833C93.036 18.4123 94.595 19.4523 95.888 20.1633C95.89 20.2263 95.871 20.2824 95.865 20.3424C96.118 20.4404 96.355 20.6223 96.561 20.9003C96.578 20.8823 96.589 20.8623 96.607 20.8433C97.086 20.9773 97.506 21.4983 97.543 22.0003C97.807 22.3153 98.033 22.6653 98.217 23.0463C98.242 23.0253 98.264 23.0043 98.299 22.9863C98.615 23.5363 98.722 24.0133 98.697 24.4473C98.792 24.8563 98.857 25.2773 98.893 25.7033C99.016 25.9523 99.014 26.2493 98.93 26.5393Z" fill="#604C3F"/>
<path d="M57.372 53.6613C58.374 52.3573 59.007 50.9273 58.817 49.2133C59.542 47.9303 59.936 46.5333 59.843 44.9693C60.541 43.8223 60.563 42.5843 60.764 41.0343C60.916 39.8573 61.377 39.0883 61.313 37.9273C63.436 36.0263 65.873 34.2333 68.163 32.3893C69.509 30.0483 72.077 28.1263 72.691 25.5343C71.69 27.0393 70.014 29.0653 68.801 30.7873C68.553 31.0033 68.49 30.6833 68.282 30.7833C67.468 33.1633 64.256 34.7193 61.947 36.5843C61.438 35.4783 62.663 34.2323 62.191 32.8523C62.407 32.0863 62.754 31.3693 62.578 30.4693C63.101 29.8683 63.049 29.0703 63.376 28.4023C63.15 28.0923 63.211 27.8823 63.124 27.6213C63.937 25.2693 64.449 22.8143 64.855 20.3223C63.845 22.4033 63.811 24.8203 62.923 26.9443C62.046 22.9023 60.666 17.9413 59.401 13.6923C59.2 13.5223 59.056 13.3583 58.956 13.1973C58.872 13.3723 58.829 13.5033 58.85 13.5703C59.861 17.9373 61.478 22.5143 62.198 26.7823C63.214 30.1673 61.633 32.6603 61.336 35.5933C60.893 38.7383 60.387 41.8613 59.533 44.8633C59.08 49.2493 57.605 53.2803 55.73 57.1753C56.386 56.3863 57.624 55.0493 57.372 53.6613Z" fill="#604C3F"/>
<path fill-rule="evenodd" clip-rule="evenodd" d="M69.741 19.4854C70.206 20.0664 69.552 21.3574 69.632 20.0554C69.642 19.9054 69.741 19.7684 69.741 19.4854Z" fill="#604C3F"/>
<path fill-rule="evenodd" clip-rule="evenodd" d="M69.62 21.3516C70.14 22.8316 68.98 24.4865 69.417 26.2275C69.173 26.7215 69.028 27.2496 68.727 27.7256C69.14 28.3736 69.012 29.5476 68.496 30.1606C68.097 26.9596 69.519 24.3836 69.62 21.3516Z" fill="#604C3F"/>
<path fill-rule="evenodd" clip-rule="evenodd" d="M84.131 17.7578C84.24 18.7208 83.469 19.3808 83.276 20.2388C83.135 19.6118 83.996 18.5798 84.131 17.7578Z" fill="#604C3F"/>
<path fill-rule="evenodd" clip-rule="evenodd" d="M76.089 33.8142C77.086 32.5412 78.336 31.3492 79.34 30.1632C79.709 29.7272 79.68 29.2192 79.925 28.7162C80.678 27.1722 82.081 25.8872 82.613 24.4362C82.79 24.2332 82.447 25.6982 82.285 26.1452C81.637 27.9252 80.487 29.0152 79.127 30.7852C78.123 32.0872 77.467 33.4092 76.089 33.8142Z" fill="#604C3F"/>
<path fill-rule="evenodd" clip-rule="evenodd" d="M72.533 36.5831C71.778 36.2591 71.2121 37.4411 70.9651 37.8641C70.8081 37.1561 72.026 36.0671 73.009 35.7051C73.01 36.4511 72.593 36.5321 72.164 37.1491C72.044 36.8771 72.472 36.7931 72.533 36.5831Z" fill="#604C3F"/>
</svg>
