<svg width="143" height="187" viewBox="0 0 143 187" fill="none" xmlns="http://www.w3.org/2000/svg">
<path d="M22.1583 49.6813C15.617 73.6989 16.2683 101.01 26.9168 122.946C37.5665 144.883 59.0358 160.145 80.5809 157.651C94.992 155.984 108.424 146.656 117.367 133.402C126.311 120.147 130.876 103.227 131.124 86.3774C131.403 67.4378 126.225 48.292 116.029 33.5245C88.5459 -6.2801 36.0158 -1.19361 22.1583 49.6813Z" fill="white"/>
<path d="M64.6118 11.9316C64.5837 18.9577 62.2913 25.9412 58.2855 31.1983C54.2798 36.4554 48.5963 39.9408 42.6048 40.8139C42.1674 31.8126 46.013 22.5582 52.569 17.7533C56.1703 15.1112 60.5084 13.2498 64.6118 11.9316Z" fill="#33896E"/>
<path d="M37.8439 14.6577C38.1042 19.0104 38.6248 23.3348 39.3873 27.6036C40.2024 31.8596 41.2545 36.0503 42.5034 40.1598C43.7926 44.2538 45.2884 48.2567 46.9381 52.1715C48.622 56.0678 50.4733 59.8645 52.4468 63.5731C60.4155 78.3932 70.7145 91.2964 81.4925 103.509C92.2865 115.739 103.673 127.348 114.26 140.068C124.822 152.754 134.692 166.638 141.777 182.64C142.34 183.907 141.913 185.463 140.824 186.117C139.736 186.771 138.399 186.273 137.837 185.008C137.832 184.998 137.822 184.974 137.817 184.964C131.267 169.477 121.88 155.71 111.643 142.966C101.39 130.189 90.1993 118.349 79.5276 105.815C68.8766 93.3 58.6326 80.0029 50.769 64.7733C48.8212 60.9637 47.0016 57.0674 45.3519 53.0702C43.7364 49.0545 42.2798 44.952 41.0333 40.7613C39.8272 36.5536 38.8228 32.2692 38.0627 27.9236C37.3539 23.5651 36.8932 19.1569 36.6977 14.7288C36.6818 14.3619 36.925 14.0477 37.2403 14.0292C37.5531 14.0107 37.8195 14.2866 37.8403 14.6478L37.8439 14.6577Z" fill="#5FC5A9"/>
<path d="M72.2383 92.5562C73.3174 99.012 72.1785 105.931 69.1259 111.467C66.0733 117.002 61.1426 121.09 55.6497 122.64C53.7959 119.001 53.3694 114.472 53.8986 110.287C54.4277 106.101 56.2252 102.148 58.9014 99.285C62.4281 95.5111 67.5043 93.4008 72.2383 92.5562Z" fill="#33896E"/>
<path d="M13.2047 30.1148C12.4679 30.1091 12.4727 31.4415 13.2108 31.4486C22.7449 31.5297 32.1897 34.2827 40.6276 39.4516C41.2777 39.8498 41.8533 38.698 41.1995 38.2969C32.5832 33.0185 22.9416 30.1972 13.2047 30.1148Z" fill="#A32D2B"/>
<path d="M40.5628 38.853C35.5148 38.6254 30.452 39.571 25.7216 41.6372C25.0361 41.9358 25.3269 43.2256 26.0186 42.9241C30.6671 40.8949 35.6076 39.9621 40.5689 40.1868C41.3058 40.2195 41.2997 38.8871 40.5628 38.853Z" fill="#A32D2B"/>
<path d="M21.4471 15.0885C20.9718 14.433 20.1591 15.3729 20.632 16.0256C26.6443 24.3173 33.4203 31.8098 40.8219 38.4036C41.4048 38.9227 41.9731 37.7637 41.3938 37.2475C34.0777 30.7291 27.3885 23.2821 21.4471 15.0885Z" fill="#A32D2B"/>
<path d="M31.9869 20.6784C34.5127 26.8115 37.7999 32.4398 41.7665 37.4353C42.2651 38.0638 42.9983 37.0371 42.5034 36.4157C38.6859 31.6079 35.4964 26.1346 33.0659 20.2305C32.7494 19.4626 31.6691 19.9048 31.9869 20.6784Z" fill="#A32D2B"/>
<path d="M14.4377 30.6479C12.92 28.0457 10.6068 26.0861 8.01123 25.2031C5.41692 24.3214 2.55989 24.5248 0.0767822 25.7662C0.302852 29.4734 2.41081 33.0298 5.4597 34.1375C8.50981 35.2467 12.4398 33.5474 14.4377 30.6479Z" fill="#A32D2B"/>
<path d="M14.4378 30.6721C13.6105 33.6071 11.9314 36.208 9.73916 37.9485C7.5469 39.689 4.85361 40.5607 2.20431 40.3887C1.1595 38.3125 1.41368 35.6079 2.67845 33.7052C3.94322 31.8026 5.96563 30.7233 8.0137 30.3948C10.0618 30.0663 12.4239 30.1332 14.4378 30.6721Z" fill="#D35D57"/>
<path d="M22.1608 17.7845C23.4403 15.0144 23.8631 11.7211 23.3352 8.63675C22.806 5.55243 21.3299 2.69991 19.2354 0.713379C16.5152 2.66294 14.7812 6.48243 15.3482 10.1398C15.9152 13.7972 19.0276 17.065 22.1608 17.7845Z" fill="#A32D2B"/>
<path d="M22.1425 17.7959C19.5237 18.3007 16.7657 17.7717 14.4255 16.3156C12.0842 14.8594 10.1742 12.4847 9.08051 9.67058C10.1779 7.63286 12.3567 6.64312 14.3913 7.0683C16.4259 7.49348 18.1844 9.08043 19.382 11.0399C20.5795 13.0009 21.6207 15.4681 22.1425 17.7959Z" fill="#D35D57"/>
<path d="M33.4728 23.2135C34.9955 20.6141 35.7115 17.3904 35.4635 14.2578C35.2154 11.1265 34.0032 8.10905 32.0981 5.87793C29.2178 7.48479 27.1502 11.0725 27.3848 14.7797C27.6195 18.4868 30.4215 22.1158 33.4728 23.2135Z" fill="#A32D2B"/>
<path d="M33.4545 23.2221C30.8052 23.4055 28.1094 22.5437 25.9123 20.8103C23.7151 19.0769 22.0288 16.4832 21.1942 13.551C22.4687 11.6584 24.7245 10.9388 26.7103 11.6086C28.696 12.2783 30.3017 14.0701 31.316 16.1661C32.3302 18.2621 33.1441 20.8445 33.4545 23.2221Z" fill="#D35D57"/>
<path d="M28.1914 41.7352C27.749 44.838 26.3523 47.7446 24.3128 49.8094C22.2732 51.8741 19.6068 53.08 16.905 53.161C15.7771 49.6842 16.4125 45.4268 18.7832 42.9368C21.1539 40.4455 25.3343 40.0758 28.1914 41.7352Z" fill="#A32D2B"/>
<path d="M28.1828 41.7123C26.3755 39.4499 23.9156 37.9056 21.2993 37.3923C18.6818 36.8789 15.9225 37.398 13.5787 38.8456C13.3758 41.2388 14.5807 43.5723 16.4137 44.6843C18.2467 45.7963 20.472 45.7921 22.4492 45.0924C24.4264 44.3942 26.5465 43.1827 28.1828 41.7123Z" fill="#D35D57"/>
<path d="M109.749 97.0737C109.937 96.2446 111.042 96.5987 110.852 97.4306C108.421 108.158 108.229 119.486 110.302 130.316C110.462 131.15 109.355 131.495 109.195 130.656C107.078 119.597 107.266 108.03 109.749 97.0737Z" fill="#A32D2B"/>
<path d="M109.826 130.087C110.96 124.359 113.071 118.92 116.024 114.15C116.452 113.459 117.445 114.125 117.014 114.822C114.113 119.51 112.044 124.814 110.929 130.444C110.764 131.28 109.661 130.923 109.826 130.087Z" fill="#A32D2B"/>
<path d="M95.1264 102.392C94.7073 101.687 95.6996 101.02 96.1175 101.722C101.417 110.647 105.856 120.22 109.385 130.26C109.662 131.051 108.553 131.385 108.276 130.6C104.789 120.676 100.365 111.211 95.1264 102.392Z" fill="#A32D2B"/>
<path d="M97.001 115.694C101.426 120.137 105.231 125.305 108.334 131.067C108.725 131.792 107.681 132.345 107.295 131.627C104.309 126.08 100.605 121.064 96.346 116.787C95.7924 116.231 96.4425 115.133 97.001 115.694Z" fill="#A32D2B"/>
<path d="M109.869 98.5981C108.108 96.212 107.09 93.0993 107.038 89.9552C106.987 86.8112 107.904 83.6558 109.585 81.1929C112.601 82.4186 114.997 85.7177 115.117 89.4319C115.236 93.1462 112.797 97.115 109.869 98.5981Z" fill="#A32D2B"/>
<path d="M109.888 98.605C112.539 98.4458 115.135 97.2413 117.154 95.2363C119.173 93.2313 120.601 90.4357 121.153 87.4139C119.705 85.6975 117.395 85.2738 115.486 86.1953C113.576 87.1167 112.151 89.1047 111.342 91.3187C110.533 93.5328 109.97 96.2019 109.888 98.605Z" fill="#D35D57"/>
<path d="M97.1757 103.901C94.5423 104.612 91.7012 104.224 89.2816 102.821C86.862 101.419 84.8836 99.0133 83.785 96.1409C86.1142 93.5969 89.7362 92.6513 92.6213 94.2468C95.5065 95.8408 97.4006 100.192 97.1757 103.901Z" fill="#A32D2B"/>
<path d="M97.1904 103.882C98.2951 101.074 98.5798 97.8385 97.9859 94.8282C97.392 91.8178 95.9232 89.0506 93.8763 87.084C91.8979 87.7822 90.5073 89.9706 90.3264 92.3667C90.1456 94.7628 90.9997 97.1532 92.3122 99.0117C93.6246 100.87 95.3965 102.686 97.1904 103.882Z" fill="#D35D57"/>
<path d="M98.7142 118.027C96.1602 119.055 93.2983 119.015 90.7663 117.914C88.2343 116.815 86.0494 114.664 84.6991 111.939C86.7863 109.126 90.3044 107.744 93.3166 108.98C96.3277 110.214 98.603 114.312 98.7142 118.027Z" fill="#A32D2B"/>
<path d="M98.7264 118.007C99.5733 115.079 99.5647 111.827 98.7032 108.905C97.8417 105.982 96.1321 103.41 93.9203 101.704C92.0164 102.639 90.8286 104.984 90.8641 107.389C90.8995 109.793 91.9651 112.067 93.4364 113.757C94.9089 115.446 96.8348 117.036 98.7264 118.007Z" fill="#D35D57"/>
<path d="M115.458 116.949C118.148 117.265 120.924 116.459 123.17 114.71C125.416 112.96 127.116 110.281 127.892 107.268C125.304 105.09 121.607 104.687 118.92 106.698C116.234 108.709 114.831 113.306 115.458 116.949Z" fill="#A32D2B"/>
<path d="M115.442 116.935C114.039 114.313 113.404 111.146 113.663 108.071C113.923 104.997 115.077 102.035 116.893 99.7812C118.931 100.181 120.55 102.145 120.991 104.495C121.434 106.844 120.846 109.343 119.748 111.381C118.65 113.418 117.091 115.483 115.442 116.935Z" fill="#D35D57"/>
<path d="M53.499 65.822C52.9369 65.2674 52.2061 66.2942 52.7707 66.8502C60.0452 74.0213 65.7801 83.1775 69.4131 93.4373C69.6929 94.2279 70.7695 93.7729 70.4885 92.978C66.7772 82.5007 60.9288 73.1467 53.499 65.822Z" fill="#A32D2B"/>
<path d="M69.6905 92.9315C65.9414 88.9925 61.5324 85.9437 56.7641 84.0027C56.0737 83.7211 55.5861 84.9284 56.2827 85.2128C60.9691 87.1212 65.2754 90.0889 68.9609 93.961C69.5084 94.5341 70.2379 93.506 69.6905 92.9315Z" fill="#A32D2B"/>
<path d="M68.1019 60.4316C68.0982 59.5741 66.9569 59.6893 66.9605 60.5425C67.0106 71.391 68.0872 82.1968 70.1389 92.7779C70.3002 93.6111 71.3744 93.1447 71.2143 92.3171C69.1846 81.8583 68.1507 71.1535 68.1019 60.4316Z" fill="#A32D2B"/>
<path d="M73.1145 72.5827C71.6762 79.1751 71.1007 85.9467 71.3952 92.7396C71.4318 93.5942 72.5597 93.3525 72.5231 92.5064C72.2396 85.968 72.8054 79.3884 74.1899 73.0434C74.3695 72.2187 73.2966 71.7523 73.1145 72.5827Z" fill="#A32D2B"/>
<path d="M54.1515 67.1519C54.4191 64.022 53.7226 60.7927 52.2158 58.1805C50.7091 55.5683 48.4057 53.5945 45.815 52.6973C43.9478 55.7119 43.6069 60.0148 45.3372 63.1376C47.0688 66.2617 51.0207 67.8885 54.1515 67.1519Z" fill="#A32D2B"/>
<path d="M54.1381 67.1704C51.8872 68.8071 49.1658 69.5509 46.5238 69.2537C43.8818 68.955 41.3352 67.6169 39.3959 65.5081C39.7368 63.1362 41.4219 61.2492 43.4407 60.7316C45.4594 60.214 47.6065 60.8937 49.3601 62.1678C51.1124 63.4434 52.888 65.255 54.1381 67.1704Z" fill="#D35D57"/>
<path d="M67.1646 63.0352C69.6734 61.8634 71.8107 59.6494 73.1035 56.8878C74.3964 54.1249 74.8339 50.8344 74.3194 47.7472C71.1581 47.2154 67.7231 48.855 66.1442 52.0858C64.5654 55.3151 65.1556 60.1456 67.1646 63.0352Z" fill="#A32D2B"/>
<path d="M67.1438 63.0295C64.855 61.4638 63.0294 59.0023 62.0334 56.1384C61.0375 53.2745 60.8786 50.0281 61.5886 47.0519C63.5536 46.3053 65.7703 47.1713 67.0986 49.0142C68.4269 50.8572 68.9035 53.3869 68.7434 55.7844C68.5834 58.1833 68.0249 60.8538 67.1438 63.0295Z" fill="#D35D57"/>
<path d="M72.8591 75.6371C75.4595 74.7768 77.7838 72.8358 79.3174 70.2463C80.851 67.6569 81.5818 64.4375 81.3484 61.3034C78.2518 60.389 74.6885 61.602 72.8286 64.6223C70.9687 67.6441 71.1214 72.5201 72.8591 75.6371Z" fill="#A32D2B"/>
<path d="M72.8396 75.6299C70.7048 73.7955 69.1101 71.1236 68.3769 68.1545C67.6437 65.1853 67.7781 61.9375 68.7508 59.0636C70.772 58.5602 72.8995 59.6907 74.0543 61.6858C75.2091 63.6809 75.4559 66.2533 75.0807 68.6195C74.7068 70.9857 73.9113 73.5737 72.8396 75.6299Z" fill="#D35D57"/>
<path d="M58.6057 85.9193C56.5577 87.9713 53.8851 89.1614 51.1821 89.2254C48.4802 89.2894 45.7674 88.2272 43.6484 86.2748C44.6969 82.7639 47.5283 79.9697 50.7202 79.826C53.912 79.6824 57.3263 82.5136 58.6057 85.9193Z" fill="#A32D2B"/>
<path d="M58.6118 85.8952C58.4713 82.8108 57.4326 79.7905 55.7059 77.4456C53.9792 75.0993 51.5756 73.4413 48.9776 72.8042C47.5039 74.4907 47.1434 77.1797 47.9389 79.3994C48.7344 81.6206 50.4452 83.2758 52.3479 84.2144C54.2505 85.1529 56.5454 85.8042 58.6118 85.8952Z" fill="#D35D57"/>
<path d="M41.3841 41.6728C39.5792 35.187 39.4692 28.0756 41.0725 21.5188C42.6757 14.9605 45.9861 8.98242 50.455 4.57422C53.9181 10.6021 55.211 18.4103 53.6371 25.4264C52.0656 32.4426 46.9368 38.3823 41.3841 41.6728Z" fill="#5FC5A9"/>
<path d="M72.4864 92.6132C70.1572 91.3761 67.558 90.995 64.9979 90.9068C54.903 90.557 44.7409 94.6808 37.0215 102.26C38.5331 105.012 41.2007 107.258 43.8366 108.38C46.4724 109.502 49.3417 109.767 52.1364 109.467C60.6513 108.552 68.7837 101.582 72.4864 92.6132Z" fill="#5FC5A9"/>
<path d="M106.295 135.943C106.133 134.262 106.463 132.55 107.064 131.008C107.665 129.468 108.529 128.085 109.467 126.792C113.796 120.82 119.862 116.583 126.428 114.947C127.418 118.852 126.017 123.152 123.732 126.235C121.447 129.317 118.322 131.375 115.193 133.197C112.365 134.843 109.452 135.716 106.295 135.943Z" fill="#5FC5A9"/>
<path d="M106.449 136.071C110.667 139.637 116.225 140.967 121.31 139.624C126.394 138.282 130.915 134.29 133.397 128.955C128.884 126.68 123.775 125.747 118.962 126.923C114.148 128.099 109.794 131.876 106.449 136.071Z" fill="#33896E"/>
</svg>
