<svg width="181" height="205" viewBox="0 0 181 205" fill="none" xmlns="http://www.w3.org/2000/svg">
<path d="M23.006 87.3869C37.0944 59.6378 61.3866 37.8711 88.9134 23.3535C106.847 13.895 128.317 7.28202 147.195 14.6761C159.342 19.4343 168.905 29.6642 174.337 41.5239C179.768 53.3837 181.314 66.76 180.405 79.772C178.561 106.137 166.776 131.365 149.239 151.137C125.41 178.002 61.0043 222.383 25.7784 191.313C18.8867 185.234 14.7812 176.496 12.7208 167.541C9.61032 154.019 9.64619 139.242 11.3395 125.509C12.9734 112.259 16.9629 99.2908 23.006 87.3869Z" fill="#FFF7EE"/>
<path d="M167.303 133.801C168.084 133.034 167.132 131.469 166.094 131.955C157.893 135.79 147.025 132.92 140.241 139.828C136.427 138.244 132.049 138.357 128.373 140.314C124.724 142.255 122.198 145.957 121.475 149.992C117.558 148.718 113.217 150.448 110.63 153.646C107.623 157.365 106.904 162.064 106.569 166.695C104.18 165.61 101.157 166.444 99.5049 168.721C97.1396 171.981 97.9152 175.967 99.1089 179.533C97.5867 179.889 96.3102 181.148 95.7513 182.655C94.8612 185.057 95.939 187.519 97.1078 189.654C96.9008 190.15 96.9974 190.744 97.6391 191.015C99.999 192.008 102.955 193.092 105.298 191.463C106.333 190.744 107.049 189.581 107.193 188.375C111.417 189.823 116.17 190.784 119.991 187.9C122.634 185.906 123.525 182.208 122.069 179.479C126.189 179.448 130.38 178.835 133.621 176.085C136.402 173.725 137.758 169.909 136.62 166.503C140.124 166.352 143.839 165.925 146.654 163.741C149.061 161.872 150.682 158.952 150.304 155.939C154.302 155.298 158.004 152.901 158.962 148.736C159.273 147.388 159.3 145.991 159.626 144.646C159.965 143.245 160.577 141.926 161.326 140.699C162.915 138.096 165.142 135.925 167.303 133.801Z" fill="#5FC5A9"/>
<path d="M121.229 166.628C125.733 162.554 130.363 158.628 135.12 154.855C135.141 154.871 135.145 154.9 135.17 154.913H135.171C139.747 157.168 144.649 158.843 149.671 159.911C149.771 159.681 149.876 159.45 149.956 159.213C145.041 158.178 140.24 156.551 135.749 154.364C140.982 150.237 146.364 146.296 151.891 142.542C154.648 142.794 157.425 142.916 160.201 142.921C160.305 142.669 160.415 142.421 160.534 142.175C157.978 142.177 155.422 142.076 152.879 141.87C157.647 138.66 162.523 135.591 167.499 132.662C167.409 132.426 167.257 132.22 167.06 132.074C159.338 136.622 151.852 141.499 144.635 146.72C146.553 142.657 148.752 138.716 151.212 134.955C150.874 135.009 150.54 135.072 150.206 135.133C147.628 139.124 145.336 143.308 143.371 147.626C138.886 150.908 134.513 154.328 130.235 157.863C131.478 151.314 133.399 144.928 135.955 138.792C135.693 138.77 135.429 138.767 135.167 138.76C132.572 145.036 130.631 151.566 129.397 158.266C129.38 158.356 129.403 158.44 129.443 158.513C124.208 162.873 119.131 167.421 114.218 172.153C113.962 164.544 115.074 156.917 117.453 149.695C117.176 149.735 116.901 149.785 116.628 149.85C114.253 157.197 113.163 164.949 113.483 172.676C113.486 172.731 113.508 172.78 113.531 172.825C110.612 175.657 107.75 178.554 104.95 181.515C102.916 176.96 101.652 172.106 101.186 167.169C100.943 167.322 100.714 167.496 100.493 167.685C101.006 172.636 102.306 177.498 104.374 182.06C104.38 182.077 104.398 182.082 104.408 182.096C101.899 184.764 99.4538 187.499 97.0388 190.267C97.0733 190.507 97.2044 190.722 97.4459 190.887C101.179 186.598 105.032 182.434 108.994 178.391C109.398 178.599 109.802 178.806 110.21 179.01C114.191 181.002 118.289 182.742 122.478 184.234C122.548 183.991 122.598 183.746 122.641 183.498C118.16 181.895 113.784 180.001 109.54 177.832C113.141 174.179 116.831 170.625 120.616 167.181C125.799 169.422 131.031 171.164 136.28 172.45C136.378 172.218 136.485 171.989 136.563 171.752C131.424 170.496 126.303 168.802 121.229 166.628Z" fill="#33896E"/>
<path d="M35.3321 125.381C36.0731 126.387 36.7038 127.483 37.1026 128.669C37.4863 129.811 37.616 131.017 37.9858 132.161C39.1298 135.694 42.5163 137.49 46.0257 137.743C45.9263 140.38 47.5506 142.785 49.7752 144.222C52.3778 145.901 55.6263 145.99 58.672 145.857C57.9434 148.892 59.4062 152.094 61.9923 153.926C65.0062 156.064 68.6825 156.278 72.2512 155.993C71.1955 158.465 72.2471 161.6 74.6869 163.127C78.2128 165.335 82.2548 164.144 85.8028 162.57C86.0181 163.604 86.726 164.558 87.6755 165.103C89.8283 166.335 92.3054 165.175 94.2733 164.135C94.8087 163.852 94.8459 163.331 94.6306 162.917C95.4821 160.981 96.2287 158.767 95.2765 156.754C94.679 155.491 93.4784 154.497 92.1342 154.304C92.8988 151.128 93.2686 147.617 90.975 144.973C89.3729 143.126 86.6915 142.632 84.7057 143.753C84.0654 139.769 83.0884 135.754 80.2042 132.761C77.7243 130.187 73.8341 129.019 70.54 130.416C69.6099 126.978 67.1411 123.964 63.836 122.559C60.5046 121.142 56.7055 121.375 53.5232 123.033C47.1283 117.565 37.9348 120.871 30.5449 118.169C29.6092 117.827 28.9026 119.254 29.6368 119.859C31.6682 121.536 33.7602 123.247 35.3321 125.381Z" fill="#5FC5A9"/>
<path d="M72.007 144.803C67.7994 141.615 63.4938 138.565 59.0902 135.658C59.0736 135.674 59.0723 135.699 59.0516 135.712L59.0502 135.713C55.2579 138.011 51.1414 139.832 46.8744 141.135C46.7696 140.943 46.6619 140.751 46.575 140.551C50.7536 139.283 54.7874 137.512 58.5092 135.28C53.6668 132.103 48.7098 129.097 43.6411 126.263C41.273 126.689 38.8787 127.004 36.4748 127.218C36.3657 127.008 36.2512 126.801 36.1311 126.597C38.3433 126.405 40.5499 126.125 42.7358 125.755C38.3654 123.336 33.9121 121.048 29.3829 118.885C29.4437 118.674 29.5596 118.485 29.7183 118.344C36.748 121.699 43.5969 125.356 50.2402 129.332C48.2724 125.959 46.0713 122.713 43.6563 119.643C43.953 119.663 44.2469 119.692 44.5409 119.721C47.0745 122.982 49.375 126.432 51.4022 130.022C55.5326 132.524 59.5773 135.155 63.549 137.893C61.9785 132.315 59.8326 126.933 57.1568 121.814C57.3831 121.775 57.6095 121.753 57.8372 121.727C60.5571 126.964 62.7306 132.471 64.3052 138.18C64.3259 138.256 64.3149 138.331 64.2845 138.397C69.1463 141.777 73.8852 145.33 78.4958 149.057C78.1439 142.45 76.6038 135.93 73.9997 129.858C74.2426 129.871 74.4841 129.893 74.7256 129.929C77.3366 136.112 78.867 142.741 79.172 149.455C79.1733 149.503 79.1582 149.546 79.1416 149.587C81.8823 151.819 84.5788 154.111 87.227 156.464C88.6429 152.367 89.3729 148.069 89.4033 143.758C89.6241 143.873 89.8366 144.007 90.0422 144.153C89.9718 148.479 89.2128 152.786 87.768 156.892C87.7624 156.906 87.7473 156.912 87.7404 156.925C90.114 159.046 92.4379 161.229 94.7383 163.443C94.7259 163.654 94.6293 163.85 94.432 164.01C90.8771 160.579 87.227 157.264 83.49 154.063C83.156 154.274 82.8207 154.484 82.4839 154.691C79.1871 156.715 75.7689 158.533 72.2568 160.139C72.1781 159.933 72.116 159.726 72.0594 159.515C75.8172 157.789 79.4645 155.818 82.9739 153.62C79.5818 150.729 76.118 147.931 72.5797 145.235C68.2617 147.566 63.8636 149.469 59.4145 150.98C59.3124 150.787 59.2034 150.596 59.1164 150.397C63.4717 148.921 67.7773 147.069 72.007 144.803Z" fill="#33896E"/>
<path d="M68.9958 74.717C90.7942 113.352 100.265 158.925 95.5677 203.281L91.8334 202.737C95.4352 183.473 101.056 164.638 108.282 146.487C115.509 128.33 124.325 110.85 134.343 94.1239C134.553 93.7734 135.008 93.6589 135.36 93.8686C135.706 94.0756 135.822 94.5241 135.622 94.8733C125.972 111.73 117.547 129.284 110.734 147.435C103.919 165.579 98.7292 184.324 95.5497 203.394C95.3786 204.422 94.4057 205.116 93.3776 204.945C92.3771 204.778 91.694 203.846 91.8155 202.85C97.185 159.38 88.6759 114.162 67.6958 75.4346C67.5012 75.0744 67.6351 74.6246 67.9939 74.43C68.3527 74.2368 68.797 74.3665 68.9958 74.717Z" fill="#33896E"/>
<path d="M113.74 41.6081C103.445 36.1308 90.6507 36.5227 80.683 42.4926C79.4865 28.8168 81.6642 14.9823 87.2559 2.41054C87.8079 1.16992 86.559 -0.658574 85.1625 0.317087C72.6749 9.02765 63.4523 21.8589 59.1109 36.4096C52.8512 23.3865 43.0449 12.5618 33.2607 2.02415C32.5403 1.24859 30.8705 1.54802 30.7036 2.69894C28.5991 17.1241 32.3458 32.0046 40.7858 43.7305C35.1527 41.3665 28.8737 40.5993 22.7837 41.7819C13.4825 43.587 5.29913 49.906 0.997671 58.3102C0.451191 59.3783 1.38545 61.0785 2.72543 60.5582C14.9163 55.8234 29.6658 53.7617 41.2343 60.3195C33.4608 59.3535 25.3933 60.9308 18.6686 65.0542C10.6604 69.9657 4.87961 78.116 2.78753 87.2571C2.45219 88.7213 4.22688 89.8515 5.34468 88.7461C14.7839 79.4159 29.1607 79.8699 40.8479 84.0858C53.0347 88.4811 63.4827 96.4093 74.9919 102.207C75.7578 103.571 77.2482 104.499 78.8504 104.573C81.1495 104.68 83.1367 103.128 84.1786 101.169C85.5172 98.6462 85.2633 95.6654 85.1901 92.9123C85.1087 89.8239 85.0562 86.734 85.1211 83.6442C85.3736 71.7086 87.6672 59.1534 96.8801 50.7561C101.304 46.7223 106.925 44.2135 112.969 44.4619C114.472 44.5212 115.068 42.3146 113.74 41.6081Z" fill="#F78721"/>
<path d="M90.7142 58.6885C85.4205 62.0391 81.1287 66.6428 78.1962 72.1034C77.5159 65.9528 77.3337 59.7607 77.6553 53.5728C77.7395 51.9541 75.5977 51.6298 74.8042 52.8C71.6247 57.492 69.516 62.7319 68.4534 68.2394C65.227 62.4614 61.2816 57.118 56.6434 52.3736C55.5697 51.2751 53.6833 52.3984 54.0863 53.8626C55.8885 60.4204 58.7672 66.5641 61.8501 72.5989C57.833 70.8242 53.6157 69.5587 49.2507 68.8673C47.494 68.5886 46.6743 70.5937 48.0722 71.6646C52.6386 75.1629 56.4985 79.4395 59.569 84.2613C53.5867 80.981 47.3077 78.2403 40.3663 78.014C38.7172 77.9602 38.4619 80.037 39.5935 80.865C42.2017 82.775 44.7257 84.7884 47.2539 86.7977C56.809 91.2937 65.5485 97.4527 74.9891 102.208C75.755 103.573 77.2454 104.5 78.8476 104.575C81.1467 104.681 83.1339 103.13 84.1758 101.17C85.5144 98.6478 85.2605 95.667 85.1873 92.9139C85.1059 89.8254 85.0535 86.7356 85.1183 83.6458C85.3019 75.0428 86.5894 66.1446 90.7142 58.6885Z" fill="#FFB552"/>
<path d="M65.1635 90.53C65.267 90.7067 65.4947 90.766 65.67 90.6639C65.8466 90.559 65.906 90.3341 65.8025 90.1574C59.3206 79.0967 46.5846 71.8779 33.7741 71.8779C33.3173 71.8779 32.8619 71.8876 32.4079 71.9056C20.7896 72.3748 9.54125 78.8745 3.05249 88.5152C3.20291 88.7236 3.39336 88.8919 3.6183 89.0079C9.9663 79.5135 21.0173 73.1089 32.4355 72.6466C45.4682 72.0905 58.5878 79.3093 65.1635 90.53Z" fill="#FFB552"/>
<path d="M95.9015 41.5969C99.8663 40.3508 104.235 39.6967 109.057 39.589C108.339 39.342 107.615 39.1212 106.885 38.9238C102.837 39.1626 99.1142 39.8098 95.6794 40.8904C86.6873 43.718 79.6424 49.5913 76.3497 57.0046C72.8224 64.9465 73.7098 73.9841 74.4895 81.9564C74.5088 82.1468 74.6702 82.2904 74.8593 82.2904C74.8703 82.2904 74.8828 82.2903 74.8952 82.289C75.0994 82.2683 75.2485 82.0875 75.2278 81.8832C74.4563 74.0021 73.58 65.0679 77.0273 57.304C80.2316 50.088 87.1123 44.3624 95.9015 41.5969Z" fill="#FFB552"/>
<path d="M97.2029 45.4294C89.3825 49.274 82.9241 56.6529 79.4865 65.6698C76.4698 73.5883 75.6294 82.9405 77.0618 92.715C77.0881 92.8986 77.2468 93.0325 77.4275 93.0325C77.4455 93.0325 77.462 93.0311 77.4814 93.0283C77.6842 92.9994 77.825 92.8117 77.7946 92.6088C76.3829 82.9585 77.2068 73.7346 80.1793 65.9334C83.5506 57.089 89.8751 49.8578 97.53 46.0945C102.886 43.4601 108.829 42.5769 114.376 43.4132C114.456 43.1731 114.478 42.9219 114.446 42.6735C108.765 41.8262 102.68 42.7342 97.2029 45.4294Z" fill="#FFB552"/>
<path d="M23.7138 52.0737C33.418 52.0737 43.3926 55.9473 51.8396 63.0088C58.2676 68.3825 63.8801 75.6344 68.5693 84.5782C68.5817 84.621 68.5928 84.6638 68.6038 84.7066C61.8225 74.1013 50.2098 66.4685 37.7705 64.5834C30.5338 63.4863 22.9865 64.3433 16.0424 66.8438C15.3883 67.3337 14.7535 67.8471 14.1366 68.3825C21.5375 65.283 29.783 64.1252 37.6601 65.3161C50.6197 67.2799 62.6767 75.5875 69.1255 86.9987C69.1931 87.1188 69.32 87.1864 69.4484 87.1864C69.5105 87.1864 69.5726 87.1698 69.6305 87.1381C69.7009 87.0981 69.7354 87.0304 69.7672 86.9628C69.9341 87.3037 70.1108 87.6294 70.2764 87.9744C70.3399 88.1082 70.4723 88.1855 70.6103 88.1855C70.6642 88.1855 70.718 88.1745 70.769 88.1497C70.954 88.0613 71.0326 87.8405 70.9443 87.6556C70.4006 86.513 69.8362 85.4062 69.2635 84.3119C68.9806 83.3072 68.6825 82.3067 68.3651 81.3117C68.4313 81.3628 68.5058 81.3987 68.5886 81.3987C68.6466 81.3987 68.7059 81.3863 68.7611 81.3573C68.9419 81.2621 69.0123 81.0371 68.9171 80.8563C68.3016 79.682 67.6613 78.5228 67.0154 77.3663C62.9072 66.0559 56.9401 55.3871 51.122 44.9998C49.9849 42.9684 48.8491 40.9398 47.7272 38.9085C41.6069 27.8243 35.125 15.2263 32.0573 1.60156C31.8047 1.61812 31.5577 1.68437 31.3424 1.80443C34.4336 15.5037 40.9376 28.1459 47.0786 39.2673C48.2005 41.3 49.339 43.33 50.4761 45.3614C55.5269 54.3769 60.6937 63.6063 64.646 73.2705C57.5928 61.5046 48.9733 50.7199 39.0939 41.2324C39.6349 42.0769 40.1938 42.9105 40.7803 43.7261C40.6726 43.6805 40.5608 43.646 40.4532 43.6019C50.6003 53.6841 59.3495 65.1602 66.3406 77.6755C66.767 78.8512 67.1783 80.0311 67.5619 81.2207C63.1777 73.5672 58.0744 67.2523 52.3115 62.4361C43.7307 55.2629 33.5905 51.3271 23.7097 51.3271C23.5813 51.3271 23.4502 51.3271 23.3205 51.3285C14.8639 51.4182 6.84881 54.5522 1.03625 59.7989C1.14941 60.0308 1.30121 60.2336 1.49717 60.3841C7.17863 55.2353 15.035 52.1578 23.3302 52.0695C23.4585 52.0737 23.5841 52.0737 23.7138 52.0737Z" fill="#FFB552"/>
<path d="M63.5433 56.5351C65.416 62.3794 67.6806 68.1547 69.9907 73.8072C69.8237 72.7708 69.6719 71.7317 69.5381 70.6898C67.6378 65.9578 65.8024 61.1581 64.2499 56.3088C61.759 48.5408 60.2658 41.2475 59.74 34.4482C59.5372 35.0582 59.3343 35.6682 59.1494 36.285C59.7897 42.6303 61.2525 49.3867 63.5433 56.5351Z" fill="#FFB552"/>
<path d="M87.1551 0.867512C87.0309 0.631532 86.8598 0.431436 86.657 0.285156C72.494 20.5049 66.3917 46.2102 69.5394 70.6886C69.9286 71.6588 70.3136 72.633 70.7069 73.5963C66.6718 48.4775 72.5961 21.7442 87.1551 0.867512Z" fill="#FFB552"/>
<path d="M74.1224 90.1177C74.1762 90.2695 74.3184 90.3647 74.4715 90.3647C74.5116 90.3647 74.5544 90.3578 74.5944 90.3426C74.7876 90.275 74.8883 90.0638 74.8207 89.8706C73.3427 85.6796 72.1849 81.3864 71.3224 77.0339C70.878 75.9602 70.435 74.888 69.9921 73.8047C70.8877 79.3495 72.2511 84.8143 74.1224 90.1177Z" fill="#FFB552"/>
<path d="M72.1393 79.0182C72.1987 79.1618 72.338 79.2473 72.4829 79.2473C72.5312 79.2473 72.5782 79.239 72.6251 79.2197C72.8141 79.1397 72.9038 78.9244 72.8266 78.734C72.1228 77.0352 71.4134 75.3198 70.7083 73.5962C70.8932 74.7457 71.096 75.8925 71.3237 77.0352C71.5942 77.6948 71.8675 78.3627 72.1393 79.0182Z" fill="#FFB552"/>
<path d="M85.5807 84.1312C85.4303 83.4564 84.5691 83.4716 84.2255 83.9546C83.4141 85.0945 82.6026 86.2358 81.7926 87.3756C81.2282 86.5159 80.6637 85.6561 80.1007 84.7964C79.5459 83.9504 79.0022 82.7016 78.1218 82.133C76.2781 80.9462 74.916 83.3019 74.6469 84.8102C74.4399 85.9763 74.4013 87.2363 73.8866 88.3223C73.4146 89.3159 72.2112 90.3454 71.1086 89.6057C70.2558 89.0344 69.8818 87.8986 69.1407 87.2004C68.39 86.4938 67.5082 86.1323 66.4856 86.3531C66.1572 86.4248 65.9585 86.7533 65.9419 87.0679C65.8674 88.4838 65.7928 89.8997 65.7183 91.3142C62.9155 90.2502 59.8395 90.1729 56.9802 91.1872C56.3412 91.4135 56.2888 92.1559 56.8035 92.5423C64.7289 98.4874 73.2393 103.62 82.1969 107.853C82.8745 108.174 83.4734 107.448 83.2761 106.926C83.4141 106.847 83.5369 106.734 83.61 106.559C86.5853 99.4934 87.2546 91.6081 85.5807 84.1312Z" fill="#33896E"/>
<path d="M149.738 65.267C136.151 72.9633 126.44 86.508 123.62 101.88C122.78 106.466 122.534 111.144 122.904 115.792C122.947 116.338 123.531 116.512 123.895 116.327C124.028 116.355 124.172 116.349 124.324 116.263C137.649 108.845 144.182 94.1159 147.711 79.9612C148.863 75.3396 149.771 70.6628 150.678 65.9887C150.782 65.4533 150.249 64.9772 149.738 65.267Z" fill="#F78721"/>
<path d="M136.394 98.453L141.876 86.6692C142.224 85.9226 141.246 85.3416 140.771 86.0234C138.214 89.7024 135.25 93.0696 131.979 96.125C132.919 93.1552 133.859 90.1868 134.798 87.2171C134.989 86.6154 134.157 86.1227 133.729 86.5947C131.43 89.1228 129.288 91.7862 127.301 94.5642C127.574 92.9565 127.847 91.3502 128.119 89.7425C128.17 89.4458 128.001 89.178 127.773 89.0331C125.86 93.0972 124.44 97.407 123.62 101.88C122.78 106.465 122.534 111.144 122.904 115.791C122.947 116.338 123.531 116.512 123.895 116.327C124.028 116.354 124.172 116.349 124.324 116.263C133.98 110.888 140.058 101.67 144.021 91.6179C141.763 94.2026 139.21 96.4976 136.394 98.453Z" fill="#FFB552"/>
<path d="M136.677 104.285C134.608 105.297 132.541 106.307 130.472 107.318C130.533 106.112 130.224 104.898 128.909 104.492C128.115 104.248 127.367 104.586 126.681 104.961C126.011 105.328 125.348 105.713 124.686 106.096C124.544 104.437 124.4 102.779 124.258 101.121C124.194 100.378 123.307 100.126 122.877 100.747C118.908 106.476 121.946 113.69 120.05 119.945C119.805 120.757 120.898 121.151 121.342 120.595C121.374 120.586 121.404 120.588 121.436 120.573C128.333 117.398 134.086 111.981 137.691 105.299C138.055 104.622 137.335 103.964 136.677 104.285Z" fill="#33896E"/>
</svg>
