<svg width="114" height="238" viewBox="0 0 114 238" fill="none" xmlns="http://www.w3.org/2000/svg">
<path d="M3.467 147.614C3.76883 161.747 6.54158 176.63 14.9489 186.834C26.3331 200.652 44.525 202.271 60.9621 203.019C72.6408 203.55 85.3606 203.723 94.6881 195.527C101.964 189.134 105.758 178.772 108.426 168.626C115.093 143.276 116.525 115.181 107.864 90.6601C99.8021 67.8385 78.7361 44.8177 56.4395 43.3345C35.8341 41.9637 17.773 80.3961 11.2878 98.949C5.90736 114.341 3.11017 130.985 3.467 147.614Z" fill="white"/>
<path d="M19.6634 26.7626C20.707 44.3741 23.8573 61.7111 27.8703 78.7168C31.8858 95.741 36.7628 112.486 41.3832 129.371C46.0012 146.256 50.3344 163.336 53.2549 180.873C56.1706 198.38 57.637 216.422 56.3112 234.43C56.1926 236.061 54.9608 237.271 53.5592 237.135C52.1576 236.997 51.1177 235.563 51.235 233.932C51.2362 233.915 51.2386 233.881 51.2411 233.864C52.8358 216.59 51.7543 199.005 49.204 181.732C46.6537 164.431 42.6749 147.385 38.3808 130.442C34.083 113.489 29.5005 96.5729 25.7771 79.3567C22.0561 62.159 19.2015 44.603 18.4781 26.8422C18.4622 26.4611 18.7151 26.1383 19.0426 26.1199C19.3664 26.1028 19.6414 26.39 19.6634 26.7626Z" fill="#33896E"/>
<path d="M23.4308 46.5414C26.4223 44.5023 28.9066 41.4706 30.5136 37.8957C32.1205 34.3207 32.8439 30.2169 32.5775 26.1954C29.8891 25.8314 27.0809 26.9804 25.1367 29.1717C23.1925 31.3644 22.0647 34.4502 21.852 37.5899C21.6394 40.7311 22.1771 43.7486 23.4308 46.5414Z" fill="#F78721"/>
<path d="M23.3734 46.5711C20.641 44.2106 18.6161 40.7623 17.7192 36.9414C16.8222 33.1219 17.0581 28.954 18.3779 25.3037C21.1775 27.5107 23.2805 30.9619 24.164 34.76C25.0475 38.5582 24.8337 43.0233 23.3734 46.5711Z" fill="#FFB552"/>
<path d="M20.7412 44.704C22.2797 44.2049 24.0113 44.5959 25.2761 45.7279C25.0549 46.399 24.7469 47.0134 24.2875 47.494C23.9477 47.8495 23.5347 48.1424 23.0801 48.1765C22.4056 48.2292 21.7775 47.6902 21.4292 47.0162C21.0797 46.3436 20.861 45.479 20.7412 44.704Z" fill="#33896E"/>
<path d="M22.8382 47.2634C22.6879 47.2407 22.5827 47.3644 22.5497 47.5208C22.3298 48.5632 21.885 49.5273 21.2801 50.335C21.1885 50.4573 21.2251 50.662 21.3302 50.7545C21.4475 50.8583 21.5991 50.8185 21.6907 50.6962C22.3567 49.8074 22.8186 48.7423 23.0593 47.599C23.0936 47.4412 22.9652 47.2834 22.8382 47.2634Z" fill="#33896E"/>
<path d="M15.131 50.8472C12.3424 49.9371 9.78231 48.0999 7.83199 45.6086C5.88168 43.1172 4.54846 39.9789 4.03156 36.6628C6.13828 35.7043 8.61652 35.9404 10.5876 37.2316C12.5587 38.5227 14.0324 40.7396 14.7766 43.2253C15.5196 45.7109 15.6357 48.2819 15.131 50.8472Z" fill="#F78721"/>
<path d="M15.1823 50.8586C16.9603 48.2762 17.9685 44.99 17.9966 41.681C18.0259 38.372 17.0752 35.063 15.3436 32.438C13.4837 34.9123 12.412 38.2213 12.39 41.5075C12.3693 44.7952 13.3554 48.3516 15.1823 50.8586Z" fill="#FFB552"/>
<path d="M16.9689 48.6998C15.6357 48.6756 14.3074 49.4193 13.4899 50.6465C13.7905 51.1342 14.1522 51.5552 14.6104 51.8296C14.9489 52.033 15.3363 52.168 15.7115 52.0841C16.2662 51.959 16.6756 51.3703 16.8345 50.7389C16.9933 50.1076 17.0141 49.3553 16.9689 48.6998Z" fill="#33896E"/>
<path d="M15.7408 51.2854C15.8581 51.2299 15.9656 51.3039 16.0206 51.4219C16.3884 52.2097 16.9237 52.8794 17.5591 53.3828C17.6556 53.4582 17.663 53.6331 17.5945 53.7341C17.5188 53.8464 17.3893 53.8521 17.2927 53.7753C16.5925 53.2221 16.0255 52.4742 15.6223 51.611C15.5673 51.493 15.6418 51.3323 15.7408 51.2854Z" fill="#33896E"/>
<path d="M31.1575 63.6167C33.7005 61.5192 35.7229 58.5771 36.9229 55.2297C38.123 51.8823 38.4969 48.1396 37.9885 44.5619C35.5555 44.4794 33.1176 45.7635 31.5229 47.9036C29.9282 50.0437 29.1241 52.9104 29.1449 55.743C29.1644 58.5742 29.8475 61.2291 31.1575 63.6167Z" fill="#F78721"/>
<path d="M31.1087 63.6491C28.5034 61.782 26.4577 58.8769 25.3983 55.5352C24.3388 52.1949 24.2704 48.4394 25.2089 45.0508C27.8643 46.7742 29.9795 49.6751 31.0256 52.9969C32.0716 56.3187 32.1792 60.3373 31.1087 63.6491Z" fill="#FFB552"/>
<path d="M28.6255 62.2158C29.9697 61.6285 31.5474 61.8219 32.7571 62.722C32.6044 63.3434 32.3685 63.9207 31.9897 64.3943C31.7099 64.7427 31.3592 65.0427 30.9535 65.1152C30.3522 65.2233 29.7547 64.7981 29.3966 64.2251C29.0386 63.652 28.7856 62.8983 28.6255 62.2158Z" fill="#33896E"/>
<path d="M30.6761 64.3177C30.5392 64.3106 30.4549 64.43 30.4353 64.5751C30.3082 65.5292 29.9747 66.4322 29.4859 67.2114C29.4125 67.3295 29.459 67.5086 29.5592 67.5826C29.6716 67.6651 29.8036 67.6153 29.8781 67.4973C30.4158 66.6412 30.758 65.6458 30.8973 64.5992C30.9156 64.4542 30.791 64.3234 30.6761 64.3177Z" fill="#33896E"/>
<path d="M16.4496 105.719C13.3493 106.097 10.1611 105.442 7.36152 103.851C4.5607 102.258 2.15702 99.7354 0.508545 96.6567C2.289 94.7257 4.84908 93.8156 7.26009 94.1981C9.67232 94.5806 11.9025 96.115 13.4948 98.2579C15.0858 100.401 16.0793 102.921 16.4496 105.719Z" fill="#F78721"/>
<path d="M16.5058 105.706C17.4027 102.302 17.2903 98.5493 16.1905 95.2261C15.0907 91.9029 13.0108 89.0319 10.3835 87.2061C9.36683 90.5406 9.42429 94.3445 10.5241 97.6435C11.6239 100.941 13.8223 104.043 16.5058 105.706Z" fill="#FFB552"/>
<path d="M17.5567 102.723C16.2149 103.316 15.1396 104.673 14.7412 106.277C15.2092 106.625 15.7139 106.88 16.2662 106.942C16.6744 106.989 17.1082 106.945 17.454 106.688C17.9673 106.307 18.175 105.529 18.1188 104.823C18.0626 104.12 17.8243 103.359 17.5567 102.723Z" fill="#33896E"/>
<path d="M17.2096 105.876C17.3086 105.766 17.4406 105.79 17.5371 105.884C18.1738 106.503 18.9375 106.925 19.7453 107.134C19.8675 107.165 19.9347 107.336 19.9005 107.468C19.8626 107.616 19.7355 107.682 19.6133 107.649C18.7237 107.419 17.9013 106.934 17.2035 106.255C17.107 106.164 17.1265 105.97 17.2096 105.876Z" fill="#33896E"/>
<path d="M30.9889 169.5C28.7636 172.04 25.9164 173.833 22.8724 174.612C19.8284 175.391 16.5974 175.155 13.6609 173.938C14.0239 171.137 15.5416 168.573 17.6349 167.127C19.7282 165.68 22.2956 165.269 24.6871 165.796C27.0797 166.32 29.2036 167.575 30.9889 169.5Z" fill="#F78721"/>
<path d="M31.0256 169.449C29.9087 166.133 27.8154 163.276 25.1783 161.469C22.5412 159.661 19.3787 158.917 16.3457 159.39C17.3306 162.737 19.4093 165.675 22.0329 167.462C24.6565 169.25 28.0353 170.087 31.0256 169.449Z" fill="#FFB552"/>
<path d="M30.2545 166.352C29.5201 167.786 29.4028 169.628 29.949 171.172C30.5014 171.107 31.0329 170.94 31.4985 170.591C31.8431 170.332 32.1596 169.983 32.2928 169.533C32.4908 168.863 32.2378 168.103 31.8174 167.592C31.3971 167.08 30.8044 166.654 30.2545 166.352Z" fill="#33896E"/>
<path d="M31.6683 169.072C31.6867 168.914 31.804 168.839 31.9286 168.841C32.7584 168.866 33.582 168.644 34.3262 168.223C34.4386 168.159 34.5828 168.244 34.6268 168.372C34.6757 168.514 34.6109 168.658 34.4985 168.722C33.6785 169.186 32.7755 169.4 31.8663 169.375C31.7417 169.372 31.6524 169.204 31.6683 169.072Z" fill="#33896E"/>
<path d="M60.5356 141.797C63.5821 141.03 66.4354 139.248 68.668 136.719C70.9018 134.189 72.5088 130.918 73.2493 127.395C71.0399 126.207 68.3637 126.273 66.1751 127.511C63.9865 128.75 62.2794 131.019 61.3421 133.633C60.4049 136.25 60.1372 139.002 60.5356 141.797Z" fill="#F78721"/>
<path d="M60.4794 141.804C58.7136 138.896 57.8142 135.29 57.967 131.732C58.1197 128.175 59.3259 124.691 61.3324 122.004C63.1923 124.802 64.1588 128.437 63.9988 131.971C63.8399 135.504 62.5825 139.248 60.4794 141.804Z" fill="#FFB552"/>
<path d="M58.6807 139.351C60.1153 139.426 61.4998 140.325 62.3088 141.704C61.9581 142.205 61.5462 142.63 61.0391 142.89C60.664 143.082 60.2399 143.199 59.8428 143.081C59.2538 142.905 58.8468 142.241 58.7112 141.551C58.5756 140.863 58.5963 140.052 58.6807 139.351Z" fill="#33896E"/>
<path d="M59.8562 142.222C59.7328 142.154 59.6142 142.225 59.547 142.348C59.1083 143.167 58.4961 143.846 57.7849 144.338C57.6774 144.412 57.659 144.599 57.7275 144.712C57.8032 144.838 57.9413 144.854 58.0489 144.779C58.8322 144.237 59.4835 143.477 59.9649 142.579C60.0309 142.456 59.9601 142.279 59.8562 142.222Z" fill="#33896E"/>
<path d="M31.4361 155.05C27.7066 153.558 24.351 150.825 21.8691 147.259C19.3872 143.693 17.7876 139.304 17.3086 134.75C20.2365 133.64 23.5909 134.188 26.1816 136.125C28.7734 138.061 30.6272 141.208 31.4691 144.655C32.3111 148.102 32.2952 151.609 31.4361 155.05Z" fill="#F78721"/>
<path d="M31.5058 155.07C34.0964 151.722 35.6887 147.347 35.9527 142.852C36.2154 138.357 35.1486 133.771 32.971 130.045C30.2753 133.239 28.595 137.637 28.3433 142.104C28.0916 146.57 29.1913 151.493 31.5058 155.07Z" fill="#FFB552"/>
<path d="M34.0806 152.3C32.2696 152.145 30.4133 153.033 29.2207 154.627C29.597 155.319 30.059 155.923 30.6639 156.338C31.1111 156.645 31.628 156.864 32.1425 156.785C32.905 156.667 33.5013 155.902 33.7604 155.058C34.0195 154.215 34.0964 153.195 34.0806 152.3Z" fill="#33896E"/>
<path d="M32.2354 155.701C32.3991 155.636 32.5396 155.747 32.6068 155.913C33.0541 157.018 33.7347 157.978 34.5669 158.719C34.6928 158.831 34.6915 159.068 34.5913 159.199C34.4801 159.346 34.3042 159.34 34.1783 159.228C33.2631 158.412 32.5433 157.344 32.0533 156.132C31.986 155.967 32.0973 155.757 32.2354 155.701Z" fill="#33896E"/>
<path d="M50.6643 123.831C54.1397 121.663 57.075 118.338 59.0338 114.355C60.9915 110.372 61.9654 105.742 61.8102 101.156C58.7662 100.609 55.5328 101.775 53.2415 104.169C50.9503 106.565 49.5547 110.018 49.1979 113.577C48.8411 117.137 49.3409 120.595 50.6643 123.831Z" fill="#F78721"/>
<path d="M50.5971 123.863C47.5775 121.043 45.4024 117.021 44.5225 112.635C43.6427 108.246 44.0643 103.521 45.6981 99.437C48.7995 102.085 51.0639 106.113 51.9291 110.475C52.7955 114.837 52.3886 119.902 50.5971 123.863Z" fill="#FFB552"/>
<path d="M47.6741 121.61C49.4411 121.12 51.3951 121.65 52.7931 123C52.5169 123.752 52.1441 124.434 51.604 124.958C51.2056 125.345 50.7242 125.657 50.2061 125.674C49.4362 125.7 48.7433 125.057 48.3718 124.274C47.9991 123.49 47.7816 122.498 47.6741 121.61Z" fill="#33896E"/>
<path d="M49.9641 124.624C49.7943 124.591 49.6709 124.725 49.6269 124.902C49.3385 126.077 48.7971 127.15 48.0798 128.038C47.9711 128.171 48.0053 128.406 48.1214 128.517C48.2509 128.641 48.4244 128.602 48.5331 128.469C49.3238 127.492 49.8871 126.304 50.2036 125.016C50.2476 124.84 50.1083 124.652 49.9641 124.624Z" fill="#33896E"/>
<path d="M20.8072 65.0953C17.4907 64.3985 14.3526 62.5968 11.8585 59.959C9.36437 57.3212 7.52404 53.8572 6.61243 50.0832C8.96233 48.7053 11.8548 48.6612 14.2597 49.9055C16.6646 51.1497 18.5807 53.5287 19.6768 56.3116C20.773 59.0959 21.1493 62.0593 20.8072 65.0953Z" fill="#F78721"/>
<path d="M20.8695 65.1012C22.6854 61.8832 23.542 57.9471 23.2634 54.112C22.9848 50.2754 21.5722 46.564 19.3188 43.7456C17.3978 46.8498 16.4691 50.8186 16.755 54.6282C17.0386 58.4391 18.5159 62.4307 20.8695 65.1012Z" fill="#FFB552"/>
<path d="M22.7343 62.374C21.1872 62.5162 19.7196 63.5472 18.8887 65.073C19.2834 65.5991 19.7416 66.0399 20.2988 66.3002C20.7107 66.4921 21.1726 66.5988 21.5978 66.4537C22.2284 66.239 22.6463 65.5039 22.7722 64.7516C22.8968 64.0008 22.8479 63.1277 22.7343 62.374Z" fill="#33896E"/>
<path d="M21.555 65.5249C21.6858 65.4453 21.8166 65.5178 21.8923 65.6486C22.3921 66.5146 23.0752 67.2213 23.8598 67.7233C23.9783 67.7987 24.004 68.0006 23.9343 68.1257C23.8573 68.2651 23.707 68.2878 23.5885 68.2125C22.7245 67.6607 21.9974 66.8687 21.4488 65.9188C21.3742 65.788 21.4451 65.5917 21.555 65.5249Z" fill="#33896E"/>
<path d="M32.938 122.368C28.9946 122.392 25.0512 121.101 21.6968 118.688C18.3424 116.275 15.588 112.747 13.8442 108.632C16.2943 106.46 19.6145 105.688 22.6096 106.521C25.6048 107.355 28.248 109.613 30.0211 112.544C31.7942 115.474 32.773 118.79 32.938 122.368Z" fill="#F78721"/>
<path d="M33.0089 122.36C34.5058 118.205 34.7673 113.462 33.7408 109.118C32.7144 104.774 30.406 100.855 27.2948 98.1729C25.6549 102.223 25.3176 107.021 26.3465 111.333C27.3767 115.648 29.8109 119.874 33.0089 122.36Z" fill="#FFB552"/>
<path d="M34.6537 118.756C32.9001 119.307 31.4007 120.858 30.7262 122.82C31.2773 123.328 31.8846 123.721 32.5738 123.881C33.0822 123.999 33.6333 124.008 34.0964 123.735C34.7832 123.329 35.129 122.38 35.1339 121.485C35.14 120.589 34.9238 119.595 34.6537 118.756Z" fill="#33896E"/>
<path d="M33.8777 122.677C34.0134 122.553 34.1771 122.603 34.2883 122.735C35.024 123.607 35.9392 124.25 36.934 124.632C37.0843 124.691 37.1502 124.915 37.094 125.077C37.0305 125.258 36.8631 125.32 36.7128 125.264C35.6179 124.844 34.6354 124.113 33.8288 123.158C33.7176 123.024 33.7629 122.781 33.8777 122.677Z" fill="#33896E"/>
<path d="M32.8097 85.8567C36.0296 83.8545 38.7522 80.7816 40.5706 77.0972C42.3889 73.4128 43.2956 69.1269 43.1576 64.8808C40.3408 64.3689 37.3445 65.4425 35.2207 67.6565C33.0968 69.8706 31.8003 73.0644 31.4655 76.3606C31.1306 79.6554 31.5889 82.8577 32.8097 85.8567Z" fill="#F78721"/>
<path d="M32.7486 85.8867C29.9563 83.2702 27.9473 79.5431 27.1383 75.4791C26.3294 71.415 26.7253 67.0395 28.2443 63.2612C31.1123 65.7184 33.2044 69.4526 33.9999 73.4925C34.7942 77.5324 34.4117 82.2222 32.7486 85.8867Z" fill="#FFB552"/>
<path d="M30.0443 83.7949C31.6806 83.3441 33.4891 83.8375 34.782 85.0903C34.5254 85.7857 34.1796 86.4185 33.6785 86.9019C33.3083 87.2589 32.8635 87.5475 32.3832 87.5632C31.6708 87.5859 31.0292 86.9887 30.6859 86.262C30.3425 85.5368 30.1433 84.6168 30.0443 83.7949Z" fill="#33896E"/>
<path d="M32.1608 86.5893C32.0032 86.558 31.8883 86.6831 31.848 86.8467C31.5791 87.9331 31.0769 88.9271 30.4121 89.7476C30.3119 89.8713 30.3425 90.0888 30.45 90.1912C30.5698 90.305 30.731 90.2708 30.8312 90.1471C31.5644 89.2442 32.0875 88.145 32.382 86.9533C32.4223 86.7898 32.294 86.6163 32.1608 86.5893Z" fill="#33896E"/>
<path d="M52.8065 160.487C56.6778 159.61 60.3255 157.444 63.2082 154.312C66.0896 151.179 68.1964 147.091 69.2119 142.657C66.4428 141.087 63.0579 141.09 60.2607 142.59C57.4636 144.09 55.2542 146.91 54.009 150.188C52.765 153.466 52.3641 156.941 52.8065 160.487Z" fill="#F78721"/>
<path d="M52.7344 160.495C50.5666 156.762 49.5083 152.173 49.782 147.678C50.0558 143.185 51.6578 138.813 54.257 135.475C56.5483 139.071 57.6884 143.698 57.4073 148.163C57.1263 152.628 55.4521 157.326 52.7344 160.495Z" fill="#FFB552"/>
<path d="M50.514 157.338C52.3262 157.476 54.0591 158.655 55.0513 160.425C54.5967 161.048 54.0664 161.573 53.4175 161.887C52.9385 162.119 52.3996 162.252 51.8998 162.092C51.158 161.851 50.6594 161 50.503 160.122C50.3466 159.245 50.3918 158.222 50.514 157.338Z" fill="#33896E"/>
<path d="M51.9364 161.004C51.7824 160.913 51.6297 161 51.5429 161.155C50.9686 162.177 50.1804 163.017 49.2688 163.619C49.1307 163.71 49.1038 163.946 49.1869 164.091C49.2798 164.253 49.4545 164.277 49.5926 164.186C50.5959 163.525 51.4354 162.584 52.0647 161.462C52.1527 161.307 52.0672 161.081 51.9364 161.004Z" fill="#33896E"/>
<path d="M25.6072 90.3376C21.7042 90.9888 17.6459 90.3376 14.0398 88.4804C10.4336 86.6233 7.29065 83.5674 5.07883 79.7678C7.25032 77.2267 10.4495 75.9341 13.5143 76.2825C16.5791 76.6309 19.463 78.4482 21.5636 81.069C23.663 83.6897 25.0231 86.8181 25.6072 90.3376Z" fill="#F78721"/>
<path d="M25.6769 90.3178C26.6716 85.9636 26.3734 81.2241 24.8459 77.0846C23.3184 72.9452 20.5713 69.43 17.1742 67.2686C16.0255 71.5417 16.2552 76.3466 17.7815 80.4562C19.3078 84.5658 22.2162 88.3639 25.6769 90.3178Z" fill="#FFB552"/>
<path d="M26.883 86.4868C25.2101 87.3102 23.9074 89.0862 23.4699 91.1382C24.0761 91.5534 24.7237 91.8463 25.4251 91.8947C25.9433 91.9302 26.4895 91.8506 26.916 91.5065C27.549 90.996 27.7787 90.0006 27.6797 89.1118C27.5795 88.2245 27.2484 87.2746 26.883 86.4868Z" fill="#33896E"/>
<path d="M26.5738 90.4925C26.6936 90.3474 26.8622 90.3716 26.9881 90.4839C27.819 91.2305 28.8015 91.7225 29.8317 91.9415C29.9869 91.9742 30.0797 92.1875 30.0419 92.3567C30.0003 92.5458 29.8415 92.6354 29.685 92.6013C28.551 92.3596 27.4915 91.7922 26.5811 90.9731C26.4553 90.8622 26.4724 90.6148 26.5738 90.4925Z" fill="#33896E"/>
<path d="M44.0863 170.875C40.149 171.124 36.1555 170.061 32.7034 167.842C29.2512 165.624 26.3514 162.258 24.4353 158.247C26.7913 155.937 30.0748 154.978 33.1017 155.639C36.1286 156.3 38.8635 158.405 40.7576 161.23C42.6529 164.054 43.771 167.311 44.0863 170.875Z" fill="#F78721"/>
<path d="M44.1572 170.863C45.4769 166.626 45.5392 161.876 44.3307 157.595C43.1221 153.315 40.6513 149.533 37.4313 147.031C35.9649 151.169 35.8293 155.981 37.039 160.23C38.2488 164.481 40.8578 168.562 44.1572 170.863Z" fill="#FFB552"/>
<path d="M45.648 167.169C43.9189 167.819 42.4867 169.455 41.8965 171.452C42.4683 171.927 43.0916 172.286 43.7869 172.407C44.3002 172.496 44.8513 172.472 45.301 172.173C45.9694 171.73 46.2749 170.761 46.2431 169.867C46.2113 168.971 45.9523 167.991 45.648 167.169Z" fill="#33896E"/>
<path d="M45.0382 171.128C45.169 170.996 45.334 171.037 45.4513 171.162C46.2224 171.992 47.1633 172.582 48.1739 172.906C48.3267 172.954 48.4024 173.176 48.3523 173.341C48.2961 173.524 48.1311 173.597 47.9784 173.549C46.8664 173.192 45.8546 172.519 45.0089 171.609C44.8928 171.484 44.9283 171.239 45.0382 171.128Z" fill="#33896E"/>
<path d="M44.233 140.618C46.9397 138.819 49.1992 136.12 50.6729 132.925C52.1479 129.73 52.8334 126.048 52.6269 122.429C50.2122 122.071 47.6778 123.072 45.912 125.022C44.1462 126.97 43.1051 129.733 42.8888 132.554C42.6725 135.375 43.1295 138.094 44.233 140.618Z" fill="#F78721"/>
<path d="M44.1816 140.645C41.745 138.491 39.9535 135.366 39.1787 131.922C38.404 128.477 38.6508 124.733 39.8692 121.466C42.3681 123.483 44.2305 126.61 44.9918 130.035C45.7543 133.459 45.5246 137.471 44.1816 140.645Z" fill="#FFB552"/>
<path d="M41.8305 138.937C43.2175 138.506 44.7706 138.877 45.8997 139.91C45.6957 140.511 45.4134 141.06 44.9955 141.487C44.6875 141.803 44.3136 142.061 43.9042 142.087C43.2969 142.125 42.7372 141.635 42.4293 141.025C42.1213 140.415 41.9319 139.635 41.8305 138.937Z" fill="#33896E"/>
<path d="M43.6953 141.262C43.5596 141.239 43.4643 141.349 43.4338 141.491C43.2273 142.425 42.8191 143.287 42.268 144.006C42.1849 144.114 42.2154 144.299 42.3095 144.385C42.4146 144.478 42.5502 144.444 42.6346 144.336C43.2407 143.544 43.6647 142.593 43.892 141.568C43.9226 141.425 43.8089 141.28 43.6953 141.262Z" fill="#33896E"/>
<path d="M37.7795 107.639C40.4863 105.84 42.7457 103.141 44.2195 99.946C45.6944 96.7508 46.38 93.0692 46.1735 89.4502C43.7588 89.0919 41.2244 90.093 39.4586 92.0425C37.6928 93.9907 36.6516 96.7536 36.4353 99.5749C36.219 102.396 36.6761 105.115 37.7795 107.639Z" fill="#F78721"/>
<path d="M37.7282 107.666C35.2915 105.511 33.5001 102.387 32.7254 98.9433C31.9506 95.4978 32.1975 91.7536 33.4158 88.4873C35.9148 90.5037 37.7771 93.6307 38.5384 97.0563C39.3009 100.48 39.0712 104.492 37.7282 107.666Z" fill="#FFB552"/>
<path d="M35.3771 105.958C36.764 105.527 38.3172 105.898 39.4464 106.931C39.2423 107.532 38.96 108.081 38.5421 108.508C38.2341 108.824 37.8602 109.082 37.4508 109.108C36.8435 109.148 36.2838 108.656 35.9759 108.046C35.6679 107.436 35.4785 106.656 35.3771 105.958Z" fill="#33896E"/>
<path d="M37.2419 108.283C37.1062 108.26 37.0109 108.37 36.9804 108.512C36.7739 109.446 36.3657 110.308 35.8146 111.027C35.7315 111.135 35.762 111.32 35.8561 111.405C35.9612 111.499 36.0969 111.465 36.1812 111.357C36.7873 110.565 37.2113 109.614 37.4386 108.589C37.4692 108.446 37.3555 108.301 37.2419 108.283Z" fill="#33896E"/>
<path d="M78.8803 2.51045C74.7707 21.3306 72.9439 40.7068 72.1178 60.083C71.288 79.4776 71.4396 98.9263 71.2844 118.418C71.1255 137.908 70.6111 157.487 68.4848 176.981C66.3634 196.44 62.5703 215.88 55.8676 234.168C55.2627 235.825 53.6179 236.599 52.1931 235.895C50.7695 235.191 50.1047 233.277 50.7095 231.619C50.7157 231.602 50.7291 231.568 50.7352 231.551C57.5014 214.137 61.5634 195.331 63.9976 176.26C66.4404 157.161 67.3153 137.76 67.8298 118.337C68.343 98.9036 68.5495 79.3937 69.741 59.9152C70.93 40.4565 73.1296 20.9708 77.618 2.12082C77.7146 1.71697 78.0738 1.4795 78.4208 1.59183C78.7642 1.70133 78.9671 2.11229 78.8803 2.51045Z" fill="#5FC5A9"/>
<path d="M76.9776 24.6835C80.7047 23.7492 84.196 21.5735 86.9309 18.4807C89.6657 15.3878 91.6331 11.3892 92.5422 7.08052C89.8404 5.62439 86.5667 5.7026 83.888 7.21561C81.2094 8.72862 79.1198 11.5029 77.9711 14.6996C76.8212 17.8963 76.4913 21.265 76.9776 24.6835Z" fill="#F78721"/>
<path d="M76.908 24.6936C74.7499 21.1343 73.6526 16.7204 73.8432 12.3705C74.0338 8.02063 75.51 3.7589 77.9675 0.472656C80.2416 3.89825 81.4208 8.34485 81.2216 12.6677C81.0237 16.9892 79.4827 21.568 76.908 24.6936Z" fill="#FFB552"/>
<path d="M74.7097 21.6904C76.4644 21.7843 78.1581 22.8849 79.1467 24.5742C78.7178 25.1871 78.2144 25.7062 77.5924 26.0247C77.1329 26.2593 76.6147 26.4015 76.1284 26.2565C75.4074 26.0403 74.9113 25.2284 74.7451 24.3837C74.5789 23.5376 74.6058 22.5479 74.7097 21.6904Z" fill="#5FC5A9"/>
<path d="M76.1455 25.2027C75.9952 25.1188 75.8498 25.2055 75.7679 25.3562C75.2302 26.3573 74.4811 27.1878 73.6099 27.7893C73.4779 27.8803 73.4559 28.1092 73.539 28.2472C73.6318 28.4022 73.8005 28.4206 73.9324 28.3296C74.8917 27.667 75.6872 26.7398 76.2775 25.6406C76.3593 25.4899 76.2726 25.2738 76.1455 25.2027Z" fill="#5FC5A9"/>
<path d="M67.033 25.8653C64.3874 23.8006 62.2538 20.8556 60.9524 17.4727C59.6509 14.0883 59.1841 10.2773 59.6216 6.60432C62.1059 6.44648 64.6257 7.68219 66.3035 9.81946C67.9813 11.9567 68.8673 14.8619 68.9113 17.7571C68.9552 20.6523 68.3173 23.3868 67.033 25.8653Z" fill="#F78721"/>
<path d="M67.0843 25.8981C69.7043 23.9101 71.7279 20.8784 72.7349 17.4329C73.7418 13.9874 73.7259 10.148 72.6909 6.71387C70.0159 8.55536 67.9202 11.5842 66.9279 15.0112C65.9344 18.4383 65.9148 22.5478 67.0843 25.8981Z" fill="#FFB552"/>
<path d="M69.5882 24.3565C68.2012 23.799 66.5943 24.0436 65.3784 25.0006C65.5495 25.6306 65.8025 26.215 66.2008 26.6857C66.4953 27.0327 66.8595 27.3299 67.2762 27.391C67.8933 27.482 68.4945 27.0298 68.8477 26.434C69.1996 25.8382 69.4416 25.0603 69.5882 24.3565Z" fill="#5FC5A9"/>
<path d="M67.5414 26.5676C67.6807 26.5563 67.7711 26.6757 67.7931 26.8236C67.9446 27.7948 68.3064 28.7078 68.822 29.4884C68.9002 29.6065 68.8562 29.7913 68.756 29.8695C68.6436 29.9563 68.5067 29.9108 68.4285 29.7927C67.8603 28.9339 67.4876 27.9271 67.3214 26.862C67.2994 26.7141 67.4241 26.5762 67.5414 26.5676Z" fill="#5FC5A9"/>
<path d="M80.0106 45.6151C83.2868 44.4406 86.2685 42.1739 88.5109 39.1564C90.7533 36.1375 92.249 32.3777 92.7744 28.4345C90.2559 27.3751 87.3292 27.742 85.0306 29.3403C82.732 30.9387 81.0457 33.6134 80.2306 36.5812C79.4168 39.5503 79.3471 42.5976 80.0106 45.6151Z" fill="#F78721"/>
<path d="M79.9496 45.631C77.7781 42.6377 76.4999 38.784 76.3789 34.8693C76.2579 30.9545 77.2954 27.0042 79.2763 23.8374C81.5431 26.6999 82.897 30.5763 83.0082 34.4654C83.1206 38.356 82.0465 42.5978 79.9496 45.631Z" fill="#FFB552"/>
<path d="M77.7793 43.1395C79.3569 43.0641 80.948 43.896 81.9476 45.3194C81.6042 45.9067 81.1875 46.4172 80.6522 46.7599C80.2563 47.0116 79.8017 47.1851 79.3569 47.0998C78.697 46.9718 78.1972 46.2892 77.9931 45.5484C77.7854 44.8061 77.7439 43.9173 77.7793 43.1395Z" fill="#5FC5A9"/>
<path d="M79.3007 46.1556C79.1602 46.0944 79.0355 46.1854 78.9732 46.3276C78.5589 47.2733 77.9431 48.0852 77.2037 48.7024C77.0925 48.7962 77.0877 49.0024 77.1708 49.119C77.2637 49.2498 77.4176 49.2513 77.5288 49.1574C78.3439 48.4777 78.994 47.5733 79.4498 46.5367C79.5109 46.3945 79.4192 46.2082 79.3007 46.1556Z" fill="#5FC5A9"/>
<path d="M52.2114 83.7337C48.8606 82.8905 45.7225 80.931 43.2663 78.1467C40.8101 75.3638 39.0431 71.7662 38.228 67.8898C40.6586 66.583 43.6024 66.6569 46.0097 68.0192C48.4171 69.3829 50.2953 71.8785 51.3254 74.7538C52.3568 77.6305 52.6513 80.6594 52.2114 83.7337Z" fill="#F78721"/>
<path d="M52.2737 83.7422C54.2167 80.5427 55.2065 76.5768 55.0379 72.6649C54.8692 68.7529 53.5446 64.9207 51.3376 61.9629C49.2908 65.0401 48.2276 69.0388 48.4024 72.9251C48.5783 76.81 49.9617 80.9295 52.2737 83.7422Z" fill="#FFB552"/>
<path d="M54.2533 81.0435C52.6757 81.1259 51.1519 82.1142 50.2623 83.6315C50.6484 84.1832 51.1006 84.6497 51.659 84.9369C52.0721 85.1488 52.5376 85.2768 52.9751 85.1459C53.6228 84.9525 54.07 84.2216 54.2203 83.4637C54.3694 82.7058 54.3462 81.8142 54.2533 81.0435Z" fill="#5FC5A9"/>
<path d="M52.9592 84.2002C53.0949 84.1249 53.2257 84.2031 53.299 84.3396C53.7817 85.2397 54.455 85.9877 55.2371 86.5295C55.3556 86.6105 55.3752 86.8167 55.3006 86.9419C55.2175 87.0812 55.0648 87.0983 54.9462 87.0158C54.0847 86.42 53.3686 85.5838 52.8395 84.5956C52.7674 84.459 52.8456 84.2642 52.9592 84.2002Z" fill="#5FC5A9"/>
<path d="M48.5759 156.193C45.5001 157.956 41.9967 158.693 38.5849 158.29C35.1742 157.888 31.8675 156.349 29.1584 153.903C30.3645 151.122 32.7083 149.049 35.3221 148.375C37.936 147.701 40.7405 148.296 43.0843 149.804C45.4281 151.31 47.2769 153.468 48.5759 156.193Z" fill="#F78721"/>
<path d="M48.6285 156.154C48.4403 152.244 47.0961 148.42 44.8745 145.478C42.6529 142.536 39.5674 140.494 36.2582 139.774C36.2997 143.666 37.6036 147.567 39.8179 150.483C42.0309 153.4 45.3156 155.627 48.6285 156.154Z" fill="#FFB552"/>
<path d="M48.7372 152.609C47.5458 153.815 46.8798 155.692 46.9946 157.525C47.591 157.677 48.1946 157.717 48.7861 157.537C49.2223 157.404 49.6562 157.167 49.9287 156.749C50.3332 156.129 50.2928 155.233 50.0044 154.53C49.7148 153.827 49.2211 153.147 48.7372 152.609Z" fill="#5FC5A9"/>
<path d="M49.4106 156.018C49.4766 155.861 49.6207 155.827 49.7503 155.881C50.6093 156.238 51.5356 156.335 52.4387 156.193C52.5743 156.171 52.7002 156.318 52.7087 156.47C52.7185 156.639 52.6073 156.763 52.4704 156.784C51.477 156.941 50.47 156.804 49.5279 156.413C49.3984 156.361 49.3556 156.15 49.4106 156.018Z" fill="#5FC5A9"/>
<path d="M87.6286 139.056C91.038 139.473 94.5451 138.752 97.6258 137.002C100.706 135.251 103.351 132.475 105.166 129.091C103.207 126.966 100.392 125.965 97.7382 126.385C95.0853 126.804 92.6315 128.494 90.8804 130.85C89.1305 133.208 88.0367 135.978 87.6286 139.056Z" fill="#F78721"/>
<path d="M87.5675 139.042C86.5814 135.297 86.706 131.169 87.9158 127.514C89.1256 123.859 91.4131 120.7 94.3044 118.693C95.4225 122.361 95.359 126.546 94.1492 130.173C92.9394 133.802 90.5199 137.212 87.5675 139.042Z" fill="#FFB552"/>
<path d="M86.4127 135.76C87.8889 136.412 89.0718 137.905 89.5093 139.671C88.9948 140.055 88.44 140.333 87.8315 140.403C87.383 140.454 86.9052 140.406 86.5252 140.123C85.9618 139.703 85.7333 138.847 85.7944 138.072C85.8555 137.296 86.117 136.458 86.4127 135.76Z" fill="#5FC5A9"/>
<path d="M86.794 139.228C86.6852 139.108 86.5398 139.135 86.4347 139.237C85.7345 139.917 84.895 140.382 84.0054 140.612C83.8709 140.646 83.7964 140.835 83.8343 140.98C83.8758 141.142 84.0164 141.215 84.1508 141.179C85.1296 140.926 86.0339 140.393 86.8013 139.646C86.9064 139.544 86.8844 139.331 86.794 139.228Z" fill="#5FC5A9"/>
<path d="M53.3075 141.272C49.8505 138.222 47.1511 134.026 45.6101 129.306C44.0692 124.588 43.6928 119.362 44.5372 114.411C47.9246 114.422 51.2668 116.335 53.4041 119.395C55.5413 122.455 56.5483 126.483 56.4114 130.424C56.2733 134.363 55.2212 138.02 53.3075 141.272Z" fill="#F78721"/>
<path d="M53.3747 141.321C57.0713 138.858 60.0261 134.923 61.6281 130.331C63.2302 125.74 63.4685 120.521 62.2941 115.757C58.534 118.017 55.4802 121.942 53.8978 126.509C52.3165 131.075 52.0122 136.659 53.3747 141.321Z" fill="#FFB552"/>
<path d="M56.8831 139.456C55.0354 138.571 52.8346 138.758 51.1165 139.946C51.3059 140.817 51.6102 141.635 52.1198 142.31C52.4961 142.809 52.9727 143.246 53.5336 143.368C54.3658 143.549 55.2139 142.989 55.7332 142.212C56.2538 141.434 56.635 140.398 56.8831 139.456Z" fill="#5FC5A9"/>
<path d="M53.9503 142.273C54.1397 142.271 54.2546 142.443 54.2754 142.643C54.4159 143.977 54.8448 145.251 55.4949 146.359C55.5927 146.527 55.5218 146.774 55.3788 146.871C55.22 146.979 55.0367 146.904 54.9389 146.736C54.224 145.517 53.7865 144.114 53.6326 142.652C53.6118 142.451 53.7902 142.275 53.9503 142.273Z" fill="#5FC5A9"/>
<path d="M82.6172 116.337C86.8893 115.46 90.9378 113.161 94.1602 109.781C97.3826 106.4 99.7667 101.952 100.958 97.0977C97.9398 95.3088 94.2152 95.2349 91.115 96.8218C88.0135 98.4088 85.5365 101.459 84.1129 105.037C82.6893 108.613 82.1907 112.427 82.6172 116.337Z" fill="#F78721"/>
<path d="M82.539 116.344C80.2159 112.191 79.1308 107.118 79.506 102.183C79.8823 97.2454 81.7178 92.4761 84.631 88.8613C87.0909 92.8685 88.2677 97.9835 87.8828 102.887C87.4991 107.79 85.5793 112.92 82.539 116.344Z" fill="#FFB552"/>
<path d="M80.1487 112.821C82.1394 113.014 84.0249 114.349 85.0869 116.319C84.5761 116.994 83.9846 117.559 83.2661 117.89C82.7357 118.135 82.1406 118.27 81.5931 118.081C80.7817 117.799 80.2465 116.851 80.0901 115.882C79.9337 114.914 79.9997 113.791 80.1487 112.821Z" fill="#5FC5A9"/>
<path d="M81.653 116.885C81.4856 116.783 81.3157 116.874 81.218 117.041C80.5703 118.153 79.6881 119.059 78.6762 119.699C78.5235 119.796 78.4893 120.055 78.5785 120.217C78.6774 120.397 78.8693 120.427 79.0233 120.33C80.1377 119.625 81.0775 118.61 81.7887 117.391C81.8852 117.223 81.7948 116.972 81.653 116.885Z" fill="#5FC5A9"/>
<path d="M68.7585 43.0246C65.4994 40.9713 62.7511 37.8329 60.9242 34.0802C59.0974 30.3276 58.1967 25.972 58.358 21.6633C61.22 21.1628 64.2566 22.2734 66.4012 24.5344C68.5459 26.7953 69.8473 30.0475 70.1699 33.3948C70.4937 36.7408 70.0123 39.9886 68.7585 43.0246Z" fill="#F78721"/>
<path d="M68.8208 43.0545C71.6681 40.4167 73.7259 36.647 74.5666 32.5275C75.4074 28.4079 75.0274 23.9642 73.5047 20.1177C70.5805 22.5934 68.4395 26.3688 67.6122 30.4641C66.7849 34.5609 67.1503 39.3232 68.8208 43.0545Z" fill="#FFB552"/>
<path d="M71.5764 40.9498C69.9182 40.4806 68.079 40.9712 66.7605 42.2325C67.0171 42.9406 67.3654 43.5848 67.8713 44.0782C68.2452 44.4437 68.6949 44.7395 69.1825 44.7579C69.9059 44.785 70.5597 44.1849 70.9116 43.4497C71.2648 42.716 71.4725 41.7831 71.5764 40.9498Z" fill="#5FC5A9"/>
<path d="M69.4135 43.7728C69.5735 43.7415 69.6896 43.8695 69.73 44.0359C69.9976 45.1408 70.5023 46.1518 71.1731 46.9894C71.2746 47.1159 71.2416 47.3363 71.1316 47.4387C71.0094 47.5539 70.8469 47.5184 70.7442 47.3918C70.0049 46.4703 69.4782 45.3512 69.1862 44.1397C69.1471 43.9733 69.2778 43.7984 69.4135 43.7728Z" fill="#5FC5A9"/>
<path d="M64.5255 107.721C60.3976 106.17 56.6583 103.245 53.866 99.3827C51.0737 95.5206 49.2358 90.7327 48.6285 85.7344C51.8301 84.4446 55.5267 84.9665 58.4118 87.0341C61.2957 89.1017 63.3902 92.5187 64.3788 96.2899C65.3662 100.06 65.4102 103.916 64.5255 107.721Z" fill="#F78721"/>
<path d="M64.6025 107.741C67.3935 103.997 69.0676 99.1479 69.2766 94.1979C69.4868 89.2479 68.2318 84.2297 65.7719 80.1841C62.8636 83.7604 61.0941 88.6379 60.8949 93.5566C60.6982 98.4753 61.9947 103.865 64.6025 107.741Z" fill="#FFB552"/>
<path d="M67.385 104.633C65.3894 104.506 63.3646 105.528 62.0803 107.309C62.5068 108.06 63.0261 108.714 63.6982 109.156C64.1955 109.483 64.7687 109.712 65.332 109.611C66.1691 109.463 66.8106 108.609 67.0807 107.674C67.352 106.741 67.4192 105.618 67.385 104.633Z" fill="#5FC5A9"/>
<path d="M65.4163 108.419C65.5948 108.344 65.7512 108.462 65.8282 108.644C66.339 109.848 67.1051 110.886 68.0326 111.683C68.1732 111.802 68.1756 112.065 68.0681 112.21C67.9483 112.374 67.754 112.372 67.6147 112.251C66.5944 111.375 65.783 110.219 65.2233 108.897C65.1463 108.716 65.266 108.482 65.4163 108.419Z" fill="#5FC5A9"/>
<path d="M75.1715 69.5162C79.1284 68.7113 82.8799 66.5882 85.8677 63.4641C88.8555 60.34 91.0685 56.2247 92.1781 51.7326C89.3846 50.0703 85.9374 49.9964 83.0645 51.4596C80.1915 52.9243 77.8929 55.7441 76.5707 59.0531C75.2473 62.3649 74.7805 65.8957 75.1715 69.5162Z" fill="#F78721"/>
<path d="M75.0982 69.5234C72.9536 65.6727 71.954 60.9758 72.3084 56.4055C72.6628 51.8352 74.3687 47.4213 77.0706 44.0796C79.3422 47.7939 80.4261 52.532 80.0644 57.0724C79.7027 61.6114 77.9186 66.3581 75.0982 69.5234Z" fill="#FFB552"/>
<path d="M72.8901 66.2573C74.7328 66.4393 76.4779 67.6793 77.4579 69.5052C76.9838 70.1294 76.4363 70.6513 75.7703 70.957C75.2791 71.1831 74.7279 71.3068 74.222 71.1305C73.4705 70.8689 72.9768 69.9901 72.8326 69.0928C72.6872 68.1955 72.7508 67.1546 72.8901 66.2573Z" fill="#5FC5A9"/>
<path d="M74.277 70.0227C74.1218 69.9275 73.9654 70.0114 73.8738 70.1664C73.2725 71.1945 72.455 72.032 71.5165 72.6236C71.3748 72.7132 71.343 72.9521 71.4249 73.1028C71.5165 73.2706 71.6949 73.299 71.8367 73.2094C72.8693 72.5582 73.7406 71.6196 74.4005 70.492C74.4921 70.337 74.4078 70.1038 74.277 70.0227Z" fill="#5FC5A9"/>
<path d="M74.0338 155.497C78.3377 156.129 82.7895 155.323 86.7267 153.202C90.6628 151.081 94.071 147.651 96.4417 143.423C94.0123 140.676 90.4734 139.325 87.108 139.776C83.7426 140.227 80.6009 142.289 78.3328 145.216C76.0636 148.143 74.6192 151.615 74.0338 155.497Z" fill="#F78721"/>
<path d="M73.9569 155.478C72.7923 150.711 73.0428 145.492 74.6559 140.905C76.2689 136.318 79.2335 132.392 82.9349 129.941C84.2669 134.616 84.0934 139.907 82.4815 144.459C80.8685 149.012 77.7316 153.252 73.9569 155.478Z" fill="#FFB552"/>
<path d="M72.5687 151.29C74.4212 152.159 75.884 154.084 76.3984 156.33C75.7398 156.799 75.031 157.136 74.2599 157.206C73.6905 157.257 73.088 157.181 72.6139 156.812C71.91 156.264 71.6399 155.174 71.7353 154.195C71.8306 153.217 72.1789 152.166 72.5687 151.29Z" fill="#5FC5A9"/>
<path d="M72.9731 155.689C72.8387 155.533 72.6542 155.563 72.5174 155.689C71.6155 156.528 70.5438 157.091 69.4135 157.355C69.2436 157.394 69.1446 157.63 69.1886 157.815C69.2375 158.021 69.4135 158.117 69.5846 158.077C70.8286 157.787 71.9833 157.138 72.9719 156.218C73.1088 156.093 73.0868 155.822 72.9731 155.689Z" fill="#5FC5A9"/>
<path d="M66.3218 71.3194C62.0509 70.4391 58.0024 68.1369 54.7825 64.7554C51.5625 61.3739 49.1796 56.923 47.9906 52.0683C51.0101 50.2809 54.7348 50.2098 57.8338 51.7981C60.934 53.3879 63.411 56.4396 64.8322 60.0173C66.2534 63.5951 66.7507 67.4089 66.3218 71.3194Z" fill="#F78721"/>
<path d="M66.4 71.3267C68.7243 67.1745 69.8131 62.1036 69.4391 57.1664C69.0652 52.2292 67.2322 47.4584 64.3202 43.8423C61.8591 47.8481 60.6798 52.9616 61.0611 57.866C61.4436 62.7691 63.3609 67.9011 66.4 71.3267Z" fill="#FFB552"/>
<path d="M68.7915 67.8057C66.7996 67.9976 64.9141 69.3315 63.8509 71.3009C64.3617 71.9764 64.952 72.5424 65.6705 72.8737C66.2008 73.1183 66.7959 73.2533 67.3434 73.0642C68.1548 72.7841 68.6901 71.8356 68.8477 70.8672C69.0066 69.8988 68.9406 68.7755 68.7915 67.8057Z" fill="#5FC5A9"/>
<path d="M67.286 71.8683C67.4534 71.7659 67.6233 71.8569 67.721 72.0247C68.3687 73.1367 69.2497 74.044 70.2615 74.6853C70.4143 74.782 70.4485 75.0408 70.3593 75.2029C70.2603 75.3835 70.0685 75.4134 69.9145 75.3167C68.8013 74.6114 67.8616 73.5946 67.1516 72.3746C67.0538 72.2068 67.1442 71.9551 67.286 71.8683Z" fill="#5FC5A9"/>
<path d="M61.8554 162.866C57.6676 161.553 53.8085 158.844 50.8574 155.146C47.905 151.448 45.868 146.771 45.0517 141.814C48.1947 140.343 51.9095 140.652 54.8778 142.553C57.846 144.454 60.0823 147.748 61.2273 151.458C62.3723 155.168 62.5776 159.016 61.8554 162.866Z" fill="#F78721"/>
<path d="M61.9336 162.882C64.5633 158.983 66.031 154.044 66.0322 149.087C66.0334 144.132 64.5682 139.19 61.9409 135.29C59.1866 139.028 57.6249 144.001 57.6346 148.925C57.6444 153.85 59.1645 159.158 61.9336 162.882Z" fill="#FFB552"/>
<path d="M64.5817 159.619C62.5837 159.606 60.6041 160.742 59.3967 162.595C59.8538 163.32 60.4 163.944 61.0904 164.348C61.6 164.647 62.1829 164.842 62.7426 164.71C63.5723 164.513 64.1772 163.623 64.4082 162.676C64.6367 161.728 64.6562 160.6 64.5817 159.619Z" fill="#5FC5A9"/>
<path d="M62.7744 163.512C62.9491 163.427 63.1104 163.535 63.196 163.713C63.7569 164.887 64.567 165.88 65.5263 166.622C65.6705 166.734 65.6851 166.995 65.5837 167.148C65.4713 167.317 65.277 167.327 65.1316 167.216C64.0758 166.399 63.2167 165.291 62.6008 164.003C62.5177 163.825 62.6265 163.585 62.7744 163.512Z" fill="#5FC5A9"/>
<path d="M70.941 131.308C74.3003 130.51 77.4579 128.593 79.9422 125.845C82.4266 123.096 84.2302 119.522 85.0832 115.657C82.6661 114.318 79.7223 114.351 77.3015 115.682C74.8807 117.011 72.9781 119.483 71.9186 122.344C70.8591 125.205 70.5328 128.229 70.941 131.308Z" fill="#F78721"/>
<path d="M70.8786 131.315C68.9687 128.09 68.0192 124.11 68.2257 120.201C68.4334 116.292 69.7972 112.478 72.0334 109.55C74.0497 112.655 75.0726 116.668 74.8575 120.552C74.6424 124.435 73.22 128.536 70.8786 131.315Z" fill="#FFB552"/>
<path d="M68.9271 128.59C70.5035 128.694 72.0175 129.704 72.8925 131.232C72.5015 131.778 72.0444 132.239 71.4823 132.519C71.0668 132.726 70.6 132.846 70.1638 132.71C69.5173 132.508 69.0786 131.771 68.9357 131.011C68.7939 130.25 68.8269 129.36 68.9271 128.59Z" fill="#5FC5A9"/>
<path d="M70.1882 131.764C70.0538 131.687 69.9218 131.763 69.8473 131.898C69.3561 132.792 68.6754 133.53 67.8872 134.061C67.7687 134.14 67.7467 134.347 67.82 134.472C67.9019 134.612 68.0534 134.631 68.1732 134.55C69.0408 133.965 69.7642 133.139 70.3043 132.159C70.3776 132.026 70.3019 131.83 70.1882 131.764Z" fill="#5FC5A9"/>
<path d="M73.9336 94.2665C77.2929 93.4687 80.4506 91.5519 82.9349 88.8031C85.4192 86.053 87.2229 82.4809 88.0759 78.6159C85.6587 77.2764 82.715 77.3091 80.2942 78.6401C77.8734 79.9711 75.9707 82.4411 74.91 85.3022C73.8506 88.1618 73.5255 91.1878 73.9336 94.2665Z" fill="#F78721"/>
<path d="M73.8713 94.2734C71.9614 91.0483 71.0107 87.0681 71.2184 83.1576C71.4261 79.2485 72.7899 75.4347 75.0261 72.5068C77.0424 75.6125 78.064 79.6254 77.8502 83.5089C77.6363 87.3938 76.2127 91.4934 73.8713 94.2734Z" fill="#FFB552"/>
<path d="M71.9198 91.5488C73.4962 91.6526 75.0103 92.6623 75.8852 94.1923C75.4942 94.7384 75.0371 95.1991 74.475 95.4778C74.0595 95.684 73.5928 95.8049 73.1565 95.6698C72.5101 95.4679 72.0714 94.7313 71.9284 93.9705C71.7879 93.2083 71.8196 92.3181 71.9198 91.5488Z" fill="#5FC5A9"/>
<path d="M73.1821 94.7229C73.0477 94.6461 72.9158 94.7229 72.8412 94.858C72.3488 95.7524 71.6693 96.489 70.8811 97.0208C70.7626 97.1005 70.7406 97.3066 70.8139 97.4318C70.8958 97.5726 71.0473 97.591 71.167 97.5114C72.0347 96.927 72.7581 96.1008 73.2982 95.121C73.3716 94.9845 73.2958 94.7883 73.1821 94.7229Z" fill="#5FC5A9"/>
</svg>
