<svg width="168" height="188" viewBox="0 0 168 188" fill="none" xmlns="http://www.w3.org/2000/svg">
<path d="M67.6106 180.489C36.74 172.033 9.35249 145.132 2.11715 113.416C-7.94167 69.322 30.788 32.0095 73.379 31.4424C121.97 30.7951 168.055 79.9411 164.103 128.714C160.974 167.321 122.489 184.549 87.8027 183.547C80.9676 183.35 74.1918 182.292 67.6106 180.489Z" fill="#FFF7EE"/>
<path d="M60.8361 120.838C60.3683 119.687 58.7757 119.614 58.3603 120.675C56.5939 117.444 54.3597 114.49 51.6011 111.979C50.6793 111.14 49.0826 111.926 49.4041 113.201C46.1059 109.812 42.3579 106.898 38.1585 104.622C37.2367 104.122 35.8056 104.971 36.232 106.103C36.4929 106.793 36.7523 107.483 37.0131 108.173C33.2099 105.769 29.2437 103.641 25.1244 101.811C24.1667 101.384 23.2628 101.898 23.151 102.943C22.5079 108.979 23.4712 115.033 25.8282 120.576C25.1272 120.242 24.4261 119.91 23.7251 119.576C22.766 119.12 21.4177 119.883 21.7986 121.056C23.2821 125.623 26.0794 129.625 29.7902 132.567C28.6821 132.494 27.5753 132.421 26.4685 132.348C25.3218 132.272 24.756 133.827 25.5412 134.586C28.6517 137.593 32.1886 140.041 36.0209 141.955C35.5158 141.992 35.0107 142.03 34.5057 142.067C33.243 142.159 32.6785 143.806 33.8433 144.509C41.8445 149.346 51.3582 151.004 60.5325 149.257C60.7367 149.218 60.9051 149.144 61.0403 149.047C61.6572 149.189 62.3541 148.953 62.5611 148.164C64.9292 139.125 64.3537 129.503 60.8361 120.838Z" fill="#5FC5A9"/>
<path d="M58.6073 145.176C59.5816 136.835 59.6272 128.459 58.7895 120.147C58.6073 120.271 58.4528 120.441 58.3617 120.676C58.2623 120.494 58.1464 120.322 58.0429 120.142C58.8626 128.241 58.8364 136.404 57.927 144.535C56.9596 143.639 56.0019 142.734 55.0621 141.81C55.0483 141.792 55.0345 141.78 55.0166 141.765C53.5138 140.288 52.0523 138.773 50.6171 137.23C50.6544 137.178 50.6958 137.125 50.7013 137.055C51.3375 128.676 51.0215 120.27 49.7905 111.978C49.4662 112.258 49.2758 112.686 49.4055 113.2C49.3393 113.133 49.2661 113.071 49.1999 113.003C50.2901 120.797 50.5537 128.688 49.9879 136.557C47.6777 134.044 45.4421 131.455 43.2783 128.793C43.2811 128.779 43.2935 128.772 43.2949 128.758C43.6399 121.53 43.27 114.293 42.2157 107.146C41.9356 106.953 41.6665 106.743 41.3808 106.557C42.4641 113.617 42.8671 120.771 42.5786 127.918C40.1609 124.91 37.8176 121.822 35.5379 118.662C35.5365 118.646 35.5503 118.633 35.5475 118.618C34.6547 113.968 33.3423 109.419 31.6283 105.022C31.2723 104.829 30.9135 104.64 30.5547 104.451C32.2162 108.577 33.5576 112.825 34.4891 117.186C30.9163 112.164 27.4773 106.983 24.0853 101.717C23.8438 101.789 23.6381 101.935 23.4781 102.135C25.5287 105.32 27.5918 108.485 29.6963 111.591C27.3738 110.148 25.1313 108.577 22.9744 106.902C22.9771 107.225 22.9813 107.548 22.9923 107.871C25.3452 109.678 27.7975 111.359 30.3449 112.888C30.4043 112.923 30.4705 112.941 30.5354 112.941C30.5616 112.941 30.5837 112.927 30.6099 112.921C33.3451 116.921 36.1506 120.833 39.0596 124.632C33.9136 122.341 28.9967 119.601 24.3613 116.435C24.4717 116.817 24.6014 117.194 24.7242 117.572C29.5432 120.797 34.6492 123.576 40.0022 125.867C41.9977 128.433 44.047 130.942 46.1597 133.386C38.5187 131.666 31.1067 129.159 24.0025 125.927C24.2343 126.319 24.4868 126.698 24.7408 127.075C31.8022 130.206 39.159 132.631 46.7352 134.284C46.7614 134.289 46.7876 134.292 46.8152 134.292C46.8566 134.292 46.8898 134.266 46.9284 134.252C49.1323 136.767 51.4106 139.205 53.7732 141.562C44.0732 140.82 34.4629 138.42 25.5205 134.549C25.5315 134.56 25.5356 134.574 25.5467 134.585C26.078 135.098 26.6383 135.574 27.1944 136.054C35.9188 139.587 45.2186 141.759 54.5874 142.38C56.9251 144.674 59.3801 146.852 61.9 148.97C62.1098 148.877 62.2795 148.71 62.4106 148.484C61.1148 147.405 59.8466 146.305 58.6073 145.176Z" fill="#33896E"/>
<path d="M128.292 82.8443C128.046 82.5173 127.581 82.4496 127.254 82.6953C111.702 94.3494 99.2774 110.109 91.1864 127.864C84.0822 143.419 80.2899 160.596 80.5508 177.823C68.1735 159.692 59.7431 138.841 55.7011 117.168C51.2147 93.146 52.0786 68.0135 58.8158 44.3975C58.9262 44.0098 58.7067 43.6026 58.319 43.4853C57.927 43.3653 57.513 43.5861 57.3944 43.978C50.1494 67.6974 48.7818 93.1461 52.8914 117.665C56.9969 142.183 66.5976 165.9 81.3084 186.147L81.3139 186.157C81.7431 186.743 82.4634 187.092 83.2376 187.01C84.3941 186.887 85.2317 185.849 85.1089 184.694C83.1065 165.876 86.2943 146.526 93.796 129.019C101.283 111.503 113.091 95.7308 128.157 83.8725C128.471 83.6227 128.533 83.1672 128.292 82.8443Z" fill="#33896E"/>
<path d="M97.7704 41.6845C101.031 38.2635 101.862 32.72 98.9945 28.7194C96.7893 25.6434 92.859 24.291 89.2089 24.8167C90.6952 23.2256 91.864 21.3833 92.3567 19.1877C93.2385 15.2699 91.628 11.0457 88.5437 8.51895C85.073 5.67477 80.4073 5.31459 76.3073 6.77049C74.3353 3.25977 70.6258 0.825422 66.4817 0.955142C62.43 1.0821 58.8641 3.57576 57.0646 7.0989C52.7797 4.58178 47.6364 2.83611 42.6698 4.12365C38.8679 5.10897 35.48 7.89519 34.2766 11.6543C29.2245 10.3999 24.1405 13.8664 22.6308 18.7861C20.9872 24.1419 23.2435 29.4825 26.8716 33.4141C25.2459 33.6501 23.6603 34.1 22.1796 34.8604C18.4342 36.7827 16.0524 40.8496 16.1227 45.0531C16.1917 49.1213 18.5543 52.6403 21.9491 54.6358C17.6159 59.9612 19.2181 68.3889 25.7731 71.3393C29.4632 72.9995 33.3865 72.4254 36.78 70.3333C37.1429 70.1097 37.4782 69.8365 37.8315 69.5964C37.521 73.4742 39.0984 77.2678 42.2268 79.6855C45.5361 82.244 49.9369 82.578 53.6987 80.9786C56.5112 84.8109 61.5523 86.5924 66.1187 84.8426C67.2779 84.3982 68.335 83.7717 69.29 82.981C69.773 82.5821 70.2077 82.1475 70.6065 81.6659C70.9156 81.2919 71.3103 80.3548 71.6926 80.1285C72.2611 79.7918 73.1167 80.3272 73.677 80.4542C74.2897 80.5936 74.9383 80.6695 75.5648 80.6805C76.7986 80.6998 78.0433 80.457 79.1929 80.0154C84.4258 78.0075 86.8243 72.464 86.1563 67.1165C85.7989 64.2544 84.6384 61.6586 83.0155 59.3526C88.1463 62.5501 94.802 62.1236 98.8537 57.3157C102.794 52.643 101.92 45.7996 97.7704 41.6845Z" fill="#D35D57"/>
<path d="M83.5467 33.8655C82.1129 32.0757 79.6193 31.2587 77.3795 31.4919C76.2838 31.6065 75.2654 31.9515 74.3007 32.4262C74.781 30.2886 74.5064 28.104 72.8062 26.6261C71.2854 25.304 69.0512 25.3675 67.3497 26.3045C66.9039 26.5502 66.5134 26.8579 66.1532 27.196C66 26.1775 65.6785 25.1991 65.0658 24.3283C63.8817 22.6447 61.7634 21.5021 59.6976 22.0762C57.3116 22.74 56.1041 24.8031 55.4941 27.2029C54.0962 24.2621 51.8619 21.9478 48.1884 21.912C45.8258 21.8885 43.4191 23.1043 42.5511 25.3992C42.2323 26.241 42.1923 27.1228 42.2985 27.9784C40.8288 27.6583 39.3329 27.6831 37.9212 28.5014C35.7353 29.7669 35.2343 32.4138 36.3452 34.5942C37.4892 36.838 40.0146 38.1697 42.2571 39.2461C42.1467 39.2613 42.035 39.2586 41.9246 39.2751C38.9783 39.7153 35.1984 40.6385 33.5203 43.3668C31.8726 46.044 33.5397 49.1766 36.2831 50.2434C37.6921 50.7912 39.0666 50.7567 40.4328 50.5152C40.1913 50.8354 39.9732 51.179 39.7842 51.5544C38.5518 54.0052 38.9451 57.0785 41.385 58.6006C45.2255 60.9977 49.8706 58.9387 52.8818 55.7744C53.4545 58.8628 55.1988 61.8547 58.33 62.1183C60.3531 62.2894 61.9649 60.7466 62.6991 58.9898C62.9903 58.2929 63.1186 57.5864 63.1669 56.8729C63.6237 57.4953 64.1246 58.09 64.6835 58.6475C66.5865 60.545 69.726 62.9214 72.5771 61.8174C75.3233 60.7548 75.7525 57.4138 74.6857 54.9892C74.28 54.0673 73.7129 53.2034 73.0863 52.3713C73.6894 52.5079 74.2966 52.6363 74.9176 52.7163C77.3202 53.0254 80.5301 53.2035 82.607 51.6896C84.7598 50.1205 84.3927 47.5193 82.8333 45.6549C82.0122 44.6723 81.0117 43.8898 79.9228 43.2606C81.2628 42.703 82.4772 41.904 83.3853 40.6924C84.8922 38.6831 85.1696 35.8914 83.5467 33.8655Z" fill="#A32D2B"/>
<path d="M89.2089 24.8166C89.4035 24.6082 89.5746 24.3846 89.7568 24.168C83.3798 25.8847 77.3685 29.1746 72.5551 33.661C72.4061 33.8004 72.3978 34.035 72.5372 34.1854C72.6089 34.2641 72.7097 34.3041 72.8076 34.3041C72.8987 34.3041 72.9884 34.2709 73.0616 34.2047C77.9371 29.659 84.0629 26.347 90.5462 24.7117C90.099 24.7199 89.6519 24.7531 89.2089 24.8166Z" fill="#A32D2B"/>
<path d="M83.0196 59.3526C83.5757 59.699 84.1526 59.9957 84.7391 60.2551L70.7886 50.0583C70.6272 49.9382 70.3912 49.9741 70.2698 50.1383C70.1497 50.3039 70.1856 50.5344 70.3512 50.6558L83.6792 60.3973C83.4625 60.0467 83.2569 59.6907 83.0196 59.3526Z" fill="#A32D2B"/>
<path d="M49.1779 55.523C44.0774 59.3787 39.9429 64.3964 37.1029 70.1082C37.3458 69.9371 37.5887 69.7632 37.8343 69.5962C37.815 69.8419 37.8247 70.0847 37.8205 70.329C40.6067 64.7648 44.6501 59.8755 49.625 56.1136C49.7893 55.9908 49.821 55.7576 49.6968 55.5947C49.574 55.4319 49.3394 55.4002 49.1779 55.523Z" fill="#A32D2B"/>
<path d="M55.5728 28.6434C55.5783 28.6434 55.5852 28.6434 55.5935 28.6434C55.7977 28.6323 55.9536 28.4571 55.944 28.2528C55.5438 20.9651 56.0461 13.6814 57.404 6.53027C57.2922 6.72209 57.1653 6.90287 57.0645 7.10021C56.91 7.00913 56.7471 6.92909 56.5898 6.83939C55.2843 13.905 54.8082 21.0975 55.2015 28.2929C55.214 28.4902 55.3768 28.6434 55.5728 28.6434Z" fill="#A32D2B"/>
<path d="M47.2928 40.358C47.308 40.3607 47.3259 40.3621 47.3425 40.3621C47.5246 40.3621 47.6847 40.2269 47.7095 40.0419C47.7371 39.8391 47.5936 39.6528 47.3908 39.6252C39.9967 38.6233 32.7572 36.2152 26.1898 32.6396C26.4106 32.9032 26.6383 33.164 26.8715 33.4166C26.6701 33.4456 26.4727 33.4883 26.2726 33.5242C32.8042 37.0115 39.9733 39.3671 47.2928 40.358Z" fill="#A32D2B"/>
<path d="M101.383 50.1814C101.38 49.9343 101.371 49.6859 101.353 49.4389C87.241 49.5424 73.1443 46.7024 60.1847 41.1106C73.7087 41.7026 87.5887 39.1124 100.717 33.5786C100.699 33.3191 100.675 33.0611 100.637 32.8044C87.1871 38.5079 72.9469 41.0885 59.0945 40.3033C60.5394 32.4373 65.0575 24.8266 71.9119 18.8181C76.9848 14.369 83.399 11.3399 90.0782 10.0992C89.8961 9.87568 89.7195 9.64938 89.5207 9.441C82.8636 10.7548 76.488 13.8183 71.422 18.2606C64.936 23.9462 60.4814 31.049 58.7012 38.4693C57.4992 25.2323 62.0822 11.7056 70.997 1.86755C70.7555 1.75853 70.503 1.6771 70.2532 1.5874C61.141 11.7746 56.5788 25.7843 58.0733 39.4036C50.8849 28.9031 46.7463 16.4072 46.208 3.70158C45.961 3.7002 45.714 3.72503 45.467 3.73607C46.0149 16.7081 50.2694 29.4689 57.6689 40.1473C44.5189 35.879 32.6427 26.1694 25.5674 14.1164C25.3811 14.2917 25.1976 14.4711 25.0237 14.6588C32.1169 26.6399 43.9021 36.2958 56.9721 40.6759C43.7406 44.5454 29.8095 45.4948 16.2096 43.4966C16.1793 43.7422 16.1834 43.992 16.1682 44.2404C29.7943 46.2359 43.7503 45.3016 57.0093 41.4501C47.1948 51.4813 33.6846 58.2875 19.5754 60.639C19.5561 60.8888 19.5354 61.1372 19.5327 61.387C33.7398 59.0465 47.3604 52.2306 57.3019 42.1759C49.9354 53.7997 45.9086 67.9557 45.9693 81.5322C46.215 81.5998 46.4606 81.6577 46.7104 81.7088C46.6096 68.2648 50.5564 54.2261 57.8304 42.6921C55.0511 56.9765 57.0369 72.7471 63.091 85.4721C63.3532 85.4569 63.6154 85.4279 63.8789 85.3906C57.7697 72.6933 55.788 56.8826 58.6267 42.5941C61.9718 57.1738 70.6906 70.1707 82.2495 78.1622C82.4413 77.9966 82.6304 77.831 82.8098 77.653C71.0646 69.5938 62.2602 56.2947 59.1193 41.4266C72.1603 47.1826 86.3661 50.191 100.612 50.191C100.868 50.1924 101.127 50.1827 101.383 50.1814Z" fill="#F97A7A"/>
<path d="M56.4035 36.5921C52.2842 33.9286 48.5899 30.7685 45.3676 27.1612C45.6326 26.1841 46.2177 25.2361 47.0526 24.5143C47.2072 24.3805 47.2251 24.1458 47.0913 23.9913C46.9574 23.8381 46.7242 23.8202 46.5682 23.954C45.9459 24.4922 45.4325 25.1436 45.0696 25.8446C44.9219 23.6808 45.22 21.4976 45.9541 19.4483C46.0231 19.2551 45.9224 19.0426 45.7292 18.9736C45.5429 18.9087 45.3249 19.0053 45.2559 19.1971C44.4734 21.3817 44.1905 23.7111 44.3671 26.0171C44.1146 25.7163 43.8386 25.4389 43.593 25.1326C43.4232 24.92 43.2562 24.7116 43.0906 24.5032C42.7374 23.5814 42.4765 22.6665 42.3496 21.7957C42.3206 21.5942 42.1302 21.4548 41.9301 21.4824C41.7272 21.5128 41.5864 21.7005 41.6168 21.9034C41.6665 22.2401 41.7341 22.5837 41.8155 22.9314C41.4995 22.5492 41.1793 22.1683 40.8481 21.7874C40.8785 19.6567 41.3201 17.5191 42.1743 15.5705C42.2571 15.3828 42.1716 15.1648 41.9853 15.082C41.7948 15.0019 41.5782 15.0861 41.4967 15.2724C40.7074 17.0706 40.2561 19.0233 40.1347 20.9884C39.4102 20.199 38.6194 19.4 37.6976 18.561C37.107 18.0241 36.5343 19.2717 36.9759 19.8002C38.5201 21.6494 40.045 23.5138 41.5726 25.3768C39.9649 24.7186 38.331 24.121 36.6709 23.6435C36.4653 23.5828 36.2665 23.7015 36.2113 23.8974C36.1548 24.0948 36.2679 24.3004 36.4653 24.3556C38.5532 24.9573 40.6039 25.7356 42.5994 26.6229C43.0023 27.117 43.4094 27.6096 43.8124 28.1051C42.9457 27.5075 42.0253 26.9872 41.0703 26.5677C40.8771 26.4863 40.6632 26.5705 40.5818 26.7582C40.499 26.9458 40.5846 27.1639 40.7709 27.2467C42.2613 27.9008 43.6661 28.7992 44.8929 29.8798C42.5359 29.3899 40.1416 29.2587 37.7611 29.4961C37.5568 29.5154 37.4078 29.6976 37.4285 29.9004C37.4492 30.1033 37.6258 30.2454 37.8342 30.233C39.7731 30.0412 41.7203 30.1116 43.6523 30.4179C43.5847 30.4787 43.535 30.5614 43.5267 30.6608C43.5088 30.8637 43.6606 31.0431 43.8648 31.0596C44.7673 31.1355 45.6616 31.3025 46.5448 31.5137C47.6667 32.913 48.7969 34.304 49.9092 35.7116C50.9594 37.0406 52.0054 38.3723 53.046 39.7095C53.9181 40.8287 54.7406 42.1631 55.8681 43.0491C56.7582 43.7474 57.8691 44.0786 58.9372 43.5762C59.4023 43.3582 59.7624 43.0298 60.0012 42.6378C60.015 42.6213 60.0274 42.6061 60.0412 42.5882C60.0495 42.5744 60.0564 42.5606 60.0646 42.5468C60.2082 42.3549 60.3324 42.1493 60.4124 41.9216C61.3563 39.1961 58.2003 37.754 56.4035 36.5921Z" fill="#5B310E"/>
<path d="M35.8774 15.3003C33.0153 15.3003 33.0111 19.748 35.8774 19.748C38.7395 19.748 38.745 15.3003 35.8774 15.3003Z" fill="#FFB552"/>
<path d="M36.1161 22.167C34.209 22.167 34.2048 25.1312 36.1161 25.1312C38.0247 25.1326 38.0274 22.167 36.1161 22.167Z" fill="#FFB552"/>
<path d="M41.0483 25.2695C39.1411 25.2695 39.137 28.2351 41.0483 28.2351C42.9568 28.2351 42.9596 25.2695 41.0483 25.2695Z" fill="#FFB552"/>
<path d="M42.0032 19.5425C40.0961 19.5425 40.0919 22.5067 42.0032 22.5067C43.9118 22.5067 43.9145 19.5425 42.0032 19.5425Z" fill="#FFB552"/>
<path d="M42.0032 13.4951C40.0961 13.4951 40.0919 16.4608 42.0032 16.4608C43.9118 16.4608 43.9145 13.4951 42.0032 13.4951Z" fill="#FFB552"/>
<path d="M47.1741 22.4058C45.267 22.4058 45.2628 25.37 47.1741 25.37C49.0827 25.3714 49.0854 22.4058 47.1741 22.4058Z" fill="#FFB552"/>
<path d="M48.9252 26.8354C46.0631 26.8354 46.059 31.2832 48.9252 31.2832C51.786 31.2832 51.7915 26.8354 48.9252 26.8354Z" fill="#FFB552"/>
<path d="M43.5944 29.168C41.6872 29.168 41.6831 32.1322 43.5944 32.1322C45.5029 32.1336 45.5057 29.168 43.5944 29.168Z" fill="#FFB552"/>
<path d="M46.1404 17.3149C44.2319 17.3149 44.2291 20.2792 46.1404 20.2792C48.049 20.2792 48.0517 17.3149 46.1404 17.3149Z" fill="#FFB552"/>
<path d="M37.1512 28.373C35.2427 28.373 35.2399 31.3386 37.1512 31.3386C39.0584 31.3373 39.0611 28.373 37.1512 28.373Z" fill="#FFB552"/>
<path opacity="0.6" d="M78.3621 12.2726C73.6935 9.60919 68.3005 7.71031 62.9668 8.20987C59.6106 8.52451 56.2683 9.65746 53.5345 11.6557C52.2897 12.5651 50.8752 13.6899 50.1328 15.074C49.1875 16.8349 50.1535 19.2402 52.3242 19.203C53.1826 19.1892 53.9982 18.8593 54.8151 18.593C62.844 15.9765 70.7293 20.1524 78.3938 22.0982C79.426 22.3604 80.4983 22.5826 81.5498 22.4128C84.5293 21.9312 85.2869 18.3322 83.613 16.149C82.3282 14.4723 80.1726 13.3062 78.3621 12.2726Z" fill="white"/>
<path d="M98.6495 77.9217C95.8964 75.0333 95.1954 70.3524 97.6159 66.9755C99.4775 64.3783 102.796 63.2371 105.878 63.6801C104.622 62.3359 103.637 60.7807 103.22 58.9273C102.476 55.6195 103.836 52.0535 106.44 49.9201C109.371 47.5189 113.309 47.2153 116.77 48.4435C118.436 45.4793 121.567 43.4244 125.067 43.5334C128.488 43.6397 131.499 45.7456 133.018 48.7209C136.637 46.5957 140.978 45.1218 145.173 46.2079C148.383 47.0387 151.244 49.3916 152.26 52.5656C156.525 51.5057 160.817 54.434 162.092 58.5865C163.479 63.1087 161.575 67.6172 158.511 70.9375C159.884 71.1362 161.222 71.5171 162.472 72.1588C165.633 73.7831 167.645 77.2151 167.585 80.7659C167.527 84.2007 165.531 87.1718 162.665 88.8568C166.323 93.3528 164.971 100.468 159.436 102.959C156.321 104.361 153.008 103.877 150.143 102.109C149.836 101.92 149.554 101.689 149.254 101.487C149.516 104.761 148.185 107.963 145.543 110.005C142.749 112.165 139.034 112.447 135.857 111.097C133.482 114.333 129.226 115.837 125.37 114.359C124.392 113.984 123.499 113.455 122.692 112.787C122.285 112.451 121.918 112.084 121.58 111.676C121.319 111.36 120.985 110.57 120.663 110.378C120.183 110.094 119.46 110.545 118.988 110.652C118.47 110.77 117.924 110.835 117.394 110.843C116.352 110.859 115.301 110.654 114.332 110.281C109.914 108.585 107.889 103.906 108.452 99.3903C108.754 96.974 109.732 94.7825 111.104 92.8353C106.772 95.5346 101.151 95.1758 97.7318 91.1158C94.4088 87.1759 95.1471 81.3979 98.6495 77.9217Z" fill="#D35D57"/>
<path d="M110.796 77.0838C111.564 78.1064 112.589 78.7812 113.72 79.2518C112.8 79.7831 111.955 80.4441 111.263 81.2735C109.946 82.8481 109.636 85.0451 111.453 86.3699C113.207 87.6477 115.916 87.4973 117.946 87.2365C118.47 87.1689 118.982 87.0612 119.492 86.9453C118.963 87.6491 118.484 88.3777 118.141 89.1561C117.239 91.2026 117.602 94.0233 119.921 94.9203C122.329 95.8518 124.98 93.8453 126.586 92.2431C127.057 91.7739 127.48 91.2716 127.867 90.7444C127.908 91.3461 128.017 91.9437 128.263 92.5316C128.883 94.0151 130.243 95.3164 131.952 95.1729C134.596 94.9507 136.068 92.4239 136.551 89.8157C139.093 92.4874 143.015 94.2262 146.258 92.2031C148.318 90.917 148.65 88.3225 147.609 86.2525C147.45 85.9351 147.265 85.6454 147.061 85.3749C148.215 85.5791 149.376 85.6081 150.565 85.1458C152.881 84.2446 154.288 81.5992 152.897 79.3388C151.48 77.0369 148.289 76.2558 145.801 75.8846C145.707 75.8708 145.614 75.8722 145.52 75.8598C147.413 74.9504 149.547 73.827 150.511 71.9323C151.45 70.0928 151.026 67.8571 149.181 66.789C147.989 66.099 146.726 66.077 145.485 66.3474C145.575 65.6243 145.541 64.8805 145.271 64.1698C144.539 62.2323 142.506 61.2056 140.512 61.2249C137.41 61.2552 135.523 63.2093 134.343 65.6919C133.828 63.6647 132.809 61.9232 130.794 61.3629C129.05 60.8785 127.261 61.8431 126.262 63.2645C125.744 64.0001 125.474 64.8267 125.344 65.6864C125.041 65.4008 124.711 65.1413 124.334 64.9343C122.897 64.1436 121.011 64.0898 119.728 65.2062C118.292 66.4537 118.061 68.2987 118.465 70.1038C117.651 69.7036 116.791 69.411 115.866 69.3158C113.976 69.1185 111.87 69.8099 110.66 71.321C109.289 73.0308 109.524 75.3878 110.796 77.0838Z" fill="#A32D2B"/>
<path d="M105.879 63.6817C105.715 63.5064 105.57 63.3173 105.417 63.1338C110.8 64.5828 115.876 67.3607 119.94 71.1488C120.066 71.2661 120.073 71.4648 119.955 71.5918C119.895 71.658 119.81 71.6912 119.726 71.6912C119.649 71.6912 119.573 71.6636 119.512 71.607C115.396 67.7692 110.224 64.9733 104.749 63.592C105.127 63.5989 105.505 63.6278 105.879 63.6817Z" fill="#A32D2B"/>
<path d="M111.104 92.8396C110.635 93.1322 110.148 93.382 109.652 93.6028L121.432 84.993C121.567 84.8922 121.767 84.9212 121.869 85.0606C121.97 85.2 121.94 85.3959 121.8 85.498L110.548 93.7229C110.731 93.4275 110.904 93.1253 111.104 92.8396Z" fill="#A32D2B"/>
<path d="M139.678 89.6077C143.985 92.8631 147.475 97.0997 149.874 101.923C149.668 101.778 149.464 101.632 149.257 101.491C149.273 101.698 149.265 101.903 149.269 102.109C146.916 97.4102 143.504 93.2826 139.303 90.1059C139.165 90.0024 139.137 89.8064 139.242 89.667C139.344 89.5304 139.542 89.5042 139.678 89.6077Z" fill="#A32D2B"/>
<path d="M134.278 66.9121C134.274 66.9121 134.267 66.9121 134.262 66.9107C134.089 66.9011 133.957 66.7534 133.966 66.5809C134.305 60.4275 133.881 54.2782 132.734 48.2407C132.828 48.4022 132.936 48.5554 133.02 48.7223C133.15 48.6464 133.288 48.5774 133.42 48.5029C134.523 54.4687 134.924 60.5407 134.593 66.6154C134.582 66.7824 134.444 66.9121 134.278 66.9121Z" fill="#A32D2B"/>
<path d="M141.269 76.8039C141.256 76.8066 141.242 76.8066 141.228 76.8066C141.074 76.8066 140.94 76.6935 140.918 76.5361C140.894 76.365 141.016 76.2077 141.187 76.1842C147.43 75.3383 153.543 73.3056 159.088 70.2861C158.902 70.5097 158.709 70.7277 158.513 70.9416C158.682 70.9664 158.849 71.0023 159.018 71.0327C153.503 73.9776 147.449 75.9662 141.269 76.8039Z" fill="#A32D2B"/>
<path d="M95.5997 85.0963C95.6025 84.8879 95.6108 84.6781 95.626 84.4697C107.541 84.5567 119.443 82.1582 130.385 77.4386C118.967 77.9396 107.247 75.7509 96.1628 71.0796C96.178 70.8602 96.1987 70.6421 96.2304 70.4255C107.586 75.2417 119.61 77.4193 131.304 76.7569C130.085 70.115 126.27 63.6897 120.483 58.6168C116.199 54.8604 110.784 52.3033 105.144 51.2559C105.297 51.0668 105.446 50.8764 105.614 50.6997C111.235 51.8093 116.619 54.3954 120.895 58.1462C126.371 62.9472 130.133 68.9434 131.636 75.2099C132.651 64.0333 128.782 52.6124 121.254 44.3062C121.458 44.2151 121.671 44.1461 121.882 44.0688C129.575 52.6704 133.428 64.4997 132.166 75.9979C138.235 67.1314 141.729 56.5813 142.184 45.8532C142.393 45.8518 142.601 45.8725 142.81 45.8822C142.346 56.8352 138.755 67.6089 132.508 76.6258C143.61 73.0213 153.638 64.8241 159.611 54.6466C159.768 54.7942 159.923 54.946 160.071 55.1047C154.083 65.2215 144.132 73.3732 133.096 77.0716C144.267 80.3394 156.03 81.1398 167.513 79.4521C167.539 79.6591 167.535 79.8702 167.547 80.0799C156.042 81.7649 144.26 80.9769 133.064 77.7243C141.351 86.1933 152.757 91.9397 164.67 93.9255C164.687 94.1352 164.703 94.3464 164.706 94.5575C152.711 92.5814 141.21 86.8268 132.817 78.337C139.037 88.1516 142.437 100.102 142.386 111.566C142.179 111.623 141.97 111.672 141.761 111.715C141.846 100.365 138.514 88.5118 132.371 78.7731C134.717 90.8343 133.041 104.149 127.93 114.893C127.708 114.879 127.487 114.856 127.265 114.824C132.424 104.103 134.096 90.7543 131.699 78.6903C128.876 90.9999 121.513 101.974 111.754 108.722C111.591 108.582 111.432 108.442 111.282 108.293C121.199 101.488 128.633 90.2588 131.284 77.7063C120.273 82.5667 108.279 85.1059 96.2511 85.1059C96.0331 85.1059 95.8164 85.0976 95.5997 85.0963Z" fill="#F97A7A"/>
<path d="M133.576 73.6228C137.054 71.3734 140.174 68.7059 142.894 65.6602C142.67 64.835 142.176 64.0346 141.471 63.4246C141.34 63.3115 141.326 63.1141 141.438 62.983C141.55 62.8533 141.748 62.8381 141.879 62.9513C142.405 63.4053 142.837 63.9559 143.145 64.5479C143.269 62.7208 143.018 60.8771 142.398 59.1466C142.34 58.9838 142.426 58.8044 142.587 58.7464C142.745 58.6926 142.928 58.7726 142.988 58.9355C143.649 60.7805 143.887 62.7471 143.738 64.6942C143.951 64.4403 144.184 64.2057 144.391 63.9462C144.535 63.7668 144.675 63.5916 144.816 63.415C145.115 62.6367 145.334 61.8638 145.443 61.1283C145.467 60.9572 145.629 60.8399 145.797 60.8634C145.968 60.8882 146.087 61.0469 146.061 61.218C146.019 61.5023 145.961 61.7935 145.892 62.086C146.159 61.7631 146.429 61.4416 146.709 61.12C146.685 59.3205 146.312 57.5168 145.59 55.8719C145.52 55.7132 145.593 55.5283 145.75 55.4593C145.912 55.3916 146.094 55.462 146.162 55.6193C146.828 57.1373 147.209 58.7864 147.312 60.4452C147.924 59.7787 148.592 59.1039 149.37 58.3959C149.868 57.9419 150.353 58.9948 149.979 59.442C148.675 61.0027 147.387 62.5773 146.098 64.1505C147.456 63.5944 148.836 63.0907 150.237 62.6863C150.411 62.6353 150.578 62.7346 150.624 62.9002C150.673 63.0672 150.576 63.2397 150.411 63.288C148.647 63.7958 146.916 64.4527 145.231 65.202C144.891 65.6202 144.547 66.0356 144.207 66.4537C144.939 65.95 145.716 65.5098 146.523 65.1551C146.686 65.0861 146.867 65.1579 146.934 65.3166C147.005 65.4753 146.932 65.6602 146.774 65.7292C145.517 66.2812 144.329 67.0402 143.294 67.9524C145.284 67.5398 147.306 67.428 149.315 67.6281C149.487 67.6446 149.613 67.7978 149.596 67.969C149.58 68.1401 149.431 68.2601 149.254 68.2505C147.617 68.0876 145.974 68.1484 144.343 68.4064C144.401 68.4575 144.441 68.5279 144.448 68.612C144.463 68.7845 144.334 68.935 144.162 68.9501C143.4 69.0136 142.645 69.1558 141.899 69.3338C140.951 70.5151 139.997 71.6894 139.057 72.8776C138.17 73.9996 137.288 75.1242 136.409 76.2531C135.672 77.1984 134.979 78.3245 134.026 79.0724C133.275 79.6617 132.337 79.9419 131.434 79.5182C131.042 79.3347 130.737 79.0573 130.536 78.7261C130.525 78.7123 130.514 78.6985 130.503 78.6847C130.496 78.6723 130.489 78.6612 130.483 78.6488C130.363 78.4873 130.257 78.3135 130.191 78.1203C129.396 75.8226 132.061 74.604 133.576 73.6228Z" fill="#5B310E"/>
<path d="M150.907 55.6455C153.324 55.6455 153.328 59.4005 150.907 59.4005C148.491 59.4005 148.487 55.6455 150.907 55.6455Z" fill="#FFB552"/>
<path d="M150.706 61.4443C152.316 61.4443 152.319 63.9476 150.706 63.9476C149.095 63.9476 149.093 61.4443 150.706 61.4443Z" fill="#FFB552"/>
<path d="M146.541 64.0635C148.151 64.0635 148.154 66.5668 146.541 66.5668C144.931 66.5668 144.928 64.0635 146.541 64.0635Z" fill="#FFB552"/>
<path d="M145.735 59.2266C147.346 59.2266 147.348 61.7299 145.735 61.7299C144.125 61.7299 144.122 59.2266 145.735 59.2266Z" fill="#FFB552"/>
<path d="M145.735 54.1221C147.346 54.1221 147.348 56.6254 145.735 56.6254C144.125 56.6254 144.122 54.1221 145.735 54.1221Z" fill="#FFB552"/>
<path d="M141.369 61.646C142.979 61.646 142.982 64.1493 141.369 64.1493C139.758 64.1493 139.756 61.646 141.369 61.646Z" fill="#FFB552"/>
<path d="M139.892 65.3857C142.309 65.3857 142.313 69.1407 139.892 69.1407C137.476 69.1407 137.472 65.3857 139.892 65.3857Z" fill="#FFB552"/>
<path d="M144.392 67.355C146.003 67.355 146.006 69.8583 144.392 69.8583C142.781 69.8583 142.778 67.355 144.392 67.355Z" fill="#FFB552"/>
<path d="M142.242 57.3472C143.853 57.3472 143.856 59.8505 142.242 59.8505C140.632 59.8505 140.629 57.3472 142.242 57.3472Z" fill="#FFB552"/>
<path d="M149.832 66.6826C151.443 66.6826 151.446 69.1859 149.832 69.1859C148.222 69.1859 148.219 66.6826 149.832 66.6826Z" fill="#FFB552"/>
<path opacity="0.6" d="M130.138 52.4415C125.241 52.0372 120.038 52.5463 115.811 55.0179C113.151 56.5746 110.818 58.8033 109.325 61.515C108.645 62.7501 107.907 64.2267 107.827 65.6605C107.724 67.4848 109.452 69.105 111.238 68.2369C111.943 67.8933 112.492 67.3055 113.066 66.77C118.711 61.5026 126.857 61.9179 133.96 60.5711C134.916 60.3889 135.892 60.1598 136.696 59.6119C138.979 58.0622 138.218 54.7875 135.987 53.6255C134.274 52.7327 132.037 52.5988 130.138 52.4415Z" fill="white"/>
<path d="M141.665 126.001C136.238 127.017 131.013 128.82 126.095 131.291L126.247 130.987C126.843 129.802 125.63 128.497 124.415 129.156C121.803 130.573 119.312 132.172 116.914 133.908C117.169 133.276 117.423 132.646 117.678 132.014C118.141 130.867 116.643 129.988 115.712 130.503C111.489 132.836 107.78 135.911 104.617 139.496C104.784 138.854 104.949 138.213 105.116 137.571C105.454 136.27 103.844 135.341 102.879 136.268C94.9511 143.902 88.8018 153.133 84.7294 163.351C84.6287 163.605 84.6301 163.825 84.6701 164.03C84.6052 164.493 84.7639 164.982 85.2911 165.29C97.6462 172.503 112.949 173.981 126.44 169.192C127.821 168.702 127.658 166.579 126.084 166.563C125.833 166.561 125.583 166.558 125.332 166.556C130.112 164.071 134.23 160.417 137.247 155.86C137.945 154.806 136.797 153.693 135.736 153.894C134.989 154.034 134.242 154.175 133.496 154.317C136.339 149.54 139.181 144.762 142.023 139.986C142.673 138.894 141.318 137.353 140.192 138.155C139.714 138.494 139.238 138.835 138.761 139.174C140.532 135.44 142.064 131.597 143.31 127.647C143.642 126.601 142.612 125.823 141.665 126.001Z" fill="#5FC5A9"/>
<path d="M140.647 142.3C140.836 141.983 141.025 141.664 141.214 141.347C133.645 143.653 125.863 145.219 117.982 146.022C121.425 143.68 124.806 141.247 128.111 138.705C128.118 138.705 128.122 138.711 128.129 138.711C128.158 138.711 128.188 138.708 128.219 138.7C132.582 137.61 136.827 136.126 140.911 134.272C141.054 133.92 141.2 133.568 141.34 133.213C137.539 134.988 133.606 136.468 129.55 137.574C134.12 133.997 138.552 130.229 142.844 126.277C142.612 126.109 142.332 125.998 142.035 125.98C135.399 132.072 128.438 137.739 121.143 142.921C124.783 137.848 128.738 132.977 132.967 128.375C132.451 128.558 131.942 128.761 131.431 128.958C127.08 133.771 123.015 138.86 119.315 144.17C119.304 144.187 119.311 144.206 119.303 144.224C115.886 146.598 112.398 148.864 108.848 151.034C113.322 143.173 118.636 135.799 124.676 129.065C124.589 129.092 124.504 129.109 124.415 129.157C123.846 129.466 123.303 129.815 122.744 130.143C117.052 136.7 112.023 143.827 107.778 151.401C107.723 151.499 107.727 151.607 107.763 151.705C104.654 153.58 101.492 155.372 98.2852 157.09C103.234 147.482 109.333 138.509 116.434 130.363C116.184 130.344 115.933 130.383 115.712 130.504C115.426 130.661 115.163 130.849 114.881 131.015C107.929 139.17 101.961 148.127 97.1273 157.7C96.1807 158.199 95.2354 158.698 94.2804 159.183C94.2597 159.182 94.2376 159.181 94.2169 159.178C94.0665 159.16 93.9478 159.256 93.8774 159.383C92.8286 159.915 91.7798 160.443 90.7214 160.957C93.8816 151.974 98.3473 143.571 104.007 135.922C103.624 135.858 103.215 135.947 102.879 136.268C102.801 136.344 102.727 136.427 102.649 136.503C97.1536 144.134 92.8259 152.496 89.7664 161.412C89.2048 161.681 88.639 161.943 88.0745 162.208C88.0469 162.219 88.0249 162.226 88 162.244C86.8919 162.763 85.7672 163.253 84.6508 163.757C84.6494 163.85 84.6535 163.943 84.6715 164.03C84.648 164.202 84.6673 164.375 84.7115 164.542C85.8941 164.009 87.0837 163.49 88.2567 162.941C99.0759 166.18 110.493 167.83 121.853 167.83C123.695 167.83 125.533 167.778 127.37 167.691C127.338 167.409 127.218 167.144 127.021 166.942C114.332 167.503 101.448 165.994 89.2903 162.455C91.0126 161.638 92.7238 160.802 94.4198 159.941C99.9922 160.512 105.57 160.802 111.145 160.802C119.065 160.802 126.973 160.211 134.819 159.06C135.062 158.778 135.291 158.482 135.526 158.19C122.343 160.185 108.988 160.572 95.677 159.301C98.7571 157.712 101.792 156.047 104.785 154.315C104.833 154.345 104.875 154.386 104.937 154.39C107.937 154.618 110.936 154.729 113.929 154.729C120.768 154.729 127.576 154.128 134.306 152.954C134.472 152.675 134.637 152.398 134.803 152.119C125.263 153.832 115.56 154.362 105.837 153.698C109.52 151.538 113.139 149.278 116.685 146.904C124.81 146.17 132.839 144.626 140.647 142.3Z" fill="#33896E"/>
<path opacity="0.6" d="M124.512 135.291C118.589 136.842 112.916 139.154 107.597 142.11C101.47 144.652 95.9115 148.4 92.1966 154.088C91.2471 155.543 90.2094 157.613 91.3437 159.266C92.7141 161.262 95.0766 160.258 96.6871 159.218C101.456 156.131 106.122 152.875 110.713 149.532C115.901 145.753 120.979 141.826 125.953 137.768C127.155 136.791 125.849 134.942 124.512 135.291Z" fill="white"/>
</svg>
