<svg width="165" height="204" viewBox="0 0 165 204" fill="none" xmlns="http://www.w3.org/2000/svg">
<path d="M89.4022 201.765C51.6026 195.653 19.1064 151.405 8.0678 118.928C-0.271541 94.3914 -6.12689 58.9558 11.5702 37.0842C29.1087 15.4099 59.7267 16.3773 82.2883 29.0512C119.539 49.9761 149.962 89.0936 154.689 132.369C157.451 157.67 145.167 185.906 121.494 197.098C110.618 202.24 99.8088 203.447 89.4022 201.765Z" fill="#FFF7EE"/>
<path d="M18.8718 168.483C21.7477 170.621 24.6499 172.753 27.7963 174.48C30.519 175.974 33.4501 177.158 36.5317 177.644C39.765 178.153 43.066 177.849 46.211 176.987C49.81 176 53.1607 174.292 56.2767 172.259C59.1402 170.391 61.8091 168.236 64.525 166.165C65.4744 165.442 65.5586 165.006 64.8396 164.051C64.0696 163.028 63.0484 162.209 62.081 161.386C60.7148 160.224 59.1885 159.253 57.5698 158.483C51.633 155.659 44.8365 155.723 38.5948 157.448C31.3719 159.443 24.9866 163.557 18.9146 167.822C18.7103 167.966 18.6455 168.316 18.8718 168.483Z" fill="#5FC5A9"/>
<path d="M26.2037 166.927C26.2037 166.927 26.201 166.93 26.1982 166.931L21.1087 170.131C20.9321 170.004 20.7583 169.874 20.583 169.746L24.7685 167.114C22.7717 167.498 20.7886 167.938 18.8152 168.412C18.6744 168.231 18.7338 167.949 18.9159 167.822C18.9615 167.791 19.007 167.759 19.0526 167.727C23.0559 166.775 27.109 166.001 31.1965 165.427L25.1812 163.648C25.4089 163.506 25.6338 163.358 25.8642 163.219L32.3696 165.142C32.4344 165.162 32.4758 165.21 32.5145 165.26C35.4042 164.883 38.3049 164.595 41.214 164.408L31.5402 160.14C31.7831 160.024 32.0287 159.914 32.2729 159.8L42.4021 164.27C42.4339 164.284 42.4435 164.317 42.4684 164.339C44.6074 164.222 46.7492 164.152 48.8909 164.138L38.2056 157.573C38.3367 157.536 38.465 157.486 38.5975 157.449C38.7314 157.412 38.8694 157.387 39.0032 157.352L49.7493 163.954C49.821 163.998 49.8679 164.067 49.8859 164.142C51.713 164.143 53.5415 164.175 55.3659 164.252C52.3313 161.429 49.1145 158.759 45.779 156.275C46.1185 156.258 46.4566 156.273 46.7961 156.269C50.086 158.753 53.2558 161.419 56.2449 164.232C56.2642 164.25 56.2615 164.277 56.2753 164.298C58.3122 164.399 60.3477 164.539 62.3749 164.734C59.942 162.111 57.3227 159.651 54.5765 157.347C55.123 157.515 55.6626 157.71 56.1994 157.922C58.6682 160.07 61.0294 162.342 63.2332 164.752C63.2526 164.774 63.2485 164.803 63.2609 164.828C63.9467 164.898 64.6257 165.006 65.3102 165.086C65.3088 165.278 65.2398 165.458 65.0935 165.643C63.3782 165.443 61.6601 165.271 59.9365 165.138C59.9227 165.156 59.924 165.18 59.9061 165.195C54.5889 169.587 48.9986 173.737 43.2523 177.6C42.801 177.669 42.3483 177.727 41.8943 177.771C47.8311 173.83 53.6064 169.579 59.0932 165.068C57.2082 164.934 55.319 164.851 53.427 164.799C53.4104 164.824 53.409 164.855 53.3856 164.875C49.3256 168.127 45.0945 171.206 40.7337 174.081C38.9936 175.229 37.2258 176.333 35.447 177.413C35.1503 177.35 34.8508 177.297 34.5568 177.223C40.7972 173.461 46.8334 169.299 52.5259 164.771C50.3317 164.726 48.1347 164.737 45.9391 164.8C42.9293 166.996 39.8519 169.131 36.7235 171.194C34.4658 172.683 32.1763 174.125 29.8704 175.535C29.6578 175.436 29.4536 175.32 29.2439 175.216C34.579 171.961 39.8036 168.482 44.8475 164.831C42.1413 164.931 39.4393 165.122 36.7442 165.387C36.7345 165.396 36.7345 165.413 36.7235 165.421C34.0504 167.357 31.3152 169.247 28.5387 171.076C27.5078 171.755 26.4645 172.416 25.424 173.079C25.2363 172.96 25.0542 172.833 24.8679 172.712C28.4973 170.404 32.0742 168 35.5504 165.507C32.4385 165.841 29.3404 166.288 26.2644 166.843C26.2423 166.87 26.2355 166.906 26.2037 166.927Z" fill="#33896E"/>
<path d="M120.207 169.126C112.581 168.067 104.737 167.296 97.1234 168.877C90.5449 170.245 84.2411 173.406 80.0997 178.827C78.9709 180.305 78.0228 181.926 77.3121 183.646C76.8084 184.863 76.255 186.104 76.0287 187.412C75.8176 188.633 76.1032 188.996 77.3218 189.214C80.8104 189.838 84.2963 190.562 87.8249 190.929C91.6641 191.33 95.5668 191.316 99.3562 190.522C102.67 189.828 105.86 188.543 108.604 186.541C111.217 184.633 113.362 182.15 115.167 179.481C117.252 176.395 118.922 173.052 120.563 169.715C120.691 169.454 120.466 169.161 120.207 169.126Z" fill="#5FC5A9"/>
<path d="M113.057 171.755C113.06 171.755 113.061 171.755 113.064 171.755L119.279 172.296C119.381 172.094 119.481 171.893 119.581 171.691L114.47 171.245C116.494 170.653 118.534 170.119 120.581 169.621C120.623 169.388 120.436 169.157 120.208 169.126C120.151 169.117 120.093 169.111 120.037 169.104C115.89 170.122 111.782 171.33 107.737 172.736L112.447 168.243C112.168 168.22 111.891 168.19 111.613 168.169L106.521 173.028C106.47 173.077 106.455 173.142 106.443 173.205C103.597 174.228 100.782 175.336 98.0079 176.543L104.915 168.018C104.636 168.026 104.356 168.04 104.077 168.052L96.8446 176.979C96.8225 177.007 96.828 177.043 96.817 177.073C94.787 177.98 92.7764 178.929 90.7933 179.931L97.5443 168.807C97.4049 168.835 97.2641 168.85 97.1234 168.879C96.9826 168.908 96.8432 168.95 96.7025 168.981L89.9129 180.168C89.8673 180.243 89.8577 180.329 89.877 180.406C88.1906 181.274 86.5181 182.168 84.8704 183.105C86.3332 179.059 88.0375 175.071 89.9377 171.197C89.6176 171.343 89.3112 171.517 88.9965 171.675C87.1363 175.526 85.4748 179.49 84.0493 183.504C84.0396 183.529 84.0561 183.554 84.0534 183.578C82.2207 184.637 80.4102 185.733 78.63 186.873C79.6333 183.297 80.8835 179.786 82.3256 176.358C81.9006 176.774 81.4949 177.208 81.1002 177.658C79.8389 180.812 78.7376 184.028 77.8448 187.296C77.8365 187.325 77.8544 187.35 77.8558 187.379C77.2569 187.77 76.6801 188.19 76.0867 188.588C76.1791 188.765 76.3268 188.898 76.5503 188.999C78.038 188.001 79.5436 187.028 81.0712 186.087C81.0919 186.097 81.1016 186.12 81.1251 186.125C88.1148 187.659 95.2424 188.839 102.377 189.681C102.827 189.53 103.271 189.37 103.711 189.195C96.363 188.37 89.0187 187.186 81.8151 185.622C83.4918 184.605 85.196 183.632 86.9169 182.688C86.9445 182.704 86.9597 182.733 86.9914 182.739C92.2809 183.817 97.645 184.654 103.033 185.241C105.183 185.476 107.337 185.657 109.491 185.811C109.735 185.613 109.986 185.422 110.222 185.212C102.679 184.699 95.1348 183.716 87.7338 182.236C89.7376 181.154 91.7703 180.123 93.8265 179.14C97.6464 179.741 101.498 180.253 105.363 180.674C108.154 180.977 110.951 181.224 113.747 181.433C113.896 181.241 114.03 181.036 114.175 180.841C107.708 180.364 101.236 179.629 94.8491 178.649C97.3938 177.46 99.98 176.354 102.592 175.322C102.606 175.326 102.613 175.341 102.628 175.344C106.013 175.863 109.433 176.311 112.864 176.685C114.137 176.825 115.413 176.939 116.688 177.058C116.805 176.859 116.913 176.655 117.027 176.456C112.584 176.048 108.143 175.522 103.752 174.869C106.783 173.703 109.854 172.647 112.956 171.701C112.995 171.719 113.018 171.749 113.057 171.755Z" fill="#33896E"/>
<path d="M115.215 142.483C115.066 142.102 114.637 141.913 114.255 142.062C99.7453 147.73 87.2467 158.368 79.1364 171.764C83.3385 128.733 79.1723 84.9479 66.8323 43.6224C66.7164 43.2346 66.3107 43.0111 65.9202 43.1215C65.5269 43.2332 65.2978 43.6431 65.4096 44.0364C78.0186 88.4862 81.1264 135.519 74.6611 181.128C72.6228 174.146 69.2556 167.577 64.8382 161.864C58.3191 153.422 49.5037 146.724 39.4863 143.126C39.1095 142.991 38.69 143.18 38.5451 143.555C38.396 143.937 38.5851 144.367 38.9674 144.514C48.5998 148.261 56.9432 154.972 62.9959 163.249C68.6691 170.995 72.3454 180.193 73.3225 189.658C72.667 193.537 71.9659 197.408 71.171 201.261C71.1697 201.267 71.1669 201.281 71.1655 201.286C70.9737 202.285 71.6278 203.25 72.6269 203.442C73.6261 203.633 74.5907 202.979 74.7825 201.98C75.4159 198.678 75.9983 195.364 76.531 192.046C76.6138 191.829 76.6635 191.597 76.64 191.35C76.6386 191.339 76.6372 191.329 76.6358 191.318C77.3107 187.046 77.8778 182.76 78.3857 178.465C85.5782 162.879 98.8152 150.056 114.808 143.436C115.179 143.285 115.363 142.86 115.215 142.483Z" fill="#33896E"/>
<path d="M119.602 89.4136C122.438 86.4907 119.575 81.56 115.916 79.8032C116.518 76.7148 115.738 74.0763 113.04 72.521C113.613 70.6152 113.826 68.4293 112.93 66.6698C112.054 64.9475 110.475 64.3845 108.798 64.4507C109.741 62.2013 110.689 59.8222 109.657 57.5038C108.506 54.9163 106.247 54.9646 103.963 55.2531C104.45 53.9876 104.915 52.729 104.649 51.3118C104.465 50.3361 103.974 49.4101 103.191 48.7809C102.838 48.4966 102.467 48.3807 102.091 48.2882C102.926 46.5273 103.404 44.6119 102.594 42.7157C101.618 40.4318 99.7854 39.9144 97.7803 39.2685C98.019 37.7119 98.3543 36.2118 97.6961 34.6579C96.9467 32.8846 95.4591 31.5791 93.6168 31.0451C92.6853 30.7746 91.6986 30.7428 90.7478 30.5745C90.6829 30.5634 90.429 30.4848 90.1944 30.4241C90.1958 30.4089 90.1944 30.3937 90.1971 30.3772C90.6332 28.9516 90.3559 26.756 90.0522 25.3195C89.7059 23.6759 88.7523 21.9454 87.0397 21.4251C86.1855 21.1657 85.4665 21.4996 84.6385 21.4486C84.3349 21.4293 84.1638 21.4472 84.0727 21.472C84.0948 21.4058 84.092 21.2871 84.0078 21.0815C83.8547 20.7116 83.9858 20.0782 83.8892 19.667C83.1992 16.751 81.1181 16.4681 78.946 16.9787C79.3807 14.6176 79.9051 12.3226 77.5522 10.5342C75.427 8.91818 72.9182 9.50744 70.6136 10.4265C70.3362 8.075 69.7166 5.79383 66.7951 5.64617C64.8838 5.54957 62.8097 6.19542 61.3869 7.48572C60.2801 8.48898 59.5653 9.80828 58.8242 11.0986C56.6714 9.8207 53.7389 9.79998 51.9739 11.7858C50.4945 13.4515 50.6836 15.716 51.0162 17.8882C47.9636 16.7524 44.3604 16.9525 43.4041 20.6951C42.9114 22.6215 43.3986 25.6727 44.664 27.947C42.9998 28.2589 41.5577 29.0372 40.9505 30.9982C40.4965 32.4637 40.691 34.2494 41.3728 35.7688C39.5305 35.9813 37.8234 36.986 37.1499 38.8614C36.2308 41.4241 37.3445 44.271 39.0074 46.4942C37.6564 46.8364 36.482 47.4629 35.9811 49.0748C35.8707 49.4294 35.8334 49.762 35.8279 50.0822C33.8311 50.4686 32.0177 51.5712 31.1994 53.5405C30.0153 56.3902 31.6258 58.365 33.3577 60.297C32.0384 61.1484 30.9717 62.3048 30.7771 63.9801C30.6253 65.2953 31.0089 66.5856 31.543 67.8165C28.881 67.9228 26.3652 68.6639 25.7001 71.7979C25.3578 73.4097 25.7139 74.9815 26.7779 76.2429C27.2595 76.8156 27.8708 77.2558 28.4808 77.696C26.259 78.5061 24.1821 79.9564 24.2525 82.4708C24.3353 85.4199 28.0433 86.9075 30.3479 87.8017C30.7288 87.9494 32.153 88.2682 32.2882 88.627C32.4124 88.9554 31.4698 90.2636 31.2918 90.6059C30.5811 91.9735 30.1961 93.3962 30.3383 94.9543C30.5563 97.3582 32.2247 98.5988 34.0974 99.6311C32.8733 101.112 32.026 102.9 32.9989 104.781C34.0353 106.785 36.1329 106.9 38.0262 107.469C37.2728 109.208 36.4489 111.077 37.4066 112.853C37.9586 113.877 39.0405 114.538 40.1694 114.73C40.8953 114.854 41.6128 114.708 42.3249 114.541C41.4403 116.181 40.8552 117.966 41.6708 119.707C42.6078 121.708 44.4405 121.955 46.3214 121.78C45.9875 123.15 46.0151 124.541 47.1563 125.643C48.321 126.767 49.8694 126.726 51.3957 126.527C50.8078 128.317 50.2627 130.155 51.6386 131.72C53.4781 133.812 57.084 133.485 59.8689 132.744C59.9931 134.379 60.3008 136.013 61.7153 137.006C63.4114 138.195 65.2868 137.691 66.9469 136.764C67.3085 138.22 68.0302 139.48 69.7952 139.684C71.1821 139.844 72.3676 139.134 73.3446 138.154C74.0429 139.575 75.1303 140.687 76.945 140.552C78.7459 140.418 79.7064 139.418 80.2239 138.114C82.12 139.505 84.5185 140.187 86.8824 139.73C88.3549 139.444 89.6451 138.678 90.4193 137.37C90.8375 136.663 91.0403 135.874 91.257 135.09C93.3573 136.336 95.5943 137.119 97.9293 135.51C99.3341 134.541 100.227 132.958 100.681 131.269C102.152 132.216 103.837 132.748 105.436 131.796C106.861 130.949 107.12 129.476 106.957 127.971C108.174 128.146 109.411 127.946 110.374 127.123C112.152 125.605 111.887 123.613 111.129 121.747C113.021 121.481 114.678 120.473 115.475 118.431C116.305 116.303 115.94 114.034 114.925 112.08C117.583 111.107 117.604 108.055 116.428 105.408C116.94 105.293 117.427 105.103 117.855 104.78C119.014 103.899 119.279 102.38 119.05 101.011C118.936 100.327 118.698 99.5593 118.355 98.8265C119.581 98.5395 120.644 97.8978 121.231 96.533C122.296 94.0366 121.319 91.3552 119.602 89.4136Z" fill="#383D84"/>
<path d="M80.4102 119.138C80.0114 118.401 79.2041 117.876 78.5292 117.417C77.6902 116.844 76.7642 116.409 75.8106 116.042C76.3999 115.017 76.8677 113.927 77.1382 112.755C77.5205 111.103 77.9662 107.899 75.3525 107.926C73.4453 107.947 72.2102 110.386 71.6223 111.905C71.4043 112.469 71.2677 113.052 71.167 113.638C70.5915 113.169 70.0133 112.704 69.4047 112.279C68.0909 111.363 65.8719 110.444 64.7803 112.236C63.7149 113.986 65.2978 115.773 66.5784 116.872C67.4313 117.603 68.3987 118.151 69.4116 118.608C69.0073 119.407 68.6691 120.239 68.4856 121.11C68.2123 122.418 68.1999 124.028 69.5523 124.753C70.2755 125.141 71.218 124.967 71.7976 124.398C72.3331 123.874 72.5649 123.111 72.8036 122.419C73.1252 121.489 73.3211 120.524 73.4605 119.55C74.0346 120.029 74.6349 120.475 75.2711 120.864C76.5269 121.631 78.383 122.76 79.8195 121.84C80.7359 121.259 80.9042 120.053 80.4102 119.138Z" fill="#7B85E8"/>
<path d="M72.4794 114.655C69.9291 114.655 69.9264 118.617 72.4794 118.617C75.0282 118.617 75.0324 114.655 72.4794 114.655Z" fill="#A9B3FF"/>
<path d="M66.5136 118.392C66.0099 118.049 65.4179 117.788 64.8328 117.625C64.7279 117.596 64.6202 117.589 64.514 117.57C64.6423 117.244 64.7555 116.916 64.8369 116.575C65.0052 115.875 65.0977 115.134 65.0839 114.414C65.0549 112.93 64.485 110.906 62.6234 110.975C60.9108 111.038 60.1752 112.856 59.8137 114.276C59.7129 114.672 59.7074 115.075 59.6605 115.475C58.4157 114.686 57.0702 114.103 55.5246 114.088C54.3447 114.076 53.7817 115.329 54.255 116.3C54.9257 117.675 56.1139 118.834 57.5105 119.46C57.85 119.614 58.2004 119.746 58.5592 119.847C58.3964 120.269 58.2984 120.691 58.2391 121.141C58.1273 121.997 58.1342 122.95 58.6379 123.689C59.3265 124.696 60.6817 124.812 61.587 124.027C62.2369 123.462 62.5737 122.581 62.8676 121.794C62.9311 121.623 62.9628 121.444 63.0153 121.268C63.4044 121.627 63.8005 121.978 64.249 122.287C65.3516 123.047 67.0187 123.541 67.9543 122.238C69.0183 120.755 67.7376 119.225 66.5136 118.392Z" fill="#6265CE"/>
<path d="M61.2185 116.636C58.6683 116.636 58.6655 120.598 61.2185 120.598C63.7674 120.598 63.7715 116.636 61.2185 116.636Z" fill="#7B85E8"/>
<path d="M65.0439 109.834C64.8328 109.024 64.2518 108.476 63.606 107.991C62.6993 107.314 61.7098 106.778 60.69 106.297C61.3648 105.053 61.9638 103.764 62.3653 102.413C62.8414 100.815 62.5627 98.6763 60.6224 98.3037C58.638 97.9214 57.2635 100.091 56.5956 101.642C56.2657 102.409 56.067 103.201 55.9552 104.003C55.5274 103.745 55.1066 103.476 54.6553 103.252C53.2615 102.562 51.5572 102.079 50.3718 103.433C49.2209 104.747 50.0254 106.45 51.375 107.202C52.2251 107.675 53.1414 108.062 54.0619 108.436C53.4864 109.131 52.9496 109.857 52.4928 110.63C51.6248 112.097 51.3391 114.198 53.0559 115.207C54.7491 116.202 56.2202 114.792 56.924 113.342C57.4622 112.233 57.8969 111.081 58.2792 109.911C58.7525 110.699 59.379 111.389 60.1574 111.912C61.3511 112.714 63.2085 113.119 64.376 112.033C64.9763 111.479 65.2537 110.637 65.0439 109.834Z" fill="#4D52A8"/>
<path d="M56.9572 104.921C54.4069 104.921 54.4042 108.883 56.9572 108.883C59.506 108.883 59.5102 104.921 56.9572 104.921Z" fill="#6265CE"/>
<path d="M90.6029 107.613C90.2041 106.876 89.3968 106.352 88.722 105.892C87.8829 105.32 86.9569 104.885 86.0034 104.518C86.5926 103.492 87.0604 102.402 87.3309 101.231C87.7132 99.5788 88.1589 96.3744 85.5452 96.402C83.638 96.4227 82.403 98.8612 81.8151 100.381C81.5971 100.945 81.4604 101.527 81.3597 102.114C80.7842 101.645 80.206 101.18 79.5974 100.755C78.2836 99.8382 76.0646 98.9191 74.973 100.712C73.9077 102.462 75.4906 104.249 76.7712 105.347C77.624 106.079 78.5914 106.626 79.6043 107.083C79.2 107.882 78.8619 108.714 78.6797 109.585C78.4065 110.893 78.394 112.504 79.7464 113.228C80.4696 113.616 81.4121 113.442 81.9917 112.874C82.5272 112.349 82.759 111.586 82.9977 110.895C83.3193 109.965 83.5152 109 83.656 108.026C84.2287 108.505 84.8304 108.95 85.4666 109.34C86.7224 110.107 88.5785 111.236 90.015 110.315C90.93 109.733 91.0983 108.527 90.6029 107.613Z" fill="#7B85E8"/>
<path d="M82.672 103.129C80.1231 103.129 80.119 107.091 82.672 107.091C85.2222 107.091 85.2264 103.129 82.672 103.129Z" fill="#A9B3FF"/>
<path d="M72.6822 106.294C72.1785 105.95 71.5865 105.69 71 105.527C70.8951 105.498 70.7874 105.491 70.6812 105.472C70.8095 105.146 70.9227 104.817 71.0041 104.477C71.1725 103.777 71.265 103.036 71.2512 102.316C71.2222 100.832 70.6522 98.8076 68.7906 98.8752C67.078 98.9387 66.3425 100.756 65.9809 102.178C65.8802 102.574 65.876 102.977 65.8277 103.377C64.583 102.587 63.2375 102.005 61.6919 101.99C60.512 101.977 59.9489 103.23 60.4223 104.202C61.093 105.576 62.2811 106.734 63.6777 107.362C64.0172 107.515 64.3677 107.648 64.7265 107.749C64.5636 108.171 64.4657 108.593 64.4077 109.043C64.2959 109.899 64.3028 110.852 64.8065 111.59C65.4952 112.598 66.8503 112.714 67.7556 111.929C68.4056 111.364 68.7423 110.482 69.0362 109.694C69.0997 109.523 69.1315 109.344 69.1839 109.169C69.5731 109.527 69.9691 109.878 70.4176 110.187C71.5203 110.947 73.1873 111.441 74.1229 110.139C75.1869 108.657 73.9049 107.126 72.6822 106.294Z" fill="#6265CE"/>
<path d="M67.3871 104.537C64.8382 104.537 64.8341 108.499 67.3871 108.499C69.9359 108.499 69.9401 104.537 67.3871 104.537Z" fill="#7B85E8"/>
<path d="M82.8017 99.5923C82.5905 98.7823 82.0095 98.2344 81.3637 97.75C80.457 97.0725 79.4676 96.537 78.4491 96.0554C79.124 94.812 79.7215 93.5231 80.1245 92.1721C80.5992 90.574 80.3218 88.4351 78.3815 88.0625C76.3971 87.6802 75.0226 89.8496 74.3547 91.4007C74.0249 92.168 73.8261 92.9601 73.7157 93.7619C73.2879 93.5038 72.8671 93.2347 72.4158 93.0111C71.0234 92.3211 69.3177 91.8381 68.1323 93.1919C66.9814 94.5056 67.7859 96.21 69.1355 96.9607C69.9856 97.434 70.9019 97.8204 71.8224 98.1944C71.2469 98.8899 70.7101 99.6158 70.2547 100.389C69.3867 101.857 69.101 103.957 70.8177 104.966C72.511 105.961 73.9821 104.551 74.6859 103.102C75.2241 101.994 75.6588 100.841 76.041 99.671C76.5144 100.459 77.1409 101.149 77.9192 101.671C79.1129 102.472 80.9704 102.878 82.1379 101.792C82.734 101.237 83.0128 100.397 82.8017 99.5923Z" fill="#4D52A8"/>
<path d="M74.7149 94.6797C72.1646 94.6797 72.1619 98.6417 74.7149 98.6417C77.2651 98.6417 77.2692 94.6797 74.7149 94.6797Z" fill="#6265CE"/>
<path d="M68.3462 96.8852C67.9474 96.1482 67.1401 95.6238 66.4653 95.1643C65.6262 94.5916 64.7003 94.1569 63.7467 93.7898C64.3359 92.7645 64.8038 91.6743 65.0743 90.5027C65.4565 88.8508 65.9022 85.6464 63.2885 85.674C61.3814 85.6947 60.1463 88.1332 59.5584 89.6526C59.3403 90.217 59.2037 90.7993 59.103 91.3858C58.5275 90.9166 57.9493 90.4516 57.3407 90.0266C56.027 89.1102 53.8079 88.1911 52.7163 89.9838C51.651 91.7336 53.2338 93.5207 54.5145 94.6192C55.3673 95.3506 56.3347 95.8985 57.3476 96.3552C56.9433 97.1543 56.6052 97.9864 56.423 98.8572C56.1498 100.165 56.1374 101.776 57.4898 102.5C58.2129 102.888 59.1554 102.714 59.735 102.146C60.2705 101.621 60.5023 100.858 60.741 100.167C61.0626 99.238 61.2586 98.272 61.3993 97.2978C61.9734 97.7752 62.5737 98.2223 63.2099 98.6115C64.4657 99.3788 66.3218 100.508 67.7584 99.5872C68.6733 99.0062 68.8403 97.8001 68.3462 96.8852Z" fill="#7B85E8"/>
<path d="M60.4154 92.4028C57.8652 92.4028 57.8624 96.3648 60.4154 96.3648C62.9643 96.3648 62.9684 92.4028 60.4154 92.4028Z" fill="#A9B3FF"/>
<path d="M54.451 96.1399C53.9473 95.7963 53.3552 95.5355 52.7701 95.3726C52.6652 95.3437 52.5576 95.3367 52.4513 95.3174C52.5797 94.9917 52.6928 94.6633 52.7743 94.3224C52.9426 93.6228 53.0351 92.8817 53.0213 92.1614C52.9923 90.6779 52.4224 88.6534 50.5607 88.7224C48.8482 88.7859 48.1126 90.6034 47.751 92.0248C47.6503 92.4208 47.6462 92.8238 47.5979 93.224C46.3531 92.4346 45.0076 91.8523 43.462 91.8357C42.2821 91.8247 41.7191 93.0763 42.1924 94.0479C42.8631 95.4223 44.0513 96.5815 45.4478 97.208C45.7873 97.3612 46.1378 97.4937 46.4966 97.5931C46.3338 98.0154 46.2372 98.4376 46.1779 98.8875C46.0661 99.7431 46.0716 100.697 46.5767 101.435C47.2653 102.442 48.6204 102.558 49.5243 101.773C50.1743 101.209 50.5111 100.327 50.805 99.5402C50.8685 99.3691 50.9002 99.1897 50.9527 99.0145C51.3432 99.3733 51.7379 99.7238 52.1864 100.033C53.289 100.793 54.956 101.287 55.8917 99.9846C56.9543 98.5025 55.6736 96.9721 54.451 96.1399Z" fill="#6265CE"/>
<path d="M49.1559 94.3833C46.6057 94.3833 46.6029 98.3453 49.1559 98.3453C51.7048 98.3453 51.7089 94.3833 49.1559 94.3833Z" fill="#7B85E8"/>
<path d="M52.9813 87.5811C52.7688 86.7711 52.1892 86.2232 51.5433 85.7388C50.6367 85.0612 49.6472 84.5258 48.6274 84.0442C49.3022 82.8008 49.9011 81.5119 50.3027 80.1609C50.7788 78.5628 50.5 76.4238 48.5598 76.0512C46.5753 75.669 45.2008 77.8383 44.5329 79.3894C44.2031 80.1567 44.0044 80.9488 43.894 81.7506C43.4662 81.4926 43.0453 81.2235 42.594 80.9999C41.2002 80.3099 39.4959 79.8269 38.3105 81.1807C37.1596 82.4945 37.9641 84.1987 39.3138 84.9495C40.1639 85.4228 41.0802 85.8092 42.0006 86.1832C41.4252 86.8787 40.8884 87.6046 40.4316 88.3774C39.5636 89.8457 39.2779 91.9474 40.9946 92.9548C42.6879 93.9498 44.159 92.5395 44.8628 91.0905C45.401 89.9823 45.8356 88.83 46.2179 87.6598C46.6912 88.4478 47.3178 89.1377 48.0961 89.6594C49.2898 90.4612 51.1473 90.8669 52.3147 89.7808C52.9137 89.2261 53.191 88.3843 52.9813 87.5811Z" fill="#4D52A8"/>
<path d="M44.8944 82.6685C42.3442 82.6685 42.3414 86.6304 44.8944 86.6304C47.4433 86.6304 47.4474 82.6685 44.8944 82.6685Z" fill="#6265CE"/>
<path d="M40.6 92.4344C40.2012 91.6975 39.3939 91.1731 38.7191 90.7136C37.88 90.1409 36.954 89.7062 36.0005 89.3391C36.5897 88.3137 37.0576 87.2236 37.328 86.0519C37.7103 84.4001 38.156 81.1957 35.5423 81.2233C33.6351 81.244 32.4 83.6825 31.8122 85.2019C31.5941 85.7663 31.4575 86.3472 31.3567 86.9351C30.7813 86.4659 30.2031 86.0009 29.5945 85.5758C28.2807 84.6595 26.0617 83.7404 24.9701 85.533C23.9048 87.2829 25.4876 89.07 26.7683 90.1685C27.6211 90.8999 28.5885 91.4477 29.6014 91.9045C29.197 92.7035 28.8589 93.5357 28.6754 94.4064C28.4022 95.7147 28.3898 97.3252 29.7422 98.0497C30.4653 98.4374 31.4078 98.2635 31.9874 97.695C32.5228 97.1706 32.7547 96.4074 32.9934 95.7161C33.315 94.7873 33.511 93.8213 33.6517 92.847C34.2258 93.3245 34.8261 93.7717 35.4622 94.1608C36.718 94.9281 38.5742 96.0569 40.0108 95.1365C40.9257 94.5555 41.094 93.348 40.6 92.4344Z" fill="#7B85E8"/>
<path d="M32.6691 87.9507C30.1188 87.9507 30.1161 91.9127 32.6691 91.9127C35.2179 91.9127 35.2221 87.9507 32.6691 87.9507Z" fill="#A9B3FF"/>
<path d="M85.0705 75.0784C84.5668 74.7348 83.9748 74.474 83.3896 74.3111C83.2848 74.2821 83.1771 74.2752 83.0708 74.2559C83.1992 73.9302 83.3123 73.6004 83.3938 73.2609C83.5621 72.5613 83.6546 71.8202 83.6408 71.0999C83.6118 69.6164 83.0419 67.5919 81.1802 67.6609C79.4677 67.7244 78.7321 69.5418 78.3706 70.9632C78.2698 71.3593 78.2657 71.7622 78.2174 72.1624C76.9726 71.3731 75.6271 70.7907 74.0815 70.7742C72.9016 70.7617 72.3386 72.0148 72.8119 72.9863C73.4826 74.3608 74.6708 75.52 76.0674 76.1465C76.4068 76.2997 76.7574 76.4322 77.1162 76.5329C76.9533 76.9552 76.8553 77.3775 76.7974 77.8274C76.6856 78.683 76.6911 79.6365 77.1962 80.3748C77.8848 81.3822 79.2399 81.4981 80.1438 80.7129C80.7938 80.1485 81.1306 79.2667 81.4245 78.4801C81.488 78.309 81.5197 78.1296 81.5722 77.9543C81.9613 78.3131 82.3574 78.6636 82.8059 78.9727C83.9085 79.7331 85.5755 80.2272 86.5112 78.9244C87.5738 77.4396 86.2931 75.9105 85.0705 75.0784Z" fill="#6265CE"/>
<path d="M79.7754 73.3218C77.2252 73.3218 77.2224 77.2838 79.7754 77.2838C82.3243 77.2824 82.3284 73.3218 79.7754 73.3218Z" fill="#7B85E8"/>
<path d="M94.1536 88.6077C93.9411 87.7976 93.3615 87.2498 92.7157 86.7654C91.809 86.0878 90.8195 85.5524 89.8011 85.0708C90.4759 83.8274 91.0734 82.5385 91.4764 81.1874C91.9525 79.5894 91.6737 77.4504 89.7335 77.0778C87.749 76.6969 86.3745 78.8649 85.7066 80.416C85.3768 81.1833 85.1781 81.9754 85.0677 82.7772C84.6399 82.5191 84.219 82.25 83.7677 82.0265C82.3739 81.3365 80.6696 80.8535 79.4842 82.2072C78.3333 83.521 79.1378 85.2239 80.4875 85.976C81.3376 86.4494 82.2539 86.8358 83.1743 87.2097C82.5989 87.9053 82.0621 88.6311 81.6053 89.4039C80.7373 90.8722 80.4516 92.974 82.1683 93.9828C83.8616 94.9778 85.3327 93.5674 86.0365 92.117C86.5747 91.0089 87.0094 89.8566 87.3916 88.6863C87.865 89.4743 88.4915 90.1643 89.2698 90.686C90.4635 91.4878 92.321 91.8934 93.4885 90.8074C94.086 90.2512 94.3634 89.4108 94.1536 88.6077Z" fill="#4D52A8"/>
<path d="M86.0668 83.6948C83.5166 83.6948 83.5138 87.6568 86.0668 87.6568C88.6157 87.6568 88.6198 83.6948 86.0668 83.6948Z" fill="#6265CE"/>
<path d="M105.178 132.656C104.78 131.919 103.972 131.395 103.297 130.935C102.458 130.363 101.532 129.928 100.579 129.561C101.168 128.535 101.636 127.445 101.906 126.274C102.289 124.622 102.734 121.417 100.121 121.445C98.2149 121.466 96.9784 123.904 96.3905 125.424C96.1725 125.988 96.0359 126.57 95.9351 127.157C95.3597 126.688 94.7815 126.223 94.1729 125.798C92.8591 124.881 90.6401 123.962 89.5485 125.755C88.4831 127.505 90.066 129.292 91.3466 130.39C92.1995 131.122 93.1669 131.669 94.1798 132.126C93.7754 132.925 93.4373 133.757 93.2552 134.628C92.9819 135.936 92.9695 137.547 94.3219 138.271C95.045 138.659 95.9876 138.485 96.5672 137.917C97.1026 137.392 97.3344 136.629 97.5732 135.938C97.8947 135.008 98.0907 134.043 98.2301 133.069C98.8042 133.548 99.4045 133.993 100.041 134.383C101.296 135.15 103.153 136.279 104.589 135.358C105.505 134.776 105.672 133.57 105.178 132.656Z" fill="#7B85E8"/>
<path d="M97.2476 128.172C94.6973 128.172 94.6946 132.134 97.2476 132.134C99.7978 132.134 99.802 128.172 97.2476 128.172Z" fill="#A9B3FF"/>
<path d="M90.8015 130.175C90.2978 129.831 89.7058 129.57 89.1207 129.407C89.0158 129.378 88.9082 129.371 88.8019 129.352C88.9303 129.026 89.0434 128.697 89.1248 128.357C89.2932 127.657 89.3856 126.916 89.3718 126.196C89.3429 124.713 88.7729 122.688 86.9113 122.757C85.1987 122.821 84.4632 124.638 84.1016 126.058C84.0009 126.454 83.9968 126.857 83.9485 127.257C82.7037 126.468 81.3582 125.886 79.8126 125.869C78.6327 125.857 78.0697 127.11 78.543 128.081C79.2137 129.456 80.4018 130.615 81.7984 131.241C82.1379 131.393 82.4884 131.527 82.8472 131.626C82.6844 132.049 82.5864 132.471 82.5271 132.921C82.4153 133.776 82.4222 134.73 82.9259 135.468C83.6145 136.476 84.9696 136.592 85.8735 135.806C86.5235 135.242 86.8603 134.36 87.1542 133.572C87.2177 133.401 87.2494 133.222 87.3018 133.046C87.691 133.405 88.0871 133.756 88.5356 134.065C89.6382 134.825 91.3052 135.319 92.2409 134.017C93.3062 132.536 92.0256 131.007 90.8015 130.175Z" fill="#6265CE"/>
<path d="M85.5078 128.418C82.9576 128.418 82.9548 132.38 85.5078 132.38C88.0567 132.38 88.0608 128.418 85.5078 128.418Z" fill="#7B85E8"/>
<path d="M92.7502 120.687C92.539 119.877 91.9581 119.329 91.3122 118.845C90.4056 118.167 89.4161 117.632 88.3977 117.15C89.0725 115.907 89.67 114.618 90.073 113.267C90.5491 111.669 90.2703 109.53 88.33 109.157C86.3456 108.777 84.9711 110.944 84.3032 112.496C83.9734 113.263 83.7747 114.055 83.6643 114.857C83.2365 114.599 82.8155 114.33 82.3643 114.106C80.9705 113.416 79.2662 112.933 78.0808 114.287C76.9298 115.601 77.7344 117.304 79.084 118.056C79.9341 118.529 80.8504 118.915 81.7709 119.289C81.1954 119.985 80.6586 120.711 80.2018 121.484C79.3352 122.952 79.0481 125.054 80.7649 126.062C82.4581 127.057 83.9278 125.647 84.633 124.197C85.1712 123.089 85.6059 121.936 85.9882 120.766C86.4615 121.554 87.088 122.244 87.8663 122.766C89.06 123.567 90.9175 123.973 92.085 122.887C92.6825 122.332 92.9599 121.492 92.7502 120.687Z" fill="#4D52A8"/>
<path d="M84.6633 115.774C82.1131 115.774 82.1103 119.736 84.6633 119.736C87.2122 119.736 87.2163 115.774 84.6633 115.774Z" fill="#6265CE"/>
<path d="M83.3676 133.8C82.9688 133.063 82.1615 132.539 81.4866 132.079C80.6476 131.507 79.7216 131.072 78.768 130.705C79.3573 129.68 79.8251 128.589 80.0956 127.418C80.4779 125.766 80.9236 122.561 78.3099 122.589C76.4027 122.61 75.1676 125.048 74.5797 126.568C74.3617 127.132 74.2251 127.714 74.1243 128.301C73.5489 127.832 72.9707 127.367 72.3621 126.942C71.0483 126.025 68.8293 125.106 67.7377 126.899C66.6723 128.649 68.2552 130.436 69.5358 131.534C70.3887 132.266 71.3561 132.813 72.369 133.27C71.9647 134.069 71.6265 134.901 71.443 135.772C71.1697 137.082 71.1573 138.691 72.5111 139.415C73.2342 139.803 74.1768 139.629 74.7564 139.061C75.2918 138.536 75.5237 137.773 75.7624 137.082C76.0839 136.152 76.2799 135.187 76.4193 134.213C76.9934 134.69 77.5936 135.137 78.2298 135.527C79.4856 136.294 81.3418 137.423 82.7783 136.502C83.6947 135.921 83.8616 134.715 83.3676 133.8Z" fill="#7B85E8"/>
<path d="M75.4367 129.318C72.8864 129.318 72.8837 133.28 75.4367 133.28C77.9855 133.278 77.9897 129.318 75.4367 129.318Z" fill="#A9B3FF"/>
<path d="M56.5694 123.417C56.0657 123.073 55.4736 122.812 54.8885 122.649C54.7836 122.621 54.676 122.614 54.5697 122.594C54.6981 122.269 54.8113 121.94 54.8927 121.599C55.061 120.9 55.1535 120.159 55.1397 119.438C55.1107 117.955 54.5408 115.93 52.6791 115.999C50.9666 116.061 50.231 117.88 49.8695 119.3C49.7687 119.696 49.7646 120.099 49.7163 120.499C48.4715 119.71 47.126 119.128 45.5804 119.111C44.4005 119.099 43.8375 120.352 44.3108 121.323C44.9815 122.698 46.1697 123.857 47.5662 124.484C47.9057 124.635 48.2562 124.769 48.615 124.869C48.4522 125.291 48.3556 125.713 48.2963 126.163C48.1845 127.019 48.19 127.972 48.6951 128.71C49.3837 129.718 50.7389 129.834 51.6441 129.049C52.2941 128.484 52.6308 127.602 52.9248 126.816C52.9882 126.645 53.02 126.465 53.0725 126.29C53.4616 126.647 53.8576 126.999 54.3061 127.308C55.4088 128.069 57.0758 128.563 58.0114 127.26C59.074 125.779 57.7934 124.249 56.5694 123.417Z" fill="#6265CE"/>
<path d="M51.2743 121.66C48.7241 121.66 48.7213 125.622 51.2743 125.622C53.8246 125.622 53.8287 121.66 51.2743 121.66Z" fill="#7B85E8"/>
<path d="M69.8117 133.012C69.6006 132.202 69.0196 131.654 68.3738 131.17C67.4671 130.492 66.4777 129.957 65.4579 129.476C66.1327 128.233 66.7302 126.944 67.1332 125.593C67.6093 123.995 67.3305 121.856 65.3903 121.483C63.4044 121.101 62.0313 123.27 61.3634 124.822C61.0336 125.589 60.8349 126.381 60.7231 127.183C60.2953 126.925 59.8744 126.656 59.4231 126.432C58.0293 125.742 56.325 125.259 55.1396 126.613C53.9887 127.927 54.7932 129.629 56.1428 130.382C56.9929 130.855 57.9093 131.241 58.8297 131.615C58.2543 132.311 57.7175 133.037 57.2607 133.81C56.3927 135.276 56.107 137.378 57.8237 138.387C59.517 139.382 60.9881 137.972 61.6919 136.521C62.2301 135.413 62.6648 134.261 63.047 133.091C63.5204 133.879 64.1469 134.568 64.9252 135.092C66.1189 135.893 67.9764 136.299 69.1439 135.213C69.7442 134.655 70.0215 133.815 69.8117 133.012Z" fill="#4D52A8"/>
<path d="M61.725 128.099C59.1748 128.099 59.172 132.061 61.725 132.061C64.2739 132.061 64.278 128.099 61.725 128.099Z" fill="#6265CE"/>
<path d="M116.096 117.539C115.697 116.802 114.889 116.278 114.215 115.819C113.376 115.246 112.45 114.811 111.496 114.444C112.085 113.419 112.553 112.329 112.824 111.157C113.206 109.505 113.652 106.301 111.038 106.328C109.132 106.349 107.896 108.787 107.308 110.307C107.09 110.87 106.953 111.454 106.852 112.04C106.277 111.571 105.699 111.106 105.09 110.681C103.776 109.764 101.557 108.845 100.466 110.638C99.4004 112.388 100.983 114.175 102.264 115.273C103.117 116.005 104.084 116.553 105.097 117.009C104.693 117.809 104.355 118.641 104.172 119.511C103.899 120.82 103.887 122.43 105.239 123.155C105.962 123.542 106.905 123.369 107.484 122.8C108.02 122.276 108.252 121.512 108.49 120.821C108.812 119.891 109.008 118.926 109.147 117.952C109.721 118.431 110.322 118.877 110.958 119.266C112.214 120.033 114.07 121.161 115.506 120.241C116.423 119.659 116.59 118.453 116.096 117.539Z" fill="#7B85E8"/>
<path d="M108.165 113.056C105.614 113.056 105.612 117.018 108.165 117.018C110.714 117.018 110.719 113.056 108.165 113.056Z" fill="#A9B3FF"/>
<path d="M102.2 116.794C101.697 116.451 101.105 116.19 100.518 116.027C100.413 115.998 100.306 115.991 100.199 115.972C100.328 115.646 100.441 115.316 100.522 114.977C100.691 114.277 100.783 113.536 100.769 112.816C100.742 111.332 100.17 109.308 98.3088 109.377C96.5962 109.44 95.8606 111.258 95.4991 112.679C95.3983 113.075 95.3942 113.478 95.3459 113.878C94.1012 113.089 92.7556 112.507 91.21 112.49C90.0301 112.478 89.4671 113.731 89.9405 114.702C90.6112 116.077 91.7993 117.236 93.1959 117.862C93.5353 118.015 93.8859 118.148 94.2447 118.247C94.0818 118.67 93.9853 119.092 93.9259 119.542C93.8141 120.397 93.821 121.351 94.3247 122.089C95.0133 123.097 96.3685 123.213 97.2738 122.427C97.9238 121.863 98.2605 120.981 98.5544 120.195C98.6179 120.023 98.6496 119.844 98.7021 119.669C99.0912 120.026 99.4873 120.378 99.9358 120.687C101.038 121.448 102.705 121.942 103.641 120.639C104.704 119.155 103.423 117.626 102.2 116.794Z" fill="#6265CE"/>
<path d="M96.9054 115.038C94.3565 115.038 94.3524 119 96.9054 119C99.4542 118.998 99.4584 115.038 96.9054 115.038Z" fill="#7B85E8"/>
<path d="M100.731 108.234C100.52 107.424 99.9386 106.876 99.2928 106.392C98.3861 105.713 97.3967 105.179 96.3782 104.697C97.053 103.454 97.6506 102.165 98.0536 100.814C98.5297 99.2156 98.2509 97.0767 96.3106 96.7041C94.3262 96.3218 92.9517 98.4912 92.2838 100.042C91.954 100.81 91.7552 101.602 91.6448 102.403C91.217 102.145 90.7961 101.876 90.3449 101.653C88.9511 100.963 87.2468 100.48 86.0614 101.834C84.9104 103.147 85.715 104.852 87.0646 105.602C87.9147 106.076 88.831 106.462 89.7515 106.836C89.176 107.532 88.6392 108.257 88.1824 109.03C87.3158 110.499 87.0287 112.6 88.7454 113.608C90.4387 114.603 91.9084 113.192 92.6136 111.743C93.1518 110.635 93.5865 109.483 93.9687 108.313C94.4421 109.101 95.0686 109.791 95.8469 110.312C97.0406 111.114 98.8981 111.52 100.066 110.434C100.663 109.879 100.941 109.039 100.731 108.234Z" fill="#4D52A8"/>
<path d="M92.6439 103.321C90.0937 103.321 90.0909 107.283 92.6439 107.283C95.1928 107.283 95.1969 103.321 92.6439 103.321Z" fill="#6265CE"/>
<path d="M111.891 104.409C111.492 103.672 110.685 103.148 110.01 102.688C109.171 102.115 108.245 101.681 107.291 101.314C107.88 100.288 108.348 99.1982 108.619 98.0265C109.001 96.3747 109.447 93.1703 106.833 93.1979C104.926 93.2186 103.691 95.6571 103.103 97.1765C102.885 97.7409 102.748 98.3232 102.648 98.9097C102.072 98.4405 101.494 97.9755 100.885 97.5504C99.5715 96.6341 97.3525 95.715 96.2609 97.5077C95.1955 99.2575 96.7784 101.045 98.059 102.143C98.9119 102.874 99.8792 103.422 100.892 103.879C100.488 104.678 100.15 105.51 99.9662 106.381C99.6929 107.689 99.6805 109.298 101.033 110.024C101.756 110.412 102.699 110.238 103.278 109.67C103.814 109.145 104.045 108.382 104.284 107.691C104.606 106.761 104.802 105.796 104.941 104.822C105.515 105.3 106.115 105.746 106.752 106.135C108.007 106.903 109.864 108.032 111.3 107.111C112.218 106.53 112.385 105.324 111.891 104.409Z" fill="#7B85E8"/>
<path d="M103.96 99.9268C101.41 99.9268 101.407 103.889 103.96 103.889C106.509 103.887 106.513 99.9268 103.96 99.9268Z" fill="#A9B3FF"/>
<path d="M95.0685 96.1399C94.5648 95.7963 93.9728 95.5355 93.3877 95.3726C93.2828 95.3437 93.1752 95.3367 93.0689 95.3174C93.1973 94.9917 93.3104 94.6633 93.3918 94.3224C93.5602 93.6228 93.6527 92.8817 93.6389 92.1614C93.6099 90.6779 93.0399 88.6534 91.1783 88.7224C89.4657 88.7859 88.7302 90.6034 88.3686 92.0248C88.2679 92.4208 88.2638 92.8238 88.2155 93.224C86.9707 92.4346 85.6252 91.8523 84.0796 91.8357C82.8997 91.8247 82.3366 93.0763 82.81 94.0479C83.4807 95.4223 84.6688 96.5815 86.0654 97.208C86.4049 97.3612 86.7554 97.4937 87.1142 97.5931C86.9514 98.0154 86.8548 98.4376 86.7954 98.8875C86.6836 99.7431 86.6905 100.697 87.1942 101.435C87.8829 102.442 89.238 102.558 90.1433 101.773C90.7933 101.209 91.13 100.327 91.4239 99.5402C91.4874 99.3691 91.5191 99.1897 91.5716 99.0145C91.9607 99.3733 92.3568 99.7238 92.8053 100.033C93.9079 100.793 95.575 101.287 96.5106 99.9846C97.5718 98.5025 96.2912 96.9721 95.0685 96.1399Z" fill="#6265CE"/>
<path d="M89.7735 94.3833C87.2232 94.3833 87.2205 98.3453 89.7735 98.3453C92.3223 98.3453 92.3265 94.3833 89.7735 94.3833Z" fill="#7B85E8"/>
<path d="M107.691 90.588C107.48 89.778 106.899 89.2301 106.253 88.7458C105.347 88.0682 104.356 87.5328 103.337 87.0525C104.012 85.8091 104.611 84.5202 105.013 83.1692C105.489 81.5711 105.21 79.4321 103.27 79.0595C101.285 78.6773 99.911 80.8466 99.2431 82.3978C98.9132 83.165 98.7145 83.9571 98.6027 84.7589C98.1749 84.5009 97.754 84.2318 97.3028 84.0082C95.909 83.3182 94.2047 82.8352 93.0192 84.189C91.8683 85.5028 92.6728 87.2057 94.0225 87.9578C94.8726 88.4311 95.7889 88.8175 96.7094 89.1915C96.1339 89.887 95.5971 90.6129 95.1403 91.3857C94.2723 92.854 93.9866 94.9557 95.7034 95.9645C97.3966 96.9595 98.8677 95.5492 99.5715 94.0988C100.11 92.9906 100.544 91.8383 100.927 90.6681C101.4 91.4561 102.027 92.1461 102.805 92.6691C103.999 93.4709 105.856 93.8766 107.023 92.7905C107.624 92.233 107.901 91.3926 107.691 90.588Z" fill="#4D52A8"/>
<path d="M99.6046 85.6753C97.0544 85.6753 97.0516 89.6373 99.6046 89.6373C102.153 89.6373 102.159 85.6753 99.6046 85.6753Z" fill="#6265CE"/>
<path d="M78.5831 87.3412C78.1843 86.6043 77.377 86.0798 76.7022 85.6203C75.8631 85.0476 74.9372 84.6129 73.9836 84.2459C74.5728 83.2205 75.0407 82.1303 75.3112 80.9587C75.6934 79.3068 76.1391 76.1025 73.5254 76.1301C71.6183 76.1508 70.3832 78.5892 69.7953 80.1086C69.5772 80.673 69.4406 81.254 69.3399 81.8419C68.7644 81.3727 68.1862 80.9076 67.5776 80.4826C66.2639 79.5662 64.0449 78.6472 62.9533 80.4398C61.8879 82.1896 63.4707 83.9767 64.7514 85.0752C65.6042 85.8066 66.5716 86.3545 67.5845 86.8112C67.1802 87.6103 66.8421 88.4424 66.6599 89.3132C66.3867 90.6215 66.3743 92.2319 67.7267 92.9564C68.4498 93.3442 69.3923 93.1703 69.9719 92.6017C70.5074 92.0773 70.7392 91.3142 70.9779 90.6228C71.2995 89.6941 71.4955 88.7281 71.6348 87.7538C72.2089 88.2313 72.8092 88.6784 73.4454 89.0676C74.7012 89.8348 76.5573 90.9637 77.9939 90.0432C78.9102 89.4622 79.0772 88.2561 78.5831 87.3412Z" fill="#7B85E8"/>
<path d="M70.6522 82.8589C68.1034 82.8589 68.0992 86.8209 70.6522 86.8209C73.2025 86.8195 73.2066 82.8589 70.6522 82.8589Z" fill="#A9B3FF"/>
<path d="M72.2461 73.1393C71.7424 72.7957 71.1504 72.5349 70.5653 72.372C70.4604 72.343 70.3528 72.3361 70.2465 72.3168C70.3748 71.9911 70.488 71.6627 70.5694 71.3218C70.7378 70.6221 70.8303 69.8811 70.8165 69.1608C70.7875 67.6773 70.2175 65.6528 68.3559 65.7204C66.6433 65.7839 65.9078 67.6013 65.5462 69.0227C65.4455 69.4188 65.4413 69.8218 65.393 70.222C64.1483 69.4326 62.8028 68.8502 61.2572 68.8337C60.0773 68.8212 59.5142 70.0743 59.9876 71.0458C60.6583 72.4203 61.8465 73.5795 63.243 74.206C63.5825 74.3592 63.933 74.4917 64.2918 74.5924C64.1289 75.0147 64.031 75.437 63.9716 75.8869C63.8599 76.7425 63.8668 77.696 64.3705 78.4343C65.0591 79.4417 66.4143 79.5577 67.3182 78.7725C67.9681 78.208 68.3048 77.3262 68.5988 76.5396C68.6623 76.3685 68.694 76.1891 68.7465 76.0138C69.137 76.3726 69.5317 76.7231 69.9802 77.0322C71.0828 77.7926 72.7498 78.2867 73.6855 76.9839C74.7508 75.5018 73.4702 73.9714 72.2461 73.1393Z" fill="#6265CE"/>
<path d="M66.9511 71.3823C64.4008 71.3823 64.3981 75.3443 66.9511 75.3443C69.5013 75.3443 69.5054 71.3823 66.9511 71.3823Z" fill="#7B85E8"/>
<path d="M83.0901 63.8283C82.8776 63.0182 82.298 62.4704 81.6522 61.986C80.7455 61.3084 79.7561 60.7729 78.7362 60.2927C79.4111 59.0493 80.01 57.7604 80.4115 56.4094C80.8876 54.8114 80.6089 52.6724 78.6687 52.2998C76.6842 51.9175 75.3097 54.0869 74.6418 55.638C74.312 56.4053 74.1133 57.1974 74.0029 57.9992C73.5751 57.7411 73.1541 57.472 72.7029 57.2484C71.3091 56.5584 69.6048 56.0755 68.4194 57.4292C67.2685 58.743 68.073 60.4473 69.4226 61.198C70.2727 61.6713 71.189 62.0577 72.1095 62.4317C71.534 63.1272 70.9972 63.8531 70.5404 64.6259C69.6724 66.0942 69.3867 68.196 71.1035 69.2034C72.7967 70.1983 74.2678 68.788 74.9716 67.339C75.5098 66.2309 75.9445 65.0786 76.3268 63.9083C76.8001 64.6963 77.4266 65.3863 78.2049 65.9079C79.3986 66.7097 81.2561 67.1154 82.4236 66.0294C83.0225 65.4732 83.2999 64.6328 83.0901 63.8283Z" fill="#4D52A8"/>
<path d="M75.0034 58.9155C72.4532 58.9155 72.4504 62.8775 75.0034 62.8775C77.5523 62.8775 77.5564 58.9155 75.0034 58.9155Z" fill="#6265CE"/>
<path d="M52.7481 112.066C52.3492 111.329 51.5419 110.805 50.8671 110.345C50.0281 109.773 49.1021 109.338 48.1485 108.971C48.7378 107.946 49.2056 106.855 49.4761 105.684C49.8583 104.032 50.3041 100.828 47.6903 100.855C45.7832 100.876 44.5481 103.314 43.9602 104.834C43.7422 105.398 43.6056 105.98 43.5048 106.567C42.9294 106.098 42.3511 105.633 41.7425 105.208C40.4288 104.291 38.2098 103.372 37.1182 105.165C36.0528 106.915 37.6357 108.702 38.9163 109.8C39.7691 110.532 40.7365 111.08 41.7495 111.536C41.3451 112.335 41.007 113.168 40.8235 114.038C40.5502 115.347 40.5378 116.957 41.8902 117.681C42.6134 118.069 43.5559 117.895 44.1355 117.327C44.6709 116.802 44.9028 116.039 45.1415 115.348C45.463 114.418 45.659 113.453 45.7984 112.479C46.3725 112.958 46.9728 113.403 47.6089 113.793C48.8647 114.56 50.7208 115.689 52.1574 114.768C53.0751 114.186 53.2421 112.98 52.7481 112.066Z" fill="#7B85E8"/>
<path d="M44.8172 107.583C42.2669 107.583 42.2642 111.545 44.8172 111.545C47.366 111.545 47.3702 107.583 44.8172 107.583Z" fill="#A9B3FF"/>
<path d="M43.2633 101.493C42.7596 101.149 42.1676 100.889 41.5825 100.726C41.4776 100.697 41.37 100.69 41.2637 100.67C41.392 100.345 41.5052 100.016 41.5866 99.6755C41.755 98.9758 41.8474 98.2348 41.8336 97.5144C41.8047 96.0309 41.2347 94.0064 39.3731 94.0754C37.6605 94.1389 36.925 95.9564 36.5634 97.3764C36.4627 97.7725 36.4586 98.1754 36.4103 98.5756C35.1655 97.7862 33.82 97.2039 32.2744 97.1874C31.0945 97.1763 30.5315 98.428 31.0048 99.3995C31.6755 100.774 32.8636 101.933 34.2602 102.56C34.5997 102.713 34.9502 102.845 35.309 102.945C35.1462 103.367 35.0482 103.789 34.9889 104.239C34.8771 105.095 34.884 106.048 35.3877 106.787C36.0763 107.794 37.4314 107.91 38.3353 107.125C38.9853 106.56 39.322 105.678 39.616 104.891C39.6795 104.719 39.7112 104.54 39.7636 104.365C40.1528 104.724 40.5489 105.074 40.9974 105.383C42.1 106.144 43.767 106.638 44.7027 105.335C45.768 103.856 44.486 102.325 43.2633 101.493Z" fill="#6265CE"/>
<path d="M37.9683 99.7363C35.418 99.7363 35.4153 103.698 37.9683 103.698C40.5171 103.698 40.5213 99.7363 37.9683 99.7363Z" fill="#7B85E8"/>
<path d="M43.2868 63.9528C43.0757 63.1427 42.4946 62.5949 41.8488 62.1105C40.9421 61.4329 39.9527 60.8975 38.9342 60.4172C39.6091 59.1738 40.2066 57.8849 40.6096 56.5339C41.0857 54.9359 40.8069 52.7969 38.8666 52.4243C36.8822 52.042 35.5077 54.2114 34.8398 55.7625C34.51 56.5298 34.3113 57.3219 34.2009 58.1237C33.7731 57.8656 33.3522 57.5965 32.9009 57.3729C31.5085 56.6829 29.8028 56.2 28.6174 57.5537C27.4665 58.8675 28.271 60.5718 29.6206 61.3225C30.4707 61.7958 31.3871 62.1823 32.3075 62.5562C31.7321 63.2518 31.1952 63.9776 30.7384 64.7504C29.8704 66.2188 29.5848 68.3205 31.3015 69.3279C32.9948 70.3229 34.4658 68.9125 35.1696 67.4635C35.7078 66.3554 36.1425 65.2031 36.5248 64.0329C36.9981 64.8208 37.6247 65.5108 38.403 66.0324C39.5967 66.8342 41.4542 67.24 42.6216 66.1539C43.2192 65.5964 43.4966 64.756 43.2868 63.9528Z" fill="#4D52A8"/>
<path d="M35.2 59.04C32.6497 59.04 32.647 63.002 35.2 63.002C37.7488 63.002 37.753 59.04 35.2 59.04Z" fill="#6265CE"/>
<path d="M36.0501 79.6516C35.5464 79.308 34.9544 79.0472 34.3693 78.8844C34.2644 78.8554 34.1567 78.8485 34.0505 78.8291C34.1788 78.5035 34.292 78.1736 34.3734 77.8342C34.5417 77.1345 34.6342 76.3935 34.6204 75.6731C34.5914 74.1896 34.0215 72.1651 32.1599 72.2341C30.4473 72.2976 29.7118 74.1151 29.3502 75.5365C29.2495 75.9325 29.2439 76.3355 29.197 76.7357C27.9508 75.9463 26.6068 75.364 25.0612 75.3474C23.8813 75.335 23.3182 76.5881 23.7915 77.5596C24.4622 78.9341 25.6504 80.0932 27.047 80.7197C27.3865 80.8729 27.737 81.0054 28.0958 81.1048C27.9329 81.5271 27.8349 81.9493 27.7756 82.3992C27.6638 83.2548 27.6707 84.2084 28.1744 84.9467C28.863 85.9541 30.2182 86.0714 31.1235 85.2848C31.7735 84.7204 32.1102 83.8385 32.4041 83.0519C32.4676 82.8808 32.4993 82.7015 32.5518 82.5262C32.9409 82.885 33.337 83.2355 33.7855 83.5446C34.8881 84.305 36.5552 84.799 37.4908 83.4963C38.5548 82.0142 37.2741 80.4838 36.0501 79.6516Z" fill="#6265CE"/>
<path d="M30.755 77.895C28.2061 77.895 28.202 81.857 30.755 81.857C33.3039 81.857 33.308 77.895 30.755 77.895Z" fill="#7B85E8"/>
<path d="M61.4407 37.5407C61.2282 36.7306 60.6486 36.1828 60.0028 35.6984C59.0961 35.0208 58.1066 34.4854 57.0868 34.0051C57.7616 32.7618 58.3605 31.4729 58.7621 30.1218C59.2382 28.5238 58.9594 26.3848 57.0192 26.0122C55.0347 25.6299 53.6603 27.7993 52.9923 29.3504C52.6625 30.1177 52.4638 30.9098 52.3534 31.7116C51.9256 31.4535 51.5047 31.1844 51.0534 30.9609C49.6596 30.2709 47.9553 29.7879 46.7699 31.1416C45.619 32.4554 46.4222 34.1597 47.7732 34.9104C48.6233 35.3838 49.5396 35.7702 50.46 36.1441C49.8846 36.8397 49.3478 37.5655 48.891 38.3383C48.023 39.8066 47.7373 41.9084 49.454 42.9158C51.1473 43.9108 52.6184 42.5004 53.3222 41.0514C53.8604 39.9433 54.2951 38.791 54.6773 37.6207C55.1507 38.4087 55.7772 39.0987 56.5555 39.6204C57.7492 40.4222 59.6067 40.8278 60.7742 39.7418C61.3731 39.1856 61.6505 38.3452 61.4407 37.5407Z" fill="#4D52A8"/>
<path d="M53.3539 32.6279C50.8037 32.6279 50.8009 36.5899 53.3539 36.5899C55.9028 36.5899 55.9069 32.6279 53.3539 32.6279Z" fill="#6265CE"/>
<path d="M72.2682 30.641C71.8694 29.9041 71.0621 29.3797 70.3873 28.9201C69.5482 28.3474 68.6223 27.9127 67.6687 27.5457C68.2579 26.5203 68.7258 25.4301 68.9962 24.2585C69.3785 22.6066 69.8242 19.4023 67.2105 19.4299C65.3034 19.4506 64.0683 21.889 63.4804 23.4084C63.2623 23.9728 63.1257 24.5552 63.025 25.1417C62.4495 24.6725 61.8713 24.2074 61.2627 23.7824C59.949 22.8661 57.7299 21.947 56.6383 23.7396C55.573 25.4895 57.1558 27.2765 58.4365 28.375C59.2893 29.1064 60.2567 29.6543 61.2696 30.1111C60.8653 30.9101 60.5272 31.7422 60.3436 32.613C60.0704 33.9213 60.058 35.5317 61.4104 36.2562C62.1335 36.644 63.076 36.4701 63.6556 35.9016C64.1911 35.3772 64.4229 34.614 64.6616 33.9226C64.9832 32.9925 65.1792 32.0279 65.3185 31.0536C65.8926 31.5311 66.4929 31.9782 67.1291 32.3674C68.3849 33.1346 70.241 34.2635 71.6776 33.343C72.5939 32.7607 72.7623 31.5545 72.2682 30.641Z" fill="#7B85E8"/>
<path d="M64.3373 26.1572C61.7871 26.1572 61.7843 30.1192 64.3373 30.1192C66.8862 30.1192 66.8903 26.1572 64.3373 26.1572Z" fill="#A9B3FF"/>
<path d="M77.7054 42.9643C77.3066 42.2273 76.4994 41.7029 75.8245 41.2434C74.9855 40.6707 74.0595 40.236 73.1059 39.8689C73.6952 38.8436 74.163 37.7534 74.4335 36.5818C74.8158 34.9299 75.2615 31.7255 72.6478 31.7531C70.742 31.7738 69.5055 34.2123 68.9176 35.7316C68.6996 36.2961 68.5629 36.8784 68.4622 37.4649C67.8867 36.9957 67.3086 36.5307 66.7 36.1057C65.3862 35.1893 63.1672 34.2702 62.0756 36.0629C61.0102 37.8127 62.5931 39.5998 63.8737 40.6983C64.7266 41.4297 65.6939 41.9776 66.7068 42.4343C66.3025 43.2334 65.9644 44.0655 65.7823 44.9363C65.509 46.2445 65.4966 47.855 66.849 48.5795C67.5721 48.9673 68.5147 48.7934 69.0943 48.2248C69.6297 47.7004 69.8615 46.9373 70.1003 46.2459C70.4218 45.3158 70.6178 44.3511 70.7572 43.3769C71.3313 43.8557 71.9315 44.3014 72.5677 44.6906C73.8235 45.4579 75.6796 46.5867 77.1162 45.6663C78.0312 45.0853 78.1995 43.8778 77.7054 42.9643Z" fill="#7B85E8"/>
<path d="M69.7746 38.4819C67.2243 38.4819 67.2216 42.4439 69.7746 42.4439C72.3234 42.4425 72.3276 38.4819 69.7746 38.4819Z" fill="#A9B3FF"/>
<path d="M48.6509 43.8873C48.1472 43.5437 47.5552 43.2829 46.9701 43.12C46.8652 43.091 46.7575 43.0842 46.6513 43.0648C46.7796 42.7392 46.8928 42.4107 46.9742 42.0699C47.1426 41.3702 47.235 40.6291 47.2212 39.9088C47.1922 38.4253 46.6223 36.4008 44.7607 36.4684C43.0481 36.5319 42.3126 38.3494 41.951 39.7708C41.8503 40.1668 41.8461 40.5698 41.7978 40.97C40.5531 40.1806 39.2076 39.5983 37.662 39.5817C36.4821 39.5693 35.919 40.8223 36.3924 41.7938C37.0631 43.1683 38.2512 44.3275 39.6478 44.954C39.9873 45.1072 40.3378 45.2397 40.6966 45.3391C40.5337 45.7613 40.4358 46.1836 40.3778 46.6335C40.266 47.4891 40.2716 48.4427 40.7766 49.181C41.4653 50.1884 42.8204 50.3043 43.7257 49.5191C44.3757 48.9547 44.7124 48.0729 45.0063 47.2863C45.0698 47.1151 45.1016 46.9357 45.154 46.7605C45.5432 47.1193 45.9392 47.4698 46.3877 47.7789C47.4917 48.5393 49.1574 49.0333 50.093 47.7306C51.1556 46.2499 49.875 44.7194 48.6509 43.8873Z" fill="#6265CE"/>
<path d="M43.3559 42.1304C40.8056 42.1304 40.8029 46.0924 43.3559 46.0924C45.9047 46.0924 45.9102 42.1304 43.3559 42.1304Z" fill="#7B85E8"/>
<path d="M52.2278 27.9759C51.7241 27.6322 51.1321 27.3714 50.547 27.2086C50.4421 27.1796 50.3345 27.1727 50.2282 27.1534C50.3566 26.8277 50.4697 26.4993 50.5512 26.1584C50.7195 25.4588 50.812 24.7177 50.7982 23.9973C50.7706 22.5138 50.1992 20.4894 48.3376 20.5584C46.625 20.6218 45.8895 22.4393 45.5279 23.8593C45.4272 24.2554 45.4217 24.6584 45.3748 25.0586C44.13 24.2706 42.7845 23.6868 41.2389 23.6703C40.059 23.6578 39.4959 24.9109 39.9693 25.8824C40.64 27.2569 41.8281 28.4161 43.2247 29.0426C43.5642 29.1958 43.9147 29.3283 44.2735 29.4276C44.1107 29.8499 44.0127 30.2722 43.9547 30.7221C43.8429 31.5777 43.8498 32.5312 44.3535 33.2695C45.0422 34.2769 46.3973 34.3929 47.3026 33.6077C47.9526 33.0433 48.2893 32.1614 48.5832 31.3748C48.6467 31.2037 48.6785 31.0243 48.7309 30.849C49.1201 31.2078 49.5161 31.5583 49.9646 31.8675C51.0672 32.6278 52.7343 33.1219 53.6699 31.8192C54.7311 30.337 53.4505 28.808 52.2278 27.9759Z" fill="#6265CE"/>
<path d="M46.9328 26.2192C44.3825 26.2192 44.3798 30.1812 46.9328 30.1812C49.4816 30.1798 49.4858 26.2192 46.9328 26.2192Z" fill="#7B85E8"/>
<path d="M75.071 12.4141C74.6901 12.1546 74.243 11.9573 73.7986 11.8331C73.7186 11.811 73.6372 11.8055 73.5585 11.7917C73.6565 11.546 73.7407 11.2963 73.8028 11.0382C73.9311 10.5083 74.0001 9.94802 73.9891 9.40292C73.967 8.28098 73.5364 6.74916 72.1274 6.8016C70.8316 6.8499 70.2755 8.22438 70.0022 9.2994C69.9263 9.59886 69.9222 9.90387 69.8863 10.2075C68.9438 9.61131 67.9267 9.16968 66.7579 9.15726C65.865 9.1476 65.44 10.0957 65.7974 10.8312C66.3038 11.8704 67.2036 12.7467 68.2593 13.2214C68.516 13.3373 68.781 13.438 69.0528 13.5126C68.9286 13.8313 68.8555 14.1515 68.8113 14.491C68.7271 15.1382 68.7313 15.8599 69.1121 16.4175C69.6324 17.1792 70.6577 17.2675 71.3422 16.6741C71.8335 16.2477 72.0888 15.5798 72.311 14.985C72.3593 14.8553 72.3828 14.72 72.4228 14.5876C72.7181 14.858 73.0162 15.1244 73.3557 15.359C74.1906 15.933 75.4505 16.3084 76.1585 15.3231C76.9644 14.2012 75.9956 13.0434 75.071 12.4141Z" fill="#6265CE"/>
<path d="M71.0648 11.085C69.1355 11.085 69.1328 14.0823 71.0648 14.0823C72.9926 14.0823 72.9968 11.085 71.0648 11.085Z" fill="#7B85E8"/>
<path d="M66.882 83.0105C66.6709 82.2004 66.0899 81.6526 65.4441 81.1682C64.5374 80.4906 63.548 79.9552 62.5295 79.4736C63.2044 78.2302 63.8019 76.9413 64.2048 75.5903C64.6809 73.9922 64.4022 71.8532 62.4619 71.4806C60.4775 71.0998 59.103 73.2677 58.4351 74.8188C58.1052 75.5861 57.9065 76.3782 57.7948 77.18C57.367 76.9219 56.946 76.6529 56.4948 76.4293C55.101 75.7393 53.3967 75.2563 52.2112 76.6101C51.0603 77.9238 51.8649 79.6268 53.2145 80.3789C54.0646 80.8522 54.9809 81.2386 55.9014 81.6126C55.3259 82.3081 54.7891 83.034 54.3323 83.8068C53.4657 85.2751 53.1786 87.3769 54.8954 88.3856C56.5886 89.3806 58.0583 87.9702 58.7635 86.5198C59.3017 85.4117 59.7364 84.2594 60.1187 83.0892C60.592 83.8772 61.2185 84.5672 61.9968 85.0902C63.1905 85.892 65.048 86.2977 66.2155 85.2116C66.8144 84.6555 67.0918 83.815 66.882 83.0105Z" fill="#4D52A8"/>
<path d="M58.7953 78.0977C56.2451 78.0977 56.2423 82.0596 58.7953 82.0596C61.3442 82.0596 61.3483 78.0977 58.7953 78.0977Z" fill="#6265CE"/>
<path d="M69.5785 63.5897C69.1797 62.8528 68.3724 62.3284 67.6976 61.8688C66.8585 61.2961 65.9326 60.8614 64.979 60.4943C65.5682 59.469 66.0361 58.3788 66.3066 57.2072C66.6888 55.5553 67.1345 52.351 64.5208 52.3786C62.615 52.3993 61.3786 54.8377 60.7907 56.3571C60.5726 56.9215 60.436 57.5025 60.3353 58.0904C59.7598 57.6212 59.1816 57.1561 58.573 56.7311C57.2593 55.8148 55.0402 54.8957 53.9486 56.6883C52.8833 58.4382 54.4661 60.2253 55.7468 61.3237C56.5996 62.0551 57.567 62.603 58.5799 63.0598C58.1756 63.8588 57.8375 64.691 57.6553 65.5617C57.3821 66.87 57.3697 68.4804 58.7221 69.2049C59.4452 69.5927 60.3877 69.4188 60.9673 68.8503C61.5027 68.3259 61.7346 67.5627 61.9733 66.8713C62.2949 65.9426 62.4908 64.9766 62.6302 64.0023C63.2043 64.4798 63.8046 64.9269 64.4408 65.3161C65.6966 66.0834 67.5527 67.2122 68.9893 66.2918C69.9056 65.7094 70.0726 64.5033 69.5785 63.5897Z" fill="#7B85E8"/>
<path d="M61.6477 59.106C59.0975 59.106 59.0947 63.0679 61.6477 63.0679C64.1966 63.0679 64.2007 59.106 61.6477 59.106Z" fill="#A9B3FF"/>
<path d="M90.1723 44.2008C89.9598 43.3907 89.3801 42.8428 88.7343 42.3584C87.8276 41.6809 86.8382 41.1454 85.8197 40.6638C86.4946 39.4204 87.0921 38.1315 87.4951 36.7805C87.9712 35.1824 87.6924 33.0434 85.7521 32.6708C83.7677 32.2886 82.3932 34.458 81.7253 36.0091C81.3955 36.7764 81.1968 37.5685 81.0864 38.3703C80.6586 38.1122 80.2377 37.8431 79.7864 37.6195C78.3926 36.9295 76.6883 36.4465 75.5029 37.8003C74.352 39.1141 75.1565 40.817 76.5061 41.5691C77.3562 42.0424 78.2725 42.4288 79.193 42.8028C78.6175 43.4983 78.0807 44.2242 77.6239 44.997C76.7559 46.4653 76.4702 48.5671 78.187 49.5745C79.8802 50.5694 81.3513 49.1591 82.0551 47.7087C82.5933 46.6006 83.028 45.4483 83.4103 44.278C83.8836 45.066 84.5101 45.756 85.2885 46.279C86.4822 47.0808 88.3396 47.4865 89.5071 46.4005C90.1046 45.8457 90.3821 45.0053 90.1723 44.2008Z" fill="#4D52A8"/>
<path d="M82.0855 39.2896C79.5352 39.2896 79.5325 43.2515 82.0855 43.2515C84.6343 43.2515 84.6385 39.2896 82.0855 39.2896Z" fill="#6265CE"/>
<path d="M67.1843 8.99697C67.0256 8.38978 66.5909 7.97992 66.1065 7.61698C65.4275 7.10914 64.6865 6.70755 63.9233 6.34875C64.4284 5.41725 64.8769 4.45263 65.1778 3.44109C65.5338 2.24463 65.3254 0.642438 63.8723 0.363678C62.386 0.0780185 61.3565 1.70229 60.857 2.86425C60.61 3.43833 60.4609 4.03174 60.3781 4.63204C60.0579 4.43884 59.7419 4.23734 59.4052 4.07036C58.3619 3.55424 57.0854 3.19134 56.1981 4.20564C55.3356 5.18958 55.9387 6.46467 56.9488 7.02771C57.585 7.38237 58.2723 7.6708 58.9609 7.95094C58.5303 8.4712 58.1287 9.01631 57.7865 9.59453C57.1365 10.693 56.9226 12.2676 58.2088 13.0224C59.477 13.7676 60.5782 12.7119 61.1054 11.6259C61.5083 10.7965 61.834 9.93261 62.1197 9.05631C62.4744 9.64557 62.9435 10.1631 63.5259 10.555C64.4188 11.1553 65.8112 11.4589 66.6847 10.6461C67.1332 10.2279 67.3416 9.59865 67.1843 8.99697Z" fill="#4D52A8"/>
<path d="M61.1274 5.31787C59.2175 5.31787 59.2148 8.28486 61.1274 8.28486C63.0374 8.28486 63.0401 5.31787 61.1274 5.31787Z" fill="#6265CE"/>
<path d="M98.5834 72.2313C98.1846 71.4944 97.3773 70.97 96.7025 70.5105C95.8634 69.9378 94.9374 69.5031 93.9839 69.136C94.5731 68.1107 95.041 67.0204 95.3114 65.8488C95.6937 64.1969 96.1394 60.9926 93.5257 61.0202C91.6185 61.0409 90.3834 63.4794 89.7956 64.9987C89.5775 65.5632 89.4409 66.1455 89.3401 66.732C88.7647 66.2628 88.1865 65.7977 87.5779 65.3727C86.2641 64.4564 84.0451 63.5373 82.9535 65.33C81.8881 67.0798 83.471 68.8669 84.7517 69.9653C85.6045 70.6967 86.5719 71.2446 87.5848 71.7014C87.1805 72.5004 86.8424 73.3326 86.6602 74.2034C86.387 75.5116 86.3745 77.122 87.727 77.8465C88.4501 78.2343 89.3926 78.0604 89.9722 77.4919C90.5076 76.9675 90.7395 76.2044 90.9782 75.513C91.2998 74.5829 91.4957 73.6182 91.6365 72.6439C92.2092 73.1228 92.8109 73.5685 93.447 73.9577C94.7028 74.725 96.5589 75.8538 97.9955 74.9334C98.9104 74.351 99.0775 73.1449 98.5834 72.2313Z" fill="#7B85E8"/>
<path d="M90.6525 67.7476C88.1022 67.7476 88.0995 71.7095 90.6525 71.7095C93.2027 71.7095 93.2069 67.7476 90.6525 67.7476Z" fill="#A9B3FF"/>
<path d="M102.2 78.6927C101.697 78.349 101.105 78.0882 100.518 77.9254C100.413 77.8964 100.306 77.8895 100.199 77.8702C100.328 77.5445 100.441 77.2161 100.522 76.8752C100.691 76.1756 100.783 75.4345 100.769 74.7141C100.742 73.2306 100.17 71.2062 98.3088 71.2752C96.5962 71.3373 95.8606 73.1561 95.4991 74.5761C95.3983 74.9722 95.3942 75.3752 95.3459 75.7754C94.1012 74.986 92.7556 74.4036 91.21 74.3885C90.0301 74.376 89.4671 75.6291 89.9405 76.6006C90.6112 77.9751 91.7993 79.1343 93.1959 79.7608C93.5353 79.914 93.8859 80.0465 94.2447 80.1472C94.0818 80.5695 93.9853 80.9917 93.9259 81.4416C93.8141 82.2972 93.821 83.2508 94.3247 83.9891C95.0133 84.9965 96.3685 85.1124 97.2738 84.3272C97.9238 83.7628 98.2605 82.8809 98.5544 82.0943C98.6179 81.9232 98.6496 81.7439 98.7021 81.5686C99.0912 81.926 99.4873 82.2779 99.9358 82.587C101.038 83.3474 102.705 83.8415 103.641 82.5387C104.704 81.0552 103.423 79.5262 102.2 78.6927Z" fill="#6265CE"/>
<path d="M96.9054 76.936C94.3565 76.936 94.3524 80.898 96.9054 80.898C99.4542 80.898 99.4584 76.936 96.9054 76.936Z" fill="#7B85E8"/>
<path d="M121.084 96.2228C120.873 95.4128 120.292 94.8649 119.646 94.3805C118.74 93.7016 117.75 93.1675 116.732 92.6872C117.407 91.4439 118.004 90.1549 118.407 88.8039C118.883 87.2059 118.604 85.0669 116.664 84.6943C114.68 84.312 113.305 86.4814 112.637 88.0325C112.308 88.7998 112.109 89.5919 111.997 90.3937C111.569 90.1356 111.148 89.8665 110.697 89.643C109.303 88.953 107.599 88.47 106.414 89.8238C105.263 91.1375 106.067 92.8404 107.417 93.5925C108.267 94.0659 109.183 94.4523 110.104 94.8263C109.528 95.5218 108.991 96.2477 108.535 97.0205C107.668 98.4888 107.381 100.59 109.098 101.598C110.791 102.593 112.262 101.183 112.966 99.7335C113.504 98.6254 113.939 97.4731 114.321 96.3029C114.794 97.0909 115.421 97.7808 116.199 98.3038C117.393 99.1056 119.25 99.5114 120.418 98.4253C121.015 97.8678 121.294 97.026 121.084 96.2228Z" fill="#4D52A8"/>
<path d="M112.998 91.3101C110.447 91.3101 110.445 95.272 112.998 95.272C115.546 95.272 115.551 91.3101 112.998 91.3101Z" fill="#6265CE"/>
<path d="M59.1292 71.2088C58.7303 70.4719 57.9231 69.9476 57.2482 69.488C56.4092 68.9153 55.4832 68.4806 54.5296 68.1135C55.1189 67.0882 55.5867 65.998 55.8572 64.8263C56.2394 63.1745 56.6852 59.9701 54.0715 59.9977C52.1643 60.0184 50.9292 62.4569 50.3413 63.9763C50.1233 64.5407 49.9867 65.1231 49.8859 65.7096C49.3105 65.2404 48.7323 64.7753 48.1237 64.3502C46.8099 63.4339 44.5909 62.5148 43.4993 64.3075C42.4339 66.0573 44.0168 67.8444 45.2974 68.9429C46.1503 69.6743 47.1176 70.2221 48.1305 70.6789C47.7262 71.4779 47.3881 72.3101 47.2046 73.1809C46.9313 74.4891 46.9189 76.0996 48.2713 76.8241C48.9945 77.2118 49.937 77.038 50.5166 76.4694C51.052 75.945 51.2839 75.1819 51.5226 74.4905C51.8441 73.5618 52.0401 72.5958 52.1795 71.6215C52.7536 72.099 53.3539 72.5461 53.99 72.9352C55.2458 73.7025 57.102 74.8314 58.5385 73.9109C59.4549 73.3285 59.6232 72.1224 59.1292 71.2088Z" fill="#7B85E8"/>
<path d="M51.1984 66.7251C48.6481 66.7251 48.6454 70.6871 51.1984 70.6871C53.7472 70.6871 53.7514 66.7251 51.1984 66.7251Z" fill="#A9B3FF"/>
<path d="M50.6988 56.8538C50.1951 56.5102 49.603 56.2493 49.0179 56.0865C48.913 56.0575 48.8054 56.0507 48.6991 56.0313C48.8275 55.7057 48.9406 55.3772 49.0221 55.0363C49.1904 54.3367 49.2829 53.5956 49.2691 52.8753C49.2401 51.3918 48.6702 49.3673 46.8085 49.4363C45.096 49.4984 44.3604 51.3173 43.9988 52.7373C43.8981 53.1333 43.8926 53.5363 43.8457 53.9365C42.6009 53.1471 41.2554 52.5648 39.7098 52.5496C38.5299 52.5372 37.9669 53.7902 38.4402 54.7617C39.1109 56.1362 40.2991 57.2954 41.6956 57.9219C42.0351 58.0751 42.3856 58.2076 42.7444 58.3083C42.5816 58.7306 42.4836 59.1529 42.4257 59.6028C42.3139 60.4584 42.3194 61.4119 42.8244 62.1502C43.5131 63.1576 44.8683 63.2736 45.7735 62.4883C46.4235 61.9239 46.7602 61.0421 47.0542 60.2555C47.1176 60.0844 47.1494 59.905 47.2018 59.7297C47.591 60.0871 47.987 60.4391 48.4355 60.7482C49.5382 61.5086 51.2052 62.0026 52.1408 60.6999C53.2034 59.2164 51.9228 57.6859 50.6988 56.8538Z" fill="#6265CE"/>
<path d="M45.4037 55.0972C42.8535 55.0972 42.8507 59.0592 45.4037 59.0592C47.9539 59.0592 47.9581 55.0972 45.4037 55.0972Z" fill="#7B85E8"/>
<path d="M83.5373 24.9375C83.3262 24.1275 82.7452 23.5796 82.0994 23.0953C81.1927 22.4163 80.2019 21.8822 79.1834 21.4006C79.8582 20.1572 80.4558 18.8683 80.8587 17.5173C81.3348 15.9193 81.0561 13.7803 79.1158 13.4077C77.1313 13.0254 75.7569 15.1947 75.0889 16.7459C74.7591 17.5131 74.5604 18.3053 74.45 19.107C74.0222 18.849 73.6013 18.5799 73.15 18.3563C71.7562 17.6663 70.0519 17.1833 68.8665 18.5371C67.7156 19.8509 68.5202 21.5552 69.8698 22.3059C70.7199 22.7792 71.6362 23.1656 72.5567 23.5396C71.9812 24.2351 71.4444 24.961 70.989 25.7338C70.121 27.2021 69.8353 29.3025 71.552 30.3113C73.2453 31.3063 74.715 29.8959 75.4202 28.4469C75.9584 27.3387 76.3931 26.1864 76.7753 25.0162C77.2487 25.8042 77.8752 26.4942 78.6535 27.0158C79.8472 27.8176 81.7047 28.2233 82.8722 27.1373C83.4697 26.5825 83.7471 25.7421 83.5373 24.9375Z" fill="#4D52A8"/>
<path d="M75.4506 20.0249C72.9003 20.0249 72.8976 23.9869 75.4506 23.9869C77.9994 23.9869 78.0036 20.0249 75.4506 20.0249Z" fill="#6265CE"/>
<path d="M103.487 57.1673C103.274 56.3572 102.695 55.8094 102.049 55.325C101.142 54.6474 100.153 54.1119 99.1341 53.6303C99.8089 52.3869 100.406 51.098 100.809 49.747C101.286 48.149 101.007 46.01 99.0665 45.6374C97.082 45.2565 95.7075 47.4245 95.0396 48.9756C94.7098 49.7429 94.5111 50.535 94.4007 51.3368C93.9729 51.0787 93.552 50.8096 93.1007 50.586C91.7069 49.896 90.0026 49.4131 88.8172 50.7668C87.6663 52.0806 88.4709 53.7835 89.8205 54.5356C90.6706 55.0089 91.5869 55.3954 92.5073 55.7693C91.9319 56.4649 91.3951 57.1907 90.9397 57.9635C90.0717 59.4319 89.786 61.5336 91.5027 62.5424C93.196 63.5373 94.6657 62.127 95.3709 60.6766C95.9091 59.5685 96.3438 58.4162 96.726 57.246C97.1994 58.0339 97.8259 58.7239 98.6042 59.2469C99.7979 60.0487 101.655 60.4544 102.823 59.3684C103.419 58.8122 103.696 57.9718 103.487 57.1673Z" fill="#4D52A8"/>
<path d="M95.3998 52.2559C92.8496 52.2559 92.8468 56.2178 95.3998 56.2178C97.9487 56.2164 97.9542 52.2559 95.3998 52.2559Z" fill="#6265CE"/>
<path d="M111.717 69.5111C111.318 68.7742 110.511 68.2498 109.836 67.7903C108.997 67.2176 108.071 66.7829 107.117 66.4158C107.707 65.3904 108.174 64.3003 108.445 63.1286C108.827 61.4768 109.273 58.2724 106.659 58.3C104.752 58.3207 103.517 60.7591 102.929 62.2785C102.711 62.8429 102.574 63.4239 102.474 64.0118C101.898 63.5426 101.32 63.0776 100.711 62.6525C99.3977 61.7362 97.1786 60.8171 96.0871 62.6097C95.0217 64.3596 96.6046 66.1467 97.8852 67.2452C98.738 67.9766 99.7054 68.5244 100.718 68.9812C100.314 69.7802 99.9759 70.6124 99.7924 71.4831C99.5191 72.7914 99.5067 74.4019 100.859 75.1264C101.582 75.5141 102.525 75.3402 103.104 74.7717C103.64 74.2473 103.872 73.4841 104.11 72.7928C104.432 71.8626 104.628 70.898 104.767 69.9237C105.341 70.4012 105.942 70.8483 106.578 71.2375C107.834 72.0048 109.69 73.1336 111.126 72.2131C112.043 71.6322 112.211 70.4247 111.717 69.5111Z" fill="#7B85E8"/>
<path d="M103.786 65.0288C101.236 65.0288 101.233 68.9908 103.786 68.9908C106.335 68.9894 106.339 65.0288 103.786 65.0288Z" fill="#A9B3FF"/>
<path d="M70.7833 15.9068C70.4673 15.3231 69.8284 14.9077 69.2943 14.5434C68.6291 14.0908 67.8964 13.7458 67.1415 13.4546C67.6079 12.6418 67.9778 11.7792 68.1931 10.8505C68.4953 9.54226 68.8486 7.00307 66.7786 7.02653C65.2688 7.04309 64.2891 8.9737 63.824 10.1784C63.6515 10.6256 63.5439 11.0865 63.4638 11.5516C63.0084 11.179 62.5502 10.8119 62.0672 10.4752C61.0267 9.7493 59.2686 9.02202 58.4033 10.442C57.5588 11.8276 58.8132 13.2435 59.8275 14.1142C60.5037 14.6938 61.2696 15.1271 62.0714 15.4901C61.7513 16.1235 61.4835 16.7831 61.3386 17.4717C61.122 18.5081 61.1123 19.7833 62.1846 20.3573C62.7573 20.6651 63.5039 20.5257 63.9634 20.0772C64.3871 19.6618 64.5706 19.0574 64.7596 18.5095C65.0136 17.7726 65.1695 17.0081 65.2799 16.2367C65.7339 16.6162 66.21 16.9694 66.7137 17.2772C67.7087 17.8858 69.1784 18.7786 70.3169 18.05C71.0414 17.5863 71.1739 16.6313 70.7833 15.9068Z" fill="#7B85E8"/>
<path d="M64.5002 12.356C62.4798 12.356 62.4771 15.4941 64.5002 15.4941C66.5191 15.4941 66.5232 12.356 64.5002 12.356Z" fill="#A9B3FF"/>
<path d="M115.023 81.8611C114.52 81.5175 113.928 81.2567 113.342 81.0938C113.238 81.0649 113.13 81.058 113.024 81.0387C113.152 80.713 113.265 80.3832 113.347 80.0437C113.515 79.344 113.607 78.6029 113.594 77.8826C113.566 76.3991 112.995 74.3746 111.133 74.4436C109.421 74.5071 108.685 76.3245 108.323 77.7446C108.223 78.1406 108.219 78.5436 108.17 78.9438C106.926 78.1558 105.58 77.5721 104.034 77.5569C102.854 77.5445 102.291 78.7975 102.765 79.769C103.435 81.1435 104.624 82.3027 106.02 82.9293C106.36 83.0824 106.71 83.2149 107.069 83.3143C106.906 83.7365 106.81 84.1589 106.75 84.6087C106.638 85.4643 106.645 86.4179 107.149 87.1562C107.838 88.1636 109.193 88.2795 110.098 87.4943C110.748 86.9299 111.085 86.0481 111.379 85.2615C111.442 85.0903 111.474 84.9109 111.526 84.7357C111.916 85.0945 112.312 85.445 112.76 85.7541C113.863 86.5131 115.53 87.0085 116.465 85.7058C117.528 84.2237 116.247 82.6933 115.023 81.8611Z" fill="#6265CE"/>
<path d="M109.728 80.1045C107.178 80.1045 107.175 84.0665 109.728 84.0665C112.279 84.0665 112.283 80.1045 109.728 80.1045Z" fill="#7B85E8"/>
<path d="M95.3652 32.3202C94.9167 32.0152 94.3909 31.7834 93.8693 31.6371C93.7754 31.6109 93.6802 31.6054 93.5864 31.5874C93.7009 31.2976 93.8017 31.0051 93.8734 30.7015C94.0238 30.0791 94.1052 29.4194 94.0928 28.7791C94.068 27.4585 93.5602 25.6576 91.9028 25.7183C90.3793 25.7735 89.7251 27.3922 89.4022 28.6563C89.3125 29.0082 89.3084 29.367 89.2656 29.7244C88.1575 29.022 86.961 28.5031 85.5852 28.4893C84.535 28.4783 84.034 29.5933 84.4549 30.4572C85.0511 31.6799 86.1096 32.7107 87.3516 33.2696C87.6538 33.4049 87.9657 33.5236 88.2858 33.6133C88.1409 33.9886 88.0539 34.364 88.0015 34.7642C87.9021 35.5259 87.9077 36.3746 88.3562 37.0301C88.9689 37.9271 90.175 38.0307 90.9796 37.331C91.5578 36.8287 91.8586 36.0435 92.1194 35.3438C92.176 35.1906 92.2036 35.0319 92.2505 34.876C92.5969 35.1947 92.9488 35.508 93.349 35.7826C94.3302 36.4588 95.8137 36.899 96.6458 35.7398C97.5939 34.4233 96.454 33.0613 95.3652 32.3202Z" fill="#6265CE"/>
<path d="M90.6526 30.7568C88.3838 30.7568 88.3797 34.2827 90.6526 34.2827C92.9213 34.2827 92.9254 30.7568 90.6526 30.7568Z" fill="#7B85E8"/>
<path d="M101.465 43.359C101.295 42.7104 100.83 42.2716 100.314 41.8852C99.5881 41.3428 98.7959 40.9137 97.9803 40.5286C98.5213 39.5337 98.9988 38.5014 99.3217 37.4195C99.7026 36.1402 99.4804 34.4277 97.9265 34.1296C96.3381 33.8246 95.2383 35.5593 94.7028 36.8013C94.4379 37.4154 94.2792 38.0502 94.1909 38.6919C93.8486 38.4849 93.5119 38.2696 93.1503 38.0916C92.0353 37.5396 90.6705 37.1531 89.721 38.2364C88.7992 39.288 89.4436 40.6514 90.5242 41.2531C91.2045 41.6326 91.9387 41.9417 92.6756 42.2412C92.2147 42.7973 91.7855 43.3797 91.4198 43.998C90.7257 45.1723 90.4966 46.8559 91.8711 47.6632C93.2262 48.4595 94.4034 47.3307 94.9678 46.1701C95.3983 45.2827 95.7461 44.3609 96.0525 43.4239C96.432 44.0545 96.9329 44.6079 97.5553 45.0247C98.5102 45.6664 99.9979 45.9921 100.932 45.1213C101.411 44.6769 101.633 44.0035 101.465 43.359Z" fill="#4D52A8"/>
<path d="M94.9913 39.4272C92.9503 39.4272 92.9475 42.5985 94.9913 42.5985C97.0323 42.5985 97.0351 39.4272 94.9913 39.4272Z" fill="#6265CE"/>
<path d="M92.4397 58.0765C92.0409 57.3396 91.2336 56.8152 90.5588 56.3556C89.7198 55.7829 88.7938 55.3482 87.8402 54.9812C88.4294 53.9558 88.8972 52.8656 89.1677 51.694C89.55 50.0422 89.9957 46.8378 87.382 46.8654C85.4749 46.8861 84.2398 49.3246 83.6519 50.8439C83.4338 51.407 83.2972 51.9893 83.1965 52.5772C82.621 52.108 82.0428 51.643 81.4342 51.2179C80.1205 50.3016 77.9014 49.3825 76.8098 51.1751C75.7445 52.925 77.3273 54.7121 78.608 55.8106C79.4608 56.542 80.4282 57.0898 81.4411 57.5466C81.0368 58.347 80.6987 59.1777 80.5151 60.0485C80.2419 61.3568 80.2295 62.9672 81.5819 63.6917C82.305 64.0795 83.2475 63.9057 83.8271 63.3371C84.3626 62.8127 84.5944 62.0495 84.8331 61.3581C85.1547 60.428 85.3507 59.4634 85.49 58.4892C86.0641 58.968 86.6644 59.4138 87.3006 59.8029C88.5564 60.5702 90.4125 61.6977 91.8491 60.7786C92.7668 60.1976 92.9337 58.9901 92.4397 58.0765Z" fill="#7B85E8"/>
<path d="M84.5088 53.5928C81.9586 53.5928 81.9558 57.5548 84.5088 57.5548C87.059 57.5548 87.0632 53.5928 84.5088 53.5928Z" fill="#A9B3FF"/>
<path d="M45.096 73.1393C44.5923 72.7957 44.0003 72.5349 43.4151 72.372C43.3103 72.343 43.2026 72.3361 43.0964 72.3168C43.2247 71.9911 43.3379 71.6627 43.4193 71.3218C43.5876 70.6221 43.6801 69.8811 43.6663 69.1608C43.6387 67.6773 43.0674 65.6528 41.2058 65.7204C39.4932 65.7839 38.7577 67.6013 38.3961 69.0227C38.2954 69.4188 38.2898 69.8218 38.2429 70.222C36.9982 69.4326 35.6527 68.8502 34.1071 68.8337C32.9272 68.8212 32.3641 70.0743 32.8374 71.0458C33.5081 72.4203 34.6963 73.5795 36.0929 74.206C36.4323 74.3592 36.7829 74.4917 37.1417 74.5924C36.9788 75.0147 36.8822 75.437 36.8229 75.8869C36.7111 76.7425 36.718 77.696 37.2217 78.4343C37.9103 79.4417 39.2655 79.5577 40.1708 78.7725C40.8208 78.208 41.1575 77.3262 41.4514 76.5396C41.5149 76.3685 41.5466 76.1891 41.5991 76.0138C41.9882 76.3726 42.3843 76.7231 42.8328 77.0322C43.9354 77.7926 45.6024 78.2867 46.5381 76.9839C47.5993 75.5018 46.3187 73.9714 45.096 73.1393Z" fill="#6265CE"/>
<path d="M39.8009 71.3823C37.2507 71.3823 37.2479 75.3443 39.8009 75.3443C42.3498 75.3443 42.3539 71.3823 39.8009 71.3823Z" fill="#7B85E8"/>
<path d="M60.2056 20.7946C60.0442 20.1791 59.6039 19.7623 59.1127 19.3952C58.424 18.8805 57.672 18.4734 56.8978 18.1091C57.4111 17.1638 57.8652 16.1854 58.1701 15.16C58.5317 13.9456 58.3205 12.3214 56.8467 12.0385C55.3384 11.7487 54.2951 13.3964 53.7872 14.5749C53.5361 15.1573 53.3857 15.759 53.3015 16.3689C52.9772 16.173 52.657 15.9687 52.3134 15.7989C51.2549 15.2745 49.9605 14.9075 49.0594 15.937C48.1844 16.9361 48.7958 18.2291 49.8211 18.8005C50.467 19.1606 51.1625 19.4532 51.8621 19.7375C51.4247 20.266 51.0176 20.818 50.6712 21.4045C50.0116 22.5196 49.7949 24.1162 51.099 24.8821C52.3852 25.637 53.5029 24.5661 54.037 23.4649C54.4455 22.6231 54.7753 21.7482 55.0665 20.8594C55.4267 21.4584 55.9028 21.9827 56.4934 22.3788C57.4001 22.9874 58.8105 23.2965 59.6978 22.4713C60.1532 22.0449 60.3643 21.4059 60.2056 20.7946Z" fill="#4D52A8"/>
<path d="M54.0618 17.063C52.1257 17.063 52.1215 20.0728 54.0618 20.0728C55.998 20.0728 56.0021 17.063 54.0618 17.063Z" fill="#6265CE"/>
<path d="M75.5222 51.7825C75.0185 51.4389 74.4265 51.1781 73.8414 51.0152C73.7365 50.9862 73.6289 50.9793 73.5227 50.96C73.651 50.6343 73.7641 50.3045 73.8455 49.9651C74.0139 49.2654 74.1064 48.5243 74.0926 47.804C74.065 46.3205 73.4936 44.296 71.632 44.365C69.9194 44.4285 69.1839 46.2459 68.8224 47.666C68.7216 48.062 68.7161 48.465 68.6692 48.8652C67.4244 48.0758 66.0789 47.4935 64.5333 47.4769C63.3534 47.4645 62.7904 48.7175 63.2637 49.689C63.9344 51.0635 65.1226 52.2227 66.5191 52.8493C66.8586 53.0011 67.2092 53.1349 67.568 53.2343C67.4051 53.6565 67.3071 54.0788 67.2478 54.5287C67.136 55.3843 67.1429 56.3379 67.6466 57.0762C68.3352 58.0836 69.6904 58.1995 70.5957 57.4143C71.2457 56.8498 71.5823 55.968 71.8763 55.1801C71.9398 55.0089 71.9715 54.8295 72.024 54.6543C72.4131 55.0131 72.8092 55.3636 73.2577 55.6727C74.3603 56.4317 76.0273 56.9271 76.963 55.6244C78.0269 54.1437 76.7463 52.6146 75.5222 51.7825Z" fill="#6265CE"/>
<path d="M70.2272 50.0259C67.677 50.0259 67.6742 53.9879 70.2272 53.9879C72.7774 53.9879 72.7816 50.0259 70.2272 50.0259Z" fill="#7B85E8"/>
<path d="M63.864 51.8444C63.6529 51.0343 63.0719 50.4864 62.4261 50.0021C61.5194 49.3245 60.53 48.7891 59.5115 48.3088C60.1863 47.0654 60.7839 45.7765 61.1868 44.4255C61.6615 42.8275 61.3842 40.6885 59.4439 40.3159C57.4581 39.9336 56.085 42.103 55.417 43.6541C55.0872 44.4214 54.8885 45.2135 54.7781 46.0153C54.3503 45.7572 53.9294 45.4881 53.4781 45.2645C52.0843 44.5745 50.3801 44.0915 49.1947 45.4453C48.0437 46.7591 48.8483 48.462 50.1979 49.2141C51.048 49.6874 51.9643 50.0738 52.8848 50.4478C52.3093 51.1433 51.7725 51.8692 51.3157 52.642C50.4477 54.109 50.162 56.2107 51.8787 57.2195C53.572 58.2145 55.0431 56.8041 55.7469 55.3537C56.2851 54.2456 56.7198 53.0933 57.102 51.923C57.5754 52.711 58.2019 53.401 58.9802 53.9226C60.1739 54.7244 62.0314 55.1302 63.1989 54.0441C63.7964 53.4893 64.0738 52.6489 63.864 51.8444Z" fill="#4D52A8"/>
<path d="M55.7772 46.9331C53.227 46.9331 53.2242 50.8951 55.7772 50.8951C58.3261 50.8951 58.3302 46.9331 55.7772 46.9331Z" fill="#6265CE"/>
<path d="M89.699 34.3655C89.3899 33.7942 88.7634 33.3871 88.2403 33.0311C87.589 32.5867 86.8714 32.25 86.1317 31.9657C86.5885 31.1694 86.9515 30.3249 87.1612 29.4168C87.4579 28.1348 87.8029 25.6508 85.7757 25.6715C84.2977 25.6881 83.3386 27.5787 82.8832 28.7572C82.7135 29.1946 82.6086 29.6459 82.5299 30.1013C82.0842 29.737 81.6357 29.3768 81.1623 29.047C80.1439 28.3363 78.4217 27.6242 77.5757 29.0139C76.7491 30.3704 77.9773 31.7573 78.9709 32.6087C79.6319 33.1759 80.3826 33.601 81.1678 33.9556C80.8546 34.5753 80.5924 35.2211 80.4503 35.8959C80.2377 36.9116 80.2295 38.1591 81.2783 38.7222C81.8399 39.023 82.5699 38.8878 83.0198 38.4475C83.4352 38.0418 83.6146 37.4484 83.7995 36.913C84.0493 36.1926 84.2011 35.4433 84.3101 34.687C84.7545 35.0583 85.2209 35.4047 85.715 35.7069C86.6892 36.3017 88.1286 37.1766 89.2436 36.4645C89.9516 36.0091 90.0813 35.0734 89.699 34.3655Z" fill="#7B85E8"/>
<path d="M83.5469 30.8877C81.5694 30.8877 81.5666 33.9609 83.5469 33.9609C85.5245 33.9609 85.5272 30.8877 83.5469 30.8877Z" fill="#A9B3FF"/>
<path d="M164.477 123.85C155.576 122.078 146.399 120.631 137.332 121.967C129.497 123.122 121.861 126.407 116.614 132.501C115.183 134.163 113.957 136.005 113.002 137.98C112.325 139.378 111.589 140.799 111.232 142.324C110.9 143.747 111.21 144.194 112.63 144.534C116.693 145.508 120.745 146.601 124.871 147.276C129.36 148.01 133.954 148.265 138.468 147.592C142.415 147.003 146.258 145.711 149.624 143.544C152.831 141.48 155.526 138.706 157.834 135.688C160.501 132.201 162.695 128.381 164.857 124.568C165.025 124.27 164.779 123.911 164.477 123.85Z" fill="#5FC5A9"/>
<path d="M155.881 126.45C155.884 126.45 155.886 126.452 155.889 126.452L163.166 127.517C163.3 127.287 163.431 127.056 163.563 126.826L157.58 125.949C160.003 125.392 162.439 124.905 164.881 124.46C164.949 124.189 164.743 123.904 164.477 123.852C164.411 123.839 164.345 123.827 164.278 123.813C159.328 124.725 154.411 125.863 149.555 127.24L155.406 122.277C155.081 122.232 154.756 122.177 154.429 122.134L148.102 127.501C148.04 127.553 148.015 127.629 147.998 127.702C144.58 128.708 141.191 129.819 137.843 131.049L146.558 121.492C146.229 121.482 145.899 121.48 145.57 121.474L136.444 131.481C136.415 131.511 136.42 131.554 136.404 131.59C133.953 132.515 131.521 133.495 129.117 134.537L137.829 121.913C137.662 121.935 137.497 121.943 137.33 121.968C137.161 121.993 136.996 122.033 136.827 122.059L128.067 134.755C128.009 134.839 127.99 134.939 128.008 135.033C125.964 135.938 123.934 136.875 121.93 137.863C123.931 133.203 126.21 128.628 128.714 124.201C128.327 124.35 127.955 124.535 127.574 124.698C125.121 129.103 122.892 133.651 120.937 138.277C120.924 138.306 120.941 138.335 120.937 138.365C118.707 139.484 116.5 140.648 114.328 141.868C115.755 137.729 117.469 133.684 119.402 129.75C118.874 130.21 118.366 130.693 117.87 131.195C116.169 134.817 114.651 138.528 113.376 142.312C113.365 142.345 113.384 142.377 113.383 142.41C112.651 142.828 111.943 143.284 111.217 143.711C111.314 143.925 111.479 144.094 111.735 144.228C113.555 143.157 115.393 142.115 117.256 141.113C117.28 141.125 117.291 141.154 117.317 141.161C125.435 143.448 133.742 145.329 142.08 146.811C142.619 146.665 143.155 146.507 143.683 146.331C135.094 144.854 126.533 142.952 118.164 140.617C120.207 139.537 122.279 138.51 124.37 137.517C124.4 137.536 124.417 137.572 124.454 137.581C130.603 139.214 136.859 140.569 143.159 141.63C145.673 142.054 148.196 142.417 150.72 142.747C151.021 142.53 151.33 142.323 151.622 142.093C142.781 140.968 133.972 139.293 125.365 137.041C127.798 135.905 130.261 134.833 132.748 133.818C137.201 134.788 141.699 135.656 146.217 136.418C149.479 136.969 152.754 137.452 156.03 137.889C156.219 137.673 156.39 137.442 156.574 137.223C148.996 136.217 141.431 134.904 133.985 133.313C137.062 132.088 140.179 130.966 143.326 129.931C143.342 129.936 143.349 129.956 143.366 129.958C147.314 130.803 151.306 131.566 155.317 132.242C156.806 132.493 158.299 132.717 159.792 132.943C159.944 132.718 160.084 132.485 160.233 132.259C155.032 131.471 149.842 130.548 144.721 129.475C148.368 128.312 152.056 127.281 155.771 126.381C155.811 126.405 155.837 126.442 155.881 126.45Z" fill="#33896E"/>
<path opacity="0.6" d="M148.919 124.251C138.304 122.66 127.539 125.571 119.181 132.314C118.966 132.486 118.835 132.68 118.758 132.877C117.266 133.995 115.537 135.93 116.823 137.826C118.415 140.174 121.595 138.249 123.508 137.468C126.269 136.342 129.032 135.216 131.793 134.09C137.501 131.763 143.21 129.437 148.917 127.109C150.082 126.635 150.551 124.495 148.919 124.251Z" fill="white"/>
<path d="M1.06848 134.069C3.08052 137.196 5.12019 140.327 7.54347 143.155C9.64107 145.602 12.0561 147.823 14.8699 149.42C17.8231 151.097 21.1392 152.009 24.5105 152.321C28.3663 152.678 32.2455 152.245 36.0129 151.41C39.4753 150.643 42.8563 149.525 46.2511 148.508C47.4365 148.152 47.6794 147.76 47.3302 146.57C46.9563 145.295 46.2649 144.126 45.626 142.975C44.7234 141.347 43.5973 139.846 42.3057 138.506C37.5723 133.593 30.9496 131.171 24.258 130.564C16.5148 129.861 8.81028 131.521 1.35414 133.445C1.1016 133.509 0.911163 133.825 1.06848 134.069Z" fill="#5FC5A9"/>
<path d="M8.75784 135.238C8.75508 135.238 8.75369 135.239 8.75093 135.239L2.63754 136.487C2.51334 136.297 2.39189 136.108 2.26769 135.919L7.29504 134.894C5.21538 134.537 3.12879 134.239 1.03947 133.978C0.969093 133.75 1.1292 133.5 1.35276 133.442C1.40796 133.428 1.4645 133.415 1.5197 133.401C5.75492 133.939 9.975 134.669 14.1536 135.606L8.96205 131.68C9.23529 131.626 9.50852 131.564 9.78176 131.512L15.3956 135.758C15.4508 135.799 15.4743 135.863 15.4936 135.925C18.4371 136.615 21.36 137.396 24.2538 138.278L16.4196 130.595C16.6984 130.572 16.9771 130.554 17.2545 130.533L25.4572 138.577C25.482 138.602 25.4807 138.638 25.4959 138.667C27.6155 139.335 29.7214 140.05 31.8066 140.82L23.8302 130.539C23.9723 130.55 24.1145 130.548 24.2552 130.562C24.3987 130.575 24.5409 130.602 24.6844 130.616L32.7063 140.955C32.7601 141.024 32.7795 141.107 32.7698 141.187C34.5445 141.857 36.3081 142.554 38.0511 143.297C36.1356 139.445 33.9884 135.676 31.6576 132.046C31.9929 132.153 32.3158 132.293 32.647 132.413C34.9336 136.027 37.0368 139.775 38.9122 143.6C38.9246 143.625 38.9122 143.65 38.9163 143.675C40.858 144.517 42.7817 145.399 44.6792 146.329C43.2744 142.891 41.6322 139.546 39.8078 136.304C40.277 136.669 40.7297 137.054 41.174 137.455C42.7872 140.443 44.2486 143.513 45.5072 146.66C45.5182 146.687 45.5031 146.715 45.5059 146.744C46.1462 147.063 46.7658 147.416 47.4006 147.743C47.3288 147.929 47.1964 148.079 46.9866 148.204C45.3941 147.383 43.7878 146.588 42.1621 145.828C42.1428 145.84 42.1345 145.864 42.1124 145.872C35.3435 148.194 28.398 150.18 21.4055 151.831C20.9418 151.733 20.4809 151.624 20.0242 151.501C27.2291 149.844 34.3913 147.827 41.37 145.452C39.5884 144.633 37.7834 143.861 35.9659 143.12C35.9411 143.138 35.9286 143.168 35.8969 143.18C30.7661 144.853 25.5317 146.297 20.2463 147.495C18.1363 147.972 16.018 148.399 13.8942 148.799C13.6292 148.629 13.3574 148.469 13.0993 148.288C20.5348 146.917 27.9177 145.081 35.1006 142.766C32.9865 141.92 30.8489 141.127 28.6933 140.386C24.9673 141.419 21.1999 142.367 17.4076 143.226C14.6697 143.847 11.9194 144.41 9.16491 144.938C8.99379 144.764 8.83924 144.576 8.67226 144.399C15.0423 143.189 21.3889 141.719 27.621 140.018C24.9562 139.126 22.2625 138.323 19.5481 137.596C19.5343 137.602 19.5301 137.618 19.5149 137.621C16.2112 138.523 12.8647 139.358 9.50027 140.121C8.25137 140.404 6.99696 140.665 5.74254 140.927C5.60316 140.744 5.47343 140.553 5.33681 140.368C9.70451 139.455 14.057 138.427 18.3447 137.276C15.1997 136.463 12.0284 135.765 8.83924 135.178C8.81578 135.196 8.79648 135.229 8.75784 135.238Z" fill="#33896E"/>
<path opacity="0.6" d="M39.7375 140.551C39.3014 138.575 36.9968 137.593 35.3739 136.765C31.5996 134.838 27.5204 133.525 23.3252 132.914C18.8484 132.261 14.2558 132.489 9.77354 132.994C7.89674 133.205 6.68511 134.265 8.24037 135.906C8.55639 136.238 9.0049 136.441 9.57346 136.328C14.133 137.589 18.6939 138.851 23.2534 140.113C25.6712 140.783 28.0889 141.451 30.5066 142.12C31.6231 142.429 32.7381 142.737 33.8545 143.046C34.8909 143.333 36.0239 143.794 37.1169 143.797C38.8846 143.802 40.1197 142.281 39.7375 140.551Z" fill="white"/>
</svg>
