<svg width="159" height="210" viewBox="0 0 159 210" fill="none" xmlns="http://www.w3.org/2000/svg">
<path d="M24.3007 176.248C6.02676 142.6 21.1736 89.8311 40.1224 61.2389C54.4385 39.6378 78.9004 13.3391 107.029 13.9711C134.904 14.5977 152.857 39.4183 156.623 65.0201C162.84 107.291 150.488 155.282 119.132 185.48C100.8 203.136 70.9447 210.679 47.6144 198.788C36.8974 193.327 29.3322 185.512 24.3007 176.248Z" fill="#FFF7EE"/>
<path d="M76.7297 197.035C69.1176 191.249 60.1959 187.196 50.8299 185.269C52.3865 183.588 54.2412 182.309 56.3651 181.451C50.6822 178.282 44.584 176.292 38.1077 175.663C39.8617 173.925 41.6294 172.558 43.6622 171.157C38.2043 169.534 32.4773 169.093 26.8538 169.984C28.2352 168.345 29.6634 166.954 31.3636 165.648C25.6242 165.332 19.9165 166.195 14.5525 168.262C15.9849 166.533 17.5857 164.982 19.3369 163.578C13.0413 163.262 6.85342 162.706 0.557861 162.39C5.71768 158.943 11.6696 157.077 17.8741 157.194C16.5217 155.849 14.9761 154.883 13.1973 154.191C19.6447 152.898 26.4274 153.707 32.2703 156.724C31.0034 155.262 29.8953 153.819 28.6284 152.357C36.8077 153.38 44.5205 157.065 50.4228 162.816C49.7618 160.458 49.2857 158.195 48.6247 155.838C55.9773 160.559 62.0921 166.814 66.6433 174.273C66.9193 172.758 67.4686 171.338 67.7459 169.823C73.2535 177.803 76.0921 187.36 76.7297 197.035Z" fill="#5FC5A9"/>
<path d="M70.7778 187.97C67.1719 183.498 63.2513 179.48 59.0396 175.982C59.0589 175.937 59.1017 175.904 59.1003 175.853C58.943 171.255 58.1232 166.631 56.7846 162.186C56.4755 161.897 56.1623 161.614 55.8462 161.333C57.3201 165.905 58.195 170.703 58.3965 175.47C54.4373 172.251 50.2545 169.457 45.8536 167.174C45.8868 167.094 45.9516 167.024 45.9171 166.937C44.2308 162.876 42.0835 159.053 39.5788 155.464C39.1965 155.291 38.8115 155.126 38.4237 154.966C41.0761 158.634 43.3186 162.576 45.0947 166.76C39.9873 164.191 34.6053 162.346 29.1543 161.213C29.1446 161.187 29.1529 161.158 29.1363 161.134C27.2927 158.44 25.0612 155.992 22.602 153.806C22.2239 153.762 21.843 153.736 21.4635 153.707C23.9986 155.869 26.2991 158.323 28.2117 161.027C27.3589 160.862 26.5047 160.716 25.6504 160.588C25.6435 160.577 25.6491 160.564 25.6408 160.555C25.529 160.41 25.3179 160.381 25.1702 160.494C25.1606 160.501 25.1523 160.508 25.144 160.515C16.9951 159.357 8.81722 159.829 1.27552 161.944C1.03816 162.095 0.793889 162.23 0.560669 162.386C1.00641 162.408 1.44526 162.445 1.891 162.47C9.04216 160.528 16.7577 160.07 24.4664 161.091C22.2695 162.854 20.2381 164.841 18.4193 167.005C18.7905 166.904 19.1672 166.835 19.5412 166.745C21.3048 164.728 23.2396 162.858 25.3441 161.22C30.1548 161.926 34.9461 163.195 39.5816 165.03C37.0354 166.313 34.6453 167.851 32.3959 169.581C32.7492 169.578 33.1011 169.589 33.4544 169.598C35.6127 167.996 37.9021 166.574 40.3323 165.383C40.3475 165.376 40.3599 165.367 40.3737 165.358C41.9096 165.99 43.4331 166.665 44.9263 167.42C47.8188 168.883 50.6009 170.608 53.3112 172.483C49.9233 173.424 46.7065 174.804 43.7036 176.597C44.0058 176.666 44.3025 176.759 44.6034 176.833C47.5524 175.133 50.7071 173.833 54.0274 172.965C59.0106 176.502 63.6626 180.709 67.9019 185.541C64.2132 185.399 60.5603 185.902 57.0358 186.892C57.3987 187.005 57.7631 187.115 58.1246 187.235C61.5056 186.383 65.0081 186.025 68.5243 186.228C71.2967 189.456 73.8745 192.967 76.2675 196.701C76.4206 196.814 76.5807 196.919 76.7325 197.034C76.7105 196.709 76.6663 196.386 76.6401 196.061C74.9386 193.451 73.1473 190.948 71.2636 188.573C72.3027 186.17 73.0162 183.627 73.4343 181.035C73.2715 180.583 73.1211 180.123 72.9458 179.674C72.5981 182.526 71.8805 185.33 70.7778 187.97Z" fill="#33896E"/>
<path d="M75.2697 177.973C82.3767 169.743 91.348 163.131 101.314 158.78C99.1864 157.276 96.8211 156.289 94.2557 155.835C99.8323 150.971 106.149 147.321 113.206 145.095C110.846 143.574 108.557 142.47 105.965 141.389C111.655 138.297 117.923 136.457 124.391 136.125C122.468 134.626 120.55 133.414 118.352 132.363C124.664 130.659 131.216 130.275 137.672 131.31C135.671 129.724 133.525 128.375 131.244 127.227C138.174 125.391 144.929 123.316 151.858 121.48C145.306 118.86 138.243 118.187 131.368 119.779C132.556 117.963 134.048 116.523 135.864 115.336C128.384 115.416 121.03 117.914 115.239 122.648C116.304 120.723 117.195 118.857 118.262 116.932C109.403 119.995 101.69 125.913 96.4775 133.704C96.6583 130.925 96.6541 128.295 96.8349 125.515C89.7666 132.499 84.4356 140.901 81.1292 150.273C80.464 148.652 79.5187 147.201 78.8549 145.58C74.6073 155.755 73.7006 167.057 75.2697 177.973Z" fill="#5FC5A9"/>
<path d="M79.756 166.485C82.7147 160.661 86.1302 155.265 89.9929 150.381C89.9611 150.336 89.9059 150.311 89.8949 150.253C88.9868 145.1 88.8102 139.761 89.2532 134.502C89.5292 134.108 89.8107 133.719 90.0963 133.332C89.5333 138.766 89.6892 144.311 90.589 149.661C94.2363 145.147 98.2328 141.053 102.589 137.477C102.534 137.396 102.445 137.332 102.464 137.229C103.384 132.313 104.872 127.553 106.814 122.97C107.199 122.689 107.588 122.414 107.981 122.145C105.895 126.851 104.328 131.767 103.337 136.839C108.414 132.778 113.969 129.456 119.766 126.912C119.77 126.88 119.754 126.85 119.768 126.819C121.185 123.389 123.091 120.139 125.311 117.128C125.722 116.99 126.139 116.871 126.555 116.748C124.243 119.751 122.263 123.023 120.771 126.483C121.682 126.099 122.597 125.735 123.519 125.391C123.523 125.379 123.514 125.365 123.521 125.352C123.611 125.165 123.84 125.082 124.031 125.174C124.042 125.18 124.054 125.185 124.065 125.191C132.86 121.982 142.07 120.58 150.96 121.159C151.259 121.269 151.563 121.363 151.86 121.481C151.37 121.611 150.889 121.756 150.4 121.889C141.986 121.414 133.293 122.721 124.957 125.673C127.816 127.116 130.544 128.848 133.078 130.828C132.64 130.803 132.206 130.816 131.768 130.803C129.33 128.973 126.737 127.349 124.01 126.023C118.824 127.943 113.791 130.482 109.066 133.616C112.201 134.444 115.223 135.592 118.134 136.987C117.741 137.069 117.35 137.162 116.959 137.255C114.18 135.981 111.299 134.938 108.314 134.186C108.296 134.182 108.279 134.175 108.263 134.168C106.702 135.233 105.167 136.343 103.682 137.535C100.809 139.844 98.1197 142.419 95.546 145.144C99.5369 145.393 103.442 146.17 107.206 147.459C106.884 147.606 106.578 147.779 106.26 147.933C102.578 146.735 98.7628 146.033 94.8643 145.849C90.1529 150.958 85.9688 156.736 82.3904 163.111C86.4614 162.082 90.6442 161.783 94.798 162.053C94.4213 162.266 94.0418 162.474 93.6678 162.692C89.7058 162.539 85.7245 162.967 81.8591 164.021C79.5352 168.266 77.4928 172.779 75.7098 177.498C75.5663 177.661 75.4132 177.814 75.271 177.979C75.2186 177.612 75.1923 177.242 75.144 176.875C76.4233 173.57 77.8254 170.364 79.3613 167.277C77.6405 164.848 76.2453 162.187 75.1703 159.401C75.2448 158.859 75.3041 158.314 75.3938 157.773C76.4481 160.856 77.9068 163.807 79.756 166.485Z" fill="#33896E"/>
<path d="M74.8102 131.115C77.7137 123.463 82.1187 116.315 87.9299 110.528C88.2597 110.199 88.2721 109.659 87.9464 109.321C87.618 108.98 87.0742 108.969 86.7334 109.298C80.6158 115.185 75.9515 122.474 72.8092 130.338C70.7075 135.653 69.3026 141.282 68.792 147.013C65.7836 137.571 62.7559 128.191 60.9232 118.532C58.028 103.673 57.6982 88.3822 58.6559 73.2298C59.6122 58.054 61.8216 42.9623 64.0627 27.8816C64.1221 27.4801 63.8474 27.1047 63.4459 27.0398C63.0415 26.9764 62.662 27.2524 62.5985 27.6567C60.2194 42.7194 57.8652 57.829 56.7625 73.1015C55.6613 88.3491 55.8435 103.819 58.6504 118.963C61.3966 134.142 66.9663 148.49 70.8261 163.134C72.7623 170.449 74.2637 177.875 74.8309 185.362C75.3981 192.833 74.9965 200.383 73.099 207.562L73.0949 207.576C72.881 208.417 73.3901 209.273 74.2319 209.487C75.0737 209.701 75.9293 209.192 76.1433 208.35C78.0808 200.739 78.4147 192.839 77.7592 185.127C77.1037 177.399 75.4933 169.824 73.4619 162.423C72.7678 159.887 72.0171 157.371 71.2498 154.861C70.5584 146.864 71.9605 138.692 74.8102 131.115Z" fill="#33896E"/>
<path d="M112.252 90.9407C108.579 91.4251 105.072 92.5415 101.806 94.232C102.748 91.1449 103.223 87.9392 103.175 84.6962C103.165 84.0503 102.585 83.675 101.986 83.7909C99.6639 84.2394 97.2986 84.7321 95.201 85.8706C93.0647 87.0284 91.5619 88.8569 90.6318 91.0814C89.6134 93.5171 89.129 96.2012 88.7522 98.8012C88.3327 101.702 88.1547 104.621 88.243 107.55C88.2679 108.377 89.1497 108.624 89.6948 108.318C99.5301 107.563 109.408 101.494 113.158 92.1275C113.366 91.6059 112.822 90.8648 112.252 90.9407Z" fill="#A32D2B"/>
<path d="M106.58 89.9208C106.563 89.4295 106.238 89.1494 105.866 89.0569C105.689 88.9617 105.485 88.9065 105.243 88.9492C100.503 89.791 94.7967 89.3812 91.4074 93.4839C88.1699 97.4018 88.1382 103.192 87.9615 108.008C87.9588 108.093 87.9836 108.157 87.9988 108.229C87.9905 108.704 88.2872 109.159 88.8972 109.112C93.821 108.729 99.1933 108.106 102.888 104.456C106.745 100.646 106.76 94.9674 106.58 89.9208Z" fill="#D35D57"/>
<path d="M91.94 108.312C90.3282 107.742 88.8254 106.249 88.4128 104.567C88.3355 104.252 88.421 103.71 88.1036 103.71C87.76 103.71 87.5019 103.945 87.3888 104.254C86.7222 106.084 86.2406 107.974 85.9508 109.899C85.915 110.134 85.9688 110.364 86.0958 110.542C86.2545 110.85 86.5953 110.992 86.9389 110.925C88.7095 110.578 90.629 109.801 92.2988 109.117C92.9709 108.842 92.6687 108.57 91.94 108.312Z" fill="#33896E"/>
<path d="M94.1026 38.803C91.6283 35.2702 91.4171 30.563 88.5495 27.2869C87.066 25.5908 84.9352 24.433 82.7673 24.3682C83.696 20.3938 82.6389 16.0081 79.6526 13.077C77.4681 10.9339 74.4031 10.2218 72.5111 7.73088C70.6854 5.3283 69.0115 3.2928 66.0058 2.36958C64.6465 1.95282 63.1961 1.83137 61.7871 2.00111C60.0801 2.20673 58.5731 3.00989 56.9075 3.36317C53.9101 3.99935 51.2371 1.77894 48.5626 0.788098C46.0648 -0.137882 43.5739 0.0277175 41.428 1.67958C40.3958 2.47446 39.5636 3.54257 38.4955 4.28501C36.8078 5.45801 34.9296 4.84668 33.0459 4.64106C27.4265 4.02972 22.6269 9.06396 23.4107 14.5536C17.8907 17.6269 16.3148 24.462 19.4211 29.47C18.3558 29.9434 17.4767 30.7534 16.5659 31.6559C12.4342 35.7532 14.8575 42.2543 14.8575 42.2543C14.8575 42.2543 10.1945 45.2006 9.06424 48.3098C8.15896 50.7979 8.32318 53.5317 9.3913 55.9412C10.625 58.7219 12.8827 59.6575 14.8989 61.6751C17.0048 63.7837 15.9132 67.4669 17.0558 70.1014C18.7353 73.9709 22.6531 76.3803 26.7462 76.4618C25.587 84.1304 32.6236 90.869 40.3834 89.1619C44.7924 95.7404 54.5932 95.79 59.0147 89.3178C62.088 91.4417 65.5835 93.2509 69.402 92.99C71.305 92.8603 73.197 92.2793 74.755 91.1601C75.4119 90.6882 75.9818 90.139 76.4717 89.4959C77.1217 88.6417 77.3798 87.5763 78.0008 86.7276C79.3325 84.9046 82.374 86.2308 84.3515 85.6636C85.9854 85.1944 87.3254 83.969 88.1741 82.5269C90.2372 79.0162 89.165 75.1439 87.7091 71.6304C92.9213 68.6054 95.3901 62.2671 93.5478 56.4973C95.8262 54.6619 97.3567 52.0924 97.7665 49.1447C98.3475 44.9605 96.3976 42.0805 94.1026 38.803Z" fill="#A32D2B"/>
<path d="M51.9326 40.8895C46.8349 36.4404 40.778 33.0925 34.2989 31.1426C31.4327 30.2801 28.2049 29.4976 26.5558 26.9998C25.4476 25.3217 25.3248 23.0406 26.2466 21.2535C27.1685 19.4664 29.0991 18.2437 31.1084 18.1747C30.3439 15.7307 32.5767 12.8369 34.9572 11.893C37.3377 10.949 40.0149 11.2858 42.532 11.755C42.8135 10.426 43.4953 9.4752 44.671 8.79486C45.8482 8.11452 47.2337 7.85646 48.593 7.8744C51.4841 7.91166 54.3379 9.2061 56.2727 11.3548C58.8077 10.1859 61.5802 9.30961 64.3609 9.5511C67.1416 9.7926 69.9512 11.4845 70.7709 14.152C72.9086 15.0794 75.5071 16.2041 77.0472 17.9539C78.5873 19.7024 79.3173 22.3754 78.1815 24.4096C77.0417 26.4533 74.5328 27.1985 72.3041 27.9148C64.9018 30.2953 57.6306 35.5972 51.9326 40.8895Z" fill="#D35D57"/>
<path d="M49.7288 44.0568C44.7801 38.7356 38.1188 35.033 30.987 33.6406C28.8521 33.2238 26.6248 33.0113 24.5162 33.5412C22.4061 34.0712 20.4189 35.4456 19.602 37.4618C18.785 39.478 19.4295 42.1124 21.3228 43.1833C19.8587 44.0403 18.2468 45.3209 16.9993 46.4705C15.7504 47.62 14.732 49.0911 14.4242 50.7609C14.0088 53.0117 14.9776 55.3908 16.6405 56.964C18.3034 58.5372 20.579 59.3597 22.8588 59.5611C22.5483 61.7636 22.2737 64.0944 23.0506 66.1782C23.8275 68.262 25.961 70.0133 28.1456 69.5965C30.0776 69.2294 31.3347 67.4189 32.4291 65.7849C37.4937 58.2212 42.9198 50.1026 49.7288 44.0568Z" fill="#D35D57"/>
<path d="M54.2137 42.1814C59.7475 37.7005 66.0238 34.1373 72.7071 31.6809C74.6529 30.9661 76.6733 30.3382 78.746 30.3589C79.4816 30.3672 80.3868 30.6722 81.2507 31.0641C83.4214 32.0494 84.9684 34.2008 84.8621 36.5827C84.829 37.332 84.6538 38.0248 84.2232 38.4719C87.5476 38.7741 90.7064 41.8267 91.5772 45.0504C92.448 48.2727 91.1218 51.9711 88.4018 53.9058C89.1843 55.6212 89.6935 57.7864 89.6052 59.6687C89.5169 61.5524 88.2293 63.5231 86.3539 63.708C85.2665 63.8156 84.2163 63.3243 83.2558 62.8027C72.7623 57.1074 65.3738 46.4235 54.2137 42.1814Z" fill="#D35D57"/>
<path d="M51.5807 44.1768C53.3526 55.1381 54.4649 66.2057 54.9093 77.2995C54.9934 79.4151 54.9727 81.7652 53.5444 83.3274C52.1824 84.8164 49.9606 85.1076 47.943 85.0827C46.6389 85.0662 45.3003 84.9475 44.1287 84.3748C42.9571 83.8021 41.9745 82.6926 41.8765 81.3926C40.1322 81.8218 38.2402 82.2013 36.46 81.9625C34.6798 81.7238 32.9148 80.8696 31.9157 79.3764C30.8834 77.8336 30.7965 75.8105 31.2561 74.0124C31.7156 72.2142 32.6664 70.5872 33.6062 68.9864C38.6722 60.3517 45.4383 52.0814 51.5807 44.1768Z" fill="#D35D57"/>
<path d="M54.9368 44.8779C62.7351 50.035 69.9388 56.0932 76.3571 62.8911C78.256 64.9017 80.1245 67.0407 81.0988 69.6282C82.0731 72.2157 81.9875 75.369 80.217 77.4928C78.4464 79.6167 74.7757 80.1107 72.9223 78.0586C72.7319 80.6185 70.2327 83.2364 67.7997 84.0561C65.3682 84.8772 62.4785 84.1086 60.7769 82.1876C59.0409 80.2294 58.6324 77.4652 58.2971 74.8708C57.0178 64.9583 56.2174 54.7905 54.9368 44.8779Z" fill="#D35D57"/>
<path d="M51.6455 39.9012C51.3171 39.3712 50.9514 38.8662 50.6091 38.3459C48.5847 29.1206 45.9337 20.0361 42.7197 11.1558C42.6534 11.3517 42.5789 11.5408 42.5334 11.7561C42.3802 11.7271 42.2229 11.7078 42.0697 11.6815C45.0077 19.8194 47.4834 28.127 49.4182 36.5602C44.4129 29.3952 38.1643 23.1742 31.0007 18.1951C30.6129 18.2172 30.2334 18.2931 29.8608 18.3952C37.7738 23.7676 44.5937 30.651 49.8694 38.6605C49.9233 38.9076 49.973 39.1546 50.0282 39.4016C50.3856 39.6817 50.7513 39.9495 51.1004 40.2406L51.6455 39.9012Z" fill="#A32D2B"/>
<path d="M57.0344 36.5384C60.0869 28.3977 64.8769 20.7981 71.0621 14.2831C70.9669 14.2417 70.8647 14.1948 70.7709 14.1548C70.7185 13.9823 70.6343 13.8263 70.5667 13.6621C63.9634 20.5966 58.925 28.7524 55.8545 37.4837C56.245 37.1649 56.6369 36.8502 57.0344 36.5384Z" fill="#A32D2B"/>
<path d="M50.2241 8.06877C49.9578 8.02185 49.6901 7.99839 49.4224 7.97217L52.5053 40.376C52.7454 40.1565 52.991 39.9385 53.2353 39.7205L50.2241 8.06877Z" fill="#A32D2B"/>
<path d="M56.7805 11.1434C56.6135 11.2165 56.4396 11.2772 56.274 11.3545C56.1898 11.2607 56.0794 11.1917 55.9925 11.1006L53.4464 39.5313C53.7335 39.2774 54.0136 39.0235 54.3061 38.771L56.7805 11.1434Z" fill="#A32D2B"/>
<path d="M49.7287 44.0568C49.3464 43.6456 48.9352 43.2619 48.5322 42.87C48.5198 42.8797 48.5074 42.8893 48.4936 42.899C39.2669 39.4725 29.4289 37.6647 19.5812 37.5474C19.4846 37.7985 19.4639 38.0704 19.4114 38.3353C29.0618 38.4347 38.6997 40.1652 47.7594 43.4662C47.5703 43.6125 47.3799 43.7574 47.1922 43.905C46.8182 43.9561 46.447 44.0099 46.073 44.0623C37.6633 42.5995 29.1708 42.1276 20.6893 42.6133C20.8977 42.8065 21.0688 43.0384 21.3214 43.1805C21.1958 43.2537 21.0647 43.3641 20.9377 43.4427C28.4753 43.0246 36.017 43.3102 43.5021 44.4418C38.7466 45.147 33.9746 45.9778 29.3074 47.1673C23.6839 48.6012 18.7946 50.4448 14.4089 52.6597C14.4448 52.9261 14.5262 53.1855 14.5952 53.4463C18.9712 51.2176 23.8647 49.3684 29.502 47.9305C34.8909 46.556 40.4357 45.6493 45.9309 44.8793C45.1153 45.5362 44.279 46.1668 43.4772 46.8403C40.0369 48.3679 36.6352 50.017 33.3743 51.8952C29.3226 54.2288 25.8174 56.7997 22.7704 59.5432C22.7993 59.5459 22.8297 59.5542 22.8587 59.557C22.8062 59.9282 22.7621 60.3049 22.7165 60.6803C25.8505 57.7657 29.4965 55.0389 33.769 52.5783C36.2502 51.1486 38.8322 49.8749 41.439 48.6605C34.9654 54.3061 28.9762 60.4857 23.5625 67.1787C23.7074 67.4106 23.8661 67.6327 24.0413 67.8425C30.0043 60.4333 36.6435 53.6202 43.9051 47.5123C45.2188 46.93 46.5409 46.3738 47.8615 45.8205C48.4742 45.2257 49.0897 44.624 49.7287 44.0568ZM49.0994 44.4501C49 44.4915 48.902 44.5302 48.8027 44.5716C48.7171 44.555 48.6316 44.5412 48.546 44.5233C48.7295 44.4998 48.9145 44.475 49.0994 44.4501ZM46.1793 45.6866C46.4525 45.4658 46.7382 45.2602 47.0128 45.0421C47.1688 45.0711 47.3261 45.1001 47.482 45.1291C47.0473 45.3112 46.614 45.5017 46.1793 45.6866Z" fill="#A32D2B"/>
<path d="M49.1325 85.0399C49.4016 85.0233 49.6611 84.9874 49.9274 84.9515C50.7816 72.3149 51.4923 59.623 51.996 47.0236C51.8525 46.0756 51.7324 45.1234 51.5792 44.1753C51.3695 44.4458 51.1501 44.7245 50.9389 44.995C50.9169 45.0668 50.8962 45.1399 50.8727 45.2117C44.5716 56.7637 38.6528 68.6468 33.188 80.6487C33.4019 80.8074 33.6089 80.973 33.8421 81.1027C38.7687 70.2835 44.0693 59.5664 49.6817 49.0936C46.418 59.7334 43.6512 70.5678 41.4542 81.4891C41.595 81.456 41.7385 81.427 41.8778 81.3925C41.9027 81.7141 41.9827 82.0232 42.1042 82.3157C44.4874 70.318 47.5441 58.4183 51.2205 46.7711C50.7126 59.4836 49.9909 72.2956 49.1325 85.0399Z" fill="#A32D2B"/>
<path d="M57.712 41.9355C66.5164 39.7123 75.6657 38.5752 84.7489 38.5738C84.5736 38.5421 84.3998 38.4882 84.2232 38.4731C84.3998 38.2881 84.5102 38.0425 84.6082 37.7886C75.1165 37.7983 65.5517 39.0292 56.3844 41.4456C65.1212 37.7831 74.1698 34.8671 83.3882 32.7212C83.1909 32.4963 83.017 32.252 82.7865 32.0547C73.7213 34.1882 64.8314 37.0793 56.2354 40.6783C55.5619 41.182 54.8664 41.654 54.2123 42.1825C54.6014 42.3302 54.9547 42.5413 55.3356 42.7055C55.5868 42.7069 55.8365 42.7097 56.0877 42.7124C56.826 42.9401 57.5629 43.1678 58.2998 43.3983C63.4459 45.5952 68.1655 48.4781 72.2917 51.198C74.0388 52.349 75.7693 53.5275 77.4998 54.706C81.154 57.1955 84.9131 59.7402 88.813 62.0173C88.9552 61.7964 89.0821 61.566 89.1856 61.3217C85.3161 59.0627 81.5804 56.5317 77.9441 54.0546C76.2095 52.8747 74.4762 51.6921 72.725 50.5384C69.9402 48.703 66.8821 46.7931 63.6101 45.0612C66.6337 46.0258 69.6435 46.9946 72.5953 47.9495C77.9538 49.68 83.4352 51.4699 88.4708 54.0988C88.4446 54.0367 88.4239 53.9677 88.3963 53.9084C88.5895 53.7704 88.7592 53.6061 88.9386 53.4516C83.8202 50.7661 78.2671 48.9528 72.8382 47.1988C68.2924 45.7305 63.628 44.2415 58.9333 42.7704C69.9871 43.1195 81.0091 44.5837 91.8145 47.0346C91.8131 46.7627 91.8159 46.4923 91.7869 46.2218C80.5979 43.6909 69.188 42.2115 57.712 41.9355Z" fill="#A32D2B"/>
<path d="M55.7813 45.6023C55.7413 45.532 55.7027 45.4602 55.664 45.3884C55.4184 45.2228 55.1838 45.0407 54.9368 44.8765C54.9906 45.2932 55.0334 45.7169 55.0858 46.135C59.8454 58.5191 64.4574 71.0509 68.8996 83.5537C69.1328 83.4254 69.3661 83.2929 69.591 83.137C65.7201 72.2695 61.7222 61.3868 57.6112 50.5841C62.7959 59.9792 67.837 69.4915 72.7374 79.0411C72.8326 78.7141 72.8989 78.3842 72.9223 78.0558C73.0245 78.169 73.15 78.2462 73.2632 78.3442C68.1392 68.3668 62.8649 58.4239 57.4346 48.6232C65.4993 57.8995 72.9347 67.7417 79.6829 78.0047C79.8692 77.8419 80.0583 77.6804 80.217 77.4914C80.2294 77.4776 80.2336 77.4583 80.2446 77.4431C72.8823 66.2665 64.6906 55.5991 55.7813 45.6023Z" fill="#A32D2B"/>
<path d="M60.4762 40.7652C59.6427 37.0088 55.9167 34.0929 52.0665 34.2502C47.9831 34.4172 44.3426 37.5567 43.7865 41.636C43.4608 44.0192 44.1342 46.5308 45.8454 48.2683C47.1813 49.6248 48.9463 50.341 50.79 50.41C52.2707 50.7895 53.8411 50.7799 55.2819 50.2361C59.0313 48.8203 61.3497 44.7079 60.4762 40.7652Z" fill="#FFB552"/>
<path d="M56.8096 41.5143C56.3445 39.4181 54.2649 37.7911 52.1176 37.8794C49.8392 37.9732 47.8078 39.7245 47.4973 42.0001C47.3166 43.329 47.6919 44.7311 48.6469 45.7013C49.3921 46.4575 50.3774 46.8577 51.4055 46.8963C52.2321 47.1075 53.1084 47.1033 53.9116 46.7997C56.0037 46.0076 57.2981 43.714 56.8096 41.5143Z" fill="#F78721"/>
<path opacity="0.6" d="M54.4138 6.68912C47.2861 6.38414 39.7678 7.42328 33.78 11.2542C30.0112 13.665 26.7572 17.0336 24.7465 21.0535C23.8316 22.8834 22.8449 25.0693 22.8104 27.1531C22.7662 29.8055 25.3675 32.0563 27.9067 30.6928C28.91 30.1546 29.6731 29.2687 30.4749 28.4586C38.3575 20.4919 50.1992 20.6257 60.425 18.2618C61.8023 17.943 63.203 17.5539 64.3401 16.7134C67.5624 14.3343 66.2693 9.62714 62.967 8.06912C60.4292 6.87266 57.1779 6.80642 54.4138 6.68912Z" fill="white"/>
</svg>
