<svg width="133" height="255" viewBox="0 0 133 255" fill="none" xmlns="http://www.w3.org/2000/svg">
<path d="M34.7574 66.7197C19.9345 85.6095 10.9357 110.21 7.91612 135.547C5.521 155.65 7.12182 177.474 17.3292 193.929C27.4962 210.319 45.4291 219.151 62.779 218.146C80.129 217.14 96.6187 206.949 108.387 192.079C120.154 177.21 127.402 157.965 130.617 138.101C135.393 108.598 131.18 76.6452 116.617 51.864C105.868 33.5729 94.4191 30.5611 76.8797 36.2377C60.7383 41.4607 46.034 52.3489 34.7574 66.7197Z" fill="white"/>
<path d="M105.836 137.254C108.275 137.12 110.773 137.39 113.02 138.505C115.266 139.62 117.244 141.655 118.117 144.308C118.991 146.962 118.602 150.231 116.872 152.237C115.299 154.06 112.91 154.616 110.697 154.421C108.484 154.225 106.358 153.379 104.201 152.769C100.894 151.835 97.4741 151.457 94.0757 151.64C92.3698 151.732 90.6981 152.008 89.0166 152.335C87.9437 152.544 86.9368 152.701 86.3759 151.388C85.2736 148.814 88.204 146.265 89.6129 144.857C91.7624 142.708 94.2028 140.954 96.8129 139.671C99.67 138.265 102.735 137.424 105.836 137.254Z" fill="#33896E"/>
<path d="M125.096 56.4979C123.47 54.3237 121.001 53.2287 118.552 52.7893C114.224 52.0129 109.666 53.1007 105.949 55.7954C98.872 60.9274 95.4968 70.9696 88.909 76.9178L86.3208 82.5504C92.3159 84.7829 99.4219 82.0527 103.095 76.103C104.865 73.2377 106.019 69.6016 108.668 67.8839C110.438 66.7349 112.577 66.6766 114.593 66.9112C116.609 67.1458 118.619 67.645 120.643 67.5042C122.667 67.3634 124.783 66.4548 125.903 64.4895C127.272 62.0878 126.723 58.6721 125.096 56.4979Z" fill="#4D52A8"/>
<path d="M100.083 74.9967C102.025 71.8385 103.161 68.0033 105.51 65.2461C108.286 61.9854 112.304 60.7341 116.078 59.396C119.851 58.0579 123.831 56.2789 126.02 52.4609C128.041 48.9357 128.075 44.1308 126.46 40.3326C124.844 36.5345 121.743 33.7417 118.292 32.3865C114.874 31.0455 111.08 31.0413 107.659 32.3765C102.219 34.4996 98.0471 39.7923 95.3587 45.6907C92.6691 51.5892 91.2577 58.1375 89.707 64.5664C89.0239 67.3961 88.3078 70.2174 87.4353 72.9775C86.9795 74.4165 86.4846 75.84 85.9286 77.2307C85.5082 78.2844 84.5233 79.6964 84.4842 80.8753C84.3229 85.7485 93.1738 81.5635 94.7649 80.5141C96.8459 79.1404 98.6887 77.2648 100.083 74.9967Z" fill="#6265CE"/>
<path d="M70.6108 50.6364C69.0332 49.2315 67.1562 48.2048 65.1741 48.0413C63.1921 47.8778 61.1073 48.657 59.7753 50.3734C58.4434 52.0897 58.0132 54.7773 58.9603 56.8094C59.9281 58.884 61.9835 59.8752 63.4902 61.4579C65.8169 63.9023 66.7249 67.6265 68.2475 70.8146C71.4394 77.4966 77.7888 81.9745 84.3559 82.1778L70.6108 50.6364Z" fill="#4D52A8"/>
<path d="M75.841 25.6576C73.1025 22.2334 69.142 20.0649 65.124 20.1971C61.1061 20.3294 57.1309 22.9046 55.1989 27.0057C53.267 31.1067 53.6262 36.6198 56.3097 40.1037C57.9741 42.2637 60.3338 43.5492 62.0727 45.6282C64.0902 48.0399 65.124 51.3404 65.7607 54.6223C66.3974 57.9043 66.6967 61.2787 67.5277 64.501C70.0132 74.1393 77.5701 81.7342 86.1265 83.1946L75.841 25.6576Z" fill="#6265CE"/>
<path d="M76.5827 76.035C75.0418 72.5028 74.619 68.4629 74.4284 64.5083C74.2377 60.5537 74.2536 56.5522 73.4935 52.6914C72.7274 48.7952 71.1986 45.1662 70.0988 41.3809C68.999 37.5941 68.3343 33.4404 69.3473 29.6209C70.5974 24.9098 74.1546 21.5553 77.7742 18.9886C81.3925 16.4219 85.3335 14.2719 88.237 10.6813C90.191 8.2639 91.6244 5.24784 93.9034 3.25278C97.0745 0.475609 101.667 0.19263 105.147 2.41522C108.627 4.6378 110.868 9.1882 110.911 13.8069C110.941 17.0234 109.998 20.2187 110.338 23.411C110.859 28.307 114.264 32.1976 115.163 37.0182C116.042 41.7449 114.345 46.6991 111.756 50.4817C109.166 54.2642 105.749 57.1352 102.531 60.1953C99.312 63.2555 96.1751 66.6754 94.4582 71.0793C93.3205 74.0001 92.8378 77.2793 91.3115 79.9498C87.3217 86.9289 79.1477 81.915 76.5827 76.035Z" fill="#7B85E8"/>
<path opacity="0.5" d="M93.8972 7.7092C92.6826 9.18524 91.92 11.0808 90.8508 12.7018C89.7632 14.3499 88.3506 15.708 86.7546 16.6408C86.074 17.0389 85.3566 17.3632 84.7298 17.8651C84.1029 18.3671 83.5591 19.0909 83.4308 19.9654C83.234 21.3049 84.0919 22.6146 85.1526 23.1834C87.0968 24.2257 89.4161 23.2758 91.1844 21.8723C92.9526 20.4674 94.4703 18.6088 96.4097 17.5537C97.6573 16.8754 99.0235 16.5612 100.336 16.0805C101.65 15.5999 102.966 14.9059 103.841 13.6688C104.867 12.2155 105.127 10.0839 104.487 8.35622C102.632 3.34935 96.5783 4.45282 93.8972 7.7092Z" fill="white"/>
<path d="M81.7897 84.6125C81.764 84.6097 81.7396 84.594 81.7213 84.5684C78.0113 79.1321 77.7962 71.5927 77.9575 66.3939C78.0027 64.9406 78.0809 63.4574 78.1555 62.024C78.4084 57.2035 78.6699 52.2194 77.7363 47.4727C77.4308 45.9199 76.9933 44.377 76.5693 42.8853C76.1208 41.3055 75.6565 39.6716 75.3473 38.0164C74.8414 35.3118 74.6043 31.4482 76.3567 28.4051C76.3884 28.3511 76.452 28.3383 76.496 28.3724C76.5424 28.408 76.5546 28.4805 76.5241 28.5345C74.8108 31.5093 75.0455 35.3047 75.544 37.9652C75.8507 39.6076 76.3139 41.2358 76.7611 42.81C77.1864 44.3073 77.6251 45.8559 77.9331 47.4187C78.874 52.1994 78.6113 57.2006 78.3571 62.0368C78.2813 63.4688 78.2043 64.9505 78.1591 66.401C77.999 71.5628 78.2105 79.0454 81.8789 84.422C81.9131 84.4732 81.9058 84.5457 81.863 84.5869C81.8422 84.6068 81.8154 84.6154 81.7897 84.6125Z" fill="#A9B3FF"/>
<path d="M83.1277 83.9584C83.0935 83.9541 83.063 83.93 83.0471 83.8916C83.0239 83.8333 83.0459 83.7636 83.096 83.7366C85.4117 82.4881 87.1542 79.7393 88.2736 75.5643C88.5803 74.4239 88.8345 73.238 89.0825 72.0918C89.5616 69.8664 90.0577 67.5642 90.9497 65.4753C92.2292 62.4805 94.2858 60.0077 96.318 57.7808C96.6822 57.3827 97.0488 56.9873 97.4154 56.5906C99.1066 54.7662 100.857 52.8806 102.262 50.712C103.619 48.6174 105.207 45.3412 105.058 41.6326C105.055 41.5672 105.098 41.5131 105.153 41.5103C105.212 41.5089 105.256 41.5572 105.258 41.6212C105.41 45.3995 103.799 48.7269 102.422 50.8528C101.006 53.0384 99.2496 54.9311 97.551 56.7627C97.1844 57.158 96.8178 57.5533 96.4549 57.9515C94.4361 60.1627 92.393 62.6185 91.1282 65.5791C90.2459 67.6452 89.7522 69.9346 89.2756 72.1487C89.0275 73.2977 88.7721 74.4865 88.4642 75.634C87.3265 79.8744 85.5485 82.6715 83.1791 83.9485C83.1644 83.9584 83.1448 83.9612 83.1277 83.9584Z" fill="#A9B3FF"/>
<path d="M81.2936 83.4225C81.2606 83.4182 81.23 83.3955 81.2141 83.3571C79.4667 79.2034 80.1754 74.2804 80.9881 70.4538C81.1445 69.7187 81.3107 68.9821 81.4781 68.244C82.2602 64.7857 83.0691 61.208 82.7905 57.6345C82.6378 55.6721 82.1551 53.7396 81.687 51.8711C81.406 50.7478 81.1164 49.5874 80.8988 48.4285C80.3966 45.7508 80.1718 41.9769 81.9522 39.2139C81.9852 39.1613 82.0487 39.1513 82.0927 39.1897C82.1367 39.2281 82.1465 39.3021 82.1123 39.3533C80.3783 42.0465 80.6019 45.748 81.0956 48.3787C81.3106 49.5305 81.6003 50.688 81.8801 51.8057C82.3493 53.6856 82.8357 55.6295 82.9909 57.6132C83.2732 61.2279 82.4593 64.8256 81.6724 68.3038C81.505 69.0404 81.3388 69.7755 81.1836 70.5107C80.3795 74.2975 79.6756 79.1693 81.395 83.2547C81.4194 83.313 81.3986 83.3827 81.3485 83.4111C81.3314 83.4211 81.3119 83.4253 81.2936 83.4225Z" fill="#A9B3FF"/>
<path d="M82.4887 82.8322C82.4459 82.8265 82.4093 82.7881 82.4007 82.7355C81.9767 79.9583 82.3897 76.8826 83.63 73.5963C84.5441 71.1732 85.7942 68.9094 87.0015 66.7195C87.2203 66.3242 87.4378 65.9289 87.6541 65.5322C90.0553 61.1325 92.2647 56.3546 92.1632 51.2411C92.162 51.1756 92.206 51.123 92.261 51.1216C92.3185 51.1202 92.3624 51.1714 92.3637 51.2354C92.4651 56.4115 90.241 61.2263 87.8227 65.6573C87.6064 66.054 87.3877 66.4508 87.1689 66.8461C85.964 69.0289 84.7201 71.2856 83.8121 73.6902C82.5877 76.9337 82.1795 79.964 82.5962 82.6957C82.606 82.7597 82.5693 82.8194 82.5143 82.8308C82.507 82.8322 82.4985 82.8322 82.4887 82.8322Z" fill="#A9B3FF"/>
<path d="M84.4206 83.9157C84.3876 83.9114 84.3571 83.8887 84.3412 83.8517C84.3167 83.7934 84.3363 83.7237 84.3864 83.6953C87.7237 81.7557 90.1102 77.8793 90.6137 73.5778C90.621 73.5152 90.6699 73.4697 90.7237 73.4768H90.7261C90.7811 73.4853 90.8202 73.5451 90.8117 73.609C90.2984 77.986 87.8703 81.932 84.4744 83.9043C84.4585 83.9143 84.4389 83.9171 84.4206 83.9157Z" fill="#A9B3FF"/>
<path d="M79.441 82.586C79.4006 82.5803 79.3665 82.5491 79.3555 82.5007L77.1351 73.1724C76.3848 70.0212 75.5355 66.4506 75.9375 62.9582C75.9449 62.8942 75.9937 62.8501 76.0487 62.8572H76.0512C76.1062 62.8657 76.1453 62.924 76.1379 62.988C75.7408 66.4335 76.5852 69.98 77.3294 73.1084L79.5498 82.4367C79.5644 82.4993 79.5326 82.5633 79.4801 82.5803C79.4667 82.5875 79.4532 82.5889 79.441 82.586Z" fill="#A9B3FF"/>
<path d="M90.7873 83.4806C86.3294 80.0536 80.707 78.7411 75.4585 79.9057C75.1567 82.3615 75.3265 84.9496 76.2455 87.1878C77.1644 89.426 78.9241 91.2661 81.0198 91.714C83.1229 92.1648 85.3225 91.1779 86.9307 89.5384C88.5376 87.8974 89.9624 85.7772 90.7873 83.4806Z" fill="#93D8C3"/>
<path d="M17.2571 119.752C13.9723 113.718 12.1503 106.126 7.00203 102.237C4.93808 100.677 2.30712 99.6587 1.25498 97.0692C-0.0415593 93.8769 1.8513 90.1157 4.1731 87.8405C7.75478 84.3295 12.556 82.5563 17.2216 83.0199C21.8872 83.4835 26.3597 86.181 29.3769 90.3475C34.0033 96.7365 34.9907 105.813 39.3325 112.467C42.2409 116.923 53.1668 128.036 45.7101 133.785C40.4384 137.851 30.2799 132.905 25.662 129.467C22.3088 126.971 19.3907 123.671 17.2571 119.752Z" fill="#6265CE"/>
<path d="M51.2837 125.807C52.425 121.986 53.0006 117.905 54.6564 114.348C55.5509 112.427 56.7436 110.704 57.5867 108.751C58.4299 106.797 58.9028 104.474 58.243 102.426C57.4474 99.9546 55.0694 98.4573 52.8051 98.5852C50.5395 98.7132 48.4511 100.243 47.0128 102.284C45.5745 104.324 44.7154 106.836 44.0946 109.374C42.9142 114.197 42.539 119.281 42.9533 124.271C43.1647 126.815 43.5814 129.337 44.2022 131.789C44.3928 132.541 44.6543 134.573 45.3594 134.718C45.9924 134.849 47.3671 133.224 47.7729 132.762C49.4397 130.869 50.526 128.343 51.2837 125.807Z" fill="#4D52A8"/>
<path d="M52.1464 105.202C53.3244 101.453 54.8042 97.8258 55.7158 93.9778C56.6274 90.1299 56.9403 85.9478 55.7696 82.1951C54.5989 78.4439 51.7016 75.2515 48.28 74.9728C43.7402 74.6017 39.9863 79.1791 38.0127 83.9513C36.0404 88.725 35.0714 94.1129 32.3512 98.3604C30.6587 101.004 28.3296 103.131 27.1198 106.112C24.9215 111.532 27.0929 118.021 30.1259 122.866C33.0221 127.493 42.1235 139.891 47.5566 132.774C49.8503 129.77 48.7847 123.777 49.1464 120.042C49.6401 114.981 50.6421 109.987 52.1464 105.202Z" fill="#7B85E8"/>
<path d="M44.9232 132.929C45.638 130.398 45.2604 127.63 44.6446 125.064C44.0287 122.499 43.1794 119.985 42.9472 117.334C42.5513 112.79 44.0042 108.325 45.5537 104.128C47.1032 99.932 48.8043 95.6589 48.9411 91.0942" stroke="#A9B3FF" stroke-width="0.2236" stroke-miterlimit="10" stroke-linecap="round"/>
<path d="M41.4123 102.926C41.0176 106.693 39.1186 110.069 38.6885 113.83C38.3708 116.609 38.8791 119.447 39.7724 122.051C40.6657 124.653 41.9317 127.058 43.1916 129.445" stroke="#A9B3FF" stroke-width="0.2236" stroke-miterlimit="10" stroke-linecap="round"/>
<path d="M42.5427 131.138C41.5407 129.979 40.5374 128.818 39.5354 127.659C38.0201 125.906 36.4901 124.133 35.3586 122.024C33.66 118.859 32.9549 115.127 32.2791 111.48" stroke="#A9B3FF" stroke-width="0.2236" stroke-miterlimit="10" stroke-linecap="round"/>
<path d="M17.8998 105.588C20.1092 107.844 21.2909 111.153 22.1463 114.425C23.0017 117.697 23.6176 121.094 25.0107 124.104C27.2726 128.993 31.5997 132.513 36.3239 133.3" stroke="#A9B3FF" stroke-width="0.2236" stroke-miterlimit="10" stroke-linecap="round"/>
<path d="M37.816 135.938C40.6559 131.171 45.6808 128.288 50.6592 128.566C50.7643 130.22 50.79 131.935 50.5504 133.57C50.3109 135.206 49.6902 136.824 48.5769 137.859C47.1398 139.197 45.0967 139.357 43.3211 138.798C41.5455 138.239 39.3581 137.107 37.816 135.938Z" fill="#93D8C3"/>
<path d="M83.2561 85.895C79.9298 91.8404 78.1359 98.8125 77.542 105.868C76.9029 112.947 77.4027 120.1 78.439 127.14C79.4703 134.192 81.0052 141.158 82.4141 148.199C83.8512 155.232 85.0011 162.411 85.7477 169.632C87.2044 184.09 87.0406 198.766 85.3836 213.221C83.762 226.888 80.7473 240.343 76.4019 253.22C75.9925 254.433 74.7949 255.008 73.7636 254.5C72.7481 254 72.2801 252.64 72.7017 251.454C77.1278 239.033 80.2854 225.982 82.0891 212.661C83.9404 198.566 84.34 184.187 83.1425 169.959C82.5229 162.844 81.5184 155.801 80.2035 148.772C78.918 141.738 77.4846 134.685 76.5522 127.491C75.6149 120.312 75.2178 112.94 75.995 105.667C76.7245 98.4129 78.6993 91.2133 82.2577 85.1172L83.2561 85.895Z" fill="#93D8C3"/>
<path d="M47.3598 135.898C48.8299 141.329 52.2051 145.749 56.0214 149.237C59.8609 152.769 64.2613 155.397 68.5836 158.284C72.8874 161.163 77.272 164.324 80.7144 168.86C82.4227 171.11 83.9062 173.637 84.9693 176.452C85.4863 177.866 85.9066 179.341 86.1828 180.868C86.4382 182.401 86.5531 183.972 86.514 185.55L83.7889 185.374C84.1396 180.096 82.0488 174.794 79.006 170.574C75.9632 166.284 71.8646 163.073 67.6744 160.064C63.4792 157.048 59.0666 154.21 55.1978 150.414C51.3619 146.674 47.9489 141.923 46.5656 136.176L47.3598 135.898Z" fill="#93D8C3"/>
<path d="M90.9534 121.612C92.7473 119.016 94.8614 116.66 97.397 115.114C99.9327 113.567 102.924 112.882 105.707 113.664C108.489 114.448 110.992 116.831 111.847 120.009C112.804 123.567 111.603 127.54 109.518 130.37C107.435 133.201 104.58 135.094 101.738 136.814C98.8952 138.535 95.9649 140.173 93.5697 142.647C92.1852 144.078 91.0011 145.768 89.5249 147.068C88.3103 148.138 85.942 149.685 84.4182 148.52C83.0031 147.438 83.5444 144.492 83.6654 142.866C84.0345 137.906 85.2186 133.032 87.1273 128.577C88.1856 126.105 89.4663 123.763 90.9534 121.612Z" fill="#5FC5A9"/>
<path d="M53.4026 161.18C50.471 161.247 47.4441 161.723 44.9403 163.499C42.4352 165.276 40.5704 168.602 40.9394 171.987C41.3073 175.358 43.827 178.041 46.6425 178.941C49.458 179.84 52.4849 179.223 55.2246 178.049C57.9643 176.876 60.5085 175.168 63.1786 173.792C65.8475 172.417 68.7314 171.36 71.6422 171.615C72.9057 171.726 75.7554 172.265 75.7884 169.95C75.8153 168.077 73.5619 166.86 72.3998 166.184C68.6605 164.013 64.634 162.517 60.5061 161.756C58.1599 161.321 55.7794 161.126 53.4026 161.18Z" fill="#5FC5A9"/>
<path d="M82.2064 172.7C75.8581 168.843 68.6862 166.887 61.5265 167.033C59.5261 167.074 57.5306 167.285 55.5546 167.65C55.2246 167.711 55.3652 168.294 55.6927 168.235C62.6361 166.948 69.8373 167.738 76.4667 170.452C78.3473 171.221 80.1766 172.148 81.9437 173.222C82.2394 173.402 82.5033 172.88 82.2064 172.7Z" fill="#93D8C3"/>
<path d="M105.891 145.047C102.449 145.153 99.0162 145.7 95.6777 146.686C94.0011 147.18 92.3465 147.785 90.7286 148.497C89.2854 149.133 87.8533 149.832 86.5091 150.717C85.331 151.492 84.2251 152.426 83.2927 153.565C84.0699 149.474 85.188 145.471 86.641 141.636C88.2198 137.471 90.1775 133.499 92.4748 129.814C93.7812 127.718 95.1987 125.721 96.7164 123.828C96.9449 123.544 96.5771 123.115 96.3486 123.4C93.6528 126.765 91.2687 130.465 89.2512 134.421C87.2337 138.375 85.5779 142.583 84.3229 146.944C83.6092 149.423 83.03 151.953 82.5852 154.514C82.5828 154.528 82.5864 154.541 82.5852 154.555C82.5143 154.838 82.8186 155.142 83.0019 154.872C84.8899 152.068 87.7384 150.489 90.5294 149.232C93.6443 147.829 96.8912 146.825 100.193 146.238C102.08 145.902 103.984 145.712 105.892 145.653C106.226 145.643 106.227 145.037 105.891 145.047Z" fill="#93D8C3"/>
</svg>
