<svg width="83" height="83" viewBox="0 0 83 83" fill="none" xmlns="http://www.w3.org/2000/svg">
<path d="M41.5 79.1093C32.3381 79.0914 23.4926 75.7559 16.6 69.7199C14.8324 68.1794 13.2168 66.4727 11.7756 64.6232C10.9975 63.6116 8.62422 61.1346 9.36344 59.708C10.2453 58.0091 12.7483 60.123 13.7598 60.6029C15.9551 61.635 18.2675 62.3971 20.6463 62.8724C28.1258 64.3102 35.8724 63.1158 42.5716 59.492C49.2708 55.8683 54.5098 50.0382 57.3997 42.9913C59.5298 37.5841 60.1673 31.7038 59.2456 25.9658C58.3238 20.2277 55.8767 14.8429 52.1603 10.3749C51.4334 9.49018 50.6538 8.65001 49.8259 7.85897C49.2553 7.30131 48.3605 6.56209 48.6847 5.71913C49.2164 4.20178 51.5638 5.07069 52.5753 5.43381C54.3666 6.05953 56.1241 6.7781 57.8406 7.58663C65.052 11.1601 70.9451 16.9273 74.6733 24.0599C78.4015 31.1924 79.7729 39.3231 78.5906 47.284C77.3243 54.8904 73.7845 61.9352 68.4371 67.4909C63.0897 73.0467 56.1853 76.853 48.6328 78.409C46.2823 78.8646 43.8943 79.0991 41.5 79.1093Z" fill="#FFE604"/>
<path d="M14.4342 63.7155C19.698 69.9716 26.9574 74.222 34.9893 75.7504C43.0211 77.2788 51.3343 75.9918 58.528 72.1063C65.698 67.9897 71.2123 61.5067 74.1252 53.7691C77.038 46.0314 77.1679 37.5214 74.4925 29.6985C72.7901 25.0019 70.1063 20.7221 66.62 17.1441C63.1337 13.5662 58.925 10.7723 54.2742 8.94849C58.0097 13.5593 60.5296 19.0331 61.6035 24.8692C62.6774 30.7053 62.271 36.7175 60.4214 42.356C58.5714 47.7161 55.4642 52.5549 51.3599 56.4674C47.2556 60.3799 42.2737 63.2522 36.8313 64.8438C29.4418 66.9159 21.578 66.5197 14.4342 63.7155Z" fill="#FFE604"/>
</svg>
