<svg xmlns="http://www.w3.org/2000/svg" data-name="Layer 1" viewBox="0 0 512 512" id="deals"><path fill="#fdd8ae" d="m296.353 207.26 96.167 96.167a25 25 0 0 1 0 35.356 25 25 0 0 1-35.356 0l-53.74-53.74"></path><path fill="#fdd8ae" d="m154.932 348.682-21.851-21.851a100.227 100.227 0 0 1-29.061-78.558l91.924-91.924a100.227 100.227 0 0 1 78.558 29.06l21.851 21.852 47.253 59.272-116.675 100.15Z"></path><path fill="#fdd8ae" d="m303.424 285.043 53.74 53.74a25 25 0 0 1 0 35.355 25 25 0 0 1-35.355 0l-53.74-53.74"></path><path fill="#fbbf7d" d="M357.164 359.138a25 25 0 0 1-35.355 0l-38.74-38.74a10.607 10.607 0 0 0-15 0l53.74 53.74a25 25 0 0 0 35.355 0 24.991 24.991 0 0 0 6.17-25.178 24.878 24.878 0 0 1-6.17 10.178Z"></path><path fill="#fdd8ae" d="m268.069 320.398 53.74 53.74a25 25 0 0 1 0 35.355 25 25 0 0 1-35.355 0l-53.74-53.74"></path><path fill="#fbbf7d" d="M321.415 394.879c-9.89 9.471-25.704 8.871-35.388-.813l-38.314-38.313a10.607 10.607 0 0 0-15 0l53.308 53.307c9.768 9.768 25.754 10.279 35.615.605a24.99 24.99 0 0 0 6.342-25.35 24.894 24.894 0 0 1-6.563 10.564zm70.716-70.711c-9.89 9.472-25.705 8.872-35.388-.812l-38.314-38.314a10.607 10.607 0 0 0-15 0l53.307 53.308c9.768 9.768 25.754 10.278 35.615.604a24.99 24.99 0 0 0 6.343-25.35 24.894 24.894 0 0 1-6.563 10.564z"></path><path fill="#fdd8ae" d="m232.714 355.753 53.74 53.74a25 25 0 0 1 0 35.356 25 25 0 0 1-35.356 0l-96.166-96.167"></path><path fill="#fbbf7d" d="M286.454 429.849a25 25 0 0 1-35.356 0l-79.666-79.667-16.5-1.5 96.166 96.167a24.999 24.999 0 0 0 41.525-25.178 24.885 24.885 0 0 1-6.17 10.178Z"></path><path fill="#227fc0" d="m192.76 159.53-85.56 85.56a29.984 29.984 0 0 1-42.42 0l-7.94-7.94L7.5 187.82 135.49 59.83l57.27 57.27a29.997 29.997 0 0 1 0 42.43Z"></path><path fill="#fbbf7d" d="M235.297 393.03a25 25 0 0 1 0 35.355l-16.464 16.464a25 25 0 0 1-35.356 0 25 25 0 0 1 0-35.355l16.465-16.465a25 25 0 0 1 35.355 0ZM199.941 357.673a25 25 0 0 1 0 35.356l-16.464 16.464a25 25 0 0 1-35.355 0 25 25 0 0 1 0-35.355l16.464-16.465a25 25 0 0 1 35.355 0Z"></path><path fill="#fbbf7d" d="M164.586 322.318a25 25 0 0 1 0 35.355l-16.464 16.465a25 25 0 0 1-35.355 0 25 25 0 0 1 0-35.356l16.464-16.464a25 25 0 0 1 35.355 0Z"></path><path fill="#fbbf7d" d="M129.231 286.963a25 25 0 0 1 0 35.356l-16.464 16.464a25 25 0 0 1-35.356 0 25 25 0 0 1 0-35.355l16.465-16.465a25 25 0 0 1 35.355 0ZM312.102 148.146h-19.09a45.694 45.694 0 0 0-34.053 15.226l-59.311 66.293a15.798 15.798 0 0 0 .603 21.704 35.056 35.056 0 0 0 49.576 0l45.317-45.317 81.978 81.978a103.543 103.543 0 0 0 41.402-51.49l-106.422-88.394Z"></path><path fill="#eb304a" d="m504.5 187.82-48.72 48.71-8.56 8.56a29.984 29.984 0 0 1-42.42 0l-85.56-85.56a29.997 29.997 0 0 1 0-42.43l57.27-57.27Z"></path><path fill="#e4222e" d="m455.78 236.53-8.56 8.56a29.984 29.984 0 0 1-42.42 0l-85.56-85.56a29.997 29.997 0 0 1 0-42.43l9.89-9.89Z"></path><path fill="#2370b5" d="m192.76 159.53-85.56 85.56a29.984 29.984 0 0 1-42.42 0l-7.94-7.94 126.49-129.14.51.17 8.92 8.92a29.997 29.997 0 0 1 0 42.43Z"></path><path fill="#3c3b41" d="M509.804 182.512a7.503 7.503 0 0 0-10.608 0l-43.358 43.358-116.154-118.603 42.133-42.134a7.5 7.5 0 1 0-10.607-10.607L313.935 111.8a37.414 37.414 0 0 0-10.885 28.85h-10.04a53.246 53.246 0 0 0-39.638 17.716l-1.457 1.629a107.925 107.925 0 0 0-44.329-11.357 37.525 37.525 0 0 0-9.52-36.838L140.79 54.526a7.5 7.5 0 0 0-10.607 10.607l42.76 42.76L56.787 226.497l-43.984-43.985a7.5 7.5 0 0 0-10.608 10.607l48.032 48.032a7.274 7.274 0 0 0 2.629 2.628l6.615 6.616a37.555 37.555 0 0 0 36.836 9.521 107.566 107.566 0 0 0 1.65 15.206 32.345 32.345 0 0 0-9.386 6.537l-16.465 16.465a32.5 32.5 0 0 0 22.982 55.482c1.012 0 2.015-.051 3.01-.142a32.475 32.475 0 0 0 32.345 35.497c1.012 0 2.016-.05 3.011-.141a32.477 32.477 0 0 0 32.345 35.497c1.012 0 2.015-.051 3.01-.142a32.499 32.499 0 0 0 55.327 25.978l10.829-10.83 10.83 10.83a32.503 32.503 0 0 0 55.481-22.979c0-1.007-.05-2.007-.14-2.998.99.09 1.988.14 2.995.14a32.503 32.503 0 0 0 32.5-32.5c0-1.007-.05-2.006-.14-2.996.99.09 1.988.14 2.994.14a32.502 32.502 0 0 0 32.501-32.5c0-1.006-.05-2.005-.14-2.995.99.09 1.988.14 2.995.14a32.5 32.5 0 0 0 22.981-55.48l-9.09-9.091a109.837 109.837 0 0 0 26.641-29.203 37.596 37.596 0 0 0 37.154-9.436l57.276-57.276a7.501 7.501 0 0 0 0-10.607ZM70.079 239.787l-2.683-2.683L183.55 118.5l3.908 3.908a22.524 22.524 0 0 1 0 31.82l-85.56 85.56a22.524 22.524 0 0 1-31.819 0Zm25.01 98.819a17.5 17.5 0 0 1-12.374-29.874l16.465-16.465a17.5 17.5 0 1 1 24.749 24.748l-16.466 16.465a17.386 17.386 0 0 1-12.374 5.126Zm35.355 35.355a17.501 17.501 0 0 1-12.375-29.875l16.466-16.464a17.5 17.5 0 0 1 24.75 24.748l-16.467 16.465a17.386 17.386 0 0 1-12.374 5.126Zm35.356 35.356a17.386 17.386 0 0 1-12.374-5.126v-.001a17.52 17.52 0 0 1-.001-24.748l16.466-16.465a17.5 17.5 0 1 1 24.747 24.749l-16.464 16.465a17.386 17.386 0 0 1-12.374 5.126Zm64.193 13.764-16.463 16.464a17.5 17.5 0 1 1-24.749-24.748l16.464-16.464a17.5 17.5 0 1 1 24.748 24.748Zm162.35-101.975a17.5 17.5 0 0 1-29.875 12.373l-53.74-53.74a7.5 7.5 0 1 0-10.608 10.608l53.74 53.74a17.5 17.5 0 1 1-24.748 24.747l-53.739-53.74a7.5 7.5 0 0 0-10.607 10.607l53.739 53.74a17.5 17.5 0 1 1-24.747 24.749l-53.74-53.74a7.5 7.5 0 1 0-10.612 10.604l53.74 53.74a17.5 17.5 0 1 1-24.743 24.752l-11.373-11.373a32.503 32.503 0 0 0-27.41-49.967c-1.007 0-2.005.05-2.995.14.09-.99.14-1.988.14-2.994a32.503 32.503 0 0 0-32.5-32.501c-1.012 0-2.016.05-3.011.141a32.453 32.453 0 0 0-35.357-35.339 32.436 32.436 0 0 0-31.229-35.47 92.578 92.578 0 0 1-1.32-20.688c.39-.359.78-.721 1.158-1.1l85.56-85.56c.379-.38.742-.768 1.101-1.16a94.622 94.622 0 0 1 4.463-.115 92.873 92.873 0 0 1 37.86 8.088l-47.43 53.012a23.311 23.311 0 0 0 .887 32.014 42.608 42.608 0 0 0 60.187-.001l40.007-40.016 22.836 22.834q26.922 26.92 53.838 53.842l.021.02 15.38 15.378a17.386 17.386 0 0 1 5.127 12.375Zm2.416-58.383a96.082 96.082 0 0 1-16.735 15.604q-24.719-24.728-49.442-49.443l-28.139-28.138a7.5 7.5 0 0 0-10.607.001l-45.309 45.32a27.591 27.591 0 0 1-38.973 0 8.304 8.304 0 0 1-.314-11.406l59.31-66.29a38.229 38.229 0 0 1 28.46-12.72h14.186a37.361 37.361 0 0 0 6.739 9.184l85.56 85.56a37.778 37.778 0 0 0 2.587 2.35 95.384 95.384 0 0 1-7.323 9.978Zm47.162-22.936a22.524 22.524 0 0 1-31.82 0l-85.559-85.56a22.524 22.524 0 0 1 0-31.819l4.534-4.534L445.23 236.478Z"></path></svg>