<svg width="512" height="512" viewBox="0 0 512 512" fill="none" xmlns="http://www.w3.org/2000/svg">
<g clip-path="url(#clip0_1_4)">
<path d="M375.467 72.533L334.268 448H169.199L128 72.533H375.467Z" fill="#4482C3"/>
<path d="M153.6 4.267H349.867C359.293 4.267 366.934 11.908 366.934 21.334V55.467H136.534V21.333C136.533 11.908 144.174 4.267 153.6 4.267Z" fill="#E6E7E8"/>
<path d="M128 38.4H375.467C384.893 38.4 392.534 46.041 392.534 55.467V72.534C392.534 74.7971 391.635 76.9675 390.035 78.5677C388.434 80.168 386.264 81.067 384.001 81.067H119.467C117.204 81.067 115.033 80.168 113.433 78.5677C111.833 76.9675 110.934 74.7971 110.934 72.534V55.467C110.933 46.041 118.574 38.4 128 38.4Z" fill="#D1D4D1"/>
<path d="M324.267 354.133V430.933H285.099C282.862 430.951 280.72 431.838 279.126 433.408L238.933 473.6L198.741 433.408C197.147 431.838 195.005 430.951 192.768 430.933H51.2V354.133H324.267Z" fill="#14A085"/>
<path d="M324.267 320.085C323.787 320.014 323.301 319.986 322.816 320H51.2C47.6815 320.002 44.2012 320.73 40.9764 322.138C37.7517 323.545 34.8517 325.602 32.4575 328.181C30.0633 330.759 28.2262 333.803 27.0609 337.123C25.8957 340.443 25.4273 343.968 25.685 347.477C27.149 361.187 38.865 371.495 52.65 371.2H324.266C327.785 371.197 331.265 370.47 334.49 369.062C337.714 367.655 340.614 365.597 343.009 363.019C345.403 360.441 347.24 357.397 348.405 354.077C349.57 350.757 350.039 347.232 349.781 343.723C348.405 330.561 337.495 320.454 324.267 320.085Z" fill="#804537"/>
<path d="M324.267 260.267V320.086C323.787 320.015 323.301 319.987 322.816 320.001H199.765C197.528 320.019 195.386 320.906 193.792 322.476L145.067 371.2L96.342 322.475C94.7481 320.905 92.6059 320.018 90.369 320H51.2V260.267H324.267Z" fill="#F0C419"/>
<path d="M341.333 277.333H34.133C33.0124 277.333 31.9028 277.112 30.8676 276.683C29.8323 276.255 28.8916 275.626 28.0993 274.834C27.3069 274.041 26.6784 273.101 26.2495 272.065C25.8207 271.03 25.6 269.921 25.6 268.8V260.267C25.6005 237.635 34.5912 215.93 50.5943 199.927C66.5975 183.924 88.3022 174.934 110.934 174.933H264.534C311.662 174.933 349.867 213.138 349.867 260.266V268.799C349.867 271.062 348.968 273.233 347.367 274.833C345.767 276.434 343.596 277.333 341.333 277.333ZM349.867 422.4V448C349.867 476.277 326.944 499.2 298.667 499.2H76.8C48.523 499.2 25.6 476.277 25.6 448V422.4C25.6 420.137 26.499 417.967 28.0993 416.366C29.6995 414.766 31.8699 413.867 34.133 413.867H192.768C195.005 413.885 197.147 414.772 198.741 416.342L238.933 456.534L279.125 416.342C280.719 414.772 282.861 413.885 285.098 413.867H341.333C342.454 413.867 343.563 414.087 344.599 414.516C345.634 414.945 346.575 415.574 347.367 416.366C348.16 417.158 348.788 418.099 349.217 419.134C349.646 420.17 349.867 421.279 349.867 422.4Z" fill="#F29C1F"/>
<path d="M119.467 209.067H110.934C108.671 209.067 106.501 209.966 104.9 211.566C103.3 213.167 102.401 215.337 102.401 217.6C102.401 219.863 103.3 222.033 104.9 223.634C106.501 225.234 108.671 226.133 110.934 226.133H119.467C121.73 226.133 123.9 225.234 125.501 223.634C127.101 222.033 128 219.863 128 217.6C128 215.337 127.101 213.167 125.501 211.566C123.9 209.966 121.73 209.067 119.467 209.067ZM170.667 226.133H162.134C159.871 226.133 157.7 227.032 156.1 228.632C154.5 230.233 153.601 232.403 153.601 234.666C153.601 236.929 154.5 239.099 156.1 240.7C157.7 242.3 159.871 243.199 162.134 243.199H170.667C172.93 243.199 175.1 242.3 176.701 240.7C178.301 239.099 179.2 236.929 179.2 234.666C179.2 232.403 178.301 230.233 176.701 228.632C175.1 227.032 172.93 226.133 170.667 226.133ZM273.067 226.133H264.534C262.271 226.133 260.1 227.032 258.5 228.632C256.9 230.233 256.001 232.403 256.001 234.666C256.001 236.929 256.9 239.099 258.5 240.7C260.1 242.3 262.271 243.199 264.534 243.199H273.067C275.33 243.199 277.5 242.3 279.101 240.7C280.701 239.099 281.6 236.929 281.6 234.666C281.6 232.403 280.701 230.233 279.101 228.632C277.5 227.032 275.33 226.133 273.067 226.133ZM221.867 209.067H213.334C211.071 209.067 208.901 209.966 207.3 211.566C205.7 213.167 204.801 215.337 204.801 217.6C204.801 219.863 205.7 222.033 207.3 223.634C208.901 225.234 211.071 226.133 213.334 226.133H221.867C224.13 226.133 226.3 225.234 227.901 223.634C229.501 222.033 230.4 219.863 230.4 217.6C230.4 215.337 229.501 213.167 227.901 211.566C226.3 209.966 224.13 209.067 221.867 209.067Z" fill="#E57E25"/>
<path d="M247.467 277.504C246.443 277.419 245.504 277.333 244.48 277.333H237.141C236.169 277.331 235.208 277.539 234.324 277.945C233.44 278.35 232.655 278.942 232.022 279.68C231.389 280.418 230.924 281.285 230.659 282.22C230.393 283.156 230.334 284.138 230.485 285.098L263.245 499.2H453.453L486.306 285.013C486.447 284.051 486.378 283.071 486.102 282.138C485.827 281.206 485.352 280.345 484.711 279.615C484.07 278.884 483.277 278.302 482.389 277.908C481.5 277.514 480.537 277.318 479.565 277.333H472.312C468.389 277.332 464.494 277.996 460.792 279.296L247.467 277.504Z" fill="#E64C3C"/>
<path d="M375.543 349.952C361.144 352.27 346.423 351.631 332.279 348.075L332.8 345.6V198.656C332.802 196.891 333.504 195.2 334.752 193.952C336 192.704 337.691 192.002 339.456 192H368.811C370.576 192.002 372.267 192.704 373.515 193.952C374.763 195.2 375.465 196.891 375.467 198.656V349.355L375.543 349.952ZM290.133 243.2V322.133C284.114 314.998 279.3 306.927 275.882 298.24C273.53 292.492 269.627 287.509 264.61 283.848C259.593 280.187 253.658 277.991 247.466 277.504V249.856C247.468 248.091 248.17 246.4 249.418 245.152C250.666 243.904 252.357 243.202 254.122 243.2H290.133Z" fill="#F0C419"/>
<path d="M332.8 209.067V345.6L332.288 348.075H332.203C315.759 344.167 301.009 335.072 290.134 322.134V215.723C290.136 213.958 290.838 212.267 292.086 211.019C293.334 209.771 295.025 209.069 296.79 209.067H332.8ZM418.987 329.899C406.814 340.738 391.697 347.717 375.552 349.952L375.467 349.355V209.067H409.6C411.863 209.067 414.033 209.966 415.634 211.566C417.234 213.167 418.133 215.337 418.133 217.6V328.875L418.987 329.899Z" fill="#F3D55B"/>
<path d="M460.8 241.323V279.296C456.329 280.857 452.242 283.355 448.814 286.622C445.385 289.889 442.693 293.85 440.917 298.24C436.2 310.35 428.719 321.191 419.072 329.899H418.987L418.134 328.875V234.667H454.145C455.909 234.669 457.601 235.371 458.849 236.619C460.096 237.867 460.798 239.559 460.8 241.323Z" fill="#F0C419"/>
<path d="M354.125 465.067C375.333 465.067 392.525 447.875 392.525 426.667C392.525 405.459 375.333 388.267 354.125 388.267C332.917 388.267 315.725 405.459 315.725 426.667C315.725 447.875 332.917 465.067 354.125 465.067Z" fill="#E6E7E8"/>
<path d="M503.467 507.733H8.533C6.26991 507.733 4.09951 506.834 2.49926 505.234C0.89901 503.633 0 501.463 0 499.2C0 496.937 0.89901 494.767 2.49926 493.166C4.09951 491.566 6.26991 490.667 8.533 490.667H503.466C505.729 490.667 507.9 491.566 509.5 493.166C511.1 494.767 511.999 496.937 511.999 499.2C511.999 500.321 511.779 501.43 511.35 502.466C510.921 503.501 510.293 504.442 509.501 505.234C508.708 506.026 507.768 506.655 506.732 507.084C505.697 507.512 504.588 507.733 503.467 507.733Z" fill="#804537"/>
</g>
<defs>
<clipPath id="clip0_1_4">
<rect width="512" height="512" fill="white"/>
</clipPath>
</defs>
</svg>
