<svg width="512" height="512" viewBox="0 0 512 512" fill="none" xmlns="http://www.w3.org/2000/svg">
<g clip-path="url(#clip0_6_14)">
<path d="M256 512C397.385 512 512 397.385 512 256C512 114.615 397.385 0 256 0C114.615 0 0 114.615 0 256C0 397.385 114.615 512 256 512Z" fill="black"/>
<path d="M398.59 227.38L282.35 129.96C267.11 117.19 244.9 117.19 229.66 129.96L113.42 227.38C98.67 239.74 107.41 263.77 126.65 263.77H137.19V371.1C137.19 382.43 146.37 391.61 157.7 391.61H216.46V322.29C216.46 300.45 234.17 282.74 256.01 282.74C277.85 282.74 295.56 300.45 295.56 322.29V391.61H354.32C365.65 391.61 374.83 382.43 374.83 371.1V263.77H385.37C404.61 263.77 413.35 239.74 398.6 227.38H398.59Z" fill="white"/>
</g>
<defs>
<clipPath id="clip0_6_14">
<rect width="512" height="512" fill="white"/>
</clipPath>
</defs>
</svg>
