<svg width="512" height="512" viewBox="0 0 512 512" fill="none" xmlns="http://www.w3.org/2000/svg">
<path d="M176 128L152 152L102.58 102.58C100.515 103.522 98.2701 104.007 96 104C91.7565 104 87.6869 102.314 84.6863 99.3137C81.6857 96.3131 80 92.2435 80 88C80 83.7565 81.6857 79.6869 84.6863 76.6863C87.6869 73.6857 91.7565 72 96 72C96 67.7565 97.6857 63.6869 100.686 60.6863C103.687 57.6857 107.757 56 112 56C116.243 56 120.313 57.6857 123.314 60.6863C126.314 63.6869 128 67.7565 128 72C128.007 74.2701 127.522 76.5148 126.58 78.58L176 128Z" fill="#F0DE9C"/>
<path d="M256.71 211.65C252.449 219.147 246.514 225.56 239.368 230.388C232.223 235.217 224.059 238.33 215.513 239.487C206.967 240.643 198.27 239.811 190.098 237.056C181.926 234.3 174.501 229.695 168.4 223.6C146.53 201.73 123.91 143.64 145.77 121.77C161.33 106.22 195.22 113.18 221.36 126.37C231.96 131.72 241.29 138.09 247.6 144.4C256.267 153.069 261.851 164.341 263.497 176.489C265.142 188.636 262.758 200.988 256.71 211.65Z" fill="#F0C033"/>
<path d="M392 40C392.004 37.6111 391.473 35.2517 390.446 33.0949C389.418 30.9382 387.921 29.0387 386.064 27.5361C384.207 26.0335 382.037 24.9657 379.714 24.4113C377.39 23.8568 374.972 23.8297 372.636 24.3319C370.301 24.8342 368.107 25.853 366.217 27.3136C364.327 28.7743 362.788 30.6397 361.712 32.7729C360.637 34.9061 360.053 37.253 360.003 39.6414C359.954 42.0297 360.439 44.3989 361.425 46.575L312 96L336 120L385.425 70.575C387.6 71.5571 389.968 72.04 392.354 71.9882C394.74 71.9365 397.084 71.3514 399.215 70.276C401.346 69.2005 403.209 67.6619 404.667 65.7729C406.126 63.8839 407.144 61.6923 407.646 59.359C408.147 57.0256 408.121 54.6095 407.567 52.2878C407.014 49.9661 405.948 47.7977 404.448 45.9414C402.948 44.0851 401.051 42.5881 398.897 41.56C396.743 40.532 394.387 39.9989 392 40Z" fill="#F0DE9C"/>
<path d="M350.69 123.71C348.05 148.47 333.67 177.53 319.6 191.6C314.404 196.82 308.229 200.963 301.43 203.793C294.63 206.623 287.339 208.084 279.974 208.092C272.609 208.101 265.314 206.656 258.508 203.842C251.702 201.027 245.518 196.897 240.31 191.69C235.103 186.482 230.973 180.298 228.158 173.492C225.344 166.686 223.899 159.391 223.908 152.026C223.916 144.661 225.377 137.37 228.207 130.57C231.037 123.771 235.18 117.596 240.4 112.4C262.27 90.53 320.36 67.91 342.23 89.77C350.03 97.57 352.17 109.98 350.69 123.71Z" fill="#F0C033"/>
<path d="M464 176C464.001 180.203 463.174 184.364 461.567 188.247C459.959 192.13 457.602 195.658 454.63 198.63C451.658 201.602 448.13 203.959 444.247 205.567C440.364 207.174 436.203 208.001 432 208H335.55C301.79 208 291.04 162.48 321.24 147.38L440 88C440.012 97.4568 438.155 106.823 434.535 115.56C430.916 124.296 425.606 132.232 418.91 138.91C417.117 140.708 415.227 142.407 413.25 144H432C433.223 143.999 434.445 144.069 435.66 144.21C443.462 145.108 450.66 148.844 455.886 154.706C461.112 160.568 464 168.147 464 176Z" fill="#F0C033"/>
<path d="M104 184H488V216H104V184Z" fill="#C6D6E2"/>
<path d="M416 488H176L136 216H456L416 488Z" fill="#E64042"/>
<path d="M208 336C208.001 338.674 207.332 341.305 206.054 343.654C204.776 346.002 202.929 347.992 200.683 349.443C198.437 350.893 195.863 351.757 193.196 351.956C190.53 352.154 187.856 351.681 185.42 350.58L165.18 370.82L136 400L112 376L161.42 326.58C160.438 324.405 159.956 322.037 160.008 319.651C160.06 317.265 160.645 314.921 161.72 312.79C162.796 310.66 164.334 308.797 166.223 307.338C168.112 305.879 170.303 304.862 172.637 304.36C174.97 303.858 177.386 303.884 179.708 304.437C182.029 304.989 184.198 306.055 186.054 307.554C187.911 309.054 189.409 310.95 190.437 313.104C191.466 315.257 192 317.613 192 320C194.101 319.999 196.182 320.413 198.124 321.217C200.065 322.021 201.829 323.199 203.315 324.685C204.801 326.171 205.979 327.935 206.783 329.876C207.587 331.818 208.001 333.899 208 336Z" fill="#F0DE9C"/>
<path d="M165.18 370.82L136 400L131.48 395.48C139.653 383.736 151.514 375.057 165.18 370.82Z" fill="#F0C033"/>
<path d="M127.55 462.12C125.154 465.484 122.495 468.654 119.6 471.6C109.089 482.063 94.8572 487.93 80.0262 487.913C65.1952 487.897 50.9765 481.998 40.4894 471.511C30.0023 461.024 24.1033 446.805 24.0865 431.974C24.0698 417.143 29.9366 402.911 40.4 392.4C62.27 370.53 120.36 347.91 142.23 369.77C144.818 372.406 146.851 375.535 148.21 378.97C157.27 401.33 143.79 439.62 127.55 462.12Z" fill="#F0C033"/>
<path d="M328 432C331.164 432 334.258 431.062 336.889 429.304C339.52 427.545 341.571 425.047 342.782 422.123C343.993 419.199 344.31 415.982 343.693 412.879C343.075 409.775 341.551 406.924 339.314 404.686C337.076 402.449 334.225 400.925 331.121 400.307C328.018 399.69 324.801 400.007 321.877 401.218C318.953 402.429 316.455 404.48 314.696 407.111C312.938 409.742 312 412.836 312 416H248V448H312C312 451.165 312.938 454.258 314.696 456.889C316.455 459.52 318.953 461.571 321.877 462.782C324.801 463.993 328.018 464.31 331.121 463.693C334.225 463.075 337.076 461.551 339.314 459.314C341.551 457.076 343.075 454.225 343.693 451.121C344.31 448.018 343.993 444.801 342.782 441.877C341.571 438.953 339.52 436.455 336.889 434.696C334.258 432.938 331.164 432 328 432Z" fill="#F0DE9C"/>
<path d="M272 432C272 462.928 214.928 488 184 488C169.148 488 154.904 482.1 144.402 471.598C133.9 461.096 128 446.852 128 432C128 417.148 133.9 402.904 144.402 392.402C154.904 381.9 169.148 376 184 376C214.928 376 272 401.072 272 432Z" fill="#F0C033"/>
<path d="M488 176H472C471.988 165.395 467.77 155.228 460.271 147.729C452.772 140.23 442.605 136.012 432 136H431.957C442.385 122.172 448.018 105.319 448 88C448 86.6363 447.651 85.2953 446.987 84.1043C446.323 82.9133 445.366 81.9118 444.206 81.1949C443.046 80.478 441.722 80.0696 440.359 80.0083C438.997 79.9471 437.642 80.2351 436.422 80.845L359.048 119.531C359.243 115.875 359.142 112.208 358.746 108.568L387.696 79.618C393.727 80.7197 399.951 79.4721 405.091 76.131C410.232 72.7899 413.899 67.6087 415.341 61.6498C416.783 55.691 415.891 49.4063 412.846 44.0846C409.802 38.7629 404.837 34.8077 398.97 33.03C397.185 27.1714 393.228 22.2166 387.91 19.1798C382.591 16.1429 376.313 15.2536 370.361 16.6939C364.408 18.1342 359.231 21.7952 355.889 26.9276C352.547 32.0599 351.293 38.2755 352.384 44.302L323.4 73.285C313.526 72.149 301.952 73.362 289.135 76.989C268.264 82.895 246.914 94.575 234.745 106.745C230.995 110.498 227.726 114.701 225.012 119.26C211.817 112.597 197.477 107.808 184.63 105.874C178.005 104.799 171.268 104.599 164.591 105.278L135.616 76.303C136.712 70.2746 135.46 64.0554 132.119 58.9196C128.777 53.7837 123.599 50.1201 117.643 48.6791C111.688 47.2382 105.407 48.129 100.087 51.1691C94.7675 54.2093 90.8116 59.1686 89.03 65.031C83.171 66.8157 78.2157 70.7724 75.1786 76.0911C72.1414 81.4099 71.2521 87.6883 72.6926 93.6413C74.1331 99.5943 77.7945 104.772 82.9274 108.113C88.0602 111.455 94.2762 112.708 100.303 111.617L129.275 140.59C128.961 143.423 128.828 146.272 128.879 149.122C129.164 158.238 130.657 167.277 133.32 176H104C101.878 176 99.8434 176.843 98.3431 178.343C96.8429 179.843 96 181.878 96 184V216C96 218.122 96.8429 220.157 98.3431 221.657C99.8434 223.157 101.878 224 104 224H129.09L138.673 289.164L154.503 286.836L145.263 224H446.737L409.091 480H264V496H416C417.92 496 419.776 495.31 421.229 494.054C422.682 492.799 423.636 491.064 423.915 489.164L462.91 224H488C490.122 224 492.157 223.157 493.657 221.657C495.157 220.157 496 218.122 496 216V184C496 181.878 495.157 179.843 493.657 178.343C492.157 176.843 490.122 176 488 176ZM368 152H360V168H368C385.295 168.018 402.126 162.401 415.944 152H432C438.363 152.007 444.463 154.538 448.963 159.037C453.462 163.537 455.993 169.637 456 176H311.531C311.437 168.298 314.786 159.551 324.821 154.534L430.528 101.68C427.389 115.932 419.482 128.686 408.113 137.835C396.744 146.985 382.593 151.981 368 152ZM367.077 52.237C368.231 51.0828 369.004 49.6032 369.293 47.9968C369.582 46.3904 369.373 44.7341 368.694 43.25C368.23 42.2296 367.994 41.1208 368 40C368 37.8783 368.843 35.8434 370.343 34.3431C371.843 32.8429 373.878 32 376 32C378.122 32 380.157 32.8429 381.657 34.3431C383.157 35.8434 384 37.8783 384 40C384 42.1217 384.843 44.1566 386.343 45.6569C387.843 47.1571 389.878 48 392 48C394.122 48 396.157 48.8429 397.657 50.3431C399.157 51.8434 400 53.8783 400 56C400 58.1217 399.157 60.1566 397.657 61.6568C396.157 63.1571 394.122 64 392 64C390.879 64.0065 389.77 63.7697 388.749 63.306C387.265 62.6271 385.609 62.4181 384.003 62.7071C382.397 62.9961 380.917 63.7693 379.763 64.923L353.365 91.321C351.863 88.6893 350.019 86.2674 347.883 84.118C345.734 81.98 343.308 80.1387 340.671 78.643L367.077 52.237ZM246.06 118.059C256.28 107.839 275.34 97.521 293.492 92.384C313.32 86.774 329.022 87.884 336.568 95.431C342.707 101.57 344.599 113.078 342.01 128.051L317.665 140.223C310.931 143.432 305.264 148.513 301.342 154.857C297.419 161.202 295.407 168.542 295.545 176H238.424C233.138 166.849 231.022 156.21 232.402 145.733C233.783 135.256 238.584 125.528 246.06 118.059ZM108.237 96.923C107.083 95.7693 105.603 94.9961 103.997 94.7071C102.391 94.4181 100.735 94.6271 99.251 95.306C98.2303 95.7697 97.1211 96.0065 96 96C93.8783 96 91.8434 95.1571 90.3431 93.6569C88.8429 92.1566 88 90.1217 88 88C88 85.8783 88.8429 83.8434 90.3431 82.3431C91.8434 80.8429 93.8783 80 96 80C98.1217 80 100.157 79.1571 101.657 77.6568C103.157 76.1566 104 74.1217 104 72C104 69.8783 104.843 67.8434 106.343 66.3431C107.843 64.8429 109.878 64 112 64C114.122 64 116.157 64.8429 117.657 66.3431C119.157 67.8434 120 69.8783 120 72C120.006 73.1211 119.77 74.2303 119.306 75.251C118.627 76.7349 118.418 78.3911 118.707 79.9973C118.996 81.6035 119.769 83.0829 120.923 84.237L147.336 110.651C142.027 113.638 137.634 118.017 134.63 123.316L108.237 96.923ZM151.432 127.431C163.42 115.441 193.762 121.175 218.602 133.947C214.521 147.794 215.242 162.614 220.648 176H150.083C142.697 154.072 143.123 135.74 151.432 127.431ZM480 208H112V192H480V208Z" fill="black"/>
<path d="M271.1 456H305.371C306.551 459.345 308.458 462.387 310.955 464.907C313.452 467.426 316.476 469.361 319.81 470.572C323.144 471.783 326.705 472.239 330.237 471.909C333.769 471.578 337.184 470.469 340.235 468.661C343.287 466.852 345.9 464.39 347.886 461.451C349.872 458.512 351.181 455.169 351.721 451.663C352.26 448.157 352.015 444.576 351.004 441.175C349.993 437.775 348.241 434.642 345.874 432C348.239 429.358 349.99 426.225 350.999 422.826C352.009 419.426 352.253 415.846 351.713 412.341C351.173 408.836 349.863 405.495 347.877 402.557C345.892 399.619 343.28 397.158 340.229 395.35C337.178 393.542 333.765 392.433 330.234 392.102C326.704 391.772 323.144 392.228 319.81 393.437C316.477 394.647 313.453 396.58 310.957 399.098C308.46 401.616 306.552 404.657 305.371 408H271.1C264.914 399.853 255.612 392.186 243.502 385.418C224.566 374.838 201.21 368 184 368C182.352 368 180.725 368.083 179.108 368.206L187.696 359.617C193.725 360.713 199.944 359.463 205.081 356.121C210.217 352.78 213.881 347.601 215.322 341.645C216.763 335.69 215.873 329.408 212.832 324.088C209.792 318.768 204.832 314.812 198.969 313.031C197.184 307.172 193.227 302.218 187.909 299.181C182.59 296.144 176.312 295.255 170.36 296.695C164.407 298.135 159.23 301.796 155.888 306.929C152.546 312.061 151.292 318.276 152.383 324.303L123.402 353.285C113.528 352.148 101.953 353.361 89.136 356.989C68.265 362.895 46.915 374.575 34.746 386.745C22.7818 398.755 16.0715 415.022 16.0877 431.974C16.104 448.927 22.8455 465.18 34.8326 477.167C46.8198 489.155 63.0732 495.896 80.0257 495.913C96.9782 495.929 113.245 489.219 125.255 477.255C127.702 474.778 129.987 472.147 132.098 469.378C138.018 477.614 145.812 484.323 154.837 488.952C163.861 493.581 173.857 495.997 184 496C201.21 496 224.566 489.163 243.501 478.582C255.611 471.814 264.913 464.147 271.099 456H271.1ZM312 424C314.122 424 316.157 423.157 317.657 421.657C319.157 420.157 320 418.122 320 416C320 414.418 320.469 412.871 321.348 411.555C322.227 410.24 323.477 409.214 324.939 408.609C326.4 408.003 328.009 407.845 329.561 408.154C331.113 408.462 332.538 409.224 333.657 410.343C334.776 411.462 335.538 412.887 335.846 414.439C336.155 415.991 335.997 417.6 335.391 419.061C334.786 420.523 333.76 421.773 332.445 422.652C331.129 423.531 329.582 424 328 424C325.878 424 323.843 424.843 322.343 426.343C320.843 427.843 320 429.878 320 432C320 434.122 320.843 436.157 322.343 437.657C323.843 439.157 325.878 440 328 440C329.582 440 331.129 440.469 332.445 441.348C333.76 442.227 334.786 443.477 335.391 444.939C335.997 446.4 336.155 448.009 335.846 449.561C335.538 451.113 334.776 452.538 333.657 453.657C332.538 454.776 331.113 455.538 329.561 455.846C328.009 456.155 326.4 455.997 324.939 455.391C323.477 454.786 322.227 453.76 321.348 452.445C320.469 451.129 320 449.582 320 448C320 445.878 319.157 443.843 317.657 442.343C316.157 440.843 314.122 440 312 440H279.028C280.324 434.745 280.324 429.255 279.028 424H312ZM167.077 332.237C168.231 331.083 169.004 329.603 169.293 327.997C169.582 326.39 169.373 324.734 168.694 323.25C168.23 322.23 167.993 321.121 168 320C168 317.878 168.843 315.843 170.343 314.343C171.843 312.843 173.878 312 176 312C178.122 312 180.157 312.843 181.657 314.343C183.157 315.843 184 317.878 184 320C184 322.122 184.843 324.157 186.343 325.657C187.843 327.157 189.878 328 192 328C194.122 328 196.157 328.843 197.657 330.343C199.157 331.843 200 333.878 200 336C200 338.122 199.157 340.157 197.657 341.657C196.157 343.157 194.122 344 192 344C190.879 344.007 189.77 343.77 188.75 343.306C187.266 342.627 185.61 342.418 184.003 342.707C182.397 342.996 180.917 343.769 179.763 344.923L153.361 371.325C150.364 366.021 145.977 361.636 140.671 358.643L167.077 332.237ZM113.94 465.94C109.493 470.442 104.199 474.019 98.3638 476.467C92.5286 478.916 86.2669 480.186 79.9389 480.205C73.611 480.224 67.3417 478.992 61.4918 476.579C55.6419 474.166 50.3268 470.62 45.8523 466.146C41.3778 461.671 37.8323 456.356 35.4196 450.506C33.007 444.656 31.7749 438.387 31.7942 432.059C31.8135 425.731 33.0838 419.469 35.5321 413.634C37.9804 407.799 41.5583 402.505 46.06 398.058C56.28 387.838 75.34 377.52 93.492 372.383C113.32 366.773 129.022 367.883 136.568 375.43C138.921 377.886 140.633 380.882 141.554 384.156C131.993 392.614 125.185 403.743 122.009 416.106C118.833 428.47 119.434 441.502 123.734 453.521C120.897 457.981 117.616 462.142 113.94 465.941V465.94ZM235.695 464.613C219.228 473.817 198.453 480 184 480C171.27 480 159.061 474.943 150.059 465.941C141.057 456.939 136 444.73 136 432C136 419.27 141.057 407.061 150.059 398.059C159.061 389.057 171.27 384 184 384C198.453 384 219.228 390.183 235.695 399.386C253.684 409.438 264 421.326 264 432C264 442.674 253.684 454.562 235.695 464.614V464.613Z" fill="black"/>
</svg>
