<svg width="512" height="512" viewBox="0 0 512 512" fill="none" xmlns="http://www.w3.org/2000/svg">
<g clip-path="url(#clip0_2_20)">
<path d="M256.025 483.334L357.454 457.72C415.349 409.646 452.225 337.134 452.225 256.001C452.225 130.857 364.514 26.2 247.213 0.148987C109.897 4.77999 0 117.556 0 256C0 327.112 29 391.446 75.812 437.836L256.025 483.334Z" fill="#CBE2FF"/>
<path d="M446.914 256C446.914 339.915 406.533 414.391 344.149 461.079L436.18 437.838C482.995 391.448 512 327.114 512 256C512 114.615 397.385 0 256 0C244.976 0 234.114 0.698 223.457 2.05C349.476 18.038 446.914 125.64 446.914 256Z" fill="#BED8FB"/>
<path d="M319.621 96.952C319.621 83.877 309.022 73.278 295.947 73.278H214.365C184.274 73.278 159.88 97.672 159.88 127.763V188.256H352.089V128.621C352.089 115.546 341.49 104.947 328.415 104.947H327.617C326.567 104.947 325.527 104.74 324.557 104.339C323.587 103.937 322.706 103.348 321.963 102.606C321.221 101.863 320.632 100.982 320.23 100.012C319.828 99.0417 319.621 98.002 319.621 96.952Z" fill="#365E7D"/>
<path d="M328.415 104.947H327.617C325.496 104.947 323.463 104.105 321.963 102.605C320.463 101.105 319.621 99.0717 319.621 96.951C319.621 83.876 309.022 73.277 295.947 73.277H287.002V188.255H352.088V128.62C352.089 115.547 341.489 104.947 328.415 104.947Z" fill="#2B4D66"/>
<path d="M425.045 372.355C418.645 366.032 410.834 361.321 402.255 358.61L332.364 336.482L256.016 333.799L179.636 336.482L109.745 358.61C86.101 366.096 70.032 388.038 70.032 412.839V431.933C114.821 479.261 177.483 509.501 247.215 511.853C325.343 494.5 390.344 442.277 425.045 372.355Z" fill="#4A80AA"/>
<path d="M441.968 431.932V412.838C441.968 395.302 433.928 379.203 420.863 368.625C383.752 444.251 310.441 498.893 223.517 509.942C234.139 511.291 244.835 511.978 255.543 511.999C265.843 511.985 276.134 511.39 286.367 510.217C347.398 503.005 401.852 474.323 441.968 431.932Z" fill="#407093"/>
<path d="M261.796 508.168C277.285 477.417 317.618 390.101 306.117 335.559L256.016 316.06L205.868 335.56C194.012 391.785 237.238 482.837 251.549 510.85C254.983 510.026 258.399 509.132 261.796 508.168Z" fill="#E4F6FF"/>
<path d="M288.197 483.789L267.883 403.872H244.116L223.852 483.571L248.91 511.468C255.241 510.018 261.515 508.331 267.72 506.411L288.197 483.789Z" fill="#E28086"/>
<path d="M249.302 511.905C251.377 511.959 253.456 511.996 255.543 512C257.958 511.996 260.365 511.954 262.765 511.887L275.672 497.628C265.434 501.22 254.976 504.152 244.363 506.407L249.302 511.905Z" fill="#DD636E"/>
<path d="M298.774 328.183V283.117H213.194V328.183C213.194 351.815 255.984 377.629 255.984 377.629C255.984 377.629 298.774 351.815 298.774 328.183Z" fill="#FFDDCE"/>
<path d="M352.089 180.318H335.73C326.632 180.318 319.257 172.943 319.257 163.845V154.83C319.257 142.979 307.662 134.6 296.41 138.319C270.168 146.993 241.831 146.995 215.587 138.325L215.556 138.315C204.304 134.598 192.711 142.977 192.711 154.827V163.846C192.711 172.944 185.336 180.319 176.238 180.319H159.88V207.257C159.88 214.14 165.46 219.721 172.344 219.721C174.516 219.721 176.283 221.422 176.42 223.59C179.048 265.258 213.655 298.244 255.985 298.244C298.315 298.244 332.922 265.258 335.55 223.59C335.687 221.423 337.454 219.721 339.626 219.721C346.509 219.721 352.09 214.141 352.09 207.257V180.318H352.089Z" fill="#FFDDCE"/>
<path d="M335.73 180.318C326.632 180.318 319.257 172.943 319.257 163.845V154.83C319.257 142.979 307.662 134.6 296.41 138.319C293.31 139.34 290.172 140.243 287.003 141.026V229.998C286.565 258.946 270.703 284.14 247.278 297.756C250.169 298.075 253.075 298.237 255.984 298.242C298.314 298.242 332.921 265.256 335.549 223.588C335.686 221.421 337.453 219.719 339.625 219.719C346.508 219.719 352.089 214.139 352.089 207.255V180.317L335.73 180.318Z" fill="#FFCBBE"/>
<path d="M213.194 316.06L179.636 343.327L214.828 386.84C216.895 388.852 219.634 390.027 222.516 390.136C225.399 390.246 228.219 389.283 230.433 387.434L256.898 365.327L213.194 316.06ZM298.79 316.06L256.898 365.327L281.772 386.595C283.972 388.476 286.792 389.471 289.685 389.387C292.578 389.303 295.336 388.147 297.423 386.142L332.363 343.327L298.79 316.06Z" fill="#F4FBFF"/>
<path d="M213.194 316.06L163.938 340.259C163.048 340.696 162.253 341.307 161.602 342.055C160.95 342.803 160.454 343.674 160.143 344.616C159.832 345.558 159.712 346.553 159.79 347.542C159.868 348.531 160.142 349.494 160.597 350.376L170.247 369.086C171.466 371.448 171.902 374.137 171.491 376.764C171.081 379.39 169.846 381.818 167.965 383.696C165.963 385.693 163.962 387.691 161.961 389.689C158.623 393.021 157.424 397.944 158.894 402.426C170.545 437.943 226.619 492.254 247.84 511.904C249.267 511.942 250.697 511.968 252.13 511.984C236.741 482.051 182.208 368.329 213.194 316.06ZM344.019 383.695C342.138 381.817 340.903 379.389 340.492 376.763C340.082 374.136 340.518 371.447 341.737 369.085L351.387 350.375C351.842 349.493 352.116 348.53 352.194 347.541C352.272 346.552 352.152 345.557 351.841 344.615C351.53 343.673 351.034 342.802 350.382 342.054C349.731 341.306 348.936 340.695 348.046 340.258L298.79 316.06C329.768 368.315 275.273 481.989 259.867 511.96C261.315 511.935 262.76 511.899 264.202 511.851C285.467 492.156 341.45 437.911 353.09 402.427C354.56 397.945 353.361 393.022 350.023 389.69L344.019 383.695Z" fill="#365E7D"/>
<path d="M256.898 365.327L230.838 387.091L244.116 403.872H267.883L281.162 386.101L256.898 365.327Z" fill="#DD636E"/>
</g>
<defs>
<clipPath id="clip0_2_20">
<rect width="512" height="512" fill="white"/>
</clipPath>
</defs>
</svg>
