<svg width="96" height="107" viewBox="0 0 96 107" fill="none" xmlns="http://www.w3.org/2000/svg">
<path fill-rule="evenodd" clip-rule="evenodd" d="M78.0784 102.93C80.0592 103.059 79.5143 102.855 79.7182 103.375C78.7249 103.599 79.3716 103.605 78.3782 103.829L78.0784 102.93ZM79.1819 102.694C78.0074 102.166 78.3785 102.462 78.3785 100.878C79.3499 101.313 78.9568 100.442 79.1819 102.694ZM76.238 91.5683C78.1181 91.7012 77.3084 92.6315 77.3084 93.1568C77.3084 93.2925 77.6773 93.6286 77.8445 93.8394C77.602 94.252 77.6368 94.1227 77.5746 94.7467C77.0882 94.5415 77.2399 94.5724 76.5059 94.519C77.1601 93.361 76.9039 92.6367 76.238 91.5683ZM27.5283 15.0484C27.5283 13.2009 27.4609 14.5055 26.4579 13.2314C27.4969 13.3059 27.1543 13.4371 28.3296 13.4593C28.1465 14.1278 28.0652 14.1523 28.0652 15.0484H27.5283ZM26.0011 10.2122L24.3176 8.69189C24.4997 9.8998 24.9632 9.59854 24.8266 10.9151C24.7481 11.6931 24.5832 12.0803 24.5832 13.2314C24.5832 14.7885 27.6375 17.2485 28.941 18.3903C30.6102 19.8509 31.8384 22.6679 31.6983 24.7293C31.6641 25.24 31.6755 25.7892 31.6124 26.0725L31.2658 27.2972C30.9703 28.7593 30.0896 29.8066 28.8959 30.7421C26.5954 32.5394 27.1152 34.7421 26.4787 37.3194C26.2356 38.3059 25.4882 38.6865 24.7735 39.5061C22.7742 41.8001 20.2834 43.0922 21.0434 44.825C21.3943 45.6281 21.4126 45.2264 21.8071 45.7958C22.4094 46.6648 21.5966 47.4111 21.1335 48.2251C18.2995 53.219 22.5155 51.1895 19.4971 55.0106C20.3499 56.0907 21.4782 57.3066 22.0844 58.496C22.1095 58.5482 22.1272 58.613 22.1537 58.6649C22.429 59.1559 22.0736 58.777 22.4504 59.1074C22.7226 59.3427 22.5902 59.353 23.338 59.4235C25.2289 59.6001 25.5797 58.46 28.5704 59.8035C30.6664 60.7455 30.275 62.9499 30.2071 64.3233C30.1706 65.0773 30.2442 65.0796 30.0402 65.7726C29.8574 66.3936 29.6682 66.3457 29.6682 66.8184C29.6682 68.3641 31.5411 68.0554 31.5411 69.0896C31.5411 71.1331 30.6094 73.7104 30.9982 75.3731L31.0056 76.8092L34.9463 78.2348C36.3248 78.6493 38.129 78.7634 39.1084 79.4715C40.0239 80.1317 41.3405 80.8429 42.1484 81.6605C42.905 82.4314 43.111 83.346 43.1369 84.4047L43.0742 87.4841C42.8185 88.6387 42.982 87.7771 42.5333 88.6321C41.003 91.5338 42.4745 95.162 45.8041 92.5417C47.2842 91.3766 47.4331 89.729 47.4753 88.0207C47.5047 86.8322 48.1862 86.273 48.4444 85.0192C48.5603 84.4552 48.7725 83.8005 48.8641 83.3309C49.0221 82.5038 49.0176 82.2573 49.2053 81.5769C57.4758 80.9932 58.0073 80.0892 58.0255 84.993C58.0352 87.7394 60.4693 89.5735 62.1599 87.7988C63.7846 86.0942 61.0961 83.4872 63.1171 82.028C63.9664 81.4135 66.2855 80.8911 67.0886 82.3153C67.622 83.2598 66.775 85.7804 67.4608 87.4319L67.8543 88.2347C67.8688 88.2013 67.9033 88.3411 67.939 88.3893C67.9618 88.3368 68.0206 88.2775 68.04 88.2464C68.7355 87.1064 68.4265 85.7053 69.293 84.314C69.7742 83.5443 70.6395 81.5772 71.9541 81.5772C74.1722 81.5772 74.0456 83.2667 74.5289 84.6172C74.746 85.2269 75.1653 85.549 75.1653 85.664C75.1653 86.8396 74.8064 87.2693 74.746 88.4486C74.6935 89.4988 74.7785 89.5182 75.2016 90.6297C75.7151 91.9722 75.8783 93.8874 76.2372 95.2011C76.2754 95.2154 76.3436 95.186 76.3598 95.1854L76.5963 95.164C76.9866 95.2083 76.9695 94.9743 77.0388 95.6556C76.1998 95.9423 76.6714 95.2342 76.5051 96.324C76.3681 97.2409 76.9455 97.7696 77.0229 98.622C77.1889 100.469 77.8439 101.708 77.8439 101.786C77.8439 102.707 77.2069 101.972 77.4548 103.029L78.0017 104.375C79.0635 107.797 81.5892 106.847 81.5892 104.51C81.5892 103.588 79.0866 100.925 78.9768 99.111L78.5454 95.0805C78.3531 93.9801 78.6456 95.075 78.6456 93.8394C78.6456 92.3206 78.5574 93.0295 78.3326 92.514L77.8102 90.4608C77.6345 89.733 77.5381 89.7781 77.3255 89.0552C76.0269 84.6384 77.8282 85.2443 78.5623 82.8687C79.0147 81.4035 78.5491 81.4651 79.4227 80.193C79.9559 79.4142 80.3964 79.0886 80.953 78.3112C81.9155 76.9729 82.1067 74.8533 82.9292 73.4026C84.1542 72.3627 90.4231 73.6784 88.181 68.7039L88.0335 68.416C88.0175 68.3778 87.9884 68.3145 87.9756 68.2794C86.8573 65.2142 88.1471 64.0032 87.2099 61.3731C86.8656 60.4051 86.9834 59.5313 86.6744 58.4258C86.2713 56.9928 86.7974 56.4648 86.8715 55.1844C86.9797 53.3026 84.783 51.0023 88.6246 50.3065C90.4128 49.9816 90.9574 50.2446 90.9574 48.4259C88.7924 47.7609 88.6997 45.2333 88.3702 43.3338C87.9171 40.6989 91.3968 39.9475 86.572 36.0253C86.2385 35.7537 86.3389 35.8887 86.063 35.5483C85.8151 35.2408 85.9173 35.3007 85.6893 34.9583C85.3002 34.3812 85.4163 34.5147 84.8794 34.0554C82.8812 32.3434 82.8307 32.1542 81.4037 29.9649C79.7938 27.4915 81.4956 27.6053 75.957 23.0062C74.9009 22.1289 75.8167 21.2143 73.679 20.6255C72.6676 20.3473 72.9138 20.6868 71.9958 20.2355C70.827 19.6618 69.9557 17.9241 69.0419 17.0639C66.6829 14.8358 66.1896 17.4009 62.6566 15.6541C61.9659 15.3134 60.7386 16.1844 60.1792 14.1406C58.8357 14.4444 59.2822 15.197 57.7317 15.1537C56.5634 15.1209 56.9566 14.4416 55.6285 14.1406L54.834 15.5094C54.5325 15.9687 54.8993 15.1597 54.5581 15.9565C53.7799 15.9565 53.5254 16.0027 52.8008 15.8415C51.6165 15.5739 52.6424 15.4495 51.4388 15.5873C50.5593 15.6891 49.9282 16.3407 48.8644 16.5744C45.83 17.2434 47.7592 17.7138 44.5862 19.0764C42.0574 20.1599 39.91 25.6123 36.3154 23.263C32.5761 20.8198 30.8907 18.8265 29.9398 14.5905C29.4794 12.5273 27.2901 11.8934 26.0011 10.2122Z" fill="#FFA500"/>
<path fill-rule="evenodd" clip-rule="evenodd" d="M60.0151 36.2469C59.8228 35.5717 59.8097 35.7825 59.9883 35.6398C60.1966 35.9365 60.1198 35.7214 60.3287 36.0184L60.0151 36.2469ZM23.666 75.9219C24.1393 75.747 24.2626 75.4458 24.478 75.0449C24.7761 74.4895 24.931 74.437 24.6734 73.7372C24.5904 73.5115 24.2075 73.3041 23.9456 73.4008C23.4621 73.5791 23.4444 74.0304 23.2002 74.3819C22.33 75.6329 23.039 76.153 23.666 75.9219ZM27.0396 71.9584C27.5902 71.7553 27.6949 71.757 28.1782 70.7904C28.3379 70.4712 28.5042 68.7991 27.2544 69.2607C26.5286 69.5277 25.7843 70.916 26.2596 71.5561C26.4231 71.7758 26.7685 72.0582 27.0396 71.9584ZM18.7049 82.6858C20.2594 82.255 19.9773 82.5748 20.4965 81.3036C20.7883 80.5881 21.5569 80.5849 21.3815 78.1751C21.3592 77.8661 21.3201 77.8442 21.0571 77.588C19.9433 78.3212 20.1764 77.3811 19.1611 78.7742C18.9009 79.1305 18.6735 79.2024 18.354 79.506C17.6664 80.1598 17.7306 80.8645 18.0467 81.7189C18.1289 81.9412 18.336 81.8935 18.7049 82.6858ZM59.788 35.9154C59.725 36.381 59.7952 36.2147 59.1764 36.4429C59.2283 36.0586 58.9362 36.3143 59.788 35.9154ZM55.802 38.4921C55.6243 37.8505 56.0862 37.9846 56.2921 37.909C56.3446 37.889 56.4305 37.7187 56.4924 37.6334C56.6835 37.6534 56.6288 37.6611 56.8795 37.5915C56.8599 37.7832 56.8527 37.7276 56.9217 37.9783C56.3897 37.9287 56.1384 38.1176 55.802 38.4921ZM31.8652 65.6473C31.144 65.9134 31.6612 65.7471 31.2861 66.2629C31.1882 65.908 31.2815 66.0024 31.1466 65.6096C31.4302 65.5742 31.4498 65.5988 31.8002 65.4698L31.8652 65.6473ZM30.1629 66.8489L29.7746 67.6263C30.2242 67.3921 30.0499 67.2817 30.5808 67.1373C30.8944 67.0512 31.0653 67.05 31.5152 66.884C32.1228 66.6597 32.7111 65.2944 32.9975 64.6973C33.3644 63.9344 34.3141 63.1225 35.1363 62.872C35.3403 62.8092 35.5537 62.7265 35.6712 62.7071L36.1922 62.6455C36.799 62.5325 37.3159 62.674 37.8269 62.935C38.8103 63.4383 39.6068 62.9493 40.6909 62.7884C41.1063 62.7273 41.3462 62.9202 41.7536 63.0386C42.8933 63.3709 43.7027 64.0106 44.2866 63.5093C44.5571 63.2768 44.3982 63.3284 44.5722 63.1162C44.839 62.7915 45.2292 62.9541 45.603 62.9901C47.8995 63.2106 46.5923 62.1054 48.453 62.555C48.7705 62.1177 49.1077 61.5685 49.4989 61.1965C49.516 61.1805 49.5388 61.1648 49.5559 61.1488C49.7134 60.9876 49.6095 61.1594 49.6923 60.9862C49.7519 60.8627 49.7716 60.9052 49.7074 60.6473C49.5454 59.9954 49.0575 60.0428 49.2173 58.8588C49.3291 58.0287 50.2377 57.8409 50.7826 57.6652C51.0805 57.5696 51.0731 57.5448 51.3686 57.5123C51.6337 57.4832 51.6377 57.5536 51.8225 57.4846C52.4265 57.2626 52.0773 56.6861 52.4804 56.538C53.2795 56.2436 54.3995 56.1811 55.0009 55.8128L55.5612 55.6034L55.6374 54.0928C55.6306 53.5762 55.4548 52.9622 55.6117 52.5354C55.7584 52.1372 55.8753 51.5986 56.0959 51.2137C56.3041 50.8514 56.6362 50.6511 57.0467 50.4911L58.2566 50.0683C58.7388 49.9872 58.3821 50.056 58.7716 50.082C60.0907 50.1713 61.3286 49.1619 59.8987 48.4356C59.2628 48.1135 58.6015 48.3006 57.9288 48.5328C57.4612 48.694 57.1597 48.5494 56.6382 48.6438C56.4045 48.6861 56.1221 48.7103 55.9281 48.7477C55.5855 48.8141 55.4896 48.8512 55.2015 48.8872C53.9633 46.2303 53.5448 46.1847 55.4582 45.4731C56.5286 45.0743 56.9483 44.0036 56.0488 43.6989C55.1846 43.4062 54.4954 44.6723 53.6777 44.2127C53.3343 44.0199 52.847 43.3263 53.3055 42.8553C53.6093 42.5421 54.6971 42.4608 55.2585 41.9949L55.5233 41.7496C55.5087 41.7499 55.5592 41.7176 55.5735 41.6985C55.551 41.6985 55.5201 41.6882 55.5059 41.6862C54.9752 41.6195 54.466 41.9242 53.8167 41.8369C53.4575 41.7886 52.5831 41.7849 52.4228 41.349C52.1512 40.6141 52.8273 40.413 53.296 40.0584C53.5066 39.8989 53.5813 39.7135 53.6258 39.6961C54.0854 39.5272 54.2968 39.5845 54.7647 39.435C55.1821 39.3006 55.1792 39.271 55.5612 38.97C56.0231 38.6068 56.7514 38.277 57.2199 37.9692C57.2213 37.9538 57.2016 37.9358 57.1988 37.9301L57.1611 37.8545C57.1315 37.7196 57.0419 37.7584 57.2998 37.6369C57.5149 37.8745 57.1805 37.8203 57.6258 37.7179C58.0004 37.6314 58.1365 37.3638 58.4595 37.2158C59.1615 36.8945 59.5655 36.4994 59.5955 36.4889C59.9558 36.3556 59.7461 36.6726 60.129 36.4378L60.5871 36.0638C61.7945 35.219 61.1146 34.5184 60.202 34.855C59.8414 34.9882 59.1073 36.2007 58.4121 36.4983L56.8918 37.2218C56.4847 37.4434 56.8767 37.1884 56.394 37.3667C55.8003 37.5852 56.0887 37.5127 55.915 37.6608L55.1766 38.1298C54.9139 38.2925 54.9433 38.3178 54.6865 38.4924C53.1209 39.5583 53.1371 38.875 52.1192 38.9737C51.4924 39.0345 51.5732 39.1794 50.9692 39.0741C50.6003 39.0091 50.4195 38.9104 50.048 38.8373C49.407 38.7112 48.556 38.9523 47.8898 38.8895C47.3335 38.6334 47.0813 36.3667 45.4133 37.8251L45.3185 37.9159C45.3054 37.9267 45.2843 37.9455 45.2715 37.9547C44.2116 38.7666 43.5806 38.5133 42.6685 39.2025C42.3324 39.4558 41.977 39.542 41.5821 39.8048C41.0717 40.1442 40.8021 40.0461 40.2926 40.205C39.5437 40.4401 38.9141 41.4991 38.1732 40.3265C37.8275 39.7811 37.864 39.5628 37.153 39.8244C37.1582 40.6375 36.1825 41.0321 35.4804 41.4149C34.5073 41.9444 33.7895 40.8991 32.8466 43.0625C32.7813 43.2114 32.8212 43.1597 32.7222 43.2993C32.6324 43.4268 32.6426 43.3837 32.5376 43.5087C32.359 43.7201 32.3976 43.6624 32.2834 43.9069C31.8592 44.815 31.7916 44.8589 31.1103 45.6466C30.3409 46.5367 30.1772 45.9558 29.058 48.4535C28.8443 48.9297 28.3747 48.7585 28.4067 49.551C28.4207 49.9262 28.5231 49.7961 28.4595 50.1644C28.3787 50.6346 27.8056 51.1735 27.5813 51.5994C26.9999 52.7026 28.0615 52.4966 27.8113 53.9188C27.7625 54.197 28.2523 54.4774 27.5223 54.9575C27.8044 55.3586 28.0449 55.1033 28.2167 55.6228C28.3468 56.0145 28.0335 55.982 28.078 56.4653L28.7102 56.5312C28.9259 56.5648 28.5647 56.5606 28.9182 56.5586C29.0129 56.8162 29.0631 56.8944 29.0877 57.1574C29.1285 57.5882 28.9541 57.2664 29.1547 57.6449C29.303 57.9222 29.6331 58.0375 29.8551 58.3567C30.4876 59.2651 30.4345 58.5582 31.354 59.4143C32.0866 60.0956 34.4782 60.0225 33.9995 61.5517C33.5028 63.1424 32.9293 63.9874 31.3908 64.9118C30.6425 65.364 30.6616 66.1799 30.1629 66.8489Z" fill="#FFA500"/>
<path fill-rule="evenodd" clip-rule="evenodd" d="M25.5886 38.7764C25.2853 39.5452 24.8343 38.8934 24.2535 39.4788C23.5782 40.1589 24.4706 40.7965 23.7853 41.625C23.4575 42.0218 23.4084 42.068 23.5408 42.6897C23.789 42.7493 23.9833 42.929 24.2035 42.8483C24.6965 42.666 24.3955 41.9716 25.0956 41.7137C25.0956 41.7137 25.8006 41.9431 26.17 41.3266C26.7443 40.3714 25.6012 39.6922 25.8571 38.9741C25.9832 38.6198 25.9406 38.9784 26.4174 38.1288C26.7489 37.5362 27.3177 37.7528 27.7143 37.3288C28.0732 36.9448 27.8989 36.5106 27.9183 36.0248C27.9491 35.232 28.502 34.8788 28.8614 34.3253C29.6251 33.1485 30.7224 33.2695 31.2439 32.627C31.7069 32.0556 31.6013 31.4385 31.5069 30.6885C32.9539 29.7365 32.6369 30.3153 33.7809 29.3085C34.2263 28.9157 34.1024 28.8301 34.2611 28.352C34.6468 27.1794 33.9806 26.907 33.6594 26.343C33.4192 25.9227 33.4146 25.7844 33.1296 25.4178C32.0989 24.0872 30.6416 23.6764 29.064 23.8624C27.8894 24.0005 27.8604 24.217 27.3072 24.7762C27.0342 25.0523 26.3458 25.4121 26.2679 26.3572C26.1968 27.2185 26.3529 27.6482 26.6516 28.447C26.8476 28.9693 26.9554 29.1385 26.9426 29.6118C26.9075 30.9093 27.2401 30.3342 27.1671 32.2924C27.1297 33.29 27.1508 33.6024 26.9021 34.525C26.564 35.778 26.867 34.6551 26.4065 35.5469C26.2142 35.9187 26.3674 35.853 26.1595 36.4636C26.0399 36.8153 26.0687 37.0601 25.992 37.4176C25.9777 37.4823 25.9332 37.6278 25.9144 37.6758L25.5886 38.7764Z" fill="#FFA500"/>
<path fill-rule="evenodd" clip-rule="evenodd" d="M44.4704 80.4414C44.6067 80.8108 44.6173 80.6828 44.7328 81.0137C45.0061 81.7942 45.9467 82.5631 46.4717 82.8036C46.7755 82.9431 47.0163 83.0658 47.3215 83.1947L50.3174 83.6731C50.5767 83.597 50.4238 83.5836 50.7969 83.4783C51.6713 83.2327 52.1209 83.2181 52.5626 82.3346C52.8464 81.7654 52.9982 81.2588 53.14 80.6143C53.2199 80.2466 53.1354 80.1222 53.2167 79.765C53.3394 79.2184 53.3134 78.5813 53.2316 78.0065C53.0766 76.9164 52.7976 76.4822 52.2316 75.743C51.6702 75.0098 51.9868 75.4737 51.4679 75.0055C51.4046 74.9491 51.384 74.9168 51.3176 74.8526L49.5117 73.8222C48.7269 73.5195 47.3155 74.104 46.8437 74.3956C46.1356 74.8329 45.6723 75.6956 45.229 76.3752C44.8701 76.9241 44.7465 77.2841 44.5203 77.8145C44.2604 78.4213 44.3155 80.0212 44.4704 80.4414Z" fill="#FFA500"/>
<path fill-rule="evenodd" clip-rule="evenodd" d="M10.5191 84.117C12.3444 83.4454 11.9781 82.7125 12.7954 81.5611C12.8987 81.4173 12.8865 81.4727 12.9692 81.273C13.7246 79.4417 13.0268 77.2741 10.979 77.0587C9.96538 76.952 10.3257 76.2139 10.0698 75.5201C9.96453 75.2363 9.51834 75.1575 9.13519 75.3715C8.82024 75.5478 8.62739 75.8536 8.60456 76.172C8.5592 76.7845 9.36286 77.1908 8.70299 78.2016C7.61005 79.8751 6.35507 81.4855 8.29646 83.1915C8.45993 83.3359 8.50671 83.4392 8.64022 83.5633C9.10239 83.9915 8.98029 83.5675 9.53318 83.8602C9.85412 84.03 10.0102 84.3044 10.5191 84.117Z" fill="#FFA500"/>
<path fill-rule="evenodd" clip-rule="evenodd" d="M6.43067 83.4081C6.34252 83.1702 6.1334 82.9873 5.95595 82.8398C5.51033 82.465 4.91779 82.4904 4.50583 82.8079C4.15949 83.0749 4.21997 83.0809 4.02341 83.4021C3.86051 83.6675 3.74497 83.7411 3.63571 84.0329C3.33302 84.8431 3.41517 85.6111 3.74668 86.5129C3.82456 86.7243 4.53464 86.9269 4.87956 86.5959C5.25243 86.2382 4.82735 86.5001 5.36683 86.2627C5.57737 86.1697 5.68179 86.0838 5.85125 85.865C6.21442 85.3957 6.68629 84.1031 6.43067 83.4081Z" fill="#FFA500"/>
<path fill-rule="evenodd" clip-rule="evenodd" d="M16.2523 54.341C16.8685 54.1137 16.9281 54.1639 17.2339 53.7639C17.2559 53.7351 17.3606 53.591 17.3937 53.5431C17.4046 53.5257 17.4225 53.5037 17.4322 53.4875C17.7555 52.9731 17.6881 52.0062 17.1501 51.4394L16.7649 50.9975C16.4765 50.6765 16.535 50.7747 16.022 50.6936C15.888 50.6725 15.7482 50.5986 15.6868 50.6212C14.8084 50.9447 14.516 51.4462 14.4532 52.2599C14.435 52.4972 14.4473 52.3848 14.4972 52.6533C14.6826 53.6429 15.0886 53.7183 15.6786 54.1488C15.8352 54.2623 16.0012 54.4335 16.2523 54.341Z" fill="#FFA500"/>
<path fill-rule="evenodd" clip-rule="evenodd" d="M21.39 47.5108C21.1159 46.7679 20.8066 46.2587 20.0289 46.3055C19.6075 46.3309 19.4076 46.2789 19.0929 46.744C18.7893 47.1921 19.1083 48.1538 19.2056 48.4169C19.3311 48.7567 20.3841 49.6761 21.1815 48.5938C21.194 48.5769 21.212 48.5555 21.2231 48.5384C21.24 48.5156 21.289 48.4517 21.3033 48.4283C21.4588 48.1701 21.4996 47.8064 21.39 47.5108Z" fill="#FFA500"/>
<path fill-rule="evenodd" clip-rule="evenodd" d="M14.9636 92.3501C15.1234 92.2913 15.3599 92.1172 15.486 92.002L15.7279 91.6725C15.7368 91.6548 15.7467 91.6286 15.7553 91.6111C15.7639 91.5935 15.7756 91.5681 15.7841 91.5504C15.7915 91.533 15.8055 91.5085 15.8132 91.4905L15.8982 91.0146C15.8714 90.5333 15.8483 89.6655 14.8062 89.6603C14.4727 89.6589 13.9902 89.5885 13.6701 90.2809C13.5877 90.4592 13.4319 90.9847 13.4841 91.2043C13.6627 91.9649 14.1851 92.6373 14.9636 92.3501Z" fill="#FFA500"/>
<path fill-rule="evenodd" clip-rule="evenodd" d="M23.4763 44.4256C23.9505 44.2504 24.2538 43.3458 22.9762 42.7969C22.7951 42.9837 22.7434 42.9618 22.5734 43.1994C21.992 44.0171 23.2013 44.5269 23.4763 44.4256Z" fill="#FFA500"/>
<path fill-rule="evenodd" clip-rule="evenodd" d="M17.7731 49.4488C18.1406 48.9424 17.9854 48.612 17.414 48.4736C17.1221 48.7991 16.915 49.1047 17.4433 49.3666C17.4599 49.3749 17.4861 49.3877 17.5038 49.3943L17.7731 49.4488Z" fill="#FFA500"/>
<path fill-rule="evenodd" clip-rule="evenodd" d="M18.2442 48.2681C18.8843 48.0322 18.0285 46.7047 17.7266 47.9548C17.8348 48.0527 18.0838 48.3269 18.2442 48.2681Z" fill="#FFA500"/>
<path fill-rule="evenodd" clip-rule="evenodd" d="M34.3686 71.783C34.4822 71.7279 34.6003 71.7616 34.7877 71.6272L35.8296 70.8632C36.2398 70.542 36.2367 70.702 36.6934 70.5563C37.0272 70.4498 37.7915 69.8245 38.1159 69.6179C38.24 69.5392 38.3621 69.4958 38.5076 69.3934C38.6197 69.3144 38.7133 69.2502 38.8499 69.1735L40.2247 68.1838C40.6706 67.8429 41.2923 67.5987 41.8212 67.3719L42.624 66.9999C43.9477 66.3149 45.381 65.7991 46.7838 65.2858C48.346 64.7141 48.8678 64.8844 50.0049 64.3244C50.1453 64.2557 50.2726 64.2123 50.4081 64.1735C50.4945 64.1481 50.8257 64.0374 50.8691 64.0297C51.0083 64.0049 51.0505 64.0557 51.2876 63.9998C51.7686 63.8879 51.7347 63.755 52.1717 64.1264C52.4898 64.3955 52.7851 64.4069 52.9177 64.5758C53.1032 64.814 53.1197 65.1298 53.5442 65.0382C53.7756 64.9877 53.8264 64.9153 54.0172 65.0764C54.3416 65.3506 54.2001 65.7991 55.0534 65.7551C55.5527 65.7306 55.6708 65.8935 56.0354 65.9725C56.2947 66.0282 56.2388 65.9263 56.5292 65.9959C56.6647 66.0279 56.839 66.1143 56.9637 66.1483C57.518 66.2972 57.4795 66.1106 57.6082 65.7269C57.7862 65.1914 57.8983 65.3526 58.298 65.4088C58.6326 65.4562 58.7211 65.1412 59.2035 65.3954C59.45 65.5255 59.7087 65.7728 59.9427 65.5754C59.7002 65.4256 59.3099 65.1874 59.2985 64.8485C59.2896 64.5994 59.7618 63.8845 59.7906 63.8777C60.1846 63.9125 60.3529 64.2306 60.6442 64.0679L60.6371 63.6414C60.5401 63.5707 60.6188 63.626 60.4887 63.5653L60.0582 63.3162C60.0639 62.9827 60.1957 62.8717 60.3347 62.6586L61.4031 62.7422C61.4276 62.7191 61.5662 62.5474 61.5794 62.522C61.643 62.403 61.7343 62.4398 61.5266 62.3206C61.3215 62.2036 61.0798 62.2809 60.8596 62.1702C60.5823 62.0296 60.2365 61.2502 60.7204 61.1512C60.7797 61.1395 60.8157 61.1366 60.8773 61.1375C60.9954 61.1392 61.0633 61.1612 61.1634 61.1743C61.4193 61.2085 61.449 61.2185 61.6738 61.1366C61.7177 61.0308 61.728 60.9226 61.6612 60.8442L61.522 61.1129C61.4778 61.0348 61.4653 61.0114 61.4376 60.8921C61.447 60.8861 61.4635 60.8801 61.4684 60.8781L61.6067 60.7988C61.2333 60.6559 61.3571 60.695 60.9968 60.6918C60.845 60.6904 60.8676 60.7067 60.7127 60.6048C60.4693 60.4448 60.5181 60.1997 60.5181 59.9401C60.5201 59.6597 60.5072 59.6985 60.6682 59.5421C60.8154 59.3978 61.2607 59.1473 60.9703 58.8175C60.8955 58.7319 60.2168 58.4968 60.1041 58.4949C59.9002 58.4917 59.7886 58.6224 59.6423 58.5308C59.4759 58.4258 59.6126 58.4058 59.5786 58.1511C59.3712 58.039 59.3059 57.8801 59.0457 57.8738C58.6711 57.8641 58.8934 58.0535 58.4218 58.0449C58.1508 58.0395 58.0058 57.9682 57.7819 57.8738C57.5015 57.7542 57.5137 57.7842 57.3608 57.5591C57.5485 57.0935 58.1916 57.0233 58.547 56.2756C58.0412 56.3309 58.2064 56.2856 57.8966 56.1021C57.4247 55.8211 56.6915 56.7087 56.352 56.7925C55.5318 56.9957 55.5646 56.4901 55.1538 56.5669C54.9527 56.6042 54.4666 57.0462 54.1927 57.1828C53.8173 57.3705 53.6113 57.6008 53.284 57.8501C53.1226 57.9731 52.9816 58.0324 52.8059 58.1599C52.6635 58.2626 52.5352 58.4124 52.3814 58.5271C52.1777 58.6769 51.9706 58.6472 51.8371 58.7676C51.5415 59.0332 52.0259 59.07 51.5478 59.1636C51.0243 59.2646 51.4499 59.2503 51.2052 59.6061C51.0765 59.7946 50.9105 59.703 50.6968 59.705C50.9393 60.0294 50.8891 59.7592 50.7547 60.1792C50.6734 60.4317 50.7943 60.495 50.7864 60.8331L50.4988 61.103C50.476 61.1078 50.4728 61.1224 50.4614 61.1343C51.204 61.3888 50.5672 61.4915 50.7992 61.9003C50.8805 62.0447 51.0154 62.0441 51.0733 62.2452C51.1341 62.4549 50.9898 62.4079 51.0531 62.5947C51.2625 62.9063 51.3672 62.5827 51.5119 62.9476C51.6636 63.3516 50.8069 63.5153 50.5693 63.5841L49.221 63.854C48.756 63.9267 48.4638 64.1242 48.0464 64.2956C47.8467 64.3772 47.6781 64.4268 47.4185 64.5059C46.8308 64.6853 46.3216 64.9777 45.6791 65.172L42.2765 66.6281C42.1008 66.7143 41.8916 66.8079 41.7079 66.9026C41.5376 66.991 41.3619 67.1188 41.1853 67.2249L37.4751 69.2345L36.1651 70.3471C35.8302 70.5993 35.6002 70.8019 35.2279 71.0518L34.7558 71.4184C34.6976 71.4589 34.4054 71.7165 34.3686 71.783Z" fill="#FFA500"/>
<path fill-rule="evenodd" clip-rule="evenodd" d="M25.5201 78.8656C24.8206 78.847 24.4186 79.6056 24.1967 80.1419C24.0138 80.5827 23.7217 80.4312 23.5077 80.7111C23.2878 80.9978 23.5719 81.5433 23.9536 81.2317C24.1741 81.0517 24.1593 80.7616 24.551 80.5847C24.8968 80.4287 25.0714 80.4512 25.432 80.2332C26.2248 79.754 26.3007 78.8867 25.5201 78.8656Z" fill="#FFA500"/>
<path fill-rule="evenodd" clip-rule="evenodd" d="M13.552 95.6298C13.6793 95.1873 14.2878 94.7637 14.0824 94.2268C13.8002 93.8944 12.2771 94.6596 11.961 95.0133C11.7895 95.207 11.5924 95.2883 11.5136 95.5756L13.552 95.6298Z" fill="#FFA500"/>
<path fill-rule="evenodd" clip-rule="evenodd" d="M43.4219 52.2449C43.5204 52.2369 43.7874 52.1282 43.8838 52.0583C44.0253 51.9567 44.1466 51.8603 44.1366 51.6104C44.1003 50.6883 42.7729 50.7114 42.7498 51.5713C42.7398 51.9382 43.1153 52.2708 43.4219 52.2449Z" fill="#FFA500"/>
<path fill-rule="evenodd" clip-rule="evenodd" d="M17.7278 88.6173C17.4959 87.8065 17.0425 88.3626 16.8905 88.483C16.6882 88.6419 16.5929 88.7106 16.4235 88.9115C15.9077 89.5231 15.5274 89.6156 15.6383 89.8378C15.7858 90.1328 16.0919 89.7944 16.1656 89.6889C16.5903 89.0781 17.3669 89.2404 17.7278 88.6173Z" fill="#FFA500"/>
<path fill-rule="evenodd" clip-rule="evenodd" d="M33.8671 72.7483C33.935 72.6299 33.9943 72.416 34.0762 72.2713C34.19 72.0711 34.2745 72.0702 34.2816 71.8948C33.949 71.9133 33.2714 72.0394 33.0768 72.2902L33.0626 72.7988C33.3145 73.1452 33.6811 73.071 33.8671 72.7483Z" fill="#FFA500"/>
<path fill-rule="evenodd" clip-rule="evenodd" d="M31.227 74.8036C31.4932 74.7887 31.5177 74.4889 31.6059 74.2544C31.7249 73.9397 31.9026 73.8963 31.4541 73.9651C31.1554 74.0107 30.9224 73.9831 30.8567 74.2772C30.8077 74.4997 30.9449 74.8207 31.227 74.8036Z" fill="#FFA500"/>
<path fill-rule="evenodd" clip-rule="evenodd" d="M52.4464 72.9694C52.7095 72.8995 52.7628 72.3906 53.2709 72.1338C53.6098 71.9624 54.1219 72.1341 54.551 71.9735C54.7844 71.8865 54.8443 71.8191 55.1256 71.7689L57.0704 71.3812C58.3228 70.8968 58.5142 69.6538 57.4418 69.0966C56.6496 68.6853 57.1945 68.9406 56.6119 68.3392C56.356 68.0736 55.4993 67.4363 55.137 67.3727C54.6277 67.2839 54.2709 67.1769 53.7305 67.165C53.1057 67.1516 52.9979 67.1279 52.5246 67.3969C51.7578 67.8331 51.2745 68.3583 51.3073 69.4105L51.713 72.105C51.7886 72.4428 51.8819 72.7697 52.1047 72.8921C52.2228 72.9572 52.2733 73.0154 52.4464 72.9694Z" fill="#FFA500"/>
<path fill-rule="evenodd" clip-rule="evenodd" d="M49.6178 75.1173C49.8144 75.0905 50.0246 75.0885 50.1573 74.9515C50.2437 74.8614 50.3416 74.6218 50.3541 74.4683C50.402 73.9128 49.5873 73.4638 49.1862 73.9259C48.7577 74.4195 49.1342 75.1841 49.6178 75.1173Z" fill="#FFA500"/>
<path fill-rule="evenodd" clip-rule="evenodd" d="M48.3511 69.6462C47.7617 69.4939 47.5449 70.5594 48.168 70.6773C48.9154 70.8202 49.0136 69.8182 48.3511 69.6462Z" fill="#FFA500"/>
<path fill-rule="evenodd" clip-rule="evenodd" d="M56.1403 73.4153C56.0522 73.3362 55.9118 73.2612 55.7452 73.3431C55.6377 73.3959 55.6924 73.3676 55.6291 73.4646C55.4505 73.7353 55.4505 74.032 55.7583 74.2201C56.4162 74.6197 56.5737 73.8047 56.1403 73.4153Z" fill="#FFA500"/>
<path fill-rule="evenodd" clip-rule="evenodd" d="M50.8243 80.7243C51.0189 80.5673 51.1064 80.3177 51.0365 80.0727C50.9792 79.8738 50.7963 79.6402 50.547 79.7095C50.0132 79.8581 50.276 80.6698 50.8243 80.7243Z" fill="#FFA500"/>
<path fill-rule="evenodd" clip-rule="evenodd" d="M60.7218 65.8739C60.5523 65.7406 60.172 65.7669 60.1121 66.0453C60.0676 66.2601 60.2342 66.542 60.3886 66.6362C60.9243 66.9619 61.2107 66.2579 60.7218 65.8739Z" fill="#FFA500"/>
<path fill-rule="evenodd" clip-rule="evenodd" d="M59.1279 69.1241C59.2175 68.8465 59.3304 68.9124 59.3321 68.6722L59.3122 68.5376C59.2628 68.3365 59.0999 68.1048 58.8146 68.1636C58.573 68.2124 58.1782 68.8842 59.1279 69.1241Z" fill="#FFA500"/>
<path fill-rule="evenodd" clip-rule="evenodd" d="M52.564 78.3252C52.5882 77.4322 51.5192 77.9997 51.996 78.5563C52.2325 78.8319 52.5568 78.6096 52.564 78.3252Z" fill="#FFA500"/>
<path fill-rule="evenodd" clip-rule="evenodd" d="M19.9233 85.9993C19.7391 85.9531 19.5742 86.0039 19.6689 86.2963C19.6523 86.2869 19.6087 86.2646 19.6007 86.2649C19.4812 86.2689 19.5876 86.2478 19.5228 86.2903C19.7619 86.4087 19.9499 86.1591 19.9233 85.9993Z" fill="#FFA500"/>
<g opacity="0.97">
<path fill-rule="evenodd" clip-rule="evenodd" d="M85.014 74.6906C85.014 74.6513 84.8668 74.1377 84.8275 73.9651C84.488 72.4874 83.3642 72.3436 82.0225 72.7755C80.0366 73.4148 79.6723 73.2796 78.9682 71.5459C78.5155 70.4316 79.0607 69.4519 79.4569 67.9752C79.9028 66.3186 79.607 66.8809 79.9265 65.6299C80.3969 63.7855 79.4247 64.6012 80.9381 63.0814C81.1601 62.8583 81.7843 62.0843 81.7843 61.7759C81.7843 61.4618 81.3761 60.8316 81.2049 60.6582C80.6061 60.5429 80.4606 60.6331 80.1271 60.8642C79.8592 61.0499 79.6192 61.1315 79.3628 61.3409C79.1799 61.4904 78.1164 62.3556 77.893 62.3556C77.3367 62.3556 77.0189 62.0906 76.6774 61.8347C76.1319 61.427 76.1847 61.6436 75.136 60.808L74.6741 60.4428C74.5873 60.3315 74.5996 60.3093 74.5237 60.1792C73.4573 58.3399 74.5913 59.2871 72.9778 57.6681L72.1056 57.0507C70.9961 56.3503 71.1804 56.6576 70.3979 56.2736C70.0729 56.1144 70.1297 56.1772 69.8735 55.8885C69.7335 55.7281 69.6339 55.6112 69.5164 55.4183C69.2833 55.0431 69.1655 54.7319 68.7578 54.5196C67.9664 54.1085 67.0072 55.3025 66.9305 55.8168C66.8883 56.1113 67.0529 55.8077 66.8603 56.1215C66.3776 56.9115 66.096 57.0533 65.2601 57.4199C65.0068 57.5306 64.5449 58.0612 64.3837 58.2817C63.9855 58.8281 64.111 59.8582 64.1099 59.9313C64.0819 60.8436 64.0868 60.1766 64.1863 60.8074C64.2231 61.0467 64.1812 60.8365 64.2009 61.0904C64.2408 61.6382 64.2451 62.051 63.8383 62.5368C63.6722 62.7337 63.2526 62.8963 62.9855 62.9045C62.6121 62.9174 62.3636 62.6937 62.0424 62.8877C61.1854 63.4041 61.8347 64.2651 61.8347 64.921C61.8347 65.4042 60.1786 65.1677 60.1786 66.5768C60.1786 67.1125 61.7742 67.3325 62.023 68.4571L63.2064 70.999C64.1729 72.1801 64.0588 71.5847 64.9241 73.0077C65.0228 73.1726 64.9806 73.1509 65.1129 73.3144C65.7163 74.0638 67.0771 74.4416 67.7467 74.9017C68.1784 75.1964 68.9666 75.7907 69.4801 75.9005C69.8034 75.9701 70.8997 75.9958 71.2686 76.0164C72.1501 76.0666 71.8477 76.2945 72.7321 75.8195C73.0739 75.6361 73.1795 75.7262 73.5072 75.6024C74.0153 75.4073 74.0804 75.225 74.3811 75.0672C74.4752 75.017 74.5922 74.9705 74.6675 74.9388C75.3744 74.6433 75.2974 74.6707 75.6974 74.0644C75.7964 73.9147 75.8144 73.9101 75.9017 73.7726C75.9676 73.6679 75.9832 73.6199 76.0591 73.5164C76.1984 73.3252 76.3207 73.2151 76.5413 73.0879C77.7994 72.3624 78.1885 73.002 78.8219 73.3469C80.0349 74.0059 79.9108 73.994 79.5485 75.2675C79.4894 75.4743 79.3842 75.9308 79.3842 76.179C79.3842 76.4959 79.7111 77.3141 80.3091 77.5726C81.4519 78.0687 82.952 78.4507 84.0586 77.6245C84.9062 76.9918 85.0297 76.6588 85.0591 75.3996C85.0591 75.3799 85.0611 75.3565 85.06 75.3377L85.0414 75.2241C84.9008 74.5791 85.014 75.0201 85.014 74.6906Z" fill="#FFA500"/>
<path fill-rule="evenodd" clip-rule="evenodd" d="M93.567 83.1076C93.7701 83.2197 95.1112 84.4265 95.8878 83.4077C96.029 83.224 95.9956 83.194 95.9985 82.9949C96.0016 82.7358 96.0053 82.7242 95.8792 82.5393L95.6099 82.2235C95.5994 82.2101 95.5845 82.1909 95.5734 82.177C95.5617 82.1641 95.5466 82.1445 95.5355 82.1322C95.3988 81.9681 95.3783 81.9176 95.1928 81.8129C95.0761 81.747 95.0798 81.765 94.9643 81.7102C94.8237 81.6429 94.9092 81.6857 94.7481 81.5956C94.1835 81.2795 94.4397 81.5576 93.7521 81.1833C93.1228 80.8407 92.6164 80.8789 91.9311 80.356C91.5018 80.0276 91.0753 79.6584 90.6431 79.6584C90.4602 79.6584 89.4836 80.2918 89.4836 81.3967C89.4836 82.2018 89.9164 81.8734 91.0567 82.141C91.4324 82.23 91.146 82.1439 91.4304 82.264C92.3494 82.6508 91.7848 82.1256 93.567 83.1076Z" fill="#FFA500"/>
</g>
<path fill-rule="evenodd" clip-rule="evenodd" d="M47.8319 35.1905C48.1164 35.0068 48.0898 35.053 48.2647 34.8573L48.5902 35.623C48.0139 35.6518 48.4524 35.6789 48.1917 35.4712C48.105 35.4022 47.8907 35.2284 47.8319 35.1905ZM47.3415 34.4836L46.9492 34.4342C46.9783 34.4964 47.1435 34.7192 47.1498 34.7529L47.0394 35.1246C48.1865 34.8105 46.7818 35.2424 47.8319 35.1905C47.6202 34.7902 47.5774 34.8011 47.3415 34.4836ZM43.5925 31.9511C42.9358 31.4296 43.5189 31.6566 42.9002 31.672C42.7558 31.027 43.8892 31.3037 43.7612 31.8803C43.6958 32.1744 43.6348 32.1151 43.402 32.3647L43.0956 32.1319C43.2904 31.9402 42.7236 32.0643 43.5925 31.9511ZM47.3415 34.4836C47.5269 34.2408 46.897 34.4679 47.7734 34.1509C47.222 33.4565 46.0997 33.4896 45.3285 32.6386C44.6621 31.902 45.175 32.0743 44.231 31.4709C43.8479 31.2273 43.875 31.2581 43.6236 31.0119C43.3883 30.78 43.4525 30.7526 43.1726 30.5121C42.2831 30.6881 42.7589 30.4573 42.0123 30.9314C42.1975 32.1011 42.6097 32.2968 44.2404 32.9051C46.0109 33.5649 44.8741 34.1991 46.4734 35.1594C51.6308 38.2519 49.0435 36.7881 50.492 38.2673C51.0314 38.8188 50.65 38.5888 51.1795 38.5754C51.2617 38.5883 51.3159 38.9526 51.6845 38.3461C51.9133 37.9686 51.5555 37.7218 51.5555 37.7218C51.5347 37.6868 51.4491 37.5832 51.4331 37.5455C51.2483 37.0871 51.1199 37.5864 51.487 37.0489C51.7241 37.3661 51.7655 37.3547 51.9789 37.7558C52.0005 37.7552 52.0248 37.7247 52.0305 37.7221L52.1383 37.6651C52.3164 37.6348 51.9133 37.432 52.3338 37.6816C52.6345 37.8608 52.5241 37.792 52.7349 38.1892L51.7415 38.5489C52.3235 39.3317 53.0396 39.2618 53.7665 39.7882L56.974 43.469C59.1984 45.9476 57.71 43.5437 58.2056 45.2269C58.6201 45.3119 58.7815 45.3399 59.2286 45.3864C59.3527 45.6805 59.4996 46.1727 59.5978 46.3938C59.814 46.8765 59.826 46.6579 60.1084 47.0137C59.7695 47.3147 60.0197 47.1657 59.4471 47.2539C60.3894 49.4783 58.2723 49.3693 59.2238 51.4579C60.1455 53.4809 58.7967 52.7636 60.6493 54.0189C61.2045 54.3941 61.2396 54.5436 61.9848 54.5247C62.8398 54.5036 62.3374 54.5341 63.3211 54.7587C65.0362 55.1515 64.1678 55.5067 65.1047 55.9281C66.0182 56.3403 65.8601 55.471 66.8424 57.4892C67.4637 58.7687 68.5047 58.4332 69.249 59.0851C69.8002 59.5661 69.7263 61.2649 69.8801 62.1451C70.0544 63.1401 70.332 63.1441 70.6133 63.7461C70.8826 64.3221 70.6695 64.5423 70.8872 65.2168C71.2669 64.8388 71.3162 64.9329 71.8805 64.8564L71.8249 63.6905C71.9755 63.0098 72.0272 63.4768 71.939 62.5938C71.6483 59.7027 72.0255 59.9806 73.1427 59.2696C72.8933 58.6822 72.357 58.3162 72.8574 57.3773C73.5985 55.9846 74.9665 56.3489 75.5219 56.2633C77.3544 55.9817 78.7138 55.414 78.962 55.4086C78.9942 55.4083 79.0484 55.4088 79.0815 55.4114L80.0041 55.7906C80.0284 55.8122 80.0657 55.8496 80.088 55.8724C80.8979 56.71 81.0095 58.9761 81.8317 60.3554C82.2995 61.1411 82.7258 61.0784 83.6062 60.96C83.1411 58.0184 82.6852 58.4032 82.1087 57.2093C81.9212 56.8225 81.9983 56.5683 81.9212 56.0878L83.8301 55.6978C84.4535 55.7278 84.7969 56.2627 85.0654 56.8438L85.6748 58.3741C85.7835 58.6112 85.844 58.6891 86.095 59.0791L86.4587 59.5735C86.738 59.0802 86.6165 59.1792 87.3223 58.9073C87.6481 59.5181 87.4498 59.1744 87.6826 59.3067C87.3451 58.2657 86.9061 57.7248 86.5055 56.827C85.8613 55.3874 85.6979 55.4054 85.8591 53.8689C86.0656 51.9044 85.6266 51.2533 84.4244 49.9105C84.1368 49.5904 83.6538 49.1448 83.441 48.7919C82.6142 47.4216 82.7092 47.8228 81.9275 46.7598C81.7857 46.5664 81.7407 46.4719 81.5056 46.198C80.1573 44.6341 78.912 42.3546 78.7329 40.191C78.6447 39.1315 79.1845 38.4665 79.8689 37.7287C80.3758 38.1655 80.7168 39.2387 81.4782 39.4473C81.4956 39.4518 81.5575 39.463 81.5729 39.467C81.5989 39.4738 81.719 39.4923 81.7732 39.516L80.9938 37.6625C80.646 36.9319 80.749 36.5248 81.3013 36.1488C82.0876 36.7744 81.9937 36.8794 82.4778 38.0217C83.3343 37.6289 82.7483 37.7555 82.7483 37.755C82.746 37.7278 82.6927 37.6502 82.6795 37.6146C82.0008 35.6875 81.0888 34.7817 82.7041 34.0488C83.3403 35.4578 83.5408 35.1654 83.8216 34.8818C84.2321 34.5226 83.9345 34.9092 83.9776 34.4365C84.096 33.1353 84.0723 33.982 84.3371 33.0577C84.494 32.5059 84.3493 32.6614 84.213 31.9907C83.9636 30.7691 83.3351 29.2588 83.3343 28.5875C83.3343 27.7776 83.1831 27.1425 82.7891 26.5891C82.3215 26.8872 82.392 26.9585 81.9255 27.2564C82.4565 27.971 82.6958 28.4751 81.6819 28.9367C80.9758 28.4817 80.9227 27.7479 80.9216 26.9771C80.9193 26.0216 81.3193 25.9258 81.1809 25.0499C81.729 24.8985 82.194 25.1846 83.2604 25.3846L83.5816 25.4722C84.2911 25.764 84.8634 27.3143 85.5829 26.4584C86.2157 25.7038 85.4488 23.6923 84.8206 23.1613C84.088 22.538 83.6598 22.3414 82.7215 21.2023C81.7883 20.0691 81.8003 20.9147 81.4223 19.4295C81.2582 18.7879 81.2263 18.6849 80.755 18.3876C80.0284 17.9286 80.6506 18.7114 79.8455 17.6912C79.5091 17.2656 79.4253 17.0927 79.0758 16.7019C78.5888 16.1592 78.8267 16.4927 78.4017 15.8026C77.6459 14.5759 77.2254 15.2258 76.5575 14.4447C75.7653 13.5166 76.3419 13.0045 76.5772 12.392C76.1487 12.117 75.9365 12.1076 75.4638 11.8388C72.8773 10.3685 74.029 11.0743 73.756 9.346C73.2479 9.31119 73.2582 9.4293 72.7547 9.43187C70.4558 9.44271 71.0124 8.8028 70.2253 8.68013C69.5229 8.63192 69.3577 8.99452 68.5692 9.28009C67.8509 8.37886 67.1419 9.23786 66.7456 9.28237C66.15 9.35084 66.7716 9.17197 66.1269 9.19907C65.0667 9.24243 65.912 9.60332 65.0368 10.0119C64.4468 10.2872 64.3763 9.92912 63.5396 10.0418C63.1413 10.5727 63.3467 10.6261 62.6406 11.0754C62.2167 10.5428 61.952 10.4595 61.1557 10.7294C61.5215 11.2203 61.5343 11.1727 61.841 11.8953C61.2017 12.1857 61.3714 12.2525 60.903 12.5318C60.4237 12.8171 60.3709 12.6993 59.9875 13.0507L58.7559 14.9653C58.7445 14.999 58.7351 15.0475 58.7262 15.0814L58.684 15.4446C58.5556 16.1664 58.8828 15.5287 58.3123 16.1835C57.7408 16.8385 57.6338 17.7651 57.0584 18.4712L56.3366 19.1958C55.8385 19.7861 55.984 20.139 55.8037 20.885L54.3556 23.9824L53.6589 23.7117C53.6264 23.6974 53.4875 23.6304 53.4327 23.6092C52.8339 24.2046 52.3774 24.7595 52.3001 25.6936C52.1512 27.4715 52.8142 26.8946 53.437 27.6769C53.306 28.2278 52.9189 28.7607 52.566 29.2291C51.9917 29.1124 51.7951 29.0437 51.0465 29.2497C51.0006 29.4451 50.85 29.8008 50.8568 29.9526C50.9042 31.0758 51.4151 30.1543 51.6031 31.2421C51.7141 31.8869 51.353 31.1046 51.6545 32.0372C52.3084 31.7993 52.3061 31.7442 52.7497 31.4629C53.136 32.4369 52.0508 32.9222 52.8039 32.8925C53.0795 32.8811 52.9195 32.9173 53.1377 32.6686C53.8287 31.8803 53.1645 31.4107 54.2412 30.922L55.7558 32.3793C55.788 32.4038 55.83 32.4292 55.8611 32.456C56.4251 32.9336 56.3492 34.0197 56.1726 33.8622C56.1489 33.8411 56.1227 33.9272 56.103 33.9623C57.3919 33.7641 56.0516 33.7735 57.2339 33.0223C58.0512 34.1221 57.397 33.7629 57.6053 34.7041C57.8024 35.6025 58.3622 35.3902 58.1833 36.3197C58.0989 36.755 58.0224 36.5582 57.9659 37.1287C57.8989 37.8092 58.0067 38.8447 57.4207 39.322C58.3859 39.9417 57.9708 39.5075 58.4329 39.2533C59.5025 38.6622 59.6037 40.2176 59.846 40.9393C60.0348 41.4985 60.3407 41.7715 59.735 41.9915C59.0512 42.2408 56.2436 40.1234 55.6987 39.7688C53.9656 38.6374 53.6461 37.9213 52.8536 37.3561C52.2017 36.8894 51.4365 36.729 50.7362 36.3154C48.9856 35.2821 49.4067 35.3608 48.004 34.2442L47.3415 34.4836Z" fill="#FFA500"/>
<path fill-rule="evenodd" clip-rule="evenodd" d="M41.3913 23.3039C42.0203 24.7851 41.5062 23.7204 42.5344 24.6656C43.7928 25.8198 45.5693 24.9098 45.9681 24.1386L46.2723 23.1184C46.2999 21.0686 43.9443 20.433 43.3275 20.6575C42.2911 21.033 42.0734 21.0455 41.5296 21.9627C41.2948 22.359 41.1642 22.7698 41.3913 23.3039Z" fill="#FFA500"/>
<path fill-rule="evenodd" clip-rule="evenodd" d="M38.5275 26.4643C39.7109 29.2559 44.4207 26.1328 40.8946 24.9415C39.6584 24.5238 37.9715 25.1557 38.5275 26.4643Z" fill="#FFA500"/>
<path opacity="0.65" fill-rule="evenodd" clip-rule="evenodd" d="M36.8974 18.5652C37.4831 18.5355 37.062 18.5452 37.3801 18.7852C37.4104 18.8074 37.6349 18.986 37.6543 18.9983L38.6476 18.6383C38.6282 17.9479 38.6445 18.6659 38.7606 18.1775C38.8291 17.8968 38.8573 18.0668 38.8045 17.8346C38.7655 17.6606 38.4557 17.2977 38.1638 17.0449C37.6038 17.1202 36.3049 17.0703 36.8974 18.5652Z" fill="#FFA500"/>
<path fill-rule="evenodd" clip-rule="evenodd" d="M87.136 41.0386C87.2672 41.3495 87.2601 41.497 87.5166 41.6873C87.9613 42.0157 87.4738 41.8973 88.189 41.7187C88.2332 41.1575 88.1154 41.0965 87.8344 40.4326L87.6681 40.4917C87.9257 41.0971 87.8803 41.1341 87.9591 41.6254C87.9285 41.6103 87.591 41.6608 87.3012 40.9787L87.136 41.0386Z" fill="#FFA500"/>
<path fill-rule="evenodd" clip-rule="evenodd" d="M46.7784 32.8492C47.3969 32.8335 46.8132 32.6061 47.4702 33.1279C46.6012 33.2412 47.1681 33.1171 46.9726 33.3091L47.2793 33.5419C47.5124 33.2922 47.5729 33.3516 47.6385 33.0575C47.7666 32.4806 46.6329 32.2039 46.7784 32.8492Z" fill="#FFA500"/>
<path fill-rule="evenodd" clip-rule="evenodd" d="M51.709 36.3673C51.4973 35.9674 51.4545 35.9779 51.2191 35.6607L50.8263 35.6113C50.856 35.6735 51.0211 35.8963 51.0271 35.93L50.9173 36.3017C52.0647 35.9876 50.6597 36.4193 51.709 36.3673Z" fill="#FFA500"/>
<path fill-rule="evenodd" clip-rule="evenodd" d="M90.3361 60.7502C90.649 61.3414 90.6154 61.2258 91.1589 61.3365C91.1104 61.0193 91.0904 61.0689 91.128 60.8164L90.3361 60.7502Z" fill="#FFA500"/>
<path fill-rule="evenodd" clip-rule="evenodd" d="M51.709 36.3672C51.768 36.4054 51.9829 36.5789 52.0693 36.6476C52.3298 36.8556 51.8916 36.8282 52.4676 36.7994L52.1429 36.0337C51.9675 36.23 51.9943 36.1838 51.709 36.3672Z" fill="#FFA500"/>
<path fill-rule="evenodd" clip-rule="evenodd" d="M4.23367 20.6328C3.45255 19.9356 4.42481 19.6842 3.98319 18.7377C3.47081 17.6367 2.32196 18.4178 1.63812 17.2408C1.30862 16.6765 1.27581 16.5986 0.478428 16.4839C0.300409 16.7521 0 16.9047 0 17.2022C0 17.8684 0.957718 17.8145 0.957718 18.7596C0.957718 18.7596 0.376865 19.4965 0.948011 20.2063C1.83212 21.3075 3.14073 20.2454 3.88077 20.8636C4.24708 21.1695 3.84026 20.9629 4.64021 21.9012C5.19994 22.5551 4.6927 23.1368 5.02249 23.7935C5.32233 24.3886 5.91487 24.3718 6.48402 24.608C7.41349 24.992 7.59037 25.8037 8.09133 26.4735C9.15574 27.896 8.53011 29.1484 9.06673 30.0488C9.54288 30.8504 10.3229 30.9948 11.256 31.2119C11.7527 33.349 11.203 32.7179 11.8996 34.5189C12.1704 35.2202 12.3273 35.1115 12.8271 35.5086C14.0516 36.4814 14.6664 35.8087 15.4789 35.6741C16.0828 35.5733 16.2491 35.6278 16.8106 35.4501C18.8447 34.8065 19.9713 33.2551 20.4409 31.2972C20.7915 29.8411 20.5464 29.7115 20.1245 28.8086C19.9171 28.3624 19.7901 27.3879 18.7 26.8809C17.7078 26.419 17.129 26.4162 16.048 26.4213C15.3419 26.4253 15.0934 26.4789 14.5363 26.2567C13.0088 25.6462 13.5475 26.2941 11.2517 25.3489C10.0818 24.8679 9.70121 24.7555 8.71298 24.0557C7.37213 23.1048 8.57461 23.9561 7.71618 23.0178C7.359 22.6267 7.36842 22.8372 6.73422 22.3237C6.36877 22.0265 6.06493 21.9534 5.67494 21.7058C5.60334 21.6607 5.45014 21.544 5.40107 21.5007L4.23367 20.6328Z" fill="#FFA500"/>
<path fill-rule="evenodd" clip-rule="evenodd" d="M53.0005 9.10064C53.0005 11.5647 54.0309 11.45 55.0414 12.9266C55.1669 13.1115 55.1059 13.0736 55.3079 13.2584C57.1537 14.9599 60.0362 15.0797 61.1899 12.7398C61.7605 11.5829 62.4789 12.3335 63.4172 12.3335C63.8009 12.3335 64.0907 11.8368 64.0034 11.2877C63.9316 10.8361 63.6523 10.4726 63.2848 10.3057C62.5756 9.98389 61.7414 10.761 60.8291 9.53371C59.3188 7.50161 57.9542 5.30432 55.0751 6.86456C54.8317 6.99636 54.6871 7.0052 54.4828 7.10962C53.7716 7.47222 54.3293 7.51359 53.7374 8.04194C53.3959 8.34834 53.0005 8.4131 53.0005 9.10064Z" fill="#FFA500"/>
<path fill-rule="evenodd" clip-rule="evenodd" d="M55.6345 4.55091C55.9561 4.55091 56.2645 4.38117 56.5186 4.23652C57.1597 3.86964 57.3888 3.155 57.1908 2.52594C57.0262 1.99759 56.9928 2.06634 56.6969 1.69233C56.4522 1.38251 56.4165 1.21304 56.1172 0.955428C55.2856 0.239927 54.3376 0 53.1203 0C52.8347 0 52.2821 0.755438 52.5249 1.31032C52.7876 1.90943 52.6615 1.29036 52.7078 2.03439C52.7257 2.32681 52.7828 2.48799 52.9685 2.78526C53.3662 3.42317 54.6965 4.55091 55.6345 4.55091Z" fill="#FFA500"/>
<path opacity="0.65" fill-rule="evenodd" clip-rule="evenodd" d="M41.2666 10.7766C41.2666 10.9923 41.3704 11.3492 41.4497 11.55L41.7379 11.9822C41.7542 11.9996 41.7807 12.0236 41.7972 12.0413C41.8144 12.0592 41.8409 12.0838 41.8571 12.1015C41.8737 12.1192 41.8979 12.1457 41.9159 12.1628L42.4445 12.4723C43.0274 12.6515 44.0707 13.0038 44.5317 11.7671C44.6815 11.3708 44.9759 10.8285 44.2932 10.145C44.1172 9.96951 43.5609 9.55327 43.2767 9.51847C42.2945 9.39836 41.2666 9.72473 41.2666 10.7766Z" fill="#FFA500"/>
<path fill-rule="evenodd" clip-rule="evenodd" d="M6.62924 59.6781C6.69428 58.8884 7.02094 59.1891 6.97044 58.8282L7.53132 58.6245C7.48254 59.2148 7.12392 59.4992 6.62924 59.6781ZM32.8081 45.5216C33.2566 45.8491 33.2566 45.7966 32.8081 46.1241C32.6609 45.7786 32.7137 45.974 32.8081 45.5216ZM28.4483 34.977C25.2851 34.8472 26.8222 34.7973 24.4805 33.677C23.9125 33.4045 23.3793 32.8713 22.7283 32.8713C22.2764 32.8713 21.6759 33.0485 21.6759 33.6242C21.6759 34.3754 22.1258 34.6213 22.1258 35.28C22.1258 37.4722 19.3442 37.1549 18.0878 36.3028C17.7227 36.0549 17.6191 35.8246 17.2568 35.975C16.9019 36.1236 16.2457 37.3272 17.8901 38.0159L19.1169 38.5934C19.1169 39.5351 19.1268 40.482 18.564 41.0517C16.1656 43.4735 16.8189 43.3916 14.8966 43.405C13.5047 43.4156 13.2516 44.1442 13.309 45.2657C13.3335 45.7509 13.2787 45.8839 13.6473 46.4744C13.9991 47.0379 14.2844 47.2652 14.3032 48.0817C13.5726 48.2523 13.7583 48.4198 12.8117 48.5473C11.0375 48.7855 9.88608 48.8643 8.73609 50.1894C8.78773 50.2679 9.10154 50.8139 9.13178 50.8485C9.71862 51.5229 10.8538 50.9774 11.8095 51.6324C12.5724 52.1551 12.6485 52.9935 12.6485 53.9555C12.6485 55.3192 12.5461 56.0204 11.4697 56.9938L10.7217 57.7507C9.99563 58.3706 8.09618 58.349 7.38182 58.3675C6.49686 58.3898 5.72687 58.6374 5.72687 59.6781C5.72687 60.8549 8.18948 60.4336 9.11723 59.6085C9.60679 59.174 9.94514 59.3138 10.6481 59.1826C11.7607 58.9746 12.2642 58.7749 13.5509 58.7749C14.52 58.7749 16.169 62.0252 16.559 62.8411L14.9328 64.225C14.2541 64.6612 13.5472 65.3345 13.099 66.0046C13.2519 66.3216 13.21 66.1402 13.2491 66.606C14.0764 66.224 13.8062 67.1478 15.4446 65.6406C15.5217 65.5693 15.7952 65.3482 15.8643 65.3083C18.6381 63.6767 18.1172 64.8535 19.9236 65.4974C22.7825 66.5162 21.3572 66.8828 21.2833 68.2405C21.2554 68.7577 21.0742 68.7982 21.0742 69.4683C21.0742 69.963 21.3877 70.0928 21.6765 70.5219C22.8541 70.2477 22.7317 69.7177 23.1759 68.7109C23.3474 68.3246 23.4176 67.903 23.7485 67.6268C24.7196 66.8115 25.2043 67.3155 25.9658 67.7326C26.7751 68.178 28.3268 68.2975 28.3807 69.4532C28.4492 70.9222 27.023 72.5243 28.3799 72.9962C28.7242 73.1169 28.5179 73.0504 28.8971 73.0821C29.7838 71.7555 29.4782 72.0339 29.5909 70.5992C29.6845 69.4024 30.1001 68.5837 31.3759 68.7791C32.2036 68.9063 32.2104 68.9688 32.411 69.7165C32.6084 70.4614 32.6991 70.3408 33.2734 70.66C34.0913 71.1147 34.1224 72.3783 35.067 72.6299C35.4633 71.8799 35.2744 72.1386 35.4065 71.1635C35.5075 70.4206 35.8187 69.811 36.0804 69.1268C36.2812 68.5971 36.5154 67.3595 37.0235 67.3595C37.7727 67.3595 38.0563 67.2251 38.3761 67.9731C38.41 68.0533 38.5198 68.3674 38.5278 68.3974C38.6114 68.7408 38.5569 68.4093 38.5686 68.6958C38.5949 69.2789 38.5264 70.0697 39.2799 70.0697C40.1186 70.0697 40.3063 69.0695 40.631 68.4108C41.6863 66.2694 41.2461 65.4483 42.218 64.5794C42.7438 64.1081 43.4276 63.9181 43.4924 63.1418C44.1691 63.085 43.7147 63.1732 44.1355 62.8827C44.9648 62.309 45.3086 62.1536 45.6888 61.1237C46.1199 59.9577 45.8572 59.2276 46.2357 57.9076C46.5747 56.7285 46.9341 57.4143 47.3176 55.2239C47.4103 54.6941 47.5501 54.216 47.7038 53.8038C47.9846 53.056 48.3583 51.5602 48.3617 50.8179C48.3654 50.3087 48.1543 49.6388 48.1771 49.2925C48.2179 48.6535 48.6079 48.644 48.6079 47.9305C48.6079 47.4869 47.7041 45.8785 47.7041 45.22C47.7041 44.6477 48.0935 44.7787 48.1563 44.015L47.5734 43.6957C47.1623 43.4293 47.398 43.7337 47.1592 43.2056C46.4674 41.6819 46.3122 42.459 46.0708 41.6422C45.9413 41.2071 46.137 41.0092 45.5938 40.8674C45.3031 40.7901 45.3237 40.8739 44.948 40.7524C44.3246 40.5513 44.3403 40.3082 44.0952 39.797C43.8747 39.338 43.7483 39.0002 43.1783 38.9072C41.5801 38.6444 41.9282 38.934 40.6375 37.9865C39.182 36.9176 37.1921 36.9535 35.859 35.9912C34.6428 35.1143 33.5561 34.3697 31.9668 35.189C31.4878 35.4338 31.4304 35.5804 30.7038 35.5804C30.0582 35.5804 30.216 35.5271 29.8802 35.3505L29.5912 35.1873C29.3347 35.0797 28.7639 34.9899 28.4483 34.977Z" fill="#FFA500"/>
<path fill-rule="evenodd" clip-rule="evenodd" d="M91.8692 56.741C91.3614 57.459 91.2188 56.9872 91.0627 57.3609L90.4137 57.2385C90.7923 56.7036 91.2964 56.6331 91.8692 56.741ZM58.8734 55.5128C58.6315 54.9476 58.6007 54.9987 59.2135 54.9371C59.1607 55.351 59.2206 55.1351 58.8734 55.5128ZM57.0975 68.0466C60.0468 69.9526 58.5505 69.1347 60.1558 71.5246C60.5458 72.106 60.7557 72.9168 61.376 73.2831C61.8085 73.5381 62.4837 73.7056 62.807 73.157C63.2306 72.4392 62.9379 71.9496 63.3096 71.3194C64.5446 69.2251 67.0244 71.0972 67.7447 72.6201C67.955 73.0631 67.9244 73.3399 68.3547 73.4003C68.7772 73.4597 70.0815 72.6786 68.8996 71.0944L68.0531 69.8502C68.5832 68.951 69.1067 68.0395 69.9665 67.8135C73.6231 66.8513 72.9524 66.56 74.7979 67.631C76.133 68.4058 76.7866 67.8524 77.3638 66.7483C77.614 66.2707 77.7409 66.1743 77.7218 65.4023C77.7024 64.666 77.5586 64.2868 78.0025 63.4974C78.7948 63.7451 78.7126 63.4809 79.6877 63.8923C81.5181 64.6645 82.6633 65.2385 84.5085 64.62C84.5022 64.5168 84.5116 63.8175 84.5022 63.7682C84.3214 62.7919 82.9295 62.6747 82.3845 61.5101C81.9506 60.5809 82.35 59.7365 82.8929 58.8176C83.6615 57.5138 84.1545 56.9016 85.7304 56.5784L86.8721 56.2762C87.9163 56.0925 89.7199 57.1846 90.4117 57.5697C91.2698 58.0476 92.1442 58.2441 92.7319 57.2493C93.3961 56.1259 90.8034 55.1402 89.4523 55.4058C88.7408 55.5445 88.4957 55.2204 87.7502 54.9502C86.5691 54.5208 85.9749 54.4281 84.747 53.7035C83.8204 53.1563 84.0763 49.1215 84.163 48.1218L86.4975 47.7156C87.3933 47.6816 88.4475 47.4369 89.2531 47.0495C89.2859 46.6606 89.224 46.8569 89.4491 46.389C88.4443 46.2886 89.2209 45.558 86.8074 46.0741C86.6927 46.0989 86.3067 46.1562 86.2171 46.1559C82.6484 46.1505 83.8087 45.3192 82.4456 43.6859C80.288 41.102 81.8573 41.5548 82.6926 40.2995C83.0122 39.8205 83.2082 39.8842 83.5853 39.2445C83.8638 38.7718 83.6372 38.47 83.6041 37.8988C82.3232 37.496 82.1412 38.0715 81.1493 38.7827C80.7675 39.0568 80.4626 39.4191 79.9921 39.4965C78.6039 39.7275 78.4245 38.973 77.9335 38.1448C77.4108 37.2629 75.995 36.2747 76.5943 35.1398C77.3575 33.6974 79.6218 32.9705 78.5914 31.7546C78.3317 31.4456 78.4915 31.6256 78.1469 31.3814C76.5513 32.1491 77.0006 32.0562 76.0845 33.3639C75.3203 34.454 74.461 35.002 73.3532 34.096C72.6337 33.5088 72.6614 33.4444 72.893 32.6167C73.1232 31.7925 72.9683 31.8582 72.5997 31.2294C72.0728 30.3333 72.7561 29.1086 71.9964 28.3366C71.1958 28.8301 71.5213 28.6878 70.8458 29.5459C70.3291 30.1986 69.6887 30.6058 69.0539 31.1121C68.5629 31.505 67.6417 32.5554 67.157 32.2696C66.4409 31.8476 66.0935 31.8159 66.211 30.921C66.2238 30.8249 66.2954 30.4622 66.3043 30.4306C66.4164 30.0531 66.284 30.4026 66.4327 30.1213C66.7374 29.5502 67.2483 28.8327 66.5285 28.4076C65.7269 27.9352 64.9837 28.7842 64.3019 29.2307C62.0857 30.6828 62.0432 31.7152 60.6256 31.9985C59.8571 32.152 59.0968 31.948 58.5978 32.6538C57.9185 32.3263 58.4035 32.4978 57.8372 32.5389C56.7215 32.6196 56.3053 32.5739 55.3604 33.3434C54.2931 34.2166 54.1331 35.0608 53.0256 36.1092C52.0371 37.0444 52.0801 36.1866 50.4794 38.0643C50.0923 38.5174 49.69 38.8959 49.31 39.202C48.6193 39.7598 47.4214 40.9782 46.9966 41.6858C46.7076 42.1696 46.5316 42.9282 46.3145 43.2466C45.9165 43.8345 45.5379 43.624 45.1362 44.3055C44.8852 44.7298 44.8427 46.775 44.4707 47.4052C44.1477 47.9515 43.8507 47.6078 43.3603 48.3022L43.7372 48.9361C43.9808 49.4216 43.9258 48.9974 43.857 49.6367C43.6593 51.4822 44.2436 50.8292 44.0153 51.7447C43.8941 52.2337 43.596 52.3119 44.0347 52.7538C44.2695 52.9917 44.2975 52.9016 44.5876 53.2279C45.0692 53.7711 44.9171 53.9953 44.8638 54.6218C44.8147 55.1841 44.746 55.5787 45.2375 55.9887C46.6177 57.1398 46.4483 56.6676 47.1475 58.3001C47.9346 60.1416 49.8566 61.2297 50.5875 62.8992C51.2562 64.4238 51.8736 65.7472 53.8555 65.861C54.4512 65.8961 54.5884 65.7883 55.2833 66.1982C55.8999 66.5611 55.719 66.5238 55.9409 66.8824L56.1252 67.2013C56.3081 67.4495 56.8036 67.8558 57.0975 68.0466Z" fill="#FFA500"/>
<path fill-rule="evenodd" clip-rule="evenodd" d="M66.5842 27.5295C66.5251 27.9341 65.95 28.5141 65.6778 29.0028C65.3725 29.5494 64.9749 29.8538 64.4434 30.1736C63.8674 30.5208 63.4694 30.8417 62.9878 31.1036C62.4315 31.4075 61.7776 31.5587 61.1734 31.7823C60.5831 31.9997 60.1392 32.3529 59.6414 32.6339C58.7656 33.1315 58.8355 32.9243 58.2401 33.7343C57.7357 34.4204 56.1335 35.0854 55.2751 35.65C54.5231 36.1429 53.3417 36.1777 52.5788 36.5355L49.9422 37.4818C49.328 37.6695 48.5939 37.8433 48.0396 38.0744C47.3395 38.3676 47.186 38.765 46.333 38.6806C45.7433 38.6218 44.799 38.6706 44.342 38.8315C42.5116 39.4771 41.0677 38.4815 40.6387 40.0448L40.9031 40.1875C41.5279 40.5835 42.3487 40.4531 43.0023 40.2046L45.4829 39.6466C46.0668 39.4842 46.8191 39.0595 47.7295 38.8543C48.5959 38.6578 49.6612 38.5864 50.3328 38.3134C52.4479 37.4558 53.613 37.9306 54.9558 36.7409C55.3849 36.3598 55.2825 36.3076 55.8613 36.2468C57.1129 36.1133 56.5523 35.0212 59.319 35.5484C60.5295 38.0932 57.0376 36.2648 56.7343 37.3862C57.2396 37.8016 57.9805 37.4627 58.7097 37.368C60.172 37.1746 59.836 37.1734 60.637 37.7896C60.6992 39.636 59.4537 38.5839 58.9239 39.5784C59.4134 40.228 59.8599 39.3105 60.7686 39.862C61.1446 40.0916 61.1021 40.2385 61.31 40.62C61.4787 40.9295 61.6972 41.2179 61.7234 41.5143C61.8019 42.4501 61.1043 42.5057 60.4291 42.8689C59.6616 43.2794 58.9216 43.1542 58.9142 44.0286C59.4597 44.4083 60.2468 43.4703 61.0553 43.4412C62.2387 43.3987 62.417 43.5034 62.9499 44.515C63.8696 46.255 63.1541 46.3046 61.645 47.1188C61.025 47.4529 60.9557 47.3356 61.257 48.0366C61.7679 48.0243 62.0974 47.7162 62.4803 47.4118C64.0925 46.1269 65.1857 47.6489 65.1694 48.2534C65.1398 49.3021 65.065 49.0014 65.91 49.479C66.0324 50.1922 65.4567 52.0817 66.8441 51.5676C67.2455 51.4184 67.361 50.9582 67.7855 50.9115C67.9906 50.8898 68.9338 51.1805 69.1344 51.2273C69.8199 51.3836 69.8476 51.3956 70.138 51.872C70.8658 53.0628 71.3565 52.1573 71.9884 53.3852C72.2574 53.9087 72.23 54.2339 72.3946 54.7366C72.6902 54.3503 72.5952 53.4445 72.992 52.8286C73.3298 52.3036 74.1374 52.1325 74.728 52.268C75.1063 53.1136 74.5862 52.9552 75.589 53.3789C76.2665 53.6659 76.1533 53.7997 76.2012 54.4787C76.2386 55.0145 76.3518 55.7824 76.2797 56.2389C76.226 56.5718 76.1442 56.684 76.2123 56.9889C76.2897 57.3381 76.6194 57.8342 76.0181 57.9138C75.0863 58.0379 74.6159 57.61 73.8487 58.6744C72.9578 59.91 73.7426 62.0448 74.3023 62.3643C74.7691 62.6322 75.1785 62.4405 75.6649 62.738C76.2155 63.0758 77.3386 63.9346 77.9848 63.5965C78.4207 63.2453 77.9115 62.5897 77.897 62.1427C77.8719 61.3504 77.8099 61.2557 77.6011 60.462C77.4399 59.8521 77.5164 59.2838 77.3598 58.659C77.1652 57.8796 77.2548 57.5937 77.4428 56.9142C78.3454 56.9427 78.0727 57.2503 78.8085 57.3344C79.2601 56.6363 79.6027 53.7366 79.5308 52.8175C79.4155 51.3488 79.2669 52.1887 79.7531 50.6903C79.9268 50.1569 79.9439 50.164 80.1807 49.8099C80.4663 49.3806 80.3584 49.3013 80.5424 48.8597C80.923 47.9484 81.307 48.1541 81.0734 46.9014C80.6571 44.6862 81.0979 44.4802 81.2511 43.472C81.3178 43.0329 81.2642 42.7765 81.5218 42.4609C81.7421 42.1905 82.7939 41.5865 83.2187 41.5186C83.3197 41.8681 83.5214 42.1574 83.6703 42.5719C83.8044 42.9402 84.0007 43.4346 84.1528 43.7273C84.4244 43.6067 84.3687 43.5031 84.5499 43.2506C85.3102 43.3479 85.341 43.6554 85.865 43.9707L86.1897 44.1798C86.4984 44.5187 86.1355 44.2697 86.3629 44.6428L86.9183 44.6488C86.665 43.9952 86.6781 44.875 86.4134 44.0337C87.0966 44.2343 87.5599 44.2337 86.9443 43.4341C86.3928 42.7214 85.5709 42.4703 86.1597 40.2531C86.4733 39.0683 85.4636 38.2367 85.0023 37.3343C84.7196 36.7797 84.6166 36.2865 84.4295 35.7401C84.2489 35.2129 84.0766 34.7468 83.827 34.2795L83.0612 32.8755C82.8641 32.4844 82.9748 32.6385 82.6698 32.2844L80.8605 28.7743C80.5692 28.1104 81.0448 27.8716 80.6429 27.0343C80.2109 26.1356 79.9627 26.5955 79.413 26.2178C79.0133 25.9433 79.2638 25.8247 79.1596 25.3719C79.0544 24.9192 79.0044 25.1103 78.5694 24.8972C78.2136 24.7234 78.2456 24.637 77.9891 24.4787L77.5806 24.2356C76.8805 23.5623 77.5974 23.8137 76.5929 23.6647C76.1641 23.6006 76.1433 23.4682 76.0734 23.2029C75.5904 23.2077 75.6637 23.2029 75.2116 23.1381L74.2732 22.9304C74.0433 22.9042 74.2555 22.939 74.0011 22.9869C73.204 23.1375 74.0073 22.9241 73.3092 22.8888C73.1897 23.014 73.1067 23.1264 72.9894 23.2853C72.4719 23.2308 72.9349 23.1695 72.337 23.1644C72.0839 23.5503 72.123 23.4585 71.8437 23.7526C71.2095 23.6299 70.904 23.2246 70.7377 22.735C70.2561 21.3097 69.7429 18.8303 69.7802 17.3194C69.7902 16.9342 69.9808 16.0199 70.0958 15.6208C70.2775 14.9903 70.3263 14.4828 70.0981 13.7989C69.9446 13.341 69.4436 12.7919 69.1252 12.6133C68.7275 12.3902 67.8699 12.2975 67.4677 12.3551C66.6997 12.4664 65.3708 13.4951 64.8941 14.0055C64.5515 14.3695 64.3723 14.9027 64.0691 15.3549C63.7592 15.8139 63.464 16.217 63.9304 16.8275C64.3412 17.3687 64.4676 17.3553 64.8014 18.0218C65.9682 20.3491 65.5788 19.0263 65.3232 21.3057C65.2413 22.0192 65.4558 22.3895 65.6718 22.9761C66.4578 22.4329 66.3679 20.7337 66.6204 20.5078C67.4121 20.1594 67.8411 20.6236 67.8737 21.4478C67.9384 23.0129 68.5695 26.9787 66.5842 27.5295Z" fill="#FFA500"/>
<path fill-rule="evenodd" clip-rule="evenodd" d="M48.8895 47.3018C49.1092 47.665 49.0689 47.3095 49.1882 47.7788C49.407 48.6381 48.9263 48.2755 49.7485 48.7108C50.2823 48.9924 50.0172 49.1439 50.1716 49.8223C50.3136 50.4517 50.2377 50.5826 50.2269 51.1432C50.2206 51.4282 50.2666 52.1291 50.2991 52.512C50.3365 52.9608 50.2377 53.2623 50.2649 53.8423C50.3065 54.7435 50.4389 55.6898 50.438 56.6638C50.4363 58.141 50.8916 57.7776 50.2877 59.2922C49.488 61.2992 50.0677 62.2132 51.0922 63.8702C51.9047 65.1848 51.0628 65.3194 50.7039 66.0004C50.9946 66.5296 51.1786 66.5727 51.4151 66.9296C52.0759 67.9241 49.989 67.7758 49.9567 69.6955C49.9402 70.6985 50.2144 71.3533 50.7387 71.9335C51.4265 72.6936 51.4574 73.0285 52.1092 73.6036C52.4077 73.8669 52.534 74.1029 52.8299 74.4033C54.153 75.7447 53.2932 75.4123 56.2399 75.3262C57.7551 75.282 59.818 74.419 60.671 73.6841C61.5996 72.8833 62.5003 70.2067 62.4238 69.3971C62.2675 67.7538 61.8529 66.1981 60.3846 65.3308L59.4041 64.7874C58.8255 64.4045 58.7867 64.7229 58.2352 64.6641C57.7368 64.6111 57.5694 64.4005 56.9968 64.3677C55.4927 64.2838 56.4505 64.487 55.157 63.1729C54.2346 62.2358 55.1501 62.3091 55.07 61.1017C54.9835 59.7746 55.3749 59.5138 53.3063 58.3964C52.4242 57.9196 52.1654 55.4733 52.079 54.3878C52.0371 53.8577 52.0821 54.224 51.9549 53.8994C51.5338 52.8273 51.5372 51.178 51.3658 49.9327C51.2942 49.4132 51.2425 49.0027 51.3512 48.6335C51.5175 48.0709 51.5814 48.0142 51.8847 47.6376C52.7526 46.5615 51.6528 45.383 50.3559 45.3119C49.5599 45.2683 48.4048 46.5018 48.8895 47.3018Z" fill="#FFA500"/>
<path fill-rule="evenodd" clip-rule="evenodd" d="M66.5842 27.5295C66.5856 26.9692 66.4957 26.1533 65.5611 26.4029C64.6702 26.6412 64.7883 28.0896 66.5842 27.5295Z" fill="#FFA500"/>
<path fill-rule="evenodd" clip-rule="evenodd" d="M65.3474 25.2485C65.3474 25.9115 65.623 25.936 65.8903 26.023C66.373 25.4259 66.0746 24.5173 65.8627 23.9926C65.8547 23.9724 65.8381 23.9364 65.8233 23.9099C65.6889 24.0554 65.8119 23.7733 65.6193 24.1755L65.3474 25.2485Z" fill="#FFA500"/>
<path fill-rule="evenodd" clip-rule="evenodd" d="M32.1294 48.3535C31.6307 48.3535 31.7776 48.4228 31.334 48.4149C30.287 48.3975 28.9616 49.1786 28.4446 49.6969C28.1453 49.9985 27.8946 50.2301 27.6076 50.5363L25.7258 53.8881C25.703 54.2296 25.7857 54.0541 25.7475 54.5428C25.6571 55.6905 25.4762 56.2315 26.3338 57.1424C26.8855 57.7295 27.4216 58.1329 28.1257 58.5834C28.5276 58.8393 28.7122 58.7939 29.1005 59.0458C29.697 59.4315 30.4656 59.6792 31.1851 59.8346C32.5491 60.1273 33.1878 59.9856 34.3153 59.6381C35.431 59.2923 34.7412 59.4643 35.5246 59.053C35.6199 59.0033 35.6672 58.9916 35.7728 58.9411L37.7892 57.2462C38.4925 56.4457 38.4166 54.5112 38.277 53.8239C38.0674 52.79 37.2435 51.862 36.6309 51.0369C36.1363 50.3694 35.7617 50.0647 35.2308 49.5631C34.6234 48.9888 32.6971 48.3535 32.1294 48.3535Z" fill="#FFA500"/>
<path fill-rule="evenodd" clip-rule="evenodd" d="M53.4861 50.3137C53.4861 50.953 53.7907 51.232 54.1719 51.6637C54.7011 52.2622 54.6962 52.469 55.6405 52.469C55.9452 52.469 56.3598 52.105 56.3598 51.7504C56.3598 51.0985 55.83 50.8788 55.5199 50.4346C54.4144 48.8533 53.4861 49.4672 53.4861 50.3137Z" fill="#FFA500"/>
<path fill-rule="evenodd" clip-rule="evenodd" d="M56.7181 56.061C56.7181 56.8038 56.6713 56.9282 57.6073 57.9262C57.9171 58.2557 59.8317 59.1857 59.8317 57.4982C59.8317 56.5186 58.5077 55.0256 57.5383 55.3101C57.2059 55.4085 56.7181 55.6949 56.7181 56.061Z" fill="#FFA500"/>
<path fill-rule="evenodd" clip-rule="evenodd" d="M47.6188 41.4532C47.4494 43.4904 47.1923 43.0143 48.4761 44.1882C49.1985 44.8492 48.8658 45.7639 51.8074 46.6115C52.1851 46.7199 52.2291 46.6834 52.6476 46.4822C52.2647 44.8373 53.2789 45.5265 52.0682 43.7092C51.7578 43.2434 51.7726 42.9424 51.5509 42.4297C51.0762 41.3259 50.2104 41.094 49.0555 41.094C48.756 41.094 48.7212 41.3616 47.6188 41.4532Z" fill="#FFA500"/>
<path fill-rule="evenodd" clip-rule="evenodd" d="M43.5908 37.2727C42.7547 37.2727 42.9994 37.3922 42.2562 37.3794C40.4963 37.3489 38.2722 38.7123 37.4061 39.6181C36.9034 40.1427 36.4829 40.5475 35.9996 41.0819L32.8426 46.9323C32.805 47.5282 32.9433 47.221 32.8786 48.0745C32.7268 50.0781 32.423 51.0213 33.8628 52.6121C34.7889 53.6362 35.6895 54.3409 36.872 55.1266C37.5444 55.5733 37.8546 55.4955 38.5076 55.9339C39.5075 56.6072 40.7979 57.0403 42.0069 57.3096C44.2949 57.8223 45.365 57.5741 47.2562 56.9678C49.1317 56.3639 47.974 56.664 49.2889 55.9456C49.4489 55.8589 49.5288 55.8398 49.7051 55.7511L53.0889 52.7926C54.2703 51.3947 54.1428 48.0195 53.908 46.8196C53.5559 45.0148 52.1749 43.3941 51.1458 41.9551C50.3148 40.7909 49.6857 40.2591 48.7945 39.3835C47.7749 38.3822 44.5428 37.2727 43.5908 37.2727Z" fill="#FFA500"/>
<path fill-rule="evenodd" clip-rule="evenodd" d="M79.4332 40.6928C79.4332 41.8083 79.9462 42.2956 80.5855 43.0484C81.4733 44.0932 81.4659 44.4546 83.0501 44.4546C83.5622 44.4546 84.2577 43.8187 84.2577 43.2014C84.2577 42.0625 83.3694 41.6802 82.8484 40.9045C80.9912 38.1435 79.4332 39.2156 79.4332 40.6928Z" fill="#FFA500"/>
<path fill-rule="evenodd" clip-rule="evenodd" d="M84.8597 50.7246C84.8597 52.0209 84.7807 52.2383 86.3526 53.9797C86.8721 54.554 90.0842 56.1776 90.0842 53.2331C90.0842 51.5223 87.8621 48.9173 86.2359 49.4146C85.6773 49.5852 84.8597 50.0844 84.8597 50.7246Z" fill="#FFA500"/>
<path fill-rule="evenodd" clip-rule="evenodd" d="M69.5863 25.2287C69.3024 28.7834 68.8713 27.9529 71.0252 30.0015C72.2383 31.1561 71.68 32.752 76.618 34.2306C77.2514 34.4198 77.3235 34.3562 78.0271 34.0061C77.3834 31.1347 79.0866 32.3369 77.0542 29.1656C76.5339 28.3531 76.5575 27.8268 76.1872 26.9333C75.3896 25.0059 73.936 24.6013 71.9978 24.6013C71.4965 24.6013 71.4381 25.0686 69.5863 25.2287Z" fill="#FFA500"/>
<path fill-rule="evenodd" clip-rule="evenodd" d="M13.96 15.2146C13.3626 15.2146 13.5389 15.3008 13.0068 15.2908C11.7513 15.2694 10.1617 16.2431 9.54289 16.8895C9.18399 17.2644 8.88359 17.5537 8.53953 17.9354L6.28462 22.1137C6.25694 22.5394 6.35537 22.3205 6.30886 22.9296C6.2016 24.3612 5.98421 25.0345 7.01353 26.1708C7.67482 26.9026 8.31729 27.4044 9.16145 27.9664C9.64245 28.2859 9.86383 28.2294 10.3297 28.5432C11.0441 29.024 11.9658 29.3338 12.8291 29.5261C14.465 29.8909 15.2278 29.7149 16.5798 29.281C17.9181 28.8499 17.0922 29.0653 18.0305 28.5521C18.1449 28.489 18.2019 28.4753 18.3278 28.4132L20.7456 26.2997C21.5892 25.301 21.4979 22.8906 21.3298 22.033C21.0785 20.7449 20.0911 19.5872 19.3582 18.5582C18.7631 17.7268 18.3158 17.3477 17.6781 16.7221C16.9501 16.0068 14.6404 15.2146 13.96 15.2146Z" fill="#FFA500"/>
<path fill-rule="evenodd" clip-rule="evenodd" d="M39.5626 17.6581C39.5626 18.4546 39.9283 18.8021 40.3851 19.3405C41.0198 20.0865 41.0135 20.3447 42.1459 20.3447C42.5116 20.3447 43.0088 19.8905 43.0088 19.4492C43.0088 18.6355 42.3732 18.3622 42.0009 17.809C40.6743 15.8368 39.5626 16.6023 39.5626 17.6581Z" fill="#FFA500"/>
<path fill-rule="evenodd" clip-rule="evenodd" d="M43.4368 24.8227C43.4368 25.7491 43.3812 25.904 44.5038 27.1473C44.8744 27.5586 47.1701 28.7183 47.1701 26.6152C47.1701 25.393 45.5821 23.5321 44.4216 23.887C44.0222 24.0085 43.4368 24.366 43.4368 24.8227Z" fill="#FFA500"/>
<path fill-rule="evenodd" clip-rule="evenodd" d="M32.5294 6.6118C32.3251 9.15086 32.0184 8.55746 33.5553 10.0216C34.4234 10.8458 34.024 11.9855 37.5513 13.0419C38.0032 13.1774 38.0554 13.1315 38.5564 12.8813C38.0968 10.8306 39.3147 11.6891 37.8626 9.42388C37.4908 8.84389 37.5082 8.46788 37.2432 7.82912C36.6735 6.45261 35.6342 6.16333 34.2517 6.16333C33.8931 6.16333 33.8508 6.49768 32.5294 6.6118Z" fill="#FFA500"/>
<path fill-rule="evenodd" clip-rule="evenodd" d="M37.484 73.1816C37.1413 73.1816 37.2415 73.2281 36.9371 73.2241C36.2167 73.2113 35.3058 73.7491 34.9506 74.1057C34.7443 74.3122 34.5715 74.4711 34.3743 74.6823L33.0811 76.9865C33.066 77.2207 33.1228 77.1001 33.096 77.4364C33.0338 78.2261 32.9097 78.5981 33.4988 79.224C33.8791 79.6277 34.2477 79.9053 34.7312 80.214C35.0074 80.3909 35.1343 80.3601 35.4022 80.5329C35.8119 80.798 36.3405 80.9686 36.8349 81.0747C37.773 81.2767 38.2106 81.1791 38.9854 80.9392C39.7537 80.7018 39.279 80.8199 39.8188 80.5378C39.8841 80.5035 39.9155 80.495 39.9891 80.461L41.3753 79.2951C41.8589 78.7445 41.8066 77.415 41.7105 76.9423C41.5664 76.2311 41.0007 75.5929 40.5791 75.0263C40.2378 74.5676 39.9808 74.3582 39.6165 74.0132C39.1977 73.6181 37.8742 73.1816 37.484 73.1816Z" fill="#FFA500"/>
<path fill-rule="evenodd" clip-rule="evenodd" d="M52.1672 74.5285C52.1672 74.9679 52.376 75.1599 52.6387 75.4571C53.0025 75.8677 52.999 76.0103 53.6484 76.0103C53.8575 76.0103 54.1416 75.7598 54.1416 75.517C54.1416 75.068 53.7785 74.9171 53.5651 74.6121C52.8048 73.5246 52.1672 73.9465 52.1672 74.5285Z" fill="#FFA500"/>
<path fill-rule="evenodd" clip-rule="evenodd" d="M54.3893 78.4803C54.3893 78.991 54.3567 79.0765 55.0009 79.7629C55.2132 79.9886 56.5295 80.6282 56.5295 79.4682C56.5295 78.795 55.6197 77.7679 54.9535 77.9642C54.7239 78.0315 54.3893 78.2281 54.3893 78.4803Z" fill="#FFA500"/>
<path opacity="0.65" fill-rule="evenodd" clip-rule="evenodd" d="M48.1335 68.437C48.0165 69.8366 47.8405 69.5097 48.722 70.3171C49.219 70.7721 48.9905 71.4003 51.0137 71.9829C51.2733 72.0582 51.3033 72.0328 51.59 71.895C51.3264 70.7636 52.0248 71.2369 51.1926 69.987C50.9792 69.6683 50.9892 69.4604 50.8366 69.108C50.5099 68.3495 49.9145 68.1897 49.1208 68.1897C48.9154 68.19 48.8918 68.3743 48.1335 68.437Z" fill="#FFA500"/>
<path fill-rule="evenodd" clip-rule="evenodd" d="M6.16279 46.1653C6.16279 48.1452 5.95852 48.2633 6.77187 49.5471C6.82979 49.6381 7.1302 50.0866 7.23262 50.2275C7.26828 50.2769 7.31249 50.3494 7.34844 50.3959C8.46905 51.8468 11.2734 52.6639 13.4408 51.7321L15.092 51.1031C16.3011 50.6227 15.9633 50.6857 16.7284 49.318C16.9276 48.9623 17.2816 48.6416 17.2816 48.4459C17.2816 45.6221 16.1687 44.2701 13.93 43.244C13.2779 42.9447 13.582 43.0962 12.7712 42.9578C9.77739 42.4503 9.13976 43.5196 7.30565 44.742C6.81952 45.0658 6.16279 45.3571 6.16279 46.1653Z" fill="#FFA500"/>
<path fill-rule="evenodd" clip-rule="evenodd" d="M20.1339 67.8336C22.5246 67.8336 24.2868 67.4887 24.9667 65.2389C25.3338 64.0213 25.6896 63.5081 24.7008 62.131C23.7494 60.803 20.6945 60.7048 19.8481 60.7048C18.7568 60.7048 15.0549 62.7278 17.2867 66.113C17.3207 66.1658 17.3632 66.2374 17.3991 66.2893C17.4465 66.359 17.5757 66.5652 17.6279 66.6303C18.1977 67.3395 19.1845 67.8336 20.1339 67.8336Z" fill="#FFA500"/>
<path fill-rule="evenodd" clip-rule="evenodd" d="M26.6915 76.9574C26.6915 78.4828 28.9365 80.2844 31.8224 77.2412C31.4829 76.5332 31.5993 76.4096 31.1029 75.6807C29.3966 73.1819 26.6915 76.0747 26.6915 76.9574Z" fill="#FFA500"/>
<path fill-rule="evenodd" clip-rule="evenodd" d="M18.4225 55.574C19.4749 57.1445 20.5715 57.047 21.5584 55.574C20.9424 54.4089 20.2922 53.5045 19.0016 54.7261C18.9594 54.7664 18.8975 54.8257 18.8584 54.8676L18.4225 55.574Z" fill="#FFA500"/>
<path fill-rule="evenodd" clip-rule="evenodd" d="M21.2731 58.1395C21.2731 60.1959 25.925 59.1591 22.6986 56.9998C22.3107 57.204 21.2731 57.6234 21.2731 58.1395Z" fill="#FFA500"/>
<path fill-rule="evenodd" clip-rule="evenodd" d="M53.9702 20.3891C52.182 20.322 52.0827 20.1337 50.8959 20.8253C50.8118 20.8746 50.3972 21.13 50.2652 21.2178C50.2209 21.2484 50.153 21.286 50.11 21.3171C48.7608 22.28 47.9301 24.7851 48.6986 26.7724L49.211 28.2861C49.6033 29.3936 49.5588 29.0861 50.7678 29.8235C51.0828 30.0155 51.3601 30.3459 51.5358 30.3525C54.0863 30.4478 55.3444 29.488 56.346 27.5013C56.6382 26.9227 56.4918 27.1923 56.6445 26.464C57.2031 23.778 56.2585 23.1661 55.216 21.4695C54.941 21.0184 54.6997 20.4162 53.9702 20.3891Z" fill="#FFA500"/>
<path fill-rule="evenodd" clip-rule="evenodd" d="M33.9338 32.2745C33.8528 34.4339 34.1053 36.0369 36.114 36.7265C37.2009 37.0993 37.6526 37.4377 38.9289 36.5912C40.1602 35.777 40.352 33.0214 40.3805 32.2569C40.4181 31.2706 38.715 27.8611 35.5834 29.7629C35.5346 29.792 35.4681 29.8276 35.4208 29.8576C35.3554 29.8984 35.1663 30.0079 35.1049 30.0539C34.4459 30.5431 33.9655 31.4175 33.9338 32.2745Z" fill="#FFA500"/>
<path fill-rule="evenodd" clip-rule="evenodd" d="M25.4748 37.8897C24.0983 37.8375 22.3954 39.8051 25.0457 42.5134C25.6964 42.2301 25.8043 42.3399 26.479 41.9151C28.7929 40.4596 26.2719 37.9196 25.4748 37.8897Z" fill="#FFA500"/>
<path fill-rule="evenodd" clip-rule="evenodd" d="M45.0609 31.1418C43.6079 32.0396 43.6584 33.0333 44.9562 33.9745C46.0292 33.4567 46.8673 32.9006 45.8066 31.693C45.773 31.6545 45.7225 31.596 45.6843 31.5604L45.0609 31.1418Z" fill="#FFA500"/>
<path fill-rule="evenodd" clip-rule="evenodd" d="M42.6485 33.6305C40.7916 33.5606 41.5719 37.7968 43.6305 34.9565C43.4585 34.5979 43.1161 33.6473 42.6485 33.6305Z" fill="#FFA500"/>
</svg>
