<svg width="81" height="81" viewBox="0 0 81 81" fill="none" xmlns="http://www.w3.org/2000/svg">
<g clip-path="url(#clip0_170_305)">
<path d="M50.054 75.5679L50.455 40.5702L65.454 40.7421C67.8739 40.7698 70.4752 38.9245 70.511 35.7997C70.5374 33.4949 69.1159 32.3085 67.8684 30.7691L45.8778 3.64037C44.3349 1.70756 43.1388 0.483777 40.914 0.458285C38.6891 0.432792 37.4603 1.62879 35.8785 3.52579L13.272 30.1435C11.9896 31.6539 10.5413 32.8074 10.5149 35.1123C10.4791 38.2371 13.0375 40.1415 15.4573 40.1692L30.4563 40.3411L30.0553 75.3388C30.0238 78.0886 32.2479 80.3642 34.9977 80.3957L44.997 80.5103C47.7469 80.5418 50.0225 78.3178 50.054 75.5679Z" fill="#DA2A2A"/>
</g>
<defs>
<clipPath id="clip0_170_305">
<rect width="80" height="80" fill="white" transform="translate(80.9113 0.916504) rotate(90.6565)"/>
</clipPath>
</defs>
</svg>
