<svg width="64" height="64" viewBox="0 0 64 64" fill="none" xmlns="http://www.w3.org/2000/svg">
<path d="M42.089 32L61.2589 12.83C64.0331 10.0558 64.0331 5.51532 61.2589 2.74108C58.4846 -0.0331597 53.9442 -0.0331597 51.1699 2.74108L32 21.911L12.8301 2.74108C10.0558 -0.0331597 5.51536 -0.0331597 2.74112 2.74108C-0.0331215 5.51532 -0.0331215 10.0558 2.74112 12.83L21.911 32L2.74112 51.1699C-0.0331215 53.9441 -0.0331215 58.4846 2.74112 61.2588C5.51536 64.0331 10.0558 64.0331 12.8301 61.2588L32 42.0889L51.1699 61.2588C53.9442 64.0331 58.4846 64.0331 61.2589 61.2588C64.0331 58.4846 64.0331 53.9441 61.2589 51.1699L42.089 32Z" fill="#71FB05"/>
</svg>
