<svg width="68" height="90" viewBox="0 0 68 90" fill="none" xmlns="http://www.w3.org/2000/svg">
<path d="M33.9783 89.5713C36.3723 89.5713 37.591 87.9608 40.0285 84.6529L66.014 49.962C67.1892 48.3515 67.8856 46.741 67.8856 44.9999C67.8856 43.2152 67.1892 41.6483 66.014 40.0378L40.0285 5.30347C37.591 2.03898 36.3723 0.428467 33.9783 0.428467C31.6279 0.428467 30.409 2.03898 27.9715 5.30347L1.98601 40.0378C0.810809 41.6483 0.11438 43.2152 0.11438 44.9999C0.11438 46.741 0.810809 48.3515 1.98601 49.962L27.9715 84.6529C30.409 87.9608 31.6279 89.5713 33.9783 89.5713Z" fill="#F012B2"/>
</svg>
